<?xml version="1.0" encoding="UTF-8" standalone="no"?>
<!-- Created with Inkscape (http://www.inkscape.org/) -->

<svg
   xmlns:dc="http://purl.org/dc/elements/1.1/"
   xmlns:cc="http://creativecommons.org/ns#"
   xmlns:rdf="http://www.w3.org/1999/02/22-rdf-syntax-ns#"
   xmlns:svg="http://www.w3.org/2000/svg"
   xmlns="http://www.w3.org/2000/svg"
   xmlns:sodipodi="http://sodipodi.sourceforge.net/DTD/sodipodi-0.dtd"
   xmlns:inkscape="http://www.inkscape.org/namespaces/inkscape"
   id="svg7384"
   height="16"
   width="16"
   version="1.1"
   sodipodi:docname="weather-showers-scattered-symbolic.svg"
   inkscape:version="0.92.1 r15371">
  <defs
     id="defs11" />
  <sodipodi:namedview
     pagecolor="#ffffff"
     bordercolor="#666666"
     borderopacity="1"
     objecttolerance="10"
     gridtolerance="10"
     guidetolerance="10"
     inkscape:pageopacity="0"
     inkscape:pageshadow="2"
     inkscape:window-width="1600"
     inkscape:window-height="808"
     id="namedview9"
     showgrid="false"
     inkscape:zoom="14.75"
     inkscape:cx="8"
     inkscape:cy="8"
     inkscape:window-x="0"
     inkscape:window-y="0"
     inkscape:window-maximized="1"
     inkscape:current-layer="svg7384" />
  <metadata
     id="metadata90">
    <rdf:RDF>
      <cc:Work
         rdf:about="">
        <dc:format>image/svg+xml</dc:format>
        <dc:type
           rdf:resource="http://purl.org/dc/dcmitype/StillImage" />
        <dc:title>Gnome Symbolic Icon Theme</dc:title>
      </cc:Work>
    </rdf:RDF>
  </metadata>
  <title
     id="title9167">Gnome Symbolic Icon Theme</title>
  <g
     transform="translate(-36.000007,-708.28994)"
     id="g9"
     style="fill:#232627;fill-opacity:1">
    <path
       inkscape:connector-curvature="0"
       style="color:#232627;fill:#232627;fill-opacity:1"
       d="m 11,3.0039062 c -2.07107,0 -3.83471,1.2679201 -4.59375,3.0625 C 4.47842,6.3530063 3,7.9963263 3,10.003906 c 0,1.933 1.36477,3.53327 3.1875,3.90625 0.76412,-0.77854 1.52122,-1.56145 2.3125,-2.3125 0.57304,0.53801 1.13306,1.09923 1.6875,1.65625 0.24292,-0.069 0.38252,-0.84617 0.71875,-1.09375 0.85427,-0.86808 1.70924,-1.72483 2.59375,-2.5624998 0.66629,0.6244898 1.29148,1.2610598 1.9375,1.9062498 0.59794,0.57143 1.22758,1.20365 1.4375,2.03125 0.016,0.0511 0.01805,0.10465 0.03125,0.15625 C 18.1415,13.150916 19,11.938456 19,10.503906 19,8.7073662 17.64921,7.2352063 15.90625,7.0351562 15.45168,4.7417662 13.42687,3.0039062 11,3.0039062 Z m 0,1 c 1.949476,0 3.562591,1.3942026 3.925781,3.2265626 l 0.140625,0.7148437 0.726563,0.083984 C 17.041935,8.1726269 18,9.2086162 18,10.503906 c 0,0.66952 -0.311219,1.201605 -0.730469,1.640625 -0.354639,-0.53426 -0.754143,-0.993396 -1.125,-1.347656 l -0.01172,-0.01172 C 15.495216,10.148226 14.865415,9.5081906 14.183594,8.8691406 L 13.496094,8.2246094 12.8125,8.8710938 C 11.914415,9.7216137 11.050872,10.587604 10.193359,11.458984 L 10.3125,11.355469 c -0.189526,0.13956 -0.163975,0.234117 -0.259766,0.367187 -0.2892296,-0.28551 -0.5700583,-0.572715 -0.8691402,-0.853515 l -0.6875,-0.646485 -0.6855469,0.650391 C 7.1783509,11.473097 6.5856574,12.085619 5.9902344,12.693359 4.8612824,12.267229 4,11.295726 4,10.003906 4,8.4872662 5.1012984,7.2724206 6.5527344,7.0566406 l 0.5546875,-0.083984 0.21875,-0.515625 C 7.9345489,5.0186812 9.337067,4.0039062 11,4.0039062 Z"
       transform="translate(33.000007,705.28994)"
       id="path5" />
    <path
       inkscape:connector-curvature="0"
       d="m 46.49998,716.28994 -0.34375,0.34375 -1.40625,1.40625 c -0.45315,0.45315 -0.75,1.0626 -0.75,1.75 0,1.37479 1.12521,2.5 2.5,2.5 1.37479,0 2.5,-1.12521 2.5,-2.5 0,-0.6874 -0.29685,-1.29685 -0.75,-1.75 l -1.40625,-1.40625 z m -5,2 -0.34375,0.34375 -1.40625,1.40625 c -0.45315,0.45315 -0.75,1.0626 -0.75,1.75 0,1.37479 1.12521,2.5 2.5,2.5 1.37479,0 2.5,-1.12521 2.5,-2.5 0,-0.6874 -0.29685,-1.29685 -0.75,-1.75 l -1.40625,-1.40625 z"
       style="fill:#232627;fill-opacity:1"
       class="ColorScheme-Highlight"
       id="path7" />
  </g>
</svg>
