<?xml version="1.0" encoding="UTF-8" standalone="no"?>
<svg
   xmlns:dc="http://purl.org/dc/elements/1.1/"
   xmlns:cc="http://creativecommons.org/ns#"
   xmlns:rdf="http://www.w3.org/1999/02/22-rdf-syntax-ns#"
   xmlns:svg="http://www.w3.org/2000/svg"
   xmlns="http://www.w3.org/2000/svg"
   xmlns:sodipodi="http://sodipodi.sourceforge.net/DTD/sodipodi-0.dtd"
   xmlns:inkscape="http://www.inkscape.org/namespaces/inkscape"
   viewBox="0 0 16 16"
   version="1.1"
   id="svg6"
   sodipodi:docname="camera-photo-symbolic.svg"
   inkscape:version="0.92.1 r15371">
  <metadata
     id="metadata10">
    <rdf:RDF>
      <cc:Work
         rdf:about="">
        <dc:format>image/svg+xml</dc:format>
        <dc:type
           rdf:resource="http://purl.org/dc/dcmitype/StillImage" />
      </cc:Work>
    </rdf:RDF>
  </metadata>
  <sodipodi:namedview
     pagecolor="#ffffff"
     bordercolor="#666666"
     borderopacity="1"
     objecttolerance="10"
     gridtolerance="10"
     guidetolerance="10"
     inkscape:pageopacity="0"
     inkscape:pageshadow="2"
     inkscape:window-width="1600"
     inkscape:window-height="808"
     id="namedview8"
     showgrid="false"
     inkscape:zoom="14.75"
     inkscape:cx="8"
     inkscape:cy="8"
     inkscape:window-x="0"
     inkscape:window-y="0"
     inkscape:window-maximized="1"
     inkscape:current-layer="svg6" />
  <defs
     id="defs3051">
    <style
       type="text/css"
       id="current-color-scheme">
      .ColorScheme-Text {
        color:#eff0f1;
      }
      </style>
  </defs>
  <path
     inkscape:connector-curvature="0"
     style="color:#eff0f1;fill:currentColor;fill-opacity:1;stroke:none"
     d="M 12,0.99999979 V 1.9999998 H 0 V 15 H 16 V 1.9999998 H 15 V 0.99999979 Z M 0.99999995,2.9999998 H 15 V 14 H 0.99999995 Z m 5.50000025,1 C 4.0147187,3.9999997 2,6.0147183 2,8.4999998 1.9999999,10.985281 4.0147187,13 6.5000002,13 8.9852816,13 11,10.985281 11,8.4999998 c 0,-2.4852813 -2.0147185,-4.4999999 -4.4999998,-4.5 z m 0,1 C 8.4329967,4.9999999 10,6.5670033 10,8.4999998 10,10.432996 8.4329968,12 6.5000002,12 4.5670034,12 2.9999998,10.432997 2.9999999,8.4999998 c 0,-1.9329967 1.5670036,-3.5000002 3.5000003,-3.5 z"
     id="rect4211"
     class="ColorScheme-Text"
     sodipodi:nodetypes="ccccccccccccccssssssssss" />
</svg>
