<?xml version="1.0" encoding="UTF-8" standalone="no"?>
<!-- Created with Inkscape (http://www.inkscape.org/) -->

<svg
   width="64"
   height="64"
   viewBox="0 0 16.933333 16.933333"
   version="1.1"
   id="svg1415"
   inkscape:version="1.1.1 (3bf5ae0d25, 2021-09-20, custom)"
   sodipodi:docname="folder-cloud.svg"
   xmlns:inkscape="http://www.inkscape.org/namespaces/inkscape"
   xmlns:sodipodi="http://sodipodi.sourceforge.net/DTD/sodipodi-0.dtd"
   xmlns:xlink="http://www.w3.org/1999/xlink"
   xmlns="http://www.w3.org/2000/svg"
   xmlns:svg="http://www.w3.org/2000/svg">
  <sodipodi:namedview
     id="namedview1417"
     pagecolor="#ffffff"
     bordercolor="#666666"
     borderopacity="1.0"
     inkscape:pageshadow="2"
     inkscape:pageopacity="0.0"
     inkscape:pagecheckerboard="0"
     inkscape:document-units="px"
     showgrid="false"
     units="px"
     inkscape:zoom="5.9735792"
     inkscape:cx="18.079613"
     inkscape:cy="25.947593"
     inkscape:window-width="1920"
     inkscape:window-height="1006"
     inkscape:window-x="0"
     inkscape:window-y="0"
     inkscape:window-maximized="1"
     inkscape:current-layer="svg1415" />
  <defs
     id="defs1412">
    <linearGradient
       inkscape:collect="always"
       id="linearGradient1305">
      <stop
         style="stop-color:#5e2750;stop-opacity:1"
         offset="0"
         id="stop1299" />
      <stop
         style="stop-color:#772953;stop-opacity:1"
         offset="0.60154283"
         id="stop1301" />
      <stop
         style="stop-color:#e95420;stop-opacity:1"
         offset="1"
         id="stop1303" />
    </linearGradient>
    <linearGradient
       inkscape:collect="always"
       id="linearGradient8759">
      <stop
         style="stop-color:#4d4d4d;stop-opacity:1;"
         offset="0"
         id="stop8755" />
      <stop
         style="stop-color:#666666;stop-opacity:1"
         offset="1"
         id="stop8757" />
    </linearGradient>
    <linearGradient
       inkscape:collect="always"
       xlink:href="#linearGradient1305"
       id="linearGradient849"
       x1="-1.0583334"
       y1="7.4083309"
       x2="19.579165"
       y2="7.4083309"
       gradientUnits="userSpaceOnUse"
       gradientTransform="translate(-0.2645833)" />
    <linearGradient
       inkscape:collect="always"
       xlink:href="#linearGradient8759"
       id="linearGradient1940"
       x1="16.139585"
       y1="15.345839"
       x2="8.4666662"
       y2="4.2333331"
       gradientUnits="userSpaceOnUse" />
  </defs>
  <path
     id="rect865"
     style="opacity:1;fill:url(#linearGradient849);fill-opacity:1;stroke-width:0.264583"
     d="m 0.79375,1.5875 6.3499968,-5.3e-6 1.322917,1.5875 7.6729172,-1.33e-5 2e-6,10.0541856 H 0.79375 Z"
     sodipodi:nodetypes="ccccccc" />
  <path
     id="rect1371"
     style="opacity:1;fill:url(#linearGradient1940);fill-opacity:1;stroke-width:0.264583"
     d="m 0.79375,5.8208333 h 6.3499999 l 1.3229165,-1.5875 7.6729186,6e-6 V 15.345839 H 0.7937526 Z"
     sodipodi:nodetypes="ccccccc" />
  <path
     id="rect6613"
     style="fill:#ffffff;fill-opacity:0.24;stroke-width:0.0529166"
     d="m 8.4666638,3.1749947 7.6729172,-1.33e-5 V 3.4395647 L 8.4666638,3.439578 7.1437468,1.5874947 Z"
     sodipodi:nodetypes="cccccc" />
  <path
     id="rect7008"
     style="fill:#000000;fill-opacity:0.24;stroke-width:0.22776"
     d="m 0.79375,5.55625 h 6.0854169 l 1.5874995,-1.3229167 -1.3229165,1.5875 H 0.79375 Z"
     sodipodi:nodetypes="cccccc" />
  <path
     id="rect7008-3"
     style="fill:#ffffff;fill-opacity:0.24;stroke-width:0.22776"
     d="m 0.79375,5.8208333 h 6.3499999 l 1.3229165,-1.5875 -1.0583335,1.852083 H 0.79375 Z"
     sodipodi:nodetypes="cccccc" />
  <rect
     style="fill:#000000;fill-opacity:0.24;stroke-width:0.192254"
     id="rect9471"
     width="15.345834"
     height="0.26458332"
     x="0.7937507"
     y="15.081255" />
  <path
     style="fill:#999999;stroke-width:0.264583;stroke-linejoin:round"
     id="path4225"
     d="m 8.4666665,7.4083462 a 1.8520833,1.8520833 0 0 0 -1.8520833,1.852084 1.8520833,1.8520833 0 0 0 0.021193,0.265099 1.3229166,1.3229166 0 0 0 -0.021193,-5.29e-4 1.3229166,1.3229166 0 0 0 -1.3229166,1.3229158 1.3229166,1.3229166 0 0 0 1.3229166,1.322917 h 3.4395828 a 1.5875,1.5875 0 0 0 1.5875,-1.5875 1.5875,1.5875 0 0 0 -1.341003,-1.5668308 1.8520833,1.8520833 0 0 0 -1.8339965,-1.608169 z m 0,0.264584 a 1.5875,1.5875 0 0 1 0.1586468,0.0078 1.5875,1.5875 0 0 1 0.7374231,0.269751 1.5875,1.5875 0 0 1 5.29e-4,0 1.5875,1.5875 0 0 1 0.34675,0.322976 1.5875,1.5875 0 0 1 0,5.3e-4 1.5875,1.5875 0 0 1 0.3214256,0.722955 1.5875,1.5875 0 0 1 0.02273,0.263536 1.3229166,1.3229166 0 0 1 0.263549,0.02635 1.3229166,1.3229166 0 0 1 0.127643,0.03256 1.3229166,1.3229166 0 0 1 5.29e-4,0 1.3229166,1.3229166 0 0 1 0.123505,0.04547 1.3229166,1.3229166 0 0 1 5.29e-4,0 1.3229166,1.3229166 0 0 1 0.11834,0.05736 1.3229166,1.3229166 0 0 1 0.0011,5.29e-4 1.3229166,1.3229166 0 0 1 0.11162,0.06873 1.3229166,1.3229166 0 0 1 0.0011,5.29e-4 1.3229166,1.3229166 0 0 1 0.104386,0.07958 1.3229166,1.3229166 0 0 1 5.3e-4,5.29e-4 1.3229166,1.3229166 0 0 1 0.09612,0.0894 1.3229166,1.3229166 0 0 1 5.29e-4,5.3e-4 1.3229166,1.3229166 0 0 1 0.163814,0.206705 1.3229166,1.3229166 0 0 1 5.29e-4,5.3e-4 1.3229166,1.3229166 0 0 1 0.06511,0.114204 1.3229166,1.3229166 0 0 1 5.29e-4,5.29e-4 1.3229166,1.3229166 0 0 1 0.05375,0.1198878 1.3229166,1.3229166 0 0 1 5.29e-4,5.3e-4 1.3229166,1.3229166 0 0 1 0.04134,0.125058 1.3229166,1.3229166 0 0 1 0,5.29e-4 1.3229166,1.3229166 0 0 1 0.02894,0.128675 1.3229166,1.3229166 0 0 1 0,5.29e-4 1.3229166,1.3229166 0 0 1 0.01601,0.130741 1.3229166,1.3229166 0 0 1 0.003,0.09342 1.3229166,1.3229166 0 0 1 -1.322917,1.322916 H 6.6146256 a 1.0583333,1.0583333 0 0 1 -1.0583334,-1.058333 1.0583333,1.0583333 0 0 1 0.00516,-0.105421 1.0583333,1.0583333 0 0 1 1.053166,-0.9529118 1.0583333,1.0583333 0 0 1 0.079066,0.0036 1.0583333,1.0583333 0 0 1 0,5.3e-4 1.0583333,1.0583333 0 0 1 0.3059244,0.06925 1.5875,1.5875 0 0 1 -0.090435,-0.303342 1.5875,1.5875 0 0 1 -0.019632,-0.134358 1.5875,1.5875 0 0 1 -0.00362,-0.03049 1.5875,1.5875 0 0 1 -0.00672,-0.134371 1.5875,1.5875 0 0 1 0.00775,-0.158647 1.5875,1.5875 0 0 1 1.5797477,-1.428853 z" />
</svg>
