<?xml version="1.0" encoding="UTF-8" standalone="no"?>
<!-- Created with Inkscape (http://www.inkscape.org/) -->

<svg
   width="64"
   height="64"
   viewBox="0 0 16.933333 16.933333"
   version="1.1"
   id="svg1415"
   inkscape:version="1.1.1 (3bf5ae0d25, 2021-09-20, custom)"
   sodipodi:docname="folder.svg"
   xmlns:inkscape="http://www.inkscape.org/namespaces/inkscape"
   xmlns:sodipodi="http://sodipodi.sourceforge.net/DTD/sodipodi-0.dtd"
   xmlns:xlink="http://www.w3.org/1999/xlink"
   xmlns="http://www.w3.org/2000/svg"
   xmlns:svg="http://www.w3.org/2000/svg">
  <sodipodi:namedview
     id="namedview1417"
     pagecolor="#ffffff"
     bordercolor="#666666"
     borderopacity="1.0"
     inkscape:pageshadow="2"
     inkscape:pageopacity="0.0"
     inkscape:pagecheckerboard="0"
     inkscape:document-units="px"
     showgrid="false"
     units="px"
     inkscape:zoom="5.9735792"
     inkscape:cx="18.079613"
     inkscape:cy="25.947593"
     inkscape:window-width="1920"
     inkscape:window-height="1006"
     inkscape:window-x="0"
     inkscape:window-y="0"
     inkscape:window-maximized="1"
     inkscape:current-layer="svg1415" />
  <defs
     id="defs1412">
    <linearGradient
       inkscape:collect="always"
       id="linearGradient1305">
      <stop
         style="stop-color:#5e2750;stop-opacity:1"
         offset="0"
         id="stop1299" />
      <stop
         style="stop-color:#772953;stop-opacity:1"
         offset="0.60154283"
         id="stop1301" />
      <stop
         style="stop-color:#e95420;stop-opacity:1"
         offset="1"
         id="stop1303" />
    </linearGradient>
    <linearGradient
       inkscape:collect="always"
       id="linearGradient8759">
      <stop
         style="stop-color:#4d4d4d;stop-opacity:1;"
         offset="0"
         id="stop8755" />
      <stop
         style="stop-color:#666666;stop-opacity:1"
         offset="1"
         id="stop8757" />
    </linearGradient>
    <linearGradient
       inkscape:collect="always"
       xlink:href="#linearGradient1305"
       id="linearGradient849"
       x1="-1.0583334"
       y1="7.4083309"
       x2="19.579165"
       y2="7.4083309"
       gradientUnits="userSpaceOnUse"
       gradientTransform="translate(-0.2645833)" />
    <linearGradient
       inkscape:collect="always"
       xlink:href="#linearGradient8759"
       id="linearGradient1940"
       x1="16.139585"
       y1="15.345839"
       x2="8.4666662"
       y2="4.2333331"
       gradientUnits="userSpaceOnUse" />
  </defs>
  <path
     id="rect865"
     style="opacity:1;fill:url(#linearGradient849);fill-opacity:1;stroke-width:0.264583"
     d="m 0.79375,1.5875 6.3499968,-5.3e-6 1.322917,1.5875 7.6729172,-1.33e-5 2e-6,10.0541856 H 0.79375 Z"
     sodipodi:nodetypes="ccccccc" />
  <path
     id="rect1371"
     style="opacity:1;fill:url(#linearGradient1940);fill-opacity:1;stroke-width:0.264583"
     d="m 0.79375,5.8208333 h 6.3499999 l 1.3229165,-1.5875 7.6729186,6e-6 V 15.345839 H 0.7937526 Z"
     sodipodi:nodetypes="ccccccc" />
  <path
     id="rect6613"
     style="fill:#ffffff;fill-opacity:0.24;stroke-width:0.0529166"
     d="m 8.4666638,3.1749947 7.6729172,-1.33e-5 V 3.4395647 L 8.4666638,3.439578 7.1437468,1.5874947 Z"
     sodipodi:nodetypes="cccccc" />
  <path
     id="rect7008"
     style="fill:#000000;fill-opacity:0.24;stroke-width:0.22776"
     d="m 0.79375,5.55625 h 6.0854169 l 1.5874995,-1.3229167 -1.3229165,1.5875 H 0.79375 Z"
     sodipodi:nodetypes="cccccc" />
  <path
     id="rect7008-3"
     style="fill:#ffffff;fill-opacity:0.24;stroke-width:0.22776"
     d="m 0.79375,5.8208333 h 6.3499999 l 1.3229165,-1.5875 -1.0583335,1.852083 H 0.79375 Z"
     sodipodi:nodetypes="cccccc" />
  <rect
     style="fill:#000000;fill-opacity:0.24;stroke-width:0.192254"
     id="rect9471"
     width="15.345834"
     height="0.26458332"
     x="0.7937507"
     y="15.081255" />
  <path
     style="fill:#999999;stroke-width:0.264583"
     id="rect4129"
     d="m 5.8208492,7.6729165 v 0.2645811 3.7041694 0.10972 0.154863 h 0.264583 5.0270728 v -0.154863 -0.10972 -0.264583 -3.7041675 h -0.01307 -0.251529 -4.6400748 -0.122414 -0.264584 m 0.264584,0.2645811 h 0.01307 l 1.580798,1.5811553 -1.59385,1.5938501 V 7.9374976 m 0.386996,0 H 10.460932 L 8.4666802,9.9317522 6.4724312,7.9374976 m 4.3624418,0 h 0.01307 V 11.112503 L 9.2540982,9.5186529 10.834888,7.9374976 m -2.9689738,1.767422 0.60043,0.6000674 0.600429,-0.6000674 1.6584028,1.6584114 0.122407,0.122409 v 0.154874 H 6.0850992 V 11.48574 l 0.122412,-0.122409 1.658403,-1.6584114" />
</svg>
