<?xml version="1.0" encoding="UTF-8" standalone="no"?>
<!-- Created with Inkscape (http://www.inkscape.org/) -->

<svg
   width="64"
   height="64"
   viewBox="0 0 16.933333 16.933333"
   version="1.1"
   id="svg1415"
   inkscape:version="1.1.1 (3bf5ae0d25, 2021-09-20, custom)"
   sodipodi:docname="folder-html.svg"
   xmlns:inkscape="http://www.inkscape.org/namespaces/inkscape"
   xmlns:sodipodi="http://sodipodi.sourceforge.net/DTD/sodipodi-0.dtd"
   xmlns:xlink="http://www.w3.org/1999/xlink"
   xmlns="http://www.w3.org/2000/svg"
   xmlns:svg="http://www.w3.org/2000/svg">
  <sodipodi:namedview
     id="namedview1417"
     pagecolor="#ffffff"
     bordercolor="#666666"
     borderopacity="1.0"
     inkscape:pageshadow="2"
     inkscape:pageopacity="0.0"
     inkscape:pagecheckerboard="0"
     inkscape:document-units="px"
     showgrid="false"
     units="px"
     inkscape:zoom="5.9735792"
     inkscape:cx="18.079613"
     inkscape:cy="25.947593"
     inkscape:window-width="1920"
     inkscape:window-height="1006"
     inkscape:window-x="0"
     inkscape:window-y="0"
     inkscape:window-maximized="1"
     inkscape:current-layer="svg1415" />
  <defs
     id="defs1412">
    <linearGradient
       inkscape:collect="always"
       id="linearGradient1305">
      <stop
         style="stop-color:#5e2750;stop-opacity:1"
         offset="0"
         id="stop1299" />
      <stop
         style="stop-color:#772953;stop-opacity:1"
         offset="0.60154283"
         id="stop1301" />
      <stop
         style="stop-color:#e95420;stop-opacity:1"
         offset="1"
         id="stop1303" />
    </linearGradient>
    <linearGradient
       inkscape:collect="always"
       id="linearGradient8759">
      <stop
         style="stop-color:#4d4d4d;stop-opacity:1;"
         offset="0"
         id="stop8755" />
      <stop
         style="stop-color:#666666;stop-opacity:1"
         offset="1"
         id="stop8757" />
    </linearGradient>
    <linearGradient
       inkscape:collect="always"
       xlink:href="#linearGradient1305"
       id="linearGradient849"
       x1="-1.0583334"
       y1="7.4083309"
       x2="19.579165"
       y2="7.4083309"
       gradientUnits="userSpaceOnUse"
       gradientTransform="translate(-0.2645833)" />
    <linearGradient
       inkscape:collect="always"
       xlink:href="#linearGradient8759"
       id="linearGradient1940"
       x1="16.139585"
       y1="15.345839"
       x2="8.4666662"
       y2="4.2333331"
       gradientUnits="userSpaceOnUse" />
  </defs>
  <path
     id="rect865"
     style="opacity:1;fill:url(#linearGradient849);fill-opacity:1;stroke-width:0.264583"
     d="m 0.79375,1.5875 6.3499968,-5.3e-6 1.322917,1.5875 7.6729172,-1.33e-5 2e-6,10.0541856 H 0.79375 Z"
     sodipodi:nodetypes="ccccccc" />
  <path
     id="rect1371"
     style="opacity:1;fill:url(#linearGradient1940);fill-opacity:1;stroke-width:0.264583"
     d="m 0.79375,5.8208333 h 6.3499999 l 1.3229165,-1.5875 7.6729186,6e-6 V 15.345839 H 0.7937526 Z"
     sodipodi:nodetypes="ccccccc" />
  <path
     id="rect6613"
     style="fill:#ffffff;fill-opacity:0.24;stroke-width:0.0529166"
     d="m 8.4666638,3.1749947 7.6729172,-1.33e-5 V 3.4395647 L 8.4666638,3.439578 7.1437468,1.5874947 Z"
     sodipodi:nodetypes="cccccc" />
  <path
     id="rect7008"
     style="fill:#000000;fill-opacity:0.24;stroke-width:0.22776"
     d="m 0.79375,5.55625 h 6.0854169 l 1.5874995,-1.3229167 -1.3229165,1.5875 H 0.79375 Z"
     sodipodi:nodetypes="cccccc" />
  <path
     id="rect7008-3"
     style="fill:#ffffff;fill-opacity:0.24;stroke-width:0.22776"
     d="m 0.79375,5.8208333 h 6.3499999 l 1.3229165,-1.5875 -1.0583335,1.852083 H 0.79375 Z"
     sodipodi:nodetypes="cccccc" />
  <rect
     style="fill:#000000;fill-opacity:0.24;stroke-width:0.192254"
     id="rect9471"
     width="15.345834"
     height="0.26458332"
     x="0.7937507"
     y="15.081255" />
  <path
     style="color:#000000;fill:#999999;stroke-width:0.264583"
     id="path26"
     d="m 8.4666712,7.1437499 c -0.09161,0 -0.183689,0.00754 -0.272851,0.016536 -0.178322,0.017992 -0.346732,0.047834 -0.512631,0.099219 -0.829497,0.256921 -1.487672,0.9150985 -1.744596,1.7445963 -0.05138,0.1658991 -0.08122,0.3343064 -0.09922,0.5126302 -0.009,0.089162 -0.01654,0.1812396 -0.01654,0.2728516 0,0.091612 0.0075,0.1836901 0.01654,0.272852 0.01799,0.178324 0.04783,0.346731 0.09922,0.51263 0.256924,0.829498 0.915099,1.487673 1.744596,1.744596 0.165899,0.05138 0.334309,0.08122 0.512631,0.09922 0.08916,0.009 0.181239,0.01654 0.272851,0.01654 0.09161,0 0.18369,-0.0075 0.272852,-0.01654 0.178321,-0.01799 0.346731,-0.04783 0.51263,-0.09922 0.165698,-0.05154 0.329599,-0.125243 0.479557,-0.206706 0.5999318,-0.325096 1.0594998,-0.874291 1.2650388,-1.53789 0.05138,-0.165899 0.08122,-0.334306 0.09922,-0.51263 0.009,-0.08916 0.01654,-0.1812399 0.01654,-0.272852 0,-0.091329 -0.0075,-0.1839066 -0.01654,-0.2728516 -0.01799,-0.1783236 -0.04783,-0.3467309 -0.09922,-0.51263 C 10.89398,8.6723034 10.724265,8.3640109 10.508924,8.1028645 10.455004,8.0375283 10.395142,7.9808148 10.335291,7.9209634 10.096174,7.6818462 9.8169562,7.4839882 9.5002002,7.3504556 c -0.07914,-0.033472 -0.165198,-0.065183 -0.248047,-0.09095 -0.165899,-0.051385 -0.334309,-0.081217 -0.51263,-0.099219 -0.08916,-0.009 -0.18124,-0.016536 -0.272852,-0.016537 z m 0,0.2645833 c 0.400397,0 0.776769,0.098269 1.107943,0.2728516 0.0088,0.0046 0.01611,0.011827 0.02479,0.016536 0.0067,0.00886 0.0048,0.018309 0.01654,0.024792 0.0087,0.00482 0.01667,0.012224 0.02479,0.016536 0.01394,0.0077 0.02769,0.019579 0.02479,0.033073 -0.0038,0.019711 -0.03614,0.018627 -0.04961,0.033073 0.0019,0.027892 -0.0093,0.022595 -0.01654,0.041341 0.0043,0.012039 0.01463,0.010398 0.01654,0.024791 -0.0024,0.015399 -0.02233,0.017198 -0.01654,0.033073 0.02598,0.020214 0.04988,0.00336 0.07441,0 0.05387,-0.00675 0.0991,0.00106 0.132292,-0.024791 -0.0035,-0.020585 0.01617,-0.026458 0.02479,-0.041341 0.01757,0.012303 0.0324,0.028572 0.04961,0.041341 -0.01011,0.00434 -0.0322,0.010768 -0.04134,0.016536 -0.01347,0.00913 -0.01767,0.022966 -0.03307,0.033073 -0.01106,0.0077 -0.03806,0.033073 -0.04961,0.033073 -0.01394,0 -0.03951,-0.011615 -0.04961,-0.00826 -0.01445,0.00434 -0.0085,0.027302 -0.02479,0.033073 -0.03175,0.011536 -0.08816,-0.031062 -0.09922,0.016536 0.01347,0.027411 0.05863,0.018177 0.08268,0.033073 0.01492,0.00963 0.03749,0.058063 0.04134,0.074414 0.0038,0.013467 0.0058,0.059989 0,0.074414 -0.01492,0.03847 -0.05497,0.034036 -0.09922,0.033073 -0.01204,0 -0.02201,0.00106 -0.03307,0 -0.07456,-0.00482 -0.148227,-0.02857 -0.181901,0.024791 0.0024,0.040876 0.0092,0.063632 0,0.099219 -0.0067,0.025956 -0.03452,0.043542 -0.03307,0.066146 5.29e-4,0.011536 0.02193,0.033737 0.02479,0.049609 0.0019,0.00865 -0.0039,0.0254 0,0.033073 0.01251,0.023574 0.04402,-0.00384 0.06615,0 0.02117,0.00336 0.04134,0.034314 0.04134,0.057878 0,0.016827 -0.006,0.049795 -0.01654,0.066146 -0.02117,0.031737 -0.06064,0.024024 -0.09095,0.041341 -0.025,0.01442 -0.0347,0.049406 -0.04961,0.074414 -0.01588,0.026929 -0.03107,0.035944 -0.02479,0.074414 -0.02164,0.042799 -0.04622,0.070271 -0.09095,0.09095 -0.01299,0.00577 -0.02932,0.016166 -0.04134,0.024792 -0.0096,0.00672 -0.01958,0.017674 -0.03307,0.033073 -0.01683,0.018759 -0.04047,0.026913 -0.04961,0.041341 -0.0067,0.01106 -0.0011,0.034703 -0.0083,0.049609 -0.01058,0.020214 -0.02787,0.037679 -0.04134,0.057878 -0.0062,0.00963 -0.0181,0.020558 -0.02479,0.033073 -0.0154,0.027892 -0.03596,0.04989 -0.03307,0.074414 0.0024,0.023574 0.03163,0.02893 0.03307,0.049609 0.0013,0.011536 -0.0088,0.020558 -0.0083,0.033073 5.29e-4,0.018283 0.0068,0.026913 0.0083,0.041341 0.0034,0.035587 -0.0181,0.049887 -0.02479,0.074414 -0.0034,0.011536 0.0029,0.023945 0,0.033073 -0.0058,0.017806 -0.03259,0.028451 -0.03307,0.049609 -5.29e-4,0.014922 0.02336,0.028461 0.02479,0.049609 0.0011,0.01442 -0.01114,0.027876 -0.0083,0.041341 0.0053,0.025982 0.05421,0.062484 0.07441,0.082682 0.02742,0.027413 0.05412,0.045559 0.06615,0.074414 0.01011,0.024527 0.01431,0.064407 0.03307,0.082682 0.01394,0.013467 0.04008,0.019129 0.05788,0.033073 0.01683,0.012992 0.04008,0.01913 0.05788,0.033073 0.02934,0.0231 0.06909,0.06951 0.115756,0.06615 0.02453,-0.0019 0.047,-0.01175 0.07441,-0.01654 0.02838,-0.0048 0.06209,-0.01942 0.09095,-0.01654 0.02212,0.0024 0.04306,0.01799 0.06615,0.01654 0.02405,-0.0013 0.05527,-0.01281 0.08268,-0.02479 0.04762,-0.02069 0.120904,-0.059708 0.19017,-0.049609 0.05291,0.0077 0.05391,0.067387 0.09095,0.09095 0.04233,0.0038 0.07382,-0.0082 0.1074868,0 0.02551,0.0062 0.05547,0.05422 0.05788,0.07442 0.0024,0.02069 -0.01365,0.03663 -0.01654,0.04961 -0.0067,0.02789 -0.01175,0.06489 -0.01654,0.08268 -0.0038,0.01394 -0.0088,0.0274 -0.0083,0.04134 0,0.01252 0.02008,0.04153 0.03307,0.05788 0.01587,0.02021 0.03864,0.03576 0.05788,0.05788 0.03512,0.04039 0.04988,0.09544 0.07441,0.148828 0.0062,0.01347 -0.0058,0.01624 0,0.03307 -0.01058,0.08079 -0.03804,0.133794 -0.09095,0.223242 -0.025,0.02885 -0.05009,0.06315 -0.04961,0.09922 -0.0019,0.08656 0.04519,0.131296 0.04134,0.214973 -0.0087,0.11253 5.29e-4,0.130059 -0.0083,0.19017 0.038,0.01924 0.01931,0.07584 0.0083,0.115755 -0.01635,0.04761 -0.0322,0.05921 -0.04134,0.09095 0.01974,0.0085 0.03626,0.01066 0.05788,0.0083 -0.4332418,0.450432 -1.0454668,0.727605 -1.7197918,0.727605 -0.315648,0 -0.617307,-0.0621 -0.892968,-0.173633 -0.0011,-2.65e-4 7.93e-4,-0.0079 0,-0.0083 0.025,-0.01058 0.07267,0.01857 0.09095,-0.01654 0.0092,-0.01683 -0.01204,-0.04931 0,-0.06614 0.0087,-0.01154 0.06489,-0.02193 0.08268,-0.02479 0.02551,-0.0043 0.05172,7.94e-4 0.06615,-0.0083 0.01587,-0.01011 0.03596,-0.03633 0.03307,-0.06615 -0.0013,-0.01394 -0.01379,-0.02058 -0.02479,-0.03307 -0.0091,-0.01058 -0.0021,-0.02344 -0.0083,-0.03307 -0.01154,-0.01683 -0.02826,-0.02506 -0.03307,-0.04961 0.03463,-0.0067 0.08227,0.03876 0.132291,0.02479 0.02357,-0.0067 0.06335,-0.05229 0.07442,-0.07441 0.0034,-0.0067 -0.0038,-0.03315 0,-0.04134 0.0043,-0.0091 0.01508,-0.01175 0.01654,-0.01654 0.0034,-0.01299 -0.0029,-0.01667 0,-0.02479 0.0087,-0.02453 0.03518,-0.04008 0.04961,-0.05788 0.01106,-0.01347 0.02297,-0.0274 0.03307,-0.04134 0.01154,-0.01492 0.01714,-0.02006 0.02479,-0.03307 0.0072,-0.04376 -0.02712,-0.07729 -0.01654,-0.115756 0.01154,-0.04328 0.07391,-0.07123 0.115755,-0.09095 0.01442,-0.0067 0.02932,-0.02048 0.04134,-0.02479 0.02886,-0.01011 0.06401,-0.0069 0.09095,-0.01654 0.04522,-0.01635 0.06055,-0.06613 0.08268,-0.107487 0.01058,-0.01924 0.02286,-0.03566 0.02479,-0.04961 0.0019,-0.01251 -0.0024,-0.02691 0,-0.04134 0.0024,-0.01442 0.0044,-0.02548 0.0083,-0.04134 0.0053,-0.02069 0.0083,-0.0596 0.0083,-0.08268 0,-0.01924 -0.0078,-0.02402 -0.0083,-0.04134 -0.0034,-0.06252 0.01826,-0.06508 0.04134,-0.09922 0.01154,-0.01683 0.01667,-0.04586 0.02479,-0.05788 0.03896,-0.05771 0.104028,-0.08611 0.09922,-0.173633 -0.0019,-0.02886 -0.01191,-0.09008 -0.03307,-0.09922 -0.01204,-0.0053 -0.04008,-0.0016 -0.05788,-0.0083 -0.05676,-0.02117 -0.09793,-0.08614 -0.157097,-0.09095 -0.01251,-5.3e-4 -0.01913,5.29e-4 -0.03307,0 -0.0231,-5.3e-4 -0.04844,-0.02193 -0.07441,-0.02479 -0.01635,-0.0019 -0.04826,0.0048 -0.05788,0 -0.01492,-0.0072 -0.01281,-0.03317 -0.02479,-0.04134 -0.0096,-0.0067 -0.02643,-0.01125 -0.04134,-0.01654 -0.02357,-0.0091 -0.03873,-0.0146 -0.06615,-0.01654 -0.0087,-5.29e-4 -0.03173,0.0013 -0.04134,0 -0.01492,-0.0024 -0.02739,-0.01617 -0.04134,-0.02479 -0.0173,-0.01058 -0.02585,-0.01815 -0.03307,-0.03307 0.01588,-0.05194 -0.03903,-0.06066 -0.04961,-0.09095 -0.0048,-0.01394 0.0048,-0.03711 0,-0.04961 -0.0062,-0.01781 -0.02162,-0.02643 -0.04134,-0.04134 -0.03463,-0.02693 -0.06621,-0.05163 -0.115756,-0.05788 -0.02212,-0.0024 -0.04796,0.0019 -0.07441,0 -0.0279,-0.0019 -0.06152,-0.0173 -0.08268,-0.041341 -0.02021,-0.023574 -0.02355,-0.046818 -0.04134,-0.057878 -0.01683,-0.010583 -0.04633,-0.013785 -0.05788,-0.024791 -0.0053,-0.00482 -0.0035,-0.013785 -0.0083,-0.024791 -0.0087,-0.01733 -0.02712,-0.020188 -0.01654,-0.041341 -0.01924,-0.00963 -0.01238,0.012118 -0.03307,0.00826 -0.01876,-0.026458 -0.03209,-0.041249 -0.07441,-0.033073 -0.01924,0.00384 -0.03527,0.032594 -0.05788,0.033073 -0.01876,5.291e-4 -0.03335,-0.029707 -0.05788,-0.033073 -0.01876,-0.00238 -0.04489,0.01942 -0.05788,0.016536 -0.02069,-0.00384 -0.0226,-0.028816 -0.04134,-0.041341 -0.01394,-0.00915 -0.04191,-0.033552 -0.04961,-0.033073 -0.02405,5.291e-4 -0.04123,0.050866 -0.07441,0.033073 -0.01635,-0.02069 0.02752,-0.022119 0.0083,-0.041341 -0.01442,-0.01442 -0.02151,5.292e-4 -0.03307,0.00825 -0.01347,0.00913 -0.02643,0.019526 -0.04134,0.024792 -0.03319,0.012515 -0.05671,0.011377 -0.08268,0.024791 -0.02405,0.012515 -0.02739,0.033351 -0.04134,0.057878 -0.01106,0.020214 -0.03277,0.048646 -0.04961,0.049609 -0.02022,0.00132 -0.0396,-0.025374 -0.05788,-0.033073 -0.05532,-0.024051 -0.08659,0.01606 -0.132292,0.016536 -0.04233,5.291e-4 -0.101142,-0.067569 -0.09922,-0.107487 0.0013,-0.024527 0.01365,-0.060656 0.01654,-0.09095 0.0024,-0.024051 0.02434,-0.044024 0.02479,-0.066146 5.29e-4,-0.029334 -0.04691,-0.054509 -0.06615,-0.057878 -0.04522,-0.00818 -0.105627,0.020214 -0.157097,0 -0.0096,-0.016351 0.01902,-0.025479 0.02479,-0.041341 0.0034,-0.00913 -0.0034,-0.014711 0,-0.024792 0.0058,-0.015399 0.02585,-0.025003 0.03307,-0.041341 0.0053,-0.012515 0.003,-0.034219 0.0083,-0.049609 0.0062,-0.01733 0.02334,-0.028837 0.02479,-0.041341 0.0019,-0.016351 -0.01185,-0.039029 -0.02479,-0.049609 -0.03993,0.00238 -0.06786,0.00606 -0.09095,0.016537 -0.05195,0.023574 -0.03852,0.091138 -0.09095,0.1074869 -0.01781,0.00577 -0.04594,0.013176 -0.06615,0.016537 0.03421,-0.1731089 0.08756,-0.3386799 0.157096,-0.4960938 0.01828,0.00336 0.03374,0.015081 0.04961,0.016537 0.04425,0.00336 0.04612,-0.030374 0.08268,-0.049609 0.03752,0.00529 0.0568,-0.00384 0.09095,0 0.0231,0.00238 0.05614,0.031631 0.07441,0.033073 0.0154,5.292e-4 0.01863,-0.018944 0.03307,-0.016536 0.01442,0.00238 0.03894,0.032295 0.04134,0.049609 0.0024,0.021643 -0.01455,0.042101 -0.0083,0.066146 0.02262,0.023098 0.06699,0.036145 0.09922,0.049609 0.02117,-0.01733 0.0034,-0.057674 0,-0.082682 -5.29e-4,-0.01106 0.0013,-0.022966 0,-0.033073 -0.0024,-0.017304 -0.0083,-0.034703 -0.0083,-0.049609 0,-0.068768 0.05304,-0.097092 0.09922,-0.1240235 0.01971,-0.011536 0.04056,-0.032684 0.05788,-0.041341 0.02453,-0.012039 0.03767,-0.013282 0.05788,-0.024792 0.03655,-0.02069 0.07084,-0.042579 0.09922,-0.066146 0.01299,-0.031255 -0.0013,-0.068442 0,-0.099219 0.01299,-0.00818 0.01913,0.00132 0.03307,0 0.02212,-0.00482 0.02883,-0.037108 0.04134,-0.049609 0.0072,-0.00722 0.03267,-0.00934 0.04134,-0.016537 0.02212,-0.01733 0.02209,-0.041913 0.04134,-0.049609 0.0067,-0.00238 0.02246,-0.0054 0.03307,-0.00826 0.01445,-0.00384 0.03479,-0.016669 0.05788,-0.024791 0.01492,-0.00529 0.0521,-0.00265 0.05788,-0.00826 0.0072,-0.00722 -0.0019,-0.038547 0,-0.049609 0.01154,-0.05434 0.09198,-0.056137 0.14056,-0.074414 0.03367,-0.012991 0.06997,-0.040288 0.107487,-0.033073 -0.0072,0.025956 -0.03933,0.018336 -0.03307,0.049609 0.0082,0.043762 0.05902,-0.010292 0.07441,-0.016536 0.02934,-0.012515 0.08554,-0.019129 0.124024,-0.033073 0.03367,-0.012012 0.08962,-0.035462 0.05788,-0.074414 -0.02646,-0.00185 -0.03479,0.023442 -0.05788,0.033073 -0.01588,0.00238 -0.01961,-0.0073 -0.03307,-0.00826 -0.01299,-5.292e-4 -0.02008,0.010663 -0.03307,0.00826 -0.01299,-0.00238 -0.03115,-0.025956 -0.03307,-0.041341 -0.0053,-0.040394 0.04153,-0.052866 0.05788,-0.082682 -0.01106,-0.03655 -0.06017,-0.00212 -0.09095,-0.016537 0.0034,-0.021643 0.01585,-0.045278 0.04134,-0.049609 0.02069,-0.00336 0.07018,0.00654 0.08268,0.016536 0.0072,0.00624 -0.0028,0.022966 0.0083,0.033073 0.01251,0.01106 0.03326,0.00238 0.04961,0 0.0058,-0.027411 -0.03788,-0.015293 -0.03307,-0.033073 0.03271,-0.021167 0.09237,-0.011245 0.132292,-0.016536 0.0231,-0.00336 0.04546,-0.022013 0.06615,-0.033073 0.01924,-0.01106 0.03767,-0.026554 0.05788,-0.00826 0.0058,0.019711 -0.01379,0.031242 -0.02479,0.041341 -0.03704,0.0327 -0.07036,0.069498 -0.09922,0.1074869 0.01781,0.01733 0.04459,0.00492 0.07441,0.00825 0.01154,0.00132 0.02931,0.00635 0.04134,0.00826 0.01445,0.00238 0.0298,-0.00238 0.04134,0 0.02022,0.00482 0.02114,0.033073 0.04134,0.033073 0.03271,0 0.03531,-0.027488 0.01654,-0.049609 0.0058,-0.022622 0.01648,-0.042005 0.0083,-0.057878 -0.01492,-0.029816 -0.07153,0.00489 -0.07441,-0.033073 -0.0019,-0.024051 0.02442,-0.031332 0.03307,-0.049609 -0.0038,-0.046164 0.03788,-0.049112 0.03307,-0.09095 -0.0024,-0.01733 -0.02103,-0.016748 -0.03307,-0.033073 -0.0062,-0.00865 -0.0093,-0.026821 -0.01654,-0.033073 -0.025,-0.021167 -0.07153,-0.017489 -0.07441,-0.057878 -0.0013,-0.024051 0.0034,-0.04018 0,-0.066146 -0.0034,-0.024527 -0.02845,-0.094409 -0.04961,-0.099219 -0.02694,-0.00577 -0.04218,0.042971 -0.07441,0.057878 -0.0173,0.00818 -0.04835,0.011642 -0.06615,0.00826 -0.01154,-0.00238 -0.03163,-0.01098 -0.03307,-0.033073 -0.0013,-0.012726 0.0029,-0.017251 0.0083,-0.024791 0.0013,-0.00185 -0.0013,-0.0064 0,-0.00826 0.209283,-0.060148 0.432832,-0.09095 0.661458,-0.09095 z m -0.983919,0.214974 c -0.02347,0.075171 -0.09142,0.1180835 -0.181901,0.1157552 -0.02212,0.021167 -0.01281,0.061613 -0.02479,0.09095 -0.01011,0.024527 -0.04162,0.043267 -0.06615,0.041341 -0.01781,-0.00132 -0.04961,-0.024501 -0.04961,-0.041341 0,-0.013785 0.01333,-0.029374 0.01654,-0.041341 0.09738,-0.062963 0.199464,-0.1169247 0.305924,-0.1653646 z m 2.025716,0.082682 c -0.0089,0.00159 -0.01701,0.0037 -0.02479,0.00826 -0.01828,0.01106 -0.01913,0.027784 -0.03307,0.033073 -0.01971,0.00722 -0.04672,0.00704 -0.04961,0.024791 -0.0024,0.014922 0.01704,0.019606 0.01654,0.033073 -0.0072,0.017806 -0.02096,0.019685 -0.02479,0.041341 0.02453,0.039915 0.08545,5.292e-4 0.115755,-0.00826 0.01347,-0.00384 0.02585,0.00212 0.03307,-0.00826 0.0082,-0.012991 0.0021,-0.039603 0.0083,-0.057878 0.0067,-0.020214 0.02721,-0.015293 0.02479,-0.033073 -0.0019,-0.017806 -0.03632,-0.035957 -0.06615,-0.033073 z m -2.621029,0.3059244 c 0.01765,0.021299 0.0324,0.052216 0,0.066146 -0.0048,0.00238 -0.06287,0.010663 -0.07441,0.00826 -0.0036,-5.292e-4 -0.0051,-0.00603 -0.0083,-0.00826 0.02529,-0.024553 0.05633,-0.04272 0.08268,-0.066146 z m 0.06615,0.082682 c 0.01154,5.292e-4 0.01961,0.023839 0.03307,0.024791 0.01299,0.00106 0.03363,-0.010663 0.04134,-0.00826 0.02021,0.00529 0.02752,0.042968 0.0083,0.057878 -0.01587,0.00185 -0.02154,-0.018944 -0.03307,-0.016537 -0.03271,0.00577 -0.04161,0.068069 -0.06615,0.066146 -0.0231,-0.00238 -0.04012,-0.049313 -0.01654,-0.066146 5.29e-4,-0.014446 -0.0093,-0.018653 -0.0083,-0.033073 0.0072,-0.00913 0.02209,-0.026247 0.04134,-0.024791 z m -0.107487,0.016536 c 0.0067,0 0.0058,-0.00288 0.0083,0 -0.0034,0.025479 -0.01336,0.029319 -0.03307,0.041341 -0.03415,0.020691 -0.05508,0.046707 -0.06615,0.090951 -0.0034,0.012991 -0.04152,0.052972 -0.05788,0.049609 -0.038,-0.00818 0.01614,-0.079891 0.02479,-0.090951 0.0096,-0.012038 0.02201,-0.019606 0.03307,-0.033073 0.01106,-0.013467 0.01423,-0.041915 0.02479,-0.049609 0.01154,-0.00818 0.04594,-0.00923 0.06615,-0.00826 z m 3.2576818,0.066146 c 0.038,-0.00238 0.0571,0.043061 0.07442,0.066146 0.01442,0.018759 0.05911,0.044892 0.08268,0.057878 0.01347,0.00722 0.02643,0.018097 0.04134,0.024791 0.01564,0.00696 0.03942,0.016113 0.05788,0.033073 0.01847,0.01696 0.03235,0.04249 0.03307,0.057878 5.29e-4,0.015399 -0.01069,0.026914 -0.0083,0.041341 0.01667,0.00273 0.02529,-0.014261 0.03307,-0.033073 0.06235,0.088934 0.115443,0.1838431 0.165365,0.2811198 -0.01013,0.00627 -0.0145,0.012409 -0.01654,0.024791 -0.0048,0.026929 0.01558,0.061338 -0.02479,0.066146 -0.02548,0.00336 -0.05584,-0.0254 -0.09095,-0.033073 -0.01442,-0.00336 -0.03807,0.00384 -0.04961,0 -0.02646,-0.00913 -0.01873,-0.042008 -0.04134,-0.057878 -0.01299,-0.00915 -0.04546,-0.02241 -0.06615,-0.024791 -0.01299,-0.00132 -0.01961,0.00185 -0.03307,0 -0.01635,-0.00185 -0.04441,-9.26e-5 -0.05788,-0.00825 -0.01299,-0.00818 -0.04624,-0.022013 -0.04961,-0.033073 -0.0053,-0.017807 0.04038,-0.042968 0.04134,-0.057878 0.0011,-0.011536 -0.01413,-0.015769 -0.01654,-0.033073 -0.0019,-0.010583 0.0024,-0.026326 0,-0.033073 -0.0034,-0.012515 -0.02162,-0.024315 -0.04134,-0.024791 -0.01733,0 -0.0347,0.00826 -0.04961,0.00826 -0.02117,5.291e-4 -0.06449,-0.010663 -0.09095,-0.00826 -0.01588,0.00132 -0.02643,0.0073 -0.04134,0.00826 -0.04185,0.00336 -0.06651,-0.00238 -0.09922,0 -0.02357,0.00132 -0.06882,0.014737 -0.09095,0.024791 -0.01106,0.00529 -0.01863,0.017621 -0.03307,0.024791 -0.0067,0.00336 -0.01611,0.00445 -0.02479,0.00826 -0.01347,0.00624 -0.03662,0.021458 -0.04961,0.024791 -0.01876,0.00482 -0.04026,-0.00132 -0.07441,0 -0.02453,0.00132 -0.06566,-0.00376 -0.06615,-0.033073 -5.29e-4,-0.044722 0.08169,-0.0254 0.124023,-0.033073 0.01588,-0.00336 0.02209,-0.022013 0.04134,-0.033073 0.0092,-0.00529 0.01614,-0.010769 0.02479,-0.016536 0.01442,-0.010107 0.03894,-0.029797 0.04134,-0.041341 0.0019,-0.010583 -0.0097,-0.0254 -0.0083,-0.033073 0.0019,-0.010107 0.02008,-0.020082 0.03307,-0.033073 0.02021,-0.020214 0.03286,-0.044894 0.05788,-0.057878 0.01683,-0.00913 0.05018,-0.011377 0.05788,-0.024791 0.0019,-0.015399 -5.29e-4,-0.019129 0,-0.033073 0.01058,-0.00963 0.0079,-0.014632 0.01654,-0.016537 0.02598,-0.00577 0.05238,0.00971 0.08268,0.00826 0.01299,-5.291e-4 0.02739,0.00106 0.04134,-0.00826 0.01154,-0.0077 0.02154,-0.01905 0.03307,-0.024791 0.01252,-0.00675 0.02593,-0.023839 0.04134,-0.024791 z m -3.0344398,0.024791 c 0.0064,-0.00106 0.01709,7.937e-4 0.02479,0 0.01106,-5.292e-4 0.02103,0 0.03307,0 0.01204,0 0.02826,-0.00482 0.03307,0 -0.0077,0.031739 -0.08247,0.019817 -0.107487,0.00826 5.29e-4,-0.00601 0.01016,-0.00725 0.01654,-0.00826 z m -0.09095,0.057878 c 0.0082,0 0.01614,-0.00336 0.02479,0 -0.02212,0.018759 -0.05247,0.029318 -0.09095,0.041341 -0.01828,0.00577 -0.04624,0.011906 -0.04961,-0.00825 -0.0039,-0.025003 0.01672,-0.02241 0.03307,-0.024791 0.02117,-0.00238 0.05815,-0.00778 0.08268,-0.00826 z m 3.1336588,0 c -0.01588,0.00529 -0.02358,0.037015 0,0.041341 0.01106,-0.00672 0.01117,-0.02114 0.0083,-0.041341 -0.0062,-0.00672 -0.0035,-0.00185 -0.0083,0 z m -0.0083,0.066146 c -0.0077,0.00238 -0.01667,-5.291e-4 -0.02479,0.00826 5.29e-4,0.026929 0.0053,0.042582 0,0.066146 0.0154,0.029816 0.05018,0.011906 0.05788,-0.00826 0.0092,-0.050014 -0.01,-0.072398 -0.03307,-0.066146 z m 0.206705,0.1322917 c -0.02117,-0.00106 -0.0371,0.00654 -0.04961,0.016536 0.01781,0.028856 0.05103,0.034126 0.09095,0.041341 0.01442,-0.010583 0.0098,-0.039603 0.01654,-0.057878 -0.01733,0 -0.02845,0.00106 -0.04961,0 z M 6.1101982,9.4753765 c 0.01691,0.021537 0.03516,0.046638 0.05788,0.057878 0.01204,0.00624 0.02595,0.00492 0.04134,0.00826 0.01252,0.00238 0.02106,0.0127 0.03307,0.016536 0.02551,0.00865 0.06248,0.00741 0.08268,0.016537 0.03079,0.013467 0.04796,0.067291 0.07441,0.082682 0.0013,0.015399 -0.0048,0.0298 0,0.041341 0.01251,0.016827 0.03767,0.022013 0.05788,0.033073 0.02453,0.013467 0.03479,0.047297 0.05788,0.057878 0.0082,0.00336 0.02056,-0.00384 0.03307,0 0.03175,0.00963 0.03873,0.057782 0.06615,0.049609 0.01781,-0.00529 0.02193,-0.032298 0.02479,-0.049609 0.01204,-0.012991 0.02257,-0.033073 0.04134,-0.033073 0.02982,-5.291e-4 0.03854,0.036814 0.04961,0.066146 0.0062,0.016351 0.02048,0.032298 0.02479,0.049609 0.0072,0.02982 0.0062,0.114498 0,0.1322915 -0.0077,0.02212 -0.0396,0.03383 -0.05788,0.05788 -0.0087,0.01154 -0.0181,0.0254 -0.02479,0.03307 -0.01154,0.01442 -0.02439,0.02011 -0.03307,0.03307 -0.0048,0.0072 -0.0039,0.02297 -0.0083,0.03307 -0.01445,0.03078 -0.03684,0.05392 -0.02479,0.09095 0.0048,0.01492 0.02479,0.03182 0.02479,0.04961 0,0.02117 -0.04624,0.02653 -0.04961,0.04961 -0.0024,0.01683 0.01953,0.05181 0.02479,0.07441 0.0038,0.01683 0.03124,0.03028 0.04134,0.04134 0.01683,0.01876 0.03422,0.0421 0.04961,0.06615 0.0303,0.04665 0.0446,0.103143 0.07441,0.148828 0.01587,0.02358 0.04729,0.04114 0.05788,0.06615 0.0053,0.01252 -0.0048,0.03807 0,0.04961 0.0173,0.03895 0.101597,0.07998 0.14056,0.09922 0.01828,0.0092 0.03278,0.01519 0.04961,0.02479 0.02551,0.01445 0.07796,0.04354 0.09095,0.06615 0.01153,0.02021 0.01902,0.067 0.02479,0.09922 0.0072,0.04232 -0.0019,0.07834 0,0.124024 0.0013,0.025 0.0083,0.04114 0.0083,0.06615 0,0.0087 5.29e-4,0.02442 0,0.03307 -5.29e-4,0.02982 0.0024,0.06066 0,0.09095 -0.0013,0.01635 -0.0011,0.03566 0,0.04961 0.0013,0.01492 0.01558,0.02008 0.01654,0.03307 0.0011,0.01394 -0.01799,0.03028 -0.01654,0.04134 0.0034,0.0303 0.03557,0.05479 0.04134,0.08268 0.0048,0.02212 0.01114,0.07277 0.0083,0.09922 -0.0019,0.01394 -0.0064,0.03422 -0.0083,0.04961 -0.0013,0.01204 0.0019,0.02201 0,0.03307 -0.659265,-0.423476 -1.099674,-1.159153 -1.099674,-2.0009107 0,-0.1079182 0.0109,-0.2100792 0.02479,-0.3141927 z m 0.909505,0.2397786 c 0.0231,-0.010583 0.01876,0.030186 0,0.033073 -0.01781,0.00238 -0.0173,-0.024897 0,-0.033073 z" />
</svg>
