<?xml version="1.0" encoding="UTF-8" standalone="no"?>
<!-- Created with Inkscape (http://www.inkscape.org/) -->

<svg
   width="64"
   height="64"
   viewBox="0 0 16.933333 16.933333"
   version="1.1"
   id="svg1415"
   inkscape:version="1.1.1 (3bf5ae0d25, 2021-09-20, custom)"
   sodipodi:docname="folder-encrypted.svg"
   xmlns:inkscape="http://www.inkscape.org/namespaces/inkscape"
   xmlns:sodipodi="http://sodipodi.sourceforge.net/DTD/sodipodi-0.dtd"
   xmlns:xlink="http://www.w3.org/1999/xlink"
   xmlns="http://www.w3.org/2000/svg"
   xmlns:svg="http://www.w3.org/2000/svg">
  <sodipodi:namedview
     id="namedview1417"
     pagecolor="#ffffff"
     bordercolor="#666666"
     borderopacity="1.0"
     inkscape:pageshadow="2"
     inkscape:pageopacity="0.0"
     inkscape:pagecheckerboard="0"
     inkscape:document-units="px"
     showgrid="false"
     units="px"
     inkscape:zoom="11.947158"
     inkscape:cx="20.841776"
     inkscape:cy="44.864225"
     inkscape:window-width="1920"
     inkscape:window-height="1006"
     inkscape:window-x="0"
     inkscape:window-y="0"
     inkscape:window-maximized="1"
     inkscape:current-layer="svg1415" />
  <defs
     id="defs1412">
    <linearGradient
       inkscape:collect="always"
       id="linearGradient1305">
      <stop
         style="stop-color:#111111;stop-opacity:1"
         offset="0"
         id="stop1299" />
      <stop
         style="stop-color:#333333;stop-opacity:1"
         offset="0.60154283"
         id="stop1301" />
      <stop
         style="stop-color:#666666;stop-opacity:1"
         offset="1"
         id="stop1303" />
    </linearGradient>
    <linearGradient
       inkscape:collect="always"
       id="linearGradient8759">
      <stop
         style="stop-color:#4d4d4d;stop-opacity:1;"
         offset="0"
         id="stop8755" />
      <stop
         style="stop-color:#666666;stop-opacity:1"
         offset="1"
         id="stop8757" />
    </linearGradient>
    <linearGradient
       inkscape:collect="always"
       xlink:href="#linearGradient1305"
       id="linearGradient849"
       x1="-1.0583334"
       y1="7.4083309"
       x2="19.579165"
       y2="7.4083309"
       gradientUnits="userSpaceOnUse"
       gradientTransform="translate(-0.2645833)" />
    <linearGradient
       inkscape:collect="always"
       xlink:href="#linearGradient8759"
       id="linearGradient1940"
       x1="16.139585"
       y1="15.345839"
       x2="8.4666662"
       y2="4.2333331"
       gradientUnits="userSpaceOnUse" />
  </defs>
  <path
     id="rect865"
     style="opacity:1;fill:url(#linearGradient849);fill-opacity:1;stroke-width:0.264583"
     d="m 0.79375,1.5875 6.3499968,-5.3e-6 1.322917,1.5875 7.6729172,-1.33e-5 2e-6,10.0541856 H 0.79375 Z"
     sodipodi:nodetypes="ccccccc" />
  <path
     id="rect1371"
     style="opacity:1;fill:url(#linearGradient1940);fill-opacity:1;stroke-width:0.264583"
     d="m 0.79375,5.8208333 h 6.3499999 l 1.3229165,-1.5875 7.6729186,6e-6 V 15.345839 H 0.7937526 Z"
     sodipodi:nodetypes="ccccccc" />
  <path
     id="rect6613"
     style="fill:#ffffff;fill-opacity:0.24;stroke-width:0.0529166"
     d="m 8.4666638,3.1749947 7.6729172,-1.33e-5 V 3.4395647 L 8.4666638,3.439578 7.1437468,1.5874947 Z"
     sodipodi:nodetypes="cccccc" />
  <path
     id="rect7008"
     style="fill:#000000;fill-opacity:0.24;stroke-width:0.22776"
     d="m 0.79375,5.55625 h 6.0854169 l 1.5874995,-1.3229167 -1.3229165,1.5875 H 0.79375 Z"
     sodipodi:nodetypes="cccccc" />
  <path
     id="rect7008-3"
     style="fill:#ffffff;fill-opacity:0.24;stroke-width:0.22776"
     d="m 0.79375,5.8208333 h 6.3499999 l 1.3229165,-1.5875 -1.0583335,1.852083 H 0.79375 Z"
     sodipodi:nodetypes="cccccc" />
  <path
     id="rect4179-71-2"
     style="opacity:0.6;fill:#808080;fill-opacity:1;stroke:none;stroke-width:2;stroke-miterlimit:4;stroke-dasharray:none;stroke-opacity:1"
     d="M 3 46 L 3 50 L 6 50 L 6 46 L 3 46 z M 6 50 L 6 54 L 10 54 L 10 50 L 6 50 z M 10 50 L 14 50 L 14 46 L 10 46 L 10 50 z M 14 50 L 14 54 L 18 54 L 18 50 L 14 50 z M 18 50 L 22 50 L 22 46 L 18 46 L 18 50 z M 22 50 L 22 54 L 26 54 L 26 50 L 22 50 z M 26 50 L 30 50 L 30 46 L 26 46 L 26 50 z M 30 50 L 30 54 L 34 54 L 34 50 L 30 50 z M 34 50 L 38 50 L 38 46 L 34 46 L 34 50 z M 38 50 L 38 54 L 42 54 L 42 50 L 38 50 z M 42 50 L 46 50 L 46 46 L 42 46 L 42 50 z M 46 50 L 46 54 L 50 54 L 50 50 L 46 50 z M 50 50 L 54 50 L 54 46 L 50 46 L 50 50 z M 54 50 L 54 54 L 58 54 L 58 50 L 54 50 z M 58 50 L 61 50 L 61 46 L 58 46 L 58 50 z M 58 54 L 58 58 L 61 58 L 61 54 L 58 54 z M 54 54 L 50 54 L 50 58 L 54 58 L 54 54 z M 46 54 L 42 54 L 42 58 L 46 58 L 46 54 z M 38 54 L 34 54 L 34 58 L 38 58 L 38 54 z M 30 54 L 26 54 L 26 58 L 30 58 L 30 54 z M 22 54 L 18 54 L 18 58 L 22 58 L 22 54 z M 14 54 L 10 54 L 10 58 L 14 58 L 14 54 z M 6 54 L 3 54 L 3 58 L 6 58 L 6 54 z "
     transform="scale(0.26458333)" />
  <path
     style="fill:#999999;fill-opacity:1;stroke-width:0.264583"
     d="m 8.466674,7.4083307 c -0.732896,0 -1.322917,0.5900209 -1.322917,1.3229167 V 9.7895807 H 6.3500074 v 0.5291663 1.852084 H 10.583341 V 9.7895807 H 10.12032 9.789591 V 8.7312474 c 0,-0.7328958 -0.590021,-1.3229167 -1.322917,-1.3229167 z m 0,0.2645834 c 0.549672,0 1.058333,0.4170494 1.058333,1.0583333 V 9.7895807 H 7.408341 V 8.7312474 c 0,-0.6412839 0.508664,-1.0583333 1.058333,-1.0583333 z M 6.6145908,10.054164 h 3.7041662 v 1.852083 H 6.6145908 Z"
     id="rect4136-9-5" />
  <rect
     style="fill:#000000;fill-opacity:0.24;stroke-width:0.192254"
     id="rect9471"
     width="15.345834"
     height="0.26458332"
     x="0.7937507"
     y="15.081255" />
</svg>
