<svg xmlns="http://www.w3.org/2000/svg" id="svg2" width="22" height="22" version="1">
 <defs id="defs10">
  <style id="current-color-scheme" type="text/css">
   .ColorScheme-Text { color:#eff0f1; } .ColorScheme-Highlight { color:#3daee9; }
  </style>
 </defs>
 <path id="path4" style="fill:#3daee9;fill-opacity:1" d="M 9.8925781 3.0039062 C 9.1776781 2.9731562 8.4249181 3.1174487 7.8925781 3.3867188 C 7.4305981 3.6203188 7.0183362 4.0734306 6.6289062 4.7753906 C 6.5289862 4.9555006 6.4120106 5.1274 6.3691406 5.15625 C 6.3262806 5.1851 6.1700444 5.2255338 6.0214844 5.2460938 C 5.5048844 5.2282737 4.9372119 5.11338 4.3886719 5 C 4.3886719 5 4.038919 4.9071387 4 5.2929688 C 4.0189 6.0133687 4.5651406 6.5178 5.1191406 7 C 4.7405406 7.1396 4.6198906 7.4405437 4.2753906 7.7148438 C 4.2090906 7.8419437 4.2857 7.9607063 4.5 8.0664062 C 4.7763 8.2027063 5.0601719 8.2391375 5.6386719 8.2109375 C 6.2312719 8.1821375 6.3104531 8.2714937 6.5019531 8.4335938 C 6.7040531 8.6046937 6.7835813 8.764925 6.8007812 9.140625 C 6.8184812 9.528125 6.7947844 9.8090625 6.5839844 10.226562 C 6.4091844 10.572562 6.2177438 10.846484 5.8398438 11.271484 C 5.1592437 12.035484 4.6754906 12.848937 4.4628906 13.585938 C 4.2491906 14.326937 4.3875187 15.329703 4.8242188 16.220703 C 5.0305188 16.641703 5.2771781 16.987281 5.6425781 17.363281 C 6.5470781 18.295281 7.7719969 18.808187 9.5292969 18.992188 C 9.6055969 19.000088 10.11284 19.001894 10.65625 18.996094 C 11.70375 18.984924 12.007792 18.95478 12.763672 18.78125 C 15.564372 18.13825 17.398472 16.163669 17.919922 13.230469 C 18.007182 12.739669 18.027441 11.584087 17.957031 11.091797 C 17.858491 10.402887 17.720707 10.120079 17.466797 9.7246094 C 17.287497 9.4453494 17.117749 9.2851562 16.880859 9.2851562 C 16.638859 9.2851562 16.482656 9.4368219 16.222656 9.7949219 C 15.918276 10.213522 15.511102 10.529624 15.226562 10.677734 C 14.780563 10.909844 14.438512 10.869458 13.632812 10.486328 C 12.779812 10.080688 12.187371 9.9342519 11.337891 9.8574219 C 11.105801 9.8364279 10.760323 9.8574219 10.720703 9.8574219 C 10.805003 9.8028719 11.709167 9.1937844 12.029297 8.8964844 C 12.441107 8.4559844 12.682477 7.9909612 12.841797 7.3320312 C 12.944547 6.9070312 12.972054 6.0459425 12.896484 5.6015625 C 12.865684 5.4204325 12.839844 5.2571712 12.839844 5.2382812 C 12.839844 5.1848012 12.970924 5.1253994 13.146484 5.0996094 C 13.357264 5.0686494 13.378342 4.98235 13.201172 4.875 L 13.074219 4.796875 L 13.201172 4.6914062 C 13.339612 4.5773562 13.429688 4.42782 13.429688 4.3125 C 13.429688 4.22474 13.422617 4.224735 13.148438 4.296875 C 12.758618 4.399425 12.487915 4.3023594 12.078125 3.9121094 C 11.482025 3.3443794 10.752078 3.0408763 9.8925781 3.0039062 z M 9.8496094 4.0039062 C 10.498834 4.0318312 10.95904 4.227534 11.388672 4.6367188 C 11.547012 4.7875091 11.754748 4.8882783 11.945312 5.0058594 C 11.914212 5.1011564 11.839844 5.1129966 11.839844 5.2382812 C 11.839844 5.4653437 11.849346 5.3817852 11.853516 5.4121094 C 11.857616 5.4424334 11.863511 5.4752127 11.869141 5.5117188 C 11.880381 5.5847308 11.893976 5.6743361 11.910156 5.7695312 C 11.943356 5.964746 11.908751 6.9337392 11.869141 7.0976562 C 11.741029 7.6275112 11.602965 7.8748146 11.308594 8.1933594 C 11.122071 8.3509231 10.152788 9.0337209 10.177734 9.0175781 A 1.0001 1.0001 0 0 0 10.720703 10.857422 C 10.915257 10.857422 10.875203 10.851809 10.978516 10.849609 C 11.081828 10.847409 11.205962 10.849716 11.248047 10.853516 C 12.025744 10.923856 12.427975 11.020053 13.203125 11.388672 C 13.643002 11.597844 14.010608 11.752239 14.445312 11.804688 C 14.880019 11.857138 15.349989 11.740098 15.6875 11.564453 C 16.048186 11.376707 16.408417 11.016844 16.753906 10.626953 C 16.825636 10.770927 16.913463 10.859554 16.966797 11.232422 C 17.002437 11.48161 16.980007 12.804607 16.935547 13.054688 C 16.471304 15.666092 14.999325 17.242249 12.541016 17.806641 C 11.816745 17.972914 11.674244 17.985113 10.644531 17.996094 C 10.377249 17.998994 10.119831 18.0007 9.921875 18 C 9.7239193 17.999309 9.4530128 17.979477 9.6328125 17.998047 C 8.0191333 17.829132 7.0795175 17.407994 6.3613281 16.667969 C 6.0524357 16.350116 5.8830291 16.110558 5.7207031 15.779297 C 5.3780758 15.080234 5.3081239 14.264483 5.4238281 13.863281 C 5.5788245 13.32597 5.9852336 12.614006 6.5878906 11.9375 A 1.0001 1.0001 0 0 0 6.5878906 11.935547 C 6.9968302 11.475639 7.2655832 11.095348 7.4765625 10.677734 A 1.0001 1.0001 0 0 0 7.4765625 10.675781 C 7.755249 10.123923 7.8193062 9.544023 7.7988281 9.0957031 C 7.7758315 8.5933872 7.4901743 7.9592399 7.1484375 7.6699219 C 7.070047 7.6035662 6.8488889 7.4046483 6.5351562 7.3007812 C 6.3854175 7.2512074 6.2300799 7.2700587 6.0839844 7.2578125 A 1.0001 1.0001 0 0 0 5.7773438 6.2460938 C 5.7569358 6.2283307 5.7675739 6.2262194 5.7480469 6.2089844 C 5.8314349 6.2153644 5.901869 6.2412276 5.9863281 6.2441406 A 1.0001 1.0001 0 0 0 6.1582031 6.2363281 C 6.2733615 6.2203881 6.3786355 6.1991658 6.484375 6.171875 C 6.5901145 6.1445842 6.6176828 6.1930775 6.9277344 5.984375 C 7.1434547 5.8392028 7.1473322 5.7927122 7.1914062 5.7382812 C 7.2354803 5.6838504 7.2684303 5.6361392 7.3027344 5.5859375 C 7.3713425 5.4855341 7.4369059 5.377016 7.5019531 5.2597656 C 7.8346825 4.6600102 8.1327431 4.3859924 8.34375 4.2792969 C 8.6652201 4.1166898 9.2987891 3.9802139 9.8496094 4.0039062 z"/>
</svg>
