<svg xmlns="http://www.w3.org/2000/svg" width="22" height="22" version="1.1">
 <defs>
  <style id="current-color-scheme" type="text/css">
   .ColorScheme-Text { color:#eff0f1; } .ColorScheme-Highlight { color:#3daee9; }
  </style>
 </defs>
 <path style="fill:currentColor" class="ColorScheme-Text" d="M 19,10.999999 C 19.000001,6.5819509 15.41805,2.9999997 11,2.9999998 6.5819518,2.9999996 3.0000012,6.58195 2.9999993,11 c 8e-7,4.418049 3.5819504,8 8.0000017,8.000001 4.418048,0 8,-3.58195 7.999999,-8.000002 z M 18,11 c 0,2.93893 -1.794832,5.439861 -4.351563,6.480468 L 13.187499,16.281249 C 15.197523,15.36724 16.5,13.304026 16.499999,10.999999 16.5,8.6409738 15.104024,6.5012594 13.000001,5.65625 l -0.6875,1.7792969 c 1.404015,0.5670064 2.34375,1.9914356 2.343749,3.5644521 0,1.515018 -0.814981,2.847745 -2.125001,3.468751 l -0.499999,-1.28125 -1.843745,3.312502 3.435546,0.990236 c -0.809754,0.325906 -1.694058,0.509763 -2.623047,0.509766 C 7.1224665,17.999999 4.0000008,14.877534 3.9999999,11 4.000001,7.1224664 7.1224673,3.9999996 11,3.9999997 14.877534,3.9999998 18.000001,7.1224672 18,11 Z M 11.781251,5.5019531 8.4062501,4.5019529 l 0.4375,1.2187501 c -2.0050212,0.8940098 -3.3437498,2.989224 -3.3437508,5.281251 -2e-7,2.365026 1.3657276,4.466739 3.4687498,5.343749 L 9.6562508,14.564452 C 8.2532341,13.980446 7.3437501,12.577971 7.34375,11.001952 c 1e-7,-1.5050158 0.8512363,-2.8557421 2.1562499,-3.4687489 l 0.5000011,1.2792964 z"/>
</svg>
