<?xml version="1.0" encoding="UTF-8" standalone="no"?>
<svg
   viewBox="0 0 16 16"
   version="1.1"
   id="svg11"
   sodipodi:docname="drive-harddisk-symbolic.svg"
   inkscape:version="1.1.1 (3bf5ae0d25, 2021-09-20, custom)"
   xmlns:inkscape="http://www.inkscape.org/namespaces/inkscape"
   xmlns:sodipodi="http://sodipodi.sourceforge.net/DTD/sodipodi-0.dtd"
   xmlns="http://www.w3.org/2000/svg"
   xmlns:svg="http://www.w3.org/2000/svg">
  <defs
     id="defs15" />
  <sodipodi:namedview
     id="namedview13"
     pagecolor="#ffffff"
     bordercolor="#666666"
     borderopacity="1.0"
     inkscape:pageshadow="2"
     inkscape:pageopacity="0.0"
     inkscape:pagecheckerboard="0"
     showgrid="false"
     inkscape:zoom="32.129164"
     inkscape:cx="12.449748"
     inkscape:cy="4.6686556"
     inkscape:window-width="1920"
     inkscape:window-height="1019"
     inkscape:window-x="0"
     inkscape:window-y="0"
     inkscape:window-maximized="1"
     inkscape:current-layer="svg11" />
  <style
     type="text/css"
     id="current-color-scheme">
        .ColorScheme-Text {
            color:#232629;
        }
    </style>
  <path
     id="rect864"
     style="fill:currentColor;fill-opacity:1;stroke:none;stroke-width:1.26491"
     class="ColorScheme-Text"
     d="M 2,0 V 16 H 14 V 0 Z m 3,1 h 6 c 1.104569,0 2,0.8954305 2,2 V 6.0976562 C 12.404766,6.3080807 12.005003,6.8686867 12,7.5 c 0.005,0.6313133 0.404766,1.1919193 1,1.4023438 V 11 l -2,2 H 5 L 3,11 V 8.9023438 C 3.5952336,8.6919193 3.9949971,8.1313133 4,7.5 3.999936,6.864381 3.5992674,6.2978105 3,6.0859375 V 3 C 3,1.8954305 3.8954305,1 5,1 Z M 3,14 h 5 v 1 H 3 Z m 7,0 h 3 v 1 h -3 z"
     sodipodi:nodetypes="cccccsssccccccccccsscccccccccc" />
</svg>
