<?xml version="1.0" encoding="UTF-8" standalone="no"?>
<svg
   viewBox="0 0 16 16"
   version="1.1"
   id="svg11"
   sodipodi:docname="drive-multipartition-symbolic.svg"
   inkscape:version="1.1.1 (3bf5ae0d25, 2021-09-20, custom)"
   xmlns:inkscape="http://www.inkscape.org/namespaces/inkscape"
   xmlns:sodipodi="http://sodipodi.sourceforge.net/DTD/sodipodi-0.dtd"
   xmlns="http://www.w3.org/2000/svg"
   xmlns:svg="http://www.w3.org/2000/svg">
  <defs
     id="defs15" />
  <sodipodi:namedview
     id="namedview13"
     pagecolor="#ffffff"
     bordercolor="#666666"
     borderopacity="1.0"
     inkscape:pageshadow="2"
     inkscape:pageopacity="0.0"
     inkscape:pagecheckerboard="0"
     showgrid="false"
     inkscape:zoom="22.71875"
     inkscape:cx="3.2572215"
     inkscape:cy="13.73315"
     inkscape:window-width="1920"
     inkscape:window-height="1019"
     inkscape:window-x="0"
     inkscape:window-y="0"
     inkscape:window-maximized="1"
     inkscape:current-layer="g9" />
  <style
     type="text/css"
     id="current-color-scheme">
        .ColorScheme-Text {
            color:#232629;
        }
    </style>
  <g
     fill="currentColor"
     class="ColorScheme-Text"
     id="g9">
    <path
       id="path1061"
       style="stroke-width:1.05105"
       d="M 8,0 A 8,8 0 0 0 0,8 8,8 0 0 0 8,16 8,8 0 0 0 16,8 8,8 0 0 0 8,0 Z M 8,1 A 7,7 0 0 1 8.3691406,1.00977 H 8 v 7 h 7 A 7,7 0 0 1 8,15 7,7 0 0 1 1,8 7,7 0 0 1 8,1 Z" />
    <path
       id="rect1393"
       style="fill-opacity:0.667"
       d="M 8,8.0097656 V 15 a 7,7 0 0 0 7,-6.9902344 z" />
    <path
       id="rect1393-7"
       style="fill-opacity:0.333"
       d="m 8,8.00977 v 6.990234 A 7,7 0 0 1 0.9999995,8.00977 Z" />
  </g>
</svg>
