<?xml version="1.0" encoding="UTF-8" standalone="no"?>
<svg
   width="48"
   height="48"
   version="1.1"
   id="svg61"
   sodipodi:docname="amarok.svg"
   inkscape:version="1.1 (c4e8f9ed74, 2021-05-24)"
   xmlns:inkscape="http://www.inkscape.org/namespaces/inkscape"
   xmlns:sodipodi="http://sodipodi.sourceforge.net/DTD/sodipodi-0.dtd"
   xmlns:xlink="http://www.w3.org/1999/xlink"
   xmlns="http://www.w3.org/2000/svg"
   xmlns:svg="http://www.w3.org/2000/svg">
  <sodipodi:namedview
     id="namedview63"
     pagecolor="#ffffff"
     bordercolor="#666666"
     borderopacity="1.0"
     inkscape:pageshadow="2"
     inkscape:pageopacity="0.0"
     inkscape:pagecheckerboard="0"
     showgrid="false"
     inkscape:zoom="8.9166667"
     inkscape:cx="31.065421"
     inkscape:cy="25.121495"
     inkscape:window-width="1920"
     inkscape:window-height="1026"
     inkscape:window-x="0"
     inkscape:window-y="30"
     inkscape:window-maximized="1"
     inkscape:current-layer="svg61" />
  <defs
     id="defs29">
    <linearGradient
       id="a"
       y1="37.11"
       x1="26.425"
       y2="24"
       x2="44"
       gradientUnits="userSpaceOnUse">
      <stop
         stop-color="#2980b9"
         id="stop2" />
      <stop
         offset="1"
         stop-color="#1d99f3"
         id="stop4" />
    </linearGradient>
    <linearGradient
       xlink:href="#a"
       id="b"
       y1="39.24"
       x1="25.869"
       y2="10.624"
       x2="24.539"
       gradientUnits="userSpaceOnUse" />
    <linearGradient
       id="c"
       y1="9.386"
       x1="8.84"
       y2="39.34"
       x2="37.922"
       gradientUnits="userSpaceOnUse">
      <stop
         stop-color="#faf8f8"
         id="stop8" />
      <stop
         offset="1"
         stop-color="#bfd2d2"
         id="stop10" />
    </linearGradient>
    <linearGradient
       id="d"
       y1="16.621"
       x1="27.04"
       y2="17.991"
       x2="24.839"
       gradientUnits="userSpaceOnUse">
      <stop
         stop-color="#fcfcfc"
         id="stop13" />
      <stop
         offset="1"
         stop-color="#c7c7c7"
         id="stop15" />
    </linearGradient>
    <linearGradient
       id="e"
       y1="27.6"
       x1="31.537"
       y2="31"
       x2="35.973"
       gradientUnits="userSpaceOnUse">
      <stop
         id="stop18" />
      <stop
         offset="1"
         stop-opacity="0"
         id="stop20" />
    </linearGradient>
    <linearGradient
       xlink:href="#e"
       id="f"
       y1="19"
       x1="26"
       y2="30"
       x2="37"
       gradientUnits="userSpaceOnUse"
       gradientTransform="translate(-10,5)" />
    <linearGradient
       id="g"
       y1="23.644"
       x1="3.783"
       y2="22.495"
       x2="19.574"
       gradientUnits="userSpaceOnUse">
      <stop
         stop-color="#2980b9"
         id="stop24" />
      <stop
         offset="1"
         stop-color="#34495e"
         id="stop26" />
    </linearGradient>
    <linearGradient
       inkscape:collect="always"
       xlink:href="#a"
       id="linearGradient1133"
       x1="26.467678"
       y1="37.650715"
       x2="43.977146"
       y2="24.279551"
       gradientUnits="userSpaceOnUse" />
    <linearGradient
       inkscape:collect="always"
       xlink:href="#e"
       id="linearGradient9933"
       gradientUnits="userSpaceOnUse"
       x1="31.537"
       y1="27.6"
       x2="35.973"
       y2="31" />
  </defs>
  <path
     id="rect30"
     style="fill:url(#linearGradient1133);stroke-width:2;stroke-linecap:round;stroke-linejoin:round;fill-opacity:1"
     d="M 5.9999998,4 H 42 c 1.107999,0 1.999998,0.892 1.999998,2 v 36 c 0,1.107999 -0.891999,1.999998 -1.999998,1.999998 H 5.9999998 C 4.8919999,43.999998 4,43.107999 4,42 V 6 C 4,4.892 4.8919999,4 5.9999998,4 Z" />
  <circle
     fill="url(#c)"
     cx="24.5"
     cy="23.5"
     stroke-linecap="round"
     id="circle33"
     style="color:#000000;fill:url(#c);stroke-width:3;stroke-linejoin:round"
     r="18.5" />
  <path
     opacity="0.2"
     fill="url(#e)"
     d="M 40.01,13.424 38.252443,15.036659 13.143,38.076 c 3.243746,2.535237 7.240475,3.91605 11.357422,3.923828 L 43,42 43.000422,23.499828 c -0.0016,-3.577184 -1.040281,-7.077182 -2.990234,-10.07617"
     id="path35"
     style="color:#000000;fill:url(#linearGradient9933);stroke-width:3;stroke-linejoin:round"
     sodipodi:nodetypes="ccccccc" />
  <g
     fill-rule="evenodd"
     id="g57">
    <path
       id="path39"
       style="fill:url(#b)"
       d="m 39.673828,11.251953 c -0.09788,2.5e-4 -0.200594,0.005 -0.308594,0.02149 -1.724,0.265 -5.644812,1.724203 -6.882812,2.033203 -1.237,0.309 -1.816781,0.586437 -3.800781,0.398437 -2.262,-0.214 -3.278047,-0.227937 -3.873047,-0.210937 -0.891,-0.079 -1.339844,-0.275391 -1.339844,-0.275391 l 0.07813,0.876953 c -0.592,0.452 -1.785375,1.110391 -4.234375,1.775391 -1.591,0.177 -2.916891,-0.309188 -3.712891,0.132812 -0.795,0.442 -3.313703,1.546469 -4.595703,1.855469 C 9.7219014,18.16837 8.7729064,18.748 8.0039062,19 c -1.221,0.398 2.4199998,6.233 3.9999998,7 0,0 -0.547,0.567969 -1,1.042969 -1.0989995,0.751 -1.9667966,0.800781 -1.9667966,0.800781 L 9.09375,28.445312 C 7.81775,29.123313 6.5538125,29.441953 6.1328125,29.501953 6.0258125,29.516953 4.605,30.433328 4,30.861328 V 42 c 0,1.108 0.8920001,2 2,2 L 24.003906,44.002 28.900391,44 c 0.167,-1.086996 0.693984,-3.332063 0.833984,-4.789062 0.434,-0.638 1.019531,-0.646485 1.019531,-0.646485 0,0 -0.751734,-2.124594 -0.677734,-4.683594 0.093,-0.607 0.251172,-1.180609 0.451172,-1.724609 h 0.755859 c 0,0 -0.09497,-1.042516 0.332031,-2.103516 1.405,-2.136 3.32358,-3.563406 4.142578,-4.191406 0.772,-0.593 4.331032,-1.502687 5.082032,-1.679687 0.751,-0.177 1.457953,-1.372563 1.501953,-1.726563 0.044,-0.354 -0.222656,-1.015625 -0.222656,-1.015625 l -1.986329,-0.441406 -2.40625,-0.269531 c 0,0 3.301485,-4.893938 3.896485,-5.460938 0.631,-0.601 0.939453,-1.339875 0.939453,-2.046875 0,-0.707 -0.519531,-1.658203 -0.519531,-1.658203 0,0 -0.597266,-0.302625 -1.572266,-0.265625 -0.163,0.006 -0.332672,-0.01625 -0.513672,-0.03125 l -0.002,-0.002 c -0.0905,-0.0075 -0.183375,-0.01197 -0.28125,-0.01172 z" />
    <path
       id="path41"
       style="opacity:0.2;fill:url(#f)"
       d="m 12,26 c 0,0 -0.547,0.567969 -1,1.042969 -1.099,0.751 -1.9648436,0.800781 -1.9648438,0.800781 l 0.054688,0.601562 C 8.3018437,28.864313 7.5439375,29.132781 6.9609375,29.300781 L 6.1132812,29.501953 5,30.220703 4,30.861328 V 42 c 0,1.108 0.8920001,2 2,2 l 18.003906,0.002 -0.0957,-0.199219 3.095703,-8.800781 -8,-8 c 0,0 -1.308859,0.428348 -3.630859,0.02734 -2.321,-0.401 -3.369141,-1.027344 -3.369141,-1.027344 z" />
    <path
       fill="#2c3e50"
       d="m 42.25,12 c 0,0 -0.313,-0.281 -0.656,-0.313 -0.344,-0.031 -1.063,0.094 -1.281,0.063 -0.219,-0.031 -0.969,-0.469 -0.969,-0.469 0,0 1,-0.563 1.344,-0.625 0.344,-0.063 0.938,-0.156 0.938,-0.156 0,0 0.25,0.313 0.438,0.75 0.188,0.438 0.188,0.75 0.188,0.75"
       id="path43" />
    <path
       fill="#fcfcfc"
       d="m 40.987,21.23 c -0.675,0.09 -0.805,0.015 -0.805,0.015 0,0 0.156,-0.707 0.325,-0.767 0.169,-0.06 0.662,0.707 0.48,0.752"
       id="path45" />
    <path
       fill="#2c3e50"
       d="m 41.906,14.969 c 0,0 -2.219,1.063 -3.281,2.719 -1.063,1.656 -1.813,3.344 -1.813,3.344 0,0 0.75,0.156 1.438,0.406 0.688,0.25 1.938,0.313 2.469,0.219 0.531,-0.094 0.688,-0.344 0.156,-0.563 -0.531,-0.219 -1.313,-0.375 -1.344,-0.844 -0.031,-0.469 0.969,-3.188 1.25,-3.625 0.281,-0.438 1.125,-1.656 1.125,-1.656"
       id="path47" />
    <path
       fill="#34495e"
       d="m 22.438,20.375 c 0,0 2.749,-0.414 3.796,-1.04 3.414,-2.04 3.298,-3.179 3.298,-3.179 0,0 -3.611,-1.445 -6.108,1.534 -1.045,1.247 -0.986,2.685 -0.986,2.685"
       id="path49" />
    <path
       fill="url(#d)"
       d="m 23.467,19.14 c 0,0 2.74,-0.552 3.757,-1.304 1.016,-0.751 1.436,-1.149 1.304,-1.414 -0.133,-0.265 -1.127,-0.663 -2.364,-0.354 -1.237,0.309 -2.121,1.193 -2.364,1.746 -0.243,0.552 -0.486,1.149 -0.331,1.326"
       id="path51" />
    <path
       fill="#fcfcfc"
       d="m 38.956,21.676 c 1.01,0.116 1.2,0.019 1.2,0.019 0,0 -0.232,-0.91 -0.484,-0.987 -0.252,-0.077 -0.987,0.91 -0.716,0.968"
       id="path53" />
    <path
       fill="url(#g)"
       d="m 12.298,24.795 c 1.01,0.774 3.56,1.23 4.811,1.048 C 20.06,25.412 20.212,25.633 19.5,23.75 18.986,22.391 16,21 14,23 l -1,-1 c 0.593,-0.854 -0.5,-2.844 -1,-3 -0.5,-0.156 -2.859,0.486 -3.078,0.705 -0.219,0.219 2.369,4.317 3.376,5.091"
       id="path55" />
  </g>
  <path
     inkscape:connector-curvature="0"
     id="path36"
     d="m 4.0000008,40.999998 v 0.999999 c 0,1.107998 0.8920025,2.000001 2.0000013,2.000001 H 42.000004 c 1.107999,0 2.000002,-0.892003 2.000002,-2.000001 v -0.999999 c 0,1.107999 -0.892003,1.999997 -2.000002,1.999997 H 6.0000021 c -1.1079988,0 -2.0000013,-0.891998 -2.0000013,-1.999997 z"
     style="opacity:1;fill:#256592;fill-opacity:1;stroke:none;stroke-width:2;stroke-linecap:round;stroke-linejoin:round;stroke-miterlimit:4;stroke-dasharray:none;stroke-opacity:1" />
</svg>
