<?xml version="1.0" encoding="UTF-8" standalone="no"?>
<svg
   enable-background="new"
   id="svg2985"
   height="48"
   width="48"
   version="1.1"
   sodipodi:docname="krita.svg"
   inkscape:version="1.1 (c4e8f9ed74, 2021-05-24)"
   inkscape:export-filename="1024-apps-calligrakrita.png"
   inkscape:export-xdpi="96"
   inkscape:export-ydpi="96"
   xmlns:inkscape="http://www.inkscape.org/namespaces/inkscape"
   xmlns:sodipodi="http://sodipodi.sourceforge.net/DTD/sodipodi-0.dtd"
   xmlns:xlink="http://www.w3.org/1999/xlink"
   xmlns="http://www.w3.org/2000/svg"
   xmlns:svg="http://www.w3.org/2000/svg"
   xmlns:rdf="http://www.w3.org/1999/02/22-rdf-syntax-ns#"
   xmlns:cc="http://creativecommons.org/ns#"
   xmlns:dc="http://purl.org/dc/elements/1.1/">
  <title
     id="title462">Krita icon - 2018</title>
  <sodipodi:namedview
     pagecolor="#ffffff"
     bordercolor="#666666"
     borderopacity="1"
     objecttolerance="10"
     gridtolerance="10"
     guidetolerance="10"
     inkscape:pageopacity="0"
     inkscape:pageshadow="2"
     inkscape:window-width="1920"
     inkscape:window-height="1026"
     id="namedview445"
     showgrid="false"
     inkscape:zoom="7.375"
     inkscape:cx="25.830509"
     inkscape:cy="39.254237"
     inkscape:window-x="0"
     inkscape:window-y="30"
     inkscape:window-maximized="1"
     inkscape:current-layer="layer1"
     inkscape:pagecheckerboard="0" />
  <defs
     id="defs2987">
    <linearGradient
       id="linearGradient1373">
      <stop
         id="stop1369"
         offset="0"
         style="stop-color:#343434;stop-opacity:1" />
      <stop
         id="stop1371"
         offset="1"
         style="stop-color:#4d4d4d;stop-opacity:1" />
    </linearGradient>
    <linearGradient
       id="linearGradient4663-8-4">
      <stop
         offset="0"
         style="stop-color:#5596ea;stop-opacity:1"
         id="stop4665-6-3" />
      <stop
         offset="1"
         style="stop-color:#5596ea;stop-opacity:0"
         id="stop4667-8-0" />
    </linearGradient>
    <linearGradient
       y2="200.87404"
       x2="1280.8954"
       y1="62.713318"
       x1="1142.5884"
       gradientTransform="rotate(-5.8887665,1223.2651,99.834013)"
       gradientUnits="userSpaceOnUse"
       id="linearGradient1403"
       xlink:href="#linearGradient1373" />
    <linearGradient
       gradientTransform="matrix(0.0111212,0.99993816,0.99993816,-0.0111212,1077.8896,-1093.5223)"
       y2="89.862335"
       x2="1324.9103"
       y1="230.86234"
       x1="1327.5938"
       gradientUnits="userSpaceOnUse"
       id="linearGradient1405"
       xlink:href="#linearGradient4663-8-4" />
    <linearGradient
       id="linearGradient862-3"
       x1="7.9373002"
       x2="7.9373002"
       y1="15.081"
       y2="1.852"
       gradientTransform="matrix(54.869734,0,0,54.869734,47.430386,47.886564)"
       gradientUnits="userSpaceOnUse">
      <stop
         stop-color="#db43a5"
         offset="0"
         id="stop9" />
      <stop
         stop-color="#ff57ec"
         offset="1"
         id="stop11" />
    </linearGradient>
    <linearGradient
       id="linearGradient1014"
       x1="13.647"
       x2="1.63"
       y1="2.8415"
       y2="15.328"
       gradientTransform="matrix(54.869734,0,0,54.869734,47.430386,47.886564)"
       gradientUnits="userSpaceOnUse">
      <stop
         stop-color="#fff"
         stop-opacity="0"
         offset="0"
         id="stop14" />
      <stop
         stop-color="#E8FFFC"
         stop-opacity=".1387"
         offset=".1387"
         id="stop16" />
      <stop
         stop-color="#ADFFF3"
         stop-opacity=".43"
         offset=".43"
         id="stop18" />
      <stop
         stop-color="#4FFFE5"
         stop-opacity=".8463"
         offset=".8463"
         id="stop20" />
      <stop
         stop-color="#2BFFE0"
         offset="1"
         id="stop22" />
    </linearGradient>
    <linearGradient
       id="linearGradient1018"
       x1="1.9072"
       x2="15.875225"
       y1="1.6914001"
       y2="15.866918"
       gradientTransform="matrix(54.869734,0,0,54.869734,47.430386,47.886564)"
       gradientUnits="userSpaceOnUse">
      <stop
         stop-color="#fff"
         stop-opacity="0"
         offset="0"
         id="stop25" />
      <stop
         stop-color="#FFFFF8"
         stop-opacity=".0883"
         offset=".0883"
         id="stop27" />
      <stop
         stop-color="#FFFEE5"
         stop-opacity=".2164"
         offset=".2164"
         id="stop29" />
      <stop
         stop-color="#FFFCC5"
         stop-opacity=".3689"
         offset=".3689"
         id="stop31" />
      <stop
         stop-color="#FFF999"
         stop-opacity=".5402"
         offset=".5402"
         id="stop33" />
      <stop
         stop-color="#FFF660"
         stop-opacity=".7272"
         offset=".7272"
         id="stop35" />
      <stop
         stop-color="#FFF31C"
         stop-opacity=".9242"
         offset=".9242"
         id="stop37" />
      <stop
         stop-color="#FFF100"
         offset="1"
         id="stop39" />
    </linearGradient>
    <linearGradient
       inkscape:collect="always"
       xlink:href="#linearGradient1018"
       id="linearGradient1239"
       x1="340.81418"
       y1="390.53976"
       x2="1084.8319"
       y2="1069.1462"
       gradientUnits="userSpaceOnUse"
       gradientTransform="matrix(0.04920049,0,0,0.04920049,-1.1910539,-1.19065)" />
    <linearGradient
       inkscape:collect="always"
       xlink:href="#linearGradient862-3"
       id="linearGradient1853"
       x1="216.01605"
       y1="853.91626"
       x2="792.33197"
       y2="236.67554"
       gradientUnits="userSpaceOnUse"
       gradientTransform="matrix(0.04920049,0,0,0.04920049,-1.1910539,-1.19065)" />
    <linearGradient
       inkscape:collect="always"
       xlink:href="#linearGradient1014"
       id="linearGradient2825"
       x1="830.87299"
       y1="180.29501"
       x2="185.65994"
       y2="865.52716"
       gradientUnits="userSpaceOnUse"
       gradientTransform="matrix(0.04920049,0,0,0.04920049,-1.1910539,-1.19065)" />
  </defs>
  <metadata
     id="metadata2990">
    <rdf:RDF>
      <cc:Work
         rdf:about="">
        <dc:title>Krita icon - 2018</dc:title>
      </cc:Work>
    </rdf:RDF>
  </metadata>
  <g
     inkscape:groupmode="layer"
     id="layer1"
     inkscape:label="Layer 1">
    <path
       id="rect1765"
       style="fill:url(#linearGradient1853);fill-opacity:1;stroke-width:0.0492005"
       d="m 6.1497172,4 c -1.19114,0 -2.150119,0.95898 -2.150119,2.15012 v 35.69976 c 0,1.19114 0.958979,2.15012 2.150119,2.15012 H 41.849574 c 1.191139,0 2.150023,-0.95898 2.150023,-2.15012 V 6.15012 C 43.999597,4.95898 43.040713,4 41.849574,4 Z" />
    <path
       id="rect2737"
       style="fill:url(#linearGradient2825);fill-opacity:1;stroke-width:0.0492005"
       d="m 6.1497172,4 c -1.191144,0 -2.150119,0.95898 -2.150119,2.15012 v 35.69976 c 0,1.19114 0.958975,2.15012 2.150119,2.15012 H 41.849478 c 1.191139,0 2.150119,-0.95898 2.150119,-2.15012 V 6.15012 C 43.999597,4.95898 43.040617,4 41.849478,4 Z" />
    <path
       id="rect911"
       style="fill:url(#linearGradient1239);stroke-width:0.0547134"
       d="M 6.1496712,4 H 41.849524 c 1.19114,0 2.150073,0.95893 2.150073,2.15007 V 41.84993 C 43.999597,43.04107 43.040664,44 41.849524,44 H 6.1496712 c -1.19114,0 -2.150073,-0.95893 -2.150073,-2.15007 V 6.15007 C 3.9995982,4.95893 4.9585312,4 6.1496712,4 Z" />
    <path
       id="path1393-3"
       style="display:inline;fill:#000000;fill-opacity:0.47;stroke:none;stroke-width:7.72113;stroke-linecap:butt;stroke-linejoin:miter;stroke-miterlimit:4;stroke-dasharray:none;stroke-dashoffset:0;stroke-opacity:1"
       d="m 3.9995982,5.66263 v 5.41109 c 3.349586,3.49003 8.0658618,8.46398 9.7904158,10.4381 2.067421,2.3666 6.964648,5.45959 10.224381,5.17066 1.19353,0.8954 4.178817,2.88136 5.162977,3.40406 -0.03299,0.46386 0.0457,0.93761 0.198724,1.41019 0.834294,2.57685 4.189744,4.33533 2.125999,6.99301 3.972843,-2.24719 5.12912,-6.1618 3.560406,-9.02589 -0.97955,-1.78841 -2.464147,-2.41046 -3.727034,-2.02789 -0.758358,-0.91142 -3.776338,-3.5634 -4.697301,-4.36741 -0.604575,-3.1655 -4.747238,-6.53651 -7.406308,-8.02448 C 16.116822,13.30096 6.6618282,7.38108 3.9995982,5.66263 Z" />
    <g
       style="display:inline"
       transform="matrix(0.17234637,0,0,0.17234637,-195.49527,-7.520078)"
       id="g1401">
      <path
         inkscape:connector-curvature="0"
         style="display:inline;opacity:1;fill:url(#linearGradient1403);fill-opacity:1;stroke:none;stroke-width:44.8;stroke-linecap:butt;stroke-linejoin:miter;stroke-miterlimit:4;stroke-dasharray:none;stroke-dashoffset:0;stroke-opacity:1"
         d="m 1287.8724,191.77055 c -18.2961,17.07187 -53.4954,-10.00757 -68.3526,-27.01475 -15.2811,-17.49248 -72.3403,-76.489933 -76.5109,-80.316254 -4.1704,-3.826182 -7.4918,-8.551341 -3.8041,-13.252566 3.839,-4.578442 9.1479,-2.303721 13.7523,0.987377 4.6047,3.291218 74.1071,46.947333 94.3766,58.289713 19.707,11.02772 53.4675,39.8812 40.5387,61.30648 z"
         id="path1393" />
      <path
         inkscape:connector-curvature="0"
         style="display:inline;opacity:1;fill:url(#linearGradient1405);fill-opacity:1;stroke:none;stroke-width:44.8;stroke-linecap:butt;stroke-linejoin:miter;stroke-miterlimit:4;stroke-dasharray:none;stroke-dashoffset:0;stroke-opacity:1"
         d="m 1317.223,208.61842 c -71.4065,63.70087 -129.8099,2.65141 -138.859,-18.49677 5.3512,36.70726 30.086,69.55591 67.4525,82.19764 28.2209,9.54743 73.2537,9.32583 93.4427,-27.04736 z"
         id="path1397" />
      <path
         inkscape:connector-curvature="0"
         id="path1395"
         d="m 1316.9277,214.61304 c -5.8329,2.67141 -5.2021,4.60226 -10.3812,3.76933 -3.5721,-0.5745 -34.5172,-24.03135 -34.5172,-24.03135 -1.5685,-3.76412 0.313,-8.93876 3.8473,-13.03432 3.278,-4.30338 7.953,-7.21221 11.9598,-6.45429 0,0 29.3379,25.43836 30.6372,28.81501 1.8838,4.89578 -0.1357,4.67702 -1.5459,10.93562 z"
         style="opacity:1;fill:#bfbfbf;fill-opacity:1;stroke:none;stroke-width:44.8;stroke-linecap:butt;stroke-linejoin:miter;stroke-miterlimit:4;stroke-dasharray:none;stroke-dashoffset:0;stroke-opacity:1" />
      <path
         inkscape:connector-curvature="0"
         style="opacity:1;fill:#282828;fill-opacity:1;stroke:none;stroke-width:44.8;stroke-linecap:butt;stroke-linejoin:miter;stroke-miterlimit:4;stroke-dasharray:none;stroke-dashoffset:0;stroke-opacity:1"
         d="m 1318.529,266.50191 c 23.0515,-13.0388 29.7607,-35.75218 20.6586,-52.37039 -7.0732,-12.91387 -18.687,-15.35542 -26.7086,-9.1112 -7.9576,6.19442 -8.6591,13.57562 -6.2854,20.90644 4.8408,14.95155 24.3098,25.15463 12.3354,40.57515 z"
         id="path1399" />
    </g>
    <path
       id="rect911-9"
       style="fill:#ffffff;fill-opacity:0;stroke-width:0.0547134"
       d="M 6.1496712,4 H 41.849525 c 1.191139,0 2.150071,0.95893 2.150071,2.15007 V 41.84993 C 43.999596,43.04107 43.040664,44 41.849525,44 H 6.1496712 c -1.19114,0 -2.150073,-0.95893 -2.150073,-2.15007 V 6.15007 C 3.9995982,4.95893 4.9585312,4 6.1496712,4 Z" />
    <path
       id="rect911-0"
       style="fill:#000000;fill-opacity:0.99267;stroke-width:0.0547134;opacity:0.2"
       d="m 3.9996293,40.849609 v 1 C 3.9996293,43.040749 4.9588799,44 6.1500199,44 H 41.849238 c 1.19114,0 2.150391,-0.959251 2.150391,-2.150391 v -1 C 43.999629,42.040749 43.040377,43 41.849238,43 H 6.1500199 c -1.19114,0 -2.1503906,-0.959251 -2.1503906,-2.150391 z" />
  </g>
</svg>
