<?xml version="1.0" encoding="UTF-8" standalone="no"?>
<!-- Created with Inkscape (http://www.inkscape.org/) -->

<svg
   width="48"
   height="48"
   viewBox="0 0 12.7 12.7"
   version="1.1"
   id="svg882"
   inkscape:version="1.1 (c4e8f9ed74, 2021-05-24)"
   sodipodi:docname="discord.svg"
   xmlns:inkscape="http://www.inkscape.org/namespaces/inkscape"
   xmlns:sodipodi="http://sodipodi.sourceforge.net/DTD/sodipodi-0.dtd"
   xmlns:xlink="http://www.w3.org/1999/xlink"
   xmlns="http://www.w3.org/2000/svg"
   xmlns:svg="http://www.w3.org/2000/svg">
  <sodipodi:namedview
     id="namedview884"
     pagecolor="#ffffff"
     bordercolor="#666666"
     borderopacity="1.0"
     inkscape:pageshadow="2"
     inkscape:pageopacity="0.0"
     inkscape:pagecheckerboard="0"
     inkscape:document-units="px"
     showgrid="false"
     units="px"
     inkscape:zoom="12.610071"
     inkscape:cx="35.289254"
     inkscape:cy="34.892746"
     inkscape:window-width="1920"
     inkscape:window-height="1026"
     inkscape:window-x="0"
     inkscape:window-y="30"
     inkscape:window-maximized="1"
     inkscape:current-layer="layer1"
     showguides="false" />
  <defs
     id="defs879">
    <linearGradient
       inkscape:collect="always"
       id="linearGradient3949">
      <stop
         style="stop-color:#000000;stop-opacity:1;"
         offset="0"
         id="stop3945" />
      <stop
         style="stop-color:#000000;stop-opacity:0;"
         offset="1"
         id="stop3947" />
    </linearGradient>
    <linearGradient
       inkscape:collect="always"
       id="linearGradient1540">
      <stop
         style="stop-color:#ffffff;stop-opacity:1;"
         offset="0"
         id="stop1536" />
      <stop
         style="stop-color:#ffffff;stop-opacity:0;"
         offset="1"
         id="stop1538" />
    </linearGradient>
    <linearGradient
       inkscape:collect="always"
       id="linearGradient1102">
      <stop
         style="stop-color:#5866ef;stop-opacity:1;"
         offset="0"
         id="stop1098" />
      <stop
         style="stop-color:#9b84ee;stop-opacity:1"
         offset="1"
         id="stop1100" />
    </linearGradient>
    <linearGradient
       inkscape:collect="always"
       xlink:href="#linearGradient1102"
       id="linearGradient1104"
       x1="6.9598975"
       y1="12.238549"
       x2="4.6706476"
       y2="0.75426018"
       gradientUnits="userSpaceOnUse" />
    <linearGradient
       inkscape:collect="always"
       xlink:href="#linearGradient1540"
       id="linearGradient1542"
       x1="5.9290318"
       y1="3.0520349"
       x2="9.044323"
       y2="9.7978268"
       gradientUnits="userSpaceOnUse" />
    <linearGradient
       inkscape:collect="always"
       xlink:href="#linearGradient3949"
       id="linearGradient3951"
       x1="20.333984"
       y1="15"
       x2="39.338211"
       y2="34.075935"
       gradientUnits="userSpaceOnUse" />
  </defs>
  <g
     inkscape:label="레이어 1"
     inkscape:groupmode="layer"
     id="layer1">
    <path
       id="rect30"
       style="fill:url(#linearGradient1104);stroke-width:0.529167;stroke-linecap:round;stroke-linejoin:round"
       d="M 1.5874999,1.0583333 H 11.1125 c 0.293158,0 0.529166,0.2360083 0.529166,0.5291666 V 11.1125 c 0,0.293158 -0.236008,0.529166 -0.529166,0.529166 H 1.5874999 c -0.2931583,0 -0.5291666,-0.236008 -0.5291666,-0.529166 V 1.5874999 c 0,-0.2931583 0.2360083,-0.5291666 0.5291666,-0.5291666 z" />
    <path
       id="path815"
       d="M 8.7377249,4.4105437 C 8.2924244,4.2041544 7.8162874,4.0541592 7.3184998,3.96875 7.257366,4.0782409 7.1859431,4.2255088 7.1367,4.34266 6.6075387,4.263828 6.0832433,4.263828 5.5638139,4.34266 5.5145804,4.2255088 5.4415358,4.0782409 5.3798545,3.96875 4.8815292,4.0541592 4.4048457,4.2047053 3.959545,4.411637 3.0613693,5.7561597 2.8178887,7.0672868 2.9396293,8.3597958 3.5353465,8.8004878 4.1126683,9.0681945 4.6802471,9.2433749 4.8203855,9.0523143 4.94537,8.8492127 5.0530411,8.6351633 4.8479775,8.5579746 4.6515707,8.4627197 4.4659894,8.3521356 c 0.049234,-0.036132 0.097392,-0.073909 0.1439198,-0.1127786 1.1319137,0.524456 2.3617668,0.524456 3.4801582,0 0.047074,0.038867 0.095224,0.076646 0.1439196,0.1127786 -0.1861283,0.1111261 -0.3830727,0.2063809 -0.5881361,0.2835785 0.1076712,0.2134986 0.232118,0.417151 0.372794,0.608202 C 8.5867702,9.0687364 9.164628,8.8010392 9.7603458,8.3597958 9.9031898,6.8614478 9.5163271,5.5623624 8.7377249,4.4105437 Z m -3.530476,3.1543705 c -0.3397891,0 -0.6184439,-0.3142366 -0.6184439,-0.6968994 0,-0.3826629 0.2727045,-0.6974408 0.6184439,-0.6974408 0.3457489,0 0.6243942,0.314227 0.6184439,0.6974408 5.358e-4,0.3826628 -0.272695,0.6968994 -0.6184439,0.6968994 z m 2.2854787,0 c -0.3397892,0 -0.6184441,-0.3142366 -0.6184441,-0.6968994 0,-0.3826629 0.2726951,-0.6974408 0.6184441,-0.6974408 0.345739,0 0.6243938,0.314227 0.6184435,0.6974408 0,0.3826628 -0.2727045,0.6968994 -0.6184435,0.6968994 z"
       inkscape:connector-curvature="0"
       style="fill:url(#linearGradient1542);fill-opacity:1;stroke-width:0.0938557" />
    <path
       inkscape:connector-curvature="0"
       id="path36"
       d="m 1.0583335,10.847916 v 0.264583 c 0,0.293158 0.236009,0.529167 0.529167,0.529167 h 9.5250005 c 0.293158,0 0.529167,-0.236009 0.529167,-0.529167 v -0.264583 c 0,0.293158 -0.236009,0.529166 -0.529167,0.529166 H 1.5875005 c -0.293158,0 -0.529167,-0.236008 -0.529167,-0.529166 z"
       style="opacity:0.15;fill:#000000;fill-opacity:1;stroke:none;stroke-width:0.529167;stroke-linecap:round;stroke-linejoin:round;stroke-miterlimit:4;stroke-dasharray:none;stroke-opacity:1" />
    <path
       id="rect2060"
       style="fill:url(#linearGradient3951);fill-opacity:1;stroke-width:1.30213;opacity:0.2"
       d="M 20.333984 15 C 20.567109 15.413824 20.843231 15.971287 21.029297 16.414062 C 21.240324 16.382033 21.450657 16.353265 21.662109 16.328125 L 20.333984 15 z M 33.025391 16.669922 C 33.181857 16.901389 33.332452 17.134497 33.480469 17.369141 C 33.534529 17.454851 33.587704 17.540817 33.640625 17.626953 C 33.756061 17.814839 33.868569 18.00341 33.978516 18.193359 C 34.033806 18.288889 34.08869 18.38441 34.142578 18.480469 C 34.243543 18.660427 34.341512 18.841608 34.4375 19.023438 C 34.48792 19.118967 34.538854 19.214491 34.587891 19.310547 C 34.689046 19.508663 34.785671 19.709797 34.880859 19.910156 C 34.920729 19.994086 34.961189 20.077779 35 20.162109 C 35.115568 20.413192 35.227901 20.665273 35.333984 20.919922 C 35.456888 21.214947 35.573658 21.512599 35.683594 21.8125 C 35.779134 22.073124 35.86756 22.335235 35.953125 22.599609 C 35.981685 22.687879 36.009679 22.776546 36.037109 22.865234 C 36.116659 23.122314 36.193667 23.381908 36.263672 23.642578 C 36.346912 23.952519 36.422682 24.264973 36.492188 24.580078 C 36.561687 24.895183 36.624168 25.212838 36.679688 25.533203 C 36.735207 25.853568 36.782939 26.176232 36.824219 26.501953 C 36.989336 27.804838 37.039713 29.15055 36.966797 30.542969 C 36.948567 30.891073 36.922422 31.241763 36.888672 31.595703 C 36.60723 31.804165 36.32822 32.002844 36.048828 32.191406 C 36.048828 32.191406 36.046875 32.191406 36.046875 32.191406 C 35.767941 32.37963 35.489901 32.558933 35.212891 32.728516 C 34.935428 32.898375 34.658466 33.058585 34.382812 33.210938 C 34.10716 33.363289 33.832557 33.50849 33.558594 33.644531 C 33.28463 33.780573 33.012628 33.90837 32.740234 34.029297 C 32.740234 34.029297 32.738281 34.029297 32.738281 34.029297 C 32.46644 34.149951 32.194226 34.2643 31.923828 34.371094 C 31.652883 34.478103 31.382897 34.577587 31.113281 34.671875 C 30.843666 34.766165 30.575047 34.854738 30.306641 34.9375 C 30.173718 34.756979 30.045145 34.57303 29.919922 34.386719 C 29.669477 34.014096 29.434103 33.630161 29.214844 33.236328 C 29.105214 33.039411 29.000173 32.840403 28.898438 32.638672 C 29.091404 32.566032 29.283671 32.489225 29.472656 32.408203 C 29.472656 32.408203 29.474609 32.40625 29.474609 32.40625 C 29.649316 32.33131 29.821133 32.251786 29.992188 32.169922 C 30.023417 32.154982 30.054828 32.14016 30.085938 32.125 C 30.439474 31.952532 30.78505 31.767038 31.121094 31.566406 C 30.937035 31.429842 30.754074 31.287524 30.576172 31.140625 C 30.047798 31.388399 29.512649 31.605185 28.972656 31.791016 C 28.70266 31.883936 28.432478 31.969445 28.160156 32.046875 C 27.887835 32.124305 27.614104 32.193916 27.339844 32.255859 C 27.065584 32.317799 26.789484 32.371511 26.513672 32.417969 C 26.237859 32.464429 25.962525 32.504189 25.685547 32.535156 C 25.408569 32.566126 25.131273 32.588026 24.853516 32.603516 C 24.575758 32.619006 24.297682 32.626953 24.019531 32.626953 C 23.74203 32.626953 23.463055 32.618956 23.185547 32.603516 C 23.185547 32.603516 23.183594 32.603516 23.183594 32.603516 C 22.906081 32.588066 22.628698 32.566026 22.351562 32.535156 C 22.351562 32.535156 22.349609 32.535156 22.349609 32.535156 C 22.07247 32.504256 21.795909 32.464286 21.519531 32.417969 C 21.519531 32.417969 21.517578 32.417969 21.517578 32.417969 C 21.240568 32.371509 20.96531 32.317803 20.689453 32.255859 C 20.413596 32.193919 20.137599 32.124305 19.863281 32.046875 C 19.588963 31.969445 19.315361 31.883931 19.042969 31.791016 C 18.498185 31.605185 17.95859 31.388399 17.423828 31.140625 C 17.247967 31.287534 17.064972 31.429844 16.878906 31.566406 C 17.054258 31.670895 17.231773 31.771999 17.412109 31.869141 C 17.592446 31.966281 17.775872 32.059004 17.960938 32.148438 C 18.331068 32.327303 18.710136 32.49085 19.097656 32.636719 C 18.99592 32.83897 18.891038 33.039313 18.78125 33.236328 C 18.671462 33.433343 18.557038 33.626711 18.439453 33.818359 C 18.321868 34.010008 18.201299 34.198612 18.076172 34.384766 C 17.951044 34.570919 17.821868 34.755018 17.689453 34.935547 C 17.421306 34.852787 17.152174 34.764206 16.882812 34.669922 C 16.614018 34.575832 16.344351 34.475883 16.074219 34.369141 C 16.074219 34.369141 16.072266 34.369141 16.072266 34.369141 C 15.802108 34.262362 15.531388 34.147963 15.259766 34.027344 C 15.259766 34.027344 15.257812 34.027344 15.257812 34.027344 C 14.985639 33.906451 14.713225 33.778557 14.439453 33.642578 C 13.891908 33.370621 13.341812 33.065991 12.787109 32.726562 C 12.232407 32.387135 11.674211 32.012105 11.111328 31.595703 L 23.513672 44 L 42 44 C 43.107999 44 44 43.107999 44 42 L 44 27.644531 L 33.025391 16.669922 z M 19.681641 23.322266 C 18.374911 23.322266 17.34375 24.510746 17.34375 25.957031 C 17.34375 27.403316 18.397399 28.591797 19.681641 28.591797 C 20.988408 28.591797 22.019604 27.403316 22.017578 25.957031 C 22.040066 24.508664 20.988408 23.322266 19.681641 23.322266 z M 28.318359 23.322266 C 27.011592 23.322266 25.982422 24.510746 25.982422 25.957031 C 25.982422 27.403316 27.034117 28.591797 28.318359 28.591797 C 29.625089 28.591797 30.65625 27.403316 30.65625 25.957031 C 30.678742 24.508664 29.625089 23.322266 28.318359 23.322266 z "
       transform="scale(0.26458333)" />
  </g>
</svg>
