<?xml version="1.0" encoding="UTF-8" standalone="no"?>
<svg
   width="48"
   height="48"
   version="1"
   id="svg23"
   sodipodi:docname="firefox-aurora.svg"
   inkscape:version="1.1 (c4e8f9ed74, 2021-05-24)"
   xmlns:inkscape="http://www.inkscape.org/namespaces/inkscape"
   xmlns:sodipodi="http://sodipodi.sourceforge.net/DTD/sodipodi-0.dtd"
   xmlns:xlink="http://www.w3.org/1999/xlink"
   xmlns="http://www.w3.org/2000/svg"
   xmlns:svg="http://www.w3.org/2000/svg"
   xmlns:rdf="http://www.w3.org/1999/02/22-rdf-syntax-ns#"
   xmlns:cc="http://creativecommons.org/ns#"
   xmlns:dc="http://purl.org/dc/elements/1.1/">
  <metadata
     id="metadata29">
    <rdf:RDF>
      <cc:Work
         rdf:about="">
        <dc:format>image/svg+xml</dc:format>
        <dc:type
           rdf:resource="http://purl.org/dc/dcmitype/StillImage" />
      </cc:Work>
    </rdf:RDF>
  </metadata>
  <defs
     id="defs27">
    <linearGradient
       id="linearGradient855"
       inkscape:collect="always">
      <stop
         id="stop851"
         offset="0"
         style="stop-color:#5a8cff;stop-opacity:1" />
      <stop
         id="stop853"
         offset="1"
         style="stop-color:#27e6d7;stop-opacity:1" />
    </linearGradient>
    <linearGradient
       inkscape:collect="always"
       id="linearGradient847">
      <stop
         style="stop-color:#00ddff;stop-opacity:1"
         offset="0"
         id="stop843" />
      <stop
         style="stop-color:#00ddff;stop-opacity:1"
         offset="1"
         id="stop845" />
    </linearGradient>
    <linearGradient
       inkscape:collect="always"
       id="linearGradient906">
      <stop
         style="stop-color:#45278d;stop-opacity:1"
         offset="0"
         id="stop902" />
      <stop
         style="stop-color:#7437cb;stop-opacity:1"
         offset="0.14967029"
         id="stop2836" />
      <stop
         style="stop-color:#40abff;stop-opacity:1"
         offset="0.42603812"
         id="stop2258" />
      <stop
         style="stop-color:#4cedbe;stop-opacity:1"
         offset="1"
         id="stop904" />
    </linearGradient>
    <linearGradient
       inkscape:collect="always"
       id="linearGradient890">
      <stop
         style="stop-color:#00b3f4;stop-opacity:1"
         offset="0"
         id="stop886" />
      <stop
         style="stop-color:#54ffbd;stop-opacity:1"
         offset="1"
         id="stop888" />
    </linearGradient>
    <linearGradient
       inkscape:collect="always"
       id="linearGradient882">
      <stop
         style="stop-color:#9059ff;stop-opacity:1"
         offset="0"
         id="stop878" />
      <stop
         style="stop-color:#00ddff;stop-opacity:1"
         offset="1"
         id="stop880" />
    </linearGradient>
    <linearGradient
       inkscape:collect="always"
       id="linearGradient874">
      <stop
         style="stop-color:#28287d;stop-opacity:1"
         offset="0"
         id="stop870" />
      <stop
         style="stop-color:#6338c3;stop-opacity:1"
         offset="1"
         id="stop872" />
    </linearGradient>
    <linearGradient
       inkscape:collect="always"
       xlink:href="#linearGradient992"
       id="linearGradient994"
       x1="14.810463"
       y1="13.507719"
       x2="28.240898"
       y2="28.001432"
       gradientUnits="userSpaceOnUse"
       gradientTransform="translate(0.0653406,-0.412994)" />
    <linearGradient
       inkscape:collect="always"
       id="linearGradient992">
      <stop
         style="stop-color:#000000;stop-opacity:1;"
         offset="0"
         id="stop988" />
      <stop
         style="stop-color:#000000;stop-opacity:0;"
         offset="1"
         id="stop990" />
    </linearGradient>
    <linearGradient
       gradientTransform="translate(-0.0279879,-0.4792642)"
       inkscape:collect="always"
       xlink:href="#linearGradient992"
       id="linearGradient1010"
       x1="13.322266"
       y1="21.8125"
       x2="27.079014"
       y2="32.786713"
       gradientUnits="userSpaceOnUse" />
    <linearGradient
       inkscape:collect="always"
       xlink:href="#linearGradient874"
       id="linearGradient876"
       x1="24.228001"
       y1="33.066002"
       x2="24.228001"
       y2="14.315143"
       gradientUnits="userSpaceOnUse" />
    <linearGradient
       inkscape:collect="always"
       xlink:href="#linearGradient882"
       id="linearGradient884"
       x1="21.855875"
       y1="39.163845"
       x2="28.850494"
       y2="18.103121"
       gradientUnits="userSpaceOnUse" />
    <linearGradient
       inkscape:collect="always"
       xlink:href="#linearGradient890"
       id="linearGradient892"
       x1="35.634674"
       y1="23.344957"
       x2="30.353409"
       y2="3.6350102"
       gradientUnits="userSpaceOnUse" />
    <linearGradient
       inkscape:collect="always"
       xlink:href="#linearGradient855"
       id="linearGradient900"
       x1="31.222618"
       y1="30.57012"
       x2="29.698462"
       y2="18.11816"
       gradientUnits="userSpaceOnUse" />
    <linearGradient
       inkscape:collect="always"
       xlink:href="#linearGradient906"
       id="linearGradient908"
       x1="23.994564"
       y1="44.922394"
       x2="38.381218"
       y2="10.799131"
       gradientUnits="userSpaceOnUse" />
    <linearGradient
       inkscape:collect="always"
       xlink:href="#linearGradient847"
       id="linearGradient849"
       x1="14.953329"
       y1="15.010217"
       x2="17.321199"
       y2="10.235444"
       gradientUnits="userSpaceOnUse" />
  </defs>
  <sodipodi:namedview
     pagecolor="#ffffff"
     bordercolor="#666666"
     borderopacity="1"
     objecttolerance="10"
     gridtolerance="10"
     guidetolerance="10"
     inkscape:pageopacity="0"
     inkscape:pageshadow="2"
     inkscape:window-width="1920"
     inkscape:window-height="1018"
     id="namedview25"
     showgrid="false"
     inkscape:zoom="13.01"
     inkscape:cx="7.4558032"
     inkscape:cy="23.981553"
     inkscape:window-x="0"
     inkscape:window-y="0"
     inkscape:window-maximized="1"
     inkscape:current-layer="svg23"
     inkscape:pagecheckerboard="0" />
  <path
     style="fill:url(#linearGradient892);fill-opacity:1"
     d="m 30.289276,2 c 0.84367,2.2459536 3.894602,5.7139707 7.91874,10.867919 3.408058,4.364899 3.79864,9.234865 5.058537,13.613523 L 33.796774,34.632048 23.1,23.651007 C 23.051967,16.350832 21.299767,8.1097516 30.289276,2 Z"
     id="path4" />
  <circle
     style="fill:url(#linearGradient876);fill-opacity:1"
     cx="24"
     cy="24"
     r="10"
     id="circle10" />
  <path
     inkscape:connector-curvature="0"
     style="opacity:0.2;fill:url(#linearGradient1010);fill-opacity:1;stroke:none;stroke-width:4;stroke-linecap:round;stroke-linejoin:round;stroke-miterlimit:4;stroke-dasharray:none;stroke-dashoffset:0;stroke-opacity:1;paint-order:normal"
     d="m 24.032559,19.661361 -10.738281,1.671875 -1.501954,10.568359 11.585938,11.585938 c 6.644493,0.208933 12.755723,-2.865086 16.578125,-7.902344 z"
     id="path999" />
  <path
     style="opacity:0.2;fill:url(#linearGradient994);fill-opacity:1;stroke:none;stroke-width:4;stroke-linecap:round;stroke-linejoin:round;stroke-miterlimit:4;stroke-dasharray:none;stroke-dashoffset:0;stroke-opacity:1;paint-order:normal"
     d="M 17.3212,10.235444 5.0809656,22.475678 26.090732,43.485444 c 6.270409,-0.624357 11.820221,-4.17551 15.054687,-9.425782 z"
     id="rect954"
     inkscape:connector-curvature="0" />
  <path
     style="fill:url(#linearGradient849);fill-opacity:1"
     d="m 10.956404,15.714003 c 1.389334,-1.378591 3.657964,-4.58869 6.364796,-5.478559 -0.727223,3.876168 0.215559,5.108162 0.68482,7.089899 L 13.6554,16.197404 Z"
     id="path8" />
  <path
     style="fill:url(#linearGradient900);fill-opacity:1"
     d="m 27.738872,17.234756 c -0.14224,0.0014 -0.284421,0.0064 -0.426401,0.01515 2.896203,1.359555 4.747167,4.268975 4.751377,7.468407 -0.0022,4.395846 -3.445862,8.12077 -7.835848,8.347687 1.097729,0.519415 2.296463,0.690057 3.510872,0.693439 4.563161,4.1e-5 8.262372,-3.699089 8.262432,-8.26225 4.1e-5,-4.563232 -3.6992,-8.262474 -8.262432,-8.262433 z"
     id="path12" />
  <path
     id="ellipse841"
     style="fill:url(#linearGradient908);fill-opacity:1"
     d="M 11.383708,16.906948 C 6.7052449,20.524918 4.0000794,17.907513 4.0000794,24.233684 4.0000794,35.150319 12.954367,44 24.00004,44 c 11.045673,0 19.999961,-8.849681 19.999961,-19.766316 0,-5.082435 -1.940952,-9.716871 -5.130138,-13.218797 0.07109,-0.0027 -0.298242,-0.286613 -0.488646,-0.215756 1.333235,2.20987 2.10061,4.799539 2.10061,7.568618 0,8.103601 -4.506892,16.131621 -12.610494,16.131621 -5.204893,0.252643 -12.138384,-3.074806 -13.205552,-6.188504 -0.688507,-2.008872 -0.514713,-4.265085 1.358501,-5.51402 1.017468,-0.645877 2.500851,-1.283591 4.847679,-1.358478 2.143821,-1.409901 1.100715,-1.249529 0.997592,-1.676392 -0.665964,-0.182106 -1.848112,-0.433768 -3.480317,-1.718377 -1.445664,-1.137794 -2.117115,-1.569228 -6.330071,-1.608581 -0.795906,-1.532565 -0.597445,2.291652 -0.675457,0.47193 z" />
  <path
     style="fill:url(#linearGradient884);fill-opacity:1"
     d="M 11.685547,8.6582031 C 7.207349,12.121303 4.2675076,17.431553 4.0234375,23.427734 4.2795251,32.617002 12.667958,40 23,40 c 10.49341,0 19,-7.611159 19,-17 0,-2.530342 -0.622373,-4.929976 -1.730469,-7.087891 0.13486,0.799262 0.212891,1.617437 0.212891,2.455079 0,8.103601 -6.570226,14.673828 -14.673828,14.673828 -5.204893,0.252643 -9.120332,-2.62263 -10.1875,-5.736328 -0.688507,-2.008873 -0.463058,-2.856534 1.410156,-4.105469 1.017468,-0.645877 2.450047,-1.083316 4.796875,-1.158203 2.143821,-1.409901 2.308201,-1.952044 2.205078,-2.378907 -0.665964,-0.182106 -2.50256,-0.887266 -4.134765,-2.171875 C 18.452773,16.35244 16.625065,14.059353 12.412109,14.02 11.616203,12.487435 11.763559,10.477925 11.685547,8.6582031 Z"
     id="path17" />
  <path
     style="fill:#1ce8e9;fill-opacity:1"
     d="m 12.9357,19.005753 c -1.361036,-0.02953 -2.79292,0.437222 -3.7030813,1.058337 -0.1630259,0.163026 1.5846873,3.114177 4.6265243,3.146167 -0.281634,4.906808 3.64122,7.958153 6.107245,8.668162 l 7.48e-4,-0.0022 c -6.54e-4,-3.36e-4 -0.0013,-7.57e-4 -0.002,-0.0011 -0.198719,-0.09852 -0.392011,-0.20212 -0.579913,-0.310492 -0.01757,-0.01013 -0.03492,-0.02046 -0.05239,-0.03067 -0.105035,-0.06141 -0.208263,-0.124265 -0.309761,-0.188559 -0.01987,-0.01258 -0.03977,-0.0251 -0.05951,-0.03778 -0.101593,-0.06536 -0.20127,-0.132129 -0.299174,-0.200241 -0.01536,-0.01068 -0.03091,-0.0212 -0.04618,-0.03194 -0.0562,-0.03957 -0.111895,-0.07948 -0.166837,-0.119925 -0.107747,-0.07932 -0.212772,-0.160441 -0.315602,-0.242953 -0.0244,-0.01957 -0.04853,-0.03922 -0.07265,-0.05896 -0.07283,-0.05964 -0.144418,-0.119914 -0.214661,-0.181075 -0.0342,-0.02975 -0.0681,-0.05971 -0.101672,-0.08981 -0.04875,-0.04374 -0.09695,-0.08771 -0.144384,-0.132155 -0.04584,-0.04291 -0.09122,-0.08605 -0.135806,-0.129599 -0.03679,-0.03597 -0.07322,-0.07205 -0.109156,-0.108426 -0.05223,-0.05283 -0.103661,-0.106046 -0.154059,-0.159718 -9.72e-4,-0.001 -0.0019,-0.0021 -0.0029,-0.0031 -0.03116,-0.03325 -0.06155,-0.06684 -0.092,-0.100394 -0.04291,-0.04724 -0.08519,-0.09473 -0.126678,-0.142559 -0.03267,-0.0377 -0.06496,-0.07549 -0.09674,-0.113537 -0.0423,-0.0506 -0.0836,-0.101598 -0.124306,-0.152781 -0.02296,-0.02889 -0.04619,-0.05764 -0.06863,-0.0867 -0.05105,-0.06606 -0.100384,-0.132756 -0.148766,-0.199693 -0.01927,-0.02668 -0.03847,-0.05332 -0.05732,-0.08013 -0.05029,-0.0715 -0.09919,-0.143377 -0.146393,-0.215756 -0.01289,-0.01978 -0.02531,-0.03967 -0.03797,-0.05951 -0.04692,-0.07349 -0.09265,-0.147139 -0.136353,-0.221415 -0.0093,-0.01573 -0.01828,-0.03152 -0.02738,-0.04728 -0.04404,-0.0762 -0.08607,-0.152901 -0.12668,-0.229812 -0.0075,-0.01426 -0.01541,-0.02843 -0.02282,-0.04271 -0.04242,-0.08177 -0.08253,-0.163979 -0.121021,-0.246422 -0.0081,-0.01727 -0.01603,-0.03454 -0.02391,-0.05184 -0.03768,-0.08262 -0.07367,-0.165453 -0.10733,-0.248613 -0.0053,-0.01318 -0.01028,-0.02642 -0.01552,-0.03961 -0.03511,-0.08849 -0.06863,-0.177179 -0.09912,-0.266135 -0.688507,-2.008872 -0.464411,-2.856635 1.408803,-4.10557 1.017468,-0.645877 2.450548,-1.082383 4.797376,-1.15727 2.143821,-1.409901 2.307959,-1.953755 2.204836,-2.380618 -3.61569,2.86611 -6.993136,0.422936 -10.173205,-0.551756 -0.299252,-0.06388 -0.60954,-0.09705 -0.923625,-0.103862 z"
     id="path19" />
  <path
     style="opacity:0.2;fill:#000000"
     d="M 4.0136719,23.769531 C 4.0098133,23.92627 4,24.065124 4,24.234375 4,35.15101 12.954327,44 24,44 35.045673,44 44,35.15101 44,24.234375 44,24.118518 43.986384,24.006008 43.984375,23.890625 43.632813,34.50234 34.822642,43 24,43 13.136211,43 4.3018786,34.437647 4.0136719,23.769531 Z"
     id="path865"
     inkscape:connector-curvature="0"
     sodipodi:nodetypes="cssscsc" />
</svg>
