<?xml version="1.0" encoding="UTF-8" standalone="no"?>
<svg
   xmlns:dc="http://purl.org/dc/elements/1.1/"
   xmlns:cc="http://creativecommons.org/ns#"
   xmlns:rdf="http://www.w3.org/1999/02/22-rdf-syntax-ns#"
   xmlns:svg="http://www.w3.org/2000/svg"
   xmlns="http://www.w3.org/2000/svg"
   xmlns:xlink="http://www.w3.org/1999/xlink"
   xmlns:sodipodi="http://sodipodi.sourceforge.net/DTD/sodipodi-0.dtd"
   xmlns:inkscape="http://www.inkscape.org/namespaces/inkscape"
   height="48"
   viewBox="0 0 48 48"
   width="48"
   version="1.1"
   y="0"
   x="0"
   id="svg14"
   sodipodi:docname="google-play-music-desktop-player.svg"
   inkscape:version="0.92.1 r15371">
  <metadata
     id="metadata20">
    <rdf:RDF>
      <cc:Work
         rdf:about="">
        <dc:format>image/svg+xml</dc:format>
        <dc:type
           rdf:resource="http://purl.org/dc/dcmitype/StillImage" />
        <dc:title></dc:title>
      </cc:Work>
    </rdf:RDF>
  </metadata>
  <defs
     id="defs18">
    <linearGradient
       inkscape:collect="always"
       id="linearGradient874">
      <stop
         style="stop-color:#000000;stop-opacity:1;"
         offset="0"
         id="stop870" />
      <stop
         style="stop-color:#000000;stop-opacity:0;"
         offset="1"
         id="stop872" />
    </linearGradient>
    <linearGradient
       inkscape:collect="always"
       id="linearGradient847">
      <stop
         style="stop-color:#fc8800;stop-opacity:1;"
         offset="0"
         id="stop843" />
      <stop
         style="stop-color:#ffb763;stop-opacity:1"
         offset="1"
         id="stop845" />
    </linearGradient>
    <linearGradient
       inkscape:collect="always"
       id="linearGradient839">
      <stop
         style="stop-color:#ffcf0f;stop-opacity:1;"
         offset="0"
         id="stop835" />
      <stop
         style="stop-color:#ffe681;stop-opacity:1"
         offset="1"
         id="stop837" />
    </linearGradient>
    <linearGradient
       inkscape:collect="always"
       id="linearGradient831">
      <stop
         style="stop-color:#e43e16;stop-opacity:1"
         offset="0"
         id="stop827" />
      <stop
         style="stop-color:#fd7a5b;stop-opacity:1"
         offset="1"
         id="stop829" />
    </linearGradient>
    <linearGradient
       inkscape:collect="always"
       xlink:href="#linearGradient831"
       id="linearGradient833"
       x1="10.881356"
       y1="42.102131"
       x2="10.881356"
       y2="5.0851808"
       gradientUnits="userSpaceOnUse" />
    <linearGradient
       inkscape:collect="always"
       xlink:href="#linearGradient839"
       id="linearGradient841"
       x1="23.440678"
       y1="36.61945"
       x2="26.38983"
       y2="8.9584332"
       gradientUnits="userSpaceOnUse" />
    <linearGradient
       inkscape:collect="always"
       xlink:href="#linearGradient847"
       id="linearGradient849"
       x1="25.169491"
       y1="32.338982"
       x2="25.169491"
       y2="15.254237"
       gradientUnits="userSpaceOnUse" />
    <linearGradient
       inkscape:collect="always"
       xlink:href="#linearGradient874"
       id="linearGradient876"
       x1="24.664808"
       y1="21.185978"
       x2="33.841148"
       y2="30.36232"
       gradientUnits="userSpaceOnUse" />
  </defs>
  <sodipodi:namedview
     pagecolor="#ffffff"
     bordercolor="#666666"
     borderopacity="1"
     objecttolerance="10"
     gridtolerance="10"
     guidetolerance="10"
     inkscape:pageopacity="0"
     inkscape:pageshadow="2"
     inkscape:window-width="1600"
     inkscape:window-height="808"
     id="namedview16"
     showgrid="false"
     inkscape:zoom="8.6599296"
     inkscape:cx="24"
     inkscape:cy="24"
     inkscape:window-x="0"
     inkscape:window-y="0"
     inkscape:window-maximized="1"
     inkscape:current-layer="svg14">
    <inkscape:grid
       type="xygrid"
       id="grid853" />
  </sodipodi:namedview>
  <path
     d="m40.358 21.752-30.414-17.234c-1.2993-0.7278-2.462-0.6596-3.1688 0.0225-0.5016 0.4775-0.7752 1.2505-0.7752 2.2509v34.401c0 1.0004 0.29639 1.7734 0.77517 2.2509 0.72958 0.70483 1.8695 0.77304 3.1691 0.02274l30.414-17.235c2.1887-1.2278 2.1887-3.2286 0-4.4791z"
     fill="#eb4d27"
     id="path2"
     style="fill-opacity:1;fill:url(#linearGradient833)" />
  <path
     fill="#ffd739"
     d="m24 9c-3.804 0-7.268 1.428-9.912 3.762a15 15 0 0 0 -0.006 0.006c-0.362 0.32-0.709 0.656-1.039 1.009a15 15 0 0 0 -0.078 0.088c-0.301 0.328-0.588 0.668-0.86 1.022a15 15 0 0 0 -0.126 0.17c-0.252 0.337-0.489 0.683-0.711 1.041a15 15 0 0 0 -0.129 0.213c-0.21 0.349-0.405 0.708-0.586 1.076a15 15 0 0 0 -0.125 0.258c-0.168 0.357-0.321 0.723-0.4612 1.095a15 15 0 0 0 -0.1074 0.293c-0.1261 0.359-0.237 0.723-0.336 1.094a15 15 0 0 0 -0.0996 0.385c-0.0784 0.328-0.1448 0.661-0.2011 0.998a15 15 0 0 0 -0.084 0.552c-0.036 0.279-0.0615 0.559-0.0821 0.842a15 15 0 0 0 -0.0566 1.096c0 0.47 0.0281 0.932 0.0703 1.391a15 15 0 0 0 0.0332 0.289c0.045 0.402 0.1055 0.799 0.1817 1.191a15 15 0 0 0 0.0332 0.172c0.2 0.969 0.4938 1.904 0.8706 2.795a15 15 0 0 0 0 0.004c0.591 1.393 1.386 2.678 2.348 3.818 1.493 1.77 3.38 3.197 5.537 4.125 0.049 0.021 0.099 0.027 0.149 0.027a15 15 0 0 0 1.002 0.393l18.224-10.326c0.246-0.072 0.464-0.193 0.655-0.371l0.541-0.307a15 15 0 0 0 0.267 -1.736c0.027-0.21 0.035-0.466 0.049-0.707a15 15 0 0 0 0.039 -0.758c0-8.284-6.716-15-15-15z"
     id="path6"
     style="fill:url(#linearGradient841);fill-opacity:1" />
  <circle
     cy="24"
     cx="24"
     r="9"
     fill="#ff8c00"
     id="circle8"
     style="fill:url(#linearGradient849);fill-opacity:1" />
  <path
     style="opacity:0.2;vector-effect:none;fill:url(#linearGradient876);fill-opacity:1;stroke:none;stroke-width:2.40370083;stroke-linecap:round;stroke-linejoin:round;stroke-miterlimit:4;stroke-dasharray:none;stroke-dashoffset:0;stroke-opacity:1"
     d="M 28 18 L 25.564453 19.732422 L 25.519531 23.367188 L 20.929688 25.070312 L 21.25 25.390625 L 20.710938 25.982422 L 20.845703 27.087891 L 27.355469 33.597656 L 37.449219 27.878906 C 37.556249 27.84758 37.655441 27.802489 37.751953 27.751953 L 28 18 z "
     id="rect860" />
  <path
     style="opacity:1;vector-effect:none;fill:#ffffff;fill-opacity:1;stroke:none;stroke-width:1.86784589;stroke-linecap:round;stroke-linejoin:round;stroke-miterlimit:4;stroke-dasharray:none;stroke-dashoffset:0;stroke-opacity:1"
     d="M 25 18 L 25 22.767578 A 3 3 0 0 0 23 22 A 3 3 0 0 0 20 25 A 3 3 0 0 0 23 28 A 3 3 0 0 0 26 25 L 26 20 L 28 20 L 28 18 L 26 18 L 25 18 z "
     id="path851" />
  <path
     style="fill-opacity:1;fill:#000000;opacity:0.2"
     d="M 41.923828 23.5 C 41.744232 24.134975 41.225313 24.743606 40.357422 25.230469 L 9.9433594 42.464844 C 8.6437594 43.215144 7.5049706 43.148189 6.7753906 42.443359 C 6.2966106 41.965859 6 41.191806 6 40.191406 L 6 41.193359 C 6 42.193759 6.2966106 42.965859 6.7753906 43.443359 C 7.5049706 44.148189 8.6437594 44.217097 9.9433594 43.466797 L 40.357422 26.230469 C 41.677688 25.489836 42.196383 24.468824 41.923828 23.5 z "
     id="path878" />
</svg>
