<?xml version="1.0" encoding="UTF-8" standalone="no"?>
<svg
   xmlns:dc="http://purl.org/dc/elements/1.1/"
   xmlns:cc="http://creativecommons.org/ns#"
   xmlns:rdf="http://www.w3.org/1999/02/22-rdf-syntax-ns#"
   xmlns:svg="http://www.w3.org/2000/svg"
   xmlns="http://www.w3.org/2000/svg"
   xmlns:xlink="http://www.w3.org/1999/xlink"
   xmlns:sodipodi="http://sodipodi.sourceforge.net/DTD/sodipodi-0.dtd"
   xmlns:inkscape="http://www.inkscape.org/namespaces/inkscape"
   height="48"
   width="48"
   version="1"
   id="svg24"
   sodipodi:docname="instagram.svg"
   inkscape:version="0.92.1 r15371">
  <metadata
     id="metadata30">
    <rdf:RDF>
      <cc:Work
         rdf:about="">
        <dc:format>image/svg+xml</dc:format>
        <dc:type
           rdf:resource="http://purl.org/dc/dcmitype/StillImage" />
        <dc:title />
      </cc:Work>
    </rdf:RDF>
  </metadata>
  <defs
     id="defs28">
    <linearGradient
       inkscape:collect="always"
       id="linearGradient4570">
      <stop
         style="stop-color:#070601;stop-opacity:1;"
         offset="0"
         id="stop4566" />
      <stop
         style="stop-color:#070601;stop-opacity:0;"
         offset="1"
         id="stop4568" />
    </linearGradient>
    <linearGradient
       inkscape:collect="always"
       id="linearGradient4512">
      <stop
         style="stop-color:#f2d13f;stop-opacity:1"
         offset="0"
         id="stop4508" />
      <stop
         id="stop4548"
         offset="0.53725493"
         style="stop-color:#cc2c8d;stop-opacity:1" />
      <stop
         style="stop-color:#9d2aa8;stop-opacity:1"
         offset="1"
         id="stop4510" />
    </linearGradient>
    <linearGradient
       inkscape:collect="always"
       xlink:href="#linearGradient4512"
       id="linearGradient4514"
       x1="-44"
       y1="-24.002001"
       x2="-4"
       y2="-24.002001"
       gradientUnits="userSpaceOnUse" />
    <linearGradient
       inkscape:collect="always"
       xlink:href="#linearGradient4570"
       id="linearGradient4572"
       x1="28.841326"
       y1="18.736666"
       x2="41.930008"
       y2="31.82535"
       gradientUnits="userSpaceOnUse" />
    <linearGradient
       inkscape:collect="always"
       xlink:href="#linearGradient4570"
       id="linearGradient4574"
       x1="27.38818"
       y1="18.73798"
       x2="33.984161"
       y2="25.33396"
       gradientUnits="userSpaceOnUse" />
    <linearGradient
       inkscape:collect="always"
       xlink:href="#linearGradient4570"
       id="linearGradient4576"
       x1="28.931978"
       y1="28.458176"
       x2="32.295563"
       y2="31.82176"
       gradientUnits="userSpaceOnUse" />
    <linearGradient
       inkscape:collect="always"
       xlink:href="#linearGradient4570"
       id="linearGradient4578"
       x1="21.062494"
       y1="25.59598"
       x2="25.682932"
       y2="30.216417"
       gradientUnits="userSpaceOnUse" />
  </defs>
  <sodipodi:namedview
     pagecolor="#ffffff"
     bordercolor="#666666"
     borderopacity="1"
     objecttolerance="10"
     gridtolerance="10"
     guidetolerance="10"
     inkscape:pageopacity="0"
     inkscape:pageshadow="2"
     inkscape:window-width="1600"
     inkscape:window-height="808"
     id="namedview26"
     showgrid="false"
     inkscape:zoom="11.42"
     inkscape:cx="7.3702826"
     inkscape:cy="27.999401"
     inkscape:window-x="0"
     inkscape:window-y="0"
     inkscape:window-maximized="1"
     inkscape:current-layer="svg24">
    <inkscape:grid
       type="xygrid"
       id="grid4516" />
  </sodipodi:namedview>
  <rect
     transform="matrix(0,-1,-1,0,0,0)"
     rx="20"
     ry="19.998"
     height="39.996"
     width="40"
     y="-44"
     x="-44"
     fill="#0277bd"
     id="rect2"
     style="fill:url(#linearGradient4514);fill-opacity:1" />
  <g
     id="g4521"
     transform="translate(-144,-238)"
     fill="#fff"
     style="enable-background:new;fill:none;stroke:#40b6fc;stroke-opacity:1;stroke-width:2;stroke-miterlimit:4;stroke-dasharray:none" />
  <path
     style="fill:#000304;fill-opacity:1;opacity:0.2"
     d="M 4.015625 23.5 C 4.0115537 23.666859 4.0039062 23.832126 4.0039062 24 C 4.0039062 35.08 12.923062 44 24.001953 44 C 35.080845 44 44 35.08 44 24 C 44 23.832126 43.992353 23.666859 43.988281 23.5 C 43.723636 34.346137 34.912988 43 24.001953 43 C 13.090919 43 4.2802701 34.346137 4.015625 23.5 z "
     id="rect4547" />
  <path
     style="opacity:0.2;vector-effect:none;fill:url(#linearGradient4572);fill-opacity:1;stroke:none;stroke-width:1.39418173;stroke-linecap:round;stroke-linejoin:round;stroke-miterlimit:4;stroke-dasharray:none;stroke-dashoffset:0;stroke-opacity:1"
     d="M 32.841797 14.585938 L 33.748047 18.367188 L 33.21875 32.298828 L 14.617188 32.810547 L 25.726562 43.921875 C 35.440644 43.098736 43.128476 35.392516 43.925781 25.669922 L 32.841797 14.585938 z "
     id="rect4550" />
  <path
     style="opacity:0.25;vector-effect:none;fill:url(#linearGradient4574);fill-opacity:1;stroke:none;stroke-width:2.02112007;stroke-linecap:round;stroke-linejoin:round;stroke-miterlimit:4;stroke-dasharray:none;stroke-dashoffset:0;stroke-opacity:1"
     d="M 29.027916,17.486827 39.718071,28.176982 36.181784,31.713268 25.491629,21.023113 Z"
     id="rect4556"
     inkscape:connector-curvature="0" />
  <path
     inkscape:connector-curvature="0"
     id="path4559"
     d="m 21.509766,24 10.690155,10.690155 -3.536287,3.536286 -8.808035,-9.947213 z"
     style="opacity:0.25;vector-effect:none;fill:url(#linearGradient4578);fill-opacity:1;stroke:none;stroke-width:2.02112007;stroke-linecap:round;stroke-linejoin:round;stroke-miterlimit:4;stroke-dasharray:none;stroke-dashoffset:0;stroke-opacity:1"
     sodipodi:nodetypes="ccccc" />
  <path
     style="opacity:0.25;vector-effect:none;fill:url(#linearGradient4576);fill-opacity:1;stroke:none;stroke-width:2.02112007;stroke-linecap:round;stroke-linejoin:round;stroke-miterlimit:4;stroke-dasharray:none;stroke-dashoffset:0;stroke-opacity:1"
     d="M 29 27 L 26.949219 31.378906 L 35.412109 40.433594 C 36.780649 39.483437 38.018621 38.362365 39.107422 37.107422 L 29 27 z "
     id="path4561" />
  <path
     style="opacity:1;vector-effect:none;fill:#ffffff;fill-opacity:1;stroke:none;stroke-width:2.06354618;stroke-linecap:round;stroke-linejoin:round;stroke-miterlimit:4;stroke-dasharray:none;stroke-dashoffset:0;stroke-opacity:1"
     d="M 17 14 C 15.338 14 14 15.338 14 17 L 14 31 C 14 32.662 15.338 34 17 34 L 31 34 C 32.662 34 34 32.662 34 31 L 34 17 C 34 15.338 32.662 14 31 14 L 17 14 z M 17 15 L 31 15 C 32.125297 15 33 15.874703 33 17 L 33 31 C 33 31.234812 32.955267 31.45479 32.884766 31.662109 L 29 27 L 26.503906 29.994141 L 21.509766 24 L 15.119141 31.667969 C 15.047252 31.458878 15 31.237207 15 31 L 15 17 C 15 15.874703 15.874703 15 17 15 z M 27.5 17 A 2.5 2.5 0 0 0 25 19.5 A 2.5 2.5 0 0 0 27.5 22 A 2.5 2.5 0 0 0 30 19.5 A 2.5 2.5 0 0 0 27.5 17 z "
     id="rect4518" />
</svg>
