<?xml version="1.0" encoding="UTF-8" standalone="no"?>
<svg
   width="48"
   height="48"
   version="1.1"
   id="svg50"
   sodipodi:docname="juk.svg"
   inkscape:version="1.1 (c4e8f9ed74, 2021-05-24)"
   xmlns:inkscape="http://www.inkscape.org/namespaces/inkscape"
   xmlns:sodipodi="http://sodipodi.sourceforge.net/DTD/sodipodi-0.dtd"
   xmlns:xlink="http://www.w3.org/1999/xlink"
   xmlns="http://www.w3.org/2000/svg"
   xmlns:svg="http://www.w3.org/2000/svg">
  <sodipodi:namedview
     id="namedview52"
     pagecolor="#ffffff"
     bordercolor="#666666"
     borderopacity="1.0"
     inkscape:pageshadow="2"
     inkscape:pageopacity="0.0"
     inkscape:pagecheckerboard="0"
     showgrid="false"
     inkscape:zoom="4"
     inkscape:cx="24.25"
     inkscape:cy="12"
     inkscape:window-width="1920"
     inkscape:window-height="1026"
     inkscape:window-x="0"
     inkscape:window-y="30"
     inkscape:window-maximized="1"
     inkscape:current-layer="svg50" />
  <defs
     id="defs18">
    <linearGradient
       inkscape:collect="always"
       id="linearGradient4093">
      <stop
         style="stop-color:#b3b3b3;stop-opacity:1"
         offset="0"
         id="stop4089" />
      <stop
         style="stop-color:#4d4d4d;stop-opacity:1"
         offset="1"
         id="stop4091" />
    </linearGradient>
    <linearGradient
       inkscape:collect="always"
       id="linearGradient903">
      <stop
         style="stop-color:#c6cdd1;stop-opacity:1;"
         offset="0"
         id="stop899" />
      <stop
         style="stop-color:#e5e9eb;stop-opacity:1"
         offset="1"
         id="stop901" />
    </linearGradient>
    <linearGradient
       id="a"
       y1="543.8"
       y2="503.8"
       x2="0"
       gradientUnits="userSpaceOnUse">
      <stop
         stop-color="#2a2c2f"
         id="stop2" />
      <stop
         offset="1"
         stop-color="#424649"
         id="stop4" />
    </linearGradient>
    <linearGradient
       id="b"
       y1="530.8"
       y2="516.8"
       gradientUnits="userSpaceOnUse"
       x2="0">
      <stop
         stop-color="#ee643a"
         id="stop7" />
      <stop
         offset="1"
         stop-color="#fe9473"
         id="stop9" />
    </linearGradient>
    <linearGradient
       xlink:href="#a"
       id="c"
       y1="-521.8"
       y2="-525.8"
       gradientUnits="userSpaceOnUse"
       x2="0" />
    <linearGradient
       id="d"
       y1="523.8"
       x1="408.57"
       y2="537.8"
       x2="422.57"
       gradientUnits="userSpaceOnUse"
       gradientTransform="translate(-384.57,-499.8)">
      <stop
         stop-color="#292c2f"
         id="stop13" />
      <stop
         offset="1"
         stop-opacity="0"
         id="stop15" />
    </linearGradient>
    <linearGradient
       inkscape:collect="always"
       xlink:href="#linearGradient903"
       id="linearGradient905"
       x1="29.50058"
       y1="47.575344"
       x2="13.237275"
       y2="2.7413461"
       gradientUnits="userSpaceOnUse" />
    <linearGradient
       inkscape:collect="always"
       xlink:href="#a"
       id="linearGradient1139"
       gradientUnits="userSpaceOnUse"
       y1="543.8"
       x2="0"
       y2="503.8" />
    <linearGradient
       inkscape:collect="always"
       xlink:href="#d"
       id="linearGradient3378"
       x1="12.306578"
       y1="25.305843"
       x2="11.561978"
       y2="42.268902"
       gradientUnits="userSpaceOnUse"
       gradientTransform="rotate(-45)" />
    <linearGradient
       inkscape:collect="always"
       xlink:href="#linearGradient4093"
       id="linearGradient4095"
       x1="40.003906"
       y1="8.0039062"
       x2="27.813225"
       y2="19.948887"
       gradientUnits="userSpaceOnUse" />
  </defs>
  <path
     id="rect30"
     style="fill:url(#linearGradient905);stroke-width:2;stroke-linecap:round;stroke-linejoin:round;fill-opacity:1"
     d="m 6,4 h 36 c 1.107999,0 1.999998,0.8919999 1.999998,1.9999998 V 42 c 0,1.107999 -0.891999,1.999998 -1.999998,1.999998 H 6 C 4.892,43.999998 4,43.107999 4,42 V 5.9999998 C 4,4.8919999 4.892,4 6,4 Z" />
  <path
     inkscape:connector-curvature="0"
     id="path36-3"
     d="m 4.000001,40.999998 v 0.999999 c 0,1.107998 0.892002,2.000001 2.000001,2.000001 h 36.000002 c 1.107999,0 2.000002,-0.892003 2.000002,-2.000001 v -0.999999 c 0,1.107999 -0.892003,1.999997 -2.000002,1.999997 H 6.000002 c -1.107999,0 -2.000001,-0.891998 -2.000001,-1.999997 z"
     style="opacity:0.15;fill:#000000;fill-opacity:1;stroke:none;stroke-width:2;stroke-linecap:round;stroke-linejoin:round;stroke-miterlimit:4;stroke-dasharray:none;stroke-opacity:1" />
  <g
     transform="matrix(0.79995986,0,0,0.79999976,-302.8388,-395.03987)"
     id="g48">
    <rect
       width="40"
       x="388.57001"
       y="503.79999"
       fill="url(#a)"
       rx="20"
       height="40"
       id="rect20"
       style="fill:url(#linearGradient1139)" />
    <path
       opacity="0.4"
       fill="url(#d)"
       fill-rule="evenodd"
       d="m 30,20 -11,9 13.229,13.229 c 4.439,-1.998 8,-5.561 10,-10 z"
       transform="translate(384.57,499.8)"
       id="path22"
       style="fill:url(#d)" />
    <rect
       width="14"
       x="401.57001"
       y="516.79999"
       fill="url(#b)"
       rx="7"
       height="14"
       id="rect24"
       style="fill:url(#b)" />
    <rect
       width="4"
       x="406.57001"
       y="-525.79999"
       fill="url(#c)"
       rx="2"
       height="4"
       transform="scale(1,-1)"
       id="rect26"
       style="fill:url(#c)" />
    <path
       fill="#ffffff"
       fill-opacity="0.275"
       d="m 24,18 c -3.324,0 -6,2.676 -6,6 0,3.324 2.676,6 6,6 3.324,0 6,-2.676 6,-6 0,-3.324 -2.676,-6 -6,-6 m 0,1 c 2.77,0 5,2.23 5,5 0,2.77 -2.23,5 -5,5 -2.77,0 -5,-2.23 -5,-5 0,-2.77 2.23,-5 5,-5"
       transform="translate(384.57,499.8)"
       id="path28" />
    <g
       fill="#4c5053"
       id="g44">
      <path
         d="m 418.07,507.34 c -0.971,-0.56 -1.973,-1 -2.99,-1.377 l -3.465,9.368 c 0.495,0.179 0.982,0.396 1.454,0.668 0.472,0.273 0.903,0.587 1.306,0.925 l 6.381,-7.685 c -0.83,-0.694 -1.716,-1.34 -2.687,-1.901"
         id="path30" />
      <path
         d="m 399.07,540.25 c -0.971,-0.56 -1.857,-1.207 -2.687,-1.901 l 6.381,-7.685 c 0.403,0.339 0.834,0.653 1.306,0.925 0.472,0.273 0.96,0.489 1.454,0.668 l -3.465,9.368 c -1.016,-0.372 -2.02,-0.816 -2.99,-1.376"
         id="path32" />
      <g
         fill-opacity="0.198"
         id="g42">
        <path
           d="m 422.01,510.36 c -0.793,-0.793 -1.646,-1.481 -2.531,-2.103 l -5.771,8.152 c 0.431,0.301 0.846,0.636 1.232,1.022 0.386,0.386 0.721,0.801 1.022,1.232 l 8.152,-5.771 c -0.622,-0.885 -1.311,-1.739 -2.103,-2.531"
           id="path34" />
        <path
           d="m 395.14,537.23 c -0.793,-0.793 -1.481,-1.646 -2.103,-2.532 l 8.152,-5.771 c 0.301,0.431 0.636,0.846 1.022,1.232 0.386,0.386 0.801,0.721 1.232,1.022 l -5.771,8.152 c -0.885,-0.622 -1.739,-1.311 -2.531,-2.103"
           id="path36" />
        <path
           d="m 425.03,514.3 c -0.56,-0.971 -1.207,-1.857 -1.901,-2.687 l -7.685,6.381 c 0.339,0.403 0.653,0.834 0.925,1.306 0.273,0.472 0.489,0.96 0.668,1.454 l 9.368,-3.465 c -0.372,-1.016 -0.816,-2.02 -1.377,-2.99"
           id="path38" />
        <path
           d="m 392.12,533.3 c -0.56,-0.971 -1,-1.973 -1.377,-2.99 l 9.368,-3.465 c 0.179,0.495 0.396,0.982 0.668,1.454 0.273,0.472 0.587,0.903 0.925,1.306 l -7.685,6.381 c -0.694,-0.83 -1.34,-1.716 -1.901,-2.687"
           id="path40" />
      </g>
    </g>
    <path
       fill="#2d2f33"
       d="m 388.58,523.3 c -0.004,0.167 -0.012,0.332 -0.012,0.5 0,11.08 8.92,20 20,20 11.08,0 20,-8.92 20,-20 0,-0.168 -0.008,-0.333 -0.012,-0.5 -0.265,10.846 -9.08,19.5 -19.988,19.5 -10.912,0 -19.724,-8.654 -19.988,-19.5"
       id="path46" />
  </g>
  <path
     id="rect3057"
     style="opacity:0.2;fill:url(#linearGradient3378);stroke-width:15.7633"
     d="M 40.003906 8.0039062 L 27.826172 20.179688 L 34.898438 27.25 L 44 18.148438 L 44 12 L 40.003906 8.0039062 z " />
  <path
     id="rect1163"
     style="fill:url(#linearGradient4095);fill-opacity:1;stroke-width:0.990417"
     d="m 40.000003,7.9999993 c -0.781049,-0.7810479 -2.047379,-0.7810482 -2.828427,0 L 27.813224,19.948886 c 0,0 -0.12173,0.355033 0.253023,0.271252 l 11.933756,-9.391712 c 0.781048,-0.781048 0.781048,-2.0473777 0,-2.8284267 z"
     sodipodi:nodetypes="sscccs" />
  <circle
     style="opacity:1;fill:#4d4d4d;fill-opacity:1;stroke-width:1.71666"
     id="path4613"
     cx="38.5"
     cy="9.5"
     r="1" />
</svg>
