<?xml version="1.0" encoding="UTF-8" standalone="no"?>
<svg
   width="48"
   height="48"
   version="1.1"
   id="svg77"
   sodipodi:docname="karbon.svg"
   inkscape:version="1.1 (c4e8f9ed74, 2021-05-24)"
   xmlns:inkscape="http://www.inkscape.org/namespaces/inkscape"
   xmlns:sodipodi="http://sodipodi.sourceforge.net/DTD/sodipodi-0.dtd"
   xmlns:xlink="http://www.w3.org/1999/xlink"
   xmlns="http://www.w3.org/2000/svg"
   xmlns:svg="http://www.w3.org/2000/svg">
  <sodipodi:namedview
     id="namedview79"
     pagecolor="#ffffff"
     bordercolor="#666666"
     borderopacity="1.0"
     inkscape:pageshadow="2"
     inkscape:pageopacity="0.0"
     inkscape:pagecheckerboard="0"
     showgrid="false"
     inkscape:zoom="12.654265"
     inkscape:cx="21.534242"
     inkscape:cy="34.810398"
     inkscape:window-width="1920"
     inkscape:window-height="1026"
     inkscape:window-x="0"
     inkscape:window-y="30"
     inkscape:window-maximized="1"
     inkscape:current-layer="svg77" />
  <defs
     id="defs33">
    <linearGradient
       id="a"
       y1="45"
       y2="13"
       x2="0"
       gradientUnits="userSpaceOnUse">
      <stop
         stop-color="#663579"
         id="stop2" />
      <stop
         offset="1"
         stop-color="#16a085"
         id="stop4" />
    </linearGradient>
    <linearGradient
       id="b"
       y1="14.849"
       y2="26.16"
       x2="0"
       gradientUnits="userSpaceOnUse">
      <stop
         id="stop7" />
      <stop
         offset="1"
         stop-opacity="0"
         id="stop9" />
    </linearGradient>
    <linearGradient
       xlink:href="#b"
       id="c"
       y1="31.885"
       y2="44.48"
       x2="0"
       gradientUnits="userSpaceOnUse" />
    <linearGradient
       xlink:href="#b"
       id="d"
       y1="36.77"
       y2="48.08"
       x2="0"
       gradientUnits="userSpaceOnUse" />
    <linearGradient
       xlink:href="#b"
       id="e"
       y1="24.02"
       x1="18.19"
       y2="40.19"
       x2="34.36"
       gradientUnits="userSpaceOnUse"
       gradientTransform="matrix(0.99994948,0,0,1,0.0022227,0)" />
    <linearGradient
       id="f"
       y1="42.827"
       y2="4.113"
       x2="0"
       gradientUnits="userSpaceOnUse">
      <stop
         stop-color="#c6cdd1"
         id="stop15" />
      <stop
         offset="1"
         stop-color="#e0e5e7"
         id="stop17" />
    </linearGradient>
    <linearGradient
       id="g"
       x1="8.213"
       x2="40.551"
       gradientUnits="userSpaceOnUse"
       gradientTransform="matrix(0.99994948,0,0,1,0.0022227,0)">
      <stop
         stop-color="#1d1e1e"
         id="stop20" />
      <stop
         offset="1"
         stop-color="#2c2f32"
         id="stop22" />
    </linearGradient>
    <linearGradient
       id="h"
       x1="7"
       x2="11"
       gradientUnits="userSpaceOnUse"
       gradientTransform="translate(-21-3)">
      <stop
         stop-color="#1d1e1e"
         id="stop25" />
      <stop
         offset="1"
         stop-color="#44484c"
         id="stop27" />
    </linearGradient>
    <linearGradient
       xlink:href="#h"
       id="i"
       x1="23"
       x2="28"
       gradientUnits="userSpaceOnUse"
       gradientTransform="translate(-45 6)" />
    <linearGradient
       xlink:href="#h"
       id="j"
       x1="19"
       x2="25"
       gradientUnits="userSpaceOnUse"
       gradientTransform="translate(-52-8)" />
    <linearGradient
       xlink:href="#h"
       id="k"
       x1="34"
       x2="42"
       gradientUnits="userSpaceOnUse"
       gradientTransform="translate(-74,6)" />
    <linearGradient
       inkscape:collect="always"
       xlink:href="#f"
       id="linearGradient5603"
       x1="4"
       y1="41"
       x2="3.9995303"
       y2="4.026866"
       gradientUnits="userSpaceOnUse" />
    <linearGradient
       inkscape:collect="always"
       xlink:href="#b"
       id="linearGradient6047"
       gradientUnits="userSpaceOnUse"
       y1="14.849"
       x2="0"
       y2="26.16"
       gradientTransform="translate(-2.8284271,-2.8284271)" />
    <linearGradient
       inkscape:collect="always"
       xlink:href="#h"
       id="linearGradient6049"
       gradientUnits="userSpaceOnUse"
       gradientTransform="translate(-21,-7)"
       x1="7"
       x2="11" />
    <linearGradient
       id="f-3"
       y1="42.827"
       y2="4.1129999"
       x2="0"
       gradientUnits="userSpaceOnUse">
      <stop
         stop-color="#c6cdd1"
         id="stop15-6" />
      <stop
         offset="1"
         stop-color="#e0e5e7"
         id="stop17-7" />
    </linearGradient>
    <linearGradient
       inkscape:collect="always"
       xlink:href="#a"
       id="linearGradient10817"
       gradientUnits="userSpaceOnUse"
       y1="45"
       x2="0"
       y2="13"
       gradientTransform="matrix(0.99994948,0,0,1,0.0022227,0)" />
  </defs>
  <path
     id="rect30"
     style="fill:url(#linearGradient5603);fill-opacity:1;stroke-width:2;stroke-linecap:round;stroke-linejoin:round"
     d="m 6,4 h 36 c 1.108,0 2,0.892 2,2 v 36 c 0,1.108 -0.892,2 -2,2 H 6 C 4.892,44 4,43.108 4,42 V 6 C 4,4.892 4.892,4 6,4 Z" />
  <path
     opacity="0.2"
     fill="url(#e)"
     d="M 24.426989,16 12.001616,31 24.965961,43.965 A 19.99899,20 0 0 0 41.701444,33.275547 Z"
     id="path37"
     style="fill:url(#e);fill-rule:evenodd;stroke-width:0.999975" />
  <path
     id="path39"
     style="fill:url(#linearGradient10817);fill-rule:evenodd;stroke-width:0.999975"
     d="M 4.0019531 11.728516 L 4.0195312 42.201172 C 4.1099819 43.101946 4.7855629 43.819811 5.6679688 43.966797 L 42.017578 43.998047 C 43.117193 43.988415 44 43.101972 44 42 L 44 36 C 40.287164 35.970241 23.846936 34.861766 21.957031 30.134766 C 19.912135 25.022766 27.069823 24.000672 26.046875 18.888672 C 24.76694 12.488672 12.387118 11.780469 8.2363281 11.730469 L 8.2363281 11.732422 L 4.0019531 11.728516 z " />
  <path
     fill="url(#g)"
     d="m 4.0020206,11.72772 c -0.007,0.01 0.007,0.06328 0,0.07228 8.2247974,0.14505 19.8459974,1.098 21.0439364,7.088 1.021949,5.112 -6.178687,6.09 -4.133791,11.202 1.890905,4.726 16.83715,6.883 19.089036,6.909 l 0.550972,-1.777 C 38.301288,35.195 23.848018,34.861 21.957113,30.134 19.912217,25.022 27.068855,24 26.046907,18.888 24.766972,12.488 12.631221,11.785025 8.4804303,11.736025"
     id="path43"
     sodipodi:nodetypes="ccccccccc"
     style="fill:url(#g);fill-rule:evenodd;stroke-width:0.999975" />
  <g
     stroke-linejoin="bevel"
     stroke-width="2"
     id="g75">
    <g
       stroke-linecap="round"
       id="g57">
      <rect
         width="4"
         x="-6.9484272"
         opacity="0.2"
         y="12.021573"
         fill="url(#b)"
         height="15"
         transform="rotate(-45)"
         id="rect47"
         style="fill:url(#linearGradient6047)" />
      <circle
         fill="url(#h)"
         cx="-12"
         cy="5"
         r="2"
         transform="rotate(-90)"
         id="circle49"
         style="fill:url(#linearGradient6049)" />
      <circle
         fill="#ffffff"
         cx="5"
         cy="12"
         r="1"
         id="circle51" />
      <rect
         width="6"
         x="-8.6599998"
         opacity="0.2"
         y="36.77"
         fill="url(#d)"
         height="12"
         transform="rotate(-45)"
         id="rect53" />
      <circle
         fill="url(#j)"
         cx="-30"
         cy="22"
         r="3"
         transform="rotate(-90)"
         id="circle55" />
    </g>
    <path
       opacity="0.2"
       fill="url(#c)"
       d="m 1.743,31.82 h 5 v 14 h -5 z"
       transform="rotate(-45)"
       id="path59" />
    <g
       stroke-linecap="round"
       id="g73">
      <circle
         fill="url(#i)"
         cx="-19.5"
         cy="25.5"
         r="2.5"
         transform="rotate(-90)"
         id="circle61" />
      <g
         fill="#ffffff"
         id="g67">
        <circle
           cx="25.5"
           cy="19.5"
           r="1.5"
           id="circle63" />
        <circle
           cx="22"
           cy="30"
           r="2"
           id="circle65" />
      </g>
      <circle
         fill="url(#k)"
         cx="-36"
         cy="41"
         r="4"
         transform="rotate(-90)"
         id="circle69"
         style="fill:url(#k)" />
      <circle
         fill="#ffffff"
         cx="41"
         cy="36"
         r="3"
         id="circle71" />
    </g>
  </g>
  <path
     inkscape:connector-curvature="0"
     id="path36"
     d="m 4,41 v 1 c 0,1.108 0.892,2 2,2 h 36 c 1.108,0 2,-0.892 2,-2 v -1 c 0,1.108 -0.892,2 -2,2 H 6 C 4.892,43 4,42.108 4,41 Z"
     style="opacity:1;fill:#4f2c60;fill-opacity:1;stroke:none;stroke-width:2;stroke-linecap:round;stroke-linejoin:round;stroke-miterlimit:4;stroke-dasharray:none;stroke-opacity:1" />
</svg>
