<?xml version="1.0" encoding="UTF-8" standalone="no"?>
<svg
   viewBox="0 0 48 48"
   version="1.1"
   id="svg77"
   sodipodi:docname="kate.svg"
   inkscape:version="1.1 (c4e8f9ed74, 2021-05-24)"
   xmlns:inkscape="http://www.inkscape.org/namespaces/inkscape"
   xmlns:sodipodi="http://sodipodi.sourceforge.net/DTD/sodipodi-0.dtd"
   xmlns:xlink="http://www.w3.org/1999/xlink"
   xmlns="http://www.w3.org/2000/svg"
   xmlns:svg="http://www.w3.org/2000/svg">
  <defs
     id="defs81">
    <linearGradient
       inkscape:collect="always"
       xlink:href="#m"
       id="linearGradient1254"
       x1="13.057891"
       y1="12.422634"
       x2="44"
       y2="41"
       gradientUnits="userSpaceOnUse" />
    <linearGradient
       inkscape:collect="always"
       xlink:href="#a"
       id="linearGradient1887"
       x1="44.117905"
       y1="30.046316"
       x2="21.007221"
       y2="5.2073398"
       gradientUnits="userSpaceOnUse" />
  </defs>
  <sodipodi:namedview
     id="namedview79"
     pagecolor="#ffffff"
     bordercolor="#666666"
     borderopacity="1.0"
     inkscape:pageshadow="2"
     inkscape:pageopacity="0.0"
     inkscape:pagecheckerboard="0"
     showgrid="false"
     inkscape:zoom="8.9479167"
     inkscape:cx="8.4377183"
     inkscape:cy="37.941793"
     inkscape:window-width="1920"
     inkscape:window-height="1026"
     inkscape:window-x="0"
     inkscape:window-y="30"
     inkscape:window-maximized="1"
     inkscape:current-layer="svg77" />
  <linearGradient
     id="a">
    <stop
       stop-color="#2a7fff"
       offset="0"
       id="stop2" />
    <stop
       stop-color="#0cf"
       offset="1"
       id="stop4" />
  </linearGradient>
  <linearGradient
     id="b"
     x1="80.7233"
     x2="141.40515"
     y1="192.15626"
     y2="252.83811"
     gradientUnits="userSpaceOnUse">
    <stop
       stop-color="#0055d4"
       offset="0"
       id="stop7" />
    <stop
       stop-color="#06f"
       stop-opacity="0"
       offset="1"
       id="stop9" />
  </linearGradient>
  <linearGradient
     id="c"
     x1="61.163261"
     x2="64.927658"
     y1="105.1096"
     y2="109.0449"
     gradientUnits="userSpaceOnUse">
    <stop
       stop-color="#e6e6e6"
       offset="0"
       id="stop12" />
    <stop
       stop-color="#b3b3b3"
       offset="1"
       id="stop14" />
  </linearGradient>
  <linearGradient
     id="d"
     x1="77.166962"
     x2="64.371704"
     y1="115.71481"
     y2="112.00438"
     gradientUnits="userSpaceOnUse">
    <stop
       stop-color="#0cf"
       offset="0"
       id="stop17" />
    <stop
       stop-color="#2a7fff"
       offset="1"
       id="stop19" />
  </linearGradient>
  <linearGradient
     id="e"
     x1="68.7071"
     x2="75.81916"
     y1="113.06454"
     y2="117.91264"
     gradientUnits="userSpaceOnUse"
     xlink:href="#a" />
  <linearGradient
     id="f">
    <stop
       stop-color="#fff"
       offset="0"
       id="stop23" />
    <stop
       stop-color="#b3b3b3"
       offset="1"
       id="stop25" />
  </linearGradient>
  <linearGradient
     id="g"
     x1="77.401382"
     x2="68.670082"
     y1="106.36805"
     y2="120.35797"
     gradientUnits="userSpaceOnUse"
     xlink:href="#f" />
  <linearGradient
     id="h"
     x1="68.228661"
     x2="68.16433"
     y1="112.73174"
     y2="118.55463"
     gradientUnits="userSpaceOnUse">
    <stop
       stop-color="#b3b3b3"
       offset="0"
       id="stop29" />
    <stop
       stop-color="#fff"
       offset="1"
       id="stop31" />
  </linearGradient>
  <linearGradient
     id="i"
     x1="63.36673"
     x2="71.135635"
     y1="106.86487"
     y2="104.88973"
     gradientUnits="userSpaceOnUse"
     xlink:href="#f" />
  <linearGradient
     id="j"
     x1="66.951469"
     x2="66.335762"
     y1="104.46095"
     y2="109.66759"
     gradientUnits="userSpaceOnUse">
    <stop
       stop-color="#ccc"
       offset="0"
       id="stop35" />
    <stop
       stop-color="#b3b3b3"
       offset="1"
       id="stop37" />
  </linearGradient>
  <linearGradient
     id="k"
     x1="62.960659"
     x2="77.488457"
     y1="115.88342"
     y2="107.31376"
     gradientUnits="userSpaceOnUse">
    <stop
       stop-color="#e6e6e6"
       offset="0"
       id="stop40" />
    <stop
       stop-color="#fff"
       offset="1"
       id="stop42" />
  </linearGradient>
  <linearGradient
     id="l"
     x1="220.30621"
     x2="54.439178"
     y1="207.9187"
     y2="42.051666"
     gradientTransform="matrix(.44648217 0 0 .43479451 59.664951 148.26025)"
     gradientUnits="userSpaceOnUse"
     xlink:href="#a" />
  <linearGradient
     id="m"
     x1="68.210472"
     x2="148.52051"
     y1="177.75131"
     y2="258.06134"
     gradientUnits="userSpaceOnUse">
    <stop
       stop-color="#59f"
       offset="0"
       id="stop46" />
    <stop
       stop-color="#06f"
       offset="1"
       id="stop48" />
  </linearGradient>
  <path
     id="rect30"
     style="fill:url(#linearGradient1887);fill-opacity:1;stroke-width:2;stroke-linecap:round;stroke-linejoin:round"
     d="m 6,4 h 36 c 1.108,0 2,0.892 2,2 v 36 c 0,1.108 -0.892,2 -2,2 H 6 C 4.892,44 4,43.108 4,42 V 6 C 4,4.892 4.892,4 6,4 Z" />
  <path
     inkscape:connector-curvature="0"
     id="path36"
     d="m 4,41 v 1 c 0,1.108 0.892,2 2,2 h 36 c 1.108,0 2,-0.892 2,-2 v -1 c 0,1.108 -0.892,2 -2,2 H 6 C 4.892,43 4,42.108 4,41 Z"
     style="opacity:1;fill:url(#linearGradient1254);fill-opacity:1;stroke:none;stroke-width:2;stroke-linecap:round;stroke-linejoin:round;stroke-miterlimit:4;stroke-dasharray:none;stroke-opacity:1" />
  <g
     transform="matrix(0.35834457,0,0,0.35834465,-14.588903,-53.834451)"
     id="g75">
    <path
       d="m 104.42761,173.43884 c -3.17498,21.38886 -11.196398,24.89739 -26.927573,45.50887 l 4.506763,10.66624 38.2124,38.21262 a 55.812184,55.812184 0 0 0 43.27959,-50.62107 l -42.76116,-42.76116 z"
       fill="url(#b)"
       stroke-width="0.046091"
       id="path55" />
    <g
       transform="matrix(4.5475751,0,0,4.6489837,-203.94378,-313.78768)"
       stroke-width="0.264583"
       id="g73">
      <path
         d="m 65.428762,109.91943 c -0.79474,-2.58086 -5.285936,-1.9546 -6.036655,-2.01063 0.842596,-0.40914 1.604061,-0.74639 3.341118,-1.97728 3.346321,-2.37122 6.889189,-1.85409 8.663362,-0.91242 -4.85033,0.18036 -3.926305,2.76518 -3.211896,4.12714 -0.908518,0.25814 -2.342683,0.64782 -2.755929,0.77319 z"
         fill="url(#c)"
         id="path57" />
      <path
         d="m 77.401381,106.36805 c -1.746608,2.25673 -4.650524,5.30573 -7.828693,5.70736 -3.17817,0.40163 -6.208039,-0.0433 -6.909882,2.27202 -0.64633,2.1322 1.626883,4.12293 3.984589,3.64314 2.518769,-0.51257 1.974803,-3.30514 0.597137,-5.20681 1.046467,-0.0587 0.851808,-0.0435 2.626388,-0.131 2.645109,2.20549 3.521857,2.8343 8.143023,6.05209 -3.561162,-0.36484 -4.857257,-0.69982 -7.41144,-2.19429 0.661668,1.62462 2.075907,5.31186 2.382248,8.17285 -1.47315,-2.07065 -2.031632,-2.83161 -4.314667,-4.32544 -2.924418,-1.9135 -5.29286,-1.97828 -6.663677,-4.79745 -1.367857,-2.81308 0.442686,-4.83945 3.682518,-5.71701 4.629957,-1.2541 8.619281,-2.4431 11.712456,-3.47546 z"
         fill="url(#d)"
         id="path59" />
      <path
         d="m 67.244532,112.78376 c 1.046467,-0.0587 0.851808,-0.0435 2.626388,-0.131 2.645109,2.20549 3.521857,2.8343 8.143023,6.05209 -4.644893,-0.32503 -8.159344,-1.66506 -10.769411,-5.92109 z"
         fill="url(#e)"
         id="path61" />
      <path
         d="m 77.401381,106.36805 c -1.746608,2.25673 -4.650524,5.30573 -7.828693,5.70736 -3.17817,0.40163 -6.208039,-0.0433 -6.909882,2.27202 -0.64633,2.1322 1.626883,4.12293 3.984589,3.64314 2.518769,-0.51257 1.974803,-3.30514 0.597137,-5.20681 1.046467,-0.0587 0.851808,-0.0435 2.626388,-0.131 2.645109,2.20549 3.521857,2.8343 8.143023,6.05209 -3.561162,-0.36484 -4.857257,-0.69982 -7.41144,-2.19429 0.661668,1.62462 2.075907,5.31186 2.382248,8.17285 -1.47315,-2.07065 -2.031632,-2.83161 -4.314667,-4.32544 -2.924418,-1.9135 -5.29286,-1.97828 -6.663677,-4.79745 -1.367857,-2.81308 0.442686,-4.83945 3.682518,-5.71701 4.629957,-1.2541 8.619281,-2.4431 11.712456,-3.47546 z"
         fill="url(#g)"
         id="path63" />
      <path
         d="m 67.244532,112.78376 c 1.046467,-0.0587 0.851808,-0.0435 2.626388,-0.131 2.645109,2.20549 3.521857,2.8343 8.143023,6.05209 -4.644893,-0.32503 -8.159344,-1.66506 -10.769411,-5.92109 z"
         fill="url(#h)"
         id="path65" />
      <path
         d="m 59.392107,107.9088 c 0.842596,-0.40914 1.604061,-0.74639 3.341118,-1.97728 3.346321,-2.37122 6.889189,-1.85409 8.663362,-0.91242 -4.85033,0.18036 -4.225378,1.1257 -4.243278,1.86679 -3.222572,-0.66446 -4.163494,0.2396 -7.761202,1.02291 z"
         fill="url(#i)"
         id="path67" />
      <path
         d="m 71.396587,105.0191 c -4.85033,0.18036 -3.926305,2.76518 -3.211896,4.12714 -0.566006,0.16082 -1.179475,0.34403 -1.936109,0.53991 -3.052938,-5.32116 2.656266,-6.01341 5.148005,-4.66705 z"
         fill="url(#j)"
         id="path69" />
      <path
         d="m 62.879799,116.88614 c -2.373486,-2.98949 -1.93525,-5.72962 2.712379,-7.1533 4.586439,-1.40494 8.716028,-2.33243 11.809203,-3.36479 -8.347338,3.11114 -18.799839,5.18999 -14.521582,10.51809 z"
         fill="url(#k)"
         id="path71" />
    </g>
  </g>
</svg>
