<?xml version="1.0" encoding="UTF-8" standalone="no"?>
<svg
   height="48"
   width="48"
   version="1.1"
   id="svg117"
   sodipodi:docname="kolf.svg"
   inkscape:version="1.1 (c4e8f9ed74, 2021-05-24)"
   xmlns:inkscape="http://www.inkscape.org/namespaces/inkscape"
   xmlns:sodipodi="http://sodipodi.sourceforge.net/DTD/sodipodi-0.dtd"
   xmlns:xlink="http://www.w3.org/1999/xlink"
   xmlns="http://www.w3.org/2000/svg"
   xmlns:svg="http://www.w3.org/2000/svg"
   xmlns:rdf="http://www.w3.org/1999/02/22-rdf-syntax-ns#"
   xmlns:cc="http://creativecommons.org/ns#"
   xmlns:dc="http://purl.org/dc/elements/1.1/">
  <metadata
     id="metadata123">
    <rdf:RDF>
      <cc:Work
         rdf:about="">
        <dc:format>image/svg+xml</dc:format>
        <dc:type
           rdf:resource="http://purl.org/dc/dcmitype/StillImage" />
      </cc:Work>
    </rdf:RDF>
  </metadata>
  <defs
     id="defs121">
    <linearGradient
       inkscape:collect="always"
       id="linearGradient1080">
      <stop
         style="stop-color:#fd8e3a;stop-opacity:1;"
         offset="0"
         id="stop1076" />
      <stop
         style="stop-color:#fdec29;stop-opacity:1"
         offset="1"
         id="stop1078" />
    </linearGradient>
    <linearGradient
       inkscape:collect="always"
       id="linearGradient1061">
      <stop
         style="stop-color:#11cd14;stop-opacity:1;"
         offset="0"
         id="stop1057" />
      <stop
         style="stop-color:#0a850d;stop-opacity:1"
         offset="1"
         id="stop1059" />
    </linearGradient>
    <linearGradient
       inkscape:collect="always"
       id="linearGradient1027">
      <stop
         style="stop-color:#13ec19;stop-opacity:1;"
         offset="0"
         id="stop1023" />
      <stop
         style="stop-color:#0da311;stop-opacity:1"
         offset="1"
         id="stop1025" />
    </linearGradient>
    <linearGradient
       inkscape:collect="always"
       id="linearGradient988">
      <stop
         style="stop-color:#3dc4e9;stop-opacity:1;"
         offset="0"
         id="stop984" />
      <stop
         style="stop-color:#0c7cef;stop-opacity:1"
         offset="1"
         id="stop986" />
    </linearGradient>
    <linearGradient
       inkscape:collect="always"
       xlink:href="#linearGradient1027"
       id="linearGradient1029"
       x1="44.48246"
       y1="23.817663"
       x2="12.260461"
       y2="43.953007"
       gradientUnits="userSpaceOnUse" />
    <linearGradient
       inkscape:collect="always"
       xlink:href="#linearGradient1061"
       id="linearGradient1063"
       x1="4"
       y1="24"
       x2="20.259787"
       y2="36.846977"
       gradientUnits="userSpaceOnUse" />
    <linearGradient
       inkscape:collect="always"
       xlink:href="#f"
       id="linearGradient1066"
       gradientUnits="userSpaceOnUse"
       gradientTransform="matrix(-0.90500965,0,0,0.90500965,45.720232,2.27977)"
       x1="24"
       y1="35.049606"
       x2="23.999788"
       y2="46.099213" />
    <linearGradient
       inkscape:collect="always"
       xlink:href="#e"
       id="linearGradient1069"
       gradientUnits="userSpaceOnUse"
       gradientTransform="matrix(-0.90500959,0,0,0.90500959,45.720574,2.2797702)"
       x1="15.405423"
       y1="15.405423"
       x2="-1.414096"
       y2="32.224941" />
    <linearGradient
       inkscape:collect="always"
       xlink:href="#linearGradient1080"
       id="linearGradient1082"
       x1="9.4222965"
       y1="8.647934"
       x2="14.597377"
       y2="14.284657"
       gradientUnits="userSpaceOnUse" />
    <linearGradient
       inkscape:collect="always"
       xlink:href="#linearGradient988"
       id="linearGradient1109"
       x1="14.123255"
       y1="13.382542"
       x2="44"
       y2="24"
       gradientUnits="userSpaceOnUse" />
  </defs>
  <sodipodi:namedview
     pagecolor="#ffffff"
     bordercolor="#666666"
     borderopacity="1"
     objecttolerance="10"
     gridtolerance="10"
     guidetolerance="10"
     inkscape:pageopacity="0"
     inkscape:pageshadow="2"
     inkscape:window-width="1920"
     inkscape:window-height="1026"
     id="namedview119"
     showgrid="false"
     showguides="false"
     inkscape:zoom="8"
     inkscape:cx="41.375"
     inkscape:cy="44"
     inkscape:window-x="0"
     inkscape:window-y="30"
     inkscape:window-maximized="1"
     inkscape:current-layer="svg117"
     inkscape:pagecheckerboard="0" />
  <linearGradient
     id="a">
    <stop
       offset="0"
       stop-color="#e0e0e0"
       id="stop2" />
    <stop
       offset="1"
       stop-color="#a4a4a4"
       id="stop4" />
  </linearGradient>
  <linearGradient
     id="e"
     gradientTransform="matrix(-0.90500959,0,0,0.90500959,45.72023,2.27977)"
     gradientUnits="userSpaceOnUse"
     x1="15.405423"
     x2="-1.414096"
     y1="15.405423"
     y2="32.224941">
    <stop
       offset="0"
       stop-color="#292c2f"
       id="stop22" />
    <stop
       offset="1"
       stop-color="#010800"
       stop-opacity="0"
       id="stop24" />
  </linearGradient>
  <linearGradient
     id="f"
     gradientTransform="matrix(-0.90500965,0,0,0.90500965,45.720232,2.27977)"
     gradientUnits="userSpaceOnUse"
     x1="24"
     x2="23.999788"
     y1="35.049606"
     y2="46.099213">
    <stop
       offset="0"
       stop-color="#3c4248"
       id="stop27" />
    <stop
       offset="1"
       stop-color="#2c3135"
       id="stop29" />
  </linearGradient>
  <linearGradient
     id="g"
     gradientUnits="userSpaceOnUse"
     x1="-32.839684"
     x2="-15.160315"
     y1="15.160315"
     y2="32.839684">
    <stop
       offset="0"
       stop-color="#ddd"
       id="stop32" />
    <stop
       offset="1"
       stop-color="#a4a4a4"
       id="stop34" />
  </linearGradient>
  <linearGradient
     id="h"
     gradientUnits="userSpaceOnUse"
     x1="-20.1326401"
     x2="-16.8177583"
     xlink:href="#a"
     y1="30.6297676"
     y2="32.8396888" />
  <linearGradient
     id="i"
     gradientUnits="userSpaceOnUse"
     x1="-24.5524621"
     x2="-21.2375803"
     xlink:href="#a"
     y1="27.0386436"
     y2="29.2485648" />
  <linearGradient
     id="j"
     gradientUnits="userSpaceOnUse"
     x1="-15.7127971"
     x2="-12.3979153"
     xlink:href="#a"
     y1="26.7624086"
     y2="28.9723298" />
  <linearGradient
     id="k"
     gradientUnits="userSpaceOnUse"
     x1="-20.1326301"
     x2="-16.8177483"
     xlink:href="#a"
     y1="25.1049626"
     y2="27.3148838" />
  <linearGradient
     id="l"
     gradientUnits="userSpaceOnUse"
     x1="-24.5524621"
     x2="-21.2375803"
     xlink:href="#a"
     y1="22.3425606"
     y2="24.5524818" />
  <linearGradient
     id="m"
     gradientUnits="userSpaceOnUse"
     x1="-15.7127971"
     x2="-12.3979153"
     xlink:href="#a"
     y1="22.3425766"
     y2="24.5524978" />
  <linearGradient
     id="n"
     gradientUnits="userSpaceOnUse"
     x1="-20.1326301"
     x2="-16.8177483"
     xlink:href="#a"
     y1="19.5801606"
     y2="21.7900818" />
  <linearGradient
     id="o"
     gradientUnits="userSpaceOnUse"
     x1="-24.5524621"
     x2="-21.2375803"
     xlink:href="#a"
     y1="17.6464786"
     y2="19.8563998" />
  <linearGradient
     id="p"
     gradientUnits="userSpaceOnUse"
     x1="-15.7127971"
     x2="-12.3979153"
     xlink:href="#a"
     y1="17.9227436"
     y2="20.1326648" />
  <linearGradient
     id="q"
     gradientUnits="userSpaceOnUse"
     x1="-20.1326411"
     x2="-16.8177593"
     xlink:href="#a"
     y1="14.0553546"
     y2="16.2652758" />
  <linearGradient
     id="r"
     gradientUnits="userSpaceOnUse"
     x1="-24.5524621"
     x2="-21.2375803"
     xlink:href="#a"
     y1="12.9503946"
     y2="15.1603158" />
  <linearGradient
     id="s"
     gradientUnits="userSpaceOnUse"
     x1="-24.5524821"
     x2="-21.2376003"
     xlink:href="#a"
     y1="31.7347296"
     y2="33.9446508" />
  <linearGradient
     id="t"
     gradientUnits="userSpaceOnUse"
     x1="-28.9723261"
     x2="-25.6574443"
     xlink:href="#a"
     y1="30.6297676"
     y2="32.8396888" />
  <linearGradient
     id="u"
     gradientUnits="userSpaceOnUse"
     x1="-28.9723171"
     x2="-25.6574353"
     xlink:href="#a"
     y1="25.1049626"
     y2="27.3148838" />
  <linearGradient
     id="v"
     gradientUnits="userSpaceOnUse"
     x1="-28.9723171"
     x2="-25.6574353"
     xlink:href="#a"
     y1="19.5801606"
     y2="21.7900818" />
  <linearGradient
     id="w"
     gradientUnits="userSpaceOnUse"
     x1="-28.9723261"
     x2="-25.6574443"
     xlink:href="#a"
     y1="14.0553546"
     y2="16.2652758" />
  <linearGradient
     id="x"
     gradientUnits="userSpaceOnUse"
     x1="-33.4861471"
     x2="-30.1712653"
     xlink:href="#a"
     y1="26.7624086"
     y2="28.9723298" />
  <linearGradient
     id="y"
     gradientUnits="userSpaceOnUse"
     x1="-33.4861471"
     x2="-30.1712653"
     xlink:href="#a"
     y1="22.3425766"
     y2="24.5524978" />
  <linearGradient
     id="z"
     gradientUnits="userSpaceOnUse"
     x1="-33.4861471"
     x2="-30.1712653"
     xlink:href="#a"
     y1="17.9227436"
     y2="20.1326648" />
  <path
     id="rect30"
     style="fill:url(#linearGradient1109);fill-opacity:1;stroke-width:2;stroke-linecap:round;stroke-linejoin:round"
     d="m 6,4 h 36 c 1.108,0 2,0.892 2,2 v 36 c 0,1.108 -0.892,2 -2,2 H 6 C 4.892,44 4,43.108 4,42 V 6 C 4,4.892 4.892,4 6,4 Z" />
  <path
     id="rect992-8"
     style="opacity:1;fill:url(#linearGradient1063);fill-opacity:1;stroke-width:1.01284"
     d="M 4 24 L 4 42 C 4 43.108 4.892 44 6 44 L 42 44 C 42.646003 44 43.212949 43.691208 43.578125 43.21875 C 39.067665 36.02607 11.971735 24.085487 4 24 z " />
  <path
     id="rect992"
     style="opacity:1;fill:url(#linearGradient1029);fill-opacity:1;stroke-width:1.01284"
     d="M 44 24 C 34.525612 25.175731 12.2339 29.868692 11 44 L 42 44 C 43.108 44 44 43.108 44 42 L 44 24 z " />
  <path
     id="path67"
     style="fill:url(#linearGradient1069);opacity:0.5"
     d="M 31.777344 16.222656 L 16.222656 31.777344 L 24 39.556641 L 24 44 L 42 44 C 42.145642 44 42.287185 43.982414 42.423828 43.953125 L 44 41.806641 L 44 28.445312 L 31.777344 16.222656 z " />
  <path
     d="m 22,34 v 2 c 0.99199,0.991989 0.999937,5.008267 1,8 h 2 c 2.3e-5,-2.995159 0.0047,-7.004726 1,-7.999999 v -2 z"
     fill="url(#f)"
     id="path69"
     sodipodi:nodetypes="ccccccc"
     style="fill:url(#linearGradient1066)" />
  <path
     d="m-11.845432 24a12.154568 12.154568 0 0 1 -12.154568 12.154568 12.154568 12.154568 0 0 1 -12.154568-12.154568 12.154568 12.154568 0 0 1 12.154568-12.154568 12.154568 12.154568 0 0 1 12.154568 12.154568z"
     fill="url(#g)"
     transform="matrix(.90500959 0 0 .90500959 45.72023 2.27977)"
     id="path73" />
  <rect
     fill="url(#h)"
     height="3.314882"
     rx="11.602086"
     transform="matrix(0 -.90500959 -.90500959 0 45.72023 2.27977)"
     width="3.314882"
     x="-20.685118"
     y="30.629765"
     id="rect75" />
  <rect
     fill="url(#i)"
     height="3.314882"
     rx="11.602086"
     transform="matrix(0 -.90500959 -.90500959 0 45.72023 2.27977)"
     width="3.314882"
     x="-25.10494"
     y="27.038641"
     id="rect77" />
  <rect
     fill="url(#j)"
     height="3.314882"
     rx="11.602086"
     transform="matrix(0 -.90500959 -.90500959 0 45.72023 2.27977)"
     width="3.314882"
     x="-16.265276"
     y="26.762407"
     id="rect79" />
  <rect
     fill="url(#k)"
     height="3.314882"
     rx="11.602086"
     transform="matrix(0 -.90500959 -.90500959 0 45.72023 2.27977)"
     width="3.314882"
     x="-20.685108"
     y="25.104959"
     id="rect81" />
  <rect
     fill="url(#l)"
     height="3.314882"
     rx="11.602086"
     transform="matrix(0 -.90500959 -.90500959 0 45.72023 2.27977)"
     width="3.314882"
     x="-25.10494"
     y="22.342558"
     id="rect83" />
  <rect
     fill="url(#m)"
     height="3.314882"
     rx="11.602086"
     transform="matrix(0 -.90500959 -.90500959 0 45.72023 2.27977)"
     width="3.314882"
     x="-16.265276"
     y="22.342575"
     id="rect85" />
  <rect
     fill="url(#n)"
     height="3.314882"
     rx="11.602086"
     transform="matrix(0 -.90500959 -.90500959 0 45.72023 2.27977)"
     width="3.314882"
     x="-20.685108"
     y="19.580158"
     id="rect87" />
  <rect
     fill="url(#o)"
     height="3.314882"
     rx="11.602086"
     transform="matrix(0 -.90500959 -.90500959 0 45.72023 2.27977)"
     width="3.314882"
     x="-25.10494"
     y="17.646477"
     id="rect89" />
  <rect
     fill="url(#p)"
     height="3.314882"
     rx="11.602086"
     transform="matrix(0 -.90500959 -.90500959 0 45.72023 2.27977)"
     width="3.314882"
     x="-16.265276"
     y="17.922743"
     id="rect91" />
  <rect
     fill="url(#q)"
     height="3.314882"
     rx="11.602086"
     transform="matrix(0 -.90500959 -.90500959 0 45.72023 2.27977)"
     width="3.314882"
     x="-20.685118"
     y="14.055354"
     id="rect93" />
  <rect
     fill="url(#r)"
     height="3.314882"
     rx="11.602086"
     transform="matrix(0 -.90500959 -.90500959 0 45.72023 2.27977)"
     width="3.314882"
     x="-25.10494"
     y="12.950393"
     id="rect95" />
  <rect
     fill="url(#s)"
     height="3.314882"
     rx="11.602086"
     transform="matrix(0 -.90500959 -.90500959 0 45.72023 2.27977)"
     width="3.314882"
     x="-25.104961"
     y="31.734726"
     id="rect97" />
  <rect
     fill="url(#t)"
     height="3.314882"
     rx="11.602086"
     transform="matrix(0 -.90500959 -.90500959 0 45.72023 2.27977)"
     width="3.314882"
     x="-29.524803"
     y="30.629765"
     id="rect99" />
  <rect
     fill="url(#u)"
     height="3.314882"
     rx="11.602086"
     transform="matrix(0 -.90500959 -.90500959 0 45.72023 2.27977)"
     width="3.314882"
     x="-29.524796"
     y="25.104959"
     id="rect101" />
  <rect
     fill="url(#v)"
     height="3.314882"
     rx="11.602086"
     transform="matrix(0 -.90500959 -.90500959 0 45.72023 2.27977)"
     width="3.314882"
     x="-29.524796"
     y="19.580158"
     id="rect103" />
  <rect
     fill="url(#w)"
     height="3.314882"
     rx="11.602086"
     transform="matrix(0 -.90500959 -.90500959 0 45.72023 2.27977)"
     width="3.314882"
     x="-29.524803"
     y="14.055354"
     id="rect105" />
  <rect
     fill="url(#x)"
     height="3.314882"
     rx="11.602086"
     transform="matrix(0 -.90500959 -.90500959 0 45.72023 2.27977)"
     width="3.314882"
     x="-34.038624"
     y="26.762407"
     id="rect107" />
  <rect
     fill="url(#y)"
     height="3.314882"
     rx="11.602086"
     transform="matrix(0 -.90500959 -.90500959 0 45.72023 2.27977)"
     width="3.314882"
     x="-34.038624"
     y="22.342575"
     id="rect109" />
  <rect
     fill="url(#z)"
     height="3.314882"
     rx="11.602086"
     transform="matrix(0 -.90500959 -.90500959 0 45.72023 2.27977)"
     width="3.314882"
     x="-34.038624"
     y="17.922743"
     id="rect111" />
  <circle
     style="opacity:1;fill:url(#linearGradient1082);fill-opacity:1;stroke-width:0.99572"
     id="path1074"
     cx="10.5"
     cy="10.5"
     r="4.5" />
  <path
     inkscape:connector-curvature="0"
     id="path36"
     d="m 4,41 v 1 c 0,1.108 0.892,2 2,2 h 36 c 1.108,0 2,-0.892 2,-2 v -1 c 0,1.108 -0.892,2 -2,2 H 6 C 4.892,43 4,42.108 4,41 Z"
     style="fill:#000000;fill-opacity:0.320595;stroke:none;stroke-width:2;stroke-linecap:round;stroke-linejoin:round;stroke-miterlimit:4;stroke-dasharray:none;stroke-opacity:1" />
</svg>
