<?xml version="1.0" encoding="UTF-8" standalone="no"?>
<svg
   width="48"
   height="48"
   version="1.1"
   id="svg123"
   sodipodi:docname="accessories-text-editor.svg"
   inkscape:version="1.1 (c4e8f9ed74, 2021-05-24)"
   xmlns:inkscape="http://www.inkscape.org/namespaces/inkscape"
   xmlns:sodipodi="http://sodipodi.sourceforge.net/DTD/sodipodi-0.dtd"
   xmlns:xlink="http://www.w3.org/1999/xlink"
   xmlns="http://www.w3.org/2000/svg"
   xmlns:svg="http://www.w3.org/2000/svg">
  <sodipodi:namedview
     id="namedview125"
     pagecolor="#ffffff"
     bordercolor="#666666"
     borderopacity="1.0"
     inkscape:pageshadow="2"
     inkscape:pageopacity="0.0"
     inkscape:pagecheckerboard="0"
     showgrid="false"
     inkscape:zoom="12.610071"
     inkscape:cx="4.8374034"
     inkscape:cy="12.291763"
     inkscape:window-width="1920"
     inkscape:window-height="1026"
     inkscape:window-x="0"
     inkscape:window-y="30"
     inkscape:window-maximized="1"
     inkscape:current-layer="svg123" />
  <defs
     id="defs35">
    <linearGradient
       inkscape:collect="always"
       id="linearGradient30692">
      <stop
         style="stop-color:#ebc79b;stop-opacity:1;"
         offset="0"
         id="stop30688" />
      <stop
         style="stop-color:#b77525;stop-opacity:0.99906802"
         offset="1"
         id="stop30690" />
    </linearGradient>
    <linearGradient
       id="linearGradient30226">
      <stop
         style="stop-color:#000000;stop-opacity:1;"
         offset="0"
         id="stop30222" />
      <stop
         style="stop-color:#000000;stop-opacity:0.0060662"
         offset="1"
         id="stop30224" />
    </linearGradient>
    <linearGradient
       inkscape:collect="always"
       id="linearGradient28623">
      <stop
         style="stop-color:#f2f2f2;stop-opacity:1"
         offset="0"
         id="stop28619" />
      <stop
         style="stop-color:#f9f9f9;stop-opacity:1"
         offset="1"
         id="stop28621" />
    </linearGradient>
    <linearGradient
       id="linearGradient4485">
      <stop
         style="stop-color:#000000;stop-opacity:1;"
         offset="0"
         id="stop2" />
      <stop
         style="stop-color:#000000;stop-opacity:0.384"
         offset="1"
         id="stop4" />
    </linearGradient>
    <linearGradient
       id="linearGradient4477">
      <stop
         style="stop-color:#f7f7f7;stop-opacity:1;"
         offset="0"
         id="stop7" />
      <stop
         style="stop-color:#f7f7f7;stop-opacity:0.392"
         offset="1"
         id="stop9" />
    </linearGradient>
    <linearGradient
       id="b"
       y1="11"
       x1="17"
       y2="41"
       gradientUnits="userSpaceOnUse"
       x2="44"
       gradientTransform="translate(0 1004.36)">
      <stop
         id="stop12" />
      <stop
         offset="1"
         stop-opacity="0"
         id="stop14" />
    </linearGradient>
    <linearGradient
       id="c"
       y1="40"
       y2="6"
       gradientUnits="userSpaceOnUse"
       x2="0"
       gradientTransform="matrix(0.94118,0,0,0.91176,1.412,2.08)">
      <stop
         stop-color="#b1b1b1"
         id="stop17" />
      <stop
         offset="1"
         stop-color="#dddddd"
         id="stop19" />
    </linearGradient>
    <linearGradient
       xlink:href="#b"
       id="d"
       y1="21"
       x1="23"
       y2="39"
       gradientUnits="userSpaceOnUse"
       x2="40" />
    <linearGradient
       id="e"
       y1="1040.95"
       y2="1012.95"
       gradientUnits="userSpaceOnUse"
       x2="0"
       gradientTransform="translate(0,-1004.36)">
      <stop
         stop-color="#f2f2f2"
         id="stop23" />
      <stop
         offset="1"
         stop-color="#ffffff"
         id="stop25" />
    </linearGradient>
    <linearGradient
       gradientTransform="matrix(-1,0,0,-1,79.99999,38)"
       x2="49"
       gradientUnits="userSpaceOnUse"
       y2="20.735"
       x1="49.088"
       y1="26.497"
       id="d-3">
      <stop
         id="stop28" />
      <stop
         stop-opacity="0"
         stop-color="#655c6f"
         offset="1"
         id="stop30" />
    </linearGradient>
    <linearGradient
       xlink:href="#linearGradient4477"
       id="linearGradient4483"
       x1="34.237"
       y1="10.71"
       x2="30.045"
       y2="5.495"
       gradientUnits="userSpaceOnUse" />
    <linearGradient
       xlink:href="#linearGradient4485"
       id="linearGradient4491"
       x1="13"
       y1="44.006"
       x2="13"
       y2="3.172"
       gradientUnits="userSpaceOnUse" />
    <linearGradient
       inkscape:collect="always"
       xlink:href="#linearGradient28623"
       id="linearGradient28625"
       x1="32.953339"
       y1="45.382271"
       x2="17.275021"
       y2="-1.1062051"
       gradientUnits="userSpaceOnUse" />
    <linearGradient
       inkscape:collect="always"
       xlink:href="#linearGradient30226"
       id="linearGradient30126"
       x1="23.905565"
       y1="15.607244"
       x2="40.340916"
       y2="32.024601"
       gradientUnits="userSpaceOnUse"
       gradientTransform="translate(0.0786868,0.007998)" />
    <linearGradient
       inkscape:collect="always"
       xlink:href="#linearGradient30692"
       id="linearGradient30694"
       x1="32"
       y1="13.997"
       x2="14.49"
       y2="31.076"
       gradientUnits="userSpaceOnUse" />
    <linearGradient
       inkscape:collect="always"
       xlink:href="#b"
       id="linearGradient31068"
       x1="11.036"
       y1="20.775358"
       x2="24.500898"
       y2="30.186838"
       gradientUnits="userSpaceOnUse" />
  </defs>
  <path
     id="rect30"
     style="fill:url(#linearGradient28625);stroke-width:2;stroke-linecap:round;stroke-linejoin:round;fill-opacity:1"
     d="M 5.9999999,4 H 42 c 1.108,0 2,0.8919999 2,1.9999999 V 42 c 0,1.108 -0.892,2 -2,2 H 5.9999999 C 4.8919999,44 4,43.108 4,42 V 5.9999999 C 4,4.8919999 4.8919999,4 5.9999999,4 Z" />
  <path
     inkscape:connector-curvature="0"
     id="path36"
     d="m 4.0000008,40.999998 v 0.999999 c 0,1.107998 0.892002,2.000001 2.000001,2.000001 H 42.000004 c 1.107999,0 2.000002,-0.892003 2.000002,-2.000001 v -0.999999 c 0,1.107999 -0.892003,1.999997 -2.000002,1.999997 H 6.0000018 c -1.107999,0 -2.000001,-0.891998 -2.000001,-1.999997 z"
     style="opacity:1;fill:#cccccc;fill-opacity:1;stroke:none;stroke-width:2;stroke-linecap:round;stroke-linejoin:round;stroke-miterlimit:4;stroke-dasharray:none;stroke-opacity:1" />
  <path
     id="rect27853"
     style="opacity:1;fill:#b3b3b3;fill-opacity:1;stroke-width:0.491829"
     d="M 4 17 L 4 18 L 10 18 L 10 17 L 4 17 z M 11 17 L 11 18 L 44 18 L 44 17 L 11 17 z M 4 24 L 4 25 L 10 25 L 10 24 L 4 24 z M 11 24 L 11 25 L 44 25 L 44 24 L 11 24 z M 4 31 L 4 32 L 10 32 L 10 31 L 4 31 z M 11 31 L 11 32 L 44 32 L 44 31 L 11 31 z M 4 38 L 4 39 L 10 39 L 10 38 L 4 38 z M 11 38 L 11 39 L 44 39 L 44 38 L 11 38 z " />
  <rect
     style="opacity:1;fill:#ffaaaa;stroke-width:1.06904"
     id="rect1111"
     width="1"
     height="40"
     x="10"
     y="4"
     rx="0"
     ry="0" />
  <path
     id="path29914"
     style="fill:url(#linearGradient30126);fill-opacity:1;opacity:0.3"
     d="m 42.078687,4.0119042 c 0,0 -4.619703,4.9394373 -9.220703,11.2734378 -4.601,6.334 -9.269547,13.498687 -13.935547,21.679687 -3.18429,5.5827 -2.96048,6.746581 -2.71875,6.988281 l 0.05469,0.05469 h 25.820312 c 1.108,0 2,-0.892 2,-2 V 6.0119042 Z" />
  <g
     fill-rule="evenodd"
     transform="translate(8.0003768,0.003)"
     id="g63">
    <path
       d="m 33.998,4 -2.33,1.143 c -2.332,1.144 -4.794,3.75 -4.794,3.75 l 0.366,2.944 c -0.138,0.201 -0.283,0.415 -0.429,0.629 l -1.036,-1.857 -1.686,2.098 1.191,2.042 c -0.007,0.011 -0.016,0.023 -0.023,0.034 l -1.491,-1.694 c 0,0 -0.971,1.143 -3.95,5.402 -2.979,4.259 -5.441,9.217 -5.441,9.217 l 0.115,3.368 c -0.16,0.237 -0.33,0.494 -0.487,0.725 l -0.469,-2.759 -1.036,1.716 -0.26,1.655 -0.581,0.699 c 0,0 -0.962,3.599 -0.778,4.249 0.184,0.651 2.624,-0.628 2.624,-0.628 l 0.129,-0.857 1.975,-0.635 -2.198,-0.438 c 0.053,-0.089 0.118,-0.197 0.172,-0.287 0.263,0.081 0.573,0.172 1.154,0.278 1.393,0.254 2.33,-0.253 2.33,-0.253 l 1,-1.273 c 0,0 -0.777,0.541 -1.652,0.699 -0.861,0.157 -2.326,-0.205 -2.37,-0.216 0.077,-0.127 0.159,-0.264 0.238,-0.393 0.37,-0.094 3.703,-0.964 5.662,-2.346 2.073,-1.462 6.186,-5.975 6.186,-5.975 0,0 -0.992,-0.009 -3.129,-0.041 -2.01,-0.03 -3.794,-0.016 -4,0 0.093,-0.149 0,-1 0,-1 l 8.586,-1.344 c 0,0 0.552,-1.049 1.394,-2.733 0.842,-1.684 3.02,-5.922 3.02,-5.922 0,0 -1.462,-0.042 -2.768,-0.221 -1.246,-0.172 -2.425,-0.472 -2.536,-0.5 0.015,-0.023 0.031,-0.047 0.046,-0.07 0.181,-0.084 1.346,-0.62 2.215,-0.891 0.939,-0.292 3.801,-0.697 3.801,-0.697 0,0 0.023,-0.405 0.229,-1.236 C 33.193,9.55 33.605,7.64 33.605,7.64 l -4.981,2.806 c 0.21,-0.288 0.408,-0.545 0.613,-0.817 l 4.551,-2.663 c 0,0 0.046,-0.584 0.137,-1.348 0.092,-0.764 0.072,-1.621 0.072,-1.621"
       id="path57"
       style="fill:url(#linearGradient30694);fill-opacity:1" />
    <path
       fill="#31363b"
       d="m 34,4 c 0,0 -4.621,4.941 -9.222,11.275 -4.601,6.334 -9.268,13.499 -13.934,21.68 -4.052,7.104 -2.586,7.05 -2.586,7.05 0,0 0.46,-1.184 3.677,-6.761 3.076,-5.331 6.967,-12.216 13.474,-21.705 3.101,-4.522 8.59,-11.534 8.59,-11.534"
       id="path59" />
    <path
       opacity="0.2"
       d="m 33.998,4 -0.707,0.883 -2.577,3.298 -3.972,5.03 c 0.181,-0.084 1.345,-0.62 2.215,-0.891 0.939,-0.292 3.801,-0.697 3.801,-0.697 0,0 0.024,-0.405 0.23,-1.236 0.206,-0.832 0.617,-2.742 0.617,-2.742 l -4.3,2.409 c 0.21,-0.288 0.408,-0.544 0.613,-0.816 l 3.871,-2.266 c 0,0 0.045,-0.584 0.137,-1.348 0.092,-0.764 0.072,-1.621 0.072,-1.621 M 26.742,13.212 19,24.003 27.586,22.659 c 0,0 0.553,-1.05 1.395,-2.734 0.842,-1.684 3.02,-5.922 3.02,-5.922 0,0 -1.462,-0.041 -2.768,-0.221 -1.246,-0.172 -2.426,-0.472 -2.537,-0.5 0.015,-0.023 0.032,-0.047 0.047,-0.07 m -7.742,10.791 -7.965,13.52 c 0.58,0.204 2.465,-0.785 2.465,-0.785 l 0.129,-0.855 1.977,-0.635 -2.199,-0.439 c 0.053,-0.089 0.118,-0.195 0.172,-0.285 0.263,0.081 0.573,0.171 1.154,0.277 1.393,0.254 2.328,-0.252 2.328,-0.252 l 1.01,-1.273 c 0,0 -0.778,0.54 -1.652,0.699 -0.861,0.157 -2.325,-0.206 -2.369,-0.217 0.077,-0.127 0.158,-0.263 0.236,-0.393 0.37,-0.094 3.703,-0.964 5.662,-2.346 2.073,-1.462 6.186,-5.975 6.186,-5.975 0,0 -0.992,-0.009 -3.129,-0.041 -2.01,-0.03 -3.794,-0.016 -4,0 0.093,-0.149 0,-1 0,-1"
       id="path61"
       style="fill:url(#linearGradient31068);fill-opacity:1" />
  </g>
</svg>
