<?xml version="1.0" encoding="UTF-8" standalone="no"?>
<!-- Created with Inkscape (http://www.inkscape.org/) -->

<svg
   width="48"
   height="48"
   viewBox="0 0 12.7 12.7"
   version="1.1"
   id="svg882"
   inkscape:version="1.1 (c4e8f9ed74, 2021-05-24)"
   sodipodi:docname="libreoffice-writer.svg"
   xmlns:inkscape="http://www.inkscape.org/namespaces/inkscape"
   xmlns:sodipodi="http://sodipodi.sourceforge.net/DTD/sodipodi-0.dtd"
   xmlns:xlink="http://www.w3.org/1999/xlink"
   xmlns="http://www.w3.org/2000/svg"
   xmlns:svg="http://www.w3.org/2000/svg">
  <sodipodi:namedview
     id="namedview884"
     pagecolor="#ffffff"
     bordercolor="#666666"
     borderopacity="1.0"
     inkscape:pageshadow="2"
     inkscape:pageopacity="0.0"
     inkscape:pagecheckerboard="0"
     inkscape:document-units="px"
     showgrid="false"
     units="px"
     inkscape:zoom="6.3050355"
     inkscape:cx="-26.010956"
     inkscape:cy="26.486766"
     inkscape:window-width="1920"
     inkscape:window-height="1026"
     inkscape:window-x="0"
     inkscape:window-y="30"
     inkscape:window-maximized="1"
     inkscape:current-layer="layer1"
     showguides="false" />
  <defs
     id="defs879">
    <linearGradient
       inkscape:collect="always"
       id="linearGradient11385">
      <stop
         style="stop-color:#60c0f4;stop-opacity:1;"
         offset="0"
         id="stop11381" />
      <stop
         style="stop-color:#2584b7;stop-opacity:1"
         offset="1"
         id="stop11383" />
    </linearGradient>
    <linearGradient
       inkscape:collect="always"
       id="linearGradient7544">
      <stop
         style="stop-color:#383e51;stop-opacity:1;"
         offset="0"
         id="stop7540" />
      <stop
         style="stop-color:#383e51;stop-opacity:0;"
         offset="1"
         id="stop7542" />
    </linearGradient>
    <linearGradient
       inkscape:collect="always"
       id="linearGradient1707">
      <stop
         style="stop-color:#22a7f0;stop-opacity:1"
         offset="0"
         id="stop1703" />
      <stop
         style="stop-color:#19b5fe;stop-opacity:1"
         offset="1"
         id="stop1705" />
    </linearGradient>
    <linearGradient
       inkscape:collect="always"
       xlink:href="#linearGradient1707"
       id="linearGradient1709"
       x1="11.641666"
       y1="11.641666"
       x2="11.641666"
       y2="1.0583333"
       gradientUnits="userSpaceOnUse" />
    <linearGradient
       inkscape:collect="always"
       xlink:href="#linearGradient7544"
       id="linearGradient7546"
       x1="2.4039876"
       y1="2.1166668"
       x2="11.480434"
       y2="11.489656"
       gradientUnits="userSpaceOnUse"
       gradientTransform="translate(0,0.26458324)" />
    <linearGradient
       inkscape:collect="always"
       xlink:href="#linearGradient11385"
       id="linearGradient11387"
       x1="8.4666662"
       y1="4.2333336"
       x2="8.4666662"
       y2="8.4666672"
       gradientUnits="userSpaceOnUse"
       gradientTransform="translate(0,0.26458324)" />
  </defs>
  <g
     inkscape:label="레이어 1"
     inkscape:groupmode="layer"
     id="layer1">
    <path
       id="rect30"
       style="fill:url(#linearGradient1709);stroke-width:0.529167;stroke-linecap:round;stroke-linejoin:round"
       d="M 1.5874999,1.0583333 H 11.1125 c 0.293158,0 0.529166,0.2360083 0.529166,0.5291666 V 11.1125 c 0,0.293158 -0.236008,0.529166 -0.529166,0.529166 H 1.5874999 c -0.2931583,0 -0.5291666,-0.236008 -0.5291666,-0.529166 V 1.5874999 c 0,-0.2931583 0.2360083,-0.5291666 0.5291666,-0.5291666 z" />
    <path
       id="rect2783-3"
       style="fill:#f2f2f2;stroke-width:0.195886"
       d="m 2.4039876,2.1166668 c -0.159162,0 -0.2873209,0.1281592 -0.2873209,0.287321 l -1e-7,7.8883042 c 0,0.159163 0.1318796,0.291041 0.2910416,0.291041 h 7.8845838 c 0.159162,0 0.291041,-0.131878 0.291041,-0.291041 V 5.2916665 L 7.4083333,2.1166666 4.7625,2.1166668 H 4.4979166 Z"
       sodipodi:nodetypes="scccccccccs" />
    <path
       opacity="0.2"
       fill-rule="evenodd"
       d="m 4.2333333,4.4979167 -2e-7,0.2645833 0.2645831,0.2645831 -0.2645829,0.2645836 0.7937496,0.7937498 -0.7937496,2e-7 V 6.35 l 0.2645829,0.2645832 -0.2645829,0.2645835 0.7937496,0.7937499 -0.7937496,1e-7 V 7.9375 l 0.2645829,0.2645833 -0.2645829,0.2645834 3.175,3.1750003 h 3.1749997 c 0.0026,-0.264583 -4.5e-5,-0.679449 -4.5e-5,-1.8520834 V 6.6145837 L 8.4666666,4.4979167 Z"
       id="path25"
       style="fill:url(#linearGradient7546);fill-opacity:1;stroke-width:0.264583"
       sodipodi:nodetypes="ccccccccccccccccsccc" />
    <path
       inkscape:connector-curvature="0"
       id="path36"
       d="m 1.0583335,10.847916 v 0.264583 c 0,0.293158 0.236009,0.529167 0.529167,0.529167 h 9.5250005 c 0.293158,0 0.529167,-0.236009 0.529167,-0.529167 v -0.264583 c 0,0.293158 -0.236009,0.529166 -0.529167,0.529166 H 1.5875005 c -0.293158,0 -0.529167,-0.236008 -0.529167,-0.529166 z"
       style="opacity:1;fill:#1a1a1a;fill-opacity:0.294118;stroke:none;stroke-width:0.529167;stroke-linecap:round;stroke-linejoin:round;stroke-miterlimit:4;stroke-dasharray:none;stroke-opacity:1" />
    <path
       d="M 4.2333333,4.4979167 V 4.7625 H 8.4666666 V 4.4979167 Z m 0,0.5291667 V 5.2916667 H 7.6729166 V 5.0270834 Z m 0,1.0583333 V 6.35 H 8.4666666 V 6.0854167 Z m 0,0.5291667 V 6.8791667 H 4.7625 V 6.6145834 Z m 0,1.0583333 V 7.9375 H 8.4666666 V 7.6729167 Z m 0,0.5291666 V 8.4666667 H 7.6729166 V 8.2020833 Z M 7.9374999,8.4666667 V 8.73125 H 8.4666666 V 8.4666667 Z"
       id="path27-6"
       style="fill:url(#linearGradient11387);fill-opacity:1;stroke-width:0.264583" />
  </g>
</svg>
