<?xml version="1.0" encoding="UTF-8" standalone="no"?>
<!-- Created with Inkscape (http://www.inkscape.org/) -->

<svg
   version="1.1"
   id="svg17960"
   width="48"
   height="48"
   viewBox="0 0 47.999998 47.999998"
   sodipodi:docname="marble.svg"
   inkscape:version="1.1 (c4e8f9ed74, 2021-05-24)"
   xmlns:inkscape="http://www.inkscape.org/namespaces/inkscape"
   xmlns:sodipodi="http://sodipodi.sourceforge.net/DTD/sodipodi-0.dtd"
   xmlns:xlink="http://www.w3.org/1999/xlink"
   xmlns="http://www.w3.org/2000/svg"
   xmlns:svg="http://www.w3.org/2000/svg"
   xmlns:rdf="http://www.w3.org/1999/02/22-rdf-syntax-ns#"
   xmlns:cc="http://creativecommons.org/ns#"
   xmlns:dc="http://purl.org/dc/elements/1.1/">
  <metadata
     id="metadata17966">
    <rdf:RDF>
      <cc:Work
         rdf:about="">
        <dc:format>image/svg+xml</dc:format>
        <dc:type
           rdf:resource="http://purl.org/dc/dcmitype/StillImage" />
      </cc:Work>
    </rdf:RDF>
  </metadata>
  <defs
     id="defs17964">
    <linearGradient
       inkscape:collect="always"
       id="linearGradient1753">
      <stop
         style="stop-color:#333333;stop-opacity:1;"
         offset="0"
         id="stop1749" />
      <stop
         style="stop-color:#808080;stop-opacity:1"
         offset="1"
         id="stop1751" />
    </linearGradient>
    <linearGradient
       inkscape:collect="always"
       id="linearGradient913">
      <stop
         style="stop-color:#ffffff;stop-opacity:1;"
         offset="0"
         id="stop909" />
      <stop
         style="stop-color:#ffffff;stop-opacity:0;"
         offset="1"
         id="stop911" />
    </linearGradient>
    <linearGradient
       inkscape:collect="always"
       id="linearGradient905">
      <stop
         style="stop-color:#000000;stop-opacity:1;"
         offset="0"
         id="stop901" />
      <stop
         style="stop-color:#000000;stop-opacity:0;"
         offset="1"
         id="stop903" />
    </linearGradient>
    <linearGradient
       inkscape:collect="always"
       id="linearGradient837">
      <stop
         style="stop-color:#73767d;stop-opacity:1;"
         offset="0"
         id="stop833" />
      <stop
         style="stop-color:#c8c9cd;stop-opacity:1"
         offset="1"
         id="stop835" />
    </linearGradient>
    <linearGradient
       inkscape:collect="always"
       xlink:href="#linearGradient905"
       id="linearGradient907"
       x1="24"
       y1="26"
       x2="36.774792"
       y2="38.774792"
       gradientUnits="userSpaceOnUse"
       gradientTransform="matrix(0.84210526,0,0,0.84210526,3.7894737,2.1052632)" />
    <linearGradient
       inkscape:collect="always"
       xlink:href="#linearGradient913"
       id="linearGradient915"
       x1="19.948734"
       y1="9.4797554"
       x2="29.532755"
       y2="45.247803"
       gradientUnits="userSpaceOnUse"
       gradientTransform="matrix(0.84210526,0,0,0.84210526,3.7894737,2.1052632)" />
    <linearGradient
       inkscape:collect="always"
       xlink:href="#linearGradient837"
       id="linearGradient943"
       x1="41"
       y1="40"
       x2="28"
       y2="6"
       gradientUnits="userSpaceOnUse" />
    <linearGradient
       inkscape:collect="always"
       xlink:href="#linearGradient1753"
       id="linearGradient1755"
       x1="35"
       y1="42"
       x2="8"
       y2="8"
       gradientUnits="userSpaceOnUse" />
  </defs>
  <sodipodi:namedview
     pagecolor="#ffffff"
     bordercolor="#666666"
     borderopacity="1"
     objecttolerance="10"
     gridtolerance="10"
     guidetolerance="10"
     inkscape:pageopacity="0"
     inkscape:pageshadow="2"
     inkscape:window-width="1920"
     inkscape:window-height="1026"
     id="namedview17962"
     showgrid="true"
     inkscape:zoom="13.94"
     inkscape:cx="12.517934"
     inkscape:cy="33.536585"
     inkscape:window-x="0"
     inkscape:window-y="30"
     inkscape:window-maximized="1"
     inkscape:current-layer="svg17960"
     inkscape:pagecheckerboard="0">
    <inkscape:grid
       type="xygrid"
       id="grid821" />
  </sodipodi:namedview>
  <path
     id="rect30"
     style="fill:url(#linearGradient943);fill-opacity:1;stroke-width:2;stroke-linecap:round;stroke-linejoin:round"
     d="m 6,4 h 36 c 1.108,0 2,0.892 2,2 v 36 c 0,1.108 -0.892,2 -2,2 H 6 C 4.892,44 4,43.108 4,42 V 6 C 4,4.892 4.892,4 6,4 Z" />
  <path
     inkscape:connector-curvature="0"
     id="path36"
     d="m 4,41 v 1 c 0,1.108 0.892,2 2,2 h 36 c 1.108,0 2,-0.892 2,-2 v -1 c 0,1.108 -0.892,2 -2,2 H 6 C 4.892,43 4,42.108 4,41 Z"
     style="opacity:0.15;fill:#000000;fill-opacity:1;stroke:none;stroke-width:2;stroke-linecap:round;stroke-linejoin:round;stroke-miterlimit:4;stroke-dasharray:none;stroke-opacity:1" />
  <circle
     style="opacity:1;fill:url(#linearGradient1755);fill-opacity:1;stroke:none;stroke-width:1.31737;stroke-linecap:round;stroke-linejoin:round;stroke-miterlimit:4;stroke-dasharray:none;stroke-dashoffset:0;stroke-opacity:1;paint-order:normal"
     id="path812"
     cx="24"
     cy="24"
     r="16" />
  <circle
     style="opacity:1;fill:#006b83;fill-opacity:1;stroke:none;stroke-width:4.59085;stroke-linecap:round;stroke-linejoin:round;stroke-miterlimit:4;stroke-dasharray:none;stroke-dashoffset:0;stroke-opacity:1;paint-order:normal"
     id="path917"
     cx="24"
     cy="24"
     r="14.315789" />
  <path
     d="m 23.775156,9.6842046 c -1.098102,0.015337 -2.162401,0.1575125 -3.186748,0.4040104 -0.269405,0.241384 -0.667877,0.364121 -1.114493,0.351846 -0.159798,0.1524 -0.122921,0.437765 -0.209992,0.647441 -0.07375,0.175924 -0.331888,0.364122 -0.508076,0.349803 -0.130094,-0.01125 -0.279647,-0.194334 -0.279647,-0.316049 0,-0.146262 0.203845,-0.228087 0.09219,-0.391738 -1.141125,0.462311 -2.203374,1.070885 -3.175482,1.796059 0.260185,-0.09615 0.548027,-0.256726 0.784652,-0.26184 0.03892,0 0.07477,0.0031 0.109605,0.01227 0.158774,0.04194 0.576708,0.499132 0.22843,0.647441 -0.03278,0.01431 -0.511151,0.06648 -0.594122,0.05216 -0.121897,-0.02045 -0.193601,-0.188197 -0.316523,-0.209676 -0.205893,-0.0358 -0.467102,0.177969 -0.644315,0.08183 -1.954457,1.575132 -3.470494,3.656554 -4.379092,6.044821 0.08297,-0.04807 0.169017,-0.09819 0.243795,-0.13808 0.256087,-0.132966 0.472225,-0.347756 0.770311,-0.367189 0.14853,-0.003 0.363643,0.03989 0.506028,0.06955 0.132141,0.02659 0.237649,0.115578 0.352376,0.12376 0.323693,0.02456 0.40052,-0.227064 0.663779,-0.367188 0.272476,0.03886 0.453786,-0.04602 0.700654,-0.01841 0.167993,0.01841 0.288866,0.197403 0.419983,0.20763 0.109606,0.01125 0.207944,-0.10228 0.314476,-0.08591 0.103458,0.01636 0.281696,0.241384 0.298084,0.367189 0.02152,0.157514 -0.114726,0.298662 -0.06965,0.471517 0.16492,0.167741 0.465054,0.201493 0.700655,0.297638 0.153651,-0.125805 0.02049,-0.361052 0,-0.543113 -0.003,-0.0808 0.01127,-0.151375 0,-0.226042 -0.01435,-0.125805 -0.06965,-0.241383 -0.06965,-0.349801 -0.003,-0.497087 0.401545,-0.730288 0.736505,-0.926668 0.144434,-0.08591 0.258137,-0.235246 0.384133,-0.297639 0.177211,-0.08898 0.309353,-0.109441 0.455835,-0.192288 0.265306,-0.148309 0.492711,-0.269 0.700654,-0.437765 0.09629,-0.22604 0.01024,-0.52777 0.01843,-0.750743 0.09629,-0.05831 0.178235,0.02659 0.279648,0.01841 0.159797,-0.03375 0.173114,-0.259795 0.264281,-0.349802 0.05327,-0.05216 0.196674,-0.08899 0.262233,-0.140126 0.1598,-0.124783 0.211016,-0.314004 0.350328,-0.367189 0.0502,-0.02045 0.164919,-0.01433 0.243795,-0.0358 0.103459,-0.02762 0.250965,-0.150352 0.419982,-0.20763 0.109605,-0.03784 0.36262,-0.04602 0.404618,-0.08797 0.05121,-0.05216 0,-0.200471 0.01843,-0.279228 0.08502,-0.394805 0.680169,-0.478675 1.034593,-0.61164 0.246868,-0.09308 0.498858,-0.263886 0.77031,-0.211722 -0.05327,0.187174 -0.305256,0.121714 -0.262233,0.3498 0.05941,0.316051 0.482469,-0.09102 0.594123,-0.138078 0.214097,-0.09001 0.57979,-0.14422 0.860462,-0.245478 0.245844,-0.09001 0.686314,-0.227064 0.453787,-0.507316 -0.193603,-0.01125 -0.285794,0.226043 -0.453787,0.29764 -0.116777,0.01841 -0.09527,-0.09615 -0.193603,-0.106373 -0.09424,-0.01125 -0.147505,0.08591 -0.243794,0.06955 -0.09629,-0.01636 -0.231503,-0.16672 -0.245844,-0.279229 -0.03789,-0.291501 0.246868,-0.41117 0.367741,-0.62903 -0.07991,-0.263884 -0.445591,-0.05421 -0.665826,-0.157513 0.02152,-0.157512 0.184383,-0.265931 0.367741,-0.295591 0.150579,-0.02557 0.488614,-0.01227 0.577732,0.0675 0.05224,0.04397 0.0041,0.154445 0.0881,0.228087 0.08912,0.0808 0.198723,0.07261 0.314474,0.05421 0.042,-0.199448 -0.259159,-0.150354 -0.22638,-0.281274 0.236624,-0.154444 0.620755,-0.02659 0.910646,-0.06955 0.166969,-0.02456 0.342133,-0.143192 0.490663,-0.226041 0.140336,-0.07977 0.32267,-0.218882 0.472225,-0.08796 0.04097,0.143194 -0.130093,0.190243 -0.209992,0.26184 -0.268379,0.238314 -0.543929,0.510383 -0.751872,0.787565 0.128044,0.124784 0.359546,0.06239 0.576709,0.08796 0.084,0.01125 0.190528,0.0358 0.279647,0.05216 0.104484,0.01841 0.216138,0.0133 0.298086,0.03375 0.147505,0.0358 0.186431,0.193311 0.331888,0.193311 0.239698,0 0.241747,-0.259793 0.106533,-0.421397 0.04303,-0.164673 0.109606,-0.249567 0.05224,-0.365145 -0.107568,-0.215806 -0.50399,-0.01124 -0.524478,-0.27922 -0.01331,-0.17388 0.146482,-0.167743 0.209992,-0.29764 -0.02868,-0.336505 0.276575,-0.361053 0.243796,-0.662782 -0.01435,-0.125806 -0.121898,-0.127852 -0.209993,-0.245475 -0.04609,-0.06035 -0.06658,-0.181038 -0.121897,-0.228088 -0.183359,-0.154445 -0.555197,-0.124782 -0.577733,-0.4193534 -0.003,-0.1002374 0.01127,-0.1892193 0.02049,-0.2833187 -0.169017,-0.00817 -0.335985,-0.023528 -0.506028,-0.025575 z m -6.822163,3.4305124 c 0.08195,0.01125 0.181309,0.09819 0.279647,0.106373 0.09322,0.003 0.171066,-0.05115 0.22843,-0.0358 0.146481,0.03886 0.207942,0.259793 0.06965,0.367189 -0.114726,0.01432 -0.159798,-0.04909 -0.245844,-0.03375 -0.237648,0.04091 -0.328815,0.50527 -0.506027,0.489929 -0.167994,-0.01433 -0.258137,-0.422422 -0.0881,-0.543114 0.01127,-0.106373 -0.07784,-0.122737 -0.07171,-0.228087 0.05019,-0.06444 0.194626,-0.133988 0.333938,-0.121715 m -0.788749,0.05422 c 0.04917,0.002 0.08502,0.0133 0.104484,0.03375 -0.02355,0.186151 -0.170043,0.174899 -0.314476,0.261839 -0.248916,0.150353 -0.393349,0.378439 -0.472224,0.699603 -0.02253,0.09308 -0.267355,0.340596 -0.386179,0.316049 -0.277599,-0.05831 0.07683,-0.569706 0.140336,-0.647441 0.06965,-0.08591 0.163894,-0.162626 0.245843,-0.261839 0.07991,-0.09615 0.133166,-0.226042 0.209992,-0.279228 0.084,-0.05831 0.325742,-0.127852 0.472224,-0.121714 m 2.072257,0.62903 c 0.08912,0.002 0.167994,0.01636 0.203846,0.05216 -0.05736,0.231156 -0.554172,0.169787 -0.736507,0.08591 0.01229,-0.08693 0.147506,-0.110463 0.262234,-0.121715 0.08093,-0.003 0.181309,-0.01841 0.270427,-0.01636 m -1.133953,0.425488 c 0.05941,-0.002 0.119849,0.01125 0.182333,0.02762 -0.160822,0.135012 -0.335986,0.210699 -0.61256,0.297638 -0.133165,0.04194 -0.363643,0.0941 -0.38618,-0.05421 -0.02766,-0.182063 0.194627,-0.139103 0.316525,-0.155468 0.152628,-0.02148 0.320621,-0.110464 0.499882,-0.115578 m 17.58807,0.259795 c 0.01331,0.13092 0.01537,0.255704 -0.02049,0.397875 -0.04815,0.189219 -0.218186,0.361051 -0.209991,0.525724 0.01127,0.08386 0.103459,0.165696 0.123946,0.279228 0.01127,0.06034 -0.02868,0.190243 0,0.245475 0.08912,0.171832 0.331889,0.02659 0.490662,0.05216 0.154677,0.02454 0.333939,0.246498 0.33189,0.419352 -0.002,0.120693 -0.115751,0.321165 -0.192578,0.437765 -0.152628,0.232179 -0.359547,0.242407 -0.577734,0.365144 -0.182332,0.103304 -0.261207,0.27616 -0.36774,0.455151 -0.115751,0.194334 -0.187455,0.311958 -0.140335,0.593232 -0.156725,0.309911 -0.394375,0.500155 -0.718069,0.64744 -0.09629,0.04296 -0.226381,0.05831 -0.314474,0.121714 -0.06965,0.05011 -0.11063,0.186152 -0.209992,0.297638 -0.122922,0.136035 -0.251991,0.193311 -0.316525,0.297639 -0.0502,0.0808 -0.06658,0.241384 -0.121898,0.349802 -0.07477,0.147284 -0.233551,0.218882 -0.331889,0.36719 -0.04507,0.06853 -0.07477,0.207631 -0.123946,0.297638 -0.110629,0.201495 -0.300134,0.346732 -0.279647,0.52368 0.02049,0.170809 0.215113,0.200471 0.22843,0.349801 0.003,0.08386 -0.05532,0.136035 -0.05224,0.228088 0.003,0.133988 0.09322,0.228087 0.104484,0.331391 0.02664,0.259794 -0.08912,0.36412 -0.138288,0.541068 -0.02355,0.08489 -0.01331,0.178992 -0.03585,0.245474 -0.04303,0.129897 -0.224333,0.247521 -0.228431,0.401965 -0.002,0.109442 0.112678,0.196381 0.121898,0.349803 0.003,0.105349 -0.05224,0.218882 -0.0338,0.316049 0.03688,0.190242 0.377985,0.411171 0.526516,0.559479 0.1977,0.197401 0.45686,0.350824 0.541881,0.559477 0.07171,0.176948 0.07171,0.408103 0.209992,0.541068 0.102434,0.09819 0.271451,0.159559 0.402568,0.26184 0.121897,0.09513 0.256088,0.177969 0.38618,0.279229 0.213064,0.166717 0.53471,0.499131 0.874794,0.473562 0.177212,-0.0133 0.359546,-0.158536 0.560319,-0.193312 0.206918,-0.03683 0.475297,-0.05523 0.684265,-0.03375 0.159798,0.01636 0.323693,0.111487 0.490663,0.104328 0.175163,-0.01125 0.376961,-0.141149 0.576708,-0.22809 0.3155,-0.137056 0.773383,-0.306842 1.234341,-0.281272 0.0881,-0.644373 0.149554,-1.29795 0.149554,-1.967891 0,-2.709431 -0.759041,-5.22964 -2.058941,-7.385729 -0.06044,-0.0041 -0.115751,-0.01227 -0.182333,-0.01022 -0.177213,0.01125 -0.469153,0.01125 -0.472226,-0.209677 -0.002,-0.181037 0.171067,-0.220926 0.377985,-0.234224 -0.387205,-0.591185 -0.820504,-1.146572 -1.288631,-1.672298 m -21.889302,6.560314 c -0.290914,0.01636 -0.480419,0.02965 -0.646363,0.104326 -0.379009,0.171832 -0.305257,0.684262 -0.684266,0.804952 -0.131116,0.04194 -0.310377,0.04296 -0.453787,0.06955 -0.123946,0.02249 -0.275548,0.09102 -0.404616,0.08796 -0.151604,-0.003 -0.415886,-0.149332 -0.506029,-0.245477 -0.06248,-0.0675 -0.163896,-0.301729 -0.230479,-0.457195 -0.09117,0.503219 -0.154677,1.015648 -0.192577,1.536259 0.03073,0.0061 0.06351,0.01433 0.09014,0.01433 0.165944,0.001 0.343157,-0.17081 0.526515,-0.175925 0.429202,-0.01227 0.615634,0.545159 0.961864,0.716992 0.08707,0.04296 0.201796,0.045 0.314475,0.06955 0.09014,0.02045 0.158773,0.05831 0.245843,0.08796 0.185408,0.06239 0.411788,0.05624 0.56032,0.121714 0.223308,0.09922 0.386179,0.517544 0.577732,0.62903 0.01127,0.112509 -0.02049,0.264909 0.01843,0.349801 0.09014,0.122738 0.219211,0.09615 0.367741,0.175925 0.178238,0.09615 0.232527,0.343665 0.40257,0.419353 0.05839,0.02557 0.205895,0.02352 0.298086,0.05216 0.232527,0.07058 0.307304,0.338552 0.506028,0.279227 0.130093,-0.03886 0.120872,-0.172854 0.142384,-0.297637 0.08605,-0.09308 0.179261,-0.241385 0.314477,-0.243431 0.21716,-0.01125 0.236624,0.225019 0.316523,0.435719 0.04507,0.11967 0.161847,0.223996 0.192576,0.349803 0.05429,0.216836 0.02766,0.867344 -0.01843,0.997242 -0.05429,0.159558 -0.271454,0.227063 -0.404618,0.404009 -0.06248,0.08285 -0.09219,0.20354 -0.140336,0.261842 -0.08605,0.104326 -0.214091,0.131942 -0.2776,0.228087 -0.03585,0.05421 -0.07068,0.170809 -0.106532,0.243429 -0.105507,0.222972 -0.246868,0.380486 -0.157749,0.64744 0.03688,0.10944 0.209991,0.184106 0.209991,0.314002 0,0.1524 -0.324719,0.288434 -0.350327,0.455152 -0.01843,0.123761 0.100385,0.345711 0.140336,0.507316 0.02868,0.121714 0.260184,0.198425 0.331889,0.279227 0.122922,0.138081 0.222284,0.332415 0.333938,0.50527 0.222283,0.340596 0.396422,0.754836 0.61256,1.085204 0.114726,0.172855 0.273501,0.328323 0.350327,0.507313 0.03892,0.09001 0.0338,0.198427 0.06967,0.279228 0.12497,0.282297 0.677094,0.576867 0.961862,0.716993 0.133166,0.06444 0.281697,0.08796 0.404619,0.155468 0.185407,0.103303 0.552124,0.380485 0.646364,0.543111 0.084,0.146263 0.135214,0.501179 0.176188,0.733358 0.05429,0.306844 0.002,0.543113 0.01843,0.874504 0.01127,0.180015 0.0676,0.361053 0.06967,0.541068 10e-4,0.06342 -0.03278,0.109441 -0.03585,0.173878 -0.003,0.217859 0.05429,0.463335 0.03585,0.683239 -0.001,0.04706 -0.0061,0.08285 -0.01435,0.12376 1.718858,0.724152 3.609807,1.125093 5.598067,1.125093 0.207944,0 0.410765,-0.02352 0.616659,-0.03171 0.0051,-0.03272 0.0092,-0.06546 0.01639,-0.09206 0.06351,-0.176947 0.22638,-0.23627 0.331889,-0.36719 0.07989,-0.09922 0.116775,-0.214792 0.192577,-0.314004 0.08195,-0.107395 0.155701,-0.202517 0.209992,-0.297638 0.05121,-0.319117 -0.127019,-0.542091 -0.05224,-0.821318 0.084,-0.314005 0.517298,-0.50527 0.822553,-0.647441 0.104483,-0.04808 0.213063,-0.127851 0.298085,-0.157513 0.211016,-0.07364 0.473249,-0.03375 0.665827,-0.104326 0.327792,-0.119669 0.36262,-0.470494 0.524466,-0.769155 0.07683,-0.141149 0.177213,-0.283319 0.192578,-0.383556 0.01331,-0.09 -0.03277,-0.174899 -0.01843,-0.281273 0.0164,-0.10535 0.11063,-0.197402 0.140337,-0.314004 0.03892,-0.151375 0.05429,-0.372302 0.05429,-0.541068 0,-0.138079 -0.06453,-0.260816 -0.06967,-0.385599 -0.02253,-0.453105 0.163895,-0.504246 0.331889,-0.750744 0.084,-0.122738 0.114727,-0.26184 0.174139,-0.349801 0.281696,-0.420377 0.771335,-0.622894 0.736506,-1.25806 -0.01229,-0.210699 -0.143408,-0.686307 -0.298084,-0.752789 -0.08912,-0.03886 -0.29194,-0.003 -0.419983,-0.05217 -0.413837,-0.154444 -0.657633,-0.666872 -1.086834,-0.699601 -0.09117,-0.01125 -0.175164,0.03784 -0.277599,0.0358 -0.170042,-0.01125 -0.426129,-0.118647 -0.614609,-0.140127 -0.11985,-0.0133 -0.278623,0.0358 -0.350327,0 -0.109606,-0.0532 -0.120873,-0.253658 -0.209992,-0.314003 -0.07068,-0.04808 -0.206918,-0.06444 -0.314476,-0.106373 -0.17209,-0.06648 -0.309352,-0.144217 -0.508076,-0.157513 -0.06146,-0.003 -0.138287,0.02967 -0.209991,0.01841 -0.109606,-0.01841 -0.196675,-0.148308 -0.298086,-0.209677 -0.12702,-0.07773 -0.245844,-0.115577 -0.298086,-0.22604 0.114727,-0.376395 -0.202821,-0.481745 -0.279647,-0.699603 -0.03688,-0.102283 -0.01946,-0.22502 -0.05224,-0.316049 -0.04507,-0.129898 -0.175163,-0.204564 -0.316523,-0.314004 -0.253014,-0.194334 -0.47837,-0.377419 -0.839966,-0.421399 -0.158774,-0.02045 -0.315501,0.04808 -0.508077,0.0358 -0.203845,-0.0133 -0.459932,-0.191266 -0.61256,-0.365144 -0.148531,-0.169787 -0.22126,-0.322186 -0.350329,-0.404012 -0.121897,-0.07875 -0.284768,-0.07672 -0.36774,-0.155467 -0.03689,-0.03478 -0.03073,-0.0941 -0.06967,-0.175924 -0.06147,-0.126828 -0.16492,-0.197401 -0.0881,-0.349801 -0.139312,-0.0716 -0.143409,0.131943 -0.296037,0.106373 -0.136237,-0.193312 -0.250966,-0.284343 -0.560318,-0.228088 -0.14136,0.02659 -0.221259,0.205586 -0.38618,0.209676 -0.135215,0.01125 -0.241746,-0.150352 -0.419983,-0.175923 -0.135213,-0.01841 -0.287841,0.0358 -0.38413,0.01841 -0.149556,-0.02967 -0.195651,-0.154444 -0.33189,-0.243429 -0.100384,-0.06547 -0.293988,-0.177969 -0.350327,-0.175924 -0.176187,0.01125 -0.301158,0.374349 -0.543929,0.245476 -0.1178,-0.149331 0.191553,-0.228087 0.05224,-0.367191 -0.106533,-0.106373 -0.195651,0.04706 -0.279647,0.106373 -0.09731,0.0675 -0.18848,0.133989 -0.296037,0.173878 -0.240721,0.09 -0.390277,0.04295 -0.577733,0.140126 -0.174139,0.09 -0.18131,0.240361 -0.279647,0.419352 -0.08093,0.146263 -0.265307,0.359007 -0.38618,0.36719 -0.146482,0.01125 -0.286818,-0.204562 -0.419983,-0.26184 -0.40052,-0.173878 -0.595147,0.153422 -0.92806,0.157513 -0.309352,0.01125 -0.749824,-0.497087 -0.734459,-0.787565 0.003,-0.176947 0.101409,-0.445947 0.121898,-0.664829 0.01843,-0.173878 0.138287,-0.278205 0.140336,-0.437763 0.003,-0.212744 -0.281697,-0.376395 -0.419983,-0.401966 -0.326768,-0.06034 -0.781578,0.131944 -1.15649,-0.01841 -0.0717,-0.118647 0.084,-0.200472 0.123947,-0.316049 0.02253,-0.06546 0.01025,-0.153422 0.0338,-0.226042 0.042,-0.111486 0.157749,-0.197404 0.20999,-0.316049 0.03892,-0.09001 0.04917,-0.219905 0.0881,-0.331392 0.04609,-0.126828 0.130093,-0.208653 0.140336,-0.297638 0.01331,-0.117623 -0.03176,-0.253657 -0.123947,-0.331391 m 4.681275,3.701558 c 0.118824,0.01125 0.133165,0.255703 0.01229,0.276159 -0.131116,0.02046 -0.196675,-0.204562 -0.06967,-0.263886 0.02152,-0.01125 0.04097,-0.0133 0.05839,-0.01227"
     id="path52"
     style="fill:url(#linearGradient915);fill-opacity:1;stroke-width:1.02358"
     inkscape:connector-curvature="0" />
  <path
     inkscape:connector-curvature="0"
     style="opacity:0.3;fill:url(#linearGradient907);fill-opacity:1;stroke:none;stroke-width:1.26176;stroke-linecap:round;stroke-linejoin:round;stroke-miterlimit:4;stroke-dasharray:none;stroke-dashoffset:0;stroke-opacity:1;paint-order:normal"
     d="m 25.786184,22.213816 -0.541118,0.541118 -2.490132,2.490132 -0.541118,0.541118 11.15625,11.157895 a 16,16 0 0 0 3.577302,-3.570724 z"
     id="rect893" />
  <g
     id="g869"
     transform="matrix(0.59545834,-0.59545834,0.59545834,0.59545834,-5.7729172,22.809083)">
    <path
       style="opacity:1;fill:#d72828;fill-opacity:1;stroke:none;stroke-width:1.96364;stroke-linecap:round;stroke-linejoin:round;stroke-miterlimit:4;stroke-dasharray:none;stroke-dashoffset:0;stroke-opacity:1;paint-order:normal"
       d="M 24,12 V 26 H 21 Z"
       id="path852"
       inkscape:connector-curvature="0"
       sodipodi:nodetypes="cccc" />
    <path
       sodipodi:nodetypes="cccc"
       inkscape:connector-curvature="0"
       id="path854"
       d="m 24,12 v 14 h 3 z"
       style="opacity:1;fill:#ffffff;fill-opacity:1;stroke:none;stroke-width:1.96364;stroke-linecap:round;stroke-linejoin:round;stroke-miterlimit:4;stroke-dasharray:none;stroke-dashoffset:0;stroke-opacity:1;paint-order:normal" />
    <g
       transform="rotate(180,24,26)"
       id="g862">
      <path
         style="opacity:1;fill:#d72828;fill-opacity:1;stroke:none;stroke-width:1.96364;stroke-linecap:round;stroke-linejoin:round;stroke-miterlimit:4;stroke-dasharray:none;stroke-dashoffset:0;stroke-opacity:1;paint-order:normal"
         d="M 24,12 V 26 H 21 Z"
         id="path856"
         inkscape:connector-curvature="0"
         sodipodi:nodetypes="cccc" />
      <path
         sodipodi:nodetypes="cccc"
         inkscape:connector-curvature="0"
         id="path858"
         d="m 24,12 v 14 h 3 z"
         style="opacity:1;fill:#ffffff;fill-opacity:1;stroke:none;stroke-width:1.96364;stroke-linecap:round;stroke-linejoin:round;stroke-miterlimit:4;stroke-dasharray:none;stroke-dashoffset:0;stroke-opacity:1;paint-order:normal" />
    </g>
  </g>
</svg>
