<?xml version="1.0" encoding="UTF-8" standalone="no"?>
<svg
   width="48"
   height="48"
   version="1"
   id="svg23"
   sodipodi:docname="mozilla-firefox.svg"
   inkscape:version="1.1 (c4e8f9ed74, 2021-05-24)"
   xmlns:inkscape="http://www.inkscape.org/namespaces/inkscape"
   xmlns:sodipodi="http://sodipodi.sourceforge.net/DTD/sodipodi-0.dtd"
   xmlns:xlink="http://www.w3.org/1999/xlink"
   xmlns="http://www.w3.org/2000/svg"
   xmlns:svg="http://www.w3.org/2000/svg"
   xmlns:rdf="http://www.w3.org/1999/02/22-rdf-syntax-ns#"
   xmlns:cc="http://creativecommons.org/ns#"
   xmlns:dc="http://purl.org/dc/elements/1.1/">
  <metadata
     id="metadata29">
    <rdf:RDF>
      <cc:Work
         rdf:about="">
        <dc:format>image/svg+xml</dc:format>
        <dc:type
           rdf:resource="http://purl.org/dc/dcmitype/StillImage" />
      </cc:Work>
    </rdf:RDF>
  </metadata>
  <defs
     id="defs27">
    <linearGradient
       inkscape:collect="always"
       id="linearGradient3143">
      <stop
         style="stop-color:#000000;stop-opacity:1;"
         offset="0"
         id="stop3139" />
      <stop
         style="stop-color:#000000;stop-opacity:0;"
         offset="1"
         id="stop3141" />
    </linearGradient>
    <linearGradient
       inkscape:collect="always"
       id="linearGradient1922">
      <stop
         style="stop-color:#25055f;stop-opacity:1;"
         offset="0"
         id="stop1918" />
      <stop
         style="stop-color:#55078d;stop-opacity:1"
         offset="1"
         id="stop1920" />
    </linearGradient>
    <linearGradient
       id="linearGradient855"
       inkscape:collect="always">
      <stop
         id="stop851"
         offset="0"
         style="stop-color:#f55c3f;stop-opacity:1" />
      <stop
         id="stop853"
         offset="1"
         style="stop-color:#fff14a;stop-opacity:1" />
    </linearGradient>
    <linearGradient
       inkscape:collect="always"
       id="linearGradient847">
      <stop
         style="stop-color:#ff8539;stop-opacity:1"
         offset="0"
         id="stop843" />
      <stop
         style="stop-color:#ffbe38;stop-opacity:1"
         offset="1"
         id="stop845" />
    </linearGradient>
    <linearGradient
       inkscape:collect="always"
       id="linearGradient906">
      <stop
         style="stop-color:#e70a67;stop-opacity:1;"
         offset="0"
         id="stop902" />
      <stop
         style="stop-color:#fff14a;stop-opacity:1"
         offset="1"
         id="stop904" />
    </linearGradient>
    <linearGradient
       inkscape:collect="always"
       id="linearGradient890">
      <stop
         style="stop-color:#f58140;stop-opacity:1"
         offset="0"
         id="stop886" />
      <stop
         style="stop-color:#fff14a;stop-opacity:1"
         offset="1"
         id="stop888" />
    </linearGradient>
    <linearGradient
       inkscape:collect="always"
       id="linearGradient882">
      <stop
         style="stop-color:#ff3941;stop-opacity:1"
         offset="0"
         id="stop878" />
      <stop
         style="stop-color:#ffaf16;stop-opacity:1"
         offset="1"
         id="stop880" />
    </linearGradient>
    <linearGradient
       inkscape:collect="always"
       id="linearGradient874">
      <stop
         style="stop-color:#583db7;stop-opacity:1"
         offset="0"
         id="stop870" />
      <stop
         style="stop-color:#b435e2;stop-opacity:1"
         offset="1"
         id="stop872" />
    </linearGradient>
    <linearGradient
       inkscape:collect="always"
       xlink:href="#linearGradient992"
       id="linearGradient994"
       x1="14.810463"
       y1="13.507719"
       x2="28.240898"
       y2="28.001432"
       gradientUnits="userSpaceOnUse"
       gradientTransform="matrix(0.69999998,0,0,0.69999998,7.2457385,7.6109042)" />
    <linearGradient
       inkscape:collect="always"
       id="linearGradient992">
      <stop
         style="stop-color:#000000;stop-opacity:1;"
         offset="0"
         id="stop988" />
      <stop
         style="stop-color:#000000;stop-opacity:0;"
         offset="1"
         id="stop990" />
    </linearGradient>
    <linearGradient
       gradientTransform="matrix(0.69999998,0,0,0.69999998,7.1804086,7.5645151)"
       inkscape:collect="always"
       xlink:href="#linearGradient992"
       id="linearGradient1010"
       x1="13.322266"
       y1="21.8125"
       x2="27.079014"
       y2="32.786713"
       gradientUnits="userSpaceOnUse" />
    <linearGradient
       inkscape:collect="always"
       xlink:href="#linearGradient874"
       id="linearGradient876"
       x1="24.228001"
       y1="33.066002"
       x2="24.228001"
       y2="14.315143"
       gradientUnits="userSpaceOnUse"
       gradientTransform="matrix(0.69999998,0,0,0.69999998,7.2000001,7.9)" />
    <linearGradient
       inkscape:collect="always"
       xlink:href="#linearGradient882"
       id="linearGradient884"
       x1="21.855875"
       y1="39.163845"
       x2="28.850494"
       y2="18.103121"
       gradientUnits="userSpaceOnUse"
       gradientTransform="matrix(0.69999998,0,0,0.69999998,7.2000001,7.9)" />
    <linearGradient
       inkscape:collect="always"
       xlink:href="#linearGradient890"
       id="linearGradient892"
       x1="35.634674"
       y1="23.344957"
       x2="30.353409"
       y2="3.6350102"
       gradientUnits="userSpaceOnUse"
       gradientTransform="matrix(0.69999998,0,0,0.69999998,7.2000001,7.9)" />
    <linearGradient
       inkscape:collect="always"
       xlink:href="#linearGradient855"
       id="linearGradient900"
       x1="31.222618"
       y1="30.57012"
       x2="29.698462"
       y2="18.11816"
       gradientUnits="userSpaceOnUse"
       gradientTransform="matrix(0.69999998,0,0,0.69999998,7.2000001,7.9)" />
    <linearGradient
       inkscape:collect="always"
       xlink:href="#linearGradient906"
       id="linearGradient908"
       x1="24.522755"
       y1="42.843544"
       x2="36.621059"
       y2="17.017258"
       gradientUnits="userSpaceOnUse"
       gradientTransform="matrix(0.69999998,0,0,0.69999998,7.2000001,7.9)" />
    <linearGradient
       inkscape:collect="always"
       xlink:href="#linearGradient847"
       id="linearGradient849"
       x1="14.953329"
       y1="15.010217"
       x2="17.321199"
       y2="10.235444"
       gradientUnits="userSpaceOnUse"
       gradientTransform="matrix(0.69999998,0,0,0.69999998,7.2000001,7.9)" />
    <linearGradient
       inkscape:collect="always"
       xlink:href="#linearGradient1922"
       id="linearGradient1924"
       x1="44"
       y1="44"
       x2="12.840469"
       y2="1.8853948"
       gradientUnits="userSpaceOnUse" />
    <linearGradient
       inkscape:collect="always"
       xlink:href="#linearGradient3143"
       id="linearGradient3145"
       x1="4"
       y1="4"
       x2="35.1199"
       y2="35.486763"
       gradientUnits="userSpaceOnUse" />
  </defs>
  <sodipodi:namedview
     pagecolor="#ffffff"
     bordercolor="#666666"
     borderopacity="1"
     objecttolerance="10"
     gridtolerance="10"
     guidetolerance="10"
     inkscape:pageopacity="0"
     inkscape:pageshadow="2"
     inkscape:window-width="1920"
     inkscape:window-height="1021"
     id="namedview25"
     showgrid="false"
     inkscape:zoom="13.01"
     inkscape:cx="7.9554189"
     inkscape:cy="30.438125"
     inkscape:window-x="0"
     inkscape:window-y="30"
     inkscape:window-maximized="1"
     inkscape:current-layer="svg23"
     inkscape:pagecheckerboard="0" />
  <rect
     style="fill:url(#linearGradient1924);stroke-width:1.05481;fill-opacity:1"
     id="rect882"
     width="40"
     height="40"
     x="4"
     y="4" />
  <path
     id="path2641"
     style="opacity:0.3;fill:url(#linearGradient3145);fill-opacity:1;stroke-width:0.7"
     d="M 28.402344,9.3007812 14.042969,34.589844 23.453125,44 H 44 V 24.898438 Z"
     sodipodi:nodetypes="cccccc" />
  <path
     style="fill:url(#linearGradient892);fill-opacity:1;stroke-width:0.7"
     d="m 28.402493,9.3 c 0.590569,1.572168 2.726221,3.999779 5.543118,7.607543 2.38564,3.055429 2.659048,6.464405 3.540975,9.529466 L 30.857741,32.142433 23.37,24.455705 C 23.336377,19.345582 22.109837,13.576826 28.402493,9.3 Z"
     id="path4" />
  <circle
     style="fill:url(#linearGradient876);fill-opacity:1;stroke-width:0.7"
     cx="24"
     cy="24.699999"
     r="7"
     id="circle10" />
  <path
     inkscape:connector-curvature="0"
     style="opacity:0.2;fill:url(#linearGradient1010);fill-opacity:1;stroke:none;stroke-width:2.8;stroke-linecap:round;stroke-linejoin:round;stroke-miterlimit:4;stroke-dasharray:none;stroke-dashoffset:0;stroke-opacity:1;paint-order:normal"
     d="m 24.022791,21.662952 -7.516797,1.170313 -1.051367,7.397851 8.110156,8.110156 c 4.651145,0.146253 8.929006,-2.00556 11.604687,-5.53164 z"
     id="path999" />
  <path
     style="opacity:0.2;fill:url(#linearGradient994);fill-opacity:1;stroke:none;stroke-width:2.8;stroke-linecap:round;stroke-linejoin:round;stroke-miterlimit:4;stroke-dasharray:none;stroke-dashoffset:0;stroke-opacity:1;paint-order:normal"
     d="m 19.32484,15.064811 -8.568164,8.568163 14.706836,14.706836 c 4.389286,-0.43705 8.274155,-2.922857 10.538281,-6.598047 z"
     id="rect954"
     inkscape:connector-curvature="0" />
  <path
     style="fill:url(#linearGradient849);fill-opacity:1;stroke-width:0.7"
     d="m 14.869483,18.899802 c 0.972534,-0.965014 2.560574,-3.212083 4.455357,-3.834991 -0.509056,2.713317 0.150891,3.575713 0.479374,4.962929 L 16.75878,19.238183 Z"
     id="path8" />
  <path
     style="fill:url(#linearGradient900);fill-opacity:1;stroke-width:0.7"
     d="m 26.61721,19.964329 c -0.09957,9.8e-4 -0.199095,0.0045 -0.298481,0.0106 2.027342,0.951688 3.323017,2.988282 3.325964,5.227885 -0.0015,3.077092 -2.412103,5.684539 -5.485093,5.84338 0.76841,0.363591 1.607524,0.48304 2.45761,0.485408 3.194213,2.8e-5 5.78366,-2.589362 5.783702,-5.783575 2.9e-5,-3.194262 -2.58944,-5.783732 -5.783702,-5.783703 z"
     id="path12" />
  <path
     id="ellipse841"
     style="fill:url(#linearGradient908);fill-opacity:1;stroke-width:0.7"
     d="m 15.168596,19.734863 c -3.274925,2.532579 -5.16854,0.700396 -5.16854,5.128715 0,7.641645 6.268001,13.836421 13.999972,13.836421 C 31.731999,38.699999 38,32.505223 38,24.863578 c 0,-3.557704 -1.358666,-6.801809 -3.591097,-9.253157 0.04976,-0.0019 -0.208769,-0.200629 -0.342052,-0.151029 0.933265,1.546909 1.470427,3.359677 1.470427,5.298032 0,5.672521 -3.154824,11.292134 -8.827345,11.292134 -3.643425,0.176851 -8.496869,-2.152364 -9.243886,-4.331952 -0.481955,-1.406211 -0.3603,-2.98556 0.95095,-3.859814 0.712228,-0.452114 1.750596,-0.898514 3.393375,-0.950935 1.500675,-0.98693 0.770501,-0.87467 0.698315,-1.173474 -0.466175,-0.127474 -1.293679,-0.303638 -2.436222,-1.202864 -1.011965,-0.796456 -1.481981,-1.09846 -4.43105,-1.126007 -0.557134,-1.072795 -0.418211,1.604157 -0.472819,0.330351 z" />
  <path
     style="fill:url(#linearGradient884);fill-opacity:1;stroke-width:0.7"
     d="m 15.379883,13.960742 c -3.134739,2.42417 -5.192628,6.141345 -5.363477,10.338671 0.179262,6.432488 6.051164,11.600586 13.283594,11.600586 7.345386,0 13.299999,-5.327811 13.299999,-11.899999 0,-1.77124 -0.435661,-3.450983 -1.211328,-4.961524 0.0944,0.559483 0.149024,1.132206 0.149024,1.718555 0,5.672521 -4.599158,10.27168 -10.27168,10.27168 -3.643425,0.17685 -6.384232,-1.835841 -7.131249,-4.01543 -0.481955,-1.406211 -0.324141,-1.999574 0.987109,-2.873828 0.712227,-0.452114 1.715033,-0.758321 3.357812,-0.810742 1.500675,-0.986931 1.615741,-1.366431 1.543555,-1.665235 C 23.557067,21.536002 22.27145,21.04239 21.128906,20.143164 20.116941,19.346708 18.837545,17.741547 15.888476,17.714 15.331342,16.641204 15.434491,15.234547 15.379883,13.960742 Z"
     id="path17" />
  <path
     style="fill:#ffba36;stroke-width:0.7"
     d="m 16.25499,21.204027 c -0.952725,-0.02067 -1.955044,0.306055 -2.592157,0.740836 -0.114118,0.114118 1.109281,2.179924 3.238567,2.202317 -0.197144,3.434765 2.548854,5.570706 4.275071,6.067713 l 5.24e-4,-0.0015 c -4.58e-4,-2.35e-4 -9.1e-4,-5.3e-4 -0.0014,-7.7e-4 -0.139103,-0.06896 -0.274408,-0.141484 -0.405939,-0.217345 -0.0123,-0.0071 -0.02444,-0.01432 -0.03667,-0.02147 -0.07353,-0.04299 -0.145784,-0.08698 -0.216833,-0.131991 -0.01391,-0.0088 -0.02784,-0.01757 -0.04166,-0.02645 -0.07112,-0.04575 -0.140889,-0.09249 -0.209422,-0.140169 -0.01075,-0.0075 -0.02164,-0.01484 -0.03233,-0.02236 -0.03934,-0.0277 -0.07833,-0.05564 -0.116786,-0.08395 -0.07542,-0.05552 -0.14894,-0.112309 -0.220921,-0.170067 -0.01708,-0.0137 -0.03397,-0.02745 -0.05086,-0.04127 -0.05098,-0.04175 -0.101093,-0.08394 -0.150263,-0.126753 -0.02394,-0.02082 -0.04767,-0.0418 -0.07117,-0.06287 -0.03412,-0.03062 -0.06786,-0.0614 -0.101069,-0.09251 -0.03209,-0.03004 -0.06385,-0.06023 -0.09506,-0.09072 -0.02575,-0.02518 -0.05125,-0.05044 -0.07641,-0.0759 -0.03656,-0.03698 -0.07256,-0.07423 -0.107842,-0.111802 -6.8e-4,-7e-4 -0.0013,-0.0015 -0.002,-0.0022 -0.02181,-0.02327 -0.04308,-0.04679 -0.0644,-0.07028 -0.03004,-0.03307 -0.05963,-0.06631 -0.08867,-0.09979 -0.02287,-0.02639 -0.04547,-0.05284 -0.06772,-0.07948 -0.02961,-0.03542 -0.05852,-0.07112 -0.08701,-0.106947 -0.01607,-0.02022 -0.03233,-0.04035 -0.04804,-0.06069 -0.03574,-0.04624 -0.07027,-0.09293 -0.104137,-0.139785 -0.01349,-0.01868 -0.02693,-0.03732 -0.04012,-0.05609 -0.0352,-0.05005 -0.06943,-0.100364 -0.102475,-0.151029 -0.009,-0.01385 -0.01772,-0.02777 -0.02658,-0.04166 -0.03284,-0.05144 -0.06485,-0.102998 -0.09545,-0.154991 -0.0065,-0.01101 -0.0128,-0.02206 -0.01917,-0.0331 -0.03083,-0.05334 -0.06025,-0.10703 -0.08868,-0.160868 -0.0053,-0.01 -0.01079,-0.0199 -0.01597,-0.0299 -0.02969,-0.05724 -0.05777,-0.114785 -0.08471,-0.172496 -0.0057,-0.01209 -0.01122,-0.02418 -0.01674,-0.03629 -0.02638,-0.05783 -0.05157,-0.115817 -0.07513,-0.174029 -0.0037,-0.0092 -0.0072,-0.01849 -0.01086,-0.02773 -0.02458,-0.06194 -0.04804,-0.124025 -0.06938,-0.186294 -0.481955,-1.406211 -0.325088,-1.999645 0.986162,-2.873899 0.712227,-0.452114 1.715383,-0.757668 3.358163,-0.810089 1.500674,-0.986931 1.615571,-1.367629 1.543385,-1.666433 -2.530983,2.006277 -4.895195,0.296056 -7.121243,-0.386229 -0.209477,-0.04472 -0.426678,-0.06794 -0.646538,-0.0727 z"
     id="path19" />
  <path
     style="opacity:0.2;fill:#000000;stroke-width:0.7"
     d="M 10.00957,24.538671 C 10.006869,24.648389 10,24.745586 10,24.864062 c 0,7.641644 6.268029,13.835937 14,13.835937 7.731971,0 13.999999,-6.194293 13.999999,-13.835937 0,-0.0811 -0.0095,-0.159857 -0.01094,-0.240625 -0.246091,7.4282 -6.41321,13.376562 -13.989059,13.376562 -7.604652,0 -13.788685,-5.993647 -13.99043,-13.461328 z"
     id="path865"
     inkscape:connector-curvature="0"
     sodipodi:nodetypes="cssscsc" />
  <rect
     style="fill:#000000;fill-opacity:1;stroke-width:0.591455;opacity:0.2"
     id="rect2250"
     width="40"
     height="1"
     x="4"
     y="43" />
</svg>
