<?xml version="1.0" encoding="UTF-8" standalone="no"?>
<svg
   xmlns:dc="http://purl.org/dc/elements/1.1/"
   xmlns:cc="http://creativecommons.org/ns#"
   xmlns:rdf="http://www.w3.org/1999/02/22-rdf-syntax-ns#"
   xmlns:svg="http://www.w3.org/2000/svg"
   xmlns="http://www.w3.org/2000/svg"
   xmlns:xlink="http://www.w3.org/1999/xlink"
   xmlns:sodipodi="http://sodipodi.sourceforge.net/DTD/sodipodi-0.dtd"
   xmlns:inkscape="http://www.inkscape.org/namespaces/inkscape"
   width="48"
   height="48"
   version="1"
   id="svg16"
   sodipodi:docname="museeks.svg"
   inkscape:version="0.92.3 (2405546, 2018-03-11)">
  <metadata
     id="metadata22">
    <rdf:RDF>
      <cc:Work
         rdf:about="">
        <dc:format>image/svg+xml</dc:format>
        <dc:type
           rdf:resource="http://purl.org/dc/dcmitype/StillImage" />
      </cc:Work>
    </rdf:RDF>
  </metadata>
  <defs
     id="defs20">
    <linearGradient
       inkscape:collect="always"
       id="linearGradient916">
      <stop
         style="stop-color:#19b7ea;stop-opacity:1;"
         offset="0"
         id="stop912" />
      <stop
         style="stop-color:#2e82bf;stop-opacity:1"
         offset="1"
         id="stop914" />
    </linearGradient>
    <linearGradient
       inkscape:collect="always"
       id="linearGradient908">
      <stop
         style="stop-color:#ffffff;stop-opacity:1;"
         offset="0"
         id="stop904" />
      <stop
         style="stop-color:#ffffff;stop-opacity:0;"
         offset="1"
         id="stop906" />
    </linearGradient>
    <linearGradient
       inkscape:collect="always"
       id="linearGradient897">
      <stop
         style="stop-color:#000000;stop-opacity:1;"
         offset="0"
         id="stop893" />
      <stop
         style="stop-color:#000000;stop-opacity:0;"
         offset="1"
         id="stop895" />
    </linearGradient>
    <linearGradient
       inkscape:collect="always"
       xlink:href="#linearGradient897"
       id="linearGradient899"
       x1="24.044922"
       y1="22.371094"
       x2="36.170586"
       y2="34.496758"
       gradientUnits="userSpaceOnUse" />
    <linearGradient
       inkscape:collect="always"
       xlink:href="#linearGradient908"
       id="linearGradient910"
       x1="22.316429"
       y1="12.539554"
       x2="28.929007"
       y2="42.255577"
       gradientUnits="userSpaceOnUse" />
    <linearGradient
       inkscape:collect="always"
       xlink:href="#linearGradient916"
       id="linearGradient918"
       x1="16.981745"
       y1="6.9614606"
       x2="38.523327"
       y2="43.776875"
       gradientUnits="userSpaceOnUse" />
  </defs>
  <sodipodi:namedview
     pagecolor="#ffffff"
     bordercolor="#666666"
     borderopacity="1"
     objecttolerance="10"
     gridtolerance="10"
     guidetolerance="10"
     inkscape:pageopacity="0"
     inkscape:pageshadow="2"
     inkscape:window-width="1920"
     inkscape:window-height="1020"
     id="namedview18"
     showgrid="false"
     inkscape:zoom="9.86"
     inkscape:cx="24"
     inkscape:cy="15.405751"
     inkscape:window-x="0"
     inkscape:window-y="30"
     inkscape:window-maximized="1"
     inkscape:current-layer="svg16">
    <inkscape:grid
       type="xygrid"
       id="grid848" />
  </sodipodi:namedview>
  <rect
     fill="#469ed7"
     width="40"
     height="40"
     x="4"
     y="4"
     rx="20"
     ry="20"
     id="rect2"
     style="fill:url(#linearGradient918);fill-opacity:1" />
  <path
     d="M 4.0117,23.5 C 4.0076,23.667 4,23.832 4,24 4,35.08 12.92,44 24,44 35.08,44 44,35.08 44,24 44,23.832 43.992,23.667 43.988,23.5 43.724,34.346 34.912,43 24,43 13.088,43 4.276,34.346 4.012,23.5 Z"
     id="path8"
     inkscape:connector-curvature="0"
     style="opacity:0.2" />
  <path
     style="fill:url(#linearGradient910);fill-opacity:1"
     d="M 14 14 L 14 34 L 19.978516 29.017578 L 23 32.099609 L 28 28 L 28 34 L 34 34 L 34 14 L 31 14 L 23.273438 21.726562 L 20 19 L 14 14 z M 31.414062 15 L 33 15 L 33 33 L 29 33 L 29 25.886719 L 23.074219 30.746094 L 20.748047 28.375 L 26 24 L 24.044922 22.371094 L 31.414062 15 z M 15 16.134766 L 19.359375 19.767578 L 24.4375 24 L 19.359375 28.232422 L 15 31.865234 L 15 16.134766 z "
     id="path10" />
  <path
     style="opacity:0.2;fill:url(#linearGradient899);fill-opacity:1;stroke:none;stroke-width:1.48323965;stroke-linecap:butt;stroke-linejoin:round;stroke-miterlimit:4;stroke-dasharray:none;stroke-dashoffset:0;stroke-opacity:1;paint-order:normal"
     d="M 34 14 L 34 34 L 28 34 L 28 28 L 23 32.099609 L 19.978516 29.017578 L 14 34 L 24 44 C 35.08 44 44 35.08 44 24 L 34 14 z "
     id="rect879" />
</svg>
