<?xml version="1.0" encoding="UTF-8" standalone="no"?>
<!-- Created with Inkscape (http://www.inkscape.org/) -->

<svg
   width="48"
   height="48"
   viewBox="0 0 12.7 12.7"
   version="1.1"
   id="svg6379"
   sodipodi:docname="calendar.svg"
   inkscape:version="1.1 (c4e8f9ed74, 2021-05-24)"
   xmlns:inkscape="http://www.inkscape.org/namespaces/inkscape"
   xmlns:sodipodi="http://sodipodi.sourceforge.net/DTD/sodipodi-0.dtd"
   xmlns:xlink="http://www.w3.org/1999/xlink"
   xmlns="http://www.w3.org/2000/svg"
   xmlns:svg="http://www.w3.org/2000/svg">
  <sodipodi:namedview
     id="namedview6381"
     pagecolor="#ffffff"
     bordercolor="#666666"
     borderopacity="1.0"
     inkscape:pageshadow="2"
     inkscape:pageopacity="0.0"
     inkscape:pagecheckerboard="0"
     inkscape:document-units="px"
     showgrid="false"
     units="px"
     inkscape:zoom="3.1635663"
     inkscape:cx="35.877232"
     inkscape:cy="14.698601"
     inkscape:window-width="1920"
     inkscape:window-height="1026"
     inkscape:window-x="0"
     inkscape:window-y="30"
     inkscape:window-maximized="1"
     inkscape:current-layer="layer1" />
  <defs
     id="defs6376">
    <linearGradient
       inkscape:collect="always"
       id="linearGradient19611">
      <stop
         style="stop-color:#000000;stop-opacity:1;"
         offset="0"
         id="stop19607" />
      <stop
         style="stop-color:#000000;stop-opacity:0;"
         offset="1"
         id="stop19609" />
    </linearGradient>
    <linearGradient
       inkscape:collect="always"
       id="linearGradient7343">
      <stop
         style="stop-color:#aa0000;stop-opacity:1"
         offset="0"
         id="stop7339" />
      <stop
         style="stop-color:#ff5555;stop-opacity:1"
         offset="1"
         id="stop7341" />
    </linearGradient>
    <linearGradient
       inkscape:collect="always"
       id="linearGradient6461">
      <stop
         style="stop-color:#e6e6e6;stop-opacity:1;"
         offset="0"
         id="stop6457" />
      <stop
         style="stop-color:#f9f9f9;stop-opacity:1"
         offset="1"
         id="stop6459" />
    </linearGradient>
    <linearGradient
       inkscape:collect="always"
       xlink:href="#linearGradient6461"
       id="linearGradient6463"
       x1="10.852806"
       y1="11.727451"
       x2="5.3058972"
       y2="2.6134398"
       gradientUnits="userSpaceOnUse" />
    <linearGradient
       inkscape:collect="always"
       xlink:href="#linearGradient7343"
       id="linearGradient7065"
       gradientUnits="userSpaceOnUse"
       x1="10.852806"
       y1="11.727451"
       x2="4.3394928"
       y2="1.3881454"
       gradientTransform="scale(3.7795276)" />
    <linearGradient
       inkscape:collect="always"
       xlink:href="#linearGradient19611"
       id="linearGradient19613"
       x1="13.272453"
       y1="14.240813"
       x2="36.629135"
       y2="36.710339"
       gradientUnits="userSpaceOnUse" />
  </defs>
  <g
     inkscape:label="레이어 1"
     inkscape:groupmode="layer"
     id="layer1">
    <path
       id="rect1765"
       style="fill:url(#linearGradient6463);fill-opacity:1;stroke-width:0.0130176"
       d="m 1.627219,1.0583333 c -0.3151558,0 -0.5688857,0.2537302 -0.5688857,0.568886 v 9.4455617 c 0,0.315156 0.2537299,0.568886 0.5688857,0.568886 h 9.445587 c 0.315156,0 0.568861,-0.25373 0.568861,-0.568886 V 1.6272193 c 0,-0.3151558 -0.253705,-0.568886 -0.568861,-0.568886 z" />
    <path
       id="rect1765-0"
       style="fill:url(#linearGradient7065);fill-opacity:1;stroke-width:0.0492004"
       d="M 6.1503906,4 C 4.9592506,4 4,4.9592506 4,6.1503906 V 14 H 44 V 6.1503906 C 44,4.9592506 43.04075,4 41.849609,4 Z"
       transform="scale(0.26458333)" />
    <path
       id="path19872"
       style="font-size:1.71807px;line-height:1.25;font-family:'Noto Sans';-inkscape-font-specification:'Noto Sans';fill:#eff0f1;stroke-width:0.162338"
       d="m 26.117188,6.5 v 4.935547 h 0.408203 l 0.117187,-0.441406 h 0.04492 c 0.09957,0.138527 0.236996,0.257857 0.410156,0.357421 0.17316,0.09957 0.395242,0.148438 0.667969,0.148438 0.42857,0 0.774994,-0.152048 1.039063,-0.455078 0.264068,-0.30303 0.396484,-0.752208 0.396484,-1.3496095 0,-0.5974014 -0.132416,-1.0450494 -0.396484,-1.34375 -0.25974,-0.3030297 -0.606163,-0.4550781 -1.039063,-0.4550781 -0.272726,0 -0.494808,0.04887 -0.667969,0.1484375 -0.173159,0.099568 -0.310588,0.2239088 -0.410156,0.3710937 h -0.03125 c 0.0086,-0.073592 0.0152,-0.1732873 0.01953,-0.2988281 0.0087,-0.1298709 0.01172,-0.2688307 0.01172,-0.4160156 V 6.5 Z m -12.46875,0.2265625 c -0.484848,0 -0.886686,0.099695 -1.207032,0.2988281 C 12.125391,7.2245244 11.89022,7.5024441 11.734375,7.8574219 11.578532,8.2123994 11.5,8.6273261 11.5,9.1035156 c 0,0.4805186 0.07853,0.9004594 0.234375,1.2597654 0.155844,0.359307 0.391014,0.638758 0.707031,0.837891 C 12.761752,11.400305 13.16206,11.5 13.642578,11.5 c 0.467532,0 0.859765,-0.0997 1.175781,-0.298828 0.316016,-0.199134 0.55467,-0.475101 0.714844,-0.830078 0.164503,-0.359307 0.246094,-0.7792473 0.246094,-1.2597659 0,-0.4805185 -0.08159,-0.8989287 -0.246094,-1.2539062 C 15.37303,7.4981148 15.134376,7.220195 14.818359,7.0253906 14.502343,6.8262574 14.11164,6.7265625 13.648438,6.7265625 Z m 6.474609,0.4296875 -0.226563,0.7402344 -0.5,0.2265625 v 0.2734375 h 0.492188 v 2.0253906 c 0,0.281386 0.04929,0.500407 0.144531,0.65625 0.09524,0.155845 0.217627,0.265143 0.369141,0.330078 0.155843,0.06061 0.324041,0.0918 0.505859,0.0918 0.103894,0 0.213618,-0.01156 0.326172,-0.0332 0.112554,-0.01731 0.19916,-0.04001 0.259766,-0.07031 v -0.435546 c -0.05628,0.01732 -0.129796,0.03542 -0.220703,0.05273 -0.09091,0.01298 -0.181,0.01953 -0.267579,0.01953 -0.160171,10e-7 -0.290634,-0.05082 -0.394531,-0.150391 -0.09957,-0.103896 -0.15039,-0.262489 -0.15039,-0.474609 V 8.3964844 h 1.005859 V 7.9550781 H 20.460938 V 7.15625 Z m -6.521485,0.083984 c 0.0161,-3.255e-4 0.03051,0 0.04688,0 0.523808,0 0.907966,0.1666673 1.15039,0.5 0.242424,0.3290036 0.363281,0.7866792 0.363281,1.3710937 0,0.5844143 -0.120857,1.0451513 -0.363281,1.3828133 -0.242424,0.333332 -0.628112,0.5 -1.15625,0.5 -0.523808,0 -0.909497,-0.166668 -1.15625,-0.5 -0.246753,-0.337662 -0.36914,-0.798399 -0.36914,-1.3828133 0,-0.5844145 0.122387,-1.0420901 0.36914,-1.3710937 0.243236,-0.322916 0.616051,-0.4899089 1.115234,-0.5 z m 4.560547,0.6484375 c -0.311687,0 -0.591137,0.063912 -0.83789,0.1894531 -0.242425,0.125541 -0.435269,0.3214461 -0.578125,0.5898438 -0.142856,0.2683978 -0.212891,0.6183045 -0.212891,1.046875 0,0.4112546 0.06697,0.7476506 0.201172,1.0117186 0.138527,0.264069 0.326358,0.460397 0.564453,0.585938 0.242424,0.125541 0.51686,0.1875 0.824219,0.1875 0.199135,10e-7 0.367332,-0.0181 0.505859,-0.05273 0.142857,-0.0303 0.273742,-0.07416 0.390625,-0.134766 v -0.507812 c -0.121212,0.05627 -0.255159,0.103616 -0.402343,0.142578 -0.142858,0.03896 -0.309525,0.05859 -0.5,0.05859 -0.329004,0 -0.579216,-0.109298 -0.748047,-0.330078 -0.164503,-0.225108 -0.246094,-0.548837 -0.246094,-0.9687502 0,-0.878786 0.341409,-1.3183593 1.025391,-1.3183593 0.121211,0 0.252097,0.018102 0.390624,0.052734 0.138528,0.034632 0.259386,0.072367 0.363282,0.1113282 L 19.078125,8.078125 C 18.97423,8.0261792 18.840284,7.9818987 18.675781,7.9472656 18.51128,7.9083037 18.339599,7.8886719 18.162109,7.8886715 Z m 5.447266,0 c -0.497834,0 -0.891598,0.1570622 -1.181641,0.46875 -0.290042,0.3116875 -0.433593,0.7543218 -0.433593,1.3300781 0,0.3852814 0.0685,0.7155544 0.207031,0.9882814 0.138528,0.268398 0.326358,0.47433 0.564453,0.617188 0.242424,0.138527 0.518813,0.207031 0.826172,0.207031 0.497834,0 0.891598,-0.158592 1.181641,-0.474609 0.294371,-0.316017 0.441406,-0.762135 0.441406,-1.3378914 -1e-6,-0.3852813 -0.07046,-0.7085875 -0.208985,-0.9726562 C 24.871661,8.4464454 24.68383,8.2420429 24.441406,8.1035156 24.203312,7.9606596 23.925392,7.8886719 23.609375,7.8886715 Z m 7.845703,0 c -0.307358,1.5e-6 -0.578734,0.075471 -0.8125,0.2226562 -0.229437,0.1471859 -0.409193,0.3561796 -0.539062,0.6289063 -0.125541,0.2727267 -0.1875,0.599517 -0.1875,0.9804687 0,0.3852813 0.0685,0.7120713 0.207031,0.9804693 0.142857,0.264069 0.340715,0.463458 0.591797,0.597656 0.25541,0.134199 0.547949,0.201172 0.876953,0.201172 0.238094,0 0.442074,-0.01963 0.615234,-0.05859 0.17316,-0.03463 0.349855,-0.09005 0.527344,-0.167968 v -0.5 c -0.181818,0.07792 -0.360043,0.138352 -0.533203,0.18164 -0.16883,0.03896 -0.363205,0.05859 -0.583984,0.05859 -0.34632,0 -0.617696,-0.103179 -0.8125,-0.306641 -0.190466,-0.207792 -0.290161,-0.508405 -0.298829,-0.9023439 h 2.382813 v -0.34375 c 0,-0.3160161 -0.05694,-0.5904525 -0.173828,-0.8242187 C 32.602291,8.3986236 32.437154,8.213854 32.220703,8.0839844 32.008582,7.9541148 31.753779,7.8886719 31.455078,7.8886715 Z m 3.941406,0 c -0.242423,0 -0.45337,0.070457 -0.630859,0.2089843 -0.177488,0.138528 -0.321039,0.3036651 -0.433594,0.4941407 h -0.02734 L 34.240234,7.9550781 H 33.773438 V 11.435547 H 34.34375 V 9.578125 c 0,-0.2337653 0.04581,-0.4381678 0.136719,-0.6113281 0.09524,-0.1774876 0.221108,-0.3129641 0.376953,-0.4082031 0.155843,-0.099568 0.322511,-0.1503907 0.5,-0.1503907 0.06061,0 0.122565,0.005 0.1875,0.013672 0.06926,0.00867 0.133176,0.020227 0.189453,0.033203 l 0.07031,-0.5273437 c -0.05628,-0.012976 -0.123251,-0.021057 -0.201172,-0.025391 -0.07359,-0.00867 -0.142097,-0.013672 -0.207032,-0.013672 z m -3.998046,0.46875 c 0.01661,-6.933e-4 0.03178,0 0.04883,0 0.290042,0 0.502519,0.09315 0.636718,0.2792969 0.134199,0.1818177 0.204656,0.4204714 0.208985,0.7148437 h -1.773438 c 0.0303,-0.3116873 0.123452,-0.5553553 0.279297,-0.7285156 0.150162,-0.1663961 0.350523,-0.2552253 0.59961,-0.265625 z m -7.867188,0.013672 c 0.02143,-9.132e-4 0.04422,0 0.06641,0 0.354977,0 0.614794,0.115843 0.779297,0.3496093 0.164503,0.2337658 0.246094,0.5555425 0.246094,0.9667969 0,0.4112543 -0.08159,0.7380453 -0.246094,0.9804693 -0.164502,0.238095 -0.422789,0.357422 -0.773437,0.357422 -0.354977,0 -0.614795,-0.119327 -0.779297,-0.357422 -0.160174,-0.242424 -0.240235,-0.569214 -0.240235,-0.9804693 0,-0.4112539 0.08006,-0.7330306 0.240235,-0.9667969 0.150162,-0.2191559 0.385654,-0.3359121 0.707031,-0.3496093 z m 4.070312,0 c 0.02212,-8.286e-4 0.04341,0 0.06641,0 0.627704,0 0.941406,0.4376202 0.941406,1.3164062 0,0.4328993 -0.07658,0.7647033 -0.232422,0.9941413 -0.151515,0.229437 -0.383625,0.34375 -0.695312,0.34375 -0.380953,0 -0.642301,-0.112782 -0.785157,-0.337891 C 26.757957,10.458063 26.6875,10.129742 26.6875,9.7011719 v -0.025391 c 0,-0.4458877 0.07199,-0.7761615 0.214844,-0.9882812 0.133928,-0.1988622 0.367442,-0.3039774 0.699218,-0.3164062 z"
       transform="scale(0.26458333)" />
    <path
       id="path16394"
       style="font-size:6.39348px;line-height:1.25;font-family:Pretendard;-inkscape-font-specification:Pretendard;opacity:0.3;fill:url(#linearGradient19613);fill-opacity:1;stroke-width:0.604108"
       d="m 20.486328,20.548828 -1.027344,6.91211 -3.203125,1.767578 L 11,34.769531 11.017578,36.322266 18.695312,44 h 16.570313 6.583984 c 0.07453,0 0.148212,-0.0042 0.220703,-0.01172 0.06845,-0.0068 0.134766,-0.01607 0.201172,-0.0293 0,0 0.002,0 0.002,0 0.136062,-0.02721 0.267214,-0.06785 0.392578,-0.11914 0.125745,-0.05144 0.245056,-0.116244 0.357422,-0.189453 0.112818,-0.07351 0.217735,-0.157175 0.314453,-0.25 C 43.745138,43.009527 44,42.461179 44,41.849609 v -12.375 l -8.914062,-8.914062 0.164062,4.515625 -2.791016,2.027344 -4.875,0.542968 z m 10.439453,7.845703 c 0.750964,0 1.426573,0.142084 2.027344,0.425781 0.600771,0.283696 1.070833,0.672889 1.410156,1.167969 0.344886,0.495081 0.517578,1.054715 0.517578,1.677735 0,0.600771 -0.161737,1.129796 -0.484375,1.585937 -0.163869,0.228851 -0.363424,0.431028 -0.597656,0.609375 l -4.998047,-4.998047 c 0.02625,-0.01427 0.05218,-0.02992 0.08008,-0.04297 0.606334,-0.283698 1.288397,-0.425781 2.044922,-0.425781 z"
       transform="scale(0.26458333)" />
    <path
       id="path16252"
       style="font-size:6.39348px;line-height:1.25;font-family:Pretendard;-inkscape-font-specification:Pretendard;fill:#232629;stroke-width:0.604108"
       d="m 16.490234,19 c -1.023535,0 -1.946253,0.214251 -2.769531,0.642578 -0.823278,0.422765 -1.472484,1.017505 -1.945312,1.785156 -0.467267,0.762089 -0.696969,1.638748 -0.691407,2.628907 h 2.019532 c 0,-0.634147 0.133381,-1.193781 0.40039,-1.677735 0.272572,-0.483954 0.657561,-0.85799 1.158203,-1.125 0.506205,-0.267009 1.094196,-0.402344 1.761719,-0.402344 0.63971,0 1.214795,0.12018 1.726563,0.359376 0.51733,0.239195 0.923927,0.578125 1.21875,1.017578 0.300385,0.439452 0.453421,0.948823 0.458984,1.527343 -0.0056,0.506205 -0.11479,0.993672 -0.326172,1.460938 -0.211382,0.461703 -0.519705,0.942717 -0.925781,1.443359 -0.400514,0.49508 -0.984302,1.151035 -1.751953,1.96875 L 11,34.769531 l 0.01758,1.552735 H 22.115234 V 34.4375 H 13.970703 V 34.302734 L 17.875,30.263672 c 1.029098,-1.056911 1.822637,-1.946772 2.378906,-2.669922 0.561832,-0.72315 0.959725,-1.379105 1.19336,-1.96875 0.239188,-0.595208 0.361619,-1.218306 0.367187,-1.869141 -0.0056,-0.884468 -0.237219,-1.687006 -0.693359,-2.410156 C 20.664953,20.622553 20.030903,20.051968 19.21875,19.634766 18.41216,19.212001 17.502644,19 16.490234,19 Z m 14.435547,0 c -1.029098,0 -1.958268,0.196846 -2.787109,0.591797 -0.823278,0.389388 -1.468281,0.929367 -1.935547,1.619141 -0.467266,0.689773 -0.701172,1.465907 -0.701172,2.328124 0,0.611897 0.115976,1.184732 0.349609,1.71875 0.233634,0.534019 0.565814,0.984425 0.994141,1.351563 0.428327,0.367138 0.920294,0.618449 1.476563,0.751953 v 0.08203 c -0.645273,0.105691 -1.235513,0.365703 -1.769532,0.777344 -0.528455,0.406075 -0.946005,0.922196 -1.251953,1.550781 -0.305954,0.62302 -0.454787,1.29413 -0.449219,2.011719 -0.0056,0.917843 0.247998,1.740037 0.759766,2.46875 0.511768,0.72315 1.228937,1.289235 2.152344,1.695313 0.923407,0.406075 1.977256,0.609375 3.162109,0.609375 1.168166,0 2.211062,-0.2033 3.128907,-0.609375 0.923406,-0.406078 1.642825,-0.972163 2.160156,-1.695313 C 36.732168,33.52324 36.994431,32.701046 37,31.783203 36.994437,31.065614 36.834948,30.394504 36.523438,29.771484 36.217489,29.142899 35.79769,28.626778 35.263672,28.220703 34.735216,27.809063 34.151428,27.54905 33.511719,27.443359 v -0.08203 c 0.550706,-0.133504 1.038173,-0.384815 1.460937,-0.751953 0.428328,-0.367138 0.758556,-0.817544 0.992188,-1.351563 0.239191,-0.534018 0.361619,-1.106853 0.367187,-1.71875 -0.0056,-0.862217 -0.241718,-1.638351 -0.708984,-2.328124 C 35.155781,20.521164 34.510778,19.981185 33.6875,19.591797 32.869784,19.196846 31.949317,19 30.925781,19 Z m 0,1.835938 c 0.656398,-10e-7 1.233733,0.120179 1.734375,0.359374 0.506205,0.239196 0.8996,0.573923 1.177735,1.007813 0.283697,0.428327 0.425781,0.924496 0.425781,1.486328 0,0.567395 -0.144334,1.072563 -0.433594,1.517578 -0.283697,0.439454 -0.679342,0.782587 -1.185547,1.027344 -0.506205,0.239196 -1.07904,0.359375 -1.71875,0.359375 -0.650835,1e-6 -1.232373,-0.120179 -1.74414,-0.359375 -0.506205,-0.244758 -0.90185,-0.587891 -1.185547,-1.027344 -0.283698,-0.439452 -0.425782,-0.944621 -0.425782,-1.517578 10e-7,-0.561832 0.137585,-1.058001 0.410157,-1.486328 0.278134,-0.43389 0.669576,-0.768616 1.175781,-1.007813 0.511767,-0.239196 1.102008,-0.359374 1.769531,-0.359374 z m 0,7.558593 c 0.750964,0 1.426573,0.142083 2.027344,0.425781 0.600771,0.283697 1.070832,0.672889 1.410156,1.167969 0.344887,0.495081 0.517578,1.054715 0.517578,1.677735 0,0.600771 -0.161739,1.129796 -0.484375,1.585937 -0.322636,0.450578 -0.781745,0.80271 -1.376953,1.058594 -0.595208,0.250331 -1.292722,0.376953 -2.09375,0.376953 -0.812153,0 -1.51837,-0.126622 -2.11914,-0.376953 -0.600771,-0.255884 -1.05988,-0.608016 -1.376953,-1.058594 -0.317085,-0.456141 -0.470122,-0.985166 -0.458985,-1.585937 -0.01112,-0.617459 0.152863,-1.172889 0.492188,-1.667969 0.339324,-0.500641 0.811635,-0.894038 1.417968,-1.177735 0.606334,-0.283698 1.288396,-0.425781 2.044922,-0.425781 z"
       transform="scale(0.26458333)" />
    <path
       id="rect911-0"
       style="opacity:0.2;fill:#000000;fill-opacity:0.99267;stroke-width:0.0144763"
       d="m 1.0583415,10.808126 v 0.264583 c 0,0.315156 0.2538018,0.568958 0.5689575,0.568958 h 9.445419 c 0.315155,0 0.568957,-0.253802 0.568957,-0.568958 v -0.264583 c 0,0.315156 -0.253802,0.568958 -0.568957,0.568958 H 1.627299 c -0.3151557,0 -0.5689575,-0.253802 -0.5689575,-0.568958 z" />
  </g>
</svg>
