<?xml version="1.0" encoding="UTF-8" standalone="no"?>
<svg
   xmlns:dc="http://purl.org/dc/elements/1.1/"
   xmlns:cc="http://creativecommons.org/ns#"
   xmlns:rdf="http://www.w3.org/1999/02/22-rdf-syntax-ns#"
   xmlns:svg="http://www.w3.org/2000/svg"
   xmlns="http://www.w3.org/2000/svg"
   xmlns:xlink="http://www.w3.org/1999/xlink"
   xmlns:sodipodi="http://sodipodi.sourceforge.net/DTD/sodipodi-0.dtd"
   xmlns:inkscape="http://www.inkscape.org/namespaces/inkscape"
   width="48"
   height="48"
   version="1.1"
   id="svg12"
   sodipodi:docname="rto-proxy.svg"
   inkscape:version="0.92.3 (2405546, 2018-03-11)">
  <metadata
     id="metadata18">
    <rdf:RDF>
      <cc:Work
         rdf:about="">
        <dc:format>image/svg+xml</dc:format>
        <dc:type
           rdf:resource="http://purl.org/dc/dcmitype/StillImage" />
      </cc:Work>
    </rdf:RDF>
  </metadata>
  <defs
     id="defs16">
    <linearGradient
       inkscape:collect="always"
       id="linearGradient868">
      <stop
         style="stop-color:#ffffff;stop-opacity:1;"
         offset="0"
         id="stop864" />
      <stop
         style="stop-color:#ffffff;stop-opacity:0;"
         offset="1"
         id="stop866" />
    </linearGradient>
    <linearGradient
       inkscape:collect="always"
       id="linearGradient857">
      <stop
         style="stop-color:#000000;stop-opacity:1;"
         offset="0"
         id="stop853" />
      <stop
         style="stop-color:#000000;stop-opacity:0;"
         offset="1"
         id="stop855" />
    </linearGradient>
    <linearGradient
       inkscape:collect="always"
       id="linearGradient832">
      <stop
         style="stop-color:#236f4a;stop-opacity:1"
         offset="0"
         id="stop828" />
      <stop
         style="stop-color:#5ecc67;stop-opacity:1"
         offset="1"
         id="stop830" />
    </linearGradient>
    <linearGradient
       inkscape:collect="always"
       xlink:href="#linearGradient832"
       id="linearGradient834"
       x1="34.179752"
       y1="45.570484"
       x2="22.524124"
       y2="1.8618733"
       gradientUnits="userSpaceOnUse" />
    <linearGradient
       inkscape:collect="always"
       xlink:href="#linearGradient857"
       id="linearGradient859"
       x1="20.254993"
       y1="19.802429"
       x2="36.201569"
       y2="35.749004"
       gradientUnits="userSpaceOnUse" />
    <linearGradient
       inkscape:collect="always"
       xlink:href="#linearGradient868"
       id="linearGradient870"
       x1="20.973877"
       y1="10.212956"
       x2="32.037319"
       y2="38.068436"
       gradientUnits="userSpaceOnUse" />
  </defs>
  <sodipodi:namedview
     pagecolor="#ffffff"
     bordercolor="#666666"
     borderopacity="1"
     objecttolerance="10"
     gridtolerance="10"
     guidetolerance="10"
     inkscape:pageopacity="0"
     inkscape:pageshadow="2"
     inkscape:window-width="1920"
     inkscape:window-height="1026"
     id="namedview14"
     showgrid="false"
     inkscape:zoom="9.8603159"
     inkscape:cx="6.5174825"
     inkscape:cy="18.871795"
     inkscape:window-x="0"
     inkscape:window-y="30"
     inkscape:window-maximized="1"
     inkscape:current-layer="svg12" />
  <path
     style="fill:url(#linearGradient834);fill-opacity:1"
     d="M 24,4 A 20,20 0 0 0 4,24 20,20 0 0 0 24,44 20,20 0 0 0 44,24 20,20 0 0 0 24,4 Z"
     id="path4" />
  <path
     style="opacity:0.2;fill:url(#linearGradient859);fill-opacity:1;stroke:none;stroke-width:4;stroke-linecap:round;stroke-linejoin:round;stroke-miterlimit:4;stroke-dasharray:none;stroke-dashoffset:0;stroke-opacity:1;paint-order:normal"
     d="M 24.259766 12.345703 C 24.590266 12.79359 25.136495 13.748583 26.162109 15.646484 C 26.963682 17.129793 27.760085 18.515871 27.931641 18.726562 C 28.167369 19.016063 29.004626 19.248564 31.693359 19.779297 L 24.259766 12.345703 z M 35.970703 20.673828 L 35.955078 20.689453 C 35.956696 20.690418 35.991384 20.696456 35.992188 20.697266 L 35.970703 20.673828 z M 35.992188 20.697266 C 36.097462 20.803379 35.154299 21.897972 32.398438 24.865234 L 30.542969 26.861328 L 30.955078 30.220703 C 31.181262 32.068232 31.412543 33.900643 31.470703 34.291016 C 31.551161 34.831031 31.513652 35 31.308594 35 C 31.160361 35 29.522964 34.277394 27.669922 33.394531 C 25.81688 32.511669 24.164476 31.787056 23.998047 31.785156 C 23.831618 31.783173 22.164556 32.50578 20.294922 33.390625 C 18.425288 34.27547 16.808104 35 16.701172 35 C 16.643889 35 16.595948 34.940563 16.560547 34.853516 L 16.525391 34.873047 L 25.574219 43.921875 A 20 20 0 0 0 43.523438 28.226562 L 35.992188 20.697266 z "
     id="rect841" />
  <path
     style="fill:url(#linearGradient870);fill-opacity:1"
     d="M 23.914062 12 C 23.879973 11.995993 23.850936 12.010468 23.826172 12.037109 C 23.746142 12.123209 22.865962 13.684142 21.869141 15.505859 C 20.872319 17.327575 19.993783 18.880616 19.917969 18.957031 C 19.842149 19.033451 18.219621 19.395936 16.3125 19.763672 C 11.860791 20.622062 12 20.588051 12 20.826172 C 12 20.938008 13.229461 22.34685 14.730469 23.957031 C 17.28193 26.694065 17.451532 26.923999 17.357422 27.488281 C 17.173412 28.591602 16.508181 34.141491 16.507812 34.574219 C 16.507625 34.808443 16.594235 35 16.701172 35 C 16.808104 35 18.425288 34.27547 20.294922 33.390625 C 22.164556 32.50578 23.831618 31.783173 23.998047 31.785156 C 24.164476 31.787056 25.81688 32.511669 27.669922 33.394531 C 29.522964 34.277394 31.160361 35 31.308594 35 C 31.513652 35 31.551161 34.831031 31.470703 34.291016 C 31.412543 33.900643 31.181262 32.068232 30.955078 30.220703 L 30.542969 26.861328 L 32.398438 24.865234 C 35.154299 21.897972 36.097462 20.803379 35.992188 20.697266 C 35.940218 20.644886 34.17532 20.265893 32.070312 19.855469 C 29.026681 19.262036 28.179693 19.031198 27.931641 18.726562 C 27.760085 18.515871 26.963682 17.129793 26.162109 15.646484 C 24.669505 12.884417 24.152688 12.028052 23.914062 12 z M 23.972656 15.833984 C 24.15212 16.160223 24.181805 16.189548 24.402344 16.597656 C 24.810937 17.353758 25.21684 18.082238 25.548828 18.660156 C 25.714822 18.949115 25.860877 19.20026 25.986328 19.40625 C 26.111779 19.61224 26.138325 19.692373 26.380859 19.990234 C 27.052642 20.81526 27.688663 20.912173 28.425781 21.113281 C 29.162899 21.314389 30.152018 21.518978 31.6875 21.818359 C 31.941355 21.867859 32.102405 21.903149 32.34375 21.951172 C 31.875952 22.465522 31.618314 22.764559 30.931641 23.503906 L 28.445312 26.181641 L 28.96875 30.464844 C 29.04643 31.099371 29.077928 31.31073 29.148438 31.875 C 28.923747 31.769745 28.763718 31.701531 28.529297 31.589844 C 27.586054 31.140446 26.696728 30.731309 26.003906 30.427734 C 25.657496 30.275947 25.361587 30.152084 25.115234 30.054688 C 24.992058 30.005987 24.883327 29.964608 24.761719 29.923828 C 24.64042 29.883158 24.742269 29.793837 24.021484 29.785156 L 24.019531 29.785156 C 23.26178 29.776556 23.370499 29.877306 23.246094 29.917969 C 23.121384 29.958739 23.011518 29.998299 22.886719 30.046875 C 22.63712 30.144025 22.339946 30.270236 21.990234 30.421875 C 21.290812 30.725153 20.391667 31.133328 19.439453 31.583984 C 19.198627 31.69796 19.038129 31.767693 18.808594 31.875 C 18.823794 31.746914 18.834009 31.651397 18.849609 31.521484 C 19.037926 29.952614 19.263164 28.217624 19.330078 27.816406 C 19.373408 27.55661 19.409902 27.005977 19.263672 26.513672 C 19.117446 26.021367 18.885627 25.672896 18.640625 25.34375 C 18.150622 24.685458 17.472927 23.966383 16.193359 22.59375 C 15.962404 22.345997 15.817496 22.177061 15.603516 21.943359 C 16.073743 21.851829 16.041292 21.851919 16.691406 21.726562 C 17.6617 21.539469 18.558596 21.355804 19.240234 21.203125 C 19.581054 21.126785 19.865174 21.059603 20.099609 20.998047 C 20.216827 20.967267 20.317613 20.939321 20.4375 20.900391 C 20.49744 20.880931 20.559566 20.859556 20.662109 20.816406 C 20.764653 20.773256 20.844762 20.862266 21.337891 20.365234 C 21.599333 20.10172 21.563228 20.095812 21.597656 20.044922 C 21.632086 19.994032 21.656961 19.957622 21.681641 19.917969 C 21.731011 19.838659 21.780621 19.755166 21.839844 19.654297 C 21.958298 19.452559 22.109081 19.187638 22.289062 18.869141 C 22.649029 18.232145 23.120876 17.382573 23.623047 16.464844 C 23.755185 16.223358 23.846256 16.063329 23.972656 15.833984 z "
     id="path10" />
  <path
     style="fill:#000000;fill-opacity:1;opacity:0.2"
     d="M 4.0214844 23.417969 A 20 20 0 0 0 4 24 A 20 20 0 0 0 24 44 A 20 20 0 0 0 44 24 A 20 20 0 0 0 43.978516 23.582031 A 20 20 0 0 1 24 43 A 20 20 0 0 1 4.0214844 23.417969 z "
     id="path826" />
</svg>
