<?xml version="1.0" encoding="UTF-8" standalone="no"?>
<svg
   viewBox="0 0 48 48"
   version="1.1"
   id="svg40"
   sodipodi:docname="vlc.svg"
   inkscape:version="1.1.1 (3bf5ae0d25, 2021-09-20)"
   xmlns:inkscape="http://www.inkscape.org/namespaces/inkscape"
   xmlns:sodipodi="http://sodipodi.sourceforge.net/DTD/sodipodi-0.dtd"
   xmlns:xlink="http://www.w3.org/1999/xlink"
   xmlns="http://www.w3.org/2000/svg"
   xmlns:svg="http://www.w3.org/2000/svg">
  <defs
     id="defs44">
    <linearGradient
       inkscape:collect="always"
       id="linearGradient5165">
      <stop
         style="stop-color:#000000;stop-opacity:1;"
         offset="0"
         id="stop5161" />
      <stop
         style="stop-color:#000000;stop-opacity:0;"
         offset="1"
         id="stop5163" />
    </linearGradient>
    <linearGradient
       inkscape:collect="always"
       id="linearGradient3845">
      <stop
         style="stop-color:#ffffff;stop-opacity:1;"
         offset="0"
         id="stop3841" />
      <stop
         style="stop-color:#cccccc;stop-opacity:1"
         offset="1"
         id="stop3843" />
    </linearGradient>
    <linearGradient
       inkscape:collect="always"
       id="linearGradient3744">
      <stop
         style="stop-color:#fb914b;stop-opacity:1"
         offset="0"
         id="stop3740" />
      <stop
         style="stop-color:#edd358;stop-opacity:1"
         offset="1"
         id="stop3742" />
    </linearGradient>
    <linearGradient
       inkscape:collect="always"
       xlink:href="#linearGradient3744"
       id="linearGradient1133"
       gradientUnits="userSpaceOnUse"
       gradientTransform="scale(3.7795276)"
       x1="6.930027"
       y1="13.024098"
       x2="4.0058231"
       y2="-0.2527585" />
    <linearGradient
       id="linearGradient3286"
       x1="15"
       x2="25"
       y1="27"
       y2="37"
       gradientUnits="userSpaceOnUse"
       xlink:href="#a"
       gradientTransform="matrix(0.69999992,0,0,0.69999992,7.4996651,7.1999996)" />
    <linearGradient
       id="linearGradient3290">
      <stop
         stop-color="#fff"
         offset="0"
         id="stop2-6" />
      <stop
         stop-color="#f5f5f5"
         offset="1"
         id="stop4-7" />
    </linearGradient>
    <linearGradient
       inkscape:collect="always"
       xlink:href="#linearGradient3845"
       id="linearGradient3847"
       x1="19.260355"
       y1="8.8781261"
       x2="36.027775"
       y2="38.581802"
       gradientUnits="userSpaceOnUse" />
    <linearGradient
       inkscape:collect="always"
       xlink:href="#linearGradient5165"
       id="linearGradient5167"
       x1="-1.687501"
       y1="-2.125"
       x2="36.899662"
       y2="37.299995"
       gradientUnits="userSpaceOnUse" />
  </defs>
  <sodipodi:namedview
     id="namedview42"
     pagecolor="#ffffff"
     bordercolor="#666666"
     borderopacity="1.0"
     inkscape:pageshadow="2"
     inkscape:pageopacity="0.0"
     inkscape:pagecheckerboard="0"
     showgrid="false"
     inkscape:zoom="16"
     inkscape:cx="18.84375"
     inkscape:cy="23.59375"
     inkscape:window-width="1920"
     inkscape:window-height="1013"
     inkscape:window-x="0"
     inkscape:window-y="0"
     inkscape:window-maximized="0"
     inkscape:current-layer="svg40" />
  <linearGradient
     id="a">
    <stop
       stop-color="#fff"
       offset="0"
       id="stop2" />
    <stop
       stop-color="#f5f5f5"
       offset="1"
       id="stop4" />
  </linearGradient>
  <linearGradient
     id="b"
     x1="13"
     x2="42"
     y1="14"
     y2="43"
     gradientUnits="userSpaceOnUse"
     gradientTransform="matrix(0.69999992,0,0,0.69999992,7.4996651,7.1999996)"
     xlink:href="#linearGradient3290">
    <stop
       stop-color="#ffb24d"
       offset="0"
       id="stop7" />
    <stop
       stop-color="#ffa733"
       offset=".36206895"
       id="stop9" />
    <stop
       stop-color="#f28100"
       offset="1"
       id="stop11" />
  </linearGradient>
  <linearGradient
     id="c"
     x1="23"
     x2="42"
     y1="25"
     y2="44"
     gradientUnits="userSpaceOnUse"
     gradientTransform="matrix(0.69999992,0,0,0.69999992,7.4996651,7.1999996)">
    <stop
       stop-color="#e5840b"
       offset="0"
       id="stop14" />
    <stop
       stop-color="#f27a00"
       offset="1"
       id="stop16" />
  </linearGradient>
  <linearGradient
     id="d"
     x1="15"
     x2="25"
     y1="27"
     y2="37"
     gradientUnits="userSpaceOnUse"
     xlink:href="#a"
     gradientTransform="matrix(0.69999992,0,0,0.69999992,7.4996651,7.1999996)" />
  <linearGradient
     id="e"
     x1="19"
     x2="27"
     y1="13"
     y2="21"
     gradientUnits="userSpaceOnUse"
     xlink:href="#a"
     gradientTransform="matrix(0.69999992,0,0,0.69999992,7.4996651,7.1999996)" />
  <linearGradient
     id="f"
     x1="16"
     x2="34"
     y1="22"
     y2="28"
     gradientUnits="userSpaceOnUse"
     gradientTransform="matrix(0.69999992,0,0,0.69999992,7.4996651,7.1999996)">
    <stop
       stop-color="#ffb24d"
       offset="0"
       id="stop21" />
    <stop
       stop-color="#ffa733"
       offset=".15737528"
       id="stop23" />
    <stop
       stop-color="#f28100"
       offset="1"
       id="stop25" />
  </linearGradient>
  <path
     id="rect30"
     style="fill:url(#linearGradient1133);stroke-width:2;stroke-linecap:round;stroke-linejoin:round;fill-opacity:1"
     d="M 5.999999,4 H 42 c 1.107999,0 1.999998,0.8919999 1.999998,1.9999998 V 42.000001 c 0,1.107999 -0.891999,1.999997 -1.999998,1.999997 H 5.999999 C 4.892,43.999998 4,43.108 4,42.000001 V 5.9999998 C 4,4.8919999 4.892,4 5.999999,4 Z" />
  <path
     id="path28"
     style="fill:url(#linearGradient3847);fill-opacity:1;stroke-width:0.7"
     d="m 24.296875,10 c -0.91271,0.0011 -1.720232,0.591536 -1.998047,1.460938 l -1.414062,4.423828 -0.0039,0.0039 -1.628906,5.095703 -1.554687,4.859375 C 17.347772,26.941947 17.166016,27.5 17.166016,27.5 h -1.966797 c -0.306898,4.95e-4 -0.577694,0.20082 -0.667969,0.494141 L 11.730469,37.09375 C 11.5916,37.544356 11.928872,38.000608 12.400391,38 h 23.798828 c 0.471519,6.08e-4 0.808791,-0.455644 0.669922,-0.90625 L 34.068359,27.994141 C 33.978084,27.70082 33.707289,27.500495 33.400391,27.5 h -1.966797 c 0,0 -0.151248,-0.459994 -0.533203,-1.65625 h 0.002 l -1.554688,-4.859375 h -0.002 L 27.716797,15.888672 26.300781,11.460938 C 26.022309,10.589477 25.211746,9.9985398 24.296875,10 Z m -2.804687,6.013672 c 0.964012,0.19001 1.923138,0.287109 2.80664,0.287109 0.883858,0 1.844078,-0.09538 2.808594,-0.285156 l 1.564453,5.197266 c -1.465258,0.470075 -3.008741,0.6875 -4.373047,0.6875 -1.364816,0 -2.907672,-0.217121 -4.373047,-0.6875 z M 18.257812,26.136719 C 20.155263,27.088247 22.398647,27.5 24.298828,27.5 c 1.900217,0 4.14524,-0.411646 6.042969,-1.363281 l 1.363281,4.53125 c -0.0064,0.01113 -0.01292,0.02219 -0.01953,0.0332 -0.0071,0.01113 -0.01422,0.0222 -0.02148,0.0332 -0.02419,0.03792 -0.0496,0.07504 -0.07617,0.111328 -0.0065,0.0079 -0.01296,0.01567 -0.01953,0.02344 -0.02564,0.03467 -0.05235,0.06854 -0.08008,0.101562 -0.147423,0.171336 -0.321538,0.317751 -0.515625,0.433594 -2.013285,1.197247 -4.560141,1.695312 -6.673828,1.695312 -2.113686,0 -4.65859,-0.498065 -6.671875,-1.695312 -0.303324,-0.198078 -0.550254,-0.471249 -0.716797,-0.792969 z"
     sodipodi:nodetypes="ccccccccccccccccccccccccsccscccsccccccccsccc" />
  <path
     d="m 11.701032,37.299997 a 0.70006993,0.70006993 0 0 0 0.698632,0.700001 h 23.799997 a 0.70006993,0.70006993 0 0 0 0.700001,-0.700001 z"
     id="path38"
     style="stroke-width:0.7;fill:#999999" />
  <g
     id="g4826">
    <path
       id="path4731"
       style="opacity:0.2;fill:url(#linearGradient5167);fill-opacity:1;stroke-width:0.7"
       d="m 24.673828,10.037109 c 0.04715,0.0085 0.09254,0.02156 0.138672,0.0332 -0.04622,-0.01167 -0.09143,-0.02466 -0.138672,-0.0332 z m 0.365234,0.103516 c 0.04763,0.01797 0.0946,0.03729 0.140626,0.05859 -0.04625,-0.02143 -0.09276,-0.04053 -0.140626,-0.05859 z m 0.34961,0.169922 c 0.03737,0.02274 0.07547,0.04335 0.111328,0.06836 -0.03583,-0.02499 -0.07399,-0.04563 -0.111328,-0.06836 z m 0.396484,0.304687 c 0.231519,0.231454 0.411198,0.518906 0.515625,0.845704 l 1.416016,4.427734 1.628906,5.095703 h 0.002 l 1.554688,4.859375 h -0.002 C 31.282346,27.040006 31.433594,27.5 31.433594,27.5 h 1.966797 c 0.306898,4.95e-4 0.577698,0.20082 0.667968,0.494141 l 2.800782,9.099609 C 37.00801,37.544356 36.670738,38.000608 36.199219,38 H 12.400391 c -0.215772,2.78e-4 -0.400559,-0.0974 -0.527344,-0.244141 0.01129,0.01311 0.019,0.02876 0.03125,0.04102 L 18.107422,44 H 42 c 1.107999,0 2,-0.892001 2,-2 V 28.830078 Z m -4.292968,5.398438 -1.566407,5.199219 c 1.465375,0.470379 3.008231,0.6875 4.373047,0.6875 1.364306,0 2.907789,-0.217425 4.373047,-0.6875 l -1.564453,-5.197266 c -0.964516,0.189776 -1.924736,0.285156 -2.808594,0.285156 -0.883502,0 -1.842628,-0.0971 -2.80664,-0.287109 z m -3.234376,10.123047 -1.347656,4.474609 c 0.166543,0.32172 0.413473,0.594891 0.716797,0.792969 2.013285,1.197247 4.558189,1.695312 6.671875,1.695312 2.113687,0 4.660543,-0.498065 6.673828,-1.695312 0.194087,-0.115843 0.368202,-0.262258 0.515625,-0.433594 0.02773,-0.03302 0.05444,-0.06689 0.08008,-0.101562 0.0066,-0.0078 0.01303,-0.01554 0.01953,-0.02344 0.02657,-0.03629 0.05198,-0.07341 0.07617,-0.111328 0.0073,-0.011 0.01438,-0.02207 0.02148,-0.0332 0.0066,-0.01101 0.01313,-0.02207 0.01953,-0.0332 L 30.34179,26.136723 C 28.444068,27.088354 26.199045,27.5 24.298828,27.5 c -1.900181,0 -4.143564,-0.411753 -6.041016,-1.363281 z m -6.55664,11.144531 c -5.45e-4,0.01864 0.003,0.03628 0.0039,0.05469 -9.49e-4,-0.01823 -0.0044,-0.03622 -0.0039,-0.05469 z m 0.01563,0.164062 c 0.0066,0.03098 0.01675,0.06031 0.02734,0.08984 -0.01069,-0.02954 -0.0207,-0.05885 -0.02734,-0.08984 z m 0.06055,0.166016 c 0.01145,0.02298 0.02326,0.04487 0.03711,0.06641 -0.01374,-0.02126 -0.02571,-0.04375 -0.03711,-0.06641 z" />
  </g>
  <path
     inkscape:connector-curvature="0"
     id="path36-3"
     d="m 4,40.999998 v 0.999999 c 0,1.107999 0.892003,2.000001 2.000002,2.000001 h 36.000002 c 1.107999,0 2.000001,-0.892002 2.000001,-2.000001 v -0.999999 c 0,1.107999 -0.892002,1.999998 -2.000001,1.999998 H 6.000002 C 4.892003,42.999996 4,42.107997 4,40.999998 Z"
     style="opacity:0.15;fill:#000000;fill-opacity:1;stroke:none;stroke-width:2;stroke-linecap:round;stroke-linejoin:round;stroke-miterlimit:4;stroke-dasharray:none;stroke-opacity:1" />
</svg>
