<?xml version="1.0" encoding="UTF-8" standalone="no"?>
<!-- Created with Inkscape (http://www.inkscape.org/) -->

<svg
   xmlns:dc="http://purl.org/dc/elements/1.1/"
   xmlns:cc="http://creativecommons.org/ns#"
   xmlns:rdf="http://www.w3.org/1999/02/22-rdf-syntax-ns#"
   xmlns:svg="http://www.w3.org/2000/svg"
   xmlns="http://www.w3.org/2000/svg"
   xmlns:sodipodi="http://sodipodi.sourceforge.net/DTD/sodipodi-0.dtd"
   xmlns:inkscape="http://www.inkscape.org/namespaces/inkscape"
   id="svg7384"
   height="16"
   width="16"
   version="1.1"
   sodipodi:docname="network-wireless-disabled-symbolic.svg"
   inkscape:version="0.92.3 (2405546, 2018-03-11)">
  <defs
     id="defs14" />
  <sodipodi:namedview
     pagecolor="#ffffff"
     bordercolor="#666666"
     borderopacity="1"
     objecttolerance="10"
     gridtolerance="10"
     guidetolerance="10"
     inkscape:pageopacity="0"
     inkscape:pageshadow="2"
     inkscape:window-width="1920"
     inkscape:window-height="1026"
     id="namedview12"
     showgrid="true"
     inkscape:zoom="18.16"
     inkscape:cx="-4.6350752"
     inkscape:cy="6.5994465"
     inkscape:window-x="0"
     inkscape:window-y="30"
     inkscape:window-maximized="1"
     inkscape:current-layer="svg7384">
    <inkscape:grid
       type="xygrid"
       id="grid4508" />
  </sodipodi:namedview>
  <metadata
     id="metadata90">
    <rdf:RDF>
      <cc:Work
         rdf:about="">
        <dc:format>image/svg+xml</dc:format>
        <dc:type
           rdf:resource="http://purl.org/dc/dcmitype/StillImage" />
        <dc:title>Gnome Symbolic Icon Theme</dc:title>
      </cc:Work>
    </rdf:RDF>
  </metadata>
  <title
     id="title9167">Gnome Symbolic Icon Theme</title>
  <path
     style="color:#31363b;opacity:0.5;fill:#eff0f1;fill-opacity:1;stroke:none"
     d="M 8 0.02734375 C 6.2893389 0.02734375 4.6794469 0.4262237 3.2382812 1.1171875 L 3.9863281 1.8652344 C 5.2143615 1.3292975 6.5701232 1.0273438 8 1.0273438 C 10.77 1.0273438 13.270615 2.1417088 15.078125 3.9492188 L 15.785156 3.2421875 C 13.796906 1.2539375 11.047 0.02734375 8 0.02734375 z M 0.68945312 2.8105469 C 0.5297254 2.9526717 0.36597413 3.0910571 0.21484375 3.2421875 L 0.921875 3.9492188 C 1.0731506 3.7979423 1.2357471 3.6588973 1.3964844 3.5175781 L 0.68945312 2.8105469 z M 8 4 C 7.4222063 4 6.8646319 4.0763505 6.328125 4.2070312 L 7.1835938 5.0625 C 7.4510749 5.0263011 7.7222695 5 8 5 C 9.662 5 11.161594 5.6694063 12.246094 6.7539062 L 12.955078 6.0449219 C 11.689828 4.7796719 9.939 4 8 4 z M 3.5058594 5.6269531 C 3.3465053 5.7601823 3.191675 5.8981688 3.0449219 6.0449219 L 3.7539062 6.7539062 C 3.9005895 6.6072231 4.0555517 6.4687574 4.2167969 6.3378906 L 3.5058594 5.6269531 z M 6.1367188 8.2578125 C 5.9184607 8.3184689 5.7035461 8.3869149 5.4941406 8.4667969 L 6.2792969 9.2519531 C 6.5050254 9.1848316 6.7387626 9.1368005 6.9746094 9.0957031 L 6.1367188 8.2578125 z M 8 12 C 6.892004 12 6 12.892004 6 14 C 6 15.107996 6.892004 16 8 16 C 9.107996 16 10 15.107996 10 14 C 10 12.892004 9.107996 12 8 12 z M 8 13 C 8.554 13 9 13.446 9 14 C 9 14.554 8.554 15 8 15 C 7.446 15 7 14.554 7 14 C 7 13.446 7.446 13 8 13 z "
     id="path4584" />
  <path
     style="color:#000000;font-style:normal;font-variant:normal;font-weight:normal;font-stretch:normal;font-size:medium;line-height:normal;font-family:sans-serif;font-variant-ligatures:normal;font-variant-position:normal;font-variant-caps:normal;font-variant-numeric:normal;font-variant-alternates:normal;font-feature-settings:normal;text-indent:0;text-align:start;text-decoration:none;text-decoration-line:none;text-decoration-style:solid;text-decoration-color:#000000;letter-spacing:normal;word-spacing:normal;text-transform:none;writing-mode:lr-tb;direction:ltr;text-orientation:mixed;dominant-baseline:auto;baseline-shift:baseline;text-anchor:start;white-space:normal;shape-padding:0;clip-rule:nonzero;display:inline;overflow:visible;visibility:visible;opacity:1;isolation:auto;mix-blend-mode:normal;color-interpolation:sRGB;color-interpolation-filters:linearRGB;solid-color:#000000;solid-opacity:1;vector-effect:none;fill:#eff0f1;fill-opacity:1;fill-rule:nonzero;stroke:none;stroke-width:1px;stroke-linecap:butt;stroke-linejoin:miter;stroke-miterlimit:4;stroke-dasharray:none;stroke-dashoffset:0;stroke-opacity:1;color-rendering:auto;image-rendering:auto;shape-rendering:auto;text-rendering:auto;enable-background:accumulate"
     d="M 0.35351562,-0.35351562 -0.35351562,0.35351562 15.646484,16.353516 16.353516,15.646484 Z"
     id="path818"
     inkscape:connector-curvature="0" />
</svg>
