<?xml version="1.0" encoding="UTF-8" standalone="no"?>
<!-- Created with Inkscape (http://www.inkscape.org/) -->

<svg
   width="96"
   height="96"
   viewBox="0 0 25.399999 25.400001"
   version="1.1"
   id="svg5"
   inkscape:version="1.1.1 (3bf5ae0d25, 2021-09-20, custom)"
   sodipodi:docname="folder-html.svg"
   xmlns:inkscape="http://www.inkscape.org/namespaces/inkscape"
   xmlns:sodipodi="http://sodipodi.sourceforge.net/DTD/sodipodi-0.dtd"
   xmlns:xlink="http://www.w3.org/1999/xlink"
   xmlns="http://www.w3.org/2000/svg"
   xmlns:svg="http://www.w3.org/2000/svg">
  <sodipodi:namedview
     id="namedview7"
     pagecolor="#ffffff"
     bordercolor="#666666"
     borderopacity="1.0"
     inkscape:pageshadow="2"
     inkscape:pageopacity="0.0"
     inkscape:pagecheckerboard="0"
     inkscape:document-units="px"
     showgrid="false"
     units="px"
     height="96px"
     inkscape:zoom="8.1666667"
     inkscape:cx="67.469387"
     inkscape:cy="48.612245"
     inkscape:window-width="1920"
     inkscape:window-height="1006"
     inkscape:window-x="0"
     inkscape:window-y="0"
     inkscape:window-maximized="1"
     inkscape:current-layer="svg5" />
  <defs
     id="defs2">
    <linearGradient
       inkscape:collect="always"
       id="linearGradient1885">
      <stop
         style="stop-color:#4d4d4d;stop-opacity:1;"
         offset="0"
         id="stop1881" />
      <stop
         style="stop-color:#666666;stop-opacity:1"
         offset="1"
         id="stop1883" />
    </linearGradient>
    <linearGradient
       inkscape:collect="always"
       id="linearGradient1481">
      <stop
         style="stop-color:#5e2750;stop-opacity:1"
         offset="0"
         id="stop1475" />
      <stop
         style="stop-color:#772953;stop-opacity:1"
         offset="0.52207935"
         id="stop1477" />
      <stop
         style="stop-color:#e95420;stop-opacity:1"
         offset="1"
         id="stop1479" />
    </linearGradient>
    <linearGradient
       inkscape:collect="always"
       xlink:href="#linearGradient1481"
       id="linearGradient4654"
       x1="1.2052771"
       y1="5.4093776"
       x2="25.439491"
       y2="5.5562501"
       gradientUnits="userSpaceOnUse" />
    <linearGradient
       inkscape:collect="always"
       xlink:href="#linearGradient1885"
       id="linearGradient1887"
       x1="24.077084"
       y1="23.283333"
       x2="12.700001"
       y2="7.1437502"
       gradientUnits="userSpaceOnUse" />
  </defs>
  <path
     id="rect846-3"
     style="fill:url(#linearGradient4654);stroke-width:0.300092;fill-opacity:1"
     d="m 1.3229165,2.1166673 8.9958335,-7e-7 2.381251,3.1749999 11.377083,7e-7 V 18.785418 H 1.3229165 Z"
     sodipodi:nodetypes="ccccccc" />
  <path
     id="rect956"
     style="opacity:0.2;fill:#f9f9f9;stroke-width:0.458269"
     d="m 10.31875,2.1166666 2.381251,3.1749999 11.377083,7e-7 V 5.5562501 H 12.700001 Z"
     sodipodi:nodetypes="cccccc" />
  <path
     id="rect956-3"
     style="opacity:0.2;stroke-width:0.458269"
     d="M 10.054167,10.054166 12.7,7.1437503 10.31875,10.31875 H 1.3229166 v -0.264584 z"
     sodipodi:nodetypes="cccccc" />
  <path
     id="rect846"
     style="fill:url(#linearGradient1887);fill-opacity:1;stroke-width:0.309472"
     d="M 1.3229166,10.31875 H 10.31875 L 12.700001,7.1437501 H 24.077084 V 23.283333 H 1.3229166 Z"
     sodipodi:nodetypes="ccccccc" />
  <path
     id="rect956-3-6"
     style="opacity:0.2;fill:#f9f9f9;stroke-width:0.458269"
     d="M 10.31875,10.31875 12.700001,7.1437501 10.583333,10.583334 H 1.3229161 V 10.31875 Z"
     sodipodi:nodetypes="cccccc" />
  <path
     id="rect956-3-7"
     style="opacity:0.2;stroke-width:0.458269"
     d="m 24.077084,23.018749 v 0.264584 H 1.3229166 v -0.264584 z"
     sodipodi:nodetypes="ccccc" />
  <path
     id="path1031"
     style="fill:#999999;fill-opacity:1;stroke-width:0.264583"
     d="M 12.670028,11.906278 A 3.96875,3.96875 0 0 0 8.73125,15.875028 3.96875,3.96875 0 0 0 12.7,19.843779 3.96875,3.96875 0 0 0 16.66875,15.875028 3.96875,3.96875 0 0 0 12.7,11.906278 a 3.96875,3.96875 0 0 0 -0.02997,0 z m 0.02997,0.264584 a 3.7041666,3.7041666 0 0 1 1.76475,0.450101 c 0.0091,0.01333 0.0072,0.02749 0.0248,0.03721 0.01347,0.0075 0.02611,0.01912 0.03876,0.02584 0.0217,0.01199 0.04275,0.03066 0.03824,0.05168 -0.006,0.0307 -0.05603,0.02866 -0.077,0.05116 0.0029,0.04344 -0.01468,0.03541 -0.02584,0.0646 0.0067,0.01876 0.02288,0.01632 0.02584,0.03876 -0.0037,0.02397 -0.03484,0.02644 -0.02584,0.05116 0.04047,0.03148 0.07755,0.0052 0.115755,0 0.0839,-0.0105 0.154498,0.002 0.206188,-0.03824 -0.0052,-0.03062 0.02248,-0.04049 0.03669,-0.0615 a 3.7041666,3.7041666 0 0 1 0.09405,0.0677 l -0.02377,-0.0026 c -0.01738,0.0065 -0.04305,0.01401 -0.05529,0.0217 -0.02096,0.01418 -0.02769,0.03594 -0.05168,0.05168 -0.01722,0.01201 -0.05953,0.05168 -0.07751,0.05168 -0.0217,0 -0.06127,-0.01813 -0.077,-0.01292 -0.02249,0.0067 -0.01338,0.04269 -0.03876,0.05168 -0.04944,0.01794 -0.137286,-0.0488 -0.154513,0.02532 0.02096,0.04268 0.09122,0.02849 0.128675,0.05168 0.02326,0.015 0.05861,0.09029 0.06459,0.115755 0.006,0.02095 0.009,0.0938 0,0.116272 -0.02326,0.05991 -0.0856,0.05266 -0.154512,0.05116 -0.01876,0 -0.03445,0.0016 -0.05168,0 -0.116113,-0.0075 -0.230747,-0.04434 -0.283187,0.03876 0.0037,0.06366 0.01423,0.09908 0,0.154513 -0.01045,0.04042 -0.05393,0.06763 -0.05168,0.102836 7.94e-4,0.01797 0.0343,0.05279 0.03876,0.07751 0.0029,0.01347 -0.006,0.03921 0,0.05116 0.01953,0.03671 0.06889,-0.006 0.103353,0 0.03296,0.0052 0.06408,0.05373 0.06408,0.09043 0,0.02619 -0.0093,0.07737 -0.02584,0.102836 -0.03297,0.04943 -0.09439,0.03764 -0.141594,0.0646 -0.03894,0.02246 -0.05377,0.07681 -0.077,0.115755 -0.02474,0.04194 -0.04853,0.05585 -0.03876,0.115755 -0.0337,0.06666 -0.07194,0.109385 -0.141594,0.141593 -0.02024,0.009 -0.04588,0.02531 -0.0646,0.03876 -0.015,0.01045 -0.03014,0.0277 -0.05116,0.05168 -0.02619,0.02922 -0.06328,0.04161 -0.07751,0.06408 -0.0105,0.01722 -0.0017,0.05429 -0.01292,0.07752 -0.01648,0.03148 -0.04311,0.05846 -0.06408,0.08992 -0.0097,0.015 -0.02834,0.03218 -0.03876,0.05168 -0.02397,0.04344 -0.05618,0.07757 -0.05168,0.115755 0.0037,0.03671 0.04944,0.04531 0.05168,0.07752 0.0019,0.01797 -0.01369,0.03167 -0.01292,0.05116 7.93e-4,0.02848 0.01067,0.04214 0.01292,0.06459 0.0052,0.05542 -0.02833,0.07756 -0.03876,0.115755 -0.0052,0.01797 0.0045,0.03746 0,0.05168 -0.009,0.02773 -0.05041,0.04456 -0.05116,0.07751 -7.93e-4,0.02326 0.03601,0.04407 0.03824,0.077 0.0016,0.02244 -0.01739,0.04363 -0.01292,0.0646 0.0083,0.04047 0.08481,0.09722 0.116272,0.128674 0.0427,0.04269 0.08411,0.07082 0.102836,0.115755 0.01574,0.03819 0.02247,0.100213 0.05168,0.128675 0.0217,0.02095 0.06221,0.02996 0.08992,0.05168 0.02622,0.02024 0.0622,0.02996 0.08992,0.05168 0.04569,0.03597 0.107683,0.108079 0.180351,0.102837 0.03819,-0.0029 0.07357,-0.01841 0.116272,-0.02584 0.0442,-0.0075 0.09665,-0.03035 0.141594,-0.02584 0.03445,0.0037 0.06689,0.02812 0.102836,0.02584 0.03746,-0.0019 0.08598,-0.0201 0.128674,-0.03876 0.07417,-0.03222 0.188236,-0.09273 0.296106,-0.077 0.0824,0.01201 0.08391,0.104896 0.141593,0.141594 0.06592,0.006 0.114992,-0.01273 0.167432,0 0.03972,0.0097 0.08668,0.08431 0.09043,0.115755 0.0037,0.03222 -0.02137,0.0573 -0.02584,0.07752 -0.01045,0.04344 -0.01841,0.100961 -0.02584,0.128674 -0.006,0.0217 -0.01369,0.04288 -0.01292,0.0646 0,0.01953 0.03144,0.06445 0.05168,0.08992 0.02474,0.03148 0.05996,0.05547 0.08992,0.08992 0.05469,0.06291 0.07807,0.148895 0.116272,0.232027 0.0097,0.02096 -0.009,0.02546 0,0.05168 -0.01648,0.125828 -0.05919,0.207965 -0.141594,0.347265 -0.03894,0.04493 -0.07827,0.09835 -0.07751,0.154513 -0.0029,0.134807 0.0706,0.204551 0.0646,0.334863 -0.01347,0.175252 7.35e-4,0.202489 -0.01292,0.296106 0.05918,0.02995 0.03014,0.118187 0.01292,0.180351 -0.02545,0.07414 -0.05036,0.09216 -0.0646,0.141593 0.02509,0.01088 0.04776,0.01314 0.07338,0.01189 a 3.7041666,3.7041666 0 0 1 -2.661315,1.127525 3.7041666,3.7041666 0 0 1 -1.39113,-0.272335 c 1.19e-4,-0.0018 4e-4,-0.0039 0,-0.0041 0.03894,-0.01648 0.113132,0.02883 0.141594,-0.02584 0.01431,-0.02622 -0.01876,-0.07662 0,-0.102836 0.01347,-0.01797 0.100962,-0.03432 0.128674,-0.03876 0.03972,-0.0067 0.08088,10e-4 0.103353,-0.01292 0.02474,-0.01574 0.05566,-0.05641 0.05116,-0.102836 -0.0019,-0.02169 -0.02106,-0.03223 -0.03824,-0.05168 -0.01421,-0.01648 -0.0034,-0.03668 -0.01292,-0.05168 -0.01797,-0.02622 -0.04419,-0.03876 -0.05168,-0.077 0.05394,-0.01048 0.128283,0.05999 0.206189,0.03824 0.03672,-0.0105 0.09853,-0.08131 0.115756,-0.115755 0.0052,-0.0105 -0.006,-0.05133 0,-0.06408 0.0067,-0.01418 0.02359,-0.01841 0.02584,-0.02584 0.0052,-0.02021 -0.0045,-0.02611 0,-0.03876 0.01347,-0.0382 0.05452,-0.06221 0.077,-0.08992 0.01723,-0.02096 0.03594,-0.04287 0.05168,-0.0646 0.01796,-0.02326 0.02683,-0.03144 0.03876,-0.05168 0.01127,-0.06815 -0.04234,-0.119922 -0.02584,-0.179834 0.01796,-0.0674 0.115179,-0.111402 0.180351,-0.14211 0.02246,-0.0105 0.04535,-0.03152 0.06408,-0.03824 0.04494,-0.01574 0.09964,-0.0109 0.141593,-0.02584 0.07042,-0.02545 0.09473,-0.103028 0.129191,-0.167431 0.01648,-0.02995 0.03527,-0.05528 0.03824,-0.077 0.0029,-0.01953 -0.0037,-0.04212 0,-0.0646 0.0037,-0.02246 0.007,-0.03989 0.01292,-0.06459 0.0083,-0.03222 0.01292,-0.09272 0.01292,-0.128675 0,-0.02995 -0.01218,-0.03712 -0.01292,-0.06408 -0.0052,-0.09736 0.02864,-0.101342 0.06459,-0.154513 0.01797,-0.02619 0.02611,-0.07171 0.03876,-0.09043 0.06068,-0.08987 0.162008,-0.133965 0.154512,-0.270268 -0.0029,-0.04494 -0.01873,-0.140279 -0.05168,-0.154513 -0.01876,-0.0083 -0.06271,-0.0025 -0.09043,-0.01292 -0.0884,-0.03296 -0.152288,-0.134105 -0.244429,-0.141593 -0.01953,-7.94e-4 -0.02996,7.94e-4 -0.05168,0 -0.03597,-7.94e-4 -0.07531,-0.03431 -0.115755,-0.03876 -0.02545,-0.0029 -0.07493,0.0075 -0.08992,0 -0.02326,-0.01127 -0.02007,-0.05136 -0.03876,-0.06408 -0.015,-0.0105 -0.04139,-0.01759 -0.0646,-0.02584 -0.03671,-0.01418 -0.06013,-0.02285 -0.102836,-0.02584 -0.01347,-7.94e-4 -0.04964,0.0019 -0.0646,0 -0.02326,-0.0037 -0.04236,-0.02531 -0.06408,-0.03876 -0.02695,-0.01648 -0.04043,-0.02792 -0.05168,-0.05116 0.02474,-0.08089 -0.06052,-0.09493 -0.077,-0.14211 -0.0075,-0.0217 0.0075,-0.05753 0,-0.077 -0.0097,-0.02773 -0.03388,-0.04138 -0.06459,-0.06459 -0.05393,-0.04194 -0.103187,-0.08019 -0.180351,-0.08992 -0.03445,-0.0037 -0.07455,0.0029 -0.115755,0 -0.04345,-0.0029 -0.09572,-0.02717 -0.128674,-0.0646 -0.03144,-0.03676 -0.03687,-0.0727 -0.0646,-0.08992 -0.02622,-0.01648 -0.07194,-0.02161 -0.08992,-0.03876 -0.0083,-0.0075 -0.0055,-0.02161 -0.01292,-0.03876 -0.01347,-0.027 -0.04234,-0.03114 -0.02584,-0.06408 -0.02995,-0.015 -0.01943,0.01892 -0.05168,0.01292 -0.02922,-0.04121 -0.04984,-0.06441 -0.115755,-0.05168 -0.02996,0.006 -0.0547,0.05093 -0.08992,0.05168 -0.02922,7.94e-4 -0.05222,-0.04644 -0.09043,-0.05168 -0.02922,-0.0037 -0.06969,0.03035 -0.08992,0.02584 -0.03222,-0.006 -0.03541,-0.04509 -0.0646,-0.0646 -0.0217,-0.01429 -0.06501,-0.0519 -0.077,-0.05116 -0.03745,7.94e-4 -0.06407,0.07886 -0.115755,0.05116 -0.02545,-0.03222 0.0424,-0.03415 0.0124,-0.06408 -0.02246,-0.02246 -0.03315,8.53e-4 -0.05116,0.01292 -0.02096,0.01418 -0.04138,0.03004 -0.0646,0.03824 -0.05169,0.01953 -0.08822,0.01788 -0.128674,0.03876 -0.03746,0.01953 -0.04288,0.05172 -0.0646,0.08992 -0.01722,0.03148 -0.05078,0.07601 -0.077,0.07752 -0.03148,0.0019 -0.06146,-0.03969 -0.08992,-0.05168 -0.08615,-0.03745 -0.135024,0.0251 -0.206189,0.02584 -0.06592,7.94e-4 -0.157509,-0.105263 -0.154513,-0.167432 0.0019,-0.0382 0.02137,-0.09441 0.02584,-0.141594 0.0037,-0.03745 0.03754,-0.06838 0.03824,-0.102836 7.94e-4,-0.04568 -0.07287,-0.08518 -0.102836,-0.09043 -0.07042,-0.0127 -0.164273,0.03148 -0.244429,0 -0.015,-0.02545 0.02926,-0.03938 0.03824,-0.06408 0.0052,-0.01418 -0.0052,-0.02306 0,-0.03876 0.009,-0.02397 0.04044,-0.03916 0.05168,-0.0646 0.0083,-0.01953 0.0047,-0.05303 0.01292,-0.077 0.0097,-0.027 0.03649,-0.04513 0.03876,-0.06459 0.0029,-0.02545 -0.01862,-0.06052 -0.03876,-0.077 -0.06217,0.0037 -0.105631,0.009 -0.141594,0.02532 -0.0809,0.03671 -0.05994,0.141971 -0.141593,0.167432 -0.0066,0.0019 -0.06456,-0.02018 -0.09198,-0.02739 a 3.7041666,3.7041666 0 0 1 0.225309,-0.703833 c 0.02684,0.0051 0.06424,0.0084 0.08527,0.01034 0.06892,0.0052 0.07174,-0.04704 0.128674,-0.077 0.05843,0.0083 0.08893,-0.006 0.142111,0 0.03597,0.0037 0.08729,0.04892 0.115755,0.05116 0.02397,7.93e-4 0.02918,-0.0291 0.05168,-0.02532 0.02244,0.0037 0.06034,0.05004 0.06408,0.077 0.0037,0.03371 -0.02271,0.06539 -0.01292,0.102836 0.03523,0.03597 0.104321,0.05654 0.154513,0.07751 0.03297,-0.027 0.0052,-0.08973 0,-0.128674 -7.94e-4,-0.01722 0.0019,-0.03594 0,-0.05168 -0.0037,-0.02695 -0.01292,-0.05379 -0.01292,-0.077 0,-0.107095 0.08259,-0.151326 0.154512,-0.19327 0.03069,-0.01799 0.06345,-0.05111 0.09043,-0.06459 0.0382,-0.01876 0.05845,-0.02032 0.08992,-0.03824 0.05693,-0.03222 0.110308,-0.06665 0.154512,-0.103353 0.02021,-0.04867 -0.0019,-0.106585 0,-0.154513 0.02021,-0.01273 0.02996,0.0019 0.05168,0 0.03445,-0.0075 0.0446,-0.05753 0.06408,-0.077 0.01127,-0.01127 0.0511,-0.01468 0.0646,-0.02584 0.03445,-0.027 0.03463,-0.06552 0.0646,-0.07751 0.01053,-0.0037 0.03464,-0.0079 0.05116,-0.0124 0.02252,-0.006 0.05447,-0.02611 0.09043,-0.03876 0.02326,-0.0083 0.08093,-0.0042 0.08992,-0.01292 0.01127,-0.01127 -0.0029,-0.06028 0,-0.07752 0.01797,-0.08463 0.143447,-0.08729 0.219108,-0.115755 0.05244,-0.02024 0.108999,-0.06239 0.167432,-0.05116 -0.01127,0.04042 -0.06142,0.02829 -0.05168,0.077 0.01273,0.06815 0.09178,-0.01613 0.115755,-0.02584 0.04569,-0.0195 0.133335,-0.02944 0.193269,-0.05116 0.05244,-0.01871 0.139352,-0.05562 0.08992,-0.116272 -0.04121,-0.0029 -0.05396,0.03669 -0.08992,0.05168 -0.02474,0.0037 -0.03072,-0.01144 -0.05168,-0.01292 -0.02024,-7.94e-4 -0.03093,0.01665 -0.05116,0.01292 -0.02021,-0.0037 -0.04869,-0.04064 -0.05168,-0.0646 -0.0083,-0.06291 0.06445,-0.08224 0.08992,-0.128675 -0.01723,-0.05692 -0.09365,-0.0034 -0.141593,-0.02584 0.0052,-0.0337 0.0249,-0.07025 0.0646,-0.077 0.03222,-0.0052 0.109198,0.01026 0.128674,0.02584 0.01127,0.0097 -0.0042,0.03543 0.01292,0.05116 0.01953,0.01722 0.05204,0.0037 0.07752,0 0.009,-0.04269 -0.05917,-0.02347 -0.05168,-0.05116 0.05093,-0.03297 0.144012,-0.01759 0.206189,-0.02584 0.03597,-0.0052 0.07062,-0.03446 0.102836,-0.05168 0.02996,-0.01722 0.05845,-0.04142 0.08992,-0.01292 0.009,0.03069 -0.02109,0.04888 -0.03824,0.0646 -0.05768,0.05092 -0.109568,0.108269 -0.154512,0.167432 0.02773,0.027 0.06931,0.0078 0.115755,0.01292 0.01796,0.0019 0.04535,0.01 0.06408,0.01292 0.02246,0.0037 0.04661,-0.0037 0.0646,0 0.03148,0.0075 0.03314,0.05116 0.0646,0.05116 0.05094,0 0.05457,-0.04254 0.02532,-0.077 0.009,-0.03523 0.0257,-0.06571 0.01292,-0.09043 -0.02326,-0.04644 -0.111262,0.0079 -0.115755,-0.05116 -0.0029,-0.03746 0.03821,-0.04905 0.05168,-0.07751 -0.006,-0.07189 0.05865,-0.07643 0.05116,-0.141594 -0.0037,-0.027 -0.03241,-0.02623 -0.05116,-0.05168 -0.0097,-0.01347 -0.01468,-0.04142 -0.02584,-0.05116 -0.03894,-0.03296 -0.11126,-0.02754 -0.115755,-0.09043 -0.0019,-0.03745 0.0052,-0.0624 0,-0.102836 -0.0052,-0.0382 -0.04457,-0.147024 -0.07752,-0.154512 -0.04195,-0.009 -0.06557,0.0667 -0.115755,0.08992 -0.02695,0.01273 -0.07512,0.01821 -0.102836,0.01292 -0.01797,-0.0037 -0.04943,-0.01726 -0.05168,-0.05168 -0.0019,-0.01984 0.0047,-0.02702 0.01292,-0.03876 5.5e-4,-9.5e-4 6.21e-4,-0.0021 5.17e-4,-0.0036 a 3.7041666,3.7041666 0 0 1 1.029944,-0.148815 z m -1.124996,0.175699 c -0.183279,0.07034 -0.346189,0.182121 -0.510047,0.292489 -0.06799,0.04579 -0.134734,0.09266 -0.205155,0.134359 -0.0019,0.01924 -0.0075,0.03531 -0.01447,0.05219 -0.01574,0.0382 -0.06463,0.0676 -0.102837,0.06459 -0.01294,-7.94e-4 -0.02101,-0.01862 -0.03617,-0.02997 -0.150185,0.09895 -0.331226,0.143742 -0.466121,0.264067 0.02095,0.03123 0.04297,0.06938 0,0.08785 -0.0075,0.0037 -0.09778,0.01665 -0.115756,0.01292 -0.0024,-1.71e-4 -0.0042,-0.0024 -0.0057,-0.0047 A 3.7041666,3.7041666 0 0 1 10.68822,12.76767 c -0.0071,0.01763 -0.02325,0.03868 -0.02325,0.05788 0,0.01402 0.02395,0.02168 0.04134,0.03462 0.04952,-0.03264 0.102478,-0.05662 0.153479,-0.08682 0.0033,-0.0328 0.0026,-0.06863 0.02429,-0.0894 0.07045,0.0016 0.13223,-0.01405 0.180867,-0.04496 0.04791,-0.03043 0.08278,-0.07554 0.101286,-0.132808 a 3.7041666,3.7041666 0 0 1 0.408761,-0.159681 z m -0.540019,0.220142 c -0.01238,0.0061 -0.02439,0.01286 -0.03669,0.01912 a 3.7041666,3.7041666 0 0 1 0.03669,-0.01912 z m 3.287138,0.06563 c -0.01379,0.0024 -0.02667,0.0059 -0.03876,0.01292 -0.02847,0.01722 -0.02945,0.04344 -0.05116,0.05168 -0.0307,0.01127 -0.07301,0.01113 -0.07752,0.03876 -0.0037,0.02326 0.02662,0.03018 0.02584,0.05116 -0.01127,0.02773 -0.03278,0.03087 -0.03876,0.0646 0.0382,0.06216 0.133163,7.35e-4 0.180351,-0.01292 0.02096,-0.006 0.04043,0.0032 0.05168,-0.01292 0.01273,-0.02024 0.0034,-0.06145 0.01292,-0.08992 0.0105,-0.03148 0.04201,-0.02398 0.03824,-0.05168 -0.0029,-0.02773 -0.05639,-0.05617 -0.102836,-0.05168 z m -4.220414,0.604098 c -0.008,0.0137 -0.01447,0.02833 -0.02584,0.03979 0.01953,-0.01169 0.06924,-0.01385 0.09974,-0.0124 0.0105,0 0.0092,-0.0045 0.01292,0 -0.0052,0.03968 -0.02045,0.04536 -0.05116,0.06408 -0.05319,0.03222 -0.08613,0.07269 -0.103353,0.141593 -0.0052,0.02021 -0.06445,0.08275 -0.08992,0.07752 -0.04471,-0.0096 -0.03763,-0.0793 -0.0217,-0.119889 a 3.7041666,3.7041666 0 0 1 0.179317,-0.190686 z m 0.230477,0.0015 c 0.0035,-5.41e-4 0.0071,-2.83e-4 0.01085,0 0.01797,7.94e-4 0.0307,0.03676 0.05168,0.03824 0.02022,0.0016 0.0526,-0.01665 0.0646,-0.01292 0.03148,0.0083 0.04292,0.06722 0.01292,0.09043 -0.02474,0.0029 -0.03371,-0.0296 -0.05168,-0.02584 -0.05094,0.009 -0.06463,0.105834 -0.102837,0.102836 -0.03597,-0.0037 -0.06258,-0.07662 -0.02584,-0.102836 7.94e-4,-0.02252 -0.01448,-0.02922 -0.01292,-0.05168 0.0099,-0.01241 0.02857,-0.03445 0.05323,-0.03824 z m 4.917012,0.128674 c 0.05918,-0.0037 0.0893,0.06688 0.116272,0.102836 0.02244,0.02922 0.09196,0.0702 0.128675,0.09043 0.02096,0.01127 0.04085,0.02781 0.06408,0.03824 0.0141,0.0063 0.05431,0.01404 0.07906,0.02429 a 3.7041666,3.7041666 0 0 1 0.08113,0.107487 c -0.01786,-0.0167 -0.03858,-0.03039 -0.05323,-0.05013 0.01513,0.02146 0.03384,0.0439 0.03462,0.05995 7.94e-4,0.02397 -0.0167,0.04211 -0.01292,0.06459 0.02453,0.004 0.03799,-0.01971 0.04961,-0.04702 a 3.7041666,3.7041666 0 0 1 0.321944,0.56224 c -0.02757,-0.03873 -0.0563,-0.07006 -0.0863,-0.0925 -2.33e-4,0.0011 -0.0011,7.67e-4 -0.0016,0.0021 -0.0075,0.04194 0.02411,0.09587 -0.03876,0.103353 -0.03968,0.0052 -0.08691,-0.03973 -0.141593,-0.05168 -0.02244,-0.0052 -0.05954,0.006 -0.07752,0 -0.04121,-0.01418 -0.02887,-0.06571 -0.06408,-0.09043 -0.02021,-0.01423 -0.07114,-0.03453 -0.103353,-0.03824 -0.02024,-0.0019 -0.03018,0.0029 -0.05116,0 -0.02545,-0.0029 -0.06946,-2.02e-4 -0.09043,-0.01292 -0.02021,-0.01273 -0.07176,-0.03445 -0.077,-0.05168 -0.0083,-0.02773 0.06259,-0.0667 0.06408,-0.08992 0.0016,-0.01797 -0.02159,-0.02475 -0.02532,-0.05168 -0.0029,-0.01648 0.0037,-0.04117 0,-0.05168 -0.0052,-0.01953 -0.03388,-0.0375 -0.0646,-0.03824 -0.027,0 -0.05378,0.01292 -0.077,0.01292 -0.03296,7.94e-4 -0.100912,-0.01665 -0.14211,-0.01292 -0.02474,0.0019 -0.04087,0.01144 -0.06408,0.01292 -0.06518,0.0052 -0.103575,-0.0037 -0.154513,0 -0.03672,0.0019 -0.107131,0.0226 -0.141593,0.03824 -0.01722,0.0083 -0.02918,0.02759 -0.05168,0.03876 -0.01042,0.0052 -0.02524,0.007 -0.03876,0.01292 -0.02098,0.0097 -0.05678,0.03357 -0.077,0.03876 -0.02922,0.0075 -0.06256,-0.0019 -0.115755,0 -0.0382,0.0019 -0.102602,-0.006 -0.103353,-0.05168 -7.94e-4,-0.06965 0.127352,-0.03973 0.19327,-0.05168 0.02474,-0.0052 0.03462,-0.03394 0.0646,-0.05116 0.01426,-0.0083 0.02479,-0.01685 0.03824,-0.02584 0.02244,-0.01574 0.06085,-0.04663 0.0646,-0.0646 0.0029,-0.01648 -0.0152,-0.03973 -0.01292,-0.05168 0.0029,-0.01574 0.03144,-0.03092 0.05168,-0.05116 0.03148,-0.03148 0.05096,-0.07021 0.08992,-0.09043 0.02619,-0.01418 0.07844,-0.01736 0.09043,-0.03824 0.0029,-0.02397 -7.94e-4,-0.02996 0,-0.05168 0.01648,-0.015 0.01186,-0.02291 0.02532,-0.02584 0.04046,-0.009 0.08199,0.01519 0.129191,0.01292 0.02022,-7.94e-4 0.04236,0.0015 0.06408,-0.01292 0.01797,-0.01201 0.03372,-0.02982 0.05168,-0.03876 0.01953,-0.0105 0.04008,-0.03675 0.06408,-0.03824 z m 0.0186,0.123507 c -0.0011,9.4e-4 -0.002,0.0037 -0.0057,0.0052 -0.02474,0.0083 -0.03672,0.05734 0,0.06408 0.01722,-0.01045 0.01744,-0.03262 0.01292,-0.06408 -0.0048,-0.0052 -0.0062,-0.0061 -0.0072,-0.0052 z m -4.866887,0.0031 c 0.0064,-6.5e-4 0.0129,-5.32e-4 0.01964,0.0021 -0.03445,0.02921 -0.08166,0.04536 -0.141594,0.06408 -0.02847,0.009 -0.07226,0.01901 -0.07752,-0.0124 -0.006,-0.03894 0.0262,-0.03505 0.05168,-0.03876 0.03296,-0.0037 0.09047,-0.01218 0.128674,-0.01292 0.0064,0 0.01274,-0.0014 0.01912,-0.0021 z m 4.861202,0.103353 c -0.0042,-1.73e-4 -0.0084,3.33e-4 -0.01292,0.0016 -0.01201,0.0037 -0.02611,-7.35e-4 -0.03876,0.01292 7.93e-4,0.04194 0.0083,0.06614 0,0.102836 0.02397,0.04644 0.07844,0.01901 0.09043,-0.0124 0.01245,-0.06815 -0.0092,-0.103688 -0.03876,-0.104903 z m 0.309025,0.207739 c -0.03296,-0.0016 -0.05803,0.01029 -0.07751,0.02584 0.02773,0.04494 0.07993,0.05285 0.14211,0.06408 0.02244,-0.01648 0.01487,-0.06146 0.02532,-0.08992 -0.027,0 -0.04404,0.0016 -0.077,0 z m -6.5505,1.665581 c 0.02597,0.0067 0.08605,0.0017 0.09922,0.0083 0.01876,0.0097 0.04064,0.0078 0.0646,0.01292 0.0195,0.0037 0.03245,0.01991 0.05116,0.02584 0.03972,0.01347 0.09774,0.01164 0.129191,0.02584 0.04794,0.02096 0.07454,0.104706 0.115755,0.128674 0.0019,0.02397 -0.0075,0.0461 0,0.06408 0.01953,0.02619 0.05845,0.03446 0.08992,0.05168 0.0382,0.02095 0.05447,0.07395 0.09043,0.09043 0.01273,0.0052 0.03168,-0.006 0.05116,0 0.04944,0.015 0.06065,0.08973 0.103353,0.077 0.02773,-0.0083 0.03431,-0.05004 0.03876,-0.077 0.01876,-0.02021 0.03485,-0.05168 0.06408,-0.05168 0.04644,-7.93e-4 0.06029,0.05716 0.07752,0.102836 0.0097,0.02545 0.03152,0.05055 0.03824,0.07751 0.01127,0.04643 0.0097,0.17796 0,0.205673 -0.01201,0.03445 -0.06145,0.05298 -0.08992,0.09043 -0.01347,0.01797 -0.02834,0.03921 -0.03876,0.05116 -0.01797,0.02246 -0.03816,0.03149 -0.05168,0.05168 -0.0075,0.01127 -0.0056,0.03595 -0.0124,0.05168 -0.02249,0.04793 -0.05752,0.08392 -0.03876,0.141593 0.0075,0.02326 0.03876,0.0493 0.03876,0.077 0,0.03296 -0.07227,0.04156 -0.07751,0.07751 -0.0037,0.02619 0.03056,0.08056 0.03876,0.115755 0.006,0.02619 0.04835,0.04737 0.06408,0.0646 0.02619,0.02921 0.05353,0.06538 0.07751,0.102837 0.0472,0.07264 0.06931,0.160881 0.115755,0.232027 0.02474,0.03671 0.07395,0.06389 0.09043,0.102836 0.0083,0.0195 -0.0075,0.05903 0,0.077 0.02695,0.06067 0.157914,0.125073 0.218591,0.155029 0.02847,0.01426 0.05129,0.02328 0.07752,0.03824 0.03972,0.02246 0.121369,0.06815 0.141593,0.103352 0.01797,0.03148 0.02978,0.10434 0.03876,0.154513 0.01127,0.06591 -0.0029,0.121604 0,0.192753 0.0019,0.03894 0.0124,0.0644 0.0124,0.103353 0,0.01347 7.94e-4,0.03769 0,0.05116 -7.93e-4,0.04643 0.0037,0.09441 0,0.141593 -0.0019,0.02545 -0.0016,0.05579 0,0.07751 0.0019,0.02326 0.02436,0.03145 0.02584,0.05168 0.0016,0.0217 -0.02812,0.04685 -0.02584,0.06408 0.0052,0.04718 0.0556,0.08523 0.0646,0.128674 0.0075,0.03445 0.01739,0.11332 0.01292,0.154513 -0.0029,0.0217 -0.01,0.05355 -0.01292,0.07751 -2.64e-4,0.005 -1.61e-4,0.0088 0,0.01344 2.65e-4,0.0065 0.01189,0.0057 0.01189,0.0124 0,0.0067 -0.01129,0.0053 -0.01189,0.01188 5.5e-5,0.0041 5.37e-4,0.0087 0,0.01292 a 3.7041666,3.7041666 0 0 1 -0.0036,-0.0026 c -0.0011,-0.0012 -0.0024,-0.0023 -0.0036,-0.0031 -3.9e-5,2.2e-4 -3.78e-4,3.65e-4 -5.16e-4,5.17e-4 A 3.7041666,3.7041666 0 0 1 8.99584,15.875028 3.7041666,3.7041666 0 0 1 9.02064,15.469885 Z" />
</svg>
