<?xml version="1.0" encoding="UTF-8" standalone="no"?>
<!-- Created with Inkscape (http://www.inkscape.org/) -->

<svg
   width="96"
   height="96"
   viewBox="0 0 25.399999 25.400001"
   version="1.1"
   id="svg5"
   inkscape:version="1.1.1 (3bf5ae0d25, 2021-09-20, custom)"
   sodipodi:docname="folder-games.svg"
   xmlns:inkscape="http://www.inkscape.org/namespaces/inkscape"
   xmlns:sodipodi="http://sodipodi.sourceforge.net/DTD/sodipodi-0.dtd"
   xmlns:xlink="http://www.w3.org/1999/xlink"
   xmlns="http://www.w3.org/2000/svg"
   xmlns:svg="http://www.w3.org/2000/svg">
  <sodipodi:namedview
     id="namedview7"
     pagecolor="#ffffff"
     bordercolor="#666666"
     borderopacity="1.0"
     inkscape:pageshadow="2"
     inkscape:pageopacity="0.0"
     inkscape:pagecheckerboard="0"
     inkscape:document-units="px"
     showgrid="false"
     units="px"
     height="96px"
     inkscape:zoom="8.1666667"
     inkscape:cx="67.469387"
     inkscape:cy="48.612245"
     inkscape:window-width="1920"
     inkscape:window-height="1006"
     inkscape:window-x="0"
     inkscape:window-y="0"
     inkscape:window-maximized="1"
     inkscape:current-layer="svg5" />
  <defs
     id="defs2">
    <linearGradient
       inkscape:collect="always"
       id="linearGradient1885">
      <stop
         style="stop-color:#4d4d4d;stop-opacity:1;"
         offset="0"
         id="stop1881" />
      <stop
         style="stop-color:#666666;stop-opacity:1"
         offset="1"
         id="stop1883" />
    </linearGradient>
    <linearGradient
       inkscape:collect="always"
       id="linearGradient1481">
      <stop
         style="stop-color:#5e2750;stop-opacity:1"
         offset="0"
         id="stop1475" />
      <stop
         style="stop-color:#772953;stop-opacity:1"
         offset="0.52207935"
         id="stop1477" />
      <stop
         style="stop-color:#e95420;stop-opacity:1"
         offset="1"
         id="stop1479" />
    </linearGradient>
    <linearGradient
       inkscape:collect="always"
       xlink:href="#linearGradient1481"
       id="linearGradient4654"
       x1="1.2052771"
       y1="5.4093776"
       x2="25.439491"
       y2="5.5562501"
       gradientUnits="userSpaceOnUse" />
    <linearGradient
       inkscape:collect="always"
       xlink:href="#linearGradient1885"
       id="linearGradient1887"
       x1="24.077084"
       y1="23.283333"
       x2="12.700001"
       y2="7.1437502"
       gradientUnits="userSpaceOnUse" />
  </defs>
  <path
     id="rect846-3"
     style="fill:url(#linearGradient4654);stroke-width:0.300092;fill-opacity:1"
     d="m 1.3229165,2.1166673 8.9958335,-7e-7 2.381251,3.1749999 11.377083,7e-7 V 18.785418 H 1.3229165 Z"
     sodipodi:nodetypes="ccccccc" />
  <path
     id="rect956"
     style="opacity:0.2;fill:#f9f9f9;stroke-width:0.458269"
     d="m 10.31875,2.1166666 2.381251,3.1749999 11.377083,7e-7 V 5.5562501 H 12.700001 Z"
     sodipodi:nodetypes="cccccc" />
  <path
     id="rect956-3"
     style="opacity:0.2;stroke-width:0.458269"
     d="M 10.054167,10.054166 12.7,7.1437503 10.31875,10.31875 H 1.3229166 v -0.264584 z"
     sodipodi:nodetypes="cccccc" />
  <path
     id="rect846"
     style="fill:url(#linearGradient1887);fill-opacity:1;stroke-width:0.309472"
     d="M 1.3229166,10.31875 H 10.31875 L 12.700001,7.1437501 H 24.077084 V 23.283333 H 1.3229166 Z"
     sodipodi:nodetypes="ccccccc" />
  <path
     id="rect956-3-6"
     style="opacity:0.2;fill:#f9f9f9;stroke-width:0.458269"
     d="M 10.31875,10.31875 12.700001,7.1437501 10.583333,10.583334 H 1.3229161 V 10.31875 Z"
     sodipodi:nodetypes="cccccc" />
  <path
     id="rect956-3-7"
     style="opacity:0.2;stroke-width:0.458269"
     d="m 24.077084,23.018749 v 0.264584 H 1.3229166 v -0.264584 z"
     sodipodi:nodetypes="ccccc" />
  <path
     d="m 10.054212,12.964584 c -0.8767509,0 -1.5874989,1.066122 -1.5874989,2.38125 v 2.910416 c -0.0031,0.273458 0.14925,0.540642 0.383955,0.680062 0.247322,0.152589 0.579136,0.150891 0.825272,-0.0036 0.0528,-0.03276 0.102191,-0.07087 0.145728,-0.115238 L 10.91204,17.727101 h 0.02584 c 0.04132,0.08718 0.09561,0.167776 0.162264,0.237711 0.201277,0.21784 0.511476,0.326153 0.804602,0.282154 0.302191,-0.04036 0.576932,-0.242982 0.705383,-0.519349 h 0.179834 c 0.128451,0.276367 0.403192,0.478992 0.705383,0.519349 0.293126,0.044 0.603325,-0.06431 0.804602,-0.282154 0.06665,-0.06993 0.120946,-0.150527 0.162263,-0.237711 h 0.02584 l 1.090373,1.090372 c 0.04354,0.04437 0.09293,0.08247 0.145728,0.115239 0.246137,0.154509 0.577951,0.156206 0.825272,0.0036 0.234703,-0.13942 0.387027,-0.406604 0.383955,-0.680062 v -2.910416 c 0,-1.315128 -0.710748,-2.38125 -1.5875,-2.38125 z m 0,0.264583 h 5.291666 c 0.730627,0 1.322917,0.947664 1.322917,2.116667 v 2.910416 c 0.0026,0.206117 -0.128278,0.404829 -0.31781,0.485242 -0.193803,0.08711 -0.437394,0.04156 -0.585494,-0.111105 L 14.597603,17.4625 h -0.310058 -0.01344 v 0.001 c -0.04539,0.231601 -0.224915,0.430304 -0.451135,0.498161 -0.229603,0.07409 -0.496677,0.0087 -0.665076,-0.164331 -0.09083,-0.09065 -0.155027,-0.208885 -0.179834,-0.334862 h -0.556038 c -0.02481,0.125977 -0.089,0.244207 -0.179834,0.334864 -0.168399,0.172998 -0.435474,0.238419 -0.665076,0.164331 -0.22622,-0.06786 -0.405747,-0.26656 -0.451135,-0.498161 v -10e-4 h -0.01344 -0.264583 -0.04548 l -1.1678859,1.167887 c -0.148101,0.152664 -0.391691,0.198212 -0.585494,0.111105 -0.189532,-0.08041 -0.320415,-0.279125 -0.31781,-0.485242 v -2.910416 c 0,-1.169003 0.59229,-2.116667 1.3229159,-2.116667 z m 0,0.529167 v 0.79375 H 9.2604631 v 0.79375 h 0.7937489 v 0.79375 h 0.79375 v -0.79375 h 0.79375 v -0.79375 h -0.79375 v -0.79375 z m 4.894791,0 c -0.219194,0 -0.396875,0.177689 -0.396875,0.396875 0,0.219194 0.177681,0.396875 0.396875,0.396875 0.219194,0 0.396875,-0.177681 0.396875,-0.396875 0,-0.219186 -0.177681,-0.396875 -0.396875,-0.396875 z m -0.79375,0.79375 c -0.219194,0 -0.396875,0.177681 -0.396875,0.396875 0,0.219194 0.177681,0.396875 0.396875,0.396875 0.219194,0 0.396875,-0.177681 0.396875,-0.396875 0,-0.219194 -0.177681,-0.396875 -0.396875,-0.396875 z m 1.5875,0 c -0.219194,0 -0.396875,0.177681 -0.396875,0.396875 0,0.219194 0.177681,0.396875 0.396875,0.396875 0.219194,0 0.396875,-0.177681 0.396875,-0.396875 0,-0.219194 -0.177681,-0.396875 -0.396875,-0.396875 z m -0.79375,0.79375 c -0.219194,0 -0.396875,0.177681 -0.396875,0.396875 0,0.219194 0.177681,0.396875 0.396875,0.396875 0.219194,0 0.396875,-0.177681 0.396875,-0.396875 0,-0.219194 -0.177681,-0.396875 -0.396875,-0.396875 z m -3.175,0.79375 c -0.36531,0 -0.661458,0.296148 -0.661458,0.661458 0,0.36531 0.296148,0.661458 0.661458,0.661458 0.36531,0 0.661459,-0.296148 0.661459,-0.661458 0,-0.36531 -0.296149,-0.661458 -0.661459,-0.661458 z m 1.852083,0 c -0.36531,0 -0.661458,0.296148 -0.661458,0.661458 0,0.36531 0.296148,0.661458 0.661458,0.661458 0.365311,0 0.661459,-0.296148 0.661459,-0.661458 0,-0.36531 -0.296148,-0.661458 -0.661459,-0.661458 z"
     id="path23"
     style="fill:#999999;stroke-width:0.264583;fill-opacity:1" />
</svg>
