<?xml version="1.0" encoding="UTF-8" standalone="no"?>
<svg
   width="128"
   height="128"
   version="1.1"
   id="svg24"
   sodipodi:docname="weather-few-clouds-large.svg"
   inkscape:version="1.1.1 (3bf5ae0d25, 2021-09-20, custom)"
   xmlns:inkscape="http://www.inkscape.org/namespaces/inkscape"
   xmlns:sodipodi="http://sodipodi.sourceforge.net/DTD/sodipodi-0.dtd"
   xmlns:xlink="http://www.w3.org/1999/xlink"
   xmlns="http://www.w3.org/2000/svg"
   xmlns:svg="http://www.w3.org/2000/svg">
  <sodipodi:namedview
     id="namedview26"
     pagecolor="#ffffff"
     bordercolor="#666666"
     borderopacity="1.0"
     inkscape:pageshadow="2"
     inkscape:pageopacity="0.0"
     inkscape:pagecheckerboard="0"
     showgrid="false"
     inkscape:zoom="0.9466146"
     inkscape:cx="219.7304"
     inkscape:cy="-50.707014"
     inkscape:window-width="1920"
     inkscape:window-height="1019"
     inkscape:window-x="0"
     inkscape:window-y="0"
     inkscape:window-maximized="1"
     inkscape:current-layer="svg24" />
  <defs
     id="defs14">
    <linearGradient
       inkscape:collect="always"
       id="linearGradient1120">
      <stop
         style="stop-color:#eff1f1;stop-opacity:1;"
         offset="0"
         id="stop1116" />
      <stop
         style="stop-color:#b0b8b8;stop-opacity:1"
         offset="1"
         id="stop1118" />
    </linearGradient>
    <linearGradient
       id="0">
      <stop
         stop-color="#faffa5"
         id="stop2" />
      <stop
         offset="1"
         stop-color="#edf573"
         id="stop4" />
    </linearGradient>
    <linearGradient
       id="1">
      <stop
         stop-color="#f0ff01"
         id="stop7" />
      <stop
         offset="1"
         stop-color="#ff9701"
         id="stop9" />
    </linearGradient>
    <linearGradient
       xlink:href="#1"
       id="2"
       y1="502.798"
       x2="0"
       y2="582.79797"
       gradientUnits="userSpaceOnUse" />
    <linearGradient
       xlink:href="#0"
       id="3"
       y1="507.798"
       x2="0"
       y2="547.79797"
       gradientUnits="userSpaceOnUse"
       gradientTransform="matrix(0.98823263,0,0,0.98823263,4.8078356,6.1637666)" />
    <linearGradient
       inkscape:collect="always"
       xlink:href="#linearGradient1120"
       id="linearGradient1122"
       x1="-12.149334"
       y1="34.858662"
       x2="-5.2324305"
       y2="106.00008"
       gradientUnits="userSpaceOnUse"
       gradientTransform="matrix(0.92654379,0,0,0.57129357,103.616,53.442806)" />
    <linearGradient
       inkscape:collect="always"
       xlink:href="#linearGradient1120"
       id="linearGradient2706"
       x1="22.000034"
       y1="22.000002"
       x2="22.024817"
       y2="45.774494"
       gradientUnits="userSpaceOnUse" />
  </defs>
  <metadata
     id="metadata16" />
  <g
     transform="matrix(2.5000017,0,0,2.5000017,-957.42919,-1245.4959)"
     id="g22">
    <rect
       width="39.999973"
       height="39.999996"
       x="388.57141"
       y="503.798"
       ry="19.999987"
       fill="url(#2)"
       rx="19.999987"
       id="rect18"
       style="fill:url(#2)" />
    <rect
       width="33.599976"
       height="33.599998"
       x="391.77142"
       y="506.99802"
       fill="url(#3)"
       rx="16.799994"
       id="rect20"
       style="fill:url(#3);stroke-width:0.988233" />
  </g>
  <path
     id="rect854"
     style="opacity:1;fill:url(#linearGradient1122);stroke-width:0.727551"
     d="m 75.999992,77.999962 h 29.999998 c 9.972,0 18,8.028 18,18 0,9.971998 -8.028,17.999998 -18,17.999998 H 75.999992 c -9.972,0 -18,-8.028 -18,-17.999998 0,-9.972 8.028,-18 18,-18 z" />
  <path
     id="rect2219"
     style="opacity:0.2;fill:#000000;stroke-width:1.37473"
     d="M 58.029297 95 C 58.011348 95.330926 58 95.66444 58 96 C 58 105.972 66.028 114 76 114 L 106 114 C 115.972 114 124 105.972 124 96 C 124 95.66444 123.98865 95.330926 123.9707 95 C 123.45525 104.50335 115.63644 112 106 112 L 76 112 C 66.36356 112 58.544747 104.50335 58.029297 95 z " />
  <path
     id="rect2528"
     style="opacity:1;fill:url(#linearGradient2706);stroke-width:1.02252"
     d="m 22,22 h 20 c 6.648,0 12,5.352 12,12 0,6.648 -5.352,12 -12,12 H 22 C 15.352,46 10,40.648 10,34 10,27.352 15.352,22 22,22 Z" />
  <path
     id="rect3173"
     style="opacity:0.2;fill:#000000;fill-opacity:1;stroke-width:0.95951"
     d="M 10.044922 33 C 10.017916 33.329984 10 33.662819 10 34 C 10 40.648 15.352 46 22 46 L 42 46 C 48.648 46 54 40.648 54 34 C 54 33.662819 53.982084 33.329984 53.955078 33 C 53.44962 39.176118 48.310819 44 42 44 L 22 44 C 15.689181 44 10.55038 39.176118 10.044922 33 z " />
</svg>
