<?xml version="1.0" encoding="UTF-8" standalone="no"?>
<svg
   width="22"
   height="22"
   version="1"
   id="svg12"
   sodipodi:docname="system-suspend.svg"
   inkscape:version="1.1 (c4e8f9ed74, 2021-05-24)"
   xmlns:inkscape="http://www.inkscape.org/namespaces/inkscape"
   xmlns:sodipodi="http://sodipodi.sourceforge.net/DTD/sodipodi-0.dtd"
   xmlns:xlink="http://www.w3.org/1999/xlink"
   xmlns="http://www.w3.org/2000/svg"
   xmlns:svg="http://www.w3.org/2000/svg"
   xmlns:rdf="http://www.w3.org/1999/02/22-rdf-syntax-ns#"
   xmlns:cc="http://creativecommons.org/ns#"
   xmlns:dc="http://purl.org/dc/elements/1.1/">
  <metadata
     id="metadata18">
    <rdf:RDF>
      <cc:Work
         rdf:about="">
        <dc:format>image/svg+xml</dc:format>
        <dc:type
           rdf:resource="http://purl.org/dc/dcmitype/StillImage" />
      </cc:Work>
    </rdf:RDF>
  </metadata>
  <defs
     id="defs16">
    <linearGradient
       inkscape:collect="always"
       id="linearGradient921">
      <stop
         style="stop-color:#ffffff;stop-opacity:1;"
         offset="0"
         id="stop917" />
      <stop
         style="stop-color:#ffffff;stop-opacity:0;"
         offset="1"
         id="stop919" />
    </linearGradient>
    <linearGradient
       inkscape:collect="always"
       id="linearGradient881">
      <stop
         style="stop-color:#000000;stop-opacity:1;"
         offset="0"
         id="stop877" />
      <stop
         style="stop-color:#000000;stop-opacity:0;"
         offset="1"
         id="stop879" />
    </linearGradient>
    <linearGradient
       inkscape:collect="always"
       id="linearGradient842">
      <stop
         style="stop-color:#125a72;stop-opacity:1"
         offset="0"
         id="stop838" />
      <stop
         style="stop-color:#53b3d3;stop-opacity:1"
         offset="1"
         id="stop840" />
    </linearGradient>
    <linearGradient
       inkscape:collect="always"
       xlink:href="#linearGradient842"
       id="linearGradient844"
       x1="32.260868"
       y1="40.95652"
       x2="26.282608"
       y2="5.9565215"
       gradientUnits="userSpaceOnUse"
       gradientTransform="matrix(0.55,0,0,0.55,-2.2,-2.2)" />
    <linearGradient
       inkscape:collect="always"
       xlink:href="#linearGradient881"
       id="linearGradient883"
       x1="16.09375"
       y1="10.097656"
       x2="40.438885"
       y2="34.442791"
       gradientUnits="userSpaceOnUse"
       gradientTransform="matrix(0.55,0,0,0.55,-2.2,-2.2)" />
    <linearGradient
       inkscape:collect="always"
       xlink:href="#linearGradient881"
       id="linearGradient885"
       x1="29"
       y1="12"
       x2="43.362061"
       y2="26.362061"
       gradientUnits="userSpaceOnUse"
       gradientTransform="matrix(0.55,0,0,0.55,-2.2,-2.2)" />
    <linearGradient
       inkscape:collect="always"
       xlink:href="#linearGradient881"
       id="linearGradient887"
       x1="19"
       y1="18"
       x2="38.717297"
       y2="37.717297"
       gradientUnits="userSpaceOnUse"
       gradientTransform="matrix(0.55,0,0,0.55,-2.2,-2.2)" />
    <linearGradient
       inkscape:collect="always"
       xlink:href="#linearGradient921"
       id="linearGradient923"
       x1="20.076855"
       y1="3.7787485"
       x2="30.727749"
       y2="43.528427"
       gradientUnits="userSpaceOnUse"
       gradientTransform="matrix(0.55,0,0,0.55,-2.2,-2.2)" />
  </defs>
  <sodipodi:namedview
     pagecolor="#ffffff"
     bordercolor="#666666"
     borderopacity="1"
     objecttolerance="10"
     gridtolerance="10"
     guidetolerance="10"
     inkscape:pageopacity="0"
     inkscape:pageshadow="2"
     inkscape:window-width="1920"
     inkscape:window-height="993"
     id="namedview14"
     showgrid="false"
     inkscape:zoom="3.735"
     inkscape:cx="-57.429719"
     inkscape:cy="45.917001"
     inkscape:window-x="0"
     inkscape:window-y="29"
     inkscape:window-maximized="1"
     inkscape:current-layer="svg12"
     inkscape:pagecheckerboard="0">
    <inkscape:grid
       type="xygrid"
       id="grid846" />
  </sodipodi:namedview>
  <circle
     fill="#41a5c7"
     cx="11"
     cy="11"
     r="11"
     id="circle2"
     style="fill:url(#linearGradient844);fill-opacity:1;stroke-width:0.55" />
  <path
     d="M 21.98845,10.6799 A 11,11 0 0 1 11,21.45 11,11 0 0 1 0.0121,10.7701 11,11 0 0 0 0,11 11,11 0 0 0 11,22 11,11 0 0 0 22,11 11,11 0 0 0 21.98845,10.6799 Z"
     id="path10"
     inkscape:connector-curvature="0"
     style="opacity:0.2;stroke-width:0.55" />
  <path
     style="opacity:0.2;fill:url(#linearGradient885);fill-opacity:1;stroke:none;stroke-width:1.55564;stroke-linecap:round;stroke-linejoin:round;stroke-miterlimit:4;stroke-dasharray:none;stroke-dashoffset:0;stroke-opacity:1;paint-order:normal"
     d="M 18.15,4.4 V 5.1777338 L 17.827734,5.5 l -2.2,2.2 H 18.15 v 1.1 h -4.4 l 7.088769,7.088769 A 11,11 0 0 0 22,11 11,11 0 0 0 21.495117,7.7451173 Z M 13.75,5.5 15.011133,6.7611327 16.272266,5.5 Z"
     id="rect851" />
  <path
     style="opacity:0.2;fill:url(#linearGradient887);fill-opacity:1;stroke:none;stroke-width:1.55564;stroke-linecap:round;stroke-linejoin:round;stroke-miterlimit:4;stroke-dasharray:none;stroke-dashoffset:0;stroke-opacity:1;paint-order:normal"
     d="M 12.65,7.7 V 8.477734 L 12.327734,8.8 l -2.2,2.2 H 12.65 v 1.1 h -4.4 l 8.352051,8.352051 a 11,11 0 0 0 4.236718,-4.563282 z M 8.25,8.8 9.511133,10.061133 10.772266,8.8 Z"
     id="path861" />
  <path
     style="opacity:1;fill:url(#linearGradient923);fill-opacity:1;stroke-width:1.1"
     d="M 6.6515625,3.3537108 A 8.7945,8.8 0 0 0 2.2,11 a 8.7945,8.8 0 0 0 8.793555,8.8 8.7945,8.8 0 0 0 7.63125,-4.447266 8.7945,8.8 0 0 0 0.01182,-0.0064 l -0.813184,-0.81211 a 7.6956,7.7 0 0 1 -0.0043,0.0064 A 7.6956,7.7 0 0 1 14.291406,15.4 7.6956,7.7 0 0 1 6.5978519,7.7 7.6956,7.7 0 0 1 7.4615231,4.1658204 Z M 13.75,4.4 v 1.1 h 2.522266 l -2.2,2.2 L 13.75,8.022266 V 8.8 h 4.4 V 7.7 h -2.522266 l 2.2,-2.2 L 18.15,5.1777338 V 4.4 H 17.372266 Z M 5.8330077,5.3023434 A 8.7945,8.8 0 0 0 5.4978519,7.7 8.7945,8.8 0 0 0 14.291406,16.5 8.7945,8.8 0 0 0 16.697656,16.155176 7.6956,7.7 0 0 1 10.993555,18.7 7.6956,7.7 0 0 1 3.3,11 7.6956,7.7 0 0 1 5.8330077,5.3023434 Z M 8.25,7.7 v 1.1 h 2.522266 l -2.2,2.2 L 8.25,11.322266 V 12.1 h 4.4 V 11 h -2.522266 l 2.2,-2.2 L 12.65,8.477734 V 7.7 h -0.777734 z"
     id="path904" />
  <path
     style="opacity:0.2;fill:url(#linearGradient883);fill-opacity:1;stroke:none;stroke-width:1.55564;stroke-linecap:round;stroke-linejoin:round;stroke-miterlimit:4;stroke-dasharray:none;stroke-dashoffset:0;stroke-opacity:1;paint-order:normal"
     d="M 7.4615231,4.1658204 A 7.6956,7.7 0 0 0 6.5978519,7.7 a 7.6956,7.7 0 0 0 7.6935541,7.7 7.6956,7.7 0 0 0 3.527735,-0.859375 7.6956,7.7 0 0 0 0.0043,-0.0064 l 0.813183,0.81211 a 8.7945,8.8 0 0 1 -0.01182,0.0064 8.7945,8.8 0 0 1 -7.63125,4.447266 8.7945,8.8 0 0 1 -5.9855469,-2.363282 L 9.447753,21.876466 A 11,11 0 0 0 11,22 11,11 0 0 0 20.241504,16.945801 Z M 9.432715,18.537793 a 7.6956,7.7 0 0 0 1.060253,0.1375 z"
     id="rect857" />
</svg>
