<?xml version="1.0" encoding="UTF-8" standalone="no"?>
<svg
   height="16"
   width="16"
   version="1.1"
   id="svg38"
   sodipodi:docname="systemsettings.svg"
   inkscape:version="1.1 (c4e8f9ed74, 2021-05-24)"
   xmlns:inkscape="http://www.inkscape.org/namespaces/inkscape"
   xmlns:sodipodi="http://sodipodi.sourceforge.net/DTD/sodipodi-0.dtd"
   xmlns="http://www.w3.org/2000/svg"
   xmlns:svg="http://www.w3.org/2000/svg">
  <defs
     id="defs42" />
  <sodipodi:namedview
     id="namedview40"
     pagecolor="#ffffff"
     bordercolor="#666666"
     borderopacity="1.0"
     inkscape:pageshadow="2"
     inkscape:pageopacity="0.0"
     inkscape:pagecheckerboard="0"
     showgrid="false"
     inkscape:zoom="7.6124464"
     inkscape:cx="-10.115014"
     inkscape:cy="-10.443423"
     inkscape:window-width="1920"
     inkscape:window-height="1021"
     inkscape:window-x="0"
     inkscape:window-y="29"
     inkscape:window-maximized="1"
     inkscape:current-layer="svg38" />
  <linearGradient
     id="a"
     gradientUnits="userSpaceOnUse"
     x2="17"
     y1="-1"
     y2="18"
     gradientTransform="matrix(0.57142857,0,0,0.57142857,-1.1428571,-1.1428571)">
    <stop
       offset="0"
       stop-color="#fff"
       id="stop2" />
    <stop
       offset="1"
       stop-color="#fff"
       stop-opacity="0"
       id="stop4" />
  </linearGradient>
  <linearGradient
     id="b"
     gradientUnits="userSpaceOnUse"
     x1="9"
     x2="30"
     y1="9"
     y2="30"
     gradientTransform="matrix(0.57142857,0,0,0.57142857,-1.1428571,-1.1428571)">
    <stop
       offset="0"
       id="stop7" />
    <stop
       offset="1"
       stop-opacity="0"
       id="stop9" />
  </linearGradient>
  <path
     d="M 0,1.1428571 V 0.5714286 C 0,0.2548571 0.2548571,0 0.5714286,0 H 15.428571 C 15.745143,0 16,0.2548571 16,0.5714286 V 1.1428571 C 16,0.8262857 15.745143,0.5714286 15.428571,0.5714286 H 0.5714286 C 0.2548571,0.5714286 0,0.8262857 0,1.1428571 Z"
     fill="#ffffff"
     opacity="0.3"
     id="path36"
     style="stroke-width:0.571429" />
  <rect
     fill="#2d3033"
     height="16"
     rx="0"
     width="16"
     x="0"
     y="0"
     id="rect12"
     style="stroke-width:0.571429" />
  <rect
     fill="url(#a)"
     height="16"
     opacity="0.276"
     rx="0"
     width="16"
     x="0"
     y="0"
     id="rect14"
     style="fill:url(#a);stroke-width:0.571429" />
  <path
     d="m 12.236571,4.9062857 -0.808,0.808 H 2.2857143 L 1.8691429,6.1308571 5.1428571,9.402857 v 0.882857 H 2.2857143 L 1.8691429,10.702286 7.1685714,16 H 15.428571 C 15.745143,16 16,15.745143 16,15.428571 V 8.669714 Z"
     fill="url(#b)"
     opacity="0.4"
     id="path16"
     style="fill:url(#b);stroke-width:0.571429" />
  <g
     transform="matrix(0.57142857,0,0,0.57142857,-18.285714,-1.1428571)"
     id="g24">
    <path
       d="m 36,19 c -1.352,-0.02 -1.352,2.02 0,2 h 6 v -2 z"
       fill="#3daee9"
       id="path18" />
    <circle
       cx="42"
       cy="20"
       fill="#fafafa"
       r="2"
       id="circle20" />
    <path
       d="m 42,19 v 2 h 14 c 1.352,0.02 1.352,-2.02 0,-2 z"
       fill="#fcfcfc"
       opacity="0.2"
       id="path22" />
  </g>
  <g
     transform="matrix(0.57142857,0,0,0.57142857,-18.285714,-1.1428571)"
     id="g32">
    <path
       d="m 36,11 c -1.352,-0.02 -1.352,2.02 0,2 h 16 v -2 z"
       fill="#3daee9"
       id="path26" />
    <circle
       cx="52"
       cy="12"
       fill="#fafafa"
       r="2"
       id="circle28" />
    <path
       d="m 52,11 v 2 h 4 c 1.352,0.02 1.352,-2.02 0,-2 z"
       fill="#fcfcfc"
       opacity="0.2"
       id="path30" />
  </g>
  <rect
     style="opacity:0.3;fill:#ffffff;fill-opacity:1;stroke-width:0.132288"
     id="rect980"
     width="16"
     height="0.5"
     x="0"
     y="0" />
  <rect
     style="opacity:0.3;fill:#505050;fill-opacity:1;stroke-width:0.187083"
     id="rect980-3"
     width="16"
     height="1"
     x="0"
     y="15" />
</svg>
