<?xml version="1.0" encoding="UTF-8" standalone="no"?>
<!-- Created with Inkscape (http://www.inkscape.org/) -->

<svg
   width="22"
   height="22"
   viewBox="0 0 5.8208331 5.8208336"
   version="1.1"
   id="svg3856"
   inkscape:version="1.1.1 (3bf5ae0d25, 2021-09-20, custom)"
   sodipodi:docname="folder-videos.svg"
   xmlns:inkscape="http://www.inkscape.org/namespaces/inkscape"
   xmlns:sodipodi="http://sodipodi.sourceforge.net/DTD/sodipodi-0.dtd"
   xmlns:xlink="http://www.w3.org/1999/xlink"
   xmlns="http://www.w3.org/2000/svg"
   xmlns:svg="http://www.w3.org/2000/svg">
  <sodipodi:namedview
     id="namedview3858"
     pagecolor="#ffffff"
     bordercolor="#666666"
     borderopacity="1.0"
     inkscape:pageshadow="2"
     inkscape:pageopacity="0.0"
     inkscape:pagecheckerboard="0"
     inkscape:document-units="px"
     showgrid="false"
     units="px"
     inkscape:zoom="12.234375"
     inkscape:cx="9.6040869"
     inkscape:cy="15.489144"
     inkscape:window-width="1920"
     inkscape:window-height="999"
     inkscape:window-x="0"
     inkscape:window-y="0"
     inkscape:window-maximized="1"
     inkscape:current-layer="svg3856" />
  <defs
     id="defs3853">
    <linearGradient
       inkscape:collect="always"
       id="linearGradient1796">
      <stop
         style="stop-color:#3daee9;stop-opacity:1;"
         offset="0"
         id="stop1792" />
      <stop
         style="stop-color:#73cbf6;stop-opacity:1"
         offset="1"
         id="stop1794" />
    </linearGradient>
    <linearGradient
       inkscape:collect="always"
       id="linearGradient1243">
      <stop
         style="stop-color:#000000;stop-opacity:1;"
         offset="0"
         id="stop1239" />
      <stop
         style="stop-color:#000000;stop-opacity:0;"
         offset="1"
         id="stop1241" />
    </linearGradient>
    <linearGradient
       inkscape:collect="always"
       xlink:href="#linearGradient1243"
       id="linearGradient1245"
       x1="23.455778"
       y1="23.42688"
       x2="-2.0000002"
       y2="-2.0000002"
       gradientUnits="userSpaceOnUse" />
    <linearGradient
       inkscape:collect="always"
       xlink:href="#linearGradient1796"
       id="linearGradient1798"
       x1="5.829113"
       y1="5.8515873"
       x2="0.037845723"
       y2="-0.0081099188"
       gradientUnits="userSpaceOnUse" />
  </defs>
  <path
     id="rect1085"
     style="fill:url(#linearGradient1798);fill-opacity:1;stroke-width:0.132292;stroke-linejoin:round"
     d="M 0.26458335,3.8349913e-8 H 5.5562498 C 5.7028289,3.8349913e-8 5.8208331,0.11800421 5.8208331,0.26458339 V 5.5562498 c 0,0.1465792 -0.1180042,0.2645833 -0.2645833,0.2645833 H 0.26458335 C 0.11800417,5.8208331 0,5.702829 0,5.5562498 V 0.26458339 C 0,0.11800421 0.11800417,3.8349913e-8 0.26458335,3.8349913e-8 Z"
     sodipodi:nodetypes="sssssssss" />
  <path
     id="rect844"
     style="opacity:1;fill:url(#linearGradient1245);fill-opacity:1;stroke-width:0.500001;stroke-linejoin:round"
     d="M 1,0 C 0.44599998,0 0,0.44599998 0,1 v 20 c 0,0.554 0.44599998,1 1,1 h 20 c 0.554,0 1,-0.446 1,-1 V 1 C 22,0.44599998 21.554,0 21,0 Z M 1,2 H 2 V 3 H 1 Z m 2,0 h 16 v 8 H 3 Z m 17,0 h 1 V 3 H 20 Z M 1,5 H 2 V 6 H 1 Z m 19,0 h 1 V 6 H 20 Z M 1,8 H 2 V 9 H 1 Z m 19,0 h 1 V 9 H 20 Z M 1,11 h 1 v 1 H 1 Z m 19,0 h 1 v 1 H 20 Z M 3,12 h 16 v 8 H 3 Z m -2,2 h 1 v 1 H 1 Z m 19,0 h 1 v 1 H 20 Z M 1,17 h 1 v 1 H 1 Z m 19,0 h 1 v 1 H 20 Z M 1,20 h 1 v 1 H 1 Z m 19,0 h 1 v 1 h -1 z"
     transform="scale(0.26458333)" />
</svg>
