<?xml version="1.0" encoding="UTF-8" standalone="no"?>
<svg
   viewBox="0 0 48 48"
   version="1.1"
   id="svg27"
   sodipodi:docname="folder-comic.svg"
   inkscape:version="1.1.1 (3bf5ae0d25, 2021-09-20, custom)"
   xmlns:inkscape="http://www.inkscape.org/namespaces/inkscape"
   xmlns:sodipodi="http://sodipodi.sourceforge.net/DTD/sodipodi-0.dtd"
   xmlns="http://www.w3.org/2000/svg"
   xmlns:svg="http://www.w3.org/2000/svg">
  <defs
     id="defs31" />
  <sodipodi:namedview
     id="namedview29"
     pagecolor="#ffffff"
     bordercolor="#666666"
     borderopacity="1.0"
     inkscape:pageshadow="2"
     inkscape:pageopacity="0.0"
     inkscape:pagecheckerboard="0"
     showgrid="false"
     inkscape:zoom="13.125"
     inkscape:cx="24.038095"
     inkscape:cy="24.038095"
     inkscape:window-width="1920"
     inkscape:window-height="999"
     inkscape:window-x="0"
     inkscape:window-y="0"
     inkscape:window-maximized="1"
     inkscape:current-layer="g25" />
  <linearGradient
     id="a"
     x2="0"
     y1="541.79797"
     y2="499.78421"
     gradientTransform="matrix(.69229859 0 0 .69207328 120.25629 150.83367)"
     gradientUnits="userSpaceOnUse">
    <stop
       stop-color="#3daee9"
       offset="0"
       id="stop2" />
    <stop
       stop-color="#6cc1ef"
       offset="1"
       id="stop4" />
  </linearGradient>
  <g
     transform="translate(-384.57144,-483.798)"
     id="g25">
    <g
       stroke-width="0.692299"
       id="g17">
      <path
         d="M 389.57144,489.79806 V 500.798 h 38 l -10e-6,-8 h -19 l -3,-3 -15.99999,-1.8e-4 z"
         fill="#147eb8"
         id="path7" />
      <path
         d="m 404.57143,496.798 -3,3 h -13 l 10e-6,26.00047 39.99999,-4.7e-4 v -29 z"
         fill="url(#a)"
         id="path9" />
      <g
         fill-opacity="0.235294"
         fill-rule="evenodd"
         id="g15">
        <path
           d="m 388.57143,499.798 v 1 h 14 l 2,-4 -3,3 z"
           fill="#ffffff"
           id="path11" />
        <path
           d="m 389.56364,498.79794 0.0156,1.00006 h 11.99217 l 3,-3 -4,2 z"
           id="path13" />
      </g>
    </g>
    <path
       d="m 388.57144,524.79776 v 0.9998 c -10e-6,4.5e-4 39.99999,0 39.99999,0 v -0.9998 z"
       fill-opacity="0.235294"
       stroke-width="0.830373"
       id="path19" />
    <path
       d="m 405.57143,489.798 2,4 h 20 v -1 h -19 z"
       fill="#ffffff"
       fill-opacity="0.235294"
       fill-rule="evenodd"
       stroke-width="0.692299"
       id="path21" />
    <path
       id="rect855"
       style="fill:#1272a5;opacity:1;stroke-width:0.999999"
       d="m 405.57144,505.798 v 3 h -3 v 6 l 3,3 v -3 h 5 v -3 h 1 v 3 l 3,-3 v -6 z m 1,1 h 7 v 4 h -7 z m -3,3 h 2 v 2 h 4 v 2 h -6 z" />
  </g>
</svg>
