<?xml version="1.0" encoding="UTF-8" standalone="no"?>
<svg
   version="1.1"
   viewBox="0 0 48 48"
   id="svg71"
   sodipodi:docname="user-trash.svg"
   inkscape:version="1.1.1 (3bf5ae0d25, 2021-09-20)"
   width="48"
   height="48"
   xmlns:inkscape="http://www.inkscape.org/namespaces/inkscape"
   xmlns:sodipodi="http://sodipodi.sourceforge.net/DTD/sodipodi-0.dtd"
   xmlns:xlink="http://www.w3.org/1999/xlink"
   xmlns="http://www.w3.org/2000/svg"
   xmlns:svg="http://www.w3.org/2000/svg"
   xmlns:rdf="http://www.w3.org/1999/02/22-rdf-syntax-ns#"
   xmlns:cc="http://creativecommons.org/ns#"
   xmlns:dc="http://purl.org/dc/elements/1.1/">
  <metadata
     id="metadata75">
    <rdf:RDF>
      <cc:Work
         rdf:about="">
        <dc:format>image/svg+xml</dc:format>
        <dc:type
           rdf:resource="http://purl.org/dc/dcmitype/StillImage" />
      </cc:Work>
    </rdf:RDF>
  </metadata>
  <sodipodi:namedview
     pagecolor="#ffffff"
     bordercolor="#666666"
     borderopacity="1"
     objecttolerance="10"
     gridtolerance="10"
     guidetolerance="10"
     inkscape:pageopacity="0"
     inkscape:pageshadow="2"
     inkscape:window-width="1920"
     inkscape:window-height="1011"
     id="namedview73"
     showgrid="true"
     inkscape:zoom="10.429825"
     inkscape:cx="41.179981"
     inkscape:cy="28.571907"
     inkscape:window-x="0"
     inkscape:window-y="0"
     inkscape:window-maximized="1"
     inkscape:current-layer="svg71"
     inkscape:pagecheckerboard="0">
    <inkscape:grid
       type="xygrid"
       id="grid882" />
  </sodipodi:namedview>
  <defs
     id="defs12">
    <radialGradient
       id="l"
       cx="19.76264"
       cy="8.5"
       r="4"
       gradientTransform="matrix(1.2995062,7.3698655,-1.4772116,0.26047232,24.546293,-120.0462)"
       gradientUnits="userSpaceOnUse"
       fx="19.76264"
       fy="8.5">
      <stop
         stop-color="#4f575f"
         stop-opacity=".25098041"
         offset="0"
         id="stop2" />
      <stop
         stop-color="#8a939a"
         offset="1"
         id="stop4" />
    </radialGradient>
    <linearGradient
       id="k"
       x1="390.57101"
       x2="404.57101"
       y1="521.79797"
       y2="539.25256"
       gradientTransform="matrix(2,0,0,1.71875,-771.142,-882.84032)"
       gradientUnits="userSpaceOnUse">
      <stop
         offset="0"
         id="stop7"
         style="stop-color:#cbd0d0;stop-opacity:1" />
      <stop
         offset="1"
         id="stop9"
         style="stop-color:#e5e7e7;stop-opacity:1" />
    </linearGradient>
    <radialGradient
       inkscape:collect="always"
       xlink:href="#b"
       id="radialGradient913"
       gradientUnits="userSpaceOnUse"
       gradientTransform="matrix(0.60776862,3.4468271,-2.9544233,0.52094454,56.82555,-33.440849)"
       cx="16"
       cy="8.5"
       r="4" />
    <linearGradient
       inkscape:collect="always"
       xlink:href="#e"
       id="linearGradient916"
       gradientUnits="userSpaceOnUse"
       gradientTransform="matrix(0.34729636,1.9696155,-1.9696155,0.34729636,928.2659,-942.72088)"
       x1="395.57101"
       y1="520.79797"
       x2="395.57101"
       y2="516.79797" />
    <linearGradient
       inkscape:collect="always"
       xlink:href="#linearGradient7369"
       id="linearGradient7371"
       x1="17"
       y1="9"
       x2="25"
       y2="17"
       gradientUnits="userSpaceOnUse"
       gradientTransform="translate(1)" />
    <linearGradient
       inkscape:collect="always"
       id="linearGradient7369">
      <stop
         style="stop-color:#d4ba94;stop-opacity:1;"
         offset="0"
         id="stop7365" />
      <stop
         style="stop-color:#bb9d71;stop-opacity:1"
         offset="1"
         id="stop7367" />
    </linearGradient>
    <linearGradient
       inkscape:collect="always"
       xlink:href="#linearGradient5340"
       id="linearGradient6071"
       x1="17"
       y1="14"
       x2="19"
       y2="16"
       gradientUnits="userSpaceOnUse" />
    <linearGradient
       inkscape:collect="always"
       id="linearGradient5340">
      <stop
         style="stop-color:#000000;stop-opacity:1;"
         offset="0"
         id="stop5336" />
      <stop
         style="stop-color:#000000;stop-opacity:0;"
         offset="1"
         id="stop5338" />
    </linearGradient>
    <linearGradient
       inkscape:collect="always"
       xlink:href="#linearGradient4318"
       id="linearGradient4678"
       x1="14"
       y1="14"
       x2="19"
       y2="16"
       gradientUnits="userSpaceOnUse" />
    <linearGradient
       inkscape:collect="always"
       id="linearGradient4318">
      <stop
         style="stop-color:#fcfcfc;stop-opacity:1;"
         offset="0"
         id="stop4314" />
      <stop
         style="stop-color:#eff0f1;stop-opacity:1"
         offset="1"
         id="stop4316" />
    </linearGradient>
    <linearGradient
       inkscape:collect="always"
       xlink:href="#linearGradient4318"
       id="linearGradient4320"
       x1="21"
       y1="14"
       x2="27"
       y2="20"
       gradientUnits="userSpaceOnUse" />
    <linearGradient
       inkscape:collect="always"
       xlink:href="#linearGradient5340"
       id="linearGradient5342"
       x1="33"
       y1="14"
       x2="34.5"
       y2="16"
       gradientUnits="userSpaceOnUse" />
  </defs>
  <linearGradient
     id="a">
    <stop
       stop-color="#4f575f"
       stop-opacity=".4"
       offset="0"
       id="stop14" />
    <stop
       stop-color="#4f575f"
       stop-opacity=".6"
       offset=".5"
       id="stop16" />
    <stop
       stop-color="#4f575f"
       stop-opacity=".4"
       offset="1"
       id="stop18" />
  </linearGradient>
  <radialGradient
     id="b"
     cx="16"
     cy="8.5"
     r="4"
     gradientTransform="matrix(3.5,0,0,3,-24,-13.5)"
     gradientUnits="userSpaceOnUse">
    <stop
       stop-color="#4f575f"
       stop-opacity=".25"
       offset="0"
       id="stop21" />
    <stop
       stop-color="#9da5ab"
       offset="1"
       id="stop23" />
  </radialGradient>
  <linearGradient
     id="c"
     x1="412.57101"
     x2="412.57101"
     y1="522.79797"
     y2="520.79797"
     gradientTransform="matrix(0.34729636,1.9696155,-1.9696155,0.34729636,929.30775,-936.81204)"
     gradientUnits="userSpaceOnUse">
    <stop
       offset="0"
       id="stop26"
       style="stop-color:#e3e5e7;stop-opacity:1" />
    <stop
       offset="1"
       id="stop28"
       style="stop-color:#c3c5cc;stop-opacity:1" />
  </linearGradient>
  <linearGradient
     id="e"
     x1="395.57101"
     x2="395.57101"
     y1="520.79797"
     y2="516.79797"
     gradientTransform="matrix(2,0,0,2,-769.142,-1029.596)"
     gradientUnits="userSpaceOnUse">
    <stop
       offset="0"
       id="stop31"
       style="stop-color:#f3f7f9;stop-opacity:1" />
    <stop
       offset="1"
       id="stop33"
       style="stop-color:#dbdde0;stop-opacity:1" />
  </linearGradient>
  <linearGradient
     id="f"
     x1="390.57101"
     x2="406.57101"
     y1="521.79797"
     y2="537.79797"
     gradientTransform="matrix(2,0,0,1.9090909,-785.142,-973.1598)"
     gradientUnits="userSpaceOnUse">
    <stop
       stop-color="#292c2f"
       offset="0"
       id="stop36" />
    <stop
       stop-opacity="0"
       offset="1"
       id="stop38" />
  </linearGradient>
  <linearGradient
     id="g"
     x1="391.57101"
     x2="394.57101"
     y1="534.79797"
     y2="534.79797"
     gradientTransform="matrix(1.000005,0,0,1.2,-372.57051,-613.75756)"
     gradientUnits="userSpaceOnUse"
     xlink:href="#a" />
  <linearGradient
     id="h"
     x1="391.57101"
     x2="394.57101"
     y1="534.79797"
     y2="534.79797"
     gradientTransform="matrix(1.000005,0,0,1.1999999,-379.572,-613.7575)"
     gradientUnits="userSpaceOnUse"
     xlink:href="#a" />
  <linearGradient
     id="i"
     x1="391.57101"
     x2="394.57101"
     y1="534.79797"
     y2="534.79797"
     gradientTransform="matrix(1.000005,0,0,1.2,-365.57202,-613.75756)"
     gradientUnits="userSpaceOnUse"
     xlink:href="#a" />
  <linearGradient
     id="j"
     x1="391.57101"
     x2="394.57101"
     y1="534.79797"
     y2="534.79797"
     gradientTransform="matrix(1.000005,0,0,1.2,-358.57051,-613.75756)"
     gradientUnits="userSpaceOnUse"
     xlink:href="#a" />
  <path
     id="rect1200"
     d="m 12,14 4,-4 4,4 11,-4 4,4 -17,8 -6,-7 z"
     sodipodi:nodetypes="cccccccc"
     style="fill:url(#linearGradient7371);fill-opacity:1;stroke-width:0.5" />
  <path
     d="M 10,14 V 42.281251 C 10,43.233436 10.892,44 12,44 h 24 c 1.108,0 1.932811,-0.76865 2,-1.718749 V 14 Z"
     fill="url(#k)"
     stroke-width="1.85405"
     id="path45"
     style="fill:url(#k)"
     sodipodi:nodetypes="csssscc" />
  <path
     d="m 10,41.166016 v 1 C 10,43.18168 10.892,44 12,44 h 24 c 1.108,0 2,-0.81832 2,-1.833984 v -1 C 38,42.18168 37.108,43 36,43 H 12 c -1.108,0 -2,-0.81832 -2,-1.833984 z"
     opacity="0.2"
     stroke-width="1.91485"
     id="path69"
     sodipodi:nodetypes="csssscssc" />
  <path
     id="rect1062"
     style="fill:#006ed1;fill-opacity:1;fill-rule:evenodd;stroke-width:0.443175"
     d="m 16.8766,35.923691 c 0.548921,0.736622 1.153975,0.9401 2.07263,0.940631 l 2.293004,9.62e-4 1.9e-5,-4.145519 -6.215363,1.57e-4 z"
     sodipodi:nodetypes="cccccc" />
  <path
     id="rect1062-3"
     style="fill:#00a8ff;fill-opacity:1;fill-rule:evenodd;stroke-width:0.430861"
     d="m 16.099315,34.577395 3.138412,-5.435978 1.396907,0.806245 -1.62938,-4.664169 -4.753563,0.978624 1.396032,0.806752 -1.113814,1.930925 c -0.446117,0.773729 -0.727637,1.397746 -0.374264,2.217995 z" />
  <path
     id="rect1062-5"
     style="fill:#006ed1;fill-opacity:1;fill-rule:evenodd;stroke-width:0.443175"
     d="m 21.393013,19 c -0.912395,0.10707 -1.391139,0.529321 -1.850927,1.324634 l -1.147309,1.985333 3.590114,2.072777 3.107545,-5.382741 z"
     sodipodi:nodetypes="cccccc" />
  <path
     id="rect1062-3-6"
     style="fill:#00a8ff;fill-opacity:1;fill-rule:evenodd;stroke-width:0.430861"
     d="m 22.947582,19 3.138488,5.435931 -1.396683,0.806635 4.85398,0.921003 1.529267,-4.606019 -1.396683,0.805623 -1.115323,-1.930054 C 28.113618,19.659906 27.713963,19.104094 26.82692,19 Z" />
  <path
     id="rect1062-7"
     style="fill:#006ed1;fill-opacity:1;fill-rule:evenodd;stroke-width:0.443175"
     d="m 33.788847,31.373394 c 0.363474,-0.843691 0.237164,-1.469423 -0.221704,-2.265266 l -1.145694,-1.986266 -3.590135,2.072742 3.107819,5.382584 z"
     sodipodi:nodetypes="cccccc" />
  <path
     id="rect1062-3-5"
     style="fill:#00a8ff;fill-opacity:1;fill-rule:evenodd;stroke-width:0.430861"
     d="m 33.011563,32.71969 -6.276899,4.5e-5 -2.26e-4,-1.61288 -3.2246,3.743169 3.224294,3.627393 6.53e-4,-1.612374 2.229137,-8.93e-4 c 0.893127,-5.16e-4 1.574303,-0.06873 2.107972,-0.784876 z" />
  <path
     id="rect5010"
     style="opacity:0.2;fill:url(#linearGradient5342);fill-opacity:1"
     d="m 27,20 6,-6 h 5 v 18 z"
     sodipodi:nodetypes="ccccc" />
  <path
     id="rect5830"
     style="opacity:0.2;fill:url(#linearGradient6071);fill-opacity:1"
     d="m 14,14 h 7 l 6,6 -9,2 z"
     sodipodi:nodetypes="ccccc" />
  <path
     id="rect3722-6"
     style="fill:url(#linearGradient4678);fill-opacity:1;stroke-width:1.49999"
     d="m 14,14 h 12 v 3 l -9,3 z"
     sodipodi:nodetypes="ccccc" />
  <path
     id="rect3722"
     style="fill:url(#linearGradient4320);fill-opacity:1;stroke-width:1.49999"
     d="m 21,14 h 12 l -6,6 z"
     sodipodi:nodetypes="cccc" />
  <path
     inkscape:connector-curvature="0"
     style="fill:url(#c);stroke-width:2"
     id="path51"
     d="M 38.832528,11.364299 C 38.640125,10.273132 37.606782,9.5495767 36.515616,9.7419786 L 34.546,10.089276 l 5.904038,33.483463 1.969616,-0.347297 c 1.091167,-0.192403 1.814721,-1.225744 1.622319,-2.316912 z"
     sodipodi:nodetypes="ssccsss" />
  <path
     sodipodi:nodetypes="ssccccccccsss"
     style="fill:url(#linearGradient916);stroke-width:2"
     inkscape:connector-curvature="0"
     id="path47"
     d="M 45.145752,18.37452 C 44.953348,17.283353 43.920007,16.559798 42.82884,16.752201 l -2.954423,0.520944 0.520944,2.954423 1.477212,-0.260472 c 0.259285,-0.04633 0.510054,0.116415 0.573324,0.372096 l 1.922285,10.901822 c 0.02688,0.261296 -0.15303,0.498833 -0.411831,0.543774 l -1.477212,0.260473 0.520945,2.954423 2.954423,-0.520944 c 1.091167,-0.192404 1.814722,-1.225745 1.622319,-2.316912 z" />
  <path
     sodipodi:nodetypes="ssccccccccsss"
     style="fill:url(#radialGradient913);stroke-width:2"
     inkscape:connector-curvature="0"
     id="path49"
     d="m 43.349784,19.706624 c -0.0962,-0.545584 -0.612872,-0.907362 -1.158455,-0.81116 l -1.969616,0.347296 0.173652,0.984808 1.477212,-0.260473 c 0.259285,-0.04633 0.510054,0.116416 0.573324,0.372097 l 1.922281,10.901822 c 0.02688,0.261296 -0.15303,0.498833 -0.411831,0.543774 l -1.477212,0.260473 0.173653,0.984808 1.969615,-0.347297 c 0.545584,-0.0962 0.90736,-0.612872 0.811159,-1.158456 z" />
  <path
     d="m 34.546,10.089276 5.904038,33.483463 0.984808,-0.173652 -5.885764,-33.379826 z"
     id="path67"
     style="fill:url(#l);stroke-width:1.41266"
     inkscape:connector-curvature="0"
     sodipodi:nodetypes="ccccc" />
</svg>
