<?xml version="1.0" encoding="UTF-8" standalone="no"?>
<!-- Created with Inkscape (http://www.inkscape.org/) -->

<svg
   width="48"
   height="48"
   viewBox="0 0 12.7 12.7"
   version="1.1"
   id="svg5"
   inkscape:version="1.1.1 (3bf5ae0d25, 2021-09-20)"
   sodipodi:docname="user-desktop.svg"
   xmlns:inkscape="http://www.inkscape.org/namespaces/inkscape"
   xmlns:sodipodi="http://sodipodi.sourceforge.net/DTD/sodipodi-0.dtd"
   xmlns:xlink="http://www.w3.org/1999/xlink"
   xmlns="http://www.w3.org/2000/svg"
   xmlns:svg="http://www.w3.org/2000/svg">
  <sodipodi:namedview
     id="namedview7"
     pagecolor="#ffffff"
     bordercolor="#666666"
     borderopacity="1.0"
     inkscape:pageshadow="2"
     inkscape:pageopacity="0.0"
     inkscape:pagecheckerboard="false"
     inkscape:document-units="px"
     showgrid="false"
     units="px"
     height="48px"
     borderlayer="false"
     inkscape:zoom="5.929385"
     inkscape:cx="29.935651"
     inkscape:cy="46.885132"
     inkscape:window-width="1920"
     inkscape:window-height="1011"
     inkscape:window-x="0"
     inkscape:window-y="0"
     inkscape:window-maximized="1"
     inkscape:current-layer="svg5" />
  <defs
     id="defs2">
    <linearGradient
       inkscape:collect="always"
       id="linearGradient6505">
      <stop
         style="stop-color:#0172cd;stop-opacity:1"
         offset="0"
         id="stop6501" />
      <stop
         style="stop-color:#056abe;stop-opacity:0.99912935"
         offset="1"
         id="stop6503" />
    </linearGradient>
    <linearGradient
       inkscape:collect="always"
       id="linearGradient6033">
      <stop
         style="stop-color:#37d4e1;stop-opacity:1"
         offset="0"
         id="stop6029" />
      <stop
         style="stop-color:#086ebd;stop-opacity:1"
         offset="1"
         id="stop6031" />
    </linearGradient>
    <linearGradient
       inkscape:collect="always"
       xlink:href="#linearGradient6033"
       id="linearGradient6035"
       x1="3.9035656"
       y1="4.7808013"
       x2="11.609396"
       y2="9.5842333"
       gradientUnits="userSpaceOnUse" />
    <linearGradient
       inkscape:collect="always"
       xlink:href="#linearGradient6505"
       id="linearGradient6507"
       x1="3.2957382"
       y1="5.5614467"
       x2="3.2804484"
       y2="1.5721661"
       gradientUnits="userSpaceOnUse" />
  </defs>
  <path
     id="rect846-3"
     style="fill:url(#linearGradient6507);fill-opacity:1;stroke-width:0.295665"
     d="M 1.0583333,1.5875 H 5.2916666 L 6.35,2.9104166 l 5.291666,10e-8 V 5.5562499 H 1.0583333 Z"
     sodipodi:nodetypes="ccccccc" />
  <path
     id="rect846"
     style="fill:url(#linearGradient6035);fill-opacity:1;stroke-width:0.480068"
     d="M 1.0583338,4.4979162 H 5.2916669 L 6.3500004,3.175 h 5.2916656 v 7.9375 H 1.0583333 Z"
     sodipodi:nodetypes="ccccccc" />
  <path
     id="rect870"
     style="fill:#ffffff;fill-opacity:0.235294;stroke-width:0.118237"
     d="M 5.2916666,1.5875 6.35,2.9104166 l 5.291666,10e-8 V 3.175 H 6.3500002 Z"
     sodipodi:nodetypes="cccccc" />
  <path
     id="rect2728"
     style="fill:#ffffff;fill-opacity:0.235294;stroke-width:0.264583"
     d="m 1.0583333,4.4979167 4.2333336,-5e-7 L 6.3500004,3.175 5.5562502,4.7624995 1.0583333,4.7625 Z"
     sodipodi:nodetypes="cccccc" />
  <path
     id="rect3586"
     style="fill:#000000;fill-opacity:0.235294;stroke-width:0.264583"
     d="m 1.0583333,4.2333335 3.9687505,-4e-7 L 6.3500004,3.175 5.2916669,4.4979162 l -4.2333336,5e-7 z"
     sodipodi:nodetypes="cccccc" />
  <rect
     style="fill:#ffffff;stroke-width:0.248028;fill-opacity:0.78431374"
     id="rect856"
     width="10.583333"
     height="1.0583333"
     x="1.0583329"
     y="10.054167" />
  <path
     id="rect1050"
     style="fill:#4d4d4d;fill-opacity:1;stroke-width:1.0186"
     d="M 6 39 L 6 40 L 7 40 L 7 39 L 6 39 z M 7 40 L 7 41 L 8 41 L 8 40 L 7 40 z M 41 39 A 1.0000001 1.000001 0 0 0 40 40 A 1.0000001 1.000001 0 0 0 41 41 A 1.0000001 1.000001 0 0 0 42 40 A 1.0000001 1.000001 0 0 0 41 39 z "
     transform="scale(0.26458333)" />
  <rect
     style="fill:#000000;fill-opacity:0.235294;stroke-width:0.147561"
     id="rect5839"
     width="10.583333"
     height="0.26458332"
     x="1.0583329"
     y="10.847917" />
  <rect
     style="fill:#eff0f1;fill-opacity:1;stroke-width:0.257467"
     id="rect1412"
     width="1.0583333"
     height="1.0583333"
     x="1.8520833"
     y="5.2916665" />
  <rect
     style="fill:#eff0f1;fill-opacity:1;stroke-width:0.257467"
     id="rect1412-6"
     width="1.0583333"
     height="1.0583333"
     x="1.8520833"
     y="7.1437502" />
</svg>
