<?xml version="1.0" encoding="UTF-8" standalone="no"?>
<svg
   version="1.1"
   viewBox="0 0 24 24"
   id="svg5"
   sodipodi:docname="user-trash-full.svg"
   inkscape:version="1.1.1 (3bf5ae0d25, 2021-09-20, custom)"
   width="24"
   height="24"
   xmlns:inkscape="http://www.inkscape.org/namespaces/inkscape"
   xmlns:sodipodi="http://sodipodi.sourceforge.net/DTD/sodipodi-0.dtd"
   xmlns:xlink="http://www.w3.org/1999/xlink"
   xmlns="http://www.w3.org/2000/svg"
   xmlns:svg="http://www.w3.org/2000/svg">
  <defs
     id="defs9">
    <linearGradient
       inkscape:collect="always"
       id="linearGradient6624">
      <stop
         style="stop-color:#a7afb4;stop-opacity:1;"
         offset="0"
         id="stop6620" />
      <stop
         style="stop-color:#c2ced4;stop-opacity:1"
         offset="1"
         id="stop6622" />
    </linearGradient>
    <linearGradient
       inkscape:collect="always"
       id="linearGradient3699">
      <stop
         style="stop-color:#ffffff;stop-opacity:1;"
         offset="0"
         id="stop3695" />
      <stop
         style="stop-color:#ffffff;stop-opacity:0;"
         offset="1"
         id="stop3697" />
    </linearGradient>
    <linearGradient
       inkscape:collect="always"
       xlink:href="#linearGradient3699"
       id="linearGradient3701"
       x1="8"
       y1="17"
       x2="5"
       y2="11"
       gradientUnits="userSpaceOnUse"
       gradientTransform="translate(-1)" />
    <linearGradient
       inkscape:collect="always"
       xlink:href="#linearGradient3699"
       id="linearGradient4203"
       x1="11"
       y1="17"
       x2="8"
       y2="11"
       gradientUnits="userSpaceOnUse"
       gradientTransform="translate(-1)" />
    <linearGradient
       inkscape:collect="always"
       xlink:href="#linearGradient3699"
       id="linearGradient4339"
       x1="14"
       y1="17"
       x2="11"
       y2="11"
       gradientUnits="userSpaceOnUse"
       gradientTransform="translate(-1)" />
    <linearGradient
       inkscape:collect="always"
       xlink:href="#linearGradient3699"
       id="linearGradient4603"
       x1="17"
       y1="15"
       x2="14"
       y2="11"
       gradientUnits="userSpaceOnUse"
       gradientTransform="translate(-1)" />
    <linearGradient
       inkscape:collect="always"
       xlink:href="#linearGradient6624"
       id="linearGradient6626"
       x1="16"
       y1="23"
       x2="6"
       y2="-1"
       gradientUnits="userSpaceOnUse"
       gradientTransform="translate(-1)" />
  </defs>
  <sodipodi:namedview
     id="namedview7"
     pagecolor="#ffffff"
     bordercolor="#666666"
     borderopacity="1.0"
     inkscape:pageshadow="2"
     inkscape:pageopacity="0.0"
     inkscape:pagecheckerboard="0"
     showgrid="false"
     inkscape:zoom="16"
     inkscape:cx="3.125"
     inkscape:cy="19.3125"
     inkscape:window-width="1920"
     inkscape:window-height="1007"
     inkscape:window-x="0"
     inkscape:window-y="0"
     inkscape:window-maximized="1"
     inkscape:current-layer="svg5" />
  <style
     type="text/css"
     id="current-color-scheme">
        .ColorScheme-Text {
            color:#232629;
        }
    </style>
  <path
     id="rect954"
     style="opacity:1;fill:url(#linearGradient6626);fill-opacity:1;stroke-width:1.00885"
     d="m 3,5 v 16 c 0,0.552285 0.4477153,1 1,1 h 12 c 0.552285,0 1,-0.447715 1,-1 V 5 Z"
     sodipodi:nodetypes="csssscc" />
  <rect
     style="opacity:1;fill:#3daee9;fill-opacity:1;stroke-width:0.552702"
     id="rect1810"
     width="1"
     height="12"
     x="5"
     y="7" />
  <rect
     style="opacity:1;fill:#3daee9;fill-opacity:1"
     id="rect1936"
     width="1"
     height="12"
     x="8"
     y="7" />
  <rect
     style="opacity:1;fill:#3daee9;fill-opacity:1"
     id="rect2040"
     width="1"
     height="12"
     x="11"
     y="7" />
  <rect
     style="opacity:1;fill:#3daee9;fill-opacity:1"
     id="rect2044"
     width="1"
     height="12"
     x="14"
     y="7" />
  <rect
     style="opacity:0.5;fill:url(#linearGradient3701);fill-opacity:1"
     id="rect3643"
     width="1"
     height="12"
     x="5"
     y="7" />
  <rect
     style="opacity:0.5;fill:url(#linearGradient4203);fill-opacity:1"
     id="rect3689"
     width="1"
     height="12"
     x="8"
     y="7" />
  <rect
     style="opacity:0.5;fill:url(#linearGradient4339);fill-opacity:1"
     id="rect3691"
     width="1"
     height="12"
     x="11"
     y="7" />
  <rect
     style="opacity:0.5;fill:url(#linearGradient4603);fill-opacity:1"
     id="rect3693"
     width="1"
     height="12"
     x="14"
     y="7" />
  <path
     id="rect6279"
     style="opacity:0.2;fill:#000000;fill-opacity:1;stroke-width:1.73205"
     d="m 3,20 v 1 c 0,0.554 0.446,1 1,1 h 12 c 0.554,0 1,-0.446 1,-1 v -1 c 0,0.554 -0.446,1 -1,1 H 4 C 3.446,21 3,20.554 3,20 Z" />
  <g
     id="g7880"
     transform="rotate(85,9.6048083,12.084955)">
    <path
       d="M 8,0 C 7.4477153,0 7.0000003,0.4477153 7.0000003,1 v 2 h -4 c -0.552285,0 -1,0.4477153 -1,1 V 5 H 20 V 3.9648438 C 19.98184,3.4396811 19.560319,3.0181598 19.035156,3 H 15 V 1 C 15,0.4477153 14.552285,0 14,0 Z m 1,2 h 4 V 3 H 9 Z"
       style="opacity:1;fill:#c2ced4;fill-opacity:1;stroke-width:1.00885"
       id="path7556" />
    <rect
       style="opacity:0.2;fill:#000000;fill-opacity:1"
       id="rect3297"
       width="18"
       height="1"
       x="2"
       y="4" />
    <path
       id="rect5186"
       style="opacity:0.2;stroke-width:0.887914"
       d="m 8,1 h 6 V 3 H 13 V 2 H 9 V 3 H 8 Z"
       sodipodi:nodetypes="ccccccccc" />
  </g>
  <path
     id="rect8041"
     style="opacity:0.9;fill:#ffffff;stroke-width:0.964004"
     d="M 5,5 H 15 L 12,7 11,6 7,8 Z"
     sodipodi:nodetypes="cccccc" />
  <path
     id="rect8618"
     style="opacity:1;fill:#8b6039;fill-opacity:1;stroke-width:3.11905"
     d="m 6,3 2,2 6,-3 2,3 H 4 Z"
     sodipodi:nodetypes="cccccc" />
</svg>
