<?xml version="1.0" encoding="UTF-8" standalone="no"?>
<svg
   version="1.1"
   viewBox="0 0 24 24"
   id="svg5"
   sodipodi:docname="user-trash.svg"
   inkscape:version="1.1.1 (3bf5ae0d25, 2021-09-20, custom)"
   width="24"
   height="24"
   xmlns:inkscape="http://www.inkscape.org/namespaces/inkscape"
   xmlns:sodipodi="http://sodipodi.sourceforge.net/DTD/sodipodi-0.dtd"
   xmlns:xlink="http://www.w3.org/1999/xlink"
   xmlns="http://www.w3.org/2000/svg"
   xmlns:svg="http://www.w3.org/2000/svg">
  <defs
     id="defs9">
    <linearGradient
       inkscape:collect="always"
       id="linearGradient6624">
      <stop
         style="stop-color:#a7afb4;stop-opacity:1;"
         offset="0"
         id="stop6620" />
      <stop
         style="stop-color:#c2ced4;stop-opacity:1"
         offset="1"
         id="stop6622" />
    </linearGradient>
    <linearGradient
       inkscape:collect="always"
       id="linearGradient3699">
      <stop
         style="stop-color:#ffffff;stop-opacity:1;"
         offset="0"
         id="stop3695" />
      <stop
         style="stop-color:#ffffff;stop-opacity:0;"
         offset="1"
         id="stop3697" />
    </linearGradient>
    <linearGradient
       inkscape:collect="always"
       xlink:href="#linearGradient3699"
       id="linearGradient3701"
       x1="8"
       y1="17"
       x2="5"
       y2="11"
       gradientUnits="userSpaceOnUse"
       gradientTransform="translate(1,1)" />
    <linearGradient
       inkscape:collect="always"
       xlink:href="#linearGradient3699"
       id="linearGradient4203"
       x1="11"
       y1="17"
       x2="8"
       y2="11"
       gradientUnits="userSpaceOnUse"
       gradientTransform="translate(1,1)" />
    <linearGradient
       inkscape:collect="always"
       xlink:href="#linearGradient3699"
       id="linearGradient4339"
       x1="14"
       y1="17"
       x2="11"
       y2="11"
       gradientUnits="userSpaceOnUse"
       gradientTransform="translate(1,1)" />
    <linearGradient
       inkscape:collect="always"
       xlink:href="#linearGradient3699"
       id="linearGradient4603"
       x1="17"
       y1="15"
       x2="14"
       y2="11"
       gradientUnits="userSpaceOnUse"
       gradientTransform="translate(1,1)" />
    <linearGradient
       inkscape:collect="always"
       xlink:href="#linearGradient6624"
       id="linearGradient6626"
       x1="16"
       y1="23"
       x2="6"
       y2="-1"
       gradientUnits="userSpaceOnUse"
       gradientTransform="translate(1,1)" />
  </defs>
  <sodipodi:namedview
     id="namedview7"
     pagecolor="#ffffff"
     bordercolor="#666666"
     borderopacity="1.0"
     inkscape:pageshadow="2"
     inkscape:pageopacity="0.0"
     inkscape:pagecheckerboard="0"
     showgrid="false"
     inkscape:zoom="25.777256"
     inkscape:cx="5.2759689"
     inkscape:cy="10.668319"
     inkscape:window-width="1920"
     inkscape:window-height="1007"
     inkscape:window-x="0"
     inkscape:window-y="0"
     inkscape:window-maximized="1"
     inkscape:current-layer="svg5" />
  <style
     type="text/css"
     id="current-color-scheme">
        .ColorScheme-Text {
            color:#232629;
        }
    </style>
  <path
     id="rect954"
     style="opacity:1;fill:url(#linearGradient6626);fill-opacity:1;stroke-width:1.00885"
     d="M 9,1 A 1,1 0 0 0 8,2 V 4 H 4 A 1,1 0 0 0 3,5 v 1 h 2 v 16 a 1,1 0 0 0 1,1 h 12 a 1,1 0 0 0 1,-1 V 6 h 2 V 4.9648438 A 1,1 0 0 0 20.035156,4 H 16 V 2 A 1,1 0 0 0 15,1 Z m 1,2 h 4 v 1 h -4 z" />
  <rect
     style="opacity:1;fill:#3daee9;fill-opacity:1;stroke-width:0.552702"
     id="rect1810"
     width="1"
     height="12"
     x="7"
     y="8" />
  <rect
     style="opacity:1;fill:#3daee9;fill-opacity:1"
     id="rect1936"
     width="1"
     height="12"
     x="10"
     y="8" />
  <rect
     style="opacity:1;fill:#3daee9;fill-opacity:1"
     id="rect2040"
     width="1"
     height="12"
     x="13"
     y="8" />
  <rect
     style="opacity:1;fill:#3daee9;fill-opacity:1"
     id="rect2044"
     width="1"
     height="12"
     x="16"
     y="8" />
  <rect
     style="opacity:0.2;fill:#000000;fill-opacity:1"
     id="rect3297"
     width="18"
     height="1"
     x="3"
     y="5" />
  <rect
     style="opacity:0.5;fill:url(#linearGradient3701);fill-opacity:1"
     id="rect3643"
     width="1"
     height="12"
     x="7"
     y="8" />
  <rect
     style="opacity:0.5;fill:url(#linearGradient4203);fill-opacity:1"
     id="rect3689"
     width="1"
     height="12"
     x="10"
     y="8" />
  <rect
     style="opacity:0.5;fill:url(#linearGradient4339);fill-opacity:1"
     id="rect3691"
     width="1"
     height="12"
     x="13"
     y="8" />
  <rect
     style="opacity:0.5;fill:url(#linearGradient4603);fill-opacity:1"
     id="rect3693"
     width="1"
     height="12"
     x="16"
     y="8" />
  <path
     id="rect5186"
     style="opacity:0.2;stroke-width:0.887914"
     d="m 9,2 h 6 V 4 H 14 V 3 H 10 V 4 H 9 Z"
     sodipodi:nodetypes="ccccccccc" />
  <path
     id="rect6279"
     style="opacity:0.2;fill:#000000;fill-opacity:1;stroke-width:1.73205"
     d="m 5,21 v 1 c 0,0.554 0.446,1 1,1 h 12 c 0.554,0 1,-0.446 1,-1 v -1 c 0,0.554 -0.446,1 -1,1 H 6 C 5.446,22 5,21.554 5,21 Z" />
</svg>
