<svg xmlns="http://www.w3.org/2000/svg" id="svg2" width="22" height="22" version="1.1" xml:space="preserve">
 <defs id="defs12">
  <style id="current-color-scheme" type="text/css">
   .ColorScheme-Text { color:#cecfce; } .ColorScheme-Highlight { color:#3daee9; }
  </style>
 </defs>
 <g id="g4" transform="matrix(1.2838 0 0 -1.2418 -.29823 21.928)">
  <g id="g6">
   <path id="path8" style="color:#cecfce;fill:currentColor;stroke-width:1.26262534" transform="matrix(0.77893753,0,0,-0.80528265,0.23230254,17.658238)" d="M 9.8867188 3.0019531 C 9.3431898 2.9912426 8.8742381 3.0389299 8.6835938 3.0898438 C 8.3780492 3.1718025 8.0364297 3.3366974 7.8515625 3.59375 C 7.7257501 3.7688438 7.640625 3.986425 7.640625 4.296875 C 7.640625 4.4719688 7.6465306 4.8841995 7.6503906 5.2480469 C 7.6555306 5.6118943 7.6601562 5.7421875 7.6601562 5.7421875 C 7.6601474 6.0662973 7.3831757 6 7.0429688 6 L 5.4746094 6 C 3.9812932 6 3.9730552 7.6616648 4.0742188 8.765625 C 4.1294218 9.1779026 4.6001126 12.078018 5.046875 12.960938 C 5.2227556 13.299948 5.3394805 13.447398 5.6796875 13.597656 C 6.4371295 13.908106 8.1730134 14.251688 8.984375 14.353516 C 9.7918852 14.450376 10.303106 14.658733 10.603516 14.052734 C 10.603516 14.052734 10.663316 13.903211 10.748047 13.679688 C 11.009942 12.918464 11.044922 12.244417 11.044922 11.753906 C 11.044922 11.700506 11.125 11.700506 11.125 11.753906 C 11.125 12.099127 11.055449 13.320072 12.023438 13.650391 C 12.404726 13.78078 13.197625 13.892482 14 13.984375 C 14.726631 14.062605 15.251953 14.339292 15.251953 16.125 C 15.251953 17.211575 15.016716 17.355469 13.767578 17.355469 C 12.759795 17.355469 12.375 17.379469 12.375 16.613281 C 12.375 15.992381 13.015897 16.060547 13.492188 16.060547 C 13.702731 16.060547 13.546875 15.91106 13.546875 15.527344 C 13.546875 15.144869 13.79743 14.926842 13.5625 14.921875 C 11.917952 14.878415 10.951172 14.915275 10.951172 16.884766 C 10.951162 18.670474 11.667335 19 14 19 C 15.829415 19 16.476209 18.94138 17.228516 16.701172 C 17.380004 16.259091 17.740123 14.905668 17.960938 12.640625 C 18.100872 11.205104 17.830913 6.8784707 17.615234 5.7832031 L 17.615234 5.78125 C 17.494557 5.1454484 17.093894 4.8317417 16.738281 4.7050781 C 15.237134 4.1039848 13.93528 4.0465799 12.289062 4 C 12.218454 3.5541938 11.891998 3.4098546 11.53125 3.2695312 C 11.047257 3.0826405 10.430248 3.0126636 9.8867188 3.0019531 z M 9.8671875 3.984375 C 10.335976 3.993615 10.867159 4.071956 11.15625 4.1835938 C 11.270754 4.2284847 11.284473 4.239321 11.306641 4.25 C 11.421506 4.6714339 11.809389 4.9694999 12.259766 4.9824219 C 13.897363 5.0287569 15.017316 5.080583 16.347656 5.6132812 C 16.360576 5.6180912 16.373609 5.6226511 16.386719 5.6269531 C 16.461019 5.6534201 16.555923 5.6465291 16.615234 5.9589844 C 16.615874 5.9615944 16.616487 5.9641969 16.617188 5.9667969 C 16.770032 6.7429728 17.057762 11.415328 16.947266 12.548828 C 16.732614 14.750654 16.371819 16.076972 16.263672 16.392578 C 16.263015 16.394578 16.262419 16.396438 16.261719 16.398438 C 16.251719 16.428017 16.248041 16.411023 16.238281 16.439453 C 16.243281 16.335506 16.267578 16.234276 16.267578 16.125 C 16.267578 15.138674 16.156331 14.42712 15.726562 13.84375 C 15.296795 13.26038 14.578319 13.058091 14.111328 13.007812 C 13.329806 12.917873 12.496969 12.770994 12.361328 12.724609 C 12.255463 12.688489 12.251254 12.671348 12.195312 12.460938 C 12.139372 12.250524 12.140625 11.990197 12.140625 11.753906 C 12.140625 11.50421 12.016927 11.193544 11.802734 11.001953 C 11.588542 10.810362 11.330947 10.730469 11.085938 10.730469 C 10.840927 10.730469 10.583333 10.810359 10.369141 11.001953 C 10.154948 11.193544 10.029297 11.50421 10.029297 11.753906 C 10.029297 12.198289 9.995084 12.744743 9.7832031 13.363281 C 9.7619411 13.419081 9.7626698 13.418228 9.7460938 13.460938 C 9.6219481 13.444852 9.4671461 13.42182 9.109375 13.378906 C 8.4065236 13.290185 6.6013853 12.89984 6.0957031 12.697266 C 5.9348236 12.631604 6.0829891 12.776077 5.9570312 12.525391 C 5.8641813 12.339722 5.5871196 11.358012 5.4121094 10.498047 C 5.2396253 9.6504932 5.1106595 8.8349012 5.0878906 8.6699219 C 5.0422568 8.1648148 5.0504538 7.5642629 5.1484375 7.2558594 C 5.1976815 7.1008703 5.2509474 7.0404377 5.2714844 7.0234375 C 5.2920214 7.0064495 5.2962074 6.9824219 5.4746094 6.9824219 L 7.0429688 6.9824219 C 7.1439575 6.9824219 7.2956289 7.038606 7.6972656 6.953125 C 7.898084 6.9103852 8.2098643 6.7816401 8.4179688 6.5195312 C 8.6260777 6.2574184 8.6757812 5.9601964 8.6757812 5.7441406 C 8.6760486 5.7311216 8.6760486 5.7180981 8.6757812 5.7050781 C 8.6757812 5.7050781 8.6710356 5.5920067 8.6660156 5.2382812 L 8.6660156 5.2363281 C 8.6621556 4.8718002 8.6582031 4.4529655 8.6582031 4.296875 C 8.6582031 4.1595555 8.6626529 4.1881146 8.6855469 4.15625 C 8.6517999 4.203178 8.8004971 4.080526 8.9550781 4.0390625 C 8.8927781 4.0557025 9.3983993 3.975185 9.8671875 3.984375 z M 14.5 8 A 1.5 1.5 0 0 0 13 9.5 A 1.5 1.5 0 0 0 14.5 11 A 1.5 1.5 0 0 0 16 9.5 A 1.5 1.5 0 0 0 14.5 8 z"/>
  </g>
 </g>
</svg>
