<svg xmlns="http://www.w3.org/2000/svg" id="svg2" width="22" height="22" version="1.1">
 <defs id="defs4">
  <style id="current-color-scheme" type="text/css">
   .ColorScheme-Text { color:#cecfce; } .ColorScheme-Highlight { color:#3daee9; }
  </style>
 </defs>
 <path id="path4487" style="fill:#cecfce;fill-opacity:1" d="M 11 3 C 6.5679998 3 3 6.568 3 11 C 3 15.432 6.5679998 19 11 19 C 15.432 19 19 15.432 19 11 C 19 6.568 15.432 3 11 3 z M 11 4 C 14.878 4 18 7.122 18 11 C 18 14.878 14.878 18 11 18 C 7.1219998 18 4 14.878 4 11 C 4 7.122 7.1219998 4 11 4 z M 13.210938 6 C 13.010376 6 12.778224 6.1320887 12.683594 6.2988281 C 12.642124 6.3719281 12.444594 7.1676294 12.246094 8.0683594 C 11.875004 9.7521489 11.823728 9.9463962 11.736328 10.003906 C 11.708328 10.022336 11.217361 10.038707 10.644531 10.039062 C 9.7805911 10.039623 9.5995981 10.029222 9.5800781 9.9765625 C 9.5671281 9.9416525 9.5858769 9.7573263 9.6230469 9.5664062 C 9.7428269 8.9512063 9.8726581 8.0329719 9.8925781 7.5449219 C 9.9148081 7.0004119 9.9475344 6.7496209 9.2714844 6.7636719 C 8.9441044 6.7841819 8.5463756 6.9193786 8.4472656 7.0429688 C 8.4154456 7.0826486 8.4215638 7.1698469 8.4648438 7.3417969 C 8.6389938 8.0335969 8.2270256 10.414112 7.5722656 12.507812 C 7.1852756 13.745274 7.0304662 14.309183 7.0039062 14.570312 C 6.9748062 14.861313 7.1149656 15.035141 7.5097656 14.994141 C 7.8342856 14.963501 8.348925 14.812487 8.453125 14.716797 C 8.498985 14.674677 8.5290056 14.556653 8.5410156 14.376953 C 8.5511156 14.225673 8.6511887 13.762696 8.7617188 13.347656 C 8.8722488 12.932656 9.0367863 12.256393 9.1289062 11.845703 C 9.2210373 11.435013 9.3101719 11.084919 9.3261719 11.068359 C 9.3421819 11.051799 9.7221817 11.036303 10.169922 11.033203 C 10.617622 11.030103 11.11759 11.012784 11.28125 10.996094 C 11.558345 10.967834 11.578125 10.973527 11.578125 11.054688 C 11.578125 11.102627 11.483548 11.536934 11.367188 12.021484 C 11.102883 13.122024 11.064247 13.346435 11.064453 13.765625 C 11.064743 14.388635 11.275434 14.542175 11.964844 14.421875 C 12.168684 14.386305 12.427786 14.315502 12.541016 14.263672 C 12.769616 14.159032 12.775316 14.121314 12.634766 13.746094 C 12.545944 13.508974 12.549637 13.313771 12.648438 12.800781 C 12.694007 12.564111 12.783003 12.041502 12.845703 11.638672 C 13.082963 10.114472 13.686397 7.2303844 13.904297 6.5839844 L 14 6.3007812 L 13.900391 6.2167969 C 13.776711 6.1131569 13.415757 6 13.210938 6 z"/>
</svg>
