<?xml version="1.0" encoding="UTF-8" standalone="no"?>
<svg
   viewBox="0 0 16 16"
   version="1.1"
   id="svg6"
   sodipodi:docname="drive-multidisk.svg"
   inkscape:version="1.1.1 (3bf5ae0d25, 2021-09-20, custom)"
   xmlns:inkscape="http://www.inkscape.org/namespaces/inkscape"
   xmlns:sodipodi="http://sodipodi.sourceforge.net/DTD/sodipodi-0.dtd"
   xmlns:xlink="http://www.w3.org/1999/xlink"
   xmlns="http://www.w3.org/2000/svg"
   xmlns:svg="http://www.w3.org/2000/svg">
  <sodipodi:namedview
     id="namedview8"
     pagecolor="#ffffff"
     bordercolor="#666666"
     borderopacity="1.0"
     inkscape:pageshadow="2"
     inkscape:pageopacity="0.0"
     inkscape:pagecheckerboard="0"
     showgrid="false"
     inkscape:zoom="22.627417"
     inkscape:cx="5.8778251"
     inkscape:cy="7.5572037"
     inkscape:window-width="1920"
     inkscape:window-height="1019"
     inkscape:window-x="0"
     inkscape:window-y="0"
     inkscape:window-maximized="1"
     inkscape:current-layer="svg6"
     showguides="false" />
  <defs
     id="defs1">
    <linearGradient
       inkscape:collect="always"
       id="linearGradient4161">
      <stop
         style="stop-color:#000000;stop-opacity:1;"
         offset="0"
         id="stop4157" />
      <stop
         style="stop-color:#000000;stop-opacity:0;"
         offset="1"
         id="stop4159" />
    </linearGradient>
    <linearGradient
       inkscape:collect="always"
       id="linearGradient2778">
      <stop
         style="stop-color:#eef1f2;stop-opacity:1;"
         offset="0"
         id="stop2774" />
      <stop
         style="stop-color:#f9fafb;stop-opacity:1"
         offset="1"
         id="stop2776" />
    </linearGradient>
    <linearGradient
       inkscape:collect="always"
       id="linearGradient1166">
      <stop
         style="stop-color:#7f8c8d;stop-opacity:1;"
         offset="0"
         id="stop1162" />
      <stop
         style="stop-color:#afb0b3;stop-opacity:1"
         offset="1"
         id="stop1164" />
    </linearGradient>
    <style
       type="text/css"
       id="current-color-scheme">
            .ColorScheme-Text {
                color:#232629;
            }
        </style>
    <linearGradient
       inkscape:collect="always"
       xlink:href="#linearGradient1166"
       id="linearGradient1168"
       x1="11.32978"
       y1="13.962088"
       x2="11.32978"
       y2="1.9620924"
       gradientUnits="userSpaceOnUse"
       gradientTransform="matrix(1.2,0,0,1.3333333,-1.6,-2.6666667)" />
    <linearGradient
       inkscape:collect="always"
       xlink:href="#linearGradient2778"
       id="linearGradient1515"
       x1="9"
       y1="13"
       x2="9"
       y2="1"
       gradientUnits="userSpaceOnUse" />
    <linearGradient
       inkscape:collect="always"
       xlink:href="#linearGradient4161"
       id="linearGradient1643"
       x1="3"
       y1="1.5"
       x2="12"
       y2="11.5"
       gradientUnits="userSpaceOnUse" />
  </defs>
  <rect
     style="fill:url(#linearGradient1168);fill-opacity:1;stroke-width:1.26492"
     id="rect1006"
     width="12"
     height="16"
     x="2"
     y="0" />
  <path
     id="rect1272"
     style="fill:#292c2e;stroke-width:0.942809"
     d="m 3,10 h 10 v 6 H 3 Z"
     sodipodi:nodetypes="ccccc" />
  <path
     id="rect847"
     style="fill:#f6b44d;fill-opacity:1"
     d="M 4 10 L 4 11 L 8 11 L 8 10 L 4 10 z M 10 10 L 10 11 L 12 11 L 12 10 L 10 10 z M 4 12 L 4 13 L 8 13 L 8 12 L 4 12 z M 10 12 L 10 13 L 12 13 L 12 12 L 10 12 z M 4 14 L 4 15 L 8 15 L 8 14 L 4 14 z M 10 14 L 10 15 L 12 15 L 12 14 L 10 14 z " />
  <path
     id="rect5314"
     style="opacity:0.2;fill:#292c2f;fill-opacity:1;stroke-width:1.73205"
     d="m 2,10 v 6 h 1 v -6 z m 11,0 v 6 h 1 v -6 z"
     sodipodi:nodetypes="cccccccccc" />
  <path
     id="path967"
     style="color:#232629;opacity:0.2;fill:url(#linearGradient1643);fill-opacity:1;stroke:none;stroke-width:1.26491"
     d="m 3,7 3,3 h 8 V 3.171875 L 12.414062,1.5859375 C 12.052164,1.2240075 11.5523,1 11,1 Z"
     sodipodi:nodetypes="ccccccc" />
  <path
     id="rect864"
     class="ColorScheme-Text"
     style="color:#232629;fill:url(#linearGradient1515);fill-opacity:1;stroke:none;stroke-width:1.26491"
     d="m 5,1 h 6 c 1.104569,0 2,0.8954305 2,2 V 3.5975155 C 12.404766,3.80794 12.005003,4.368546 12,4.9998593 c 0.005,0.6313133 0.404766,1.1919193 1,1.4023438 V 7 L 11,9 H 5 L 3,7 V 6.4022031 C 3.5952336,6.1917786 3.9949971,5.6311726 4,4.9998593 3.999936,4.3642403 3.5992674,3.7976698 3,3.5857968 V 3 C 3,1.8954305 3.8954305,1 5,1 Z"
     sodipodi:nodetypes="sssccccccccccss" />
</svg>
