<?xml version="1.0" encoding="UTF-8" standalone="no"?>
<!-- Created with Inkscape (http://www.inkscape.org/) -->

<svg
   xmlns:dc="http://purl.org/dc/elements/1.1/"
   xmlns:cc="http://creativecommons.org/ns#"
   xmlns:rdf="http://www.w3.org/1999/02/22-rdf-syntax-ns#"
   xmlns:svg="http://www.w3.org/2000/svg"
   xmlns="http://www.w3.org/2000/svg"
   xmlns:sodipodi="http://sodipodi.sourceforge.net/DTD/sodipodi-0.dtd"
   xmlns:inkscape="http://www.inkscape.org/namespaces/inkscape"
   id="svg7384"
   height="16"
   width="16"
   version="1.1"
   sodipodi:docname="user-invisible-symbolic.svg"
   inkscape:version="0.92.1 r15371">
  <defs
     id="defs9" />
  <sodipodi:namedview
     pagecolor="#ffffff"
     bordercolor="#666666"
     borderopacity="1"
     objecttolerance="10"
     gridtolerance="10"
     guidetolerance="10"
     inkscape:pageopacity="0"
     inkscape:pageshadow="2"
     inkscape:window-width="1600"
     inkscape:window-height="808"
     id="namedview7"
     showgrid="false"
     inkscape:zoom="14.75"
     inkscape:cx="-5.8644068"
     inkscape:cy="8"
     inkscape:window-x="0"
     inkscape:window-y="0"
     inkscape:window-maximized="1"
     inkscape:current-layer="svg7384" />
  <metadata
     id="metadata90">
    <rdf:RDF>
      <cc:Work
         rdf:about="">
        <dc:format>image/svg+xml</dc:format>
        <dc:type
           rdf:resource="http://purl.org/dc/dcmitype/StillImage" />
        <dc:title>Gnome Symbolic Icon Theme</dc:title>
      </cc:Work>
    </rdf:RDF>
  </metadata>
  <title
     id="title9167">Gnome Symbolic Icon Theme</title>
  <path
     inkscape:connector-curvature="0"
     style="color:#31363b;opacity:1;fill:#232627;fill-opacity:1;stroke:none"
     d="m 7.9638669,-1.4999388e-7 a 3.9999902,4.0000296 0 0 0 -4,4.00000004999388 3.9999902,4.0000296 0 0 0 4,4.0000003 A 3.9999902,4.0000296 0 0 0 11.963867,3.9999999 3.9999902,4.0000296 0 0 0 7.9638669,-1.4999388e-7 Z m 0,0.99999999999388 a 3,3.0000296 0 0 1 3.0000001,3.00000005 3,3.0000296 0 0 1 -3.0000001,3 3,3.0000296 0 0 1 -3,-3 3,3.0000296 0 0 1 3,-3.00000005 z m 0,8.00000035 A 7.9999504,8.0000296 0 0 0 0.0361329,16 h 1.007812 a 6.9999604,7.0000296 0 0 1 6.919922,-6 6.9999604,7.0000296 0 0 1 1,0.08008 V 9.0703122 a 7.9999504,8.0000296 0 0 0 -1,-0.07031 z m 4.5000001,0 A 3.5,3.5 0 0 0 8.9638669,12.5 3.5,3.5 0 0 0 12.463867,16 a 3.5,3.5 0 0 0 3.5,-3.5 3.5,3.5 0 0 0 -3.5,-3.4999998 z M 13.756836,10.5 14.463867,11.207031 11.170898,14.5 10.463867,13.792969 Z"
     id="path4149-7" />
</svg>
