<?xml version="1.0" encoding="UTF-8" standalone="no"?>
<!-- Created with Inkscape (http://www.inkscape.org/) -->

<svg
   xmlns:dc="http://purl.org/dc/elements/1.1/"
   xmlns:cc="http://creativecommons.org/ns#"
   xmlns:rdf="http://www.w3.org/1999/02/22-rdf-syntax-ns#"
   xmlns:svg="http://www.w3.org/2000/svg"
   xmlns="http://www.w3.org/2000/svg"
   xmlns:sodipodi="http://sodipodi.sourceforge.net/DTD/sodipodi-0.dtd"
   xmlns:inkscape="http://www.inkscape.org/namespaces/inkscape"
   id="svg7384"
   height="16"
   width="16"
   version="1.1"
   sodipodi:docname="weather-few-clouds-symbolic.svg"
   inkscape:version="0.92.1 r15371">
  <defs
     id="defs21" />
  <sodipodi:namedview
     pagecolor="#ffffff"
     bordercolor="#666666"
     borderopacity="1"
     objecttolerance="10"
     gridtolerance="10"
     guidetolerance="10"
     inkscape:pageopacity="0"
     inkscape:pageshadow="2"
     inkscape:window-width="1600"
     inkscape:window-height="808"
     id="namedview19"
     showgrid="false"
     inkscape:zoom="14.75"
     inkscape:cx="8"
     inkscape:cy="8"
     inkscape:window-x="0"
     inkscape:window-y="0"
     inkscape:window-maximized="1"
     inkscape:current-layer="svg7384" />
  <metadata
     id="metadata90">
    <rdf:RDF>
      <cc:Work
         rdf:about="">
        <dc:format>image/svg+xml</dc:format>
        <dc:type
           rdf:resource="http://purl.org/dc/dcmitype/StillImage" />
        <dc:title>Gnome Symbolic Icon Theme</dc:title>
      </cc:Work>
    </rdf:RDF>
  </metadata>
  <title
     id="title9167">Gnome Symbolic Icon Theme</title>
  <path
     inkscape:connector-curvature="0"
     style="fill:#232627;fill-opacity:1"
     d="m 7.0000002,-2.45e-7 -0.5,1.031250045 c 0.16191,-0.0133 0.3348,-0.0312501 0.5,-0.0312501 h 0.5 z m 0,1.999999945 c -2.76142,0 -5,2.2385904 -5,4.9999998 0,2.254 1.51261,4.1257705 3.5625,4.7500005 0.46885,-0.67743 1.17975,-1.20533 1.96875,-1.4375 C 8.1509802,8.9904695 9.5059902,7.9741995 11,7.9999995 c 0.30449,-0.005 0.58708,0.056 0.875,0.125 C 11.9595,7.7606495 12,7.3900495 12,6.9999995 12,4.2385901 9.7614202,1.9999997 7.0000002,1.9999997 Z m -4.9375,0.0625 0.34375,1.0625 c 0.21905,-0.25922 0.45953,-0.4996999 0.71875,-0.71875 z m 9.8749998,0 -1.09375,0.375 h -0.0625 c 0.13917,0.1109502 0.27498,0.2251101 0.40625,0.34375 0.13127,0.1186402 0.25799,0.2417502 0.375,0.375 z M 1.0000002,6.4999997 -2e-7,6.9999995 l 1.0312504,0.5 c -0.0148,-0.16931 -0.03125,-0.3264 -0.03125,-0.5 0,-0.0275 -0.002,-0.0836 0,-0.1562498 0.006,-0.1158298 0.02235,-0.23224 0.03125,-0.34375 z m 11.9687498,0 C 12.98355,6.6693098 13,6.8264 13,6.9999995 c 0,0.0275 0.002,0.0836 0,0.15625 -0.006,0.11583 -0.02235,0.23224 -0.03125,0.34375 H 13 l 1,-0.5 z M 11,8.9999995 c -1.3116798,0 -2.4048198,0.85843 -2.8124998,2.0312505 -1.23083,0.15597 -2.1875,1.19557 -2.1875,2.46875 0,1.38071 1.11929,2.5 2.5,2.5 H 14 c 1.10457,0 2,-0.89543 2,-2 0,-1.10457 -0.89543,-2 -2,-2 0,-1.65685 -1.34315,-3.0000005 -3,-3.0000005 z m 0,1 c 1.116407,0 2,0.8835935 2,2.0000005 v 1 h 1 c 0.56413,0 1,0.43587 1,1 0,0.564131 -0.43587,1 -1,1 H 8.5000002 c -0.840268,0 -1.5,-0.659732 -1.5,-1.5 0,-0.772245 0.567351,-1.382137 1.3125,-1.476562 l 0.615234,-0.07813 0.205078,-0.585938 C 9.4081572,10.567271 10.124621,9.9999995 11,9.9999995 Z m -8.5624998,0.8437505 -0.375,1.09375 1.09375,-0.375 h 0.0625 c -0.13917,-0.11095 -0.27498,-0.22511 -0.40625,-0.34375 -0.13127,-0.11864 -0.25799,-0.24175 -0.375,-0.375 z"
     id="path4504" />
</svg>
