<?xml version="1.0" encoding="UTF-8" standalone="no"?>
<!-- Created with Inkscape (http://www.inkscape.org/) -->

<svg
   width="16"
   height="16"
   viewBox="0 0 4.2333332 4.2333335"
   version="1.1"
   id="svg5"
   inkscape:version="1.1.1 (3bf5ae0d25, 2021-09-20)"
   sodipodi:docname="kvantum-symbolic.svg"
   xmlns:inkscape="http://www.inkscape.org/namespaces/inkscape"
   xmlns:sodipodi="http://sodipodi.sourceforge.net/DTD/sodipodi-0.dtd"
   xmlns="http://www.w3.org/2000/svg"
   xmlns:svg="http://www.w3.org/2000/svg">
  <sodipodi:namedview
     id="namedview7"
     pagecolor="#ffffff"
     bordercolor="#666666"
     borderopacity="1.0"
     inkscape:pageshadow="2"
     inkscape:pageopacity="0.0"
     inkscape:pagecheckerboard="0"
     inkscape:document-units="px"
     showgrid="false"
     units="px"
     height="16px"
     inkscape:zoom="25.8125"
     inkscape:cx="6.062954"
     inkscape:cy="11.118644"
     inkscape:window-width="1852"
     inkscape:window-height="1053"
     inkscape:window-x="68"
     inkscape:window-y="27"
     inkscape:window-maximized="1"
     inkscape:current-layer="svg5" />
  <defs
     id="defs2">
    <style type="text/css" id="current-color-scheme">
      .ColorScheme-Text {
        color:#eff0f1;
      }
    </style>
  </defs>
  <path
     style="line-height:125%;letter-spacing:0;word-spacing:0;fill:currentColor;fill-opacity:1;stroke-width:0.0690222;stroke:none"
     id="path2987"
     class="ColorScheme-Text"
     d="m 0.87592756,1.0583982 v 0.1521872 l 0.20224904,0.015412 c 0.037604,0.00286 0.03766,0.020088 0.032751,0.046231 L 0.78537068,3.0059641 c -0.006609,0.035205 -0.0138274,0.045461 -0.0500829,0.048171 L 0.52916667,3.0695401 V 3.2274906 H 1.4307146 V 3.0695549 L 1.230343,3.0560404 C 1.200205,3.0543504 1.187979,3.0479604 1.195666,3.0059504 L 1.3285825,2.2797122 H 1.532778 L 1.8255842,2.89615 c 0.1196756,0.2458173 0.2036309,0.3512074 0.4623305,0.3544721 0.074386,9.686e-4 0.1043113,0.00642 0.304992,0 C 3.2850412,2.672758 3.6383524,2.2322814 3.6941707,2.0331315 3.7279782,1.9125144 3.674303,1.8385363 3.5592915,1.8385363 c -0.056103,0 -0.1203327,0.023626 -0.1926052,0.071314 L 3.3146715,2.3239841 C 3.1730158,2.5091163 2.9841777,2.7107731 2.7540954,2.9211605 L 2.9062757,2.1255548 C 2.9475026,1.9100197 2.923698,1.8224146 2.7835949,1.8538321 l -0.4128497,0.09258 -0.025014,0.088597 0.1651012,0.0256 c 0.082071,0.015857 0.071824,0.077864 0.01787,0.3751001 L 2.4227529,3.0193888 c -0.00166,0.00601 -0.00272,0.01259 -0.00386,0.019264 C 2.3501949,3.0017402 2.3068872,2.9360093 2.2570801,2.8363963 L 1.8429465,2.0080395 2.5850669,1.2561525 c 0.012362,-0.012525 0.020206,-0.016477 0.032465,-0.017609 L 2.8581505,1.2163116 V 1.0583402 H 2.0490992 v 0.157985 l 0.2003095,0.015392 c 0.040455,0.00311 0.055606,0.014551 0.019264,0.052015 L 1.4576614,2.1197777 h -0.096319 l 0.15989,-0.8476072 c 0.00387,-0.030783 0.01684,-0.04439 0.04238,-0.046231 l 0.2138238,-0.015405 v -0.152201 z" />
</svg>
