<svg xmlns="http://www.w3.org/2000/svg" id="svg2" width="22" height="22" x="0" y="0" version="1.1" xml:space="preserve">
 <defs id="defs8">
  <style id="current-color-scheme" type="text/css">
   .ColorScheme-Text { color:#cecfce; } .ColorScheme-Highlight { color:#3daee9; }
  </style>
 </defs>
 <path id="path4" style="fill:currentColor" class="ColorScheme-Text" d="m19.635 2.0254l-5.617 6.8164 1.982 1.1582 4-7.6484-0.365-0.3262zm-14.635 4.4746l-4 3.5 4.375-0.625 1.625 9.625 3.393-2.301 9.607 2.801-3-7.5-2-1.4-5.252 4.492-3.248-8.092-1.5-0.5zm7 2.5293l-3 0.9707 1 3 4-3-2-0.9707z"/>
 <g id="g855" transform="rotate(15,2220.4477,-1319.4258)">
  <rect id="rect4153" style="opacity:1;fill:#1d99f3;fill-opacity:1;stroke:none" width="8" height="8" x="433.71" y="536.79" ry="4"/>
  <path id="path4198" style="fill:#ffffff;fill-opacity:1;stroke:none;stroke-linecap:butt;stroke-linejoin:round" d="m 435.59297,538.66942 a 3,3 0 0 0 -0.32455,3.86008 l 0.72506,-0.72506 a 2,2 0 0 1 0.3066,-2.42791 2,2 0 0 1 2.4293,-0.30798 l 0.71953,-0.71954 a 3,3 0 0 0 -3.85594,0.32041 z m 0.3867,4.56305 a 3,3 0 0 0 3.85594,-0.32041 3,3 0 0 0 0.32455,-3.86008 l -0.72506,0.72506 a 2,2 0 0 1 -0.3066,2.42791 2,2 0 0 1 -2.4293,0.30798 z"/>
 </g>
</svg>
