<svg xmlns="http://www.w3.org/2000/svg" id="svg2" width="22" height="22" version="1.1">
 <defs id="defs10">
  <style id="current-color-scheme" type="text/css">
   .ColorScheme-Text { color:#cecfce; } .ColorScheme-Highlight { color:#3daee9; }
  </style>
 </defs>
 <path id="path4493" style="fill:#3daee9;fill-opacity:1" d="M 11 3 C 10.44772 3 10 3.44772 10 4 C 10 4.0333 10.001859 4.0665094 10.005859 4.0996094 C 7.7156188 4.5584098 6.00008 6.5708 6 9 L 6 13.5 L 4 15.5 L 4 16 L 18 16 L 18 15.5 L 16 13.5 L 16 11 L 16 9 C 16.0001 6.5708 14.284441 4.5584394 11.994141 4.0996094 C 11.998141 4.0665094 11.99971 4.0333 12 4 C 12 3.44772 11.55228 3 11 3 z M 11 4.1992188 A 1.0001 1.0001 0 0 0 11.796875 5.0800781 C 13.629299 5.4471781 15.000081 7.04167 15 9 L 15 11 L 15 13.5 A 1.0001 1.0001 0 0 0 15.292969 14.207031 L 16.085938 15 L 5.9140625 15 L 6.7070312 14.207031 A 1.0001 1.0001 0 0 0 7 13.5 L 7 9 C 7.000064 7.04161 8.3688838 5.4471481 10.201172 5.0800781 A 1.0001 1.0001 0 0 0 11 4.1992188 z M 9.2695312 17 C 9.6265312 17.61831 10.28603 17.99944 11 18 C 11.7133 17.99874 12.371886 17.61771 12.728516 17 L 9.2695312 17 z"/>
</svg>
