<?xml version="1.0" encoding="UTF-8" standalone="no"?>
<svg
   xmlns:dc="http://purl.org/dc/elements/1.1/"
   xmlns:cc="http://creativecommons.org/ns#"
   xmlns:rdf="http://www.w3.org/1999/02/22-rdf-syntax-ns#"
   xmlns:svg="http://www.w3.org/2000/svg"
   xmlns="http://www.w3.org/2000/svg"
   xmlns:sodipodi="http://sodipodi.sourceforge.net/DTD/sodipodi-0.dtd"
   xmlns:inkscape="http://www.inkscape.org/namespaces/inkscape"
   width="22"
   height="22"
   version="1.1"
   id="svg9"
   sodipodi:docname="museeks-tray.svg"
   inkscape:version="0.92.3 (2405546, 2018-03-11)">
  <metadata
     id="metadata13">
    <rdf:RDF>
      <cc:Work
         rdf:about="">
        <dc:format>image/svg+xml</dc:format>
        <dc:type
           rdf:resource="http://purl.org/dc/dcmitype/StillImage" />
        <dc:title></dc:title>
      </cc:Work>
    </rdf:RDF>
  </metadata>
  <sodipodi:namedview
     pagecolor="#ffffff"
     bordercolor="#666666"
     borderopacity="1"
     objecttolerance="10"
     gridtolerance="10"
     guidetolerance="10"
     inkscape:pageopacity="0"
     inkscape:pageshadow="2"
     inkscape:window-width="1920"
     inkscape:window-height="1020"
     id="namedview11"
     showgrid="true"
     inkscape:zoom="26.42"
     inkscape:cx="11"
     inkscape:cy="11"
     inkscape:window-x="0"
     inkscape:window-y="30"
     inkscape:window-maximized="1"
     inkscape:current-layer="svg9">
    <inkscape:grid
       type="xygrid"
       id="grid820" />
  </sodipodi:namedview>
  <defs
     id="defs3">
    <style
       id="current-color-scheme"
       type="text/css">
   .ColorScheme-Text { color:#cecfce; } .ColorScheme-Highlight { color:#3daee9; }
  </style>
  </defs>
  <path
     style="color:#cecfce;opacity:0.3;fill:currentColor"
     d="M 15.833984 3 L 10.855469 8.5449219 L 12.800781 10.248047 L 14 11.300781 L 14 12.527344 L 14 19 L 19 19 L 19 3 L 15.833984 3 z M 16.279297 4 L 18 4 L 18 18 L 15 18 L 15 12.527344 L 15 10.847656 L 13.458984 9.4960938 L 12.275391 8.4609375 L 16.279297 4 z "
     id="path5" />
  <path
     style="fill:#cecfce;fill-opacity:1"
     d="M 3 3 L 3 19 L 7.5722656 15 L 12.142578 11 L 7.5722656 7 L 3 3 z M 4 5.203125 L 6.9121094 7.7519531 L 10.625 11 L 6.9121094 14.248047 L 4 16.796875 L 4 5.203125 z "
     id="path7" />
</svg>
