<?xml version="1.0" encoding="UTF-8" standalone="no"?>
<!-- Created with Inkscape (http://www.inkscape.org/) -->

<svg
   width="32"
   version="1.1"
   height="32"
   id="svg40"
   sodipodi:docname="preferences-desktop-mouse.svg"
   inkscape:version="1.1 (c4e8f9ed74, 2021-05-24)"
   xmlns:inkscape="http://www.inkscape.org/namespaces/inkscape"
   xmlns:sodipodi="http://sodipodi.sourceforge.net/DTD/sodipodi-0.dtd"
   xmlns:xlink="http://www.w3.org/1999/xlink"
   xmlns="http://www.w3.org/2000/svg"
   xmlns:svg="http://www.w3.org/2000/svg">
  <sodipodi:namedview
     id="namedview42"
     pagecolor="#ffffff"
     bordercolor="#666666"
     borderopacity="1.0"
     inkscape:pageshadow="2"
     inkscape:pageopacity="0.0"
     inkscape:pagecheckerboard="0"
     showgrid="false"
     inkscape:zoom="21.53125"
     inkscape:cx="15.976778"
     inkscape:cy="16"
     inkscape:window-width="1920"
     inkscape:window-height="1021"
     inkscape:window-x="0"
     inkscape:window-y="29"
     inkscape:window-maximized="1"
     inkscape:current-layer="g4283" />
  <defs
     id="defs5455">
    <linearGradient
       inkscape:collect="always"
       id="linearGradient4369">
      <stop
         style="stop-color:#253440"
         id="stop4371" />
      <stop
         offset="1"
         style="stop-color:#566069;stop-opacity:0.463277"
         id="stop4373" />
    </linearGradient>
    <linearGradient
       inkscape:collect="always"
       id="linearGradient4355">
      <stop
         style="stop-color:#283845"
         id="stop4357" />
      <stop
         offset="1"
         style="stop-color:#4e575f"
         id="stop4359" />
    </linearGradient>
    <linearGradient
       inkscape:collect="always"
       id="linearGradient4341">
      <stop
         style="stop-color:#18222a"
         id="stop4343" />
      <stop
         offset="1"
         style="stop-color:#566069;stop-opacity:0.463277"
         id="stop4345" />
    </linearGradient>
    <linearGradient
       inkscape:collect="always"
       id="linearGradient4191">
      <stop
         style="stop-color:#18222a"
         id="stop4193" />
      <stop
         offset="1"
         style="stop-color:#566069"
         id="stop4195" />
    </linearGradient>
    <linearGradient
       inkscape:collect="always"
       id="linearGradient4303">
      <stop
         style="stop-color:#197cf1"
         id="stop4305" />
      <stop
         offset="1"
         style="stop-color:#21c9fb"
         id="stop4307" />
    </linearGradient>
    <linearGradient
       inkscape:collect="always"
       xlink:href="#linearGradient4191"
       id="linearGradient4313"
       y1="29.999729"
       y2="3"
       x2="0"
       gradientUnits="userSpaceOnUse" />
    <linearGradient
       inkscape:collect="always"
       xlink:href="#linearGradient4303"
       id="linearGradient4335"
       y1="14"
       y2="12"
       x2="0"
       gradientUnits="userSpaceOnUse" />
    <linearGradient
       inkscape:collect="always"
       xlink:href="#linearGradient4303"
       id="linearGradient4337"
       y1="527.79797"
       y2="525.79797"
       x2="0"
       gradientUnits="userSpaceOnUse" />
    <linearGradient
       inkscape:collect="always"
       xlink:href="#linearGradient4341"
       id="linearGradient4339"
       y1="18"
       x1="11"
       y2="24"
       x2="9"
       gradientUnits="userSpaceOnUse" />
    <linearGradient
       inkscape:collect="always"
       xlink:href="#linearGradient4355"
       id="linearGradient4353"
       x1="7.00001"
       x2="9"
       gradientUnits="userSpaceOnUse" />
    <linearGradient
       inkscape:collect="always"
       xlink:href="#linearGradient4369"
       id="linearGradient4367"
       x1="24"
       x2="25.00001"
       gradientUnits="userSpaceOnUse" />
    <linearGradient
       inkscape:collect="always"
       xlink:href="#linearGradient4191"
       id="linearGradient4467"
       y1="524.79797"
       y2="520.79797"
       x2="0"
       gradientUnits="userSpaceOnUse" />
    <linearGradient
       inkscape:collect="always"
       xlink:href="#linearGradient4303"
       id="linearGradient4483"
       y1="15.999729"
       y2="7"
       gradientUnits="userSpaceOnUse"
       x2="0" />
  </defs>
  <metadata
     id="metadata5458" />
  <g
     inkscape:label="Capa 1"
     inkscape:groupmode="layer"
     id="g4283"
     transform="translate(-384.57143,-515.798)">
    <path
       style="fill:#1b252d"
       id="path4296"
       d="M 15,2 14.96875,2.0625 A 2,2.5000131 0 0 1 15,2.5 2,2.5000131 0 0 1 14.597656,4 h 1.109375 A 3,3.5 0 0 0 16,2.5 3,3.5 0 0 0 15.964844,2 Z"
       transform="translate(384.57143,515.798)" />
    <path
       style="fill:url(#linearGradient4313);fill-rule:evenodd"
       id="path4289"
       d="M 16,3 C 13.11204,3.87795 12.08041,4.10198 9,5 8.05581,8.33925 7.716815,10.870415 8.171875,14.703125 8.125325,14.888145 8.079158,15.092942 8.03125,15.283203 L 8,15 v 0.412109 C 7.8950346,15.831105 7.7895635,16.245058 7.6953125,16.685547 7.4007073,17.339392 7,18.304688 7,19 7,19.752462 7.1403664,20.314433 7.5664062,21.638672 7.6709711,22.091901 7.8028558,22.545239 8,23 8.25,25.02331 8.556775,25.536945 9.734375,26.984375 12.229875,28.419255 13.63464,29.49815 16,30 c 2.08287,-0.36195 4.177004,-1.673894 5.458984,-3.021484 L 22,27 c 1.04511,-1.11809 1.73822,-2.64538 2,-4 1.00001,-4 1.00001,-3 1,-4 -5e-6,-0.531685 -0.266474,-1.834057 -0.53125,-3.009766 -0.154704,-1.023302 -0.38605,-2.062183 -0.679688,-3.199218 L 23.800781,11 23.966797,10.798828 C 23.956187,9.4808482 23.846359,8.7776236 23.605469,7.7148438 L 23.474609,7.2871094 23.121094,7.0898438 C 23.000074,6.1362538 22.764459,5.1942206 22.199219,4.4003906 19.839569,4.4941806 17.48521,3.11857 16,3 Z"
       transform="translate(384.57143,515.798)" />
    <path
       inkscape:connector-curvature="0"
       style="opacity:0.6;fill:#1a1a1a;fill-rule:evenodd"
       id="path4268"
       d="m 394.57143,538.798 0.6,-0.7 0.3,-0.35 0.15,-0.175 c 0.20493,-0.26325 0.17188,-0.39995 0.17188,-0.625 -0.0101,-0.35894 -0.0204,-0.6764 -0.0324,-0.9654 -0.012,-0.28901 -0.0257,-0.54956 -0.0424,-0.79469 -0.0167,-0.24512 -0.0364,-0.47482 -0.0604,-0.70213 -0.0675,-0.76403 -0.2164,-1.11569 -0.4366,-1.22048 l -0.35,-0.15821 -0.35,-0.1582 -0.35,-0.15819 c 0.24099,1.93782 0.36721,3.94451 0.39992,6.0073 z" />
    <path
       style="fill:url(#linearGradient4353);fill-rule:evenodd"
       id="path4270"
       d="m 8.1464844,14.449219 c 0.00814,0.08453 0.014929,0.165793 0.025391,0.253906 -0.04655,0.18502 -0.092717,0.389817 -0.140625,0.580078 L 8,15 v 0.412109 C 7.8950346,15.831105 7.7895635,16.245058 7.6953125,16.685547 7.4007073,17.339392 7,18.304688 7,19 7,19.752462 7.1403664,20.314433 7.5664062,21.638672 7.6709711,22.091901 7.8028558,22.545239 8,23 c 0.033364,0.270026 0.074171,0.468176 0.1132812,0.679688 1.5530497,-4.237856 0.3894729,-8.195084 0.033203,-9.230469 z"
       transform="translate(384.57143,515.798)" />
    <path
       style="fill:url(#linearGradient4367);fill-rule:evenodd"
       id="path4278"
       d="m 23.912109,13.308594 -0.80664,12.105468 C 23.53337,24.624411 23.847869,23.787223 24,23 c 1.00001,-4 1.00001,-3 1,-4 -5e-6,-0.531685 -0.266474,-1.834057 -0.53125,-3.009766 -0.130337,-0.862126 -0.326084,-1.748018 -0.556641,-2.68164 z"
       transform="translate(384.57143,515.798)" />
    <path
       style="fill:url(#linearGradient4339);fill-rule:evenodd"
       id="path4283"
       d="m 9,18 -0.1328125,0.396484 c 0.079041,1.550556 -0.056596,3.38043 -0.7539063,5.283204 C 8.0741715,23.468176 8.0333644,23.270026 8,23 8.2267021,24.834755 8.5338502,25.456898 9.4609375,26.630859 9.9503559,23.981213 9.8042646,18.540844 9,18 Z"
       transform="translate(384.57143,515.798)" />
    <path
       style="fill:#1b252d;fill-opacity:0.384181"
       id="rect4375"
       d="M 16,3 C 15.894695,3.032013 15.850558,3.041927 15.75,3.072266 V 15.75 c 0,0.1385 0.1115,0.25 0.25,0.25 0.1385,0 0.25,-0.1115 0.25,-0.25 V 3.0410156 C 16.167427,3.0282702 16.077914,3.0062202 16,3 Z"
       transform="translate(384.57143,515.798)" />
    <path
       inkscape:connector-curvature="0"
       style="fill:url(#linearGradient4335);fill-rule:evenodd"
       id="path4261"
       d="m 14.8,12.5 v 1 L 16,14 17.2,13.5 v -1 L 16,13 Z"
       transform="translate(384.57143,515.798)" />
    <path
       inkscape:connector-curvature="0"
       style="fill:url(#linearGradient4337);fill-rule:evenodd"
       id="path4266"
       d="m 399.37143,527.298 v -1 l 1.2,-0.5 1.2,0.5 v 1 l -1.2,-0.5 z" />
    <rect
       width="1.999976"
       x="399.57144"
       y="520.89771"
       rx="0.25"
       height="4"
       style="fill:url(#linearGradient4467)"
       id="rect4380" />
    <path
       style="fill:url(#linearGradient4483);fill-rule:evenodd"
       id="path4481"
       d="M 23.097656,6.9511719 23,7 c 0.420192,0.8403833 0.657569,2.5616792 0.798828,4.277344 L 23.800781,11 23.966797,10.798828 C 23.956187,9.4808483 23.846359,8.7776235 23.605469,7.7148438 L 23.474609,7.2871094 23.121094,7.0898438 c -0.0059,-0.046551 -0.01696,-0.092191 -0.02344,-0.1386719 z m 0.822266,6.3886721 C 23.982119,14.791155 24,16 24,16 l 0.257812,-1.15625 c -0.09722,-0.486097 -0.211285,-0.989658 -0.33789,-1.503906 z"
       transform="translate(384.57143,515.798)" />
  </g>
</svg>
