<?xml version="1.0" encoding="UTF-8" standalone="no"?>
<!-- Created with Inkscape (http://www.inkscape.org/) -->

<svg
   width="64"
   height="64"
   viewBox="0 0 16.933333 16.933334"
   version="1.1"
   id="svg1615"
   inkscape:version="1.1.1 (3bf5ae0d25, 2021-09-20, custom)"
   sodipodi:docname="folder_html.svg"
   xmlns:inkscape="http://www.inkscape.org/namespaces/inkscape"
   xmlns:sodipodi="http://sodipodi.sourceforge.net/DTD/sodipodi-0.dtd"
   xmlns="http://www.w3.org/2000/svg"
   xmlns:svg="http://www.w3.org/2000/svg">
  <sodipodi:namedview
     id="namedview1617"
     pagecolor="#ffffff"
     bordercolor="#666666"
     borderopacity="1.0"
     inkscape:pageshadow="2"
     inkscape:pageopacity="0.0"
     inkscape:pagecheckerboard="0"
     inkscape:document-units="px"
     showgrid="true"
     units="px"
     inkscape:zoom="8.8609319"
     inkscape:cx="15.968975"
     inkscape:cy="24.320241"
     inkscape:window-width="1920"
     inkscape:window-height="999"
     inkscape:window-x="0"
     inkscape:window-y="0"
     inkscape:window-maximized="1"
     inkscape:current-layer="svg1615">
    <inkscape:grid
       type="xygrid"
       id="grid1778" />
  </sodipodi:namedview>
  <defs
     id="defs1612">
    <style
       type="text/css"
       id="current-color-scheme">
      .ColorScheme-Text {
        color:#31363b;
      }
      .ColorScheme-Highlight {
        color:#3daee9;
      }
      </style>
  </defs>
  <path
     id="rect864"
     style="fill:currentColor;stroke-width:0.264583"
     class="ColorScheme-Highlight"
     d="M 0.79375001,1.5875 H 7.1437473 l 1.322917,1.5875 7.6729167,-1.32e-5 2e-6,12.1708472 H 0.79375001 Z"
     sodipodi:nodetypes="ccccccc" />
  <path
     id="rect1287"
     style="fill:#31363b;fill-opacity:1;stroke-width:0.264583;opacity:0.3"
     class="ColorScheme-Text"
     d="m 0.79375001,1.5875 6.35000099,-3e-7 1.3229166,1.5875 H 16.139584 V 3.439583 l -7.6729154,1e-7 -1.3229185,1.5874998 -6.35000009,5e-7 z"
     sodipodi:nodetypes="ccccccccc" />
  <rect
     style="fill:#000000;fill-opacity:0.235294;stroke-width:0.177687"
     id="rect5839"
     width="15.345834"
     height="0.26458332"
     x="0.79375064"
     y="15.08125" />
  <path
     id="rect3586"
     style="fill:currentColor;fill-opacity:0.2;stroke-width:0.264583"
     class="ColorScheme-Text"
     d="m 0.79375001,4.7625 6.08541699,3e-7 1.5874997,-1.3229169 -1.3229166,1.5875 -6.35000009,-2e-7 z"
     sodipodi:nodetypes="cccccc" />
  <path
     style="fill:currentColor;fill-opacity:0.6;stroke-width:0.370417"
     class="ColorScheme-Text"
     id="path3023"
     d="m 8.4666664,7.1437501 c -0.091612,0 -0.1836904,0.00754 -0.2728516,0.016536 -0.1783225,0.018002 -0.3467309,0.047834 -0.5126302,0.099219 -0.8294971,0.2569224 -1.4876741,0.9150993 -1.7445964,1.7445964 -0.051385,0.1658993 -0.081217,0.3343077 -0.099219,0.5126302 -0.009,0.089161 -0.016536,0.1812396 -0.016536,0.2728516 0,0.091612 0.00754,0.1836904 0.016536,0.2728517 0.018002,0.178322 0.047834,0.346731 0.099219,0.51263 0.2569223,0.829497 0.9150993,1.487674 1.7445964,1.744596 0.1658993,0.05138 0.3343077,0.08122 0.5126302,0.09922 0.089161,0.009 0.1812396,0.01654 0.2728516,0.01654 0.091612,0 0.1836904,-0.0075 0.2728515,-0.01654 0.1783226,-0.018 0.346731,-0.04783 0.5126303,-0.09922 0.1656977,-0.05154 0.3295986,-0.125243 0.4795573,-0.206705 0.5999325,-0.325097 1.0595015,-0.874293 1.2650395,-1.537891 0.05138,-0.165899 0.08122,-0.334308 0.09922,-0.51263 0.009,-0.089161 0.01654,-0.1812397 0.01654,-0.2728517 0,-0.091328 -0.0075,-0.1839063 -0.01654,-0.2728516 -0.018,-0.1783223 -0.04784,-0.3467307 -0.09922,-0.51263 C 10.893976,8.6723028 10.72426,8.3640116 10.508919,8.1028647 10.454999,8.0375282 10.395137,7.980814 10.335286,7.9209637 10.096169,7.6818465 9.8169508,7.4839879 9.5001951,7.3504558 9.4210592,7.3169842 9.3349972,7.2852739 9.2521482,7.2595053 9.0862489,7.2081209 8.9178405,7.178288 8.7395179,7.1602866 8.6503568,7.1512857 8.5582784,7.1437501 8.4666664,7.1437501 Z m 0,0.2645834 c 0.4003958,0 0.7767682,0.098269 1.1079427,0.2728515 0.00875,0.00461 0.016118,0.011816 0.024805,0.016536 0.0067,0.00887 0.00476,0.018312 0.016536,0.024805 0.00865,0.00482 0.016656,0.012224 0.024805,0.016536 0.013943,0.0077 0.027689,0.019592 0.024805,0.033073 -0.00384,0.019712 -0.036142,0.018637 -0.049609,0.033073 0.00185,0.027892 -0.00934,0.022587 -0.016536,0.041341 0.00434,0.012039 0.014632,0.010385 0.016536,0.024805 -0.00238,0.015399 -0.022318,0.017206 -0.016536,0.033073 0.025982,0.020214 0.049882,0.00336 0.074414,0 0.053874,-0.00675 0.0991,0.00114 0.1322916,-0.024805 -0.00351,-0.020579 0.016155,-0.026458 0.024805,-0.041341 0.01756,0.012311 0.032401,0.028573 0.049609,0.041341 -0.010107,0.00434 -0.0322,0.010769 -0.041341,0.016536 -0.013467,0.00913 -0.017666,0.022976 -0.033073,0.033073 -0.01106,0.0077 -0.038063,0.033073 -0.049609,0.033073 -0.013944,0 -0.039508,-0.011628 -0.049609,-0.00827 -0.014446,0.00434 -0.00848,0.027302 -0.024805,0.033073 -0.031747,0.011536 -0.088156,-0.031062 -0.099219,0.016536 0.013467,0.027411 0.058632,0.018169 0.082682,0.033073 0.014922,0.00963 0.037494,0.058063 0.041341,0.074414 0.00384,0.013467 0.00577,0.059989 0,0.074414 -0.014922,0.03847 -0.054967,0.034036 -0.099219,0.033073 -0.012039,0 -0.022,0.00106 -0.033073,0 -0.074557,-0.00482 -0.1482275,-0.02857 -0.181901,0.024805 0.00238,0.040876 0.00915,0.063632 0,0.099219 -0.00672,0.025956 -0.034518,0.043542 -0.033073,0.066146 5.291e-4,0.011536 0.021921,0.033737 0.024805,0.049609 0.00185,0.00865 -0.00386,0.025392 0,0.033073 0.012515,0.023574 0.044019,-0.00384 0.066146,0 0.021167,0.00336 0.041341,0.034314 0.041341,0.057878 0,0.016827 -0.00595,0.049795 -0.016536,0.066146 -0.021167,0.031737 -0.060645,0.024027 -0.090951,0.041341 -0.025003,0.01442 -0.034697,0.049406 -0.049609,0.074414 -0.015875,0.026929 -0.031067,0.035944 -0.024805,0.074414 -0.021643,0.042799 -0.046217,0.070271 -0.09095,0.09095 -0.012991,0.00577 -0.029316,0.016153 -0.041341,0.024805 -0.00963,0.00672 -0.019592,0.017664 -0.033073,0.033073 -0.016827,0.018759 -0.040471,0.026914 -0.049609,0.041341 -0.00675,0.01106 -0.00106,0.034703 -0.00827,0.049609 -0.010583,0.020214 -0.027874,0.037679 -0.041341,0.057878 -0.00624,0.00963 -0.018084,0.020547 -0.024805,0.033073 -0.015399,0.027892 -0.03596,0.04989 -0.033073,0.074414 0.00238,0.023574 0.031631,0.02893 0.033073,0.049609 0.00132,0.011536 -0.00874,0.020566 -0.00827,0.033073 5.292e-4,0.018283 0.00684,0.026913 0.00827,0.041341 0.00336,0.035587 -0.018084,0.049887 -0.024805,0.074414 -0.00336,0.011536 0.00288,0.023937 0,0.033073 -0.00577,0.017806 -0.032591,0.028451 -0.033073,0.049609 -5.291e-4,0.014922 0.023376,0.028461 0.024805,0.049609 0.00106,0.01442 -0.011152,0.027876 -0.00827,0.041341 0.00529,0.025982 0.054213,0.062484 0.074414,0.082682 0.027419,0.027413 0.054123,0.045559 0.066146,0.074414 0.010107,0.024527 0.014327,0.064408 0.033073,0.082682 0.013944,0.013467 0.040082,0.019137 0.057878,0.033073 0.016827,0.012991 0.040079,0.019119 0.057878,0.033073 0.029342,0.023098 0.069093,0.069514 0.1157552,0.066146 0.024527,-0.00185 0.046995,-0.011748 0.074414,-0.016537 0.028379,-0.00482 0.06209,-0.01942 0.09095,-0.016536 0.022119,0.00238 0.043058,0.017992 0.066146,0.016536 0.024051,-0.00132 0.055266,-0.012793 0.082682,-0.024805 0.047622,-0.020691 0.120904,-0.059709 0.1901692,-0.049609 0.052911,0.0077 0.053911,0.067387 0.090951,0.090951 0.042328,0.00384 0.073816,-0.00818 0.1074869,0 0.02551,0.00624 0.05547,0.054218 0.05788,0.074414 0.0024,0.02069 -0.01365,0.03663 -0.01654,0.04961 -0.0067,0.02789 -0.01175,0.06489 -0.01654,0.08268 -0.0038,0.01394 -0.0087,0.0274 -0.0083,0.04134 0,0.01252 0.02007,0.04153 0.03307,0.05788 0.01588,0.02021 0.03864,0.03576 0.05788,0.05788 0.03511,0.04039 0.04988,0.09545 0.07441,0.148828 0.0062,0.01347 -0.0058,0.01624 0,0.03307 -0.01058,0.08079 -0.03804,0.133795 -0.09095,0.223242 -0.025,0.02885 -0.05009,0.06315 -0.04961,0.09922 -0.0018,0.08656 0.04519,0.131297 0.04134,0.214974 -0.0087,0.11253 4.23e-4,0.130059 -0.0083,0.190169 0.038,0.01924 0.01933,0.07584 0.0083,0.115755 -0.01635,0.04761 -0.0322,0.05921 -0.04134,0.09095 0.01973,0.0085 0.03626,0.01067 0.05788,0.0083 -0.4332433,0.450432 -1.0454662,0.727604 -1.7197917,0.727604 -0.3156477,0 -0.6173073,-0.0621 -0.8929688,-0.173632 -9.26e-4,-3.71e-4 9.261e-4,-0.0079 0,-0.0083 0.025003,-0.01058 0.072673,0.01857 0.09095,-0.01654 0.00916,-0.01683 -0.012039,-0.04931 0,-0.06615 0.00865,-0.01154 0.064886,-0.02192 0.082682,-0.02481 0.025506,-0.0043 0.051716,8.73e-4 0.066146,-0.0083 0.015875,-0.01011 0.035959,-0.03633 0.033073,-0.06615 -0.00132,-0.01394 -0.013772,-0.02057 -0.024805,-0.03307 -0.00913,-0.01058 -0.00204,-0.02345 -0.00827,-0.03307 -0.011536,-0.01683 -0.028263,-0.02507 -0.033073,-0.04961 0.034634,-0.0067 0.082267,0.03876 0.1322917,0.0248 0.023574,-0.0067 0.063349,-0.05229 0.074414,-0.07441 0.00336,-0.0067 -0.00384,-0.03315 0,-0.04134 0.00434,-0.0091 0.015081,-0.01175 0.016536,-0.01654 0.00336,-0.01299 -0.00288,-0.01666 0,-0.02481 0.00865,-0.02453 0.035176,-0.04008 0.049609,-0.05788 0.01106,-0.01347 0.022958,-0.0274 0.033073,-0.04134 0.011536,-0.01492 0.017132,-0.02007 0.024805,-0.03307 0.00722,-0.04376 -0.02712,-0.07728 -0.016536,-0.115755 0.011536,-0.04328 0.073909,-0.07123 0.1157552,-0.09095 0.01442,-0.0067 0.029316,-0.02049 0.041341,-0.02481 0.028861,-0.01011 0.064013,-0.0069 0.09095,-0.01654 0.045217,-0.01635 0.060553,-0.06613 0.082682,-0.107487 0.010583,-0.01924 0.022873,-0.03566 0.024805,-0.04961 0.00185,-0.01251 -0.00238,-0.02691 0,-0.04134 0.00238,-0.01442 0.00443,-0.02547 0.00827,-0.04134 0.00529,-0.02069 0.00827,-0.0596 0.00827,-0.08268 0,-0.01924 -0.00779,-0.02403 -0.00827,-0.04134 -0.00336,-0.06252 0.018256,-0.06508 0.041341,-0.09922 0.011536,-0.01683 0.016656,-0.04586 0.024805,-0.05788 0.038963,-0.05771 0.1040289,-0.08611 0.099219,-0.173633 -0.00185,-0.02886 -0.011917,-0.09008 -0.033073,-0.09922 -0.012039,-0.0053 -0.040079,-0.0016 -0.057878,-0.0083 -0.056761,-0.02117 -0.097933,-0.08614 -0.1570963,-0.09095 -0.012515,-5.29e-4 -0.019119,5.3e-4 -0.033073,0 -0.023098,-5.29e-4 -0.04844,-0.02192 -0.074414,-0.02481 -0.016351,-0.0018 -0.048257,0.0048 -0.057878,0 -0.014922,-0.0072 -0.012793,-0.03317 -0.024805,-0.04134 -0.00963,-0.0068 -0.026432,-0.01125 -0.041341,-0.01654 -0.023574,-0.0091 -0.038727,-0.0146 -0.066146,-0.01654 -0.00865,-5.29e-4 -0.031729,0.0013 -0.041341,0 -0.014922,-0.0024 -0.027392,-0.01615 -0.041341,-0.02481 -0.017304,-0.01058 -0.025858,-0.01816 -0.033073,-0.03307 0.015875,-0.05194 -0.039026,-0.06066 -0.049609,-0.09095 -0.00482,-0.01394 0.00482,-0.03711 0,-0.049608 C 7.906456,9.970109 7.89108,9.961478 7.8713549,9.946574 7.8367209,9.919642 7.8051456,9.894946 7.7555997,9.888696 c -0.022119,-0.00238 -0.047958,0.00185 -0.074414,0 C 7.6532879,9.886846 7.6196673,9.871395 7.5985033,9.847355 7.5782891,9.823781 7.574958,9.800537 7.5571622,9.789477 7.5403347,9.778894 7.5108284,9.775705 7.4992846,9.764672 7.4939926,9.759852 7.4958316,9.7509 7.4910166,9.739867 7.4823646,9.722537 7.4638968,9.719674 7.4744801,9.698526 7.4552449,9.688896 7.4620897,9.710657 7.4414072,9.706796 7.4226482,9.680338 7.4093212,9.665547 7.3669931,9.673723 7.3477579,9.677563 7.3317241,9.706317 7.3091155,9.706796 7.2903565,9.7073252 7.2757701,9.677089 7.2512379,9.673723 7.2324789,9.671343 7.2063487,9.693143 7.1933603,9.690259 7.1726699,9.686419 7.1707675,9.661443 7.1520191,9.648918 7.1380756,9.639768 7.1101065,9.615366 7.1024097,9.615845 c -0.024051,5.292e-4 -0.041225,0.050866 -0.074414,0.033073 -0.016351,-0.02069 0.027519,-0.022116 0.00827,-0.041341 -0.01442,-0.01442 -0.021521,5.82e-4 -0.033073,0.00827 -0.013468,0.00919 -0.026433,0.019597 -0.041342,0.024862 C 6.9286567,9.653224 6.9051405,9.652073 6.8791663,9.665514 6.8551157,9.678029 6.851774,9.698865 6.8378252,9.723392 6.8267656,9.743606 6.8050513,9.772038 6.7882158,9.773001 6.7680017,9.774321 6.7486183,9.74762 6.7303382,9.739928 6.6750218,9.715877 6.6437427,9.755988 6.5980465,9.756465 6.5557158,9.7569942 6.4969043,9.688896 6.4988277,9.648978 c 0.00132,-0.024527 0.013653,-0.060656 0.016536,-0.09095 0.00238,-0.024051 0.024355,-0.044024 0.024805,-0.066146 5.292e-4,-0.029334 -0.046905,-0.054509 -0.066146,-0.057878 -0.045217,-0.00818 -0.1056269,0.020214 -0.1570963,0 -0.00963,-0.016351 0.019037,-0.025469 0.024805,-0.041341 0.00336,-0.00913 -0.00336,-0.014698 0,-0.024805 0.00577,-0.015399 0.02586,-0.02499 0.033073,-0.041341 0.00529,-0.012515 0.00298,-0.034219 0.00827,-0.049609 0.00624,-0.01733 0.02335,-0.028837 0.024805,-0.041341 0.00185,-0.016351 -0.01184,-0.039029 -0.024805,-0.049609 -0.039926,0.00238 -0.06786,0.00606 -0.09095,0.016536 -0.051948,0.023574 -0.038518,0.091138 -0.09095,0.107487 -0.017806,0.00577 -0.045942,0.013176 -0.066146,0.016537 0.034214,-0.17311 0.087565,-0.3386789 0.1570963,-0.4960938 0.018283,0.00336 0.033737,0.015081 0.049609,0.016537 0.044254,0.00336 0.046122,-0.030374 0.082682,-0.049609 0.037521,0.00529 0.056798,-0.00384 0.09095,0 0.023098,0.00238 0.056137,0.031631 0.074414,0.033073 0.015399,5.292e-4 0.01864,-0.018944 0.033073,-0.016536 0.01442,0.00238 0.038936,0.032295 0.041341,0.049609 0.00238,0.021643 -0.014539,0.042101 -0.00827,0.066146 0.022622,0.023098 0.06699,0.036145 0.099219,0.049609 0.021167,-0.01733 0.00336,-0.057674 0,-0.082682 -5.291e-4,-0.01106 0.00132,-0.022955 0,-0.033073 -0.00238,-0.017304 -0.00827,-0.034703 -0.00827,-0.049609 0,-0.068768 0.053041,-0.097092 0.099219,-0.1240234 0.019711,-0.011536 0.040561,-0.032684 0.057878,-0.041341 0.024527,-0.012039 0.037674,-0.013269 0.057878,-0.024805 0.036555,-0.02069 0.070837,-0.042579 0.099219,-0.066146 0.012991,-0.031255 -0.00132,-0.068442 0,-0.099219 0.012991,-0.00818 0.019137,0.00132 0.033073,0 0.022119,-0.00482 0.028832,-0.037108 0.041341,-0.049609 0.00722,-0.00722 0.032673,-0.00934 0.041341,-0.016536 0.022119,-0.01733 0.022093,-0.041913 0.041341,-0.049609 0.00675,-0.00238 0.022476,-0.00538 0.033073,-0.00827 0.014446,-0.00384 0.03479,-0.016655 0.057878,-0.024805 0.014922,-0.00529 0.052104,-0.00251 0.057878,-0.00827 0.00722,-0.00722 -0.00185,-0.038547 0,-0.049609 0.011536,-0.05434 0.091977,-0.056137 0.1405599,-0.074414 0.033671,-0.012991 0.069966,-0.040288 0.1074869,-0.033073 -0.00722,0.025956 -0.039328,0.018346 -0.033073,0.049609 0.00818,0.043762 0.059021,-0.010292 0.074414,-0.016536 0.029342,-0.012515 0.08554,-0.019119 0.1240235,-0.033073 0.033671,-0.012012 0.089622,-0.035462 0.057878,-0.074414 -0.026458,-0.00185 -0.03479,0.023453 -0.057878,0.033073 -0.015875,0.00238 -0.019614,-0.00732 -0.033073,-0.00827 -0.012991,-5.292e-4 -0.020071,0.010676 -0.033073,0.00827 -0.012991,-0.00238 -0.031149,-0.025953 -0.033073,-0.041341 -0.00529,-0.040394 0.041526,-0.052866 0.057878,-0.082682 -0.01106,-0.03655 -0.060166,-0.00212 -0.09095,-0.016536 0.00336,-0.021643 0.015848,-0.045278 0.041341,-0.049609 0.02069,-0.00336 0.070175,0.00654 0.082682,0.016536 0.00722,0.00624 -0.00277,0.022953 0.00827,0.033073 0.012515,0.01106 0.033256,0.00238 0.049609,0 0.00577,-0.027411 -0.037883,-0.01528 -0.033073,-0.033073 0.032708,-0.021167 0.092366,-0.011245 0.1322917,-0.016536 0.023098,-0.00336 0.045461,-0.022005 0.066146,-0.033073 0.019235,-0.01106 0.037674,-0.026554 0.057878,-0.00827 0.00577,0.019711 -0.013772,0.031242 -0.024805,0.041341 -0.037039,0.0327 -0.070358,0.069498 -0.099219,0.107487 0.017806,0.01733 0.04459,0.00491 0.074414,0.00827 0.011536,0.00132 0.029313,0.00636 0.041341,0.00827 0.014446,0.00238 0.029795,-0.00238 0.041341,0 0.020214,0.00482 0.02114,0.033073 0.041341,0.033073 0.03271,0 0.035309,-0.027488 0.016536,-0.049609 0.00577,-0.022622 0.01647,-0.042005 0.00827,-0.057878 -0.014923,-0.029816 -0.071528,0.00491 -0.074414,-0.033073 -0.00185,-0.024051 0.02441,-0.031332 0.033073,-0.049609 -0.00384,-0.046164 0.037883,-0.049112 0.033073,-0.09095 -0.00238,-0.01733 -0.021042,-0.016737 -0.033073,-0.033073 -0.00624,-0.00865 -0.00934,-0.026821 -0.016536,-0.033073 -0.025003,-0.021167 -0.071527,-0.017478 -0.074414,-0.057878 -0.00132,-0.024051 0.00336,-0.04018 0,-0.066146 -0.00336,-0.024527 -0.028453,-0.094409 -0.049609,-0.099219 -0.026937,-0.00577 -0.042185,0.042971 -0.074414,0.057878 -0.017304,0.00818 -0.04835,0.011655 -0.066146,0.00827 -0.011536,-0.00238 -0.031628,-0.010967 -0.033073,-0.033073 -0.00119,-0.01274 0.00293,-0.017264 0.00827,-0.024805 0.00124,-0.00177 -0.0013,-0.0064 0,-0.00827 0.2092838,-0.060148 0.4328305,-0.09095 0.6614583,-0.09095 z M 7.4827471,7.6233074 c -0.023474,0.075171 -0.091422,0.1180844 -0.1819011,0.1157552 -0.022119,0.021167 -0.012793,0.061613 -0.024805,0.09095 -0.010107,0.024527 -0.041616,0.043267 -0.066146,0.041341 -0.017806,-0.00132 -0.049609,-0.024511 -0.049609,-0.041341 0,-0.013793 0.013338,-0.029375 0.016536,-0.041341 0.097379,-0.062963 0.1994633,-0.1169252 0.3059245,-0.1653642 z m 2.0257162,0.082682 c -0.00886,0.00159 -0.016999,0.00369 -0.024805,0.00827 -0.018283,0.01106 -0.019119,0.027784 -0.033073,0.033073 -0.019712,0.00722 -0.046723,0.00702 -0.049609,0.024805 -0.00238,0.014922 0.017039,0.019611 0.016536,0.033073 -0.00722,0.017806 -0.020942,0.019685 -0.024805,0.041341 0.024527,0.039915 0.085452,4.233e-4 0.1157552,-0.00827 0.013467,-0.00384 0.025858,0.00222 0.033073,-0.00827 0.00818,-0.012991 0.00201,-0.039603 0.00827,-0.057878 0.00675,-0.020214 0.027212,-0.015282 0.024805,-0.033073 -0.00185,-0.017806 -0.036322,-0.035957 -0.066146,-0.033073 z M 6.8874346,8.0119142 c 0.017637,0.021288 0.032401,0.052214 0,0.066146 -0.00482,0.00238 -0.06287,0.010676 -0.074414,0.00827 -0.00358,-5.027e-4 -0.00505,-0.00604 -0.00827,-0.00827 0.025286,-0.024561 0.056328,-0.042718 0.082682,-0.066146 z m 0.066146,0.082682 c 0.011536,5.292e-4 0.019595,0.023852 0.033073,0.024805 0.012991,0.00106 0.033631,-0.010676 0.041341,-0.00827 0.020214,0.00529 0.027519,0.042968 0.00827,0.057878 -0.015875,0.00185 -0.021545,-0.018944 -0.033073,-0.016536 -0.03271,0.00577 -0.041614,0.068069 -0.066146,0.066146 -0.023098,-0.00238 -0.040119,-0.049313 -0.016536,-0.066146 5.292e-4,-0.014446 -0.00925,-0.01864 -0.00827,-0.033073 0.00722,-0.00913 0.02209,-0.026234 0.041341,-0.024805 z m -0.107487,0.016536 c 0.00675,0 0.00586,-0.00288 0.00827,0 -0.00336,0.025479 -0.013369,0.029318 -0.033073,0.041341 -0.034152,0.02069 -0.055081,0.046707 -0.066146,0.09095 -0.00336,0.012991 -0.041524,0.052972 -0.057878,0.049609 -0.038002,-0.00818 0.016153,-0.079891 0.024805,-0.09095 0.00963,-0.012039 0.022021,-0.019592 0.033073,-0.033073 0.01106,-0.013467 0.014248,-0.041915 0.024805,-0.049609 0.011536,-0.00818 0.045945,-0.00925 0.066146,-0.00827 z m 3.2576826,0.066146 c 0.038,-0.00238 0.0571,0.043061 0.07441,0.066146 0.01442,0.018759 0.05911,0.044892 0.08268,0.057878 0.01347,0.00722 0.02643,0.018084 0.04134,0.024805 0.01563,0.00697 0.03942,0.016113 0.05788,0.033073 0.01846,0.01696 0.03235,0.042489 0.03307,0.057878 5.29e-4,0.015399 -0.01068,0.026914 -0.0083,0.041341 0.01666,0.00271 0.02531,-0.014248 0.03307,-0.033073 0.06235,0.088934 0.115443,0.1838436 0.165364,0.2811198 -0.01013,0.00627 -0.01449,0.012412 -0.01654,0.024805 -0.0048,0.026929 0.0156,0.061338 -0.02481,0.066146 -0.02548,0.00336 -0.05584,-0.025389 -0.09095,-0.033073 -0.01442,-0.00336 -0.03807,0.00384 -0.04961,0 -0.02646,-0.00913 -0.01873,-0.042008 -0.04134,-0.057878 -0.01299,-0.00915 -0.04546,-0.022423 -0.06615,-0.024805 -0.01299,-0.00132 -0.01962,0.00185 -0.03307,0 -0.01635,-0.00185 -0.04441,-9.26e-5 -0.05788,-0.00827 -0.01299,-0.00818 -0.04624,-0.022003 -0.04961,-0.033073 -0.0053,-0.017806 0.04038,-0.042968 0.04134,-0.057878 0.0011,-0.011536 -0.01413,-0.015761 -0.01654,-0.033073 -0.0019,-0.010583 0.0024,-0.026337 0,-0.033073 -0.0034,-0.012515 -0.02162,-0.024329 -0.04134,-0.024805 -0.01733,0 -0.0347,0.00827 -0.04961,0.00827 -0.02117,5.292e-4 -0.06449,-0.010676 -0.09095,-0.00827 -0.015875,0.00132 -0.026429,0.00732 -0.041341,0.00827 -0.041849,0.00336 -0.066508,-0.00238 -0.099219,0 -0.023574,0.00132 -0.068823,0.014724 -0.09095,0.024805 -0.01106,0.00529 -0.01864,0.017608 -0.033073,0.024805 -0.00672,0.00336 -0.016126,0.00443 -0.024805,0.00827 -0.013467,0.00624 -0.036621,0.021444 -0.049609,0.024805 -0.018759,0.00482 -0.040262,-0.00132 -0.074414,0 -0.024527,0.00132 -0.065664,-0.00375 -0.066146,-0.033073 -5.292e-4,-0.044723 0.081695,-0.025389 0.1240235,-0.033073 0.015875,-0.00336 0.022093,-0.022021 0.041341,-0.033073 0.00915,-0.00529 0.016153,-0.010769 0.024805,-0.016536 0.01442,-0.010107 0.038936,-0.029797 0.041341,-0.041341 0.00185,-0.010583 -0.00972,-0.025392 -0.00827,-0.033073 0.00185,-0.010107 0.020087,-0.02009 0.033073,-0.033073 0.020214,-0.020214 0.032864,-0.044895 0.057878,-0.057878 0.016827,-0.00913 0.050181,-0.011364 0.057878,-0.024805 0.00185,-0.015399 -5.291e-4,-0.019119 0,-0.033073 0.010583,-0.00963 0.00788,-0.014631 0.016536,-0.016536 0.025982,-0.00577 0.05238,0.00972 0.082682,0.00827 0.012991,-5.292e-4 0.027392,9.525e-4 0.041341,-0.00827 0.01154,-0.0077 0.02153,-0.019037 0.03307,-0.024805 0.01251,-0.00675 0.02593,-0.023852 0.04134,-0.024805 z m -3.0344404,0.024805 c 0.00637,-0.00101 0.0171,7.143e-4 0.024805,0 0.01106,-5.292e-4 0.021048,0 0.033073,0 0.012039,0 0.028263,-0.00482 0.033073,0 -0.0077,0.031739 -0.082473,0.01983 -0.107487,0.00827 6.615e-4,-0.00602 0.010171,-0.00725 0.016536,-0.00827 z m -0.09095,0.057878 c 0.00818,0 0.016153,-0.00336 0.024805,0 -0.022119,0.018759 -0.052467,0.029319 -0.09095,0.041341 -0.018283,0.00577 -0.046241,0.01192 -0.049609,-0.00827 -0.00386,-0.025003 0.016711,-0.022423 0.033073,-0.024805 0.021167,-0.00238 0.05815,-0.00779 0.082682,-0.00827 z m 3.1336589,0 c -0.01587,0.00529 -0.02357,0.037015 0,0.041341 0.01106,-0.00672 0.01118,-0.02114 0.0083,-0.041341 -0.0062,-0.00672 -0.0035,-0.00185 -0.0083,0 z m -0.0083,0.066146 c -0.0077,0.00238 -0.01666,-4.233e-4 -0.0248,0.00827 5.29e-4,0.026929 0.0053,0.042582 0,0.066146 0.0154,0.029816 0.05018,0.01192 0.05788,-0.00827 0.0091,-0.050014 -0.01,-0.072398 -0.03307,-0.066146 z m 0.206706,0.1322917 c -0.02117,-0.00106 -0.0371,0.00654 -0.04961,0.016536 0.01781,0.028855 0.05103,0.034126 0.09095,0.041341 0.01442,-0.010583 0.0098,-0.039603 0.01654,-0.057878 -0.01733,0 -0.02844,0.00106 -0.04961,0 z M 6.1102192,9.4753911 c 0.016896,0.021529 0.035162,0.046637 0.057878,0.057878 0.012039,0.00624 0.025948,0.00491 0.041341,0.00827 0.012515,0.00238 0.021053,0.0127 0.033073,0.016536 0.025506,0.00865 0.062481,0.00741 0.082682,0.016536 0.030787,0.013467 0.047956,0.067291 0.074414,0.082682 0.00132,0.015399 -0.00482,0.0298 0,0.041341 0.012515,0.016827 0.037671,0.022024 0.057878,0.033073 0.024527,0.013467 0.03479,0.047297 0.057878,0.057878 0.00818,0.00336 0.020548,-0.00384 0.033073,0 0.031747,0.00963 0.038727,0.057782 0.066146,0.049609 0.017806,-0.00529 0.021921,-0.032298 0.024805,-0.049609 0.012039,-0.012991 0.022566,-0.033073 0.041341,-0.033073 0.029821,-5.292e-4 0.038544,0.036814 0.049609,0.066146 0.00624,0.016351 0.020492,0.032298 0.024805,0.049609 0.00722,0.029816 0.00624,0.1144984 0,0.1322919 -0.0077,0.02212 -0.039598,0.03383 -0.057878,0.05788 -0.00865,0.01154 -0.018084,0.02539 -0.024805,0.03307 -0.011536,0.01442 -0.024402,0.0201 -0.033073,0.03307 -0.00481,0.0072 -0.00396,0.02298 -0.00827,0.03307 -0.014446,0.03078 -0.036838,0.05392 -0.024805,0.09095 0.00481,0.01492 0.024805,0.03182 0.024805,0.04961 0,0.02117 -0.046241,0.02653 -0.049609,0.04961 -0.00238,0.01683 0.019539,0.05181 0.024805,0.07441 0.00384,0.01683 0.031239,0.03028 0.041341,0.04134 0.016827,0.01876 0.034216,0.0421 0.049609,0.06615 0.030303,0.04665 0.044596,0.103142 0.074414,0.148828 0.015875,0.02357 0.047294,0.04114 0.057878,0.06615 0.00529,0.01252 -0.00482,0.03807 0,0.04961 0.017304,0.03895 0.1015974,0.07998 0.1405599,0.09922 0.018283,0.0092 0.032777,0.01517 0.049609,0.02481 0.025506,0.01445 0.077965,0.04354 0.09095,0.06615 0.011536,0.02021 0.019037,0.067 0.024805,0.09922 0.00722,0.04232 -0.00185,0.07834 0,0.124024 0.00132,0.025 0.00827,0.04114 0.00827,0.06615 0,0.0087 5.292e-4,0.02441 0,0.03307 -5.292e-4,0.02981 0.00238,0.06065 0,0.09095 -0.00132,0.01635 -0.00106,0.03566 0,0.04961 0.00132,0.01492 0.015584,0.02009 0.016536,0.03307 0.00106,0.01394 -0.017992,0.03028 -0.016536,0.04134 0.00336,0.0303 0.035568,0.05479 0.041341,0.08268 0.00482,0.02212 0.011152,0.07277 0.00827,0.09922 -0.00185,0.01394 -0.00634,0.03422 -0.00827,0.04961 -0.00132,0.01204 0.00185,0.02202 0,0.03307 -0.6592658,-0.423475 -1.0996745,-1.159153 -1.0996745,-2.0009121 0,-0.1079172 0.010898,-0.2100805 0.024805,-0.3141927 z m 0.9095052,0.2397786 c 0.023098,-0.010583 0.018759,0.030186 0,0.033073 -0.017807,0.00238 -0.017304,-0.024884 0,-0.033073 z" />
  <path
     id="rect870"
     style="fill:#ffffff;fill-opacity:0.2;stroke-width:0.118237"
     d="M 7.1437501,1.5875 8.4666667,3.4395834 H 16.139583 V 3.175 H 8.4666667 Z m 1.3229166,1.8520834 -1.3229166,1.5875 H 0.79375001 V 5.2916667 H 7.4083334 Z"
     sodipodi:nodetypes="cccccccccccc" />
</svg>
