<?xml version="1.0" encoding="UTF-8" standalone="no"?>
<!-- Created with Inkscape (http://www.inkscape.org/) -->

<svg
   width="32"
   version="1.1"
   height="32"
   id="svg16"
   sodipodi:docname="mintlocale-im.svg"
   inkscape:version="1.1 (c4e8f9ed74, 2021-05-24)"
   xmlns:inkscape="http://www.inkscape.org/namespaces/inkscape"
   xmlns:sodipodi="http://sodipodi.sourceforge.net/DTD/sodipodi-0.dtd"
   xmlns:xlink="http://www.w3.org/1999/xlink"
   xmlns="http://www.w3.org/2000/svg"
   xmlns:svg="http://www.w3.org/2000/svg">
  <sodipodi:namedview
     id="namedview18"
     pagecolor="#ffffff"
     bordercolor="#666666"
     borderopacity="1.0"
     inkscape:pageshadow="2"
     inkscape:pageopacity="0.0"
     inkscape:pagecheckerboard="0"
     showgrid="false"
     inkscape:zoom="4.6680096"
     inkscape:cx="-45.201278"
     inkscape:cy="2.2493527"
     inkscape:window-width="1920"
     inkscape:window-height="1004"
     inkscape:window-x="0"
     inkscape:window-y="0"
     inkscape:window-maximized="1"
     inkscape:current-layer="layer1" />
  <defs
     id="defs5455">
    <linearGradient
       inkscape:collect="always"
       id="linearGradient2067">
      <stop
         style="stop-color:#7cbaf8;stop-opacity:1;"
         offset="0"
         id="stop2063" />
      <stop
         style="stop-color:#ffffff;stop-opacity:1"
         offset="1"
         id="stop2065" />
    </linearGradient>
    <linearGradient
       inkscape:collect="always"
       id="linearGradient1773">
      <stop
         style="stop-color:#000000;stop-opacity:1;"
         offset="0"
         id="stop1769" />
      <stop
         style="stop-color:#000000;stop-opacity:0;"
         offset="1"
         id="stop1771" />
    </linearGradient>
    <linearGradient
       inkscape:collect="always"
       id="linearGradient1149">
      <stop
         style="stop-color:#197cf1;stop-opacity:1;"
         offset="0"
         id="stop1145" />
      <stop
         style="stop-color:#20bcfa;stop-opacity:1"
         offset="1"
         id="stop1147" />
    </linearGradient>
    <linearGradient
       inkscape:collect="always"
       id="linearGradient4303">
      <stop
         style="stop-color:#c6cdd1"
         id="stop4305" />
      <stop
         offset="1"
         style="stop-color:#e0e5e7"
         id="stop4307" />
    </linearGradient>
    <linearGradient
       inkscape:collect="always"
       xlink:href="#linearGradient4303"
       id="linearGradient4696"
       y1="540.79797"
       y2="522.79797"
       x2="0"
       gradientUnits="userSpaceOnUse" />
    <linearGradient
       inkscape:collect="always"
       xlink:href="#linearGradient1149"
       id="linearGradient1151"
       x1="414.41544"
       y1="547.83386"
       x2="410.57144"
       y2="533.79797"
       gradientUnits="userSpaceOnUse" />
    <linearGradient
       inkscape:collect="always"
       xlink:href="#linearGradient1773"
       id="linearGradient1775"
       x1="20.765617"
       y1="18.209387"
       x2="30.00001"
       y2="29.15127"
       gradientUnits="userSpaceOnUse" />
    <linearGradient
       inkscape:collect="always"
       xlink:href="#linearGradient2067"
       id="linearGradient2069"
       x1="414.57941"
       y1="545.68994"
       x2="414.58368"
       y2="535.84637"
       gradientUnits="userSpaceOnUse" />
  </defs>
  <metadata
     id="metadata5458" />
  <g
     inkscape:label="Capa 1"
     inkscape:groupmode="layer"
     id="layer1"
     transform="translate(-384.57143,-515.798)">
    <rect
       width="31.999975"
       x="384.57144"
       y="522.79797"
       height="18"
       style="opacity:0.99;fill:url(#linearGradient4696)"
       id="rect4688" />
    <rect
       width="32"
       x="384.57144"
       y="539.79797"
       height="1"
       style="fill:#abb4ba"
       id="rect4733" />
    <rect
       width="1"
       x="414.57141"
       y="523.79822"
       height="1"
       style="fill:#31c281"
       id="rect4462-0-90-5" />
    <rect
       width="1"
       x="411.57135"
       y="523.79822"
       height="1"
       style="fill:#31c281"
       id="rect4975-0" />
    <rect
       width="1"
       x="408.57141"
       y="523.79822"
       height="1"
       style="fill:#31c281"
       id="rect4977-0" />
    <path
       inkscape:connector-curvature="0"
       style="fill:#536161;fill-opacity:1"
       id="rect4758"
       d="m 1,12 v 3 h 3 v -3 z m 4,0 v 3 h 3 v -3 z m 4,0 v 3 h 3 v -3 z m 4,0 v 3 h 3 v -3 z m 4,0 v 3 h 3 v -3 z m 4,0 v 3 h 3 v -3 z m 4,0 v 3 h 6 V 12 Z M 1,16 v 3 h 5 v -3 z m 6,0 v 3 h 3 v -3 z m 4,0 v 3 h 3 v -3 z m 4,0 v 3 h 3 v -3 z m 4,0 v 3 h 3 v -3 z m 4,0 v 3 h 3 v -3 z m 4,0 v 3 h 4 V 16 Z M 1,20 v 3 h 3 v -3 z m 4,0 v 3 h 3 v -3 z m 4,0 v 3 h 10 v -3 z m 11,1 v 2 h 3 v -2 z m 4,-1 v 3 h 3 v -3 z m 4,1 v 2 h 3 v -2 z"
       transform="translate(384.57143,515.798)" />
    <path
       style="fill:#334545"
       id="rect4768"
       d="m 1,14 v 1 h 3 v -1 z m 4,0 v 1 h 3 v -1 z m 4,0 v 1 h 3 v -1 z m 4,0 v 1 h 3 v -1 z m 4,0 v 1 h 3 v -1 z m 4,0 v 1 h 3 v -1 z m 4,0 v 1 h 6 V 14 Z M 1,18 v 1 h 5 v -1 z m 6,0 v 1 h 3 v -1 z m 4,0 v 1 h 3 v -1 z m 4,0 v 1 h 3 v -1 z m 4,0 v 1 h 3 v -1 z m 4,0 v 1 h 3 v -1 z m 4,0 v 1 h 4 V 18 Z M 1,22 v 1 h 3 v -1 z m 4,0 v 1 h 3 v -1 z m 4,0 v 1 h 10 v -1 z m 11,0 v 1 h 3 v -1 z m 4,0 v 1 h 3 v -1 z m 4,0 v 1 h 3 v -1 z"
       transform="translate(384.57143,515.798)" />
    <rect
       style="opacity:1;fill:url(#linearGradient1151);fill-opacity:1;stroke-width:1.08012"
       id="rect883"
       width="14"
       height="14.000027"
       x="402.57144"
       y="533.79797" />
    <path
       id="rect932-1-5"
       style="opacity:0.3;fill:url(#linearGradient1775);fill-opacity:1;stroke-width:0.274188"
       d="m 25.375,20.001953 c 0,0 -0.816276,1.837891 -0.816406,1.837891 l -4.429688,0.794922 3.316406,3.316406 c 0.272371,0.37644 0.558877,0.735889 0.873047,1.068359 -1.16433,0.95754 -2.590152,1.653737 -4.320312,2.154297 0.17413,0.18497 0.435529,0.577548 0.511719,0.773438 L 21.5625,31 H 32 v -7.050781 l -2.109375,-2.109375 h -2.677734 z"
       transform="translate(384.57143,515.798)" />
    <path
       d="m 411.85109,538.4313 c -0.55495,1.53428 -1.31665,2.78564 -2.31774,3.79762 -1.03374,-1.0555 -1.80632,-2.33951 -2.33951,-3.79762 z m 2.61154,0 v -0.79434 h -4.51579 V 535.798 h -0.81611 v 1.83896 H 404.702 v 0.79434 h 1.59957 c 0.62024,1.73015 1.46899,3.19914 2.58978,4.38521 -1.16432,0.95757 -2.58978,1.65398 -4.31992,2.15452 0.17408,0.18499 0.43525,0.57672 0.51142,0.77258 1.75191,-0.56583 3.2209,-1.31665 4.41786,-2.3395 1.19695,1.07726 2.67682,1.86072 4.49402,2.32862 0.1197,-0.22851 0.38085,-0.59848 0.57671,-0.78346 -1.76278,-0.4135 -3.23178,-1.15343 -4.41785,-2.15452 1.13166,-1.14255 1.9913,-2.57889 2.6333,-4.36345 z"
       style="font-size:2.87904px;line-height:1.25;font-family:'Noto Sans CJK KR';-inkscape-font-specification:'Noto Sans CJK KR';fill:url(#linearGradient2069);fill-opacity:1;stroke-width:0.582928"
       id="path26473-7" />
    <rect
       style="opacity:1;fill:#085aa2;fill-opacity:1;stroke-width:0.833848"
       id="rect2720"
       width="14"
       height="1"
       x="402.57144"
       y="546.79797" />
  </g>
</svg>
