<?xml version="1.0" encoding="UTF-8" standalone="no"?>
<!-- Created with Inkscape (http://www.inkscape.org/) -->

<svg
   width="16"
   height="16"
   viewBox="0 0 4.2333332 4.2333335"
   version="1.1"
   id="svg5"
   inkscape:version="1.1.1 (3bf5ae0d25, 2021-09-20, custom)"
   sodipodi:docname="arch-unknown-symbolic.svg"
   xmlns:inkscape="http://www.inkscape.org/namespaces/inkscape"
   xmlns:sodipodi="http://sodipodi.sourceforge.net/DTD/sodipodi-0.dtd"
   xmlns="http://www.w3.org/2000/svg"
   xmlns:svg="http://www.w3.org/2000/svg">
  <sodipodi:namedview
     id="namedview7"
     pagecolor="#ffffff"
     bordercolor="#666666"
     borderopacity="1.0"
     inkscape:pageshadow="2"
     inkscape:pageopacity="0.0"
     inkscape:pagecheckerboard="0"
     inkscape:document-units="px"
     showgrid="false"
     units="px"
     width="16px"
     inkscape:zoom="25.25"
     inkscape:cx="10.138614"
     inkscape:cy="11.841584"
     inkscape:window-width="1920"
     inkscape:window-height="1019"
     inkscape:window-x="0"
     inkscape:window-y="0"
     inkscape:window-maximized="1"
     inkscape:current-layer="svg5" />
  <defs
     id="defs2" />
  <path
     id="path846-3"
     style="fill:#242628;fill-opacity:1;stroke-width:1.54796"
     d="M 7.890625 0 C 6.5542708 0.018243742 5.2146028 0.37220333 4.0019531 1.0722656 C 0.17561201 3.2814045 -1.1368733 8.1736588 1.0722656 12 L 0.20703125 12.5 L 2.5058594 13.482422 L 2.8046875 11 L 1.9394531 11.5 C 0.0064563578 8.1519516 1.153905 3.8704967 4.5019531 1.9375 C 7.0983075 0.43894934 10.360821 0.7603898 12.615234 2.7363281 L 13.273438 1.984375 C 11.783793 0.67893197 9.9094492 0.0047481449 8.0195312 0 C 7.9764335 -0.00010827656 7.9337332 -0.0005885078 7.890625 0 z M 13.494141 2.5175781 L 13.195312 5 L 14.060547 4.5 C 14.920607 5.9896672 15.170772 7.6642158 14.888672 9.234375 A 4.0000002 4.0000002 0 0 1 15.644531 10.351562 C 16.274321 8.3013139 16.08285 6.0041017 14.925781 4 L 15.792969 3.5 L 13.494141 2.5175781 z M 8 3 L 4 7 L 6 7 L 6 12 L 8 12 A 4.0000002 4.0000002 0 0 1 10 8.5429688 L 10 7 L 12 7 L 8 3 z M 3.3847656 13.263672 L 2.7265625 14.015625 C 4.8466378 15.873542 7.7456449 16.450321 10.359375 15.642578 A 4.0000002 4.0000002 0 0 1 9.2402344 14.888672 C 7.184136 15.25836 5.0191324 14.696155 3.3847656 13.263672 z "
     transform="scale(0.26458333)" />
  <path
     id="path843-3"
     style="fill:#1d99f3;fill-opacity:1;stroke-width:0.218101"
     d="M 3.8217713,2.7153173 3.6292015,2.9078871 A 0.52916669,0.52916669 0 0 1 3.5491773,3.5491773 0.52916669,0.52916669 0 0 1 2.9078871,3.6292015 L 2.7153173,3.8217713 A 0.79374996,0.79374996 0 0 0 3.7362659,3.736266 0.79374996,0.79374996 0 0 0 3.8217713,2.7153173 Z M 3.6339518,2.5289594 A 0.79374996,0.79374996 0 0 0 2.6137339,2.613734 0.79374996,0.79374996 0 0 0 2.5289594,3.6339518 l 0.191839,-0.191839 a 0.52916669,0.52916669 0 0 1 0.080024,-0.6412902 0.52916669,0.52916669 0 0 1 0.6412902,-0.080024 z" />
</svg>
