<?xml version="1.0" encoding="UTF-8" standalone="no"?>
<!-- Created with Inkscape (http://www.inkscape.org/) -->

<svg
   xmlns:dc="http://purl.org/dc/elements/1.1/"
   xmlns:cc="http://creativecommons.org/ns#"
   xmlns:rdf="http://www.w3.org/1999/02/22-rdf-syntax-ns#"
   xmlns:svg="http://www.w3.org/2000/svg"
   xmlns="http://www.w3.org/2000/svg"
   xmlns:sodipodi="http://sodipodi.sourceforge.net/DTD/sodipodi-0.dtd"
   xmlns:inkscape="http://www.inkscape.org/namespaces/inkscape"
   id="svg7384"
   height="16"
   width="16"
   version="1.1"
   sodipodi:docname="weather-overcast-symbolic.svg"
   inkscape:version="0.92.1 r15371">
  <defs
     id="defs9" />
  <sodipodi:namedview
     pagecolor="#ffffff"
     bordercolor="#666666"
     borderopacity="1"
     objecttolerance="10"
     gridtolerance="10"
     guidetolerance="10"
     inkscape:pageopacity="0"
     inkscape:pageshadow="2"
     inkscape:window-width="1600"
     inkscape:window-height="808"
     id="namedview7"
     showgrid="false"
     inkscape:zoom="14.75"
     inkscape:cx="8"
     inkscape:cy="8"
     inkscape:window-x="0"
     inkscape:window-y="0"
     inkscape:window-maximized="1"
     inkscape:current-layer="svg7384" />
  <metadata
     id="metadata90">
    <rdf:RDF>
      <cc:Work
         rdf:about="">
        <dc:format>image/svg+xml</dc:format>
        <dc:type
           rdf:resource="http://purl.org/dc/dcmitype/StillImage" />
        <dc:title>Gnome Symbolic Icon Theme</dc:title>
      </cc:Work>
    </rdf:RDF>
  </metadata>
  <title
     id="title9167">Gnome Symbolic Icon Theme</title>
  <path
     inkscape:connector-curvature="0"
     style="opacity:1;fill:#232627;fill-opacity:1"
     d="m 8,0.99999975 c -2.07107,0 -3.83471,1.26792005 -4.59375,3.06250005 C 1.47842,4.3490998 0,5.9924197 0,7.9999998 0,10.20914 1.79086,12 4,12 H 4.40625 C 4.86012,11.19875 5.64718,10.57265 6.53125,10.3125 7.15098,8.9904698 8.50599,7.9741998 10,7.9999998 c 1.90766,-0.0307 3.58166,1.48472 3.875,3.3437502 0.14292,0.0452 0.26925,0.0908 0.40625,0.15625 C 15.31154,10.89085 16,9.7835998 16,8.4999998 c 0,-1.79654 -1.35079,-3.2687 -3.09375,-3.46875 C 12.45168,2.7378598 10.42687,0.99999975 8,0.99999975 Z m 2,8.00000005 c -1.31168,0 -2.40482,0.85843 -2.8125,2.0312502 C 5.95667,11.18722 5,12.22682 5,13.5 5,14.88071 6.11929,16 7.5,16 H 13 c 1.10457,0 2,-0.89543 2,-2 0,-1.10457 -0.89543,-2 -2,-2 0,-1.65685 -1.34315,-3.0000002 -3,-3.0000002 z m 0,1 c 1.116407,0 2,0.8835932 2,2.0000002 v 1 h 1 c 0.56413,0 1,0.43587 1,1 0,0.56413 -0.43587,1 -1,1 H 7.5 C 6.6597318,15 6,14.340268 6,13.5 6,12.727755 6.5673513,12.11786 7.3125,12.023438 l 0.615234,-0.07813 0.205078,-0.585937 C 8.408157,10.567269 9.124621,9.9999998 10,9.9999998 Z"
     id="path4492" />
</svg>
