<?xml version="1.0" encoding="UTF-8" standalone="no"?>
<svg
   width="64"
   viewBox="0 0 64 64"
   height="64"
   version="1.1"
   id="svg33"
   sodipodi:docname="application-x-hwp.svg"
   inkscape:version="1.1 (c4e8f9ed74, 2021-05-24)"
   xmlns:inkscape="http://www.inkscape.org/namespaces/inkscape"
   xmlns:sodipodi="http://sodipodi.sourceforge.net/DTD/sodipodi-0.dtd"
   xmlns:xlink="http://www.w3.org/1999/xlink"
   xmlns="http://www.w3.org/2000/svg"
   xmlns:svg="http://www.w3.org/2000/svg">
  <sodipodi:namedview
     id="namedview35"
     pagecolor="#ffffff"
     bordercolor="#666666"
     borderopacity="1.0"
     inkscape:pageshadow="2"
     inkscape:pageopacity="0.0"
     inkscape:pagecheckerboard="0"
     showgrid="false"
     inkscape:zoom="10.765625"
     inkscape:cx="31.953556"
     inkscape:cy="31.953556"
     inkscape:window-width="1920"
     inkscape:window-height="1018"
     inkscape:window-x="0"
     inkscape:window-y="0"
     inkscape:window-maximized="1"
     inkscape:current-layer="svg33" />
  <defs
     id="defs13">
    <linearGradient
       id="a"
       y1="17"
       x1="40"
       y2="31"
       gradientUnits="userSpaceOnUse"
       x2="54">
      <stop
         stop-color="#060606"
         id="stop2" />
      <stop
         offset="1"
         stop-opacity="0"
         id="stop4" />
    </linearGradient>
    <linearGradient
       id="b"
       y1="392.36"
       y2="336.36"
       gradientUnits="userSpaceOnUse"
       x2="0"
       gradientTransform="translate(-48-332.36)">
      <stop
         stop-color="#ffffff"
         stop-opacity="0"
         id="stop7" />
      <stop
         offset="1"
         stop-color="#ffffff"
         stop-opacity=".2"
         id="stop9" />
    </linearGradient>
    <path
       id="c"
       d="m10 61v-58h30l14 14v44h-14z" />
  </defs>
  <use
     fill="#eeeeee"
     xlink:href="#c"
     id="use15" />
  <g
     transform="scale(1-1)"
     id="g21">
    <rect
       width="30"
       x="10"
       opacity=".6"
       y="-4"
       fill="#ffffff"
       height="1"
       id="rect17" />
    <rect
       width="44"
       x="10"
       opacity=".15"
       y="-61"
       height="1"
       id="rect19" />
  </g>
  <g
     fill-rule="evenodd"
     id="g27">
    <path
       opacity=".5"
       d="m54 17l-14-14v14z"
       id="path23" />
    <path
       opacity=".1"
       fill="url(#a)"
       d="m40 17l14 14v-14z"
       id="path25" />
  </g>
  <path
     d="m 23,48.689656 v -6.82759 h 2.896552 v 3.931039 H 41 v 2.896551 z m 10.803941,-6.064549 c 0.0026,0.834796 -0.498289,1.588846 -1.268803,1.910109 -0.770514,0.321273 -1.658704,0.146393 -2.249919,-0.442981 -0.591218,-0.589382 -0.768858,-1.477022 -0.449994,-2.248535 0.318862,-0.771512 1.071347,-1.27474 1.906154,-1.27474 0.54618,-8.21e-4 1.070338,0.215267 1.457148,0.600872 0.38681,0.385615 0.60458,0.909097 0.605414,1.455275 z M 29.435702,29.001914 c 2.119973,-0.879113 4.56078,-0.394442 6.184022,1.22797 1.62324,1.622413 2.109161,4.06297 1.231125,6.183395 -0.878035,2.120426 -2.947065,3.502932 -5.24209,3.502932 -1.504308,4.11e-4 -2.947151,-0.596852 -4.01111,-1.660301 -1.063958,-1.063449 -1.661871,-2.506012 -1.662201,-4.010327 -0.0012,-2.294813 1.38028,-4.364546 3.500254,-5.243669 z m 4.803493,6.341168 c 0.441357,-1.060432 0.200099,-2.282337 -0.611176,-3.09545 -0.811272,-0.813112 -2.032626,-1.05713 -3.094056,-0.618179 -1.061431,0.438959 -1.753691,1.47435 -1.753691,2.62296 -0.001,0.751934 0.296843,1.473448 0.827935,2.005738 0.531096,0.5323 1.251931,0.831759 2.003862,0.83248 1.148818,0.0028 2.185773,-0.687117 2.627126,-1.747549 z M 23.62069,25.103447 h 6.827587 V 22 h 2.89655 v 3.103447 h 7.034483 l 0.01324,2.896551 H 23.62069 Z"
     id="한"
     inkscape:connector-curvature="0"
     style="fill:#209ddf;fill-opacity:1;fill-rule:evenodd;stroke:none;stroke-width:0.206896"
     inkscape:label="한" />
  <use
     fill="url(#b)"
     xlink:href="#c"
     id="use31" />
</svg>
