<?xml version="1.0" encoding="UTF-8" standalone="no"?>
<svg
   version="1.1"
   viewBox="0 0 24 24"
   id="svg5"
   sodipodi:docname="user-trash.svg"
   inkscape:version="1.1.1 (3bf5ae0d25, 2021-09-20, custom)"
   width="24"
   height="24"
   xmlns:inkscape="http://www.inkscape.org/namespaces/inkscape"
   xmlns:sodipodi="http://sodipodi.sourceforge.net/DTD/sodipodi-0.dtd"
   xmlns:xlink="http://www.w3.org/1999/xlink"
   xmlns="http://www.w3.org/2000/svg"
   xmlns:svg="http://www.w3.org/2000/svg">
  <defs
     id="defs9">
    <linearGradient
       inkscape:collect="always"
       id="linearGradient6624">
      <stop
         style="stop-color:#a7afb4;stop-opacity:1;"
         offset="0"
         id="stop6620" />
      <stop
         style="stop-color:#c2ced4;stop-opacity:1"
         offset="1"
         id="stop6622" />
    </linearGradient>
    <linearGradient
       inkscape:collect="always"
       xlink:href="#linearGradient6624"
       id="linearGradient6626"
       x1="16"
       y1="23"
       x2="6"
       y2="-1"
       gradientUnits="userSpaceOnUse"
       gradientTransform="translate(1,1)" />
  </defs>
  <sodipodi:namedview
     id="namedview7"
     pagecolor="#ffffff"
     bordercolor="#666666"
     borderopacity="1.0"
     inkscape:pageshadow="2"
     inkscape:pageopacity="0.0"
     inkscape:pagecheckerboard="0"
     showgrid="false"
     inkscape:zoom="25.777256"
     inkscape:cx="5.2953658"
     inkscape:cy="10.648922"
     inkscape:window-width="1920"
     inkscape:window-height="999"
     inkscape:window-x="0"
     inkscape:window-y="0"
     inkscape:window-maximized="1"
     inkscape:current-layer="svg5" />
  <style
     type="text/css"
     id="current-color-scheme">
        .ColorScheme-Text {
            color:#232629;
        }
       .ColorScheme-Highlight {
        color:#3daee9;
       }
    </style>
  <path
     id="rect954"
     style="opacity:1;fill:url(#linearGradient6626);fill-opacity:1;stroke-width:1.00885"
     d="M 9,1 A 1,1 0 0 0 8,2 V 4 H 4 A 1,1 0 0 0 3,5 v 1 h 2 v 16 a 1,1 0 0 0 1,1 h 12 a 1,1 0 0 0 1,-1 V 6 h 2 V 4.9648438 A 1,1 0 0 0 20.035156,4 H 16 V 2 A 1,1 0 0 0 15,1 Z m 1,2 h 4 v 1 h -4 z" />
  <path
     id="rect1810"
     class="ColorScheme-Highlight"
     style="opacity:1;fill:currentColor;fill-opacity:1;stroke-width:0.552702"
     d="M 7 8 L 7 20 L 8 20 L 8 8 L 7 8 z M 10 8 L 10 20 L 11 20 L 11 8 L 10 8 z M 13 8 L 13 20 L 14 20 L 14 8 L 13 8 z M 16 8 L 16 20 L 17 20 L 17 8 L 16 8 z " />
  <rect
     style="opacity:0.2;fill:#000000;fill-opacity:1"
     id="rect3297"
     width="18"
     height="1"
     x="3"
     y="5" />
  <path
     id="rect5186"
     style="opacity:0.2;stroke-width:0.887914"
     d="m 9,2 h 6 V 4 H 14 V 3 H 10 V 4 H 9 Z"
     sodipodi:nodetypes="ccccccccc" />
  <path
     id="rect6279"
     style="opacity:0.2;fill:#000000;fill-opacity:1;stroke-width:1.73205"
     d="m 5,21 v 1 c 0,0.554 0.446,1 1,1 h 12 c 0.554,0 1,-0.446 1,-1 v -1 c 0,0.554 -0.446,1 -1,1 H 6 C 5.446,22 5,21.554 5,21 Z" />
</svg>
