<?xml version="1.0" encoding="UTF-8" standalone="no"?>
<svg
   xmlns:dc="http://purl.org/dc/elements/1.1/"
   xmlns:cc="http://creativecommons.org/ns#"
   xmlns:rdf="http://www.w3.org/1999/02/22-rdf-syntax-ns#"
   xmlns:svg="http://www.w3.org/2000/svg"
   xmlns="http://www.w3.org/2000/svg"
   xmlns:xlink="http://www.w3.org/1999/xlink"
   xmlns:sodipodi="http://sodipodi.sourceforge.net/DTD/sodipodi-0.dtd"
   xmlns:inkscape="http://www.inkscape.org/namespaces/inkscape"
   width="48"
   height="48"
   version="1.1"
   id="svg18"
   sodipodi:docname="gnome-twofactorauth.svg"
   inkscape:version="0.92.3 (2405546, 2018-03-11)">
  <metadata
     id="metadata24">
    <rdf:RDF>
      <cc:Work
         rdf:about="">
        <dc:format>image/svg+xml</dc:format>
        <dc:type
           rdf:resource="http://purl.org/dc/dcmitype/StillImage" />
        <dc:title></dc:title>
      </cc:Work>
    </rdf:RDF>
  </metadata>
  <defs
     id="defs22">
    <linearGradient
       inkscape:collect="always"
       xlink:href="#linearGradient1961"
       id="linearGradient1213"
       x1="23.28998"
       y1="1.5773059"
       x2="24.114285"
       y2="16.4785"
       gradientUnits="userSpaceOnUse" />
    <linearGradient
       inkscape:collect="always"
       id="linearGradient1961">
      <stop
         style="stop-color:#c0bfbc;stop-opacity:1"
         offset="0"
         id="stop1957" />
      <stop
         style="stop-color:#77767b;stop-opacity:1"
         offset="1"
         id="stop1959" />
    </linearGradient>
    <linearGradient
       inkscape:collect="always"
       xlink:href="#linearGradient1961"
       id="linearGradient1198"
       x1="23.195753"
       y1="263.81354"
       x2="31.108162"
       y2="300.70804"
       gradientUnits="userSpaceOnUse"
       gradientTransform="translate(0,-252)" />
    <linearGradient
       inkscape:collect="always"
       xlink:href="#linearGradient1235"
       id="linearGradient1256"
       x1="32.828041"
       y1="19.704033"
       x2="40.617054"
       y2="27.493046"
       gradientUnits="userSpaceOnUse" />
    <linearGradient
       inkscape:collect="always"
       id="linearGradient1235">
      <stop
         style="stop-color:#000000;stop-opacity:1;"
         offset="0"
         id="stop1231" />
      <stop
         style="stop-color:#000000;stop-opacity:0;"
         offset="1"
         id="stop1233" />
    </linearGradient>
    <linearGradient
       inkscape:collect="always"
       xlink:href="#linearGradient1587"
       id="linearGradient1589"
       x1="-131.24692"
       y1="188.45129"
       x2="-147.81134"
       y2="250.27055"
       gradientUnits="userSpaceOnUse"
       gradientTransform="matrix(0.36111111,0,0,0.36111111,84.050976,-100.9642)" />
    <linearGradient
       inkscape:collect="always"
       id="linearGradient1587">
      <stop
         style="stop-color:#241f31;stop-opacity:1;"
         offset="0"
         id="stop1583" />
      <stop
         style="stop-color:#3d3846;stop-opacity:1"
         offset="1"
         id="stop1585" />
    </linearGradient>
    <filter
       id="filter4520"
       x="-0.059999999"
       y="-0.059999999"
       width="1.12"
       height="1.12"
       style="color-interpolation-filters:sRGB">
      <feGaussianBlur
         stdDeviation="1.2"
         id="feGaussianBlur100" />
    </filter>
    <linearGradient
       inkscape:collect="always"
       xlink:href="#linearGradient1235"
       id="linearGradient1237"
       x1="23.373047"
       y1="26.510742"
       x2="34.349609"
       y2="37.487305"
       gradientUnits="userSpaceOnUse" />
    <linearGradient
       inkscape:collect="always"
       xlink:href="#linearGradient1219"
       id="linearGradient1221"
       x1="25.292236"
       y1="-284.25345"
       x2="23.098551"
       y2="-276.93381"
       gradientUnits="userSpaceOnUse"
       gradientTransform="translate(0,252)" />
    <linearGradient
       inkscape:collect="always"
       id="linearGradient1219">
      <stop
         style="stop-color:#cccccc;stop-opacity:1;"
         offset="0"
         id="stop1215" />
      <stop
         style="stop-color:#f9f9f9;stop-opacity:1"
         offset="1"
         id="stop1217" />
    </linearGradient>
  </defs>
  <sodipodi:namedview
     pagecolor="#ffffff"
     bordercolor="#666666"
     borderopacity="1"
     objecttolerance="10"
     gridtolerance="10"
     guidetolerance="10"
     inkscape:pageopacity="0"
     inkscape:pageshadow="2"
     inkscape:window-width="1920"
     inkscape:window-height="1021"
     id="namedview20"
     showgrid="false"
     inkscape:zoom="4.9166667"
     inkscape:cx="-12.508474"
     inkscape:cy="24"
     inkscape:window-x="0"
     inkscape:window-y="30"
     inkscape:window-maximized="1"
     inkscape:current-layer="svg18" />
  <path
     style="display:inline;opacity:1;vector-effect:none;fill:url(#linearGradient1213);fill-opacity:1;stroke:none;stroke-width:0.375;stroke-linecap:round;stroke-linejoin:round;stroke-miterlimit:4;stroke-dasharray:none;stroke-dashoffset:0;stroke-opacity:0.6732283;enable-background:new"
     d="M 24,3 C 18.545956,3 14.000005,7.54596 14,13 v 6 h 3 v -6 c 3e-6,-3.7667 3.233294,-7 7,-7 3.766706,0 6.999997,3.2333 7,7 v 6 h 3 V 13 C 33.999995,7.54596 29.454044,3 24,3 Z"
     id="rect1204"
     inkscape:connector-curvature="0" />
  <circle
     inkscape:transform-center-y="5.4552015e-06"
     inkscape:transform-center-x="-1.6398402e-05"
     r="16"
     cy="29"
     cx="24"
     id="circle4297"
     style="display:inline;opacity:1;vector-effect:none;fill:url(#linearGradient1198);fill-opacity:1;stroke:none;stroke-width:0.69565219;stroke-linecap:butt;stroke-linejoin:round;stroke-miterlimit:4;stroke-dasharray:none;stroke-dashoffset:0;stroke-opacity:1;enable-background:new" />
  <path
     style="opacity:0.3;fill:url(#linearGradient1256);fill-opacity:1;stroke:none;stroke-width:3;stroke-linecap:round;stroke-linejoin:round;stroke-miterlimit:4;stroke-dasharray:none;stroke-dashoffset:0;stroke-opacity:1;paint-order:normal"
     d="m 25.396484,17.875 -5.4375,0.533203 3.779297,3.515625 -9.736328,12.166016 0.720703,4.003906 6.673828,6.673828 A 16,16 0 0 0 24,45 16,16 0 0 0 40,29 16,16 0 0 0 39.78125,26.392578 l -6.853516,-6.853516 z"
     id="rect1239"
     inkscape:connector-curvature="0" />
  <circle
     cx="30.68799"
     cy="-21.800194"
     r="13"
     transform="matrix(0.96592582,0.25881906,0.25881906,-0.96592582,0,0)"
     id="circle4301"
     style="display:inline;opacity:1;vector-effect:none;fill:url(#linearGradient1589);fill-opacity:1;stroke:none;stroke-width:0.86666662;stroke-linecap:butt;stroke-linejoin:round;stroke-miterlimit:4;stroke-dasharray:none;stroke-dashoffset:0;stroke-opacity:1;enable-background:new" />
  <path
     style="fill:none;stroke:#f6f5f4;stroke-width:0.7058773;stroke-linecap:butt;stroke-linejoin:miter;stroke-miterlimit:4;stroke-dasharray:none;stroke-opacity:1"
     d="m 24,16.99999 v 2.11858 z m -2.340545,0.2299 0.275475,1.3853 z m 4.68109,0 -0.275475,1.3853 z m -6.932453,0.68373 0.539059,1.30404 z m 9.183816,0 -0.539059,1.30404 z m -11.258794,1.10784 0.784805,1.17523 z m 13.333772,0 -0.784805,1.17523 z m -15.153095,1.4943 1.498265,1.49629 z m 16.972418,0 -1.498265,1.49629 z m -18.464739,1.81735 1.175227,0.7848 z m 19.95706,0 -1.175227,0.7848 z m -21.064905,2.07497 1.304046,0.53906 z m 22.17275,0 -1.304046,0.53906 z m -22.856482,2.25137 1.385301,0.27547 z m 23.540214,0 -1.385301,0.27547 z M 12,28.99999 h 2.11858 z m 21.88142,0 H 36 Z m -20.266226,2.06507 -1.385301,0.27548 z m 20.769612,0 1.385301,0.27548 z m -20.167135,1.98778 -1.304046,0.53906 z m 19.564658,0 1.304046,0.53906 z m -18.585632,1.82923 -1.175227,0.78481 z m 17.606606,0 1.175227,0.78481 z m -15.791247,1.10587 -1.496284,1.49826 z m 13.975888,0 1.496284,1.49826 z m -12.870025,1.81535 -0.784805,1.17523 z m 11.764162,0 0.784805,1.17523 z m -9.93493,0.97903 -0.539059,1.30405 z m 8.105698,0 0.539059,1.30405 z M 24,38.88142 V 41 Z m -2.06507,0.50339 -0.275475,1.3853 z m 4.13014,0 0.275475,1.3853 z"
     id="path4367"
     inkscape:connector-curvature="0" />
  <path
     id="path1538"
     style="fill:#1a1a1a;fill-opacity:0.4;fill-rule:evenodd;filter:url(#filter4520);enable-background:new"
     d="m 527.04,1123.5 -24,48 h 48 z"
     inkscape:connector-curvature="0"
     transform="matrix(0.08693281,0,0,0.08693281,-21.817685,-75.96786)" />
  <path
     sodipodi:nodetypes="cccc"
     id="path1540"
     style="fill:#ed333b;fill-rule:evenodd;stroke:none;stroke-width:0.08693281px;enable-background:new"
     d="m 24,21.34783 -2.086957,4.17391 h 4.173913 z"
     inkscape:connector-curvature="0" />
  <path
     sodipodi:nodetypes="cccc"
     id="path1542"
     style="fill:#ffffff;fill-opacity:0.37344402;fill-rule:evenodd;stroke-width:0.08693281;enable-background:new"
     d="m 23.999431,21.34897 -2.086388,4.17277 h 2.086388 z"
     inkscape:connector-curvature="0" />
  <path
     style="opacity:0.3;fill:url(#linearGradient1237);fill-opacity:1;stroke:none;stroke-width:2.249264;stroke-linecap:round;stroke-linejoin:round;stroke-miterlimit:4;stroke-dasharray:none;stroke-dashoffset:0;stroke-opacity:1;paint-order:normal"
     d="M 25.015625,25.521484 21.730469,27.5 l 0.410156,0.410156 -0.796875,1.94336 -0.173828,1.375 11.322266,11.322265 a 16,16 0 0 0 5.308593,-5.486328 L 26.628906,25.892578 Z"
     id="rect1223"
     inkscape:connector-curvature="0" />
  <circle
     id="circle1550"
     style="display:inline;fill:url(#linearGradient1221);fill-opacity:1;stroke-width:0;enable-background:new"
     r="3.8260868"
     cy="-28.652191"
     cx="24"
     transform="scale(1,-1)" />
  <path
     style="display:inline;opacity:0.2;vector-effect:none;fill:#000000;fill-opacity:1;stroke:none;stroke-width:0.69565219;stroke-linecap:butt;stroke-linejoin:round;stroke-miterlimit:4;stroke-dasharray:none;stroke-dashoffset:0;stroke-opacity:1;enable-background:new"
     d="M 39.978516,28.419922 A 16,16 0 0 1 24,44 16,16 0 0 1 8.0214844,28.580078 16,16 0 0 0 8,29 16,16 0 0 0 24,45 16,16 0 0 0 40,29 16,16 0 0 0 39.978516,28.419922 Z"
     id="circle1259"
     inkscape:connector-curvature="0" />
</svg>
