<?xml version="1.0" encoding="UTF-8" standalone="no"?>
<svg
   xmlns:dc="http://purl.org/dc/elements/1.1/"
   xmlns:cc="http://creativecommons.org/ns#"
   xmlns:rdf="http://www.w3.org/1999/02/22-rdf-syntax-ns#"
   xmlns:svg="http://www.w3.org/2000/svg"
   xmlns="http://www.w3.org/2000/svg"
   xmlns:xlink="http://www.w3.org/1999/xlink"
   xmlns:sodipodi="http://sodipodi.sourceforge.net/DTD/sodipodi-0.dtd"
   xmlns:inkscape="http://www.inkscape.org/namespaces/inkscape"
   viewBox="0 0 48 48"
   style="display:inline;enable-background:new"
   version="1.0"
   id="svg11300"
   height="48"
   width="48"
   sodipodi:docname="gnome-mpv.svg"
   inkscape:version="0.92.3 (2405546, 2018-03-11)">
  <sodipodi:namedview
     pagecolor="#ffffff"
     bordercolor="#666666"
     borderopacity="1"
     objecttolerance="10"
     gridtolerance="10"
     guidetolerance="10"
     inkscape:pageopacity="0"
     inkscape:pageshadow="2"
     inkscape:window-width="1920"
     inkscape:window-height="1020"
     id="namedview28"
     showgrid="false"
     inkscape:zoom="7.87"
     inkscape:cx="15.495893"
     inkscape:cy="13.663808"
     inkscape:window-x="0"
     inkscape:window-y="30"
     inkscape:window-maximized="1"
     inkscape:current-layer="svg11300">
    <inkscape:grid
       type="xygrid"
       id="grid913" />
  </sodipodi:namedview>
  <title
     id="title4162">Adwaita Icon Template</title>
  <defs
     id="defs3">
    <linearGradient
       inkscape:collect="always"
       id="linearGradient977">
      <stop
         style="stop-color:#ffffff;stop-opacity:1;"
         offset="0"
         id="stop973" />
      <stop
         style="stop-color:#ffffff;stop-opacity:0;"
         offset="1"
         id="stop975" />
    </linearGradient>
    <linearGradient
       inkscape:collect="always"
       id="linearGradient949">
      <stop
         style="stop-color:#000000;stop-opacity:1;"
         offset="0"
         id="stop945" />
      <stop
         style="stop-color:#000000;stop-opacity:0;"
         offset="1"
         id="stop947" />
    </linearGradient>
    <linearGradient
       inkscape:collect="always"
       id="linearGradient932">
      <stop
         style="stop-color:#000000;stop-opacity:1;"
         offset="0"
         id="stop928" />
      <stop
         style="stop-color:#000000;stop-opacity:0;"
         offset="1"
         id="stop930" />
    </linearGradient>
    <linearGradient
       id="linearGradient1965">
      <stop
         style="stop-color:#62a0ea;stop-opacity:1"
         offset="0"
         id="stop1961" />
      <stop
         style="stop-color:#1a5fb4;stop-opacity:1"
         offset="1"
         id="stop1963" />
    </linearGradient>
    <linearGradient
       id="linearGradient1959">
      <stop
         style="stop-color:#ed333b;stop-opacity:1"
         offset="0"
         id="stop1955" />
      <stop
         style="stop-color:#1a5fb4;stop-opacity:0"
         offset="1"
         id="stop1957" />
    </linearGradient>
    <radialGradient
       r="225"
       fy="-1136.1257"
       fx="58.953751"
       cy="-1136.1257"
       cx="58.953751"
       gradientTransform="matrix(0.10985749,0,0,0.07405465,4.3912626,93.000933)"
       gradientUnits="userSpaceOnUse"
       id="radialGradient2319"
       xlink:href="#linearGradient1965" />
    <linearGradient
       inkscape:collect="always"
       xlink:href="#linearGradient932"
       id="linearGradient934"
       x1="19.022686"
       y1="15.481071"
       x2="39.819035"
       y2="36.27742"
       gradientUnits="userSpaceOnUse" />
    <linearGradient
       inkscape:collect="always"
       xlink:href="#linearGradient949"
       id="linearGradient951"
       x1="16.057991"
       y1="31.925257"
       x2="23.281139"
       y2="39.148407"
       gradientUnits="userSpaceOnUse" />
    <linearGradient
       inkscape:collect="always"
       xlink:href="#linearGradient1959"
       id="linearGradient971"
       x1="25.786982"
       y1="39.949703"
       x2="25.786982"
       y2="6.8136096"
       gradientUnits="userSpaceOnUse" />
    <linearGradient
       inkscape:collect="always"
       xlink:href="#linearGradient977"
       id="linearGradient979"
       x1="23.573965"
       y1="9.822485"
       x2="25.136095"
       y2="30.059172"
       gradientUnits="userSpaceOnUse" />
  </defs>
  <metadata
     id="metadata4">
    <rdf:RDF>
      <cc:Work
         rdf:about="">
        <dc:format>image/svg+xml</dc:format>
        <dc:type
           rdf:resource="http://purl.org/dc/dcmitype/StillImage" />
        <dc:creator>
          <cc:Agent>
            <dc:title>GNOME Design Team</dc:title>
          </cc:Agent>
        </dc:creator>
        <dc:source />
        <cc:license
           rdf:resource="http://creativecommons.org/licenses/by-sa/4.0/" />
        <dc:title>Adwaita Icon Template</dc:title>
        <dc:subject>
          <rdf:Bag />
        </dc:subject>
        <dc:date />
        <dc:rights>
          <cc:Agent>
            <dc:title />
          </cc:Agent>
        </dc:rights>
        <dc:publisher>
          <cc:Agent>
            <dc:title />
          </cc:Agent>
        </dc:publisher>
        <dc:identifier />
        <dc:relation />
        <dc:language />
        <dc:coverage />
        <dc:description />
        <dc:contributor>
          <cc:Agent>
            <dc:title />
          </cc:Agent>
        </dc:contributor>
      </cc:Work>
      <cc:License
         rdf:about="http://creativecommons.org/licenses/by-sa/4.0/">
        <cc:permits
           rdf:resource="http://creativecommons.org/ns#Reproduction" />
        <cc:permits
           rdf:resource="http://creativecommons.org/ns#Distribution" />
        <cc:requires
           rdf:resource="http://creativecommons.org/ns#Notice" />
        <cc:requires
           rdf:resource="http://creativecommons.org/ns#Attribution" />
        <cc:permits
           rdf:resource="http://creativecommons.org/ns#DerivativeWorks" />
        <cc:requires
           rdf:resource="http://creativecommons.org/ns#ShareAlike" />
      </cc:License>
    </rdf:RDF>
  </metadata>
  <path
     inkscape:connector-curvature="0"
     id="rect1792-1-3"
     d="M 2.0000001,7 V 40 H 5 v -3 h 3 v 3 h 32 v -3 h 3 v 3 h 3 V 7 h -3 v 3 H 40 V 7 H 8 v 3 H 5 V 7 Z M 5,13 h 3 v 3 H 5 Z m 35,0 h 3 v 3 H 40 Z M 5,19 h 3 v 3 H 5 Z m 35,0 h 3 v 3 H 40 Z M 5,25 h 3 v 3 H 5 Z m 35,0 h 3 v 3 H 40 Z M 5,31 h 3 v 3 H 5 Z m 35,0 h 3 v 3 h -3 z"
     style="display:inline;opacity:1;vector-effect:none;fill:url(#radialGradient2319);fill-opacity:1;stroke:none;stroke-width:0.1293719;stroke-linecap:butt;stroke-linejoin:bevel;stroke-miterlimit:4;stroke-dasharray:0.12937189, 0.25874377;stroke-dashoffset:0;stroke-opacity:0.94881891;marker:none;marker-start:none;marker-mid:none;marker-end:none;paint-order:normal;enable-background:new"
     sodipodi:nodetypes="ccccccccccccccccccccccccccccccccccccccccccccccccccccccccccccc" />
  <path
     sodipodi:nodetypes="ccccccccccccccccccccccccccccccccccccccccccccccccccccccccccccc"
     style="display:inline;opacity:0.7;vector-effect:none;fill:url(#linearGradient971);fill-opacity:1;stroke:none;stroke-width:0.1293719;stroke-linecap:butt;stroke-linejoin:bevel;stroke-miterlimit:4;stroke-dasharray:0.12937189, 0.25874376999999998;stroke-dashoffset:0;stroke-opacity:0.94881891;marker:none;marker-start:none;marker-mid:none;marker-end:none;paint-order:normal;enable-background:new"
     d="M 2.0000001,7 V 40 H 5 v -3 h 3 v 3 h 32 v -3 h 3 v 3 h 3 V 7 h -3 v 3 H 40 V 7 H 8 v 3 H 5 V 7 Z M 5,13 h 3 v 3 H 5 Z m 35,0 h 3 v 3 H 40 Z M 5,19 h 3 v 3 H 5 Z m 35,0 h 3 v 3 H 40 Z M 5,25 h 3 v 3 H 5 Z m 35,0 h 3 v 3 H 40 Z M 5,31 h 3 v 3 H 5 Z m 35,0 h 3 v 3 h -3 z"
     id="path953"
     inkscape:connector-curvature="0" />
  <rect
     ry="0.5"
     rx="0.75"
     y="33"
     x="12"
     height="1"
     width="24"
     id="rect2327"
     style="opacity:0.5;vector-effect:none;fill:#ffffff;fill-opacity:1;stroke:none;stroke-width:0.10167405;stroke-linecap:butt;stroke-linejoin:bevel;stroke-miterlimit:4;stroke-dasharray:0.10167405, 0.20334810000000000;stroke-dashoffset:0;stroke-opacity:0.94881891;marker:none;marker-start:none;marker-mid:none;marker-end:none;paint-order:normal" />
  <path
     style="opacity:0.3;fill:url(#linearGradient934);fill-opacity:1;stroke:none;stroke-width:2;stroke-linecap:round;stroke-linejoin:round;stroke-miterlimit:4;stroke-dasharray:none;stroke-dashoffset:0;stroke-opacity:1;paint-order:normal"
     d="M 29.601562 14.291016 A 8.0000003 8.0000003 0 0 1 32 20 A 8.0000003 8.0000003 0 0 1 24 28 A 8.0000003 8.0000003 0 0 1 18.441406 25.751953 L 32.689453 40 L 46 40 L 46 30.689453 L 29.601562 14.291016 z M 18.349609 25.660156 L 18.398438 25.708984 A 8.0000003 8.0000003 0 0 1 18.353516 25.660156 L 18.349609 25.660156 z "
     id="rect920" />
  <path
     style="opacity:1;vector-effect:none;fill:url(#linearGradient979);fill-opacity:1;stroke:none;stroke-width:0.13282643;stroke-linecap:butt;stroke-linejoin:bevel;stroke-miterlimit:4;stroke-dasharray:0.13282643, 0.26565284000000000;stroke-dashoffset:0;stroke-opacity:0.94881891;marker:none;marker-start:none;marker-mid:none;marker-end:none;paint-order:normal"
     d="M 24 12 A 8.0000003 8.0000003 0 0 0 16 20 A 8.0000003 8.0000003 0 0 0 24 28 A 8.0000003 8.0000003 0 0 0 32 20 A 8.0000003 8.0000003 0 0 0 24 12 z M 21 16 L 21.707031 16 L 21.78125 16 C 21.917765 15.9988 22.051124 16.030579 22.169922 16.099609 L 27.634766 19.300781 C 27.877265 19.438289 28 19.71876 28 20 C 28 20.281241 27.877265 20.561707 27.634766 20.699219 L 22.169922 23.900391 C 22.051124 23.969351 21.917765 24.0008 21.78125 24 L 21.707031 24 L 21 24 L 21 16 z "
     id="path917" />
  <path
     style="opacity:0.3;fill:url(#linearGradient951);fill-opacity:1;stroke:none;stroke-width:2;stroke-linecap:round;stroke-linejoin:round;stroke-miterlimit:4;stroke-dasharray:none;stroke-dashoffset:0;stroke-opacity:1;paint-order:normal"
     d="M 17.455078 31.185547 L 16.996094 31.646484 L 16.900391 31.550781 L 15.550781 33.724609 L 15.720703 35.257812 L 20.462891 40 L 27.539062 40 L 19.21875 31.679688 L 17.455078 31.185547 z "
     id="rect936" />
  <rect
     ry="2.5"
     rx="2.5"
     y="31"
     x="15"
     height="5"
     width="5"
     id="rect2327-4"
     style="display:inline;opacity:1;vector-effect:none;fill:#ffffff;fill-opacity:1;stroke:none;stroke-width:0.10377063;stroke-linecap:butt;stroke-linejoin:bevel;stroke-miterlimit:4;stroke-dasharray:0.10377064, 0.20754128;stroke-dashoffset:0;stroke-opacity:0.94881891;marker:none;marker-start:none;marker-mid:none;marker-end:none;paint-order:normal;enable-background:new" />
  <path
     style="display:inline;opacity:0.2;vector-effect:none;fill:#000000;fill-opacity:1;stroke:none;stroke-width:0.1293719;stroke-linecap:butt;stroke-linejoin:bevel;stroke-miterlimit:4;stroke-dasharray:0.12937189, 0.25874376999999998;stroke-dashoffset:0;stroke-opacity:0.94881891;marker:none;marker-start:none;marker-mid:none;marker-end:none;paint-order:normal;enable-background:new"
     d="M 5 12 L 5 13 L 8 13 L 8 12 L 5 12 z M 40 12 L 40 13 L 43 13 L 43 12 L 40 12 z M 5 18 L 5 19 L 8 19 L 8 18 L 5 18 z M 40 18 L 40 19 L 43 19 L 43 18 L 40 18 z M 5 24 L 5 25 L 8 25 L 8 24 L 5 24 z M 40 24 L 40 25 L 43 25 L 43 24 L 40 24 z M 5 30 L 5 31 L 8 31 L 8 30 L 5 30 z M 40 30 L 40 31 L 43 31 L 43 30 L 40 30 z M 5 36 L 5 37 L 8 37 L 8 36 L 5 36 z M 40 36 L 40 37 L 43 37 L 43 36 L 40 36 z M 2 39 L 2 40 L 5 40 L 5 39 L 2 39 z M 8 39 L 8 40 L 40 40 L 40 39 L 8 39 z M 43 39 L 43 40 L 46 40 L 46 39 L 43 39 z "
     id="path984" />
</svg>
