<?xml version="1.0" encoding="UTF-8" standalone="no"?>
<svg
   xmlns:dc="http://purl.org/dc/elements/1.1/"
   xmlns:cc="http://creativecommons.org/ns#"
   xmlns:rdf="http://www.w3.org/1999/02/22-rdf-syntax-ns#"
   xmlns:svg="http://www.w3.org/2000/svg"
   xmlns="http://www.w3.org/2000/svg"
   xmlns:xlink="http://www.w3.org/1999/xlink"
   xmlns:sodipodi="http://sodipodi.sourceforge.net/DTD/sodipodi-0.dtd"
   xmlns:inkscape="http://www.inkscape.org/namespaces/inkscape"
   width="48"
   height="48"
   version="1.1"
   id="svg33"
   sodipodi:docname="guake-prefs.svg"
   inkscape:version="0.92.3 (2405546, 2018-03-11)">
  <metadata
     id="metadata37">
    <rdf:RDF>
      <cc:Work
         rdf:about="">
        <dc:format>image/svg+xml</dc:format>
        <dc:type
           rdf:resource="http://purl.org/dc/dcmitype/StillImage" />
        <dc:title />
      </cc:Work>
    </rdf:RDF>
  </metadata>
  <sodipodi:namedview
     pagecolor="#ffffff"
     bordercolor="#666666"
     borderopacity="1"
     objecttolerance="10"
     gridtolerance="10"
     guidetolerance="10"
     inkscape:pageopacity="0"
     inkscape:pageshadow="2"
     inkscape:window-width="1920"
     inkscape:window-height="1020"
     id="namedview35"
     showgrid="true"
     inkscape:zoom="12.14"
     inkscape:cx="10.26237"
     inkscape:cy="24"
     inkscape:window-x="0"
     inkscape:window-y="30"
     inkscape:window-maximized="1"
     inkscape:current-layer="svg33">
    <inkscape:grid
       type="xygrid"
       id="grid828" />
  </sodipodi:namedview>
  <defs
     id="defs17">
    <linearGradient
       inkscape:collect="always"
       id="linearGradient848">
      <stop
         style="stop-color:#ffffff;stop-opacity:1;"
         offset="0"
         id="stop844" />
      <stop
         style="stop-color:#ffffff;stop-opacity:0;"
         offset="1"
         id="stop846" />
    </linearGradient>
    <linearGradient
       inkscape:collect="always"
       id="linearGradient4526">
      <stop
         style="stop-color:#54d688;stop-opacity:1"
         offset="0"
         id="stop4522" />
      <stop
         style="stop-color:#239551;stop-opacity:1"
         offset="1"
         id="stop4524" />
    </linearGradient>
    <linearGradient
       id="b"
       y1="523.8"
       x1="403.57"
       y2="536.8"
       x2="416.57"
       gradientUnits="userSpaceOnUse"
       gradientTransform="translate(-384.57,-499.8)">
      <stop
         stop-color="#292c2f"
         id="stop7" />
      <stop
         offset="1"
         stop-opacity="0"
         id="stop9" />
    </linearGradient>
    <linearGradient
       id="c"
       y1="34"
       y2="14"
       gradientUnits="userSpaceOnUse"
       x2="0">
      <stop
         stop-color="#2a2c2f"
         id="stop12" />
      <stop
         offset="1"
         stop-color="#424649"
         id="stop14" />
    </linearGradient>
    <linearGradient
       inkscape:collect="always"
       xlink:href="#linearGradient4526"
       id="linearGradient4528"
       x1="23.932211"
       y1="4.0677853"
       x2="23.932211"
       y2="43.322021"
       gradientUnits="userSpaceOnUse" />
    <linearGradient
       inkscape:collect="always"
       xlink:href="#linearGradient848"
       id="linearGradient850"
       x1="20"
       y1="2"
       x2="27"
       y2="48"
       gradientUnits="userSpaceOnUse" />
  </defs>
  <rect
     style="fill:url(#linearGradient4528);fill-opacity:1"
     id="rect19"
     height="40"
     rx="0"
     y="3.9999878"
     x="4.0000072"
     width="40" />
  <path
     style="opacity:1;fill:url(#linearGradient850);fill-opacity:1;stroke:none;stroke-width:1.89736652;stroke-linecap:round;stroke-linejoin:round;stroke-miterlimit:4;stroke-dasharray:none;stroke-dashoffset:0;stroke-opacity:1;paint-order:normal"
     d="M 21 6 L 21 9.3203125 A 15 15 0 0 0 15.734375 11.492188 L 13.392578 9.1503906 L 9.1503906 13.392578 L 11.494141 15.736328 A 15 15 0 0 0 9.3046875 21 L 6 21 L 6 27 L 9.3203125 27 A 15 15 0 0 0 11.492188 32.265625 L 9.1503906 34.607422 L 13.392578 38.849609 L 15.736328 36.505859 A 15 15 0 0 0 21 38.695312 L 21 42 L 27 42 L 27 38.679688 A 15 15 0 0 0 32.265625 36.507812 L 34.607422 38.849609 L 38.849609 34.607422 L 36.505859 32.263672 A 15 15 0 0 0 38.695312 27 L 42 27 L 42 21 L 38.679688 21 A 15 15 0 0 0 36.507812 15.734375 L 38.849609 13.392578 L 34.607422 9.1503906 L 32.263672 11.494141 A 15 15 0 0 0 27 9.3046875 L 27 6 L 21 6 z M 24 13 A 11 11 0 0 1 35 24 A 11 11 0 0 1 24 35 A 11 11 0 0 1 13 24 A 11 11 0 0 1 24 13 z "
     id="rect830" />
  <rect
     style="fill:#07131f;fill-opacity:1;opacity:0.2"
     id="rect21"
     height="1"
     y="42.999989"
     x="4.0000072"
     width="40" />
  <path
     inkscape:connector-curvature="0"
     style="fill:url(#c)"
     id="path23"
     d="M 20.414,14 19,15.414 27.586,24 19,32.586 20.414,34 30.414,24 29,22.586 Z" />
  <path
     d="m 20.42,34 9.586,9.586 h 14 v -6 L 30.42,24 Z"
     id="path25"
     style="opacity:0.4;fill:url(#b);fill-rule:evenodd"
     inkscape:connector-curvature="0" />
</svg>
