<?xml version="1.0" encoding="UTF-8" standalone="no"?>
<svg
   xmlns:dc="http://purl.org/dc/elements/1.1/"
   xmlns:cc="http://creativecommons.org/ns#"
   xmlns:rdf="http://www.w3.org/1999/02/22-rdf-syntax-ns#"
   xmlns:svg="http://www.w3.org/2000/svg"
   xmlns="http://www.w3.org/2000/svg"
   xmlns:xlink="http://www.w3.org/1999/xlink"
   xmlns:sodipodi="http://sodipodi.sourceforge.net/DTD/sodipodi-0.dtd"
   xmlns:inkscape="http://www.inkscape.org/namespaces/inkscape"
   id="Layer_1"
   x="0px"
   y="0px"
   width="48"
   height="48"
   viewBox="0 0 48 48"
   xml:space="preserve"
   version="1.1"
   sodipodi:docname="livepatch.svg"
   inkscape:version="0.92.3 (2405546, 2018-03-11)"><metadata
   id="metadata11"><rdf:RDF><cc:Work
       rdf:about=""><dc:format>image/svg+xml</dc:format><dc:type
         rdf:resource="http://purl.org/dc/dcmitype/StillImage" /><dc:title /></cc:Work></rdf:RDF></metadata><defs
   id="defs9"><linearGradient
     inkscape:collect="always"
     id="linearGradient857"><stop
       style="stop-color:#ffffff;stop-opacity:1;"
       offset="0"
       id="stop853" /><stop
       style="stop-color:#ffffff;stop-opacity:0;"
       offset="1"
       id="stop855" /></linearGradient><linearGradient
     inkscape:collect="always"
     id="linearGradient844"><stop
       style="stop-color:#000000;stop-opacity:1;"
       offset="0"
       id="stop840" /><stop
       style="stop-color:#000000;stop-opacity:0;"
       offset="1"
       id="stop842" /></linearGradient><linearGradient
     inkscape:collect="always"
     id="linearGradient826"><stop
       style="stop-color:#d94815;stop-opacity:1;"
       offset="0"
       id="stop822" /><stop
       style="stop-color:#f28c69;stop-opacity:1"
       offset="1"
       id="stop824" /></linearGradient><linearGradient
     inkscape:collect="always"
     xlink:href="#linearGradient826"
     id="linearGradient828"
     x1="35.777958"
     y1="41.860016"
     x2="22.921963"
     y2="3.2437651"
     gradientUnits="userSpaceOnUse" /><linearGradient
     inkscape:collect="always"
     xlink:href="#linearGradient844"
     id="linearGradient846"
     x1="26.823771"
     y1="21.576252"
     x2="38.589027"
     y2="33.341511"
     gradientUnits="userSpaceOnUse" /><linearGradient
     inkscape:collect="always"
     xlink:href="#linearGradient844"
     id="linearGradient848"
     x1="22.857895"
     y1="10.059294"
     x2="29.317747"
     y2="10.059294"
     gradientUnits="userSpaceOnUse"
     gradientTransform="rotate(45)" /><linearGradient
     inkscape:collect="always"
     xlink:href="#linearGradient857"
     id="linearGradient859"
     x1="22.496347"
     y1="11.437255"
     x2="28.675159"
     y2="47.371437"
     gradientUnits="userSpaceOnUse" /></defs><sodipodi:namedview
   pagecolor="#ffffff"
   bordercolor="#666666"
   borderopacity="1"
   objecttolerance="10"
   gridtolerance="10"
   guidetolerance="10"
   inkscape:pageopacity="0"
   inkscape:pageshadow="2"
   inkscape:window-width="1920"
   inkscape:window-height="1026"
   id="namedview7"
   showgrid="false"
   inkscape:zoom="10.1"
   inkscape:cx="18.973254"
   inkscape:cy="13.63538"
   inkscape:window-x="0"
   inkscape:window-y="30"
   inkscape:window-maximized="1"
   inkscape:current-layer="Layer_1"><inkscape:grid
     type="xygrid"
     id="grid830" /></sodipodi:namedview> <style
   type="text/css"
   id="style2"> .st0{fill:#E95420;} </style> <path
   style="fill:url(#linearGradient828);stroke-width:0.1;fill-opacity:1"
   d="M 24,4 C 12.97,4 4,12.97 4,24 4,35.03 12.97,44 24,44 35.03,44 44,35.03 44,24 44,12.97 35.03,4 24,4 Z"
   id="path820" /> <path
   style="opacity:0.3;fill:url(#linearGradient846);fill-opacity:1;stroke:none;stroke-width:1;stroke-linecap:round;stroke-linejoin:round;stroke-miterlimit:4;stroke-dasharray:none;stroke-dashoffset:0;stroke-opacity:1;paint-order:normal"
   d="M 32.845703 15.736328 C 34.815512 17.891463 36 20.80832 36 24.021484 C 36 30.61963 30.619459 36 24.011719 36 C 20.976935 36 18.206335 34.811995 16.091797 32.896484 L 26.974609 43.779297 C 35.71789 42.47086 42.621147 35.483683 43.8125 26.703125 L 32.845703 15.736328 z "
   id="rect832" /><path
   style="opacity:0.3;fill:url(#linearGradient848);fill-opacity:1;stroke:none;stroke-width:0.21876501;stroke-linecap:round;stroke-linejoin:round;stroke-miterlimit:4;stroke-dasharray:none;stroke-dashoffset:0;stroke-opacity:1;paint-order:normal"
   d="M 8.4648438 24.720703 L 8.4648438 24.726562 L 13.728516 29.990234 C 12.849416 28.500022 12.266102 26.820303 12.082031 25.039062 L 12.082031 25.029297 L 9.2519531 25.029297 C 8.9496771 25.029297 8.6778887 24.911052 8.4648438 24.720703 z "
   id="rect836" /><path
   style="fill:url(#linearGradient859);stroke-width:0.09590334;fill-opacity:1"
   d="m 24.012083,35.999998 c -6.195356,0 -11.307004,-4.927943 -11.930376,-10.960262 v -0.0096 H 9.2524443 c -0.4891071,0 -0.9206722,-0.28771 -1.1028886,-0.738456 -0.1822163,-0.450745 -0.086313,-0.968623 0.258939,-1.304285 L 13.577799,17.408 c 0.469926,-0.469927 1.227563,-0.469927 1.697489,0 l 5.311723,5.512263 c 0.249349,0.220577 0.412385,0.546649 0.412385,0.911082 0,0.661733 -0.537059,1.198791 -1.198792,1.198791 h -2.875778 c 0.575419,3.394978 3.538832,6.184276 7.087257,6.184276 3.970397,0 7.19275,-3.222352 7.19275,-7.19275 0,-3.960808 -2.822644,-7.19275 -6.793041,-7.19275 -1.323466,0 -2.397584,-1.074117 -2.397584,-2.397584 0,-1.323466 1.074118,-2.397583 2.397584,-2.397583 6.60774,0 11.588208,5.380177 11.588208,11.987917 0,6.598146 -5.380177,11.978323 -11.987917,11.978323 z"
   id="path4"
   inkscape:connector-curvature="0"
   sodipodi:nodetypes="cccssccccsscsssssscc" /><path
   style="fill:#000000;stroke-width:0.1;fill-opacity:1;opacity:0.2"
   d="M 4.0117188 23.5 C 4.0075935 23.666774 4 23.832249 4 24 C 4 35.03 12.97 44 24 44 C 35.03 44 44 35.03 44 24 C 44 23.832249 43.992407 23.666774 43.988281 23.5 C 43.721162 34.298968 34.862249 43 24 43 C 13.137751 43 4.2788383 34.298968 4.0117188 23.5 z "
   id="path830" /></svg>