<?xml version="1.0" encoding="UTF-8" standalone="no"?>
<!-- Created with Inkscape (http://www.inkscape.org/) -->

<svg
   xmlns:dc="http://purl.org/dc/elements/1.1/"
   xmlns:cc="http://creativecommons.org/ns#"
   xmlns:rdf="http://www.w3.org/1999/02/22-rdf-syntax-ns#"
   xmlns:svg="http://www.w3.org/2000/svg"
   xmlns="http://www.w3.org/2000/svg"
   xmlns:xlink="http://www.w3.org/1999/xlink"
   xmlns:sodipodi="http://sodipodi.sourceforge.net/DTD/sodipodi-0.dtd"
   xmlns:inkscape="http://www.inkscape.org/namespaces/inkscape"
   width="48"
   version="1.1"
   height="48"
   id="svg63"
   sodipodi:docname="mate-inhibit-applet.svg"
   inkscape:version="0.92.3 (2405546, 2018-03-11)">
  <sodipodi:namedview
     pagecolor="#ffffff"
     bordercolor="#666666"
     borderopacity="1"
     objecttolerance="10"
     gridtolerance="10"
     guidetolerance="10"
     inkscape:pageopacity="0"
     inkscape:pageshadow="2"
     inkscape:window-width="1920"
     inkscape:window-height="1020"
     id="namedview65"
     showgrid="true"
     inkscape:zoom="8.46"
     inkscape:cx="10.250591"
     inkscape:cy="32"
     inkscape:window-x="0"
     inkscape:window-y="30"
     inkscape:window-maximized="1"
     inkscape:current-layer="layer1">
    <inkscape:grid
       type="xygrid"
       id="grid895" />
  </sodipodi:namedview>
  <defs
     id="defs5455">
    <linearGradient
       inkscape:collect="always"
       id="linearGradient4251-0">
      <stop
         style="stop-color:#63984b"
         id="stop4253-4" />
      <stop
         offset="1"
         style="stop-color:#8fc278"
         id="stop4255-2" />
    </linearGradient>
    <linearGradient
       inkscape:collect="always"
       xlink:href="#linearGradient4251-0"
       id="linearGradient4232"
       y1="54"
       y2="12"
       x2="0"
       gradientUnits="userSpaceOnUse"
       gradientTransform="translate(363.57144,494.79797)" />
    <linearGradient
       inkscape:collect="always"
       xlink:href="#linearGradient4159"
       id="linearGradient4384"
       y1="1043.3622"
       y2="1012.3622"
       x2="0"
       gradientUnits="userSpaceOnUse"
       gradientTransform="matrix(0.625,0,0,0.64516132,424.17147,-131.33899)" />
    <linearGradient
       inkscape:collect="always"
       id="linearGradient4159">
      <stop
         style="stop-color:#2a2c2f"
         id="stop4161" />
      <stop
         offset="1"
         style="stop-color:#424649"
         id="stop4163" />
    </linearGradient>
    <linearGradient
       inkscape:collect="always"
       id="linearGradient4227">
      <stop
         style="stop-color:#292c2f"
         id="stop4229" />
      <stop
         offset="1"
         style="stop-opacity:0"
         id="stop4231" />
    </linearGradient>
    <linearGradient
       inkscape:collect="always"
       xlink:href="#linearGradient4227"
       id="linearGradient4864"
       y1="20"
       x1="20"
       y2="48"
       x2="48"
       gradientUnits="userSpaceOnUse"
       gradientTransform="translate(363.57144,494.79797)" />
  </defs>
  <metadata
     id="metadata5458">
    <rdf:RDF>
      <cc:Work
         rdf:about="">
        <dc:format>image/svg+xml</dc:format>
        <dc:type
           rdf:resource="http://purl.org/dc/dcmitype/StillImage" />
        <dc:title />
      </cc:Work>
    </rdf:RDF>
  </metadata>
  <g
     inkscape:label="Capa 1"
     inkscape:groupmode="layer"
     id="layer1"
     transform="translate(-376.57144,-507.79797)">
    <path
       style="fill:url(#linearGradient4232)"
       d="m 378.57144,514.79797 v 30 h 7 v 4 h 30 v -4 h 7 v -30 h -19 z"
       id="rect4200"
       inkscape:connector-curvature="0"
       sodipodi:nodetypes="cccccccccc" />
    <path
       inkscape:connector-curvature="0"
       style="opacity:0.3;fill:url(#linearGradient4864);fill-rule:evenodd"
       id="path4842"
       d="m 411.57144,521.79797 -20,20 6,7 h 18 v -4 h 6 v -13 z" />
    <rect
       width="29.999998"
       x="385.57144"
       y="547.79797"
       height="0.99999601"
       style="fill:#dce269"
       id="rect4234" />
    <path
       inkscape:connector-curvature="0"
       style="color:#000000"
       id="path4303"
       d="m 393.57144,542.79797 v 1 h 1 v -1 z m 1,1 v 1 h 1 v -1 z m 1,0 h 1 v -1 h -1 z m 1,0 v 1 h 1 v -1 z m 1,0 h 1 v -1 h -1 z m 1,0 v 1 h 1 v -1 z m 1,0 h 1 v -1 h -1 z m 1,0 v 1 h 1 v -1 z m 1,0 h 1 v -1 h -1 z m 1,0 v 1 h 1 v -1 z m 1,0 h 1 v -1 h -1 z m 1,0 v 1 h 1 v -1 z m 1,0 h 1 v -1 h -1 z m 1,0 v 1 h 1 v -1 z m 1,0 h 1 v -1 h -1 z m 1,0 v 1 h 1 v -1 z" />
    <rect
       width="20"
       x="391.67142"
       y="521.79816"
       height="20"
       style="fill:url(#linearGradient4384);fill-rule:evenodd"
       id="rect4241" />
    <path
       inkscape:connector-curvature="0"
       style="color:#000000"
       id="path4497"
       d="m 409.57144,518.79797 v 1 h -1 v -1 z m -1,1 v 1 h -1 v -1 z m -1,0 h -1 v -1 h 1 z m -1,0 v 1 h -1 v -1 z m -1,0 h -1 v -1 h 1 z m -1,0 v 1 h -1 v -1 z m -1,0 h -1 v -1 h 1 z m -1,0 v 1 h -1 v -1 z m -1,0 h -1 v -1 h 1 z m -1,0 v 1 h -1 v -1 z m -1,0 h -1 v -1 h 1 z m -1,0 v 1 h -1 v -1 z m -1,0 h -1 v -1 h 1 z m -1,0 v 1 h -1 v -1 z m -1,0 h -1 v -1 h 1 z m -1,0 v 1 h -1 v -1 z" />
    <path
       style="fill:none;stroke:#afc0c6;stroke-width:1;stroke-linecap:butt;stroke-linejoin:miter;stroke-miterlimit:4;stroke-dasharray:none;stroke-opacity:1"
       d="m 393.57144,532.29797 h 6 l -6,8 h 6"
       id="path897"
       inkscape:connector-curvature="0"
       sodipodi:nodetypes="cccc" />
    <path
       sodipodi:nodetypes="cccc"
       inkscape:connector-curvature="0"
       id="path899"
       d="m 399.57144,523.79797 h 9 l -9,12 h 9"
       style="fill:none;stroke:#afc0c6;stroke-width:2;stroke-linecap:butt;stroke-linejoin:miter;stroke-miterlimit:4;stroke-dasharray:none;stroke-opacity:1" />
  </g>
</svg>
