<?xml version="1.0" encoding="UTF-8" standalone="no"?>
<svg
   version="1.1"
   viewBox="0 0 32 32"
   id="svg60"
   sodipodi:docname="mintupdate.svg"
   inkscape:version="1.1 (c4e8f9ed74, 2021-05-24)"
   xmlns:inkscape="http://www.inkscape.org/namespaces/inkscape"
   xmlns:sodipodi="http://sodipodi.sourceforge.net/DTD/sodipodi-0.dtd"
   xmlns:xlink="http://www.w3.org/1999/xlink"
   xmlns="http://www.w3.org/2000/svg"
   xmlns:svg="http://www.w3.org/2000/svg">
  <defs
     id="defs64" />
  <sodipodi:namedview
     id="namedview62"
     pagecolor="#ffffff"
     bordercolor="#666666"
     borderopacity="1.0"
     inkscape:pageshadow="2"
     inkscape:pageopacity="0.0"
     inkscape:pagecheckerboard="0"
     showgrid="false"
     inkscape:zoom="26.40625"
     inkscape:cx="15.981065"
     inkscape:cy="12.970414"
     inkscape:window-width="1920"
     inkscape:window-height="1004"
     inkscape:window-x="0"
     inkscape:window-y="0"
     inkscape:window-maximized="1"
     inkscape:current-layer="svg60" />
  <linearGradient
     id="l"
     x1="22"
     x2="22"
     y1="30"
     y2="8"
     gradientTransform="matrix(0,-1,-1,0,44,44)"
     gradientUnits="userSpaceOnUse"
     xlink:href="#k" />
  <linearGradient
     id="m"
     x1="18"
     x2="30"
     y1="18"
     y2="30"
     gradientUnits="userSpaceOnUse">
    <stop
       stop-color="#292c2f"
       offset="0"
       id="stop3" />
    <stop
       stop-opacity="0"
       offset="1"
       id="stop5" />
  </linearGradient>
  <linearGradient
     id="p"
     x1="25"
     x2="25"
     y1="8"
     y2="2"
     gradientUnits="userSpaceOnUse"
     xlink:href="#j" />
  <linearGradient
     id="j"
     x2="0"
     y1="30"
     y2="8"
     gradientUnits="userSpaceOnUse">
    <stop
       stop-color="#cea476"
       offset="0"
       id="stop9" />
    <stop
       stop-color="#dab58b"
       offset="1"
       id="stop11" />
  </linearGradient>
  <linearGradient
     id="o"
     x1="411.427"
     x2="411.427"
     y1="543.8"
     y2="512.8"
     gradientTransform="matrix(.35 0 0 .70968 -120 -355.923)"
     gradientUnits="userSpaceOnUse">
    <stop
       stop-color="#6e9043"
       offset="0"
       id="stop14" />
    <stop
       stop-color="#92b662"
       stop-opacity=".85"
       offset="1"
       id="stop16" />
  </linearGradient>
  <linearGradient
     id="i"
     x1="408.57"
     x2="408.57"
     y1="512.798"
     y2="504.698"
     gradientTransform="matrix(.66667 0 0 -.37037 -256.38 197.926)"
     gradientUnits="userSpaceOnUse">
    <stop
       stop-color="#ebc69a"
       offset="0"
       id="stop19" />
    <stop
       stop-color="#73ba25"
       stop-opacity="0"
       offset="1"
       id="stop21" />
  </linearGradient>
  <linearGradient
     id="n"
     x1="411.57"
     x2="411.57"
     y1="512.801"
     y2="503.801"
     gradientTransform="translate(-256.38 -333.867) scale(.66667)"
     gradientUnits="userSpaceOnUse"
     xlink:href="#i">
    <stop
       stop-color="#ebc69a"
       offset="0"
       id="stop24" />
    <stop
       stop-color="#f4e0c8"
       stop-opacity="0"
       offset="1"
       id="stop26" />
  </linearGradient>
  <linearGradient
     id="k"
     x2="0"
     y1="30"
     y2="8"
     gradientUnits="userSpaceOnUse">
    <stop
       stop-color="#cfd2d5"
       offset="0"
       id="stop29" />
    <stop
       stop-color="#eff0f1"
       offset="1"
       id="stop31" />
  </linearGradient>
  <path
     d="M6 2L2 8h28l-4-6H7z"
     fill="url(#p)"
     fill-rule="evenodd"
     id="path34" />
  <path
     d="M2 8h28v22H2z"
     fill="url(#j)"
     id="path36" />
  <path
     d="M2 8h12v22H2z"
     fill="url(#k)"
     id="path38" />
  <path
     d="M14 8h16v22H14z"
     fill="url(#o)"
     id="path40" />
  <g
     stroke-opacity=".55"
     stroke-width="1.867"
     id="g50">
    <path
       d="M14 2v9l1-1 1 1 1-1s1 1 1 .972V2z"
       fill="#f4e0c8"
       id="path44" />
    <path
       d="m14 2h4v6h-4z"
       fill="url(#n)"
       id="path46" />
    <path
       d="M14 8v3l1-1 1 1 1-1s1 1 1 .973V8z"
       fill="url(#i)"
       id="path48" />
  </g>
  <path
     d="M18.969 16.844L30 27.875v-6.36l-3.757-3.758L22 16zm-2.125 2.125L27.875 30h-6.36l-3.758-3.757L16 22z"
     fill="url(#m)"
     opacity=".2"
     id="path52" />
  <path
     d="m28 22a5.96 5.96 0 0 1-0.844 3.031l-2.687-2.687 0.718-0.719 1.625 1.625c0.052-0.195 0.098-0.39 0.125-0.594 8e-3 -0.052 0.026-0.103 0.032-0.156 0.017-0.168 0.031-0.327 0.031-0.5a5 5 0 0 0-5-5c-0.243 0-0.486 0.028-0.719 0.063-0.136 0.02-0.274 0.031-0.406 0.062a4.737 4.737 0 0 0-0.813 0.281c-0.03 0.014-0.063 0.018-0.093 0.032-0.092 0.04-0.164 0.108-0.25 0.156-8e-3 4e-3 -0.023-5e-3 -0.032 0l-0.718-0.75a5.96 5.96 0 0 1 3.031-0.844 6 6 0 0 1 6 6zm-2.969 5.156a5.96 5.96 0 0 1-3.031 0.844 6 6 0 0 1-6-6 5.96 5.96 0 0 1 0.844-3.031l0.75 0.75 1.906 1.937-0.688 0.688-1.625-1.594c-0.05 0.195-0.097 0.39-0.125 0.594-7e-3 0.052-0.025 0.103-0.03 0.156-0.018 0.168-0.032 0.327-0.032 0.5s0.014 0.332 0.031 0.5 0.03 0.337 0.063 0.5a5.017 5.017 0 0 0 4.906 4c0.248 0 0.48-0.028 0.719-0.063 0.136-0.02 0.274-0.031 0.406-0.062 0.287-0.067 0.548-0.167 0.813-0.281 0.03-0.013 0.063-0.018 0.093-0.032 0.09-0.04 0.165-0.108 0.25-0.156h0.032z"
     fill="url(#l)"
     id="path54" />
  <path
     d="m2 29v1h12v-1z"
     fill="#adb1b3"
     id="path56" />
  <path
     d="M14 29h16v1H14z"
     fill="#507f1e"
     id="path58" />
  <path
     inkscape:connector-curvature="0"
     id="path4130"
     d="m 5.9183932,22.947808 c -0.3517562,0 -0.6643021,0.130595 -0.915427,0.384275 -0.2509999,0.253544 -0.38279,0.570073 -0.3827888,0.927288 v 1.805641 H 5.439167 v -1.805641 c 0,-0.136915 0.044674,-0.243973 0.1424314,-0.342723 0.098079,-0.09907 0.2019388,-0.143914 0.3367948,-0.143914 0.1376832,0 0.2399844,0.04462 0.3382777,0.143914 0.097758,0.09875 0.1424337,0.205808 0.1424337,0.342723 v 1.805641 h 0.8189891 v -1.805641 c 0,-0.136915 0.044678,-0.243973 0.142434,-0.342723 0.098292,-0.09929 0.2005935,-0.143914 0.3382793,-0.143914 0.1348575,0 0.2387137,0.04485 0.336791,0.143914 0.09776,0.09875 0.142433,0.205808 0.142433,0.342723 l 0.0044,2.109801 c 0,0.450059 -0.428599,0.829368 -0.9792258,0.829368 L 4.5622884,27.18816 c -0.4249186,0 -0.7878329,-0.413591 -0.7878329,-0.945102 V 22.27 H 3 v 4.125869 c 0,0.437754 0.160185,0.821632 0.4718088,1.13205 0.2663532,0.262907 0.5866785,0.433328 0.9465842,0.471817 l 2.940646,-7e-6 c 0.4518735,0 0.848866,-0.16802 1.169137,-0.494075 h 0.0015 C 8.802063,27.225799 8.961301,26.890471 9,26.513085 L 8.9971,24.259371 c 0,-0.357215 -0.131785,-0.673744 -0.382789,-0.927288 -0.251122,-0.25368 -0.563671,-0.384275 -0.9154257,-0.384275 -0.3452775,0 -0.6473948,0.128393 -0.8916908,0.363498 C 6.5635502,23.076588 6.2635442,22.947808 5.9184097,22.947808 Z"
     style="display:inline;overflow:visible;visibility:visible;fill:#5c4c3e;fill-opacity:1;fill-rule:evenodd;stroke:none;stroke-width:0.087441;marker:none;enable-background:accumulate"
     sodipodi:nodetypes="csccccsssccccssscccccccccccccccsscc" />
</svg>
