<?xml version="1.0" encoding="UTF-8" standalone="no"?>
<svg
   xmlns:dc="http://purl.org/dc/elements/1.1/"
   xmlns:cc="http://creativecommons.org/ns#"
   xmlns:rdf="http://www.w3.org/1999/02/22-rdf-syntax-ns#"
   xmlns:svg="http://www.w3.org/2000/svg"
   xmlns="http://www.w3.org/2000/svg"
   xmlns:xlink="http://www.w3.org/1999/xlink"
   xmlns:sodipodi="http://sodipodi.sourceforge.net/DTD/sodipodi-0.dtd"
   xmlns:inkscape="http://www.inkscape.org/namespaces/inkscape"
   width="48"
   height="48"
   version="1"
   id="svg12"
   sodipodi:docname="nixnote2.svg"
   inkscape:version="0.92.3 (2405546, 2018-03-11)">
  <metadata
     id="metadata18">
    <rdf:RDF>
      <cc:Work
         rdf:about="">
        <dc:format>image/svg+xml</dc:format>
        <dc:type
           rdf:resource="http://purl.org/dc/dcmitype/StillImage" />
      </cc:Work>
    </rdf:RDF>
  </metadata>
  <defs
     id="defs16">
    <linearGradient
       inkscape:collect="always"
       id="linearGradient877">
      <stop
         style="stop-color:#ffffff;stop-opacity:1;"
         offset="0"
         id="stop873" />
      <stop
         style="stop-color:#ffffff;stop-opacity:0;"
         offset="1"
         id="stop875" />
    </linearGradient>
    <linearGradient
       inkscape:collect="always"
       id="linearGradient859">
      <stop
         style="stop-color:#000000;stop-opacity:1;"
         offset="0"
         id="stop855" />
      <stop
         style="stop-color:#000000;stop-opacity:0;"
         offset="1"
         id="stop857" />
    </linearGradient>
    <linearGradient
       inkscape:collect="always"
       id="linearGradient835">
      <stop
         style="stop-color:#eb8c20;stop-opacity:1"
         offset="0"
         id="stop831" />
      <stop
         style="stop-color:#eedf15;stop-opacity:1"
         offset="1"
         id="stop833" />
    </linearGradient>
    <linearGradient
       inkscape:collect="always"
       xlink:href="#linearGradient835"
       id="linearGradient837"
       x1="35.23632"
       y1="47.12299"
       x2="18.240175"
       y2="0.47134194"
       gradientUnits="userSpaceOnUse" />
    <linearGradient
       inkscape:collect="always"
       xlink:href="#linearGradient859"
       id="linearGradient861"
       x1="7.4003911"
       y1="13.007812"
       x2="33.216919"
       y2="38.824341"
       gradientUnits="userSpaceOnUse" />
    <linearGradient
       inkscape:collect="always"
       xlink:href="#linearGradient877"
       id="linearGradient879"
       x1="7.7663336"
       y1="11.048498"
       x2="30.004391"
       y2="59.424347"
       gradientUnits="userSpaceOnUse" />
  </defs>
  <sodipodi:namedview
     pagecolor="#ffffff"
     bordercolor="#666666"
     borderopacity="1"
     objecttolerance="10"
     gridtolerance="10"
     guidetolerance="10"
     inkscape:pageopacity="0"
     inkscape:pageshadow="2"
     inkscape:window-width="1920"
     inkscape:window-height="1020"
     id="namedview14"
     showgrid="false"
     inkscape:zoom="6.49"
     inkscape:cx="24"
     inkscape:cy="30.995045"
     inkscape:window-x="0"
     inkscape:window-y="30"
     inkscape:window-maximized="1"
     inkscape:current-layer="svg12" />
  <rect
     style="fill:url(#linearGradient837);fill-opacity:1"
     width="40"
     height="40"
     x="4"
     y="4"
     rx="12"
     ry="12"
     id="rect4" />
  <path
     style="opacity:0.2;fill:url(#linearGradient861);fill-opacity:1;stroke:none;stroke-width:1.4940027;stroke-linecap:butt;stroke-linejoin:round;stroke-miterlimit:4;stroke-dasharray:none;stroke-dashoffset:0;stroke-opacity:1;paint-order:normal"
     d="M 12.636719 11.160156 C 11.368569 13.083336 12.457031 13.423828 12.457031 13.423828 C 12.78642 12.908887 13.204589 12.50657 13.65625 12.179688 L 12.636719 11.160156 z M 19.113281 11.349609 C 19.113281 11.349609 18.14793 11.952291 17.90625 12.375 C 17.664943 12.7977 18.087457 13.219472 17.966797 14.125 C 17.845777 15.030149 17.423828 16.298828 17.423828 16.298828 C 22.314548 18.954543 23.082031 23.021484 23.082031 23.021484 C 24.885201 22.467109 25.4138 19.682208 25.5625 18.408203 C 25.57799 18.276517 25.764375 18.263851 25.796875 18.392578 C 26.810815 22.406391 24.953125 25.738281 24.953125 25.738281 C 26.824456 24.679725 28.116698 22.931415 28.992188 21.228516 L 19.113281 11.349609 z M 30.783203 17.140625 L 30.779297 17.160156 C 30.835351 17.187634 30.88394 17.228991 30.908203 17.300781 C 32.102933 20.840622 32.134409 22.64367 31.855469 25.375 C 31.553649 28.332435 29.441406 30.654297 29.441406 30.654297 C 30.326946 36.770559 23.558594 37.755859 23.558594 37.755859 C 14.859907 38.859276 9.6809881 36.004075 6.8554688 33.419922 L 17.435547 44 L 32 44 C 38.648 44 44 38.648 44 32 L 44 30.357422 L 30.783203 17.140625 z "
     id="rect839" />
  <path
     style="fill:url(#linearGradient879);fill-opacity:1"
     d="m 17.067539,11.005859 c -1.169871,0.05848 -3.432808,0.577042 -4.610383,2.417969 0,0 -1.088462,-0.340492 0.179688,-2.263672 0,0 -3.485673,-0.808419 -5.236453,1.847656 H 4 v 16.833985 c 0,0 4.603784,9.81106 19.558594,7.914062 0,0 6.768352,-0.9853 5.882812,-7.101562 0,0 2.112243,-2.321862 2.414063,-5.279297 0.27894,-2.73133 0.247464,-4.534378 -0.947266,-8.074219 -0.0834,-0.246768 -0.437577,-0.227191 -0.492187,0.02734 -0.41878,1.952689 -1.933301,6.413571 -5.462891,8.410156 0,0 1.85769,-3.33189 0.84375,-7.345703 -0.0325,-0.128727 -0.218885,-0.116056 -0.234375,0.01563 -0.1487,1.274005 -0.677299,4.058906 -2.480469,4.613281 0,0 -0.768303,-4.066941 -5.659023,-6.722656 0,0 0.421949,-1.268679 0.542969,-2.173828 0.12066,-0.905528 -0.301857,-1.3273 -0.06055,-1.75 0.24168,-0.422709 1.207031,-1.025391 1.207031,-1.025391 0,0 -0.875051,-0.402228 -2.044922,-0.34375 z m 2.334805,12.998047 c 0.905136,-0.05727 1.650637,0.688494 1.59375,1.59375 -0.04753,0.746094 -0.652001,1.351386 -1.398438,1.398438 -0.905124,0.05727 -1.651079,-0.688495 -1.59375,-1.59375 0.04707,-0.746525 0.652013,-1.351387 1.398438,-1.398438 z m 6.736328,8.001953 c 0.204922,0.01568 0.4305,0.06886 0.615234,0.210938 0.06139,0.04731 0.274077,0.21189 0.242188,0.40625 -0.03031,0.185164 -0.263938,0.289261 -0.351563,0.328125 -0.268918,0.119447 -0.375666,0.02084 -0.726562,0.115234 -0.08558,0.02298 -0.346148,0.09578 -0.572266,0.289063 -0.184126,0.157602 -0.139417,0.217879 -0.308594,0.365234 -0.166365,0.145237 -0.520733,0.355655 -0.771484,0.25 -0.239447,-0.100714 -0.259634,-0.43569 -0.263672,-0.5 -0.02823,-0.457972 0.362194,-0.800782 0.527344,-0.945312 0.169583,-0.148062 0.553634,-0.42862 1.125,-0.5 0.0967,-0.01221 0.279453,-0.03521 0.484375,-0.01953 z"
     id="path10"
     inkscape:connector-curvature="0" />
  <path
     style="opacity:0.2"
     d="m 4,31 v 1 c 0,6.648 5.352,12 12,12 h 16 c 6.648,0 12,-5.352 12,-12 v -1 c 0,6.648 -5.352,12 -12,12 H 16 C 9.352,43 4,37.648 4,31 Z"
     id="rect2"
     inkscape:connector-curvature="0" />
</svg>
