<?xml version="1.0" encoding="UTF-8" standalone="no"?>
<svg
   xmlns:dc="http://purl.org/dc/elements/1.1/"
   xmlns:cc="http://creativecommons.org/ns#"
   xmlns:rdf="http://www.w3.org/1999/02/22-rdf-syntax-ns#"
   xmlns:svg="http://www.w3.org/2000/svg"
   xmlns="http://www.w3.org/2000/svg"
   xmlns:xlink="http://www.w3.org/1999/xlink"
   xmlns:sodipodi="http://sodipodi.sourceforge.net/DTD/sodipodi-0.dtd"
   xmlns:inkscape="http://www.inkscape.org/namespaces/inkscape"
   width="48"
   height="48"
   version="1"
   id="svg12"
   sodipodi:docname="rclonetray.svg"
   inkscape:version="0.92.3 (2405546, 2018-03-11)">
  <metadata
     id="metadata18">
    <rdf:RDF>
      <cc:Work
         rdf:about="">
        <dc:format>image/svg+xml</dc:format>
        <dc:type
           rdf:resource="http://purl.org/dc/dcmitype/StillImage" />
      </cc:Work>
    </rdf:RDF>
  </metadata>
  <defs
     id="defs16">
    <linearGradient
       inkscape:collect="always"
       id="linearGradient861">
      <stop
         style="stop-color:#ffffff;stop-opacity:1;"
         offset="0"
         id="stop857" />
      <stop
         style="stop-color:#ffffff;stop-opacity:0;"
         offset="1"
         id="stop859" />
    </linearGradient>
    <linearGradient
       inkscape:collect="always"
       id="linearGradient853">
      <stop
         style="stop-color:#000000;stop-opacity:1;"
         offset="0"
         id="stop849" />
      <stop
         style="stop-color:#000000;stop-opacity:0;"
         offset="1"
         id="stop851" />
    </linearGradient>
    <linearGradient
       inkscape:collect="always"
       id="linearGradient835">
      <stop
         style="stop-color:#003365;stop-opacity:1;"
         offset="0"
         id="stop831" />
      <stop
         style="stop-color:#1265b7;stop-opacity:1"
         offset="1"
         id="stop833" />
    </linearGradient>
    <linearGradient
       inkscape:collect="always"
       xlink:href="#linearGradient835"
       id="linearGradient837"
       x1="23.984627"
       y1="2.6318216"
       x2="27.089931"
       y2="47.443504"
       gradientUnits="userSpaceOnUse" />
    <linearGradient
       inkscape:collect="always"
       xlink:href="#linearGradient853"
       id="linearGradient855"
       x1="22.737864"
       y1="21.573008"
       x2="32.818672"
       y2="39.033482"
       gradientUnits="userSpaceOnUse" />
    <linearGradient
       inkscape:collect="always"
       xlink:href="#linearGradient861"
       id="linearGradient863"
       x1="20.884378"
       y1="11.848488"
       x2="32.628452"
       y2="52.272141"
       gradientUnits="userSpaceOnUse" />
  </defs>
  <sodipodi:namedview
     pagecolor="#ffffff"
     bordercolor="#666666"
     borderopacity="1"
     objecttolerance="10"
     gridtolerance="10"
     guidetolerance="10"
     inkscape:pageopacity="0"
     inkscape:pageshadow="2"
     inkscape:window-width="1920"
     inkscape:window-height="1020"
     id="namedview14"
     showgrid="false"
     inkscape:zoom="11.33"
     inkscape:cx="24"
     inkscape:cy="21.552173"
     inkscape:window-x="0"
     inkscape:window-y="30"
     inkscape:window-maximized="1"
     inkscape:current-layer="svg12" />
  <path
     style="fill:url(#linearGradient837);fill-opacity:1"
     d="M 11.248405,43.97611 C 10.122411,43.83 9.160808,43.40998 8.2210547,42.6538 7.9019405,42.39701 7.209185,41.68745 6.9252791,41.32659 4.4765808,38.21412 3.4383624,33.280375 4.2978997,28.534995 c 0.6407581,-3.5375 2.2840265,-6.49511 4.3983014,-7.91618 l 0.3780412,-0.25409 0.022399,-0.26163 c 0.1514924,-1.76871 0.4188291,-2.92152 0.9754717,-4.2064 0.427299,-0.98631 0.934644,-1.75025 1.625589,-2.44775 0.885126,-0.89352 1.784202,-1.33452 2.83258,-1.3894 1.045668,-0.0547 2.112665,0.37908 2.976002,1.20996 0.220809,0.2125 0.300475,0.22054 0.337763,0.0341 0.0415,-0.20732 0.421009,-1.21893 0.698835,-1.8626 1.131994,-2.6226605 2.765293,-4.9176055 4.661548,-6.1794055 0.190361,-0.12666 0.579932,-0.34856 0.865707,-0.4931 1.782462,-0.90153 3.702626,-1.01212 5.555444,-0.31994 3.41543,1.27592 6.581991,5.34643 7.751733,10.5804605 0.428259,1.91623 0.577111,3.30424 0.651387,6.07393 l 0.009,0.32824 0.312554,0.086 c 3.0357,0.83509 5.07708,4.59155 5.560206,9.40298 0.360882,3.59398 -0.380521,7.1924 -2.01804,9.79466 -0.959022,1.52402 -2.282216,2.6478 -3.60866,3.06479 -0.760162,0.23896 0.19985,0.22403 -13.982875,0.21761 -7.114296,-0.003 -12.987835,-0.0127 -13.052301,-0.0211 z"
     id="path4" />
  <path
     style="opacity:0.2"
     d="m 4.0234375,31.469982 c -0.078354,3.762207 0.957852,7.383881 2.9023437,9.855469 0.283906,0.36086 0.9758077,1.071335 1.2949219,1.328125 0.9397533,0.75618 1.9013499,1.176155 3.0273439,1.322265 0.06447,0.0084 5.938438,0.01848 13.052734,0.02148 14.182725,0.0064 13.22226,0.02021 13.982422,-0.21875 1.326444,-0.41699 2.650353,-1.540433 3.609375,-3.064453 1.456892,-2.315217 2.198751,-5.419838 2.091797,-8.607422 -0.06352,2.830015 -0.787946,5.53541 -2.091797,7.607422 -0.959022,1.52402 -2.282931,2.647463 -3.609375,3.064453 -0.760162,0.23896 0.200303,0.22517 -13.982422,0.21875 -7.114296,-0.003 -12.988268,-0.01309 -13.052734,-0.02148 C 10.122053,42.829731 9.1604564,42.409756 8.2207031,41.653576 7.9015889,41.396786 7.2096872,40.686311 6.9257812,40.325451 5.1545,38.074026 4.1342377,34.866717 4.0234375,31.469982 Z"
     id="path2"
     inkscape:connector-curvature="0" />
  <path
     style="opacity:0.3;fill:url(#linearGradient855);fill-opacity:1;stroke:none;stroke-width:2;stroke-linecap:round;stroke-linejoin:round;stroke-miterlimit:4;stroke-dasharray:none;stroke-dashoffset:0;stroke-opacity:1;paint-order:normal"
     d="M 33.619141 19.101562 C 33.703273 19.171001 33.7922 19.236749 33.873047 19.308594 L 33.689453 19.125 L 33.619141 19.101562 z M 34.589844 20.025391 C 35.156483 20.671506 35.597655 21.393212 35.875 22.185547 C 36.376118 23.61719 36.138659 25.698676 35.734375 27.472656 C 35.33159 29.240018 34.203384 31.468438 32.796875 32.46875 C 32.668969 32.55971 32.564453 32.650465 32.564453 32.671875 C 32.564453 32.693316 32.703427 32.94609 32.873047 33.232422 C 34.042583 35.206789 34.948274 37.52213 35.058594 39.527344 L 35.083984 40 L 33.082031 40 C 31.981256 40 31.067536 39.987419 31.052734 39.972656 C 31.037824 39.957906 31.025588 39.799895 31.025391 39.621094 C 31.024408 38.666504 30.759724 37.888494 30.341797 36.830078 C 30.036642 36.057222 29.391675 34.83102 29.064453 34.402344 L 28.966797 34.277344 L 28.410156 34.414062 C 27.375658 34.667549 26.22685 34.843341 24.859375 34.958984 C 23.906938 35.039578 20.415952 35.027773 19.15625 34.939453 C 18.600158 34.900443 18.207666 34.860009 18.160156 34.849609 C 18.112644 34.839219 18.051984 34.855226 18.027344 34.884766 C 17.995734 34.922583 18.013059 35.250629 18.005859 37.189453 L 17.994141 39.939453 L 15.931641 39.949219 L 14 39.960938 L 18.027344 43.988281 C 20.366222 43.99193 20.881491 43.996605 24.300781 43.998047 C 38.483506 44.004467 37.523041 44.018257 38.283203 43.779297 C 39.609647 43.362307 40.933556 42.238864 41.892578 40.714844 C 43.530097 38.112584 44.271038 34.513902 43.910156 30.919922 C 43.846082 30.281804 43.752343 29.666963 43.634766 29.070312 L 34.589844 20.025391 z "
     id="rect839" />
  <path
     style="fill:url(#linearGradient863);fill-opacity:1"
     d="m 21.521484,16.003906 c -2.171099,0.02792 -4.392918,0.232625 -6.292968,0.611328 -0.492774,0.0982 -0.967164,0.202595 -1.052735,0.230469 l -0.154297,0.05078 -0.01172,11.53125 L 14,39.960938 l 1.931641,-0.01172 2.0625,-0.0098 0.01172,-2.75 c 0.0072,-1.938824 -0.01013,-2.26687 0.02148,-2.304687 0.02464,-0.02954 0.0853,-0.04555 0.132812,-0.03516 0.04751,0.0104 0.440002,0.05083 0.996094,0.08984 1.259702,0.08832 4.750688,0.100124 5.703125,0.01953 1.367475,-0.115643 2.516283,-0.291435 3.550781,-0.544922 l 0.556641,-0.136718 0.09766,0.125 c 0.327222,0.428676 0.972189,1.654878 1.277344,2.427734 0.417927,1.058416 0.682611,1.836426 0.683594,2.791016 1.97e-4,0.178801 0.01243,0.336812 0.02734,0.351562 C 31.067534,39.987376 31.981256,40 33.082031,40 h 2.001953 l -0.02539,-0.472656 c -0.11032,-2.005214 -1.016011,-4.320555 -2.185547,-6.294922 -0.16962,-0.286332 -0.308594,-0.539106 -0.308594,-0.560547 0,-0.02141 0.104516,-0.112165 0.232422,-0.203125 1.406509,-1.000312 2.534715,-3.228732 2.9375,-4.996094 0.404284,-1.77398 0.642488,-3.855466 0.14137,-5.287109 -0.749663,-2.141681 -2.692837,-3.775316 -5.090589,-4.759766 -1.04075,-0.427307 -2.080802,-0.734233 -3.277344,-0.96875 -1.696215,-0.332451 -3.815228,-0.481048 -5.986328,-0.453125 z m 1.908204,4.103516 c 0.521019,0.0015 1.010985,0.02006 1.445312,0.05664 2.746128,0.231291 4.515288,0.835886 5.714844,1.951172 1.007114,0.936349 1.478016,2.147523 1.402344,3.607422 -0.0452,0.872417 -0.184577,1.416161 -0.529297,2.072266 -0.519985,0.989674 -1.367756,1.74378 -2.558594,2.27539 -0.992589,0.443115 -2.34405,0.775655 -3.759766,0.925782 -1.001952,0.106242 -3.808696,0.149714 -4.832031,0.07422 -1.061239,-0.07829 -2.214379,-0.251716 -2.275391,-0.341796 -0.02016,-0.02973 -0.0368,-2.229284 -0.03711,-5.03125 -5.61e-4,-4.475721 0.0055,-4.985447 0.0625,-5.039063 0.03512,-0.03283 0.07664,-0.05859 0.0918,-0.05859 0.01517,0 0.247721,-0.04129 0.515625,-0.0918 1.365487,-0.257236 3.196707,-0.404873 4.759766,-0.40039 z"
     id="path8" />
</svg>
