<?xml version="1.0" encoding="UTF-8" standalone="no"?>
<svg
   xmlns:dc="http://purl.org/dc/elements/1.1/"
   xmlns:cc="http://creativecommons.org/ns#"
   xmlns:rdf="http://www.w3.org/1999/02/22-rdf-syntax-ns#"
   xmlns:svg="http://www.w3.org/2000/svg"
   xmlns="http://www.w3.org/2000/svg"
   xmlns:xlink="http://www.w3.org/1999/xlink"
   xmlns:sodipodi="http://sodipodi.sourceforge.net/DTD/sodipodi-0.dtd"
   xmlns:inkscape="http://www.inkscape.org/namespaces/inkscape"
   width="48"
   height="48"
   version="1"
   id="svg34"
   sodipodi:docname="syncthing-gtk.svg"
   inkscape:version="0.92.3 (2405546, 2018-03-11)">
  <metadata
     id="metadata40">
    <rdf:RDF>
      <cc:Work
         rdf:about="">
        <dc:format>image/svg+xml</dc:format>
        <dc:type
           rdf:resource="http://purl.org/dc/dcmitype/StillImage" />
      </cc:Work>
    </rdf:RDF>
  </metadata>
  <defs
     id="defs38">
    <linearGradient
       inkscape:collect="always"
       id="linearGradient902">
      <stop
         style="stop-color:#000000;stop-opacity:1;"
         offset="0"
         id="stop898" />
      <stop
         style="stop-color:#000000;stop-opacity:0;"
         offset="1"
         id="stop900" />
    </linearGradient>
    <linearGradient
       inkscape:collect="always"
       id="linearGradient851">
      <stop
         style="stop-color:#0882c8;stop-opacity:1"
         offset="0"
         id="stop847" />
      <stop
         style="stop-color:#24b3da;stop-opacity:1"
         offset="1"
         id="stop849" />
    </linearGradient>
    <linearGradient
       inkscape:collect="always"
       xlink:href="#linearGradient851"
       id="linearGradient853"
       x1="32.846153"
       y1="43.871796"
       x2="21.039627"
       y2="2.9627039"
       gradientUnits="userSpaceOnUse" />
    <linearGradient
       inkscape:collect="always"
       xlink:href="#linearGradient902"
       id="linearGradient904"
       x1="34.18729"
       y1="16.431009"
       x2="42.87775"
       y2="25.121471"
       gradientUnits="userSpaceOnUse" />
    <linearGradient
       inkscape:collect="always"
       xlink:href="#linearGradient902"
       id="linearGradient906"
       x1="25.070793"
       y1="22.640352"
       x2="32.603344"
       y2="30.172903"
       gradientUnits="userSpaceOnUse" />
    <linearGradient
       inkscape:collect="always"
       xlink:href="#linearGradient902"
       id="linearGradient908"
       x1="31.187326"
       y1="30.726068"
       x2="37.80373"
       y2="37.342472"
       gradientUnits="userSpaceOnUse" />
    <linearGradient
       inkscape:collect="always"
       xlink:href="#linearGradient902"
       id="linearGradient910"
       x1="9.1514311"
       y1="24.840893"
       x2="18.945208"
       y2="34.63467"
       gradientUnits="userSpaceOnUse" />
  </defs>
  <sodipodi:namedview
     pagecolor="#ffffff"
     bordercolor="#666666"
     borderopacity="1"
     objecttolerance="10"
     gridtolerance="10"
     guidetolerance="10"
     inkscape:pageopacity="0"
     inkscape:pageshadow="2"
     inkscape:window-width="1920"
     inkscape:window-height="1026"
     id="namedview36"
     showgrid="false"
     inkscape:snap-object-midpoints="true"
     inkscape:zoom="14.94"
     inkscape:cx="29.758299"
     inkscape:cy="18.35656"
     inkscape:window-x="0"
     inkscape:window-y="30"
     inkscape:window-maximized="1"
     inkscape:current-layer="svg34" />
  <circle
     style="fill:url(#linearGradient853);fill-opacity:1"
     cx="24"
     cy="24"
     r="20"
     id="circle4" />
  <path
     fill="#fff"
     d="m24 10a14 14 0 0 0 -14 14 14 14 0 0 0 14 14 14 14 0 0 0 14 -14 14 14 0 0 0 -14 -14zm0 2a12 12 0 0 1 12 12 12 12 0 0 1 -12 12 12 12 0 0 1 -12 -12 12 12 0 0 1 12 -12z"
     id="path8"
     style="opacity:0.5" />
  <path
     fill="none"
     stroke="#ffffff"
     stroke-width="2"
     d="m11 27 16-2 9-6"
     id="path10"
     style="opacity:0.5" />
  <path
     fill="none"
     stroke="#ffffff"
     stroke-width="2"
     d="m33 33-6-8"
     id="path12"
     style="opacity:0.5" />
  <path
     style="opacity:0.2;fill:url(#linearGradient908);fill-opacity:1;stroke:none;stroke-width:2.95219374;stroke-linecap:round;stroke-linejoin:round;stroke-miterlimit:4;stroke-dasharray:none;stroke-dashoffset:0;stroke-opacity:1;paint-order:normal"
     d="M 34.990234 30.763672 L 33.199219 30.779297 L 30.505859 31.798828 L 30.605469 31.898438 L 30.671875 33.273438 L 30.841797 35.082031 L 35.845703 40.085938 A 20 20 0 0 0 40.080078 35.853516 L 34.990234 30.763672 z "
     id="path862" />
  <circle
     fill="#fff"
     cx="33"
     cy="33"
     r="3"
     id="circle24" />
  <path
     style="opacity:0.2;fill:url(#linearGradient904);fill-opacity:1;stroke:none;stroke-width:2.95219374;stroke-linecap:round;stroke-linejoin:round;stroke-miterlimit:4;stroke-dasharray:none;stroke-dashoffset:0;stroke-opacity:1;paint-order:normal"
     d="M 37.990234 16.763672 L 36.199219 16.779297 L 33.505859 17.798828 L 33.605469 17.898438 L 33.671875 19.273438 L 33.841797 21.082031 L 42.990234 30.230469 A 20 20 0 0 0 44 24 A 20 20 0 0 0 43.955078 22.726562 L 37.990234 16.763672 z "
     id="path876" />
  <circle
     fill="#fff"
     cx="36"
     cy="19"
     r="3"
     id="circle26" />
  <path
     style="opacity:0.2;fill:url(#linearGradient906);fill-opacity:1;stroke:none;stroke-width:2.95219374;stroke-linecap:round;stroke-linejoin:round;stroke-miterlimit:4;stroke-dasharray:none;stroke-dashoffset:0;stroke-opacity:1;paint-order:normal"
     d="M 28.990234 22.763672 L 27.199219 22.779297 L 24.505859 23.798828 L 24.605469 23.898438 L 24.671875 25.273438 L 24.841797 27.082031 L 36.960938 39.201172 A 20 20 0 0 0 40.890625 34.664062 L 28.990234 22.763672 z "
     id="path870" />
  <circle
     fill="#fff"
     cx="27"
     cy="25"
     r="3"
     id="circle28" />
  <path
     style="opacity:0.2;fill:url(#linearGradient910);fill-opacity:1;stroke:none;stroke-width:2.95219374;stroke-linecap:round;stroke-linejoin:round;stroke-miterlimit:4;stroke-dasharray:none;stroke-dashoffset:0;stroke-opacity:1;paint-order:normal"
     d="M 12.990234 24.763672 L 11.199219 24.779297 L 8.5058594 25.798828 L 8.6054688 25.898438 L 8.671875 27.273438 L 8.8417969 29.082031 L 23.748047 43.988281 A 20 20 0 0 0 24 44 A 20 20 0 0 0 30.962891 42.734375 L 12.990234 24.763672 z "
     id="rect855" />
  <circle
     fill="#fff"
     cx="11"
     cy="27"
     r="3"
     id="circle30" />
  <path
     style="fill:#000000;fill-opacity:1;opacity:0.2"
     d="M 43.978516 23.417969 A 20 20 0 0 1 24 43 A 20 20 0 0 1 4.0214844 23.582031 A 20 20 0 0 0 4 24 A 20 20 0 0 0 24 44 A 20 20 0 0 0 44 24 A 20 20 0 0 0 43.978516 23.417969 z "
     id="circle837" />
</svg>
