<?xml version="1.0" encoding="UTF-8" standalone="no"?>
<!-- Created with Inkscape (http://www.inkscape.org/) -->

<svg
   width="48"
   height="48"
   viewBox="0 0 12.7 12.7"
   version="1.1"
   id="svg5"
   sodipodi:docname="webapp-manager.svg"
   inkscape:version="1.1.1 (3bf5ae0d25, 2021-09-20)"
   xmlns:inkscape="http://www.inkscape.org/namespaces/inkscape"
   xmlns:sodipodi="http://sodipodi.sourceforge.net/DTD/sodipodi-0.dtd"
   xmlns:xlink="http://www.w3.org/1999/xlink"
   xmlns="http://www.w3.org/2000/svg"
   xmlns:svg="http://www.w3.org/2000/svg">
  <sodipodi:namedview
     id="namedview7"
     pagecolor="#ffffff"
     bordercolor="#666666"
     borderopacity="1.0"
     inkscape:pageshadow="2"
     inkscape:pageopacity="0.0"
     inkscape:pagecheckerboard="0"
     inkscape:document-units="px"
     showgrid="false"
     units="px"
     height="48px"
     inkscape:zoom="8"
     inkscape:cx="17.5625"
     inkscape:cy="9.375"
     inkscape:window-width="1852"
     inkscape:window-height="1053"
     inkscape:window-x="68"
     inkscape:window-y="27"
     inkscape:window-maximized="1"
     inkscape:current-layer="svg5" />
  <defs
     id="defs2">
    <linearGradient
       inkscape:collect="always"
       id="linearGradient16198">
      <stop
         style="stop-color:#ffffff;stop-opacity:1;"
         offset="0"
         id="stop16194" />
      <stop
         style="stop-color:#ffffff;stop-opacity:0;"
         offset="1"
         id="stop16196" />
    </linearGradient>
    <linearGradient
       inkscape:collect="always"
       id="linearGradient15840">
      <stop
         style="stop-color:#ffffff;stop-opacity:1;"
         offset="0"
         id="stop15836" />
      <stop
         style="stop-color:#ffffff;stop-opacity:0;"
         offset="1"
         id="stop15838" />
    </linearGradient>
    <linearGradient
       inkscape:collect="always"
       id="linearGradient15060">
      <stop
         style="stop-color:#fcfcfc;stop-opacity:1;"
         offset="0"
         id="stop15056" />
      <stop
         style="stop-color:#eff0f1;stop-opacity:1"
         offset="1"
         id="stop15058" />
    </linearGradient>
    <linearGradient
       inkscape:collect="always"
       id="linearGradient14025">
      <stop
         style="stop-color:#000000;stop-opacity:1;"
         offset="0"
         id="stop14021" />
      <stop
         style="stop-color:#000000;stop-opacity:0;"
         offset="1"
         id="stop14023" />
    </linearGradient>
    <linearGradient
       inkscape:collect="always"
       id="linearGradient1355">
      <stop
         style="stop-color:#38424c;stop-opacity:1"
         offset="0"
         id="stop1351" />
      <stop
         style="stop-color:#536373;stop-opacity:1"
         offset="1"
         id="stop1353" />
    </linearGradient>
    <linearGradient
       inkscape:collect="always"
       xlink:href="#linearGradient1355"
       id="linearGradient1357"
       x1="7.8761592"
       y1="11.701761"
       x2="3.7353384"
       y2="0.4573788"
       gradientUnits="userSpaceOnUse" />
    <linearGradient
       inkscape:collect="always"
       xlink:href="#linearGradient14025"
       id="linearGradient14027"
       x1="15.291016"
       y1="19.007812"
       x2="35.55621"
       y2="36.960781"
       gradientUnits="userSpaceOnUse"
       gradientTransform="scale(0.26458333)" />
    <linearGradient
       inkscape:collect="always"
       xlink:href="#linearGradient15060"
       id="linearGradient15062"
       x1="3.2243192"
       y1="6.3441849"
       x2="7.8635316"
       y2="8.4550858"
       gradientUnits="userSpaceOnUse" />
    <linearGradient
       inkscape:collect="always"
       xlink:href="#linearGradient15840"
       id="linearGradient15842"
       x1="28.918938"
       y1="38.944389"
       x2="5.7775035"
       y2="-8.4223976"
       gradientUnits="userSpaceOnUse"
       gradientTransform="scale(0.26458333)" />
    <linearGradient
       inkscape:collect="always"
       xlink:href="#linearGradient16198"
       id="linearGradient16200"
       x1="23.999998"
       y1="44"
       x2="45.775513"
       y2="-14.282852"
       gradientUnits="userSpaceOnUse"
       gradientTransform="scale(0.26458333)" />
  </defs>
  <rect
     style="fill:url(#linearGradient1357);fill-opacity:1;stroke-width:0.339491"
     id="rect846"
     width="10.583333"
     height="10.583333"
     x="1.0583333"
     y="1.0583333" />
  <path
     id="rect6100"
     style="opacity:0.15;fill:url(#linearGradient15842);fill-opacity:1;stroke-width:0.102472"
     d="M 1.0583333,1.0583333 V 1.2702067 L 6.3499999,6.3499999 2.6019083,1.0583333 Z M 6.3499999,6.3499999 8.3343749,1.0583333 H 5.6885416 Z m 0,0 5.2916671,-2.8664915 V 1.7197916 Z m 0,0 2.4251751,5.2916671 h 2.866492 v -0.912606 z m 0,0 -1.5435749,5.2916671 h 1.7642332 z m 0,0 -5.2916666,4.0969071 v 1.19476 h 1.1022583 z m 0,0 -5.2916666,1.0144083 v 0.8816001 z m 0,0 L 1.0583333,3.0427083 V 4.806425 Z"
     sodipodi:nodetypes="ccccccccccccccccccccccccccccccccccc" />
  <path
     id="rect6100-3"
     style="opacity:0.4;fill:url(#linearGradient16200);fill-opacity:1;stroke-width:0.102472"
     d="M 8.3343749,1.0583333 6.3499999,6.3499999 9.2164915,1.0583333 Z M 6.3499999,6.3499999 11.641667,5.2477415 V 4.806425 Z m 0,0 5.2916671,1.984375 V 7.4522583 Z m 0,0 0.2206583,5.2916671 h 0.4408 z m 0,0 -5.2916666,5.2916671 h 0.2206584 z m 0,0 -5.2916666,-3.7480916 v 0.4408 z" />
  <rect
     style="fill:#2274e3;fill-opacity:1;stroke-width:0.112451"
     id="rect2131"
     width="2.6458333"
     height="0.79374993"
     x="1.0583334"
     y="10.847917" />
  <rect
     style="fill:#4eb74f;fill-opacity:1;stroke-width:0.132247"
     id="rect3380"
     width="2.6458333"
     height="0.79374999"
     x="3.7041664"
     y="10.847917" />
  <rect
     style="fill:#b75c4e;fill-opacity:1;stroke-width:0.229136"
     id="rect4254"
     width="2.645833"
     height="0.79374999"
     x="6.3499994"
     y="10.847917" />
  <rect
     style="fill:#d8cf66;fill-opacity:1;stroke-width:0.229136"
     id="rect4574"
     width="2.645833"
     height="0.79374999"
     x="8.9958334"
     y="10.847917" />
  <rect
     style="opacity:0.2;fill:#000000;fill-opacity:1;stroke-width:0.0536782"
     id="rect846-3"
     width="10.583333"
     height="0.26458332"
     x="1.0583333"
     y="11.377083" />
  <path
     id="path10463-0"
     style="fill:#fcfcfc;fill-opacity:1;stroke-width:0.422579"
     d="m 5.8208333,3.7041666 c -0.8197104,1.807e-4 -1.5417972,0.5391708 -1.7750854,1.3249836 -0.025641,-0.00144 -0.051317,-0.00213 -0.076998,-0.00207 -0.7306268,0 -1.3229168,0.5922899 -1.3229167,1.3229166 6.615e-4,0.5569085 0.28457,1.0173872 0.8419653,1.2081785 v 0 c 0,0 -0.2215394,-1.433346 1.2747013,-1.7373451 0,0 0.051357,6.35e-4 0.076998,0.00206 C 5.1846979,4.7841497 6.3228396,4.1645578 7.6002755,4.6056687 7.2821479,3.9908255 6.4791047,3.6987599 5.8208333,3.7041666 Z"
     sodipodi:nodetypes="cccccccccc" />
  <path
     id="path12406"
     style="opacity:0.2;fill:url(#linearGradient14027);fill-opacity:1;stroke-width:0.422579"
     d="m 4.0917399,8.3436766 3.29799,3.2979904 H 11.641667 V 8.7581215 L 8.1886474,5.3051024 Z"
     sodipodi:nodetypes="cccccc" />
  <path
     id="path10463"
     style="fill:url(#linearGradient15062);fill-opacity:1;stroke-width:0.422579"
     d="M 6.8791666,4.7624999 A 1.8520833,1.8520833 0 0 0 5.1040812,6.0874835 1.3229166,1.3229166 0 0 0 5.0270833,6.0854166 1.3229166,1.3229166 0 0 0 3.7041666,7.4083332 1.3229166,1.3229166 0 0 0 5.0270833,8.7312499 c 0,0 2.6838364,0.013986 3.7041666,0 0.5863166,0 1.0583333,-0.4720167 1.0583333,-1.0583333 0,-0.5863167 -0.4720167,-1.0583333 -1.0583333,-1.0583333 A 1.8520833,1.8520833 0 0 0 6.8791666,4.7624999 Z" />
</svg>
