<svg xmlns="http://www.w3.org/2000/svg" id="svg7" width="22" height="22" version="1.1">
 <defs id="defs3">
  <style id="current-color-scheme" type="text/css">
   .ColorScheme-Text { color:#cecfce; } .ColorScheme-Highlight { color:#3daee9; }
  </style>
 </defs>
 <path id="path4492" style="fill:#cecfce;fill-opacity:1" d="M 11 3 C 6.568 3 3 6.568 3 11 C 3 15.432 6.568 19 11 19 C 15.432 19 19 15.432 19 11 C 19 6.568 15.432 3 11 3 z M 11 4 C 14.878 4 18 7.122 18 11 C 18 14.878 14.878 18 11 18 C 7.122 18 4 14.878 4 11 C 4 7.122 7.122 4 11 4 z M 9 8 C 8.446 8 8 8.892 8 10 L 8 12 C 8 13.108 8.446 14 9 14 C 9.554 14 10 13.108 10 12 L 10 10 C 10 8.892 9.554 8 9 8 z M 13 8 C 12.446 8 12 8.892 12 10 L 12 12 C 12 13.108 12.446 14 13 14 C 13.554 14 14 13.108 14 12 L 14 10 C 14 8.892 13.554 8 13 8 z"/>
</svg>
