<svg xmlns="http://www.w3.org/2000/svg" id="svg2" width="22" height="22" version="1.1">
 <defs id="defs10">
  <style id="current-color-scheme" type="text/css">
   .ColorScheme-Text { color:#cecfce; } .ColorScheme-Highlight { color:#3daee9; }
  </style>
 </defs>
 <path id="path4" style="fill:#3daee9;fill-opacity:1" d="M 8.5859375 8 C 7.9982975 8 7.3197625 9.1027312 6.6015625 10.269531 C 6.4674725 10.486671 6.3369175 10.697961 6.2109375 10.894531 C 5.8059775 11.600821 5.2597519 12.707153 4.7324219 13.001953 C 4.2905719 13.245383 3.8123206 13.404297 3.4316406 13.404297 C 3.1742706 13.404297 3.072075 13.325594 3.046875 13.302734 C 2.871475 13.136734 2.6602 13 2.5 13 C 2.2732 13 2 13 2 13.5 C 2 15 5.0662812 15.893375 6.4257812 15.984375 C 6.6156812 15.995375 6.8098125 16 7.0078125 16 L 7.0566406 16 C 8.5198406 15.97486 9.8363375 15.298836 10.585938 14.191406 C 10.739817 13.965116 10.96131 14 11 14 C 11.0387 14 11.260182 13.965116 11.414062 14.191406 C 12.163683 15.298806 13.480059 15.9749 14.943359 16 L 14.992188 16 C 15.190167 16 15.384339 15.994705 15.574219 15.984375 C 16.934219 15.893375 20 15 20 13.5 C 20 13 19.727 13 19.5 13 C 19.33982 13 19.128615 13.137024 18.953125 13.302734 C 18.927925 13.325594 18.825739 13.404297 18.568359 13.404297 C 18.187699 13.404297 17.709448 13.245373 17.267578 13.001953 C 16.740228 12.707093 16.193963 11.600831 15.789062 10.894531 C 15.663073 10.697961 15.532518 10.486671 15.398438 10.269531 C 14.680438 9.1022312 14.002062 8 13.414062 8 C 12.997063 8 12.513828 8.2979375 12.048828 8.5859375 C 11.660828 8.8259375 11.261 9 11 9 C 10.739 9 10.338972 8.8259375 9.9511719 8.5859375 C 9.4858719 8.2979375 9.0035375 8 8.5859375 8 z M 8.7050781 9.0566406 C 8.8296854 9.1137038 9.0837696 9.2238568 9.4257812 9.4355469 C 9.8912164 9.7235933 10.2943 10 11 10 C 11.7057 10 12.110678 9.7234809 12.576172 9.4355469 C 12.918374 9.223602 13.173419 9.1135457 13.296875 9.0566406 C 13.35177 9.0969732 13.448814 9.1599957 13.572266 9.3164062 C 13.845305 9.6623413 14.187846 10.209272 14.546875 10.792969 L 14.546875 10.794922 C 14.673718 11.000341 14.800619 11.202368 14.925781 11.398438 C 15.112345 11.724274 15.3548 12.187311 15.636719 12.634766 C 15.920026 13.084425 16.179036 13.539373 16.779297 13.875 L 16.783203 13.876953 L 16.785156 13.876953 C 17.176434 14.092503 17.618501 14.170801 18.058594 14.253906 C 17.989174 14.289356 17.961074 14.325856 17.886719 14.359375 C 17.086553 14.720048 16.020348 14.952033 15.507812 14.986328 C 15.339899 14.99516 15.16832 15 14.992188 15 L 14.960938 15 C 13.795108 14.98 12.793033 14.444615 12.242188 13.630859 L 12.240234 13.628906 C 12.024414 13.311529 11.671848 13.105441 11.402344 13.039062 C 11.267592 13.005873 11.152327 12.998827 11.068359 12.998047 C 10.984438 12.997309 10.85946 13 11 13 C 11.140582 13 11.015611 12.997347 10.931641 12.998047 C 10.847671 12.998827 10.732407 13.005853 10.597656 13.039062 C 10.328155 13.105443 9.975592 13.31152 9.7597656 13.628906 L 9.7578125 13.630859 C 9.2070223 14.444577 8.2048224 14.97997 7.0390625 15 L 7.0078125 15 C 6.8293496 15 6.6579728 14.995798 6.4921875 14.986328 C 5.9799394 14.952038 4.9134767 14.718103 4.1132812 14.357422 C 4.0400362 14.324412 4.0137832 14.286852 3.9453125 14.251953 C 4.3837658 14.168523 4.8248242 14.091828 5.2148438 13.876953 L 5.2167969 13.876953 L 5.2207031 13.875 C 5.8210667 13.539371 6.0799842 13.084427 6.3632812 12.634766 C 6.6451893 12.187309 6.8876585 11.724217 7.0742188 11.398438 C 7.075138 11.396838 7.077205 11.394178 7.078125 11.392578 C 7.2020435 11.198315 7.3275365 10.998295 7.453125 10.794922 L 7.453125 10.792969 C 7.8122405 10.209668 8.1545429 9.6623583 8.4277344 9.3164062 C 8.5512989 9.1599322 8.6501437 9.096958 8.7050781 9.0566406 z"/>
</svg>
