<?xml version="1.0" encoding="UTF-8" standalone="no"?>
<svg
   xmlns:dc="http://purl.org/dc/elements/1.1/"
   xmlns:cc="http://creativecommons.org/ns#"
   xmlns:rdf="http://www.w3.org/1999/02/22-rdf-syntax-ns#"
   xmlns:svg="http://www.w3.org/2000/svg"
   xmlns="http://www.w3.org/2000/svg"
   xmlns:sodipodi="http://sodipodi.sourceforge.net/DTD/sodipodi-0.dtd"
   xmlns:inkscape="http://www.inkscape.org/namespaces/inkscape"
   width="22"
   height="22"
   version="1.1"
   id="svg7"
   sodipodi:docname="mstdn-panel.svg"
   inkscape:version="0.92.3 (2405546, 2018-03-11)">
  <metadata
     id="metadata11">
    <rdf:RDF>
      <cc:Work
         rdf:about="">
        <dc:format>image/svg+xml</dc:format>
        <dc:type
           rdf:resource="http://purl.org/dc/dcmitype/StillImage" />
        <dc:title></dc:title>
      </cc:Work>
    </rdf:RDF>
  </metadata>
  <sodipodi:namedview
     pagecolor="#ffffff"
     bordercolor="#666666"
     borderopacity="1"
     objecttolerance="10"
     gridtolerance="10"
     guidetolerance="10"
     inkscape:pageopacity="0"
     inkscape:pageshadow="2"
     inkscape:window-width="1920"
     inkscape:window-height="1020"
     id="namedview9"
     showgrid="false"
     inkscape:zoom="18.68"
     inkscape:cx="11"
     inkscape:cy="11"
     inkscape:window-x="0"
     inkscape:window-y="30"
     inkscape:window-maximized="1"
     inkscape:current-layer="svg7">
    <inkscape:grid
       type="xygrid"
       id="grid828" />
  </sodipodi:namedview>
  <defs
     id="defs3">
    <style
       id="current-color-scheme"
       type="text/css">
   .ColorScheme-Text { color:#cecfce; } .ColorScheme-Highlight { color:#3daee9; }
  </style>
  </defs>
  <path
     style="fill:#cecfce;fill-opacity:1"
     d="M 8.6660156 3 C 6.0806818 3 4 5.1018375 4 7.7128906 L 4 10.287109 C 4 10.290509 4.0019531 10.293475 4.0019531 10.296875 C 4.0043531 12.019507 4.1655775 15.859758 5.5234375 17.40625 C 6.7470215 18.799777 9.5991214 19 10.751953 19 C 12.800703 19 14 18.197266 14 18.197266 L 14 16.5 C 14 16.5 12.478901 17.025921 11.019531 17 C 9.9696601 16.97132 8.3248814 16.55981 8.0996094 15.400391 C 8.0696394 15.256512 8.0565764 15.091447 8.0351562 14.935547 C 8.2437293 14.964112 8.4494428 15 8.6660156 15 L 13.333984 15 C 15.919318 15 18 12.898162 18 10.287109 L 18 7.7128906 C 18 5.1018375 15.919318 3 13.333984 3 L 8.6660156 3 z M 8.6660156 4 L 13.333984 4 C 15.377328 4 17 5.6330873 17 7.7128906 L 17 10.287109 C 17 12.366913 15.377328 14 13.333984 14 L 8.6660156 14 C 8.5599153 14 8.4024752 13.977163 8.1699219 13.945312 L 6.8652344 13.765625 L 7.0449219 15.072266 C 7.0606739 15.186917 7.0731607 15.364839 7.1210938 15.597656 C 7.318931 16.598462 8.111701 17.214816 8.8476562 17.539062 C 9.5505477 17.848744 10.268843 17.952566 10.890625 17.978516 C 10.831244 17.979965 10.813424 18 10.751953 18 C 10.23342 18 9.2851781 17.95076 8.3808594 17.75 C 7.4765407 17.54924 6.6486738 17.171222 6.2753906 16.746094 C 5.8542854 16.266489 5.4400355 15.053049 5.2421875 13.765625 C 5.0444503 12.478922 5.003156 11.128146 5.0019531 10.296875 C 5.0019531 10.296838 5.00005 10.287809 5 10.287109 C 5 10.287139 5.000033 10.279697 5 10.279297 L 5 7.7128906 C 4.9999969 5.6330873 6.6226718 4 8.6660156 4 z M 8 7 A 1 1 0 0 0 7 8 A 1 1 0 0 0 8 9 A 1 1 0 0 0 9 8 A 1 1 0 0 0 8 7 z "
     id="path820" />
</svg>
