<?xml version="1.0" encoding="UTF-8" standalone="no"?>
<svg
   xmlns:dc="http://purl.org/dc/elements/1.1/"
   xmlns:cc="http://creativecommons.org/ns#"
   xmlns:rdf="http://www.w3.org/1999/02/22-rdf-syntax-ns#"
   xmlns:svg="http://www.w3.org/2000/svg"
   xmlns="http://www.w3.org/2000/svg"
   xmlns:sodipodi="http://sodipodi.sourceforge.net/DTD/sodipodi-0.dtd"
   xmlns:inkscape="http://www.inkscape.org/namespaces/inkscape"
   width="22"
   height="22"
   version="1.1"
   id="svg7"
   sodipodi:docname="rocketchat-tray-2.svg"
   inkscape:version="0.92.3 (2405546, 2018-03-11)">
  <metadata
     id="metadata11">
    <rdf:RDF>
      <cc:Work
         rdf:about="">
        <dc:format>image/svg+xml</dc:format>
        <dc:type
           rdf:resource="http://purl.org/dc/dcmitype/StillImage" />
        <dc:title></dc:title>
      </cc:Work>
    </rdf:RDF>
  </metadata>
  <sodipodi:namedview
     pagecolor="#ffffff"
     bordercolor="#666666"
     borderopacity="1"
     objecttolerance="10"
     gridtolerance="10"
     guidetolerance="10"
     inkscape:pageopacity="0"
     inkscape:pageshadow="2"
     inkscape:window-width="1920"
     inkscape:window-height="1020"
     id="namedview9"
     showgrid="true"
     inkscape:zoom="28.32"
     inkscape:cx="2.4259087"
     inkscape:cy="11"
     inkscape:window-x="0"
     inkscape:window-y="30"
     inkscape:window-maximized="1"
     inkscape:current-layer="svg7">
    <inkscape:grid
       type="xygrid"
       id="grid816" />
  </sodipodi:namedview>
  <defs
     id="defs3">
    <style
       id="current-color-scheme"
       type="text/css">
   .ColorScheme-Text { color:#cecfce; } .ColorScheme-Highlight { color:#3daee9; }
  </style>
  </defs>
  <path
     style="fill:#3daee9;fill-opacity:1"
     d="M 3 3 C 3.625289 3.9191748 4.0814606 5.6621576 4.3378906 7.6816406 C 3.4662891 8.6649316 3.0008959 9.819243 3 11 C 3.00265 12.214174 3.4964048 13.399175 4.4160156 14.398438 C 4.1963716 16.38357 3.740364 18.093055 3 19 C 5.101032 19 7.0025374 18.106296 8.3808594 16.662109 C 9.2226815 16.883472 10.107941 16.997678 11 17 C 15.418278 17 19 14.313708 19 11 C 19 7.686291 15.418278 5 11 5 C 10.107941 5.0023218 9.2226815 5.1165275 8.3808594 5.3378906 C 7.0025374 3.8937041 5.101032 3 3 3 z M 4.6523438 4.3496094 C 5.7860163 4.6658323 6.8433696 5.1735722 7.6582031 6.0273438 L 8.0644531 6.4550781 L 8.6347656 6.3046875 C 9.3910275 6.1058231 10.192235 6.0022675 11 6 C 13.006474 6 14.804247 6.6173453 16.056641 7.5566406 C 17.309034 8.4959359 18 9.7034389 18 11 C 18 12.296561 17.309034 13.504064 16.056641 14.443359 C 14.804672 15.382336 13.007604 15.99958 11.001953 16 C 10.193521 15.997896 9.3916421 15.894338 8.6347656 15.695312 L 8.0644531 15.544922 L 7.6582031 15.972656 C 6.8695463 16.799 5.8533675 17.301617 4.7636719 17.626953 C 5.0693904 16.691212 5.2831851 15.655374 5.4101562 14.507812 L 5.4609375 14.056641 L 5.1523438 13.720703 C 4.379232 12.880628 4.0025604 11.94385 4 11 L 4 10.998047 C 4.00118 10.080485 4.3553226 9.1699411 5.0859375 8.3457031 L 5.3867188 8.0058594 L 5.3300781 7.5566406 C 5.1780869 6.3596522 4.9490775 5.3017938 4.6523438 4.3496094 z M 9 8 L 9 9 L 11 9 L 11 10 L 10 10 L 9 10 L 9 12 L 9 13 L 12 13 L 12 12 L 10 12 L 10 11 L 12 11 L 12 10 L 12 9 L 12 8 L 11 8 L 9 8 z "
     id="path826" />
</svg>
