<?xml version="1.0" encoding="UTF-8" standalone="no"?>
<!-- Created with Inkscape (http://www.inkscape.org/) -->

<svg
   width="22"
   height="22"
   viewBox="0 0 5.8208331 5.8208336"
   version="1.1"
   id="svg5"
   inkscape:version="1.1.1 (3bf5ae0d25, 2021-09-20, custom)"
   sodipodi:docname="folder-audio.svg"
   xmlns:inkscape="http://www.inkscape.org/namespaces/inkscape"
   xmlns:sodipodi="http://sodipodi.sourceforge.net/DTD/sodipodi-0.dtd"
   xmlns:xlink="http://www.w3.org/1999/xlink"
   xmlns="http://www.w3.org/2000/svg"
   xmlns:svg="http://www.w3.org/2000/svg">
  <sodipodi:namedview
     id="namedview7"
     pagecolor="#ffffff"
     bordercolor="#666666"
     borderopacity="1.0"
     inkscape:pageshadow="2"
     inkscape:pageopacity="0.0"
     inkscape:pagecheckerboard="0"
     inkscape:document-units="px"
     showgrid="false"
     units="px"
     height="16px"
     inkscape:zoom="10.875"
     inkscape:cx="0.50574713"
     inkscape:cy="22.574713"
     inkscape:window-width="1920"
     inkscape:window-height="999"
     inkscape:window-x="0"
     inkscape:window-y="0"
     inkscape:window-maximized="1"
     inkscape:current-layer="svg5" />
  <defs
     id="defs2">
    <linearGradient
       inkscape:collect="always"
       id="linearGradient1670">
      <stop
         style="stop-color:#d2d2d2;stop-opacity:1;"
         offset="0"
         id="stop1666" />
      <stop
         style="stop-color:#e8e8e8;stop-opacity:1"
         offset="1"
         id="stop1668" />
    </linearGradient>
    <linearGradient
       inkscape:collect="always"
       id="linearGradient1128">
      <stop
         style="stop-color:#20bcfa;stop-opacity:1;"
         offset="0"
         id="stop1124" />
      <stop
         style="stop-color:#197cf1;stop-opacity:1"
         offset="1"
         id="stop1126" />
    </linearGradient>
    <linearGradient
       inkscape:collect="always"
       xlink:href="#linearGradient1128"
       id="linearGradient1130"
       x1="3.4395833"
       y1="0.26458335"
       x2="3.4395833"
       y2="3.96875"
       gradientUnits="userSpaceOnUse"
       gradientTransform="matrix(5.6692925,0,0,4.8593934,-1.5000003,0.71428554)" />
    <linearGradient
       inkscape:collect="always"
       xlink:href="#linearGradient1670"
       id="linearGradient1672"
       x1="3.7041667"
       y1="5.0270834"
       x2="3.7041671"
       y2="0.79375017"
       gradientUnits="userSpaceOnUse" />
  </defs>
  <circle
     style="fill:url(#linearGradient1672);fill-opacity:1;stroke-width:0.176389;stroke-linejoin:round"
     id="path3299"
     cx="3.7041669"
     cy="2.9104168"
     r="2.1166668" />
  <path
     id="rect846"
     style="fill:url(#linearGradient1130);fill-opacity:1;stroke-width:0.694367;stroke-linejoin:round"
     d="M 0 2 L 0 20 L 18 20 L 18 13 L 17 13 C 15.89543 13 15 12.10457 15 11 C 15 9.9126893 15.868506 9.02738 16.949219 9 C 16.966373 8.9995654 16.982741 9 17 9 L 18 9 L 18 2 L 0 2 z "
     transform="scale(0.26458333)" />
  <path
     id="rect1542"
     style="opacity:0.8;fill:#ffffff;stroke-width:0.132292;stroke-linejoin:round"
     d="m 1.3229167,1.0583333 v 2.4525635 c -0.080403,-0.04659 -0.1716572,-0.071186 -0.2645833,-0.071313 -0.29225073,0 -0.5291667,0.2369161 -0.52916673,0.5291666 3e-8,0.2922506 0.236916,0.5291667 0.52916673,0.5291667 0.2922507,0 0.5291666,-0.2369161 0.5291666,-0.5291667 V 1.8520833 H 3.4395833 V 2.9817302 C 3.3591803,2.9351402 3.2679262,2.9105442 3.175,2.9104172 c -0.2922506,0 -0.5291666,0.2369159 -0.5291666,0.5291666 0,0.2922505 0.236916,0.5291666 0.5291666,0.5291666 0.2922508,-4e-7 0.5291667,-0.2369165 0.5291667,-0.529167 V 1.0583333 Z M 1.5875,1.3229167 H 3.4395833 V 1.5875 H 1.5875 Z"
     sodipodi:nodetypes="cccsscccccsscccccccc" />
  <rect
     style="opacity:0.2;fill:#000000;fill-opacity:1;stroke-width:0.150005;stroke-linejoin:round"
     id="rect4316"
     width="4.7624998"
     height="0.26458335"
     x="0"
     y="5.0270834" />
</svg>
