<?xml version="1.0" encoding="UTF-8" standalone="no"?>
<!-- Created with Inkscape (http://www.inkscape.org/) -->

<svg
   xmlns:dc="http://purl.org/dc/elements/1.1/"
   xmlns:cc="http://creativecommons.org/ns#"
   xmlns:rdf="http://www.w3.org/1999/02/22-rdf-syntax-ns#"
   xmlns:svg="http://www.w3.org/2000/svg"
   xmlns="http://www.w3.org/2000/svg"
   xmlns:sodipodi="http://sodipodi.sourceforge.net/DTD/sodipodi-0.dtd"
   xmlns:inkscape="http://www.inkscape.org/namespaces/inkscape"
   id="svg7384"
   height="16"
   width="16"
   version="1.1"
   sodipodi:docname="radio-mixed-symbolic.svg"
   inkscape:version="0.92.1 r15371">
  <defs
     id="defs10" />
  <sodipodi:namedview
     pagecolor="#ffffff"
     bordercolor="#666666"
     borderopacity="1"
     objecttolerance="10"
     gridtolerance="10"
     guidetolerance="10"
     inkscape:pageopacity="0"
     inkscape:pageshadow="2"
     inkscape:window-width="1600"
     inkscape:window-height="808"
     id="namedview8"
     showgrid="false"
     inkscape:zoom="14.75"
     inkscape:cx="-19.728814"
     inkscape:cy="8"
     inkscape:window-x="0"
     inkscape:window-y="0"
     inkscape:window-maximized="1"
     inkscape:current-layer="svg7384" />
  <metadata
     id="metadata90">
    <rdf:RDF>
      <cc:Work
         rdf:about="">
        <dc:format>image/svg+xml</dc:format>
        <dc:type
           rdf:resource="http://purl.org/dc/dcmitype/StillImage" />
        <dc:title>Gnome Symbolic Icon Theme</dc:title>
      </cc:Work>
    </rdf:RDF>
  </metadata>
  <title
     id="title9167">Gnome Symbolic Icon Theme</title>
  <path
     style="color:#232627;text-indent:0pt;text-transform:none;fill:#232627;fill-opacity:1"
     d="M 7.9707031 1.0605469 C 4.1129031 1.0605469 0.97070312 4.2027469 0.97070312 8.0605469 C 0.97070312 11.918347 4.1129031 15.060547 7.9707031 15.060547 C 11.828503 15.060547 14.970703 11.918347 14.970703 8.0605469 C 14.970703 4.2027469 11.828503 1.0605469 7.9707031 1.0605469 z M 7.9707031 2.0605469 C 11.291903 2.0605469 14.001953 4.7393469 14.001953 8.0605469 C 14.001953 11.381747 11.291803 14.060547 7.9707031 14.060547 C 4.6495031 14.060547 1.9707031 11.381747 1.9707031 8.0605469 C 1.9707031 4.7393469 4.6495031 2.0605469 7.9707031 2.0605469 z M 4.8496094 7.0019531 A 1.9498395 0.99990928 0 1 0 5.0625 8.9980469 L 11.025391 8.9980469 A 1.9471138 0.99851151 0 1 0 11.025391 7.0019531 L 5.0625 7.0019531 A 1.9471138 0.99851151 0 0 0 4.8496094 7.0019531 z "
     id="path9587" />
</svg>
