<svg xmlns="http://www.w3.org/2000/svg" id="svg2" width="22" height="22" version="1.1">
 <defs id="defs10">
  <style id="current-color-scheme" type="text/css">
   .ColorScheme-Text { color:#eff0f1; } .ColorScheme-Highlight { color:#3daee9; }
  </style>
 </defs>
 <g id="g4494" transform="matrix(1.1428571,0,0,1.1428571,-231.28571,-768.8514)">
  <path id="path4490" style="fill:#eff0f1;stroke-width:1.14285707;fill-opacity:1" transform="matrix(0.87500003,0,0,0.87500003,202.375,672.745)" d="M 11 3 C 6.5817145 3 3 6.5817145 3 11 C 3 15.418286 6.5817145 19 11 19 C 15.418286 19 19 15.418286 19 11 C 19 6.5817145 15.418286 3 11 3 z M 11 4.0097656 C 14.866 4.0097656 18 7.1437648 18 11.009766 C 18 14.875766 14.866 18.009766 11 18.009766 C 7.134 18.009766 4 14.875766 4 11.009766 C 4 7.1437648 7.134 4.0097656 11 4.0097656 z M 11 6.4277344 L 7.5722656 12.142578 L 11 12.142578 L 11 15.572266 L 14.427734 9.8574219 L 11 9.8574219 L 11 6.4277344 z"/>
 </g>
</svg>
