<?xml version="1.0" encoding="UTF-8" standalone="no"?>
<svg
   xmlns:dc="http://purl.org/dc/elements/1.1/"
   xmlns:cc="http://creativecommons.org/ns#"
   xmlns:rdf="http://www.w3.org/1999/02/22-rdf-syntax-ns#"
   xmlns:svg="http://www.w3.org/2000/svg"
   xmlns="http://www.w3.org/2000/svg"
   xmlns:sodipodi="http://sodipodi.sourceforge.net/DTD/sodipodi-0.dtd"
   xmlns:inkscape="http://www.inkscape.org/namespaces/inkscape"
   width="22"
   height="22"
   version="1.1"
   id="svg7"
   sodipodi:docname="webtorrent-desktop-panel.svg"
   inkscape:version="0.92.3 (2405546, 2018-03-11)">
  <metadata
     id="metadata11">
    <rdf:RDF>
      <cc:Work
         rdf:about="">
        <dc:format>image/svg+xml</dc:format>
        <dc:type
           rdf:resource="http://purl.org/dc/dcmitype/StillImage" />
        <dc:title></dc:title>
      </cc:Work>
    </rdf:RDF>
  </metadata>
  <sodipodi:namedview
     pagecolor="#ffffff"
     bordercolor="#666666"
     borderopacity="1"
     objecttolerance="10"
     gridtolerance="10"
     guidetolerance="10"
     inkscape:pageopacity="0"
     inkscape:pageshadow="2"
     inkscape:window-width="1920"
     inkscape:window-height="1020"
     id="namedview9"
     showgrid="false"
     inkscape:zoom="20.02"
     inkscape:cx="11"
     inkscape:cy="11"
     inkscape:window-x="0"
     inkscape:window-y="30"
     inkscape:window-maximized="1"
     inkscape:current-layer="svg7" />
  <defs
     id="defs3">
    <style
       id="current-color-scheme"
       type="text/css">
   .ColorScheme-Text { color:#eff0f1; } .ColorScheme-Highlight { color:#3daee9; }
  </style>
  </defs>
  <path
     style="fill:#eff0f1;fill-opacity:1"
     d="M 10.544922 3 A 1.9023651 1.8191537 0 0 0 9.5488281 3.2421875 L 3.9511719 6.3339844 A 1.9023651 1.8191537 0 0 0 3 7.9101562 L 3 14.089844 A 1.9023651 1.8191537 0 0 0 3.9511719 15.666016 L 9.5488281 18.755859 A 1.9023651 1.8191537 0 0 0 11.451172 18.755859 L 17.048828 15.666016 A 1.9023651 1.8191537 0 0 0 18 14.089844 L 18 7.9101562 A 1.9023651 1.8191537 0 0 0 17.048828 6.3339844 L 11.451172 3.2421875 A 1.9023651 1.8191537 0 0 0 10.544922 3 z M 10.5 3.9082031 L 17 7.5 L 17 14.496094 L 10.5 18.091797 L 4 14.496094 L 4 7.5 L 10.5 3.9082031 z M 9.0195312 8 C 7.9041783 8 7 9.0295727 7 10.298828 C 7 12.278154 10.111111 13.833333 10.5 15 C 10.888889 13.833333 14 12.278154 14 10.298828 C 14 9.0295727 13.095822 8 11.980469 8 C 11.395527 8 10.868919 8.3563583 10.5 8.8085938 C 10.131081 8.3563585 9.6044722 8 9.0195312 8 z "
     id="path822" />
</svg>
