<?xml version="1.0" encoding="UTF-8" standalone="no"?>
<svg
   xmlns:dc="http://purl.org/dc/elements/1.1/"
   xmlns:cc="http://creativecommons.org/ns#"
   xmlns:rdf="http://www.w3.org/1999/02/22-rdf-syntax-ns#"
   xmlns:svg="http://www.w3.org/2000/svg"
   xmlns="http://www.w3.org/2000/svg"
   xmlns:sodipodi="http://sodipodi.sourceforge.net/DTD/sodipodi-0.dtd"
   xmlns:inkscape="http://www.inkscape.org/namespaces/inkscape"
   width="22"
   height="22"
   version="1.1"
   id="svg9"
   sodipodi:docname="zeal-panel.svg"
   inkscape:version="0.92.3 (2405546, 2018-03-11)">
  <metadata
     id="metadata13">
    <rdf:RDF>
      <cc:Work
         rdf:about="">
        <dc:format>image/svg+xml</dc:format>
        <dc:type
           rdf:resource="http://purl.org/dc/dcmitype/StillImage" />
        <dc:title></dc:title>
      </cc:Work>
    </rdf:RDF>
  </metadata>
  <sodipodi:namedview
     pagecolor="#ffffff"
     bordercolor="#666666"
     borderopacity="1"
     objecttolerance="10"
     gridtolerance="10"
     guidetolerance="10"
     inkscape:pageopacity="0"
     inkscape:pageshadow="2"
     inkscape:window-width="1920"
     inkscape:window-height="1020"
     id="namedview11"
     showgrid="false"
     inkscape:zoom="21.46"
     inkscape:cx="11"
     inkscape:cy="11"
     inkscape:window-x="0"
     inkscape:window-y="30"
     inkscape:window-maximized="1"
     inkscape:current-layer="svg9" />
  <defs
     id="defs3">
    <style
       id="current-color-scheme"
       type="text/css">
   .ColorScheme-Text { color:#eff0f1; } .ColorScheme-Highlight { color:#3daee9; }
  </style>
  </defs>
  <path
     style="opacity:0.3;fill:currentColor"
     class="ColorScheme-Text"
     d="m 4.8854168,3.0000003 c -0.4905209,0 -0.8854167,0.3568 -0.8854167,0.8 l 0,14.4000007 C 4.0000001,18.6432 4.3948959,19 4.8854168,19 l 2.1145831,0 0,-15.9999997 z"
     id="path5" />
  <path
     style="fill:#eff0f1;fill-opacity:1"
     d="M 7 3 L 7 19 L 17.125 19 C 17.60975 19 18 18.642418 18 18.199219 L 18 3.8007812 C 18 3.3575812 17.60975 3 17.125 3 L 10.990234 3 L 7 3 z M 8 4 L 10.990234 4 L 17 4 L 17 18 L 8 18 L 8 4 z M 9.4648438 6 A 0.50005 0.50005 0 0 0 9.5 7 L 14.566406 7 L 9.0839844 15.222656 A 0.50005 0.50005 0 0 0 9.5 16 L 15.5 16 A 0.50005 0.50005 0 1 0 15.5 15 L 10.433594 15 L 15.916016 6.7773438 A 0.50005 0.50005 0 0 0 15.5 6 L 9.5 6 A 0.50005 0.50005 0 0 0 9.4648438 6 z "
     id="path822" />
</svg>
