<?xml version="1.0" encoding="UTF-8" standalone="no"?>
<svg
   xmlns:dc="http://purl.org/dc/elements/1.1/"
   xmlns:cc="http://creativecommons.org/ns#"
   xmlns:rdf="http://www.w3.org/1999/02/22-rdf-syntax-ns#"
   xmlns:svg="http://www.w3.org/2000/svg"
   xmlns="http://www.w3.org/2000/svg"
   xmlns:sodipodi="http://sodipodi.sourceforge.net/DTD/sodipodi-0.dtd"
   xmlns:inkscape="http://www.inkscape.org/namespaces/inkscape"
   width="16"
   height="16"
   version="1.1"
   id="svg4"
   sodipodi:docname="auth-sim-missing-symbolic.svg"
   inkscape:version="0.92.3 (2405546, 2018-03-11)">
  <metadata
     id="metadata10">
    <rdf:RDF>
      <cc:Work
         rdf:about="">
        <dc:format>image/svg+xml</dc:format>
        <dc:type
           rdf:resource="http://purl.org/dc/dcmitype/StillImage" />
        <dc:title></dc:title>
      </cc:Work>
    </rdf:RDF>
  </metadata>
  <defs
     id="defs8" />
  <sodipodi:namedview
     pagecolor="#ffffff"
     bordercolor="#666666"
     borderopacity="1"
     objecttolerance="10"
     gridtolerance="10"
     guidetolerance="10"
     inkscape:pageopacity="0"
     inkscape:pageshadow="2"
     inkscape:window-width="1920"
     inkscape:window-height="1026"
     id="namedview6"
     showgrid="true"
     inkscape:zoom="25.68"
     inkscape:cx="11.789274"
     inkscape:cy="3.9810092"
     inkscape:window-x="0"
     inkscape:window-y="30"
     inkscape:window-maximized="1"
     inkscape:current-layer="svg4">
    <inkscape:grid
       type="xygrid"
       id="grid838" />
  </sodipodi:namedview>
  <path
     style="fill:#eff0f1;fill-opacity:1"
     d="M 4 0 C 2 0 2 2 2 2 L 2 14 C 2 16 4 16 4 16 L 10 16 L 10 15 L 4 15 C 4 15 3.7087456 14.986209 3.4472656 14.855469 C 3.1857756 14.724729 3 14.66667 3 14 L 3 2 C 3 2 3.0137913 1.7087456 3.1445312 1.4472656 C 3.2752714 1.1857756 3.33333 1 4 1 L 10.585938 1 L 13 3.4140625 L 13 8 L 14 8 L 14 3 L 11 0 L 4 0 z M 5 6 C 4 6 4 7 4 7 L 3.9980469 8.0058594 L 5.9980469 8.0058594 L 5.9980469 6.0058594 L 5 6 z M 11 6 L 9.9980469 6.0019531 L 9.9980469 8.0019531 L 10 8.0019531 L 10 8 L 11.998047 8 L 12 7 C 12 7 12 6 11 6 z M 6.9980469 6.0058594 L 6.9980469 8.0058594 L 8.9980469 8.0058594 L 8.9980469 6.0058594 L 6.9980469 6.0058594 z M 3.9980469 9.0019531 L 3.9980469 11.001953 L 10 11.001953 L 10 9.0019531 L 3.9980469 9.0019531 z M 10 11.001953 L 9.9980469 13.998047 L 10 13.998047 L 10 11.001953 z M 3.9980469 12.001953 L 4 13 C 4 13 4 14 5 14 L 5.9980469 14.001953 L 5.9980469 12.001953 L 3.9980469 12.001953 z M 6.9980469 12.001953 L 6.9980469 14.001953 L 8.9980469 14.001953 L 8.9980469 12.001953 L 6.9980469 12.001953 z "
     id="path831" />
  <path
     style="font-style:normal;font-variant:normal;font-weight:normal;font-stretch:normal;font-size:medium;line-height:1.25;font-family:'DejaVu Sans';-inkscape-font-specification:'DejaVu Sans';letter-spacing:0px;word-spacing:0px;fill:#eff0f1;fill-opacity:1;stroke:none;stroke-width:0.22547853"
     d="M 12.957031 9 C 12.612405 9 12.277676 9.0429413 11.953125 9.1289062 C 11.631921 9.2148711 11.314513 9.3445314 11 9.5195312 L 11 10.386719 C 11.32455 10.181017 11.635811 10.023472 11.933594 9.9160156 C 12.234723 9.8085596 12.516925 9.7558594 12.78125 9.7558594 C 13.142605 9.7558594 13.432908 9.8389529 13.650391 10.007812 C 13.871219 10.176671 13.980469 10.398629 13.980469 10.671875 C 13.980469 10.822314 13.938553 10.968983 13.851562 11.113281 C 13.767916 11.25758 13.630168 11.4115 13.439453 11.574219 C 12.892911 11.918046 12.522766 12.133114 12.195312 12.679688 C 12.101625 12.879248 12.054688 13.133272 12.054688 13.443359 L 12.054688 14 L 13.013672 14 L 13.013672 13.585938 C 13.013672 13.426289 13.019257 13.301094 13.029297 13.208984 C 13.039337 13.116879 13.054149 13.039079 13.074219 12.974609 C 13.100984 12.897854 13.145414 12.820054 13.208984 12.740234 C 13.275902 12.657339 13.387666 12.542735 13.544922 12.398438 C 13.996125 11.99921 14.42211 11.746296 14.818359 11.292969 C 14.978737 11.109491 15 10.858333 15 10.625 C 15 10.136842 14.812239 9.7450726 14.4375 9.4472656 C 14.066107 9.1494586 13.572673 9 12.957031 9 z M 12 15 L 12 16 L 13 16 L 13 15 L 12 15 z "
     id="path887" />
</svg>
