<?xml version="1.0" encoding="UTF-8" standalone="no"?>
<svg
   xmlns:dc="http://purl.org/dc/elements/1.1/"
   xmlns:cc="http://creativecommons.org/ns#"
   xmlns:rdf="http://www.w3.org/1999/02/22-rdf-syntax-ns#"
   xmlns:svg="http://www.w3.org/2000/svg"
   xmlns="http://www.w3.org/2000/svg"
   xmlns:sodipodi="http://sodipodi.sourceforge.net/DTD/sodipodi-0.dtd"
   xmlns:inkscape="http://www.inkscape.org/namespaces/inkscape"
   width="16"
   height="16"
   version="1.1"
   id="svg8"
   sodipodi:docname="thunderbolt-acquiring-symbolic.svg"
   inkscape:version="0.92.3 (2405546, 2018-03-11)">
  <metadata
     id="metadata14">
    <rdf:RDF>
      <cc:Work
         rdf:about="">
        <dc:format>image/svg+xml</dc:format>
        <dc:type
           rdf:resource="http://purl.org/dc/dcmitype/StillImage" />
      </cc:Work>
    </rdf:RDF>
  </metadata>
  <defs
     id="defs12" />
  <sodipodi:namedview
     pagecolor="#ffffff"
     bordercolor="#666666"
     borderopacity="1"
     objecttolerance="10"
     gridtolerance="10"
     guidetolerance="10"
     inkscape:pageopacity="0"
     inkscape:pageshadow="2"
     inkscape:window-width="1920"
     inkscape:window-height="1026"
     id="namedview10"
     showgrid="false"
     inkscape:zoom="14.75"
     inkscape:cx="8.2711864"
     inkscape:cy="7.7288136"
     inkscape:window-x="0"
     inkscape:window-y="30"
     inkscape:window-maximized="1"
     inkscape:current-layer="svg8" />
  <path
     inkscape:connector-curvature="0"
     style="fill:#eff0f1;fill-opacity:1"
     id="path2"
     d="M 6,8.5 A 1.5,1.5 0 0 1 4.5,10 1.5,1.5 0 0 1 3,8.5 1.5,1.5 0 0 1 4.5,7 1.5,1.5 0 0 1 6,8.5 Z m 4,0 A 1.5,1.5 0 0 1 8.5,10 1.5,1.5 0 0 1 7,8.5 1.5,1.5 0 0 1 8.5,7 1.5,1.5 0 0 1 10,8.5 Z m 4,0 A 1.5,1.5 0 0 1 12.5,10 1.5,1.5 0 0 1 11,8.5 1.5,1.5 0 0 1 12.5,7 1.5,1.5 0 0 1 14,8.5 Z" />
  <path
     inkscape:connector-curvature="0"
     id="path4"
     style="font-weight:400;font-family:sans-serif;font-variant-ligatures:normal;font-variant-position:normal;font-variant-caps:normal;font-variant-numeric:normal;font-variant-alternates:normal;font-feature-settings:normal;text-indent:0;text-decoration:none;text-decoration-line:none;text-decoration-style:solid;text-decoration-color:#000000;text-transform:none;text-orientation:mixed;white-space:normal;shape-padding:0;overflow:visible;opacity:0.5;isolation:auto;mix-blend-mode:normal;fill:#eff0f1;fill-opacity:1"
     overflow="visible"
     font-weight="400"
     d="M 9,0.992 C 7.987,0.992 6.992,1.83 6.992,3 v 3 h 1 V 3 c 0,-0.555 0.6,-1.008 1.008,-1.008 0.403,0 1.008,0.468 1.008,1.008 v 3 h 1 V 3 C 11.008,1.836 10.018,0.992 9,0.992 Z m 5.504,1.927 c 0,0 -0.357,-0.015 -0.73,0.168 C 13.4,3.27 12.992,3.745 12.992,4.419 V 6 h 1 V 4.419 c 0,-0.347 0.094,-0.372 0.22,-0.434 0.128,-0.062 0.27,-0.066 0.27,-0.066 z M 2.992,4.561 V 6 h 1 V 4.56 Z m 0,6.439 v 2.46 c 0,1.506 1.273,2.55 2.52,2.5 A 2.68,2.68 0 0 0 7.178,15.279 C 7.652,14.855 7.992,14.219 7.992,13.46 V 11 h -1 v 2.46 c 0,0.47 -0.189,0.814 -0.48,1.075 -0.292,0.26 -0.694,0.412 -1.04,0.425 -0.637,0.026 -1.48,-0.574 -1.48,-1.5 V 11 Z m 7.016,0 v 2 c 0,0.636 0.266,1.169 0.654,1.504 0.388,0.335 0.873,0.488 1.338,0.488 0.986,0 1.992,-0.801 1.992,-1.992 v -2 h -1 v 2 c 0,0.604 -0.57,0.992 -0.992,0.992 A 1.08,1.08 0 0 1 11.316,13.748 C 11.134,13.59 11.008,13.377 11.008,13 V 11 Z M 2,0 V 2 H 1 V 3 C 1,4.108 1.892,5 3,5 H 4 C 5.108,5 6,4.108 6,3 V 2 H 5 V 0 H 4 V 2 H 3 V 0 Z" />
</svg>
