<?xml version="1.0" encoding="UTF-8" standalone="no"?>
<!-- Created with Inkscape (http://www.inkscape.org/) -->

<svg
   width="96"
   height="96"
   viewBox="0 0 25.399999 25.400001"
   version="1.1"
   id="svg5"
   inkscape:version="1.1.1 (3bf5ae0d25, 2021-09-20)"
   sodipodi:docname="folder-html.svg"
   xmlns:inkscape="http://www.inkscape.org/namespaces/inkscape"
   xmlns:sodipodi="http://sodipodi.sourceforge.net/DTD/sodipodi-0.dtd"
   xmlns:xlink="http://www.w3.org/1999/xlink"
   xmlns="http://www.w3.org/2000/svg"
   xmlns:svg="http://www.w3.org/2000/svg">
  <sodipodi:namedview
     id="namedview7"
     pagecolor="#ffffff"
     bordercolor="#666666"
     borderopacity="1.0"
     inkscape:pageshadow="2"
     inkscape:pageopacity="0.0"
     inkscape:pagecheckerboard="0"
     inkscape:document-units="px"
     showgrid="false"
     units="px"
     height="96px"
     inkscape:zoom="5.7747054"
     inkscape:cx="83.554046"
     inkscape:cy="55.414082"
     inkscape:window-width="1920"
     inkscape:window-height="1011"
     inkscape:window-x="0"
     inkscape:window-y="0"
     inkscape:window-maximized="1"
     inkscape:current-layer="svg5" />
  <defs
     id="defs2">
    <linearGradient
       inkscape:collect="always"
       id="linearGradient4652">
      <stop
         style="stop-color:#82705e;stop-opacity:1;"
         offset="0"
         id="stop4648" />
      <stop
         style="stop-color:#a89888;stop-opacity:1"
         offset="1"
         id="stop4650" />
    </linearGradient>
    <linearGradient
       inkscape:collect="always"
       id="linearGradient3734">
      <stop
         style="stop-color:#bda792;stop-opacity:1;"
         offset="0"
         id="stop3730" />
      <stop
         style="stop-color:#c9b8a7;stop-opacity:1"
         offset="1"
         id="stop3732" />
    </linearGradient>
    <linearGradient
       inkscape:collect="always"
       xlink:href="#linearGradient3734"
       id="linearGradient3736"
       x1="15.081244"
       y1="23.283333"
       x2="15.081244"
       y2="5.5562501"
       gradientUnits="userSpaceOnUse" />
    <linearGradient
       inkscape:collect="always"
       xlink:href="#linearGradient4652"
       id="linearGradient4654"
       x1="7.1437502"
       y1="11.509376"
       x2="7.1437502"
       y2="2.1166673"
       gradientUnits="userSpaceOnUse" />
  </defs>
  <path
     id="rect846-3"
     style="fill:url(#linearGradient4654);stroke-width:0.300092;fill-opacity:1"
     d="m 1.3229165,2.1166673 8.9958335,-7e-7 2.381251,3.1749999 11.377083,7e-7 V 18.785418 H 1.3229165 Z"
     sodipodi:nodetypes="ccccccc" />
  <path
     id="rect956"
     style="opacity:0.2;fill:#f9f9f9;stroke-width:0.458269"
     d="m 10.31875,2.1166666 2.381251,3.1749999 11.377083,7e-7 V 5.5562501 H 12.700001 Z"
     sodipodi:nodetypes="cccccc" />
  <path
     id="rect956-3"
     style="opacity:0.2;stroke-width:0.458269"
     d="M 10.054167,8.4666662 12.7,5.5562501 10.31875,8.7312498 H 1.3229166 V 8.4666662 Z"
     sodipodi:nodetypes="cccccc" />
  <path
     id="rect846"
     style="fill:url(#linearGradient3736);stroke-width:0.309472;fill-opacity:1"
     d="M 1.3229166,8.7312498 H 10.31875 L 12.700001,5.5562501 H 24.077084 V 23.283333 H 1.3229166 Z"
     sodipodi:nodetypes="ccccccc" />
  <path
     id="rect956-3-6"
     style="opacity:0.2;fill:#f9f9f9;stroke-width:0.458269"
     d="M 10.31875,8.7312498 12.700001,5.5562501 10.583333,8.9958338 H 1.3229166 v -0.264584 z"
     sodipodi:nodetypes="cccccc" />
  <path
     id="rect956-3-7"
     style="opacity:0.2;stroke-width:0.458269"
     d="m 24.077084,23.018749 v 0.264584 H 1.3229166 v -0.264584 z"
     sodipodi:nodetypes="ccccc" />
  <path
     id="path1031"
     d="m 12.670028,10.847945 a 3.96875,3.96875 0 0 0 -3.938778,3.96875 3.96875,3.96875 0 0 0 3.96875,3.96875 3.96875,3.96875 0 0 0 3.96875,-3.96875 3.96875,3.96875 0 0 0 -3.96875,-3.96875 3.96875,3.96875 0 0 0 -0.02997,0 z m 0.02997,0.264584 a 3.7041666,3.7041666 0 0 1 3.704166,3.704166 3.7041666,3.7041666 0 0 1 -3.704166,3.704167 3.7041666,3.7041666 0 0 1 -3.704167,-3.704167 3.7041666,3.7041666 0 0 1 3.704167,-3.704166 z"
     stroke-width="0.561266"
     style="fill:#867a61;fill-opacity:1" />
  <path
     id="path989"
     d="m 11.927049,11.252303 c -0.04195,-0.009 -0.0657,0.06692 -0.115888,0.09014 -0.02695,0.01273 -0.0753,0.01815 -0.103012,0.01286 -0.01797,-0.0037 -0.04926,-0.01709 -0.05151,-0.05151 -0.0019,-0.01984 0.0046,-0.02687 0.01286,-0.03861 0.0011,-0.0019 2.64e-4,-0.0056 0,-0.0088 -0.222935,0.06445 -0.412933,0.195369 -0.604393,0.324329 -0.06799,0.04579 -0.134795,0.0927 -0.205216,0.134401 -0.0019,0.01924 -0.0076,0.03543 -0.01453,0.05231 -0.01574,0.0382 -0.06481,0.06738 -0.103013,0.06438 -0.01294,-7.94e-4 -0.02106,-0.01844 -0.03622,-0.02979 -0.150185,0.09895 -0.331075,0.143647 -0.46597,0.263972 0.02095,0.03123 0.04297,0.06925 0,0.08772 -0.0075,0.0037 -0.09791,0.01659 -0.115888,0.01286 -0.0037,-2.64e-4 -0.0057,-0.0046 -0.008,-0.008 -0.01754,0.01701 -0.02307,0.04222 -0.04026,0.05955 0.01953,-0.01169 0.06929,-0.01431 0.09979,-0.01286 0.0105,0 0.0091,-0.0045 0.01286,0 -0.0052,0.03968 -0.0208,0.04566 -0.05151,0.06438 -0.05319,0.03222 -0.08579,0.07274 -0.103013,0.141642 -0.0052,0.02021 -0.06467,0.0825 -0.09014,0.07726 -0.05446,-0.01169 -0.03194,-0.113041 -0.0104,-0.141637 -0.265707,0.294648 -0.480179,0.634177 -0.63822,0.992243 0.02655,0.0062 0.07149,0.01 0.0949,0.01212 0.06892,0.0052 0.07183,-0.0473 0.128767,-0.07726 0.05843,0.0083 0.08846,-0.006 0.141642,0 0.03597,0.0037 0.08742,0.04926 0.115888,0.0515 0.02397,7.93e-4 0.02901,-0.0295 0.05151,-0.02572 0.02244,0.0037 0.06064,0.0503 0.06438,0.07726 0.0037,0.03371 -0.02265,0.06556 -0.01286,0.10301 0.03523,0.03597 0.104328,0.05629 0.154519,0.07726 0.03297,-0.027 0.0052,-0.08982 0,-0.128765 -7.94e-4,-0.01722 0.0019,-0.03576 0,-0.0515 -0.0037,-0.02695 -0.01286,-0.05405 -0.01286,-0.07726 0,-0.107095 0.0826,-0.151204 0.15452,-0.193148 0.03069,-0.01799 0.06316,-0.0509 0.09014,-0.06438 0.0382,-0.01876 0.05867,-0.02069 0.09014,-0.03861 0.05693,-0.03222 0.110315,-0.06631 0.154519,-0.10301 0.02021,-0.04867 -0.0019,-0.10659 0,-0.154517 0.02021,-0.01273 0.02979,0.0019 0.05151,0 0.03445,-0.0075 0.0449,-0.05779 0.06438,-0.07726 0.01127,-0.01127 0.05088,-0.01458 0.06438,-0.02574 0.03445,-0.027 0.03441,-0.06527 0.06438,-0.07726 0.01053,-0.0037 0.03498,-0.0084 0.0515,-0.01286 0.02252,-0.006 0.05418,-0.02596 0.09014,-0.03861 0.02326,-0.0083 0.08114,-0.0041 0.09013,-0.01286 0.01127,-0.01127 -0.0029,-0.06003 0,-0.07726 0.01797,-0.08463 0.143242,-0.08742 0.218903,-0.115887 0.05244,-0.02024 0.108966,-0.06274 0.167399,-0.05151 -0.01127,0.04042 -0.06125,0.02855 -0.05151,0.07726 0.01273,0.06815 0.09192,-0.01603 0.11589,-0.02574 0.04569,-0.0195 0.133212,-0.02979 0.193146,-0.05151 0.05244,-0.01871 0.139575,-0.05523 0.09014,-0.115887 -0.04121,-0.0029 -0.05418,0.03651 -0.09014,0.0515 -0.02474,0.0037 -0.03054,-0.01138 -0.0515,-0.01286 -0.02024,-7.94e-4 -0.03128,0.01659 -0.05151,0.01286 -0.02021,-0.0037 -0.04851,-0.04042 -0.0515,-0.06438 -0.0083,-0.06291 0.06467,-0.08233 0.09014,-0.128768 -0.01723,-0.05692 -0.0937,-0.0033 -0.141645,-0.02574 0.0052,-0.0337 0.02469,-0.07051 0.06439,-0.07726 0.03222,-0.0052 0.109289,0.01016 0.128765,0.02574 0.01127,0.0097 -0.0043,0.03577 0.01286,0.0515 0.01953,0.01722 0.05179,0.0037 0.07726,0 0.009,-0.04269 -0.059,-0.02381 -0.05151,-0.0515 0.05093,-0.03297 0.143844,-0.01749 0.206021,-0.02574 0.03597,-0.0052 0.0708,-0.03429 0.103013,-0.05151 0.02996,-0.01722 0.05867,-0.04136 0.09014,-0.01286 0.009,0.03069 -0.02146,0.04866 -0.03861,0.06438 -0.05768,0.05092 -0.109572,0.108231 -0.154516,0.167394 0.02773,0.027 0.06944,0.0077 0.115887,0.01286 0.01796,0.0019 0.04565,0.0099 0.06438,0.01286 0.02246,0.0037 0.0464,-0.0037 0.06438,0 0.03148,0.0075 0.03292,0.05151 0.06438,0.05151 0.05094,0 0.05499,-0.0428 0.02574,-0.07726 0.009,-0.03523 0.02564,-0.06542 0.01286,-0.09014 -0.02326,-0.04644 -0.111395,0.0076 -0.115888,-0.05151 -0.0029,-0.03746 0.03803,-0.0488 0.0515,-0.07726 -0.006,-0.07189 0.059,-0.07648 0.05151,-0.141642 -0.0037,-0.027 -0.03276,-0.02606 -0.05151,-0.05151 -0.0097,-0.01347 -0.01458,-0.04176 -0.02574,-0.0515 -0.03894,-0.03296 -0.111392,-0.02725 -0.115887,-0.09014 -0.0019,-0.03745 0.0052,-0.06257 0,-0.10301 -0.0052,-0.0382 -0.04431,-0.147029 -0.07726,-0.154517 z m -1.220856,0.549669 c 0.04952,-0.03264 0.102714,-0.05672 0.153715,-0.08692 0.0033,-0.0328 0.0024,-0.06856 0.02413,-0.08933 0.07045,0.0016 0.132437,-0.01416 0.181075,-0.04507 0.04864,-0.0309 0.08393,-0.07667 0.102209,-0.1352 -0.165804,0.07544 -0.324784,0.159478 -0.476433,0.25753 -0.005,0.01863 -0.02574,0.0429 -0.02574,0.06439 0,0.01402 0.02365,0.02167 0.04104,0.03461 z m 3.708445,-0.271214 c 0.0056,0.0029 0.0113,0.0059 0.01691,0.0088 -0.0019,-0.0011 -0.0042,-0.0029 -0.0064,-0.0041 -0.0033,-0.0016 -0.0071,-0.0029 -0.01045,-0.0048 z m 0.01691,0.0088 c 0.01093,0.0069 0.02088,0.01558 0.03218,0.0217 0.01042,0.01379 0.0074,0.02851 0.02574,0.03861 0.01347,0.0075 0.02595,0.01902 0.0386,0.02574 0.0217,0.01199 0.04312,0.03049 0.03861,0.05151 -0.006,0.0307 -0.05629,0.02901 -0.07726,0.05151 0.0029,0.04344 -0.01458,0.03519 -0.02574,0.06438 0.0067,0.01876 0.02278,0.01617 0.02574,0.03861 -0.0037,0.02397 -0.03474,0.02679 -0.02574,0.05151 0.04047,0.03148 0.07769,0.0052 0.115891,0 0.0839,-0.0105 0.154334,0.0016 0.206025,-0.03861 -0.0054,-0.03206 0.02516,-0.0412 0.03861,-0.06438 -0.125799,-0.08827 -0.256966,-0.168635 -0.39274,-0.240628 z m -0.109452,0.03462 c -0.01379,0.0024 -0.02652,0.0058 -0.03861,0.01286 -0.02847,0.01722 -0.02979,0.04327 -0.0515,0.05151 -0.0307,0.01127 -0.07276,0.01098 -0.07726,0.03861 -0.0037,0.02326 0.02652,0.03053 0.02574,0.05151 -0.01127,0.02773 -0.03263,0.03065 -0.03861,0.06438 0.0382,0.06216 0.133083,7.94e-4 0.180271,-0.01286 0.02096,-0.006 0.04026,0.0033 0.05151,-0.01286 0.01273,-0.02024 0.0033,-0.06167 0.01286,-0.09014 0.0105,-0.03148 0.04238,-0.02381 0.03861,-0.05151 -0.0029,-0.02773 -0.05657,-0.056 -0.103013,-0.05151 z m 0.570595,0.274434 c -0.01738,0.0065 -0.04329,0.014 -0.05553,0.02169 -0.02096,0.01418 -0.02752,0.03577 -0.05151,0.05151 -0.01722,0.01201 -0.05928,0.0515 -0.07726,0.0515 -0.0217,0 -0.06153,-0.01807 -0.07726,-0.01286 -0.02249,0.0067 -0.01323,0.04252 -0.03861,0.05151 -0.04944,0.01794 -0.13729,-0.04838 -0.154517,0.02574 0.02096,0.04268 0.09131,0.02831 0.128765,0.0515 0.02326,0.015 0.05839,0.09043 0.06438,0.11589 0.006,0.02095 0.009,0.09342 0,0.11589 -0.02326,0.05991 -0.08561,0.05301 -0.154519,0.05151 -0.01876,0 -0.03428,0.0016 -0.05151,0 -0.116113,-0.0075 -0.230844,-0.04449 -0.283284,0.03861 0.0037,0.06366 0.01423,0.09909 0,0.154519 -0.01045,0.04042 -0.05376,0.06781 -0.05151,0.103013 7.94e-4,0.01797 0.03415,0.05254 0.03861,0.07726 0.0029,0.01347 -0.006,0.03956 0,0.05151 0.01953,0.03671 0.06855,-0.006 0.103013,0 0.03296,0.0052 0.06438,0.05344 0.06438,0.09014 0,0.02619 -0.0092,0.07755 -0.02574,0.103013 -0.03297,0.04943 -0.09444,0.03742 -0.141642,0.06438 -0.03894,0.02246 -0.05403,0.07694 -0.07726,0.11589 -0.02474,0.04194 -0.04838,0.05598 -0.03861,0.115885 -0.0337,0.06666 -0.07198,0.109437 -0.141637,0.141645 -0.02024,0.009 -0.04566,0.02516 -0.06438,0.03861 -0.015,0.01045 -0.03049,0.02752 -0.05151,0.0515 -0.02619,0.02922 -0.06303,0.04192 -0.07726,0.06439 -0.0105,0.01722 -0.0016,0.05404 -0.01286,0.07726 -0.01648,0.03148 -0.04341,0.05868 -0.06438,0.09014 -0.0097,0.015 -0.02819,0.03201 -0.03861,0.05151 -0.02397,0.04344 -0.056,0.0777 -0.0515,0.115888 0.0037,0.03671 0.04926,0.04505 0.0515,0.07726 0.0019,0.01797 -0.01363,0.03202 -0.01286,0.05151 7.94e-4,0.02848 0.01061,0.04192 0.01286,0.06438 0.0052,0.05542 -0.02818,0.0777 -0.03861,0.115891 -0.0052,0.01797 0.0045,0.03729 0,0.05151 -0.009,0.02773 -0.05076,0.04431 -0.05151,0.07726 -7.93e-4,0.02326 0.03638,0.04433 0.03861,0.07726 0.0016,0.02244 -0.01733,0.04341 -0.01286,0.06438 0.0083,0.04047 0.08443,0.09731 0.11589,0.128768 0.0427,0.04269 0.08429,0.07095 0.103013,0.11589 0.01574,0.03819 0.0223,0.100303 0.05151,0.128765 0.0217,0.02095 0.06242,0.02979 0.09013,0.05151 0.02622,0.02024 0.06242,0.02979 0.09014,0.05151 0.04569,0.03597 0.107603,0.108254 0.180271,0.103012 0.03819,-0.0029 0.07318,-0.01831 0.115887,-0.02574 0.0442,-0.0075 0.0967,-0.03025 0.141645,-0.02574 0.03445,0.0037 0.06706,0.02802 0.10301,0.02574 0.03746,-0.0019 0.08607,-0.01995 0.128765,-0.03861 0.07417,-0.03222 0.188291,-0.09299 0.296161,-0.07726 0.0824,0.01201 0.08396,0.104941 0.141642,0.141639 0.06592,0.006 0.114957,-0.01273 0.167397,0 0.03972,0.0097 0.08639,0.08444 0.09014,0.11589 0.0037,0.03222 -0.02127,0.05704 -0.02574,0.07726 -0.01045,0.04344 -0.01831,0.101052 -0.02574,0.128765 -0.006,0.0217 -0.01363,0.04266 -0.01286,0.06438 0,0.01953 0.03127,0.06467 0.05151,0.09014 0.02474,0.03148 0.06017,0.05569 0.09013,0.09014 0.05469,0.06291 0.07769,0.148646 0.115893,0.231778 0.0097,0.02096 -0.009,0.02529 0,0.05151 -0.01648,0.125828 -0.05924,0.208367 -0.141645,0.347668 -0.03894,0.04493 -0.07801,0.09835 -0.07726,0.154517 -0.0029,0.134807 0.07038,0.204478 0.06438,0.33479 -0.01347,0.175252 7.94e-4,0.202547 -0.01286,0.296164 0.05918,0.02995 0.03008,0.118107 0.01286,0.180271 -0.02545,0.07414 -0.05015,0.09221 -0.06438,0.141642 0.02769,0.01201 0.05224,0.01336 0.08129,0.01127 0.666406,-0.691063 1.038844,-1.613652 1.038974,-2.573695 -1.4e-4,-0.581903 -0.174141,-1.454637 -0.436189,-1.650611 -2.33e-4,0.0011 -0.0011,0.0011 -0.0016,0.0024 -0.0075,0.04194 0.02426,0.09553 -0.03861,0.103013 -0.03968,0.0052 -0.08696,-0.03956 -0.14164,-0.05151 -0.02244,-0.0052 -0.05928,0.006 -0.07726,0 -0.04121,-0.01418 -0.02917,-0.06542 -0.06438,-0.09014 -0.02021,-0.01423 -0.0708,-0.0349 -0.10301,-0.03861 -0.02024,-0.0019 -0.03053,0.0029 -0.05151,0 -0.02545,-0.0029 -0.06916,-1.43e-4 -0.09013,-0.01286 -0.02021,-0.01273 -0.07202,-0.03428 -0.07726,-0.05151 -0.0083,-0.02773 0.06289,-0.06692 0.06438,-0.09014 0.0016,-0.01797 -0.02201,-0.02458 -0.02574,-0.05151 -0.0029,-0.01648 0.0037,-0.041 0,-0.05151 -0.0052,-0.01953 -0.03366,-0.03787 -0.06438,-0.03861 -0.027,0 -0.05404,0.01286 -0.07726,0.01286 -0.03296,7.94e-4 -0.100438,-0.01659 -0.141636,-0.01286 -0.02474,0.0019 -0.04117,0.01138 -0.06438,0.01286 -0.06518,0.0052 -0.103582,-0.0037 -0.15452,0 -0.03672,0.0019 -0.107182,0.02297 -0.141644,0.03861 -0.01722,0.0083 -0.02901,0.02744 -0.05151,0.03861 -0.01042,0.0052 -0.02508,0.0069 -0.0386,0.01286 -0.02098,0.0097 -0.05704,0.03342 -0.07726,0.03861 -0.02922,0.0075 -0.0627,-0.0019 -0.11589,0 -0.0382,0.0019 -0.102262,-0.0058 -0.103013,-0.0515 -7.94e-4,-0.06965 0.12723,-0.03956 0.193148,-0.05151 0.02474,-0.0052 0.0344,-0.03428 0.06438,-0.0515 0.01426,-0.0083 0.02516,-0.01675 0.03861,-0.02574 0.02244,-0.01574 0.06064,-0.04641 0.06439,-0.06438 0.0029,-0.01648 -0.01514,-0.03956 -0.01286,-0.05151 0.0029,-0.01574 0.03127,-0.03127 0.05151,-0.05151 0.03148,-0.03148 0.05118,-0.06992 0.09014,-0.09014 0.02619,-0.01418 0.07815,-0.01773 0.09014,-0.03861 0.0029,-0.02397 -7.94e-4,-0.02979 0,-0.05151 0.01648,-0.015 0.01228,-0.02281 0.02574,-0.02574 0.04046,-0.009 0.08157,0.01513 0.128767,0.01286 0.02022,-7.94e-4 0.04266,0.0016 0.06438,-0.01286 0.01797,-0.01201 0.03354,-0.02967 0.0515,-0.03861 0.01953,-0.0105 0.04038,-0.03712 0.06438,-0.03861 0.05918,-0.0037 0.08892,0.06706 0.11589,0.103013 0.02244,0.02922 0.09205,0.06991 0.128765,0.09014 0.02096,0.01127 0.04116,0.02818 0.06439,0.03861 0.01633,0.0073 0.06891,0.01598 0.09033,0.02897 -0.210029,-0.272735 -0.444278,-0.512125 -0.721302,-0.716857 z m -4.549447,0.330763 c 0.01797,7.94e-4 0.03053,0.03713 0.05151,0.03861 0.02022,0.0016 0.05238,-0.01659 0.06438,-0.01286 0.03148,0.0083 0.04286,0.06692 0.01286,0.09013 -0.02474,0.0029 -0.03354,-0.0295 -0.05151,-0.02574 -0.05094,0.009 -0.06481,0.106011 -0.103013,0.103013 -0.03597,-0.0037 -0.06248,-0.0768 -0.02574,-0.103013 7.94e-4,-0.02252 -0.01442,-0.02905 -0.01286,-0.05151 0.01127,-0.01418 0.03441,-0.04087 0.06438,-0.03861 z m 0.03861,0.25753 c 0.01273,0 0.02513,-0.0052 0.03861,0 -0.03445,0.02921 -0.08171,0.04566 -0.141645,0.06438 -0.02847,0.009 -0.07201,0.01855 -0.07726,-0.01286 -0.006,-0.03894 0.02603,-0.0349 0.05151,-0.03861 0.03296,-0.0037 0.09056,-0.01212 0.128765,-0.01286 z m 4.880213,0 c -0.02474,0.0083 -0.03672,0.05764 0,0.06438 0.01722,-0.01045 0.01738,-0.03292 0.01286,-0.06438 -0.0097,-0.01042 -0.0054,-0.0029 -0.01286,0 z m -0.01286,0.103013 c -0.01201,0.0037 -0.02596,-7.94e-4 -0.03861,0.01286 7.93e-4,0.04194 0.0083,0.06632 0,0.103013 0.02397,0.04644 0.07815,0.01855 0.09014,-0.01286 0.01423,-0.07789 -0.01553,-0.112752 -0.05151,-0.103015 z m 0.416076,0.08129 c 0.01513,0.02146 0.03383,0.0443 0.03461,0.06035 7.94e-4,0.02397 -0.01664,0.04191 -0.01286,0.06439 0.02596,0.0042 0.03939,-0.0222 0.05151,-0.05151 -0.01995,-0.02851 -0.05253,-0.04533 -0.07324,-0.07323 z m -0.09416,0.124743 c -0.03296,-0.0016 -0.05778,0.01019 -0.07726,0.02574 0.02773,0.04494 0.07946,0.05315 0.141642,0.06438 0.02244,-0.01648 0.01529,-0.06167 0.02574,-0.09013 -0.027,0 -0.0443,0.0016 -0.07726,0 z m -6.116362,1.133131 c -0.06217,0.0037 -0.105677,0.0094 -0.14164,0.02574 -0.0809,0.03671 -0.05999,0.141933 -0.141644,0.167394 -0.0082,0.0024 -0.09528,-0.03296 -0.105543,-0.03004 -0.02101,0.100621 -0.04305,0.262319 -0.05566,0.364837 0.01323,0.01363 0.09421,0.0052 0.109704,0.01289 0.01876,0.0097 0.04042,0.0077 0.06438,0.01286 0.0195,0.0037 0.0328,0.01979 0.05151,0.02572 0.03972,0.01347 0.09731,0.01154 0.128765,0.02574 0.04794,0.02096 0.07468,0.104797 0.11589,0.128765 0.0019,0.02397 -0.0075,0.04641 0,0.06439 0.01953,0.02619 0.05867,0.03428 0.09014,0.0515 0.0382,0.02095 0.05418,0.07366 0.09014,0.09014 0.01273,0.0052 0.03202,-0.006 0.0515,0 0.04944,0.015 0.06031,0.08999 0.103013,0.07726 0.02773,-0.0083 0.03416,-0.0503 0.03861,-0.07726 0.01876,-0.02021 0.03515,-0.05151 0.06438,-0.05151 0.04644,-7.93e-4 0.06003,0.05734 0.07726,0.103013 0.0097,0.02545 0.03189,0.0503 0.03861,0.07726 0.01127,0.04643 0.0097,0.178314 0,0.206026 -0.01201,0.03445 -0.06167,0.05269 -0.09014,0.09014 -0.01347,0.01797 -0.02819,0.03955 -0.03861,0.0515 -0.01797,0.02246 -0.03799,0.03132 -0.05151,0.05151 -0.0075,0.01127 -0.0061,0.03577 -0.01286,0.0515 -0.02249,0.04793 -0.05737,0.08397 -0.03861,0.141642 0.0075,0.02326 0.03861,0.04956 0.03861,0.07726 0,0.03296 -0.07202,0.04131 -0.07726,0.07726 -0.0037,0.02619 0.03041,0.08069 0.03861,0.11589 0.006,0.02619 0.04865,0.04715 0.06438,0.06438 0.02619,0.02921 0.05328,0.06556 0.07726,0.103013 0.0472,0.07264 0.06945,0.160631 0.11589,0.231777 0.02474,0.03671 0.07366,0.06407 0.09014,0.103013 0.0083,0.0195 -0.0075,0.05929 0,0.07726 0.02695,0.06067 0.158226,0.124566 0.218903,0.154522 0.02847,0.01426 0.05104,0.02365 0.07726,0.03861 0.03972,0.02246 0.121415,0.06781 0.141639,0.103013 0.01797,0.03148 0.02963,0.104343 0.03861,0.154516 0.01127,0.06591 -0.0029,0.122 0,0.193149 0.0019,0.03894 0.01286,0.06406 0.01286,0.103015 0,0.01347 7.94e-4,0.03803 0,0.0515 -7.93e-4,0.04643 0.0037,0.09446 0,0.141642 -0.0019,0.02545 -0.0016,0.05554 0,0.07726 0.0019,0.02326 0.02426,0.03127 0.02574,0.0515 0.0016,0.0217 -0.02802,0.04716 -0.02574,0.06439 0.0052,0.04718 0.05539,0.08532 0.06438,0.12876 0.0075,0.03445 0.01733,0.113329 0.01286,0.154522 -0.0029,0.0217 -0.0099,0.0533 -0.01286,0.07726 -2.64e-4,0.005 -1.61e-4,0.009 0,0.01368 2.65e-4,0.0065 0.01206,0.0054 0.01206,0.01206 0,0.0067 -0.01146,0.0055 -0.01206,0.01209 5.9e-5,0.0044 7.94e-4,0.0091 0,0.01368 -0.0024,-0.0016 -0.0047,-0.0048 -0.0072,-0.0064 -1.96e-4,0.0011 -0.0019,0.0011 -0.0024,0.0024 0.0078,0.0052 0.01384,0.01595 0.02169,0.02093 0.186556,0.118107 0.384871,0.219969 0.593122,0.30421 -7.94e-4,-0.0016 0.0011,-0.01154 0,-0.01206 0.03894,-0.01648 0.113178,0.02893 0.14164,-0.02574 0.01431,-0.02622 -0.01876,-0.0768 0,-0.103016 0.01347,-0.01797 0.101055,-0.03416 0.128767,-0.0386 0.03972,-0.0067 0.08054,0.0011 0.103016,-0.01286 0.02474,-0.01574 0.056,-0.05658 0.0515,-0.103011 -0.0019,-0.02169 -0.02143,-0.03206 -0.03861,-0.05151 -0.01421,-0.01648 -0.0033,-0.0365 -0.01286,-0.0515 -0.01797,-0.02622 -0.04402,-0.03902 -0.05151,-0.07726 0.05394,-0.01048 0.128119,0.06036 0.206026,0.03861 0.03672,-0.0105 0.09866,-0.08144 0.11589,-0.11589 0.0052,-0.0105 -0.006,-0.05163 0,-0.06438 0.0067,-0.01418 0.02349,-0.01831 0.02574,-0.02574 0.0052,-0.02021 -0.0045,-0.02596 0,-0.03861 0.01347,-0.0382 0.05478,-0.06243 0.07726,-0.09014 0.01723,-0.02096 0.03576,-0.04266 0.0515,-0.06438 0.01796,-0.02326 0.02668,-0.03127 0.03861,-0.05151 0.01127,-0.06815 -0.04224,-0.120354 -0.02574,-0.180266 0.01796,-0.0674 0.115102,-0.11094 0.180274,-0.141648 0.02246,-0.0105 0.04565,-0.03189 0.06438,-0.03861 0.04494,-0.01574 0.09969,-0.0108 0.141642,-0.02574 0.07042,-0.02545 0.0943,-0.102994 0.128763,-0.167397 0.01648,-0.02995 0.03564,-0.05554 0.03861,-0.07726 0.0029,-0.01953 -0.0037,-0.0419 0,-0.06438 0.0037,-0.02246 0.0069,-0.03968 0.01286,-0.06438 0.0083,-0.03222 0.01286,-0.09281 0.01286,-0.128764 0,-0.02995 -0.01212,-0.03742 -0.01286,-0.06438 -0.0052,-0.09736 0.02844,-0.101349 0.06439,-0.15452 0.01797,-0.02619 0.02596,-0.07142 0.03861,-0.09014 0.06068,-0.08987 0.162013,-0.134104 0.154517,-0.270407 -0.0029,-0.04494 -0.01855,-0.140285 -0.0515,-0.154519 -0.01876,-0.0083 -0.06242,-0.0024 -0.09014,-0.01286 -0.0884,-0.03296 -0.152517,-0.134154 -0.244658,-0.141642 -0.01953,-7.94e-4 -0.02979,7.94e-4 -0.05151,0 -0.03597,-7.94e-4 -0.07544,-0.03416 -0.115888,-0.03861 -0.02545,-0.0029 -0.07515,0.0075 -0.09014,0 -0.02326,-0.01127 -0.01992,-0.05166 -0.03861,-0.06438 -0.015,-0.0105 -0.04117,-0.01749 -0.06438,-0.02574 -0.03671,-0.01418 -0.06031,-0.02275 -0.103012,-0.02574 -0.01347,-7.94e-4 -0.04942,0.0019 -0.06438,0 -0.02326,-0.0037 -0.04266,-0.02516 -0.06438,-0.03861 -0.02695,-0.01648 -0.04026,-0.02827 -0.05151,-0.05151 0.02474,-0.08089 -0.06078,-0.09447 -0.07726,-0.141645 -0.0075,-0.0217 0.0075,-0.05779 0,-0.07726 -0.0097,-0.02773 -0.03366,-0.04117 -0.06438,-0.06439 -0.05393,-0.04194 -0.103108,-0.0804 -0.180272,-0.09013 -0.03445,-0.0037 -0.07468,0.0029 -0.115887,0 -0.04345,-0.0029 -0.09581,-0.02695 -0.128767,-0.06438 -0.03144,-0.03676 -0.03663,-0.07293 -0.06436,-0.09015 -0.02622,-0.01648 -0.07216,-0.02146 -0.09014,-0.03861 -0.0083,-0.0075 -0.0054,-0.02146 -0.01286,-0.03861 -0.01347,-0.027 -0.04224,-0.03144 -0.02574,-0.06438 -0.02995,-0.015 -0.01926,0.01886 -0.05151,0.01286 -0.02922,-0.04121 -0.04997,-0.06424 -0.115888,-0.05151 -0.02996,0.006 -0.05492,0.05076 -0.09014,0.05151 -0.02922,7.94e-4 -0.05193,-0.04627 -0.09014,-0.05151 -0.02922,-0.0037 -0.06991,0.03025 -0.09014,0.02574 -0.03222,-0.006 -0.03519,-0.04488 -0.06438,-0.06438 -0.0217,-0.01429 -0.06527,-0.05225 -0.07726,-0.05151 -0.03745,7.94e-4 -0.0642,0.07921 -0.11589,0.05151 -0.02545,-0.03222 0.04286,-0.03445 0.01286,-0.06438 -0.02246,-0.02246 -0.0335,7.94e-4 -0.05151,0.01286 -0.02096,0.01418 -0.04116,0.03041 -0.06438,0.03861 -0.05169,0.01953 -0.08831,0.01773 -0.128764,0.03861 -0.03746,0.01953 -0.04266,0.05194 -0.06438,0.09014 -0.01722,0.03148 -0.05104,0.07576 -0.07726,0.07726 -0.03148,0.0019 -0.06167,-0.03952 -0.09013,-0.05151 -0.08615,-0.03745 -0.134861,0.025 -0.206026,0.02574 -0.06592,7.94e-4 -0.157515,-0.105227 -0.154519,-0.167396 0.0019,-0.0382 0.02127,-0.09446 0.02574,-0.14164 0.0037,-0.03745 0.03791,-0.06856 0.03861,-0.103013 7.94e-4,-0.04568 -0.07305,-0.08489 -0.103013,-0.09014 -0.07042,-0.0127 -0.164499,0.03148 -0.244655,0 -0.015,-0.02545 0.02963,-0.03968 0.03861,-0.06438 0.0052,-0.01418 -0.0052,-0.02291 0,-0.03861 0.009,-0.02397 0.04026,-0.03894 0.0515,-0.06438 0.0083,-0.01953 0.0046,-0.05329 0.01286,-0.07726 0.0097,-0.027 0.03634,-0.04491 0.03861,-0.06438 0.0029,-0.02545 -0.01847,-0.06078 -0.03861,-0.07726 z"
     color="#000000"
     stroke-width="0.412051"
     style="fill:#867a61;fill-opacity:1" />
</svg>
