<?xml version="1.0" encoding="UTF-8" standalone="no"?>
<!-- Created with Inkscape (http://www.inkscape.org/) -->

<svg
   width="96"
   height="96"
   viewBox="0 0 25.399999 25.400001"
   version="1.1"
   id="svg5"
   inkscape:version="1.1.1 (3bf5ae0d25, 2021-09-20)"
   sodipodi:docname="folder-publicshare.svg"
   xmlns:inkscape="http://www.inkscape.org/namespaces/inkscape"
   xmlns:sodipodi="http://sodipodi.sourceforge.net/DTD/sodipodi-0.dtd"
   xmlns:xlink="http://www.w3.org/1999/xlink"
   xmlns="http://www.w3.org/2000/svg"
   xmlns:svg="http://www.w3.org/2000/svg">
  <sodipodi:namedview
     id="namedview7"
     pagecolor="#ffffff"
     bordercolor="#666666"
     borderopacity="1.0"
     inkscape:pageshadow="2"
     inkscape:pageopacity="0.0"
     inkscape:pagecheckerboard="0"
     inkscape:document-units="px"
     showgrid="false"
     units="px"
     height="96px"
     inkscape:zoom="5.7747054"
     inkscape:cx="83.554046"
     inkscape:cy="55.414082"
     inkscape:window-width="1920"
     inkscape:window-height="1011"
     inkscape:window-x="0"
     inkscape:window-y="0"
     inkscape:window-maximized="1"
     inkscape:current-layer="svg5" />
  <defs
     id="defs2">
    <linearGradient
       inkscape:collect="always"
       id="linearGradient4652">
      <stop
         style="stop-color:#82705e;stop-opacity:1;"
         offset="0"
         id="stop4648" />
      <stop
         style="stop-color:#a89888;stop-opacity:1"
         offset="1"
         id="stop4650" />
    </linearGradient>
    <linearGradient
       inkscape:collect="always"
       id="linearGradient3734">
      <stop
         style="stop-color:#bda792;stop-opacity:1;"
         offset="0"
         id="stop3730" />
      <stop
         style="stop-color:#c9b8a7;stop-opacity:1"
         offset="1"
         id="stop3732" />
    </linearGradient>
    <linearGradient
       inkscape:collect="always"
       xlink:href="#linearGradient3734"
       id="linearGradient3736"
       x1="15.081244"
       y1="23.283333"
       x2="15.081244"
       y2="5.5562501"
       gradientUnits="userSpaceOnUse" />
    <linearGradient
       inkscape:collect="always"
       xlink:href="#linearGradient4652"
       id="linearGradient4654"
       x1="7.1437502"
       y1="11.509376"
       x2="7.1437502"
       y2="2.1166673"
       gradientUnits="userSpaceOnUse" />
  </defs>
  <path
     id="rect846-3"
     style="fill:url(#linearGradient4654);stroke-width:0.300092;fill-opacity:1"
     d="m 1.3229165,2.1166673 8.9958335,-7e-7 2.381251,3.1749999 11.377083,7e-7 V 18.785418 H 1.3229165 Z"
     sodipodi:nodetypes="ccccccc" />
  <path
     id="rect956"
     style="opacity:0.2;fill:#f9f9f9;stroke-width:0.458269"
     d="m 10.31875,2.1166666 2.381251,3.1749999 11.377083,7e-7 V 5.5562501 H 12.700001 Z"
     sodipodi:nodetypes="cccccc" />
  <path
     id="rect956-3"
     style="opacity:0.2;stroke-width:0.458269"
     d="M 10.054167,8.4666662 12.7,5.5562501 10.31875,8.7312498 H 1.3229166 V 8.4666662 Z"
     sodipodi:nodetypes="cccccc" />
  <path
     id="rect846"
     style="fill:url(#linearGradient3736);stroke-width:0.309472;fill-opacity:1"
     d="M 1.3229166,8.7312498 H 10.31875 L 12.700001,5.5562501 H 24.077084 V 23.283333 H 1.3229166 Z"
     sodipodi:nodetypes="ccccccc" />
  <path
     id="rect956-3-6"
     style="opacity:0.2;fill:#f9f9f9;stroke-width:0.458269"
     d="M 10.31875,8.7312498 12.700001,5.5562501 10.583333,8.9958338 H 1.3229166 v -0.264584 z"
     sodipodi:nodetypes="cccccc" />
  <path
     id="rect956-3-7"
     style="opacity:0.2;stroke-width:0.458269"
     d="m 24.077084,23.018749 v 0.264584 H 1.3229166 v -0.264584 z"
     sodipodi:nodetypes="ccccc" />
  <path
     id="path845"
     d="m 11.509375,10.847917 c -0.80369,0 -1.455208,0.651518 -1.455208,1.455208 0,0.80369 0.651518,1.455208 1.455208,1.455208 0.803698,0 1.455208,-0.651518 1.455208,-1.455208 0,-0.80369 -0.65151,-1.455208 -1.455208,-1.455208 z m 0,0.264583 c 0.657569,0 1.190625,0.533061 1.190625,1.190625 0,0.657564 -0.533056,1.190625 -1.190625,1.190625 -0.657564,0 -1.190625,-0.533061 -1.190625,-1.190625 0,-0.657564 0.533061,-1.190625 1.190625,-1.190625 z m 3.571875,0.264583 c -0.584491,0 -1.058333,0.473832 -1.058333,1.058334 0,0.584501 0.473842,1.058333 1.058333,1.058333 0.584491,0 1.058333,-0.473832 1.058333,-1.058333 0,-0.584502 -0.473842,-1.058334 -1.058333,-1.058334 z m 0,0.264584 c 0.438388,0 0.79375,0.355375 0.79375,0.79375 0,0.438375 -0.355362,0.79375 -0.79375,0.79375 -0.438388,0 -0.79375,-0.355375 -0.79375,-0.79375 0,-0.438375 0.355362,-0.79375 0.79375,-0.79375 z m 0,2.38125 c -0.44468,0 -0.846095,0.183409 -1.134298,0.478006 0.06756,0.05669 0.132728,0.116168 0.195337,0.178284 0.239702,-0.241686 0.571677,-0.391707 0.938961,-0.391707 0.73062,0 1.322917,0.592296 1.322917,1.322916 v 1.322917 H 15.08125 c -3e-6,0 0,0.264583 0,0.264583 h 1.5875 v -1.5875 c 0,-0.876749 -0.71075,-1.587499 -1.5875,-1.587499 z m -3.571875,0.529166 c -1.534316,0 -2.778125,1.243806 -2.778125,2.778125 v 1.455208 h 5.55625 v -1.455208 c 0,-1.534319 -1.243806,-2.778125 -2.778125,-2.778125 z m 0,0.264583 c 1.388189,0 2.513542,1.125353 2.513542,2.513542 v 1.190625 H 8.995833 v -1.190625 c 0,-1.388189 1.12535,-2.513542 2.513542,-2.513542 z"
     style="stroke-width:0.264583;fill:#867a6e;fill-opacity:1" />
</svg>
