<?xml version="1.0" encoding="UTF-8" standalone="no"?>
<svg
   height="32"
   width="32"
   version="1.1"
   id="svg29"
   sodipodi:docname="cs-online-account.svg"
   inkscape:version="1.1 (c4e8f9ed74, 2021-05-24)"
   xmlns:inkscape="http://www.inkscape.org/namespaces/inkscape"
   xmlns:sodipodi="http://sodipodi.sourceforge.net/DTD/sodipodi-0.dtd"
   xmlns:xlink="http://www.w3.org/1999/xlink"
   xmlns="http://www.w3.org/2000/svg"
   xmlns:svg="http://www.w3.org/2000/svg">
  <defs
     id="defs33">
    <linearGradient
       inkscape:collect="always"
       id="linearGradient1424">
      <stop
         style="stop-color:#197cf1;stop-opacity:1;"
         offset="0"
         id="stop1420" />
      <stop
         style="stop-color:#20bcf1;stop-opacity:1"
         offset="1"
         id="stop1422" />
    </linearGradient>
    <linearGradient
       inkscape:collect="always"
       id="linearGradient868">
      <stop
         style="stop-color:#7cbaf8;stop-opacity:1;"
         offset="0"
         id="stop864" />
      <stop
         style="stop-color:#f4fcff;stop-opacity:1"
         offset="1"
         id="stop866" />
    </linearGradient>
    <linearGradient
       inkscape:collect="always"
       xlink:href="#linearGradient868"
       id="linearGradient870"
       x1="23.043821"
       y1="26.978083"
       x2="22.99999"
       y2="19.000013"
       gradientUnits="userSpaceOnUse" />
    <linearGradient
       inkscape:collect="always"
       xlink:href="#a"
       id="linearGradient1210"
       x1="18.894489"
       y1="18.91979"
       x2="26.999989"
       y2="27.000055"
       gradientUnits="userSpaceOnUse" />
    <linearGradient
       inkscape:collect="always"
       xlink:href="#linearGradient1424"
       id="linearGradient1426"
       x1="23.000036"
       y1="31.000008"
       x2="23"
       y2="15"
       gradientUnits="userSpaceOnUse" />
  </defs>
  <sodipodi:namedview
     id="namedview31"
     pagecolor="#ffffff"
     bordercolor="#666666"
     borderopacity="1.0"
     inkscape:pageshadow="2"
     inkscape:pageopacity="0.0"
     inkscape:pagecheckerboard="0"
     showgrid="false"
     inkscape:zoom="3.8062232"
     inkscape:cx="-90.641032"
     inkscape:cy="-20.230027"
     inkscape:window-width="1920"
     inkscape:window-height="1018"
     inkscape:window-x="0"
     inkscape:window-y="0"
     inkscape:window-maximized="1"
     inkscape:current-layer="svg29" />
  <linearGradient
     id="b"
     gradientUnits="userSpaceOnUse"
     x1="2"
     x2="2"
     y1="30"
     y2="2">
    <stop
       offset="0"
       stop-color="#197cf1"
       id="stop2" />
    <stop
       offset="1"
       stop-color="#20bcfa"
       id="stop4" />
  </linearGradient>
  <linearGradient
     id="d"
     gradientUnits="userSpaceOnUse"
     x1="23"
     x2="30"
     xlink:href="#a"
     y1="13"
     y2="20" />
  <linearGradient
     id="a">
    <stop
       offset="0"
       stop-color="#292c2f"
       id="stop8" />
    <stop
       offset="1"
       stop-opacity="0"
       id="stop10" />
  </linearGradient>
  <linearGradient
     id="c"
     gradientUnits="userSpaceOnUse"
     x1="6"
     x2="26"
     xlink:href="#a"
     y1="6"
     y2="26" />
  <linearGradient
     id="e"
     gradientUnits="userSpaceOnUse"
     x1="2"
     x2="2"
     y1="30"
     y2="2">
    <stop
       offset="0"
       stop-color="#54d883"
       id="stop14" />
    <stop
       offset="1"
       stop-color="#abf9c7"
       id="stop16" />
  </linearGradient>
  <rect
     fill="url(#b)"
     height="28"
     rx="14"
     width="28"
     x="2"
     y="2"
     id="rect19" />
  <path
     d="M16 2A13.965 13.965 0 0 0 2.078 14.53l.543.07L6 17l7.188 4.133 1.47 8.799A13.97 13.97 0 0 0 30 16c0-7.756-6.244-14-14-14z"
     fill="url(#c)"
     fill-rule="evenodd"
     opacity=".2"
     id="path21" />
  <path
     d="M29.73 13.27L25 18l3.758 3.758a13.984 13.984 0 0 0 .972-8.488z"
     fill="url(#d)"
     fill-rule="evenodd"
     opacity=".2"
     id="path23" />
  <path
     d="M16 2a14 14 0 0 0-13.059 9H3l3-1 1 1 1 1v-2l2-1V8l2-1 2-2v1l1-1-1-1h2v1l2-1-1-1v-.95A14 14 0 0 0 16 2zm10.375 4.625L26 7v1h1.469a14 14 0 0 0-1.094-1.375zm1.316 1.684L27 9l-2 2-1 1-1 3v1l1 1 1 1 2 1 2.791-.688A14 14 0 0 0 30 16a14 14 0 0 0-2.309-7.691zM4 13l-1 1h-.838c-.05.34-.088.681-.113 1.023v.002L4 16l1 1 2 1 1 1-1 1v2l1 2 2 2v2.629A14 14 0 0 0 16 30c.17-.003.34-.009.51-.018L17 29v-1l2-1 1-1v-2l1-1v-1l-1-1-3-1-1-1-1-1h-1l-1-1-3-1-2 1H6v-2H5v-2z"
     fill="url(#e)"
     id="path25" />
  <path
     d="M29.979 15.414A14 14 0 0 1 16 29 14 14 0 0 1 2.021 15.586 14 14 0 0 0 2 16a14 14 0 0 0 14 14 14 14 0 0 0 14-14 14 14 0 0 0-.021-.586z"
     fill="#292c2f"
     opacity=".2"
     id="path27" />
  <rect
     width="16"
     x="15"
     y="15"
     rx="8.0000029"
     height="16.000011"
     style="fill:url(#linearGradient1426);fill-opacity:1;stroke-width:0.571428"
     id="rect4130" />
  <path
     style="opacity:0.2;fill:url(#linearGradient1210);fill-opacity:1;fill-rule:evenodd;stroke-width:0.571428"
     id="path4415"
     d="m 22.99999,19.000014 c 0.124527,0 0.245239,0.01282 0.362724,0.03571 7.43e-4,1.31e-4 0.0015,-1.32e-4 0.0022,0 0.117187,0.0215 0.229196,0.05623 0.33817,0.0971 l -0.131665,-0.13281 z m 0,0.571429 c -0.692506,0 -1.266781,0.487356 -1.399553,1.139508 -0.01897,0.09316 -0.02902,0.190133 -0.02902,0.289063 0,0.791436 0.637135,1.42857 1.428571,1.42857 0.335503,0 0.63955,-0.119173 0.882812,-0.311383 l -0.882812,0.882812 -0.63616,0.63616 c -0.182477,0.03503 -0.361077,0.08102 -0.532366,0.142857 0,0 -0.0011,0 -0.0011,0 -0.12675,0.05471 -0.254964,0.107652 -0.380581,0.164063 -0.03897,0.0175 -0.07541,0.03861 -0.113839,0.05692 -0.325197,0.180079 -0.614824,0.413326 -0.863839,0.685268 0,0 -0.0011,0.0011 -0.0011,0.0011 -0.139083,0.152026 -0.264684,0.316997 -0.374999,0.492187 -0.0537,0.08528 -0.103365,0.173253 -0.149554,0.263393 -0.0056,0.01096 -0.01013,0.02246 -0.01562,0.03348 -0.03969,0.07956 -0.07695,0.160341 -0.110491,0.243303 -0.01174,0.02925 -0.02142,0.05964 -0.03237,0.08929 -0.02607,0.07008 -0.05213,0.139863 -0.07366,0.212054 -0.0094,0.03159 -0.01609,0.06401 -0.02455,0.09598 -0.01948,0.07302 -0.03889,0.146078 -0.05357,0.220982 -0.002,0.01029 -0.0027,0.02094 -0.0045,0.03129 l -0.631652,0.631669 3.999999,3.999998 h 7.999997 v -5.714281 l -0.571473,0.571429 -5.142855,-5.142856 -0.418527,-0.41741 c 0.04086,0.108974 0.07559,0.220983 0.0971,0.338169 1.4e-4,6.86e-4 -1.38e-4,0.0015 0,0.0022 0.02151,0.117945 0.03571,0.238394 0.03571,0.362727 l -0.882812,0.882812 c 0.19221,-0.243262 0.311384,-0.547309 0.311384,-0.882812 0,-0.791436 -0.637135,-1.428571 -1.428572,-1.428571 z" />
  <path
     id="rect4168"
     style="fill:url(#linearGradient870);fill-opacity:1;stroke-width:0.571428"
     d="m 22.99999,19.000014 c -1.108011,0 -1.999999,0.891994 -1.999999,2 0,1.108005 0.891988,1.999999 1.999999,1.999999 1.108006,0 2,-0.891994 2,-1.999999 0,-1.108006 -0.891994,-2 -2,-2 z m 0,3.999999 c -0.0565,0 -0.110763,0.0017 -0.164062,0.0045 -2.139244,0.08559 -3.835936,1.834563 -3.835936,3.995542 h 0.571428 1.714285 3.428571 1.714285 0.571428 c -0.06395,-2.023726 -1.383328,-3.814958 -3.649555,-3.984412 -0.03744,-0.0033 -0.07499,-0.0056 -0.112722,-0.0078 -0.01861,-0.0011 -0.03712,-0.0025 -0.05581,-0.0034 -0.06037,-0.0026 -0.120852,-0.0044 -0.181916,-0.0044 z m 0,-3.42857 c 0.791435,0 1.428571,0.637137 1.428571,1.428571 0,0.791434 -0.637136,1.42857 -1.428571,1.42857 -0.791439,0 -1.42857,-0.637136 -1.42857,-1.42857 0,-0.791434 0.637131,-1.428571 1.42857,-1.428571 z m 0,3.999998 c 2.151987,0.109245 3.079365,1.40732 3.377231,2.857142 H 24.714276 21.285705 19.62276 c 0.270971,-1.625016 1.672957,-2.857142 3.37723,-2.857142 z"
     sodipodi:nodetypes="ssssssccccccccccsssssscccccc" />
</svg>
