<?xml version="1.0" encoding="UTF-8" standalone="no"?>
<!-- Created with Inkscape (http://www.inkscape.org/) -->

<svg
   width="16"
   height="16"
   viewBox="0 0 4.2333332 4.2333335"
   version="1.1"
   id="svg3856"
   inkscape:version="1.1.1 (3bf5ae0d25, 2021-09-20, custom)"
   sodipodi:docname="folder-videos.svg"
   xmlns:inkscape="http://www.inkscape.org/namespaces/inkscape"
   xmlns:sodipodi="http://sodipodi.sourceforge.net/DTD/sodipodi-0.dtd"
   xmlns:xlink="http://www.w3.org/1999/xlink"
   xmlns="http://www.w3.org/2000/svg"
   xmlns:svg="http://www.w3.org/2000/svg">
  <sodipodi:namedview
     id="namedview3858"
     pagecolor="#ffffff"
     bordercolor="#666666"
     borderopacity="1.0"
     inkscape:pageshadow="2"
     inkscape:pageopacity="0.0"
     inkscape:pagecheckerboard="0"
     inkscape:document-units="px"
     showgrid="false"
     units="px"
     inkscape:zoom="17.302019"
     inkscape:cx="7.6002689"
     inkscape:cy="14.362485"
     inkscape:window-width="1920"
     inkscape:window-height="999"
     inkscape:window-x="0"
     inkscape:window-y="0"
     inkscape:window-maximized="1"
     inkscape:current-layer="svg3856" />
  <defs
     id="defs3853">
    <linearGradient
       inkscape:collect="always"
       id="linearGradient1796">
      <stop
         style="stop-color:#3daee9;stop-opacity:1;"
         offset="0"
         id="stop1792" />
      <stop
         style="stop-color:#73cbf6;stop-opacity:1"
         offset="1"
         id="stop1794" />
    </linearGradient>
    <linearGradient
       inkscape:collect="always"
       id="linearGradient1243">
      <stop
         style="stop-color:#000000;stop-opacity:1;"
         offset="0"
         id="stop1239" />
      <stop
         style="stop-color:#000000;stop-opacity:0;"
         offset="1"
         id="stop1241" />
    </linearGradient>
    <linearGradient
       inkscape:collect="always"
       xlink:href="#linearGradient1243"
       id="linearGradient1245"
       x1="19.00543"
       y1="19.034328"
       x2="-2.0000002"
       y2="-2.0000002"
       gradientUnits="userSpaceOnUse" />
    <linearGradient
       inkscape:collect="always"
       xlink:href="#linearGradient1796"
       id="linearGradient1798"
       x1="4.23874"
       y1="4.2306299"
       x2="0.037845723"
       y2="-0.0081099188"
       gradientUnits="userSpaceOnUse" />
  </defs>
  <path
     id="rect1085"
     style="fill:url(#linearGradient1798);stroke-width:0.132292;stroke-linejoin:round;fill-opacity:1"
     d="M 0.26458335,3.8349913e-8 H 3.9687498 C 4.1153289,3.8349913e-8 4.2333331,0.11800421 4.2333331,0.26458339 V 3.9687498 c 0,0.1465792 -0.1180042,0.2645833 -0.2645833,0.2645833 H 0.26458335 C 0.11800417,4.2333331 0,4.115329 0,3.9687498 V 0.26458339 C 0,0.11800421 0.11800417,3.8349913e-8 0.26458335,3.8349913e-8 Z" />
  <path
     id="rect844"
     style="fill:url(#linearGradient1245);stroke-width:0.500001;stroke-linejoin:round;opacity:1;fill-opacity:1"
     d="M 1 0 C 0.44599997 -1.4802974e-16 0 0.44599997 0 1 L 0 15 C -1.4802974e-16 15.554 0.44599997 16 1 16 L 15 16 C 15.554 16 16 15.554 16 15 L 16 1 C 16 0.44599997 15.554 0 15 0 L 1 0 z M 3 1 L 13 1 L 13 7 L 3 7 L 3 1 z M 1 2 L 2 2 L 2 3 L 1 3 L 1 2 z M 14 2 L 15 2 L 15 3 L 14 3 L 14 2 z M 1 5 L 2 5 L 2 6 L 1 6 L 1 5 z M 14 5 L 15 5 L 15 6 L 14 6 L 14 5 z M 1 8 L 2 8 L 2 9 L 1 9 L 1 8 z M 14 8 L 15 8 L 15 9 L 14 9 L 14 8 z M 3 9 L 13 9 L 13 15 L 3 15 L 3 9 z M 1 11 L 2 11 L 2 12 L 1 12 L 1 11 z M 14 11 L 15 11 L 15 12 L 14 12 L 14 11 z M 1 14 L 2 14 L 2 15 L 1 15 L 1 14 z M 14 14 L 15 14 L 15 15 L 14 15 L 14 14 z "
     transform="scale(0.26458333)" />
</svg>
