<?xml version="1.0" encoding="UTF-8" standalone="no"?>
<!-- Created with Inkscape (http://www.inkscape.org/) -->

<svg
   width="96"
   height="96"
   viewBox="0 0 25.399999 25.400001"
   version="1.1"
   id="svg5"
   inkscape:version="1.1.1 (3bf5ae0d25, 2021-09-20)"
   sodipodi:docname="folder.svg"
   xmlns:inkscape="http://www.inkscape.org/namespaces/inkscape"
   xmlns:sodipodi="http://sodipodi.sourceforge.net/DTD/sodipodi-0.dtd"
   xmlns:xlink="http://www.w3.org/1999/xlink"
   xmlns="http://www.w3.org/2000/svg"
   xmlns:svg="http://www.w3.org/2000/svg">
  <sodipodi:namedview
     id="namedview7"
     pagecolor="#ffffff"
     bordercolor="#666666"
     borderopacity="1.0"
     inkscape:pageshadow="2"
     inkscape:pageopacity="0.0"
     inkscape:pagecheckerboard="0"
     inkscape:document-units="px"
     showgrid="false"
     units="px"
     height="96px"
     inkscape:zoom="5.7747054"
     inkscape:cx="83.554046"
     inkscape:cy="55.414082"
     inkscape:window-width="1920"
     inkscape:window-height="1011"
     inkscape:window-x="0"
     inkscape:window-y="0"
     inkscape:window-maximized="1"
     inkscape:current-layer="svg5" />
  <defs
     id="defs2">
    <linearGradient
       inkscape:collect="always"
       id="linearGradient4652">
      <stop
         style="stop-color:#9b4519;stop-opacity:1;"
         offset="0"
         id="stop4648" />
      <stop
         style="stop-color:#ab4d1c;stop-opacity:1"
         offset="1"
         id="stop4650" />
    </linearGradient>
    <linearGradient
       inkscape:collect="always"
       id="linearGradient3734">
      <stop
         style="stop-color:#e38452;stop-opacity:1;"
         offset="0"
         id="stop3730" />
      <stop
         style="stop-color:#dd682a;stop-opacity:1"
         offset="1"
         id="stop3732" />
    </linearGradient>
    <linearGradient
       inkscape:collect="always"
       xlink:href="#linearGradient3734"
       id="linearGradient3736"
       x1="7.0407987"
       y1="5.594326"
       x2="24.077084"
       y2="23.283333"
       gradientUnits="userSpaceOnUse" />
    <linearGradient
       inkscape:collect="always"
       xlink:href="#linearGradient4652"
       id="linearGradient4654"
       x1="7.1437502"
       y1="11.509376"
       x2="7.1437502"
       y2="2.1166673"
       gradientUnits="userSpaceOnUse" />
  </defs>
  <path
     id="rect846-3"
     style="fill:url(#linearGradient4654);stroke-width:0.300092;fill-opacity:1"
     d="m 1.3229165,2.1166673 8.9958335,-7e-7 2.381251,3.1749999 11.377083,7e-7 V 18.785418 H 1.3229165 Z"
     sodipodi:nodetypes="ccccccc" />
  <path
     id="rect956"
     style="opacity:0.2;fill:#f9f9f9;stroke-width:0.458269"
     d="m 10.31875,2.1166666 2.381251,3.1749999 11.377083,7e-7 V 5.5562501 H 12.700001 Z"
     sodipodi:nodetypes="cccccc" />
  <path
     id="rect956-3"
     style="opacity:0.2;stroke-width:0.458269"
     d="M 10.054167,8.4666662 12.7,5.5562501 10.31875,8.7312498 H 1.3229166 V 8.4666662 Z"
     sodipodi:nodetypes="cccccc" />
  <path
     id="rect846"
     style="fill:url(#linearGradient3736);stroke-width:0.309472;fill-opacity:1"
     d="M 1.3229166,8.7312498 H 10.31875 L 12.700001,5.5562501 H 24.077084 V 23.283333 H 1.3229166 Z"
     sodipodi:nodetypes="ccccccc" />
  <path
     id="rect956-3-6"
     style="opacity:0.2;fill:#f9f9f9;stroke-width:0.458269"
     d="M 10.31875,8.7312498 12.700001,5.5562501 10.583333,8.9958338 H 1.3229166 v -0.264584 z"
     sodipodi:nodetypes="cccccc" />
  <path
     id="rect956-3-7"
     style="opacity:0.2;stroke-width:0.458269"
     d="m 24.077084,23.018749 v 0.264584 H 1.3229166 v -0.264584 z"
     sodipodi:nodetypes="ccccc" />
  <path
     id="path856"
     style="fill:#eff0f1;stroke-width:0.270687"
     d="m 10.847917,10.847917 v 5.998601 A 1.190625,1.190625 0 0 0 9.921875,16.404167 1.190625,1.190625 0 0 0 8.73125,17.594792 1.190625,1.190625 0 0 0 9.921875,18.785417 1.190625,1.190625 0 0 0 11.1125,17.594792 1.190625,1.190625 0 0 0 11.1047,17.462501 h 5.3e-4 l 0.0072,-4.7625 h 5.291666 v 3.088183 a 1.190625,1.190625 0 0 0 -0.926041,-0.44235 1.190625,1.190625 0 0 0 -1.190625,1.190625 1.190625,1.190625 0 0 0 1.190625,1.190625 1.190625,1.190625 0 0 0 1.190625,-1.190625 1.190625,1.190625 0 0 0 -0.0078,-0.132292 h 0.0078 v -5.55625 z m 0.264583,0.79375 h 5.291666 v 0.79375 H 11.1125 Z" />
</svg>
