<?xml version="1.0" encoding="UTF-8" standalone="no"?>
<svg
   width="64"
   height="64"
   viewBox="0 0 64 64"
   version="1.1"
   id="svg59"
   sodipodi:docname="audio-speakers.svg"
   inkscape:version="1.1 (c4e8f9ed74, 2021-05-24)"
   xmlns:inkscape="http://www.inkscape.org/namespaces/inkscape"
   xmlns:sodipodi="http://sodipodi.sourceforge.net/DTD/sodipodi-0.dtd"
   xmlns:xlink="http://www.w3.org/1999/xlink"
   xmlns="http://www.w3.org/2000/svg"
   xmlns:svg="http://www.w3.org/2000/svg"
   xmlns:rdf="http://www.w3.org/1999/02/22-rdf-syntax-ns#"
   xmlns:cc="http://creativecommons.org/ns#"
   xmlns:dc="http://purl.org/dc/elements/1.1/">
  <metadata
     id="metadata63">
    <rdf:RDF>
      <cc:Work
         rdf:about="">
        <dc:format>image/svg+xml</dc:format>
        <dc:type
           rdf:resource="http://purl.org/dc/dcmitype/StillImage" />
      </cc:Work>
    </rdf:RDF>
  </metadata>
  <sodipodi:namedview
     pagecolor="#ffffff"
     bordercolor="#666666"
     borderopacity="1"
     objecttolerance="10"
     gridtolerance="10"
     guidetolerance="10"
     inkscape:pageopacity="0"
     inkscape:pageshadow="2"
     inkscape:window-width="1920"
     inkscape:window-height="1021"
     id="namedview61"
     showgrid="false"
     inkscape:zoom="4.140625"
     inkscape:cx="-55.064151"
     inkscape:cy="2.2943396"
     inkscape:window-x="0"
     inkscape:window-y="29"
     inkscape:window-maximized="1"
     inkscape:current-layer="svg59"
     inkscape:pagecheckerboard="0">
    <inkscape:grid
       type="xygrid"
       id="grid891" />
  </sodipodi:namedview>
  <defs
     id="defs29">
    <linearGradient
       inkscape:collect="always"
       id="linearGradient919">
      <stop
         style="stop-color:#000000;stop-opacity:1;"
         offset="0"
         id="stop915" />
      <stop
         style="stop-color:#000000;stop-opacity:0;"
         offset="1"
         id="stop917" />
    </linearGradient>
    <linearGradient
       id="a"
       y1="44"
       y2="4"
       x2="0"
       gradientUnits="userSpaceOnUse"
       gradientTransform="matrix(1.2499653,0,0,1.2499653,2.0002083,2.0001388)">
      <stop
         stop-color="#18222a"
         id="stop2" />
      <stop
         offset="1"
         stop-color="#566069"
         id="stop4" />
    </linearGradient>
    <linearGradient
       id="b"
       y1="540.79999"
       y2="536.79999"
       gradientUnits="userSpaceOnUse"
       x2="0">
      <stop
         stop-color="#2f3943"
         id="stop7" />
      <stop
         offset="1"
         stop-color="#4d5662"
         id="stop9" />
    </linearGradient>
    <linearGradient
       id="c"
       y1="537.79999"
       y2="538.79999"
       x2="0"
       gradientUnits="userSpaceOnUse">
      <stop
         stop-color="#197cf1"
         id="stop12" />
      <stop
         offset="1"
         stop-color="#21c9fb"
         id="stop14" />
    </linearGradient>
    <linearGradient
       xlink:href="#c"
       id="d"
       y1="539.79999"
       y2="538.79999"
       gradientUnits="userSpaceOnUse"
       x2="0"
       gradientTransform="matrix(1.2499653,0,0,1.2499653,-478.69892,-725.48004)" />
    <linearGradient
       id="e"
       y1="543.79999"
       y2="503.79999"
       x2="0"
       gradientUnits="userSpaceOnUse"
       gradientTransform="matrix(1.2499653,0,0,1.2499653,-478.69892,-622.73251)">
      <stop
         stop-color="#2f3943"
         id="stop18" />
      <stop
         offset="1"
         stop-color="#808c9b"
         id="stop20" />
    </linearGradient>
    <linearGradient
       id="f"
       y1="13"
       x1="13"
       y2="39"
       x2="38"
       gradientUnits="userSpaceOnUse">
      <stop
         stop-color="#292c2f"
         id="stop23" />
      <stop
         offset="1"
         stop-opacity="0"
         id="stop25" />
    </linearGradient>
    <linearGradient
       inkscape:collect="always"
       xlink:href="#f"
       id="linearGradient870"
       gradientUnits="userSpaceOnUse"
       x1="13"
       y1="13"
       x2="38"
       y2="39"
       gradientTransform="matrix(1.2499653,0,0,1.2499653,2.0002083,2.0001388)" />
    <linearGradient
       inkscape:collect="always"
       xlink:href="#b"
       id="linearGradient872"
       gradientUnits="userSpaceOnUse"
       y1="540.79999"
       x2="0"
       y2="536.79999"
       gradientTransform="matrix(1.2499653,0,0,1.2499653,-478.69892,-622.73251)" />
    <linearGradient
       inkscape:collect="always"
       xlink:href="#c"
       id="linearGradient874"
       gradientUnits="userSpaceOnUse"
       y1="537.79999"
       x2="0"
       y2="538.79999"
       gradientTransform="matrix(1.2499653,0,0,1.2499653,-478.69892,-622.73251)" />
    <linearGradient
       inkscape:collect="always"
       xlink:href="#b"
       id="linearGradient876"
       gradientUnits="userSpaceOnUse"
       y1="540.79999"
       x2="0"
       y2="536.79999"
       gradientTransform="matrix(1.2499653,0,0,1.2499653,-478.69892,-622.73251)" />
    <radialGradient
       inkscape:collect="always"
       xlink:href="#linearGradient919"
       id="radialGradient921"
       cx="24"
       cy="24"
       fx="24"
       fy="24"
       r="14"
       gradientUnits="userSpaceOnUse"
       gradientTransform="matrix(1.2499653,0,0,1.2499653,2.0002083,2.0001388)" />
  </defs>
  <path
     inkscape:connector-curvature="0"
     style="fill:url(#a);stroke-width:1.24997"
     id="path31"
     d="M 9.5,7 V 56.998611 H 54.49875 V 7 Z" />
  <path
     inkscape:connector-curvature="0"
     style="opacity:0.2;fill:url(#linearGradient870);stroke-width:0.116247"
     id="path33"
     d="M 45.255257,18.743424 18.743493,45.255186 30.484417,56.998611 H 54.5 V 27.986917 Z" />
  <rect
     style="fill:#26333a;stroke-width:0.117497"
     id="rect35"
     height="37.498959"
     rx="18.749479"
     y="13.249811"
     x="13.249906"
     width="37.498959" />
  <rect
     style="fill:url(#e);stroke-width:0.116247"
     id="rect37"
     height="34.999027"
     rx="17.499514"
     y="14.499776"
     x="14.499872"
     width="34.999027" />
  <rect
     style="fill:#13191f;stroke-width:1.24997"
     id="rect39"
     height="1.2499653"
     y="55.748631"
     x="9.5000086"
     width="44.998749" />
  <rect
     style="fill:url(#linearGradient872);stroke-width:0.35749"
     id="rect41"
     height="4.9998612"
     rx="2.4999306"
     y="48.24884"
     x="10.749974"
     width="4.9998612" />
  <circle
     style="fill:url(#linearGradient874);stroke-width:0.124997;stroke-linecap:square"
     id="circle43"
     r="0.62498266"
     cy="50.123787"
     cx="14.624875" />
  <rect
     style="fill:url(#linearGradient876);stroke-width:0.35749"
     id="rect45"
     height="4.9998612"
     rx="2.4999306"
     y="48.24884"
     x="48.248928"
     width="4.9998612" />
  <circle
     style="fill:url(#d);stroke-width:0.124997;stroke-linecap:square"
     id="circle47"
     transform="scale(1,-1)"
     r="0.62498266"
     cy="-51.373753"
     cx="52.123833" />
  <path
     inkscape:connector-curvature="0"
     style="opacity:0.4;fill:url(#radialGradient921);fill-opacity:1;stroke:none;stroke-width:4.99986;stroke-linecap:round;stroke-linejoin:round;stroke-miterlimit:4;stroke-dasharray:none;stroke-dashoffset:0;stroke-opacity:1;paint-order:normal"
     d="m 31.999375,14.499792 c -2.297747,0 -4.482409,0.451866 -6.489077,1.249965 h 0.239251 v 1.249965 h -1.249966 v -0.8032 c -0.425964,0.201684 -0.843942,0.415198 -1.249965,0.649396 v 0.153804 h -0.2539 c -0.788767,0.473073 -1.545071,0.994364 -2.24603,1.581989 v 0.917942 h -1.008272 c -0.533997,0.523651 -1.028347,1.08384 -1.491659,1.672317 v 0.827613 h -0.617658 c -0.803244,1.154451 -1.461269,2.413753 -1.97016,3.749896 h 0.08789 v 1.249965 h -0.522446 c -0.121397,0.410309 -0.225718,0.82749 -0.317374,1.249966 h 0.83982 v 1.249965 h -1.052216 c -0.05871,0.412725 -0.104659,0.828298 -0.134273,1.249965 h 1.18649 v 1.249966 h -1.249965 c 0,0.422092 0.03437,0.835525 0.06347,1.249965 h 1.186492 v 1.249965 H 14.69761 c 0.05987,0.420842 0.123347,0.839501 0.212397,1.249965 h 0.83982 v 1.249966 H 15.22738 c 0.125903,0.425534 0.277966,0.838815 0.434559,1.249965 h 0.08789 v 0.239251 c 0.348907,0.87726 0.770158,1.714581 1.249967,2.514577 v -0.253897 h 1.249965 v 1.249965 h -0.617658 c 0.559896,0.804702 1.183472,1.560576 1.867623,2.258238 v -1.008273 h 1.249966 v 1.249965 H 19.74142 c 0.69766,0.684151 1.453534,1.307727 2.258237,1.867625 v -0.617659 h 1.249965 v 1.249964 h -0.2539 c 0.800001,0.479811 1.637319,0.90106 2.51458,1.249966 h 0.239251 v 0.08788 c 0.411147,0.156603 0.824428,0.308657 1.249964,0.434559 v -0.522444 h 1.249965 v 0.839822 c 0.410464,0.08905 0.829121,0.152532 1.249965,0.212395 v -1.052217 h 1.249965 v 1.186491 c 0.414441,0.02911 0.827871,0.06346 1.249966,0.06346 v -1.249963 h 1.249965 v 1.186488 c 0.421666,-0.02961 0.837239,-0.07557 1.249965,-0.134264 v -1.052218 h 1.249966 v 0.839822 c 0.422473,-0.09167 0.839656,-0.195975 1.249965,-0.317374 V 48.248849 H 38.2492 v 0.0879 c 1.336143,-0.508892 2.595447,-1.166917 3.749896,-1.970161 v -0.617655 h 0.827612 c 0.588479,-0.463314 1.148664,-0.957665 1.672319,-1.491657 v -1.008273 h 0.917943 c 0.587623,-0.70096 1.108913,-1.457264 1.581987,-2.246033 v -0.2539 h 0.153798 c 0.234198,-0.406021 0.447712,-0.824001 0.649397,-1.249965 h -0.803201 v -1.249966 h 1.249965 v 0.239253 c 0.798099,-2.00667 1.249965,-4.19133 1.249965,-6.489079 0,-2.691379 -0.62027,-5.226275 -1.696729,-7.499792 h -0.803201 v -1.249965 h 0.153799 c -0.419452,-0.727191 -0.887475,-1.421813 -1.403769,-2.077578 v 0.827613 H 44.499017 V 20.749626 H 45.41696 C 44.758744,19.96446 44.034217,19.239934 43.249051,18.581717 v 0.917943 h -1.249966 v -1.249964 h 0.827613 c -0.655767,-0.516307 -1.350386,-0.984331 -2.077579,-1.403783 v 0.153804 h -1.249952 v -0.803195 c -2.27352,-1.07646 -4.808413,-1.69673 -7.499792,-1.69673 z m -4.999861,1.249965 h 1.249965 v 1.249965 h -1.249965 z m 2.49993,0 h 1.249966 v 1.249965 h -1.249966 z m 2.499931,0 h 1.249965 v 1.249965 h -1.249965 z m 2.499931,0 h 1.249965 v 1.249965 h -1.249965 z m 2.49993,0 h 1.249965 v 1.249965 h -1.249965 z m -14.999583,2.499931 h 1.249965 v 1.249965 h -1.249965 z m 2.49993,0 h 1.249966 v 1.249965 h -1.249966 z m 2.499931,0 h 1.249965 v 1.249965 h -1.249965 z m 2.49993,0 h 1.249966 v 1.249965 h -1.249966 z m 2.499931,0 h 1.249965 v 1.249965 h -1.249965 z m 2.499931,0 h 1.249965 v 1.249965 h -1.249965 z m 2.49993,0 h 1.249965 v 1.249965 h -1.249965 z m 2.499931,0 h 1.249965 v 1.249965 h -1.249965 z m -19.999445,2.49993 h 1.249966 v 1.249965 h -1.249966 z m 2.499931,0 h 1.249965 v 1.249965 h -1.249965 z m 2.49993,0 h 1.249966 v 1.249965 h -1.249966 z m 2.499931,0 h 1.249965 v 1.249965 h -1.249965 z m 2.49993,0 h 1.249966 v 1.249965 h -1.249966 z m 2.499931,0 h 1.249965 v 1.249965 h -1.249965 z m 2.499931,0 h 1.249965 v 1.249965 h -1.249965 z m 2.49993,0 h 1.249965 v 1.249965 h -1.249965 z m 2.499931,0 h 1.249965 v 1.249965 h -1.249965 z m 2.499929,0 h 1.249967 v 1.249965 h -1.249967 z m -24.999304,2.499931 h 1.249965 v 1.249965 h -1.249965 z m 2.49993,0 h 1.249966 v 1.249965 h -1.249966 z m 2.499931,0 h 1.249965 v 1.249965 h -1.249965 z m 2.49993,0 h 1.249966 v 1.249965 h -1.249966 z m 2.499931,0 h 1.249965 v 1.249965 h -1.249965 z m 2.49993,0 h 1.249966 v 1.249965 h -1.249966 z m 2.499931,0 h 1.249965 v 1.249965 h -1.249965 z m 2.499931,0 h 1.249965 v 1.249965 h -1.249965 z m 2.49993,0 h 1.249965 v 1.249965 h -1.249965 z m 2.499931,0 h 1.249965 v 1.249965 h -1.249965 z m 2.499929,0 h 1.249967 v 1.249965 h -1.249967 z m 2.499932,0 h 1.249965 v 1.249965 h -1.249965 z m -27.499236,2.49993 h 1.249965 v 1.249965 h -1.249965 z m 2.49993,0 h 1.249966 v 1.249965 h -1.249966 z m 2.499931,0 h 1.249965 v 1.249965 h -1.249965 z m 2.49993,0 h 1.249966 v 1.249965 h -1.249966 z m 2.499931,0 h 1.249965 v 1.249965 h -1.249965 z m 2.49993,0 h 1.249966 v 1.249965 h -1.249966 z m 2.499931,0 h 1.249965 v 1.249965 h -1.249965 z m 2.499931,0 h 1.249965 v 1.249965 h -1.249965 z m 2.49993,0 h 1.249965 v 1.249965 h -1.249965 z m 2.499931,0 h 1.249965 v 1.249965 h -1.249965 z m 2.499929,0 h 1.249967 v 1.249965 h -1.249967 z m 2.499932,0 h 1.249965 v 1.249965 h -1.249965 z m 2.49993,0 h 1.249966 v 1.249965 H 46.998958 Z M 16.999792,28.24941 h 1.249965 v 1.249965 h -1.249965 z m 2.49993,0 h 1.249966 v 1.249965 h -1.249966 z m 2.499931,0 h 1.249965 v 1.249965 h -1.249965 z m 2.49993,0 h 1.249966 v 1.249965 h -1.249966 z m 2.499931,0 h 1.249965 v 1.249965 h -1.249965 z m 2.49993,0 h 1.249966 v 1.249965 h -1.249966 z m 2.499931,0 h 1.249965 v 1.249965 h -1.249965 z m 2.499931,0 h 1.249965 v 1.249965 h -1.249965 z m 2.49993,0 h 1.249965 v 1.249965 h -1.249965 z m 2.499931,0 h 1.249965 v 1.249965 h -1.249965 z m 2.499929,0 h 1.249967 v 1.249965 h -1.249967 z m 2.499932,0 h 1.249965 v 1.249965 h -1.249965 z m 2.49993,0 h 1.249966 v 1.249965 h -1.249966 z m -29.999166,2.49993 h 1.249965 v 1.249966 h -1.249965 z m 2.49993,0 h 1.249966 v 1.249966 h -1.249966 z m 2.499931,0 h 1.249965 v 1.249966 h -1.249965 z m 2.49993,0 h 1.249966 v 1.249966 h -1.249966 z m 2.499931,0 h 1.249965 v 1.249966 h -1.249965 z m 2.49993,0 h 1.249966 v 1.249966 h -1.249966 z m 2.499931,0 h 1.249965 v 1.249966 h -1.249965 z m 2.499931,0 h 1.249965 v 1.249966 h -1.249965 z m 2.49993,0 h 1.249965 v 1.249966 h -1.249965 z m 2.499931,0 h 1.249965 v 1.249966 h -1.249965 z m 2.499929,0 h 1.249967 v 1.249966 h -1.249967 z m 2.499932,0 h 1.249965 v 1.249966 h -1.249965 z m 2.49993,0 h 1.249966 v 1.249966 h -1.249966 z m -29.999166,2.499931 h 1.249965 v 1.249965 h -1.249965 z m 2.49993,0 h 1.249966 v 1.249965 h -1.249966 z m 2.499931,0 h 1.249965 v 1.249965 h -1.249965 z m 2.49993,0 h 1.249966 v 1.249965 h -1.249966 z m 2.499931,0 h 1.249965 v 1.249965 h -1.249965 z m 2.49993,0 h 1.249966 v 1.249965 h -1.249966 z m 2.499931,0 h 1.249965 v 1.249965 h -1.249965 z m 2.499931,0 h 1.249965 v 1.249965 h -1.249965 z m 2.49993,0 h 1.249965 v 1.249965 h -1.249965 z m 2.499931,0 h 1.249965 v 1.249965 h -1.249965 z m 2.499929,0 h 1.249967 v 1.249965 h -1.249967 z m 2.499932,0 h 1.249965 v 1.249965 h -1.249965 z m 2.49993,0 h 1.249966 v 1.249965 h -1.249966 z m -29.999166,2.49993 h 1.249965 v 1.249966 h -1.249965 z m 2.49993,0 h 1.249966 v 1.249966 h -1.249966 z m 2.499931,0 h 1.249965 v 1.249966 h -1.249965 z m 2.49993,0 h 1.249966 v 1.249966 h -1.249966 z m 2.499931,0 h 1.249965 v 1.249966 h -1.249965 z m 2.49993,0 h 1.249966 v 1.249966 h -1.249966 z m 2.499931,0 h 1.249965 v 1.249966 h -1.249965 z m 2.499931,0 h 1.249965 v 1.249966 h -1.249965 z m 2.49993,0 h 1.249965 v 1.249966 h -1.249965 z m 2.499931,0 h 1.249965 v 1.249966 h -1.249965 z m 2.499929,0 h 1.249967 v 1.249966 h -1.249967 z m 2.499932,0 h 1.249965 v 1.249966 h -1.249965 z m 2.49993,0 h 1.249966 v 1.249966 h -1.249966 z m -29.999166,2.499931 h 1.249965 v 1.249964 h -1.249965 z m 2.49993,0 h 1.249966 v 1.249964 h -1.249966 z m 2.499931,0 h 1.249965 v 1.249964 h -1.249965 z m 2.49993,0 h 1.249966 v 1.249964 h -1.249966 z m 2.499931,0 h 1.249965 v 1.249964 h -1.249965 z m 2.49993,0 h 1.249966 v 1.249964 h -1.249966 z m 2.499931,0 h 1.249965 v 1.249964 h -1.249965 z m 2.499931,0 h 1.249965 v 1.249964 h -1.249965 z m 2.49993,0 h 1.249965 v 1.249964 h -1.249965 z m 2.499931,0 h 1.249965 v 1.249964 h -1.249965 z m 2.499929,0 h 1.249967 v 1.249964 h -1.249967 z m 2.499932,0 h 1.249965 v 1.249964 h -1.249965 z m -24.999306,2.499931 h 1.249966 v 1.249965 h -1.249966 z m 2.499931,0 h 1.249965 v 1.249965 h -1.249965 z m 2.49993,0 h 1.249966 v 1.249965 h -1.249966 z m 2.499931,0 h 1.249965 v 1.249965 h -1.249965 z m 2.49993,0 h 1.249966 v 1.249965 h -1.249966 z m 2.499931,0 h 1.249965 v 1.249965 h -1.249965 z m 2.499931,0 h 1.249965 v 1.249965 h -1.249965 z m 2.49993,0 h 1.249965 v 1.249965 h -1.249965 z m 2.499931,0 h 1.249965 v 1.249965 h -1.249965 z m 2.499929,0 h 1.249967 v 1.249965 h -1.249967 z m 2.499932,0 h 1.249965 v 1.249965 h -1.249965 z m -22.499375,2.49993 h 1.249965 v 1.249965 h -1.249965 z m 2.49993,0 h 1.249966 v 1.249965 h -1.249966 z m 2.499931,0 h 1.249965 v 1.249965 h -1.249965 z m 2.49993,0 h 1.249966 v 1.249965 h -1.249966 z m 2.499931,0 h 1.249965 v 1.249965 h -1.249965 z m 2.499931,0 h 1.249965 v 1.249965 h -1.249965 z m 2.49993,0 h 1.249965 v 1.249965 h -1.249965 z m 2.499931,0 h 1.249965 v 1.249965 h -1.249965 z m 2.499929,0 h 1.249967 v 1.249965 h -1.249967 z m -17.499513,2.499931 h 1.249966 v 1.249964 h -1.249966 z m 2.499931,0 h 1.249965 v 1.249964 h -1.249965 z m 2.49993,0 h 1.249966 v 1.249964 h -1.249966 z m 2.499931,0 h 1.249965 v 1.249964 h -1.249965 z m 2.499931,0 h 1.249965 v 1.249964 h -1.249965 z m 2.49993,0 h 1.249965 v 1.249964 h -1.249965 z m 2.499931,0 h 1.249965 v 1.249964 h -1.249965 z"
     id="rect893" />
</svg>
