<?xml version="1.0" encoding="UTF-8" standalone="no"?>
<!-- Created with Inkscape (http://www.inkscape.org/) -->

<svg
   width="64"
   version="1.1"
   height="64"
   id="svg35"
   sodipodi:docname="drive-removable-media.svg"
   inkscape:version="1.1 (c4e8f9ed74, 2021-05-24)"
   xmlns:inkscape="http://www.inkscape.org/namespaces/inkscape"
   xmlns:sodipodi="http://sodipodi.sourceforge.net/DTD/sodipodi-0.dtd"
   xmlns:xlink="http://www.w3.org/1999/xlink"
   xmlns="http://www.w3.org/2000/svg"
   xmlns:svg="http://www.w3.org/2000/svg">
  <sodipodi:namedview
     id="namedview37"
     pagecolor="#ffffff"
     bordercolor="#666666"
     borderopacity="1.0"
     inkscape:pageshadow="2"
     inkscape:pageopacity="0.0"
     inkscape:pagecheckerboard="0"
     showgrid="false"
     inkscape:zoom="10.765625"
     inkscape:cx="31.953556"
     inkscape:cy="32"
     inkscape:window-width="1920"
     inkscape:window-height="1021"
     inkscape:window-x="0"
     inkscape:window-y="29"
     inkscape:window-maximized="1"
     inkscape:current-layer="layer1" />
  <defs
     id="defs5455">
    <linearGradient
       inkscape:collect="always"
       id="linearGradient4158"
       xlink:href="#linearGradient4143"
       y1="557.79803"
       y2="505.798"
       gradientUnits="userSpaceOnUse"
       x2="0"
       gradientTransform="matrix(0.78261 0 0 1 83.25419 -8.00002)" />
    <linearGradient
       inkscape:collect="always"
       id="linearGradient4400">
      <stop
         style="stop-color:#020303"
         id="stop4402" />
      <stop
         offset="1"
         style="stop-color:#424649;stop-opacity:0"
         id="stop4404" />
    </linearGradient>
    <linearGradient
       inkscape:collect="always"
       id="linearGradient4143">
      <stop
         style="stop-color:#197cf1"
         id="stop4145" />
      <stop
         offset="1"
         style="stop-color:#20bcfa"
         id="stop4147" />
    </linearGradient>
    <linearGradient
       inkscape:collect="always"
       id="linearGradient4290">
      <stop
         style="stop-color:#7cbaf8"
         id="stop4292" />
      <stop
         offset="1"
         style="stop-color:#f4fcff"
         id="stop4294" />
    </linearGradient>
    <linearGradient
       inkscape:collect="always"
       xlink:href="#linearGradient4303"
       id="linearGradient4319"
       y1="551.79791"
       y2="528.79791"
       gradientUnits="userSpaceOnUse"
       x2="0"
       gradientTransform="matrix(0.63587062 0 0 1 144.25118 -30.99993)" />
    <linearGradient
       inkscape:collect="always"
       id="linearGradient4303">
      <stop
         style="stop-color:#c6cdd1"
         id="stop4305" />
      <stop
         offset="1"
         style="stop-color:#e0e5e7"
         id="stop4307" />
    </linearGradient>
    <linearGradient
       inkscape:collect="always"
       xlink:href="#linearGradient4143-8"
       id="linearGradient4375"
       x1="398.57144"
       gradientUnits="userSpaceOnUse"
       x2="400.57144"
       gradientTransform="matrix(2 0 0 2 -384.5714 -537.79802)" />
    <linearGradient
       inkscape:collect="always"
       id="linearGradient4143-8">
      <stop
         style="stop-color:#faae2a"
         id="stop4145-7" />
      <stop
         offset="1"
         style="stop-color:#ffc35a"
         id="stop4147-4" />
    </linearGradient>
    <linearGradient
       inkscape:collect="always"
       xlink:href="#linearGradient4143-8"
       id="linearGradient4371"
       x1="398.57144"
       x2="400.57144"
       gradientUnits="userSpaceOnUse"
       gradientTransform="matrix(2 0 0 2 -396.57143 -537.79802)" />
    <linearGradient
       inkscape:collect="always"
       xlink:href="#linearGradient4290"
       id="linearGradient954"
       x1="408.63867"
       y1="546.1925"
       x2="408.58264"
       y2="523.24622"
       gradientUnits="userSpaceOnUse" />
    <linearGradient
       inkscape:collect="always"
       xlink:href="#linearGradient4400"
       id="linearGradient1294"
       x1="398.37631"
       y1="525.01868"
       x2="419.98828"
       y2="545.96259"
       gradientUnits="userSpaceOnUse" />
  </defs>
  <metadata
     id="metadata5458" />
  <g
     inkscape:label="Capa 1"
     inkscape:groupmode="layer"
     id="layer1"
     transform="translate(-376.57144,-491.79797)">
    <rect
       width="26"
       x="395.57144"
       y="497.79813"
       rx="0"
       height="23.999866"
       style="fill:url(#linearGradient4319)"
       id="rect4317" />
    <rect
       width="32"
       x="392.57144"
       y="520.79797"
       rx="0"
       height="28.999859"
       style="fill:url(#linearGradient4158)"
       id="rect4139" />
    <rect
       width="32"
       x="392.57144"
       y="548.79797"
       height="1.00002"
       style="fill:#0c69cf;stroke-width:2.8;stroke-opacity:0.550265"
       id="rect4492" />
    <rect
       width="8.0000496"
       x="398.57144"
       y="501.79794"
       height="8.0000496"
       style="fill:#23262c"
       id="rect4359" />
    <rect
       width="8.0000496"
       x="410.57153"
       y="501.79794"
       height="8.0000496"
       style="fill:#23262c"
       id="rect4361" />
    <rect
       width="4.00002"
       x="400.57144"
       y="501.79794"
       height="8"
       style="fill:url(#linearGradient4371)"
       id="rect4363" />
    <rect
       width="4.00002"
       x="412.57153"
       y="501.79794"
       height="8"
       style="fill:url(#linearGradient4375)"
       id="rect4373" />
    <rect
       width="31.999998"
       x="392.57144"
       y="520.79797"
       height="29"
       style="fill:none;fill-opacity:1;stroke-width:1.6924"
       id="rect4180-5" />
    <path
       id="rect860-5-6"
       style="opacity:0.2;fill:url(#linearGradient1294);fill-opacity:1;stroke-width:0.376631"
       d="m 408.58265,523.24623 -1.97656,3.35352 1.23046,1.23046 v 4.15821 l -1.87304,-1.8711 c -0.002,-0.002 -0.004,-0.002 -0.006,-0.004 -0.23355,-0.23149 -0.5289,-0.38125 -0.84375,-0.43359 -0.005,-8e-4 -0.0104,-0.004 -0.0156,-0.004 -0.31675,-0.0496 -0.65043,-2.8e-4 -0.95313,0.16602 -0.37271,0.20499 -0.63354,0.53866 -0.75,0.91601 -0.11646,0.37734 -0.0878,0.79725 0.11719,1.16992 0.0745,0.13049 0.16625,0.25223 0.27344,0.35938 l 0.35937,0.35742 v 3.00977 c 0.0187,0.27952 0.0741,0.56258 0.17188,0.82812 0.0978,0.26553 0.23749,0.51466 0.42383,0.73828 l 2.95898,2.95899 c 0.0535,0.11519 0.13477,0.22336 0.13477,0.35742 v 1.19531 c -0.30747,0.10241 -0.5835,0.26221 -0.81641,0.46484 -0.23295,0.20264 -0.4208,0.44465 -0.56055,0.71485 -0.13974,0.27019 -0.22986,0.56596 -0.25781,0.87109 -0.0279,0.30514 0.005,0.62027 0.10742,0.92774 0.11947,0.35817 0.31865,0.6728 0.57032,0.92773 0.004,0.004 0.006,0.0102 0.01,0.0137 l 0.0449,0.041 4.10351,4.10547 h 13.53517 V 538.64252 L 413.7976,527.86713 h -0.59375 z" />
    <path
       d="m 411.56391,530.95702 h -0.8199 v -3.09324 H 413.8 v 3.09324 h -0.81989 v 1.78887 c -0.0745,0.55904 -0.29814,1.11804 -0.67083,1.528 l -2.75785,2.60875 c -0.14916,0.14898 -0.26087,0.37269 -0.26087,0.59631 v 4.24854 c 0.74535,0.22349 1.30439,0.81989 1.52799,1.52801 0.40995,1.22983 -0.29816,2.5715 -1.52799,2.98144 -1.22985,0.40994 -2.57151,-0.29816 -2.98146,-1.52799 -0.40994,-1.22987 0.29813,-2.5715 1.528,-2.98146 v -1.19256 c 0,-0.22372 -0.0747,-0.40996 -0.22372,-0.59631 l -2.86952,-2.72057 c -0.3727,-0.4472 -0.55903,-1.00622 -0.59631,-1.56525 v -3.09326 c -0.26086,-0.14897 -0.48448,-0.37266 -0.63356,-0.63356 -0.40994,-0.74535 -0.11182,-1.67705 0.63356,-2.087 0.74537,-0.40994 1.67707,-0.11182 2.08704,0.63355 0.40994,0.74534 0.11182,1.67706 -0.63357,2.08699 v 3.09325 c 0,0.22372 0.0745,0.40995 0.22371,0.59631 l 2.01248,1.90067 v -11.55308 h -1.22996 l 1.97522,-3.35414 1.9752,3.3914 h -1.22985 v 8.45985 l 1.93794,-1.86341 c 0.18627,-0.14897 0.29815,-0.40993 0.29815,-0.67081 z"
       id="path2-1"
       style="fill:url(#linearGradient954);fill-opacity:1;stroke-width:0.372682" />
  </g>
</svg>
