<?xml version="1.0" encoding="UTF-8" standalone="no"?>
<!-- Created with Inkscape (http://www.inkscape.org/) -->

<svg
   width="22"
   height="22"
   viewBox="0 0 5.8208332 5.8208335"
   version="1.1"
   id="svg2123"
   inkscape:version="1.1.1 (3bf5ae0d25, 2021-09-20, custom)"
   sodipodi:docname="weather-snow-rain.svg"
   xmlns:inkscape="http://www.inkscape.org/namespaces/inkscape"
   xmlns:sodipodi="http://sodipodi.sourceforge.net/DTD/sodipodi-0.dtd"
   xmlns:xlink="http://www.w3.org/1999/xlink"
   xmlns="http://www.w3.org/2000/svg"
   xmlns:svg="http://www.w3.org/2000/svg">
  <sodipodi:namedview
     id="namedview2125"
     pagecolor="#ffffff"
     bordercolor="#666666"
     borderopacity="1.0"
     inkscape:pageshadow="2"
     inkscape:pageopacity="0.0"
     inkscape:pagecheckerboard="0"
     inkscape:document-units="px"
     showgrid="false"
     units="px"
     inkscape:zoom="39.488299"
     inkscape:cx="9.1799345"
     inkscape:cy="18.980306"
     inkscape:window-width="1920"
     inkscape:window-height="999"
     inkscape:window-x="0"
     inkscape:window-y="0"
     inkscape:window-maximized="1"
     inkscape:current-layer="g916" />
  <defs
     id="defs2120">
    <linearGradient
       inkscape:collect="always"
       id="linearGradient2887">
      <stop
         style="stop-color:#eff1f1;stop-opacity:1;"
         offset="0"
         id="stop2883" />
      <stop
         style="stop-color:#b0b8b8;stop-opacity:1"
         offset="1"
         id="stop2885" />
    </linearGradient>
    <linearGradient
       inkscape:collect="always"
       xlink:href="#linearGradient2887"
       id="linearGradient2889"
       x1="2.778125"
       y1="1.0583333"
       x2="2.793014"
       y2="4.4970551"
       gradientUnits="userSpaceOnUse"
       gradientTransform="translate(0,-0.52916663)" />
    <linearGradient
       inkscape:collect="always"
       xlink:href="#0"
       id="linearGradient862"
       gradientUnits="userSpaceOnUse"
       y1="538.79797"
       x2="0"
       y2="532.79797"
       gradientTransform="matrix(0.13229164,0,0,0.13229164,-51.030617,-66.251386)" />
    <linearGradient
       id="0">
      <stop
         stop-color="#abdaf9"
         id="stop2" />
      <stop
         offset="1"
         stop-color="#e1f2ff"
         id="stop4" />
    </linearGradient>
    <linearGradient
       inkscape:collect="always"
       xlink:href="#0"
       id="linearGradient864"
       gradientUnits="userSpaceOnUse"
       gradientTransform="matrix(0.13229164,0,0,0.13229164,-50.501453,-65.457636)"
       y1="538.79797"
       x2="0"
       y2="532.79797" />
    <linearGradient
       inkscape:collect="always"
       xlink:href="#0"
       id="linearGradient866"
       gradientUnits="userSpaceOnUse"
       y1="538.79797"
       x2="0"
       y2="532.79797"
       gradientTransform="matrix(0.13229164,0,0,0.13229164,-51.030617,-66.251386)" />
    <linearGradient
       inkscape:collect="always"
       xlink:href="#0"
       id="linearGradient868"
       gradientUnits="userSpaceOnUse"
       gradientTransform="matrix(0.13229164,0,0,0.13229164,-50.501451,-65.457636)"
       y1="538.79797"
       x2="0"
       y2="532.79797" />
    <linearGradient
       gradientTransform="matrix(0.13229164,0,0,0.13229164,-50.501453,-65.457636)"
       xlink:href="#0"
       id="4"
       y1="538.79797"
       x2="0"
       y2="532.79797"
       gradientUnits="userSpaceOnUse" />
    <linearGradient
       xlink:href="#0"
       id="3"
       y1="538.79797"
       x2="0"
       y2="532.79797"
       gradientUnits="userSpaceOnUse"
       gradientTransform="matrix(0.13229164,0,0,0.13229164,-51.030617,-66.251386)" />
  </defs>
  <path
     id="path2228"
     style="fill:url(#linearGradient2889);fill-opacity:1;stroke-width:0.121268;stroke-linejoin:round"
     d="m 2.778125,0.52916667 c -0.8036894,0 -1.4552084,0.65151903 -1.4552083,1.45520843 2.98e-4,0.047123 0.00288,0.094204 0.00775,0.1410766 -0.45895972,0.06229 -0.80131523,0.4540893 -0.80150144,0.9172567 0,0.5114388 0.41460298,0.9260416 0.92604164,0.9260416 h 2.778125 c 0.5845013,0 1.0583333,-0.4738319 1.0583333,-1.0583333 0,-0.5845013 -0.473832,-1.0583333 -1.0583333,-1.0583333 -0.00206,-6.1e-6 -0.00414,-6.1e-6 -0.0062,0 C 4.1587353,1.1028369 3.5304867,0.52925747 2.778125,0.52916667 Z"
     sodipodi:nodetypes="ccccccsccc" />
  <path
     id="path3407"
     style="opacity:0.2;fill:#000000;fill-opacity:1;stroke-width:0.154341;stroke-linejoin:round"
     d="m 1.3296346,1.8469157 c -4.531e-4,0.00484 -0.00114,0.00962 -0.00155,0.014469 8.763e-4,-1.215e-4 0.00171,-3.977e-4 0.00258,-5.168e-4 -4.822e-4,-0.00465 -5.96e-4,-0.0093 -0.00103,-0.013952 z m 3.953247,0.9291424 C 5.2185355,3.2989433 4.7736172,3.7041666 4.2333333,3.7041666 h -2.778125 c -0.46744631,0 -0.85318158,-0.346779 -0.91622311,-0.7968506 -0.006524,0.044262 -0.0098,0.089476 -0.009819,0.1353923 0,0.5114388 0.41460298,0.9260417 0.92604161,0.9260417 h 2.778125 c 0.5845013,0 1.0583333,-0.473832 1.0583333,-1.0583333 0,-0.045566 -0.0032,-0.09031 -0.00879,-0.1343586 z" />
  <g
     id="g916">
    <path
       d="m 1.4324733,4.2333333 0.1479048,0.1406975 0.1957996,0.05774 -0.047898,0.1984375 0.047898,0.1984375 -0.1957996,0.05774 L 1.4324733,5.0270833 1.284566,4.8863858 1.088769,4.8286458 1.136664,4.6302083 1.088769,4.4317708 1.284566,4.3740308 Z"
       fill="url(#3)"
       id="path21"
       style="fill:url(#linearGradient862);stroke-width:0.132292" />
    <path
       d="m 1.9616373,5.0270833 0.1479074,0.1406975 0.195797,0.05774 -0.047892,0.1984375 0.047892,0.1984375 -0.195797,0.05774 -0.1479074,0.1406975 -0.147902,-0.1406975 -0.1957996,-0.05774 0.047895,-0.1984375 -0.047895,-0.1984375 0.1957996,-0.05774 z"
       fill="url(#4)"
       id="path23"
       style="fill:url(#linearGradient864);stroke-width:0.132292" />
    <path
       d="m 3.5491373,4.2333333 0.1479074,0.1406975 0.195797,0.05774 -0.047895,0.1984375 0.047895,0.1984375 -0.195797,0.05774 -0.1479074,0.1406975 -0.1479047,-0.1406975 -0.195797,-0.05774 0.047895,-0.1984375 -0.047895,-0.1984375 0.195797,-0.05774 z"
       fill="url(#3)"
       id="path25"
       style="fill:url(#linearGradient866);stroke-width:0.132292" />
    <path
       d="M 4.078305,5.0270811 4.2262097,5.1677785 4.4220092,5.2255185 4.3741144,5.423956 4.4220092,5.6223935 4.2262097,5.6801348 4.078305,5.8208309 3.9304003,5.6801348 3.734602,5.6223935 3.7824956,5.423956 3.734602,5.2255185 3.9304003,5.1677785 Z"
       id="path27"
       style="fill:url(#linearGradient868);stroke-width:0.132292" />
  </g>
  <path
     id="path14"
     style="fill:#3b85b5;stroke-width:0.132292"
     d="M 2.490804,4.2333333 2.3037353,4.4204019 c -0.1032996,0.1033216 -0.1032996,0.2708158 0,0.3741375 0.1033216,0.1032997 0.2708157,0.1032997 0.3741374,0 0.1032997,-0.1033217 0.1032997,-0.2708159 0,-0.3741375 z m 2.1166665,0 -0.1870686,0.1870686 c -0.1032997,0.1033216 -0.1032997,0.2708158 0,0.3741375 0.1033216,0.1032997 0.2708158,0.1032997 0.3741375,0 0.1032996,-0.1033217 0.1032996,-0.2708159 0,-0.3741375 z M 0.90330401,5.0270832 0.71623531,5.2141519 c -0.1032996,0.1033216 -0.1032996,0.2708158 0,0.3741375 0.10332167,0.1032994 0.27081572,0.1032994 0.37413739,0 0.1032996,-0.1033217 0.1032996,-0.2708159 0,-0.3741375 z m 2.11666649,0 -0.1870686,0.1870687 c -0.1032997,0.1033216 -0.1032997,0.2708158 0,0.3741375 0.1033216,0.1032996 0.2708158,0.1032996 0.3741375,0 0.1032997,-0.1033217 0.1032997,-0.2708159 0,-0.3741375 z"
     sodipodi:nodetypes="cccccccccccccccccccccccc" />
</svg>
