<?xml version="1.0" encoding="UTF-8" standalone="no"?>
<!-- Created with Inkscape (http://www.inkscape.org/) -->

<svg
   width="16"
   height="16"
   viewBox="0 0 4.2333332 4.2333335"
   version="1.1"
   id="svg2197"
   inkscape:version="1.1.1 (3bf5ae0d25, 2021-09-20, custom)"
   sodipodi:docname="org.gnome.Lollypop-suggestion-symbolic.svg"
   xmlns:inkscape="http://www.inkscape.org/namespaces/inkscape"
   xmlns:sodipodi="http://sodipodi.sourceforge.net/DTD/sodipodi-0.dtd"
   xmlns="http://www.w3.org/2000/svg"
   xmlns:svg="http://www.w3.org/2000/svg">
  <sodipodi:namedview
     id="namedview2199"
     pagecolor="#ffffff"
     bordercolor="#666666"
     borderopacity="1.0"
     inkscape:pageshadow="2"
     inkscape:pageopacity="0.0"
     inkscape:pagecheckerboard="0"
     inkscape:document-units="px"
     showgrid="false"
     units="px"
     inkscape:zoom="29.097445"
     inkscape:cx="4.5364808"
     inkscape:cy="12.1832"
     inkscape:window-width="1920"
     inkscape:window-height="1019"
     inkscape:window-x="0"
     inkscape:window-y="31"
     inkscape:window-maximized="1"
     inkscape:current-layer="svg2197" />
  <defs
     id="defs2194">
    <style
       type="text/css"
       id="current-color-scheme">
      .ColorScheme-Text {
        color:#eff0f1;
      }
      </style>
  </defs>
  <path
     id="path2280"
     style="fill:currentColor;stroke-width:0.322511"
     class="ColorScheme-Text"
     d="M 2.1166666,0.26458333 A 1.3229165,1.3229165 0 0 0 0.79374999,1.5875 1.3229165,1.3229165 0 0 0 1.3229166,2.644283 V 3.175 h 1.5875 V 2.644283 A 1.3229165,1.3229165 0 0 0 3.4395833,1.5875 1.3229165,1.3229165 0 0 0 2.1166666,0.26458333 Z m 0,0.26458333 A 1.0583333,1.0583333 0 0 1 3.175,1.5875 1.0583333,1.0583333 0 0 1 2.6458333,2.5042399 V 2.9104166 H 1.5875 V 2.5042399 A 1.0583333,1.0583333 0 0 1 1.0583333,1.5875 1.0583333,1.0583333 0 0 1 2.1166666,0.52916666 Z M 1.5875,3.4395833 V 3.7041666 L 1.8520833,3.96875 H 2.38125 L 2.6458333,3.7041666 V 3.4395833 Z" />
</svg>
