<?xml version="1.0" encoding="UTF-8" standalone="no"?>
<!-- Created with Inkscape (http://www.inkscape.org/) -->

<svg
   width="16"
   height="16"
   viewBox="0 0 4.2333332 4.2333335"
   version="1.1"
   id="svg5"
   inkscape:version="1.1.1 (3bf5ae0d25, 2021-09-20)"
   sodipodi:docname="kdenlive-symbolic.svg"
   xmlns:inkscape="http://www.inkscape.org/namespaces/inkscape"
   xmlns:sodipodi="http://sodipodi.sourceforge.net/DTD/sodipodi-0.dtd"
   xmlns="http://www.w3.org/2000/svg"
   xmlns:svg="http://www.w3.org/2000/svg">
  <sodipodi:namedview
     id="namedview7"
     pagecolor="#ffffff"
     bordercolor="#666666"
     borderopacity="1.0"
     inkscape:pageshadow="2"
     inkscape:pageopacity="0.0"
     inkscape:pagecheckerboard="0"
     inkscape:document-units="px"
     showgrid="false"
     units="px"
     height="16px"
     inkscape:zoom="36.504388"
     inkscape:cx="5.3007327"
     inkscape:cy="6.711522"
     inkscape:window-width="1852"
     inkscape:window-height="1053"
     inkscape:window-x="68"
     inkscape:window-y="27"
     inkscape:window-maximized="1"
     inkscape:current-layer="svg5" />
  <defs
     id="defs2" />
  <path
     id="rect846"
     style="opacity:0.6;fill:#232627;stroke-width:0.301191"
     d="M 1.5875,0.52916666 1.984375,1.1244792 V 3.7041666 H 2.2489583 V 1.1244792 L 2.6458333,0.52916666 H 2.2489583 1.984375 Z" />
  <path
     id="rect846-6"
     style="fill:#232627;stroke-width:2.07836"
     d="M 4 4 L 4 5 L 6 5 L 6 4 L 4 4 z M 10 4.5 L 10 12.5 L 15 8.5 L 10 4.5 z M 2 6.5 L 2 7.5 L 6 7.5 L 6 6.5 L 2 6.5 z M 1 9 L 1 10 L 6 10 L 6 9 L 1 9 z M 3 11.5 L 3 12.5 L 6 12.5 L 6 11.5 L 3 11.5 z "
     transform="scale(0.26458333)" />
</svg>
