<?xml version="1.0" encoding="UTF-8" standalone="no"?>
<!-- Created with Inkscape (http://www.inkscape.org/) -->

<svg
   width="48"
   height="48"
   viewBox="0 0 12.7 12.7"
   version="1.1"
   id="svg5"
   inkscape:version="1.1.1 (3bf5ae0d25, 2021-09-20, custom)"
   sodipodi:docname="folder-publicshare.svg"
   xmlns:inkscape="http://www.inkscape.org/namespaces/inkscape"
   xmlns:sodipodi="http://sodipodi.sourceforge.net/DTD/sodipodi-0.dtd"
   xmlns="http://www.w3.org/2000/svg"
   xmlns:svg="http://www.w3.org/2000/svg">
  <sodipodi:namedview
     id="namedview7"
     pagecolor="#ffffff"
     bordercolor="#666666"
     borderopacity="1.0"
     inkscape:pageshadow="2"
     inkscape:pageopacity="0.0"
     inkscape:pagecheckerboard="false"
     inkscape:document-units="px"
     showgrid="false"
     units="px"
     height="48px"
     borderlayer="false"
     inkscape:zoom="8.3541665"
     inkscape:cx="11.670823"
     inkscape:cy="32.498754"
     inkscape:window-width="1920"
     inkscape:window-height="1007"
     inkscape:window-x="0"
     inkscape:window-y="0"
     inkscape:window-maximized="1"
     inkscape:current-layer="svg5" />
  <defs
     id="defs2">
    <style
       type="text/css"
       id="current-color-scheme">
      .ColorScheme-Text {
        color:#31363b;
      }
      .ColorScheme-Highlight {
        color:#3daee9;
      }
      </style>
  </defs>
  <path
     id="rect846-3"
     style="fill:currentColor;fill-opacity:1;stroke-width:0.295665"
     class="ColorScheme-Highlight"
     d="M 1.0583333,1.5875 H 5.2916666 L 6.35,2.9104166 l 5.291666,10e-8 0,8.2020833 H 1.0583337 Z"
     sodipodi:nodetypes="ccccccc" />
  <path
     id="rect1287"
     style="fill:#31363b;fill-opacity:1;stroke-width:0.264583;opacity:0.3"
     class="ColorScheme-Text"
     d="m 1.0583329,1.5875 h 4.233334 l 1.058333,1.3229166 5.2916661,10e-8 V 3.175 H 6.3500009 l -1.058334,1.3229161 h -4.233334 z"
     sodipodi:nodetypes="ccccccccc" />
  <rect
     style="fill:#000000;fill-opacity:0.235294;stroke-width:0.147561"
     id="rect5839"
     width="10.583333"
     height="0.26458332"
     x="1.0583329"
     y="10.847917" />
  <path
     id="rect3586"
     style="fill:currentColor;fill-opacity:0.2;stroke-width:0.264583"
     class="ColorScheme-Text"
     d="m 1.0583333,4.2333335 3.9687505,-4e-7 L 6.3500004,3.175 5.2916669,4.4979162 l -4.2333336,5e-7 z"
     sodipodi:nodetypes="cccccc" />
  <path
     id="rect870"
     style="fill:#ffffff;fill-opacity:0.2;stroke-width:0.44688"
     d="M 20 6 L 24 12 L 44 12 L 44 11 L 24 11 L 20 6 z M 24 12 L 20 17 L 4 17 L 4 18 L 21 18 L 24 12 z "
     transform="scale(0.26458333)" />
  <path
     id="rect174"
     style="fill:currentColor;fill-opacity:0.6;fill-rule:evenodd;stroke-width:0.819782"
     class="ColorScheme-Text"
     d="M 5.953125,5.8208333 A 0.66145832,0.66145832 0 0 0 5.2916667,6.4822916 0.66145832,0.66145832 0 0 0 5.953125,7.1437499 0.66145832,0.66145832 0 0 0 6.6145833,6.4822916 0.66145832,0.66145832 0 0 0 5.953125,5.8208333 Z m 0,0.2645833 A 0.396875,0.396875 0 0 1 6.35,6.4822916 0.396875,0.396875 0 0 1 5.953125,6.8791666 0.396875,0.396875 0 0 1 5.55625,6.4822916 0.396875,0.396875 0 0 1 5.953125,6.0854166 Z M 7.4083333,6.3499999 A 0.52916666,0.52916666 0 0 0 6.8791666,6.8791666 0.52916666,0.52916666 0 0 0 7.4083333,7.4083332 0.52916666,0.52916666 0 0 0 7.9375,6.8791666 0.52916666,0.52916666 0 0 0 7.4083333,6.3499999 Z m 0,0.2645834 A 0.26458333,0.26458333 0 0 1 7.6729166,6.8791666 0.26458333,0.26458333 0 0 1 7.4083333,7.1437499 0.26458333,0.26458333 0 0 1 7.14375,6.8791666 0.26458333,0.26458333 0 0 1 7.4083333,6.6145833 Z M 5.953125,7.4083332 A 1.190625,1.190625 0 0 0 4.7625,8.5989582 v 0.396875 H 7.14375 V 8.5989582 A 1.190625,1.190625 0 0 0 5.953125,7.4083332 Z m 0,0.2645834 A 0.92604165,0.92604165 0 0 1 6.8791666,8.5989582 V 8.7312499 H 5.0270833 V 8.5989582 A 0.92604165,0.92604165 0 0 1 5.953125,7.6729166 Z m 1.4552083,0 C 7.3092653,7.6731269 7.2111121,7.6918816 7.1189453,7.7282106 7.1730723,7.8008226 7.2203029,7.878329 7.2600219,7.959721 7.3081539,7.945311 7.3580919,7.937829 7.4083333,7.9375 7.7005838,7.9375 7.9375,8.1744161 7.9375,8.4666667 H 7.402132 c 0.00407,0.04398 0.00614,0.088123 0.0062,0.1322916 -0.00127,0.044224 -0.00453,0.088367 -0.00982,0.1322917 H 8.2020833 V 8.4666666 c 0,-0.438376 -0.3553741,-0.79375 -0.79375,-0.79375 z" />
</svg>
