<?xml version="1.0" encoding="UTF-8" standalone="no"?>
<!-- Created with Inkscape (http://www.inkscape.org/) -->

<svg
   width="48"
   height="48"
   viewBox="0 0 12.7 12.7"
   version="1.1"
   id="svg5"
   inkscape:version="1.1.1 (3bf5ae0d25, 2021-09-20, custom)"
   sodipodi:docname="folder-html.svg"
   xmlns:inkscape="http://www.inkscape.org/namespaces/inkscape"
   xmlns:sodipodi="http://sodipodi.sourceforge.net/DTD/sodipodi-0.dtd"
   xmlns="http://www.w3.org/2000/svg"
   xmlns:svg="http://www.w3.org/2000/svg">
  <sodipodi:namedview
     id="namedview7"
     pagecolor="#ffffff"
     bordercolor="#666666"
     borderopacity="1.0"
     inkscape:pageshadow="2"
     inkscape:pageopacity="0.0"
     inkscape:pagecheckerboard="false"
     inkscape:document-units="px"
     showgrid="false"
     units="px"
     height="48px"
     borderlayer="false"
     inkscape:zoom="8.3541665"
     inkscape:cx="11.670823"
     inkscape:cy="32.498754"
     inkscape:window-width="1920"
     inkscape:window-height="1007"
     inkscape:window-x="0"
     inkscape:window-y="0"
     inkscape:window-maximized="1"
     inkscape:current-layer="svg5" />
  <defs
     id="defs2">
    <style
       type="text/css"
       id="current-color-scheme">
      .ColorScheme-Text {
        color:#31363b;
      }
      .ColorScheme-Highlight {
        color:#3daee9;
      }
      </style>
  </defs>
  <path
     id="rect846-3"
     style="fill:currentColor;fill-opacity:1;stroke-width:0.295665"
     class="ColorScheme-Highlight"
     d="M 1.0583333,1.5875 H 5.2916666 L 6.35,2.9104166 l 5.291666,10e-8 0,8.2020833 H 1.0583337 Z"
     sodipodi:nodetypes="ccccccc" />
  <path
     id="rect1287"
     style="fill:#31363b;fill-opacity:1;stroke-width:0.264583;opacity:0.3"
     class="ColorScheme-Text"
     d="m 1.0583329,1.5875 h 4.233334 l 1.058333,1.3229166 5.2916661,10e-8 V 3.175 H 6.3500009 l -1.058334,1.3229161 h -4.233334 z"
     sodipodi:nodetypes="ccccccccc" />
  <rect
     style="fill:#000000;fill-opacity:0.235294;stroke-width:0.147561"
     id="rect5839"
     width="10.583333"
     height="0.26458332"
     x="1.0583329"
     y="10.847917" />
  <path
     id="rect3586"
     style="fill:currentColor;fill-opacity:0.2;stroke-width:0.264583"
     class="ColorScheme-Text"
     d="m 1.0583333,4.2333335 3.9687505,-4e-7 L 6.3500004,3.175 5.2916669,4.4979162 l -4.2333336,5e-7 z"
     sodipodi:nodetypes="cccccc" />
  <path
     id="rect870"
     style="fill:#ffffff;fill-opacity:0.2;stroke-width:0.44688"
     d="M 20 6 L 24 12 L 44 12 L 44 11 L 24 11 L 20 6 z M 24 12 L 20 17 L 4 17 L 4 18 L 21 18 L 24 12 z "
     transform="scale(0.26458333)" />
  <path
     id="rect174"
     class="ColorScheme-Text"
     style="fill:currentColor;fill-opacity:0.6;fill-rule:evenodd;stroke-width:0.819782"
     d="m 6.3499999,5.8208333 c -0.876752,0 -1.5874999,0.7107467 -1.5874999,1.5874999 0,0.8767533 0.7107479,1.5875 1.5874999,1.5875 0.8767519,0 1.5875,-0.7107467 1.5875,-1.5875 0,-0.8767532 -0.7107481,-1.5874999 -1.5875,-1.5874999 z m 0,0.2645833 c 0.045664,0 0.087819,0.00375 0.1322917,0.00827 0.010673,0.00105 0.022479,-0.0013 0.033073,0 0.013923,0.00176 0.027557,0.00607 0.041341,0.00827 0.038008,0.00597 0.07065,0.01567 0.1074869,0.024805 0.067891,0.016747 0.1351289,0.039369 0.1984375,0.066146 0.034905,0.014764 0.065921,0.032011 0.099219,0.049609 -1.99e-5,0.00238 2.117e-4,0.00536 0,0.00827 0.00767,0.00344 0.011848,0.017661 0.024805,0.024805 0.00476,0.00265 0.00379,0.00589 0.00827,0.00827 0.00767,0.00423 0.018121,0.00886 0.016536,0.016536 -0.00212,0.010583 -0.017396,0.00833 -0.024805,0.016537 0.00101,0.015346 -0.012578,0.014486 -0.016536,0.024805 0.00238,0.00661 0.015489,0.0086 0.016536,0.016536 -0.0013,0.00847 -0.019717,0.00781 -0.016536,0.016536 0.01429,0.011113 0.027849,0.00265 0.041341,0 0.029631,-0.0037 0.056159,-0.00146 0.074414,-0.016536 -0.00238,-0.014023 0.02639,-0.012078 0.024805,-0.024805 0.00758,0.00553 0.017277,0.010932 0.024805,0.016536 -0.00285,0.00267 -0.00507,0.00684 -0.00827,0.00827 -0.00556,0.00265 -0.011507,0.00509 -0.016536,0.00827 -0.00741,0.00476 -0.01633,0.01098 -0.024805,0.016536 -0.00608,0.00423 -0.018455,0.024805 -0.024805,0.024805 -0.00767,0 -0.019248,-0.00986 -0.024805,-0.00827 -0.00795,0.00265 -0.00756,0.013361 -0.016536,0.016536 -0.01746,0.00635 -0.051794,-0.00966 -0.057878,0.016536 0.00741,0.015081 0.036382,0.00807 0.049609,0.016536 0.00821,0.00529 0.022688,0.024077 0.024805,0.033073 0.00212,0.00741 0.00317,0.041672 0,0.049609 -0.00821,0.021167 -0.033539,0.016801 -0.057878,0.016536 H 6.961849 c -0.041006,-0.00265 -0.080698,-0.0211 -0.099219,0.00827 0.00131,0.02249 0.00504,0.038298 0,0.057878 -0.0037,0.014287 -0.025598,0.029012 -0.024805,0.041341 2.91e-4,0.00635 0.01495,0.015809 0.016536,0.024805 0.00102,0.00476 -0.00214,0.012039 0,0.016536 0.00688,0.012965 0.020903,-0.00265 0.033073,0 0.011642,0.00265 0.024805,0.020055 0.024805,0.033073 0,0.00926 -0.00243,0.024103 -0.00827,0.033073 -0.011642,0.017462 -0.032941,0.01528 -0.049609,0.024805 -0.013752,0.00794 -0.016602,0.027689 -0.024805,0.041341 -0.00873,0.014817 -0.01998,0.020148 -0.016536,0.041341 -0.011904,0.023548 -0.025006,0.038232 -0.049609,0.049609 -0.00715,0.00317 -0.018191,0.00351 -0.024805,0.00827 -0.0053,0.0037 -0.00912,0.016338 -0.016536,0.024805 -0.00926,0.010319 -0.019778,0.016867 -0.024805,0.024805 -0.00371,0.00609 -0.00431,0.016338 -0.00827,0.024805 -0.00582,0.011113 -0.017398,0.013639 -0.024805,0.024805 -0.00343,0.00529 -0.00457,0.017925 -0.00827,0.024805 -0.00847,0.015346 -0.018124,0.027847 -0.016536,0.041341 0.00131,0.0127 0.015743,0.013163 0.016536,0.024805 7.276e-4,0.00635 -0.00853,0.00939 -0.00827,0.016536 2.91e-4,0.010054 0.00748,0.016867 0.00827,0.024805 0.00185,0.019579 -0.01284,0.027953 -0.016536,0.041341 -0.00185,0.00635 0.00159,0.011245 0,0.016536 -0.00317,0.00979 -0.016272,0.021378 -0.016536,0.033073 -2.91e-4,0.0082 0.015751,0.013163 0.016536,0.024805 5.82e-4,0.00767 -0.00985,0.017396 -0.00827,0.024805 0.00291,0.014288 0.030231,0.030229 0.041341,0.041341 0.01508,0.015081 0.034729,0.025466 0.041341,0.041341 0.00556,0.013494 0.00623,0.039529 0.016537,0.049609 0.00767,0.00741 0.023285,0.0086 0.033073,0.016536 0.00926,0.00714 0.015016,0.0086 0.024805,0.016536 0.016138,0.0127 0.040482,0.043193 0.066146,0.041341 0.01349,-0.00265 0.026261,-0.013891 0.041341,-0.016536 0.01561,-0.00265 0.033736,-0.00959 0.049609,-0.00827 0.012166,0.00265 0.028642,0.00906 0.041341,0.00827 0.013227,-0.00265 0.026263,-0.00165 0.041341,-0.00827 0.026194,-0.011377 0.069391,-0.030282 0.107487,-0.024805 0.029101,0.00423 0.029238,0.036645 0.049609,0.049609 0.023281,0.00265 0.039359,-0.0045 0.057878,0 0.014028,0.00344 0.03175,0.022066 0.033073,0.033073 0.00132,0.011377 -0.014952,0.025876 -0.016536,0.033073 -0.0037,0.015346 0.00265,0.031552 0,0.041341 -0.00212,0.00767 -0.00853,0.017132 -0.00827,0.024805 0,0.00688 0.00939,0.024024 0.016536,0.033073 0.00873,0.011112 0.02249,0.021114 0.033073,0.033073 0.019312,0.022225 0.027848,0.045045 0.041341,0.074414 0.00343,0.00741 -0.00317,0.01528 0,0.024805 -0.00582,0.044424 -0.020508,0.074837 -0.049609,0.1240235 -0.013753,0.015875 -0.033338,0.029792 -0.033073,0.049609 -0.00101,0.047625 0.026921,0.077986 0.024805,0.1240235 -0.00476,0.061886 0.00477,0.066172 0,0.099219 0.020902,0.010583 0.00608,0.044159 0,0.066146 -0.00899,0.026194 -0.019778,0.032147 -0.024805,0.049609 0.014044,0.00612 0.034005,0.0036 0.049609,0 -0.00788,0.0083 -0.016711,0.016711 -0.024805,0.024805 -0.05985,0.05985 -0.1280578,0.1178171 -0.1984375,0.1653646 -0.1365363,0.092242 -0.2883981,0.1623081 -0.4547526,0.1984375 -0.090895,0.019741 -0.1843117,0.024805 -0.2811198,0.024805 -0.050359,0 -0.1000482,-0.00266 -0.1488281,-0.00827 -0.038848,-0.00444 -0.077987,-0.00882 -0.1157464,-0.016544 -0.074923,-0.015331 -0.1452488,-0.046999 -0.2149739,-0.074414 -0.00248,-0.00454 -0.00883,-0.011213 -0.00827,-0.016536 0.013752,-0.00582 0.039557,0.019579 0.049609,0 0.00504,-0.00926 -0.00662,-0.032081 0,-0.041341 0.00476,-0.00635 0.031553,-0.00642 0.041341,-0.00827 0.014028,-0.00265 0.033405,-0.00456 0.041341,-0.00827 0.00873,-0.00556 0.018124,-0.025043 0.016536,-0.041341 -7.276e-4,-0.00767 -0.010468,-0.00966 -0.016536,-0.016536 -0.00502,-0.00582 0.00343,-0.01098 0,-0.016536 -0.00634,-0.00926 -0.022159,-0.011311 -0.024805,-0.024805 0.019049,-0.0037 0.0469,0.015941 0.074414,0.00827 0.012966,-0.0037 0.035255,-0.029144 0.041341,-0.041341 0.00185,-0.0037 -0.00211,-0.011774 0,-0.016536 0.00239,-0.00476 0.00747,-0.013891 0.00827,-0.016536 0.00185,-0.00714 -0.00159,-0.00351 0,-0.00827 0.00476,-0.013494 0.016866,-0.023469 0.024805,-0.033073 0.00608,-0.00741 0.019241,-0.017132 0.024805,-0.024805 0.00634,-0.0082 0.00405,-0.00913 0.00827,-0.016536 0.00397,-0.024077 -0.014089,-0.045006 -0.00827,-0.066146 0.00634,-0.023813 0.04313,-0.038761 0.066146,-0.049609 0.00793,-0.0037 0.018191,-0.00589 0.024805,-0.00827 0.015873,-0.00556 0.034794,-0.011245 0.049609,-0.016536 0.024869,-0.009 0.02917,-0.026882 0.041341,-0.049609 0.00582,-0.010583 0.015474,-0.025321 0.016536,-0.033073 0.00102,-0.00688 -0.00131,-0.00833 0,-0.016536 0.00131,-0.00767 -0.00211,-0.015809 0,-0.024805 0.00291,-0.011377 0.00827,-0.036936 0.00827,-0.049609 0,-0.010583 -0.00801,-0.01528 -0.00827,-0.024805 -0.00185,-0.034396 0.012108,-0.030824 0.024805,-0.049609 0.00634,-0.00926 0.012054,-0.026432 0.016536,-0.033073 0.021429,-0.03175 0.060523,-0.042796 0.057878,-0.09095 -0.00102,-0.015875 -0.013169,-0.05285 -0.024805,-0.057878 -0.00662,-0.00291 -0.015016,-0.00483 -0.024805,-0.00827 -0.031219,-0.011642 -0.058411,-0.046964 -0.09095,-0.049609 h -0.016536 c -0.012704,0 -0.027055,-0.00642 -0.041341,-0.00827 -0.00899,-0.00265 -0.027782,0.00265 -0.033073,0 -0.00821,-0.00397 -0.00993,-0.020307 -0.016536,-0.024805 -0.0053,-0.0037 -0.016605,-0.00536 -0.024805,-0.00827 -0.012966,-0.00476 -0.017993,-0.015478 -0.033073,-0.016536 -0.00476,0 -0.01125,0.00265 -0.016536,0 -0.00821,-0.00265 -0.017133,-0.00351 -0.024805,-0.00827 -0.00952,-0.00582 -0.020836,-0.00833 -0.024805,-0.016536 0.00873,-0.028549 -0.018984,-0.032941 -0.024805,-0.049609 -0.00265,-0.00767 0.00265,-0.026194 0,-0.033073 -0.00343,-0.00979 -0.013956,-0.016603 -0.024805,-0.024805 -0.019049,-0.014817 -0.030627,-0.021392 -0.057878,-0.024805 -0.012166,-0.00265 -0.02679,0.00265 -0.041341,0 -0.015344,-0.00265 -0.037969,-0.011576 -0.049609,-0.024805 -0.011118,-0.012965 -0.015017,-0.026961 -0.024805,-0.033073 -0.00926,-0.00582 -0.018456,-0.010451 -0.024805,-0.016536 -0.00291,-0.00265 -0.00562,-0.00218 -0.00827,-0.00827 -0.00476,-0.00979 -0.014089,-0.012899 -0.00827,-0.024805 -0.010579,-0.00529 -0.00516,0.01012 -0.016536,0.00827 -0.010317,-0.014552 -0.018061,-0.029038 -0.041341,-0.024805 -0.010579,0.00265 -0.020638,0.02454 -0.033073,0.024805 -0.010317,0 -0.01958,-0.022688 -0.033073,-0.024805 -0.010317,-0.00265 -0.025929,0.00959 -0.033073,0.00827 -0.01138,-0.00265 -0.014493,-0.00966 -0.024805,-0.016536 -0.00767,-0.00503 -0.020571,-0.016801 -0.024805,-0.016536 -0.013228,0 -0.023087,0.026167 -0.041341,0.016536 -0.00899,-0.011377 0.018856,-0.014221 0.00827,-0.024805 -0.00793,-0.00767 -0.010183,0.00456 -0.016536,0.00827 -0.00741,0.00476 -0.016604,0.00536 -0.024805,0.00827 -0.018256,0.00688 -0.035324,0.00886 -0.049609,0.016536 -0.013228,0.00688 -0.017133,0.011232 -0.024805,0.024805 -0.00608,0.011113 -0.015545,0.032544 -0.024805,0.033073 -0.011118,0 -0.014751,-0.012039 -0.024805,-0.016536 -0.030424,-0.013229 -0.049281,0.00774 -0.074414,0.00827 -0.023282,0 -0.058936,-0.035917 -0.057878,-0.057878 7.276e-4,-0.013494 0.00668,-0.032941 0.00827,-0.049609 0.00131,-0.013229 0.016289,-0.029276 0.016536,-0.041341 2.911e-4,-0.016404 -0.030759,-0.022926 -0.041341,-0.024805 -0.024869,-0.0045 -0.054374,0.011112 -0.082682,0 -0.0053,-0.009 0.0051,-0.015809 0.00827,-0.024805 0.00185,-0.00476 -0.00185,-0.01098 0,-0.016536 0.00317,-0.00847 0.020838,-0.015809 0.024805,-0.024805 0.00291,-0.00688 -0.00291,-0.016073 0,-0.024805 0.00343,-0.00953 0.015736,-0.017926 0.016536,-0.024805 0.00102,-0.009 -0.00941,-0.018984 -0.016536,-0.024805 -0.021959,0.00265 -0.03691,0.00192 -0.049609,0.00827 -0.028571,0.012965 -0.020771,0.048882 -0.049609,0.057878 -0.00979,0.00317 -0.021961,0.00642 -0.033073,0.00827 -0.00485,0.00265 -0.011107,-5.291e-4 -0.016536,0 5.159e-4,-0.00268 -5.318e-4,-0.0056 0,-0.00827 0.00123,-0.00603 0.00695,-0.010538 0.00827,-0.016536 0.018856,-0.085989 0.047994,-0.1692184 0.082682,-0.2480469 h 0.00827 c 0.010055,0.00265 0.016075,0.015743 0.024805,0.016536 0.02434,0.00265 0.029501,-0.022437 0.049609,-0.033073 0.020636,0.00291 0.030825,-0.00265 0.049609,0 0.012704,0.00265 0.031289,0.015478 0.041341,0.016536 0.00847,0 0.0086,-0.00933 0.016536,-0.00827 0.00793,0.00265 0.023482,0.01528 0.024805,0.024805 0.00131,0.011906 -0.011717,0.028218 -0.00827,0.041341 0.012442,0.0127 0.040152,0.017396 0.057878,0.024805 0.011642,-0.00979 0.00185,-0.027583 0,-0.041341 -2.91e-4,-0.00609 7.276e-4,-0.019248 0,-0.024805 -0.00131,-0.00953 -0.00827,-0.016603 -0.00827,-0.024805 0,-0.037835 0.03248,-0.051356 0.057878,-0.066146 0.010841,-0.00635 0.023549,-0.020042 0.033073,-0.024805 0.01349,-0.00661 0.021961,-0.00192 0.033073,-0.00827 0.020105,-0.011377 0.033999,-0.028456 0.049609,-0.041341 0.00715,-0.017198 -7.276e-4,-0.040944 0,-0.057878 0.00715,-0.0045 0.01714,0 0.024805,0 0.012166,-0.00265 0.017924,-0.017926 0.024805,-0.024805 0.00397,-0.00397 0.011769,-0.0043 0.016536,-0.00827 0.012166,-0.00953 0.014218,-0.020571 0.024805,-0.024805 0.00371,-0.00265 0.010709,-0.00642 0.016536,-0.00827 0.00795,-0.00265 0.020375,-0.00351 0.033073,-0.00827 0.00821,-0.00291 0.029898,-0.00483 0.033073,-0.00827 0.00397,-0.00397 -0.00102,-0.018719 0,-0.024805 0.00634,-0.029871 0.047694,-0.03126 0.074414,-0.041341 0.018519,-0.00688 0.037241,-0.028509 0.057878,-0.024805 -0.00397,0.014288 -0.019976,0.015849 -0.016536,0.033073 0.0045,0.024077 0.032875,-0.00483 0.041341,-0.00827 0.016138,-0.00688 0.04498,-0.016867 0.066146,-0.024805 0.018519,-0.00661 0.050533,-0.011748 0.033073,-0.033073 -0.014552,-0.00265 -0.020375,0.011245 -0.033073,0.016536 -0.00873,0.00265 -0.00913,-0.00747 -0.016536,-0.00827 -0.00714,0 -0.00939,0.00959 -0.016536,0.00827 -0.00715,-0.00265 -0.015479,-0.016074 -0.016536,-0.024805 -0.00291,-0.022225 0.015811,-0.024963 0.024805,-0.041341 -0.00608,-0.020108 -0.032678,-0.0086 -0.049609,-0.016536 0.00185,-0.011906 0.010784,-0.022159 0.024805,-0.024805 0.01138,-0.00265 0.042731,0.00218 0.049609,0.00827 0.00397,0.00344 -0.00607,0.01098 0,0.016536 0.00688,0.00609 0.01581,0.00265 0.024805,0 0.00317,-0.015081 -0.019182,-0.00675 -0.016536,-0.016536 0.017989,-0.011642 0.052455,-0.00536 0.074414,-0.00827 0.012704,-0.00265 0.029964,-0.010451 0.041341,-0.016536 0.010579,-0.00609 0.013693,-0.018322 0.024805,-0.00827 0.00317,0.010848 -0.0022,0.018984 -0.00827,0.024805 -0.020371,0.017992 -0.042004,0.037002 -0.057878,0.057878 0.00979,0.00953 0.024938,0.00642 0.041341,0.00827 0.00634,0.00265 0.018189,-0.00132 0.024805,0 0.00795,0.00265 0.018454,-0.00265 0.024805,0 0.011118,0.00265 0.013694,0.024805 0.024805,0.024805 0.017991,0 0.010325,-0.021114 0,-0.033073 0.00317,-0.012435 0.012779,-0.024289 0.00827,-0.033073 -0.00821,-0.016404 -0.039754,0.00489 -0.041341,-0.016536 -0.00102,-0.013229 0.011772,-0.01475 0.016536,-0.024805 -0.00211,-0.0254 0.019182,-0.026591 0.016536,-0.049609 -0.00131,-0.00953 -0.00992,-0.00754 -0.016536,-0.016536 -0.00343,-0.00476 -0.00431,-0.0211 -0.00827,-0.024805 -0.013752,-0.011642 -0.039754,-0.00253 -0.041341,-0.024805 -7.276e-4,-0.013229 0.00185,-0.027159 0,-0.041341 -0.00185,-0.013494 -0.013169,-0.055232 -0.024805,-0.057878 -0.014815,-0.00318 -0.023615,0.024791 -0.041341,0.033073 -0.00952,0.0045 -0.031553,0.00986 -0.041341,0.00827 -0.00634,-0.00265 -0.015742,-0.0041 -0.016536,-0.016536 -0.00105,-0.011218 0.012395,-0.016214 0.016536,-0.024805 0.00103,-0.00215 -5.265e-4,-0.0053 0,-0.00827 0.0192,-0.00536 0.038356,-0.011967 0.057878,-0.016536 0.01109,-0.00257 0.021877,-0.00598 0.033073,-0.00827 0.00791,-0.00165 0.01685,0.00151 0.024805,0 0.035336,-0.00655 0.071225,-0.012854 0.107487,-0.016536 0.043984,-0.00462 0.087022,-0.00827 0.1322916,-0.00827 z M 5.8125651,6.20944 c -0.00842,0.048306 -0.053644,0.06754 -0.107487,0.066146 -0.012166,0.011642 -0.00166,0.03347 -0.00827,0.049609 -0.00556,0.013494 -0.02785,0.025863 -0.041341,0.024805 -0.00979,0 -0.024805,-0.015544 -0.024805,-0.024805 0,-0.011377 0.018063,-0.011787 0.00827,-0.024805 4.366e-4,-0.00265 0.00552,-0.00562 0.00827,-0.00827 0.00536,-0.00337 0.01114,-0.00496 0.016536,-0.00827 0.047943,-0.029505 0.097092,-0.05111 0.1488282,-0.074414 z m 1.1079426,0.049609 c -0.00488,0.00265 -0.00398,0.00562 -0.00827,0.00827 -0.010057,0.00609 -0.017129,0.013626 -0.024805,0.016536 -0.01084,0.00397 -0.023216,0.00675 -0.024805,0.016536 -0.00131,0.0082 0.00854,0.00886 0.00827,0.016537 -0.00397,0.00979 -0.00614,0.012898 -0.00827,0.024805 0.01349,0.02196 0.041211,-0.00483 0.057878,-0.00827 0.00741,-0.00265 0.012568,-0.00192 0.016536,-0.00827 0.0045,-0.00714 0.00484,-0.014698 0.00827,-0.024805 0.00371,-0.011112 0.017862,-0.015015 0.016536,-0.024805 -0.00101,-0.00979 -0.02494,-0.017859 -0.041341,-0.016536 z m -1.44694,0.1653646 c 0.012544,0.01008 0.030178,0.031909 0.00827,0.041341 -0.00265,0.00265 -0.034992,0.00933 -0.041341,0.00827 -0.00256,0 -0.00602,-0.00635 -0.00827,-0.00827 0.013669,-0.013311 0.027108,-0.028627 0.041341,-0.041341 z m 0.049609,0.049609 c 0.00634,0 0.00912,0.016007 0.016536,0.016536 0.00715,0 0.012296,-0.00933 0.016536,-0.00827 0.011118,0.00291 0.018856,0.024818 0.00827,0.033073 -0.00873,0.00265 -0.010196,-0.00933 -0.016536,-0.00827 -0.017991,0.00317 -0.027849,0.0424 -0.041341,0.041341 -0.012704,-0.00265 -0.021239,-0.032081 -0.00827,-0.041341 2.911e-4,-0.00794 -5.397e-4,-0.00833 0,-0.016536 0.00397,-0.00476 0.014217,-0.01733 0.024805,-0.016536 z m -0.066146,0.00827 c 0.00371,0 0.00694,-0.00265 0.00827,0 -0.00185,0.014023 -0.0057,0.01819 -0.016536,0.024805 -0.018784,0.011377 -0.035256,0.0254 -0.041341,0.049609 -0.00185,0.00714 -0.024078,0.026577 -0.033073,0.024805 -0.020901,-0.0045 0.011778,-0.04355 0.016536,-0.049609 0.0053,-0.00661 0.010458,-0.00886 0.016536,-0.016536 0.00608,-0.00741 0.01073,-0.020571 0.016536,-0.024805 0.00634,-0.0045 0.021962,-0.0088 0.033073,-0.00827 z m 1.7942057,0.041341 c 0.020899,-0.00265 0.031817,0.020479 0.041341,0.033073 0.00793,0.010319 0.028376,0.025876 0.041341,0.033073 0.00741,0.00397 0.016603,0.012832 0.024805,0.016536 0.017195,0.00767 0.048815,0.032676 0.049609,0.049609 2.91e-4,0.00847 -0.00959,0.016867 -0.00827,0.024805 0.012967,0.00265 0.02454,-0.020055 0.024805,-0.033073 0.024318,0.034398 0.045139,0.070818 0.066146,0.1074869 0.00992,0.017319 0.023929,0.031762 0.033073,0.049609 -0.011671,0.00344 -0.014661,0.00516 -0.016536,0.016536 -0.00265,0.014817 0.00569,0.038722 -0.016536,0.041341 -0.014015,0.00265 -0.030298,-0.012039 -0.049609,-0.016536 -0.00793,-0.00265 -0.018455,0.00265 -0.024805,0 -0.014552,-0.00476 -0.012369,-0.024262 -0.024805,-0.033073 -0.00715,-0.00503 -0.029963,-0.015213 -0.041341,-0.016536 -0.00715,0 -0.00913,0.00265 -0.016536,0 -0.00899,-0.00265 -0.025665,0.0037 -0.033073,0 -0.00715,-0.0045 -0.02295,-0.018719 -0.024805,-0.024805 -0.00291,-0.00979 0.024275,-0.016523 0.024805,-0.024805 5.821e-4,-0.00635 -0.00695,-0.015015 -0.00827,-0.024805 -0.00101,-0.00582 0.0013,-0.012568 0,-0.016536 -0.00185,-0.00688 -0.013959,-0.008 -0.024805,-0.00827 -0.00953,0 -0.016605,0 -0.024805,0 -0.011642,0 -0.035059,-0.00106 -0.049609,0 -0.00873,0 -0.016603,-7.937e-4 -0.024805,0 -0.023016,0.00265 -0.039887,-0.00265 -0.057878,0 -0.012967,0 -0.03744,0.01098 -0.049609,0.016536 -0.00608,0.00291 -0.0086,0.0043 -0.016536,0.00827 -0.0037,0.00265 -0.011763,0.00615 -0.016537,0.00827 -0.00741,0.00344 -0.017661,0.01442 -0.024805,0.016536 -0.010316,0.00265 -0.022558,-0.00265 -0.041341,0 -0.013489,0 -0.032808,-0.00867 -0.033073,-0.024805 -2.911e-4,-0.024606 0.042865,-0.012039 0.066146,-0.016536 0.00873,-0.00265 0.014216,-0.010186 0.024805,-0.016536 0.00503,-0.00291 0.00351,-0.00509 0.00827,-0.00827 0.00793,-0.00556 0.023482,-0.018455 0.024805,-0.024805 0.00101,-0.00582 -7.937e-4,-0.012039 0,-0.016537 0.00101,-0.00556 0.00939,-0.00913 0.016536,-0.016536 0.011118,-0.011113 0.019315,-0.025876 0.033073,-0.033073 0.00926,-0.00476 0.020571,-0.00886 0.024805,-0.016536 0.00101,-0.00847 -2.911e-4,-0.0086 0,-0.016536 0.00582,-0.00529 0.011779,-0.00721 0.016536,-0.00827 0.01429,-0.00317 0.024675,7.938e-4 0.041341,0 0.00714,0 0.017132,0.00344 0.024805,0 0.00634,-0.00423 0.010186,-0.013361 0.016536,-0.016536 0.00688,-0.0037 0.01633,-0.00774 0.024805,-0.00827 z M 7.400065,6.6807291 H 7.366992 c -0.011642,0 -0.026194,-0.00609 -0.033073,0 0.00979,0.015875 0.02765,0.020836 0.049609,0.024805 0.00793,-0.00582 0.01284,-0.014671 0.016537,-0.024805 z M 5.5893229,6.531901 h 0.024805 c 0.00662,0 0.013891,-0.00265 0.016536,0 -0.00423,0.017462 -0.04412,0.014618 -0.057878,0.00827 7.276e-4,-0.00661 0.00806,-0.00721 0.016537,-0.00827 z m -0.057878,0.033073 c -0.011558,0.00841 -0.022997,0.019072 -0.041341,0.024805 -0.010055,0.00317 -0.022952,0.00284 -0.024805,-0.00827 -0.00212,-0.013758 0.015806,-0.00695 0.024805,-0.00827 0.011642,-0.00265 0.027849,-0.00774 0.041341,-0.00827 z m 1.7197916,0 c -0.00873,0.00291 -0.012967,0.022159 0,0.024805 0.00608,-0.0037 0.00987,-0.013428 0.00827,-0.024805 -0.00343,-0.0037 -0.00563,-0.00265 -0.00827,0 z m -0.016536,0.041341 c 2.911e-4,0.014817 0.00291,0.028482 0,0.041341 0.00847,0.016404 0.028841,0.00284 0.033073,-0.00827 0.00504,-0.027517 -0.00384,-0.036512 -0.016536,-0.033073 -0.00423,0.00265 -0.012054,-0.00344 -0.016536,0 z M 5.0436197,7.2264322 c 0.014913,0.013494 0.023493,0.032504 0.041341,0.041341 0.00662,0.00344 0.016338,0.00615 0.024805,0.00827 0.00688,0.00265 0.00993,-0.00212 0.016536,0 0.014028,0.00476 0.030231,0.011509 0.041341,0.016536 0.016933,0.00741 0.035057,0.032875 0.049609,0.041341 7.276e-4,0.00847 -0.00265,0.018455 0,0.024805 0.00688,0.00926 0.013691,0.018455 0.024805,0.024805 0.01349,0.00741 0.020375,0.018931 0.033073,0.024805 0.0045,0.00265 0.00965,-0.00265 0.016536,0 0.017461,0.00529 0.026261,0.02925 0.041341,0.024805 0.00979,-0.00291 0.00668,-0.01528 0.00827,-0.024805 0.00662,-0.00714 0.014479,-0.016536 0.024805,-0.016536 0.016402,0 0.018719,0.025307 0.024805,0.041341 0.00343,0.009 0.014164,0.01528 0.016536,0.024805 0.00397,0.016404 0.00343,0.064624 0,0.074414 -0.00423,0.012171 -0.023019,0.011496 -0.033073,0.024805 -0.00476,0.00635 -0.00457,0.020307 -0.00827,0.024805 -0.00634,0.00767 -0.011768,0.00913 -0.016536,0.016536 -0.00265,0.00397 -0.0059,0.01098 -0.00827,0.016536 -0.00795,0.016933 -0.023155,0.029236 -0.016536,0.049609 0.00265,0.0082 0.016536,0.015015 0.016536,0.024805 0,0.011642 -0.022952,0.02032 -0.024805,0.033073 -0.00131,0.00926 0.00537,0.020717 0.00827,0.033073 0.00211,0.00926 0.019249,0.018719 0.024805,0.024805 0.00926,0.010319 0.016338,0.028244 0.024805,0.041341 0.016666,0.025665 0.024941,0.057547 0.041341,0.082682 0.00873,0.012965 0.027252,0.01942 0.033073,0.033073 0.00291,0.00688 -0.00265,0.018455 0,0.024805 0.00952,0.021431 0.052985,0.047321 0.074414,0.057878 0.010055,0.00503 0.023815,0.00298 0.033073,0.00827 0.014028,0.00794 0.042467,0.029012 0.049609,0.041341 0.00634,0.011113 0.0051,0.040177 0.00827,0.057878 0.00397,0.023283 -0.00102,0.040984 0,0.066146 7.276e-4,0.013758 0.00827,0.01942 0.00827,0.033073 0,0.00476 2.91e-4,0.019778 0,0.024805 -2.911e-4,0.016404 0.00131,0.032941 0,0.049609 -7.276e-4,0.009 -5.821e-4,0.017132 0,0.024805 7.276e-4,0.0082 0.00774,0.00913 0.00827,0.016536 5.821e-4,0.00767 -0.00907,0.018719 -0.00827,0.024805 0.00185,0.016669 0.013361,0.025969 0.016536,0.041341 0.00265,0.012171 0.00985,0.043325 0.00827,0.057878 -0.00102,0.00767 -0.00721,0.016073 -0.00827,0.024805 -7.276e-4,0.00688 0.00102,0.010187 0,0.016536 -7.276e-4,0.00609 0.00157,0.011509 0,0.016536 -0.00843,-0.00542 -0.016511,-0.010933 -0.024805,-0.016536 -0.07038,-0.047547 -0.1385873,-0.1055142 -0.1984375,-0.1653646 -0.00809,-0.00809 -0.016921,-0.016504 -0.024805,-0.024805 -0.047779,-0.05031 -0.092832,-0.1080341 -0.1322917,-0.1653645 -0.00358,-0.00519 -0.00477,-0.011289 -0.00827,-0.016536 -0.045785,-0.068598 -0.083261,-0.138148 -0.1157552,-0.214974 -0.00234,-0.00554 -0.006,-0.010959 -0.00827,-0.016536 -0.027881,-0.068527 -0.049987,-0.1412826 -0.066146,-0.214974 -0.00305,-0.013908 -0.00566,-0.027273 -0.00827,-0.041341 -0.00655,-0.035336 -0.012854,-0.071225 -0.016536,-0.107487 -0.00452,-0.044473 -0.00827,-0.086627 -0.00827,-0.1322917 0,-0.062876 0.00805,-0.1213633 0.016536,-0.181901 z m 0.5126302,0.1405599 c 0.012704,-0.00582 0.010317,0.014684 0,0.016537 -0.00979,0.00265 -0.00952,-0.011774 0,-0.016537 z" />
</svg>
