<?xml version="1.0" encoding="UTF-8" standalone="no"?>
<!-- Created with Inkscape (http://www.inkscape.org/) -->

<svg
   width="96"
   height="96"
   viewBox="0 0 25.399999 25.400001"
   version="1.1"
   id="svg5"
   inkscape:version="1.1.1 (3bf5ae0d25, 2021-09-20, custom)"
   sodipodi:docname="folder_html.svg"
   xmlns:inkscape="http://www.inkscape.org/namespaces/inkscape"
   xmlns:sodipodi="http://sodipodi.sourceforge.net/DTD/sodipodi-0.dtd"
   xmlns="http://www.w3.org/2000/svg"
   xmlns:svg="http://www.w3.org/2000/svg">
  <sodipodi:namedview
     id="namedview7"
     pagecolor="#ffffff"
     bordercolor="#666666"
     borderopacity="1.0"
     inkscape:pageshadow="2"
     inkscape:pageopacity="0.0"
     inkscape:pagecheckerboard="0"
     inkscape:document-units="px"
     showgrid="false"
     units="px"
     height="96px"
     inkscape:zoom="4.0833333"
     inkscape:cx="32.693878"
     inkscape:cy="3.5510204"
     inkscape:window-width="1920"
     inkscape:window-height="999"
     inkscape:window-x="0"
     inkscape:window-y="0"
     inkscape:window-maximized="1"
     inkscape:current-layer="svg5" />
  <defs
     id="defs2">
    <style
       type="text/css"
       id="current-color-scheme">
      .ColorScheme-Text {
        color:#31363b;
      }
      .ColorScheme-Highlight {
        color:#3daee9;
      }
      </style>
  </defs>
  <path
     id="rect846-3"
     style="fill:currentColor;fill-opacity:1;stroke-width:0.300092"
     class="ColorScheme-Highlight"
     d="m 1.3229165,2.1166673 8.9958335,-7e-7 2.381251,3.1749999 11.377083,7e-7 V 23.283333 H 1.3229165 Z"
     sodipodi:nodetypes="ccccccc" />
  <path
     id="rect956-3-7"
     style="opacity:0.2;stroke-width:0.458269"
     d="m 24.077084,23.018749 v 0.264584 H 1.3229166 v -0.264584 z"
     sodipodi:nodetypes="ccccc" />
  <path
     id="rect2772"
     style="opacity:0.3;stroke-width:0.264583"
     d="m 1.322917,2.1166668 h 8.995833 l 2.381251,3.175 11.377083,1e-6 v 0.264583 H 12.7 l -2.38125,3.174999 -8.995833,-1e-6 z"
     sodipodi:nodetypes="ccccccccc" />
  <path
     id="rect956-3"
     style="opacity:0.2;stroke-width:0.458269"
     d="M 10.054167,8.4666662 12.7,5.5562501 10.31875,8.7312498 H 1.3229166 V 8.4666662 Z"
     sodipodi:nodetypes="cccccc" />
  <path
     id="rect956-3-6"
     style="opacity:0.2;fill:#ffffff;stroke-width:1.73204"
     d="M 39 8 L 48 21 L 91 21 L 91 20 L 48 20 L 39 8 z M 48 21 L 39 33 L 5 33 L 5 34 L 40 34 L 48 21 z "
     transform="scale(0.26458333)" />
  <path
     id="rect1088"
     style="fill:currentColor;fill-opacity:0.6;stroke-width:0.999999"
     class="ColorScheme-Text"
     d="M 48 41 A 15 15 0 0 0 33 56 A 15 15 0 0 0 48 71 A 15 15 0 0 0 63 56 A 15 15 0 0 0 48 41 z M 48 42 A 14 14 0 0 1 54.642578 43.679688 C 54.650601 43.684825 54.657668 43.690792 54.666016 43.695312 C 54.705398 43.747432 54.694355 43.803624 54.763672 43.841797 C 54.814582 43.870143 54.862307 43.914055 54.910156 43.939453 C 54.992172 43.98477 55.071733 44.05532 55.054688 44.134766 C 55.03201 44.250797 54.842966 44.243086 54.763672 44.328125 C 54.774633 44.492308 54.708195 44.461941 54.666016 44.572266 C 54.691338 44.64317 54.752484 44.633937 54.763672 44.71875 C 54.749688 44.809345 54.632 44.818679 54.666016 44.912109 C 54.818973 45.031089 54.959134 44.931763 55.103516 44.912109 C 55.420618 44.872424 55.687445 44.919553 55.882812 44.767578 C 55.862862 44.649133 55.972954 44.61267 56.025391 44.529297 A 14 14 0 0 1 56.380859 44.791016 L 56.287109 44.78125 C 56.221421 44.805817 56.124386 44.834179 56.078125 44.863281 C 55.998906 44.916875 55.973483 44.999104 55.882812 45.058594 C 55.817729 45.103986 55.6578 45.253906 55.589844 45.253906 C 55.507828 45.253906 55.35828 45.185387 55.298828 45.205078 C 55.213827 45.230779 55.248268 45.366413 55.152344 45.400391 C 54.965484 45.468195 54.633469 45.215955 54.568359 45.496094 C 54.647578 45.657442 54.913125 45.603759 55.054688 45.691406 C 55.142599 45.748099 55.276189 46.032679 55.298828 46.128906 C 55.321505 46.208125 55.332844 46.483433 55.298828 46.568359 C 55.210916 46.794791 54.975287 46.767388 54.714844 46.761719 C 54.64394 46.761719 54.584615 46.767766 54.519531 46.761719 C 54.080679 46.733372 53.647417 46.594124 53.449219 46.908203 C 53.463203 47.148808 53.503001 47.282692 53.449219 47.492188 C 53.409723 47.644956 53.245402 47.747809 53.253906 47.880859 C 53.256907 47.948777 53.383572 48.080398 53.400391 48.173828 C 53.411351 48.224738 53.377713 48.323975 53.400391 48.369141 C 53.474205 48.507887 53.660762 48.346463 53.791016 48.369141 C 53.915589 48.388794 54.033203 48.570276 54.033203 48.708984 C 54.033203 48.80797 53.99806 49.001418 53.935547 49.097656 C 53.810936 49.284478 53.578792 49.239863 53.400391 49.341797 C 53.253216 49.426685 53.197173 49.632084 53.109375 49.779297 C 53.015869 49.93781 52.925965 49.990384 52.962891 50.216797 C 52.835521 50.46874 52.691043 50.630222 52.427734 50.751953 C 52.351237 50.785969 52.254347 50.847603 52.183594 50.898438 C 52.126901 50.937934 52.06968 51.003117 51.990234 51.09375 C 51.891249 51.204188 51.751048 51.250974 51.697266 51.335938 C 51.657581 51.401021 51.690995 51.541146 51.648438 51.628906 C 51.586151 51.747886 51.485507 51.849846 51.40625 51.96875 C 51.369589 52.025443 51.299148 52.090362 51.259766 52.164062 C 51.16917 52.328245 51.047445 52.457234 51.064453 52.601562 C 51.078437 52.740309 51.251299 52.772793 51.259766 52.894531 C 51.266947 52.962449 51.208027 53.016181 51.210938 53.089844 C 51.213938 53.197447 51.251262 53.247105 51.259766 53.332031 C 51.279419 53.541493 51.152702 53.625191 51.113281 53.769531 C 51.093628 53.837449 51.130289 53.911099 51.113281 53.964844 C 51.079266 54.06965 50.922757 54.133277 50.919922 54.257812 C 50.916925 54.345724 51.056025 54.424368 51.064453 54.548828 C 51.0705 54.633641 50.998731 54.713712 51.015625 54.792969 C 51.046995 54.945926 51.336174 55.1604 51.455078 55.279297 C 51.616464 55.440645 51.772986 55.546945 51.84375 55.716797 C 51.90324 55.861137 51.9287 56.095552 52.039062 56.203125 C 52.121078 56.282306 52.274138 56.316346 52.378906 56.398438 C 52.478005 56.474935 52.615935 56.511659 52.720703 56.59375 C 52.89339 56.7297 53.12574 57.00223 53.400391 56.982422 C 53.544731 56.971461 53.678431 56.912848 53.839844 56.884766 C 54.006899 56.856419 54.205129 56.770064 54.375 56.787109 C 54.505205 56.801094 54.627798 56.893383 54.763672 56.884766 C 54.905253 56.877585 55.088633 56.808807 55.25 56.738281 C 55.53029 56.616505 55.961443 56.387851 56.369141 56.447266 C 56.680574 56.492658 56.686286 56.843721 56.904297 56.982422 C 57.153443 57.005099 57.338911 56.934308 57.537109 56.982422 C 57.687232 57.019083 57.864733 57.301056 57.878906 57.419922 C 57.892891 57.541698 57.798144 57.636469 57.78125 57.712891 C 57.741754 57.877073 57.711676 58.09448 57.683594 58.199219 C 57.660917 58.281234 57.631855 58.361268 57.634766 58.443359 C 57.634766 58.517174 57.75358 58.686939 57.830078 58.783203 C 57.923584 58.902183 58.056687 58.992842 58.169922 59.123047 C 58.376624 59.360817 58.464986 59.685797 58.609375 60 C 58.646036 60.079181 58.575359 60.096213 58.609375 60.195312 C 58.547088 60.670879 58.385671 60.981324 58.074219 61.507812 C 57.927044 61.677627 57.778415 61.879508 57.78125 62.091797 C 57.770289 62.601304 58.048068 62.864904 58.025391 63.357422 C 57.97448 64.019792 58.028168 64.122734 57.976562 64.476562 C 58.200235 64.589759 58.090474 64.923253 58.025391 65.158203 C 57.929202 65.438417 57.835033 65.50653 57.78125 65.693359 C 57.859074 65.727114 57.931255 65.739817 58.007812 65.740234 A 14 14 0 0 1 48 70 A 14 14 0 0 1 42.759766 68.949219 C 42.910637 68.905325 43.173805 69.0563 43.277344 68.857422 C 43.331429 68.758323 43.20644 68.567834 43.277344 68.46875 C 43.328254 68.400832 43.658934 68.339047 43.763672 68.322266 C 43.913795 68.296943 44.069348 68.3262 44.154297 68.273438 C 44.247802 68.213948 44.364664 68.060253 44.347656 67.884766 C 44.340475 67.802788 44.268057 67.762965 44.203125 67.689453 C 44.149418 67.627167 44.190429 67.550834 44.154297 67.494141 C 44.086379 67.395041 43.987293 67.347654 43.958984 67.203125 C 44.162852 67.163516 44.44383 67.429861 44.738281 67.347656 C 44.877066 67.307971 45.11066 67.040361 45.175781 66.910156 C 45.195435 66.870471 45.153104 66.716158 45.175781 66.667969 C 45.201104 66.614375 45.264971 66.598394 45.273438 66.570312 C 45.293091 66.493928 45.25643 66.471639 45.273438 66.423828 C 45.324348 66.27945 45.479489 66.188715 45.564453 66.083984 C 45.629537 66.004803 45.700276 65.921935 45.759766 65.839844 C 45.827684 65.751932 45.86116 65.721029 45.90625 65.644531 C 45.948845 65.386956 45.746232 65.191283 45.808594 64.964844 C 45.876512 64.710104 46.243915 64.543796 46.490234 64.427734 C 46.575123 64.388049 46.661631 64.308602 46.732422 64.283203 C 46.902274 64.223713 47.110973 64.242051 47.269531 64.185547 C 47.535686 64.089358 47.625606 63.796147 47.755859 63.552734 C 47.818146 63.439538 47.889165 63.341857 47.900391 63.259766 C 47.911351 63.185951 47.886406 63.102542 47.900391 63.017578 C 47.914375 62.93269 47.926693 62.866792 47.949219 62.773438 C 47.980589 62.651661 47.998047 62.422999 47.998047 62.287109 C 47.998047 62.173913 47.952016 62.146856 47.949219 62.044922 C 47.929565 61.676947 48.057485 61.661895 48.193359 61.460938 C 48.261277 61.361952 48.292033 61.189893 48.339844 61.119141 C 48.569185 60.779474 48.952159 60.612813 48.923828 60.097656 C 48.912867 59.927804 48.853051 59.567473 48.728516 59.513672 C 48.657612 59.482302 48.49344 59.504378 48.388672 59.464844 C 48.054562 59.340271 47.81114 58.957989 47.462891 58.929688 C 47.389076 58.92669 47.349669 58.932688 47.267578 58.929688 C 47.131629 58.92669 46.982952 58.800022 46.830078 58.783203 C 46.733889 58.772242 46.546889 58.81155 46.490234 58.783203 C 46.402323 58.740608 46.414389 58.589091 46.34375 58.541016 C 46.287057 58.501331 46.187332 58.47454 46.099609 58.443359 C 45.960863 58.389766 45.872331 58.357004 45.710938 58.345703 C 45.660027 58.342706 45.523339 58.352506 45.466797 58.345703 C 45.378885 58.331719 45.306701 58.250053 45.224609 58.199219 C 45.122751 58.136932 45.071817 58.093696 45.029297 58.005859 C 45.122802 57.700133 44.800568 57.647083 44.738281 57.46875 C 44.709935 57.386734 44.766628 57.25136 44.738281 57.177734 C 44.70162 57.072928 44.610248 57.021354 44.494141 56.933594 C 44.290311 56.77508 44.104143 56.630525 43.8125 56.59375 C 43.682295 56.579766 43.530743 56.604711 43.375 56.59375 C 43.21078 56.582789 43.013234 56.491077 42.888672 56.349609 C 42.769844 56.210674 42.749338 56.074849 42.644531 56.009766 C 42.545432 55.947479 42.372643 55.9281 42.304688 55.863281 C 42.273317 55.834935 42.284055 55.781616 42.255859 55.716797 C 42.204949 55.61475 42.095841 55.599107 42.158203 55.474609 C 42.045006 55.417916 42.086734 55.546115 41.964844 55.523438 C 41.854406 55.367683 41.77453 55.280012 41.525391 55.328125 C 41.412156 55.350802 41.318662 55.520603 41.185547 55.523438 C 41.075109 55.526435 40.988166 55.34793 40.84375 55.328125 C 40.733312 55.314141 40.580366 55.442827 40.503906 55.425781 C 40.38213 55.403104 40.37009 55.255341 40.259766 55.181641 C 40.17775 55.127631 40.014067 54.985484 39.96875 54.988281 C 39.827207 54.991282 39.726614 55.286334 39.53125 55.181641 C 39.435061 55.059864 39.691511 55.052574 39.578125 54.939453 C 39.493237 54.854565 39.452835 54.942674 39.384766 54.988281 C 39.305585 55.041875 39.228386 55.10182 39.140625 55.132812 C 38.945261 55.206627 38.807194 55.20038 38.654297 55.279297 C 38.512716 55.353111 38.492248 55.474763 38.410156 55.619141 C 38.345073 55.73812 38.21824 55.90644 38.119141 55.912109 C 38.000161 55.918913 37.886862 55.762113 37.779297 55.716797 C 37.453691 55.575254 37.26897 55.811656 37 55.814453 C 36.750854 55.81745 36.404692 55.41661 36.416016 55.181641 C 36.423197 55.0373 36.496777 54.824799 36.513672 54.646484 C 36.527656 54.504941 36.655557 54.388029 36.658203 54.257812 C 36.661204 54.085164 36.382777 53.935858 36.269531 53.916016 C 36.003377 53.868016 35.648655 54.034995 35.345703 53.916016 C 35.28901 53.819827 35.456294 53.767182 35.490234 53.673828 C 35.509888 53.620234 35.470581 53.586682 35.490234 53.527344 C 35.52425 53.436748 35.643065 53.379354 35.685547 53.283203 C 35.716917 53.209389 35.703156 53.082783 35.734375 52.992188 C 35.771036 52.89014 35.87228 52.821634 35.880859 52.748047 C 35.89182 52.651858 35.810495 52.519318 35.734375 52.457031 C 35.499402 52.471016 35.335142 52.491355 35.199219 52.552734 C 34.893455 52.691481 34.972676 53.089316 34.664062 53.185547 C 34.640926 53.192318 34.452406 53.120606 34.341797 53.087891 A 14 14 0 0 1 35.175781 50.423828 C 35.276726 50.442385 35.412815 50.453926 35.490234 50.460938 C 35.750719 50.480591 35.761368 50.283157 35.976562 50.169922 C 36.1974 50.201292 36.312631 50.147245 36.513672 50.169922 C 36.649621 50.183906 36.843576 50.354815 36.951172 50.363281 C 37.041767 50.366282 37.061445 50.253292 37.146484 50.267578 C 37.231297 50.281562 37.374536 50.456698 37.388672 50.558594 C 37.402656 50.686002 37.302842 50.805722 37.339844 50.947266 C 37.472997 51.083215 37.73413 51.160978 37.923828 51.240234 C 38.048439 51.138187 37.943482 50.901096 37.923828 50.753906 C 37.920827 50.688823 37.931009 50.618084 37.923828 50.558594 C 37.909844 50.456735 37.875 50.355301 37.875 50.267578 C 37.875 49.862806 38.187161 49.695642 38.458984 49.537109 C 38.574978 49.469116 38.69881 49.343917 38.800781 49.292969 C 38.945159 49.222065 39.021683 49.216167 39.140625 49.148438 C 39.355794 49.026661 39.557539 48.896521 39.724609 48.757812 C 39.800994 48.573863 39.717428 48.35497 39.724609 48.173828 C 39.800994 48.125715 39.837831 48.181009 39.919922 48.173828 C 40.050127 48.145482 40.088484 47.9564 40.162109 47.882812 C 40.204705 47.840217 40.355226 47.827336 40.40625 47.785156 C 40.536455 47.683109 40.537118 47.537466 40.650391 47.492188 C 40.690189 47.478203 40.781312 47.462169 40.84375 47.445312 C 40.928865 47.422635 41.049635 47.346639 41.185547 47.298828 C 41.273459 47.267458 41.491413 47.283109 41.525391 47.25 C 41.567986 47.207405 41.51443 47.022153 41.525391 46.957031 C 41.593309 46.63717 42.067553 46.627123 42.353516 46.519531 C 42.551714 46.443034 42.765479 46.283728 42.986328 46.326172 C 42.943733 46.47894 42.754203 46.433087 42.791016 46.617188 C 42.839129 46.874762 43.13792 46.55623 43.228516 46.519531 C 43.401202 46.44583 43.732462 46.408263 43.958984 46.326172 C 44.157183 46.255457 44.485669 46.115977 44.298828 45.886719 C 44.143074 45.875758 44.094896 46.025376 43.958984 46.082031 C 43.865479 46.096016 43.842891 46.038797 43.763672 46.033203 C 43.687174 46.030202 43.646772 46.096129 43.570312 46.082031 C 43.493928 46.068047 43.386301 45.928448 43.375 45.837891 C 43.34363 45.600121 43.618579 45.527072 43.714844 45.351562 C 43.64976 45.136432 43.360897 45.338719 43.179688 45.253906 C 43.199341 45.126536 43.273781 44.988402 43.423828 44.962891 C 43.545605 44.943237 43.836546 45.001662 43.910156 45.060547 C 43.952752 45.097208 43.894128 45.194454 43.958984 45.253906 C 44.032799 45.31899 44.155689 45.267891 44.251953 45.253906 C 44.285969 45.092596 44.028332 45.165202 44.056641 45.060547 C 44.249132 44.935974 44.600938 44.994072 44.835938 44.962891 C 44.971887 44.943237 45.102859 44.832662 45.224609 44.767578 C 45.337844 44.702495 45.445511 44.611033 45.564453 44.71875 C 45.598469 44.834744 45.484741 44.903439 45.419922 44.962891 C 45.201919 45.155344 45.005805 45.372091 44.835938 45.595703 C 44.940744 45.69775 45.09789 45.625029 45.273438 45.644531 C 45.341356 45.651334 45.444834 45.682172 45.515625 45.693359 C 45.600513 45.707344 45.69181 45.679375 45.759766 45.693359 C 45.878745 45.721706 45.88504 45.886719 46.003906 45.886719 C 46.196473 45.886719 46.210161 45.725946 46.099609 45.595703 C 46.133625 45.46255 46.19674 45.347336 46.148438 45.253906 C 46.060526 45.078385 45.727919 45.284333 45.710938 45.060547 C 45.699977 44.918966 45.85534 44.875143 45.90625 44.767578 C 45.883573 44.49583 46.127918 44.478666 46.099609 44.232422 C 46.085625 44.130375 45.977116 44.133298 45.90625 44.037109 C 45.869589 43.986199 45.850773 43.880563 45.808594 43.84375 C 45.661419 43.719139 45.388083 43.739648 45.371094 43.501953 C 45.363913 43.36041 45.390747 43.266125 45.371094 43.113281 C 45.35144 42.968903 45.20266 42.557598 45.078125 42.529297 C 44.919574 42.495281 44.830312 42.78138 44.640625 42.869141 C 44.538767 42.917254 44.356691 42.937962 44.251953 42.917969 C 44.184035 42.903984 44.065145 42.852748 44.056641 42.722656 C 44.04946 42.64767 44.07425 42.620544 44.105469 42.576172 C 44.108371 42.571423 44.108426 42.56346 44.107422 42.554688 A 14 14 0 0 1 48 42 z M 43.431641 42.798828 C 42.864819 43.061253 42.343718 43.416986 41.820312 43.769531 C 41.563342 43.942596 41.31108 44.119734 41.044922 44.277344 C 41.037741 44.350062 41.016427 44.410849 40.990234 44.474609 C 40.930745 44.618987 40.745952 44.730089 40.601562 44.71875 C 40.552655 44.715749 40.522141 44.648366 40.464844 44.605469 C 39.897215 44.979453 39.212964 45.148744 38.703125 45.603516 C 38.782344 45.72155 38.865531 45.865739 38.703125 45.935547 C 38.674965 45.949439 38.338624 45.997565 38.267578 45.984375 A 14 14 0 0 1 40.400391 44.246094 C 40.376208 44.314487 40.308594 44.398464 40.308594 44.474609 C 40.308594 44.527598 40.399118 44.556562 40.464844 44.605469 C 40.652006 44.482105 40.852162 44.391485 41.044922 44.277344 C 41.057394 44.153375 41.05459 44.017954 41.136719 43.939453 C 41.402986 43.9455 41.636484 43.886394 41.820312 43.769531 C 42.004149 43.652744 42.137945 43.479028 42.207031 43.257812 C 42.183358 43.268584 42.160319 43.28015 42.136719 43.291016 A 14 14 0 0 1 42.207031 43.257812 A 14 14 0 0 1 43.431641 42.798828 z M 54.130859 43.744141 C 54.078777 43.753211 54.030069 43.766285 53.984375 43.792969 C 53.876772 43.858052 53.873069 43.957138 53.791016 43.988281 C 53.674984 44.030877 53.515055 44.030337 53.498047 44.134766 C 53.484063 44.222677 53.598651 44.248831 53.595703 44.328125 C 53.553108 44.432931 53.47182 44.444782 53.449219 44.572266 C 53.593597 44.807201 53.952511 44.575043 54.130859 44.523438 C 54.210078 44.50076 54.283652 44.535687 54.326172 44.474609 C 54.374285 44.398112 54.338868 44.242369 54.375 44.134766 C 54.414685 44.015786 54.53378 44.044146 54.519531 43.939453 C 54.508571 43.834647 54.306392 43.727171 54.130859 43.744141 z M 39.050781 46.033203 C 39.064096 46.031161 39.077638 46.032131 39.091797 46.033203 C 39.159715 46.036204 39.207815 46.172141 39.287109 46.177734 C 39.363531 46.183782 39.485896 46.114809 39.53125 46.128906 C 39.65023 46.160276 39.693464 46.38298 39.580078 46.470703 C 39.486573 46.481664 39.452684 46.358836 39.384766 46.373047 C 39.192236 46.407063 39.140483 46.77305 38.996094 46.761719 C 38.860144 46.747734 38.759578 46.47212 38.898438 46.373047 C 38.901438 46.287932 38.843713 46.262623 38.849609 46.177734 C 38.88688 46.13084 38.957575 46.047496 39.050781 46.033203 z M 38.494141 46.123047 C 38.499555 46.120921 38.500707 46.122355 38.507812 46.130859 C 38.488159 46.280831 38.430522 46.302294 38.314453 46.373047 C 38.11342 46.494823 37.988923 46.647786 37.923828 46.908203 C 37.904175 46.984587 37.680249 47.220977 37.583984 47.201172 C 37.416441 47.165208 37.440911 46.90591 37.5 46.751953 A 14 14 0 0 1 38.117188 46.134766 C 38.10684 46.150094 38.095288 46.16437 38.082031 46.177734 C 38.155845 46.133552 38.343709 46.125379 38.458984 46.130859 C 38.478827 46.130859 38.488726 46.125173 38.494141 46.123047 z M 57.634766 46.519531 C 57.858438 46.505547 57.972285 46.772318 58.074219 46.908203 C 58.159031 47.018603 58.421782 47.17354 58.560547 47.25 C 58.639766 47.292595 58.714936 47.355111 58.802734 47.394531 C 58.85872 47.419558 59.023943 47.450312 59.115234 47.492188 A 14 14 0 0 1 59.416016 47.900391 C 59.346734 47.833868 59.264622 47.78071 59.207031 47.703125 C 59.264216 47.784234 59.334943 47.869026 59.337891 47.929688 C 59.340892 48.020283 59.274776 48.088864 59.289062 48.173828 C 59.384231 48.189225 59.435712 48.094998 59.480469 47.988281 A 14 14 0 0 1 60.714844 50.150391 C 60.604503 49.990515 60.488024 49.861853 60.367188 49.771484 C 60.366307 49.775642 60.363218 49.774383 60.361328 49.779297 C 60.332982 49.93781 60.452463 50.14164 60.214844 50.169922 C 60.064872 50.189575 59.886352 50.019775 59.679688 49.974609 C 59.594875 49.954956 59.454675 49.997287 59.386719 49.974609 C 59.230964 49.921016 59.277608 49.726242 59.144531 49.632812 C 59.068147 49.57903 58.875645 49.502303 58.753906 49.488281 C 58.677409 49.4811 58.639841 49.499242 58.560547 49.488281 C 58.464358 49.477321 58.298007 49.487517 58.21875 49.439453 C 58.142366 49.39134 57.947539 49.309262 57.927734 49.244141 C 57.896364 49.139334 58.16429 48.992058 58.169922 48.904297 C 58.175969 48.836379 58.088316 48.810767 58.074219 48.708984 C 58.063258 48.646698 58.088203 48.553395 58.074219 48.513672 C 58.054565 48.439858 57.946185 48.371937 57.830078 48.369141 C 57.728031 48.369141 57.626823 48.417969 57.539062 48.417969 C 57.414489 48.42097 57.157662 48.355043 57.001953 48.369141 C 56.908448 48.375944 56.847488 48.412375 56.759766 48.417969 C 56.513454 48.437622 56.368303 48.403984 56.175781 48.417969 C 56.036997 48.424772 55.770875 48.503388 55.640625 48.5625 C 55.575542 48.59387 55.530352 48.666767 55.445312 48.708984 C 55.40593 48.728638 55.349965 48.735287 55.298828 48.757812 C 55.219534 48.794474 55.084235 48.884681 55.007812 48.904297 C 54.897375 48.932643 54.771346 48.897116 54.570312 48.904297 C 54.425935 48.9111 54.182526 48.881331 54.179688 48.708984 C 54.176687 48.44574 54.661017 48.558837 54.910156 48.513672 C 55.003662 48.494018 55.040987 48.385396 55.154297 48.320312 C 55.208193 48.288942 55.247993 48.256634 55.298828 48.222656 C 55.383641 48.163166 55.528796 48.046434 55.542969 47.978516 C 55.553929 47.916229 55.485523 47.830322 55.494141 47.785156 C 55.505101 47.725666 55.612955 47.666341 55.689453 47.589844 C 55.808433 47.470864 55.882046 47.324469 56.029297 47.248047 C 56.128283 47.194453 56.325777 47.182432 56.371094 47.103516 C 56.382054 47.01292 56.368093 46.990294 56.371094 46.908203 C 56.43338 46.85151 56.415924 46.821621 56.466797 46.810547 C 56.619717 46.776531 56.776696 46.867955 56.955078 46.859375 C 57.0315 46.856374 57.115174 46.865199 57.197266 46.810547 C 57.265184 46.765155 57.324698 46.697851 57.392578 46.664062 C 57.466392 46.624377 57.544057 46.525163 57.634766 46.519531 z M 57.705078 46.986328 C 57.701034 46.989881 57.697691 47.000379 57.683594 47.005859 C 57.590088 47.037229 57.544809 47.222611 57.683594 47.248047 C 57.748677 47.208551 57.749505 47.124763 57.732422 47.005859 C 57.714091 46.986168 57.709122 46.982775 57.705078 46.986328 z M 39.310547 46.998047 C 39.334646 46.99559 39.359292 46.996033 39.384766 47.005859 C 39.254561 47.116297 39.076135 47.177294 38.849609 47.248047 C 38.742006 47.282063 38.576483 47.319887 38.556641 47.201172 C 38.533963 47.053997 38.655689 47.06871 38.751953 47.054688 C 38.876526 47.040703 39.093884 47.008656 39.238281 47.005859 C 39.262338 47.005859 39.286448 47.000504 39.310547 46.998047 z M 57.683594 47.388672 C 57.667609 47.388016 57.651764 47.389931 57.634766 47.394531 C 57.589373 47.408516 57.53613 47.391754 57.488281 47.443359 C 57.491278 47.601873 57.519651 47.693353 57.488281 47.832031 C 57.578877 48.007515 57.784762 47.903871 57.830078 47.785156 C 57.877138 47.527567 57.795489 47.393263 57.683594 47.388672 z M 58.851562 48.173828 C 58.726989 48.167781 58.632219 48.212713 58.558594 48.271484 C 58.6634 48.441336 58.860685 48.471228 59.095703 48.513672 C 59.180516 48.451385 59.15191 48.281393 59.191406 48.173828 C 59.089359 48.173828 59.024964 48.179875 58.900391 48.173828 L 58.851562 48.173828 z M 34.109375 54.472656 C 34.214019 54.492895 34.421339 54.476469 34.46875 54.5 C 34.539654 54.536661 34.622333 54.529326 34.712891 54.548828 C 34.786591 54.562812 34.835535 54.624072 34.90625 54.646484 C 35.056373 54.697395 35.275646 54.690471 35.394531 54.744141 C 35.575722 54.82336 35.676277 55.139877 35.832031 55.230469 C 35.839212 55.321064 35.803685 55.4047 35.832031 55.472656 C 35.905845 55.571642 36.052933 55.602885 36.171875 55.667969 C 36.316253 55.747188 36.37776 55.947479 36.513672 56.009766 C 36.561785 56.029419 36.633406 55.987088 36.707031 56.009766 C 36.893891 56.066459 36.936259 56.348895 37.097656 56.300781 C 37.202463 56.269411 37.227322 56.111662 37.244141 56.009766 C 37.315045 55.933381 37.375853 55.814453 37.486328 55.814453 C 37.661887 55.811452 37.714176 56.030503 37.779297 56.203125 C 37.815958 56.299314 37.89843 56.394198 37.923828 56.496094 C 37.966423 56.671577 37.96049 57.168699 37.923828 57.273438 C 37.878436 57.403642 37.691588 57.473691 37.583984 57.615234 C 37.533074 57.683152 37.476883 57.763428 37.4375 57.808594 C 37.369582 57.893482 37.293287 57.927598 37.242188 58.003906 C 37.213841 58.046502 37.220862 58.139767 37.195312 58.199219 C 37.110311 58.380372 36.977924 58.516402 37.048828 58.734375 C 37.077175 58.822287 37.195312 58.920698 37.195312 59.025391 C 37.195312 59.149964 36.922148 59.182523 36.902344 59.318359 C 36.888359 59.417345 37.017836 59.622816 37.048828 59.755859 C 37.071505 59.854845 37.231564 59.934879 37.291016 60 C 37.390001 60.1104 37.493351 60.247121 37.583984 60.388672 C 37.762378 60.663217 37.845963 60.996727 38.021484 61.265625 C 38.11499 61.404371 38.300957 61.507111 38.363281 61.654297 C 38.394651 61.727998 38.334935 61.877394 38.363281 61.945312 C 38.46514 62.174616 38.960123 62.41803 39.189453 62.53125 C 39.297056 62.585146 39.383323 62.61924 39.482422 62.675781 C 39.632545 62.760669 39.941141 62.933393 40.017578 63.066406 C 40.085496 63.185386 40.130122 63.46076 40.164062 63.650391 C 40.206658 63.899499 40.153102 64.109997 40.164062 64.378906 C 40.171244 64.526081 40.210938 64.6223 40.210938 64.769531 C 40.210938 64.820441 40.213938 64.91198 40.210938 64.962891 C 40.20794 65.138412 40.224922 65.319721 40.210938 65.498047 C 40.203756 65.594236 40.20489 65.708924 40.210938 65.791016 C 40.218119 65.878927 40.303 65.909868 40.308594 65.986328 C 40.314641 66.068344 40.20232 66.163394 40.210938 66.228516 C 40.230591 66.406834 40.4211 66.550661 40.455078 66.714844 C 40.483425 66.845048 40.520801 67.143138 40.503906 67.298828 C 40.492946 67.380844 40.466266 67.501239 40.455078 67.591797 C 40.45408 67.610695 40.45447 67.62489 40.455078 67.642578 C 40.45608 67.667145 40.5 67.664281 40.5 67.689453 C 40.5 67.714776 40.457346 67.709468 40.455078 67.734375 C 40.455301 67.751005 40.458079 67.769799 40.455078 67.787109 C 40.446007 67.781062 40.437183 67.767766 40.427734 67.761719 C 40.427142 67.765045 40.422562 67.766883 40.419922 67.769531 A 14 14 0 0 1 34 56 A 14 14 0 0 1 34.109375 54.472656 z "
     transform="scale(0.26458333)" />
</svg>
