<?xml version="1.0" encoding="UTF-8" standalone="no"?>
<!-- Created with Inkscape (http://www.inkscape.org/) -->

<svg
   width="96"
   height="96"
   viewBox="0 0 25.399999 25.400001"
   version="1.1"
   id="svg5"
   inkscape:version="1.1.1 (3bf5ae0d25, 2021-09-20, custom)"
   sodipodi:docname="folder-decrypted.svg"
   xmlns:inkscape="http://www.inkscape.org/namespaces/inkscape"
   xmlns:sodipodi="http://sodipodi.sourceforge.net/DTD/sodipodi-0.dtd"
   xmlns="http://www.w3.org/2000/svg"
   xmlns:svg="http://www.w3.org/2000/svg">
  <sodipodi:namedview
     id="namedview7"
     pagecolor="#ffffff"
     bordercolor="#666666"
     borderopacity="1.0"
     inkscape:pageshadow="2"
     inkscape:pageopacity="0.0"
     inkscape:pagecheckerboard="0"
     inkscape:document-units="px"
     showgrid="false"
     units="px"
     height="96px"
     inkscape:zoom="4"
     inkscape:cx="38.875"
     inkscape:cy="56.125"
     inkscape:window-width="1920"
     inkscape:window-height="999"
     inkscape:window-x="0"
     inkscape:window-y="0"
     inkscape:window-maximized="1"
     inkscape:current-layer="svg5" />
  <defs
     id="defs2">
    <style
       type="text/css"
       id="current-color-scheme">
      .ColorScheme-Text {
        color:#31363b;
      }
      .ColorScheme-Highlight {
        color:#3daee9;
      }
      </style>
  </defs>
  <path
     id="rect846-3"
     style="fill:#5c5c5c;fill-opacity:1;stroke-width:0.300092"
     class="ColorScheme-Highlight"
     d="m 1.3229165,2.1166673 8.9958335,-7e-7 2.381251,3.1749999 11.377083,7e-7 V 23.283333 H 1.3229165 Z"
     sodipodi:nodetypes="ccccccc" />
  <path
     id="rect956-3-7"
     style="opacity:0.2;stroke-width:0.458269"
     d="m 24.077084,23.018749 v 0.264584 H 1.3229166 v -0.264584 z"
     sodipodi:nodetypes="ccccc" />
  <path
     id="rect857"
     style="opacity:0.5;fill:#0b0b0b;fill-opacity:1;stroke-width:0.264583"
     d="m 12.7,5.5562498 -0.79375,1.0583333 v 0.2645834 h 1.322917 V 5.5562498 Z m 0.529167,1.3229167 v 1.3229166 h 1.322916 V 6.8791665 Z m 1.322916,0 H 15.875 V 5.5562498 h -1.322917 z m 1.322917,0 v 1.3229166 h 1.322917 V 6.8791665 Z m 1.322917,0 h 1.322916 V 5.5562498 h -1.322916 z m 1.322916,0 V 8.2020831 H 19.84375 V 6.8791665 Z m 1.322917,0 h 1.322917 V 5.5562498 H 19.84375 Z m 1.322917,0 v 1.3229166 h 1.322916 V 6.8791665 Z m 1.322916,0 H 23.8125 V 5.5562498 h -1.322917 z m 1.322917,0 v 1.3229166 h 0.264583 V 6.8791665 Z m 0,1.3229166 H 22.489583 V 9.5249998 H 23.8125 Z m -2.645833,0 H 19.84375 v 1.3229167 h 1.322917 z m -2.645834,0 h -1.322916 v 1.3229167 h 1.322916 z m -2.645833,0 H 14.552083 V 9.5249998 H 15.875 Z m -2.645833,0 H 11.90625 v 1.3229167 h 1.322917 z m -1.322917,0 V 6.8791665 H 11.707813 L 10.715625,8.2020831 Z M 10.583333,8.3782999 10.31875,8.7312498 H 9.2604167 v 0.79375 H 10.583333 Z M 1.3229168,8.7312498 v 0.79375 h 1.3229166 v -0.79375 z m 2.6458333,0 v 0.79375 h 1.3229166 v -0.79375 z m 2.6458333,0 v 0.79375 H 7.9375 v -0.79375 z" />
  <path
     id="path848"
     d="m 12.675195,10.847958 c -0.966488,0.01278 -1.760637,0.766643 -1.823661,1.731161 l -5.17e-4,0.385464 h 0.2651 l 0.001,-0.385464 c 0.06321,-0.827424 0.753017,-1.466556 1.582851,-1.466577 0.829633,2.64e-4 1.519137,0.639352 1.582332,1.466577 l 0.0052,2.237589 H 9.5250001 v 3.96875 H 15.875 v -3.96875 h -1.322917 l -0.0036,-2.237589 C 14.484733,11.605137 13.676061,10.847781 12.7,10.847958 c -0.0083,-5.5e-5 -0.01655,-5.5e-5 -0.02481,0 z m -2.8856119,4.233334 h 5.8208329 v 3.439583 H 9.7895831 Z"
     style="fill:#232629;fill-opacity:0.60000002;stroke-linejoin:round"
     stroke-width="0.29459"
     sodipodi:nodetypes="cccccccccccccccccccccc" />
  <path
     id="rect2772"
     style="opacity:0.3;stroke-width:0.264583"
     d="m 1.322917,2.1166668 h 8.995833 l 2.381251,3.175 11.377083,1e-6 v 0.264583 H 12.7 l -2.38125,3.174999 -8.995833,-1e-6 z"
     sodipodi:nodetypes="ccccccccc" />
  <path
     id="rect956-3"
     style="opacity:0.2;stroke-width:0.458269"
     d="M 10.054167,8.4666662 12.7,5.5562501 10.31875,8.7312498 H 1.3229166 V 8.4666662 Z"
     sodipodi:nodetypes="cccccc" />
  <path
     id="rect956-3-6"
     style="opacity:0.2;fill:#ffffff;stroke-width:1.73204"
     d="M 39 8 L 48 21 L 91 21 L 91 20 L 48 20 L 39 8 z M 48 21 L 39 33 L 5 33 L 5 34 L 40 34 L 48 21 z "
     transform="scale(0.26458333)" />
</svg>
