<?xml version="1.0" encoding="UTF-8" standalone="no"?>
<!-- Created with Inkscape (http://www.inkscape.org/) -->

<svg
   width="96"
   height="96"
   viewBox="0 0 25.399999 25.400001"
   version="1.1"
   id="svg5"
   inkscape:version="1.1.1 (3bf5ae0d25, 2021-09-20, custom)"
   sodipodi:docname="folder-image-people.svg"
   xmlns:inkscape="http://www.inkscape.org/namespaces/inkscape"
   xmlns:sodipodi="http://sodipodi.sourceforge.net/DTD/sodipodi-0.dtd"
   xmlns="http://www.w3.org/2000/svg"
   xmlns:svg="http://www.w3.org/2000/svg">
  <sodipodi:namedview
     id="namedview7"
     pagecolor="#ffffff"
     bordercolor="#666666"
     borderopacity="1.0"
     inkscape:pageshadow="2"
     inkscape:pageopacity="0.0"
     inkscape:pagecheckerboard="0"
     inkscape:document-units="px"
     showgrid="false"
     units="px"
     height="96px"
     inkscape:zoom="2.8873527"
     inkscape:cx="0.86584504"
     inkscape:cy="24.070492"
     inkscape:window-width="1920"
     inkscape:window-height="999"
     inkscape:window-x="0"
     inkscape:window-y="0"
     inkscape:window-maximized="1"
     inkscape:current-layer="svg5" />
  <defs
     id="defs2">
    <style
       type="text/css"
       id="current-color-scheme">
      .ColorScheme-Text {
        color:#31363b;
      }
      .ColorScheme-Highlight {
        color:#3daee9;
      }
      </style>
  </defs>
  <path
     id="rect846-3"
     style="fill:currentColor;fill-opacity:1;stroke-width:0.300092"
     class="ColorScheme-Highlight"
     d="m 1.3229165,2.1166673 8.9958335,-7e-7 2.381251,3.1749999 11.377083,7e-7 V 23.283333 H 1.3229165 Z"
     sodipodi:nodetypes="ccccccc" />
  <path
     id="rect956-3-7"
     style="opacity:0.2;stroke-width:0.458269"
     d="m 24.077084,23.018749 v 0.264584 H 1.3229166 v -0.264584 z"
     sodipodi:nodetypes="ccccc" />
  <path
     id="rect2772"
     style="opacity:0.3;stroke-width:0.264583"
     d="m 1.322917,2.1166668 h 8.995833 l 2.381251,3.175 11.377083,1e-6 v 0.264583 H 12.7 l -2.38125,3.174999 -8.995833,-1e-6 z"
     sodipodi:nodetypes="ccccccccc" />
  <path
     id="rect956-3"
     style="opacity:0.2;stroke-width:0.458269"
     d="M 10.054167,8.4666662 12.7,5.5562501 10.31875,8.7312498 H 1.3229166 V 8.4666662 Z"
     sodipodi:nodetypes="cccccc" />
  <path
     id="rect956-3-6"
     style="opacity:0.2;fill:#ffffff;stroke-width:1.73204"
     d="M 39 8 L 48 21 L 91 21 L 91 20 L 48 20 L 39 8 z M 48 21 L 39 33 L 5 33 L 5 34 L 40 34 L 48 21 z "
     transform="scale(0.26458333)" />
  <path
     id="rect1088"
     style="fill:currentColor;fill-opacity:0.6;stroke-width:0.264583"
     class="ColorScheme-Text"
     d="m 12.729901,10.847917 c -1.022878,0 -1.852084,0.829206 -1.852084,1.852083 0,1.022878 0.829206,1.852084 1.852084,1.852084 1.022877,0 1.852083,-0.829206 1.852083,-1.852084 0,-1.022877 -0.829206,-1.852083 -1.852083,-1.852083 z m 0,0.264583 c 0.876752,0 1.5875,0.710748 1.5875,1.5875 0,0.876752 -0.710748,1.5875 -1.5875,1.5875 -0.876752,0 -1.5875,-0.710748 -1.5875,-1.5875 0,-0.876752 0.710748,-1.5875 1.5875,-1.5875 z m -0.002,4.233334 c -1.986504,0.0011 -3.6661683,1.470823 -3.9310343,3.439583 h 7.8636023 c -0.264944,-1.969344 -1.94549,-3.439214 -3.932576,-3.439583 z m 0,0.264583 c 1.736701,0.004 3.237452,1.214052 3.609599,2.910417 H 9.1177777 c 0.372188,-1.696554 1.8732203,-2.906662 3.6101153,-2.910417 z"
     sodipodi:nodetypes="sssssssssscccccccc" />
</svg>
