<svg xmlns="http://www.w3.org/2000/svg" id="svg2" width="22" height="22" version="1">
 <defs id="defs12">
  <style id="current-color-scheme" type="text/css">
   .ColorScheme-Text { color:#cecfce; } .ColorScheme-Highlight { color:#3daee9; }
  </style>
 </defs>
 <path id="path4491" style="fill:#cecfce;fill-opacity:1;opacity:0.5" d="M 3 3 L 3 19 L 19 19 L 19 3 L 3 3 z M 4 4 L 18 4 L 18 18 L 4 18 L 4 4 z M 5 7 L 5 12 L 7 12 L 7 7 L 5 7 z M 9 7 L 9 15 L 11 15 L 11 10 L 12 10 L 12 15 L 14 15 L 14 10 L 15 10 L 15 15 L 17 15 L 17 8.4003906 L 17 7 L 9 7 z M 5 13 L 5 15 L 7 15 L 7 13 L 5 13 z"/>
</svg>
