<svg xmlns="http://www.w3.org/2000/svg" id="svg2" width="22" height="22" version="1.1">
 <defs id="defs8">
  <style id="current-color-scheme" type="text/css">
   .ColorScheme-Text { color:#cecfce; } .ColorScheme-Highlight { color:#3daee9; }
  </style>
 </defs>
 <path id="path4" style="fill:#cecfce;fill-opacity:1" d="M 8.5722656 3.0058594 C 8.4763152 3.0139229 8.3853438 3.0302562 8.3007812 3.0566406 C 5.5943812 3.9006406 1.6161156 16.658484 3.4785156 18.521484 C 5.3415156 20.383484 18.099359 16.405219 18.943359 13.699219 C 19.762922 11.07875 11.546729 2.755889 8.5722656 3.0058594 z M 8.5996094 4.0117188 C 8.6587934 3.9932527 9.5953213 4.1413673 10.693359 4.8300781 C 11.791398 5.5187889 13.075181 6.5830358 14.246094 7.7539062 C 15.417007 8.9247769 16.481396 10.208831 17.169922 11.306641 C 17.858447 12.40445 18.006647 13.341668 17.988281 13.400391 C 17.969751 13.459791 17.221238 14.296129 15.958984 14.976562 C 14.696731 15.656997 13.008525 16.334797 11.294922 16.869141 C 9.5813191 17.403484 7.8320139 17.796307 6.4589844 17.939453 C 5.7724696 18.011023 5.1782154 18.017087 4.7636719 17.966797 C 4.3491283 17.916517 4.1536581 17.782581 4.1855469 17.814453 C 4.2173789 17.846293 4.0835224 17.650858 4.0332031 17.236328 C 3.9828841 16.821798 3.9890109 16.227522 4.0605469 15.541016 C 4.2036184 14.168006 4.5965552 12.418672 5.1308594 10.705078 C 5.6651635 8.9914844 6.3429889 7.3032567 7.0234375 6.0410156 C 7.7038861 4.7787745 8.5400573 4.0302903 8.5996094 4.0117188 z"/>
</svg>
