<svg xmlns="http://www.w3.org/2000/svg" id="svg9" width="22" height="22" version="1.1">
 <defs id="defs3">
  <style id="current-color-scheme" type="text/css">
   .ColorScheme-Text { color:#cecfce; } .ColorScheme-Highlight { color:#3daee9; }
  </style>
 </defs>
 <path id="path4504" style="fill:#cecfce;fill-opacity:1" d="M 10 3.0039062 L 9.5 4.0351562 C 9.66191 4.0218562 9.8348 4.0039062 10 4.0039062 L 10.5 4.0039062 L 10 3.0039062 z M 10 5.0039062 C 7.23858 5.0039062 5 7.2424966 5 10.003906 C 5 12.257906 6.51261 14.129676 8.5625 14.753906 C 9.03135 14.076476 9.74225 13.548576 10.53125 13.316406 C 11.15098 11.994376 12.50599 10.978106 14 11.003906 C 14.30449 10.998906 14.58708 11.059906 14.875 11.128906 C 14.9595 10.764556 15 10.393956 15 10.003906 C 15 7.2424966 12.76142 5.0039062 10 5.0039062 z M 5.0625 5.0664062 L 5.40625 6.1289062 C 5.6253 5.8696862 5.86578 5.6292063 6.125 5.4101562 L 5.0625 5.0664062 z M 14.9375 5.0664062 L 13.84375 5.4414062 L 13.78125 5.4414062 C 13.92042 5.5523564 14.05623 5.6665163 14.1875 5.7851562 C 14.31877 5.9037964 14.44549 6.0269064 14.5625 6.1601562 L 14.9375 5.0664062 z M 4 9.5039062 L 3 10.003906 L 4.03125 10.503906 C 4.01645 10.334596 4 10.177506 4 10.003906 C 4 9.9764063 3.998 9.9203061 4 9.8476562 C 4.006 9.7318264 4.02235 9.6154162 4.03125 9.5039062 L 4 9.5039062 z M 15.96875 9.5039062 C 15.98355 9.6732163 16 9.8303065 16 10.003906 C 16 10.031406 16.002 10.087506 16 10.160156 C 15.994 10.275986 15.97765 10.392396 15.96875 10.503906 L 16 10.503906 L 17 10.003906 L 15.96875 9.5039062 z M 14 12.003906 C 12.68832 12.003906 11.59518 12.862336 11.1875 14.035156 C 9.95667 14.191126 9 15.230726 9 16.503906 C 9 17.884616 10.11929 19.003906 11.5 19.003906 L 17 19.003906 C 18.10457 19.003906 19 18.108476 19 17.003906 C 19 15.899336 18.10457 15.003906 17 15.003906 C 17 13.347056 15.65685 12.003906 14 12.003906 z M 14 13.003906 C 15.116407 13.003906 16 13.887499 16 15.003906 L 16 16.003906 L 17 16.003906 C 17.56413 16.003906 18 16.439776 18 17.003906 C 18 17.568037 17.56413 18.003906 17 18.003906 L 11.5 18.003906 C 10.659732 18.003906 10 17.344174 10 16.503906 C 10 15.731661 10.567351 15.121769 11.3125 15.027344 L 11.927734 14.949219 L 12.132812 14.363281 C 12.408157 13.571177 13.124621 13.003906 14 13.003906 z M 5.4375 13.847656 L 5.0625 14.941406 L 6.15625 14.566406 L 6.21875 14.566406 C 6.07958 14.455456 5.94377 14.341296 5.8125 14.222656 C 5.68123 14.104016 5.55451 13.980906 5.4375 13.847656 z"/>
</svg>
