<?xml version="1.0" encoding="UTF-8" standalone="no"?>
<!-- Created with Inkscape (http://www.inkscape.org/) -->

<svg
   width="32"
   version="1.1"
   height="32"
   viewBox="0 0 32 32"
   id="svg2"
   inkscape:version="1.1 (c4e8f9ed74, 2021-05-24)"
   sodipodi:docname="folder.svg"
   xmlns:inkscape="http://www.inkscape.org/namespaces/inkscape"
   xmlns:sodipodi="http://sodipodi.sourceforge.net/DTD/sodipodi-0.dtd"
   xmlns:xlink="http://www.w3.org/1999/xlink"
   xmlns="http://www.w3.org/2000/svg"
   xmlns:svg="http://www.w3.org/2000/svg"
   xmlns:rdf="http://www.w3.org/1999/02/22-rdf-syntax-ns#"
   xmlns:cc="http://creativecommons.org/ns#"
   xmlns:dc="http://purl.org/dc/elements/1.1/">
  <sodipodi:namedview
     pagecolor="#ffffff"
     bordercolor="#666666"
     borderopacity="1"
     objecttolerance="10"
     gridtolerance="10"
     guidetolerance="10"
     inkscape:pageopacity="0"
     inkscape:pageshadow="2"
     inkscape:window-width="1920"
     inkscape:window-height="1006"
     id="namedview17"
     showgrid="true"
     inkscape:object-nodes="true"
     inkscape:zoom="14.75"
     inkscape:cx="26.745763"
     inkscape:cy="-6.5084746"
     inkscape:window-x="0"
     inkscape:window-y="0"
     inkscape:window-maximized="1"
     inkscape:current-layer="layer1"
     inkscape:pagecheckerboard="0">
    <inkscape:grid
       type="xygrid"
       id="grid4145" />
  </sodipodi:namedview>
  <defs
     id="defs5455">
    <linearGradient
       inkscape:collect="always"
       id="linearGradient4501">
      <stop
         style="stop-color:#0272cb;stop-opacity:1"
         offset="0"
         id="stop4497" />
      <stop
         style="stop-color:#0768ba;stop-opacity:1"
         offset="1"
         id="stop4499" />
    </linearGradient>
    <linearGradient
       gradientTransform="translate(-9e-6,-9.94e-5)"
       inkscape:collect="always"
       xlink:href="#linearGradient4176"
       id="linearGradient4182"
       x1="406.57144"
       y1="503.7981"
       x2="440.57144"
       y2="532.7981"
       gradientUnits="userSpaceOnUse" />
    <linearGradient
       inkscape:collect="always"
       id="linearGradient4176">
      <stop
         style="stop-color:#27aee9;stop-opacity:1"
         offset="0"
         id="stop4178" />
      <stop
         style="stop-color:#0669bc;stop-opacity:1"
         offset="1"
         id="stop4180" />
    </linearGradient>
    <linearGradient
       inkscape:collect="always"
       xlink:href="#linearGradient4501"
       id="linearGradient4503"
       x1="397.57144"
       y1="517.79797"
       x2="397.57144"
       y2="531.79797"
       gradientUnits="userSpaceOnUse" />
    <linearGradient
       inkscape:collect="always"
       xlink:href="#linearGradient4176"
       id="linearGradient984"
       gradientTransform="scale(1.1420805,0.87559504)"
       x1="345.48477"
       y1="597.07739"
       x2="363.87228"
       y2="623.34521"
       gradientUnits="userSpaceOnUse" />
  </defs>
  <metadata
     id="metadata5458">
    <rdf:RDF>
      <cc:Work
         rdf:about="">
        <dc:format>image/svg+xml</dc:format>
        <dc:type
           rdf:resource="http://purl.org/dc/dcmitype/StillImage" />
      </cc:Work>
    </rdf:RDF>
  </metadata>
  <g
     inkscape:label="Capa 1"
     inkscape:groupmode="layer"
     id="layer1"
     transform="translate(-384.57143,-515.798)">
    <path
       style="fill:url(#linearGradient4503);fill-opacity:1;fill-rule:evenodd;stroke:none;stroke-width:1px;stroke-linecap:butt;stroke-linejoin:miter;stroke-opacity:1"
       d="m 385.57143,517.798 h 12 l 3,4 h 15 v 22 h -30 z"
       id="path4182"
       inkscape:connector-curvature="0"
       sodipodi:nodetypes="ccccccc" />
    <path
       style="fill:url(#linearGradient984);fill-opacity:1;fill-rule:evenodd;stroke:none;stroke-width:1px;stroke-linecap:butt;stroke-linejoin:miter;stroke-opacity:1"
       d="m 385.57143,526.798 h 12 l 3,-4 h 15 l -1e-5,23 h -29.99999 z"
       id="path4186"
       inkscape:connector-curvature="0"
       sodipodi:nodetypes="ccccccc" />
    <path
       inkscape:connector-curvature="0"
       style="fill-opacity:0.235294"
       id="path4192"
       d="m 385.57143,544.798 v 1 h 0.51725 28.96551 0.51724 v -1 h -0.51724 -28.96551 z" />
    <path
       sodipodi:nodetypes="cccccc"
       d="m 385.57143,526.798 v 1 h 13 l 2,-5 -3,4 z"
       id="path4224"
       style="fill:#ffffff;fill-opacity:0.235294;fill-rule:evenodd"
       inkscape:connector-curvature="0" />
    <path
       sodipodi:nodetypes="ccccccc"
       d="m 400.57143,522.798 -4,3 h -11 v 1 h 6.99999 5.00001 z"
       id="path4306-3"
       style="fill-opacity:0.235294;fill-rule:evenodd"
       inkscape:connector-curvature="0" />
    <path
       sodipodi:nodetypes="cccccc"
       inkscape:connector-curvature="0"
       style="fill:#ffffff;fill-opacity:0.235294;fill-rule:evenodd"
       id="path4204"
       d="m 397.57143,517.798 3,5 h 15 v -1 h -15 z" />
    <path
       style="fill:#ffffff"
       id="rect4184"
       d="M 20 13 A 0.99999398 1 0 0 0 19 14 A 0.99999398 1 0 0 0 20 15 A 0.99999398 1 0 0 0 21 14 A 0.99999398 1 0 0 0 20 13 z M 16.5 15 A 0.5 0.5 0 0 0 16 15.5 A 0.5 0.5 0 0 0 16.5 16 A 0.5 0.5 0 0 0 17 15.5 A 0.5 0.5 0 0 0 16.5 15 z M 14.5 16 A 0.5 0.5 0 0 0 14 16.5 A 0.5 0.5 0 0 0 14.5 17 A 0.5 0.5 0 0 0 15 16.5 A 0.5 0.5 0 0 0 14.5 16 z M 12 17 A 0.99999398 1 0 0 0 11 18 A 0.99999398 1 0 0 0 12 19 A 0.99999398 1 0 0 0 13 18 A 0.99999398 1 0 0 0 12 17 z M 14.5 19 A 0.5 0.5 0 0 0 14 19.5 A 0.5 0.5 0 0 0 14.5 20 A 0.5 0.5 0 0 0 15 19.5 A 0.5 0.5 0 0 0 14.5 19 z M 16.5 20 A 0.5 0.5 0 0 0 16 20.5 A 0.5 0.5 0 0 0 16.5 21 A 0.5 0.5 0 0 0 17 20.5 A 0.5 0.5 0 0 0 16.5 20 z M 20 21 A 0.99999398 1 0 0 0 19 22 A 0.99999398 1 0 0 0 20 23 A 0.99999398 1 0 0 0 21 22 A 0.99999398 1 0 0 0 20 21 z "
       transform="matrix(1 0 0 1 384.57143 515.798)"/>
  </g>
</svg>
