<?xml version="1.0" encoding="UTF-8" standalone="no"?>
<svg
   height="24"
   width="24"
   version="1.1"
   id="svg108"
   sodipodi:docname="preferences-desktop-global-theme.svg"
   inkscape:version="1.1.1 (3bf5ae0d25, 2021-09-20)"
   xmlns:inkscape="http://www.inkscape.org/namespaces/inkscape"
   xmlns:sodipodi="http://sodipodi.sourceforge.net/DTD/sodipodi-0.dtd"
   xmlns:xlink="http://www.w3.org/1999/xlink"
   xmlns="http://www.w3.org/2000/svg"
   xmlns:svg="http://www.w3.org/2000/svg">
  <defs
     id="defs112">
    <linearGradient
       inkscape:collect="always"
       id="linearGradient5574">
      <stop
         style="stop-color:#eff0f1;stop-opacity:1;"
         offset="0"
         id="stop5570" />
      <stop
         style="stop-color:#fcfcfc;stop-opacity:1"
         offset="1"
         id="stop5572" />
    </linearGradient>
    <linearGradient
       id="linearGradient2131"
       gradientTransform="matrix(-0.40403755,-1.5078898,1.5078887,-0.40403789,34.507553,61.88627)"
       gradientUnits="userSpaceOnUse"
       x1="8"
       x2="24.00001"
       xlink:href="#d"
       y1="24"
       y2="8" />
    <linearGradient
       id="linearGradient2138">
      <stop
         offset="0"
         stop-color="#c1cc00"
         id="stop35-3" />
      <stop
         offset=".312499"
         stop-color="#dfcd00"
         id="stop37-6" />
      <stop
         offset=".562499"
         stop-color="#f0cc00"
         id="stop39-7" />
      <stop
         offset=".75"
         stop-color="#fd8c08"
         id="stop41-5" />
      <stop
         offset="1"
         stop-color="#f25c13"
         id="stop43-3" />
    </linearGradient>
    <linearGradient
       id="a-6"
       gradientUnits="userSpaceOnUse"
       x1="6.3750029"
       x2="15.75002"
       xlink:href="#c-2"
       y1="10.000012"
       y2="19.37501"
       gradientTransform="matrix(1.6,0,0,1.6,386.17143,512.99802)" />
    <linearGradient
       id="c-2"
       gradientUnits="userSpaceOnUse"
       x1="5.3750029"
       x2="14.75002"
       y1="7.0000119"
       y2="16.37501">
      <stop
         offset="0"
         id="stop8-9" />
      <stop
         offset="1"
         stop-opacity="0"
         id="stop10-1" />
    </linearGradient>
    <linearGradient
       inkscape:collect="always"
       xlink:href="#linearGradient5574"
       id="linearGradient5576"
       x1="400.48984"
       y1="537.02844"
       x2="400.52539"
       y2="524.18481"
       gradientUnits="userSpaceOnUse"
       gradientTransform="translate(3.200014,1.6)" />
  </defs>
  <sodipodi:namedview
     id="namedview110"
     pagecolor="#ffffff"
     bordercolor="#666666"
     borderopacity="1.0"
     inkscape:pageshadow="2"
     inkscape:pageopacity="0.0"
     inkscape:pagecheckerboard="0"
     showgrid="false"
     inkscape:zoom="5.6796875"
     inkscape:cx="24.56121"
     inkscape:cy="55.900963"
     inkscape:window-width="1853"
     inkscape:window-height="1049"
     inkscape:window-x="67"
     inkscape:window-y="31"
     inkscape:window-maximized="1"
     inkscape:current-layer="g92" />
  <linearGradient
     id="a">
    <stop
       offset="0"
       stop-color="#e81877"
       id="stop2" />
    <stop
       offset=".312499"
       stop-color="#dd1d8c"
       id="stop4" />
    <stop
       offset=".562499"
       stop-color="#6d57b1"
       id="stop6" />
    <stop
       offset=".75"
       stop-color="#2a78c1"
       id="stop8" />
    <stop
       offset="1"
       stop-color="#018dcb"
       id="stop10" />
  </linearGradient>
  <linearGradient
     id="b">
    <stop
       offset="0"
       stop-color="#e51561"
       id="stop13" />
    <stop
       offset=".312499"
       stop-color="#e4156c"
       id="stop15" />
    <stop
       offset=".562499"
       stop-color="#e71e2c"
       id="stop17" />
    <stop
       offset=".75"
       stop-color="#e8301e"
       id="stop19" />
    <stop
       offset="1"
       stop-color="#e6320e"
       id="stop21" />
  </linearGradient>
  <linearGradient
     id="c">
    <stop
       offset="0"
       stop-color="#bec900"
       id="stop24" />
    <stop
       offset=".312499"
       stop-color="#9ec80a"
       id="stop26" />
    <stop
       offset=".562499"
       stop-color="#71b93d"
       id="stop28" />
    <stop
       offset=".75"
       stop-color="#35a48f"
       id="stop30" />
    <stop
       offset="1"
       stop-color="#018fca"
       id="stop32" />
  </linearGradient>
  <linearGradient
     id="d">
    <stop
       offset="0"
       stop-color="#c1cc00"
       id="stop35" />
    <stop
       offset=".312499"
       stop-color="#dfcd00"
       id="stop37" />
    <stop
       offset=".562499"
       stop-color="#f0cc00"
       id="stop39" />
    <stop
       offset=".75"
       stop-color="#fd8c08"
       id="stop41" />
    <stop
       offset="1"
       stop-color="#f25c13"
       id="stop43" />
  </linearGradient>
  <linearGradient
     id="e"
     gradientTransform="matrix(-0.40403755,-1.5078898,1.5078887,-0.40403789,377.27899,577.28427)"
     gradientUnits="userSpaceOnUse"
     x1="8"
     x2="24.00001"
     xlink:href="#d"
     y1="24"
     y2="8" />
  <linearGradient
     id="f"
     gradientUnits="userSpaceOnUse"
     x1="394.57144"
     x2="408.57144"
     y1="523.79797"
     y2="537.79797"
     gradientTransform="translate(-384.57143,-515.798)">
    <stop
       offset="0"
       stop-color="#292c2f"
       id="stop47" />
    <stop
       offset="1"
       stop-color="#292c2f"
       stop-opacity=".035714"
       id="stop49" />
  </linearGradient>
  <linearGradient
     id="g"
     gradientTransform="matrix(0.99946327,0,0,0.99953344,-384.3602,-515.54758)"
     gradientUnits="userSpaceOnUse"
     x1="400.57144"
     x2="400.57144"
     y1="536.79797"
     y2="522.79797">
    <stop
       offset="0"
       stop-color="#eff0f1"
       id="stop52" />
    <stop
       offset="1"
       stop-color="#fcfcfc"
       id="stop54" />
  </linearGradient>
  <linearGradient
     id="h"
     gradientTransform="matrix(-1.1038511,-1.103852,1.1038511,-1.103852,403.77141,584.38291)"
     gradientUnits="userSpaceOnUse"
     x1="8"
     x2="24.00001"
     xlink:href="#d"
     y1="24"
     y2="8" />
  <linearGradient
     id="i"
     gradientTransform="matrix(-0.40403755,-1.5078898,-1.5078887,0.40403789,449.65765,557.89047)"
     gradientUnits="userSpaceOnUse"
     x1="8"
     x2="24.00001"
     xlink:href="#c"
     y1="23.999973"
     y2="8" />
  <linearGradient
     id="j"
     gradientTransform="matrix(0.40403755,1.5078898,1.5078887,-0.40403789,357.8852,504.90557)"
     gradientUnits="userSpaceOnUse"
     x1="8"
     x2="24.00001"
     xlink:href="#b"
     y1="24.000031"
     y2="8" />
  <linearGradient
     id="k"
     gradientTransform="matrix(1.5078887,0.40403789,-0.40403755,1.5078898,377.27899,485.51174)"
     gradientUnits="userSpaceOnUse"
     x1="8"
     x2="24.00001"
     xlink:href="#a"
     y1="23.999973"
     y2="8" />
  <linearGradient
     id="l"
     gradientTransform="matrix(1.5078887,0.40403789,0.40403755,-1.5078898,357.88519,557.89045)"
     gradientUnits="userSpaceOnUse"
     x1="8"
     x2="24.00001"
     xlink:href="#b"
     y1="24.000031"
     y2="8" />
  <linearGradient
     id="m"
     gradientTransform="matrix(-1.5078887,-0.40403789,-0.40403755,1.5078898,449.65765,504.90555)"
     gradientUnits="userSpaceOnUse"
     x1="8"
     x2="24.00001"
     xlink:href="#c"
     y1="23.999973"
     y2="8" />
  <linearGradient
     id="n"
     gradientTransform="matrix(-1.5078887,-0.40403789,0.40403755,-1.5078898,430.26384,577.28426)"
     gradientUnits="userSpaceOnUse"
     x1="8"
     x2="24.00001"
     xlink:href="#d"
     y1="24"
     y2="8" />
  <linearGradient
     id="o"
     gradientTransform="matrix(1.1038511,1.103852,-1.1038511,1.103852,403.77143,478.41314)"
     gradientUnits="userSpaceOnUse"
     x1="8"
     x2="24.00001"
     xlink:href="#a"
     y1="23.999973"
     y2="8" />
  <linearGradient
     id="p"
     gradientTransform="matrix(1.1038511,1.103852,1.1038511,-1.103852,350.78657,531.39803)"
     gradientUnits="userSpaceOnUse"
     x1="8"
     x2="24.00001"
     xlink:href="#b"
     y1="24.000031"
     y2="8" />
  <linearGradient
     id="q"
     gradientTransform="matrix(-1.1038511,-1.103852,-1.1038511,1.103852,456.75628,531.39803)"
     gradientUnits="userSpaceOnUse"
     x1="8"
     x2="24.00001"
     xlink:href="#c"
     y1="23.999973"
     y2="8" />
  <linearGradient
     id="r"
     gradientTransform="matrix(0.40403755,1.5078898,-1.5078887,0.40403789,430.26379,485.51176)"
     gradientUnits="userSpaceOnUse"
     x1="8"
     x2="24.00001"
     xlink:href="#a"
     y1="23.999973"
     y2="8" />
  <g
     stroke-opacity="0.550265"
     stroke-width="4.37103"
     id="g92"
     transform="matrix(0.625,0,0,0.625,-240.35714,-321.62375)">
    <path
       d="M 387.77144,527.11089 V 548.198 h 11.52 l 4.48,-16.8 z"
       fill="url(#l)"
       id="path68"
       style="fill:url(#l)"
       sodipodi:nodetypes="ccccc" />
    <path
       d="m 406.98629,519.398 -3.21485,12 16,4.28711 V 519.398 Z"
       fill="url(#m)"
       id="path70"
       style="fill:url(#m)" />
    <path
       d="m 403.77144,531.398 -4.48,16.8 h 20.48 v -0.8 -11.71289 z"
       fill="url(#n)"
       id="path72"
       style="fill:url(#n)"
       sodipodi:nodetypes="cccccc" />
    <path
       d="m 419.77144,527.11089 -16,4.28711 4.47999,16.8 h 11.52 l 10e-6,-0.8 z"
       fill="url(#i)"
       opacity="0.3"
       id="path74"
       style="fill:url(#i)"
       sodipodi:nodetypes="cccccc" />
    <path
       d="m 415.77144,519.398 -12,12 16,16 v -28 z"
       fill="url(#q)"
       opacity="0.35"
       id="path76"
       style="fill:url(#q)" />
    <path
       d="m 400.5566,519.398 3.21484,12 16,-4.28711 V 519.398 Z"
       fill="url(#r)"
       opacity="0.3"
       id="path78"
       style="fill:url(#r)" />
    <path
       d="m 387.77144,519.398 v 7.71289 l 16,4.28711 3.21485,-12 z"
       fill="url(#k)"
       id="path80"
       style="fill:url(#k)" />
    <path
       d="m 387.77144,519.398 v 28 l 16,-16 -12,-12 z"
       fill="url(#p)"
       opacity="0.35"
       id="path82"
       style="fill:url(#p)" />
    <path
       d="m 403.77144,531.398 -16,16 -2e-5,0.79996 h 32 l 2e-5,-0.79996 z"
       fill="url(#h)"
       opacity="0.35"
       id="path84"
       style="fill:url(#h)"
       sodipodi:nodetypes="cccccc" />
    <path
       d="m 403.77144,531.398 -16,4.28711 V 548.198 h 20.47999 z"
       fill="url(#e)"
       opacity="0.3"
       id="path86"
       style="fill:url(#e)"
       sodipodi:nodetypes="ccccc" />
    <path
       d="m 387.77144,519.398 v 16.28711 l 16,-4.28711 -3.21484,-12 z"
       fill="url(#j)"
       opacity="0.3"
       id="path88"
       style="fill:url(#j)" />
    <path
       d="m 391.77144,519.398 12,12 12,-12 z"
       fill="url(#o)"
       opacity="0.35"
       id="path90"
       style="fill:url(#o)" />
    <path
       d="m 410.44023,525.92922 -8.49692,6.32192 11.14687,11.14683 6.68125,3e-5 -1e-5,-8.1376 z m -7.93755,8.33755 -5.13125,4.33125 4.80002,4.79995 h 9.46249 z"
       fill="url(#a)"
       opacity="0.2"
       id="path25"
       style="fill:url(#a-6);stroke-width:6.99365"
       sodipodi:nodetypes="ccccccccccc" />
    <path
       d="m 410.06206,525.79802 c -1.0729,-0.007 -3.61829,1.76187 -6.12813,4.27188 -0.72214,0.72239 -1.39683,1.46282 -1.99062,2.18124 1.09053,0.19815 2.00088,0.94652 2.40624,1.97813 0.6454,-0.54563 1.30526,-1.14915 1.95,-1.79375 2.9394,-2.9397 4.79351,-5.85265 4.14068,-6.5063 -0.0672,-0.0675 -0.16051,-0.10991 -0.27817,-0.12495 -0.0315,-0.004 -0.0654,-0.006 -0.1,-0.006 z m -8.69063,8 c -1.32548,0 -2.4,1.07452 -2.4,2.4 0.002,0.2729 0.0507,0.54345 0.14375,0.8 h -0.14375 l -1.6,1.6 h 2.4 c 1.6972,0 3.07909,-1.30791 3.19375,-2.975 -0.002,-0.0186 -0.004,-0.0378 -0.006,-0.0563 0.007,-0.056 0.0114,-0.11232 0.0125,-0.16875 0,-0.82842 -0.63069,-1.50869 -1.4375,-1.59062 -0.027,-0.003 -0.0541,-0.005 -0.0812,-0.006 -0.0273,-10e-4 -0.0536,-0.003 -0.0812,-0.003 z"
       stroke-width="0.956005"
       id="path31"
       style="fill:url(#linearGradient5576);fill-opacity:1" />
    <path
       d="m 403.77143,543.398 h 16 v 4.8 h -16 z"
       fill="#31363b"
       fill-opacity="0.862745"
       opacity="0.85"
       stroke-linejoin="round"
       stroke-width="3.2"
       id="path51" />
    <g
       transform="translate(3.200014,1.599936)"
       id="g61">
      <path
         d="m 384.57144,541.7981 h 15.99999 v 4.8 h -15.99999 z"
         fill="#ffffff"
         fill-opacity="0.784314"
         stroke-width="0.774601"
         id="path53" />
      <g
         transform="matrix(1.6,0,0,1.6,382.97143,514.59807)"
         id="g59">
        <path
           d="m 2,18 v 1 h 1 v -1 z"
           fill="#4d4d4d"
           id="path55" />
        <path
           d="M 19.5,17.75 A 0.75000002,0.75000002 0 0 0 18.75,18.5 0.75000002,0.75000002 0 0 0 19.5,19.25 0.75000002,0.75000002 0 0 0 20.25,18.5 0.75000002,0.75000002 0 0 0 19.5,17.75 Z"
           fill="#eff0f1"
           id="path57" />
      </g>
    </g>
  </g>
</svg>
