<?xml version="1.0" encoding="UTF-8" standalone="no"?>
<!-- Created with Inkscape (http://www.inkscape.org/) -->

<svg
   xmlns:dc="http://purl.org/dc/elements/1.1/"
   xmlns:cc="http://creativecommons.org/ns#"
   xmlns:rdf="http://www.w3.org/1999/02/22-rdf-syntax-ns#"
   xmlns:svg="http://www.w3.org/2000/svg"
   xmlns="http://www.w3.org/2000/svg"
   xmlns:sodipodi="http://sodipodi.sourceforge.net/DTD/sodipodi-0.dtd"
   xmlns:inkscape="http://www.inkscape.org/namespaces/inkscape"
   id="svg7384"
   height="16.009"
   width="16"
   version="1.1"
   sodipodi:docname="colorimeter-colorhug-symbolic.svg"
   inkscape:version="0.92.1 r15371">
  <defs
     id="defs10" />
  <sodipodi:namedview
     pagecolor="#ffffff"
     bordercolor="#666666"
     borderopacity="1"
     objecttolerance="10"
     gridtolerance="10"
     guidetolerance="10"
     inkscape:pageopacity="0"
     inkscape:pageshadow="2"
     inkscape:window-width="1600"
     inkscape:window-height="808"
     id="namedview8"
     showgrid="false"
     inkscape:zoom="14.741707"
     inkscape:cx="8"
     inkscape:cy="8.0045004"
     inkscape:window-x="0"
     inkscape:window-y="0"
     inkscape:window-maximized="1"
     inkscape:current-layer="svg7384" />
  <metadata
     id="metadata90">
    <rdf:RDF>
      <cc:Work
         rdf:about="">
        <dc:format>image/svg+xml</dc:format>
        <dc:type
           rdf:resource="http://purl.org/dc/dcmitype/StillImage" />
        <dc:title>Gnome Symbolic Icon Theme</dc:title>
      </cc:Work>
    </rdf:RDF>
  </metadata>
  <title
     id="title9167">Gnome Symbolic Icon Theme</title>
  <g
     id="layer10"
     transform="translate(259 -446.99)">
    <path
       style="block-progression:tb;text-indent:0;color:#000000;text-transform:none;fill:#eff0f1;fill-opacity:1"
       d="M 7.0605469 0.009765625 C 6.6062469 0.059265625 6.1765769 0.23116563 5.8105469 0.50976562 C 5.3225069 0.88122563 4.9980469 1.4646256 4.9980469 2.1972656 L 4.9980469 6.0097656 L 2 6.0097656 L 2 16.009766 L 11 16.009766 L 11 6.0097656 L 5.9980469 6.0097656 L 5.9980469 2.1972656 C 5.9980469 1.7481656 6.1696869 1.4933756 6.4355469 1.2910156 C 6.7014069 1.0886556 7.0993069 0.99078563 7.4980469 1.0097656 C 7.8967869 1.0287656 8.2823269 1.1638556 8.5605469 1.4160156 C 8.8387669 1.6681756 9.0292969 2.0005156 9.0292969 2.5410156 C 9.0292969 4.7063156 10.493097 6.0500656 12.029297 6.0097656 C 12.886017 5.9872656 13.717497 5.5328056 14.279297 4.6972656 L 13.716797 3.6972656 C 13.341427 4.6129656 12.649047 4.9926656 11.998047 5.0097656 C 11.037587 5.0349656 10.029297 4.2800656 10.029297 2.5410156 C 10.029297 1.7490456 9.6924769 1.0971156 9.2167969 0.66601562 C 8.7411169 0.23489562 8.1357969 0.038635625 7.5292969 0.009765625 C 7.3776769 0.002765625 7.2119769 -0.006734375 7.0605469 0.009765625 z M 13.998047 2.0097656 C 13.998047 2.0552656 13.998937 2.0904656 13.998047 2.1347656 L 14.779297 3.5097656 C 14.790697 3.4689656 14.800147 3.4264656 14.810547 3.3847656 L 13.998047 2.0097656 z M 13.998047 2.3535156 C 13.992047 2.4595056 13.977797 2.5673756 13.966797 2.6660156 L 14.685547 3.8847656 C 14.708947 3.8222656 14.727047 3.7624356 14.748047 3.6972656 L 13.998047 2.3535156 z M 13.935547 2.8535156 C 13.921747 2.9434156 13.891147 3.0201056 13.873047 3.1035156 L 14.529297 4.2285156 C 14.558597 4.1676156 14.596347 4.1049256 14.623047 4.0410156 L 13.935547 2.8535156 z M 13.841797 3.2910156 C 13.818097 3.3799156 13.776347 3.4600056 13.748047 3.5410156 L 14.341797 4.5722656 C 14.381897 4.5071656 14.429797 4.4540656 14.466797 4.3847656 L 13.841797 3.2910156 z M 3 7.0097656 L 4.9980469 7.0097656 L 4.9980469 7.5097656 C 4.9980469 7.5097656 5.2338669 8.0175781 5.4980469 8.0175781 C 5.7622269 8.0175781 5.9980469 7.5097656 5.9980469 7.5097656 L 5.9980469 7.0097656 L 10 7.0097656 L 10 15.009766 L 3 15.009766 L 3 7.0097656 z "
       transform="translate(-259,446.99)"
       id="path23000" />
  </g>
</svg>
