<?xml version="1.0" encoding="UTF-8" standalone="no"?>
<svg
   xmlns:dc="http://purl.org/dc/elements/1.1/"
   xmlns:cc="http://creativecommons.org/ns#"
   xmlns:rdf="http://www.w3.org/1999/02/22-rdf-syntax-ns#"
   xmlns:svg="http://www.w3.org/2000/svg"
   xmlns="http://www.w3.org/2000/svg"
   xmlns:sodipodi="http://sodipodi.sourceforge.net/DTD/sodipodi-0.dtd"
   xmlns:inkscape="http://www.inkscape.org/namespaces/inkscape"
   width="22"
   height="22"
   version="1.1"
   id="svg7"
   sodipodi:docname="electron-mail-tray.svg"
   inkscape:version="0.92.3 (2405546, 2018-03-11)">
  <metadata
     id="metadata11">
    <rdf:RDF>
      <cc:Work
         rdf:about="">
        <dc:format>image/svg+xml</dc:format>
        <dc:type
           rdf:resource="http://purl.org/dc/dcmitype/StillImage" />
        <dc:title></dc:title>
      </cc:Work>
    </rdf:RDF>
  </metadata>
  <sodipodi:namedview
     pagecolor="#ffffff"
     bordercolor="#666666"
     borderopacity="1"
     objecttolerance="10"
     gridtolerance="10"
     guidetolerance="10"
     inkscape:pageopacity="0"
     inkscape:pageshadow="2"
     inkscape:window-width="1920"
     inkscape:window-height="1020"
     id="namedview9"
     showgrid="true"
     inkscape:zoom="34.86"
     inkscape:cx="11"
     inkscape:cy="11"
     inkscape:window-x="0"
     inkscape:window-y="30"
     inkscape:window-maximized="1"
     inkscape:current-layer="svg7">
    <inkscape:grid
       type="xygrid"
       id="grid818" />
  </sodipodi:namedview>
  <defs
     id="defs3">
    <style
       id="current-color-scheme"
       type="text/css">
   .ColorScheme-Text { color:#cecfce; } .ColorScheme-Highlight { color:#3daee9; }
  </style>
  </defs>
  <path
     style="fill:#cecfce;fill-opacity:1"
     d="M 11 3 C 7.686292 3 5 5.6862907 5 9 L 5 10 L 4.7148438 10 C 4.4119838 10 4.1311786 10.08222 3.8847656 10.216797 L 9.2324219 15.480469 C 10.107888 16.342255 10.812729 16.292954 11.425781 16.091797 C 12.038835 15.890638 12.464844 15.480469 12.464844 15.480469 L 17.912109 10.119141 C 17.717545 10.044001 17.507431 10 17.285156 10 L 17 10 L 17 9 C 17 5.6862907 14.313709 3 11 3 z M 11 4 C 13.791038 4 16 6.2089634 16 9 L 16 9.7636719 L 16 10 L 6 10 L 6 9.8476562 L 6 9 C 6 6.2089634 8.2089663 4 11 4 z M 18.775391 10.863281 L 14.330078 15.238281 L 17.994141 18.845703 C 18.58711 18.580747 19 17.997459 19 17.3125 L 19 11.6875 C 19 11.385857 18.91512 11.107818 18.775391 10.863281 z M 3.1230469 11.060547 C 3.0443469 11.254606 3 11.465146 3 11.6875 L 3 17.3125 C 3 17.967546 3.3802306 18.526753 3.9316406 18.806641 L 7.4628906 15.330078 L 3.1230469 11.060547 z M 13.521484 16.033203 L 13.273438 16.277344 C 13.273438 16.277344 12.689285 16.862177 11.787109 17.158203 C 10.884933 17.454229 9.5706202 17.404295 8.4257812 16.277344 L 8.2695312 16.126953 L 5.3496094 19 L 16.535156 19 L 13.521484 16.033203 z "
     id="path838" />
</svg>
