<?xml version="1.0" encoding="UTF-8" standalone="no"?>
<!-- Created with Inkscape (http://www.inkscape.org/) -->

<svg
   width="48"
   height="48"
   viewBox="0 0 12.7 12.7"
   version="1.1"
   id="svg5"
   inkscape:version="1.1.1 (3bf5ae0d25, 2021-09-20)"
   sodipodi:docname="folder-videos.svg"
   xmlns:inkscape="http://www.inkscape.org/namespaces/inkscape"
   xmlns:sodipodi="http://sodipodi.sourceforge.net/DTD/sodipodi-0.dtd"
   xmlns:xlink="http://www.w3.org/1999/xlink"
   xmlns="http://www.w3.org/2000/svg"
   xmlns:svg="http://www.w3.org/2000/svg">
  <sodipodi:namedview
     id="namedview7"
     pagecolor="#ffffff"
     bordercolor="#666666"
     borderopacity="1.0"
     inkscape:pageshadow="2"
     inkscape:pageopacity="0.0"
     inkscape:pagecheckerboard="false"
     inkscape:document-units="px"
     showgrid="false"
     units="px"
     height="48px"
     borderlayer="false"
     inkscape:zoom="8.3854167"
     inkscape:cx="10.375155"
     inkscape:cy="35.955279"
     inkscape:window-width="1920"
     inkscape:window-height="1007"
     inkscape:window-x="0"
     inkscape:window-y="0"
     inkscape:window-maximized="1"
     inkscape:current-layer="svg5" />
  <defs
     id="defs2">
    <linearGradient
       inkscape:collect="always"
       id="linearGradient6505">
      <stop
         style="stop-color:#1f64b3;stop-opacity:1"
         offset="0"
         id="stop6501" />
      <stop
         style="stop-color:#2271ca;stop-opacity:0.99912935"
         offset="1"
         id="stop6503" />
    </linearGradient>
    <linearGradient
       inkscape:collect="always"
       id="linearGradient6033">
      <stop
         style="stop-color:#83f3c8;stop-opacity:1"
         offset="0"
         id="stop6029" />
      <stop
         style="stop-color:#67b0e5;stop-opacity:1"
         offset="1"
         id="stop6031" />
    </linearGradient>
    <linearGradient
       inkscape:collect="always"
       xlink:href="#linearGradient6033"
       id="linearGradient6035"
       x1="8.7787342"
       y1="11.09021"
       x2="8.772356"
       y2="3.172493"
       gradientUnits="userSpaceOnUse" />
    <linearGradient
       inkscape:collect="always"
       xlink:href="#linearGradient6505"
       id="linearGradient6507"
       x1="3.2957382"
       y1="5.5614467"
       x2="3.2804484"
       y2="1.5721661"
       gradientUnits="userSpaceOnUse" />
  </defs>
  <path
     id="rect846-3"
     style="fill:url(#linearGradient6507);fill-opacity:1;stroke-width:0.295665"
     d="M 1.0583333,1.5875 H 5.2916666 L 6.35,2.9104166 l 5.291666,10e-8 V 5.5562499 H 1.0583333 Z"
     sodipodi:nodetypes="ccccccc" />
  <path
     id="rect846"
     style="fill:url(#linearGradient6035);fill-opacity:1;stroke-width:0.480068"
     d="M 1.0583338,4.4979162 H 5.2916669 L 6.3500004,3.175 h 5.2916656 v 7.9375 H 1.0583333 Z"
     sodipodi:nodetypes="ccccccc" />
  <path
     id="rect870"
     style="fill:#ffffff;fill-opacity:0.235294;stroke-width:0.118237"
     d="M 5.2916666,1.5875 6.35,2.9104166 l 5.291666,10e-8 V 3.175 H 6.3500002 Z"
     sodipodi:nodetypes="cccccc" />
  <path
     id="rect2728"
     style="fill:#ffffff;fill-opacity:0.235294;stroke-width:0.264583"
     d="m 1.0583333,4.4979167 4.2333336,-5e-7 L 6.3500004,3.175 5.5562502,4.7624995 1.0583333,4.7625 Z"
     sodipodi:nodetypes="cccccc" />
  <path
     id="rect3586"
     style="fill:#000000;fill-opacity:0.235294;stroke-width:0.264583"
     d="m 1.0583333,4.2333335 3.9687505,-4e-7 L 6.3500004,3.175 5.2916669,4.4979162 l -4.2333336,5e-7 z"
     sodipodi:nodetypes="cccccc" />
  <rect
     style="fill:#000000;fill-opacity:0.235294;stroke-width:0.147561"
     id="rect5839"
     width="10.583333"
     height="0.26458332"
     x="1.0583329"
     y="10.847917" />
  <path
     d="M 4.7625,5.8208333 V 8.9958332 H 7.937499 V 5.8208333 Z M 5.55625,6.0854167 H 7.143749 V 7.14375 H 5.55625 Z M 5.027083,6.35 H 5.291666 V 6.6145833 H 5.027083 Z m 2.38125,0 H 7.672916 V 6.6145833 H 7.408333 Z M 5.027083,7.2760417 H 5.291666 V 7.540625 H 5.027083 Z m 2.38125,0 H 7.672916 V 7.540625 H 7.408333 Z M 5.55625,7.6729167 H 7.143749 V 8.7312502 H 5.55625 Z M 5.027083,8.2020832 h 0.264583 v 0.264583 H 5.027083 Z m 2.38125,0 h 0.264583 v 0.264583 H 7.408333 Z"
     id="path23"
     style="fill:#3885dd;stroke-width:0.264583" />
</svg>
