<?xml version="1.0" encoding="UTF-8" standalone="no"?>
<svg
   width="48"
   height="48"
   version="1.1"
   id="svg22"
   sodipodi:docname="gnome-connection.svg"
   inkscape:version="1.1.1 (3bf5ae0d25, 2021-09-20, custom)"
   xmlns:inkscape="http://www.inkscape.org/namespaces/inkscape"
   xmlns:sodipodi="http://sodipodi.sourceforge.net/DTD/sodipodi-0.dtd"
   xmlns:xlink="http://www.w3.org/1999/xlink"
   xmlns="http://www.w3.org/2000/svg"
   xmlns:svg="http://www.w3.org/2000/svg">
  <sodipodi:namedview
     id="namedview24"
     pagecolor="#ffffff"
     bordercolor="#666666"
     borderopacity="1.0"
     inkscape:pageshadow="2"
     inkscape:pageopacity="0.0"
     inkscape:pagecheckerboard="0"
     showgrid="false"
     inkscape:zoom="16"
     inkscape:cx="25.0625"
     inkscape:cy="30"
     inkscape:window-width="1920"
     inkscape:window-height="1019"
     inkscape:window-x="0"
     inkscape:window-y="0"
     inkscape:window-maximized="1"
     inkscape:current-layer="svg22" />
  <defs
     id="defs12">
    <linearGradient
       inkscape:collect="always"
       id="linearGradient4926">
      <stop
         style="stop-color:#ab37c8;stop-opacity:1;"
         offset="0"
         id="stop4922" />
      <stop
         style="stop-color:#12d398;stop-opacity:1"
         offset="0.27016568"
         id="stop5252" />
      <stop
         style="stop-color:#e1e11a;stop-opacity:1"
         offset="0.49737406"
         id="stop5446" />
      <stop
         style="stop-color:#ea5b00;stop-opacity:1"
         offset="0.76278627"
         id="stop5122" />
      <stop
         style="stop-color:#5aa02c;stop-opacity:1"
         offset="1"
         id="stop4924" />
    </linearGradient>
    <linearGradient
       inkscape:collect="always"
       id="linearGradient13407">
      <stop
         style="stop-color:#000000;stop-opacity:1;"
         offset="0"
         id="stop13403" />
      <stop
         style="stop-color:#000000;stop-opacity:0;"
         offset="1"
         id="stop13405" />
    </linearGradient>
    <linearGradient
       inkscape:collect="always"
       id="linearGradient11813">
      <stop
         style="stop-color:#666666;stop-opacity:1;"
         offset="0"
         id="stop11809" />
      <stop
         style="stop-color:#4d4d4d;stop-opacity:1"
         offset="1"
         id="stop11811" />
    </linearGradient>
    <linearGradient
       inkscape:collect="always"
       id="linearGradient1437">
      <stop
         style="stop-color:#333333;stop-opacity:1;"
         offset="0"
         id="stop1433" />
      <stop
         style="stop-color:#4d4d4d;stop-opacity:1"
         offset="1"
         id="stop1435" />
    </linearGradient>
    <linearGradient
       id="a"
       y1="543.8"
       y2="503.8"
       gradientUnits="userSpaceOnUse"
       x2="0">
      <stop
         stop-color="#197cf1"
         id="stop2" />
      <stop
         offset="1"
         stop-color="#20bcfa"
         id="stop4" />
    </linearGradient>
    <linearGradient
       id="b"
       y1="503.8"
       y2="543.8"
       x2="0"
       gradientUnits="userSpaceOnUse"
       gradientTransform="translate(-384.57,-499.8)">
      <stop
         stop-color="#abf9c7"
         id="stop7" />
      <stop
         offset="1"
         stop-color="#54d883"
         id="stop9" />
    </linearGradient>
    <linearGradient
       inkscape:collect="always"
       xlink:href="#linearGradient1437"
       id="linearGradient1439"
       x1="32.209343"
       y1="25.875504"
       x2="25.207001"
       y2="4.039"
       gradientUnits="userSpaceOnUse" />
    <linearGradient
       inkscape:collect="always"
       xlink:href="#linearGradient11813"
       id="linearGradient11815"
       x1="38.036686"
       y1="7.1534653"
       x2="32.059582"
       y2="14.21291"
       gradientUnits="userSpaceOnUse"
       gradientTransform="matrix(0.99996824,0,0,1,-0.50799315,8.61e-4)" />
    <linearGradient
       inkscape:collect="always"
       xlink:href="#linearGradient13407"
       id="linearGradient13409"
       x1="34.416016"
       y1="16.515625"
       x2="40.218918"
       y2="22.224369"
       gradientUnits="userSpaceOnUse" />
    <linearGradient
       inkscape:collect="always"
       xlink:href="#linearGradient4926"
       id="linearGradient4928"
       x1="6.513916"
       y1="36.38208"
       x2="39.00008"
       y2="26"
       gradientUnits="userSpaceOnUse" />
    <linearGradient
       inkscape:collect="always"
       xlink:href="#linearGradient13407"
       id="linearGradient22272"
       x1="15.288574"
       y1="11.728027"
       x2="36.982395"
       y2="33.809536"
       gradientUnits="userSpaceOnUse" />
  </defs>
  <g
     transform="translate(-384.57,-499.8)"
     id="g20">
    <rect
       width="40"
       x="388.57001"
       y="503.79999"
       fill="url(#a)"
       rx="20"
       height="40"
       id="rect14" />
    <path
       id="path16"
       style="fill:url(#b)"
       d="M 24,4 C 22.548,4 21.136437,4.1601719 19.773438,4.4511719 L 18,8 15.320312,5.9902344 C 10.514313,8.3012344 6.7914063,12.462219 5.0664062,17.574219 L 9,16 12,18 13,15 26,8 25.207031,4.0390625 C 24.807031,4.0150625 24.406,4 24,4 Z M 38.810547,10.568359 38,13 l 1,1 -4,6 2,7 6.632812,0.830078 C 43.871812,26.591078 44,25.311 44,24 44,20.575 43.142672,17.358875 41.638672,14.546875 L 40,14 40.595703,12.806641 c -0.535,-0.794 -1.144156,-1.531282 -1.785156,-2.238282 z M 4.3964844,20.001953 c -0.221,1.096 -0.3458594,2.22686 -0.3808594,3.380859 0,0 0,0 -0.015625,0.617188 0.009,7.94502 4.7198731,15.131364 12.001953,18.308594 v -4.306641 l -6.001953,-15 -2,-3 z"
       transform="translate(384.57,499.8)"
       sodipodi:nodetypes="scccccccccsccccccscccccccccccc" />
    <path
       opacity="0.2"
       d="M 4.051,23.5 C 4.047,23.67 4,23.829 4,24 c 0,11.08 8.92,20 20,20 11.08,0 20,-8.92 20,-20 0,-0.171 -0.047,-0.33 -0.051,-0.5 -0.03,1.206 -0.121,2.398 -0.354,3.541 -0.266,1.304 -0.657,2.561 -1.162,3.758 -0.505,1.197 -1.122,2.335 -1.84,3.398 -0.717,1.064 -1.536,2.053 -2.439,2.957 -0.904,0.904 -1.893,1.722 -2.957,2.439 -1.064,0.717 -2.201,1.335 -3.398,1.84 -1.197,0.505 -2.454,0.897 -3.758,1.162 -1.304,0.266 -2.656,0.404 -4.04,0.404 -1.385,0 -2.737,-0.139 -4.04,-0.404 -1.304,-0.266 -2.561,-0.657 -3.758,-1.162 -0.599,-0.252 -1.183,-0.533 -1.75,-0.84 -0.567,-0.307 -1.117,-0.641 -1.648,-1 C 11.741,38.876 10.752,38.057 9.848,37.154 8.944,36.25 8.126,35.261 7.409,34.197 6.692,33.133 6.074,31.996 5.569,30.799 5.064,29.602 4.672,28.345 4.407,27.041 4.174,25.898 4.084,24.706 4.053,23.5"
       transform="translate(384.57,499.8)"
       id="path18" />
  </g>
  <path
     id="rect897"
     style="fill:url(#linearGradient1439);stroke-width:2.72019"
     d="m 24.000007,3.9999878 h 18.000001 c 1.108,0 2,0.8919999 2,1.9999998 V 23.999988 c 0,1.108 -0.892,2 -2,2 H 24.000007 c -1.107999,0 -1.999999,-0.892 -1.999999,-2 V 5.9999876 c 0,-1.1079999 0.892,-1.9999998 1.999999,-1.9999998 z" />
  <path
     id="rect12360"
     style="fill:url(#linearGradient13409);stroke-width:0.988135;fill-opacity:1;opacity:0.2"
     d="M 38.335938 13.365234 L 34.416016 16.515625 L 31.265625 20.4375 L 36.830078 26 L 42 26 C 43.108 26 44 25.108 44 24 L 44 19.029297 L 38.335938 13.365234 z " />
  <path
     id="rect955-2-6-5"
     style="fill:#ffffff;fill-opacity:1;stroke-width:1.37652"
     d="m 26.500136,8.600132 4.76581,11.83703 3.81265,-1.579308 2.878174,2.11509 0.457892,-0.457907 0.457891,-0.457906 -2.115023,-2.878266 1.579259,-3.81277 z" />
  <path
     id="rect955-2-6-7-61"
     style="fill:#ffffff;fill-opacity:1;stroke-width:1.37652"
     d="M 26.500585,8.600993 38.41511,20.515898 38.873,20.057994 36.757843,17.179592 38.075078,14.000861 h -1.738225 l 3.13e-4,-2 H 32.33698 l 3.13e-4,-2 H 27.337138 V 8.936408 Z"
     sodipodi:nodetypes="cccccccccccc" />
  <path
     id="rect955-2-6-7-6"
     style="fill:url(#linearGradient11815);fill-opacity:1;stroke-width:1.37652"
     d="m 32.33698,8.000861 v 2 h 1.999936 v -2 z m -4.999842,0.9355469 v 1.0644531 h 2.642494 z m 8.999715,1.0644531 v 2 h 1.999936 v -2 z M 32.33698,10.95008 v 1.050781 h 2.609292 z m 3.999873,1.611328 v 1.439453 h 1.738225 l 0.261711,-0.634766 z" />
  <path
     id="rect955-2-6-7"
     style="fill:#eff0f1;fill-opacity:1;stroke-width:1.37652"
     d="m 26.500001,8.6 11.91466,11.915039 -0.457891,0.457905 -2.87831,-2.115224 -3.812649,1.579309 z"
     sodipodi:nodetypes="cccccc" />
  <path
     id="rect897-9"
     style="fill:#000000;stroke-width:2.72019;opacity:0.2"
     d="M 22 23 L 22 24 C 22 25.108 22.892 26 24 26 L 42 26 C 43.108 26 44 25.108 44 24 L 44 23 C 44 24.108 43.108 25 42 25 L 24 25 C 22.892 25 22 24.108 22 23 z " />
  <path
     id="rect20334"
     style="fill:url(#linearGradient22272);fill-opacity:1;stroke-width:2.4853;opacity:0.2"
     d="m 7.7319999,31.268 3.8417111,-1.327897 5.51786,0.851813 7.705368,5.983191 7.245689,0.655839 3.712409,-1.442102 2.007764,-3.903259 L 39,24 44.00008,29 44,48 H 24.464001 Z"
     sodipodi:nodetypes="cccccccccccc" />
  <path
     id="rect986-3-3"
     style="fill:url(#linearGradient4928);fill-opacity:1;stroke-width:2.83833"
     d="M 17.241,28.5 15.90575,28.061287 15.5,27.999998 H 11 v 3 h 4.497 l 6.061,6.061002 0.66,0.384 4.882,1.5 0.4,0.055 5.99948,10e-7 1.06104,-0.439 4.00048,-4 0.43908,-1.061 V 24 l -3,-2e-6 L 36,33.304 l -2.6,2.695998 -5.9,1e-6 L 23.68,34.93 Z"
     sodipodi:nodetypes="ccccccccccccccccccccc" />
  <circle
     style="fill:#f9f9f9;fill-opacity:1;stroke-width:1.0171"
     id="path6556"
     cx="37.5"
     cy="28.5"
     r="1.5" />
  <ellipse
     style="fill:#ffffff;fill-opacity:1;stroke-width:1.66666"
     id="path7248-9"
     cx="-14.142136"
     cy="27.577164"
     rx="2.499999"
     ry="2.500001"
     transform="rotate(-45)" />
  <ellipse
     style="fill:#f9f9f9;fill-opacity:1"
     id="path8110"
     cx="27.50008"
     cy="37.5"
     rx="1.5"
     ry="1.500001" />
  <ellipse
     style="fill:#f9f9f9;fill-opacity:1"
     id="path8214"
     cx="37.50008"
     cy="33.5"
     rx="1.5"
     ry="1.500001" />
  <ellipse
     style="fill:#f9f9f9;fill-opacity:1"
     id="path8318"
     cx="33.5"
     cy="37.5"
     rx="1.5"
     ry="1.500001" />
  <path
     id="path8318-6-2"
     style="fill:#f9f9f9"
     d="m 36.012833,33.304211 a 1.5,1.500001 7.5 0 1 1.682957,-1.291378 1.5,1.500001 7.5 0 1 1.291377,1.682956 1.5,1.500001 7.5 0 1 -1.682957,1.291378 1.5,1.500001 7.5 0 1 -1.291377,-1.682956 z" />
  <circle
     style="fill:#f9f9f9;fill-opacity:1;stroke-width:1.23601"
     id="path11928"
     cx="-9.4618559"
     cy="41.449829"
     r="1.5"
     transform="rotate(-45)" />
  <circle
     style="fill:#f9f9f9;fill-opacity:1;stroke-width:0.999643"
     id="path12081"
     cx="-9.4618559"
     cy="36.449829"
     r="1.5"
     transform="rotate(-45)" />
  <path
     id="path17704"
     style="fill:#f9f9f9;stroke-width:1.55284"
     d="m 17,29.499998 a 1.5,1.5 0 0 1 -1.5,1.5 1.5,1.5 0 0 1 -1.5,-1.5 1.5,1.5 0 0 1 1.5,-1.5 1.5,1.5 0 0 1 1.5,1.5 z" />
  <path
     id="path17704-9"
     style="fill:#f9f9f9;stroke-width:1.55284"
     d="m 20.14366,33.52466 a 1.5,1.5 0 0 1 -2.12132,0 1.5,1.5 0 0 1 0,-2.12132 1.5,1.5 0 0 1 2.12132,0 1.5,1.5 0 0 1 0,2.12132 z" />
</svg>
