<?xml version="1.0" encoding="UTF-8" standalone="no"?>
<!-- Created with Inkscape (http://www.inkscape.org/) -->

<svg
   width="48"
   height="48"
   viewBox="0 0 12.7 12.7"
   version="1.1"
   id="svg1376"
   sodipodi:docname="gnome-characters.svg"
   inkscape:version="1.1.1 (3bf5ae0d25, 2021-09-20, custom)"
   xmlns:inkscape="http://www.inkscape.org/namespaces/inkscape"
   xmlns:sodipodi="http://sodipodi.sourceforge.net/DTD/sodipodi-0.dtd"
   xmlns:xlink="http://www.w3.org/1999/xlink"
   xmlns="http://www.w3.org/2000/svg"
   xmlns:svg="http://www.w3.org/2000/svg">
  <sodipodi:namedview
     id="namedview1378"
     pagecolor="#ffffff"
     bordercolor="#666666"
     borderopacity="1.0"
     inkscape:pageshadow="2"
     inkscape:pageopacity="0.0"
     inkscape:pagecheckerboard="true"
     inkscape:document-units="px"
     showgrid="false"
     units="px"
     height="48px"
     inkscape:zoom="12.123935"
     inkscape:cx="11.464925"
     inkscape:cy="31.796607"
     inkscape:window-width="1920"
     inkscape:window-height="1019"
     inkscape:window-x="0"
     inkscape:window-y="31"
     inkscape:window-maximized="1"
     inkscape:current-layer="svg1376" />
  <defs
     id="defs1373">
    <linearGradient
       inkscape:collect="always"
       id="linearGradient50891">
      <stop
         style="stop-color:#000000;stop-opacity:1;"
         offset="0"
         id="stop50887" />
      <stop
         style="stop-color:#000000;stop-opacity:0;"
         offset="1"
         id="stop50889" />
    </linearGradient>
    <linearGradient
       inkscape:collect="always"
       id="linearGradient1689">
      <stop
         style="stop-color:#fcfcfc;stop-opacity:1"
         offset="0"
         id="stop1685" />
      <stop
         style="stop-color:#f6f5f4;stop-opacity:1"
         offset="1"
         id="stop1687" />
    </linearGradient>
    <linearGradient
       inkscape:collect="always"
       xlink:href="#linearGradient1689"
       id="linearGradient1691"
       x1="5.2916665"
       y1="2.1166666"
       x2="11.641666"
       y2="12.170833"
       gradientUnits="userSpaceOnUse" />
    <linearGradient
       inkscape:collect="always"
       xlink:href="#linearGradient50891"
       id="linearGradient50893"
       x1="1.8520834"
       y1="1.8521363"
       x2="4.4979162"
       y2="5.0271363"
       gradientUnits="userSpaceOnUse" />
    <linearGradient
       inkscape:collect="always"
       xlink:href="#linearGradient50891"
       id="linearGradient52905"
       x1="7.717875"
       y1="2.0068543"
       x2="10.583334"
       y2="4.6526875"
       gradientUnits="userSpaceOnUse" />
    <linearGradient
       inkscape:collect="always"
       xlink:href="#linearGradient50891"
       id="linearGradient56315"
       x1="7.6729207"
       y1="8.6627798"
       x2="10.054172"
       y2="10.779447"
       gradientUnits="userSpaceOnUse" />
    <linearGradient
       inkscape:collect="always"
       xlink:href="#linearGradient50891"
       id="linearGradient56737"
       x1="33.841831"
       y1="28.268555"
       x2="42"
       y2="36.268555"
       gradientUnits="userSpaceOnUse" />
    <linearGradient
       inkscape:collect="always"
       xlink:href="#linearGradient50891"
       id="linearGradient58353"
       x1="1.9827731"
       y1="6.7902713"
       x2="5.0270834"
       y2="9.965271"
       gradientUnits="userSpaceOnUse" />
  </defs>
  <path
     id="rect1459"
     style="fill:url(#linearGradient1691);stroke-width:0.261145"
     d="m 1.0583333,1.0583337 h 5.0270834 l 1e-7,0.2645833 h 0.5291667 l -2e-7,-0.2645833 H 11.641666 V 11.641666 H 1.0583333 Z"
     sodipodi:nodetypes="ccccccccc" />
  <rect
     style="fill:#dfdfdf;fill-opacity:1;stroke-width:0.1867"
     id="rect2451"
     width="10.583333"
     height="0.52916664"
     x="1.0583333"
     y="11.1125" />
  <path
     id="rect2311"
     style="opacity:0.2;stroke-width:0.196444"
     d="m 1.0583333,11.1125 h 5.0270832 v 0.264583 H 6.6145832 V 11.1125 h 5.0270828 v 0.529166 H 1.0583333 Z"
     sodipodi:nodetypes="ccccccccc" />
  <rect
     style="fill:#dfdfdf;fill-opacity:1;stroke-width:0.0591626"
     id="rect2591"
     width="0.52916664"
     height="9.7895832"
     x="6.0854168"
     y="1.3229166" />
  <path
     id="rect2695"
     style="fill:#dfdfdf;stroke-width:0.0615143"
     d="M 1.0583333,6.0854165 H 6.0854165 V 5.8208332 H 6.6145832 V 6.0854165 H 11.641666 V 6.3499998 H 1.0583333 Z"
     sodipodi:nodetypes="ccccccccc" />
  <path
     id="rect3184"
     style="opacity:0.2;fill:#000000;fill-opacity:1;stroke-width:0.213519"
     d="M 1.0583333,5.8208332 V 6.0854165 H 6.0854165 V 5.8208332 Z m 5.5562499,0 V 6.0854165 H 11.641666 V 5.8208332 Z"
     sodipodi:nodetypes="cccccccccc" />
  <path
     id="rect49980"
     style="opacity:0.2;fill:url(#linearGradient50893);fill-opacity:1;stroke-width:0.264583"
     d="m 4.5692071,2.1166677 1.5162094,1.516326 V 5.8208332 L 3.9351482,5.8209381 2.3812505,4.2670403 2.7801155,4.12048 2.9444396,3.4675317 3.0441157,2.27817 Z"
     sodipodi:nodetypes="ccccccccc" />
  <path
     d="M 3.1356254,3.3864882 C 3.1463639,3.2737346 3.1517331,3.160981 3.1544177,3.0589658 H 4.2309463 V 3.3864882 Z M 4.2309463,2.4280825 V 2.7556049 H 3.1544177 V 2.4280825 Z M 4.5692071,2.1166677 H 2.8242107 v 0.8832367 c 0,0.4080607 -0.037584,0.9208212 -0.4429606,1.2671359 0.0698,0.045638 0.1986611,0.1637612 0.2469841,0.2308764 0.2496687,-0.2093996 0.3838992,-0.502022 0.453699,-0.8026983 h 1.1490131 v 0.3892684 c 0,0.056377 -0.021477,0.077854 -0.085908,0.077854 -0.059062,0 -0.2845687,0.00268 -0.4724914,-0.00805 0.051008,0.088592 0.1154382,0.2416148 0.1342305,0.3355762 0.2765148,0 0.4644375,-0.00537 0.5932988,-0.061746 C 4.5235683,4.374429 4.5692066,4.283152 4.5692066,4.0898601 Z"
     style="font-weight:bold;font-size:2.68461px;line-height:1.25;-inkscape-font-specification:'sans-serif Bold';fill:#3a9eec;fill-opacity:1;stroke-width:0.201345"
     id="path28626" />
  <path
     id="path51566"
     style="opacity:0.2;fill:url(#linearGradient52905);fill-opacity:1;stroke-width:0.499999"
     d="M 8.2470418,4.1883748 9.8795003,5.8208333 H 11.641667 V 3.7940837 L 10.273791,2.4262085 10.179334,3.231249 9.9070431,3.9047945 8.9979193,4.2139312 Z"
     sodipodi:nodetypes="ccccccccc" />
  <path
     id="rect4152"
     style="fill:#fdd583;stroke-width:0.5"
     d="m 8.9958256,2.1166667 h 0.5291821 c 0.5863123,0 1.0583253,0.472015 1.0583253,1.0583251 v 0.264605 c 0,0.5863151 -0.472013,1.0583301 -1.0583253,1.0583301 H 8.9958256 C 8.4095132,4.4979269 7.9375,4.0259119 7.9375,3.4395968 v -0.264605 c 0,-0.5863101 0.4720132,-1.0583251 1.0583256,-1.0583251 z" />
  <circle
     cx="8.6651039"
     cy="2.9765625"
     style="fill:#8f5315;stroke-width:0.5"
     id="path4184"
     r="0.19843751" />
  <circle
     cx="9.8557291"
     cy="2.9765625"
     style="fill:#8f5315;stroke-width:0.5"
     r="0.19843751"
     id="circle4186" />
  <path
     style="fill:#8f5315;stroke-width:0.132292"
     id="path4229"
     d="M 8.6881004,3.7041602 A 0.66145841,0.79375007 0 0 0 9.2604167,4.1010353 0.66145841,0.79375007 0 0 0 9.8322168,3.7041602 H 9.7518598 A 0.66145841,0.79375007 0 0 1 9.2604167,3.9687436 0.66145841,0.79375007 0 0 1 8.7687157,3.7041602 Z" />
  <path
     id="path53465"
     style="font-weight:bold;font-size:3.175px;-inkscape-font-specification:'Noto Sans Arabic Bold';opacity:0.2;fill:url(#linearGradient56737);fill-opacity:1;stroke-width:0.204154"
     d="m 37.398438,29.166016 0.0095,0.226854 -0.166015,0.416015 -0.408204,0.175782 -0.249703,0.0056 0.320313,0.320313 -0.123047,0.201172 -0.123047,-0.123047 0.01512,0.381326 -0.188278,0.360892 -0.319701,0.104825 -0.323545,-0.02282 1.574219,1.574218 0.759765,0.121094 c -0.02994,0.174651 -0.0599,0.358042 -0.08984,0.548828 l 1.113281,1.113281 h 0.002 c 0.100309,-0.02161 0.187644,-0.05445 0.261719,-0.09766 0.148157,-0.08642 0.222656,-0.26191 0.222656,-0.527344 0,-0.234568 -0.05328,-0.537832 -0.158203,-0.908203 -0.10492,-0.370371 -0.227144,-0.758608 -0.369141,-1.166015 l 0.728516,-0.216797 z m 3.378903,3.378906 c 0.05433,0.223209 0.09799,0.442142 0.130859,0.658203 0.0494,0.277776 0.07422,0.522545 0.07422,0.732422 0,0.654321 -0.189852,1.145496 -0.566406,1.472656 -0.06844,0.05946 -0.139588,0.113454 -0.216797,0.162109 L 44,39.371094 v -3.603516 z"
     sodipodi:nodetypes="cccccccccccccccccssscccccsscccc"
     transform="scale(0.26458333)" />
  <path
     id="path55462"
     style="font-weight:bold;font-size:3.175px;-inkscape-font-specification:'Noto Sans Arabic Bold';opacity:0.2;fill:url(#linearGradient56315);fill-opacity:1;stroke-width:0.0540157"
     d="m 10.705811,8.3297247 -0.152445,0.045475 -0.01034,0.0031 0.24598,0.2325441 0.852661,0.8526611 V 9.2655848 Z M 9.1798057,8.6454676 8.8366742,8.7338342 c 0.03756,0.1143201 0.067574,0.2189467 0.090434,0.313676 0.0245,0.09473 0.03669,0.1754026 0.03669,0.2423626 0,0.07677 -0.014535,0.1471398 -0.043925,0.2108398 -0.0294,0.06533 -0.081021,0.1169525 -0.1545127,0.1545124 -0.002,0.00103 -0.00523,0.00107 -0.00723,0.00207 L 8.1018352,9.0010015 7.8000449,8.8955817 c -0.05389,0.1192199 -0.088573,0.2219481 -0.1049033,0.3085081 -0.01475,0.08493 -0.022221,0.1562537 -0.022221,0.2134238 0,0.13882 0.031901,0.2556462 0.095601,0.3503663 0.0196,0.02842 0.041469,0.054398 0.065629,0.078548 L 9.1002238,11.112501 H 11.641671 V 10.416936 L 10.636048,9.4113123 10.371981,9.146729 h -5.16e-4 L 10.076909,8.8521734 c 0.0079,-0.050479 0.01587,-0.099001 0.02377,-0.1452108 L 9.8996583,8.6749232 9.7771851,8.6552863 c -0.01471,0.1175996 -0.031133,0.2100255 -0.049093,0.2769854 -0.01797,0.06696 -0.038108,0.1166749 -0.060978,0.1493452 -0.0075,0.01097 -0.015651,0.019071 -0.023771,0.027388 z" />
  <path
     d="m 8.4495178,10.054167 c -0.1567901,0 -0.2931649,-0.0245 -0.4091242,-0.073495 C 7.9244342,9.933308 7.8337899,9.8622623 7.7684607,9.767535 7.7047647,9.6728077 7.6729167,9.5560317 7.6729167,9.4172071 c 0,-0.057163 0.00735,-0.1282089 0.022049,-0.2131366 0.016332,-0.086561 0.051446,-0.1894547 0.1053434,-0.3086805 l 0.301331,0.1053433 c -0.027765,0.076762 -0.048997,0.1429077 -0.063696,0.1984375 -0.014699,0.053897 -0.022049,0.1069767 -0.022049,0.15924 0,0.063696 0.014699,0.1224923 0.044097,0.1763889 0.029398,0.053897 0.076762,0.096361 0.1420911,0.127392 0.065329,0.032665 0.1510739,0.048997 0.2572338,0.048997 0.1306584,0 0.2327353,-0.018782 0.3062307,-0.056347 C 8.8390431,9.6172777 8.8904899,9.565831 8.919888,9.5005015 8.949286,9.4368055 8.963985,9.3665766 8.963985,9.2898147 8.963985,9.2228522 8.9517357,9.1420073 8.927237,9.04728 8.9043717,8.9525523 8.874157,8.8480253 8.836593,8.7336992 l 0.3429781,-0.088194 c 0.022865,0.094727 0.040831,0.1682227 0.053897,0.2204861 0.014701,0.052263 0.026134,0.091461 0.034298,0.1175925 0.024501,0.073495 0.057165,0.1216757 0.097994,0.1445409 0.040833,0.021232 0.089014,0.031031 0.1445409,0.029398 0.031029,0 0.05961,-0.0049 0.085745,-0.014699 0.026132,-0.0098 0.049813,-0.030215 0.071042,-0.061246 0.022865,-0.032665 0.043282,-0.082478 0.06125,-0.1494405 0.017963,-0.066962 0.034295,-0.15924 0.048997,-0.2768326 l 0.323378,0.051447 c -0.0098,0.057163 -0.0196,0.1175929 -0.0294,0.1812886 -0.0098,0.063696 -0.0147,0.1126929 -0.0147,0.1469907 0,0.031031 0.0147,0.058796 0.0441,0.083295 0.03103,0.024499 0.09146,0.036748 0.181289,0.036748 0.06696,0 0.120042,-0.011433 0.15924,-0.034298 0.0392,-0.022865 0.0588,-0.069412 0.0588,-0.1396412 0,-0.062063 -0.01388,-0.1420909 -0.04164,-0.2400848 -0.02776,-0.097994 -0.06042,-0.2008878 -0.09799,-0.308681 L 10.70584,8.3294754 c 0.02613,0.070229 0.049,0.1453575 0.0686,0.2253858 0.02123,0.078395 0.03757,0.1551569 0.049,0.2302855 0.01307,0.073495 0.0196,0.1380079 0.0196,0.1935377 0,0.1731225 -0.04981,0.3029643 -0.14944,0.3895255 -0.09963,0.086561 -0.234369,0.1298418 -0.404225,0.1298418 -0.09146,0 -0.171489,-0.014699 -0.240085,-0.044097 -0.066962,-0.031031 -0.1151426,-0.074312 -0.1445407,-0.1298418 -0.042464,0.073495 -0.095544,0.120859 -0.1592396,0.142091 -0.062063,0.021232 -0.124942,0.031848 -0.1886381,0.031848 -0.052263,0 -0.1020769,-0.00653 -0.1494406,-0.019599 C 9.3600517,9.4653869 9.3192142,9.4441549 9.2849187,9.4147569 9.2636894,9.6172774 9.1787615,9.7740675 9.0301351,9.8851272 8.8831444,9.9978204 8.6896066,10.054167 8.4495217,10.054167 Z M 9.7871332,7.981597 C 9.7462999,7.981597 9.7103688,7.9660813 9.67934,7.93505 9.649942,7.9040187 9.635243,7.867271 9.635243,7.8248069 c 0,-0.042464 0.014699,-0.078395 0.044097,-0.1077932 0.031029,-0.029398 0.06696,-0.044097 0.1077932,-0.044097 0.042464,0 0.078395,0.014699 0.1077928,0.044097 0.029398,0.029398 0.044097,0.065329 0.044097,0.1077932 0,0.042464 -0.014699,0.079212 -0.044097,0.1102431 C 9.865529,7.966081 9.829598,7.981597 9.7871332,7.981597 Z M 9.5911455,8.3049766 c -0.040833,0 -0.076764,-0.015516 -0.1077932,-0.046547 -0.029398,-0.031031 -0.044097,-0.067779 -0.044097,-0.110243 0,-0.042464 0.014699,-0.078395 0.044097,-0.1077932 0.031034,-0.029398 0.066965,-0.044097 0.1077932,-0.044097 0.042464,0 0.078395,0.014699 0.1077933,0.044097 0.029398,0.029398 0.044097,0.065329 0.044097,0.1077932 0,0.042464 -0.014699,0.079212 -0.044097,0.110243 -0.029398,0.031031 -0.065329,0.046547 -0.1077933,0.046547 z m 0.3797257,0 c -0.040833,0 -0.076764,-0.015516 -0.1077928,-0.046547 -0.029398,-0.031031 -0.044097,-0.067779 -0.044097,-0.110243 0,-0.042464 0.014699,-0.078395 0.044097,-0.1077932 0.031033,-0.029398 0.066964,-0.044097 0.1077928,-0.044097 0.042464,0 0.078395,0.014699 0.1077928,0.044097 0.0294,0.029398 0.0441,0.065329 0.0441,0.1077932 0,0.042464 -0.0147,0.079212 -0.0441,0.110243 -0.0294,0.031031 -0.06533,0.046547 -0.1077928,0.046547 z"
     style="font-weight:bold;font-size:3.175px;-inkscape-font-specification:'Noto Sans Arabic Bold';fill:#54a026;fill-opacity:1;stroke-width:0.204154"
     id="path45942"
     sodipodi:nodetypes="sccsccccsscsscscccccccsccccsscssssccccssscccscccssscscsssssscscsssssscscsssss" />
  <path
     id="rect57559"
     style="opacity:0.2;stroke-width:0.494194;fill-opacity:1;fill:url(#linearGradient58353)"
     d="m 2.5119398,9.1571465 0.9834887,-0.37004 0.3222182,-1.0273979 2.2677701,2.2677434 0,1.085048 H 4.4592875 Z"
     sodipodi:nodetypes="ccccccc" />
  <path
     id="path47195"
     style="fill:#9126a0;fill-opacity:1;stroke-width:0.215205"
     d="m 3.5615751,7.6729535 c -0.214454,0.00543 -0.3865398,0.1811118 -0.3865398,0.396875 0,0.00342 -8.63e-5,0.00719 0,0.010853 7.58e-5,0.0028 3.836e-4,0.00549 5.159e-4,0.00827 3.6e-5,8.996e-4 -4.07e-5,0.00167 0,0.00259 0.00764,0.1389819 0.088122,0.2571351 0.2015381,0.3240114 0.053292,0.031417 0.086499,0.2182522 0.1183392,0.3715536 C 3.3421278,8.755257 3.1552931,8.7220502 3.1238756,8.6687584 3.0569993,8.5553423 2.9388463,8.4748603 2.7998644,8.4672202 c -9.208e-4,-4.07e-5 -0.00169,3.6e-5 -0.00258,0 -0.00278,-1.323e-4 -0.00547,-4.498e-4 -0.00827,-5.292e-4 -0.00366,-7.38e-5 -0.00743,1.25e-5 -0.010851,1.25e-5 -0.2157632,0 -0.391445,0.1720858 -0.396875,0.3865398 -8.64e-5,0.00341 0,0.00692 0,0.010335 0,0.030824 0.0037,0.060584 0.010335,0.0894 0.040632,0.1760198 0.1981748,0.3074752 0.3865396,0.3074752 0.0036,0 0.00727,9.71e-5 0.010852,0 0.00279,-7.94e-5 0.00535,-3.969e-4 0.00827,-5.292e-4 8.705e-4,-4.23e-5 0.00171,4.79e-5 0.00258,0 C 2.9388475,9.2522843 3.0570009,9.1718023 3.1238769,9.0583861 3.1552999,9.0050951 3.3421279,8.9718871 3.4954305,8.940047 3.4635641,9.0934244 3.43043,9.2801557 3.3770914,9.3116006 3.2636753,9.3784769 3.1831933,9.4966301 3.1755533,9.635612 c -4.07e-5,9.26e-4 3.6e-5,0.00169 0,0.00259 -1.323e-4,0.00278 -4.419e-4,0.00547 -5.159e-4,0.00827 -8.64e-5,0.00366 0,0.00743 0,0.010853 0,0.2157632 0.1720858,0.391445 0.3865398,0.396875 0.00341,8.7e-5 0.00692,0 0.010335,0 0.030824,0 0.060584,-0.0037 0.0894,-0.01033 0.1760178,-0.04063 0.3074732,-0.1981734 0.3074732,-0.3865382 0,-0.0036 9.71e-5,-0.00727 0,-0.010853 -7.94e-5,-0.00279 -3.969e-4,-0.00535 -5.292e-4,-0.00827 -4.23e-5,-8.731e-4 4.79e-5,-0.00172 0,-0.00259 C 3.9606149,9.4966322 3.8801337,9.3784788 3.7667179,9.3116027 3.7133798,9.280152 3.6802452,9.0934276 3.6483788,8.9400491 c 0.1533784,0.031866 0.3401028,0.065001 0.3715536,0.1183392 0.066876,0.1134157 0.1850295,0.1938972 0.3240114,0.2015381 8.731e-4,4.79e-5 0.00172,-4.23e-5 0.00259,0 0.00292,1.154e-4 0.00548,4.498e-4 0.00827,5.292e-4 0.00358,9.71e-5 0.00725,0 0.010853,0 0.1883648,0 0.345907,-0.1314553 0.3865399,-0.3074747 0.00664,-0.028818 0.010337,-0.058578 0.010337,-0.089402 0,-0.00342 8.66e-5,-0.00693 0,-0.010335 -0.00543,-0.2144546 -0.1811102,-0.3865404 -0.3968735,-0.3865404 -0.00342,0 -0.00719,-8.63e-5 -0.010853,0 -0.0028,7.56e-5 -0.00549,3.968e-4 -0.00827,5.291e-4 -8.996e-4,3.6e-5 -0.00167,-4.07e-5 -0.00259,0 -0.1389832,0.00764 -0.2571364,0.088122 -0.3240127,0.2015382 -0.031445,0.053339 -0.2181762,0.086473 -0.3715536,0.1183391 0.031841,-0.1533025 0.065048,-0.3401303 0.1183392,-0.3715536 0.1134157,-0.066876 0.1938972,-0.1850294 0.2015381,-0.3240114 4.79e-5,-8.731e-4 -4.23e-5,-0.00172 0,-0.00259 1.154e-4,-0.00292 4.498e-4,-0.00548 5.292e-4,-0.00827 9.71e-5,-0.00358 0,-0.00725 0,-0.010853 0,-0.1883648 -0.1314553,-0.345907 -0.3074747,-0.3865398 -0.028818,-0.00664 -0.058579,-0.010337 -0.089402,-0.010337 -0.00342,0 -0.00693,-8.65e-5 -0.010335,0 z" />
</svg>
