<?xml version="1.0" encoding="UTF-8" standalone="no"?>
<!-- Created with Inkscape (http://www.inkscape.org/) -->

<svg
   width="48"
   height="48"
   viewBox="0 0 12.7 12.7"
   version="1.1"
   id="svg4522"
   inkscape:version="1.1.1 (3bf5ae0d25, 2021-09-20, custom)"
   sodipodi:docname="gnome-control-center.svg"
   xmlns:inkscape="http://www.inkscape.org/namespaces/inkscape"
   xmlns:sodipodi="http://sodipodi.sourceforge.net/DTD/sodipodi-0.dtd"
   xmlns:xlink="http://www.w3.org/1999/xlink"
   xmlns="http://www.w3.org/2000/svg"
   xmlns:svg="http://www.w3.org/2000/svg"
   xmlns:rdf="http://www.w3.org/1999/02/22-rdf-syntax-ns#"
   xmlns:cc="http://creativecommons.org/ns#"
   xmlns:dc="http://purl.org/dc/elements/1.1/">
  <defs
     id="defs4516">
    <linearGradient
       inkscape:collect="always"
       id="linearGradient5708">
      <stop
         style="stop-color:#ececec;stop-opacity:1"
         offset="0"
         id="stop5704" />
      <stop
         style="stop-color:#faf8f8;stop-opacity:1"
         offset="1"
         id="stop5706" />
    </linearGradient>
    <linearGradient
       inkscape:collect="always"
       id="linearGradient3981">
      <stop
         style="stop-color:#000000;stop-opacity:1;"
         offset="0"
         id="stop3977" />
      <stop
         style="stop-color:#000000;stop-opacity:0;"
         offset="1"
         id="stop3979" />
    </linearGradient>
    <linearGradient
       inkscape:collect="always"
       xlink:href="#linearGradient5708"
       id="linearGradient3463"
       x1="21.945312"
       y1="43.853516"
       x2="21.947266"
       y2="4.1464844"
       gradientUnits="userSpaceOnUse" />
    <linearGradient
       inkscape:collect="always"
       xlink:href="#linearGradient3981"
       id="linearGradient3983"
       x1="12"
       y1="10"
       x2="12"
       y2="38"
       gradientUnits="userSpaceOnUse" />
    <linearGradient
       inkscape:collect="always"
       xlink:href="#linearGradient5708"
       id="linearGradient5480"
       x1="41"
       y1="42"
       x2="41"
       y2="-3.023622e-07"
       gradientUnits="userSpaceOnUse" />
  </defs>
  <sodipodi:namedview
     id="base"
     pagecolor="#ffffff"
     bordercolor="#666666"
     borderopacity="1.0"
     inkscape:pageopacity="0.0"
     inkscape:pageshadow="2"
     inkscape:zoom="10.2875"
     inkscape:cx="10.206561"
     inkscape:cy="31.737545"
     inkscape:document-units="px"
     inkscape:current-layer="layer1"
     showgrid="false"
     units="px"
     inkscape:window-width="1920"
     inkscape:window-height="1019"
     inkscape:window-x="0"
     inkscape:window-y="31"
     inkscape:window-maximized="1"
     inkscape:pagecheckerboard="0"
     showguides="false" />
  <metadata
     id="metadata4519">
    <rdf:RDF>
      <cc:Work
         rdf:about="">
        <dc:format>image/svg+xml</dc:format>
        <dc:type
           rdf:resource="http://purl.org/dc/dcmitype/StillImage" />
      </cc:Work>
    </rdf:RDF>
  </metadata>
  <g
     inkscape:label="Layer 1"
     inkscape:groupmode="layer"
     id="layer1"
     transform="translate(0,-284.29999)">
    <path
       id="path1459"
       style="opacity:0.999706;fill:url(#linearGradient3463);fill-opacity:1;stroke-width:0.97053"
       d="M 24,4 A 19.999999,19.999999 0 0 0 21.947266,4.1464844 L 21.480469,7.1875 A 17,17 0 0 0 17.779297,8.1796875 L 15.832031,5.7539062 a 19.999999,19.999999 0 0 0 -3.498047,2.0605469 l 1.113282,2.8593749 a 17,17 0 0 0 -2.730469,2.716797 L 7.8574219,12.277344 a 19.999999,19.999999 0 0 0 -2.125,3.615234 l 0.060547,-0.07617 2.4023437,1.927735 A 17,17 0 0 0 7.1894531,21.472656 L 4.15625,21.939453 4.1503906,21.896484 A 19.999999,19.999999 0 0 0 4,24 19.999999,19.999999 0 0 0 4.1464844,26.052734 L 7.1875,26.521484 a 17,17 0 0 0 0.9941406,3.701172 l -2.4277344,1.947266 a 19.999999,19.999999 0 0 0 2.0859376,3.53125 l 2.8613282,-1.113281 a 17,17 0 0 0 2.708984,2.710937 l -1.111328,2.859375 a 19.999999,19.999999 0 0 0 3.535156,2.087891 l 1.945313,-2.425782 a 17,17 0 0 0 3.699219,0.992188 l 0.466796,3.041016 A 19.999999,19.999999 0 0 0 24,44 19.999999,19.999999 0 0 0 26.054688,43.853516 L 26.519531,40.8125 a 17,17 0 0 0 3.701172,-0.992188 l 1.945313,2.425782 a 19.999999,19.999999 0 0 0 3.574218,-2.115235 l -1.113281,-2.859375 -0.002,-0.002 a 17,17 0 0 0 2.691406,-2.705078 l 0.0059,0.0059 2.851562,1.111329 a 19.999999,19.999999 0 0 0 2.083984,-3.546875 l -2.412109,-1.935547 -0.01563,-0.0039 a 17,17 0 0 0 0.982422,-3.6875 l 0.02344,0.0059 3.017578,-0.462891 A 19.999999,19.999999 0 0 0 44,24 19.999999,19.999999 0 0 0 43.890625,21.925781 l -0.0039,0.02148 -3.076172,-0.470704 A 17,17 0 0 0 39.818359,17.777344 L 42.25,15.830078 A 19.999999,19.999999 0 0 0 40.201172,12.28125 l -2.900391,1.130859 a 17,17 0 0 0 -2.710937,-2.710937 l 1.128906,-2.8964845 0.01953,0.00781 A 19.999999,19.999999 0 0 0 32.15039,5.742185 l 0.01758,0.013672 -1.945313,2.4257812 A 17,17 0 0 0 26.519531,7.1894531 l -0.472656,-3.078125 0.01758,-0.00195 A 19.999999,19.999999 0 0 0 24,4 Z m 0,11 a 8.9999996,8.9999996 0 0 1 9,9 8.9999996,8.9999996 0 0 1 -9,9 8.9999996,8.9999996 0 0 1 -9,-9 8.9999996,8.9999996 0 0 1 9,-9 z"
       transform="matrix(0.26458333,0,0,0.26458333,0,284.29999)" />
    <path
       id="path1459-1"
       style="opacity:0.2;fill:#000000;stroke-width:0.97053"
       d="m 35.412109,7.5917969 -0.822265,2.109375 c 0.09795,0.082883 0.194964,0.1668732 0.291015,0.2519531 L 35.71875,7.8046875 35.738281,7.8125 C 35.630284,7.7378636 35.521555,7.6642923 35.412109,7.5917969 Z m -22.771484,0.011719 c -0.102866,0.06936 -0.205084,0.1396754 -0.306641,0.2109375 l 0.820313,2.109375 c 0.09671,-0.084437 0.194372,-0.1677756 0.292969,-0.25 z M 6.1328125,15.087891 C 5.993338,15.353087 5.8598407,15.621384 5.7324219,15.892578 l 0.060547,-0.07617 2.1269531,1.707032 C 8.00539,17.261481 8.0972136,17.001638 8.1953126,16.744143 Z m 35.7656255,0.02734 -2.080079,1.666016 c 0.09747,0.258159 0.188646,0.518653 0.273438,0.78125 L 42.25,15.833984 c -0.112383,-0.241904 -0.229595,-0.481535 -0.351562,-0.71875 z m 2.083984,8.253907 c -0.01919,0.563415 -0.0622,1.125766 -0.128906,1.685547 l -2.927735,0.449218 a 17,17 0 0 1 -0.113281,1.00586 l 0.02344,0.0078 3.017578,-0.46289 C 43.93747,25.37406 43.986366,24.689556 44,24.003906 43.9975,23.792238 43.9916,23.580623 43.98242,23.369141 Z m -39.9589845,0.125 C 4.0134905,23.662656 4.0056773,23.831287 4,24 c 0.013569,0.686305 0.062462,1.371457 0.1464844,2.052734 L 7.1875,26.521484 A 17,17 0 0 1 7.0742188,25.503906 L 4.1464844,25.052734 C 4.0851703,24.535005 4.0441233,24.015077 4.0234375,23.494141 Z m 3.1679687,3.048828 c 0.05164,0.331606 0.1163935,0.660591 0.1875,0.988281 a 17,17 0 0 1 -0.1875,-0.988281 z M 40.78125,26.6875 A 17,17 0 0 1 40.626953,27.5 c 0.05762,-0.269692 0.10984,-0.540149 0.154297,-0.8125 z m -0.257812,1.287109 a 17,17 0 0 1 -0.203126,0.753907 c 0.0731,-0.249508 0.141566,-0.501376 0.203126,-0.753907 z m 1.378906,3.876953 c -0.49674,0.990255 -1.074901,1.937525 -1.728516,2.832032 l -2.287109,-0.890625 a 17,17 0 0 1 -0.570313,0.771484 l 0.0059,0.0078 2.851562,1.111328 c 0.814731,-1.107516 1.513086,-2.296094 2.083984,-3.546875 z m -35.7910159,0.03125 -0.3574219,0.28711 c 0.5724665,1.245454 1.2714533,2.428758 2.0859376,3.53125 L 10.701172,34.587891 A 17,17 0 0 1 10.126953,33.810547 L 7.8398438,34.701172 C 7.1868759,33.811034 6.6087291,32.86836 6.1113281,31.882812 Z m 4.6914059,2.826172 c 0.189033,0.231738 0.385124,0.456479 0.585938,0.677735 a 17,17 0 0 1 -0.585938,-0.677735 z m 26.328125,0.07617 a 17,17 0 0 1 -0.503906,0.583985 c 0.172495,-0.190667 0.340126,-0.38555 0.503906,-0.583985 z m -0.849609,0.957032 a 17,17 0 0 1 -0.410156,0.410156 c 0.13866,-0.134813 0.276186,-0.270701 0.410156,-0.410156 z m -24.546875,0.01562 c 0.118123,0.122592 0.239571,0.242336 0.361328,0.361329 a 17,17 0 0 1 -0.361328,-0.361329 z m 23.699219,3.583985 c -1.026596,0.736555 -2.120679,1.37417 -3.267578,1.904297 l -1.351563,-1.685547 a 17,17 0 0 1 -0.59375,0.259765 l 1.945313,2.425782 c 1.261585,-0.579128 2.459448,-1.288028 3.574218,-2.115235 z m -22.828125,0.02734 -0.306641,0.789062 c 1.103641,0.815393 2.288267,1.515042 3.535156,2.087891 l 1.945313,-2.425782 a 17,17 0 0 1 -0.59375,-0.259765 l -1.351563,1.685547 c -1.132356,-0.523589 -2.213238,-1.151978 -3.228515,-1.876953 z m 5.216797,0.466797 c 0.346015,0.135099 0.697114,0.255168 1.050781,0.367187 a 17,17 0 0 1 -1.050781,-0.367187 z m 12.355468,0 a 17,17 0 0 1 -1.050781,0.367187 c 0.353855,-0.112035 0.704584,-0.232048 1.050781,-0.367187 z m -10.998046,0.458984 c 0.274876,0.08141 0.551438,0.155252 0.830078,0.222656 a 17,17 0 0 1 -0.830078,-0.222656 z m 9.640624,0 a 17,17 0 0 1 -0.824218,0.222656 c 0.276643,-0.06699 0.551285,-0.141859 0.824218,-0.222656 z m -8.464843,0.304687 c 0.362854,0.07977 0.727927,0.151144 1.095703,0.207032 a 17,17 0 0 1 -1.095703,-0.207032 z m 7.28125,0.002 a 17,17 0 0 1 -1.048828,0.199219 c 0.35201,-0.0543 0.701343,-0.123021 1.048828,-0.199219 z m -6.158203,0.210938 0.466796,3.041016 C 22.627237,43.937606 23.313042,43.986497 24,44 c 0.686958,-0.0135 1.372763,-0.0624 2.054688,-0.146484 L 26.519531,40.8125 a 17,17 0 0 1 -0.15625,0.01758 l -0.308593,2.023438 C 25.372763,42.937605 24.686958,42.986498 24,43 23.313042,42.9865 22.627237,42.9376 21.945312,42.853516 l -0.310546,-2.023438 a 17,17 0 0 1 -0.15625,-0.01758 z"
       transform="matrix(0.26458333,0,0,0.26458333,0,284.29999)" />
    <path
       id="path5251"
       style="opacity:1;fill:url(#linearGradient5480);fill-opacity:1;stroke-width:1.01559"
       d="M 24,7 A 17,17 0 0 0 7,24 17,17 0 0 0 24,41 17,17 0 0 0 41,24 17,17 0 0 0 24,7 Z m 0,8 a 8.9999996,8.9999996 0 0 1 9,9 8.9999996,8.9999996 0 0 1 -9,9 8.9999996,8.9999996 0 0 1 -9,-9 8.9999996,8.9999996 0 0 1 9,-9 z"
       transform="matrix(0.26458333,0,0,0.26458333,0,284.29999)" />
    <path
       id="path2638"
       style="opacity:0.2;fill:url(#linearGradient3983);fill-opacity:1;stroke-width:1.10664"
       d="M 24,12 A 12,12 0 0 0 12,24 12,12 0 0 0 24,36 12,12 0 0 0 36,24 12,12 0 0 0 24,12 Z m 0,2 A 9.9999997,9.9999997 0 0 1 34,24 9.9999997,9.9999997 0 0 1 24,34 9.9999997,9.9999997 0 0 1 14,24 9.9999997,9.9999997 0 0 1 24,14 Z"
       transform="matrix(0.26458333,0,0,0.26458333,0,284.29999)" />
    <path
       id="path2638-3"
       style="opacity:0.4;fill:#000000;stroke-width:0.243998"
       d="M 6.35,288.00416 A 2.6458332,2.6458332 0 0 0 3.7041667,290.65 2.6458332,2.6458332 0 0 0 6.35,293.29583 2.6458332,2.6458332 0 0 0 8.9958333,290.65 2.6458332,2.6458332 0 0 0 6.35,288.00416 Z m 0,0.26459 A 2.3812499,2.3812499 0 0 1 8.7312499,290.65 2.3812499,2.3812499 0 0 1 6.35,293.03125 2.3812499,2.3812499 0 0 1 3.96875,290.65 2.3812499,2.3812499 0 0 1 6.35,288.26875 Z" />
    <path
       id="path6196"
       style="opacity:0.2;fill:#000000;fill-opacity:1;stroke-width:1.06342"
       d="M 40.986328,23.369141 A 17,17 0 0 1 24,40 17,17 0 0 1 7.0175781,23.5 17,17 0 0 0 7,24 17,17 0 0 0 24,41 17,17 0 0 0 41,24 17,17 0 0 0 40.986328,23.369141 Z"
       transform="matrix(0.26458333,0,0,0.26458333,0,284.29999)" />
    <path
       id="path6368"
       style="opacity:0.2;fill:#000000;fill-opacity:1;stroke-width:1.06875"
       d="M 24 15 A 8.9999996 8.9999996 0 0 0 15 24 A 8.9999996 8.9999996 0 0 0 15.019531 24.5 A 8.9999996 8.9999996 0 0 1 24 16 A 8.9999996 8.9999996 0 0 1 32.982422 24.455078 A 8.9999996 8.9999996 0 0 0 33 24 A 8.9999996 8.9999996 0 0 0 24 15 z "
       transform="matrix(0.26458333,0,0,0.26458333,0,284.29999)" />
  </g>
</svg>
