<?xml version="1.0" encoding="UTF-8" standalone="no"?>
<svg
   height="48"
   width="48"
   version="1"
   id="svg35"
   sodipodi:docname="hp-logo.svg"
   inkscape:version="1.1.1 (3bf5ae0d25, 2021-09-20, custom)"
   xmlns:inkscape="http://www.inkscape.org/namespaces/inkscape"
   xmlns:sodipodi="http://sodipodi.sourceforge.net/DTD/sodipodi-0.dtd"
   xmlns:xlink="http://www.w3.org/1999/xlink"
   xmlns="http://www.w3.org/2000/svg"
   xmlns:svg="http://www.w3.org/2000/svg"
   xmlns:rdf="http://www.w3.org/1999/02/22-rdf-syntax-ns#"
   xmlns:cc="http://creativecommons.org/ns#"
   xmlns:dc="http://purl.org/dc/elements/1.1/">
  <metadata
     id="metadata39">
    <rdf:RDF>
      <cc:Work
         rdf:about="">
        <dc:format>image/svg+xml</dc:format>
        <dc:type
           rdf:resource="http://purl.org/dc/dcmitype/StillImage" />
      </cc:Work>
    </rdf:RDF>
  </metadata>
  <sodipodi:namedview
     pagecolor="#ffffff"
     bordercolor="#666666"
     borderopacity="1"
     objecttolerance="10"
     gridtolerance="10"
     guidetolerance="10"
     inkscape:pageopacity="0"
     inkscape:pageshadow="2"
     inkscape:window-width="1920"
     inkscape:window-height="1019"
     id="namedview37"
     showgrid="false"
     showguides="false"
     inkscape:zoom="9.28"
     inkscape:cx="0.43103448"
     inkscape:cy="32.704741"
     inkscape:window-x="0"
     inkscape:window-y="31"
     inkscape:window-maximized="1"
     inkscape:current-layer="svg35"
     inkscape:pagecheckerboard="0" />
  <defs
     id="defs7">
    <linearGradient
       inkscape:collect="always"
       id="linearGradient4509">
      <stop
         style="stop-color:#ffffff;stop-opacity:1;"
         offset="0"
         id="stop4505" />
      <stop
         style="stop-color:#2e96c4;stop-opacity:1"
         offset="1"
         id="stop4507" />
    </linearGradient>
    <linearGradient
       inkscape:collect="always"
       id="linearGradient4554">
      <stop
         style="stop-color:#000000;stop-opacity:1;"
         offset="0"
         id="stop4550" />
      <stop
         style="stop-color:#000000;stop-opacity:0;"
         offset="1"
         id="stop4552" />
    </linearGradient>
    <linearGradient
       inkscape:collect="always"
       id="linearGradient4546">
      <stop
         style="stop-color:#000000;stop-opacity:1;"
         offset="0"
         id="stop4542" />
      <stop
         style="stop-color:#000000;stop-opacity:0;"
         offset="1"
         id="stop4544" />
    </linearGradient>
    <linearGradient
       inkscape:collect="always"
       id="linearGradient4520">
      <stop
         style="stop-color:#0276aa;stop-opacity:1"
         offset="0"
         id="stop4516" />
      <stop
         style="stop-color:#0cb1fc;stop-opacity:1"
         offset="1"
         id="stop4518" />
    </linearGradient>
    <linearGradient
       inkscape:collect="always"
       xlink:href="#linearGradient4520"
       id="linearGradient4522"
       x1="-44"
       y1="-24.002001"
       x2="-4"
       y2="-24.002001"
       gradientUnits="userSpaceOnUse" />
    <linearGradient
       inkscape:collect="always"
       xlink:href="#linearGradient4546"
       id="linearGradient4548"
       x1="17.839354"
       y1="15.180177"
       x2="27.52112"
       y2="24.861942"
       gradientUnits="userSpaceOnUse" />
    <linearGradient
       inkscape:collect="always"
       xlink:href="#linearGradient4554"
       id="linearGradient4556"
       x1="28.904669"
       y1="19.773027"
       x2="37.489998"
       y2="28.358356"
       gradientUnits="userSpaceOnUse" />
    <linearGradient
       inkscape:collect="always"
       xlink:href="#linearGradient4509"
       id="linearGradient1330"
       gradientUnits="userSpaceOnUse"
       x1="30.691591"
       y1="8.3168097"
       x2="20.811594"
       y2="45.189461"
       gradientTransform="matrix(1.0000319,0,0,1.0000319,-1.1869e-5,1.7471e-5)" />
  </defs>
  <rect
     transform="matrix(0,-1,-1,0,0,0)"
     rx="20"
     ry="19.998"
     height="39.996"
     width="40"
     y="-44"
     x="-44"
     id="rect9"
     style="fill-opacity:1;fill:url(#linearGradient4522)" />
  <path
     style="opacity:0.15;vector-effect:none;fill:url(#linearGradient4548);fill-opacity:1;stroke:none;stroke-width:12;stroke-linecap:round;stroke-linejoin:round;stroke-miterlimit:4;stroke-dasharray:none;stroke-dashoffset:0;stroke-opacity:1"
     d="M 22.785156 4.0390625 L 15.857422 17.816406 L 15.927734 24.082031 L 9 31.007812 L 21.878906 43.886719 C 22.576385 43.959693 23.284525 44 24.001953 44 C 34.672294 44 43.336238 35.723967 43.960938 25.214844 L 22.785156 4.0390625 z "
     id="rect4524" />
  <path
     style="opacity:0.3;vector-effect:none;fill:url(#linearGradient4556);fill-opacity:1;stroke:none;stroke-width:17.52923584;stroke-linecap:round;stroke-linejoin:round;stroke-miterlimit:4;stroke-dasharray:none;stroke-dashoffset:0;stroke-opacity:1"
     d="m 37.667969,15.376953 -3.32908,7.154009 -2.481027,8.020997 -5.911324,0.412245 -3.468022,4.598296 -0.150391,3.769531 -3.876953,3.876953 C 20.214236,43.714574 22.072094,44 24.001953,44 35.080845,44 44,35.08 44,24 c 0,-0.828529 -0.05543,-1.643765 -0.152344,-2.445312 z"
     id="path4529"
     inkscape:connector-curvature="0"
     sodipodi:nodetypes="cccccccsscc" />
  <path
     d="M 22.785715,4.0392463 C 21.103661,4.1391495 19.48061,4.4465593 17.93856,4.9337749 14.961465,13.444446 11.97137,22.776344 9.0002752,31.008607 c 0.2159869,0.06353 0.4291237,0.03739 0.6523608,0.04102 1.229639,-0.0073 2.464079,0.0036 3.697418,0 0.166985,0 0.146025,-0.241488 0.216807,-0.347671 1.481947,-4.182634 2.987495,-8.343866 4.476743,-12.5234 0.08893,-0.258638 0.187626,-0.535477 0.304699,-0.783225 0.773185,0.01452 1.535249,-0.01089 2.304774,0 -1.616252,4.533845 -3.226903,9.09439 -4.871255,13.613435 0.173335,0.06716 0.344811,0.03739 0.525406,0.04102 1.290441,-0.01089 2.576883,0.01815 3.867324,0 1.460146,-4.119131 2.969294,-8.230863 4.437641,-12.350394 0.31218,-0.840347 0.356652,-1.917361 -0.175785,-2.607483 -1.130036,-1.464847 -3.639016,-1.709155 -5.261868,-1.769557 1.183438,-3.351707 2.410777,-6.8577184 3.611415,-10.2833277 z m 5.867387,10.8813467 c -0.03146,0.06797 -0.05241,0.235988 -0.08398,0.30274 -3.1478,8.831182 -6.884419,18.989606 -10.119322,27.986893 1.099135,0.31519 2.231371,0.551867 3.400508,0.675801 1.457647,-3.908424 3.44991,-8.460469 4.800953,-12.22539 1.612652,-0.03176 3.215903,-0.01511 4.832154,-0.04687 1.024533,-0.03539 2.571882,-0.651291 2.912193,-1.650453 1.361244,-3.832322 2.722587,-7.629243 4.041129,-11.479366 0.215987,-0.581708 0.348071,-1.219839 0.173836,-1.824258 -0.230508,-0.773185 -0.93475,-1.360443 -1.693454,-1.56645 -0.659751,-0.206007 -1.323042,-0.116344 -2.000064,-0.130864 -2.069966,-0.0036 -4.193834,-0.02119 -6.2639,-0.04297 z m 3.892724,2.427778 c 0.06556,0.0071 0.131344,0.01689 0.195317,0.0078 0.598949,0.01089 1.187937,-0.01452 1.783256,0 -1.389344,3.966627 -2.803489,7.935953 -4.172033,11.91438 -0.775904,0.05354 -1.57485,0.0036 -2.351675,0 1.414745,-3.942126 2.80859,-7.882951 4.218935,-11.832377 0.03176,-0.03539 0.08821,-0.07504 0.130864,-0.08594 v 0.0039 c 0.06398,-0.01951 0.129754,-0.01496 0.195316,-0.0078 z"
     id="path21"
     style="fill:url(#linearGradient1330);fill-opacity:1;stroke-width:1.00003" />
  <path
     d="M 4.0117,23.5 C 4.0076,23.667 4,23.832 4,24 4,35.08 12.92,44 24,44 35.08,44 44,35.08 44,24 44,23.832 43.992,23.667 43.988,23.5 43.724,34.346 34.912,43 24,43 13.088,43 4.276,34.346 4.012,23.5 Z"
     id="path33"
     inkscape:connector-curvature="0"
     style="opacity:0.2" />
</svg>
