<?xml version="1.0" encoding="UTF-8" standalone="no"?>
<svg
   xmlns:dc="http://purl.org/dc/elements/1.1/"
   xmlns:cc="http://creativecommons.org/ns#"
   xmlns:rdf="http://www.w3.org/1999/02/22-rdf-syntax-ns#"
   xmlns:svg="http://www.w3.org/2000/svg"
   xmlns="http://www.w3.org/2000/svg"
   xmlns:xlink="http://www.w3.org/1999/xlink"
   xmlns:sodipodi="http://sodipodi.sourceforge.net/DTD/sodipodi-0.dtd"
   xmlns:inkscape="http://www.inkscape.org/namespaces/inkscape"
   width="48"
   height="48"
   version="1.1"
   id="svg20"
   sodipodi:docname="mate-panel-separator.svg"
   inkscape:version="0.92.3 (2405546, 2018-03-11)">
  <metadata
     id="metadata26">
    <rdf:RDF>
      <cc:Work
         rdf:about="">
        <dc:format>image/svg+xml</dc:format>
        <dc:type
           rdf:resource="http://purl.org/dc/dcmitype/StillImage" />
      </cc:Work>
    </rdf:RDF>
  </metadata>
  <defs
     id="defs24">
    <linearGradient
       inkscape:collect="always"
       id="linearGradient883">
      <stop
         style="stop-color:#000000;stop-opacity:1;"
         offset="0"
         id="stop879" />
      <stop
         style="stop-color:#000000;stop-opacity:0;"
         offset="1"
         id="stop881" />
    </linearGradient>
    <linearGradient
       inkscape:collect="always"
       id="linearGradient861">
      <stop
         style="stop-color:#ffffff;stop-opacity:1;"
         offset="0"
         id="stop857" />
      <stop
         style="stop-color:#ffffff;stop-opacity:0;"
         offset="1"
         id="stop859" />
    </linearGradient>
    <linearGradient
       inkscape:collect="always"
       id="linearGradient844">
      <stop
         style="stop-color:#4a6fe4;stop-opacity:1;"
         offset="0"
         id="stop840" />
      <stop
         style="stop-color:#7893eb;stop-opacity:1"
         offset="1"
         id="stop842" />
    </linearGradient>
    <linearGradient
       inkscape:collect="always"
       xlink:href="#linearGradient844"
       id="linearGradient846"
       x1="34"
       y1="43"
       x2="29"
       y2="5"
       gradientUnits="userSpaceOnUse" />
    <linearGradient
       inkscape:collect="always"
       xlink:href="#linearGradient883"
       id="linearGradient885"
       x1="18"
       y1="6"
       x2="38.847424"
       y2="26.847425"
       gradientUnits="userSpaceOnUse" />
    <linearGradient
       inkscape:collect="always"
       xlink:href="#linearGradient861"
       id="linearGradient835"
       x1="21"
       y1="1"
       x2="27"
       y2="51"
       gradientUnits="userSpaceOnUse" />
  </defs>
  <sodipodi:namedview
     pagecolor="#ffffff"
     bordercolor="#666666"
     borderopacity="1"
     objecttolerance="10"
     gridtolerance="10"
     guidetolerance="10"
     inkscape:pageopacity="0"
     inkscape:pageshadow="2"
     inkscape:window-width="1920"
     inkscape:window-height="1020"
     id="namedview22"
     showgrid="true"
     inkscape:zoom="13.01"
     inkscape:cx="9.8570331"
     inkscape:cy="17.850884"
     inkscape:window-x="0"
     inkscape:window-y="30"
     inkscape:window-maximized="1"
     inkscape:current-layer="svg20">
    <inkscape:grid
       type="xygrid"
       id="grid833" />
  </sodipodi:namedview>
  <rect
     style="fill:url(#linearGradient846);fill-opacity:1"
     width="40"
     height="40"
     x="4"
     y="4"
     rx="2"
     ry="2"
     id="rect4" />
  <path
     style="color:#000000;font-style:normal;font-variant:normal;font-weight:normal;font-stretch:normal;font-size:medium;line-height:normal;font-family:sans-serif;font-variant-ligatures:normal;font-variant-position:normal;font-variant-caps:normal;font-variant-numeric:normal;font-variant-alternates:normal;font-feature-settings:normal;text-indent:0;text-align:start;text-decoration:none;text-decoration-line:none;text-decoration-style:solid;text-decoration-color:#000000;letter-spacing:normal;word-spacing:normal;text-transform:none;writing-mode:lr-tb;direction:ltr;text-orientation:mixed;dominant-baseline:auto;baseline-shift:baseline;text-anchor:start;white-space:normal;shape-padding:0;clip-rule:nonzero;display:inline;overflow:visible;visibility:visible;opacity:1;isolation:auto;mix-blend-mode:normal;color-interpolation:sRGB;color-interpolation-filters:linearRGB;solid-color:#000000;solid-opacity:1;vector-effect:none;fill:#ffffff;fill-opacity:1;fill-rule:nonzero;stroke:none;stroke-width:2;stroke-linecap:butt;stroke-linejoin:miter;stroke-miterlimit:4;stroke-dasharray:none;stroke-dashoffset:0;stroke-opacity:1;color-rendering:auto;image-rendering:auto;shape-rendering:auto;text-rendering:auto;enable-background:accumulate"
     d="M 13 19 L 6 24 L 13 29 L 13 26 L 18 26 L 18 22 L 13 22 L 13 19 z M 35 19 L 35 22 L 30 22 L 30 26 L 35 26 L 35 29 L 42 24 L 35 19 z M 12 20.945312 L 12 23 L 17 23 L 17 25 L 12 25 L 12 26 L 12 27.054688 L 7.7226562 24 L 12 20.945312 z M 36 20.945312 L 40.277344 24 L 36 27.054688 L 36 26 L 36 25 L 31 25 L 31 23 L 36 23 L 36 20.945312 z "
     id="path848" />
  <path
     style="opacity:0.3;fill:url(#linearGradient885);fill-opacity:1;stroke:none;stroke-width:2.75430703;stroke-linecap:round;stroke-linejoin:round;stroke-miterlimit:4;stroke-dasharray:none;stroke-dashoffset:0;stroke-opacity:1;paint-order:normal"
     d="M 30 6 L 30 10 L 26 10 L 26 38 L 30 38 L 30 42 L 25 42 L 23 42 L 18 42 L 20 44 L 42 44 C 43.108 44 44 43.108 44 42 L 44 20 L 30 6 z M 18 10 L 22 14 L 22 10 L 18 10 z "
     id="rect865" />
  <path
     style="fill:url(#linearGradient835);fill-opacity:1"
     d="M 18 6 L 18 10 L 22 10 L 22 38 L 18 38 L 18 42 L 23 42 L 25 42 L 30 42 L 30 38 L 26 38 L 26 10 L 30 10 L 30 6 L 18 6 z "
     id="rect8" />
  <path
     style="fill:#000000;fill-opacity:1;opacity:0.2"
     d="M 4 41 L 4 42 C 4 43.108 4.892 44 6 44 L 42 44 C 43.108 44 44 43.108 44 42 L 44 41 C 44 42.108 43.108 43 42 43 L 6 43 C 4.892 43 4 42.108 4 41 z "
     id="rect887" />
</svg>
