<?xml version="1.0" encoding="UTF-8" standalone="no"?>
<svg
   xmlns:dc="http://purl.org/dc/elements/1.1/"
   xmlns:cc="http://creativecommons.org/ns#"
   xmlns:rdf="http://www.w3.org/1999/02/22-rdf-syntax-ns#"
   xmlns:svg="http://www.w3.org/2000/svg"
   xmlns="http://www.w3.org/2000/svg"
   xmlns:xlink="http://www.w3.org/1999/xlink"
   xmlns:sodipodi="http://sodipodi.sourceforge.net/DTD/sodipodi-0.dtd"
   xmlns:inkscape="http://www.inkscape.org/namespaces/inkscape"
   width="48"
   height="48"
   version="1.1"
   id="svg20"
   sodipodi:docname="org.gnome.OfficeRunner.svg"
   inkscape:version="0.92.3 (2405546, 2018-03-11)">
  <metadata
     id="metadata26">
    <rdf:RDF>
      <cc:Work
         rdf:about="">
        <dc:format>image/svg+xml</dc:format>
        <dc:type
           rdf:resource="http://purl.org/dc/dcmitype/StillImage" />
      </cc:Work>
    </rdf:RDF>
  </metadata>
  <defs
     id="defs24">
    <linearGradient
       inkscape:collect="always"
       id="linearGradient914">
      <stop
         style="stop-color:#000000;stop-opacity:1;"
         offset="0"
         id="stop910" />
      <stop
         style="stop-color:#000000;stop-opacity:0;"
         offset="1"
         id="stop912" />
    </linearGradient>
    <linearGradient
       inkscape:collect="always"
       id="linearGradient889">
      <stop
         style="stop-color:#cccccc;stop-opacity:1;"
         offset="0"
         id="stop885" />
      <stop
         style="stop-color:#efefef;stop-opacity:1"
         offset="1"
         id="stop887" />
    </linearGradient>
    <linearGradient
       inkscape:collect="always"
       id="linearGradient870">
      <stop
         style="stop-color:#466b2d;stop-opacity:1;"
         offset="0"
         id="stop866" />
      <stop
         style="stop-color:#78b450;stop-opacity:1"
         offset="1"
         id="stop868" />
    </linearGradient>
    <linearGradient
       inkscape:collect="always"
       xlink:href="#linearGradient870"
       id="linearGradient872"
       x1="35"
       y1="39"
       x2="26"
       y2="9"
       gradientUnits="userSpaceOnUse" />
    <linearGradient
       inkscape:collect="always"
       xlink:href="#linearGradient889"
       id="linearGradient891"
       x1="35.764706"
       y1="43.93808"
       x2="26.786377"
       y2="5.3003097"
       gradientUnits="userSpaceOnUse" />
    <linearGradient
       inkscape:collect="always"
       xlink:href="#linearGradient914"
       id="linearGradient916"
       x1="32.347084"
       y1="9.2970152"
       x2="41.018494"
       y2="17.968424"
       gradientUnits="userSpaceOnUse" />
    <linearGradient
       inkscape:collect="always"
       xlink:href="#linearGradient914"
       id="linearGradient918"
       x1="22.386297"
       y1="15.168818"
       x2="36.749336"
       y2="29.531858"
       gradientUnits="userSpaceOnUse" />
    <linearGradient
       inkscape:collect="always"
       xlink:href="#linearGradient914"
       id="linearGradient920"
       x1="11.2506"
       y1="28.178595"
       x2="28.19429"
       y2="45.122284"
       gradientUnits="userSpaceOnUse" />
  </defs>
  <sodipodi:namedview
     pagecolor="#ffffff"
     bordercolor="#666666"
     borderopacity="1"
     objecttolerance="10"
     gridtolerance="10"
     guidetolerance="10"
     inkscape:pageopacity="0"
     inkscape:pageshadow="2"
     inkscape:window-width="1920"
     inkscape:window-height="1020"
     id="namedview22"
     showgrid="false"
     inkscape:measure-start="0,0"
     inkscape:measure-end="0,0"
     inkscape:zoom="8.0800657"
     inkscape:cx="29.242325"
     inkscape:cy="18.786276"
     inkscape:window-x="0"
     inkscape:window-y="30"
     inkscape:window-maximized="1"
     inkscape:current-layer="svg20">
    <inkscape:grid
       type="xygrid"
       id="grid863" />
  </sodipodi:namedview>
  <rect
     style="opacity:1;fill:url(#linearGradient891);fill-opacity:1;stroke:none;stroke-width:0.65398782;stroke-linecap:round;stroke-linejoin:round;stroke-miterlimit:4;stroke-dasharray:none;stroke-dashoffset:0;stroke-opacity:1;paint-order:normal"
     id="rect833"
     width="40"
     height="40"
     x="4"
     y="4"
     rx="3"
     ry="3" />
  <path
     style="opacity:0.2;fill:url(#linearGradient916);fill-opacity:1;stroke:none;stroke-width:0.44577789;stroke-linecap:round;stroke-linejoin:round;stroke-miterlimit:4;stroke-dasharray:none;stroke-dashoffset:0;stroke-opacity:1;paint-order:normal"
     d="M 34.0625 7.8886719 L 32.947266 8.6933594 L 32.359375 8.2597656 L 31.248047 11.041016 L 30 13.632812 L 44 27.632812 L 44 16.371094 L 35.646484 8.0175781 L 34.0625 7.8886719 z "
     id="rect874" />
  <path
     style="opacity:0.2;fill:url(#linearGradient920);fill-opacity:1;stroke:none;stroke-width:0.44577789;stroke-linecap:round;stroke-linejoin:round;stroke-miterlimit:4;stroke-dasharray:none;stroke-dashoffset:0;stroke-opacity:1;paint-order:normal"
     d="M 27.011719 24.021484 L 23.306641 26.447266 L 24.386719 27.992188 L 21.371094 31.007812 L 16.164062 31.490234 L 9.828125 27.693359 L 11.28125 30.816406 L 24.464844 44 L 41 44 C 42.662 44 44 42.662 44 41 L 44 37.703125 L 30.828125 24.53125 L 27.011719 24.021484 z "
     id="rect878" />
  <path
     style="opacity:0.2;fill:url(#linearGradient918);fill-opacity:1;stroke:none;stroke-width:0.44577789;stroke-linecap:round;stroke-linejoin:round;stroke-miterlimit:4;stroke-dasharray:none;stroke-dashoffset:0;stroke-opacity:1;paint-order:normal"
     d="M 23.287109 15.664062 L 19.683594 19.511719 L 20.375 23.115234 L 41.236328 43.976562 C 42.784878 43.854675 44 42.580917 44 41 L 44 21.734375 L 40.945312 18.679688 L 40.564453 18.298828 L 36.421875 22.441406 L 23.287109 15.664062 z "
     id="path893" />
  <path
     style="fill:url(#linearGradient872);fill-opacity:1;stroke-width:0.13488391"
     d="m 33,7 c -2.209139,0 -4,1.790861 -4,4 0,2.209139 1.790861,4 4,4 2.209139,0 4,-1.790861 4,-4 0,-2.209139 -1.790861,-4 -4,-4 z m -8.46875,7.003906 c -2.91372,-0.116627 -5.574024,2.413762 -5.521484,5.324219 -0.106586,1.708315 0.681677,3.353476 2.044922,4.382813 0.171501,0.124477 0.356636,0.239292 0.566406,0.289062 0.03343,-1.078809 -1.012627,-2.637731 -0.634766,-4.125 0.391896,-1.542513 1.888483,-2.430378 3.337891,-2.056641 2.477555,0.822806 4.202167,3.151311 6.236328,4.679688 1.242399,1.065814 2.856111,1.777254 4.523437,1.46875 1.649148,-0.309046 3.104591,-1.588808 4.238282,-2.792969 0.451909,-0.55493 2.576228,-2.725437 1.246093,-2.570312 -1.485098,1.40916 -3.595272,3.2219 -5.666015,2.277343 -1.772874,-0.808686 -2.832609,-2.66549 -4.259766,-3.976562 -1.513703,-1.763689 -3.761917,-2.904391 -6.111328,-2.900391 z m 1.607422,8 c -0.204845,0.01217 -0.412431,0.04999 -0.623047,0.119141 -1.55676,1.009995 -2.329116,2.840215 -3.25,4.398437 -1.018468,1.704458 -2.164624,4.393763 -4.453125,4.314454 C 14.001775,30.539856 10.529258,26.355812 7,24.205078 c 1.1591606,3.219049 3.542709,6.268912 6.214844,8.292969 2.05432,1.320554 4.382152,2.996743 6.951172,2.402344 2.13846,-0.677127 3.495037,-2.566567 5.142578,-3.990235 1.029223,-1.233839 2.854499,-2.727665 4.296875,-1.451172 2.967867,2.494849 5.419313,5.450197 8.072265,8.275391 0.556401,0.612461 1.11855,1.219768 1.701172,1.806641 1.081392,1.318609 0.485749,-0.560899 0.175782,-1.13086 -2.251326,-5.361194 -5.001126,-10.804185 -9.53125,-14.546875 -1.156527,-0.755676 -2.450854,-1.944543 -3.884766,-1.859375 z"
     id="path859"
     inkscape:connector-curvature="0"
     sodipodi:nodetypes="sssssccccscccccsccsccccccccccccs" />
  <path
     style="opacity:0.2;fill:#000000;fill-opacity:1;stroke:none;stroke-width:0.65398782;stroke-linecap:round;stroke-linejoin:round;stroke-miterlimit:4;stroke-dasharray:none;stroke-dashoffset:0;stroke-opacity:1;paint-order:normal"
     d="M 4 40 L 4 41 C 4 42.662 5.338 44 7 44 L 41 44 C 42.662 44 44 42.662 44 41 L 44 40 C 44 41.662 42.662 43 41 43 L 7 43 C 5.338 43 4 41.662 4 40 z "
     id="rect922" />
</svg>
