<?xml version="1.0" encoding="UTF-8" standalone="no"?>
<svg
   xmlns:dc="http://purl.org/dc/elements/1.1/"
   xmlns:cc="http://creativecommons.org/ns#"
   xmlns:rdf="http://www.w3.org/1999/02/22-rdf-syntax-ns#"
   xmlns:svg="http://www.w3.org/2000/svg"
   xmlns="http://www.w3.org/2000/svg"
   xmlns:sodipodi="http://sodipodi.sourceforge.net/DTD/sodipodi-0.dtd"
   xmlns:inkscape="http://www.inkscape.org/namespaces/inkscape"
   width="22"
   height="22"
   version="1.1"
   id="svg7"
   sodipodi:docname="rto-proxy-tray.svg"
   inkscape:version="0.92.3 (2405546, 2018-03-11)">
  <metadata
     id="metadata11">
    <rdf:RDF>
      <cc:Work
         rdf:about="">
        <dc:format>image/svg+xml</dc:format>
        <dc:type
           rdf:resource="http://purl.org/dc/dcmitype/StillImage" />
        <dc:title></dc:title>
      </cc:Work>
    </rdf:RDF>
  </metadata>
  <sodipodi:namedview
     pagecolor="#ffffff"
     bordercolor="#666666"
     borderopacity="1"
     objecttolerance="10"
     gridtolerance="10"
     guidetolerance="10"
     inkscape:pageopacity="0"
     inkscape:pageshadow="2"
     inkscape:window-width="1920"
     inkscape:window-height="1020"
     id="namedview9"
     showgrid="false"
     inkscape:zoom="21.46"
     inkscape:cx="11"
     inkscape:cy="11"
     inkscape:window-x="0"
     inkscape:window-y="30"
     inkscape:window-maximized="1"
     inkscape:current-layer="svg7" />
  <defs
     id="defs3">
    <style
       id="current-color-scheme"
       type="text/css">
   .ColorScheme-Text { color:#cecfce; } .ColorScheme-Highlight { color:#3daee9; }
  </style>
  </defs>
  <path
     style="fill:#cecfce;fill-opacity:1"
     d="M 11 3 C 6.5817221 3.0000001 3.0000001 6.5817221 3 11 C 3 15.418278 6.581722 19 11 19 C 15.418278 19 19 15.418278 19 11 C 19 6.5817221 15.418278 3 11 3 z M 11 4 C 14.865993 4 18 7.1340067 18 11 C 18 14.865993 14.865993 18 11 18 C 7.1340067 18 4 14.865993 4 11 C 4.0000001 7.1340067 7.1340068 4.0000001 11 4 z M 11 5.5 L 9.4550781 8.7910156 L 6 9.3203125 L 8.5 11.882812 L 7.9101562 15.5 L 11 13.791016 L 14.089844 15.5 L 13.5 11.882812 L 16 9.3203125 L 12.544922 8.7910156 L 11 5.5 z "
     id="path820" />
</svg>
