<svg xmlns="http://www.w3.org/2000/svg" id="svg2" width="22" height="22" version="1">
 <defs id="defs8">
  <style id="current-color-scheme" type="text/css">
   .ColorScheme-Text { color:#cecfce; } .ColorScheme-Highlight { color:#3daee9; }
  </style>
 </defs>
 <path id="path4493" style="fill:#cecfce;fill-opacity:1" d="M 11 3 C 6.568 3 3 6.568 3 11 C 3 15.432 6.568 19 11 19 C 15.428 19 18.994 15.437719 19 11.011719 L 19 11 C 19 6.568 15.432 3 11 3 z M 11.101562 4 A 7.0012618 7.0012618 0 0 1 11.103516 4 A 7.0012618 7.0012618 0 0 1 15.949219 6.0507812 A 7.0012618 7.0012618 0 0 1 15.949219 15.951172 A 7.0012618 7.0012618 0 0 1 6.0507812 15.951172 A 7.0012618 7.0012618 0 0 1 6.0507812 6.0507812 A 7.0012618 7.0012618 0 0 1 11.101562 4 z M 11 6 L 11 11 L 16 11.007812 L 16 11 C 16 8.2267 13.773 6 11 6 z M 7 10 A 1 1 0 0 0 6 11 A 1 1 0 0 0 7 12 A 1 1 0 0 0 8 11 A 1 1 0 0 0 7 10 z M 11 14 A 1 1 0 0 0 10 15 A 1 1 0 0 0 11 16 A 1 1 0 0 0 12 15 A 1 1 0 0 0 11 14 z"/>
</svg>
