<?xml version="1.0" encoding="UTF-8" standalone="no"?>
<svg
   xmlns:dc="http://purl.org/dc/elements/1.1/"
   xmlns:cc="http://creativecommons.org/ns#"
   xmlns:rdf="http://www.w3.org/1999/02/22-rdf-syntax-ns#"
   xmlns:svg="http://www.w3.org/2000/svg"
   xmlns="http://www.w3.org/2000/svg"
   xmlns:sodipodi="http://sodipodi.sourceforge.net/DTD/sodipodi-0.dtd"
   xmlns:inkscape="http://www.inkscape.org/namespaces/inkscape"
   width="16"
   height="16"
   version="1.1"
   id="svg8"
   sodipodi:docname="display-brightness-symbolic.svg"
   inkscape:version="0.92.3 (2405546, 2018-03-11)">
  <metadata
     id="metadata14">
    <rdf:RDF>
      <cc:Work
         rdf:about="">
        <dc:format>image/svg+xml</dc:format>
        <dc:type
           rdf:resource="http://purl.org/dc/dcmitype/StillImage" />
      </cc:Work>
    </rdf:RDF>
  </metadata>
  <defs
     id="defs12" />
  <sodipodi:namedview
     pagecolor="#ffffff"
     bordercolor="#666666"
     borderopacity="1"
     objecttolerance="10"
     gridtolerance="10"
     guidetolerance="10"
     inkscape:pageopacity="0"
     inkscape:pageshadow="2"
     inkscape:window-width="1920"
     inkscape:window-height="1026"
     id="namedview10"
     showgrid="true"
     inkscape:zoom="29.5"
     inkscape:cx="8.2711864"
     inkscape:cy="7.7288136"
     inkscape:window-x="0"
     inkscape:window-y="30"
     inkscape:window-maximized="1"
     inkscape:current-layer="svg8">
    <inkscape:grid
       type="xygrid"
       id="grid833" />
  </sodipodi:namedview>
  <path
     style="opacity:1;fill:#232627;fill-opacity:1;stroke:none;stroke-width:2.65888882;stroke-linecap:round;stroke-linejoin:round;stroke-miterlimit:4;stroke-dasharray:none;stroke-dashoffset:0;stroke-opacity:1;paint-order:normal"
     d="M 11.236328 0 L 9.6191406 2.2226562 A 6 6 0 0 0 8 2 A 6 6 0 0 0 6.2871094 2.2519531 L 4.6308594 0.052734375 L 5.0585938 2.7734375 A 6 6 0 0 0 2.7285156 5.1464844 L 0 4.7636719 L 2.2226562 6.3808594 A 6 6 0 0 0 2 8 A 6 6 0 0 0 2.2519531 9.7128906 L 0.052734375 11.369141 L 2.7734375 10.941406 A 6 6 0 0 0 5.1464844 13.271484 L 4.7636719 16 L 6.3808594 13.777344 A 6 6 0 0 0 8 14 A 6 6 0 0 0 9.7128906 13.748047 L 11.369141 15.947266 L 10.941406 13.226562 A 6 6 0 0 0 13.271484 10.853516 L 16 11.236328 L 13.777344 9.6191406 A 6 6 0 0 0 14 8 A 6 6 0 0 0 13.748047 6.2871094 L 15.947266 4.6308594 L 13.226562 5.0585938 A 6 6 0 0 0 10.853516 2.7285156 L 11.236328 0 z M 7.9335938 3 A 5 5 0 0 1 8 3 A 5 5 0 0 1 8.9824219 3.0976562 A 5 5 0 0 1 8.9941406 3.0996094 A 5 5 0 0 1 10.703125 3.8007812 A 5 5 0 0 1 12.15625 5.2265625 A 5 5 0 0 1 12.160156 5.234375 A 5 5 0 0 1 12.396484 5.6308594 A 5 5 0 0 1 12.412109 5.65625 A 5 5 0 0 1 12.414062 5.6621094 A 5 5 0 0 1 12.880859 6.9414062 A 5 5 0 0 1 13 8 A 5 5 0 0 1 12.902344 8.9824219 A 5 5 0 0 1 12.900391 8.9941406 A 5 5 0 0 1 12.199219 10.703125 A 5 5 0 0 1 10.773438 12.15625 A 5 5 0 0 1 10.765625 12.160156 A 5 5 0 0 1 10.369141 12.396484 A 5 5 0 0 1 10.34375 12.412109 A 5 5 0 0 1 10.337891 12.414062 A 5 5 0 0 1 9.0585938 12.880859 A 5 5 0 0 1 8 13 A 5 5 0 0 1 7.0175781 12.902344 A 5 5 0 0 1 7.0058594 12.900391 A 5 5 0 0 1 5.296875 12.199219 A 5 5 0 0 1 3.84375 10.773438 A 5 5 0 0 1 3.8398438 10.765625 A 5 5 0 0 1 3.6035156 10.369141 A 5 5 0 0 1 3.5859375 10.337891 A 5 5 0 0 1 3.1191406 9.0585938 A 5 5 0 0 1 3 8 A 5 5 0 0 1 3.0976562 7.0175781 A 5 5 0 0 1 3.0976562 7.015625 A 5 5 0 0 1 3.0996094 7.0058594 A 5 5 0 0 1 3.8007812 5.296875 A 5 5 0 0 1 5.2265625 3.84375 A 5 5 0 0 1 5.234375 3.8398438 A 5 5 0 0 1 5.6308594 3.6035156 A 5 5 0 0 1 5.6621094 3.5859375 A 5 5 0 0 1 6.9414062 3.1191406 A 5 5 0 0 1 7.9335938 3 z M 8 4 L 8 12 A 4 4 0 0 0 12 8 A 4 4 0 0 0 8 4 z "
     id="path854" />
</svg>
