<?xml version="1.0" encoding="UTF-8" standalone="no"?>
<!-- Created with Inkscape (http://www.inkscape.org/) -->

<svg
   id="svg7384"
   height="16"
   width="16"
   version="1.1"
   sodipodi:docname="network-wireless-disabled-symbolic.svg"
   inkscape:version="1.1.1 (3bf5ae0d25, 2021-09-20, custom)"
   xmlns:inkscape="http://www.inkscape.org/namespaces/inkscape"
   xmlns:sodipodi="http://sodipodi.sourceforge.net/DTD/sodipodi-0.dtd"
   xmlns="http://www.w3.org/2000/svg"
   xmlns:svg="http://www.w3.org/2000/svg"
   xmlns:rdf="http://www.w3.org/1999/02/22-rdf-syntax-ns#"
   xmlns:cc="http://creativecommons.org/ns#"
   xmlns:dc="http://purl.org/dc/elements/1.1/">
  <defs
     id="defs14" />
  <sodipodi:namedview
     pagecolor="#ffffff"
     bordercolor="#666666"
     borderopacity="1"
     objecttolerance="10"
     gridtolerance="10"
     guidetolerance="10"
     inkscape:pageopacity="0"
     inkscape:pageshadow="2"
     inkscape:window-width="1920"
     inkscape:window-height="1019"
     id="namedview12"
     showgrid="true"
     inkscape:zoom="9.08"
     inkscape:cx="7.7092511"
     inkscape:cy="20.594714"
     inkscape:window-x="0"
     inkscape:window-y="0"
     inkscape:window-maximized="1"
     inkscape:current-layer="svg7384"
     inkscape:pagecheckerboard="0">
    <inkscape:grid
       type="xygrid"
       id="grid4508" />
  </sodipodi:namedview>
  <metadata
     id="metadata90">
    <rdf:RDF>
      <cc:Work
         rdf:about="">
        <dc:format>image/svg+xml</dc:format>
        <dc:type
           rdf:resource="http://purl.org/dc/dcmitype/StillImage" />
        <dc:title>Gnome Symbolic Icon Theme</dc:title>
      </cc:Work>
    </rdf:RDF>
  </metadata>
  <title
     id="title9167">Gnome Symbolic Icon Theme</title>
  <path
     id="path4477-3"
     style="color:#31363b;opacity:0.5;fill:#242628;fill-opacity:0.992506;stroke:none"
     d="m 8.0117188,2.3085938 c -1.123968,0 -2.2064281,0.1660934 -3.2265626,0.4765624 l 0.8144532,0.8144532 c 0.77237,-0.1897652 1.5798597,-0.2910154 2.4121094,-0.2910156 2.7700002,2e-7 5.2706162,1.1143643 7.0781252,2.921875 L 15.798828,5.5234375 C 13.810578,3.5351866 11.058719,2.308594 8.0117188,2.3085938 Z M 2.0527344,4.0527344 C 1.3916204,4.4779085 0.77764585,4.9704011 0.22460938,5.5234375 L 0.93164062,6.2304688 C 1.4855323,5.676574 2.1052145,5.1889363 2.7773438,4.7773438 Z M 8.2265625,6.2265625 9.3691406,7.3691406 C 10.49754,7.6221176 11.50357,8.1910693 12.291016,8.9785156 L 13,8.2695312 C 11.774503,7.0440337 10.092905,6.2738499 8.2265625,6.2265625 Z M 4.9414062,6.9414062 C 4.2518979,7.2814337 3.6270454,7.7323298 3.0898438,8.2695312 L 3.7988281,8.9785156 C 4.3390462,8.4382977 4.9822853,8.0005429 5.6972656,7.6972656 Z M 7.7246094,9.7246094 C 6.9161381,9.7912718 6.1238199,10.131641 5.5039062,10.748047 l 0.7089844,0.708984 c 0.7168122,-0.711153 1.747993,-0.909934 2.6425782,-0.601562 z M 8,12.269531 c -0.5522847,0 -1,0.447715 -1,1 0,0.552285 0.4477153,1 1,1 0.5522847,0 1,-0.447715 1,-1 0,-0.552285 -0.4477153,-1 -1,-1 z"
     sodipodi:nodetypes="sccsccsccccccccccccccccccccsssss" />
  <path
     style="color:#000000;font-style:normal;font-variant:normal;font-weight:normal;font-stretch:normal;font-size:medium;line-height:normal;font-family:sans-serif;font-variant-ligatures:normal;font-variant-position:normal;font-variant-caps:normal;font-variant-numeric:normal;font-variant-alternates:normal;font-feature-settings:normal;text-indent:0;text-align:start;text-decoration:none;text-decoration-line:none;text-decoration-style:solid;text-decoration-color:#000000;letter-spacing:normal;word-spacing:normal;text-transform:none;writing-mode:lr-tb;direction:ltr;text-orientation:mixed;dominant-baseline:auto;baseline-shift:baseline;text-anchor:start;white-space:normal;shape-padding:0;clip-rule:nonzero;display:inline;overflow:visible;visibility:visible;opacity:1;isolation:auto;mix-blend-mode:normal;color-interpolation:sRGB;color-interpolation-filters:linearRGB;solid-color:#000000;solid-opacity:1;vector-effect:none;fill:#232627;fill-opacity:1;fill-rule:nonzero;stroke:none;stroke-width:1px;stroke-linecap:butt;stroke-linejoin:miter;stroke-miterlimit:4;stroke-dasharray:none;stroke-dashoffset:0;stroke-opacity:1;color-rendering:auto;image-rendering:auto;shape-rendering:auto;text-rendering:auto;enable-background:accumulate"
     d="M 0.35351562,-0.35351562 -0.35351562,0.35351562 15.646484,16.353516 16.353516,15.646484 Z"
     id="path818"
     inkscape:connector-curvature="0" />
</svg>
