<?xml version="1.0" encoding="UTF-8" standalone="no"?>
<svg
   width="32"
   height="32"
   version="1.1"
   id="svg35"
   sodipodi:docname="application-x-show.svg"
   inkscape:version="1.1 (c4e8f9ed74, 2021-05-24)"
   xmlns:inkscape="http://www.inkscape.org/namespaces/inkscape"
   xmlns:sodipodi="http://sodipodi.sourceforge.net/DTD/sodipodi-0.dtd"
   xmlns:xlink="http://www.w3.org/1999/xlink"
   xmlns="http://www.w3.org/2000/svg"
   xmlns:svg="http://www.w3.org/2000/svg">
  <sodipodi:namedview
     id="namedview37"
     pagecolor="#ffffff"
     bordercolor="#666666"
     borderopacity="1.0"
     inkscape:pageshadow="2"
     inkscape:pageopacity="0.0"
     inkscape:pagecheckerboard="0"
     showgrid="false"
     inkscape:zoom="21.53125"
     inkscape:cx="16.023222"
     inkscape:cy="15.976778"
     inkscape:window-width="1920"
     inkscape:window-height="1018"
     inkscape:window-x="0"
     inkscape:window-y="0"
     inkscape:window-maximized="1"
     inkscape:current-layer="svg35" />
  <defs
     id="defs13">
    <linearGradient
       id="a"
       y1="392.36"
       y2="365.36"
       gradientUnits="userSpaceOnUse"
       x2="0"
       gradientTransform="translate(309.57,152.44)">
      <stop
         stop-color="#ffffff"
         stop-opacity="0"
         id="stop2" />
      <stop
         offset="1"
         stop-color="#ffffff"
         stop-opacity=".2"
         id="stop4" />
    </linearGradient>
    <linearGradient
       id="b"
       y1="17"
       x1="47"
       y2="24"
       gradientUnits="userSpaceOnUse"
       x2="54"
       gradientTransform="translate(-27,-8)">
      <stop
         stop-color="#060606"
         id="stop7" />
      <stop
         offset="1"
         stop-opacity="0"
         id="stop9" />
    </linearGradient>
    <path
       id="c"
       d="m389.57 545.8v-28h15l7 7v21h-14z" />
  </defs>
  <use
     fill="#eeeeee"
     xlink:href="#c"
     id="use15"
     x="0"
     y="0"
     width="100%"
     height="100%"
     transform="translate(-384.57,-515.8)"
     style="color:#000000;color-interpolation:sRGB;color-interpolation-filters:linearRGB;color-rendering:auto;image-rendering:auto;shape-rendering:auto;text-rendering:auto" />
  <g
     transform="matrix(1,0,0,-1,-384.57,-515.8)"
     id="g21"
     style="color:#000000;color-interpolation:sRGB;color-interpolation-filters:linearRGB;color-rendering:auto;image-rendering:auto;shape-rendering:auto;text-rendering:auto">
    <rect
       opacity="0.6"
       x="389.57001"
       y="-518.79999"
       width="15"
       fill="#ffffff"
       height="1"
       id="rect17" />
    <rect
       opacity="0.15"
       x="389.57001"
       y="-545.79999"
       width="22"
       height="1"
       id="rect19" />
  </g>
  <path
     opacity="0.5"
     fill-rule="evenodd"
     d="M 27,9 20,2 v 7 z"
     id="path23"
     style="color:#000000;color-interpolation:sRGB;color-interpolation-filters:linearRGB;color-rendering:auto;image-rendering:auto;shape-rendering:auto;text-rendering:auto" />
  <use
     fill="url(#a)"
     xlink:href="#c"
     id="use29"
     x="0"
     y="0"
     width="100%"
     height="100%"
     style="fill:url(#a)"
     transform="translate(-384.57,-515.8)" />
  <path
     opacity="0.1"
     fill="url(#b)"
     fill-rule="evenodd"
     d="m 20,9 7,7 V 9 Z"
     id="path31"
     style="fill:url(#b)" />
  <path
     style="fill:#ea5a47;fill-opacity:1;fill-rule:evenodd;stroke:none;stroke-width:0.0895513"
     inkscape:connector-curvature="0"
     id="타원_5"
     d="m 10.179204,24.671542 v -1.343269 h 11.820771 v 1.343269 z m 7.701411,-4.119358 h 4.11936 v 1.343265 h -4.11936 z m 0,-2.776089 h 4.11936 v 1.343265 h -4.11936 z m 0,-2.776093 h 4.11936 v 1.343269 h -4.11936 z M 13.48284,16.15575 c -0.933383,-0.0057 -1.778031,0.552178 -2.139173,1.412885 -0.361143,0.860706 -0.167457,1.854249 0.490535,2.51628 0.657992,0.662032 1.650336,0.861796 2.513234,0.505929 0.862898,-0.355872 1.42593,-1.197092 1.425948,-2.130489 0,-0.01946 -0.0025,-0.03817 -0.0029,-0.0574 h 1.123332 c 0,0.0073 6.49e-4,0.01441 6.49e-4,0.02167 0.0062,1.235732 -0.649387,2.380299 -1.718524,2.999988 -1.069137,0.619693 -2.38819,0.619693 -3.457327,0 C 10.649432,20.804924 9.9937908,19.660357 10.000044,18.424625 10.000047,16.508403 11.584433,15 13.483637,15 h 0.009 v 1.156289 c -0.0033,0 -0.0065,-8.25e-4 -0.0098,-8.25e-4 z m 0.0098,8.25e-4 c 1.242086,0.0092 2.251494,1.004813 2.277917,2.246651 h -2.277915 z" />
</svg>
