<?xml version="1.0" encoding="UTF-8" standalone="no"?>
<!-- Created with Inkscape (http://www.inkscape.org/) -->

<svg
   xmlns:dc="http://purl.org/dc/elements/1.1/"
   xmlns:cc="http://creativecommons.org/ns#"
   xmlns:rdf="http://www.w3.org/1999/02/22-rdf-syntax-ns#"
   xmlns:svg="http://www.w3.org/2000/svg"
   xmlns="http://www.w3.org/2000/svg"
   xmlns:xlink="http://www.w3.org/1999/xlink"
   xmlns:sodipodi="http://sodipodi.sourceforge.net/DTD/sodipodi-0.dtd"
   xmlns:inkscape="http://www.inkscape.org/namespaces/inkscape"
   width="64"
   version="1.1"
   height="64"
   viewBox="0 0 64 64"
   id="svg2"
   inkscape:version="0.92.0 r"
   sodipodi:docname="folder-blue.svg">
  <sodipodi:namedview
     pagecolor="#ffffff"
     bordercolor="#666666"
     borderopacity="1"
     objecttolerance="10"
     gridtolerance="10"
     guidetolerance="10"
     inkscape:pageopacity="0"
     inkscape:pageshadow="2"
     inkscape:window-width="1920"
     inkscape:window-height="1011"
     id="namedview17"
     showgrid="true"
     inkscape:zoom="10.429825"
     inkscape:cx="6.8222099"
     inkscape:cy="34.067489"
     inkscape:window-x="0"
     inkscape:window-y="0"
     inkscape:window-maximized="1"
     inkscape:current-layer="layer1">
    <inkscape:grid
       type="xygrid"
       id="grid830" />
  </sodipodi:namedview>
  <defs
     id="defs5455">
    <linearGradient
       inkscape:collect="always"
       id="linearGradient836">
      <stop
         style="stop-color:#1f64b3;stop-opacity:1;"
         offset="0"
         id="stop832" />
      <stop
         style="stop-color:#2271ca;stop-opacity:1"
         offset="1"
         id="stop834" />
    </linearGradient>
    <linearGradient
       id="linearGradient4172-7">
      <stop
         style="stop-color:#4183d7"
         id="stop4174-9" />
      <stop
         offset="1"
         style="stop-color:#5b94df"
         id="stop4176-4" />
    </linearGradient>
    <linearGradient
       inkscape:collect="always"
       id="linearGradient4172-5">
      <stop
         style="stop-color:#83f3c8"
         id="stop4174-6" />
      <stop
         offset="1"
         style="stop-color:#67b0e5"
         id="stop4176-6" />
    </linearGradient>
    <linearGradient
       inkscape:collect="always"
       xlink:href="#linearGradient836"
       id="linearGradient838"
       x1="419.57144"
       y1="501.79807"
       x2="419.57144"
       y2="489.79807"
       gradientUnits="userSpaceOnUse" />
    <linearGradient
       inkscape:collect="always"
       xlink:href="#linearGradient4172-5"
       id="linearGradient840"
       gradientUnits="userSpaceOnUse"
       x1="429.57144"
       y1="541.79797"
       x2="429.57144"
       y2="496.798" />
  </defs>
  <metadata
     id="metadata5458">
    <rdf:RDF>
      <cc:Work
         rdf:about="">
        <dc:format>image/svg+xml</dc:format>
        <dc:type
           rdf:resource="http://purl.org/dc/dcmitype/StillImage" />
        <dc:title></dc:title>
      </cc:Work>
    </rdf:RDF>
  </metadata>
  <g
     inkscape:label="Capa 1"
     inkscape:groupmode="layer"
     id="layer1"
     transform="matrix(1 0 0 1 -384.57143 -483.798)">
    <g
       transform="translate(-5e-6,-5e-5)"
       id="g4193">
      <path
         d="m 387.57144,503.79812 0,1 19.99999,0 3,-5 -4,4 z"
         id="path4224"
         style="fill:#ffffff;fill-opacity:0.235294;fill-rule:evenodd"
         inkscape:connector-curvature="0" />
      <path
         sodipodi:nodetypes="ccccccc"
         inkscape:connector-curvature="0"
         id="rect4160"
         d="m 387.57144,489.798 23.99999,0 5,6 29,0 10e-6,38 -58,0 z"
         style="fill:url(#linearGradient838);fill-opacity:1;fill-rule:evenodd;stroke:none;stroke-width:1px;stroke-linecap:butt;stroke-linejoin:miter;stroke-opacity:1" />
      <path
         sodipodi:nodetypes="cccccccc"
         inkscape:connector-curvature="0"
         style="fill:#ffffff;fill-opacity:0.235294;fill-rule:evenodd"
         id="path4166"
         d="m 411.57143,489.798 5,7 2,0 27,0 0,-1 -27,0 -2,0 z" />
      <path
         sodipodi:nodetypes="ccccccc"
         inkscape:connector-curvature="0"
         id="rect3347"
         d="m 387.57143,502.798 24,0 5,-6 29,0 10e-6,45 -58,0 z"
         style="fill:url(#linearGradient840);fill-opacity:1;fill-rule:evenodd;stroke:none;stroke-width:1px;stroke-linecap:butt;stroke-linejoin:miter;stroke-opacity:1" />
      <path
         d="m 416.57143,496.798 -4,7 -4,0 -21,0 0,-1 21,0 3,0 z"
         id="path4168"
         style="fill:#ffffff;fill-opacity:0.235294;fill-rule:evenodd"
         inkscape:connector-curvature="0"
         sodipodi:nodetypes="cccccccc" />
      <path
         sodipodi:nodetypes="cccccc"
         d="m 387.57143,501.798 0,1 24,0 5,-6 -6,5 z"
         id="path4228"
         style="fill:#000000;fill-opacity:0.23529412;fill-rule:evenodd"
         inkscape:connector-curvature="0" />
      <path
         d="m 387.57143,540.7981 0,1 1,0 56,0 1,0 0,-1 -1,0 -56,0 -1,0 z"
         id="path4151-2"
         style="fill-opacity:0.235294"
         inkscape:connector-curvature="0" />
    </g>
    <path
       style="fill:#3885dd"
       id="rect4129"
       d="m 406.57145,512.798 v 0.99999 14.00001 0.41469 0.58531 h 1 18.99996 v -0.58531 -0.41469 -1 -14 h -0.0494 -0.95066 -17.53729 -0.46267 -1 m 1,0.99999 h 0.0494 l 5.97467,5.97602 -6.024,6.024 v -12.00002 m 1.46266,0 h 15.07465 l -7.53733,7.53734 -7.53732,-7.53734 m 16.48797,0 h 0.0494 v 12.00002 l -6.02398,-6.024 5.97464,-5.97602 m -11.22132,6.68002 2.26934,2.26797 2.26934,-2.26797 6.26798,6.26801 0.46264,0.46265 v 0.58535 h -17.99994 v -0.58535 l 0.46266,-0.46265 6.26798,-6.26801"/>
  </g>
</svg>
