<?xml version="1.0" encoding="UTF-8" standalone="no"?>
<svg
   width="16"
   height="16"
   version="1.1"
   id="svg24"
   sodipodi:docname="weather-few-clouds-small.svg"
   inkscape:version="1.1.1 (3bf5ae0d25, 2021-09-20, custom)"
   xmlns:inkscape="http://www.inkscape.org/namespaces/inkscape"
   xmlns:sodipodi="http://sodipodi.sourceforge.net/DTD/sodipodi-0.dtd"
   xmlns:xlink="http://www.w3.org/1999/xlink"
   xmlns="http://www.w3.org/2000/svg"
   xmlns:svg="http://www.w3.org/2000/svg">
  <sodipodi:namedview
     id="namedview26"
     pagecolor="#ffffff"
     bordercolor="#666666"
     borderopacity="1.0"
     inkscape:pageshadow="2"
     inkscape:pageopacity="0.0"
     inkscape:pagecheckerboard="0"
     showgrid="false"
     inkscape:zoom="35.708892"
     inkscape:cx="3.8925878"
     inkscape:cy="11.677763"
     inkscape:window-width="1920"
     inkscape:window-height="1019"
     inkscape:window-x="0"
     inkscape:window-y="0"
     inkscape:window-maximized="1"
     inkscape:current-layer="g22" />
  <defs
     id="defs14">
    <linearGradient
       inkscape:collect="always"
       id="linearGradient1690">
      <stop
         style="stop-color:#eff1f1;stop-opacity:1;"
         offset="0"
         id="stop1686" />
      <stop
         style="stop-color:#dfdfdf;stop-opacity:1"
         offset="1"
         id="stop1688" />
    </linearGradient>
    <linearGradient
       id="0">
      <stop
         stop-color="#faffa5"
         id="stop2" />
      <stop
         offset="1"
         stop-color="#edf573"
         id="stop4" />
    </linearGradient>
    <linearGradient
       id="1">
      <stop
         stop-color="#f0ff01"
         id="stop7" />
      <stop
         offset="1"
         stop-color="#ff9701"
         id="stop9" />
    </linearGradient>
    <linearGradient
       xlink:href="#1"
       id="2"
       y1="502.798"
       x2="0"
       y2="582.79797"
       gradientUnits="userSpaceOnUse"
       gradientTransform="matrix(0.85714336,0,0,0.85714336,58.367163,74.828044)" />
    <linearGradient
       xlink:href="#0"
       id="3"
       y1="507.798"
       x2="0"
       y2="547.79797"
       gradientUnits="userSpaceOnUse"
       gradientTransform="matrix(0.84033437,0,0,0.84033437,65.234851,83.632589)" />
    <linearGradient
       inkscape:collect="always"
       xlink:href="#linearGradient1690"
       id="linearGradient1692"
       x1="413.69913"
       y1="524.44379"
       x2="417.14285"
       y2="540.94086"
       gradientUnits="userSpaceOnUse" />
  </defs>
  <metadata
     id="metadata16" />
  <g
     transform="matrix(0.35000003,0,0,0.35000003,-135.00001,-175.32932)"
     id="g22">
    <rect
       width="34.285713"
       height="34.285732"
       x="391.42856"
       y="506.65515"
       ry="17.142857"
       fill="url(#2)"
       rx="17.142857"
       id="rect18"
       style="fill:url(#2);stroke-width:0.857143" />
    <rect
       width="28.571426"
       height="28.571445"
       x="394.28571"
       y="509.5123"
       fill="url(#3)"
       rx="14.285718"
       id="rect20"
       style="fill:url(#3);stroke-width:0.840333" />
    <path
       id="rect1405"
       style="fill:url(#linearGradient1692);stroke-width:2.85714"
       d="m 410,526.65515 h 11.42857 c 3.95714,0 7.14286,3.18571 7.14286,7.14286 0,3.95714 -3.18572,7.14285 -7.14286,7.14285 H 410 c -3.95714,0 -7.14285,-3.18571 -7.14285,-7.14285 0,-3.95715 3.18571,-7.14286 7.14285,-7.14286 z" />
    <path
       id="rect1405-6"
       style="opacity:0.2;fill:#000000;fill-opacity:1;stroke-width:0.999999"
       d="M 6.0136719,11.255859 C 6.0056629,11.336204 6,11.417702 6,11.5 6,12.885 7.1150003,14 8.5,14 h 4 C 13.885,14 15,12.885 15,11.5 15,11.4177 14.9943,11.336204 14.98633,11.255859 14.858759,12.519561 13.79844,13.5 12.5,13.5 h -4 c -1.2984367,0 -2.3587587,-0.980439 -2.4863281,-2.244141 z"
       transform="matrix(2.8571426,0,0,2.8571426,385.71428,500.94087)" />
  </g>
</svg>
