<?xml version="1.0" encoding="UTF-8" standalone="no"?>
<svg
   xmlns:dc="http://purl.org/dc/elements/1.1/"
   xmlns:cc="http://creativecommons.org/ns#"
   xmlns:rdf="http://www.w3.org/1999/02/22-rdf-syntax-ns#"
   xmlns:svg="http://www.w3.org/2000/svg"
   xmlns="http://www.w3.org/2000/svg"
   xmlns:xlink="http://www.w3.org/1999/xlink"
   xmlns:sodipodi="http://sodipodi.sourceforge.net/DTD/sodipodi-0.dtd"
   xmlns:inkscape="http://www.inkscape.org/namespaces/inkscape"
   width="48"
   height="48"
   version="1.1"
   id="svg43"
   sodipodi:docname="anatine.svg"
   inkscape:version="0.92.1 r15371">
  <metadata
     id="metadata47">
    <rdf:RDF>
      <cc:Work
         rdf:about="">
        <dc:format>image/svg+xml</dc:format>
        <dc:type
           rdf:resource="http://purl.org/dc/dcmitype/StillImage" />
        <dc:title></dc:title>
      </cc:Work>
    </rdf:RDF>
  </metadata>
  <sodipodi:namedview
     pagecolor="#ffffff"
     bordercolor="#666666"
     borderopacity="1"
     objecttolerance="10"
     gridtolerance="10"
     guidetolerance="10"
     inkscape:pageopacity="0"
     inkscape:pageshadow="2"
     inkscape:window-width="1600"
     inkscape:window-height="808"
     id="namedview45"
     showgrid="false"
     inkscape:zoom="2.86"
     inkscape:cx="19.120273"
     inkscape:cy="27.098183"
     inkscape:window-x="0"
     inkscape:window-y="0"
     inkscape:window-maximized="1"
     inkscape:current-layer="svg43">
    <inkscape:grid
       type="xygrid"
       id="grid4509" />
  </sodipodi:namedview>
  <defs
     id="defs23">
    <linearGradient
       inkscape:collect="always"
       id="linearGradient4524">
      <stop
         style="stop-color:#000000;stop-opacity:1;"
         offset="0"
         id="stop4520" />
      <stop
         style="stop-color:#000000;stop-opacity:0;"
         offset="1"
         id="stop4522" />
    </linearGradient>
    <linearGradient
       inkscape:collect="always"
       id="linearGradient4505">
      <stop
         style="stop-color:#0f81c9;stop-opacity:1;"
         offset="0"
         id="stop4501" />
      <stop
         style="stop-color:#52b4f2;stop-opacity:1"
         offset="1"
         id="stop4503" />
    </linearGradient>
    <linearGradient
       id="a"
       y1="543.8"
       y2="503.8"
       x2="0"
       gradientUnits="userSpaceOnUse"
       gradientTransform="translate(-384.57,-499.8)">
      <stop
         stop-color="#c6cdd1"
         id="stop2" />
      <stop
         offset="1"
         stop-color="#e0e5e7"
         id="stop4" />
    </linearGradient>
    <linearGradient
       inkscape:collect="always"
       xlink:href="#linearGradient4505"
       id="linearGradient4507"
       x1="26.830511"
       y1="35.18644"
       x2="26.830511"
       y2="12"
       gradientUnits="userSpaceOnUse" />
    <linearGradient
       inkscape:collect="always"
       xlink:href="#linearGradient4524"
       id="linearGradient4526"
       x1="13.611472"
       y1="19.268242"
       x2="17.154114"
       y2="22.810883"
       gradientUnits="userSpaceOnUse" />
    <linearGradient
       inkscape:collect="always"
       xlink:href="#linearGradient4524"
       id="linearGradient4528"
       x1="19.005075"
       y1="23.735535"
       x2="32.340549"
       y2="37.071007"
       gradientUnits="userSpaceOnUse" />
  </defs>
  <rect
     style="fill:url(#a);stroke-width:2.79999995;stroke-opacity:0.55"
     id="rect25"
     height="40"
     rx="20"
     y="3.9999878"
     x="4.0000072"
     width="40" />
  <path
     d="m 4.01,23.5 c -0.004,0.167 -0.012,0.332 -0.012,0.5 0,11.08 8.92,20 20,20 11.08,0 20,-8.92 20,-20 0,-0.168 -0.008,-0.333 -0.012,-0.5 C 43.722,34.347 34.906,43 23.998,43 13.086,43 4.274,34.347 4.01,23.5"
     id="path37"
     inkscape:connector-curvature="0"
     style="fill:#99a1a7;stroke-width:2.79999995;stroke-opacity:0.55" />
  <path
     style="opacity:0.2;vector-effect:none;fill:url(#linearGradient4528);fill-opacity:1;stroke:none;stroke-width:1.93149376;stroke-linecap:round;stroke-linejoin:round;stroke-miterlimit:4;stroke-dasharray:none;stroke-dashoffset:0;stroke-opacity:1"
     d="M 27.761719 13.861328 L 25.035156 14.541016 L 15.306641 28.171875 L 15.925781 33.375 L 26.404297 43.851562 C 34.541397 42.884444 41.130519 37.068514 43.257812 29.357422 L 27.761719 13.861328 z "
     id="rect4511" />
  <path
     style="opacity:0.3;vector-effect:none;fill:url(#linearGradient4526);fill-opacity:1;stroke:none;stroke-width:2;stroke-linecap:round;stroke-linejoin:round;stroke-miterlimit:4;stroke-dasharray:none;stroke-dashoffset:0;stroke-opacity:1"
     d="m 15.967583,18.210602 9.598204,8.833352 -2.320536,2.320536 -9.811096,-9.811096 0.177317,-0.285152 z"
     id="rect4514"
     inkscape:connector-curvature="0"
     sodipodi:nodetypes="cccccc" />
  <path
     d="m 21.688781,35.989639 c -2.761009,-0.276002 -4.185037,-1.045207 -5.606487,-2.443217 -0.574203,-0.564603 -0.964337,-1.084207 -1.288533,-1.715411 -0.686157,-1.336209 -0.90127,-2.839819 -0.565341,-3.952226 0.334028,-1.105689 1.093772,-2.324836 2.163159,-3.471144 0.593837,-0.636545 1.011594,-1.191729 1.28635,-1.710852 0.331358,-0.626105 0.415276,-0.959887 0.387416,-1.54111 -0.02704,-0.563651 -0.141106,-0.635642 -0.45869,-0.892262 -0.300936,-0.24317 -1.100432,-0.291721 -2.031776,-0.248509 -0.909031,0.04218 -1.354837,-0.01166 -1.789034,-0.216038 -0.336797,-0.158533 -0.456147,-0.337629 -0.352056,-0.528287 0.09396,-0.172111 0.571495,-0.614107 1.162765,-0.789879 0.263892,-0.07845 0.472269,-0.161839 0.463052,-0.185311 -0.0092,-0.02347 -0.217036,-0.190171 -0.461849,-0.370437 -0.999596,-0.736084 -1.597755,-1.566439 -1.597755,-2.385265 0,-0.227209 0.02481,-0.301639 0.134194,-0.402362 0.120109,-0.110611 0.170141,-0.120373 0.476675,-0.09302 0.188364,0.01681 0.528876,0.103374 0.756681,0.192361 0.554176,0.216475 1.248138,0.205173 1.807979,0.131212 0.233451,-0.03084 0.479571,-0.09148 0.546928,-0.134743 0.06735,-0.04327 0.250942,-0.299715 0.40796,-0.569879 0.61197,-1.052947 1.259994,-1.732751 1.985936,-2.083273 0.836553,-0.403905 2.020158,-0.619985 3.143566,-0.573838 1.350623,0.05546 2.497804,0.510339 3.434581,1.361949 0.643991,0.585382 1.07012,0.731765 1.682639,0.577941 0.430859,-0.108204 0.440576,-0.107676 0.440576,0.02397 0,0.172987 -0.141729,0.397143 -0.359273,0.568222 l -0.200403,0.157597 0.202028,0.116845 c 0.278406,0.161024 0.245429,0.290522 -0.08579,0.336969 -0.275887,0.03869 -0.48267,0.127811 -0.48267,0.208045 0,0.02833 0.03959,0.2738 0.08801,0.545499 0.118745,0.666545 0.07644,1.758292 -0.08501,2.395677 -0.250355,0.988386 -0.62908,1.684331 -1.276188,2.345116 -0.496083,0.506541 -1.073726,0.903126 -1.623423,1.114508 -0.371979,0.143058 -0.471865,0.232993 -0.258789,0.232993 0.06227,0 0.411598,0.02577 0.776298,0.05725 1.334917,0.115249 2.283792,0.671604 3.624269,1.28008 1.266105,0.574696 1.80419,0.836545 2.504953,0.48838 0.447141,-0.222157 1.197906,-1.511078 1.676224,-2.138922 0.409214,-0.537183 0.594644,-0.663364 0.974725,-0.663364 0.372254,0 0.58703,0.137562 0.868758,0.556455 0.399004,0.593207 0.616676,1.232408 0.771472,2.265736 0.110659,0.738425 0.07957,2.771536 -0.05755,3.50768 -0.819442,4.39983 -3.702308,7.36205 -8.103365,8.326257 -1.18782,0.260306 -1.666384,0.307094 -3.312417,0.323852 -0.853908,0.0087 -1.650679,0.006 -1.770517,-0.0059 z"
     id="path2"
     style="fill:url(#linearGradient4507);fill-opacity:1;stroke-width:0.60553324"
     inkscape:connector-curvature="0"
     sodipodi:nodetypes="cccccccsccccccsccccccccccsccccsccccsccccsccccccc" />
</svg>
