<?xml version="1.0" encoding="UTF-8" standalone="no"?>
<svg
   xmlns:dc="http://purl.org/dc/elements/1.1/"
   xmlns:cc="http://creativecommons.org/ns#"
   xmlns:rdf="http://www.w3.org/1999/02/22-rdf-syntax-ns#"
   xmlns:svg="http://www.w3.org/2000/svg"
   xmlns="http://www.w3.org/2000/svg"
   xmlns:sodipodi="http://sodipodi.sourceforge.net/DTD/sodipodi-0.dtd"
   xmlns:inkscape="http://www.inkscape.org/namespaces/inkscape"
   width="48"
   height="48"
   version="1.1"
   id="svg39"
   sodipodi:docname="cantata.svg"
   inkscape:version="0.92.3 (2405546, 2018-03-11)">
  <metadata
     id="metadata43">
    <rdf:RDF>
      <cc:Work
         rdf:about="">
        <dc:format>image/svg+xml</dc:format>
        <dc:type
           rdf:resource="http://purl.org/dc/dcmitype/StillImage" />
      </cc:Work>
    </rdf:RDF>
  </metadata>
  <sodipodi:namedview
     pagecolor="#ffffff"
     bordercolor="#666666"
     borderopacity="1"
     objecttolerance="10"
     gridtolerance="10"
     guidetolerance="10"
     inkscape:pageopacity="0"
     inkscape:pageshadow="2"
     inkscape:window-width="1920"
     inkscape:window-height="1020"
     id="namedview41"
     showgrid="true"
     inkscape:zoom="9.2"
     inkscape:cx="4"
     inkscape:cy="24"
     inkscape:window-x="0"
     inkscape:window-y="30"
     inkscape:window-maximized="1"
     inkscape:current-layer="svg39">
    <inkscape:grid
       type="xygrid"
       id="grid830" />
  </sodipodi:namedview>
  <defs
     id="defs17">
    <linearGradient
       id="a"
       y1="21"
       x1="27"
       y2="37"
       x2="43"
       gradientUnits="userSpaceOnUse"
       gradientTransform="translate(-3-1)">
      <stop
         stop-color="#292c2f"
         id="stop2" />
      <stop
         offset="1"
         stop-opacity="0"
         id="stop4" />
    </linearGradient>
    <linearGradient
       id="b"
       y1="10"
       x1="1"
       y2="44"
       x2="35"
       gradientUnits="userSpaceOnUse"
       gradientTransform="translate(.366-.856)">
      <stop
         stop-color="#2980b9"
         id="stop7" />
      <stop
         offset="1"
         stop-color="#1a7459"
         id="stop9" />
    </linearGradient>
    <linearGradient
       id="c"
       y1="5"
       x1="2"
       y2="43"
       x2="40"
       gradientUnits="userSpaceOnUse">
      <stop
         stop-color="#2ecc71"
         id="stop12" />
      <stop
         offset="1"
         stop-color="#55b019"
         id="stop14" />
    </linearGradient>
  </defs>
  <g
     stroke-linejoin="round"
     stroke-width="2"
     id="g31">
    <g
       fill="#bdc3c7"
       id="g23">
      <path
         style="stroke-linecap:round"
         d="M 44,24 C 44,29.73305 41.587778,34.902696 37.722926,38.549344 34.141485,41.928584 29.312645,42.586957 24,42.586957 12.954305,42.586957 5.7391304,35.045695 5.7391304,24 5.7391304,12.954305 12.954305,5.4130435 24,5.4130435 c 5.355858,0 10.220008,0.6922076 13.810073,4.1203317 C 41.624005,13.175269 44,18.310163 44,24 Z"
         id="circle19"
         inkscape:connector-curvature="0"
         sodipodi:nodetypes="sssssss" />
      <path
         d="M43.978516 23.417969A20 20 0 0 1 24 43 20 20 0 0 1 4.02148 23.582031 20 20 0 0 0 4 24 20 20 0 0 0 24 44 20 20 0 0 0 44 24 20 20 0 0 0 43.978516 23.417969"
         id="path21" />
    </g>
    <path
       fill="url(#c)"
       d="M24 4A20 20 0 0 0 4 24 20 20 0 0 0 24 44 20 20 0 0 0 38.13281 38.13281L24 24 38.13 9.867A20 20 0 0 0 24 4"
       id="path25" />
    <path
       fill="#258e52"
       d="m4.02 23.418c-.01.194-.017.388-.021.582 0 11.05 8.954 20 20 20 5.302-.005 10.386-2.115 14.13-5.867l-.521-.521c-3.693 3.452-8.556 5.377-13.611 5.389-10.876-.009-19.751-8.708-19.979-19.582"
       id="path27"
       style="fill:#000000;opacity:0.2" />
    <circle
       fill="#fcfcfc"
       cx="24"
       cy="24"
       r="16"
       stroke-linecap="round"
       id="circle29" />
  </g>
  <g
     fill-rule="evenodd"
     id="g37">
    <path
       opacity=".2"
       fill="url(#a)"
       d="m25 5l-1 5v24l-9.602 7.855c2.121.75 4.352 2.137 6.602 2.145 11.05 0 23-8.954 23-20-.008-.715-19-19-19-19"
       id="path33" />
    <path
       fill="url(#b)"
       d="m22 4l3 1c0 0 1.242 3.822 2.242 4.822 1.581 1.581 7.758 5.178 7.758 13.178 0 6-4 10-9 13 5-5 7-7 7-13 0-8-8-9-8-9v21.775c0 2.225-2.097 5.918-5.519 7.339-4.338 1.797-8.883.771-10.15-2.291-1.267-3.061 1.22-6.999 5.557-8.795 2.591-1.074 5.02-1.32 7.113-.417z"
       id="path35" />
  </g>
</svg>
