<?xml version="1.0" encoding="UTF-8" standalone="no"?>
<svg
   xmlns:dc="http://purl.org/dc/elements/1.1/"
   xmlns:cc="http://creativecommons.org/ns#"
   xmlns:rdf="http://www.w3.org/1999/02/22-rdf-syntax-ns#"
   xmlns:svg="http://www.w3.org/2000/svg"
   xmlns="http://www.w3.org/2000/svg"
   xmlns:xlink="http://www.w3.org/1999/xlink"
   xmlns:sodipodi="http://sodipodi.sourceforge.net/DTD/sodipodi-0.dtd"
   xmlns:inkscape="http://www.inkscape.org/namespaces/inkscape"
   width="48"
   height="48"
   version="1.1"
   id="svg31"
   sodipodi:docname="document-viewer.svg"
   inkscape:version="0.92.3 (2405546, 2018-03-11)">
  <metadata
     id="metadata35">
    <rdf:RDF>
      <cc:Work
         rdf:about="">
        <dc:format>image/svg+xml</dc:format>
        <dc:type
           rdf:resource="http://purl.org/dc/dcmitype/StillImage" />
        <dc:title />
      </cc:Work>
    </rdf:RDF>
  </metadata>
  <sodipodi:namedview
     pagecolor="#ffffff"
     bordercolor="#666666"
     borderopacity="1"
     objecttolerance="10"
     gridtolerance="10"
     guidetolerance="10"
     inkscape:pageopacity="0"
     inkscape:pageshadow="2"
     inkscape:window-width="1920"
     inkscape:window-height="1020"
     id="namedview33"
     showgrid="true"
     inkscape:zoom="13.94"
     inkscape:cx="8.1329149"
     inkscape:cy="24"
     inkscape:window-x="0"
     inkscape:window-y="30"
     inkscape:window-maximized="1"
     inkscape:current-layer="svg31">
    <inkscape:grid
       type="xygrid"
       id="grid836" />
  </sodipodi:namedview>
  <defs
     id="defs17">
    <linearGradient
       inkscape:collect="always"
       id="linearGradient842">
      <stop
         style="stop-color:#cccccc;stop-opacity:1;"
         offset="0"
         id="stop838" />
      <stop
         style="stop-color:#fefefe;stop-opacity:1"
         offset="1"
         id="stop840" />
    </linearGradient>
    <linearGradient
       id="b"
       y1="524.8"
       y2="531.8"
       x1="401.57"
       gradientUnits="userSpaceOnUse"
       x2="408.57"
       gradientTransform="matrix(1.42857,0,0,1.42265,-543.67,-732.61)">
      <stop
         stop-color="#292c2f"
         id="stop7" />
      <stop
         offset="1"
         stop-opacity="0"
         id="stop9" />
    </linearGradient>
    <linearGradient
       inkscape:collect="always"
       xlink:href="#linearGradient842"
       id="linearGradient844"
       x1="28"
       y1="49"
       x2="20"
       y2="4"
       gradientUnits="userSpaceOnUse" />
  </defs>
  <path
     inkscape:connector-curvature="0"
     style="fill:url(#linearGradient844);fill-opacity:1"
     id="path19"
     d="M 8,4 V 44 H 40 V 14 L 30,4 Z" />
  <path
     d="M 40,14 30,4 v 10 z"
     id="path21"
     inkscape:connector-curvature="0"
     style="fill:#ffffff;fill-rule:evenodd" />
  <path
     d="m 30,14 10,9.959 V 14 Z"
     id="path23"
     style="opacity:0.2;fill:url(#b);fill-rule:evenodd"
     inkscape:connector-curvature="0" />
  <path
     style="fill:#000000;fill-opacity:1;opacity:0.2"
     d="M 8 43 L 8 44 L 40 44 L 40 43 L 8 43 z "
     id="path4517" />
  <g
     transform="translate(-405.71624,-512.79073)"
     id="g7"
     style="fill:#313437;fill-opacity:1">
    <g
       transform="matrix(0.75,0,0,0.74999813,421.46429,-241.22897)"
       id="g5"
       style="fill:#313437;fill-opacity:1">
      <path
         inkscape:connector-curvature="0"
         style="fill:#313437;fill-opacity:1;stroke:none"
         d="M 8,3 A 8.9999925,9.0000023 0 0 0 0.12304688,7.6679688 c 0.12894502,0.363749 0.35743875,0.6766037 0.65625,0.9082031 A 7.9999935,8.0000021 0 0 1 8,4 3.9999996,4.0000004 0 0 0 4,8 3.9999996,4.0000004 0 0 0 8,12 3.9999996,4.0000004 0 0 0 12,8 3.9999996,4.0000004 0 0 0 8.3496094,4.0175781 7.9999935,8.0000021 0 0 1 15.220703,8.5761719 C 15.522218,8.3424725 15.752612,8.0260772 15.880859,7.6582031 A 8.9999925,9.0000023 0 0 0 8,3 Z M 8,5 A 2.9999996,3.0000002 0 0 1 11,8 2.9999996,3.0000002 0 0 1 8,11 2.9999996,3.0000002 0 0 1 5,8 2.9999996,3.0000002 0 0 1 8,5 Z M 8,6 A 1.9999999,2.0000003 0 0 0 6,8 1.9999999,2.0000003 0 0 0 8,10 1.9999999,2.0000003 0 0 0 10,8 1.9999999,2.0000003 0 0 0 9.9101562,7.4121094 0.9999999,1 0 0 1 9,8 0.9999999,1 0 0 1 8,7 0.9999999,1 0 0 1 8.5898438,6.0898438 1.9999999,2.0000003 0 0 0 8,6 Z"
         transform="matrix(1.3333333,0,0,1.3333367,0.33333333,1030.6955)"
         class="ColorScheme-Text"
         id="rect4170" />
    </g>
  </g>
</svg>
