<?xml version="1.0" encoding="UTF-8" standalone="no"?>
<svg
   xmlns:dc="http://purl.org/dc/elements/1.1/"
   xmlns:cc="http://creativecommons.org/ns#"
   xmlns:rdf="http://www.w3.org/1999/02/22-rdf-syntax-ns#"
   xmlns:svg="http://www.w3.org/2000/svg"
   xmlns="http://www.w3.org/2000/svg"
   xmlns:xlink="http://www.w3.org/1999/xlink"
   xmlns:sodipodi="http://sodipodi.sourceforge.net/DTD/sodipodi-0.dtd"
   xmlns:inkscape="http://www.inkscape.org/namespaces/inkscape"
   height="48"
   width="48"
   version="1"
   id="svg16"
   sodipodi:docname="eclipse.svg"
   inkscape:version="0.92.1 r15371">
  <metadata
     id="metadata22">
    <rdf:RDF>
      <cc:Work
         rdf:about="">
        <dc:format>image/svg+xml</dc:format>
        <dc:type
           rdf:resource="http://purl.org/dc/dcmitype/StillImage" />
      </cc:Work>
    </rdf:RDF>
  </metadata>
  <defs
     id="defs20">
    <linearGradient
       inkscape:collect="always"
       id="linearGradient4511">
      <stop
         style="stop-color:#ff8f23;stop-opacity:1"
         offset="0"
         id="stop4507" />
      <stop
         style="stop-color:#ffc48b;stop-opacity:1"
         offset="1"
         id="stop4509" />
    </linearGradient>
    <linearGradient
       inkscape:collect="always"
       id="linearGradient4503">
      <stop
         style="stop-color:#443872;stop-opacity:1"
         offset="0"
         id="stop4499" />
      <stop
         style="stop-color:#8679bb;stop-opacity:1"
         offset="1"
         id="stop4501" />
    </linearGradient>
    <linearGradient
       inkscape:collect="always"
       xlink:href="#linearGradient4503"
       id="linearGradient4505"
       x1="-44"
       y1="-26"
       x2="-4"
       y2="-26"
       gradientUnits="userSpaceOnUse" />
    <linearGradient
       inkscape:collect="always"
       xlink:href="#linearGradient4511"
       id="linearGradient4513"
       x1="-44"
       y1="-22"
       x2="-4"
       y2="-22"
       gradientUnits="userSpaceOnUse" />
  </defs>
  <sodipodi:namedview
     pagecolor="#ffffff"
     bordercolor="#666666"
     borderopacity="1"
     objecttolerance="10"
     gridtolerance="10"
     guidetolerance="10"
     inkscape:pageopacity="0"
     inkscape:pageshadow="2"
     inkscape:window-width="1600"
     inkscape:window-height="808"
     id="namedview18"
     showgrid="false"
     inkscape:zoom="13.01"
     inkscape:cx="24"
     inkscape:cy="20.925442"
     inkscape:window-x="0"
     inkscape:window-y="0"
     inkscape:window-maximized="1"
     inkscape:current-layer="svg16" />
  <rect
     ry="20"
     rx="20"
     transform="matrix(0,-1,-1,0,0,0)"
     height="40"
     width="40"
     y="-42"
     x="-44"
     id="rect2"
     style="fill:url(#linearGradient4513);fill-opacity:1" />
  <path
     style="fill:#000000;fill-opacity:1;opacity:0.2"
     d="M 2.0117188 23.5 C 2.007647 23.666859 2 23.832126 2 24 C 2 35.08 10.92 44 22 44 C 33.08 44 42 35.08 42 24 C 42 23.832126 41.992353 23.666859 41.988281 23.5 C 41.72361 34.346137 32.912126 43 22 43 C 11.087874 43 2.2763904 34.346137 2.0117188 23.5 z "
     id="rect4515" />
  <rect
     transform="matrix(0,-1,-1,0,0,0)"
     rx="20"
     ry="20"
     height="40"
     width="40"
     y="-46"
     x="-44"
     id="rect8"
     style="fill:url(#linearGradient4505);fill-opacity:1" />
  <path
     opacity=".8"
     fill="#fff"
     d="m7.2773 17c-0.2424 0.652-0.4503 1.318-0.625 2h38.7c-0.175-0.682-0.383-1.348-0.625-2h-37.45zm-1.0527 4c-0.0978 0.656-0.1643 1.324-0.1973 2h39.95c-0.033-0.676-0.1-1.344-0.198-2h-39.554zm-0.1973 4c0.033 0.676 0.0995 1.344 0.1973 2h39.554c0.098-0.656 0.165-1.324 0.198-2h-39.95zm0.625 4c0.1747 0.682 0.3826 1.348 0.625 2h37.45c0.242-0.652 0.45-1.318 0.625-2h-38.7z"
     id="path10"
     style="opacity:1" />
  <path
     style="fill:#000000;fill-opacity:1;opacity:0.2"
     d="M 6.0117188 23.5 C 6.007647 23.666859 6 23.832126 6 24 C 6 35.08 14.92 44 26 44 C 37.08 44 46 35.08 46 24 C 46 23.832126 45.992353 23.666859 45.988281 23.5 C 45.72361 34.346137 36.912126 43 26 43 C 15.087874 43 6.2763904 34.346137 6.0117188 23.5 z "
     id="rect4517" />
</svg>
