<?xml version="1.0" encoding="UTF-8" standalone="no"?>
<svg
   xmlns:dc="http://purl.org/dc/elements/1.1/"
   xmlns:cc="http://creativecommons.org/ns#"
   xmlns:rdf="http://www.w3.org/1999/02/22-rdf-syntax-ns#"
   xmlns:svg="http://www.w3.org/2000/svg"
   xmlns="http://www.w3.org/2000/svg"
   xmlns:xlink="http://www.w3.org/1999/xlink"
   xmlns:sodipodi="http://sodipodi.sourceforge.net/DTD/sodipodi-0.dtd"
   xmlns:inkscape="http://www.inkscape.org/namespaces/inkscape"
   width="48"
   height="48"
   x="0"
   y="0"
   version="1.1"
   xml:space="preserve"
   id="svg38"
   sodipodi:docname="flameshot.svg"
   inkscape:version="0.92.3 (2405546, 2018-03-11)"><metadata
   id="metadata44"><rdf:RDF><cc:Work
       rdf:about=""><dc:format>image/svg+xml</dc:format><dc:type
         rdf:resource="http://purl.org/dc/dcmitype/StillImage" /></cc:Work></rdf:RDF></metadata><defs
   id="defs42"><linearGradient
     inkscape:collect="always"
     id="linearGradient993"><stop
       style="stop-color:#000000;stop-opacity:1;"
       offset="0"
       id="stop989" /><stop
       style="stop-color:#000000;stop-opacity:0;"
       offset="1"
       id="stop991" /></linearGradient><linearGradient
     inkscape:collect="always"
     id="linearGradient903"><stop
       style="stop-color:#e90662;stop-opacity:1"
       offset="0"
       id="stop899" /><stop
       style="stop-color:#ef5392;stop-opacity:1"
       offset="1"
       id="stop901" /></linearGradient><linearGradient
     inkscape:collect="always"
     id="linearGradient895"><stop
       style="stop-color:#ff6905;stop-opacity:1;"
       offset="0"
       id="stop891" /><stop
       style="stop-color:#ff964f;stop-opacity:1"
       offset="1"
       id="stop893" /></linearGradient><linearGradient
     inkscape:collect="always"
     id="linearGradient887"><stop
       style="stop-color:#ffb429;stop-opacity:1"
       offset="0"
       id="stop883" /><stop
       style="stop-color:#ffe569;stop-opacity:1"
       offset="1"
       id="stop885" /></linearGradient><linearGradient
     inkscape:collect="always"
     id="linearGradient879"><stop
       style="stop-color:#7c1990;stop-opacity:1"
       offset="0"
       id="stop875" /><stop
       style="stop-color:#b34dc6;stop-opacity:1"
       offset="1"
       id="stop877" /></linearGradient><linearGradient
     inkscape:collect="always"
     xlink:href="#linearGradient887"
     id="linearGradient889"
     x1="18.523947"
     y1="27.364367"
     x2="13.586055"
     y2="19.292585"
     gradientUnits="userSpaceOnUse" /><linearGradient
     inkscape:collect="always"
     xlink:href="#linearGradient895"
     id="linearGradient897"
     x1="24.532215"
     y1="25.176964"
     x2="20.879965"
     y2="17.674757"
     gradientUnits="userSpaceOnUse" /><linearGradient
     inkscape:collect="always"
     xlink:href="#linearGradient903"
     id="linearGradient905"
     x1="30.916151"
     y1="31.236982"
     x2="25.555162"
     y2="19.763018"
     gradientUnits="userSpaceOnUse" /><linearGradient
     inkscape:collect="always"
     xlink:href="#linearGradient879"
     id="linearGradient972"
     gradientUnits="userSpaceOnUse"
     x1="47.731686"
     y1="63.774052"
     x2="23.752869"
     y2="-2.1747572"
     gradientTransform="matrix(0.625,0,0,0.625,4,4)" /><linearGradient
     inkscape:collect="always"
     xlink:href="#linearGradient993"
     id="linearGradient995"
     x1="17.106403"
     y1="12"
     x2="39.708866"
     y2="34.602463"
     gradientUnits="userSpaceOnUse" /><linearGradient
     inkscape:collect="always"
     xlink:href="#linearGradient993"
     id="linearGradient997"
     x1="27.240868"
     y1="10"
     x2="43.375519"
     y2="26.134649"
     gradientUnits="userSpaceOnUse" /><linearGradient
     inkscape:collect="always"
     xlink:href="#linearGradient993"
     id="linearGradient999"
     x1="38"
     y1="14"
     x2="45.740528"
     y2="21.740528"
     gradientUnits="userSpaceOnUse" /></defs><sodipodi:namedview
   pagecolor="#ffffff"
   bordercolor="#666666"
   borderopacity="1"
   objecttolerance="10"
   gridtolerance="10"
   guidetolerance="10"
   inkscape:pageopacity="0"
   inkscape:pageshadow="2"
   inkscape:window-width="1920"
   inkscape:window-height="1020"
   id="namedview40"
   showgrid="false"
   inkscape:zoom="9.2"
   inkscape:cx="-18.990654"
   inkscape:cy="19.40979"
   inkscape:window-x="0"
   inkscape:window-y="30"
   inkscape:window-maximized="1"
   inkscape:current-layer="svg38" />
 
 <path
   style="fill:url(#linearGradient972);fill-opacity:1;stroke-width:0.625"
   d="M 24,4 C 35.0625,4 44,12.9375 44,24 44,35.0625 35.0625,44 24,44 12.9375,44 4,35.0625 4,24 4,12.9375 12.9375,4 24,4 Z"
   id="path8"
   inkscape:connector-curvature="0" />
 
 
 
 
 
 
 
 
 
 
<path
   style="stroke-width:0.625;opacity:0.2"
   d="M 4.0117188,23.5 C 4.0076391,23.666609 4,23.832391 4,24 c 0,11.0625 8.9375,20 20,20 11.0625,0 20,-8.9375 20,-20 0,-0.167609 -0.0076,-0.333391 -0.01172,-0.5 C 43.723099,34.329935 34.894891,43 24,43 13.105109,43 4.2769007,34.329935 4.0117188,23.5 Z"
   id="path2"
   inkscape:connector-curvature="0" /><path
   style="opacity:0.2;fill:url(#linearGradient999);fill-opacity:1;stroke:none;stroke-width:2;stroke-linecap:round;stroke-linejoin:round;stroke-miterlimit:4;stroke-dasharray:none;stroke-dashoffset:0;stroke-opacity:1;paint-order:normal"
   d="M 38 14 L 37.189453 17.634766 L 35.029297 22.888672 L 33.984375 23.933594 L 33.71875 23.667969 L 28.769531 28.619141 L 28.574219 28.423828 L 23.720703 29.923828 L 21.865234 31.070312 C 19.501316 32.400197 16.944455 33.40851 15.9375 37 L 22.90625 43.970703 C 23.268279 43.990123 23.633046 44 24 44 C 35.0625 44 44 35.0625 44 24 C 44 22.436891 43.802502 20.923882 43.464844 19.464844 L 38 14 z "
   id="rect923" /><path
   style="fill:url(#linearGradient905);fill-opacity:1"
   d="M 25.828734,21.418266 C 37.549766,19.142342 38,14 38,14 38,14 37.07695,29.936901 28.511074,30.780067 17.656112,31.848555 16.034366,37 16.034366,37 c 0,0 -0.222009,-1.653597 0.462531,-3.81154 1.370183,-4.319363 4.736283,-10.877855 9.331837,-11.770194 z"
   id="path16" /><path
   style="opacity:0.2;fill:url(#linearGradient997);fill-opacity:1;stroke:none;stroke-width:2;stroke-linecap:round;stroke-linejoin:round;stroke-miterlimit:4;stroke-dasharray:none;stroke-dashoffset:0;stroke-opacity:1;paint-order:normal"
   d="M 27.240234 10 L 27.707031 15.003906 L 26.425781 19.988281 L 23.158203 23.167969 L 20.730469 26.126953 L 19.714844 27.759766 C 18.154725 30.729061 15.050925 33.182589 16.035156 37 L 23.011719 43.976562 C 23.339016 43.992411 23.668709 44 24 44 C 34.185099 44 42.562303 36.421235 43.828125 26.585938 L 27.240234 10 z "
   id="rect913" /><path
   style="fill:url(#linearGradient897);fill-opacity:1"
   d="M 18.381165,21.013053 C 28.134138,16.827664 27.240868,10 27.240868,10 c 0,0 5.384665,13.928841 -2.687652,17.176114 C 15.535605,30.803651 15.936851,37 15.936851,37 c 0,0 -3.283736,-13.528812 2.444314,-15.986947 z"
   id="path22" /><path
   style="opacity:0.2;fill:url(#linearGradient995);fill-opacity:1;stroke:none;stroke-width:2;stroke-linecap:round;stroke-linejoin:round;stroke-miterlimit:4;stroke-dasharray:none;stroke-dashoffset:0;stroke-opacity:1;paint-order:normal"
   d="M 17.105469 12 L 17.572266 20.623047 L 18.013672 25.390625 L 14.435547 28.96875 L 14.259766 32.146484 L 15.9375 37 L 22.908203 43.970703 C 23.269589 43.990053 23.633707 44 24 44 C 30.839286 44 36.857872 40.57785 40.462891 35.355469 L 17.105469 12 z "
   id="rect907" /><path
   style="fill:url(#linearGradient889);fill-opacity:1"
   d="M 12.875466,24.501399 C 18.334206,17.153565 17.106404,12 17.106404,12 c 0,0 6.993799,8.952164 2.234721,14.496835 C 14.024745,32.690807 16.017885,37 16.017885,37 c 0,0 -6.2733462,-8.284154 -3.142419,-12.498601 z"
   id="path28" /></svg>