<?xml version="1.0" encoding="UTF-8" standalone="no"?>
<svg
   xmlns:dc="http://purl.org/dc/elements/1.1/"
   xmlns:cc="http://creativecommons.org/ns#"
   xmlns:rdf="http://www.w3.org/1999/02/22-rdf-syntax-ns#"
   xmlns:svg="http://www.w3.org/2000/svg"
   xmlns="http://www.w3.org/2000/svg"
   xmlns:xlink="http://www.w3.org/1999/xlink"
   xmlns:sodipodi="http://sodipodi.sourceforge.net/DTD/sodipodi-0.dtd"
   xmlns:inkscape="http://www.inkscape.org/namespaces/inkscape"
   width="48"
   height="48"
   version="1.1"
   id="svg32"
   sodipodi:docname="github-desktop.svg"
   inkscape:version="0.92.3 (2405546, 2018-03-11)">
  <metadata
     id="metadata36">
    <rdf:RDF>
      <cc:Work
         rdf:about="">
        <dc:format>image/svg+xml</dc:format>
        <dc:type
           rdf:resource="http://purl.org/dc/dcmitype/StillImage" />
        <dc:title />
      </cc:Work>
    </rdf:RDF>
  </metadata>
  <sodipodi:namedview
     pagecolor="#ffffff"
     bordercolor="#666666"
     borderopacity="1"
     objecttolerance="10"
     gridtolerance="10"
     guidetolerance="10"
     inkscape:pageopacity="0"
     inkscape:pageshadow="2"
     inkscape:window-width="1920"
     inkscape:window-height="1026"
     id="namedview34"
     showgrid="false"
     inkscape:zoom="8.56"
     inkscape:cx="6.4766355"
     inkscape:cy="19.1024"
     inkscape:window-x="0"
     inkscape:window-y="30"
     inkscape:window-maximized="1"
     inkscape:current-layer="svg32">
    <inkscape:grid
       type="xygrid"
       id="grid858" />
  </sodipodi:namedview>
  <defs
     id="defs18">
    <linearGradient
       inkscape:collect="always"
       id="linearGradient904">
      <stop
         style="stop-color:#000000;stop-opacity:1;"
         offset="0"
         id="stop900" />
      <stop
         style="stop-color:#000000;stop-opacity:0;"
         offset="1"
         id="stop902" />
    </linearGradient>
    <linearGradient
       inkscape:collect="always"
       id="linearGradient872">
      <stop
         style="stop-color:#cfb8e9;stop-opacity:1"
         offset="0"
         id="stop868" />
      <stop
         style="stop-color:#ebebeb;stop-opacity:1"
         offset="1"
         id="stop870" />
    </linearGradient>
    <linearGradient
       inkscape:collect="always"
       id="linearGradient864">
      <stop
         style="stop-color:#4e277b;stop-opacity:1"
         offset="0"
         id="stop860" />
      <stop
         style="stop-color:#a449af;stop-opacity:1"
         offset="1"
         id="stop862" />
    </linearGradient>
    <linearGradient
       inkscape:collect="always"
       xlink:href="#linearGradient864"
       id="linearGradient866"
       x1="31"
       y1="43"
       x2="18"
       y2="5"
       gradientUnits="userSpaceOnUse" />
    <linearGradient
       inkscape:collect="always"
       xlink:href="#linearGradient872"
       id="linearGradient874"
       x1="36"
       y1="50"
       x2="22"
       y2="4"
       gradientUnits="userSpaceOnUse" />
    <linearGradient
       inkscape:collect="always"
       xlink:href="#linearGradient904"
       id="linearGradient906"
       x1="14.048828"
       y1="29.341797"
       x2="18.852976"
       y2="34.145943"
       gradientUnits="userSpaceOnUse" />
    <linearGradient
       inkscape:collect="always"
       xlink:href="#linearGradient904"
       id="linearGradient908"
       x1="14.388672"
       y1="36.152344"
       x2="18.938721"
       y2="40.702393"
       gradientUnits="userSpaceOnUse" />
    <linearGradient
       inkscape:collect="always"
       xlink:href="#linearGradient904"
       id="linearGradient910"
       x1="33.494141"
       y1="13.048828"
       x2="41.745331"
       y2="21.30002"
       gradientUnits="userSpaceOnUse" />
  </defs>
  <path
     d="M 44,24 A 20,20 0 0 1 24,44 20,20 0 0 1 4,24 20,20 0 0 1 24,4 20,20 0 0 1 44,24"
     id="path20"
     style="color:#000000;fill:url(#linearGradient874);fill-opacity:1;fill-rule:evenodd;stroke-width:2"
     inkscape:connector-curvature="0" />
  <path
     inkscape:connector-curvature="0"
     style="clip-rule:evenodd;fill:url(#linearGradient866);fill-opacity:1;fill-rule:evenodd;stroke-width:2.25"
     d="m 24,6 c -0.524686,0 -1.041428,0.036142 -1.554688,0.080078 a 18,18 0 0 0 -0.949218,0.1152344 c -0.263579,0.036739 -0.527323,0.071125 -0.78711,0.1191406 a 18,18 0 0 0 -1.097656,0.2460938 c -0.20369,0.051091 -0.408511,0.098288 -0.609375,0.15625 a 18,18 0 0 0 -1.130859,0.375 c -0.185178,0.067121 -0.372401,0.1301585 -0.554688,0.203125 A 18,18 0 0 0 16.189453,7.8007812 C 16.029521,7.8780084 15.866237,7.9494743 15.708984,8.03125 a 18,18 0 0 0 -1.091796,0.6269531 c -0.14875,0.09114 -0.301413,0.1761843 -0.447266,0.2714844 a 18,18 0 0 0 -0.980469,0.7011719 c -0.159043,0.1198238 -0.32364,0.2325055 -0.478515,0.3574218 a 18,18 0 0 0 -0.833985,0.7324218 c -0.165784,0.151426 -0.338041,0.295666 -0.498047,0.453125 a 18,18 0 0 0 -0.789062,0.845703 c -0.132459,0.148172 -0.272831,0.28888 -0.400391,0.441407 A 18,18 0 0 0 9.2050781,13.755859 18,18 0 0 0 9.140625,13.841797 18,18 0 0 0 6.0917969,22.1875 C 6.0322892,22.783434 6,23.388332 6,24 c 0,0.437322 0.021132,0.869481 0.048828,1.298828 a 18,18 0 0 0 12.310547,15.779297 c 0.488986,-0.101106 0.685547,-0.496257 0.685547,-0.855469 0,-0.4275 -0.02148,-1.945625 -0.02148,-3.453125 -4.522501,0.8325 -5.192735,-1.102734 -5.552735,-2.115234 -0.2025,-0.5175 -1.080703,-2.013906 -1.845703,-2.441406 -0.63,-0.3375 -1.530937,-1.17086 -0.02344,-1.19336 1.417501,-0.0225 2.430079,1.305703 2.767579,1.845703 1.62,2.7225 3.70914,1.857266 4.74414,1.384766 0.1575,-1.17 0.628985,-1.856641 1.146485,-2.306641 -4.005,-0.45 -8.189453,-2.003671 -8.189454,-8.888671 0,-1.9575 1.19625,-3.976329 2.34375,-5.236329 -0.179999,-0.45 -0.808359,-2.294531 0.181641,-4.769531 0,0 1.506719,-0.672969 4.949219,1.644531 1.44,-0.405 2.97,-0.607421 4.5,-0.607421 1.53,0 3.06,0.202421 4.5,0.607421 3.4425,-2.34 4.949219,-1.644531 4.949219,-1.644531 0.99,2.475 0.36164,4.319531 0.18164,4.769531 1.1475,1.26 2.34375,3.256329 2.34375,5.236329 0,6.907499 -4.108281,8.438671 -8.113281,8.888671 0.6525,0.5625 1.105469,1.642579 1.105469,3.330079 0,2.407499 -0.02344,4.341718 -0.02344,4.949218 0,0.334337 0.229584,0.708369 0.679688,0.837891 A 18,18 0 0 0 42,24 c 0,-0.524686 -0.03614,-1.041428 -0.08008,-1.554688 a 18,18 0 0 0 -0.115234,-0.949218 c -0.03674,-0.263579 -0.07113,-0.527323 -0.119141,-0.78711 a 18,18 0 0 0 -0.246094,-1.097656 c -0.05109,-0.20369 -0.09829,-0.408511 -0.15625,-0.609375 a 18,18 0 0 0 -0.375,-1.130859 c -0.06712,-0.185178 -0.130158,-0.372401 -0.203125,-0.554688 a 18,18 0 0 0 -0.505859,-1.126953 c -0.07723,-0.159932 -0.148693,-0.323216 -0.230469,-0.480469 a 18,18 0 0 0 -0.626953,-1.091796 c -0.09114,-0.14875 -0.176184,-0.301413 -0.271485,-0.447266 A 18,18 0 0 0 38.369139,13.189453 C 38.249315,13.03041 38.136633,12.865813 38.011717,12.710938 A 18,18 0 0 0 37.279295,11.876953 C 37.127869,11.711169 36.983629,11.538912 36.82617,11.378906 A 18,18 0 0 0 35.980467,10.589844 C 35.832295,10.457385 35.691587,10.317013 35.53906,10.189453 A 18,18 0 0 0 34.244141,9.2050781 c -0.02754,-0.019098 -0.05243,-0.041599 -0.08008,-0.060547 A 18,18 0 0 0 34.158203,9.140625 18,18 0 0 0 25.8125,6.0917969 C 25.216566,6.0322892 24.611668,6 24,6 Z"
     id="path2" />
  <path
     inkscape:connector-curvature="0"
     style="opacity:0.3;fill:url(#linearGradient910);fill-opacity:1;stroke:none;stroke-width:1;stroke-linecap:round;stroke-linejoin:round;stroke-miterlimit:4;stroke-dasharray:none;stroke-dashoffset:0;stroke-opacity:1;paint-order:normal"
     d="m 33.494141,13.048828 c 0.99,2.475 0.36164,4.319531 0.18164,4.769531 1.1475,1.26 2.34375,3.256328 2.34375,5.236329 0,6.907499 -4.108281,8.438671 -8.113281,8.888671 0.6525,0.5625 1.105469,1.642579 1.105469,3.330079 0,2.407499 -0.02344,4.341718 -0.02344,4.949218 0,0.334337 0.229584,0.708369 0.679688,0.837891 A 18,18 0 0 0 42,24 c 0,-0.524686 -0.03614,-1.041428 -0.08008,-1.554688 a 18,18 0 0 0 -0.115234,-0.949218 c -0.0075,-0.05359 -0.01603,-0.106586 -0.02344,-0.160156 z"
     id="rect880" />
  <path
     inkscape:connector-curvature="0"
     style="opacity:0.3;fill:url(#linearGradient906);fill-opacity:1;stroke:none;stroke-width:0.59334683;stroke-linecap:round;stroke-linejoin:round;stroke-miterlimit:4;stroke-dasharray:none;stroke-dashoffset:0;stroke-opacity:1;paint-order:normal"
     d="m 14.050781,29.314453 -0.002,0.02734 4.957031,4.955078 c 0.03408,-0.01529 0.07532,-0.03222 0.107422,-0.04687 0.1575,-1.17 0.628985,-1.856641 1.146485,-2.306641 -2.281384,-0.256335 -4.617751,-0.874902 -6.208985,-2.628906 z"
     id="rect884" />
  <path
     inkscape:connector-curvature="0"
     style="opacity:0.3;fill:url(#linearGradient908);fill-opacity:1;stroke:none;stroke-width:0.59334683;stroke-linecap:round;stroke-linejoin:round;stroke-miterlimit:4;stroke-dasharray:none;stroke-dashoffset:0;stroke-opacity:1;paint-order:normal"
     d="m 14.388672,36.152344 0.01172,0.07422 4.496093,4.496094 c 0.09904,-0.151508 0.148438,-0.32932 0.148438,-0.5 0,-0.4275 -0.02148,-1.945625 -0.02148,-3.453125 -2.602813,0.479125 -3.908699,0.03368 -4.634766,-0.617187 z"
     id="rect887" />
  <path
     style="color:#000000;fill:#000000;fill-opacity:1;fill-rule:evenodd;stroke-width:2;opacity:0.2"
     d="M 43.978516 23.417969 A 20 20 0 0 1 24 43 A 20 20 0 0 1 4.0214844 23.582031 A 20 20 0 0 0 4 24 A 20 20 0 0 0 24 44 A 20 20 0 0 0 44 24 A 20 20 0 0 0 43.978516 23.417969 z "
     id="path834" />
</svg>
