<?xml version="1.0" encoding="UTF-8" standalone="no"?>
<!-- Created with Inkscape (http://www.inkscape.org/) -->

<svg
   xmlns:dc="http://purl.org/dc/elements/1.1/"
   xmlns:cc="http://creativecommons.org/ns#"
   xmlns:rdf="http://www.w3.org/1999/02/22-rdf-syntax-ns#"
   xmlns:svg="http://www.w3.org/2000/svg"
   xmlns="http://www.w3.org/2000/svg"
   xmlns:xlink="http://www.w3.org/1999/xlink"
   xmlns:sodipodi="http://sodipodi.sourceforge.net/DTD/sodipodi-0.dtd"
   xmlns:inkscape="http://www.inkscape.org/namespaces/inkscape"
   width="48"
   version="1.1"
   height="48"
   id="svg21"
   sodipodi:docname="gnome-sound-recorder.svg"
   inkscape:version="0.92.3 (2405546, 2018-03-11)">
  <sodipodi:namedview
     pagecolor="#ffffff"
     bordercolor="#666666"
     borderopacity="1"
     objecttolerance="10"
     gridtolerance="10"
     guidetolerance="10"
     inkscape:pageopacity="0"
     inkscape:pageshadow="2"
     inkscape:window-width="1920"
     inkscape:window-height="1020"
     id="namedview23"
     showgrid="false"
     inkscape:zoom="9.28"
     inkscape:cx="24"
     inkscape:cy="18.531658"
     inkscape:window-x="0"
     inkscape:window-y="30"
     inkscape:window-maximized="1"
     inkscape:current-layer="layer1">
    <inkscape:grid
       type="xygrid"
       id="grid4522" />
  </sodipodi:namedview>
  <defs
     id="defs3811">
    <linearGradient
       inkscape:collect="always"
       id="linearGradient878">
      <stop
         style="stop-color:#ffffff;stop-opacity:1;"
         offset="0"
         id="stop874" />
      <stop
         style="stop-color:#ffffff;stop-opacity:0;"
         offset="1"
         id="stop876" />
    </linearGradient>
    <linearGradient
       inkscape:collect="always"
       id="linearGradient4571">
      <stop
         style="stop-color:#000000;stop-opacity:1;"
         offset="0"
         id="stop4567" />
      <stop
         style="stop-color:#000000;stop-opacity:0;"
         offset="1"
         id="stop4569" />
    </linearGradient>
    <linearGradient
       inkscape:collect="always"
       id="linearGradient4435">
      <stop
         style="stop-color:#c61423"
         id="stop4437" />
      <stop
         offset="1"
         style="stop-color:#dc2b41"
         id="stop4439" />
    </linearGradient>
    <linearGradient
       inkscape:collect="always"
       xlink:href="#linearGradient4435"
       id="linearGradient4507"
       x1="760.90027"
       y1="217.43791"
       x2="760.90027"
       y2="178.32153"
       gradientUnits="userSpaceOnUse" />
    <linearGradient
       inkscape:collect="always"
       xlink:href="#linearGradient4571"
       id="linearGradient872"
       x1="21.837776"
       y1="20.174006"
       x2="38.429989"
       y2="36.76622"
       gradientUnits="userSpaceOnUse" />
    <linearGradient
       inkscape:collect="always"
       xlink:href="#linearGradient878"
       id="linearGradient880"
       x1="757.92181"
       y1="185.54137"
       x2="764.24127"
       y2="220.74841"
       gradientUnits="userSpaceOnUse" />
  </defs>
  <metadata
     id="metadata3814">
    <rdf:RDF>
      <cc:Work
         rdf:about="">
        <dc:format>image/svg+xml</dc:format>
        <dc:type
           rdf:resource="http://purl.org/dc/dcmitype/StillImage" />
        <dc:title></dc:title>
      </cc:Work>
    </rdf:RDF>
  </metadata>
  <g
     inkscape:label="Layer 1"
     inkscape:groupmode="layer"
     id="layer1"
     transform="translate(-736.85718,-173.93361)">
    <circle
       style="opacity:1;vector-effect:none;fill:url(#linearGradient4507);fill-opacity:1;stroke:none;stroke-width:2.1365819;stroke-linecap:round;stroke-linejoin:round;stroke-miterlimit:4;stroke-dasharray:none;stroke-dashoffset:0;stroke-opacity:1"
       id="path4499"
       cx="760.85718"
       cy="197.93361"
       r="20" />
    <path
       inkscape:connector-curvature="0"
       style="opacity:0.2;vector-effect:none;fill:#000000;fill-opacity:1;stroke:none;stroke-width:2.1365819;stroke-linecap:round;stroke-linejoin:round;stroke-miterlimit:4;stroke-dasharray:none;stroke-dashoffset:0;stroke-opacity:1"
       d="m 780.8357,197.35158 a 20,20 0 0 1 -19.97852,19.58203 20,20 0 0 1 -19.97852,-19.41797 20,20 0 0 0 -0.0215,0.41797 20,20 0 0 0 20,20 20,20 0 0 0 20,-20 20,20 0 0 0 -0.0215,-0.58203 z"
       id="circle4511" />
    <path
       style="opacity:0.2;fill:url(#linearGradient872);fill-opacity:1;stroke:none;stroke-width:2.35541511;stroke-linecap:round;stroke-linejoin:round;stroke-miterlimit:4;stroke-dasharray:none;stroke-dashoffset:0;stroke-opacity:1;paint-order:normal"
       d="M 26.644531 12.982422 L 26.621094 12.996094 C 26.689504 13.055777 26.765913 13.105757 26.830078 13.169922 L 26.644531 12.982422 z M 26.830078 13.169922 C 27.553078 13.892922 28 14.892 28 16 L 28 24 C 28 26.216 26.216 28 24 28 C 21.784 28 20 26.216 20 24 L 20 22.96875 L 18 22 L 18 24 C 18 27.29 20.71 30 24 30 C 27.29 30 30 27.29 30 24 L 30 22 L 32 22 L 32 24 C 32 27.69 29.428 30.808938 26 31.710938 L 26 34 L 28 34 L 28 36 L 20 36 L 27.652344 43.652344 A 20 20 0 0 0 43.201172 29.539062 L 26.830078 13.169922 z M 17.070312 27.949219 L 16.869141 28.152344 L 22 33.28125 L 22 31.710938 C 19.905285 31.160983 18.134241 29.780595 17.070312 27.949219 z "
       transform="translate(736.85718,173.93361)"
       id="rect849" />
    <path
       style="color:#eff0f1;fill:url(#linearGradient880);fill-opacity:1;stroke:none;stroke-width:2"
       d="m 760.85718,185.93361 c -2.216,0 -4,1.784 -4,4 v 8 c 0,2.216 1.784,4 4,4 2.216,0 4,-1.784 4,-4 v -8 c 0,-2.216 -1.784,-4 -4,-4 z m -8,10 v 2 c 0,3.694 2.572,6.81094 6,7.71094 v 2.28906 h -2 v 2 h 8 v -2 h -2 v -2.28906 c 3.428,-0.902 6,-4.02094 6,-7.71094 v -2 h -2 v 2 c 0,3.29 -2.71,6 -6,6 -3.29,0 -6,-2.71 -6,-6 v -2 z"
       id="path6"
       inkscape:connector-curvature="0" />
  </g>
</svg>
