<?xml version="1.0" encoding="UTF-8" standalone="no"?>
<!-- Created with Inkscape (http://www.inkscape.org/) -->

<svg
   width="48"
   height="48"
   viewBox="0 0 12.7 12.7"
   version="1.1"
   id="svg4522"
   inkscape:version="1.1.1 (3bf5ae0d25, 2021-09-20)"
   sodipodi:docname="gnome-settings.svg"
   xmlns:inkscape="http://www.inkscape.org/namespaces/inkscape"
   xmlns:sodipodi="http://sodipodi.sourceforge.net/DTD/sodipodi-0.dtd"
   xmlns:xlink="http://www.w3.org/1999/xlink"
   xmlns="http://www.w3.org/2000/svg"
   xmlns:svg="http://www.w3.org/2000/svg"
   xmlns:rdf="http://www.w3.org/1999/02/22-rdf-syntax-ns#"
   xmlns:cc="http://creativecommons.org/ns#"
   xmlns:dc="http://purl.org/dc/elements/1.1/">
  <defs
     id="defs4516">
    <linearGradient
       inkscape:collect="always"
       id="linearGradient5254">
      <stop
         style="stop-color:#ebebeb;stop-opacity:1"
         offset="0"
         id="stop5250" />
      <stop
         style="stop-color:#c8c6c6;stop-opacity:1"
         offset="1"
         id="stop5252" />
    </linearGradient>
    <linearGradient
       inkscape:collect="always"
       xlink:href="#linearGradient5254"
       id="linearGradient4520"
       x1="24.001953"
       y1="4.0078125"
       x2="24.001953"
       y2="45.306507"
       gradientUnits="userSpaceOnUse" />
  </defs>
  <sodipodi:namedview
     id="base"
     pagecolor="#ffffff"
     bordercolor="#666666"
     borderopacity="1.0"
     inkscape:pageopacity="0.0"
     inkscape:pageshadow="2"
     inkscape:zoom="9.95"
     inkscape:cx="19.246231"
     inkscape:cy="24.522613"
     inkscape:document-units="px"
     inkscape:current-layer="layer1"
     showgrid="false"
     units="px"
     inkscape:window-width="1920"
     inkscape:window-height="1011"
     inkscape:window-x="0"
     inkscape:window-y="0"
     inkscape:window-maximized="1"
     inkscape:pagecheckerboard="0" />
  <metadata
     id="metadata4519">
    <rdf:RDF>
      <cc:Work
         rdf:about="">
        <dc:format>image/svg+xml</dc:format>
        <dc:type
           rdf:resource="http://purl.org/dc/dcmitype/StillImage" />
      </cc:Work>
    </rdf:RDF>
  </metadata>
  <g
     inkscape:label="Layer 1"
     inkscape:groupmode="layer"
     id="layer1"
     transform="translate(0,-284.29999)">
    <path
       style="color:#000000;fill:url(#linearGradient4520);fill-opacity:1;stroke-width:3;stroke-linejoin:round"
       d="m 24.001953,4.0078125 c -0.683743,-0.00123 -1.367685,0.033153 -2.048828,0.1015625 l -0.476563,3.0996094 c -1.262116,0.1889764 -2.499383,0.5184348 -3.6875,0.984375 L 15.832031,5.7539062 c -1.250229,0.5611843 -2.439325,1.2483754 -3.548828,2.0527344 l 1.134766,2.9121094 c -1.00171,0.793663 -1.909892,1.697933 -2.708985,2.695312 L 7.8164062,12.285156 C 7.0130548,13.396186 6.3253813,14.588253 5.765625,15.839844 L 8.1875,17.779297 C 7.9505803,18.373552 7.746611,18.980535 7.578125,19.597656 7.4198875,20.21576 7.2967941,20.842672 7.2089844,21.474609 l -3.09375,0.476563 c -0.1422161,1.361877 -0.1441599,2.735401 -0.00586,4.097656 l 3.0996094,0.47461 c 0.189033,1.262211 0.5204628,2.499292 0.9863281,3.6875 l -2.4414063,1.955078 c 0.5611983,1.25023 1.2503126,2.441301 2.0546876,3.550781 L 10.71875,34.580078 c 0.793675,1.001726 1.697919,1.911832 2.695312,2.710938 l -1.126953,2.892578 c 1.111055,0.803338 2.30114,1.491033 3.552735,2.050781 L 17.78125,39.8125 c 0.594237,0.236976 1.201221,0.438968 1.818359,0.607422 0.618088,0.158362 1.245003,0.281455 1.876953,0.36914 l 0.47461,3.095704 c 1.361884,0.14211 2.735369,0.1423 4.097656,0.0059 l 0.47461,-3.099609 c 1.262209,-0.188977 2.499274,-0.518511 3.6875,-0.984375 l 1.955078,2.439453 c 1.250228,-0.562847 2.441278,-1.250329 3.550781,-2.054688 L 34.580078,37.28125 c 1.00171,-0.793663 1.911845,-1.697933 2.710938,-2.695312 l 2.892578,1.126953 c 0.803353,-1.111068 1.491025,-2.303097 2.050781,-3.554688 L 39.8125,30.21875 c 0.236901,-0.594217 0.438934,-1.201238 0.607422,-1.818359 0.158249,-0.618104 0.281304,-1.244979 0.36914,-1.876953 l 3.09375,-0.47461 c 0.142224,-1.361915 0.145955,-2.735363 0.0078,-4.097656 l -3.101563,-0.47461 c -0.189051,-1.262173 -0.518506,-2.499292 -0.984374,-3.6875 l 2.441406,-1.957031 c -0.561196,-1.25023 -1.250314,-2.43931 -2.054688,-3.548828 L 37.28125,13.417969 C 36.487497,12.416356 35.583221,11.508052 34.585938,10.708984 L 35.712891,7.8164062 C 34.601785,7.0130677 33.409854,6.325373 32.158203,5.765625 L 30.21875,8.1875 C 29.624005,7.9505236 29.018062,7.7485317 28.400391,7.5800781 27.782303,7.4217159 27.155388,7.2986225 26.523438,7.2109375 L 26.048828,4.1152344 C 25.367887,4.0441793 24.685696,4.0090408 24.001953,4.0078125 Z M 24,14 A 9.9999997,9.9999997 0 0 1 34,24 9.9999997,9.9999997 0 0 1 24,34 9.9999997,9.9999997 0 0 1 14,24 9.9999997,9.9999997 0 0 1 24,14 Z"
       transform="matrix(0.26458333,0,0,0.26458333,0,284.29999)"
       id="path32" />
    <path
       style="color:#000000;opacity:0.2;fill:#080808;fill-opacity:1;stroke-width:3;stroke-linejoin:round"
       d="m 12.587891,7.5976562 c -0.100939,0.070359 -0.20502,0.1367282 -0.304688,0.2089844 l 0.84375,2.1640625 c 0.09744,-0.080829 0.191721,-0.1654682 0.291016,-0.2441406 z m 22.820312,0.00977 -0.822265,2.109375 c 0.09923,0.07951 0.193641,0.1644351 0.291015,0.2460937 L 35.712891,7.8164062 C 35.612972,7.7441642 35.509414,7.6777846 35.408203,7.6074219 Z M 24,13.007812 a 9.9999995,9.9999995 0 0 0 -10,10 9.9999995,9.9999995 0 0 0 0.02148,0.582032 A 9.9999996,9.9999996 0 0 1 24,14 9.9999996,9.9999996 0 0 1 33.978516,23.417969 9.9999995,9.9999995 0 0 0 34,23.007812 a 9.9999995,9.9999995 0 0 0 -10,-10 z m 17.902344,2.109376 -2.097656,1.68164 c 0.09933,0.253335 0.190457,0.510028 0.277343,0.767578 l 2.164063,-1.734375 c -0.108327,-0.241329 -0.225982,-0.478204 -0.34375,-0.714843 z m -35.792969,0.0059 c -0.1176608,0.237309 -0.2355584,0.474885 -0.34375,0.716797 l 2.140625,1.714844 c 0.088812,-0.257703 0.1802696,-0.514294 0.28125,-0.767579 z m 37.869141,8.345703 c -0.01329,0.530701 -0.04051,1.061296 -0.0957,1.589844 l -3.09375,0.474609 c -0.08784,0.631975 -0.210891,1.258849 -0.36914,1.876953 -0.168491,0.617122 -0.370521,1.224142 -0.607422,1.81836 l 0.28125,0.224609 c 0.119248,-0.347495 0.229336,-0.698054 0.326172,-1.052734 0.158249,-0.618104 0.281305,-1.24498 0.36914,-1.876953 l 3.09375,-0.47461 c 0.08953,-0.857362 0.116784,-1.719235 0.0957,-2.580078 z m -39.9589848,0.07422 c -0.020304,0.836105 0.00528,1.672942 0.089844,2.505859 l 3.0996094,0.47461 c 0.1486389,0.992492 0.3881317,1.968094 0.7089844,2.917968 L 8.1953125,29.21875 C 7.7294472,28.030542 7.3980174,26.793461 7.2089844,25.53125 L 4.109375,25.056641 c -0.051106,-0.50339 -0.07704,-1.008356 -0.089844,-1.513672 z m 37.8730468,8.341797 c -0.491171,0.99074 -1.060741,1.941346 -1.708984,2.83789 l -2.892578,-1.126953 c -0.799093,0.99738 -1.709228,1.90165 -2.710938,2.695313 l 0.291016,0.746093 c 0.885887,-0.73459 1.700039,-1.552658 2.419922,-2.451171 l 2.892578,1.126953 c 0.803353,-1.111068 1.491025,-2.303097 2.050781,-3.554688 z m -35.7949218,0.0059 -0.34375,0.275391 c 0.5611983,1.25023 1.2503126,2.441301 2.0546876,3.550781 L 10.71875,34.580078 c 0.714702,0.902052 1.522995,1.725532 2.404297,2.464844 l 0.291015,-0.746094 C 12.416669,35.499723 11.512425,34.589617 10.71875,33.587891 L 7.8085938,34.724609 C 7.1598296,33.829765 6.589823,32.879855 6.0976562,31.890625 Z m 24.1132818,6.925781 c -1.188227,0.465865 -2.425291,0.795399 -3.6875,0.984375 l -0.47461,3.09961 c -1.362287,0.134551 -2.735772,0.134297 -4.097656,-0.0078 l -0.47461,-3.095703 C 20.844613,39.70919 20.217697,39.586097 19.599609,39.427734 18.982471,39.259281 18.375487,39.057289 17.78125,38.820312 l -1.941406,2.421876 c -1.139043,-0.509412 -2.2241,-1.129722 -3.248047,-1.841797 l -0.304688,0.783203 c 1.111055,0.803338 2.30114,1.491033 3.552735,2.050781 L 17.78125,39.8125 c 0.594237,0.236976 1.201221,0.438968 1.818359,0.607422 0.618088,0.158362 1.245004,0.281456 1.876953,0.36914 l 0.47461,3.095704 c 1.361884,0.14211 2.735369,0.1423 4.097656,0.0059 l 0.47461,-3.099609 c 1.262208,-0.188977 2.499274,-0.518511 3.6875,-0.984375 l 1.955078,2.439453 c 1.250228,-0.562847 2.441278,-1.250329 3.550781,-2.054688 l -0.304688,-0.78125 c -1.023006,0.712931 -2.108174,1.333417 -3.246093,1.845703 z"
       transform="matrix(0.26458333,0,0,0.26458333,0,284.29999)"
       id="path4509" />
  </g>
</svg>
