<?xml version="1.0" encoding="UTF-8" standalone="no"?>
<svg
   xmlns:dc="http://purl.org/dc/elements/1.1/"
   xmlns:cc="http://creativecommons.org/ns#"
   xmlns:rdf="http://www.w3.org/1999/02/22-rdf-syntax-ns#"
   xmlns:svg="http://www.w3.org/2000/svg"
   xmlns="http://www.w3.org/2000/svg"
   xmlns:xlink="http://www.w3.org/1999/xlink"
   xmlns:sodipodi="http://sodipodi.sourceforge.net/DTD/sodipodi-0.dtd"
   xmlns:inkscape="http://www.inkscape.org/namespaces/inkscape"
   width="48"
   height="48"
   version="1.1"
   id="svg90"
   sodipodi:docname="gnumeric.svg"
   inkscape:version="0.92.1 r15371">
  <metadata
     id="metadata94">
    <rdf:RDF>
      <cc:Work
         rdf:about="">
        <dc:format>image/svg+xml</dc:format>
        <dc:type
           rdf:resource="http://purl.org/dc/dcmitype/StillImage" />
        <dc:title />
      </cc:Work>
    </rdf:RDF>
  </metadata>
  <sodipodi:namedview
     pagecolor="#ffffff"
     bordercolor="#666666"
     borderopacity="1"
     objecttolerance="10"
     gridtolerance="10"
     guidetolerance="10"
     inkscape:pageopacity="0"
     inkscape:pageshadow="2"
     inkscape:window-width="1600"
     inkscape:window-height="808"
     id="namedview92"
     showgrid="false"
     inkscape:zoom="6.56"
     inkscape:cx="-16.654277"
     inkscape:cy="29.6899"
     inkscape:window-x="0"
     inkscape:window-y="0"
     inkscape:window-maximized="1"
     inkscape:current-layer="svg90">
    <inkscape:grid
       type="xygrid"
       id="grid4632" />
  </sodipodi:namedview>
  <defs
     id="defs24">
    <linearGradient
       inkscape:collect="always"
       id="linearGradient4652">
      <stop
         style="stop-color:#000000;stop-opacity:1;"
         offset="0"
         id="stop4648" />
      <stop
         style="stop-color:#000000;stop-opacity:0;"
         offset="1"
         id="stop4650" />
    </linearGradient>
    <linearGradient
       id="a"
       y1="13.634"
       x1="29.06"
       y2="1.499"
       x2="29.01"
       gradientUnits="userSpaceOnUse"
       gradientTransform="matrix(-0.86954,-0.00282,0.00370125,0.65925,44.345125,3.893)">
      <stop
         stop-color="#63984b"
         id="stop2" />
      <stop
         offset="1"
         stop-color="#8fc278"
         id="stop4" />
    </linearGradient>
    <linearGradient
       id="b"
       y1="32"
       y2="2"
       gradientUnits="userSpaceOnUse"
       x2="0"
       gradientTransform="matrix(0.875,0,0,1,13,11)">
      <stop
         stop-color="#d8dcde"
         id="stop7" />
      <stop
         offset="1"
         stop-color="#f9fafb"
         id="stop9" />
    </linearGradient>
    <linearGradient
       inkscape:collect="always"
       xlink:href="#linearGradient4652"
       id="linearGradient4654"
       x1="10.37816"
       y1="11.495083"
       x2="27.441553"
       y2="28.558475"
       gradientUnits="userSpaceOnUse" />
  </defs>
  <path
     inkscape:connector-curvature="0"
     style="fill:url(#b);stroke-width:1.87082875;stroke-linejoin:bevel"
     id="path26"
     d="M 6,12 V 43 H 41 V 12 Z" />
  <path
     style="opacity:1;vector-effect:none;fill:#4d4d4d;fill-opacity:1;stroke:none;stroke-width:1.44581056;stroke-linecap:round;stroke-linejoin:round;stroke-miterlimit:4;stroke-dasharray:none;stroke-dashoffset:0;stroke-opacity:1"
     d="M 14 13 L 14 18 L 6 18 L 6 19 L 14 19 L 14 24 L 6 24 L 6 25 L 14 25 L 14 30 L 6 30 L 6 31 L 14 31 L 14 36 L 6 36 L 6 37 L 14 37 L 14 43 L 15 43 L 15 37 L 23 37 L 23 43 L 24 43 L 24 37 L 32 37 L 32 43 L 33 43 L 33 37 L 41 37 L 41 36 L 33 36 L 33 31 L 41 31 L 41 30 L 33 30 L 33 25 L 41 25 L 41 24 L 33 24 L 33 19 L 41 19 L 41 18 L 33 18 L 33 13 L 32 13 L 32 18 L 24 18 L 24 13 L 23 13 L 23 18 L 15 18 L 15 13 L 14 13 z M 15 19 L 23 19 L 23 24 L 15 24 L 15 19 z M 24 19 L 32 19 L 32 24 L 24 24 L 24 19 z M 15 25 L 23 25 L 23 30 L 15 30 L 15 25 z M 24 25 L 32 25 L 32 30 L 24 30 L 24 25 z M 15 31 L 23 31 L 23 36 L 15 36 L 15 31 z M 24 31 L 32 31 L 32 36 L 24 36 L 24 31 z "
     id="rect4589" />
  <path
     inkscape:connector-curvature="0"
     id="path4637"
     d="M 22.988281,6.609375 6,13 36,43 h 0.964844 L 41,38.964844 V 13 12.914062 Z"
     style="fill:url(#linearGradient4654);fill-opacity:1;stroke-width:1.87082875;stroke-linejoin:bevel;opacity:0.2" />
  <path
     inkscape:connector-curvature="0"
     style="fill:url(#a);stroke-width:1.87082875;stroke-linejoin:bevel"
     id="path28"
     d="m 6,5 h 35 v 8 H 6 Z" />
  <path
     style="fill:#000000;stroke-width:1.87082875;stroke-linejoin:bevel;fill-opacity:1;opacity:0.2"
     d="M 6 42 L 6 43 L 41 43 L 41 42 L 6 42 z "
     id="path4656" />
</svg>
