<?xml version="1.0" encoding="UTF-8" standalone="no"?>
<!-- Created with Sodipodi ("http://www.sodipodi.com/") -->

<svg
   xmlns:dc="http://purl.org/dc/elements/1.1/"
   xmlns:cc="http://creativecommons.org/ns#"
   xmlns:rdf="http://www.w3.org/1999/02/22-rdf-syntax-ns#"
   xmlns:svg="http://www.w3.org/2000/svg"
   xmlns="http://www.w3.org/2000/svg"
   xmlns:xlink="http://www.w3.org/1999/xlink"
   xmlns:sodipodi="http://sodipodi.sourceforge.net/DTD/sodipodi-0.dtd"
   xmlns:inkscape="http://www.inkscape.org/namespaces/inkscape"
   id="svg548"
   sodipodi:version="0.32"
   width="48pt"
   height="48pt"
   sodipodi:docname="kphotoalbum.svg"
   version="1.1"
   inkscape:version="0.92.3 (2405546, 2018-03-11)">
  <metadata
     id="metadata54">
    <rdf:RDF>
      <cc:Work
         rdf:about="">
        <dc:format>image/svg+xml</dc:format>
        <dc:type
           rdf:resource="http://purl.org/dc/dcmitype/StillImage" />
        <dc:title />
      </cc:Work>
    </rdf:RDF>
  </metadata>
  <defs
     id="defs550">
    <linearGradient
       inkscape:collect="always"
       id="linearGradient914">
      <stop
         style="stop-color:#000000;stop-opacity:1;"
         offset="0"
         id="stop910" />
      <stop
         style="stop-color:#000000;stop-opacity:0;"
         offset="1"
         id="stop912" />
    </linearGradient>
    <linearGradient
       inkscape:collect="always"
       id="linearGradient1136">
      <stop
         style="stop-color:#acacac;stop-opacity:1;"
         offset="0"
         id="stop1132" />
      <stop
         style="stop-color:#dedede;stop-opacity:1"
         offset="1"
         id="stop1134" />
    </linearGradient>
    <linearGradient
       inkscape:collect="always"
       id="linearGradient1128">
      <stop
         style="stop-color:#000000;stop-opacity:1;"
         offset="0"
         id="stop1124" />
      <stop
         style="stop-color:#000000;stop-opacity:0;"
         offset="1"
         id="stop1126" />
    </linearGradient>
    <linearGradient
       inkscape:collect="always"
       id="linearGradient1112">
      <stop
         style="stop-color:#000000;stop-opacity:1;"
         offset="0"
         id="stop1108" />
      <stop
         style="stop-color:#000000;stop-opacity:0;"
         offset="1"
         id="stop1110" />
    </linearGradient>
    <linearGradient
       inkscape:collect="always"
       id="linearGradient908">
      <stop
         style="stop-color:#393939;stop-opacity:1;"
         offset="0"
         id="stop904" />
      <stop
         style="stop-color:#747474;stop-opacity:1"
         offset="1"
         id="stop906" />
    </linearGradient>
    <linearGradient
       id="linearGradient674">
      <stop
         offset="0.000000"
         style="stop-color:#00b705;stop-opacity:1;"
         id="stop676" />
      <stop
         offset="1.000000"
         style="stop-color:#a7ff5d;stop-opacity:1;"
         id="stop675" />
    </linearGradient>
    <linearGradient
       id="linearGradient630">
      <stop
         style="stop-color:#eecd00;stop-opacity:1;"
         offset="0.000000"
         id="stop631" />
      <stop
         style="stop-color:#ffffff;stop-opacity:1;"
         offset="1.000000"
         id="stop632" />
    </linearGradient>
    <linearGradient
       xlink:href="#linearGradient630"
       id="linearGradient558"
       x1="85.992073"
       y1="173.55705"
       x2="63.659134"
       y2="125.2989"
       gradientUnits="userSpaceOnUse"
       spreadMethod="pad"
       gradientTransform="matrix(0.30537513,0,0,0.1240543,6.5217687,7.4694929)" />
    <linearGradient
       xlink:href="#linearGradient674"
       id="linearGradient673"
       x1="142.04353"
       y1="155.90663"
       x2="142.04335"
       y2="212.1675"
       gradientUnits="userSpaceOnUse"
       spreadMethod="pad"
       gradientTransform="matrix(0.21662529,0,0,0.18329833,6.7717524,5.7663029)" />
    <defs
       id="defs3">
      <linearGradient
         id="linearGradient126"
         x1="0"
         y1="0"
         x2="1"
         y2="0"
         xlink:href="#linearGradient674" />
      <linearGradient
         xlink:href="#linearGradient126"
         id="linearGradient129" />
    </defs>
    <linearGradient
       inkscape:collect="always"
       xlink:href="#linearGradient908"
       id="linearGradient910"
       x1="180.20979"
       y1="207.8"
       x2="180.20979"
       y2="28.436226"
       gradientUnits="userSpaceOnUse"
       gradientTransform="matrix(0.1938663,0,0,0.1938663,6.7843309,6.5706203)" />
    <linearGradient
       inkscape:collect="always"
       xlink:href="#linearGradient1112"
       id="linearGradient1114"
       x1="21.25631"
       y1="19.017113"
       x2="31.12155"
       y2="28.882353"
       gradientUnits="userSpaceOnUse" />
    <linearGradient
       inkscape:collect="always"
       xlink:href="#linearGradient1128"
       id="linearGradient1130"
       x1="36"
       y1="36"
       x2="44"
       y2="44"
       gradientUnits="userSpaceOnUse" />
    <linearGradient
       inkscape:collect="always"
       xlink:href="#linearGradient1136"
       id="linearGradient1138"
       x1="36"
       y1="52"
       x2="36"
       y2="48"
       gradientUnits="userSpaceOnUse" />
    <linearGradient
       inkscape:collect="always"
       xlink:href="#linearGradient914"
       id="linearGradient916"
       x1="15"
       y1="30"
       x2="19"
       y2="34"
       gradientUnits="userSpaceOnUse" />
    <linearGradient
       inkscape:collect="always"
       xlink:href="#linearGradient914"
       id="linearGradient918"
       x1="15"
       y1="15"
       x2="20"
       y2="20"
       gradientUnits="userSpaceOnUse" />
    <linearGradient
       inkscape:collect="always"
       xlink:href="#linearGradient914"
       id="linearGradient920"
       x1="36"
       y1="15"
       x2="41"
       y2="20"
       gradientUnits="userSpaceOnUse" />
    <linearGradient
       inkscape:collect="always"
       xlink:href="#linearGradient914"
       id="linearGradient922"
       x1="36"
       y1="29"
       x2="39"
       y2="32"
       gradientUnits="userSpaceOnUse" />
    <linearGradient
       inkscape:collect="always"
       xlink:href="#linearGradient914"
       id="linearGradient932"
       gradientUnits="userSpaceOnUse"
       x1="36"
       y1="29"
       x2="39"
       y2="32"
       gradientTransform="translate(8,16)" />
    <linearGradient
       inkscape:collect="always"
       xlink:href="#linearGradient914"
       id="linearGradient934"
       gradientUnits="userSpaceOnUse"
       x1="36"
       y1="15"
       x2="41"
       y2="20"
       gradientTransform="translate(8,18)" />
    <linearGradient
       inkscape:collect="always"
       xlink:href="#linearGradient914"
       id="linearGradient936"
       gradientUnits="userSpaceOnUse"
       x1="15"
       y1="15"
       x2="20"
       y2="20"
       gradientTransform="translate(15,18)" />
    <linearGradient
       inkscape:collect="always"
       xlink:href="#linearGradient914"
       id="linearGradient938"
       gradientUnits="userSpaceOnUse"
       x1="15"
       y1="30"
       x2="19"
       y2="34"
       gradientTransform="translate(15,16)" />
  </defs>
  <sodipodi:namedview
     id="base"
     showgrid="true"
     snaptogrid="false"
     inkscape:zoom="9.01"
     inkscape:cx="52.31056"
     inkscape:cy="27.462689"
     inkscape:window-width="1920"
     inkscape:window-height="1020"
     inkscape:window-x="0"
     inkscape:window-y="30"
     inkscape:window-maximized="1"
     inkscape:current-layer="svg548">
    <inkscape:grid
       type="xygrid"
       id="grid1075" />
  </sodipodi:namedview>
  <rect
     style="font-size:12px;fill:url(#linearGradient910);fill-opacity:1;fill-rule:evenodd;stroke-width:0.19386631pt"
     id="rect567"
     width="36"
     height="36"
     x="12"
     y="12" />
  <path
     inkscape:connector-curvature="0"
     style="fill:url(#linearGradient1138);fill-opacity:1;fill-rule:evenodd;stroke:none;stroke-width:0.19655809pt;stroke-linecap:butt;stroke-linejoin:miter;stroke-opacity:1"
     d="m 12,48 3.566828,3 H 51 l -3,-3 z"
     id="path614"
     sodipodi:nodetypes="ccccc" />
  <path
     inkscape:connector-curvature="0"
     style="fill:#eeeeee;fill-opacity:1;fill-rule:evenodd;stroke:none;stroke-width:0.19655809pt;stroke-linecap:butt;stroke-linejoin:miter;stroke-opacity:1"
     d="m 48,12 3,3.821498 V 51 l -3,-3 z"
     id="path615"
     sodipodi:nodetypes="ccccc" />
  <path
     inkscape:connector-curvature="0"
     style="opacity:0.3;fill:url(#linearGradient922);fill-opacity:1;stroke:none;stroke-width:1.09899986;stroke-linecap:round;stroke-linejoin:round;stroke-miterlimit:4;stroke-dasharray:none;stroke-dashoffset:0;stroke-opacity:1;paint-order:normal"
     d="M 38,27 36.121094,28.878906 35.878906,29.121094 34,31 l 8,8 v -8 z"
     id="rect902" />
  <rect
     style="font-size:12px;fill:#fcfaff;fill-rule:evenodd;stroke-width:0.19353964pt"
     id="rect574"
     width="15"
     height="13"
     x="30"
     y="33" />
  <rect
     style="font-size:12px;fill:url(#linearGradient673);fill-rule:evenodd;stroke-width:0.19926631pt"
     id="rect575"
     width="13"
     height="11"
     x="31"
     y="34" />
  <rect
     y="15"
     x="15"
     height="15"
     width="22"
     id="rect552"
     style="font-size:12px;fill:#fcfaff;fill-rule:evenodd;stroke-width:0.19507963pt" />
  <rect
     y="16"
     x="16.058172"
     height="12.892456"
     width="19.921009"
     id="rect551"
     style="font-size:12px;fill:#6bd3e9;fill-opacity:1;fill-rule:evenodd;stroke-width:0.19463582pt" />
  <path
     inkscape:connector-curvature="0"
     sodipodi:nodetypes="ccccccccccccc"
     id="path629"
     d="m 16,28.999993 c 0.08922,0 19.681249,-0.08127 20,-0.08127 0,-1.218757 0,-7.501791 0,-8.04344 -0.09766,0.350125 -1.329569,0.163003 -2.000091,0.649961 -0.629647,0.378551 -1.375074,0.569887 -1.999889,0.89371 -1.198081,0.31165 -2.499459,0.638446 -3.739222,0.974969 -1.172105,0.174084 -2.270111,0.324989 -3.4782,0.324989 -0.898561,0 -1.797101,0 -2.695662,0 -0.740214,-0.104115 -1.527765,-0.118301 -2.260849,-0.162495 -0.429437,-0.08024 -0.850538,-0.08123 -1.304358,-0.08123 -0.476817,0.06295 -0.683027,0.247721 -1.217372,0.324989 -0.416972,0.02782 -0.964727,0.593256 -1.21739,0.812473 -0.115399,0.441033 -0.04985,3.867344 -0.08697,4.387358 z"
     style="fill:url(#linearGradient558);fill-opacity:1;fill-rule:evenodd;stroke:none;stroke-width:0.19463582pt;stroke-linecap:butt;stroke-linejoin:miter;stroke-opacity:1" />
  <path
     inkscape:connector-curvature="0"
     sodipodi:nodetypes="ccc"
     id="path133"
     d="M 24.045633,22.535062 C 24.064083,22.553822 23.987635,21.722309 23,21 c -0.195842,-0.199164 6.252067,6.304022 6.7,6.7"
     style="font-size:12px;fill:none;fill-rule:evenodd;stroke:#414141;stroke-width:0.69194382;stroke-linecap:round;stroke-dasharray:none;stroke-opacity:1" />
  <path
     inkscape:connector-curvature="0"
     style="font-size:12px;fill:#ffde30;fill-opacity:1;fill-rule:evenodd;stroke-width:0.20140211pt"
     d="M 32.999794,32 H 29 l -2.06e-4,4 z"
     id="path579"
     sodipodi:nodetypes="cccc" />
  <path
     id="path930"
     d="M 30.822266,45.177734 29,47 l 8,8 v -4 l -4,-4 -0.177734,0.177734 z"
     style="opacity:0.3;fill:url(#linearGradient938);fill-opacity:1;stroke:none;stroke-width:0.94357777;stroke-linecap:round;stroke-linejoin:round;stroke-miterlimit:4;stroke-dasharray:none;stroke-dashoffset:0;stroke-opacity:1;paint-order:normal"
     inkscape:connector-curvature="0" />
  <path
     sodipodi:nodetypes="cccc"
     id="path1079"
     d="M 32.999794,47 H 29 l -2.06e-4,-4 z"
     style="font-size:12px;fill:#ffde30;fill-opacity:1;fill-rule:evenodd;stroke-width:0.20140211pt"
     inkscape:connector-curvature="0" />
  <path
     id="path924"
     d="M 46,43 44.121094,44.878906 43.878906,45.121094 42,47 l 8,8 v -8 z"
     style="opacity:0.3;fill:url(#linearGradient932);fill-opacity:1;stroke:none;stroke-width:1.09899986;stroke-linecap:round;stroke-linejoin:round;stroke-miterlimit:4;stroke-dasharray:none;stroke-dashoffset:0;stroke-opacity:1;paint-order:normal"
     inkscape:connector-curvature="0" />
  <path
     inkscape:connector-curvature="0"
     style="font-size:12px;fill:#ffde30;fill-opacity:1;fill-rule:evenodd;stroke-width:0.20140211pt"
     d="M 42.000206,47 H 46 l 2.06e-4,-4 z"
     id="path1081"
     sodipodi:nodetypes="cccc" />
  <path
     sodipodi:nodetypes="cccc"
     id="path1083"
     d="M 17.999794,14 H 14 l -2.06e-4,4 z"
     style="font-size:12px;fill:#ffde30;fill-opacity:1;fill-rule:evenodd;stroke-width:0.20140211pt"
     inkscape:connector-curvature="0" />
  <path
     sodipodi:nodetypes="cccc"
     id="path1089"
     d="M 34.000206,31 H 38 l 2.06e-4,-4 z"
     style="font-size:12px;fill:#ffde30;fill-opacity:1;fill-rule:evenodd;stroke-width:0.20140211pt"
     inkscape:connector-curvature="0" />
  <path
     inkscape:connector-curvature="0"
     style="opacity:0.2;fill:url(#linearGradient1114);fill-opacity:1;stroke:none;stroke-width:0.77111703;stroke-linecap:round;stroke-linejoin:round;stroke-miterlimit:4;stroke-dasharray:none;stroke-dashoffset:0;stroke-opacity:1;paint-order:normal"
     d="M 28.931641,17.5625 25.708984,20.785156 25.515625,20.591797 22.183594,23.925781 20.310547,22.052734 18.4375,24.757812 18.234375,26.832031 21.402344,30 H 37 v -4.369141 z"
     id="rect1097" />
  <g
     id="g1095"
     transform="matrix(0.99173565,0,0,0.97065572,0.64742578,0.81496965)">
    <path
       style="fill:#ff0000;fill-opacity:1;fill-rule:evenodd;stroke:none;stroke-width:0.11071103pt;stroke-linecap:butt;stroke-linejoin:miter;stroke-opacity:1"
       d="m 20.780623,18.752419 c -2.298401,1.820318 -3.698598,4.841479 -3.084843,7.961628 0.181169,0.893768 2.759608,-1.190401 4.504478,-2.671156 0.801256,-0.704981 -0.89356,-5.752549 -1.419635,-5.290472 z"
       id="path125"
       sodipodi:nodetypes="csss"
       inkscape:connector-curvature="0" />
    <path
       style="fill:#0000ff;fill-opacity:1;fill-rule:evenodd;stroke:none;stroke-width:0.11071103pt;stroke-linecap:butt;stroke-linejoin:miter;stroke-opacity:1"
       d="m 28.519177,17.253963 c -2.565193,-1.224934 -5.658326,-0.378392 -7.681205,1.444017 -0.175355,0.153255 4.979632,2.039793 5.319628,1.64277 1.445123,-1.633062 2.57668,-2.578305 2.361577,-3.086787 z"
       id="path131"
       sodipodi:nodetypes="cssc"
       inkscape:connector-curvature="0" />
    <path
       style="fill:#ffff00;fill-opacity:1;fill-rule:evenodd;stroke:none;stroke-width:0.11071103pt;stroke-linecap:butt;stroke-linejoin:miter;stroke-opacity:1"
       d="m 26.053025,20.248351 c -1.9917,-1.116037 -4.561733,-2.155188 -5.215053,-1.604812 -0.811347,0.615883 -0.372108,3.915932 0.126936,5.838324 0.223455,0.885118 1.31922,-0.451064 2.611805,-1.582268 1.380808,-1.153974 2.691358,-2.142762 2.476312,-2.651244 z"
       id="path130"
       sodipodi:nodetypes="csssc"
       inkscape:connector-curvature="0" />
    <path
       style="fill:none;fill-opacity:1;fill-rule:evenodd;stroke:none;stroke-width:0.69194382;stroke-linecap:butt;stroke-linejoin:miter;stroke-dasharray:none;stroke-opacity:1"
       d="M 28.57656,17.253963 C 23.446117,14.804107 16.410916,20.5282 17.638429,26.768487 18.000757,28.556068 29.006653,18.270915 28.57656,17.253963 Z"
       id="path124"
       sodipodi:nodetypes="csc"
       inkscape:connector-curvature="0" />
  </g>
  <path
     inkscape:connector-curvature="0"
     style="opacity:0.2;fill:url(#linearGradient1130);fill-opacity:1;stroke:none;stroke-width:1.09899986;stroke-linecap:round;stroke-linejoin:round;stroke-miterlimit:4;stroke-dasharray:none;stroke-dashoffset:0;stroke-opacity:1;paint-order:normal"
     d="m 38,35 -2.828125,1.828125 3,3 -2,2 L 40.34375,46 H 45 v -5 l -5.695312,-5.695312 z"
     id="rect1116" />
  <path
     inkscape:connector-curvature="0"
     sodipodi:nodetypes="ccccc"
     id="path554"
     d="m 33.402044,45.000036 c 0,-0.07144 1.881482,-4.403544 2.960518,-4.851206 0.664646,-0.271117 1.144347,-0.310797 2.368417,-7.2e-5 0.901069,0.393342 3.089701,4.758758 2.960518,4.851206 -0.526312,0 -7.89505,-0.02348 -8.289453,7.2e-5 z"
     style="font-size:12px;fill:#a56032;fill-rule:evenodd;stroke-width:0.1182457pt" />
  <path
     inkscape:connector-curvature="0"
     sodipodi:nodetypes="cccccc"
     id="path559"
     d="m 35.277042,36.522635 c -0.288607,1.744564 1.0786,4.169645 1.282879,4.486946 0.321066,0.181315 1.648324,0.0551 1.973679,-0.09749 C 38.769862,40.276317 40.29606,39.093322 40,37 39.111841,35.171615 35.815888,35.237025 35.277042,36.52264 Z"
     style="font-size:12px;fill:#dec0aa;fill-rule:evenodd;stroke-width:0.19652577pt" />
  <path
     inkscape:connector-curvature="0"
     sodipodi:nodetypes="cccccccccc"
     id="path561"
     d="m 38.33622,34.967113 c -1.961126,0.176624 -3.138861,1.45618 -3.355237,1.755701 -0.182318,0.583802 0.07417,0.614476 0.493419,0.780161 0.460507,0 0.921034,0 1.38156,0 0.398416,-0.08558 0.712167,-0.20261 1.184218,-0.292487 0.261743,-0.224299 0.576542,-0.330392 1.08552,-0.390179 0.0717,0.470286 0.264471,0.589078 0.394739,0.975349 0.537146,0 0.582177,0.05177 0.592099,-0.487675 -0.02084,-0.556057 -0.17516,-0.689892 -0.394738,-1.073036 -0.379401,-0.430037 0.22792,-0.963234 -1.38158,-1.267834 z"
     style="font-size:12px;fill:#5c4918;fill-rule:evenodd;stroke-width:0.19652577pt" />
  <path
     inkscape:connector-curvature="0"
     style="opacity:0.3;fill:url(#linearGradient920);fill-opacity:1;stroke:none;stroke-width:1.20845187;stroke-linecap:round;stroke-linejoin:round;stroke-miterlimit:4;stroke-dasharray:none;stroke-dashoffset:0;stroke-opacity:1;paint-order:normal"
     d="m 38,14 -2,2 h 1 l 1,2 4,4 v -4 z"
     id="rect866" />
  <path
     inkscape:connector-curvature="0"
     style="font-size:12px;fill:#ffde30;fill-opacity:1;fill-rule:evenodd;stroke-width:0.20140211pt"
     d="M 34.000206,14 H 38 l 2.06e-4,4 z"
     id="path1085"
     sodipodi:nodetypes="cccc" />
  <path
     inkscape:connector-curvature="0"
     style="opacity:0.3;fill:url(#linearGradient918);fill-opacity:1;stroke:none;stroke-width:1.09899986;stroke-linecap:round;stroke-linejoin:round;stroke-miterlimit:4;stroke-dasharray:none;stroke-dashoffset:0;stroke-opacity:1;paint-order:normal"
     d="M 18,14 16.121094,15.878906 15.878906,16.121094 14,18 l 8,8 v -8 z"
     id="rect886" />
  <path
     inkscape:connector-curvature="0"
     style="opacity:0.3;fill:url(#linearGradient916);fill-opacity:1;stroke:none;stroke-width:0.94357777;stroke-linecap:round;stroke-linejoin:round;stroke-miterlimit:4;stroke-dasharray:none;stroke-dashoffset:0;stroke-opacity:1;paint-order:normal"
     d="M 15.822266,29.177734 14,31 l 8,8 v -4 l -4,-4 -0.177734,0.177734 z"
     id="rect894" />
  <path
     inkscape:connector-curvature="0"
     style="font-size:12px;fill:#ffde30;fill-opacity:1;fill-rule:evenodd;stroke-width:0.20140211pt"
     d="M 17.999794,31 H 14 l -2.06e-4,-4 z"
     id="path1087"
     sodipodi:nodetypes="cccc" />
  <path
     id="path926"
     d="m 46,32 -2,2 h 1 l 1,2 4,4 v -4 z"
     style="opacity:0.3;fill:url(#linearGradient934);fill-opacity:1;stroke:none;stroke-width:1.20845187;stroke-linecap:round;stroke-linejoin:round;stroke-miterlimit:4;stroke-dasharray:none;stroke-dashoffset:0;stroke-opacity:1;paint-order:normal"
     inkscape:connector-curvature="0" />
  <path
     id="path928"
     d="M 33,32 31.121094,33.878906 30.878906,34.121094 29,36 l 8,8 v -8 z"
     style="opacity:0.3;fill:url(#linearGradient936);fill-opacity:1;stroke:none;stroke-width:1.09899986;stroke-linecap:round;stroke-linejoin:round;stroke-miterlimit:4;stroke-dasharray:none;stroke-dashoffset:0;stroke-opacity:1;paint-order:normal"
     inkscape:connector-curvature="0" />
  <path
     sodipodi:nodetypes="cccc"
     id="path1077"
     d="M 42.000206,32 H 46 l 2.06e-4,4 z"
     style="font-size:12px;fill:#ffde30;fill-opacity:1;fill-rule:evenodd;stroke-width:0.20140211pt"
     inkscape:connector-curvature="0" />
</svg>
