<?xml version="1.0" encoding="UTF-8" standalone="no"?>
<!-- Created with Inkscape (http://www.inkscape.org/) -->

<svg
   xmlns:dc="http://purl.org/dc/elements/1.1/"
   xmlns:cc="http://creativecommons.org/ns#"
   xmlns:rdf="http://www.w3.org/1999/02/22-rdf-syntax-ns#"
   xmlns:svg="http://www.w3.org/2000/svg"
   xmlns="http://www.w3.org/2000/svg"
   xmlns:xlink="http://www.w3.org/1999/xlink"
   xmlns:sodipodi="http://sodipodi.sourceforge.net/DTD/sodipodi-0.dtd"
   xmlns:inkscape="http://www.inkscape.org/namespaces/inkscape"
   version="1.1"
   id="svg15748"
   width="48"
   height="48"
   viewBox="0 0 48 48"
   sodipodi:docname="kturtle.svg"
   inkscape:version="0.92.3 (2405546, 2018-03-11)">
  <metadata
     id="metadata15754">
    <rdf:RDF>
      <cc:Work
         rdf:about="">
        <dc:format>image/svg+xml</dc:format>
        <dc:type
           rdf:resource="http://purl.org/dc/dcmitype/StillImage" />
        <dc:title />
      </cc:Work>
    </rdf:RDF>
  </metadata>
  <defs
     id="defs15752">
    <linearGradient
       inkscape:collect="always"
       id="linearGradient846">
      <stop
         style="stop-color:#136d13;stop-opacity:1"
         offset="0"
         id="stop842" />
      <stop
         style="stop-color:#4db57e;stop-opacity:1"
         offset="1"
         id="stop844" />
    </linearGradient>
    <linearGradient
       inkscape:collect="always"
       xlink:href="#linearGradient846"
       id="linearGradient848"
       x1="15.154365"
       y1="-6.1368275"
       x2="28.357967"
       y2="43.13969"
       gradientUnits="userSpaceOnUse" />
  </defs>
  <sodipodi:namedview
     pagecolor="#ffffff"
     bordercolor="#666666"
     borderopacity="1"
     objecttolerance="10"
     gridtolerance="10"
     guidetolerance="10"
     inkscape:pageopacity="0"
     inkscape:pageshadow="2"
     inkscape:window-width="1920"
     inkscape:window-height="1020"
     id="namedview15750"
     showgrid="false"
     inkscape:zoom="9.05042"
     inkscape:cx="-13.990879"
     inkscape:cy="19.777325"
     inkscape:window-x="0"
     inkscape:window-y="30"
     inkscape:window-maximized="1"
     inkscape:current-layer="svg15748">
    <inkscape:grid
       type="xygrid"
       id="grid812" />
  </sodipodi:namedview>
  <path
     id="path817"
     d="M 20 4 L 20 7 L 17 7 L 17 15 L 20 15 L 20 17 L 18.5 17 L 18.5 20 L 15 20 L 15 18 L 15 14 L 11 14 L 8 14 L 8 18 L 11 18 L 11 21 L 14 21 L 14 23 L 11 23 L 11 34 L 14 34 L 14 37 L 11 37 L 11 40 L 8 40 L 8 44 L 11 44 L 15 44 L 15 40 L 15 38 L 18.5 38 L 18.5 41 L 29.5 41 L 29.5 38 L 33 38 L 33 40 L 33 44 L 37 44 L 40 44 L 40 40 L 37 40 L 37 37 L 34 37 L 34 34 L 37 34 L 37 23 L 34 23 L 34 21 L 37 21 L 37 18 L 40 18 L 40 14 L 37 14 L 33 14 L 33 18 L 33 20 L 29.5 20 L 29.5 17 L 28 17 L 28 15 L 31 15 L 31 7 L 28 7 L 28 4 L 20 4 z "
     style="opacity:1;fill:none;fill-opacity:1;stroke:#0b4941;stroke-width:4;stroke-linecap:round;stroke-linejoin:round;stroke-miterlimit:4;stroke-dasharray:none;stroke-dashoffset:0;stroke-opacity:1;paint-order:normal" />
  <path
     style="opacity:1;fill:url(#linearGradient848);fill-opacity:1;stroke:none;stroke-width:4;stroke-linecap:round;stroke-linejoin:round;stroke-miterlimit:4;stroke-dasharray:none;stroke-dashoffset:0;stroke-opacity:1;paint-order:normal"
     d="M 20 4 L 20 7 L 17 7 L 17 15 L 20 15 L 20 17 L 18.5 17 L 18.5 20 L 15 20 L 15 18 L 15 14 L 11 14 L 8 14 L 8 18 L 11 18 L 11 21 L 14 21 L 14 23 L 11 23 L 11 34 L 14 34 L 14 37 L 11 37 L 11 40 L 8 40 L 8 44 L 11 44 L 15 44 L 15 40 L 15 38 L 18.5 38 L 18.5 41 L 29.5 41 L 29.5 38 L 33 38 L 33 40 L 33 44 L 37 44 L 40 44 L 40 40 L 37 40 L 37 37 L 34 37 L 34 34 L 37 34 L 37 23 L 34 23 L 34 21 L 37 21 L 37 18 L 40 18 L 40 14 L 37 14 L 33 14 L 33 18 L 33 20 L 29.5 20 L 29.5 17 L 28 17 L 28 15 L 31 15 L 31 7 L 28 7 L 28 4 L 20 4 z "
     id="rect816" />
</svg>
