<?xml version="1.0" encoding="UTF-8" standalone="no"?>
<svg
   xmlns:dc="http://purl.org/dc/elements/1.1/"
   xmlns:cc="http://creativecommons.org/ns#"
   xmlns:rdf="http://www.w3.org/1999/02/22-rdf-syntax-ns#"
   xmlns:svg="http://www.w3.org/2000/svg"
   xmlns="http://www.w3.org/2000/svg"
   xmlns:xlink="http://www.w3.org/1999/xlink"
   xmlns:sodipodi="http://sodipodi.sourceforge.net/DTD/sodipodi-0.dtd"
   xmlns:inkscape="http://www.inkscape.org/namespaces/inkscape"
   width="48"
   height="48"
   x="0"
   y="0"
   version="1.1"
   xml:space="preserve"
   id="svg20"
   sodipodi:docname="lookit.svg"
   inkscape:version="0.92.3 (2405546, 2018-03-11)"><metadata
   id="metadata26"><rdf:RDF><cc:Work
       rdf:about=""><dc:format>image/svg+xml</dc:format><dc:type
         rdf:resource="http://purl.org/dc/dcmitype/StillImage" /><dc:title></dc:title></cc:Work></rdf:RDF></metadata><defs
   id="defs24"><linearGradient
     inkscape:collect="always"
     id="linearGradient861"><stop
       style="stop-color:#000000;stop-opacity:1;"
       offset="0"
       id="stop857" /><stop
       style="stop-color:#000000;stop-opacity:0;"
       offset="1"
       id="stop859" /></linearGradient><linearGradient
     inkscape:collect="always"
     id="linearGradient877"><stop
       style="stop-color:#242424;stop-opacity:1"
       offset="0"
       id="stop873" /><stop
       style="stop-color:#3f3f3f;stop-opacity:1"
       offset="1"
       id="stop875" /></linearGradient><linearGradient
     inkscape:collect="always"
     id="linearGradient837"><stop
       style="stop-color:#cccccc;stop-opacity:1;"
       offset="0"
       id="stop833" /><stop
       style="stop-color:#fbfbfb;stop-opacity:1"
       offset="1"
       id="stop835" /></linearGradient><linearGradient
     inkscape:collect="always"
     xlink:href="#linearGradient837"
     id="linearGradient839"
     x1="32.747116"
     y1="44.753265"
     x2="22.170637"
     y2="3.554189"
     gradientUnits="userSpaceOnUse" /><linearGradient
     inkscape:collect="always"
     xlink:href="#linearGradient877"
     id="linearGradient847"
     x1="28.908722"
     y1="33.540569"
     x2="22.498228"
     y2="15.08215"
     gradientUnits="userSpaceOnUse" /><linearGradient
     inkscape:collect="always"
     xlink:href="#linearGradient861"
     id="linearGradient863"
     x1="19.881792"
     y1="15.426734"
     x2="37.860077"
     y2="33.405018"
     gradientUnits="userSpaceOnUse" /></defs><sodipodi:namedview
   pagecolor="#ffffff"
   bordercolor="#666666"
   borderopacity="1"
   objecttolerance="10"
   gridtolerance="10"
   guidetolerance="10"
   inkscape:pageopacity="0"
   inkscape:pageshadow="2"
   inkscape:window-width="1920"
   inkscape:window-height="1020"
   id="namedview22"
   showgrid="false"
   inkscape:zoom="4.28"
   inkscape:cx="9.8570331"
   inkscape:cy="21.13056"
   inkscape:window-x="0"
   inkscape:window-y="30"
   inkscape:window-maximized="1"
   inkscape:current-layer="svg20" />
 
 
 
 
 
 
 
 
 <circle
   style="fill:url(#linearGradient839);fill-opacity:1"
   cx="24"
   cy="24"
   r="20"
   id="circle4" /><path
   inkscape:connector-curvature="0"
   style="opacity:0.2;fill:#000000;fill-opacity:1"
   d="M 43.978516,23.417969 A 20,20 0 0 1 24,43 20,20 0 0 1 4.0214844,23.582031 20,20 0 0 0 4,24 20,20 0 0 0 24,44 20,20 0 0 0 44,24 20,20 0 0 0 43.978516,23.417969 Z"
   id="circle860" />
<path
   style="opacity:0.3;fill:url(#linearGradient863);fill-opacity:1;stroke:none;stroke-width:2;stroke-linecap:round;stroke-linejoin:round;stroke-miterlimit:4;stroke-dasharray:none;stroke-dashoffset:0;stroke-opacity:1;paint-order:normal"
   d="m 24,15 c -7.53232,1.429249 -7.587003,5.454492 -8.873047,8.171875 l -0.04297,1.972656 1.710321,1.799132 L 15.935547,29.25 14.939453,31.175781 27.458984,43.695312 C 34.720705,42.414749 40.68873,37.242361 42.988281,30.236328 L 30.009766,17.257812 Z"
   id="rect849"
   inkscape:connector-curvature="0"
   sodipodi:nodetypes="cccccccccc" /><path
   inkscape:connector-curvature="0"
   style="fill:url(#linearGradient847);fill-rule:evenodd;fill-opacity:1"
   d="m 24,15 c -4.9706,0 -9,4.0294 -9,9 0,0.388531 0.03288,0.769154 0.08398,1.144531 0.298925,-0.198923 0.622025,-0.371279 0.966797,-0.511719 -0.01829,-0.210633 -0.05078,-0.417501 -0.05078,-0.632812 0,-4.4183 3.5817,-8 8,-8 4.418,0 8,3.5817 8,8 0,0.838656 -0.139891,1.645825 -0.380859,2.40625 0.332227,0.07781 0.650031,0.183097 0.935547,0.337891 0.280333,-0.865965 0.445312,-1.785509 0.445312,-2.744141 0,-4.9706 -4.029,-9 -9,-9 z m 0,2 c -3.866,0 -7,3.134 -7,7 0,0.113545 0.01157,0.225357 0.01953,0.337891 1.252772,-0.272613 2.682204,-0.176251 4.123047,0.435547 0.04435,-0.06485 0.0954,-0.118129 0.140625,-0.181641 0.144677,-0.20894 0.293946,-0.407224 0.453125,-0.582031 0.919687,-1.118975 1.994814,-1.937305 3.279297,-2.03711 1.731721,-0.135138 3.351566,0.526001 4.453125,1.56836 0.55078,0.521179 0.982231,1.151037 1.181641,1.876953 0.0343,0.124847 0.01387,0.253526 -0.01758,0.384765 0.02003,0.09722 0.05007,0.194597 0.05469,0.291016 0.203999,-0.658 0.312499,-1.36875 0.312499,-2.09375 0,-3.866 -3.134,-7 -7,-7 z m 1.623047,5.958984 c -0.175088,-0.0066 -0.352297,-0.004 -0.529297,0.0098 -1.287,0.1 -2.60245,1.214641 -3.59375,2.931641 -3.89062,-2.246252 -7.5,0.0996 -7.5,2.974575 0,1.531268 0.92638,2.505291 2,3.125 H 31.699219 C 34.627219,29.072 32.267,26.458219 29.5,27.199219 c 1.058438,-1.83375 -1.250631,-4.140955 -3.876953,-4.240235 z"
   id="path831" /></svg>