<?xml version="1.0" encoding="UTF-8" standalone="no"?>
<svg
   xmlns:dc="http://purl.org/dc/elements/1.1/"
   xmlns:cc="http://creativecommons.org/ns#"
   xmlns:rdf="http://www.w3.org/1999/02/22-rdf-syntax-ns#"
   xmlns:svg="http://www.w3.org/2000/svg"
   xmlns="http://www.w3.org/2000/svg"
   xmlns:xlink="http://www.w3.org/1999/xlink"
   xmlns:sodipodi="http://sodipodi.sourceforge.net/DTD/sodipodi-0.dtd"
   xmlns:inkscape="http://www.inkscape.org/namespaces/inkscape"
   width="48"
   height="48"
   x="0"
   y="0"
   version="1.1"
   viewBox="-2.01 0 48 48"
   id="svg24"
   sodipodi:docname="mellowplayer.svg"
   inkscape:version="0.92.3 (2405546, 2018-03-11)">
  <metadata
     id="metadata30">
    <rdf:RDF>
      <cc:Work
         rdf:about="">
        <dc:format>image/svg+xml</dc:format>
        <dc:type
           rdf:resource="http://purl.org/dc/dcmitype/StillImage" />
      </cc:Work>
    </rdf:RDF>
  </metadata>
  <defs
     id="defs28">
    <linearGradient
       inkscape:collect="always"
       id="linearGradient944">
      <stop
         style="stop-color:#000000;stop-opacity:1;"
         offset="0"
         id="stop940" />
      <stop
         style="stop-color:#000000;stop-opacity:0;"
         offset="1"
         id="stop942" />
    </linearGradient>
    <linearGradient
       inkscape:collect="always"
       id="linearGradient902">
      <stop
         style="stop-color:#ffffff;stop-opacity:1;"
         offset="0"
         id="stop898" />
      <stop
         style="stop-color:#ffffff;stop-opacity:0;"
         offset="1"
         id="stop900" />
    </linearGradient>
    <linearGradient
       inkscape:collect="always"
       id="linearGradient879">
      <stop
         style="stop-color:#ffbf00;stop-opacity:1;"
         offset="0"
         id="stop875" />
      <stop
         style="stop-color:#ffe188;stop-opacity:1"
         offset="1"
         id="stop877" />
    </linearGradient>
    <linearGradient
       inkscape:collect="always"
       id="linearGradient863">
      <stop
         style="stop-color:#f2f2f2;stop-opacity:1;"
         offset="0"
         id="stop859" />
      <stop
         style="stop-color:#f2f2f2;stop-opacity:0;"
         offset="1"
         id="stop861" />
    </linearGradient>
    <linearGradient
       inkscape:collect="always"
       xlink:href="#linearGradient863"
       id="linearGradient857"
       x1="25.360489"
       y1="12.521534"
       x2="20.351782"
       y2="19.616333"
       gradientUnits="userSpaceOnUse" />
    <linearGradient
       inkscape:collect="always"
       xlink:href="#linearGradient863"
       id="linearGradient865"
       x1="6.3995543"
       y1="23.600409"
       x2="14.777261"
       y2="23.600409"
       gradientUnits="userSpaceOnUse" />
    <linearGradient
       inkscape:collect="always"
       xlink:href="#linearGradient863"
       id="linearGradient873"
       x1="28.707092"
       y1="34.94701"
       x2="24.367704"
       y2="27.316755"
       gradientUnits="userSpaceOnUse" />
    <linearGradient
       inkscape:collect="always"
       xlink:href="#linearGradient879"
       id="linearGradient881"
       x1="24.510277"
       y1="31.096798"
       x2="21.068132"
       y2="15.434694"
       gradientUnits="userSpaceOnUse" />
    <linearGradient
       inkscape:collect="always"
       xlink:href="#linearGradient902"
       id="linearGradient904"
       x1="28.745329"
       y1="30.908691"
       x2="2.1356835"
       y2="0.35351056"
       gradientUnits="userSpaceOnUse"
       gradientTransform="translate(2.01)" />
    <linearGradient
       inkscape:collect="always"
       xlink:href="#linearGradient944"
       id="linearGradient946"
       x1="21.72118"
       y1="24.686396"
       x2="32.122765"
       y2="35.087982"
       gradientUnits="userSpaceOnUse" />
  </defs>
  <sodipodi:namedview
     pagecolor="#ffffff"
     bordercolor="#666666"
     borderopacity="1"
     objecttolerance="10"
     gridtolerance="10"
     guidetolerance="10"
     inkscape:pageopacity="0"
     inkscape:pageshadow="2"
     inkscape:window-width="1920"
     inkscape:window-height="1020"
     id="namedview26"
     showgrid="false"
     inkscape:zoom="4.98"
     inkscape:cx="24"
     inkscape:cy="29.354565"
     inkscape:window-x="0"
     inkscape:window-y="30"
     inkscape:window-maximized="1"
     inkscape:current-layer="svg24" />
  <circle
     style="fill:#4b82d8;fill-opacity:1"
     cx="28.99"
     cy="24.002"
     r="11"
     id="circle4" />
  <circle
     style="fill:#4b82d8;fill-opacity:1"
     cx="15.99"
     cy="16.002"
     r="12"
     id="circle6" />
  <circle
     style="fill:#4b82d8;fill-opacity:1"
     cx="15.99"
     cy="32.002"
     r="12"
     id="circle10" />
  <circle
     style="fill:url(#linearGradient865);fill-opacity:1"
     cx="10.99"
     cy="24.002"
     r="7"
     id="circle14" />
  <path
     style="fill:#000000;fill-opacity:1;opacity:0.2"
     d="M 29.978516 31.40625 A 12 12 0 0 1 18 43 A 12 12 0 0 1 6.0214844 31.595703 A 12 12 0 0 0 6 32.001953 A 12 12 0 0 0 18 44.001953 A 12 12 0 0 0 30 32.001953 A 12 12 0 0 0 29.978516 31.40625 z "
     transform="translate(-2.01)"
     id="circle948" />
  <circle
     style="fill:url(#linearGradient873);fill-opacity:1"
     cx="22.99"
     cy="32.002"
     r="7"
     id="circle16" />
  <circle
     style="fill:url(#linearGradient857);fill-opacity:1"
     cx="22.99"
     cy="16.002"
     r="7"
     id="circle18" />
  <path
     style="fill:url(#linearGradient881);fill-opacity:1"
     d="m11.450777 10.080149c0.485455-0.2373794 0.95183 0.14172 0.95183 0.14172l11.137178 6.43832 10.768318 6.231411s0.681897 0.325247 0.681897 1.102578c0 0.779458-0.687549 1.033136-0.687549 1.033136l-10.787398 6.23141-11.388032 6.577916s-0.332115 0.288399-0.760332 0.103454c-0.488988-0.212579-0.361794-0.753239-0.361794-0.753239v-13.227398-13.01411c0.000706 0-0.0537-0.620731 0.445882-0.865198z"
     id="path22" />
  <path
     style="opacity:0.3;fill:url(#linearGradient946);fill-opacity:1;stroke:none;stroke-width:4;stroke-linecap:round;stroke-linejoin:round;stroke-miterlimit:4;stroke-dasharray:none;stroke-dashoffset:0;stroke-opacity:1;paint-order:normal"
     d="m 31.326599,21.948792 -3.926208,3.928161 -2.353516,-2.353515 -5.060547,5.060546 -0.261719,-0.261718 -6.558667,8.029296 -0.105139,1.365491 6.210681,6.210681 c 3.730237,-0.401583 7.057974,-2.524686 8.994141,-5.738281 1.337256,-0.708204 2.409016,-1.830674 3.054687,-3.199219 4.471492,-0.133868 8.416543,-2.962351 9.978516,-7.154296 l -4.52146,-4.52146 z"
     transform="translate(-2.01)"
     id="rect913"
     inkscape:connector-curvature="0"
     sodipodi:nodetypes="ccccccccccccc" />
  <path
     id="path887"
     d="m11.450777 10.080149c0.485455-0.2373794 0.95183 0.14172 0.95183 0.14172l11.137178 6.43832 10.768318 6.231411s0.681897 0.325247 0.681897 1.102578c0 0.779458-0.687549 1.033136-0.687549 1.033136l-10.787398 6.23141-11.388032 6.577916s-0.332115 0.288399-0.760332 0.103454c-0.488988-0.212579-0.361794-0.753239-0.361794-0.753239v-13.227398-13.01411c0.000706 0-0.0537-0.620731 0.445882-0.865198z"
     style="fill:url(#linearGradient881);fill-opacity:1" />
  <path
     style="color:#000000;font-style:normal;font-variant:normal;font-weight:normal;font-stretch:normal;font-size:medium;line-height:normal;font-family:sans-serif;font-variant-ligatures:normal;font-variant-position:normal;font-variant-caps:normal;font-variant-numeric:normal;font-variant-alternates:normal;font-feature-settings:normal;text-indent:0;text-align:start;text-decoration:none;text-decoration-line:none;text-decoration-style:solid;text-decoration-color:#000000;letter-spacing:normal;word-spacing:normal;text-transform:none;writing-mode:lr-tb;direction:ltr;text-orientation:mixed;dominant-baseline:auto;baseline-shift:baseline;text-anchor:start;white-space:normal;shape-padding:0;clip-rule:nonzero;display:inline;overflow:visible;visibility:visible;opacity:0.6;isolation:auto;mix-blend-mode:normal;color-interpolation:sRGB;color-interpolation-filters:linearRGB;solid-color:#000000;solid-opacity:1;vector-effect:none;fill:url(#linearGradient904);fill-opacity:1;fill-rule:nonzero;stroke:none;stroke-width:4;stroke-linecap:butt;stroke-linejoin:miter;stroke-miterlimit:4;stroke-dasharray:none;stroke-dashoffset:0;stroke-opacity:1;color-rendering:auto;image-rendering:auto;shape-rendering:auto;text-rendering:auto;enable-background:accumulate"
     d="M 15.015625 12.880859 L 15.015625 23.958984 L 15.015625 35.019531 L 24.525391 29.527344 L 34.167969 23.957031 L 24.548828 18.390625 L 15.015625 12.880859 z M 17.015625 16.347656 L 23.546875 20.121094 L 30.171875 23.955078 L 23.525391 27.794922 L 17.015625 31.554688 L 17.015625 23.958984 L 17.015625 16.347656 z "
     transform="translate(-2.01)"
     id="path883" />
</svg>
