<?xml version="1.0" encoding="UTF-8" standalone="no"?>
<svg
   xmlns:dc="http://purl.org/dc/elements/1.1/"
   xmlns:cc="http://creativecommons.org/ns#"
   xmlns:rdf="http://www.w3.org/1999/02/22-rdf-syntax-ns#"
   xmlns:svg="http://www.w3.org/2000/svg"
   xmlns="http://www.w3.org/2000/svg"
   xmlns:sodipodi="http://sodipodi.sourceforge.net/DTD/sodipodi-0.dtd"
   xmlns:inkscape="http://www.inkscape.org/namespaces/inkscape"
   width="48"
   height="48"
   version="1.1"
   id="svg31"
   sodipodi:docname="preferences-system-search.svg"
   inkscape:version="0.92.1 r15371">
  <metadata
     id="metadata35">
    <rdf:RDF>
      <cc:Work
         rdf:about="">
        <dc:format>image/svg+xml</dc:format>
        <dc:type
           rdf:resource="http://purl.org/dc/dcmitype/StillImage" />
      </cc:Work>
    </rdf:RDF>
  </metadata>
  <sodipodi:namedview
     pagecolor="#ffffff"
     bordercolor="#666666"
     borderopacity="1"
     objecttolerance="10"
     gridtolerance="10"
     guidetolerance="10"
     inkscape:pageopacity="0"
     inkscape:pageshadow="2"
     inkscape:window-width="1600"
     inkscape:window-height="808"
     id="namedview33"
     showgrid="false"
     inkscape:zoom="4.9166667"
     inkscape:cx="-15.864407"
     inkscape:cy="24"
     inkscape:window-x="0"
     inkscape:window-y="0"
     inkscape:window-maximized="1"
     inkscape:current-layer="svg31" />
  <defs
     id="defs17">
    <linearGradient
       id="a"
       y1="543.8"
       y2="503.8"
       gradientUnits="userSpaceOnUse"
       x2="0"
       gradientTransform="matrix(1.01818,0,0,1,-387.635,-499.8)">
      <stop
         stop-color="#197cf1"
         id="stop2" />
      <stop
         offset="1"
         stop-color="#21c9fb"
         id="stop4" />
    </linearGradient>
    <linearGradient
       id="b"
       y1="524.8"
       y2="531.8"
       x1="401.57"
       gradientUnits="userSpaceOnUse"
       x2="408.57"
       gradientTransform="matrix(1.42857,0,0,1.42265,-159.1,-232.81)">
      <stop
         stop-color="#292c2f"
         id="stop7" />
      <stop
         offset="1"
         stop-opacity="0"
         id="stop9" />
    </linearGradient>
    <linearGradient
       id="c"
       y1="532.79"
       y2="514.8"
       x2="0"
       gradientUnits="userSpaceOnUse"
       gradientTransform="translate(-384.57,-499.8)">
      <stop
         stop-color="#7cbaf8"
         id="stop12" />
      <stop
         offset="1"
         stop-color="#f4fcff"
         id="stop14" />
    </linearGradient>
  </defs>
  <path
     inkscape:connector-curvature="0"
     style="fill:url(#a)"
     id="path19"
     d="M 8,4 V 44 H 40 V 14 L 30,4 Z" />
  <g
     style="fill-rule:evenodd"
     id="g25"
     transform="translate(-384.57,-499.8)">
    <path
       style="fill:#313437"
       inkscape:connector-curvature="0"
       id="path21"
       d="m 424.57,513.8 -10,-10 v 10 z" />
    <path
       inkscape:connector-curvature="0"
       style="opacity:0.2;fill:url(#b)"
       id="path23"
       d="m 414.57,513.8 10,9.959 V 513.8 Z" />
  </g>
  <path
     inkscape:connector-curvature="0"
     style="fill:url(#c);stroke-width:1.29999995"
     id="path27"
     d="m 21.99763,14.998 a 6.996204,6.996203 0 0 0 -6.9962,6.9962 6.996204,6.996203 0 0 0 6.9962,6.99621 6.996204,6.996203 0 0 0 4.18328,-1.39964 l 5.407,5.407 1.413,-1.413 -5.407,-5.407 a 6.996204,6.996203 0 0 0 1.39963,-4.18328 6.996204,6.996203 0 0 0 -6.99621,-6.9962 m 0,1.99892 a 4.997289,4.997288 0 0 1 4.99729,4.99728 4.997289,4.997288 0 0 1 -0.0254,0.49973 4.997289,4.997288 0 0 1 -0.80621,2.25269 4.997289,4.997288 0 0 1 -1.41329,1.41329 4.997289,4.997288 0 0 1 -0.38066,0.22644 4.997289,4.997288 0 0 1 -0.0488,0.0293 4.997289,4.997288 0 0 1 -0.01,0.004 4.997289,4.997288 0 0 1 -0.44312,0.20497 4.997289,4.997288 0 0 1 -0.43531,0.15227 4.997289,4.997288 0 0 1 -0.0371,0.0137 4.997289,4.997288 0 0 1 -0.006,0.002 4.997289,4.997288 0 0 1 -0.45483,0.10736 4.997289,4.997288 0 0 1 -0.0254,0.006 4.997289,4.997288 0 0 1 -0.004,0 4.997289,4.997288 0 0 1 -0.36698,0.0508 4.997289,4.997288 0 0 1 -0.14836,0.0195 4.997289,4.997288 0 0 1 -0.39237,0.0156 4.997289,4.997288 0 0 1 -4.99728,-4.99729 4.997289,4.997288 0 0 1 0.0254,-0.49973 4.997289,4.997288 0 0 1 2.27221,-3.70502 4.997289,4.997288 0 0 1 0.88819,-0.45288 4.997289,4.997288 0 0 1 1.81151,-0.33966" />
  <path
     style="fill:#000000;fill-opacity:1;opacity:0.2"
     d="M 8 43 L 8 44 L 40 44 L 40 43 L 8 43 z "
     id="path4517" />
</svg>
