<?xml version="1.0" encoding="UTF-8" standalone="no"?>
<!-- Created with Inkscape (http://www.inkscape.org/) -->

<svg
   width="48"
   height="48"
   viewBox="0 0 12.7 12.7"
   version="1.1"
   id="svg5"
   inkscape:version="1.1.1 (3bf5ae0d25, 2021-09-20)"
   sodipodi:docname="totem.svg"
   xmlns:inkscape="http://www.inkscape.org/namespaces/inkscape"
   xmlns:sodipodi="http://sodipodi.sourceforge.net/DTD/sodipodi-0.dtd"
   xmlns:xlink="http://www.w3.org/1999/xlink"
   xmlns="http://www.w3.org/2000/svg"
   xmlns:svg="http://www.w3.org/2000/svg">
  <sodipodi:namedview
     id="namedview7"
     pagecolor="#ffffff"
     bordercolor="#666666"
     borderopacity="1.0"
     inkscape:pageshadow="2"
     inkscape:pageopacity="0.0"
     inkscape:pagecheckerboard="0"
     inkscape:document-units="px"
     showgrid="false"
     units="px"
     height="48px"
     showguides="true"
     inkscape:zoom="5.41354"
     inkscape:cx="-6.3729094"
     inkscape:cy="31.21802"
     inkscape:window-width="1852"
     inkscape:window-height="1053"
     inkscape:window-x="68"
     inkscape:window-y="27"
     inkscape:window-maximized="1"
     inkscape:current-layer="svg5" />
  <defs
     id="defs2">
    <linearGradient
       inkscape:collect="always"
       id="linearGradient17200">
      <stop
         style="stop-color:#2bbfae;stop-opacity:1;"
         offset="0"
         id="stop17196" />
      <stop
         style="stop-color:#5cd9ca;stop-opacity:1"
         offset="1"
         id="stop17198" />
    </linearGradient>
    <linearGradient
       inkscape:collect="always"
       id="linearGradient16906">
      <stop
         style="stop-color:#f8f068;stop-opacity:1;"
         offset="0"
         id="stop16902" />
      <stop
         style="stop-color:#f5d12b;stop-opacity:1"
         offset="1"
         id="stop16904" />
    </linearGradient>
    <linearGradient
       inkscape:collect="always"
       id="linearGradient12682">
      <stop
         style="stop-color:#2bbfc2;stop-opacity:1;"
         offset="0"
         id="stop12678" />
      <stop
         style="stop-color:#3382e3;stop-opacity:1"
         offset="1"
         id="stop12680" />
    </linearGradient>
    <linearGradient
       inkscape:collect="always"
       id="linearGradient4079">
      <stop
         style="stop-color:#bf61ca;stop-opacity:1;"
         offset="0"
         id="stop4075" />
      <stop
         style="stop-color:#8f57c7;stop-opacity:1"
         offset="1"
         id="stop4077" />
    </linearGradient>
    <linearGradient
       xlink:href="#linearGradient4224"
       id="linearGradient4230"
       x1="38"
       y1="33"
       x2="35"
       y2="15"
       gradientUnits="userSpaceOnUse"
       gradientTransform="matrix(0.26458333,0,0,0.26458333,-5.8207903,-2.9104161)" />
    <linearGradient
       id="linearGradient4224">
      <stop
         style="stop-color:#375a7d;stop-opacity:1"
         offset="0"
         id="stop12" />
      <stop
         style="stop-color:#54a3d8;stop-opacity:1"
         offset="1"
         id="stop14" />
    </linearGradient>
    <linearGradient
       inkscape:collect="always"
       xlink:href="#linearGradient4079"
       id="linearGradient4081"
       x1="4.1359086"
       y1="7.0683599"
       x2="6.5684114"
       y2="3.1749485"
       gradientUnits="userSpaceOnUse" />
    <linearGradient
       inkscape:collect="always"
       xlink:href="#linearGradient12682"
       id="linearGradient12684"
       x1="6.0389652"
       y1="7.24652"
       x2="7.1013479"
       y2="4.2393541"
       gradientUnits="userSpaceOnUse"
       gradientTransform="translate(0,0.0095086)" />
    <linearGradient
       inkscape:collect="always"
       xlink:href="#linearGradient16906"
       id="linearGradient16908"
       x1="9.7807369"
       y1="40.965855"
       x2="16.310986"
       y2="31.918919"
       gradientUnits="userSpaceOnUse"
       gradientTransform="scale(0.26458333)" />
    <linearGradient
       inkscape:collect="always"
       xlink:href="#linearGradient17200"
       id="linearGradient17202"
       x1="41.5625"
       y1="23.931641"
       x2="28.237114"
       y2="28.634481"
       gradientUnits="userSpaceOnUse"
       gradientTransform="scale(0.26458333)" />
  </defs>
  <path
     d="m 2.3977853,1.0587096 c -0.1331062,0.00807 -0.2814527,0.139741 -0.2811186,0.2856355 l 4e-7,10.0113639 c 0,0.194542 0.2545127,0.363822 0.4001092,0.248251 L 10.996877,6.5964195 c 0.146547,-0.1141421 0.146213,-0.3818946 0,-0.4965431 L 2.5218639,1.0960923 C 2.4853178,1.0674548 2.4422144,1.0560442 2.3978314,1.0587091 Z"
     style="fill:url(#linearGradient4081);fill-opacity:1;fill-rule:nonzero;stroke:none;stroke-width:0.623495;stroke-linecap:butt;stroke-linejoin:round;stroke-miterlimit:4;stroke-dasharray:none;stroke-dashoffset:80;stroke-opacity:1"
     id="path50"
     sodipodi:nodetypes="ccccccccc" />
  <path
     id="rect4343"
     style="fill:#2bbfc2;stroke-width:0.272293"
     d="m 2.116667,8.2020833 v 3.1537947 c 0,0.194542 0.2543791,0.363618 0.3999756,0.248047 l 6.1546631,-3.6344034 0.016537,-0.00982 -3.396176,-1.5607328 z"
     sodipodi:nodetypes="csccccc" />
  <path
     id="rect4343-9"
     style="fill:url(#linearGradient16908);fill-opacity:1;stroke-width:0.272293"
     d="m 2.1166666,8.2020832 v 3.1538128 c 0,0.03648 0.0088,0.07193 0.024288,0.104903 0.00516,0.01099 0.011039,0.02169 0.01757,0.03204 0.00653,0.01035 0.013984,0.02039 0.021704,0.02997 0.00772,0.0096 0.016073,0.0187 0.024805,0.02739 0.00873,0.0087 0.017822,0.01714 0.027389,0.02481 0.00478,0.0038 0.00951,0.0073 0.014469,0.01085 0.00497,0.0036 0.00986,0.0071 0.014986,0.01033 0.010224,0.0065 0.020818,0.01233 0.031523,0.01757 0.00535,0.0026 0.011097,0.005 0.016536,0.0072 0.00534,0.0022 0.010622,0.0048 0.01602,0.0067 0.011007,0.0038 0.022457,0.007 0.03359,0.0093 0.050096,0.01041 0.1003822,0.0043 0.1431437,-0.02325 0.00475,-0.0031 0.0094,-0.0062 0.013953,-0.0098 L 5.2916666,9.9747915 Z"
     sodipodi:nodetypes="cssssssscccscsccc" />
  <path
     id="path50-7"
     style="fill:url(#linearGradient12684);fill-opacity:1;fill-rule:nonzero;stroke:none;stroke-width:0.623496;stroke-linecap:butt;stroke-linejoin:round;stroke-miterlimit:4;stroke-dasharray:none;stroke-dashoffset:80;stroke-opacity:1"
     d="M 5.2916666,3.6055826 V 9.9747915 L 10.996745,6.6060052 c 0.01258,-0.0098 0.02365,-0.021159 0.03411,-0.033073 1.6e-4,-1.826e-4 3.7e-4,-3.44e-4 5.29e-4,-5.292e-4 7.94e-4,-9.26e-4 0.0018,-0.00167 0.0026,-0.00259 9.53e-4,-0.00114 0.0016,-0.00246 0.0026,-0.00362 0.01005,-0.012229 0.01954,-0.024961 0.02739,-0.038757 0.01144,-0.020122 0.02053,-0.041554 0.02739,-0.064079 0.0069,-0.022524 0.01116,-0.046033 0.01344,-0.069763 0.0023,-0.023731 0.0023,-0.047575 0,-0.071313 -0.0011,-0.011869 -0.0029,-0.024011 -0.0052,-0.035657 -0.0046,-0.023294 -0.01155,-0.045721 -0.02067,-0.067179 -0.0091,-0.021458 -0.02039,-0.041945 -0.03411,-0.060461 -0.01372,-0.018516 -0.02978,-0.035279 -0.04806,-0.049609 L 5.9300189,3.1180071 c 0,0 -0.6718814,-0.1277083 -0.6383523,0.4875755 z"
     sodipodi:nodetypes="cccscccssccsssccc" />
  <path
     id="path50-7-6"
     style="fill:url(#linearGradient17202);fill-opacity:1;fill-rule:nonzero;stroke:none;stroke-width:0.623496;stroke-linecap:butt;stroke-linejoin:round;stroke-miterlimit:4;stroke-dasharray:none;stroke-dashoffset:80;stroke-opacity:1"
     d="m 7.9374999,5.0876998 v 3.3154048 l 3.0592451,-1.806608 c 0.02748,-0.021402 0.05002,-0.048368 0.06718,-0.078548 0.01144,-0.020124 0.02053,-0.041551 0.02739,-0.064079 0.0069,-0.022524 0.01116,-0.046033 0.01344,-0.069763 0.0023,-0.023736 0.0023,-0.047571 0,-0.071313 -0.0011,-0.011869 -0.0029,-0.024011 -0.0052,-0.035657 -0.0092,-0.046594 -0.02735,-0.090604 -0.05478,-0.1276406 -0.01372,-0.018515 -0.02978,-0.035278 -0.04806,-0.049609 L 8.5815026,4.6739958 C 7.9892466,4.4675935 7.9374999,5.0876998 7.9374999,5.0876998 Z"
     sodipodi:nodetypes="cccssccssccc" />
  <path
     id="rect16175"
     style="opacity:0.21;fill:#ffffff;fill-opacity:1;stroke-width:0.358185"
     d="m 2.1164083,4.5191079 2.583e-4,6.8367881 c 6.8e-6,0.179281 0.2159405,0.336544 0.3638021,0.269751 l 0.032039,-0.01912 c 0.00132,-9.79e-4 0.00283,-0.0015 0.00413,-0.0026 L 7.9374999,8.4031046 c 0,0 -2.117e-4,1.588e-4 0,0 C 8.083465,8.2887081 8.0832737,8.0705922 7.9372417,7.9560951 Z"
     sodipodi:nodetypes="csccccccc" />
  <path
     id="path50-1"
     style="opacity:0.2;fill:#000000;fill-opacity:1;fill-rule:nonzero;stroke:none;stroke-width:0.623496;stroke-linecap:butt;stroke-linejoin:round;stroke-miterlimit:4;stroke-dasharray:none;stroke-dashoffset:80;stroke-opacity:1"
     d="m 11.081494,6.2161581 c -0.01825,0.045398 -0.04641,0.085893 -0.08475,0.1157552 L 2.5166422,11.339359 C 2.3710457,11.45493 2.1166666,11.285855 2.1166666,11.091313 v 0.264583 c 0,0.194542 0.2543791,0.363618 0.3999756,0.248047 L 10.996745,6.5964966 c 0.108207,-0.08428 0.136298,-0.2520336 0.08475,-0.3803385 z" />
</svg>
