<?xml version="1.0" encoding="UTF-8" standalone="no"?>
<svg
   xmlns:dc="http://purl.org/dc/elements/1.1/"
   xmlns:cc="http://creativecommons.org/ns#"
   xmlns:rdf="http://www.w3.org/1999/02/22-rdf-syntax-ns#"
   xmlns:svg="http://www.w3.org/2000/svg"
   xmlns="http://www.w3.org/2000/svg"
   xmlns:sodipodi="http://sodipodi.sourceforge.net/DTD/sodipodi-0.dtd"
   xmlns:inkscape="http://www.inkscape.org/namespaces/inkscape"
   width="22"
   height="22"
   version="1.1"
   id="svg7"
   sodipodi:docname="gnote-panel.svg"
   inkscape:version="0.92.3 (2405546, 2018-03-11)">
  <metadata
     id="metadata11">
    <rdf:RDF>
      <cc:Work
         rdf:about="">
        <dc:format>image/svg+xml</dc:format>
        <dc:type
           rdf:resource="http://purl.org/dc/dcmitype/StillImage" />
        <dc:title></dc:title>
      </cc:Work>
    </rdf:RDF>
  </metadata>
  <sodipodi:namedview
     pagecolor="#ffffff"
     bordercolor="#666666"
     borderopacity="1"
     objecttolerance="10"
     gridtolerance="10"
     guidetolerance="10"
     inkscape:pageopacity="0"
     inkscape:pageshadow="2"
     inkscape:window-width="1920"
     inkscape:window-height="1020"
     id="namedview9"
     showgrid="false"
     inkscape:zoom="18.68"
     inkscape:cx="11"
     inkscape:cy="11"
     inkscape:window-x="0"
     inkscape:window-y="30"
     inkscape:window-maximized="1"
     inkscape:current-layer="svg7" />
  <defs
     id="defs3">
    <style
       id="current-color-scheme"
       type="text/css">
   .ColorScheme-Text { color:#cecfce; } .ColorScheme-Highlight { color:#3daee9; }
  </style>
  </defs>
  <path
     style="fill:#cecfce;fill-opacity:1"
     d="M 5.2851562 3 C 4.0188705 3 3 4.0188706 3 5.2851562 L 3 16.714844 C 3 17.981129 4.0188706 19 5.2851562 19 L 16.714844 19 C 17.981129 19 19 17.981129 19 16.714844 L 19 5.2851562 C 19 4.018642 17.981129 3 16.714844 3 L 5.2851562 3 z M 5.2851562 4 L 16.714844 4 C 17.44484 4 18 4.5549545 18 5.2851562 L 18 16.714844 C 18 17.444719 17.444719 18 16.714844 18 L 5.2851562 18 C 4.55528 18 4 17.444719 4 16.714844 L 4 5.2851562 C 4 4.5552797 4.5552796 4 5.2851562 4 z M 6 6 L 6 8 L 16 8 L 16 6 L 6 6 z M 6 10 L 6 12 L 16 12 L 16 10 L 6 10 z M 6 14 L 6 16 L 12 16 L 12 14 L 6 14 z "
     id="path824" />
</svg>
