<svg xmlns="http://www.w3.org/2000/svg" width="22" height="22" version="1.1">
 <defs>
  <style id="current-color-scheme" type="text/css">
   .ColorScheme-Text { color:#eff0f1; } .ColorScheme-Highlight { color:#3daee9; }
  </style>
 </defs>
 <path style="fill:currentColor" class="ColorScheme-Text" d="M 18.727407,13.070551 C 19.870883,8.803045 17.338061,4.4160687 13.070553,3.2725933 8.8030457,2.1291181 4.4160701,4.6619395 3.2725928,8.9294476 2.1291184,13.196955 4.6619388,17.583931 8.9294484,18.727408 13.196955,19.870883 17.583932,17.338062 18.727407,13.070551 Z m -0.965926,-0.258818 c -0.760651,2.838789 -3.141614,4.789966 -5.880556,5.133384 l -0.134851,-1.277656 c 2.178097,-0.362632 3.970192,-2.018438 4.566517,-4.243957 0.610562,-2.278643 -0.184048,-4.7067541 -1.997674,-6.0675317 l -1.12459,1.5407308 c 1.209422,0.9110719 1.748467,2.5301859 1.34134,4.0496029 -0.392116,1.463395 -1.524262,2.539778 -2.950373,2.800566 l -0.15135,-1.367002 -2.6382591,2.722435 3.0621911,1.845679 C 10.987363,18.053205 10.085605,18.001923 9.1882696,17.761486 5.4428573,16.7579 3.2349404,12.933677 4.2385192,9.1882668 5.2420998,5.4428572 9.0663245,3.2349396 12.811733,4.238519 c 3.745411,1.0035798 5.953328,4.8278056 4.949748,8.573214 z M 13.17763,5.8914972 10.176448,4.0520567 10.283605,5.3425122 C 8.1155167,5.6871217 6.2801228,7.3644548 5.6869016,9.5783826 5.0747877,11.862822 5.8500161,14.246397 7.6543926,15.637826 L 8.77949,14.095208 C 7.5754318,13.167975 7.0599249,11.577896 7.4678286,10.055578 7.8573554,8.6018449 9.0291801,7.5174596 10.448384,7.2631029 l 0.151858,1.3651152 z"/>
</svg>
