<?xml version="1.0" encoding="UTF-8" standalone="no"?>
<svg
   xmlns:dc="http://purl.org/dc/elements/1.1/"
   xmlns:cc="http://creativecommons.org/ns#"
   xmlns:rdf="http://www.w3.org/1999/02/22-rdf-syntax-ns#"
   xmlns:svg="http://www.w3.org/2000/svg"
   xmlns="http://www.w3.org/2000/svg"
   xmlns:sodipodi="http://sodipodi.sourceforge.net/DTD/sodipodi-0.dtd"
   xmlns:inkscape="http://www.inkscape.org/namespaces/inkscape"
   width="22"
   height="22"
   version="1.1"
   id="svg7"
   sodipodi:docname="cantata-panel.svg"
   inkscape:version="0.92.3 (2405546, 2018-03-11)">
  <metadata
     id="metadata11">
    <rdf:RDF>
      <cc:Work
         rdf:about="">
        <dc:format>image/svg+xml</dc:format>
        <dc:type
           rdf:resource="http://purl.org/dc/dcmitype/StillImage" />
      </cc:Work>
    </rdf:RDF>
  </metadata>
  <sodipodi:namedview
     pagecolor="#ffffff"
     bordercolor="#666666"
     borderopacity="1"
     objecttolerance="10"
     gridtolerance="10"
     guidetolerance="10"
     inkscape:pageopacity="0"
     inkscape:pageshadow="2"
     inkscape:window-width="1920"
     inkscape:window-height="1020"
     id="namedview9"
     showgrid="true"
     inkscape:zoom="26.42"
     inkscape:cx="11"
     inkscape:cy="11"
     inkscape:window-x="0"
     inkscape:window-y="30"
     inkscape:window-maximized="1"
     inkscape:current-layer="svg7">
    <inkscape:grid
       type="xygrid"
       id="grid845" />
  </sodipodi:namedview>
  <defs
     id="defs3">
    <style
       id="current-color-scheme"
       type="text/css">
   .ColorScheme-Text { color:#eff0f1; } .ColorScheme-Highlight { color:#3daee9; }
  </style>
  </defs>
  <path
     style="fill:#eff0f1;stroke-width:0.80000001;stroke-linejoin:round;fill-opacity:1;opacity:0.3"
     d="M 12 3 A 8 8 0 0 0 4 11 A 8 8 0 0 0 12 19 A 8 8 0 0 0 17.652344 16.652344 L 16.240234 15.240234 A 6 6 0 0 1 12 17 A 6 6 0 0 1 6 11 A 6 6 0 0 1 12 5 A 6 6 0 0 1 16.240234 6.7597656 L 17.652344 5.3476562 A 8 8 0 0 0 12 3 z "
     id="path25" />
  <path
     inkscape:connector-curvature="0"
     style="fill:#eff0f1;fill-rule:evenodd;stroke-width:0.39223599;fill-opacity:1"
     id="path35"
     d="m 11.000102,3 1.153868,0.4 c 0,0 0.477701,1.5288 0.862324,1.9288 0.608088,0.6324 2.983902,2.0712 2.983902,5.2712 0,2.4 -1.53849,4 -3.461604,5.2 1.923114,-2 2.692361,-2.8 2.692361,-5.2 C 15.230953,7.4 12,7 12,7 v 8.71 c 0,0.89 -0.652583,2.3672 -1.968761,2.9356 -1.6684943,0.7188 -3.4166045,0.3084 -3.9039213,-0.9164 -0.4873171,-1.2244 0.4692396,-2.5994 2.1373483,-3.3178 0.9965575,-0.4296 1.930805,-0.528 2.73582,-0.1668 z"
     sodipodi:nodetypes="ccsscscsccccc" />
</svg>
