<?xml version="1.0" encoding="UTF-8" standalone="no"?>
<svg
   xmlns:dc="http://purl.org/dc/elements/1.1/"
   xmlns:cc="http://creativecommons.org/ns#"
   xmlns:rdf="http://www.w3.org/1999/02/22-rdf-syntax-ns#"
   xmlns:svg="http://www.w3.org/2000/svg"
   xmlns="http://www.w3.org/2000/svg"
   xmlns:sodipodi="http://sodipodi.sourceforge.net/DTD/sodipodi-0.dtd"
   xmlns:inkscape="http://www.inkscape.org/namespaces/inkscape"
   width="22"
   height="22"
   version="1.1"
   id="svg9"
   sodipodi:docname="guitarix-tray.svg"
   inkscape:version="0.92.3 (2405546, 2018-03-11)">
  <metadata
     id="metadata13">
    <rdf:RDF>
      <cc:Work
         rdf:about="">
        <dc:format>image/svg+xml</dc:format>
        <dc:type
           rdf:resource="http://purl.org/dc/dcmitype/StillImage" />
        <dc:title></dc:title>
      </cc:Work>
    </rdf:RDF>
  </metadata>
  <sodipodi:namedview
     pagecolor="#ffffff"
     bordercolor="#666666"
     borderopacity="1"
     objecttolerance="10"
     gridtolerance="10"
     guidetolerance="10"
     inkscape:pageopacity="0"
     inkscape:pageshadow="2"
     inkscape:window-width="1920"
     inkscape:window-height="1020"
     id="namedview11"
     showgrid="true"
     inkscape:zoom="32.53"
     inkscape:cx="11"
     inkscape:cy="11"
     inkscape:window-x="0"
     inkscape:window-y="30"
     inkscape:window-maximized="1"
     inkscape:current-layer="svg9">
    <inkscape:grid
       type="xygrid"
       id="grid833" />
  </sodipodi:namedview>
  <defs
     id="defs3">
    <style
       id="current-color-scheme"
       type="text/css">
   .ColorScheme-Text { color:#eff0f1; } .ColorScheme-Highlight { color:#3daee9; }
  </style>
  </defs>
  <path
     style="fill:#eff0f1;fill-opacity:1"
     d="M 3.8007812 3 C 3.3575812 3 3 3.3192877 3 3.7148438 L 3 7.2851562 C 3 7.6807123 3.3575813 8 3.8007812 8 C 3.3575812 8 3 8.3770191 3 8.8457031 L 3 19.154297 C 3 19.622981 3.3575813 20 3.8007812 20 L 18.199219 20 C 18.642419 20 19 19.622981 19 19.154297 L 19 8.8457031 C 19 8.3770191 18.642419 8 18.199219 8 C 18.642419 8 19 7.6807122 19 7.2851562 L 19 3.7148438 C 19 3.3192876 18.642419 3 18.199219 3 L 3.8007812 3 z M 4.8710938 4 L 17.128906 4 C 17.61144 4 18 4.3018314 18 4.6757812 L 18 6.3242188 C 18 6.6981687 17.61144 7 17.128906 7 L 4.8710938 7 C 4.3885597 7 4 6.6981685 4 6.3242188 L 4 4.6757812 C 4 4.3018312 4.3885597 4 4.8710938 4 z M 5.5 5 A 0.5 0.5 0 0 0 5 5.5 A 0.5 0.5 0 0 0 5.5 6 A 0.5 0.5 0 0 0 6 5.5 A 0.5 0.5 0 0 0 5.5 5 z M 7.5 5 A 0.5 0.5 0 0 0 7 5.5 A 0.5 0.5 0 0 0 7.5 6 A 0.5 0.5 0 0 0 8 5.5 A 0.5 0.5 0 0 0 7.5 5 z M 9.5 5 A 0.5 0.5 0 0 0 9 5.5 A 0.5 0.5 0 0 0 9.5 6 A 0.5 0.5 0 0 0 10 5.5 A 0.5 0.5 0 0 0 9.5 5 z M 16 5 L 16 6 L 17 6 L 17 5 L 16 5 z M 4 9 L 18 9 L 18 19 L 4 19 L 4 9 z M 8 11 A 3 3 0 0 0 5 14 A 3 3 0 0 0 8 17 A 3 3 0 0 0 11 14 A 3 3 0 0 0 8 11 z M 11 14 A 3 3 0 0 0 14 17 A 3 3 0 0 0 17 14 A 3 3 0 0 0 14 11 A 3 3 0 0 0 11 14 z M 8 12 A 2 2 0 0 1 10 14 A 2 2 0 0 1 8 16 A 2 2 0 0 1 6 14 A 2 2 0 0 1 8 12 z M 14 12 A 2 2 0 0 1 16 14 A 2 2 0 0 1 14 16 A 2 2 0 0 1 12 14 A 2 2 0 0 1 14 12 z M 8 13 A 1 1 0 0 0 7 14 A 1 1 0 0 0 8 15 A 1 1 0 0 0 9 14 A 1 1 0 0 0 8 13 z M 14 13 A 1 1 0 0 0 13 14 A 1 1 0 0 0 14 15 A 1 1 0 0 0 15 14 A 1 1 0 0 0 14 13 z "
     id="path826" />
</svg>
