<?xml version="1.0" encoding="UTF-8" standalone="no"?>
<svg
   xmlns:dc="http://purl.org/dc/elements/1.1/"
   xmlns:cc="http://creativecommons.org/ns#"
   xmlns:rdf="http://www.w3.org/1999/02/22-rdf-syntax-ns#"
   xmlns:svg="http://www.w3.org/2000/svg"
   xmlns="http://www.w3.org/2000/svg"
   xmlns:sodipodi="http://sodipodi.sourceforge.net/DTD/sodipodi-0.dtd"
   xmlns:inkscape="http://www.inkscape.org/namespaces/inkscape"
   width="22"
   height="22"
   version="1.1"
   id="svg9"
   sodipodi:docname="mellowplayer-panel.svg"
   inkscape:version="0.92.3 (2405546, 2018-03-11)">
  <metadata
     id="metadata13">
    <rdf:RDF>
      <cc:Work
         rdf:about="">
        <dc:format>image/svg+xml</dc:format>
        <dc:type
           rdf:resource="http://purl.org/dc/dcmitype/StillImage" />
        <dc:title />
      </cc:Work>
    </rdf:RDF>
  </metadata>
  <sodipodi:namedview
     pagecolor="#ffffff"
     bordercolor="#666666"
     borderopacity="1"
     objecttolerance="10"
     gridtolerance="10"
     guidetolerance="10"
     inkscape:pageopacity="0"
     inkscape:pageshadow="2"
     inkscape:window-width="1920"
     inkscape:window-height="1020"
     id="namedview11"
     showgrid="true"
     inkscape:zoom="32.53"
     inkscape:cx="5.3436828"
     inkscape:cy="11"
     inkscape:window-x="0"
     inkscape:window-y="30"
     inkscape:window-maximized="1"
     inkscape:current-layer="svg9">
    <inkscape:grid
       type="xygrid"
       id="grid820" />
  </sodipodi:namedview>
  <defs
     id="defs3">
    <style
       id="current-color-scheme"
       type="text/css">
   .ColorScheme-Text { color:#eff0f1; } .ColorScheme-Highlight { color:#3daee9; }
  </style>
  </defs>
  <path
     style="fill:currentColor"
     class="ColorScheme-Text"
     d="M 8,3 A 5,5 0 0 0 3,8 5,5 0 0 0 3.305,9.687 3,3 0 0 1 6,8 3,3 0 0 1 6.006,8 V 5.404 c 0,0 -0.023,-0.266 0.185,-0.371 0.203,-0.101 0.397,0.061 0.397,0.061 l 1.969,1.17 A 3,3 0 0 1 11,5 3,3 0 0 1 12.152,5.232 5,5 0 0 0 8,3 Z m 5.24,3.008 A 3,3 0 0 1 14,8 3,3 0 0 1 13.691,9.318 l 2.026,1.205 c 0,0 0.283,0.14 0.283,0.473 0,0.334 -0.287,0.443 -0.287,0.443 l -2.035,1.209 A 3,3 0 0 1 14,14 3,3 0 0 1 13.242,15.988 5,5 0 0 0 18,11 5,5 0 0 0 13.24,6.008 Z M 3.303,12.303 A 5,5 0 0 0 3,14 5,5 0 0 0 8,19 5,5 0 0 0 12.158,16.768 3,3 0 0 1 11,17 3,3 0 0 1 8.535,15.705 l -2.06,1.225 c 0,0 -0.14,0.122 -0.319,0.043 C 5.953,16.882 6.006,16.65 6.006,16.65 V 14 A 3,3 0 0 1 6,14 3,3 0 0 1 3.303,12.303 Z"
     id="path5" />
  <path
     style="opacity:0.3;fill:currentColor"
     class="ColorScheme-Text"
     d="M 11,5 A 3,3 0 0 0 8.557,6.266 l 2.672,1.587 2.464,1.467 A 3,3 0 0 0 14,8 3,3 0 0 0 11,5 Z M 6,8 a 3,3 0 0 0 -3,3 3,3 0 0 0 3,3 3,3 0 0 0 0.006,0 V 10.982 8 A 3,3 0 0 0 6,8 Z m 7.676,4.65 -2.457,1.459 -2.686,1.596 A 3,3 0 0 0 11,17 3,3 0 0 0 14,14 3,3 0 0 0 13.676,12.65 Z"
     id="path7" />
  <path
     style="opacity:1;fill:#eff0f1;fill-opacity:1;stroke:none;stroke-width:2.03885317;stroke-linecap:round;stroke-linejoin:round;stroke-miterlimit:4;stroke-dasharray:none;stroke-dashoffset:0;stroke-opacity:1;paint-order:normal"
     d="M 7 6.5 L 7 11 L 7 15.5 L 10.75 13.25 L 14.5 11 L 10.75 8.75 L 7 6.5 z M 7.9804688 8.265625 L 10.259766 9.6328125 L 12.539062 11 L 10.259766 12.367188 L 7.9804688 13.734375 L 7.9804688 11 L 7.9804688 8.265625 z "
     id="path822" />
</svg>
