<svg xmlns="http://www.w3.org/2000/svg" width="22" height="22" version="1">
 <defs>
  <style id="current-color-scheme" type="text/css">
   .ColorScheme-Text { color:#eff0f1; } .ColorScheme-Highlight { color:#3daee9; }
  </style>
 </defs>
 <path style="fill:currentColor" class="ColorScheme-Text" d="M 11 3 A 8 8 0 0 0 3 11 A 8 8 0 0 0 11 19 A 8 8 0 0 0 19 11 A 8 8 0 0 0 11 3 z M 11 4 C 14.877838 4 18 7.1221621 18 11 C 18 14.877838 14.877838 18 11 18 C 7.1221621 18 4 14.877838 4 11 C 4 8.1984384 5.6331847 5.7981096 8 4.6777344 L 8 13.001953 C 8 13.555953 8.446 14.001953 9 14.001953 C 9.554 14.001953 10 13.555953 10 13.001953 L 10 4.078125 C 10.327493 4.0315108 10.65923 4 11 4 z M 11.275391 7.9921875 C 11.11919 8.0020275 10.997573 8.1193951 10.996094 8.2617188 L 10.996094 13.716797 C 10.984324 13.932319 11.239501 14.074329 11.445312 13.966797 L 16.845703 11.238281 C 17.051081 11.134279 17.051081 10.865721 16.845703 10.761719 L 11.445312 8.0351562 C 11.401753 8.0128192 11.352742 8.000734 11.302734 8 C 11.294934 7.9997226 11.287107 7.9997226 11.279297 8 L 11.275391 7.9921875 z"/>
</svg>
