<?xml version="1.0" encoding="UTF-8" standalone="no"?>
<svg
   xmlns:dc="http://purl.org/dc/elements/1.1/"
   xmlns:cc="http://creativecommons.org/ns#"
   xmlns:rdf="http://www.w3.org/1999/02/22-rdf-syntax-ns#"
   xmlns:svg="http://www.w3.org/2000/svg"
   xmlns="http://www.w3.org/2000/svg"
   xmlns:sodipodi="http://sodipodi.sourceforge.net/DTD/sodipodi-0.dtd"
   xmlns:inkscape="http://www.inkscape.org/namespaces/inkscape"
   width="22"
   height="22"
   version="1.1"
   id="svg9"
   sodipodi:docname="fcitx-panel.svg"
   inkscape:version="0.92.3 (2405546, 2018-03-11)">
  <metadata
     id="metadata13">
    <rdf:RDF>
      <cc:Work
         rdf:about="">
        <dc:format>image/svg+xml</dc:format>
        <dc:type
           rdf:resource="http://purl.org/dc/dcmitype/StillImage" />
        <dc:title></dc:title>
      </cc:Work>
    </rdf:RDF>
  </metadata>
  <sodipodi:namedview
     pagecolor="#ffffff"
     bordercolor="#666666"
     borderopacity="1"
     objecttolerance="10"
     gridtolerance="10"
     guidetolerance="10"
     inkscape:pageopacity="0"
     inkscape:pageshadow="2"
     inkscape:window-width="1920"
     inkscape:window-height="1020"
     id="namedview11"
     showgrid="false"
     inkscape:zoom="28.32"
     inkscape:cx="13.465887"
     inkscape:cy="11"
     inkscape:window-x="0"
     inkscape:window-y="30"
     inkscape:window-maximized="1"
     inkscape:current-layer="svg9" />
  <defs
     id="defs3">
    <style
       id="current-color-scheme"
       type="text/css">
   .ColorScheme-Text { color:#eff0f1; } .ColorScheme-Highlight { color:#3daee9; }
  </style>
  </defs>
  <path
     style="color:#eff0f1;fill:#eff0f1;fill-opacity:1;stroke:none"
     d="M 2 5 L 2 16 L 20 16 L 20 5 L 2 5 z M 3 6 L 10 6 L 11 6 L 19 6 L 19 7 L 3 7 L 3 6 z M 3 8 L 19 8 L 19 15 L 15 15 L 7 15 L 3 15 L 3 8 z "
     id="path871" />
  <path
     style="color:#eff0f1;fill:#eff0f1;fill-opacity:1;stroke:none;opacity:0.3"
     d="M 4 9 L 4 10 L 6 10 L 6 9 L 4 9 z M 7 9 L 7 10 L 9 10 L 9 9 L 7 9 z M 10 9 L 10 10 L 12 10 L 12 9 L 10 9 z M 13 9 L 13 10 L 15 10 L 15 9 L 13 9 z M 16 9 L 16 10 L 18 10 L 18 9 L 16 9 z M 4 11 L 4 12 L 6 12 L 6 11 L 4 11 z M 7 11 L 7 12 L 9 12 L 9 11 L 7 11 z M 10 11 L 10 12 L 12 12 L 12 11 L 10 11 z M 13 11 L 13 12 L 15 12 L 15 11 L 13 11 z M 16 11 L 16 12 L 18 12 L 18 11 L 16 11 z M 4 13 L 4 14 L 6 14 L 6 13 L 4 13 z M 7 13 L 7 14 L 15 14 L 15 13 L 7 13 z M 16 13 L 16 14 L 18 14 L 18 13 L 16 13 z "
     id="path865" />
</svg>
