<?xml version="1.0" encoding="UTF-8" standalone="no"?>
<svg
   xmlns:dc="http://purl.org/dc/elements/1.1/"
   xmlns:cc="http://creativecommons.org/ns#"
   xmlns:rdf="http://www.w3.org/1999/02/22-rdf-syntax-ns#"
   xmlns:svg="http://www.w3.org/2000/svg"
   xmlns="http://www.w3.org/2000/svg"
   xmlns:sodipodi="http://sodipodi.sourceforge.net/DTD/sodipodi-0.dtd"
   xmlns:inkscape="http://www.inkscape.org/namespaces/inkscape"
   width="22"
   height="22"
   version="1.1"
   id="svg7"
   sodipodi:docname="nutstore-panel.svg"
   inkscape:version="0.92.3 (2405546, 2018-03-11)">
  <metadata
     id="metadata11">
    <rdf:RDF>
      <cc:Work
         rdf:about="">
        <dc:format>image/svg+xml</dc:format>
        <dc:type
           rdf:resource="http://purl.org/dc/dcmitype/StillImage" />
        <dc:title></dc:title>
      </cc:Work>
    </rdf:RDF>
  </metadata>
  <sodipodi:namedview
     pagecolor="#ffffff"
     bordercolor="#666666"
     borderopacity="1"
     objecttolerance="10"
     gridtolerance="10"
     guidetolerance="10"
     inkscape:pageopacity="0"
     inkscape:pageshadow="2"
     inkscape:window-width="1920"
     inkscape:window-height="1020"
     id="namedview9"
     showgrid="false"
     inkscape:zoom="20.02"
     inkscape:cx="11"
     inkscape:cy="11"
     inkscape:window-x="0"
     inkscape:window-y="30"
     inkscape:window-maximized="1"
     inkscape:current-layer="svg7" />
  <defs
     id="defs3">
    <style
       id="current-color-scheme"
       type="text/css">
   .ColorScheme-Text { color:#eff0f1; } .ColorScheme-Highlight { color:#3daee9; }
  </style>
  </defs>
  <path
     style="fill:#eff0f1;stroke-width:1.00001764;fill-opacity:1"
     d="M 10.417969 4 C 9.8139475 3.99763 9.2273597 4.077868 8.6796875 4.2402344 C 7.8470691 4.5693368 7.1632819 4.8725415 7.9414062 5.2832031 C 9.4168972 6.0540561 10.806657 7.1054805 12.009766 8.4375 C 13.923991 10.556827 15.111447 13.096632 15.65625 15.601562 C 15.810464 16.467835 16.559902 15.700243 16.867188 15.382812 C 18.548212 13.635834 18.464619 9.3493705 15.894531 6.5039062 C 14.386337 4.8341133 12.319986 4.0074625 10.417969 4 z M 17.824219 4.0058594 C 17.620018 3.9870004 17.396829 4.0195289 17.166016 4.0761719 C 16.668087 4.2175657 16.187663 4.5835549 15.720703 4.9726562 C 16.039394 5.2368014 16.349697 5.5162096 16.636719 5.8339844 C 16.747625 5.9567746 16.846584 6.0858856 16.949219 6.2128906 C 17.068719 6.1558726 17.198389 6.1036615 17.353516 6.0683594 C 17.711858 5.9868114 18.320962 6.2183781 18.603516 6.3203125 C 18.979479 6.3267525 19.052866 5.7607567 18.96875 5.3613281 C 18.870347 4.8940896 18.563462 4.5620597 18.371094 4.2480469 C 18.213956 4.0956665 18.02842 4.0247167 17.824219 4.0058594 z M 7.25 6.0234375 C 7.206218 6.0555035 7.1629666 6.0819874 7.1191406 6.1152344 C 3.808508 8.6269644 1.9552082 14.178416 3.625 16.144531 C 5.5691304 18.43367 10.791087 18.619964 13.978516 16.615234 C 14.253355 16.442375 14.504451 16.253258 14.744141 16.054688 C 14.711901 15.959008 14.687545 15.863403 14.671875 15.775391 L 14.679688 15.8125 C 14.169246 13.465438 13.053387 11.084572 11.267578 9.1074219 C 10.14611 7.8657924 8.8521959 6.8875848 7.4785156 6.1699219 L 7.4765625 6.1699219 L 7.4746094 6.1679688 C 7.4006104 6.1289156 7.3258917 6.0698288 7.25 6.0234375 z M 7.3515625 7.3164062 C 8.4882322 7.9589802 9.5847714 8.7359426 10.525391 9.7773438 C 12.09245 11.512306 13.069503 13.599751 13.578125 15.671875 C 13.533005 15.702285 13.491419 15.740531 13.445312 15.769531 C 12.071788 16.633409 10.138546 17.066486 8.3769531 16.992188 C 6.6153605 16.917883 5.081438 16.316052 4.3867188 15.498047 C 3.9706187 15.008105 3.8402874 13.434219 4.4492188 11.660156 C 5.0001192 10.055161 6.0867369 8.4352513 7.3515625 7.3164062 z "
     id="path863" />
</svg>
