<svg xmlns="http://www.w3.org/2000/svg" id="svg2" width="22" height="22" version="1.1">
 <defs id="defs8">
  <style id="current-color-scheme" type="text/css">
   .ColorScheme-Text { color:#eff0f1; } .ColorScheme-Highlight { color:#3daee9; }
  </style>
 </defs>
 <path id="path4" style="fill:#eff0f1;stroke-width:0.9780587;fill-opacity:1" d="M 3 3 L 3 4 L 3 19 L 4 19 L 19 19 L 19 18 L 19 5 L 12.007812 5 L 10.007812 3 L 10 3.0078125 L 10 3 L 4 3 L 3 3 z M 9.0078125 8 L 18 8 L 18 18 L 4 18 L 4 10 L 7 10 L 7 9.9921875 L 7.0078125 10 L 9.0078125 8 z M 10.980469 9 A 0.42516032 0.44445 0 0 0 10.599609 9.3046875 L 9.8339844 11.691406 L 7.4238281 11.708984 A 0.42516032 0.44445 0 0 0 7.1738281 12.513672 L 9.109375 14.013672 L 8.3828125 16.414062 A 0.42516032 0.44445 0 0 0 9.0351562 16.912109 L 10.998047 15.451172 L 12.958984 16.916016 A 0.42516032 0.44445 0 0 0 13.611328 16.423828 L 12.890625 14.019531 L 14.828125 12.521484 A 0.42516032 0.44445 0 0 0 14.580078 11.720703 L 12.169922 11.695312 L 11.408203 9.3046875 A 0.42516032 0.44445 0 0 0 11.023438 9 A 0.42516032 0.44445 0 0 0 10.980469 9 z"/>
</svg>
