<svg xmlns="http://www.w3.org/2000/svg" width="22" height="22" version="1">
 <defs>
  <style id="current-color-scheme" type="text/css">
   .ColorScheme-Text { color:#eff0f1; } .ColorScheme-Highlight { color:#3daee9; }
  </style>
 </defs>
 <path style="fill:currentColor" class="ColorScheme-Text" d="M 7 3 C 4.790861 3 3 4.790861 3 7 C 3.0003646 8.0325137 3.399975 9.0248912 4.1152344 9.7695312 C 4.0406206 10.175488 4.0020589 10.587248 4 11 C 4 14.865993 7.1340067 18 11 18 C 11.415304 17.999048 11.829698 17.96114 12.238281 17.886719 C 12.981279 18.599397 13.97046 18.998148 15 19 C 17.209139 19 19 17.209139 19 15 C 18.999635 13.967486 18.600025 12.975109 17.884766 12.230469 C 17.95938 11.824512 17.997941 11.412752 18 11 C 18 7.1340068 14.865993 4 11 4 C 10.584697 4.0009525 10.170302 4.0388624 9.7617188 4.1132812 C 9.0187211 3.4006028 8.0295399 3.0018522 7 3 z M 6.9980469 4 L 7 4 C 7.7718073 4.00188 8.5132825 4.3016305 9.0703125 4.8359375 L 9.4375 5.1894531 L 9.9414062 5.0976562 C 10.290985 5.0339792 10.644672 5.000935 11 5 C 14.324886 5 16.998927 7.6734217 17 10.998047 C 16.9982 11.35104 16.966094 11.701631 16.902344 12.048828 L 16.808594 12.552734 L 17.164062 12.921875 C 17.70077 13.480714 17.999865 14.225181 18 15 C 18 16.668043 16.669731 17.998954 15.001953 18 C 14.229422 17.9987 13.487259 17.700728 12.929688 17.166016 L 12.5625 16.8125 L 12.058594 16.902344 C 11.709091 16.96592 11.355234 16.999135 11 17 C 7.6751138 17 5.0010725 14.326578 5 11.001953 L 5 11 C 5.00209 10.648162 5.0360154 10.297229 5.0996094 9.9511719 L 5.1914062 9.4472656 L 4.8359375 9.0761719 C 4.2992749 8.5174476 4.0002727 7.7747104 4 7 C 4 5.3319568 5.3302689 4.0010457 6.9980469 4 z M 12 8 L 7 11 L 12 14 L 12 12 L 15 12 L 15 10 L 12 10 L 12 8 z"/>
</svg>
