<svg xmlns="http://www.w3.org/2000/svg" id="svg9" width="22" height="22" version="1">
 <defs id="defs3">
  <style id="current-color-scheme" type="text/css">
   .ColorScheme-Text { color:#eff0f1; } .ColorScheme-Highlight { color:#3daee9; }
  </style>
 </defs>
 <path id="path7" style="fill:currentColor" class="ColorScheme-Text" d="M 17.935547 3.0039062 C 17.480516 2.9761043 17.232729 3.0554029 10.572266 5.3847656 C 6.7821018 6.7104581 3.5955946 7.850564 3.4921875 7.9179688 C 3.1913665 8.1136824 3 8.4901851 3 8.8828125 C 3 9.7259713 3.3082568 9.9626149 6.3554688 11.449219 C 7.8976761 12.202271 8.9311318 12.751757 9.0566406 12.884766 C 9.1686484 13.002774 9.8214121 14.233044 10.505859 15.619141 C 11.743945 18.121316 12.028578 18.590356 12.474609 18.859375 C 12.947642 19.147395 13.591677 18.978786 13.970703 18.46875 C 14.148716 18.229733 18.927324 4.725952 18.986328 4.2949219 C 19.042328 3.8940939 18.915827 3.5185658 18.632812 3.2480469 C 18.4438 3.0677343 18.328575 3.027908 17.935547 3.0039062 z M 17.875 4.0019531 C 17.9583 4.0070431 17.925922 4.0023427 17.951172 4.0058594 C 17.977785 4.0358768 17.99295 4.0656658 17.994141 4.1171875 C 17.986403 4.153896 17.979964 4.1887282 17.96875 4.2246094 C 17.93374 4.3367257 17.87976 4.4989483 17.8125 4.7011719 C 17.677971 5.105619 17.486744 5.6688047 17.257812 6.3320312 C 16.799952 7.6584847 16.191766 9.3929839 15.580078 11.121094 C 14.968391 12.849203 14.353498 14.570669 13.880859 15.873047 C 13.64454 16.524236 13.444111 17.070899 13.298828 17.457031 C 13.226188 17.650098 13.167132 17.803728 13.126953 17.904297 C 13.054573 17.965287 12.979703 17.997067 12.994141 18.005859 L 12.992188 18.003906 L 12.990234 18.003906 C 12.907214 17.953826 12.885507 17.959046 12.642578 17.558594 C 12.399805 17.158397 12.018266 16.422474 11.402344 15.177734 L 11.402344 15.175781 C 11.056515 14.475471 10.719924 13.815316 10.451172 13.308594 C 10.316684 13.055022 10.199784 12.840512 10.103516 12.671875 C 10.055386 12.587555 10.012786 12.514286 9.9707031 12.447266 C 9.929079 12.380925 9.9269569 12.349141 9.7851562 12.199219 C 9.5197036 11.917903 9.4692105 11.944648 9.3085938 11.849609 C 9.1479769 11.754571 8.9486505 11.646067 8.7070312 11.517578 C 8.2237928 11.2606 7.5731379 10.93078 6.7949219 10.550781 C 5.2781535 9.8108153 4.4467705 9.3635533 4.1425781 9.1308594 C 3.990482 9.0145124 3.9917872 8.9860318 4.0019531 9.0078125 C 4.0121191 9.0295932 4 9.032617 4 8.8828125 C 4 8.8265799 4.0321107 8.7864325 4.03125 8.7773438 C 4.1270934 8.7404459 4.2721272 8.6864701 4.4550781 8.6191406 C 4.8224607 8.4839366 5.3462894 8.2934664 5.9863281 8.0644531 C 7.2664056 7.6064266 9.0091591 6.9903075 10.902344 6.328125 C 14.232285 5.163545 15.963941 4.5607341 16.888672 4.2617188 C 17.351037 4.112211 17.612777 4.0410237 17.734375 4.015625 C 17.855973 3.9902263 17.795698 3.9971079 17.875 4.0019531 z"/>
</svg>
