<svg xmlns="http://www.w3.org/2000/svg" id="svg7" width="22" height="22" version="1">
 <defs id="defs3">
  <style id="current-color-scheme" type="text/css">
   .ColorScheme-Text { color:#eff0f1; } .ColorScheme-Highlight { color:#3daee9; }
  </style>
 </defs>
 <path id="path5" style="fill:#3daee9;fill-opacity:1" class="ColorScheme-Text" d="M 11 3 C 6.568 3 3 6.568 3 11 C 3 15.432 6.568 19 11 19 C 15.432 19 19 15.432 19 11 C 19 6.568 15.432 3 11 3 z M 11 4 C 14.895297 4 18 7.1047028 18 11 C 18 14.895297 14.895297 18 11 18 C 7.1047028 18 4 14.895297 4 11 C 4 7.1047028 7.1047028 4 11 4 z M 6 7 L 6 12.412109 C 6 12.412109 6.00155 13.098047 6.46875 13.748047 C 6.93585 14.398047 7.8839 15 9.5 15 C 10.122 15 10.565 14.852078 11 14.705078 C 11.435 14.852078 11.878 15 12.5 15 C 14.116 15 15.06425 14.398047 15.53125 13.748047 C 15.9984 13.097727 16 12.412109 16 12.412109 L 16 7 L 15 7 L 15 12.412109 C 15 12.412109 15.0017 12.770062 14.71875 13.164062 C 14.43575 13.558062 13.884 14 12.5 14 C 12.394 14 12.363578 13.963984 12.267578 13.958984 C 12.338878 13.882374 12.47449 13.827077 12.53125 13.748047 C 12.9984 13.097731 13 12.412109 13 12.412109 L 13 8.0703125 L 12.996094 8.0371094 C 12.996094 8.0371094 12.96837 7.8916006 12.90625 7.7753906 C 12.84412 7.6591805 12.739194 7.5249531 12.583984 7.4082031 C 12.273584 7.1747031 11.787914 7.01119 11.007812 7 C 10.222814 6.9887 9.7225031 7.1539375 9.4082031 7.3984375 C 9.2510031 7.5207375 9.1479906 7.6602969 9.0878906 7.7792969 C 9.0277316 7.8983469 9.0039062 8.0429688 9.0039062 8.0429688 L 9 8.0722656 L 9 12.412109 C 9 12.412109 9.00155 13.098047 9.46875 13.748047 C 9.52545 13.827047 9.6611219 13.881984 9.7324219 13.958984 C 9.6362219 13.963984 9.6057 14 9.5 14 C 8.116 14 7.56415 13.558064 7.28125 13.164062 C 6.99841 12.770283 7 12.412109 7 12.412109 L 7 7 L 6 7 z M 10.992188 8 C 11.636188 8.0092 11.901375 8.1463844 11.984375 8.2089844 C 12.000055 8.2207544 11.99347 8.2160542 12 8.2226562 L 12 12.412109 C 12 12.412109 12.0017 12.770062 11.71875 13.164062 C 11.575325 13.363732 11.35523 13.573805 11 13.734375 C 10.64476 13.573805 10.42468 13.363743 10.28125 13.164062 C 9.99838 12.770273 10 12.412109 10 12.412109 L 10 8.2109375 C 10.0054 8.2039175 10.001717 8.2044 10.023438 8.1875 C 10.103077 8.12554 10.353137 7.9908 10.992188 8 z"/>
</svg>
