<?xml version="1.0" encoding="UTF-8" standalone="no"?>
<svg
   viewBox="0 0 22 22"
   version="1.1"
   id="svg6"
   sodipodi:docname="system-log-out.svg"
   inkscape:version="1.1 (c4e8f9ed74, 2021-05-24)"
   width="22"
   height="22"
   xmlns:inkscape="http://www.inkscape.org/namespaces/inkscape"
   xmlns:sodipodi="http://sodipodi.sourceforge.net/DTD/sodipodi-0.dtd"
   xmlns:xlink="http://www.w3.org/1999/xlink"
   xmlns="http://www.w3.org/2000/svg"
   xmlns:svg="http://www.w3.org/2000/svg">
  <sodipodi:namedview
     id="namedview8"
     pagecolor="#ffffff"
     bordercolor="#666666"
     borderopacity="1.0"
     inkscape:pageshadow="2"
     inkscape:pageopacity="0.0"
     inkscape:pagecheckerboard="0"
     showgrid="false"
     inkscape:zoom="21.53125"
     inkscape:cx="15.442671"
     inkscape:cy="15.558781"
     inkscape:window-width="1920"
     inkscape:window-height="992"
     inkscape:window-x="0"
     inkscape:window-y="28"
     inkscape:window-maximized="1"
     inkscape:current-layer="svg6" />
  <defs
     id="defs3051">
    <linearGradient
       inkscape:collect="always"
       id="linearGradient5857">
      <stop
         style="stop-color:#000000;stop-opacity:1;"
         offset="0"
         id="stop5853" />
      <stop
         style="stop-color:#000000;stop-opacity:0;"
         offset="1"
         id="stop5855" />
    </linearGradient>
    <linearGradient
       inkscape:collect="always"
       id="linearGradient1577">
      <stop
         style="stop-color:#447821;stop-opacity:1"
         offset="0"
         id="stop1573" />
      <stop
         style="stop-color:#8dd35f;stop-opacity:1"
         offset="1"
         id="stop1575" />
    </linearGradient>
    <linearGradient
       inkscape:collect="always"
       id="linearGradient1203">
      <stop
         style="stop-color:#aade87;stop-opacity:1;"
         offset="0"
         id="stop1199" />
      <stop
         style="stop-color:#e3f4d7;stop-opacity:1"
         offset="1"
         id="stop1201" />
    </linearGradient>
    <style
       type="text/css"
       id="current-color-scheme">
      .ColorScheme-Text {
        color:#232629;
      }
      </style>
    <linearGradient
       inkscape:collect="always"
       xlink:href="#linearGradient1203"
       id="linearGradient1205"
       x1="16.133102"
       y1="27.824652"
       x2="16"
       y2="3.9999998"
       gradientUnits="userSpaceOnUse"
       gradientTransform="matrix(0.78571428,0,0,0.78571428,-1.5714285,-1.5714285)" />
    <linearGradient
       inkscape:collect="always"
       xlink:href="#linearGradient1577"
       id="linearGradient1579"
       x1="16.092588"
       y1="29.931732"
       x2="15.807361"
       y2="1.9083194"
       gradientUnits="userSpaceOnUse"
       gradientTransform="matrix(0.78571428,0,0,0.78571428,-1.5714285,-1.5714285)" />
    <linearGradient
       inkscape:collect="always"
       xlink:href="#linearGradient5857"
       id="linearGradient5407"
       x1="-1.2666328"
       y1="-2.0494063"
       x2="19.884045"
       y2="18.659731"
       gradientUnits="userSpaceOnUse"
       gradientTransform="matrix(0.78571428,0,0,0.78571428,-1.5714285,-1.5714285)" />
    <linearGradient
       inkscape:collect="always"
       xlink:href="#linearGradient5857"
       id="linearGradient5859"
       x1="9.3180113"
       y1="4.7851434"
       x2="24.474451"
       y2="19.864059"
       gradientUnits="userSpaceOnUse"
       gradientTransform="matrix(0.78571428,0,0,0.78571428,-1.5714285,-1.5714285)" />
  </defs>
  <circle
     style="opacity:1;fill:url(#linearGradient1579);fill-opacity:1;stroke-width:0.717893"
     id="path847"
     cx="11"
     cy="11"
     r="11" />
  <path
     id="path847-5"
     style="opacity:0.3;fill:url(#linearGradient5859);fill-opacity:1;stroke-width:0.717893"
     d="M 13.568917,4.7142856 7.0714276,11 16.544502,20.473073 a 11,11 0 0 0 5.263672,-7.537945 L 14.142857,5.26981 Z" />
  <path
     id="path847-1-6"
     style="opacity:0.3;fill:url(#linearGradient5407);fill-opacity:1;stroke-width:0.717893"
     d="m 11,1.5714283 c -5.2072587,0 -9.4285715,4.2213125 -9.4285715,9.4285717 0,2.082928 0.6747425,4.008786 1.8184988,5.569057 0.5500628,0.750424 1.219078,1.404127 1.9627512,1.962751 l 3.1535993,3.153598 A 11,11 0 0 0 11,22 11,11 0 0 0 16.544504,20.473074 L 7.0714283,11 13.568917,4.7142853 l 0.57394,0.5555246 7.665317,7.6653191 A 11,11 0 0 0 22,11 11,11 0 0 0 21.674664,8.3420753 L 17.666295,4.333705 C 15.960037,2.6274715 13.603621,1.5714283 11,1.5714283 Z m 5.544504,18.9016457 a 11,11 0 0 0 1.061941,-0.712053 11,11 0 0 1 -1.061941,0.712053 z m 5.259067,-7.521066 a 11,11 0 0 1 -2.206752,4.87235 11,11 0 0 0 2.206752,-4.87235 z m -2.206752,4.87235 a 11,11 0 0 1 -0.857841,0.952985 11,11 0 0 0 0.857841,-0.952985 z m -0.946847,1.043527 a 11,11 0 0 1 -0.939174,0.813337 11,11 0 0 0 0.939174,-0.813337 z" />
  <path
     style="fill:url(#linearGradient1205);fill-opacity:1;stroke:none;stroke-width:0.785715"
     d="M 11,1.5714283 A 9.4285712,9.4285712 0 0 0 1.5714285,11 9.4285712,9.4285712 0 0 0 11,20.428571 9.4285712,9.4285712 0 0 0 20.428571,11 9.4285712,9.4285712 0 0 0 11,1.5714283 Z m 0,0.7857143 A 8.642857,8.642857 0 0 1 19.642857,11 8.642857,8.642857 0 0 1 11,19.642857 8.642857,8.642857 0 0 1 2.3571428,11 8.642857,8.642857 0 0 1 11,2.3571426 Z M 13.568917,4.7142853 7.0714283,11 13.568917,17.285714 14.142857,16.730189 8.2193082,11 14.142857,5.2698099 Z"
     class="ColorScheme-Text"
     id="path4" />
  <path
     d="M 21.98845,10.680214 A 11,11 0 0 1 11,21.450313 11,11 0 0 1 0.0121,10.770414 11,11 0 0 0 0,11.000314 11,11 0 0 0 11,22.000313 11,11 0 0 0 22,11.000314 a 11,11 0 0 0 -0.01155,-0.3201 z"
     id="path10"
     inkscape:connector-curvature="0"
     style="opacity:0.2;fill:#000000;fill-opacity:1;stroke-width:0.55"
     inkscape:label="path10" />
</svg>
