<?xml version="1.0" encoding="UTF-8" standalone="no"?>
<svg
   viewBox="0 0 16 16"
   version="1.1"
   id="svg6"
   sodipodi:docname="org.gnome.Lollypop-artists-list-symbolic.svg"
   inkscape:version="1.1.1 (3bf5ae0d25, 2021-09-20, custom)"
   xmlns:inkscape="http://www.inkscape.org/namespaces/inkscape"
   xmlns:sodipodi="http://sodipodi.sourceforge.net/DTD/sodipodi-0.dtd"
   xmlns="http://www.w3.org/2000/svg"
   xmlns:svg="http://www.w3.org/2000/svg">
  <sodipodi:namedview
     id="namedview8"
     pagecolor="#ffffff"
     bordercolor="#666666"
     borderopacity="1.0"
     inkscape:pageshadow="2"
     inkscape:pageopacity="0.0"
     inkscape:pagecheckerboard="0"
     showgrid="false"
     inkscape:zoom="46.9375"
     inkscape:cx="7.9893475"
     inkscape:cy="8"
     inkscape:window-width="1920"
     inkscape:window-height="1019"
     inkscape:window-x="0"
     inkscape:window-y="31"
     inkscape:window-maximized="1"
     inkscape:current-layer="svg6" />
  <defs
     id="defs3051">
    <style
       type="text/css"
       id="current-color-scheme">
      .ColorScheme-Text {
        color:#232629;
      }
      </style>
  </defs>
  <path
     id="path4"
     style="fill:currentColor;fill-opacity:1;stroke:none"
     class="ColorScheme-Text"
     d="M 8.0039062 2 A 3 3 0 0 0 5.0039062 5 A 3 3 0 0 0 8.0039062 8 A 3 3 0 0 0 11.003906 5 A 3 3 0 0 0 8.0039062 2 z M 8.0039062 3 A 2 2 0 0 1 10.003906 5 A 2 2 0 0 1 8.0039062 7 A 2 2 0 0 1 6.0039062 5 A 2 2 0 0 1 8.0039062 3 z M 8.0039062 9 A 5 4.5 0 0 0 3.0039062 13.5 A 5 4.5 0 0 0 3.0371094 14 L 10.958984 14 L 10.958984 13 L 4.0488281 13 A 4 3.5 0 0 1 8.0039062 10 A 4 3.5 0 0 1 10.958984 11.15625 L 10.958984 9.8710938 A 5 4.5 0 0 0 8.0039062 9 z M 11.958984 9 L 11.958984 10 L 12.958984 10 L 12.958984 9 L 11.958984 9 z M 11.958984 11 L 11.958984 12 L 12.958984 12 L 12.958984 11 L 11.958984 11 z M 11.958984 13 L 11.958984 14 L 12.958984 14 L 12.958984 13 L 11.958984 13 z " />
</svg>
