<?xml version="1.0" encoding="UTF-8" standalone="no"?>
<svg
   xmlns:dc="http://purl.org/dc/elements/1.1/"
   xmlns:cc="http://creativecommons.org/ns#"
   xmlns:rdf="http://www.w3.org/1999/02/22-rdf-syntax-ns#"
   xmlns:svg="http://www.w3.org/2000/svg"
   xmlns="http://www.w3.org/2000/svg"
   xmlns:sodipodi="http://sodipodi.sourceforge.net/DTD/sodipodi-0.dtd"
   xmlns:inkscape="http://www.inkscape.org/namespaces/inkscape"
   width="16"
   height="16"
   version="1.1"
   id="svg4"
   sodipodi:docname="location-services-disabled-symbolic.svg"
   inkscape:version="0.92.3 (2405546, 2018-03-11)">
  <metadata
     id="metadata10">
    <rdf:RDF>
      <cc:Work
         rdf:about="">
        <dc:format>image/svg+xml</dc:format>
        <dc:type
           rdf:resource="http://purl.org/dc/dcmitype/StillImage" />
        <dc:title></dc:title>
      </cc:Work>
    </rdf:RDF>
  </metadata>
  <defs
     id="defs8" />
  <sodipodi:namedview
     pagecolor="#ffffff"
     bordercolor="#666666"
     borderopacity="1"
     objecttolerance="10"
     gridtolerance="10"
     guidetolerance="10"
     inkscape:pageopacity="0"
     inkscape:pageshadow="2"
     inkscape:window-width="1920"
     inkscape:window-height="1026"
     id="namedview6"
     showgrid="true"
     inkscape:zoom="25.679692"
     inkscape:cx="8.2711864"
     inkscape:cy="7.7288136"
     inkscape:window-x="0"
     inkscape:window-y="30"
     inkscape:window-maximized="1"
     inkscape:current-layer="svg4">
    <inkscape:grid
       type="xygrid"
       id="grid823" />
  </sodipodi:namedview>
  <path
     style="color:#232629;fill:#232627;fill-opacity:1;stroke:none;stroke-width:1.25;opacity:0.3"
     d="M 8 1 C 6.6502204 1.000005 5.4308151 1.5408285 4.53125 2.4101562 L 5.2480469 3.1269531 C 5.3375726 3.0410625 5.4156986 2.9450135 5.5136719 2.8671875 C 5.7226414 2.7010302 5.9477241 2.5568603 6.1855469 2.4355469 C 6.747818 2.1494759 7.3691394 1.9998015 8 2 C 9.2203968 2.0000207 10.374037 2.5578327 11.132812 3.5136719 C 11.298971 3.7226414 11.443141 3.9477245 11.564453 4.1855469 C 11.806923 4.6624381 11.952566 5.1831322 11.990234 5.7167969 C 11.997034 5.8112609 11.99979 5.9052891 12 6 C 11.999687 6.4008727 11.93913 6.7987758 11.820312 7.1816406 C 11.754442 7.3894327 11.671053 7.5927988 11.572266 7.7871094 C 11.561196 7.8115284 11.550593 7.835184 11.539062 7.859375 C 11.362439 8.1957845 11.14208 8.4990169 10.886719 8.765625 L 11.681641 9.5605469 L 12.03125 8.9492188 C 12.347762 8.5549565 12.48346 8.136716 12.681641 7.7421875 C 12.890365 7.1846604 12.998823 6.5953157 13 6 C 12.99999 3.2385806 10.76142 1.0000102 8 1 z M 3.0703125 5.1914062 C 3.0273496 5.4550981 3.000001 5.7241644 3 6 C 3.002 6.5954634 3.1107565 7.184813 3.3203125 7.7421875 C 3.4719814 8.1613629 3.7768659 8.6269546 3.96875 8.9472656 L 8 16 L 10.138672 12.259766 L 7.8691406 9.9902344 C 6.435156 9.9421501 5.1310275 9.1357038 4.4609375 7.859375 C 4.4016313 7.7465623 4.3470987 7.6316291 4.2988281 7.5136719 L 4.2910156 7.4941406 C 4.2469872 7.3839555 4.2078845 7.2718643 4.1738281 7.1582031 C 4.1684948 7.1426107 4.1632698 7.1269846 4.1582031 7.1113281 C 4.128582 7.0047804 4.1046777 6.8976985 4.0839844 6.7890625 C 4.0785445 6.7665389 4.073426 6.7433174 4.0683594 6.7207031 C 4.0479222 6.6085758 4.032279 6.4962752 4.0214844 6.3828125 C 4.0195644 6.3637278 4.017225 6.3452811 4.015625 6.3261719 C 4.0097612 6.2600521 4.0084479 6.19346 4.0058594 6.1269531 L 3.0703125 5.1914062 z "
     id="path827" />
  <path
     style="color:#000000;font-style:normal;font-variant:normal;font-weight:normal;font-stretch:normal;font-size:medium;line-height:normal;font-family:sans-serif;font-variant-ligatures:normal;font-variant-position:normal;font-variant-caps:normal;font-variant-numeric:normal;font-variant-alternates:normal;font-feature-settings:normal;text-indent:0;text-align:start;text-decoration:none;text-decoration-line:none;text-decoration-style:solid;text-decoration-color:#000000;letter-spacing:normal;word-spacing:normal;text-transform:none;writing-mode:lr-tb;direction:ltr;text-orientation:mixed;dominant-baseline:auto;baseline-shift:baseline;text-anchor:start;white-space:normal;shape-padding:0;clip-rule:nonzero;display:inline;overflow:visible;visibility:visible;opacity:1;isolation:auto;mix-blend-mode:normal;color-interpolation:sRGB;color-interpolation-filters:linearRGB;solid-color:#000000;solid-opacity:1;vector-effect:none;fill:#232627;fill-opacity:1;fill-rule:nonzero;stroke:none;stroke-width:1px;stroke-linecap:butt;stroke-linejoin:miter;stroke-miterlimit:4;stroke-dasharray:none;stroke-dashoffset:0;stroke-opacity:1;color-rendering:auto;image-rendering:auto;shape-rendering:auto;text-rendering:auto;enable-background:accumulate"
     d="M 0 0 L 0 0.70703125 L 15.292969 16 L 16 16 L 16 15.292969 L 0.70703125 0 L 0 0 z "
     id="path830" />
</svg>
