<?xml version="1.0" encoding="UTF-8" standalone="no"?>
<!-- Created with Inkscape (http://www.inkscape.org/) -->

<svg
   id="svg7384"
   height="16"
   width="16"
   version="1.1"
   sodipodi:docname="network-wireless-signal-good-symbolic.svg"
   inkscape:version="1.1.1 (3bf5ae0d25, 2021-09-20, custom)"
   xmlns:inkscape="http://www.inkscape.org/namespaces/inkscape"
   xmlns:sodipodi="http://sodipodi.sourceforge.net/DTD/sodipodi-0.dtd"
   xmlns="http://www.w3.org/2000/svg"
   xmlns:svg="http://www.w3.org/2000/svg"
   xmlns:rdf="http://www.w3.org/1999/02/22-rdf-syntax-ns#"
   xmlns:cc="http://creativecommons.org/ns#"
   xmlns:dc="http://purl.org/dc/elements/1.1/">
  <defs
     id="defs14" />
  <sodipodi:namedview
     pagecolor="#ffffff"
     bordercolor="#666666"
     borderopacity="1"
     objecttolerance="10"
     gridtolerance="10"
     guidetolerance="10"
     inkscape:pageopacity="0"
     inkscape:pageshadow="2"
     inkscape:window-width="1920"
     inkscape:window-height="1019"
     id="namedview12"
     showgrid="true"
     inkscape:zoom="36.32"
     inkscape:cx="5.6993392"
     inkscape:cy="6.965859"
     inkscape:window-x="0"
     inkscape:window-y="0"
     inkscape:window-maximized="1"
     inkscape:current-layer="svg7384"
     inkscape:pagecheckerboard="0">
    <inkscape:grid
       type="xygrid"
       id="grid4508" />
  </sodipodi:namedview>
  <metadata
     id="metadata90">
    <rdf:RDF>
      <cc:Work
         rdf:about="">
        <dc:format>image/svg+xml</dc:format>
        <dc:type
           rdf:resource="http://purl.org/dc/dcmitype/StillImage" />
        <dc:title>Gnome Symbolic Icon Theme</dc:title>
      </cc:Work>
    </rdf:RDF>
  </metadata>
  <title
     id="title9167">Gnome Symbolic Icon Theme</title>
  <path
     id="path4477"
     style="color:#31363b;opacity:1;fill:#242628;fill-opacity:0.992506;stroke:none"
     d="M 10.537436,10.485993 C 9.1489554,9.0963691 6.8977511,9.0926619 5.5048236,10.477707 l 0.7084875,0.708487 c 1.0013418,-0.993436 2.6172495,-0.990968 3.6156362,0.0055 l 0.00138,0.0014 z"
     sodipodi:nodetypes="cccccc" />
  <path
     d="M 13,8 C 11.73475,6.7347495 9.983728,5.9532569 8.0447277,5.953257 6.1057278,5.9532569 4.3547059,6.7347499 3.089456,7.9999995 l 0.708488,0.7084877 c 1.0845,-1.0844993 2.5847837,-1.7553371 4.2467836,-1.7553371 1.6620004,10e-8 3.1622854,0.670838 4.2467844,1.7553382 z"
     style="color:#31363b;opacity:1;fill:#242628;fill-opacity:0.992506;stroke:none"
     id="path1264" />
  <circle
     style="opacity:1;fill:#242628;fill-opacity:0.992506;stroke-width:2"
     id="path849"
     cx="8"
     cy="14"
     r="1" />
  <path
     d="M 15.797923,5.2531269 C 13.809673,3.264876 11.058462,2.0380003 8.0114617,2.038 4.964462,2.0380002 2.2132498,3.2648772 0.225,5.2531267 L 0.932107,5.9602334 C 2.7396068,4.1527236 5.241462,3.0378942 8.0114617,3.0378932 c 2.7700003,2e-7 5.2718453,1.1148298 7.0793543,2.9223404 z"
     style="color:#31363b;opacity:0.5;fill:#232627;fill-opacity:1;stroke:none"
     id="path1019" />
</svg>
