<?xml version="1.0" encoding="UTF-8" standalone="no"?>
<svg
   xmlns:dc="http://purl.org/dc/elements/1.1/"
   xmlns:cc="http://creativecommons.org/ns#"
   xmlns:rdf="http://www.w3.org/1999/02/22-rdf-syntax-ns#"
   xmlns:svg="http://www.w3.org/2000/svg"
   xmlns="http://www.w3.org/2000/svg"
   xmlns:sodipodi="http://sodipodi.sourceforge.net/DTD/sodipodi-0.dtd"
   xmlns:inkscape="http://www.inkscape.org/namespaces/inkscape"
   id="svg2"
   width="16"
   height="16"
   version="1.1"
   sodipodi:docname="numlock-disabled-symbolic.svg"
   inkscape:version="0.92.3 (2405546, 2018-03-11)">
  <metadata
     id="metadata8">
    <rdf:RDF>
      <cc:Work
         rdf:about="">
        <dc:format>image/svg+xml</dc:format>
        <dc:type
           rdf:resource="http://purl.org/dc/dcmitype/StillImage" />
        <dc:title></dc:title>
      </cc:Work>
    </rdf:RDF>
  </metadata>
  <sodipodi:namedview
     pagecolor="#ffffff"
     bordercolor="#666666"
     borderopacity="1"
     objecttolerance="10"
     gridtolerance="10"
     guidetolerance="10"
     inkscape:pageopacity="0"
     inkscape:pageshadow="2"
     inkscape:window-width="1920"
     inkscape:window-height="1021"
     id="namedview6"
     showgrid="false"
     inkscape:zoom="10.727273"
     inkscape:cx="11"
     inkscape:cy="11"
     inkscape:window-x="0"
     inkscape:window-y="30"
     inkscape:window-maximized="1"
     inkscape:current-layer="svg2" />
  <defs
     id="defs12">
    <style
       id="current-color-scheme"
       type="text/css">
   .ColorScheme-Text { color:#232627; } .ColorScheme-Highlight { color:#3daee9; }
  </style>
  </defs>
  <path
     id="path4489"
     style="fill:#232627;fill-opacity:1;stroke-width:0.99997503;opacity:0.5"
     d="M 3.0000001,2.1666665e-8 A 2.0001,2.0002 0 0 0 1.0117189,1.7792969 l -1,9.0000001 A 2.0001,2.0002 0 0 0 2.0000001,13 H 14 a 2.0001,2.0002 0 0 0 1.988281,-2.220703 l -1,-9.0000001 A 2.0001,2.0002 0 0 0 13,2.1666665e-8 Z M 3.0000001,1 H 13 c 0.517854,-9.28e-6 0.936941,0.3758388 0.994141,0.890625 l 1,8.998047 C 15.06177,11.497603 14.612559,12.000008 14,12 H 2.0000001 c -0.6126259,9.9e-5 -1.0617773,-0.50233 -0.9941406,-1.111328 l 1,-8.998047 C 2.0630658,1.3757777 2.4820843,0.99991312 3.0000001,1 Z m 6,1 -4,1 v 2 l 2,-0.5 V 9 h -2 v 2 H 11 V 9 H 9.0000001 V 4 Z M 1.0000206e-7,13.203125 V 13.75 C 1.0000206e-7,14.962 1.0381607,16 2.2500001,16 H 13.75 C 14.96194,16 16,14.962 16,13.75 V 13.203125 C 15.468027,13.688125 14.774961,14 14,14 H 2.0000001 C 1.2254388,14 0.5315735,13.688125 1.0000206e-7,13.203125 Z"
     inkscape:connector-curvature="0" />
</svg>
