<?xml version="1.0" encoding="UTF-8" standalone="no"?>
<svg
   xmlns:dc="http://purl.org/dc/elements/1.1/"
   xmlns:cc="http://creativecommons.org/ns#"
   xmlns:rdf="http://www.w3.org/1999/02/22-rdf-syntax-ns#"
   xmlns:svg="http://www.w3.org/2000/svg"
   xmlns="http://www.w3.org/2000/svg"
   xmlns:sodipodi="http://sodipodi.sourceforge.net/DTD/sodipodi-0.dtd"
   xmlns:inkscape="http://www.inkscape.org/namespaces/inkscape"
   viewBox="0 0 16 16"
   version="1.1"
   id="svg6"
   sodipodi:docname="screen-shared-symbolic.svg"
   inkscape:version="0.92.3 (2405546, 2018-03-11)"
   width="16"
   height="16">
  <metadata
     id="metadata10">
    <rdf:RDF>
      <cc:Work
         rdf:about="">
        <dc:format>image/svg+xml</dc:format>
        <dc:type
           rdf:resource="http://purl.org/dc/dcmitype/StillImage" />
        <dc:title></dc:title>
      </cc:Work>
    </rdf:RDF>
  </metadata>
  <sodipodi:namedview
     pagecolor="#ffffff"
     bordercolor="#666666"
     borderopacity="1"
     objecttolerance="10"
     gridtolerance="10"
     guidetolerance="10"
     inkscape:pageopacity="0"
     inkscape:pageshadow="2"
     inkscape:window-width="1920"
     inkscape:window-height="1026"
     id="namedview8"
     showgrid="true"
     inkscape:zoom="30.35"
     inkscape:cx="5.7231258"
     inkscape:cy="11.718051"
     inkscape:window-x="0"
     inkscape:window-y="30"
     inkscape:window-maximized="1"
     inkscape:current-layer="svg6">
    <inkscape:grid
       type="xygrid"
       id="grid4512" />
  </sodipodi:namedview>
  <defs
     id="defs3051">
    <style
       type="text/css"
       id="current-color-scheme">
      .ColorScheme-Text {
        color:#232627;
      }
      </style>
  </defs>
  <path
     style="color:#7b7c7e;fill:#232627;fill-opacity:1;stroke:none;stroke-width:0.6000008"
     d="M 0 1 L 0 12 L 6 12 L 6 14 L 4 14 L 4 15 L 12 15 L 12 14 L 10 14 L 10 12 L 16 12 L 16 1 L 0 1 z M 1 2 L 15 2 L 15 10 L 1 10 L 1 2 z M 8 3 L 8 5 C 4.969 5 4 6.656 4 9 C 4 9 5.125 6.875 8 7 L 8 9 L 12 6 L 8 3 z "
     id="path4510" />
</svg>
