<?xml version="1.0" encoding="UTF-8" standalone="no"?>
<svg
   width="16"
   height="16"
   viewBox="0 0 16 16"
   version="1.1"
   id="svg974"
   inkscape:version="1.1.1 (3bf5ae0d25, 2021-09-20, custom)"
   sodipodi:docname="weather-thunderstorm-small.svg"
   xmlns:inkscape="http://www.inkscape.org/namespaces/inkscape"
   xmlns:sodipodi="http://sodipodi.sourceforge.net/DTD/sodipodi-0.dtd"
   xmlns:xlink="http://www.w3.org/1999/xlink"
   xmlns="http://www.w3.org/2000/svg"
   xmlns:svg="http://www.w3.org/2000/svg"
   xmlns:rdf="http://www.w3.org/1999/02/22-rdf-syntax-ns#"
   xmlns:cc="http://creativecommons.org/ns#"
   xmlns:dc="http://purl.org/dc/elements/1.1/">
  <defs
     id="defs968">
    <linearGradient
       inkscape:collect="always"
       id="linearGradient6084">
      <stop
         style="stop-color:#6f8181;stop-opacity:1"
         offset="0"
         id="stop6080" />
      <stop
         style="stop-color:#334545;stop-opacity:1"
         offset="1"
         id="stop6082" />
    </linearGradient>
    <linearGradient
       inkscape:collect="always"
       id="linearGradient5141">
      <stop
         style="stop-color:#f0ff01;stop-opacity:1;"
         offset="0"
         id="stop5137" />
      <stop
         style="stop-color:#f09467;stop-opacity:1"
         offset="1"
         id="stop5139" />
    </linearGradient>
    <linearGradient
       inkscape:collect="always"
       id="linearGradient1581">
      <stop
         style="stop-color:#eff1f1;stop-opacity:1;"
         offset="0"
         id="stop1577" />
      <stop
         style="stop-color:#dfdfdf;stop-opacity:1"
         offset="1"
         id="stop1579" />
    </linearGradient>
    <linearGradient
       inkscape:collect="always"
       xlink:href="#linearGradient1581"
       id="linearGradient1583"
       x1="9.3291922"
       y1="5.4036694"
       x2="11.639751"
       y2="13.950253"
       gradientUnits="userSpaceOnUse"
       gradientTransform="translate(-0.99999994,-0.9998858)" />
    <linearGradient
       inkscape:collect="always"
       xlink:href="#linearGradient6084"
       id="linearGradient1673"
       gradientUnits="userSpaceOnUse"
       gradientTransform="translate(2.4799458e-8,-2.9998858)"
       x1="11.504029"
       y1="5.758431"
       x2="11.639751"
       y2="13.950253" />
    <linearGradient
       inkscape:collect="always"
       xlink:href="#linearGradient5141"
       id="linearGradient5143"
       x1="6.5124874"
       y1="11.077294"
       x2="6.5"
       y2="10"
       gradientUnits="userSpaceOnUse" />
  </defs>
  <sodipodi:namedview
     id="base"
     pagecolor="#ffffff"
     bordercolor="#666666"
     borderopacity="1.0"
     inkscape:pageopacity="0.0"
     inkscape:pageshadow="2"
     inkscape:zoom="22.627417"
     inkscape:cx="-1.4584077"
     inkscape:cy="12.772116"
     inkscape:document-units="px"
     inkscape:current-layer="svg974"
     inkscape:document-rotation="0"
     showgrid="false"
     units="px"
     inkscape:window-width="1920"
     inkscape:window-height="1019"
     inkscape:window-x="0"
     inkscape:window-y="0"
     inkscape:window-maximized="1"
     inkscape:pagecheckerboard="0" />
  <metadata
     id="metadata971">
    <rdf:RDF>
      <cc:Work
         rdf:about="">
        <dc:format>image/svg+xml</dc:format>
        <dc:type
           rdf:resource="http://purl.org/dc/dcmitype/StillImage" />
      </cc:Work>
    </rdf:RDF>
  </metadata>
  <path
     id="path1539"
     style="fill:url(#linearGradient1673);fill-opacity:1;stroke-width:1.13137"
     d="M 7.9394532,3.0001142 C 6.516039,3.0217675 5.2113946,3.7983061 4.513672,5.0391767 3.0637229,5.2773777 1.9996968,6.5307293 2.0000001,8.000114 c 0,1.656854 1.3431458,3 3,3 H 11.5 c 1.380712,0 2.5,-1.119288 2.5,-2.5 C 13.999795,7.2658702 13.098892,6.2164761 11.878906,6.0294111 11.433672,4.2495674 9.8346871,3.0008132 8.0000001,3.0001142 c -0.020182,-1.527e-4 -0.040365,-1.527e-4 -0.060547,0 z"
     sodipodi:nodetypes="ccccccccc" />
  <path
     id="path1539-6"
     style="opacity:0.2;fill:#000000;fill-opacity:1;stroke-width:1.13137"
     d="m 2.0234376,7.7383952 c -0.00767,0.087397 -0.023456,0.172553 -0.023437,0.2617188 0,1.656854 1.3431458,3 3,3 H 11.5 c 1.380712,0 2.5,-1.119288 2.5,-2.5 C 13.999985,8.410354 13.98588,8.323988 13.97656,8.236442 13.855815,9.504599 12.799782,10.500114 11.5,10.500114 H 5.0000001 c -1.5753609,0 -2.8533024,-1.218068 -2.9765625,-2.7617188 z" />
  <path
     id="rect2773"
     style="fill:url(#linearGradient5143);stroke-width:0.991232;fill-opacity:1"
     d="M 6.5 10 C 6.223 10 6 10.223 6 10.5 C 6 10.777 6.223 11 6.5 11 L 7.5 11 L 7.5 12 L 6 13.5 L 4.5 13.5 L 3 15 L 3.7070312 15.707031 L 4.9140625 14.5 L 6 14.5 L 6 16 L 7 16 L 7 13.914062 L 7.9140625 13 L 10.085938 13 L 10.599609 13.513672 L 8.7929688 15.292969 L 9.5 16 L 11.306641 14.220703 L 13.085938 16 L 13.792969 15.292969 L 10.5 12 L 8.5 12 L 8.5 11 L 9.5 11 C 9.777 11 10 10.777 10 10.5 C 10 10.223 9.777 10 9.5 10 L 8.5 10 L 7.5 10 L 6.5 10 z " />
</svg>
