<?xml version="1.0" encoding="UTF-8" standalone="no"?>
<!-- Created with Inkscape (http://www.inkscape.org/) -->

<svg
   width="16"
   height="16"
   viewBox="0 0 4.2333332 4.2333335"
   version="1.1"
   id="svg847"
   inkscape:version="1.1 (c4e8f9ed74, 2021-05-24)"
   sodipodi:docname="application-x-hwp.svg"
   xmlns:inkscape="http://www.inkscape.org/namespaces/inkscape"
   xmlns:sodipodi="http://sodipodi.sourceforge.net/DTD/sodipodi-0.dtd"
   xmlns="http://www.w3.org/2000/svg"
   xmlns:svg="http://www.w3.org/2000/svg">
  <sodipodi:namedview
     id="namedview849"
     pagecolor="#ffffff"
     bordercolor="#666666"
     borderopacity="1.0"
     inkscape:pageshadow="2"
     inkscape:pageopacity="0.0"
     inkscape:pagecheckerboard="0"
     inkscape:document-units="px"
     showgrid="false"
     units="px"
     inkscape:zoom="49.5"
     inkscape:cx="8"
     inkscape:cy="8"
     inkscape:window-width="1920"
     inkscape:window-height="1018"
     inkscape:window-x="0"
     inkscape:window-y="0"
     inkscape:window-maximized="1"
     inkscape:current-layer="layer1" />
  <defs
     id="defs844" />
  <g
     inkscape:label="레이어 1"
     inkscape:groupmode="layer"
     id="layer1">
    <path
       d="M 0.66145834,4.2333333 V 3.1503869 H 1.12089 V 3.773902 H 3.5164971 V 4.2333333 Z M 2.3751066,3.2714155 C 2.3755063,3.403825 2.2960714,3.5234275 2.1738577,3.5743839 2.0516441,3.6253421 1.9107654,3.5976039 1.8169908,3.5041214 1.7232157,3.4106374 1.6950398,3.2698461 1.7456156,3.147474 c 0.050576,-0.1223721 0.16993,-0.2021907 0.3023416,-0.2021907 0.086631,-1.302e-4 0.1697697,0.034144 0.2311228,0.095307 0.061354,0.061164 0.095895,0.1441948 0.096027,0.2308252 z M 1.6822461,1.1105964 C 2.018502,0.9711574 2.4056463,1.0480328 2.663114,1.3053688 2.9205814,1.5627048 2.9976549,1.9498095 2.8583867,2.2861371 2.7191188,2.6224649 2.3909433,2.8417487 2.0269218,2.8417487 1.7883185,2.8418138 1.5594646,2.7470799 1.3907064,2.5784028 1.2219488,2.4097257 1.1271117,2.1809161 1.1270592,1.9423119 1.1268691,1.5783242 1.3459902,1.250037 1.6822461,1.1105964 Z M 2.4441437,2.1163896 C 2.514149,1.948191 2.475882,1.7543807 2.3472032,1.6254103 2.2185245,1.49644 2.0248016,1.4577354 1.8564448,1.5273589 1.6880878,1.5969836 1.5782861,1.7612103 1.5782861,1.9433951 c -1.584e-4,0.1192667 0.047083,0.2337084 0.1313215,0.3181367 0.084239,0.08443 0.1985728,0.1319279 0.3178392,0.1320424 0.1822177,4.568e-4 0.3466925,-0.108986 0.4166969,-0.2771846 z M 0.75990814,0.49224778 H 1.8428541 V 0 h 0.4594311 v 0.49224778 h 1.1157622 l 0.00211,0.45943142 H 0.75992064 Z"
       id="한"
       inkscape:connector-curvature="0"
       style="fill:#209ddf;fill-opacity:1;fill-rule:evenodd;stroke:none;stroke-width:0.0328163"
       inkscape:label="한" />
  </g>
</svg>
