<?xml version="1.0" encoding="UTF-8" standalone="no"?>
<svg
   xmlns:dc="http://purl.org/dc/elements/1.1/"
   xmlns:cc="http://creativecommons.org/ns#"
   xmlns:rdf="http://www.w3.org/1999/02/22-rdf-syntax-ns#"
   xmlns:svg="http://www.w3.org/2000/svg"
   xmlns="http://www.w3.org/2000/svg"
   xmlns:sodipodi="http://sodipodi.sourceforge.net/DTD/sodipodi-0.dtd"
   xmlns:inkscape="http://www.inkscape.org/namespaces/inkscape"
   height="16"
   width="16"
   version="1.1"
   id="svg4"
   sodipodi:docname="dialog-question-symbolic.svg"
   inkscape:version="0.92.5 (2060ec1f9f, 2020-04-08)">
  <metadata
     id="metadata10">
    <rdf:RDF>
      <cc:Work
         rdf:about="">
        <dc:format>image/svg+xml</dc:format>
        <dc:type
           rdf:resource="http://purl.org/dc/dcmitype/StillImage" />
      </cc:Work>
    </rdf:RDF>
  </metadata>
  <defs
     id="defs8" />
  <sodipodi:namedview
     pagecolor="#ffffff"
     bordercolor="#666666"
     borderopacity="1"
     objecttolerance="10"
     gridtolerance="10"
     guidetolerance="10"
     inkscape:pageopacity="0"
     inkscape:pageshadow="2"
     inkscape:window-width="770"
     inkscape:window-height="480"
     id="namedview6"
     showgrid="false"
     inkscape:zoom="14.75"
     inkscape:cx="7.3372691"
     inkscape:cy="8.067977"
     inkscape:window-x="0"
     inkscape:window-y="0"
     inkscape:window-maximized="0"
     inkscape:current-layer="svg4" />
  <path
     d="M 8,0 C 3.576,0 0,3.576 0,8 c 0,4.424 3.576,8 8,8 4.424,0 8,-3.576 8,-8 C 16,3.576 12.424,0 8,0 Z m 0,1 c 3.87,0 7,3.13 7,7 0,3.87 -3.13,7 -7,7 C 4.13,15 1,11.87 1,8 1,4.13 4.13,1 8,1 Z"
     overflow="visible"
     style="color:#bebebe;text-indent:0;text-transform:none;overflow:visible;fill:#eff0f1;marker:none"
     id="path2"
     inkscape:connector-curvature="0"
     sodipodi:nodetypes="ssssssssss" />
  <path
     style="font-style:normal;font-variant:normal;font-weight:500;font-stretch:normal;font-size:13.33333302px;line-height:1.25;font-family:'Google Sans';-inkscape-font-specification:'Google Sans Medium';letter-spacing:0px;word-spacing:0px;fill:#eff0f1;fill-opacity:1;stroke:none"
     inkscape:connector-curvature="0"
     id="path821"
     d="m 7.195706,9.2958197 q 0,-0.6133333 0.2533333,-1.0666666 0.2533333,-0.4533334 0.92,-1.04 0.4666666,-0.4266667 0.6666666,-0.72 0.2133334,-0.2933333 0.2133334,-0.7066666 0,-0.52 -0.36,-0.8533334 -0.3466667,-0.3333333 -0.96,-0.3333333 -0.5866667,0 -0.9466667,0.36 -0.3599999,0.3466667 -0.5199999,0.84 l -1.3333333,-0.56 q 0.2666666,-0.8 0.9733333,-1.4133333 0.7199999,-0.6133333 1.8133333,-0.6133333 0.8133333,0 1.4533333,0.3333333 0.6399997,0.32 0.9866667,0.9066666 0.36,0.5733334 0.36,1.2933334 0,0.7066666 -0.346667,1.2133333 -0.333333,0.4933333 -0.8933331,1.0266666 -0.44,0.4 -0.6266666,0.7333333 -0.1733334,0.3333333 -0.1733334,0.76 V 9.8424864 H 7.195706 Z m 0.7333333,3.7333333 q -0.4266667,0 -0.7333333,-0.293333 -0.2933334,-0.306667 -0.2933334,-0.733334 0,-0.426666 0.2933334,-0.72 0.3066666,-0.293333 0.7333333,-0.293333 0.4266666,0 0.72,0.293333 0.2933333,0.293334 0.2933333,0.72 0,0.426667 -0.2933333,0.733334 -0.2933334,0.293333 -0.72,0.293333 z" />
</svg>
