<?xml version="1.0" encoding="UTF-8" standalone="no"?>
<!-- Created with Inkscape (http://www.inkscape.org/) -->

<svg
   id="svg7384"
   height="16"
   width="16"
   version="1.1"
   sodipodi:docname="network-wireless-signal-weak-symbolic.svg"
   inkscape:version="1.1.1 (3bf5ae0d25, 2021-09-20, custom)"
   xmlns:inkscape="http://www.inkscape.org/namespaces/inkscape"
   xmlns:sodipodi="http://sodipodi.sourceforge.net/DTD/sodipodi-0.dtd"
   xmlns="http://www.w3.org/2000/svg"
   xmlns:svg="http://www.w3.org/2000/svg"
   xmlns:rdf="http://www.w3.org/1999/02/22-rdf-syntax-ns#"
   xmlns:cc="http://creativecommons.org/ns#"
   xmlns:dc="http://purl.org/dc/elements/1.1/">
  <defs
     id="defs14" />
  <sodipodi:namedview
     pagecolor="#ffffff"
     bordercolor="#666666"
     borderopacity="1"
     objecttolerance="10"
     gridtolerance="10"
     guidetolerance="10"
     inkscape:pageopacity="0"
     inkscape:pageshadow="2"
     inkscape:window-width="1920"
     inkscape:window-height="1019"
     id="namedview12"
     showgrid="true"
     inkscape:zoom="18.16"
     inkscape:cx="3.6343612"
     inkscape:cy="6.8281938"
     inkscape:window-x="0"
     inkscape:window-y="0"
     inkscape:window-maximized="1"
     inkscape:current-layer="svg7384"
     inkscape:pagecheckerboard="0">
    <inkscape:grid
       type="xygrid"
       id="grid4508" />
  </sodipodi:namedview>
  <metadata
     id="metadata90">
    <rdf:RDF>
      <cc:Work
         rdf:about="">
        <dc:format>image/svg+xml</dc:format>
        <dc:type
           rdf:resource="http://purl.org/dc/dcmitype/StillImage" />
        <dc:title>Gnome Symbolic Icon Theme</dc:title>
      </cc:Work>
    </rdf:RDF>
  </metadata>
  <title
     id="title9167">Gnome Symbolic Icon Theme</title>
  <path
     id="path4477"
     style="color:#31363b;fill:#eff0f1;fill-opacity:0.992506;stroke:none;opacity:0.5"
     d="M 10.537436,10.655993 C 9.148955,9.2663691 6.897751,9.2626619 5.504824,10.647693 l 0.708487,0.708487 c 1.001342,-0.993436 2.61725,-0.990968 3.615636,0.0055 l 0.0014,0.0014 z"
     sodipodi:nodetypes="cccccc" />
  <path
     d="M 13,8.17 C 11.73475,6.9047495 9.983728,6.1232569 8.044728,6.123257 c -1.939,-10e-8 -3.690022,0.7814929 -4.955272,2.0467425 l 0.708488,0.7084877 c 1.0845,-1.0844993 2.584784,-1.7553371 4.246784,-1.7553371 1.662,1e-7 3.162285,0.670838 4.246784,1.7553382 z"
     style="color:#31363b;fill:#eff0f1;fill-opacity:0.992506;stroke:none;opacity:0.5"
     id="path1264" />
  <circle
     style="fill:#eff0f1;fill-opacity:0.992506;stroke-width:2"
     id="path849"
     cx="8"
     cy="14"
     r="1" />
  <path
     d="M 15.797923,5.4231269 C 13.809673,3.434876 11.058462,2.2080003 8.011462,2.208 4.964462,2.2080002 2.2132498,3.4348772 0.225,5.4231267 L 0.932107,6.1302334 C 2.7396068,4.3227236 5.241462,3.2078942 8.011462,3.2078932 c 2.77,2e-7 5.271845,1.1148298 7.079354,2.9223404 z"
     style="color:#31363b;opacity:0.5;fill:#eff0f1;fill-opacity:1;stroke:none"
     id="path1019" />
</svg>
