<?xml version="1.0" encoding="UTF-8" standalone="no"?>
<!-- Created with Inkscape (http://www.inkscape.org/) -->

<svg
   width="32"
   height="32"
   viewBox="0 0 8.4666667 8.4666667"
   version="1.1"
   id="svg5"
   inkscape:version="1.1.1 (3bf5ae0d25, 2021-09-20, custom)"
   sodipodi:docname="user-desktop.svg"
   xmlns:inkscape="http://www.inkscape.org/namespaces/inkscape"
   xmlns:sodipodi="http://sodipodi.sourceforge.net/DTD/sodipodi-0.dtd"
   xmlns:xlink="http://www.w3.org/1999/xlink"
   xmlns="http://www.w3.org/2000/svg"
   xmlns:svg="http://www.w3.org/2000/svg">
  <sodipodi:namedview
     id="namedview7"
     pagecolor="#ffffff"
     bordercolor="#666666"
     borderopacity="1.0"
     inkscape:pageshadow="2"
     inkscape:pageopacity="0.0"
     inkscape:pagecheckerboard="0"
     inkscape:document-units="px"
     showgrid="false"
     units="px"
     inkscape:lockguides="true"
     inkscape:zoom="11.549411"
     inkscape:cx="-0.43292251"
     inkscape:cy="27.793625"
     inkscape:window-width="1920"
     inkscape:window-height="1019"
     inkscape:window-x="0"
     inkscape:window-y="0"
     inkscape:window-maximized="1"
     inkscape:current-layer="svg5" />
  <defs
     id="defs2">
    <linearGradient
       inkscape:collect="always"
       id="linearGradient1078">
      <stop
         style="stop-color:#e95420;stop-opacity:1;"
         offset="0"
         id="stop1074" />
      <stop
         style="stop-color:#77216f;stop-opacity:1"
         offset="0.50402784"
         id="stop1594" />
      <stop
         style="stop-color:#411934;stop-opacity:1"
         offset="1"
         id="stop1076" />
    </linearGradient>
    <linearGradient
       inkscape:collect="always"
       xlink:href="#linearGradient1078"
       id="linearGradient1080"
       x1="10.425302"
       y1="10.452539"
       x2="-0.030446393"
       y2="0.034039706"
       gradientUnits="userSpaceOnUse" />
  </defs>
  <rect
     style="fill:url(#linearGradient1080);fill-opacity:1;stroke-width:0.264583"
     id="rect884"
     width="8.4666662"
     height="7.4083333"
     x="-3.5762787e-07"
     y="0.52916664" />
  <path
     id="rect2960"
     style="fill:#ffffff;fill-opacity:0.101961;stroke-width:0.285658"
     d="M -3.6442871e-7,0.52916647 H 2.9104162 L -3.6442871e-7,3.4395835 Z"
     sodipodi:nodetypes="cccc" />
  <path
     id="rect3100"
     style="fill:#ffffff;fill-opacity:0.101961;stroke-width:0.268643"
     d="M 5.5562492,0.52916647 H 8.4666658 V 3.4395835 Z"
     sodipodi:nodetypes="cccc" />
  <path
     id="rect3308"
     style="fill:#ffffff;fill-opacity:0.101961;stroke-width:0.138046"
     d="m 8.4666664,6.0854165 v 1.852083 H 6.6145831 Z"
     sodipodi:nodetypes="cccc" />
  <path
     id="rect3549"
     style="fill:#ffffff;fill-opacity:0.101961;stroke-width:0.241135"
     d="M -3.6442871e-7,5.0270825 2.9104162,7.9374995 H -3.6442871e-7 Z"
     sodipodi:nodetypes="cccc" />
  <path
     id="rect3204"
     style="fill:#ffffff;fill-opacity:0.101961;stroke-width:0.138046"
     d="M -3.6442871e-7,6.0854165 1.8520829,7.9374995 H -3.6442871e-7 Z"
     sodipodi:nodetypes="cccc" />
  <rect
     style="fill:#333333;fill-opacity:0.784314;stroke-width:0.264583"
     id="rect2432"
     width="8.4666662"
     height="1.0583333"
     x="-3.5762787e-07"
     y="6.8791666" />
  <path
     id="path2660"
     style="fill:#ffffff;fill-opacity:1;stroke-width:0.264583"
     d="m 0.5291663,7.1437495 v 0.264584 h 0.26458333 v -0.264584 z m 0.26458333,0.264584 v 0.264583 H 1.0583329 V 7.4083335 Z M 7.9374995,7.1437495 a 0.2645832,0.26458331 0 0 0 -0.2645833,0.264584 0.2645832,0.26458331 0 0 0 0.2645833,0.264583 0.2645832,0.26458331 0 0 0 0.2645833,-0.264583 0.2645832,0.26458331 0 0 0 -0.2645833,-0.264584 z" />
  <path
     id="rect3848"
     style="fill:#ffffff;fill-opacity:0.101961;stroke-width:0.239189"
     d="m 8.4666663,5.0270825 v 2.910417 H 5.5562497 Z"
     sodipodi:nodetypes="cccc" />
  <path
     id="path4477"
     style="fill:#ffffff;fill-opacity:0.101961;stroke-width:0.260856"
     d="M 1.576883,4.0914575 A 0.52916669,0.52916669 0 0 0 2.1060494,4.6206245 0.52916669,0.52916669 0 0 0 2.6352161,4.0914575 0.52916669,0.52916669 0 0 0 2.1060497,3.5622915 0.52916669,0.52916669 0 0 0 1.576883,4.0914575 Z m 0.9229407,0.679545 a 1.8520833,1.8520833 0 0 0 0.5772265,0.775664 l 0.4046262,-0.700733 a 1.0583333,1.0583333 0 0 1 -0.00106,-0.0011 1.0583333,1.0583333 0 0 1 -0.016022,-0.01706 1.0583333,1.0583333 0 0 1 -0.044958,-0.04858 1.0583333,1.0583333 0 0 1 -0.024805,-0.03049 1.0583333,1.0583333 0 0 1 -0.044956,-0.06046 1.0583333,1.0583333 0 0 1 -0.00101,-0.0015 1.0583333,1.0583333 0 0 1 -0.01137,-0.01756 1.0583333,1.0583333 0 0 1 -0.0021,-0.0031 1.0583333,1.0583333 0 0 1 -0.029452,-0.04547 1.0583333,1.0583333 0 0 1 -0.011887,-0.02273 1.0583333,1.0583333 0 0 1 -0.013951,-0.02791 1.0583333,1.0583333 0 0 1 -0.029973,-0.06356 1.0583333,1.0583333 0 0 1 -0.0062,-0.01395 1.0583333,1.0583333 0 0 1 -0.00153,-0.0041 1.0583333,1.0583333 0 0 1 -0.0062,-0.01757 1.0583333,1.0583333 0 0 1 -0.024286,-0.06873 1.0583333,1.0583333 0 0 1 -0.00879,-0.03204 1.0583333,1.0583333 0 0 1 -0.016021,-0.06408 1.0583333,1.0583333 0 0 1 -0.00362,-0.0155 1.0583333,1.0583333 0 0 1 -0.00465,-0.03411 1.0583333,1.0583333 0 0 1 -0.00775,-0.05736 1.0583333,1.0583333 0 0 1 -0.00362,-0.05478 1.0583333,1.0583333 0 0 1 -0.00207,-0.04444 1.0583333,1.0583333 0 0 1 -0.00105,-0.0083 1.0583333,1.0583333 0 0 1 0.00105,-0.0083 1.0583333,1.0583333 0 0 1 0.00207,-0.04496 1.0583333,1.0583333 0 0 1 0.00362,-0.05374 1.0583333,1.0583333 0 0 1 0.00775,-0.05788 1.0583333,1.0583333 0 0 1 0.00517,-0.0341 1.0583333,1.0583333 0 0 1 0.00308,-0.01708 1.0583333,1.0583333 0 0 1 0.01602,-0.06201 1.0583333,1.0583333 0 0 1 0.00878,-0.03256 1.0583333,1.0583333 0 0 1 0.024284,-0.06873 1.0583333,1.0583333 0 0 1 0.00623,-0.01754 1.0583333,1.0583333 0 0 1 0.00157,-0.0041 1.0583333,1.0583333 0 0 1 0.00619,-0.01397 1.0583333,1.0583333 0 0 1 0.029973,-0.06356 1.0583333,1.0583333 0 0 1 0.01447,-0.02791 1.0583333,1.0583333 0 0 1 0.011397,-0.02271 1.0583333,1.0583333 0 0 1 0.035658,-0.05684 1.0583333,1.0583333 0 0 1 0.00103,-0.0021 1.0583333,1.0583333 0 0 1 0.00258,-0.0036 1.0583333,1.0583333 0 0 1 0.1291887,-0.156582 1.0583333,1.0583333 0 0 1 0.00672,-0.0067 L 3.0770499,2.6362495 a 1.8520833,1.8520833 0 0 0 -0.5741252,0.767912 0.79374996,0.79374996 0 0 1 0.3968749,0.687296 0.79374996,0.79374996 0 0 1 -0.3999759,0.679545 z M 3.5349031,2.3716662 3.9390123,3.0718815 a 1.0583333,1.0583333 0 0 1 0.072861,-0.01706 1.0583333,1.0583333 0 0 1 0.00882,-0.002 1.0583333,1.0583333 0 0 1 0.202055,-0.01964 1.0583333,1.0583333 0 0 1 0.1953364,0.0186 1.0583333,1.0583333 0 0 0 5.172e-4,10e-7 1.0583333,1.0583333 0 0 0 5.165e-4,-10e-7 1.0583333,1.0583333 0 0 0 5.172e-4,10e-7 1.0583333,1.0583333 0 0 0 5.165e-4,0 1.0583333,1.0583333 0 0 0 5.164e-4,-10e-7 1.0583333,1.0583333 0 0 1 0.00363,10e-4 1.0583333,1.0583333 0 0 1 0.1850024,0.05374 1.0583333,1.0583333 0 0 1 0.00262,0.0011 1.0583333,1.0583333 0 0 1 0.04134,0.01705 1.0583333,1.0583333 0 0 1 0.010854,0.0052 1.0583333,1.0583333 0 0 1 0.05529,0.02738 1.0583333,1.0583333 0 0 1 0.024282,0.01343 1.0583333,1.0583333 0 0 1 0.00829,0.0042 1.0583333,1.0583333 0 0 1 0.00777,0.0047 1.0583333,1.0583333 0 0 1 0.02687,0.01653 1.0583333,1.0583333 0 0 1 0.00257,0.0015 1.0583333,1.0583333 0 0 1 0.00516,0.0036 1.0583333,1.0583333 0 0 1 0.049093,0.03307 1.0583333,1.0583333 0 0 1 0.00153,0.001 1.0583333,1.0583333 0 0 1 0.085267,0.06925 1.0583333,1.0583333 0 0 1 5.162e-4,5.16e-4 1.0583333,1.0583333 0 0 1 0.0155,0.01447 1.0583333,1.0583333 0 0 1 0.057364,0.05788 1.0583333,1.0583333 0 0 1 0.010337,0.01137 1.0583333,1.0583333 0 0 1 0.060458,0.07442 1.0583333,1.0583333 0 0 1 0.00259,0.0036 1.0583333,1.0583333 0 0 1 0.062529,0.0956 1.0583333,1.0583333 0 0 1 0.03669,0.07235 1.0583333,1.0583333 0 0 1 0.00416,0.0083 1.0583333,1.0583333 0 0 1 0.063045,0.17415 1.0583333,1.0583333 0 0 1 0.00362,0.0098 l 0.808219,-1e-6 A 1.8520833,1.8520833 0 0 0 5.67224,2.9385565 0.79374996,0.79374996 0 0 1 4.8836581,2.9452745 0.79374996,0.79374996 0 0 1 4.4867828,2.2584943 1.8520833,1.8520833 0 0 0 4.2227165,2.2393742 1.8520833,1.8520833 0 0 0 3.5349031,2.3716662 Z m 5.165e-4,3.4390663 a 1.8520833,1.8520833 0 0 0 0.6872966,0.132808 1.8520833,1.8520833 0 0 0 0.2645837,-0.01912 1.8520833,1.8520833 0 0 0 -4e-7,-5.17e-4 0.79374996,0.79374996 0 0 1 0.396875,-0.687296 0.79374996,0.79374996 0 0 1 0.7932333,5.16e-4 0.79374996,0.79374996 0 0 1 5.171e-4,1e-6 1.8520833,1.8520833 0 0 0 0.3772375,-0.881084 l -0.8082191,1e-6 a 1.0583333,1.0583333 0 0 1 -0.00361,0.0098 1.0583333,1.0583333 0 0 1 -0.063047,0.174148 1.0583333,1.0583333 0 0 1 -0.00415,0.0083 1.0583333,1.0583333 0 0 1 -0.095087,0.162262 1.0583333,1.0583333 0 0 1 -5.167e-4,5.17e-4 1.0583333,1.0583333 0 0 1 -0.033081,0.04185 1.0583333,1.0583333 0 0 1 -0.033576,0.04136 1.0583333,1.0583333 0 0 1 -0.037724,0.03824 1.0583333,1.0583333 0 0 1 -0.024805,0.02532 1.0583333,1.0583333 0 0 1 -0.00775,0.0078 1.0583333,1.0583333 0 0 1 -0.00827,0.0078 1.0583333,1.0583333 0 0 1 -0.051668,0.0429 1.0583333,1.0583333 0 0 1 -0.030476,0.02482 1.0583333,1.0583333 0 0 1 -0.051161,0.03411 1.0583333,1.0583333 0 0 1 -0.022726,0.01551 1.0583333,1.0583333 0 0 1 -0.016006,0.01035 1.0583333,1.0583333 0 0 1 -0.011353,0.0073 1.0583333,1.0583333 0 0 1 -0.060976,0.03101 1.0583333,1.0583333 0 0 1 -0.02271,0.0114 1.0583333,1.0583333 0 0 1 -0.045995,0.01963 1.0583333,1.0583333 0 0 1 -0.023253,0.0088 1.0583333,1.0583333 0 0 1 -0.00104,5.2e-4 1.0583333,1.0583333 0 0 1 -0.032043,0.0124 1.0583333,1.0583333 0 0 1 -0.0739,0.0217 1.0583333,1.0583333 0 0 1 -0.028938,0.0078 1.0583333,1.0583333 0 0 1 -0.033593,0.0072 1.0583333,1.0583333 0 0 1 -0.027386,0.0041 1.0583333,1.0583333 0 0 1 -0.021705,0.0036 1.0583333,1.0583333 0 0 1 -0.021185,0.0036 1.0583333,1.0583333 0 0 1 -0.07958,0.0067 1.0583333,1.0583333 0 0 1 -0.032557,0.0021 1.0583333,1.0583333 0 0 1 -0.024286,0.001 1.0583333,1.0583333 0 0 1 -0.053224,-0.0026 1.0583333,1.0583333 0 0 1 -0.027907,-0.0016 1.0583333,1.0583333 0 0 1 -0.073381,-0.0088 1.0583333,1.0583333 0 0 1 -0.037721,-0.0057 1.0583333,1.0583333 0 0 1 -0.00158,-5.44e-4 1.0583333,1.0583333 0 0 1 -0.019639,-0.0031 1.0583333,1.0583333 0 0 1 -0.051159,-0.01292 1.0583333,1.0583333 0 0 1 -0.018605,-0.0041 z m 1.216463,0.09612 a 0.52916669,0.52916669 0 0 0 0.071314,0.264583 0.52916669,0.52916669 0 0 0 0.7224369,0.193787 0.52916669,0.52916669 0 0 0 0.1937868,-0.722953 0.52916669,0.52916669 0 0 0 -0.7229535,-0.19327 0.52916669,0.52916669 0 0 0 -0.2645842,0.457853 z m 5.17e-4,-3.6400879 A 0.52916669,0.52916669 0 0 0 5.0169828,2.7251325 0.52916669,0.52916669 0 0 0 5.7399366,2.5313462 0.52916669,0.52916669 0 0 0 5.54615,1.808393 0.52916669,0.52916669 0 0 0 4.8231962,2.0021792 0.52916669,0.52916669 0 0 0 4.7523996,2.2667626 Z" />
</svg>
