<svg xmlns="http://www.w3.org/2000/svg" id="svg2" width="22" height="22" version="1">
 <defs id="defs14">
  <style id="current-color-scheme" type="text/css">
   .ColorScheme-Text { color:#cecfce; } .ColorScheme-Highlight { color:#3daee9; }
  </style>
 </defs>
 <path id="path7" style="color:#cecfce;fill:#cecfce;fill-opacity:1;stroke:none" class="ColorScheme-Text" d="m 3.0000002,3.0000002 v 2 A 13.999998,13.999998 0 0 1 17,19 h 2 A 15.999998,15.999998 0 0 0 3.0000002,3.0000002 Z m 0,4 V 8.9999998 A 10,10 0 0 1 13,19 h 2 A 12,12 0 0 0 3.0000002,7.0000002 Z m 0,3.9999998 v 2 a 6,5.9999871 0 0 1 5.9999995,6 H 11 A 8,7.9999828 0 0 0 3.0000002,11 Z m 1.4999995,5 a 1.5,1.5 0 0 0 -1.4999995,1.5 1.5,1.5 0 0 0 1.4999995,1.5 1.5,1.5 0 0 0 1.5,-1.5 1.5,1.5 0 0 0 -1.5,-1.5 z"/>
</svg>
