<svg xmlns="http://www.w3.org/2000/svg" id="svg2" width="22" height="22" version="1">
 <defs id="defs8">
  <style id="current-color-scheme" type="text/css">
   .ColorScheme-Text { color:#cecfce; } .ColorScheme-Highlight { color:#3daee9; }
  </style>
 </defs>
 <path id="path4491" style="fill:#cecfce;fill-opacity:1" d="M 6 3 L 6 19 L 17 19 L 17 3 L 6 3 z M 7 4 L 16 4 L 16 18 L 7 18 L 7 4 z M 9 5 C 8.4476 5 7.9998 5.4478 8 6 C 7.9998 6.5522 8.4476 7 9 7 C 9.5524 7 10 6.5522 10 6 C 10 5.4478 9.5524 5 9 5 z M 14 5 C 13.44757 5 12.9998 5.44778 13 6 C 12.999798 6.55222 13.44757 7 14 7 C 14.55243 7 15.0002 6.55222 15 6 C 15.000202 5.44778 14.55243 5 14 5 z M 11.5 10 C 9.5666 10 7.9995 11.567 8 13.5 C 7.9995 15.433 9.5666 17 11.5 17 C 13.433 17 15 15.433 15 13.5 C 15 11.567 13.433 10 11.5 10 z M 11.5 12 C 12.328 12 13 12.672 13 13.5 C 13 14.328 12.328 15 11.5 15 C 10.672 15 10 14.328 10 13.5 C 10 12.672 10.672 12 11.5 12 z"/>
</svg>
