<?xml version="1.0" encoding="UTF-8" standalone="no"?>
<!-- Created with Inkscape (http://www.inkscape.org/) -->

<svg
   width="128"
   height="128"
   viewBox="0 0 33.866666 33.866668"
   version="1.1"
   id="svg5"
   inkscape:version="1.1.1 (3bf5ae0d25, 2021-09-20, custom)"
   sodipodi:docname="weather-windy-large.svg"
   xmlns:inkscape="http://www.inkscape.org/namespaces/inkscape"
   xmlns:sodipodi="http://sodipodi.sourceforge.net/DTD/sodipodi-0.dtd"
   xmlns="http://www.w3.org/2000/svg"
   xmlns:svg="http://www.w3.org/2000/svg">
  <sodipodi:namedview
     id="namedview7"
     pagecolor="#ffffff"
     bordercolor="#666666"
     borderopacity="1.0"
     inkscape:pageshadow="2"
     inkscape:pageopacity="0.0"
     inkscape:pagecheckerboard="0"
     inkscape:document-units="px"
     showgrid="false"
     units="px"
     showguides="false"
     inkscape:zoom="2.2318058"
     inkscape:cx="58.696864"
     inkscape:cy="51.527781"
     inkscape:window-width="1920"
     inkscape:window-height="1019"
     inkscape:window-x="0"
     inkscape:window-y="0"
     inkscape:window-maximized="1"
     inkscape:current-layer="svg5" />
  <defs
     id="defs2" />
  <path
     id="rect1038"
     style="fill:#3daee9;stroke-width:0.319146"
     d="m 17.727084,3.9687501 a 4.4979173,4.4979163 0 0 0 -4.497917,4.4979168 h 2.116667 a 2.38125,2.3812495 0 0 1 2.38125,-2.3812501 2.38125,2.3812495 0 0 1 2.38125,2.3812501 2.38125,2.3812495 0 0 1 -2.38125,2.3812501 H 5.8208335 c -0.586317,0 -1.0583334,0.472017 -1.0583334,1.058333 0,0.586317 0.4720164,1.058334 1.0583334,1.058334 H 17.727084 A 4.4979173,4.4979163 0 0 0 22.225001,8.4666669 4.4979173,4.4979163 0 0 0 17.727084,3.9687501 Z m 9.525,5.2916668 a 4.4979173,4.4979163 0 0 0 -4.497917,4.4979171 h 2.116667 a 2.38125,2.3812495 0 0 1 2.38125,-2.38125 2.38125,2.3812495 0 0 1 2.38125,2.38125 2.38125,2.3812495 0 0 1 -2.38125,2.38125 H 3.1750001 c -0.5863167,0 -1.0583334,0.472017 -1.0583334,1.058333 0,0.586317 0.4720167,1.058333 1.0583334,1.058333 H 27.252084 A 4.4979173,4.4979163 0 0 0 31.750001,13.758334 4.4979173,4.4979163 0 0 0 27.252084,9.2604169 Z M 4.7625001,21.431251 c -0.5863175,0 -1.0583333,0.472016 -1.0583333,1.058333 0,0.586316 0.4720158,1.058333 1.0583333,1.058333 H 17.727084 a 2.38125,2.3812495 0 0 1 2.38125,2.38125 2.38125,2.3812495 0 0 1 -2.38125,2.38125 2.38125,2.3812495 0 0 1 -2.38125,-2.38125 h -2.116667 a 4.4979173,4.4979163 0 0 0 4.497917,4.497917 4.4979173,4.4979163 0 0 0 4.497917,-4.497917 4.4979173,4.4979163 0 0 0 -4.497917,-4.497916 z" />
  <path
     id="rect1038-1"
     style="opacity:0.2;fill:#000000;stroke-width:0.319146"
     d="m 17.727084,3.9687501 a 4.4979173,4.4979163 0 0 1 0.529166,0.03514 4.4979173,4.4979163 0 0 0 -0.529166,-0.03514 z m 0.65164,0.05116 a 4.4979173,4.4979163 0 0 1 0.517798,0.1038698 4.4979173,4.4979163 0 0 0 -0.517798,-0.1038698 z m -1.778186,0.097152 a 4.4979173,4.4979163 0 0 0 -0.05064,0.010335 4.4979173,4.4979163 0 0 1 0.05064,-0.010335 z m 2.318204,0.013952 A 4.4979173,4.4979163 0 0 1 19.406568,4.2984448 4.4979173,4.4979163 0 0 0 18.918742,4.131013 Z M 19.50837,4.3408194 A 4.4979173,4.4979163 0 0 1 19.993612,4.5826649 4.4979173,4.4979163 0 0 0 19.50837,4.3408194 Z m 0.485242,0.2418455 A 4.4979173,4.4979163 0 0 1 20.43958,4.8839386 4.4979173,4.4979163 0 0 0 19.993612,4.5826649 Z m -4.44624,-0.039791 a 4.4979173,4.4979163 0 0 0 -0.09302,0.047025 4.4979173,4.4979163 0 0 1 0.09302,-0.047025 z m 4.972306,0.4020425 a 4.4979173,4.4979163 0 0 1 0.409277,0.3643189 4.4979173,4.4979163 0 0 0 -0.409277,-0.3643189 z m 0.409277,0.3643189 A 4.4979173,4.4979163 0 0 1 21.281389,5.7174796 4.4979173,4.4979163 0 0 0 20.928955,5.3092353 Z M 17.727084,5.0270835 a 2.3812501,2.3812496 0 0 0 -2.38125,2.38125 h -1.977141 a 4.4979173,4.4979163 0 0 0 -0.139526,1.0583334 h 2.116667 a 2.38125,2.3812495 0 0 1 2.38125,-2.3812501 2.38125,2.3812495 0 0 1 2.340425,1.9678386 2.3812501,2.3812496 0 0 0 -0.01964,-0.1157552 2.3812501,2.3812496 0 0 0 0.06046,-0.5291667 2.3812501,2.3812496 0 0 0 -2.38125,-2.38125 z m -3.097486,0.1948201 a 4.4979173,4.4979163 0 0 0 -0.111104,0.1007692 4.4979173,4.4979163 0 0 1 0.111104,-0.1007692 z m 6.711219,0.572575 a 4.4979173,4.4979163 0 0 1 0.30024,0.4583697 4.4979173,4.4979163 0 0 0 -0.30024,-0.4583697 z m -7.435205,0.3265951 a 4.4979173,4.4979163 0 0 0 -0.09612,0.1503783 4.4979173,4.4979163 0 0 1 0.09612,-0.1503783 z m 7.739579,0.1405599 a 4.4979173,4.4979163 0 0 1 0.232544,0.4831746 4.4979173,4.4979163 0 0 0 -0.232544,-0.4831746 z m 0.265617,0.563273 a 4.4979173,4.4979163 0 0 1 0.170015,0.5203817 4.4979173,4.4979163 0 0 0 -0.170015,-0.5203817 z m -8.478036,0.3565673 a 4.4979173,4.4979163 0 0 0 -0.05891,0.1870687 4.4979173,4.4979163 0 0 1 0.05891,-0.1870687 z m 8.655803,0.1974041 a 4.4979173,4.4979163 0 0 1 0.09508,0.5121135 4.4979173,4.4979163 0 0 0 -0.09508,-0.5121135 z m 0.102319,0.5663737 A 4.4979173,4.4979163 0 0 1 17.727084,11.90625 H 5.9624268 4.7625001 c 0,0.586317 0.4720164,1.058334 1.0583334,1.058334 H 17.727084 a 4.4979173,4.4979163 0 0 0 4.497917,-4.4979171 4.4979173,4.4979163 0 0 0 -0.03411,-0.5214152 z m -2.099097,0.2480469 a 2.38125,2.3812495 0 0 1 0.01654,0.2733683 2.3812501,2.3812496 0 0 0 -0.01654,-0.2733683 z m 0.01654,0.2733683 a 2.38125,2.3812495 0 0 1 -0.01757,0.2868041 2.3812501,2.3812496 0 0 0 0.01757,-0.2868041 z m -0.01757,0.2868041 a 2.38125,2.3812495 0 0 1 -0.05168,0.283187 2.3812501,2.3812496 0 0 0 0.05168,-0.283187 z m -0.05168,0.283187 A 2.38125,2.3812495 0 0 1 19.95382,9.3110597 2.3812501,2.3812496 0 0 0 20.039087,9.036658 Z M 19.95382,9.3110597 A 2.38125,2.3812495 0 0 1 19.835481,9.5730594 2.3812501,2.3812496 0 0 0 19.95382,9.3110597 Z m -0.118339,0.2619997 a 2.38125,2.3812495 0 0 1 -0.148828,0.2464964 2.3812501,2.3812496 0 0 0 0.148828,-0.2464964 z m -0.148828,0.2464964 a 2.38125,2.3812495 0 0 1 -0.17725,0.2263432 2.3812501,2.3812496 0 0 0 0.17725,-0.2263432 z m -0.17725,0.2263432 a 2.38125,2.3812495 0 0 1 -0.203088,0.203088 2.3812501,2.3812496 0 0 0 0.203088,-0.203088 z m -0.203088,0.203088 a 2.38125,2.3812495 0 0 1 -0.226343,0.17725 2.3812501,2.3812496 0 0 0 0.226343,-0.17725 z m -0.226343,0.17725 a 2.38125,2.3812495 0 0 1 -0.246497,0.148828 2.3812501,2.3812496 0 0 0 0.246497,-0.148828 z m -0.246497,0.148828 a 2.38125,2.3812495 0 0 1 -0.261999,0.11834 2.3812501,2.3812496 0 0 0 0.261999,-0.11834 z m -0.261999,0.11834 a 2.38125,2.3812495 0 0 1 -0.274402,0.08526 2.3812501,2.3812496 0 0 0 0.274402,-0.08526 z m -0.274402,0.08526 a 2.38125,2.3812495 0 0 1 -0.283187,0.05168 2.3812501,2.3812496 0 0 0 0.283187,-0.05168 z m -0.283187,0.05168 a 2.38125,2.3812495 0 0 1 -0.286803,0.01757 2.3812501,2.3812496 0 0 0 0.286804,-0.01757 z m 9.238197,-1.5699301 a 4.4979173,4.4979163 0 0 1 0.530201,0.03514 4.4979173,4.4979163 0 0 0 -0.530201,-0.03514 z m 0.649055,0.050643 a 4.4979173,4.4979163 0 0 1 0.519866,0.1043866 4.4979173,4.4979163 0 0 0 -0.519866,-0.1043866 z m -1.775601,0.097669 a 4.4979173,4.4979163 0 0 0 -0.05064,0.010335 4.4979173,4.4979163 0 0 1 0.05064,-0.010335 z m 2.31252,0.011885 a 4.4979173,4.4979163 0 0 1 0.485243,0.1658813 4.4979173,4.4979163 0 0 0 -0.485243,-0.1658813 z m 0.598929,0.2129068 a 4.4979173,4.4979163 0 0 1 0.476975,0.2377117 4.4979173,4.4979163 0 0 0 -0.476975,-0.2377117 z m -3.964615,0.2010214 a 4.4979173,4.4979163 0 0 0 -0.09302,0.047025 4.4979173,4.4979163 0 0 1 0.09302,-0.047025 z m 4.445723,0.039274 A 4.4979173,4.4979163 0 0 1 29.956311,10.168887 4.4979173,4.4979163 0 0 0 29.518095,9.8738141 Z M 30.044679,10.2371 a 4.4979173,4.4979163 0 0 1 0.405143,0.359151 4.4979173,4.4979163 0 0 0 -0.405143,-0.359151 z m 0.405143,0.359151 a 4.4979173,4.4979163 0 0 1 0.348298,0.401526 4.4979173,4.4979163 0 0 0 -0.348298,-0.401526 z M 27.252084,10.31875 A 2.3812501,2.3812496 0 0 0 24.870834,12.7 h -1.97714 a 4.4979173,4.4979163 0 0 0 -0.139527,1.058334 h 2.116667 a 2.38125,2.3812495 0 0 1 2.38125,-2.38125 2.38125,2.3812495 0 0 1 2.340425,1.967838 2.3812501,2.3812496 0 0 0 -0.01964,-0.115755 2.3812501,2.3812496 0 0 0 0.06046,-0.529167 2.3812501,2.3812496 0 0 0 -2.38125,-2.38125 z m -3.097485,0.19482 a 4.4979173,4.4979163 0 0 0 -0.111105,0.10077 4.4979173,4.4979163 0 0 1 0.111105,-0.10077 z M 5.6337649,10.86652 c -0.018309,0.0033 -0.036295,0.0067 -0.05426,0.01085 0.017918,-0.0042 0.035997,-0.0076 0.05426,-0.01085 z m -0.2123904,0.05995 c -0.00488,0.002 -0.010139,0.0031 -0.014986,0.0052 0.00484,-0.0021 0.010112,-0.0032 0.014986,-0.0052 z m -0.1705321,0.0894 c -0.015232,0.0097 -0.029761,0.02 -0.044442,0.03049 0.014597,-0.01045 0.029299,-0.02077 0.044442,-0.03049 z m 25.6149736,0.0708 a 4.4979173,4.4979163 0 0 1 0.294556,0.447001 4.4979173,4.4979163 0 0 0 -0.294556,-0.447001 z M 5.0865113,11.14558 c -0.00547,0.0053 -0.0117,0.0096 -0.017052,0.01499 0.00532,-0.0054 0.011618,-0.0097 0.017052,-0.01499 z m -0.1266071,0.147278 c -0.01143,0.01605 -0.022019,0.03239 -0.032556,0.04909 0.010501,-0.01664 0.021172,-0.0331 0.032556,-0.04909 z M 23.430612,11.41274 a 4.4979173,4.4979163 0 0 0 -0.09612,0.150379 4.4979173,4.4979163 0 0 1 0.09612,-0.150379 z m 7.741647,0.144178 a 4.4979173,4.4979163 0 0 1 0.222724,0.460953 4.4979173,4.4979163 0 0 0 -0.222724,-0.460953 z m 0.263549,0.559655 a 4.4979173,4.4979163 0 0 1 0.168466,0.511597 4.4979173,4.4979163 0 0 0 -0.168466,-0.511597 z m -8.478036,0.356568 a 4.4979173,4.4979163 0 0 0 -0.05891,0.187068 4.4979173,4.4979163 0 0 1 0.05891,-0.187068 z m 8.652703,0.183968 a 4.4979173,4.4979163 0 0 1 0.09612,0.506946 4.4979173,4.4979163 0 0 0 -0.09612,-0.506946 z m 0.104386,0.569991 a 4.4979173,4.4979163 0 0 1 -4.462777,3.970817 H 4.3749268 2.1166667 c 0,0.586317 0.4720167,1.058333 1.0583334,1.058333 H 27.252084 a 4.4979173,4.4979163 0 0 0 4.497917,-4.497916 4.4979173,4.4979163 0 0 0 -0.03514,-0.531234 z m -2.098063,0.257865 a 2.38125,2.3812495 0 0 1 0.01654,0.273369 2.3812501,2.3812496 0 0 0 -0.01654,-0.273369 z m 0.01654,0.273369 a 2.38125,2.3812495 0 0 1 -0.116271,0.732771 2.3812501,2.3812496 0 0 0 0.116271,-0.732771 z m -0.11834,0.739489 a 2.38125,2.3812495 0 0 1 -0.332796,0.653707 2.3812501,2.3812496 0 0 0 0.332796,-0.653707 z m -0.342614,0.666626 a 2.38125,2.3812495 0 0 1 -0.514181,0.514181 2.3812501,2.3812496 0 0 0 0.514181,-0.514181 z m -0.527101,0.524 a 2.38125,2.3812495 0 0 1 -0.653706,0.332796 2.3812501,2.3812496 0 0 0 0.653706,-0.332796 z m -0.660423,0.334863 a 2.38125,2.3812495 0 0 1 -0.732772,0.116272 2.3812501,2.3812496 0 0 0 0.732772,-0.116272 z M 2.9879315,16.158187 c -0.018309,0.0033 -0.036295,0.0067 -0.05426,0.01085 0.017918,-0.0042 0.035997,-0.0076 0.05426,-0.01085 z m -0.2123904,0.05994 c -0.00488,0.002 -0.010139,0.0031 -0.014986,0.0052 0.00484,-0.0021 0.010112,-0.0032 0.014986,-0.0052 z m -0.1705321,0.0894 c -0.015231,0.0097 -0.029761,0.02 -0.044442,0.03049 0.014598,-0.01045 0.029299,-0.02078 0.044442,-0.03049 z M 2.440678,16.43724 c -0.00547,0.0053 -0.011701,0.0096 -0.017053,0.01499 0.00532,-0.0054 0.011619,-0.0097 0.017053,-0.01499 z m -0.1266073,0.147278 c -0.011429,0.01605 -0.022019,0.03239 -0.032556,0.04909 0.010502,-0.01664 0.021171,-0.0331 0.032556,-0.04909 z m 15.4130133,4.846733 a 4.4979173,4.4979163 0 0 1 0.535368,0.03617 4.4979173,4.4979163 0 0 0 -0.535368,-0.03617 z m -13.1516525,0.0186 c -0.018309,0.0033 -0.036295,0.0067 -0.05426,0.01085 0.017918,-0.0042 0.035997,-0.0076 0.05426,-0.01085 z m 13.7976075,0.03204 a 4.4979173,4.4979163 0 0 1 1.050065,0.28577 4.4979173,4.4979163 0 0 0 -1.050065,-0.28577 z m -14.0099978,0.02791 c -0.00488,0.002 -0.010139,0.0031 -0.014986,0.0052 0.00484,-0.0021 0.010112,-0.0032 0.014986,-0.0052 z m -0.1705322,0.0894 c -0.015232,0.0097 -0.029761,0.02 -0.044442,0.03049 0.014597,-0.01045 0.029299,-0.02078 0.044442,-0.03049 z m -0.1643311,0.129708 c -0.00547,0.0053 -0.0117,0.0096 -0.017052,0.01499 0.00532,-0.0054 0.011618,-0.0097 0.017052,-0.01499 z m 15.4708911,0.07028 a 4.4979173,4.4979163 0 0 1 0.965832,0.566373 4.4979173,4.4979163 0 0 0 -0.965832,-0.566373 z m -15.5974982,0.077 c -0.01143,0.01605 -0.022019,0.03239 -0.032556,0.04909 0.010501,-0.01664 0.021172,-0.0331 0.032556,-0.04909 z m 16.6031212,0.519864 a 4.4979173,4.4979163 0 0 1 0.801502,0.815972 4.4979173,4.4979163 0 0 0 -0.801502,-0.815972 z m -16.8005252,0.09353 c 0,0.586315 0.4720158,1.058333 1.0583333,1.058333 H 17.727084 a 2.38125,2.3812495 0 0 1 2.340425,1.967839 2.3812501,2.3812496 0 0 0 -0.01964,-0.115755 2.3812501,2.3812496 0 0 0 0.06046,-0.529167 2.3812501,2.3812496 0 0 0 -2.38125,-2.38125 H 5.9624268 4.7625001 Z m 17.6237312,0.750859 a 4.4979173,4.4979163 0 0 1 0.568957,1.013374 4.4979173,4.4979163 0 0 0 -0.568957,-1.013374 z m 0.575158,1.027327 a 4.4979173,4.4979163 0 0 1 0.288355,1.144116 4.4979173,4.4979163 0 0 0 -0.288355,-1.144116 z m 0.288355,1.144116 a 4.4979173,4.4979163 0 0 1 -4.464327,3.956865 4.4979173,4.4979163 0 0 1 -4.365625,-3.439584 h -0.132292 a 4.4979173,4.4979163 0 0 0 4.497917,4.497917 4.4979173,4.4979163 0 0 0 4.497917,-4.497917 4.4979173,4.4979163 0 0 0 -0.03359,-0.517281 z m -2.099614,0.243913 a 2.38125,2.3812495 0 0 1 0.01654,0.273368 2.3812501,2.3812496 0 0 0 -0.01654,-0.273368 z m 0.01654,0.273368 a 2.38125,2.3812495 0 0 1 -0.01757,0.286804 2.3812501,2.3812496 0 0 0 0.01757,-0.286804 z m -0.01757,0.286804 a 2.38125,2.3812495 0 0 1 -0.05168,0.283188 2.3812501,2.3812496 0 0 0 0.05168,-0.283188 z m -0.05168,0.283188 a 2.38125,2.3812495 0 0 1 -0.08527,0.274402 2.3812501,2.3812496 0 0 0 0.08527,-0.274402 z m -0.08527,0.274402 a 2.38125,2.3812495 0 0 1 -0.118339,0.261999 2.3812501,2.3812496 0 0 0 0.118339,-0.261999 z m -0.118339,0.261999 a 2.38125,2.3812495 0 0 1 -0.148828,0.246496 2.3812501,2.3812496 0 0 0 0.148828,-0.246496 z m -0.148828,0.246496 a 2.38125,2.3812495 0 0 1 -0.17725,0.226343 2.3812501,2.3812496 0 0 0 0.17725,-0.226343 z m -0.17725,0.226343 a 2.38125,2.3812495 0 0 1 -0.203088,0.203089 2.3812501,2.3812496 0 0 0 0.203088,-0.203089 z m -0.203088,0.203089 a 2.38125,2.3812495 0 0 1 -0.226343,0.17725 2.3812501,2.3812496 0 0 0 0.226343,-0.17725 z m -0.226343,0.17725 a 2.38125,2.3812495 0 0 1 -0.246497,0.148828 2.3812501,2.3812496 0 0 0 0.246497,-0.148828 z m -0.246497,0.148828 a 2.38125,2.3812495 0 0 1 -0.261999,0.11834 2.3812501,2.3812496 0 0 0 0.261999,-0.11834 z m -0.261999,0.11834 a 2.38125,2.3812495 0 0 1 -0.274402,0.08526 2.3812501,2.3812496 0 0 0 0.274402,-0.08526 z m -0.274402,0.08526 a 2.38125,2.3812495 0 0 1 -0.283187,0.05167 2.3812501,2.3812496 0 0 0 0.283187,-0.05167 z m -0.283187,0.05167 a 2.38125,2.3812495 0 0 1 -0.286803,0.01757 2.3812501,2.3812496 0 0 0 0.286804,-0.01757 z m -0.286803,0.01757 a 2.38125,2.3812495 0 0 1 -0.682646,-0.108521 2.3812501,2.3812496 0 0 0 0.682646,0.108521 z m -2.38125,-2.38125 a 2.3812501,2.3812496 0 0 0 0.10852,0.682647 2.38125,2.3812495 0 0 1 -0.10852,-0.682647 z m 0.129191,0.760161 a 2.3812501,2.3812496 0 0 0 0.297139,0.583944 2.38125,2.3812495 0 0 1 -0.297139,-0.583944 z m 0.361218,0.67541 a 2.3812501,2.3812496 0 0 0 0.45527,0.455269 2.38125,2.3812495 0 0 1 -0.45527,-0.455269 z m 0.546737,0.519348 a 2.3812501,2.3812496 0 0 0 0.583943,0.297141 2.38125,2.3812495 0 0 1 -0.583943,-0.297141 z" />
</svg>
