<svg xmlns="http://www.w3.org/2000/svg" width="22" height="22" version="1.1">
 <defs>
  <style id="current-color-scheme" type="text/css">
   .ColorScheme-Text { color:#cecfce; } .ColorScheme-Highlight { color:#3daee9; }
  </style>
 </defs>
 <path style="fill:currentColor" class="ColorScheme-Text" d="M 18.727406,8.9294471 C 17.583932,4.6619397 13.196956,2.1291177 8.9294479,3.2725931 4.6619407,4.416068 2.1291191,8.8030435 3.2725928,13.070553 c 1.1434759,4.267507 5.5304506,6.800329 9.7979602,5.656854 4.267507,-1.143475 6.80033,-5.53045 5.656853,-9.7979599 z m -0.965925,0.2588193 c 0.760651,2.8387886 -0.325735,5.7190396 -2.526019,7.3859196 L 14.47985,15.535128 C 16.184821,14.132031 16.908918,11.802013 16.312591,9.5764947 15.702031,7.297851 13.799823,5.5923507 11.548788,5.3206956 L 11.34523,7.2173025 c 1.502927,0.1843002 2.77931,1.316972 3.186436,2.8363895 0.392116,1.463395 -0.05016,2.961643 -1.154814,3.900547 l -0.814574,-1.108183 -0.923583,3.676827 3.574775,0.06731 c -0.697812,0.524381 -1.504398,0.930848 -2.401732,1.171291 C 9.0663232,18.765059 5.2420996,16.557143 4.238519,12.811733 3.2349406,9.0663232 5.4428576,5.2420982 9.1882668,4.2385189 12.933677,3.2349394 16.757902,5.4428575 17.761481,9.1882664 Z M 10.331631,5.4870919 6.8128117,5.3946804 7.5508399,6.4586692 c -1.705315,1.3824849 -2.4561462,3.7527948 -1.862927,5.9667228 0.6121137,2.28444 2.4752689,3.961063 4.7336191,4.263887 l 0.203054,-1.898495 C 9.1182241,14.589805 7.8767427,13.47051 7.468839,11.948193 7.0793123,10.494459 7.5519496,8.9694414 8.6538381,8.0395599 l 0.8140701,1.1062957 z"/>
</svg>
