<svg xmlns="http://www.w3.org/2000/svg" width="22" height="22" version="1">
 <defs>
  <style id="current-color-scheme" type="text/css">
   .ColorScheme-Text { color:#cecfce; } .ColorScheme-Highlight { color:#3daee9; }
  </style>
 </defs>
 <path style="fill:currentColor" class="ColorScheme-Text" d="M 11 3 C 6.581722 3.0000001 2.9999999 6.581722 3 11 C 3 15.418278 6.581722 19 11 19 C 15.418278 19 19 15.418278 19 11 C 19 6.5817219 15.418278 3 11 3 z M 11 4 C 14.865993 4 18 7.1340067 18 11 C 18 14.865993 14.865993 18 11 18 C 7.1340068 18 4 14.865993 4 11 C 3.9999999 7.1340067 7.1340067 4.0000001 11 4 z M 9 5 L 10 7.5 L 11 10 L 12 7.5 L 13 5 L 11 5 L 9 5 z M 8.171875 5.34375 L 6.7578125 6.7578125 L 5.34375 8.171875 L 7.8183594 9.2324219 L 10.292969 10.292969 L 9.2324219 7.8183594 L 8.171875 5.34375 z M 13.828125 5.34375 L 12.767578 7.8183594 L 11.707031 10.292969 L 14.181641 9.2324219 L 16.65625 8.171875 L 15.242188 6.7578125 L 13.828125 5.34375 z M 5 9 L 5 11 L 5 13 L 7.5 12 L 10 11 L 7.5 10 L 5 9 z M 17 9 L 14.5 10 L 12 11 L 14.5 12 L 17 13 L 17 11 L 17 9 z M 10.292969 11.707031 L 7.8183594 12.767578 L 5.34375 13.828125 L 6.7578125 15.242188 L 8.171875 16.65625 L 9.2324219 14.181641 L 10.292969 11.707031 z M 11.707031 11.707031 L 12.767578 14.181641 L 13.828125 16.65625 L 15.242188 15.242188 L 16.65625 13.828125 L 14.181641 12.767578 L 11.707031 11.707031 z M 11 12 L 10 14.5 L 9 17 L 11 17 L 13 17 L 12 14.5 L 11 12 z"/>
</svg>
