<svg xmlns="http://www.w3.org/2000/svg" id="svg9" width="22" height="22" version="1.1">
 <defs id="defs3">
  <style id="current-color-scheme" type="text/css">
   .ColorScheme-Text { color:#cecfce; } .ColorScheme-Highlight { color:#3daee9; }
  </style>
 </defs>
 <g id="g7">
  <path id="path5" style="color:#cecfce;fill:currentColor;stroke-width:0.70899999;stroke-linecap:round;stroke-linejoin:round" class="ColorScheme-Text" d="M 11,3 C 8.7911,3 7,4.7911 7,7 V 9 H 5 C 4.4476649,8.9998784 3.9998784,9.4476649 4,10 v 8 c -1.216e-4,0.552335 0.4476649,1.000122 1,1 h 12 c 0.552335,1.22e-4 1.000122,-0.447665 1,-1 V 10 C 18.000122,9.4476649 17.552335,8.9998784 17,9 H 15 V 7 C 15,4.7911 13.209,3 11,3 Z m 0,2 c 1.1052,0 2,0.8955 2,2 0,0.4715 -0.102,0.8423 -0.236,1.1074 C 12.631,8.3725 12.338,8.7271 12,9 11.67,9.2671 11,9.6 11,9.6 11,9.6 11.303,9.2357 11.428,8.95 11.287,8.9813 11.145,9 11,9 9.8956,9.001 9,8.1045 9,7 9,5.8955 9.8948,5 11,5 Z m 0,5 c 2.209116,5.5e-5 3.999945,1.790884 4,4 -5.5e-5,2.209116 -1.790884,3.999945 -4,4 -2.2091161,-5.5e-5 -3.9999448,-1.790884 -4,-4 5.52e-5,-2.209116 1.7908839,-3.999945 4,-4 z m 0,1 c -1.6568542,0 -3,1.343146 -3,3 0,1.656854 1.3431458,3 3,3 1.656854,0 3,-1.343146 3,-3 0,-1.656854 -1.343146,-3 -3,-3 z"/>
 </g>
 <g id="g4488" transform="rotate(-45,16.5,16.5)">
  <path id="path4167" style="color:#cecfce;opacity:1;fill:#ffca27;fill-opacity:1;stroke:none" class="ColorScheme-Text" d="M 16.5,13 A 3.5,3.5 0 0 0 13,16.5 3.5,3.5 0 0 0 16.5,20 3.5,3.5 0 0 0 20,16.5 3.5,3.5 0 0 0 16.5,13 Z M 17.792969,14.5 18.5,15.207031 15.207031,18.5 14.5,17.792969 Z"/>
  <path id="path4167-4" style="opacity:1;fill:#ffffff;fill-opacity:1;stroke:none" d="M 17.79297,14.5 18.5,15.20703 15.20703,18.5 14.5,17.79297 Z"/>
 </g>
</svg>
