<?xml version="1.0" encoding="UTF-8" standalone="no"?>
<svg
   xmlns:dc="http://purl.org/dc/elements/1.1/"
   xmlns:cc="http://creativecommons.org/ns#"
   xmlns:rdf="http://www.w3.org/1999/02/22-rdf-syntax-ns#"
   xmlns:svg="http://www.w3.org/2000/svg"
   xmlns="http://www.w3.org/2000/svg"
   xmlns:sodipodi="http://sodipodi.sourceforge.net/DTD/sodipodi-0.dtd"
   xmlns:inkscape="http://www.inkscape.org/namespaces/inkscape"
   width="22"
   height="22"
   version="1.1"
   id="svg9"
   sodipodi:docname="strawberry-panel.svg"
   inkscape:version="0.92.3 (2405546, 2018-03-11)">
  <metadata
     id="metadata13">
    <rdf:RDF>
      <cc:Work
         rdf:about="">
        <dc:format>image/svg+xml</dc:format>
        <dc:type
           rdf:resource="http://purl.org/dc/dcmitype/StillImage" />
      </cc:Work>
    </rdf:RDF>
  </metadata>
  <sodipodi:namedview
     pagecolor="#ffffff"
     bordercolor="#666666"
     borderopacity="1"
     objecttolerance="10"
     gridtolerance="10"
     guidetolerance="10"
     inkscape:pageopacity="0"
     inkscape:pageshadow="2"
     inkscape:window-width="1920"
     inkscape:window-height="1020"
     id="namedview11"
     showgrid="false"
     inkscape:zoom="21.46"
     inkscape:cx="11"
     inkscape:cy="11"
     inkscape:window-x="0"
     inkscape:window-y="30"
     inkscape:window-maximized="1"
     inkscape:current-layer="svg9" />
  <defs
     id="defs3">
    <style
       id="current-color-scheme"
       type="text/css">
   .ColorScheme-Text { color:#cecfce; } .ColorScheme-Highlight { color:#3daee9; }
  </style>
  </defs>
  <path
     style="fill:#cecfce;fill-opacity:1"
     d="M 13.087891 3 C 12.999101 3 12.972616 3.181015 13.027344 3.4199219 C 13.027344 3.4199219 13.184684 4.1818741 14.240234 4.7402344 C 14.974393 5.1031849 14.973965 5.3136084 14.236328 5.53125 C 13.914859 5.626096 13.523095 5.804777 13.367188 5.9296875 C 13.110055 6.1357011 13.204 6.2206135 14.376953 6.8457031 C 15.088147 7.2247127 15.802002 7.6459873 15.962891 7.78125 C 16.242223 8.0160895 16.230525 8.0484529 15.685547 8.5039062 C 15.07715 9.0123597 14.357422 10.201062 14.357422 10.697266 C 14.357422 10.965528 14.476494 10.988904 15.478516 10.904297 C 16.094945 10.852247 16.771813 10.785816 16.984375 10.757812 L 17.371094 10.707031 L 17.316406 12.056641 C 17.286056 12.798771 17.197456 13.590717 17.119141 13.816406 C 17.040831 14.042096 17.008388 14.260566 17.046875 14.302734 C 17.208892 14.480254 17.868911 14.089186 18.322266 13.546875 C 18.785744 12.992453 18.815517 12.980108 18.914062 13.320312 C 19.245933 13.930191 19.39325 14.465541 19.908203 15 C 20.023196 15.01131 20.109815 14.863737 20.183594 14.560547 C 20.410733 13.627133 20.288904 12.724112 19.810547 11.791016 C 19.552778 11.28821 19.30104 10.495102 19.25 10.029297 C 19.19896 9.5634918 19.115944 9.0227272 19.064453 8.8261719 C 18.986213 8.5274944 19.1362 8.351959 19.986328 7.7636719 C 20.954319 7.0938281 21.205926 6.7127465 20.839844 6.4648438 C 20.748884 6.4032507 20.268299 6.5899078 19.773438 6.8789062 C 19.278576 7.1679037 18.77709 7.4042969 18.658203 7.4042969 C 18.539317 7.4042969 18.166925 7.0417241 17.830078 6.5996094 C 17.244659 5.8312417 17.216797 5.743425 17.216797 4.609375 C 17.216797 3.5318159 17.186551 3.4193366 16.890625 3.3730469 C 16.651441 3.3356329 16.512556 3.4585226 16.369141 3.8378906 C 16.261693 4.1221144 16.120931 4.3554688 16.054688 4.3554688 C 15.988447 4.3554688 15.327532 4.0503784 14.587891 3.6777344 C 13.848235 3.3050924 13.173668 3 13.087891 3 z M 12.214844 4.0410156 C 12.148494 4.0472756 12.117574 4.0447654 12.042969 4.0527344 C 9.6003134 4.3136466 7.563403 5.8268516 5.2324219 9.1074219 C 4.5285943 10.097975 3.6243928 11.369076 3.2226562 11.933594 C 1.5302778 14.311716 1.6023894 16.753038 3.3964844 17.779297 C 4.556022 18.442572 5.6755352 18.704673 7.4492188 18.730469 C 8.3407341 18.743419 9.6477353 18.808239 10.351562 18.873047 C 12.31527 19.053886 12.561162 19.049287 13.943359 18.808594 C 15.490353 18.539192 16.682239 17.978144 17.640625 17.070312 C 18.026615 16.704684 18.493097 16.007691 18.882812 15.298828 C 18.7469 15.07922 18.666305 14.872728 18.554688 14.650391 C 18.397087 14.782904 18.254852 14.954549 18.085938 15.054688 C 17.90494 15.161982 17.724943 15.25559 17.466797 15.3125 C 17.208651 15.36941 16.700775 15.40627 16.308594 14.976562 C 15.96082 14.595535 16.03605 14.406062 16.03125 14.279297 C 16.02645 14.152531 16.038151 14.065479 16.050781 13.980469 C 16.076091 13.810454 16.115921 13.655169 16.173828 13.488281 C 16.132618 13.607047 16.209447 13.309361 16.242188 13.017578 C 16.274928 12.725795 16.304219 12.361413 16.318359 12.015625 L 16.326172 11.826172 C 16.054705 11.852152 15.870021 11.874421 15.5625 11.900391 C 15.051016 11.943581 14.790893 11.994756 14.361328 11.916016 C 14.146545 11.876636 13.787813 11.739856 13.570312 11.427734 C 13.352825 11.115612 13.357422 10.838113 13.357422 10.697266 C 13.357422 9.9656163 13.6366 9.5847989 13.9375 9.0878906 C 14.142512 8.7493475 14.423123 8.4625854 14.691406 8.1679688 C 14.449144 8.0280837 14.187459 7.8773365 13.908203 7.7285156 C 13.314901 7.4123334 13.019523 7.2933296 12.666016 6.9726562 C 12.577639 6.892488 12.473626 6.7891851 12.378906 6.6074219 C 12.284194 6.4256586 12.222744 6.1347989 12.271484 5.8828125 C 12.368969 5.3788397 12.630519 5.2414236 12.744141 5.1503906 C 12.85646 5.0604019 12.958352 5.0601739 13.0625 4.9980469 C 12.849294 4.7982342 12.527144 4.6066754 12.404297 4.4199219 C 12.314846 4.2839367 12.267592 4.1618778 12.214844 4.0410156 z M 11.457031 5.328125 C 11.404951 5.4590847 11.317954 5.5440017 11.289062 5.6933594 C 11.188267 6.214481 11.272967 6.6179766 11.466797 7.0117188 C 11.379137 7.0004487 11.286945 6.9971041 11.191406 7.0097656 C 10.870236 7.0523291 10.526913 7.2191815 10.310547 7.4355469 C 9.9258946 7.820196 9.8940496 8.4135805 10.240234 8.7597656 C 10.586418 9.1059503 11.179804 9.074106 11.564453 8.6894531 C 11.807348 8.446559 11.967886 8.0492261 11.980469 7.6972656 C 11.984217 7.7007132 11.990592 7.7096716 11.994141 7.7128906 C 12.378293 8.0613629 12.755601 8.2318385 13.179688 8.4511719 C 13.146947 8.5001489 13.113751 8.5179319 13.082031 8.5703125 C 12.805831 9.0264314 12.357422 9.7112334 12.357422 10.697266 C 12.357422 10.816349 12.369792 11.454351 12.75 12 C 12.906033 12.223913 13.081476 12.379275 13.259766 12.507812 C 12.934642 12.891605 12.913644 13.433176 13.240234 13.759766 C 13.586418 14.10595 14.179803 14.074102 14.564453 13.689453 C 14.755456 13.49845 14.906331 13.208481 14.96875 12.921875 C 15.061416 12.913745 15.155114 12.906652 15.248047 12.898438 C 15.247798 12.900638 15.248296 12.90405 15.248047 12.90625 C 15.237137 13.00345 15.214846 13.127638 15.197266 13.220703 C 15.188466 13.267233 15.184322 13.266463 15.169922 13.384766 C 15.169484 13.388366 15.168469 13.396271 15.167969 13.400391 C 15.128119 13.542972 15.082899 13.683831 15.060547 13.833984 C 15.046527 13.928354 15.02347 14.110944 15.03125 14.316406 C 15.02545 14.163569 14.995866 14.444457 15.066406 14.753906 C 15.136936 15.063355 15.316584 15.372399 15.570312 15.650391 C 16.017482 16.140349 16.529312 16.263537 16.988281 16.292969 C 16.980481 16.300869 16.960365 16.3369 16.953125 16.34375 C 16.145918 17.108377 15.172821 17.580182 13.771484 17.824219 C 12.896359 17.976611 12.544857 18.021503 11.914062 17.992188 C 12.144921 17.973225 12.379441 17.874465 12.564453 17.689453 C 12.949103 17.304802 13.176263 16.516106 12.830078 16.169922 C 12.743532 16.083379 12.628594 16.033109 12.5 16.011719 C 12.403555 15.995629 12.298463 15.995576 12.191406 16.009766 C 11.870237 16.052329 11.526914 16.219182 11.310547 16.435547 C 10.925896 16.820197 10.89405 17.41358 11.240234 17.759766 C 11.393853 17.913384 11.597462 17.979382 11.808594 17.986328 C 11.472148 17.966975 11.074017 17.935032 10.443359 17.876953 C 9.6876464 17.807422 8.3886699 17.743916 7.4628906 17.730469 C 5.7815729 17.706016 4.9098728 17.494019 3.8925781 16.912109 C 3.2871723 16.565805 3.024287 16.086533 3.0019531 15.333984 C 2.9796192 14.581436 3.2885384 13.56556 4.0371094 12.513672 C 4.4390146 11.948917 5.3427796 10.67843 6.046875 9.6875 C 8.0417381 6.8799746 9.6646902 5.7449618 11.457031 5.328125 z M 7.1914062 9.0097656 C 6.8702365 9.052329 6.5269126 9.2191813 6.3105469 9.4355469 C 5.9258964 9.8201962 5.8940495 10.413587 6.2402344 10.759766 C 6.5864188 11.105951 7.1798036 11.074103 7.5644531 10.689453 C 7.9491035 10.304803 8.176263 9.5161069 7.8300781 9.1699219 C 7.7435319 9.0833758 7.6285938 9.0331088 7.5 9.0117188 C 7.4035547 8.9956787 7.298463 8.9955776 7.1914062 9.0097656 z M 10.191406 11.009766 C 9.8702366 11.052329 9.5269127 11.219181 9.3105469 11.435547 C 8.925898 11.820197 8.8940495 12.413581 9.2402344 12.759766 C 9.5864189 13.10595 10.179804 13.074102 10.564453 12.689453 C 10.949104 12.304804 11.176263 11.516108 10.830078 11.169922 C 10.743531 11.083379 10.628593 11.033109 10.5 11.011719 C 10.403554 10.995629 10.298462 10.995576 10.191406 11.009766 z M 5.1914062 13.009766 C 4.8702364 13.052329 4.5269129 13.219181 4.3105469 13.435547 C 3.9258978 13.820197 3.8940493 14.413581 4.2402344 14.759766 C 4.586419 15.10595 5.1798037 15.074102 5.5644531 14.689453 C 5.949103 14.304803 6.1762633 13.516107 5.8300781 13.169922 C 5.7435319 13.083379 5.6285939 13.033109 5.5 13.011719 C 5.4035546 12.995629 5.298463 12.995576 5.1914062 13.009766 z M 9.1914062 15.009766 C 8.8702363 15.052329 8.5269125 15.219181 8.3105469 15.435547 C 7.9258971 15.820195 7.8940496 16.41358 8.2402344 16.759766 C 8.5864185 17.10595 9.1798042 17.074102 9.5644531 16.689453 C 9.9491041 16.304803 10.176263 15.516108 9.8300781 15.169922 C 9.7435317 15.083379 9.6285939 15.033109 9.5 15.011719 C 9.4035546 14.995629 9.2984629 14.995576 9.1914062 15.009766 z "
     id="path834" />
</svg>
