<?xml version="1.0" encoding="UTF-8" standalone="no"?>
<svg
   width="32"
   height="32"
   version="1"
   id="svg12"
   sodipodi:docname="system-shutdown.svg"
   inkscape:version="1.1 (c4e8f9ed74, 2021-05-24)"
   xmlns:inkscape="http://www.inkscape.org/namespaces/inkscape"
   xmlns:sodipodi="http://sodipodi.sourceforge.net/DTD/sodipodi-0.dtd"
   xmlns:xlink="http://www.w3.org/1999/xlink"
   xmlns="http://www.w3.org/2000/svg"
   xmlns:svg="http://www.w3.org/2000/svg"
   xmlns:rdf="http://www.w3.org/1999/02/22-rdf-syntax-ns#"
   xmlns:cc="http://creativecommons.org/ns#"
   xmlns:dc="http://purl.org/dc/elements/1.1/">
  <metadata
     id="metadata18">
    <rdf:RDF>
      <cc:Work
         rdf:about="">
        <dc:format>image/svg+xml</dc:format>
        <dc:type
           rdf:resource="http://purl.org/dc/dcmitype/StillImage" />
      </cc:Work>
    </rdf:RDF>
  </metadata>
  <defs
     id="defs16">
    <linearGradient
       inkscape:collect="always"
       id="linearGradient845">
      <stop
         style="stop-color:#ffffff;stop-opacity:1;"
         offset="0"
         id="stop840" />
      <stop
         style="stop-color:#ffffff;stop-opacity:0;"
         offset="1"
         id="stop843" />
    </linearGradient>
    <linearGradient
       inkscape:collect="always"
       id="linearGradient865">
      <stop
         style="stop-color:#000000;stop-opacity:1;"
         offset="0"
         id="stop861" />
      <stop
         style="stop-color:#000000;stop-opacity:0;"
         offset="1"
         id="stop863" />
    </linearGradient>
    <linearGradient
       inkscape:collect="always"
       id="linearGradient846">
      <stop
         style="stop-color:#a62419;stop-opacity:1"
         offset="0"
         id="stop842" />
      <stop
         style="stop-color:#d8584c;stop-opacity:1"
         offset="1"
         id="stop844" />
    </linearGradient>
    <linearGradient
       inkscape:collect="always"
       xlink:href="#linearGradient846"
       id="linearGradient848"
       x1="31.483906"
       y1="42.356411"
       x2="24.861862"
       y2="4.9475851"
       gradientUnits="userSpaceOnUse"
       gradientTransform="matrix(0.7,0,0,0.7,-0.8,-0.8)" />
    <linearGradient
       inkscape:collect="always"
       xlink:href="#linearGradient865"
       id="linearGradient867"
       x1="27.650057"
       y1="21.911186"
       x2="37.311806"
       y2="38.645824"
       gradientUnits="userSpaceOnUse"
       gradientTransform="matrix(0.7,0,0,0.7,-0.8,-0.8)" />
    <linearGradient
       inkscape:collect="always"
       xlink:href="#linearGradient865"
       id="linearGradient884"
       x1="22"
       y1="8"
       x2="37.002464"
       y2="23.002464"
       gradientUnits="userSpaceOnUse"
       gradientTransform="matrix(0.7,0,0,0.7,-0.8,-0.8)" />
    <linearGradient
       inkscape:collect="always"
       xlink:href="#linearGradient845"
       id="linearGradient847"
       x1="21.146551"
       y1="5.465517"
       x2="26.278736"
       y2="45.120689"
       gradientUnits="userSpaceOnUse"
       gradientTransform="matrix(0.7,0,0,0.7,-0.8,-0.8)" />
  </defs>
  <sodipodi:namedview
     pagecolor="#ffffff"
     bordercolor="#666666"
     borderopacity="1"
     objecttolerance="10"
     gridtolerance="10"
     guidetolerance="10"
     inkscape:pageopacity="0"
     inkscape:pageshadow="2"
     inkscape:window-width="1491"
     inkscape:window-height="915"
     id="namedview14"
     showgrid="false"
     inkscape:zoom="4.9214632"
     inkscape:cx="2.7430866"
     inkscape:cy="32.815444"
     inkscape:window-x="10"
     inkscape:window-y="39"
     inkscape:window-maximized="0"
     inkscape:current-layer="svg12"
     inkscape:pagecheckerboard="0" />
  <circle
     cx="16"
     cy="16"
     r="14"
     id="circle2"
     style="fill:url(#linearGradient848);fill-opacity:1;stroke-width:0.7" />
  <path
     d="M 29.9853,15.5926 A 14,14 0 0 1 16,29.3 14,14 0 0 1 2.0154,15.7074 14,14 0 0 0 2,16 14,14 0 0 0 16,30 14,14 0 0 0 30,16 14,14 0 0 0 29.9853,15.5926 Z"
     id="path10"
     inkscape:connector-curvature="0"
     style="opacity:0.2;stroke-width:0.7" />
  <path
     style="opacity:0.2;fill:url(#linearGradient867);fill-opacity:1;stroke:none;stroke-width:2.8;stroke-linecap:round;stroke-linejoin:round;stroke-miterlimit:4;stroke-dasharray:none;stroke-dashoffset:0;stroke-opacity:1;paint-order:normal"
     d="m 23.694532,7.8488283 0.01367,0.036914 C 25.857683,9.918167 27.2,12.791999 27.2,16 c 0,6.2048 -4.9952,11.2 -11.2,11.2 -3.065684,0 -5.833241,-1.222453 -7.851758,-3.204688 l 5.841992,5.841993 A 14,14 0 0 0 16,30 14,14 0 0 0 30,16 14,14 0 0 0 29.841407,13.995703 Z M 7.8666013,23.713672 8.004687,23.851758 c -0.041379,-0.04214 -0.078234,-0.08846 -0.1189449,-0.13125 z"
     id="rect850" />
  <path
     style="opacity:0.3;fill:url(#linearGradient884);fill-opacity:1;stroke:none;stroke-width:1.71617;stroke-linecap:round;stroke-linejoin:round;stroke-miterlimit:4;stroke-dasharray:none;stroke-dashoffset:0;stroke-opacity:1;paint-order:normal"
     d="m 17.4,4.8 v 9.8 h -2.8 l 8.335742,8.335742 C 24.707092,21.164392 25.8,18.7146 25.8,16 c 0,-1.205742 -0.222312,-2.354774 -0.617968,-3.417968 L 19.442578,6.8425783 C 19.231227,6.7636918 19.01804,6.6883872 18.8,6.6238283 V 6.2 Z m 9.689258,9.689258 c 0.0057,0.04234 0.01119,0.08466 0.01641,0.127149 -0.0049,-0.04096 -0.0071,-0.08211 -0.01231,-0.123048 z m 0.07793,0.725976 C 27.185082,15.474944 27.2,15.735511 27.2,16 c 0,-0.262046 -0.01266,-0.523657 -0.03281,-0.784766 z"
     id="path853" />
  <path
     inkscape:connector-curvature="0"
     style="fill:url(#linearGradient847);fill-opacity:1;stroke:none;stroke-width:1.4"
     d="M 14.6,4.8000001 V 14.6 h 2.8 V 4.8000001 Z m -1.4,0.371875 C 8.362233,6.4103059 4.8,10.765415 4.8,16 c 0,6.2048 4.9952,11.2 11.2,11.2 6.2048,0 11.2,-4.9952 11.2,-11.2 0,-5.234585 -3.562233,-9.5896941 -8.4,-10.8281249 v 1.4519525 c 4.053057,1.2000604 7,4.9236474 7,9.3761724 0,5.4292 -4.3708,9.8 -9.8,9.8 -5.4292,0 -9.8,-4.3708 -9.8,-9.8 0,-4.452525 2.946943,-8.176112 7,-9.3761724 z"
     class="ColorScheme-Text"
     id="path4-3" />
</svg>
