<?xml version="1.0" encoding="UTF-8" standalone="no"?>
<svg
   xmlns:dc="http://purl.org/dc/elements/1.1/"
   xmlns:cc="http://creativecommons.org/ns#"
   xmlns:rdf="http://www.w3.org/1999/02/22-rdf-syntax-ns#"
   xmlns:svg="http://www.w3.org/2000/svg"
   xmlns="http://www.w3.org/2000/svg"
   xmlns:sodipodi="http://sodipodi.sourceforge.net/DTD/sodipodi-0.dtd"
   xmlns:inkscape="http://www.inkscape.org/namespaces/inkscape"
   id="svg2"
   width="22"
   height="22"
   version="1.1"
   sodipodi:docname="lookit-panel.svg"
   inkscape:version="0.92.3 (2405546, 2018-03-11)">
  <metadata
     id="metadata8">
    <rdf:RDF>
      <cc:Work
         rdf:about="">
        <dc:format>image/svg+xml</dc:format>
        <dc:type
           rdf:resource="http://purl.org/dc/dcmitype/StillImage" />
      </cc:Work>
    </rdf:RDF>
  </metadata>
  <sodipodi:namedview
     pagecolor="#ffffff"
     bordercolor="#666666"
     borderopacity="1"
     objecttolerance="10"
     gridtolerance="10"
     guidetolerance="10"
     inkscape:pageopacity="0"
     inkscape:pageshadow="2"
     inkscape:window-width="1920"
     inkscape:window-height="1020"
     id="namedview6"
     showgrid="false"
     inkscape:zoom="10.727273"
     inkscape:cx="11"
     inkscape:cy="11"
     inkscape:window-x="0"
     inkscape:window-y="30"
     inkscape:window-maximized="1"
     inkscape:current-layer="svg2" />
  <defs
     id="defs8">
    <style
       id="current-color-scheme"
       type="text/css">
   .ColorScheme-Text { color:#cecfce; } .ColorScheme-Highlight { color:#3daee9; }
  </style>
  </defs>
  <path
     inkscape:connector-curvature="0"
     style="fill:#cecfce;fill-rule:evenodd;fill-opacity:1"
     d="M 12,2.0000001 C 7.0294,2.0000001 3,6.0294 3,11 3,11.388531 3.03288,11.769154 3.08398,12.144531 3.382905,11.945608 3.706005,11.773252 4.050777,11.632812 4.032487,11.422179 3.999997,11.215311 3.999997,11 c 0,-4.4183 3.5817,-7.9999999 8,-7.9999999 4.418,0 8,3.5816999 8,7.9999999 0,0.838656 -0.139891,1.645825 -0.380859,2.40625 0.332227,0.07781 0.650031,0.183097 0.935547,0.337891 0.280333,-0.865965 0.445312,-1.785509 0.445312,-2.744141 0,-4.9706 -4.029,-8.9999999 -9,-8.9999999 z M 12,4 c -3.866,0 -7,3.134 -7,7 0,0.113545 0.01157,0.225357 0.01953,0.337891 1.252772,-0.272613 2.682204,-0.176251 4.123047,0.435547 0.04435,-0.06485 0.0954,-0.118129 0.140625,-0.181641 0.144677,-0.20894 0.293946,-0.407224 0.453125,-0.582031 0.919687,-1.118975 1.994814,-1.937305 3.279297,-2.03711 1.731721,-0.135138 3.351566,0.526001 4.453125,1.56836 0.55078,0.521179 0.982231,1.151037 1.181641,1.876953 0.0343,0.124847 0.01387,0.253526 -0.01758,0.384765 0.02003,0.09722 0.05007,0.194597 0.05469,0.291016 0.203999,-0.658 0.312499,-1.36875 0.312499,-2.09375 0,-3.866 -3.134,-7 -6.999999,-7 z m 1.623047,5.958984 c -0.175088,-0.0066 -0.352297,-0.004 -0.529297,0.0098 -1.287,0.1 -2.60245,1.214641 -3.59375,2.931641 C 5.60938,10.654173 2,13.000025 2,15.875 2,17.406268 2.92638,18.380291 4,19 H 19.699219 C 22.62722,16.072 20.267,13.458219 17.5,14.199219 18.558438,12.365469 16.249369,10.058264 13.623047,9.958984 Z"
     id="path831" />
</svg>
