<?xml version="1.0" encoding="UTF-8" standalone="no"?>
<svg
   xmlns:dc="http://purl.org/dc/elements/1.1/"
   xmlns:cc="http://creativecommons.org/ns#"
   xmlns:rdf="http://www.w3.org/1999/02/22-rdf-syntax-ns#"
   xmlns:svg="http://www.w3.org/2000/svg"
   xmlns="http://www.w3.org/2000/svg"
   xmlns:sodipodi="http://sodipodi.sourceforge.net/DTD/sodipodi-0.dtd"
   xmlns:inkscape="http://www.inkscape.org/namespaces/inkscape"
   width="22"
   height="22"
   version="1"
   id="svg14"
   sodipodi:docname="qbittorrent-tray.svg"
   inkscape:version="0.92.3 (2405546, 2018-03-11)">
  <metadata
     id="metadata18">
    <rdf:RDF>
      <cc:Work
         rdf:about="">
        <dc:format>image/svg+xml</dc:format>
        <dc:type
           rdf:resource="http://purl.org/dc/dcmitype/StillImage" />
      </cc:Work>
    </rdf:RDF>
  </metadata>
  <sodipodi:namedview
     pagecolor="#ffffff"
     bordercolor="#666666"
     borderopacity="1"
     objecttolerance="10"
     gridtolerance="10"
     guidetolerance="10"
     inkscape:pageopacity="0"
     inkscape:pageshadow="2"
     inkscape:window-width="1920"
     inkscape:window-height="1021"
     id="namedview16"
     showgrid="false"
     inkscape:zoom="10.727273"
     inkscape:cx="-5.7330506"
     inkscape:cy="11"
     inkscape:window-x="0"
     inkscape:window-y="30"
     inkscape:window-maximized="1"
     inkscape:current-layer="svg14" />
  <defs
     id="defs6">
    <style
       id="current-color-scheme"
       type="text/css">
   .ColorScheme-Text { color:#232627; } .ColorScheme-Highlight { color:#3daee9; }
  </style>
    <clipPath
       id="clipPath4186"
       clipPathUnits="userSpaceOnUse">
      <circle
         cx="286"
         cy="26"
         r="10"
         id="circle3" />
    </clipPath>
  </defs>
  <path
     style="fill:#cecfce;fill-opacity:1"
     class="ColorScheme-Text"
     d="M 11 3 C 6.581722 3 3 6.581722 3 11 C 3 15.418278 6.581722 19 11 19 C 15.418278 19 19 15.418278 19 11 C 19 6.581722 15.418278 3 11 3 z M 11 4 C 11.33482 4.00274 11.669011 4.0295031 12 4.0800781 L 12 11.5 L 12 15 L 13 15 L 13 14 C 13 14 13.958852 13.999437 14.5 14 C 15.880712 14 17 12.880712 17 11.5 C 17 10.119288 15.880712 9 14.5 9 C 13.958629 9.0011264 13.432251 9.1779563 13 9.5039062 L 13 4.2949219 C 15.965522 5.1790693 17.998618 7.9054835 18 11 C 18 14.865993 14.865993 18 11 18 C 10.66518 17.9973 10.330989 17.970502 10 17.919922 L 10 11.5 L 10 8 L 9 8 L 9 9 C 9 9 8.0411484 9.0005633 7.5 9 C 6.1192881 9 5 10.119288 5 11.5 C 5 12.880712 6.1192881 14 7.5 14 C 8.0413714 13.998874 8.567749 13.822044 9 13.496094 L 9 17.705078 C 6.0344785 16.820931 4.001382 14.094516 4 11 C 4 7.1340068 7.1340068 4 11 4 z M 7.5 10 L 9 10 L 9 11.5 C 9 12.328427 8.3284271 13 7.5 13 C 6.6715729 13 6 12.328427 6 11.5 C 6 10.671573 6.6715729 10 7.5 10 z M 14.5 10 C 15.328427 10 16 10.671573 16 11.5 C 16 12.328427 15.328427 13 14.5 13 L 13 13 L 13 11.5 C 13 10.671573 13.671572 10 14.5 10 z"
     id="path12" />
</svg>
