<svg xmlns="http://www.w3.org/2000/svg" id="svg11" width="22" height="22" version="1.1">
 <defs id="defs3">
  <style id="current-color-scheme" type="text/css">
   .ColorScheme-Text { color:#cecfce; } .ColorScheme-Highlight { color:#3daee9; }
  </style>
 </defs>
 <g id="g9">
  <path id="path5" style="fill:#3daee9;stroke-width:0.70899999;stroke-linecap:round;stroke-linejoin:round;fill-opacity:1" d="M 11 3 C 8.7911 3 7 4.7911 7 7 L 7 9 L 5 9 C 4.4476649 8.9998784 3.9998784 9.4476649 4 10 L 4 18 C 3.9998784 18.552335 4.4476649 19.000122 5 19 L 17 19 C 17.552335 19.000122 18.000122 18.552335 18 18 L 18 10 C 18.000122 9.4476649 17.552335 8.9998784 17 9 L 15 9 L 15 7 C 15 4.7911 13.209 3 11 3 z M 11 5 C 12.1052 5 13 5.8955 13 7 C 13 7.4715 12.897672 7.8423219 12.763672 8.1074219 C 12.630672 8.3725219 12.338 8.7271 12 9 C 11.67 9.2671 11 9.5996094 11 9.5996094 C 11 9.5996094 11.302734 9.2349188 11.427734 8.9492188 C 11.286734 8.9805187 11.145 9 11 9 C 9.8956 9.001 9 8.1045 9 7 C 9 5.8955 9.8948 5 11 5 z M 11 10 C 13.209116 10.000055 14.999945 11.790884 15 14 C 14.999945 16.209116 13.209116 17.999945 11 18 C 8.7908839 17.999945 7.0000552 16.209116 7 14 C 7.0000552 11.790884 8.7908839 10.000055 11 10 z M 11 11 C 9.3431458 11 8 12.343146 8 14 C 8 15.656854 9.3431458 17 11 17 C 12.656854 17 14 15.656854 14 14 C 14 12.343146 12.656854 11 11 11 z"/>
 </g>
</svg>
