<?xml version="1.0" encoding="UTF-8" standalone="no"?>
<svg
   xmlns:dc="http://purl.org/dc/elements/1.1/"
   xmlns:cc="http://creativecommons.org/ns#"
   xmlns:rdf="http://www.w3.org/1999/02/22-rdf-syntax-ns#"
   xmlns:svg="http://www.w3.org/2000/svg"
   xmlns="http://www.w3.org/2000/svg"
   xmlns:sodipodi="http://sodipodi.sourceforge.net/DTD/sodipodi-0.dtd"
   xmlns:inkscape="http://www.inkscape.org/namespaces/inkscape"
   width="22"
   height="22"
   version="1.1"
   id="svg9"
   sodipodi:docname="riot-tray.svg"
   inkscape:version="0.92.3 (2405546, 2018-03-11)">
  <metadata
     id="metadata13">
    <rdf:RDF>
      <cc:Work
         rdf:about="">
        <dc:format>image/svg+xml</dc:format>
        <dc:type
           rdf:resource="http://purl.org/dc/dcmitype/StillImage" />
        <dc:title></dc:title>
      </cc:Work>
    </rdf:RDF>
  </metadata>
  <sodipodi:namedview
     pagecolor="#ffffff"
     bordercolor="#666666"
     borderopacity="1"
     objecttolerance="10"
     gridtolerance="10"
     guidetolerance="10"
     inkscape:pageopacity="0"
     inkscape:pageshadow="2"
     inkscape:window-width="1920"
     inkscape:window-height="1020"
     id="namedview11"
     showgrid="true"
     inkscape:zoom="16.26"
     inkscape:cx="4.3303564"
     inkscape:cy="11"
     inkscape:window-x="0"
     inkscape:window-y="30"
     inkscape:window-maximized="1"
     inkscape:current-layer="svg9">
    <inkscape:grid
       type="xygrid"
       id="grid820" />
  </sodipodi:namedview>
  <defs
     id="defs3">
    <style
       id="current-color-scheme"
       type="text/css">
   .ColorScheme-Text { color:#cecfce; } .ColorScheme-Highlight { color:#3daee9; }
  </style>
  </defs>
  <path
     style="color:#000000;font-style:normal;font-variant:normal;font-weight:normal;font-stretch:normal;font-size:medium;line-height:normal;font-family:sans-serif;font-variant-ligatures:normal;font-variant-position:normal;font-variant-caps:normal;font-variant-numeric:normal;font-variant-alternates:normal;font-feature-settings:normal;text-indent:0;text-align:start;text-decoration:none;text-decoration-line:none;text-decoration-style:solid;text-decoration-color:#000000;letter-spacing:normal;word-spacing:normal;text-transform:none;writing-mode:lr-tb;direction:ltr;text-orientation:mixed;dominant-baseline:auto;baseline-shift:baseline;text-anchor:start;white-space:normal;shape-padding:0;clip-rule:nonzero;display:inline;overflow:visible;visibility:visible;opacity:0.3;isolation:auto;mix-blend-mode:normal;color-interpolation:sRGB;color-interpolation-filters:linearRGB;solid-color:#000000;solid-opacity:1;vector-effect:none;fill:#cecfce;fill-opacity:1;fill-rule:nonzero;stroke:none;stroke-width:3;stroke-linecap:round;stroke-linejoin:round;stroke-miterlimit:4;stroke-dasharray:none;stroke-dashoffset:0;stroke-opacity:1;color-rendering:auto;image-rendering:auto;shape-rendering:auto;text-rendering:auto;enable-background:accumulate"
     d="m 6.499839,3 c 0,0 -1.1310269,0.8560523 -1.1311097,1.6844451 L 4.999839,4.877344 v 6.376562 c -0.026452,0.16103 -0.026452,0.325298 0,0.486328 V 17.5 c -0.028688,2.028484 3.0286878,2.028484 3,0 V 13 h 3.5 c 0.79711,0 1.886307,-0.186286 2.859375,-0.988281 C 15.332282,11.209724 15.999839,9.7982735 15.999839,8 c 0,-1.7867258 -0.637516,-3.1952712 -1.607422,-4.0058594 C 13.422511,3.1835524 12.315663,3 11.499839,3 Z m 0,1 h 5 c 0.654182,0 1.522258,0.1535164 2.25,0.7617188 0.727742,0.6082023 1.25,1.6613976 1.25,3.2382812 0,1.5807328 -0.542882,2.634896 -1.277344,3.240234 C 12.988034,11.845572 12.125119,12 11.499839,12 h -4.5 v 5.5 c 0.00956,0.676161 -1.0095626,0.676161 -1,0 v -5.917969 c -0.00882,-0.05368 -0.00882,-0.108432 0,-0.162109 V 4.5 c 2.76e-5,-0.2761309 0.2238691,-0.4999724 0.5,-0.5 z m 0.5,1 v 6 h 4.5 c 0.45345,0 1.090082,-0.122569 1.585938,-0.53125 C 13.581631,10.060069 13.999839,9.3631922 13.999839,8 c 0,-1.3670415 -0.405047,-2.0648867 -0.890625,-2.4707031 C 12.623636,5.1234805 11.992379,5 11.499839,5 Z m 1,1 h 3.5 c 0.330898,0 0.725336,0.093445 0.96875,0.296875 0.243414,0.2034305 0.53125,0.5459257 0.53125,1.703125 0,1.1456515 -0.291578,1.4852421 -0.548828,1.6972656 C 12.193761,9.9092892 11.781459,10 11.499839,10 h -3.5 z"
     id="path824"
     inkscape:connector-curvature="0"
     sodipodi:nodetypes="ccccccccsssssccssssscccccccccscsssccscssscc" />
  <path
     style="opacity:1;fill:#cecfce;fill-opacity:1;stroke:none;stroke-width:1.06773329;stroke-linecap:round;stroke-linejoin:round;stroke-miterlimit:4;stroke-dasharray:none;stroke-dashoffset:0;stroke-opacity:1;paint-order:normal"
     d="m 6.999839,3 a 2,2 0 0 0 -2,2 2,2 0 0 0 2,2 2,2 0 0 0 2,-2 2,2 0 0 0 -2,-2 z m 3.935547,6.9726562 A 2.0002,2.0002 0 0 0 9.3240578,13.011719 l 2.9531252,5.003906 a 2.0002,2.0002 0 1 0 3.445312,-2.03125 L 12.76937,10.978516 A 2.0002,2.0002 0 0 0 10.935386,9.9726562 Z"
     id="path830"
     inkscape:connector-curvature="0" />
</svg>
