<svg xmlns="http://www.w3.org/2000/svg" id="svg2" width="22" height="22" version="1.1">
 <defs id="defs4">
  <style id="current-color-scheme" type="text/css">
   .ColorScheme-Text { color:#cecfce; } .ColorScheme-Highlight { color:#3daee9; }
  </style>
 </defs>
 <path id="path4493" style="opacity:1;fill:#3daee9;fill-opacity:1" d="M 10 3 A 7 6.5 0 0 0 3 9.5 A 7 6.5 0 0 0 5 14.046875 L 5 17 L 6.3203125 15.019531 A 7 6.5 0 0 0 8.5820312 15.853516 C 8.2131045 15.143061 8 14.348082 8 13.5 C 8 11.060117 9.723041 9.0453833 12.048828 8.3066406 A 1 1 0 0 1 12 8 A 1 1 0 0 1 13 7 A 1 1 0 0 1 14 8 C 15.061383 8 16.066598 8.2619524 16.943359 8.7167969 A 7 6.5 0 0 0 10 3 z M 7 7 A 1 1 0 0 1 8 8 A 1 1 0 0 1 7 9 A 1 1 0 0 1 6 8 A 1 1 0 0 1 7 7 z M 14 9 A 5 4.5 0 0 0 9 13.5 A 5 4.5 0 0 0 14 18 A 5 4.5 0 0 0 16.810547 17.216797 L 18 19 L 18 16.191406 A 5 4.5 0 0 0 19 13.5 A 5 4.5 0 0 0 14 9 z M 14 10 C 16.27424 10 17.998807 11.614093 18 13.498047 C 17.9984 14.229243 17.738173 14.943884 17.232422 15.550781 L 17 15.830078 L 17 15.927734 L 16.287109 16.365234 C 15.622894 16.773242 14.8218 16.99844 14 17 C 11.724972 17 10 15.384792 10 13.5 C 10 11.615208 11.724972 9.9999999 14 10 z M 12 11 A 1 1 0 0 0 11 12 A 1 1 0 0 0 12 13 A 1 1 0 0 0 13 12 A 1 1 0 0 0 12 11 z M 16 11 A 1 1 0 0 0 15 12 A 1 1 0 0 0 16 13 A 1 1 0 0 0 17 12 A 1 1 0 0 0 16 11 z"/>
</svg>
