<?xml version="1.0" encoding="UTF-8" standalone="no"?>
<svg
   height="22"
   width="22"
   version="1.1"
   id="svg49"
   sodipodi:docname="drive-removable-media.svg"
   inkscape:version="1.1.1 (3bf5ae0d25, 2021-09-20)"
   xmlns:inkscape="http://www.inkscape.org/namespaces/inkscape"
   xmlns:sodipodi="http://sodipodi.sourceforge.net/DTD/sodipodi-0.dtd"
   xmlns:xlink="http://www.w3.org/1999/xlink"
   xmlns="http://www.w3.org/2000/svg"
   xmlns:svg="http://www.w3.org/2000/svg">
  <defs
     id="defs53">
    <linearGradient
       inkscape:collect="always"
       xlink:href="#f"
       id="linearGradient1292"
       x1="9.8924322"
       y1="12.59946"
       x2="17.145075"
       y2="20.000824"
       gradientUnits="userSpaceOnUse"
       gradientTransform="translate(-0.145075,-9.688e-4)" />
    <linearGradient
       inkscape:collect="always"
       xlink:href="#g"
       id="linearGradient1602"
       x1="11.16972"
       y1="18.429214"
       x2="11.152344"
       y2="8.6679688"
       gradientUnits="userSpaceOnUse"
       gradientTransform="translate(-0.14352263)" />
  </defs>
  <sodipodi:namedview
     id="namedview51"
     pagecolor="#ffffff"
     bordercolor="#666666"
     borderopacity="1.0"
     inkscape:pageshadow="2"
     inkscape:pageopacity="0.0"
     inkscape:pagecheckerboard="0"
     showgrid="false"
     inkscape:zoom="18.295455"
     inkscape:cx="5.7391304"
     inkscape:cy="4.5093168"
     inkscape:window-width="1920"
     inkscape:window-height="1007"
     inkscape:window-x="0"
     inkscape:window-y="0"
     inkscape:window-maximized="1"
     inkscape:current-layer="svg49" />
  <linearGradient
     id="a">
    <stop
       offset="0"
       stop-color="#faae2a"
       id="stop2" />
    <stop
       offset="1"
       stop-color="#ffc35a"
       id="stop4" />
  </linearGradient>
  <linearGradient
     id="b"
     gradientTransform="matrix(.70588236 0 0 .70588341 -273.52104 -365.26974)"
     gradientUnits="userSpaceOnUse"
     x2="0"
     y1="545.79797"
     y2="528.79797">
    <stop
       offset="0"
       stop-color="#197cf1"
       id="stop7" />
    <stop
       offset="1"
       stop-color="#20bcfa"
       id="stop9" />
  </linearGradient>
  <linearGradient
     id="c"
     gradientTransform="matrix(.76923079 0 0 .59999821 -299.05497 -308.67785)"
     gradientUnits="userSpaceOnUse"
     x2="0"
     y1="527.79797"
     y2="517.79797">
    <stop
       offset="0"
       stop-color="#c6cdd1"
       id="stop12" />
    <stop
       offset="1"
       stop-color="#e0e5e7"
       id="stop14" />
  </linearGradient>
  <linearGradient
     id="d"
     gradientTransform="matrix(.49999737 0 0 .75000007 -191.28468 -386.84852)"
     gradientUnits="userSpaceOnUse"
     x1="398.57144"
     x2="400.57144"
     xlink:href="#a" />
  <linearGradient
     id="e"
     gradientTransform="matrix(.49999731 0 0 .75000007 -186.28465 -386.84852)"
     gradientUnits="userSpaceOnUse"
     x1="398.57144"
     x2="400.57144"
     xlink:href="#a" />
  <linearGradient
     id="f"
     gradientUnits="userSpaceOnUse"
     x1="8"
     x2="17"
     y1="11"
     y2="20">
    <stop
       offset="0"
       stop-color="#292c2f"
       id="stop19" />
    <stop
       offset="1"
       stop-opacity="0"
       id="stop21" />
  </linearGradient>
  <linearGradient
     id="g"
     gradientUnits="userSpaceOnUse"
     x1="11"
     x2="11"
     y1="17"
     y2="11">
    <stop
       offset="0"
       stop-color="#7cbaf8"
       id="stop24" />
    <stop
       offset="1"
       stop-color="#f4fcff"
       id="stop26" />
  </linearGradient>
  <path
     d="m5 8v12h12v-12z"
     fill="url(#b)"
     stroke-width=".666667"
     id="path29" />
  <path
     d="m6 2h10v6h-10z"
     fill="url(#c)"
     stroke-width=".654653"
     id="path31" />
  <path
     d="m7 3h3.035741v3h-3.035741z"
     fill="#23262c"
     stroke-width=".754449"
     id="path33" />
  <path
     d="m11.964319 3h3.035681v3h-3.035681z"
     fill="#23262c"
     stroke-width=".754441"
     id="path35" />
  <path
     d="m8 3h1v3h-1z"
     fill="url(#d)"
     stroke-width=".612371"
     id="path37" />
  <path
     d="m13 3h1v3h-1z"
     fill="url(#e)"
     stroke-width=".612371"
     id="path39" />
  <path
     id="rect860-5"
     style="opacity:0.2;fill:url(#linearGradient1292);fill-opacity:1;stroke-width:0.158966"
     d="m 11.007269,8.667 -0.833985,1.414062 0.517579,0.519531 v 1.75586 L 9.9018,11.565437 c -7.5e-4,-7.4e-4 -0.0029,3.7e-4 -0.0039,0 -0.0986,-0.0977 -0.222579,-0.161493 -0.355469,-0.183594 -0.002,-3.39e-4 -0.0029,10e-7 -0.0059,0 -0.13369,-0.0209 -0.276537,1.23e-4 -0.404297,0.07031 -0.15731,0.0866 -0.267256,0.227449 -0.316406,0.386719 -0.0492,0.15927 -0.03582,0.33685 0.05078,0.49414 0.0314,0.055 0.07005,0.105131 0.115234,0.150391 l 0.152344,0.150391 v 1.271484 c 0.008,0.11798 0.03097,0.235576 0.07227,0.347656 0.0413,0.11211 0.101068,0.21812 0.179688,0.3125 l 1.248047,1.248047 c 0.0226,0.0486 0.05664,0.09569 0.05664,0.152344 v 0.503906 c -0.12976,0.0432 -0.245441,0.109803 -0.34375,0.195313 -0.0984,0.0856 -0.179302,0.188694 -0.238282,0.302734 -0.059,0.11404 -0.09562,0.238417 -0.107422,0.367188 -0.0118,0.128799 0.0015,0.262798 0.04492,0.392578 0.0504,0.15117 0.134015,0.283025 0.240235,0.390625 0.001,10e-4 0.0039,0.0049 0.0059,0.0059 l 0.01758,0.01758 1.857422,1.857422 L 17,20 16.999935,14.409657 13.208414,10.618172 H 12.95646 Z"
     sodipodi:nodetypes="cccccccccccccccccscccccccccccccc" />
  <path
     d="m 12.265639,11.92308 h -0.34605 V 10.6175 h 1.28984 v 1.30558 h -0.34605 v 0.75504 c -0.0314,0.23596 -0.12584,0.4719 -0.28313,0.64493 l -1.16402,1.10109 c -0.0629,0.0629 -0.11008,0.15729 -0.11008,0.25168 v 1.79321 c 0.31459,0.0943 0.55055,0.34605 0.64492,0.64492 0.17303,0.51908 -0.12584,1.08536 -0.64492,1.2584 -0.51909,0.17303 -1.08536,-0.12585 -1.2584,-0.64493 -0.1730196,-0.51909 0.12584,-1.08536 0.64494,-1.25839 v -0.50336 c 0,-0.0944 -0.0315,-0.17303 -0.0944,-0.25169 L 9.3871396,14.56571 c -0.15731,-0.18876 -0.23595,-0.42471 -0.25169,-0.66066 v -1.30558 c -0.11008,-0.0629 -0.20449,-0.15729 -0.26741,-0.26742 -0.17302,-0.31459 -0.0472,-0.70783 0.26741,-0.88086 0.3146,-0.17303 0.70785,-0.0472 0.8808794,0.2674 0.17302,0.31459 0.0472,0.70785 -0.2674194,0.88087 v 1.30558 c 0,0.0944 0.0314,0.17303 0.0944,0.25169 l 0.8494094,0.80222 v -4.87626 h -0.51914 l 0.83369,-1.41569 0.83369,1.43142 h -0.5191 v 3.57068 l 0.81796,-0.78649 c 0.0787,-0.0629 0.12584,-0.17302 0.12584,-0.28314 z"
     id="path2"
     style="fill:url(#linearGradient1602);fill-opacity:1;stroke-width:0.1573" />
  <path
     d="m5 19h12v.999855h-12z"
     fill="#0c69cf"
     stroke-width=".816449"
     id="path41" />
</svg>
