<?xml version="1.0" encoding="UTF-8" standalone="no"?>
<!-- Created with Inkscape (http://www.inkscape.org/) -->

<svg
   width="22"
   height="22"
   viewBox="0 0 5.8208332 5.8208335"
   version="1.1"
   id="svg2123"
   inkscape:version="1.1.1 (3bf5ae0d25, 2021-09-20, custom)"
   sodipodi:docname="weather-storm.svg"
   xmlns:inkscape="http://www.inkscape.org/namespaces/inkscape"
   xmlns:sodipodi="http://sodipodi.sourceforge.net/DTD/sodipodi-0.dtd"
   xmlns:xlink="http://www.w3.org/1999/xlink"
   xmlns="http://www.w3.org/2000/svg"
   xmlns:svg="http://www.w3.org/2000/svg">
  <sodipodi:namedview
     id="namedview2125"
     pagecolor="#ffffff"
     bordercolor="#666666"
     borderopacity="1.0"
     inkscape:pageshadow="2"
     inkscape:pageopacity="0.0"
     inkscape:pagecheckerboard="0"
     inkscape:document-units="px"
     showgrid="false"
     units="px"
     inkscape:zoom="35.590909"
     inkscape:cx="11"
     inkscape:cy="17.743295"
     inkscape:window-width="1920"
     inkscape:window-height="999"
     inkscape:window-x="0"
     inkscape:window-y="0"
     inkscape:window-maximized="1"
     inkscape:current-layer="svg2123" />
  <defs
     id="defs2120">
    <linearGradient
       inkscape:collect="always"
       id="linearGradient1486">
      <stop
         style="stop-color:#f0ff01;stop-opacity:1;"
         offset="0"
         id="stop1482" />
      <stop
         style="stop-color:#ff9701;stop-opacity:1"
         offset="1"
         id="stop1484" />
    </linearGradient>
    <linearGradient
       inkscape:collect="always"
       id="linearGradient2887">
      <stop
         style="stop-color:#6f8181;stop-opacity:1;"
         offset="0"
         id="stop2883" />
      <stop
         style="stop-color:#334545;stop-opacity:1"
         offset="1"
         id="stop2885" />
    </linearGradient>
    <linearGradient
       inkscape:collect="always"
       xlink:href="#linearGradient2887"
       id="linearGradient2889"
       x1="2.778125"
       y1="1.0583333"
       x2="2.793014"
       y2="4.4970551"
       gradientUnits="userSpaceOnUse"
       gradientTransform="translate(1.41e-6,-0.26458333)" />
    <linearGradient
       inkscape:collect="always"
       xlink:href="#linearGradient2887"
       id="linearGradient2866"
       x1="15"
       y1="14.5"
       x2="0.99999964"
       y2="6.5"
       gradientUnits="userSpaceOnUse"
       gradientTransform="matrix(0.26458333,0,0,0.26458333,-0.26458333,-0.52916664)" />
    <linearGradient
       inkscape:collect="always"
       xlink:href="#linearGradient1486"
       id="linearGradient1488"
       x1="3.7041664"
       y1="3.5550692"
       x2="3.7041664"
       y2="3.175"
       gradientUnits="userSpaceOnUse"
       gradientTransform="matrix(0.75000019,0,0,0.75000019,0.52916631,1.0583327)" />
  </defs>
  <path
     id="rect1381"
     style="fill:#334545;fill-opacity:1;stroke-width:0.131302;stroke-linejoin:round"
     d="M 3.0427083,0 C 2.7504578,0 2.2489584,0.59228995 2.2489584,1.3229167 c 0,0.4331807 0.3540124,0.79375 0.7937499,0.79375 h 1.4552083 c 0.4397375,0 0.79375,-0.3486837 0.79375,-0.7818644 0,-0.43318063 -0.3540125,-0.78186446 -0.79375,-0.78186446 V 0.52141524 C 4.4979166,0.23262815 4.2619083,5e-8 3.96875,5e-8 Z"
     sodipodi:nodetypes="ssssscsss" />
  <path
     id="rect929"
     style="fill:url(#linearGradient2866);fill-opacity:1;stroke-width:0.132292;stroke-linejoin:round"
     d="m 1.5875,0.52916671 c -0.2931583,0 -0.5291666,0.23600826 -0.5291666,0.52916659 V 1.3229167 H 0.79374997 C 0.3540125,1.3229167 0,1.6769293 0,2.1166667 0,2.5564041 0.3540125,2.9104166 0.79374997,2.9104166 H 2.9104167 c 0.4397375,0 0.79375,-0.3540125 0.79375,-0.7937499 0,-0.4397374 -0.3540125,-0.79375 -0.79375,-0.79375 V 1.0583333 c 0,-0.29315833 -0.2360084,-0.52916659 -0.5291667,-0.52916659 z" />
  <path
     id="path2228"
     style="fill:url(#linearGradient2889);fill-opacity:1;stroke-width:0.121268;stroke-linejoin:round"
     d="m 2.7781264,0.79374997 c -0.8036894,0 -1.4552084,0.65151913 -1.4552083,1.45520853 2.98e-4,0.047123 0.00288,0.094204 0.00775,0.1410766 -0.45895973,0.06229 -0.80131522,0.4540893 -0.80150143,0.9172567 0,0.5114388 0.414603,0.9260416 0.92604163,0.9260416 h 2.778125 c 0.5845013,0 1.0583333,-0.4738319 1.0583333,-1.0583333 0,-0.5845013 -0.473832,-1.0583333 -1.0583333,-1.0583333 -0.00206,-6.1e-6 -0.00414,-6.1e-6 -0.0062,0 C 4.1587367,1.3674203 3.5304881,0.79384077 2.7781264,0.79374997 Z"
     sodipodi:nodetypes="ccccccsccc" />
  <path
     id="path3407"
     style="opacity:0.4;fill:#172525;fill-opacity:1;stroke-width:0.154341;stroke-linejoin:round"
     d="m 1.329636,2.1114991 c -4.531e-4,0.00484 -0.00114,0.00962 -0.00155,0.014469 8.763e-4,-1.215e-4 0.00171,-3.977e-4 0.00258,-5.168e-4 -4.822e-4,-0.00465 -5.96e-4,-0.0093 -0.00103,-0.013952 z M 5.282883,3.0406415 C 5.2185369,3.5635267 4.7736186,3.96875 4.2333347,3.96875 h -2.778125 c -0.46744633,0 -0.85318157,-0.346779 -0.9162231,-0.7968506 -0.006524,0.044262 -0.0098,0.089476 -0.009819,0.1353923 0,0.5114388 0.41460297,0.9260417 0.9260416,0.9260417 h 2.778125 c 0.5845013,0 1.0583333,-0.473832 1.0583333,-1.0583333 0,-0.045566 -0.0032,-0.09031 -0.00879,-0.1343586 z" />
  <path
     d="m 4.4203664,5.2141732 a 0.26458344,0.26458344 0 0 0 0,0.3741766 0.26458344,0.26458344 0 0 0 0.3741766,0 0.26458344,0.26458344 0 0 0 0,-0.3741766 L 4.6074547,5.0270836 Z"
     id="path14"
     style="fill:#3b85b5;stroke-width:0.132292" />
  <path
     d="m 3.3620326,5.2141732 a 0.26458344,0.26458344 0 0 0 0,0.3741766 0.26458344,0.26458344 0 0 0 0.3741766,0 0.26458344,0.26458344 0 0 0 0,-0.3741766 L 3.5491209,5.0270836 Z"
     id="path16"
     style="fill:#3b85b5;stroke-width:0.132292" />
  <path
     d="m 1.2453655,5.2141732 a 0.26458344,0.26458344 0 0 0 0,0.3741766 0.26458344,0.26458344 0 0 0 0.3741765,0 0.26458344,0.26458344 0 0 0 0,-0.3741766 L 1.4324538,5.0270836 Z"
     id="path18"
     style="fill:#3b85b5;stroke-width:0.132292" />
  <path
     d="m 0.18703175,5.2141732 a 0.26458344,0.26458344 0 0 0 0,0.3741766 0.26458344,0.26458344 0 0 0 0.37417658,0 0.26458344,0.26458344 0 0 0 0,-0.3741766 L 0.37412005,5.0270836 Z"
     id="path20"
     style="fill:#3b85b5;stroke-width:0.132292" />
  <path
     d="m 4.9495333,4.4204229 a 0.26458344,0.26458344 0 0 0 0,0.3741766 0.26458344,0.26458344 0 0 0 0.3741765,0 0.26458344,0.26458344 0 0 0 0,-0.3741766 L 5.1366216,4.2333333 Z"
     id="path22"
     style="fill:#3b85b5;stroke-width:0.132292" />
  <path
     d="m 3.8911995,4.4204229 a 0.26458344,0.26458344 0 0 0 0,0.3741766 0.26458344,0.26458344 0 0 0 0.3741766,0 0.26458344,0.26458344 0 0 0 0,-0.3741766 L 4.0782878,4.2333333 Z"
     id="path24"
     style="fill:#3b85b5;stroke-width:0.132292" />
  <path
     d="m 1.7745324,4.4204229 a 0.26458344,0.26458344 0 0 0 0,0.3741766 0.26458344,0.26458344 0 0 0 0.3741765,0 0.26458344,0.26458344 0 0 0 0,-0.3741766 L 1.9616206,4.2333333 Z"
     id="path26"
     style="fill:#3b85b5;stroke-width:0.132292" />
  <path
     d="m 0.71619863,4.4204229 a 0.26458344,0.26458344 0 0 0 0,0.3741766 0.26458344,0.26458344 0 0 0 0.37417657,0 0.26458344,0.26458344 0 0 0 0,-0.3741766 L 0.90328693,4.2333333 Z"
     id="path28"
     style="fill:#3b85b5;stroke-width:0.132292" />
  <path
     id="rect1310"
     style="fill:url(#linearGradient1488);stroke-width:0.099219;stroke-linejoin:round"
     d="m 2.3151042,3.4395833 h 1.1906249 c 0.109935,0 0.1984376,0.088503 0.1984376,0.1984376 0,0.109935 -0.088503,0.1984374 -0.1984376,0.1984374 H 2.3151042 c -0.109935,0 -0.1984376,-0.088503 -0.1984376,-0.1984374 0,-0.109935 0.088503,-0.1984376 0.1984376,-0.1984376 z"
     sodipodi:nodetypes="sssssss" />
  <path
     id="rect1878"
     style="fill:#f0ff01;stroke-width:0.132292;stroke-linejoin:round"
     d="M 2.6458333,3.7041667 H 3.1749999 L 3.4395833,4.2333334 3.175,4.6302083 3.2411458,4.2333333 3.1088542,4.0348958 2.8442708,4.4979167 3.0427083,4.9609375 2.778125,5.4239583 2.9104166,5.8208333 2.5796875,5.4239583 2.8442708,4.9609375 2.6458333,4.4979167 2.778125,4.0335729 Z"
     sodipodi:nodetypes="ccccccccccccccc" />
</svg>
