<?xml version="1.0" encoding="UTF-8" standalone="no"?>
<!-- Created with Inkscape (http://www.inkscape.org/) -->

<svg
   width="48"
   height="48"
   viewBox="0 0 12.7 12.7"
   version="1.1"
   id="svg5"
   inkscape:version="1.1.1 (3bf5ae0d25, 2021-09-20, custom)"
   sodipodi:docname="folder-network.svg"
   xmlns:inkscape="http://www.inkscape.org/namespaces/inkscape"
   xmlns:sodipodi="http://sodipodi.sourceforge.net/DTD/sodipodi-0.dtd"
   xmlns="http://www.w3.org/2000/svg"
   xmlns:svg="http://www.w3.org/2000/svg">
  <sodipodi:namedview
     id="namedview7"
     pagecolor="#ffffff"
     bordercolor="#666666"
     borderopacity="1.0"
     inkscape:pageshadow="2"
     inkscape:pageopacity="0.0"
     inkscape:pagecheckerboard="false"
     inkscape:document-units="px"
     showgrid="false"
     units="px"
     height="48px"
     borderlayer="false"
     inkscape:zoom="8.3541665"
     inkscape:cx="11.670823"
     inkscape:cy="32.498754"
     inkscape:window-width="1920"
     inkscape:window-height="1007"
     inkscape:window-x="0"
     inkscape:window-y="0"
     inkscape:window-maximized="1"
     inkscape:current-layer="svg5" />
  <defs
     id="defs2">
    <style
       type="text/css"
       id="current-color-scheme">
      .ColorScheme-Text {
        color:#31363b;
      }
      .ColorScheme-Highlight {
        color:#3daee9;
      }
      </style>
  </defs>
  <path
     id="rect846-3"
     style="fill:currentColor;fill-opacity:1;stroke-width:0.295665"
     class="ColorScheme-Highlight"
     d="M 1.0583333,1.5875 H 5.2916666 L 6.35,2.9104166 l 5.291666,10e-8 0,8.2020833 H 1.0583337 Z"
     sodipodi:nodetypes="ccccccc" />
  <path
     id="rect1287"
     style="fill:#31363b;fill-opacity:1;stroke-width:0.264583;opacity:0.3"
     class="ColorScheme-Text"
     d="m 1.0583329,1.5875 h 4.233334 l 1.058333,1.3229166 5.2916661,10e-8 V 3.175 H 6.3500009 l -1.058334,1.3229161 h -4.233334 z"
     sodipodi:nodetypes="ccccccccc" />
  <rect
     style="fill:#000000;fill-opacity:0.235294;stroke-width:0.147561"
     id="rect5839"
     width="10.583333"
     height="0.26458332"
     x="1.0583329"
     y="10.847917" />
  <path
     id="rect3586"
     style="fill:currentColor;fill-opacity:0.2;stroke-width:0.264583"
     class="ColorScheme-Text"
     d="m 1.0583333,4.2333335 3.9687505,-4e-7 L 6.3500004,3.175 5.2916669,4.4979162 l -4.2333336,5e-7 z"
     sodipodi:nodetypes="cccccc" />
  <path
     id="rect870"
     style="fill:#ffffff;fill-opacity:0.2;stroke-width:0.44688"
     d="M 20 6 L 24 12 L 44 12 L 44 11 L 24 11 L 20 6 z M 24 12 L 20 17 L 4 17 L 4 18 L 21 18 L 24 12 z "
     transform="scale(0.26458333)" />
  <path
     id="rect174"
     style="fill:currentColor;fill-opacity:0.6;fill-rule:evenodd;stroke-width:0.819782"
     class="ColorScheme-Text"
     d="M 7.2760417,5.953125 A 0.396875,0.396875 0 0 0 6.8791667,6.35 0.396875,0.396875 0 0 0 7.2760417,6.746875 0.396875,0.396875 0 0 0 7.6729167,6.35 0.396875,0.396875 0 0 0 7.2760417,5.953125 Z m -0.79375,0.6614584 A 0.13229166,0.13229166 0 0 0 6.35,6.746875 0.13229166,0.13229166 0 0 0 6.4822917,6.8791667 0.13229166,0.13229166 0 0 0 6.6145833,6.746875 0.13229166,0.13229166 0 0 0 6.4822917,6.6145834 Z M 5.953125,6.8791667 A 0.13229166,0.13229166 0 0 0 5.8208334,7.0114583 0.13229166,0.13229166 0 0 0 5.953125,7.14375 0.13229166,0.13229166 0 0 0 6.0854167,7.0114583 0.13229166,0.13229166 0 0 0 5.953125,6.8791667 Z M 5.159375,7.14375 A 0.396875,0.396875 0 0 0 4.7625,7.540625 0.396875,0.396875 0 0 0 5.159375,7.9375 0.396875,0.396875 0 0 0 5.55625,7.540625 0.396875,0.396875 0 0 0 5.159375,7.14375 Z M 5.953125,7.9375 A 0.13229166,0.13229166 0 0 0 5.8208334,8.0697917 0.13229166,0.13229166 0 0 0 5.953125,8.2020833 0.13229166,0.13229166 0 0 0 6.0854167,8.0697917 0.13229166,0.13229166 0 0 0 5.953125,7.9375 Z M 6.4822917,8.2020833 A 0.13229166,0.13229166 0 0 0 6.35,8.334375 0.13229166,0.13229166 0 0 0 6.4822917,8.4666667 0.13229166,0.13229166 0 0 0 6.6145833,8.334375 0.13229166,0.13229166 0 0 0 6.4822917,8.2020833 Z m 0.79375,0.1322917 a 0.396875,0.396875 0 0 0 -0.396875,0.3968752 0.396875,0.396875 0 0 0 0.396875,0.396875 0.396875,0.396875 0 0 0 0.396875,-0.396875 0.396875,0.396875 0 0 0 -0.396875,-0.3968752 z" />
</svg>
