<?xml version="1.0" encoding="UTF-8" standalone="no"?>
<!-- Created with Inkscape (http://www.inkscape.org/) -->

<svg
   width="48"
   height="48"
   viewBox="0 0 12.7 12.7"
   version="1.1"
   id="svg5"
   inkscape:version="1.1.1 (3bf5ae0d25, 2021-09-20, custom)"
   sodipodi:docname="folder-image-people.svg"
   xmlns:inkscape="http://www.inkscape.org/namespaces/inkscape"
   xmlns:sodipodi="http://sodipodi.sourceforge.net/DTD/sodipodi-0.dtd"
   xmlns:xlink="http://www.w3.org/1999/xlink"
   xmlns="http://www.w3.org/2000/svg"
   xmlns:svg="http://www.w3.org/2000/svg">
  <sodipodi:namedview
     id="namedview7"
     pagecolor="#ffffff"
     bordercolor="#666666"
     borderopacity="1.0"
     inkscape:pageshadow="2"
     inkscape:pageopacity="0.0"
     inkscape:pagecheckerboard="false"
     inkscape:document-units="px"
     showgrid="false"
     units="px"
     height="48px"
     borderlayer="false"
     inkscape:zoom="8.3854167"
     inkscape:cx="19.2"
     inkscape:cy="38.698137"
     inkscape:window-width="1920"
     inkscape:window-height="1019"
     inkscape:window-x="0"
     inkscape:window-y="31"
     inkscape:window-maximized="1"
     inkscape:current-layer="svg5" />
  <defs
     id="defs2">
    <linearGradient
       inkscape:collect="always"
       id="linearGradient6505">
      <stop
         style="stop-color:#147eb8;stop-opacity:1"
         offset="0"
         id="stop6501" />
      <stop
         style="stop-color:#22a3e6;stop-opacity:1"
         offset="1"
         id="stop6503" />
    </linearGradient>
    <linearGradient
       inkscape:collect="always"
       id="linearGradient6033">
      <stop
         style="stop-color:#3daee9;stop-opacity:1"
         offset="0"
         id="stop6029" />
      <stop
         style="stop-color:#6cc1ef;stop-opacity:1"
         offset="1"
         id="stop6031" />
    </linearGradient>
    <linearGradient
       inkscape:collect="always"
       xlink:href="#linearGradient6033"
       id="linearGradient6035"
       x1="8.7787342"
       y1="11.09021"
       x2="8.772356"
       y2="3.172493"
       gradientUnits="userSpaceOnUse" />
    <linearGradient
       inkscape:collect="always"
       xlink:href="#linearGradient6505"
       id="linearGradient6507"
       x1="3.2957382"
       y1="5.0912447"
       x2="3.2804484"
       y2="1.5721661"
       gradientUnits="userSpaceOnUse" />
  </defs>
  <path
     id="rect846-3"
     style="fill:url(#linearGradient6507);fill-opacity:1;stroke-width:0.295665"
     d="M 1.0583333,1.5875 H 5.2916666 L 6.35,2.9104166 l 5.291666,10e-8 V 5.5562499 H 1.0583333 Z"
     sodipodi:nodetypes="ccccccc" />
  <path
     id="rect846"
     style="fill:url(#linearGradient6035);fill-opacity:1;stroke-width:0.480068"
     d="M 1.0583338,4.4979162 H 5.2916669 L 6.3500004,3.175 h 5.2916656 v 7.9375 H 1.0583333 Z"
     sodipodi:nodetypes="ccccccc" />
  <path
     id="rect870"
     style="fill:#ffffff;fill-opacity:0.235294;stroke-width:0.118237"
     d="M 5.2916666,1.5875 6.35,2.9104166 l 5.291666,10e-8 V 3.175 H 6.3500002 Z"
     sodipodi:nodetypes="cccccc" />
  <path
     id="rect2728"
     style="fill:#ffffff;fill-opacity:0.235294;stroke-width:0.264583"
     d="m 1.0583333,4.4979167 4.2333336,-5e-7 L 6.3500004,3.175 5.5562502,4.7624995 1.0583333,4.7625 Z"
     sodipodi:nodetypes="cccccc" />
  <path
     id="rect3586"
     style="fill:#000000;fill-opacity:0.235294;stroke-width:0.264583"
     d="m 1.0583333,4.2333335 3.9687505,-4e-7 L 6.3500004,3.175 5.2916669,4.4979162 l -4.2333336,5e-7 z"
     sodipodi:nodetypes="cccccc" />
  <rect
     style="fill:#000000;fill-opacity:0.235294;stroke-width:0.147561"
     id="rect5839"
     width="10.583333"
     height="0.26458332"
     x="1.0583329"
     y="10.847917" />
  <path
     id="path870"
     style="fill:#1272a5;stroke-width:0.274225"
     d="m 6.3499999,5.8208333 a 0.79374999,0.79374999 0 0 0 -0.79375,0.7937499 0.79374999,0.79374999 0 0 0 0.79375,0.79375 0.79374999,0.79374999 0 0 0 0.79375,-0.79375 0.79374999,0.79374999 0 0 0 -0.79375,-0.7937499 z m 0,0.2645833 A 0.52916666,0.52916666 0 0 1 6.8791666,6.6145832 0.52916666,0.52916666 0 0 1 6.3499999,7.1437499 0.52916666,0.52916666 0 0 1 5.8208333,6.6145832 0.52916666,0.52916666 0 0 1 6.3499999,6.0854166 Z m 0,1.5875 c -0.7306267,0 -1.3229166,0.533061 -1.3229166,1.190625 7.143e-4,0.044236 0.00416,0.088401 0.010335,0.1322916 h 2.625163 c 0.00617,-0.04389 0.00962,-0.088056 0.010336,-0.1322916 0,-0.657564 -0.5922899,-1.190625 -1.3229174,-1.190625 z m 0,0.2645833 c 0.526098,-1.3e-6 0.9723244,0.3381356 1.0474812,0.79375 H 5.3025187 c 0.075157,-0.4556144 0.5213832,-0.7937513 1.0474812,-0.79375 z" />
</svg>
