<?xml version="1.0" encoding="UTF-8" standalone="no"?>
<!-- Created with Inkscape (http://www.inkscape.org/) -->

<svg
   width="48"
   height="48"
   viewBox="0 0 12.7 12.7"
   version="1.1"
   id="svg5"
   inkscape:version="1.1.1 (3bf5ae0d25, 2021-09-20, custom)"
   sodipodi:docname="folder.svg"
   xmlns:inkscape="http://www.inkscape.org/namespaces/inkscape"
   xmlns:sodipodi="http://sodipodi.sourceforge.net/DTD/sodipodi-0.dtd"
   xmlns:xlink="http://www.w3.org/1999/xlink"
   xmlns="http://www.w3.org/2000/svg"
   xmlns:svg="http://www.w3.org/2000/svg">
  <sodipodi:namedview
     id="namedview7"
     pagecolor="#ffffff"
     bordercolor="#666666"
     borderopacity="1.0"
     inkscape:pageshadow="2"
     inkscape:pageopacity="0.0"
     inkscape:pagecheckerboard="false"
     inkscape:document-units="px"
     showgrid="false"
     units="px"
     height="48px"
     borderlayer="false"
     inkscape:zoom="8.3541665"
     inkscape:cx="11.610973"
     inkscape:cy="32.558604"
     inkscape:window-width="1920"
     inkscape:window-height="1007"
     inkscape:window-x="0"
     inkscape:window-y="0"
     inkscape:window-maximized="1"
     inkscape:current-layer="svg5" />
  <defs id="defs2">
    <style type="text/css" id="current-color-scheme">
      .ColorScheme-Text {
        color:#31363b;
      }
      .ColorScheme-Highlight {
        color:#3daee9;
      }
      </style>
  </defs>
    <linearGradient
       inkscape:collect="always"
       id="linearGradient1263">
      <stop
         style="stop-color:currentColor;stop-opacity:1;"
         class="ColorScheme-Text"
         offset="0"
         id="stop1259" />
      <stop
         style="stop-color:currentColor;stop-opacity:0;"
         class="ColorScheme-Text"
         offset="1"
         id="stop1261" />
    </linearGradient>
    <linearGradient
       inkscape:collect="always"
       id="linearGradient2143">
      <stop
         style="stop-color:#ffffff;stop-opacity:1;"
         offset="0"
         id="stop2139" />
      <stop
         style="stop-color:#ffffff;stop-opacity:0;"
         offset="1"
         id="stop2141" />
    </linearGradient>
    <linearGradient
       inkscape:collect="always"
       xlink:href="#linearGradient2143"
       id="linearGradient2145"
       x1="12.7"
       y1="3.175"
       x2="12.7"
       y2="10.054167"
       gradientUnits="userSpaceOnUse" />
    <linearGradient
       inkscape:collect="always"
       xlink:href="#linearGradient1263"
       id="linearGradient1265"
       x1="5.2916665"
       y1="-0.5291667"
       x2="5.2916665"
       y2="4.4979167"
       gradientUnits="userSpaceOnUse" />
  <path
     id="rect846-3"
     style="fill:currentColor;fill-opacity:1;stroke-width:0.295665"
     class="ColorScheme-Highlight"
     d="M 1.0583333,1.5875 H 5.2916666 L 6.35,2.9104166 l 5.291666,10e-8 0,8.2020833 H 1.0583337 Z"
     sodipodi:nodetypes="ccccccc" />
  <path
     id="rect3366"
     style="opacity:0.5;fill:url(#linearGradient1265);fill-opacity:1;stroke-width:0.264583"
     d="m 1.0583333,1.5875 h 4.233333 l 1.058334,1.3229166 5.2916657,10e-8 10e-7,0.2645833 H 6.3500003 l -1.0583337,1.3229166 -4.2333333,1e-7 z"
     sodipodi:nodetypes="ccccccccc" />
  <path
     id="rect1847"
     style="fill:url(#linearGradient2145);fill-opacity:1;stroke-width:0.264583;opacity:0.3"
     d="m 1.0583333,4.4979167 4.2333336,-6e-7 1.058333,-1.3229161 5.2916661,0 v 7.9375 H 1.0583333 Z"
     sodipodi:nodetypes="ccccccc" />
  <path
     id="rect1287"
     style="fill:currentColor;fill-opacity:0.2;stroke-width:0.264583"
     class="ColorScheme-Text"
     d="m 1.0583329,1.5875 h 4.233334 l 1.058333,1.3229166 5.2916661,10e-8 V 3.175 H 6.3500009 l -1.058334,1.3229161 h -4.233334 z"
     sodipodi:nodetypes="ccccccccc" />
  <rect
     style="fill:#000000;fill-opacity:0.235294;stroke-width:0.147561"
     id="rect5839"
     width="10.583333"
     height="0.26458332"
     x="1.0583329"
     y="10.847917" />
  <path
     id="rect3586"
     style="fill:currentColor;fill-opacity:0.2;stroke-width:0.264583"
     class="ColorScheme-Text"
     d="m 1.0583333,4.2333335 3.9687505,-4e-7 L 6.3500004,3.175 5.2916669,4.4979162 l -4.2333336,5e-7 z"
     sodipodi:nodetypes="cccccc" />
  <path
     id="rect870"
     style="fill:#ffffff;fill-opacity:0.2;stroke-width:0.44688"
     d="M 20 6 L 24 12 L 44 12 L 44 11 L 24 11 L 20 6 z M 24 12 L 20 17 L 4 17 L 4 18 L 21 18 L 24 12 z "
     transform="scale(0.26458333)" />
  <path
     id="rect174"
     style="fill:currentColor;fill-opacity:0.5;fill-rule:evenodd;stroke-width:0.819782"
     class="ColorScheme-Text"
     d="m 4.7625,5.8208333 v 3.175 h 3.1749998 v -3.175 z M 5.0270834,6.0854166 H 6.0854167 V 6.3499999 H 6.35 V 6.0854166 H 7.6729168 V 8.7312503 H 5.0270834 Z M 6.35,6.3499999 V 6.6145832 H 6.6145833 V 6.3499999 Z m 0,0.2645833 H 6.0854167 V 6.8791666 H 6.35 Z m 0,0.2645834 V 7.1437499 H 6.6145833 V 6.8791666 Z m 0,0.2645833 H 6.0854167 V 7.4083332 H 6.35 Z m 0,0.2645833 V 7.6729166 H 6.0854167 V 7.9374999 H 6.6145833 V 7.4083332 Z" />
</svg>
