<?xml version="1.0" encoding="UTF-8" standalone="no"?>
<svg
   id="svg2471"
   version="1.1"
   viewBox="0 0 12.7 12.7"
   height="48"
   width="48"
   sodipodi:docname="distributor-logo-lubuntu.svg"
   inkscape:version="1.1 (c4e8f9ed74, 2021-05-24)"
   xmlns:inkscape="http://www.inkscape.org/namespaces/inkscape"
   xmlns:sodipodi="http://sodipodi.sourceforge.net/DTD/sodipodi-0.dtd"
   xmlns:xlink="http://www.w3.org/1999/xlink"
   xmlns="http://www.w3.org/2000/svg"
   xmlns:svg="http://www.w3.org/2000/svg"
   xmlns:rdf="http://www.w3.org/1999/02/22-rdf-syntax-ns#"
   xmlns:cc="http://creativecommons.org/ns#"
   xmlns:dc="http://purl.org/dc/elements/1.1/">
  <defs
     id="defs2465">
    <linearGradient
       inkscape:collect="always"
       id="linearGradient3834">
      <stop
         style="stop-color:#000000;stop-opacity:1;"
         offset="0"
         id="stop3830" />
      <stop
         style="stop-color:#000000;stop-opacity:0;"
         offset="1"
         id="stop3832" />
    </linearGradient>
    <linearGradient
       inkscape:collect="always"
       id="linearGradient3089">
      <stop
         style="stop-color:#7ebdf9;stop-opacity:1"
         offset="0"
         id="stop3085" />
      <stop
         style="stop-color:#ffffff;stop-opacity:1"
         offset="1"
         id="stop3087" />
    </linearGradient>
    <linearGradient
       inkscape:collect="always"
       id="linearGradient3065">
      <stop
         style="stop-color:#0069c9;stop-opacity:1"
         offset="0"
         id="stop3061" />
      <stop
         style="stop-color:#3da2ff;stop-opacity:1"
         offset="1"
         id="stop3063" />
    </linearGradient>
    <linearGradient
       inkscape:collect="always"
       xlink:href="#linearGradient3065"
       id="linearGradient3067"
       x1="10.835676"
       y1="11.878944"
       x2="7.7397685"
       y2="1.1072953"
       gradientUnits="userSpaceOnUse" />
    <linearGradient
       inkscape:collect="always"
       xlink:href="#linearGradient3089"
       id="linearGradient3677"
       x1="9.7976332"
       y1="12.273527"
       x2="9.8549099"
       y2="4.7953062"
       gradientUnits="userSpaceOnUse"
       gradientTransform="translate(-4.5805991,-1.2764143)" />
    <linearGradient
       inkscape:collect="always"
       xlink:href="#linearGradient3834"
       id="linearGradient3836"
       x1="6.4313345"
       y1="2.1896341"
       x2="33.991955"
       y2="34.318954"
       gradientUnits="userSpaceOnUse" />
  </defs>
  <sodipodi:namedview
     id="base"
     pagecolor="#ffffff"
     bordercolor="#666666"
     borderopacity="1.0"
     inkscape:pageopacity="0.0"
     inkscape:pageshadow="2"
     inkscape:zoom="12.418563"
     inkscape:cx="19.205121"
     inkscape:cy="17.514104"
     inkscape:document-units="px"
     inkscape:current-layer="layer1"
     inkscape:document-rotation="0"
     showgrid="false"
     units="px"
     inkscape:window-width="1920"
     inkscape:window-height="1004"
     inkscape:window-x="0"
     inkscape:window-y="0"
     inkscape:window-maximized="1"
     inkscape:pagecheckerboard="0" />
  <metadata
     id="metadata2468">
    <rdf:RDF>
      <cc:Work
         rdf:about="">
        <dc:format>image/svg+xml</dc:format>
        <dc:type
           rdf:resource="http://purl.org/dc/dcmitype/StillImage" />
      </cc:Work>
    </rdf:RDF>
  </metadata>
  <g
     inkscape:label="레이어 1"
     inkscape:groupmode="layer"
     id="layer1">
    <path
       id="path3034"
       style="opacity:1;fill:url(#linearGradient3067);fill-opacity:1;stroke-width:0.41225"
       d="M 11.641666,6.3499999 A 5.2916665,5.2916665 0 0 1 6.3499999,11.641666 5.2916665,5.2916665 0 0 1 1.0583334,6.3499999 5.2916665,5.2916665 0 0 1 6.3499999,1.0583334 5.2916665,5.2916665 0 0 1 11.641666,6.3499999 Z" />
    <path
       id="path3720"
       style="opacity:0.3;fill:url(#linearGradient3836);fill-opacity:1;stroke-width:1.06938"
       d="m 28.501953,10.626953 c -0.556686,-0.01988 -3.611169,0.880418 -4.505859,2.013672 -2.698923,0.195591 -13.591593,7.623534 -19.980469,12.132813 9.94e-5,0.0026 -1.004e-4,0.0052 0,0.0078 0.018302,0.473087 0.053671,0.945401 0.1054688,1.416016 l 4.4785156,4.478515 c -0.093274,0.136251 -0.1777956,0.2588 -0.2714844,0.396485 -0.603061,0.886261 -1.2102412,1.793425 -1.7929688,2.673828 0.00229,0.0041 0.00552,0.0076 0.00781,0.01172 0.1826411,0.326753 0.3735486,0.648835 0.5742187,0.964844 0.00329,0.0052 0.00647,0.01044 0.00977,0.01563 l 0.00195,0.002 1.9335938,1.933594 c -0.079378,0.129804 -0.1456248,0.239809 -0.2246094,0.369141 0.00391,0.0046 0.0078,0.0091 0.011719,0.01367 0.3205317,0.371867 0.6549441,0.730987 1.0019531,1.078125 0.00195,0.002 0.00391,0.0039 0.00586,0.0059 l 0.1347656,0.134766 a 19.999999,19.999999 0 0 0 0.072266,0.07031 A 19.999999,19.999999 0 0 0 24,44 19.999999,19.999999 0 0 0 43.896484,26.021484 Z"
       transform="scale(0.26458333)" />
    <path
       id="path3081-0"
       style="opacity:1;fill:url(#linearGradient3677);fill-opacity:1;stroke-width:0.28294"
       d="M 7.5411419,2.8117119 C 7.3938489,2.8064519 6.5856889,3.0446556 6.3489659,3.344496 5.6348769,3.396247 2.7528596,5.3615618 1.0624671,6.5546361 1.0672871,6.6805019 1.0765901,6.8061556 1.0903721,6.9313572 1.8605813,6.6343714 2.7583436,6.3219326 3.1212559,6.3246758 3.1925879,6.325205 3.243663,6.3370318 3.2685338,6.3644668 3.4076782,6.528472 2.8150668,7.3224111 2.2034824,8.221201 2.0439203,8.4556874 1.883271,8.695715 1.7290928,8.9286517 c 0.049654,0.08899 0.1018694,0.176536 0.1565796,0.262516 0.8405418,-1.0525233 1.897798,-2.3699525 2.1905639,-2.4143232 0.015875,-0.00241 0.029713,-9.23e-5 0.040825,0.00517 0.051991,0.063552 -0.9148154,1.6043841 -1.7787034,3.0189352 0.097167,0.112943 0.1990601,0.2217333 0.3054077,0.3260783 C 3.0637413,9.5495907 3.5194157,8.9149027 3.9604811,8.3059499 4.8790346,7.0376822 5.6921976,5.8533278 6.0885166,5.8415009 c 0.01289,-3.704e-4 0.02426,-2.3e-5 0.03617,0.00206 1.220488,0.00725 2.412822,3.0683808 3.040641,4.9872921 0.08961,-0.0566 0.1775,-0.115883 0.26355,-0.177763 C 9.1278309,8.5075341 8.4206469,4.9690022 6.9478959,3.9847633 7.1056179,3.879552 7.1194619,3.3393247 7.1194619,3.3393247 Z"
       sodipodi:nodetypes="ccccccccccccccccccccc" />
    <path
       id="path3034-8"
       style="opacity:1;fill:#1e5aa4;fill-opacity:1;stroke-width:1.55811"
       d="M 43.994141,23.488281 A 19.999999,19.999999 0 0 1 24,43 19.999999,19.999999 0 0 1 4.0058594,23.511719 19.999999,19.999999 0 0 0 4,24 19.999999,19.999999 0 0 0 24,44 19.999999,19.999999 0 0 0 44,24 19.999999,19.999999 0 0 0 43.9941,23.488281 Z"
       transform="scale(0.26458333)" />
  </g>
</svg>
