<?xml version="1.0" encoding="UTF-8" standalone="no"?>
<svg
   xmlns:dc="http://purl.org/dc/elements/1.1/"
   xmlns:cc="http://creativecommons.org/ns#"
   xmlns:rdf="http://www.w3.org/1999/02/22-rdf-syntax-ns#"
   xmlns:svg="http://www.w3.org/2000/svg"
   xmlns="http://www.w3.org/2000/svg"
   xmlns:xlink="http://www.w3.org/1999/xlink"
   xmlns:sodipodi="http://sodipodi.sourceforge.net/DTD/sodipodi-0.dtd"
   xmlns:inkscape="http://www.inkscape.org/namespaces/inkscape"
   id="svg11300"
   width="48"
   height="48"
   style="enable-background:new"
   version="1.0"
   viewBox="0 0 48 48"
   sodipodi:docname="goa-account-owncloud.svg"
   inkscape:version="0.92.3 (2405546, 2018-03-11)">
  <defs
     id="defs13">
    <linearGradient
       inkscape:collect="always"
       id="linearGradient883">
      <stop
         style="stop-color:#ffffff;stop-opacity:1;"
         offset="0"
         id="stop879" />
      <stop
         style="stop-color:#ffffff;stop-opacity:0;"
         offset="1"
         id="stop881" />
    </linearGradient>
    <linearGradient
       inkscape:collect="always"
       id="linearGradient872">
      <stop
         style="stop-color:#000000;stop-opacity:1;"
         offset="0"
         id="stop868" />
      <stop
         style="stop-color:#000000;stop-opacity:0;"
         offset="1"
         id="stop870" />
    </linearGradient>
    <linearGradient
       inkscape:collect="always"
       id="linearGradient841">
      <stop
         style="stop-color:#0072b0;stop-opacity:1;"
         offset="0"
         id="stop837" />
      <stop
         style="stop-color:#00a0f8;stop-opacity:1"
         offset="1"
         id="stop839" />
    </linearGradient>
    <linearGradient
       inkscape:collect="always"
       xlink:href="#linearGradient841"
       id="linearGradient843"
       x1="34.276241"
       y1="43.447514"
       x2="24.883978"
       y2="2.4530387"
       gradientUnits="userSpaceOnUse" />
    <linearGradient
       inkscape:collect="always"
       xlink:href="#linearGradient872"
       id="linearGradient874"
       x1="22.309952"
       y1="21.245668"
       x2="35.316959"
       y2="34.252674"
       gradientUnits="userSpaceOnUse" />
    <linearGradient
       inkscape:collect="always"
       xlink:href="#linearGradient883"
       id="linearGradient885"
       x1="21.179348"
       y1="14.964674"
       x2="27.092392"
       y2="37.451088"
       gradientUnits="userSpaceOnUse" />
  </defs>
  <sodipodi:namedview
     pagecolor="#ffffff"
     bordercolor="#666666"
     borderopacity="1"
     objecttolerance="10"
     gridtolerance="10"
     guidetolerance="10"
     inkscape:pageopacity="0"
     inkscape:pageshadow="2"
     inkscape:window-width="1920"
     inkscape:window-height="1026"
     id="namedview11"
     showgrid="false"
     inkscape:zoom="14.72"
     inkscape:cx="26.143663"
     inkscape:cy="23.949255"
     inkscape:window-x="0"
     inkscape:window-y="30"
     inkscape:window-maximized="1"
     inkscape:current-layer="svg11300">
    <inkscape:grid
       type="xygrid"
       id="grid845" />
  </sodipodi:namedview>
  <title
     id="title4162">Adwaita Icon Template</title>
  <metadata
     id="metadata4">
    <rdf:RDF>
      <cc:Work
         rdf:about="">
        <dc:format>image/svg+xml</dc:format>
        <dc:type
           rdf:resource="http://purl.org/dc/dcmitype/StillImage" />
        <dc:creator>
          <cc:Agent>
            <dc:title>GNOME Design Team</dc:title>
          </cc:Agent>
        </dc:creator>
        <dc:source />
        <cc:license
           rdf:resource="http://creativecommons.org/licenses/by-sa/4.0/" />
        <dc:title>Adwaita Icon Template</dc:title>
        <dc:subject>
          <rdf:Bag />
        </dc:subject>
        <dc:date />
        <dc:rights>
          <cc:Agent>
            <dc:title />
          </cc:Agent>
        </dc:rights>
        <dc:publisher>
          <cc:Agent>
            <dc:title />
          </cc:Agent>
        </dc:publisher>
        <dc:identifier />
        <dc:relation />
        <dc:language />
        <dc:coverage />
        <dc:description />
        <dc:contributor>
          <cc:Agent>
            <dc:title />
          </cc:Agent>
        </dc:contributor>
      </cc:Work>
      <cc:License
         rdf:about="http://creativecommons.org/licenses/by-sa/4.0/">
        <cc:permits
           rdf:resource="http://creativecommons.org/ns#Reproduction" />
        <cc:permits
           rdf:resource="http://creativecommons.org/ns#Distribution" />
        <cc:requires
           rdf:resource="http://creativecommons.org/ns#Notice" />
        <cc:requires
           rdf:resource="http://creativecommons.org/ns#Attribution" />
        <cc:permits
           rdf:resource="http://creativecommons.org/ns#DerivativeWorks" />
        <cc:requires
           rdf:resource="http://creativecommons.org/ns#ShareAlike" />
      </cc:License>
    </rdf:RDF>
  </metadata>
  <circle
     style="opacity:1;fill:url(#linearGradient843);fill-opacity:1;stroke:none;stroke-width:1.07415557;stroke-linecap:round;stroke-linejoin:round;stroke-miterlimit:4;stroke-dasharray:none;stroke-dashoffset:0;stroke-opacity:1;paint-order:normal"
     id="path835"
     cx="24"
     cy="24"
     r="20" />
  <path
     style="opacity:0.2;fill:url(#linearGradient874);fill-opacity:1;stroke:none;stroke-width:1;stroke-linecap:round;stroke-linejoin:round;stroke-miterlimit:4;stroke-dasharray:none;stroke-dashoffset:0;stroke-opacity:1;paint-order:normal"
     d="M 38.398438 20.333984 L 38.398438 20.337891 A 5 5 0 0 1 38.435547 20.371094 L 38.398438 20.333984 z M 38.5625 20.498047 A 5 5 0 0 1 38.890625 20.867188 A 5 5 0 0 1 38.894531 20.871094 A 5 5 0 0 1 38.908203 20.890625 A 5 5 0 0 1 39.173828 21.253906 A 5 5 0 0 1 39.230469 21.345703 A 5 5 0 0 1 39.433594 21.699219 A 5 5 0 0 1 39.439453 21.707031 A 5 5 0 0 1 39.455078 21.742188 A 5 5 0 0 1 39.634766 22.130859 A 5 5 0 0 1 39.683594 22.265625 A 5 5 0 0 1 39.798828 22.605469 A 5 5 0 0 1 39.833984 22.746094 A 5 5 0 0 1 39.910156 23.076172 A 5 5 0 0 1 39.943359 23.287109 A 5 5 0 0 1 39.978516 23.566406 A 5 5 0 0 1 40 24 A 5 5 0 0 1 39.978516 24.441406 A 5 5 0 0 1 39.953125 24.650391 A 5 5 0 0 1 39.910156 24.925781 A 5 5 0 0 1 39.857422 25.162109 A 5 5 0 0 1 39.796875 25.404297 A 5 5 0 0 1 39.712891 25.654297 A 5 5 0 0 1 39.632812 25.875 A 5 5 0 0 1 39.513672 26.136719 A 5 5 0 0 1 39.427734 26.314453 A 5 5 0 0 1 39.283203 26.568359 A 5 5 0 0 1 39.167969 26.755859 A 5 5 0 0 1 39.009766 26.976562 A 5 5 0 0 1 38.873047 27.15625 A 5 5 0 0 1 38.699219 27.355469 A 5 5 0 0 1 38.533203 27.533203 A 5 5 0 0 1 38.355469 27.699219 A 5 5 0 0 1 38.15625 27.873047 A 5 5 0 0 1 37.976562 28.009766 A 5 5 0 0 1 37.755859 28.167969 A 5 5 0 0 1 37.568359 28.283203 A 5 5 0 0 1 37.314453 28.427734 A 5 5 0 0 1 37.136719 28.513672 A 5 5 0 0 1 36.875 28.632812 A 5 5 0 0 1 36.654297 28.712891 A 5 5 0 0 1 36.404297 28.796875 A 5 5 0 0 1 36.162109 28.857422 A 5 5 0 0 1 35.925781 28.910156 A 5 5 0 0 1 35.650391 28.953125 A 5 5 0 0 1 35.441406 28.978516 A 5 5 0 0 1 35 29 A 5 5 0 0 1 34.554688 28.976562 A 5 5 0 0 1 34.226562 28.933594 A 5 5 0 0 1 34.070312 28.910156 A 5 5 0 0 1 33.802734 28.847656 A 5 5 0 0 1 33.550781 28.783203 A 5 5 0 0 1 33.384766 28.724609 A 5 5 0 0 1 33.089844 28.617188 A 5 5 0 0 1 32.884766 28.523438 A 5 5 0 0 1 32.644531 28.40625 A 5 5 0 0 1 32.419922 28.273438 A 5 5 0 0 1 32.21875 28.150391 A 5 5 0 0 1 32.019531 28.005859 A 5 5 0 0 1 31.814453 27.849609 A 5 5 0 0 1 31.613281 27.667969 A 5 5 0 0 1 31.453125 27.517578 A 5 5 0 0 1 31.242188 27.287109 A 5 5 0 0 1 31.125 27.150391 A 5 5 0 0 1 30.958984 26.929688 A 5 5 0 0 1 30.816406 26.728516 A 5 5 0 0 1 30.587891 26.345703 A 7 7 0 0 1 30.414062 26.763672 A 7 7 0 0 1 30.275391 27.076172 A 7 7 0 0 1 30.111328 27.382812 A 7 7 0 0 1 29.933594 27.693359 A 7 7 0 0 1 29.734375 27.988281 A 7 7 0 0 1 29.542969 28.257812 A 7 7 0 0 1 29.310547 28.539062 A 7 7 0 0 1 29.082031 28.800781 A 7 7 0 0 1 28.841797 29.037109 A 7 7 0 0 1 28.580078 29.283203 A 7 7 0 0 1 28.302734 29.505859 A 7 7 0 0 1 28.03125 29.712891 A 7 7 0 0 1 27.736328 29.904297 A 7 7 0 0 1 27.435547 30.089844 A 7 7 0 0 1 27.125 30.25 A 7 7 0 0 1 26.820312 30.398438 A 7 7 0 0 1 26.474609 30.537109 A 7 7 0 0 1 26.162109 30.650391 A 7 7 0 0 1 25.796875 30.755859 A 7 7 0 0 1 25.5 30.832031 A 7 7 0 0 1 25.111328 30.902344 A 7 7 0 0 1 24.808594 30.947266 A 7 7 0 0 1 24.40625 30.980469 A 7 7 0 0 1 24 31 A 7 7 0 0 1 23.583984 30.978516 A 7 7 0 0 1 23.193359 30.949219 A 7 7 0 0 1 22.876953 30.900391 A 7 7 0 0 1 22.503906 30.832031 A 7 7 0 0 1 22.199219 30.753906 A 7 7 0 0 1 21.832031 30.648438 A 7 7 0 0 1 21.498047 30.525391 A 7 7 0 0 1 21.195312 30.404297 A 7 7 0 0 1 20.863281 30.244141 A 7 7 0 0 1 20.558594 30.085938 A 7 7 0 0 1 20.248047 29.894531 A 7 7 0 0 1 19.980469 29.71875 A 7 7 0 0 1 19.677734 29.488281 A 7 7 0 0 1 19.417969 29.277344 A 7 7 0 0 1 19.179688 29.056641 A 7 7 0 0 1 18.908203 28.787109 A 7 7 0 0 1 18.6875 28.537109 A 7 7 0 0 1 18.466797 28.269531 A 7 7 0 0 1 18.265625 27.986328 A 7 7 0 0 1 18.052734 27.671875 A 7 7 0 0 1 17.919922 27.439453 A 7 7 0 0 1 17.714844 27.052734 A 7 7 0 0 1 17.607422 26.8125 A 7 7 0 0 1 17.412109 26.341797 A 5 5 0 0 1 17.177734 26.736328 A 5 5 0 0 1 17.027344 26.943359 A 5 5 0 0 1 16.886719 27.134766 A 5 5 0 0 1 16.734375 27.310547 A 5 5 0 0 1 16.548828 27.515625 A 5 5 0 0 1 16.380859 27.671875 A 5 5 0 0 1 16.185547 27.847656 A 5 5 0 0 1 15.96875 28.011719 A 5 5 0 0 1 15.791016 28.142578 A 5 5 0 0 1 15.53125 28.302734 A 5 5 0 0 1 15.365234 28.400391 A 5 5 0 0 1 15.126953 28.515625 A 5 5 0 0 1 14.898438 28.621094 A 5 5 0 0 1 14.685547 28.699219 A 5 5 0 0 1 14.435547 28.785156 A 5 5 0 0 1 14.173828 28.853516 A 5 5 0 0 1 13.955078 28.904297 A 5 5 0 0 1 13.707031 28.943359 A 5 5 0 0 1 13.449219 28.976562 A 5 5 0 0 1 13 29 A 5 5 0 0 1 12.558594 28.978516 A 5 5 0 0 1 12.371094 28.955078 A 5 5 0 0 1 12.046875 28.904297 A 5 5 0 0 1 11.929688 28.878906 A 5 5 0 0 1 11.541016 28.777344 A 5 5 0 0 1 11.482422 28.757812 A 5 5 0 0 1 11.078125 28.611328 A 5 5 0 0 1 10.994141 28.572266 A 5 5 0 0 1 10.621094 28.390625 A 5 5 0 0 1 10.568359 28.361328 A 5 5 0 0 1 10.185547 28.125 A 5 5 0 0 1 10.160156 28.107422 A 5 5 0 0 1 9.78125 27.818359 A 5 5 0 0 1 9.65625 27.708984 L 25.845703 43.896484 A 20 20 0 0 0 43.908203 25.84375 L 38.5625 20.498047 z "
     id="rect860" />
  <path
     style="opacity:1;fill:url(#linearGradient885);fill-opacity:1;stroke:none;stroke-width:1.03774905;stroke-linecap:round;stroke-linejoin:round;stroke-miterlimit:4;stroke-dasharray:none;stroke-dashoffset:0;stroke-opacity:1;paint-order:normal"
     d="M 24 17 A 7 7 0 0 0 17.412109 21.654297 A 5 5 0 0 0 13 19 A 5 5 0 0 0 8 24 A 5 5 0 0 0 13 29 A 5 5 0 0 0 17.412109 26.341797 A 7 7 0 0 0 24 31 A 7 7 0 0 0 30.587891 26.345703 A 5 5 0 0 0 35 29 A 5 5 0 0 0 40 24 A 5 5 0 0 0 35 19 A 5 5 0 0 0 30.587891 21.658203 A 7 7 0 0 0 24 17 z M 24 20 A 4 4 0 0 1 28 24 A 4 4 0 0 1 24 28 A 4 4 0 0 1 20 24 A 4 4 0 0 1 24 20 z M 13 22 A 2 2 0 0 1 15 24 A 2 2 0 0 1 13 26 A 2 2 0 0 1 11 24 A 2 2 0 0 1 13 22 z M 35 22 A 2 2 0 0 1 37 24 A 2 2 0 0 1 35 26 A 2 2 0 0 1 33 24 A 2 2 0 0 1 35 22 z "
     id="path847" />
  <path
     style="opacity:0.2;fill:#000000;fill-opacity:1;stroke:none;stroke-width:1.07415557;stroke-linecap:round;stroke-linejoin:round;stroke-miterlimit:4;stroke-dasharray:none;stroke-dashoffset:0;stroke-opacity:1;paint-order:normal"
     d="M 43.978516 23.417969 A 20 20 0 0 1 24 43 A 20 20 0 0 1 4.0214844 23.582031 A 20 20 0 0 0 4 24 A 20 20 0 0 0 24 44 A 20 20 0 0 0 44 24 A 20 20 0 0 0 43.978516 23.417969 z "
     id="circle831" />
</svg>
