<?xml version="1.0" encoding="UTF-8" standalone="no"?>
<svg
   xmlns:dc="http://purl.org/dc/elements/1.1/"
   xmlns:cc="http://creativecommons.org/ns#"
   xmlns:rdf="http://www.w3.org/1999/02/22-rdf-syntax-ns#"
   xmlns:svg="http://www.w3.org/2000/svg"
   xmlns="http://www.w3.org/2000/svg"
   xmlns:xlink="http://www.w3.org/1999/xlink"
   xmlns:sodipodi="http://sodipodi.sourceforge.net/DTD/sodipodi-0.dtd"
   xmlns:inkscape="http://www.inkscape.org/namespaces/inkscape"
   width="48"
   height="48"
   version="1.1"
   viewBox="0 0 48 48"
   id="svg124"
   sodipodi:docname="kaku.svg"
   inkscape:version="0.92.3 (2405546, 2018-03-11)">
  <metadata
     id="metadata130">
    <rdf:RDF>
      <cc:Work
         rdf:about="">
        <dc:format>image/svg+xml</dc:format>
        <dc:type
           rdf:resource="http://purl.org/dc/dcmitype/StillImage" />
        <dc:title />
      </cc:Work>
    </rdf:RDF>
  </metadata>
  <defs
     id="defs128">
    <linearGradient
       inkscape:collect="always"
       id="linearGradient886">
      <stop
         style="stop-color:#ffffff;stop-opacity:1;"
         offset="0"
         id="stop882" />
      <stop
         style="stop-color:#d58a8a;stop-opacity:1"
         offset="1"
         id="stop884" />
    </linearGradient>
    <linearGradient
       inkscape:collect="always"
       id="linearGradient982">
      <stop
         style="stop-color:#000000;stop-opacity:1;"
         offset="0"
         id="stop978" />
      <stop
         style="stop-color:#000000;stop-opacity:0;"
         offset="1"
         id="stop980" />
    </linearGradient>
    <linearGradient
       inkscape:collect="always"
       xlink:href="#linearGradient982"
       id="linearGradient984"
       x1="29.644699"
       y1="12.979086"
       x2="42.202549"
       y2="25.536938"
       gradientUnits="userSpaceOnUse" />
    <linearGradient
       inkscape:collect="always"
       xlink:href="#linearGradient982"
       id="linearGradient986"
       x1="18.964445"
       y1="21.268696"
       x2="37.29557"
       y2="39.599823"
       gradientUnits="userSpaceOnUse" />
    <linearGradient
       inkscape:collect="always"
       xlink:href="#linearGradient982"
       id="linearGradient988"
       x1="12.020759"
       y1="24.330851"
       x2="31.019802"
       y2="43.329895"
       gradientUnits="userSpaceOnUse" />
    <linearGradient
       inkscape:collect="always"
       xlink:href="#linearGradient886"
       id="linearGradient888"
       x1="22.189791"
       y1="15.960821"
       x2="35.610374"
       y2="39.205956"
       gradientUnits="userSpaceOnUse" />
  </defs>
  <sodipodi:namedview
     pagecolor="#ffffff"
     bordercolor="#666666"
     borderopacity="1"
     objecttolerance="10"
     gridtolerance="10"
     guidetolerance="10"
     inkscape:pageopacity="0"
     inkscape:pageshadow="2"
     inkscape:window-width="1920"
     inkscape:window-height="1020"
     id="namedview126"
     showgrid="false"
     inkscape:zoom="13.01"
     inkscape:cx="9.8570331"
     inkscape:cy="18.828084"
     inkscape:window-x="0"
     inkscape:window-y="30"
     inkscape:window-maximized="1"
     inkscape:current-layer="svg124" />
  <path
     style="fill:#4d4d4d"
     d="M 43.5,31.800001 V 16.199999 C 43.5,9.7182 38.2818,4.5 31.8,4.5 H 16.2 C 9.7182,4.5 4.5,9.7182 4.5,16.199999 V 31.800001 C 4.5,38.2818 9.7182,43.5 16.2,43.5 h 15.6 c 6.4818,0 11.7,-5.2182 11.7,-11.699999 z"
     id="path4" />
  <g
     transform="matrix(0.29268431,0,0,0.29268431,4.0000001,4.0000001)"
     id="g116">
    <path
       d="m 122.60742,10.060547 0.94141,18.425781 6.67578,-9.595703 c -2.10916,-3.298828 -4.67727,-6.270196 -7.61719,-8.830078 z"
       style="fill:#612e18"
       id="path6" />
    <path
       d="M 104.39844,0.93359375 76.03125,21.814453 123.54883,28.486328 122.60742,10.060547 C 117.5,5.6133569 111.27783,2.4152348 104.39844,0.93359375 Z"
       style="fill:#5c312d"
       id="path8" />
    <path
       d="M 80.095703,0 76.03125,21.814453 104.39844,0.93359375 C 101.58517,0.32768866 98.665656,0 95.666016,0 Z"
       style="fill:#37232c"
       id="path10" />
    <path
       d="M 47.335938,0 76.03125,21.814453 80.095703,0 Z"
       style="fill:#3e2941"
       id="path12" />
    <path
       d="M 46.017578,0 54.271484,40.160156 76.03125,21.814453 47.335938,0 Z"
       style="fill:#58405b"
       id="path14" />
    <path
       d="M 45.341797,0 30.732422,40.164062 54.271484,40.160156 46.017578,0 Z"
       style="fill:#6d5174"
       id="path16" />
    <path
       d="M 44.050781,0 15.511719,19.683594 30.732422,40.164062 45.341797,0 Z"
       style="fill:#5d4e75"
       id="path18" />
    <path
       d="m 15.511719,19.683594 -14.67382838,13 C 0.37019144,34.971025 0.10332347,37.332529 0.03125,39.744141 l 30.701172,0.419921 z"
       style="fill:#665f88"
       id="path20" />
    <path
       d="M 15.511719,19.683594 5.0507812,21.220703 C 3.1095404,24.754025 1.6717061,28.605554 0.83789062,32.683594 Z"
       style="fill:#4c5378"
       id="path22" />
    <path
       d="M 41,0 C 31.239168,0 22.301107,3.3832276 15.275391,9.0371094 L 15.511719,19.683594 44.050781,0 Z"
       style="fill:#312c47"
       id="path24" />
    <path
       d="M 15.275391,9.0371094 C 13.048686,10.82903 11.013522,12.846177 9.2070312,15.060547 l 6.3046878,4.623047 z"
       style="fill:#3c3c5c"
       id="path26" />
    <path
       d="m 9.2070312,15.060547 c -1.5631242,1.916055 -2.9566394,3.976702 -4.15625,6.160156 L 15.511719,19.683594 Z"
       style="fill:#454669"
       id="path28" />
    <path
       d="m 130.22461,18.890625 -6.67578,9.595703 9.91211,35.791016 3.20508,-21.761719 V 41 c 0,-8.157004 -2.3667,-15.736309 -6.44141,-22.109375 z"
       style="fill:#6e2d34"
       id="path30" />
    <path
       d="m 136.66602,42.515625 -3.20508,21.761719 3.20508,4.86914 z"
       style="fill:#90131b"
       id="path32" />
    <path
       d="m 133.46094,64.277344 -20.72266,25.060547 23.92774,-5.56836 V 69.146484 Z"
       style="fill:#711c21"
       id="path34" />
    <path
       d="m 136.66602,83.769531 -23.92774,5.56836 20.27734,23.291019 c 2.33902,-5.16555 3.6504,-10.90427 3.6504,-16.962894 z"
       style="fill:#3a0e0c"
       id="path36" />
    <path
       d="m 112.73828,89.337891 3.65625,38.490229 4.56836,0.13672 c 5.15949,-4.04043 9.31525,-9.29041 12.05273,-15.33593 z"
       style="fill:#5b180c"
       id="path38" />
    <path
       d="m 116.39453,127.82812 0.0117,3.23633 c 1.59148,-0.93149 3.11262,-1.96878 4.55664,-3.09961 z"
       style="fill:#3e0c05"
       id="path40" />
    <path
       d="m 102.95898,119.51367 7.00782,14.60547 c 2.24892,-0.83209 4.39836,-1.86003 6.43945,-3.05469 l -0.0117,-3.23633 z"
       style="fill:#81210f"
       id="path42" />
    <path
       d="m 102.95898,119.51367 -17.550777,17.15235 h 10.257813 c 5.034914,0 9.851954,-0.90083 14.300784,-2.54688 z"
       style="fill:#af5246"
       id="path44" />
    <path
       d="M 102.95898,119.51367 63.6875,136.3125 63.320312,136.66602 H 85.408203 Z"
       style="fill:#c98173"
       id="path46" />
    <path
       d="M 81.421875,89.322266 63.6875,136.3125 102.95898,119.51367 Z"
       style="fill:#e1816d"
       id="path48" />
    <path
       d="M 50.386302,98.461191 63.6875,136.3125 81.421875,89.322266 Z"
       style="fill:#eeb9bd"
       id="path50" />
    <path
       style="fill:#ddb0d9"
       d="M 50.386302,98.461191 38.722589,110.77557 63.6875,136.3125 Z"
       id="path52" />
    <path
       d="m 38.722656,110.77539 -3.919922,25.42773 c 2.020528,0.30389 4.089396,0.4629 6.197266,0.4629 H 63.320312 L 63.6875,136.3125 Z"
       style="fill:#ebc3e2"
       id="path54" />
    <path
       d="m 5.015625,109.51367 25.199219,25.72071 c 1.497638,0.40462 3.026358,0.7339 4.58789,0.96874 l 3.919922,-25.42773 z"
       style="fill:#a576cf"
       id="path56" />
    <path
       d="m 5.015625,109.51367 0.796875,7.25586 c 5.368171,8.95946 14.062853,15.6714 24.402344,18.46485 z"
       style="fill:#b77abf"
       id="path58" />
    <path
       d="m 5.015625,109.51367 -2.3203125,0.82422 c 0.8562557,2.24624 1.8980748,4.39695 3.1171875,6.43164 z"
       style="fill:#ab5ca1"
       id="path60" />
    <path
       d="m 1.9355469,108.17773 c 0.2321156,0.72975 0.48868,1.44901 0.7597656,2.16016 l 2.3203125,-0.82422 z"
       style="fill:#b88ecc"
       id="path62" />
    <path
       d="m 5.015625,109.51367 33.707031,1.26172 -6.905035,-40.181672 z"
       style="fill:#b88ecc"
       id="path64" />
    <path
       d="m 0,90.679688 v 4.986328 c 0,4.367744 0.6817751,8.569974 1.9355469,12.511714 l 3.0800781,1.33594 z"
       style="fill:#9550b5"
       id="path66" />
    <path
       d="M 19.013672,62.308594 0,65.751953 v 24.927735 l 5.015625,18.833982 z"
       style="fill:#9165a8"
       id="path68" />
    <path
       d="M 5.015625,109.51367 31.817621,70.593718 19.013672,62.308594 Z"
       style="fill:#9d5cba"
       id="path70" />
    <path
       style="fill:#836492"
       d="M 30.733074,40.164956 42.004843,57.425021 19.013672,62.308594 Z"
       id="path72" />
    <path
       d="M 0,54.759766 V 65.751953 L 19.013672,62.308594 Z"
       style="fill:#826f9e"
       id="path74" />
    <path
       d="M 30.732422,40.164062 0,54.255859 v 0.503907 l 19.013672,7.548828 z"
       style="fill:#665e89"
       id="path76" />
    <path
       d="M 0.03125,39.744141 C 0.01874889,40.162434 0,40.57857 0,41 V 54.255859 L 30.732422,40.164062 Z"
       style="fill:#5f577f"
       id="path78" />
    <path
       style="fill:#846288"
       d="M 30.733074,40.164956 42.004843,57.425021 54.271484,40.160156 Z"
       id="path80" />
    <path
       d="M 76.031369,21.814712 78.367136,60.646829 54.271484,40.160156 Z"
       style="fill:#825a67"
       id="path82" />
    <path
       style="fill:#97605e"
       d="m 76.03125,21.814453 2.335886,38.832376 24.564264,4.169577 z"
       id="path84" />
    <path
       d="M 102.9314,64.816406 76.031369,21.814712 123.54798,28.485639 Z"
       style="fill:#874645"
       id="path86" />
    <path
       d="M 123.54798,28.485639 102.9314,64.816406 133.46094,64.277344 Z"
       style="fill:#8d2635"
       id="path88" />
    <path
       style="fill:#943837"
       d="M 112.73828,89.337891 102.9314,64.816406 133.46094,64.277344 Z"
       id="path90" />
    <path
       style="fill:#a45c50"
       d="m 102.9314,64.816406 9.80688,24.521485 -31.316405,-0.01563 z"
       id="path92" />
    <path
       d="M 102.95898,119.51367 81.421875,89.322266 112.73828,89.337891 Z"
       style="fill:#ab4c39"
       id="path94" />
    <path
       style="fill:#963b20"
       d="m 112.73828,89.337891 -9.7793,30.175779 13.4362,8.31543 z"
       id="path96" />
    <path
       style="fill:#b86d5f"
       d="M 81.421875,89.322266 78.367136,60.646829 102.9314,64.816406 Z"
       id="path98" />
    <path
       d="M 31.817621,70.593718 19.013672,62.308594 42.004843,57.425021 Z"
       style="fill:#997599"
       id="path100" />
    <path
       d="M 54.271484,40.160156 60.433764,70.996863 42.004843,57.425021 Z"
       style="fill:#936982"
       id="path102" />
    <path
       d="M 31.817621,70.593718 42.004843,57.425021 60.433764,70.996863 Z"
       style="fill:#856385"
       id="path104" />
    <path
       style="fill:#c38e97"
       d="M 50.386302,98.461191 31.817621,70.593718 81.421875,89.322266 Z"
       id="path106" />
    <path
       style="fill:#b37b96"
       d="M 81.421875,89.322261 60.433764,70.996863 31.817621,70.593718 Z"
       id="path108" />
    <path
       d="M 60.433764,70.996863 54.271484,40.160156 78.367136,60.646829 Z"
       style="fill:#9c6c71"
       id="path110" />
    <path
       d="M 60.433764,70.996863 78.367136,60.646829 81.421875,89.322266 Z"
       style="fill:#e5a98e"
       id="path112" />
    <path
       d="M 31.817621,70.593718 38.722589,110.77557 50.386302,98.461191 Z"
       style="fill:#b48dd7"
       id="path114" />
  </g>
  <path
     style="opacity:0.3;fill:url(#linearGradient988);fill-opacity:1;stroke:none;stroke-width:2;stroke-linecap:round;stroke-linejoin:round;stroke-miterlimit:4;stroke-dasharray:none;stroke-dashoffset:0;stroke-opacity:1;paint-order:normal"
     d="M 16.634766 22.595703 L 14.931641 34.316406 L 9.8417969 31.945312 L 8.8808594 32.175781 L 8.6132812 32.714844 L 8.21875 33.435547 L 18.783203 44 L 32 44 C 33.774294 44 35.450336 43.609177 36.962891 42.923828 L 16.634766 22.595703 z "
     id="rect951" />
  <path
     style="opacity:0.2"
     d="m 4,31 v 1 c 0,6.647999 5.351998,12 12,12 h 16 c 6.647999,0 12,-5.352001 12,-12 v -1 c 0,6.647999 -5.352001,12 -12,12 H 16 C 9.351998,43 4,37.647999 4,31 Z"
     id="path2"
     inkscape:connector-curvature="0" />
  <path
     style="opacity:0.3;fill:url(#linearGradient984);fill-opacity:1;stroke:none;stroke-width:2;stroke-linecap:round;stroke-linejoin:round;stroke-miterlimit:4;stroke-dasharray:none;stroke-dashoffset:0;stroke-opacity:1;paint-order:normal"
     d="M 36.914062 11.644531 L 33.189453 11.673828 L 25.699219 20.533203 L 26.986328 23.136719 L 26.740234 27.744141 L 26.517578 29.195312 L 39.039062 41.716797 C 42.04484 39.540152 44 36.011102 44 32 L 44 18.730469 L 36.914062 11.644531 z "
     id="rect940" />
  <path
     style="opacity:0.3;fill:url(#linearGradient986);fill-opacity:1;stroke:none;stroke-width:1.67452264;stroke-linecap:round;stroke-linejoin:round;stroke-miterlimit:4;stroke-dasharray:none;stroke-dashoffset:0;stroke-opacity:1;paint-order:normal"
     d="M 21.660156 21.0625 L 20.400391 21.121094 L 25.564453 32.292969 L 25.634766 35.048828 L 21.746094 35.539062 L 19.96875 35.589844 L 28.378906 44 L 32 44 C 35.477514 44 38.589605 42.526077 40.777344 40.177734 L 21.660156 21.0625 z "
     id="rect944" />
  <path
     style="fill:url(#linearGradient888);fill-opacity:1"
     d="M 32.763672 10 C 32.191826 10 31.472251 10.0929 31.166016 10.207031 C 29.858643 10.694266 28.844511 12.207365 28.263672 14.535156 C 27.329339 18.279609 25.724153 19.949219 23.058594 19.949219 C 22.24428 19.949219 22.236688 20.111847 23.015625 20.839844 C 24.527951 22.253249 25.448134 24.371495 25.697266 27.015625 C 25.795206 28.054746 25.941398 28.514867 26.308594 28.945312 C 26.573527 29.255886 26.900125 29.507812 27.037109 29.507812 C 27.174092 29.507812 27.440127 29.047706 27.628906 28.484375 C 27.882616 27.72731 28.013171 26.391542 28.128906 23.363281 C 28.263093 19.852235 28.347845 19.105316 28.720703 18.142578 C 29.67512 15.678245 31.809192 14.36227 33.982422 15.335938 C 35.025875 15.803437 35.927313 17.160249 37.25 19.474609 C 38.230972 21.191069 39.333305 22.486328 39.814453 22.486328 C 40.057509 22.486328 40.06298 22.152493 39.822266 22.005859 C 39.333364 21.707816 38.968315 19.815208 38.90625 17.251953 C 38.84417 14.687109 38.82155 14.550289 38.189453 13.328125 C 37.12411 11.268232 35.054114 10 32.763672 10 z M 18.648438 19.576172 C 18.459381 19.577872 18.243216 19.594391 17.974609 19.619141 C 16.704023 19.736175 16.072266 19.902742 16.072266 20.121094 C 16.072266 20.192444 16.859943 21.038602 17.820312 22.001953 C 19.730594 23.918148 20.64445 25.443133 21.060547 27.410156 C 21.247887 28.050406 21.304036 28.705655 21.345703 29.363281 C 19.918932 30.011377 19.002023 31.432932 19 33 C 19 35.209139 20.790861 37 23 37 C 25.209139 37 27 35.209139 27 33 C 26.9986 31.462029 26.115477 30.061085 24.728516 29.396484 C 24.527187 28.844114 24.578125 28.309176 24.578125 27.763672 C 24.578125 24.495064 22.869707 21.484308 20.203125 20.052734 C 19.527861 19.690216 19.215608 19.571033 18.648438 19.576172 z M 14.464844 20.878906 L 13.386719 21.609375 C 11.803749 22.684763 10.2614 24.431852 9.4316406 26.087891 C 8.7742825 27.399847 8.6928464 27.736936 8.6152344 29.453125 C 8.5612514 30.646597 8.4113284 31.588539 8.2167969 31.966797 C 7.7944324 32.788053 8.0040539 33.558851 8.6972656 33.730469 C 8.9891084 33.802719 9.6769997 34.315266 10.226562 34.867188 C 12.066676 36.715178 15.567019 37.473105 18.693359 36.701172 C 19.502791 36.501311 19.600985 36.324841 19.123047 35.933594 C 18.951385 35.793068 18.58567 35.238542 18.308594 34.699219 C 17.361013 32.854728 17.713519 30.560325 19.175781 29.080078 C 19.839258 28.408447 19.87886 28.301594 19.763672 27.472656 C 19.695812 26.984006 19.414423 26.142117 19.136719 25.601562 C 18.570767 24.499907 16.188702 21.926374 15.146484 21.291016 L 14.464844 20.878906 z M 12.5 29 C 13.328427 29 14 29.671573 14 30.5 C 14 31.328427 13.328427 32 12.5 32 C 11.671573 32 11 31.328427 11 30.5 C 11 29.671573 11.671573 29 12.5 29 z M 23 31 C 24.104569 31 25 31.895431 25 33 C 25 34.104569 24.104569 35 23 35 C 21.895431 35 21 34.104569 21 33 C 21 31.895431 21.895431 31 23 31 z "
     id="path960" />
</svg>
