<?xml version="1.0" encoding="UTF-8" standalone="no"?>
<svg
   xmlns:dc="http://purl.org/dc/elements/1.1/"
   xmlns:cc="http://creativecommons.org/ns#"
   xmlns:rdf="http://www.w3.org/1999/02/22-rdf-syntax-ns#"
   xmlns:svg="http://www.w3.org/2000/svg"
   xmlns="http://www.w3.org/2000/svg"
   xmlns:xlink="http://www.w3.org/1999/xlink"
   xmlns:sodipodi="http://sodipodi.sourceforge.net/DTD/sodipodi-0.dtd"
   xmlns:inkscape="http://www.inkscape.org/namespaces/inkscape"
   version="1.1"
   id="Ebene_1"
   width="48"
   height="48"
   viewBox="0 0 48 48"
   sodipodi:docname="kimagemapeditor.svg"
   inkscape:version="0.92.3 (2405546, 2018-03-11)"
   inkscape:export-filename="/media/files/128-apps-kimagemapeditor.png"
   inkscape:export-xdpi="54.613335"
   inkscape:export-ydpi="54.613335">
  <metadata
     id="metadata4547">
    <rdf:RDF>
      <cc:Work
         rdf:about="">
        <dc:format>image/svg+xml</dc:format>
        <dc:type
           rdf:resource="http://purl.org/dc/dcmitype/StillImage" />
        <dc:title>Blank globe, focus on Africa</dc:title>
      </cc:Work>
    </rdf:RDF>
  </metadata>
  <defs
     id="defs4545">
    <linearGradient
       inkscape:collect="always"
       id="linearGradient1066">
      <stop
         style="stop-color:#000000;stop-opacity:1;"
         offset="0"
         id="stop1062" />
      <stop
         style="stop-color:#000000;stop-opacity:0;"
         offset="1"
         id="stop1064" />
    </linearGradient>
    <linearGradient
       inkscape:collect="always"
       id="linearGradient894">
      <stop
         style="stop-color:#9e9d63;stop-opacity:1;"
         offset="0"
         id="stop890" />
      <stop
         style="stop-color:#cecdae;stop-opacity:1"
         offset="1"
         id="stop892" />
    </linearGradient>
    <linearGradient
       inkscape:collect="always"
       id="linearGradient886">
      <stop
         style="stop-color:#225877;stop-opacity:1"
         offset="0"
         id="stop882" />
      <stop
         style="stop-color:#3a95c7;stop-opacity:1"
         offset="1"
         id="stop884" />
    </linearGradient>
    <linearGradient
       inkscape:collect="always"
       xlink:href="#linearGradient886"
       id="linearGradient888"
       x1="92.691345"
       y1="207.95148"
       x2="92.691345"
       y2="12.467602"
       gradientUnits="userSpaceOnUse"
       gradientTransform="matrix(0.20162388,0,0,0.20125631,1.9870503,1.8291938)" />
    <linearGradient
       inkscape:collect="always"
       xlink:href="#linearGradient894"
       id="linearGradient896"
       x1="112.88691"
       y1="199.28343"
       x2="112.88691"
       y2="11.218919"
       gradientUnits="userSpaceOnUse"
       gradientTransform="matrix(0.20162388,0,0,0.20125631,1.9870503,1.8291938)" />
    <linearGradient
       inkscape:collect="always"
       xlink:href="#linearGradient1066"
       id="linearGradient1068"
       x1="20.123735"
       y1="25.023872"
       x2="34.562344"
       y2="39.462479"
       gradientUnits="userSpaceOnUse" />
  </defs>
  <sodipodi:namedview
     pagecolor="#ffffff"
     bordercolor="#666666"
     borderopacity="1"
     objecttolerance="10"
     gridtolerance="10"
     guidetolerance="10"
     inkscape:pageopacity="0"
     inkscape:pageshadow="2"
     inkscape:window-width="1920"
     inkscape:window-height="1021"
     id="namedview4543"
     showgrid="false"
     fit-margin-top="0.1"
     fit-margin-left="0.1"
     fit-margin-bottom="0.1"
     fit-margin-right="0.1"
     inkscape:zoom="11.58"
     inkscape:cx="10.053541"
     inkscape:cy="13.922183"
     inkscape:window-x="0"
     inkscape:window-y="30"
     inkscape:window-maximized="1"
     inkscape:current-layer="Ebene_1">
    <inkscape:grid
       type="xygrid"
       id="grid1028" />
  </sodipodi:namedview>
  <title
     id="title4536">Blank globe, focus on Africa</title>
  <path
     style="fill:#16435b;fill-opacity:1;stroke:none;stroke-width:4.02519703;stroke-linecap:round;stroke-linejoin:round;stroke-miterlimit:4;stroke-dasharray:24.15118217, 24.15118217;stroke-dashoffset:0;stroke-opacity:1"
     d=""
     id="path5354"
     inkscape:connector-curvature="0" />
  <path
     style="fill:#16435b;fill-opacity:1;stroke:none;stroke-width:4.02519703;stroke-linecap:round;stroke-linejoin:round;stroke-miterlimit:4;stroke-dasharray:24.15118217, 24.15118217;stroke-dashoffset:0;stroke-opacity:1"
     d=""
     id="path5372"
     inkscape:connector-curvature="0" />
  <path
     style="fill:#16435b;fill-opacity:1;stroke:none;stroke-width:4.02519703;stroke-linecap:round;stroke-linejoin:round;stroke-miterlimit:4;stroke-dasharray:24.15118217, 24.15118217;stroke-dashoffset:0;stroke-opacity:1"
     d=""
     id="path5400"
     inkscape:connector-curvature="0" />
  <path
     style="opacity:1;fill:url(#linearGradient896);fill-opacity:1;stroke:none;stroke-width:0.81083572;stroke-linecap:round;stroke-linejoin:round;stroke-miterlimit:4;stroke-dasharray:4.86501441, 4.86501441;stroke-dashoffset:0;stroke-opacity:1"
     d="M 21.674612,43.808394 C 17.963557,43.333069 14.160989,41.715162 11.26632,39.379898 4.2687794,33.734659 2.057052,24.08945 5.8084902,15.578652 7.5534884,11.619816 11.077813,8.0118683 15.089173,6.077767 22.953268,2.2860435 32.082654,3.7709622 38.103631,9.8211294 c 7.117454,7.1519596 7.878873,18.1804816 1.80722,26.1760686 -0.780801,1.028212 -2.485684,2.788471 -3.468794,3.581455 -2.901365,2.340272 -6.314035,3.765843 -10.147292,4.238814 -0.989602,0.122104 -3.636583,0.116906 -4.620153,-0.0091 z"
     id="path4718"
     inkscape:connector-curvature="0" />
  <path
     style="fill:url(#linearGradient888);fill-opacity:1;stroke:none;stroke-width:0.81083572;stroke-linecap:round;stroke-linejoin:round;stroke-miterlimit:4;stroke-dasharray:4.86501441, 4.86501441;stroke-dashoffset:0;stroke-opacity:1"
     d="M 22.518973,43.948861 C 16.266666,43.519302 10.267143,39.990644 7.0008846,34.629329 6.8096094,32.287277 6.259671,30.091611 4.9618098,28.136829 3.526976,23.891138 3.8621532,19.121937 5.9851837,15.162152 6.2704522,13.695984 8.9146958,11.07385 9.5301884,12.879132 10.29349,13.194314 10.477748,10.393013 11.18271,12.193311 c -0.260688,0.405531 -1.4940969,1.050308 -0.563461,1.326395 1.122444,-1.537469 2.694973,-2.832293 3.483855,-4.4217397 2.176029,-2.049042 -4.1192794,1.3306567 -1.293862,-0.5283519 0.310941,-0.9068976 3.078053,-2.303337 2.601149,-0.7893478 2.891897,-0.2990628 -1.557277,0.4001163 -0.759769,1.7073269 1.165123,-0.3259493 3.084487,-1.0976805 3.733629,-2.533637 -1.347381,0.1569982 -1.404445,0.035277 0.02426,-0.2352491 0.804894,0.1833729 0.474759,0.9021564 1.737809,0.845615 -1.032699,0.429361 -3.429876,1.9788336 -4.935297,2.8618816 -1.126416,0.950341 -0.517434,2.01978 0.757072,0.985283 2.269974,-0.05429 4.567734,-0.515672 5.97298,-2.4917673 0.22948,-0.997862 -0.869099,-1.1096235 -0.748007,-2.0193678 -0.595118,-0.9244431 -4.49198,-0.354103 -1.890283,-0.8442119 0.896874,-0.2004197 2.138904,-0.9154721 0.542538,-0.7153263 1.881169,-0.9512727 4.129185,-0.5645048 6.135152,-1.06201 0.831269,0.5282392 3.116429,1.0525381 2.666873,2.1373334 -1.629694,-0.1699523 0.875414,0.5036509 1.009563,0.7494545 0.0075,1.2327633 -1.862144,0.6455024 -2.661309,1.1266322 1.045767,-0.3771467 2.464737,1.5638048 1.118636,1.9843802 1.146504,1.940661 -1.446351,1.190211 -1.015408,-0.3552933 -1.862106,0.8957183 2.295871,2.5242203 -0.364976,2.5476653 -0.601847,1.289343 -2.652531,-1.621268 -3.903922,0.176492 -0.759178,0.939166 -3.362447,2.358549 -1.451111,3.362667 -0.697362,1.137723 -2.779756,2.608784 -2.206941,0.257703 0.641541,-2.550296 -1.962733,-0.22203 -2.135531,0.686788 0.525868,0.423824 1.863927,-0.978955 0.751655,0.422184 -0.990694,0.869282 2.307712,0.619923 0.06538,0.77669 -0.463788,0.604081 0.249656,2.652911 -1.220796,1.593645 -2.578346,0.350416 0.04057,3.365913 -2.4029,3.966531 -1.945066,1.020667 -3.092559,2.920283 -3.122219,5.109831 0.152345,2.4731 2.614601,4.632924 5.102628,4.168233 1.496083,0.341714 3.196159,1.183253 2.563878,2.93284 2.463302,0.935124 0.30023,3.803837 1.978725,5.167447 1.190582,2.81149 5.426513,2.228419 6.796015,-0.119486 1.135975,-1.391411 2.926984,-2.122662 1.971539,-4.245093 0.771282,-2.103183 3.679807,-3.424143 3.588695,-5.885896 -1.154657,-0.201025 -2.603266,1.433801 -3.317569,-0.363312 -0.786388,-0.82948 -2.613973,-3.204511 -2.156709,-3.833363 1.230817,1.340202 2.04791,3.007041 3.273287,4.351866 1.729443,-0.987454 3.546153,-2.332245 4.115608,-4.29523 -0.76007,-0.881328 -1.660395,-1.174685 -0.0048,-1.428435 2.421924,-1.228436 3.938953,1.658634 4.939854,3.086815 2.18549,0.614476 -0.441994,-2.494993 0.600625,-3.713944 -0.122131,-1.697933 1.294964,-2.741664 1.9709,-1.889229 1.050247,1.588878 0.620909,3.272669 0.882588,4.982162 0.262061,2.257132 -1.271051,4.379873 -2.195,6.396576 -3.704268,6.298127 -11.012307,10.330559 -18.350848,9.823689 l -0.347948,-0.0083 z m 8.371342,-3.196876 c 1.251605,-0.319547 2.679344,-4.156188 0.452632,-2.174436 -0.548276,0.241514 -1.992312,2.677368 -0.452632,2.174436 z m 3.059729,-1.668199 c -0.260429,-0.05722 0.0033,0.26632 0,0 z M 18.048538,34.965842 c -0.128725,-0.246813 -0.128734,0.246809 0,0 z m 15.963705,-4.820729 -0.178356,-0.0036 z M 9.6823311,27.273278 c -0.2684357,-0.545197 -0.227043,0.35561 0,0 z m 0.1876155,-0.238112 c -0.1551937,-0.288119 -0.17323,0.238992 0,0 z M 9.5828223,26.724503 c -0.2018513,-0.986683 -0.4676472,0.0028 0,0 z M 42.399583,24.389785 c -0.291734,-0.683602 0.03768,0.762298 0,0 z M 12.617842,24.163983 c -0.117286,-0.35504 -0.117294,0.355036 0,0 z m 0.49736,-0.02464 c 0.277132,-0.582357 -0.610522,0.543688 0,0 z M 12.445748,23.96202 12.32841,23.90414 Z m 0.420866,-1.561103 c -0.118987,-0.274445 -0.118987,0.274446 0,0 z m -0.995088,-2.532849 c -0.118987,-0.274448 -0.118987,0.274448 0,0 z m -0.359683,-0.580445 c -0.155184,-0.288117 -0.173239,0.239005 0,0 z M 4.7740242,18.674552 c -0.1607021,-0.252922 0.00955,0.343969 0,0 z M 19.780897,14.740293 c -0.30349,-0.240873 -0.03426,0.587407 0,0 z m -0.595471,-0.74617 c -0.229962,-0.224028 -0.07925,0.626329 0,0 z M 18.70513,12.924708 c 0.08848,-2.050084 -2.691995,0.602303 0,0 z m 8.390723,-0.555225 c 0.137864,-0.703656 -0.625958,0.27373 0,0 z M 23.494296,10.369886 C 24.98723,9.7962935 22.240324,9.2340834 23.366085,10.608202 Z m -9.15788,-0.7606761 c -0.01909,-0.3242255 -0.307612,0.3127674 0,0 z m 13.954068,-0.038662 c -0.285654,-0.7371091 -0.26868,0.1875726 0,0 z m -2.763711,-0.065333 c 1.314977,-0.7775793 -1.310117,0.052006 0,0 z M 13.072559,8.7656058 c 0.34126,-0.3795064 -0.747023,0.4521408 0,0 z m 1.633528,-0.5913997 c 0.110321,-0.3824745 -0.446553,0.3014335 0,0 z m 0.399476,-0.3744178 c -0.223011,-0.3131325 -0.191172,0.2852256 0,0 z m 5.945654,-1.1670972 c -0.17994,-0.2093233 -0.179941,0.2093232 0,0 z m -0.09658,-0.1722436 c -0.333603,-0.3663719 -0.810302,0.4028557 0,0 z m 0.157615,-0.3077634 c -0.252338,-0.4702124 -0.450268,0.4217215 0,0 z M 20.42294,6.1365997 c 2.532907,-0.996644 -1.862834,0.040687 0,0 z m 6.151017,-1.1924759 c -0.239628,-0.2173073 -0.239628,0.2173078 0,0 z"
     id="path5304"
     inkscape:connector-curvature="0" />
  <path
     style="fill:#4b809e;fill-opacity:1;stroke:none;stroke-width:0.81083572;stroke-linecap:round;stroke-linejoin:round;stroke-miterlimit:4;stroke-dasharray:4.86501441, 4.86501441;stroke-dashoffset:0;stroke-opacity:1"
     d="M 22.024381,25.289191 C 20.471403,25.042364 20.439387,23.344403 19.8231,22.74739 c -0.946086,-0.206549 -3.518777,0.395568 -3.303669,-0.350912 1.538874,-0.589616 3.390152,-3.273487 4.623549,-0.642712 1.534685,1.022084 -1.463659,0.932722 0.166027,1.48023 1.694698,-0.936476 0.740706,-1.530304 -0.03046,-2.791958 1.336117,0.18949 1.542171,3.791735 3.165513,2.794409 -0.791676,-1.726617 0.0042,-0.959751 0.484236,0.101146 1.04739,0.17366 3.343392,-0.216667 2.089525,1.57541 -1.524264,0.901183 -3.667992,-0.701324 -4.993437,0.376188 z m 2.58259,-1.321773 c -0.584213,-0.554177 -1.153274,0.221104 0,0 z m 2.107756,0.0012 c 1.304579,-0.812112 -1.150478,0.07211 0,0 z m -1.807544,-0.204809 c -0.166164,-0.271619 -0.06695,0.353167 0,0 z m -3.582317,-0.220555 c -0.118987,-0.274445 -0.118987,0.274446 0,0 z m -1.173077,-1.318245 c 0.797752,-2.607174 -1.228552,0.261545 0,0 z m -1.64272,-0.409158 c 0.05249,-0.791165 -0.560871,0.654373 0,0 z m 0.278322,-0.110155 c -0.118987,-0.274448 -0.118988,0.274447 0,0 z"
     id="path5306"
     inkscape:connector-curvature="0" />
  <path
     style="fill:#4b809e;fill-opacity:1;stroke:none;stroke-width:0.81083572;stroke-linecap:round;stroke-linejoin:round;stroke-miterlimit:4;stroke-dasharray:4.86501441, 4.86501441;stroke-dashoffset:0;stroke-opacity:1"
     d="m 25.205712,21.531807 c -0.30562,-1.196821 0.899778,-1.684628 1.469541,-1.086188 2.274842,-0.0676 1.56869,1.629821 -0.269565,0.920668 -0.378085,0.137285 -0.806376,0.414476 -1.199976,0.16552 z"
     id="path5308"
     inkscape:connector-curvature="0" />
  <path
     style="fill:#4582a2;fill-opacity:1;stroke:none;stroke-width:0.81083572;stroke-linecap:round;stroke-linejoin:round;stroke-miterlimit:4;stroke-dasharray:4.86501441, 4.86501441;stroke-dashoffset:0;stroke-opacity:1"
     d="m 26.920892,19.990056 c 0.136557,-0.575739 0.654029,0.287765 0,0 z"
     id="path5312"
     inkscape:connector-curvature="0" />
  <path
     style="fill:#4b809e;fill-opacity:1;stroke:none;stroke-width:0.81083572;stroke-linecap:round;stroke-linejoin:round;stroke-miterlimit:4;stroke-dasharray:4.86501441, 4.86501441;stroke-dashoffset:0;stroke-opacity:1"
     d="m 31.085167,22.081838 c 0.01718,-0.805078 -2.210588,-3.21326 -0.390338,-1.982428 0.361421,0.328802 1.955715,2.436484 0.390338,1.982428 z"
     id="path5314"
     inkscape:connector-curvature="0" />
  <path
     style="fill:#4b809e;fill-opacity:1;stroke:none;stroke-width:0.81083572;stroke-linecap:round;stroke-linejoin:round;stroke-miterlimit:4;stroke-dasharray:4.86501441, 4.86501441;stroke-dashoffset:0;stroke-opacity:1"
     d="M 34.354796,7.6823655 C 33.341364,7.2369374 30.87181,5.1710886 33.401285,6.4044529 c 0.854827,0.4028043 1.977242,0.9580062 1.05071,1.2504956 0.135915,0.2292962 -0.02596,0.069073 -0.0972,0.027417 z"
     id="path5316"
     inkscape:connector-curvature="0" />
  <path
     style="fill:#16435b;fill-opacity:1;stroke:none;stroke-width:0.81083572;stroke-linecap:round;stroke-linejoin:round;stroke-miterlimit:4;stroke-dasharray:4.86501441, 4.86501441;stroke-dashoffset:0;stroke-opacity:1"
     d="m 31.126488,5.6642485 c -0.758818,-0.4312188 1.455026,0.4994351 0,0 z"
     id="path5318"
     inkscape:connector-curvature="0" />
  <path
     style="fill:#16435b;fill-opacity:1;stroke:none;stroke-width:0.81083572;stroke-linecap:round;stroke-linejoin:round;stroke-miterlimit:4;stroke-dasharray:4.86501441, 4.86501441;stroke-dashoffset:0;stroke-opacity:1"
     d="m 27.121255,4.4457951 c -2.149429,-0.4148289 1.440492,-0.113325 0,1e-6 z"
     id="path5320"
     inkscape:connector-curvature="0" />
  <path
     style="fill:#4b809e;fill-opacity:1;stroke:none;stroke-width:0.81083572;stroke-linecap:round;stroke-linejoin:round;stroke-miterlimit:4;stroke-dasharray:4.86501441, 4.86501441;stroke-dashoffset:0;stroke-opacity:1"
     d="m 32.566213,26.377809 c -0.763443,-0.620834 -1.750168,-1.792578 -0.0089,-0.965984 1.603162,-0.03761 0.596515,0.957935 0.0089,0.965984 z"
     id="path5322"
     inkscape:connector-curvature="0" />
  <path
     style="fill:#4b809e;fill-opacity:1;stroke:none;stroke-width:0.81083572;stroke-linecap:round;stroke-linejoin:round;stroke-miterlimit:4;stroke-dasharray:4.86501441, 4.86501441;stroke-dashoffset:0;stroke-opacity:1"
     d="m 21.839905,17.08489 c 0.556539,-0.722034 2.509966,-2.390825 1.411999,-0.352147 -0.315016,0.398522 -0.946231,0.745877 -1.411999,0.352147 z m 1.154156,-0.840309 c 0.198309,-0.705164 -0.452456,0.574866 0,0 z"
     id="path5324"
     inkscape:connector-curvature="0" />
  <path
     style="fill:#4b809e;fill-opacity:1;stroke:none;stroke-width:0.81083572;stroke-linecap:round;stroke-linejoin:round;stroke-miterlimit:4;stroke-dasharray:4.86501441, 4.86501441;stroke-dashoffset:0;stroke-opacity:1"
     d="m 22.916002,15.123311 c 0.07058,-1.596205 1.079785,0.258868 0,0 z"
     id="path5326"
     inkscape:connector-curvature="0" />
  <path
     style="fill:#16435b;fill-opacity:1;stroke:none;stroke-width:0.81083572;stroke-linecap:round;stroke-linejoin:round;stroke-miterlimit:4;stroke-dasharray:4.86501441, 4.86501441;stroke-dashoffset:0;stroke-opacity:1"
     d="m 23.563814,14.13861 c 0.215282,-0.761695 0.626179,0.04455 0,0 z"
     id="path5328"
     inkscape:connector-curvature="0" />
  <path
     style="fill:#16435b;fill-opacity:1;stroke:none;stroke-width:0.81083572;stroke-linecap:round;stroke-linejoin:round;stroke-miterlimit:4;stroke-dasharray:4.86501441, 4.86501441;stroke-dashoffset:0;stroke-opacity:1"
     d="m 25.740571,13.699031 c -0.37922,-0.653963 1.075914,0.247896 0,0 z"
     id="path5330"
     inkscape:connector-curvature="0" />
  <path
     style="fill:#16435b;fill-opacity:1;stroke:none;stroke-width:0.81083572;stroke-linecap:round;stroke-linejoin:round;stroke-miterlimit:4;stroke-dasharray:4.86501441, 4.86501441;stroke-dashoffset:0;stroke-opacity:1"
     d="m 24.015532,16.188818 c 0.09181,-0.120645 -0.0053,0.227648 0,0 z"
     id="path5332"
     inkscape:connector-curvature="0" />
  <path
     style="fill:#16435b;fill-opacity:1;stroke:none;stroke-width:0.81083572;stroke-linecap:round;stroke-linejoin:round;stroke-miterlimit:4;stroke-dasharray:4.86501441, 4.86501441;stroke-dashoffset:0;stroke-opacity:1"
     d="m 23.844113,16.274787 c -0.368806,-0.644145 0.603696,0.184168 0,0 z"
     id="path5334"
     inkscape:connector-curvature="0" />
  <path
     style="fill:#16435b;fill-opacity:1;stroke:none;stroke-width:0.81083572;stroke-linecap:round;stroke-linejoin:round;stroke-miterlimit:4;stroke-dasharray:4.86501441, 4.86501441;stroke-dashoffset:0;stroke-opacity:1"
     d="m 25.215662,15.214582 c -0.27689,-0.615604 0.540698,0.244261 0,0 z"
     id="path5336"
     inkscape:connector-curvature="0" />
  <path
     style="fill:#16435b;fill-opacity:1;stroke:none;stroke-width:0.81083572;stroke-linecap:round;stroke-linejoin:round;stroke-miterlimit:4;stroke-dasharray:4.86501441, 4.86501441;stroke-dashoffset:0;stroke-opacity:1"
     d="m 26.870736,35.931462 c 0.168237,-1.125504 1.310388,-0.03499 0,0 z"
     id="path5338"
     inkscape:connector-curvature="0" />
  <path
     style="fill:#16435b;fill-opacity:1;stroke:none;stroke-width:0.81083572;stroke-linecap:round;stroke-linejoin:round;stroke-miterlimit:4;stroke-dasharray:4.86501441, 4.86501441;stroke-dashoffset:0;stroke-opacity:1"
     d="m 26.076412,37.374532 c 0.140183,-0.212937 0.21725,0.219265 0,0 z"
     id="path5340"
     inkscape:connector-curvature="0" />
  <path
     style="fill:#16435b;fill-opacity:1;stroke:none;stroke-width:0.81083572;stroke-linecap:round;stroke-linejoin:round;stroke-miterlimit:4;stroke-dasharray:4.86501441, 4.86501441;stroke-dashoffset:0;stroke-opacity:1"
     d="m 27.598882,38.631472 c 0.09951,-0.839959 0.07385,0.514453 0,0 z"
     id="path5346"
     inkscape:connector-curvature="0" />
  <path
     style="fill:#4b809e;fill-opacity:1;stroke:none;stroke-width:0.81083572;stroke-linecap:round;stroke-linejoin:round;stroke-miterlimit:4;stroke-dasharray:4.86501441, 4.86501441;stroke-dashoffset:0;stroke-opacity:1"
     d="m 43.819703,24.81362 c -1.33601,-1.589554 0.869908,-2.700042 -0.576471,-4.414133 -0.402258,-0.952415 -0.379767,-2.60821 -0.678575,-3.649199 1.082012,2.473427 1.583862,5.884371 1.288735,8.157625 l -0.03369,-0.09429 z"
     id="path5348"
     inkscape:connector-curvature="0" />
  <path
     style="fill:#4582a2;fill-opacity:1;stroke:none;stroke-width:0.81083572;stroke-linecap:round;stroke-linejoin:round;stroke-miterlimit:4;stroke-dasharray:4.86501441, 4.86501441;stroke-dashoffset:0;stroke-opacity:1"
     d="m 41.33964,14.267127 c -0.485381,-0.642491 -3.007331,-2.942806 -1.03834,-1.556923 0.335205,0.423641 1.148044,1.142709 1.03834,1.556923 z"
     id="path5350"
     inkscape:connector-curvature="0" />
  <path
     style="fill:#16435b;fill-opacity:1;stroke:none;stroke-width:0.81083572;stroke-linecap:round;stroke-linejoin:round;stroke-miterlimit:4;stroke-dasharray:4.86501441, 4.86501441;stroke-dashoffset:0;stroke-opacity:1"
     d="m 38.998698,11.070425 c -0.808025,-0.664361 -1.374224,-1.880119 -0.230851,-0.50547 0.386491,0.340788 1.101459,1.493112 0.230851,0.50547 z"
     id="path5352"
     inkscape:connector-curvature="0" />
  <path
     style="fill:#16435b;fill-opacity:1;stroke:none;stroke-width:0.81083572;stroke-linecap:round;stroke-linejoin:round;stroke-miterlimit:4;stroke-dasharray:4.86501441, 4.86501441;stroke-dashoffset:0;stroke-opacity:1"
     d="m 37.24628,9.1655406 c -0.756115,-0.8707413 1.072914,0.9255314 0,0 z"
     id="path5358"
     inkscape:connector-curvature="0" />
  <path
     style="fill:#4b809e;fill-opacity:1;stroke:none;stroke-width:0.81083572;stroke-linecap:round;stroke-linejoin:round;stroke-miterlimit:4;stroke-dasharray:4.86501441, 4.86501441;stroke-dashoffset:0;stroke-opacity:1"
     d="m 35.793369,7.9048421 c -0.709247,-0.501755 -3.36498,-2.1033734 -2.820438,-1.7224395 1.037228,0.397056 1.933137,1.0711646 2.820438,1.7224395 z"
     id="path5360"
     inkscape:connector-curvature="0" />
  <path
     style="fill:#16435b;fill-opacity:1;stroke:none;stroke-width:0.81083572;stroke-linecap:round;stroke-linejoin:round;stroke-miterlimit:4;stroke-dasharray:4.86501441, 4.86501441;stroke-dashoffset:0;stroke-opacity:1"
     d="m 34.672457,7.9386113 c -0.709482,-0.219494 0.104235,-0.3169612 0,0 z"
     id="path5362"
     inkscape:connector-curvature="0" />
  <path
     style="fill:#16435b;fill-opacity:1;stroke:none;stroke-width:0.81083572;stroke-linecap:round;stroke-linejoin:round;stroke-miterlimit:4;stroke-dasharray:4.86501441, 4.86501441;stroke-dashoffset:0;stroke-opacity:1"
     d="m 34.477287,7.6273961 c -0.01609,-0.04465 -0.01609,-0.04465 0,0 z"
     id="path5364"
     inkscape:connector-curvature="0" />
  <path
     style="fill:#4b809e;fill-opacity:1;stroke:none;stroke-width:0.81083572;stroke-linecap:round;stroke-linejoin:round;stroke-miterlimit:4;stroke-dasharray:4.86501441, 4.86501441;stroke-dashoffset:0;stroke-opacity:1"
     d="m 38.114207,9.8741171 c -0.866473,-0.5507216 -0.876234,-1.0997693 0,0 z"
     id="path5366"
     inkscape:connector-curvature="0" />
  <path
     style="fill:#16435b;fill-opacity:1;stroke:none;stroke-width:0.81083572;stroke-linecap:round;stroke-linejoin:round;stroke-miterlimit:4;stroke-dasharray:4.86501441, 4.86501441;stroke-dashoffset:0;stroke-opacity:1"
     d="M 37.09424,9.0465586 C 36.515259,8.6464657 36.686861,8.5307721 37.10314,9.0017796 Z"
     id="path5368"
     inkscape:connector-curvature="0" />
  <path
     style="fill:#16435b;fill-opacity:1;stroke:none;stroke-width:0.81083572;stroke-linecap:round;stroke-linejoin:round;stroke-miterlimit:4;stroke-dasharray:4.86501441, 4.86501441;stroke-dashoffset:0;stroke-opacity:1"
     d="m 36.416007,8.51413 c -0.510227,-0.2859353 0.0792,-0.1725738 0,0 z"
     id="path5370"
     inkscape:connector-curvature="0" />
  <path
     style="fill:#4b809e;fill-opacity:1;stroke:none;stroke-width:0.81083572;stroke-linecap:round;stroke-linejoin:round;stroke-miterlimit:4;stroke-dasharray:4.86501441, 4.86501441;stroke-dashoffset:0;stroke-opacity:1"
     d="m 39.525987,11.553706 c -0.860652,-0.639805 -2.735592,-3.0895386 -0.935809,-1.182162 0.344095,0.366913 0.664393,0.758253 0.935809,1.182162 z"
     id="path5374"
     inkscape:connector-curvature="0" />
  <path
     style="fill:#16435b;fill-opacity:1;stroke:none;stroke-width:0.81083572;stroke-linecap:round;stroke-linejoin:round;stroke-miterlimit:4;stroke-dasharray:4.86501441, 4.86501441;stroke-dashoffset:0;stroke-opacity:1"
     d="M 39.358067,11.433461 C 38.400468,10.53594 37.951649,9.8906322 39.14092,11.206672 c -0.363996,-0.330073 0.526791,0.438812 0.217147,0.226789 z"
     id="path5376"
     inkscape:connector-curvature="0" />
  <path
     style="fill:#4b809e;fill-opacity:1;stroke:none;stroke-width:0.81083572;stroke-linecap:round;stroke-linejoin:round;stroke-miterlimit:4;stroke-dasharray:4.86501441, 4.86501441;stroke-dashoffset:0;stroke-opacity:1"
     d="m 39.62623,11.64062 c -0.650708,-0.884619 -1.716583,-2.0216496 -0.400277,-0.566265 -0.03795,0.01492 0.585858,0.610541 0.400277,0.566265 z"
     id="path5378"
     inkscape:connector-curvature="0" />
  <path
     style="fill:#4b809e;fill-opacity:1;stroke:none;stroke-width:0.81083572;stroke-linecap:round;stroke-linejoin:round;stroke-miterlimit:4;stroke-dasharray:4.86501441, 4.86501441;stroke-dashoffset:0;stroke-opacity:1"
     d="M 30.831967,5.278504 C 29.653065,4.7419023 26.795326,4.2069069 26.552011,4.1868994 c 1.372427,0.1885154 3.272752,0.508599 4.279956,1.0916046 z"
     id="path5380"
     inkscape:connector-curvature="0" />
  <path
     style="fill:#16435b;fill-opacity:1;stroke:none;stroke-width:0.81083572;stroke-linecap:round;stroke-linejoin:round;stroke-miterlimit:4;stroke-dasharray:4.86501441, 4.86501441;stroke-dashoffset:0;stroke-opacity:1"
     d="m 31.511414,5.796804 c -1.682902,-0.5086321 0.947505,0.08149 -0.50034,-0.2084668 l 0.242441,0.1093829 z"
     id="path5382"
     inkscape:connector-curvature="0" />
  <path
     style="fill:#16435b;fill-opacity:1;stroke:none;stroke-width:0.81083572;stroke-linecap:round;stroke-linejoin:round;stroke-miterlimit:4;stroke-dasharray:4.86501441, 4.86501441;stroke-dashoffset:0;stroke-opacity:1"
     d="m 26.551186,15.815557 c -0.299186,-0.331313 0.379055,-0.0054 0,0 z"
     id="path5384"
     inkscape:connector-curvature="0" />
  <path
     style="fill:#16435b;fill-opacity:1;stroke:none;stroke-width:0.81083572;stroke-linecap:round;stroke-linejoin:round;stroke-miterlimit:4;stroke-dasharray:4.86501441, 4.86501441;stroke-dashoffset:0;stroke-opacity:1"
     d="m 24.543962,15.540235 c 0.09144,-0.477104 0.249088,0.02714 0,0 z"
     id="path5386"
     inkscape:connector-curvature="0" />
  <path
     style="fill:#16435b;fill-opacity:1;stroke:none;stroke-width:0.81083572;stroke-linecap:round;stroke-linejoin:round;stroke-miterlimit:4;stroke-dasharray:4.86501441, 4.86501441;stroke-dashoffset:0;stroke-opacity:1"
     d="m 25.784116,13.966617 c -0.364096,-0.201391 0.448837,0.101171 0,0 z"
     id="path5390"
     inkscape:connector-curvature="0" />
  <path
     style="fill:#16435b;fill-opacity:1;stroke:none;stroke-width:0.81083572;stroke-linecap:round;stroke-linejoin:round;stroke-miterlimit:4;stroke-dasharray:4.86501441, 4.86501441;stroke-dashoffset:0;stroke-opacity:1"
     d="m 21.45198,16.552306 c 0.0073,-0.6873 0.4647,0.04985 0,0 z"
     id="path5392"
     inkscape:connector-curvature="0" />
  <path
     style="fill:#4582a2;fill-opacity:1;stroke:none;stroke-width:0.81083572;stroke-linecap:round;stroke-linejoin:round;stroke-miterlimit:4;stroke-dasharray:4.86501441, 4.86501441;stroke-dashoffset:0;stroke-opacity:1"
     d="m 25.15086,21.981322 c -0.307581,-0.233942 0.366683,-0.04704 0,0 z"
     id="path5394"
     inkscape:connector-curvature="0" />
  <path
     style="fill:#16435b;fill-opacity:1;stroke:none;stroke-width:0.81083572;stroke-linecap:round;stroke-linejoin:round;stroke-miterlimit:4;stroke-dasharray:4.86501441, 4.86501441;stroke-dashoffset:0;stroke-opacity:1"
     d="m 31.738485,24.969002 c -0.05478,-0.05816 -0.05478,-0.05816 0,0 z"
     id="path5396"
     inkscape:connector-curvature="0" />
  <path
     style="fill:#4582a2;fill-opacity:1;stroke:none;stroke-width:0.81083572;stroke-linecap:round;stroke-linejoin:round;stroke-miterlimit:4;stroke-dasharray:4.86501441, 4.86501441;stroke-dashoffset:0;stroke-opacity:1"
     d="m 33.542083,25.556516 c -0.316066,-0.101916 0.695598,-0.5068 0,0 z"
     id="path5398"
     inkscape:connector-curvature="0" />
  <path
     style="fill:#16435b;fill-opacity:1;stroke:none;stroke-width:0.81083572;stroke-linecap:round;stroke-linejoin:round;stroke-miterlimit:4;stroke-dasharray:4.86501441, 4.86501441;stroke-dashoffset:0;stroke-opacity:1"
     d="m 31.59766,25.503571 c -0.08298,-0.127216 -0.08298,-0.127216 0,0 z"
     id="path5402"
     inkscape:connector-curvature="0" />
  <path
     style="fill:#16435b;fill-opacity:1;stroke:none;stroke-width:0.81083572;stroke-linecap:round;stroke-linejoin:round;stroke-miterlimit:4;stroke-dasharray:4.86501441, 4.86501441;stroke-dashoffset:0;stroke-opacity:1"
     d="m 31.430835,24.928328 c 0.08998,-0.153021 0.03635,0.142762 0,0 z"
     id="path5404"
     inkscape:connector-curvature="0" />
  <path
     style="fill:#16435b;fill-opacity:1;stroke:none;stroke-width:0.81083572;stroke-linecap:round;stroke-linejoin:round;stroke-miterlimit:4;stroke-dasharray:4.86501441, 4.86501441;stroke-dashoffset:0;stroke-opacity:1"
     d="m 9.4922843,11.122144 c -0.057871,-0.497739 0.4375787,-0.498573 0,0 z"
     id="path5406"
     inkscape:connector-curvature="0" />
  <path
     style="fill:#16435b;fill-opacity:1;stroke:none;stroke-width:0.81083572;stroke-linecap:round;stroke-linejoin:round;stroke-miterlimit:4;stroke-dasharray:4.86501441, 4.86501441;stroke-dashoffset:0;stroke-opacity:1"
     d="m 9.3640814,10.852181 c -0.2362738,-0.789993 0.3357934,4.42e-4 0,0 z"
     id="path5408"
     inkscape:connector-curvature="0" />
  <path
     style="fill:#16435b;fill-opacity:1;stroke:none;stroke-width:0.81083572;stroke-linecap:round;stroke-linejoin:round;stroke-miterlimit:4;stroke-dasharray:4.86501441, 4.86501441;stroke-dashoffset:0;stroke-opacity:1"
     d="m 9.9779059,10.202977 c -0.00173,-0.4382469 0.6040751,-0.126833 0,0 z"
     id="path5410"
     inkscape:connector-curvature="0" />
  <path
     style="fill:#16435b;fill-opacity:1;stroke:none;stroke-width:0.81083572;stroke-linecap:round;stroke-linejoin:round;stroke-miterlimit:4;stroke-dasharray:4.86501441, 4.86501441;stroke-dashoffset:0;stroke-opacity:1"
     d="m 10.389937,9.5309705 c 0.02299,-0.2364514 0.398064,0.076754 0,0 z"
     id="path5412"
     inkscape:connector-curvature="0" />
  <path
     style="fill:#838258;fill-opacity:1;stroke:none;stroke-width:0.81083572;stroke-linecap:round;stroke-linejoin:round;stroke-miterlimit:4;stroke-dasharray:4.86501441, 4.86501441;stroke-dashoffset:0;stroke-opacity:1"
     d="m 10.825507,9.3636291 c 0.421804,-0.9584419 1.096557,-0.7270056 0,0 z"
     id="path5416"
     inkscape:connector-curvature="0" />
  <path
     style="fill:#838258;fill-opacity:1;stroke:none;stroke-width:0.81083572;stroke-linecap:round;stroke-linejoin:round;stroke-miterlimit:4;stroke-dasharray:4.86501441, 4.86501441;stroke-dashoffset:0;stroke-opacity:1"
     d="m 19.825024,22.277487 c -0.118874,-1.644392 1.115952,-1.352377 0,0 z"
     id="path5428"
     inkscape:connector-curvature="0" />
  <path
     style="fill:#838258;fill-opacity:1;stroke:none;stroke-width:0.81083572;stroke-linecap:round;stroke-linejoin:round;stroke-miterlimit:4;stroke-dasharray:4.86501441, 4.86501441;stroke-dashoffset:0;stroke-opacity:1"
     d="m 26.438045,23.969837 c 0.288937,-0.65274 0.917723,-0.0755 0,0 z"
     id="path5430"
     inkscape:connector-curvature="0" />
  <path
     style="fill:#838258;fill-opacity:1;stroke:none;stroke-width:0.81083572;stroke-linecap:round;stroke-linejoin:round;stroke-miterlimit:4;stroke-dasharray:4.86501441, 4.86501441;stroke-dashoffset:0;stroke-opacity:1"
     d="m 24.334422,23.42025 c -0.756658,-0.457455 0.787668,-0.450787 0,0 z"
     id="path5432"
     inkscape:connector-curvature="0" />
  <path
     style="fill:#838258;fill-opacity:1;stroke:none;stroke-width:0.81083572;stroke-linecap:round;stroke-linejoin:round;stroke-miterlimit:4;stroke-dasharray:4.86501441, 4.86501441;stroke-dashoffset:0;stroke-opacity:1"
     d="m 24.128935,23.961584 c -1.227327,-0.413111 1.561053,0.133537 0,0 z"
     id="path5434"
     inkscape:connector-curvature="0" />
  <path
     style="fill:#838258;fill-opacity:1;stroke:none;stroke-width:0.81083572;stroke-linecap:round;stroke-linejoin:round;stroke-miterlimit:4;stroke-dasharray:4.86501441, 4.86501441;stroke-dashoffset:0;stroke-opacity:1"
     d="m 19.898094,6.9109857 c -0.284981,-0.2444393 0.753372,-0.222674 0,0 z"
     id="path5438"
     inkscape:connector-curvature="0" />
  <path
     style="font-style:normal;font-variant:normal;font-weight:bold;font-stretch:normal;font-size:42.66666794px;line-height:25px;font-family:'B&amp;H LucidaTypewriter';-inkscape-font-specification:'B&amp;H LucidaTypewriter Bold';letter-spacing:0px;word-spacing:0px;fill:#fff70d;fill-opacity:1;stroke:none;stroke-width:0.19723751px;stroke-linecap:butt;stroke-linejoin:miter;stroke-opacity:1"
     d="M 31 12.996094 L 31 14 L 33.753906 15.330078 L 31 16.507812 L 31 17.511719 L 35 15.673828 L 35 15.074219 L 31 12.996094 z M 12 13 L 8 15.078125 L 8 15.679688 L 12 17.517578 L 12 16.511719 L 9.2460938 15.335938 L 12 14.003906 L 12 13 z M 15.541016 13 C 15.27644 13 15.021125 13.056013 14.773438 13.169922 C 14.531378 13.28383 14.33995 13.466951 14.199219 13.71875 L 14.130859 13.71875 L 13.962891 13.089844 L 13 13.089844 L 13 18 L 14.257812 18 L 14.257812 15.689453 C 14.257813 15.16787 14.323652 14.767968 14.453125 14.492188 C 14.588228 14.210414 14.82872 14.070312 15.177734 14.070312 C 15.639335 14.070312 15.871094 14.423425 15.871094 15.130859 L 15.871094 18 L 17.128906 18 L 17.128906 15.535156 C 17.128906 15.061536 17.199112 14.699064 17.339844 14.447266 C 17.480576 14.195467 17.716701 14.070312 18.048828 14.070312 C 18.510428 14.070312 18.742188 14.423425 18.742188 15.130859 L 18.742188 18 L 20 18 L 20 14.798828 C 20 14.169332 19.863955 13.713415 19.59375 13.431641 C 19.329175 13.143871 18.935632 13 18.412109 13 C 18.147533 13 17.888083 13.056013 17.634766 13.169922 C 17.387078 13.28383 17.193466 13.466951 17.052734 13.71875 L 16.943359 13.71875 C 16.813885 13.472946 16.630961 13.293596 16.394531 13.179688 C 16.163731 13.059784 15.878772 13 15.541016 13 z M 23.134766 13 C 22.817176 13 22.510531 13.040742 22.214844 13.123047 C 21.919156 13.199472 21.653424 13.302305 21.417969 13.431641 L 21.822266 14.322266 C 22.030342 14.22233 22.237236 14.140845 22.445312 14.076172 C 22.653389 14.005626 22.866909 13.970703 23.085938 13.970703 C 23.304965 13.970703 23.475238 14.028906 23.595703 14.146484 C 23.721644 14.264062 23.785156 14.44838 23.785156 14.701172 L 23.785156 14.914062 L 23.003906 14.939453 C 22.33587 14.968848 21.83597 15.104668 21.501953 15.345703 C 21.167935 15.586738 21 15.963145 21 16.474609 C 21 16.997831 21.131697 17.381993 21.394531 17.628906 C 21.657365 17.87582 21.988947 18 22.388672 18 C 22.761019 18 23.054025 17.941797 23.267578 17.824219 C 23.48113 17.706641 23.683351 17.518437 23.875 17.259766 L 23.908203 17.259766 L 24.146484 17.912109 L 25 17.912109 L 25 14.701172 C 25 14.125041 24.838692 13.700137 24.515625 13.423828 C 24.198035 13.141641 23.737093 13 23.134766 13 z M 28.384766 13 C 28.076268 13 27.824324 13.070234 27.630859 13.210938 C 27.437395 13.351641 27.283002 13.519423 27.167969 13.712891 L 27.113281 13.712891 L 26.949219 13.087891 L 26 13.087891 L 26 20 L 27.167969 20 L 27.167969 18.064453 C 27.167969 17.841672 27.147295 17.607559 27.105469 17.361328 L 27.167969 17.361328 C 27.283001 17.51962 27.432228 17.663991 27.615234 17.792969 C 27.798241 17.916085 28.045019 17.976562 28.353516 17.976562 C 28.834562 17.976563 29.228612 17.765861 29.537109 17.34375 C 29.845605 16.921639 30 16.301239 30 15.480469 C 30 14.665561 29.850773 14.049061 29.552734 13.632812 C 29.254695 13.210702 28.865812 13 28.384766 13 z M 28.007812 14.046875 C 28.541146 14.046875 28.808594 14.519005 28.808594 15.462891 C 28.808594 15.931903 28.742047 16.292828 28.611328 16.544922 C 28.485837 16.791153 28.290104 16.914062 28.023438 16.914062 C 27.699255 16.914062 27.475099 16.791153 27.349609 16.544922 C 27.229347 16.292828 27.167969 15.933852 27.167969 15.470703 L 27.167969 15.330078 C 27.173197 14.902104 27.239744 14.582148 27.365234 14.371094 C 27.490724 14.154176 27.704544 14.046875 28.007812 14.046875 z M 23.785156 15.681641 L 23.785156 16.078125 C 23.785156 16.383828 23.69437 16.620528 23.513672 16.791016 C 23.332973 16.955625 23.110489 17.039062 22.847656 17.039062 C 22.672434 17.039062 22.53139 16.99832 22.421875 16.916016 C 22.312362 16.827832 22.255859 16.682305 22.255859 16.482422 C 22.255859 16.253145 22.333008 16.068827 22.486328 15.927734 C 22.639647 15.786636 22.914344 15.710972 23.308594 15.699219 L 23.785156 15.681641 z "
     id="path1030" />
  <path
     style="fill:#4b809e;fill-opacity:1;stroke:none;stroke-width:0.81083572;stroke-linecap:round;stroke-linejoin:round;stroke-miterlimit:4;stroke-dasharray:4.86501441, 4.86501441;stroke-dashoffset:0;stroke-opacity:1"
     d="m 17.657763,6.2927331 c 0.36167,-0.5927711 0.677642,-0.051878 0,0 z"
     id="path6901"
     inkscape:connector-curvature="0" />
  <path
     style="fill:#4b809e;fill-opacity:1;stroke:none;stroke-width:0.81083572;stroke-linecap:round;stroke-linejoin:round;stroke-miterlimit:4;stroke-dasharray:4.86501441, 4.86501441;stroke-dashoffset:0;stroke-opacity:1"
     d="m 18.577668,5.641677 c -0.04607,-0.3033055 0.363442,0.064468 0,0 z"
     id="path6903"
     inkscape:connector-curvature="0" />
  <path
     style="fill:#4b809e;fill-opacity:1;stroke:none;stroke-width:0.81083572;stroke-linecap:round;stroke-linejoin:round;stroke-miterlimit:4;stroke-dasharray:4.86501441, 4.86501441;stroke-dashoffset:0;stroke-opacity:1"
     d="m 19.118895,5.1000351 c -0.06926,-0.2844937 0.347796,0.114597 0,0 z"
     id="path6905"
     inkscape:connector-curvature="0" />
  <path
     style="fill:#4b809e;fill-opacity:1;stroke:none;stroke-width:0.81083572;stroke-linecap:round;stroke-linejoin:round;stroke-miterlimit:4;stroke-dasharray:4.86501441, 4.86501441;stroke-dashoffset:0;stroke-opacity:1"
     d="m 16.589609,7.6354595 c -0.894547,-0.1254405 0.704352,-0.1232073 0,0 z"
     id="path6907"
     inkscape:connector-curvature="0" />
  <path
     style="fill:#1b4e6a;fill-opacity:1;stroke:none;stroke-width:0.81083572;stroke-linecap:round;stroke-linejoin:round;stroke-miterlimit:4;stroke-dasharray:4.86501441, 4.86501441;stroke-dashoffset:0;stroke-opacity:1"
     d="m 28.497748,9.4246347 c -0.28498,-0.6999159 -0.130602,-0.7457408 0,0 z"
     id="path6909"
     inkscape:connector-curvature="0" />
  <path
     style="opacity:0.3;fill:url(#linearGradient1068);fill-opacity:1;stroke:none;stroke-width:0.82254452;stroke-linecap:round;stroke-linejoin:round;stroke-miterlimit:4;stroke-dasharray:none;stroke-dashoffset:0;stroke-opacity:1;paint-order:normal"
     d="M 21.308594 18.431641 L 19.498047 19.441406 L 19.6875 28.138672 L 16.755859 27.798828 L 23.804688 34.847656 L 21.652344 37 L 28.185547 43.533203 A 20 20 0 0 0 39.933594 36.046875 L 30.470703 26.585938 L 30.216797 26.701172 L 28.150391 24.634766 L 27.740234 24.863281 L 21.308594 18.431641 z "
     id="rect1046" />
  <path
     style="fill:#ffffff;fill-opacity:1;stroke:none;stroke-width:0.8152352;stroke-linecap:butt;stroke-linejoin:miter;stroke-miterlimit:10;stroke-dasharray:none;stroke-opacity:1"
     d="M 21.65257,37 C 20.119502,34.088403 16.200222,31.055178 15.14,27.913 c -0.931269,-4.035368 3.588082,-0.362909 3.83221,-0.07951 0.214086,-2.86327 -0.07363,-5.575676 0.04261,-8.180343 0.116246,-2.604668 3.058304,-1.935124 2.939378,0.639761 l 0.159605,3.8545 C 22.882759,22.26859 26,23 25.947,24.423 c 1.437871,-1.356834 2.976454,0.933506 3.024555,1.670619 2.908913,-0.04202 1.842967,3.210336 1.81567,5.58599 -0.0852,1.76639 -0.477096,5.120485 -2.509101,5.320391 z"
     id="path6173"
     inkscape:connector-curvature="0"
     sodipodi:nodetypes="ccczccccccc" />
</svg>
