<?xml version="1.0" encoding="UTF-8" standalone="no"?>
<svg
   xmlns:dc="http://purl.org/dc/elements/1.1/"
   xmlns:cc="http://creativecommons.org/ns#"
   xmlns:rdf="http://www.w3.org/1999/02/22-rdf-syntax-ns#"
   xmlns:svg="http://www.w3.org/2000/svg"
   xmlns="http://www.w3.org/2000/svg"
   xmlns:xlink="http://www.w3.org/1999/xlink"
   xmlns:sodipodi="http://sodipodi.sourceforge.net/DTD/sodipodi-0.dtd"
   xmlns:inkscape="http://www.inkscape.org/namespaces/inkscape"
   width="48"
   height="48"
   version="1.1"
   id="svg12"
   sodipodi:docname="mailspring.svg"
   inkscape:version="0.92.3 (2405546, 2018-03-11)">
  <metadata
     id="metadata18">
    <rdf:RDF>
      <cc:Work
         rdf:about="">
        <dc:format>image/svg+xml</dc:format>
        <dc:type
           rdf:resource="http://purl.org/dc/dcmitype/StillImage" />
      </cc:Work>
    </rdf:RDF>
  </metadata>
  <defs
     id="defs16">
    <linearGradient
       inkscape:collect="always"
       id="linearGradient911">
      <stop
         style="stop-color:#ffffff;stop-opacity:1;"
         offset="0"
         id="stop907" />
      <stop
         style="stop-color:#ffffff;stop-opacity:0;"
         offset="1"
         id="stop909" />
    </linearGradient>
    <linearGradient
       inkscape:collect="always"
       id="linearGradient897">
      <stop
         style="stop-color:#000000;stop-opacity:1;"
         offset="0"
         id="stop893" />
      <stop
         style="stop-color:#000000;stop-opacity:0;"
         offset="1"
         id="stop895" />
    </linearGradient>
    <linearGradient
       inkscape:collect="always"
       id="linearGradient832">
      <stop
         style="stop-color:#53ecc8;stop-opacity:1;"
         offset="0"
         id="stop828" />
      <stop
         style="stop-color:#0798d9;stop-opacity:1"
         offset="1"
         id="stop830" />
    </linearGradient>
    <linearGradient
       inkscape:collect="always"
       xlink:href="#linearGradient832"
       id="linearGradient834"
       x1="12.338983"
       y1="3.2542372"
       x2="27.064909"
       y2="46.656872"
       gradientUnits="userSpaceOnUse" />
    <linearGradient
       inkscape:collect="always"
       xlink:href="#linearGradient897"
       id="linearGradient899"
       x1="29.559025"
       y1="17.968708"
       x2="40.808243"
       y2="29.217928"
       gradientUnits="userSpaceOnUse" />
    <linearGradient
       inkscape:collect="always"
       xlink:href="#linearGradient897"
       id="linearGradient901"
       x1="22.198519"
       y1="31.586325"
       x2="30.741507"
       y2="40.129311"
       gradientUnits="userSpaceOnUse" />
    <linearGradient
       inkscape:collect="always"
       xlink:href="#linearGradient897"
       id="linearGradient903"
       x1="13.998751"
       y1="21.652691"
       x2="31.950745"
       y2="39.604687"
       gradientUnits="userSpaceOnUse" />
    <linearGradient
       inkscape:collect="always"
       xlink:href="#linearGradient911"
       id="linearGradient913"
       x1="21.494066"
       y1="12.069956"
       x2="29.752411"
       y2="42.890518"
       gradientUnits="userSpaceOnUse" />
  </defs>
  <sodipodi:namedview
     pagecolor="#ffffff"
     bordercolor="#666666"
     borderopacity="1"
     objecttolerance="10"
     gridtolerance="10"
     guidetolerance="10"
     inkscape:pageopacity="0"
     inkscape:pageshadow="2"
     inkscape:window-width="1920"
     inkscape:window-height="1020"
     id="namedview14"
     showgrid="false"
     inkscape:zoom="12.239653"
     inkscape:cx="-0.53493413"
     inkscape:cy="19.003123"
     inkscape:window-x="0"
     inkscape:window-y="30"
     inkscape:window-maximized="1"
     inkscape:current-layer="svg12">
    <inkscape:grid
       type="xygrid"
       id="grid836" />
  </sodipodi:namedview>
  <path
     style="fill:url(#linearGradient834);fill-opacity:1"
     d="m24 4a20 20 0 0 0 -20 20 20 20 0 0 0 20 20 20 20 0 0 0 20 -20 20 20 0 0 0 -20 -20z"
     id="path2" />
  <path
     style="fill:url(#linearGradient913);fill-opacity:1"
     d="M 12 15 L 24 27 L 36 15 L 12 15 z M 12 17.828125 L 12 33 L 19.585938 25.414062 L 12 17.828125 z M 36 17.828125 L 28.414062 25.414062 L 36 33 L 36 17.828125 z M 21 26.828125 L 14.828125 33 L 33.171875 33 L 27 26.828125 L 25.414062 28.414062 A 2.0002 2.0002 0 0 1 22.585938 28.414062 L 21 26.828125 z"
     id="path10" />
  <path
     d="M 4.0215,23.418 A 20,20 0 0 0 4,24 20,20 0 0 0 24,44 20,20 0 0 0 44,24 20,20 0 0 0 43.979,23.582 20,20 0 0 1 24,43 20,20 0 0 1 4.022,23.418 Z"
     id="path6"
     inkscape:connector-curvature="0"
     style="opacity:0.2" />
  <path
     style="opacity:0.2;fill:url(#linearGradient899);fill-opacity:1;stroke:none;stroke-width:2;stroke-linecap:round;stroke-linejoin:round;stroke-miterlimit:4;stroke-dasharray:none;stroke-dashoffset:0;stroke-opacity:1;paint-order:normal"
     d="M 36 15 L 30.177734 20.822266 L 28.199219 22.800781 L 24 27 L 36.550781 39.550781 A 20 20 0 0 0 44 24 A 20 20 0 0 0 43.947266 22.947266 L 36 15 z "
     id="rect838" />
  <path
     style="opacity:0.2;fill:url(#linearGradient903);fill-opacity:1;stroke:none;stroke-width:1.58374345;stroke-linecap:round;stroke-linejoin:round;stroke-miterlimit:4;stroke-dasharray:none;stroke-dashoffset:0;stroke-opacity:1;paint-order:normal"
     d="M 19.585938 25.414062 L 18.177734 26.822266 L 13.408203 31.591797 L 12 33 L 22.962891 43.962891 A 20 20 0 0 0 24 44 A 20 20 0 0 0 34.912109 40.740234 L 27.171875 33 L 14.828125 33 L 21 26.828125 L 19.585938 25.414062 z "
     id="rect840" />
  <path
     style="opacity:0.2;fill:url(#linearGradient901);fill-opacity:1;stroke:none;stroke-width:1.58374345;stroke-linecap:round;stroke-linejoin:round;stroke-miterlimit:4;stroke-dasharray:none;stroke-dashoffset:0;stroke-opacity:1;paint-order:normal"
     d="M 14.828125 33 L 25.742188 43.914062 A 20 20 0 0 0 38.222656 38.050781 L 33.171875 33 L 14.828125 33 z "
     id="rect847" />
</svg>
