<?xml version="1.0" encoding="UTF-8" standalone="no"?>
<svg
   xmlns:dc="http://purl.org/dc/elements/1.1/"
   xmlns:cc="http://creativecommons.org/ns#"
   xmlns:rdf="http://www.w3.org/1999/02/22-rdf-syntax-ns#"
   xmlns:svg="http://www.w3.org/2000/svg"
   xmlns="http://www.w3.org/2000/svg"
   xmlns:xlink="http://www.w3.org/1999/xlink"
   xmlns:sodipodi="http://sodipodi.sourceforge.net/DTD/sodipodi-0.dtd"
   xmlns:inkscape="http://www.inkscape.org/namespaces/inkscape"
   width="48"
   height="48"
   version="1.1"
   id="svg252"
   sodipodi:docname="org.gnome.Firmware.svg"
   inkscape:version="0.92.3 (2405546, 2018-03-11)">
  <metadata
     id="metadata256">
    <rdf:RDF>
      <cc:Work
         rdf:about="">
        <dc:format>image/svg+xml</dc:format>
        <dc:type
           rdf:resource="http://purl.org/dc/dcmitype/StillImage" />
        <dc:title></dc:title>
      </cc:Work>
    </rdf:RDF>
  </metadata>
  <sodipodi:namedview
     pagecolor="#ffffff"
     bordercolor="#666666"
     borderopacity="1"
     objecttolerance="10"
     gridtolerance="10"
     guidetolerance="10"
     inkscape:pageopacity="0"
     inkscape:pageshadow="2"
     inkscape:window-width="1920"
     inkscape:window-height="1020"
     id="namedview254"
     showgrid="true"
     inkscape:zoom="15.07"
     inkscape:cx="15.61125"
     inkscape:cy="24.330363"
     inkscape:window-x="0"
     inkscape:window-y="30"
     inkscape:window-maximized="1"
     inkscape:current-layer="svg252">
    <inkscape:grid
       type="xygrid"
       id="grid1380" />
  </sodipodi:namedview>
  <defs
     id="defs124">
    <linearGradient
       inkscape:collect="always"
       id="linearGradient1667">
      <stop
         style="stop-color:#000000;stop-opacity:1;"
         offset="0"
         id="stop1663" />
      <stop
         style="stop-color:#000000;stop-opacity:0;"
         offset="1"
         id="stop1665" />
    </linearGradient>
    <linearGradient
       id="linearGradient4251-0"
       inkscape:collect="always">
      <stop
         id="stop4253-4"
         style="stop-color:#63984b" />
      <stop
         id="stop4255-2"
         style="stop-color:#8fc278"
         offset="1" />
    </linearGradient>
    <linearGradient
       gradientUnits="userSpaceOnUse"
       x2="0"
       y2="12"
       y1="54"
       id="linearGradient4232"
       xlink:href="#linearGradient4251-0"
       inkscape:collect="always"
       gradientTransform="matrix(0.97619048,0,0,1,-12.619231,-14.999174)" />
    <linearGradient
       gradientTransform="matrix(0.34375,0,0,0.32258058,28.875029,-310.5685)"
       gradientUnits="userSpaceOnUse"
       x2="0"
       y2="1012.3622"
       y1="1043.3622"
       id="linearGradient4384"
       xlink:href="#linearGradient4159"
       inkscape:collect="always" />
    <linearGradient
       id="linearGradient4159"
       inkscape:collect="always">
      <stop
         id="stop4161"
         style="stop-color:#2a2c2f" />
      <stop
         id="stop4163"
         style="stop-color:#424649"
         offset="1" />
    </linearGradient>
    <linearGradient
       inkscape:collect="always"
       xlink:href="#linearGradient4159"
       id="linearGradient1537"
       gradientUnits="userSpaceOnUse"
       gradientTransform="matrix(0.21875001,0,0,0.19354835,42.37502,-179.9411)"
       y1="1043.3622"
       x2="0"
       y2="1012.3622" />
    <linearGradient
       inkscape:collect="always"
       xlink:href="#linearGradient1667"
       id="linearGradient1669"
       x1="16"
       y1="21"
       x2="34"
       y2="39"
       gradientUnits="userSpaceOnUse" />
    <linearGradient
       inkscape:collect="always"
       xlink:href="#linearGradient1667"
       id="linearGradient1671"
       x1="35"
       y1="19"
       x2="41.356503"
       y2="25.356503"
       gradientUnits="userSpaceOnUse" />
  </defs>
  <path
     inkscape:connector-curvature="0"
     style="fill:url(#linearGradient4232);stroke-width:0.98802352"
     d="m 3,9 v 26 4 H 8.8571426 38.142857 44 V 35 9 H 26.428571 Z"
     id="rect4200"
     sodipodi:nodetypes="cccccccccc" />
  <rect
     style="opacity:0.2;fill:#000000;fill-opacity:1;stroke:none;stroke-width:0.44230857;stroke-linecap:round;stroke-linejoin:round;stroke-miterlimit:4;stroke-dasharray:none;stroke-dashoffset:0;stroke-opacity:1;paint-order:normal"
     id="rect1645"
     width="41"
     height="1"
     x="3"
     y="38" />
  <rect
     width="5"
     x="34"
     y="-10"
     height="3"
     style="fill:#fcff71;stroke-width:0.7071082;fill-opacity:1"
     id="rect4234"
     transform="rotate(90)" />
  <path
     style="fill:#77767b;stroke-width:0.40824828"
     d="M 12.6,18.5"
     id="path1449" />
  <path
     style="fill:#77767b;stroke-width:0.40824828"
     d="M 12.6,20.166666"
     id="path1445" />
  <path
     style="fill:#77767b;stroke-width:0.40824828"
     d="M 16.2,20.166666"
     id="path166" />
  <rect
     style="opacity:1;fill:#dce5e6;fill-opacity:1;stroke:none;stroke-width:2;stroke-linecap:round;stroke-linejoin:round;stroke-miterlimit:4;stroke-dasharray:none;stroke-dashoffset:0;stroke-opacity:1;paint-order:normal"
     id="rect1454"
     width="1"
     height="2"
     x="12"
     y="26" />
  <rect
     y="26"
     x="14"
     height="2"
     width="1"
     id="rect1456"
     style="opacity:1;fill:#dce5e6;fill-opacity:1;stroke:none;stroke-width:2;stroke-linecap:round;stroke-linejoin:round;stroke-miterlimit:4;stroke-dasharray:none;stroke-dashoffset:0;stroke-opacity:1;paint-order:normal" />
  <rect
     style="opacity:1;fill:#dce5e6;fill-opacity:1;stroke:none;stroke-width:2;stroke-linecap:round;stroke-linejoin:round;stroke-miterlimit:4;stroke-dasharray:none;stroke-dashoffset:0;stroke-opacity:1;paint-order:normal"
     id="rect1458"
     width="1"
     height="2"
     x="16"
     y="26" />
  <rect
     y="26"
     x="18"
     height="2"
     width="1"
     id="rect1460"
     style="opacity:1;fill:#dce5e6;fill-opacity:1;stroke:none;stroke-width:2;stroke-linecap:round;stroke-linejoin:round;stroke-miterlimit:4;stroke-dasharray:none;stroke-dashoffset:0;stroke-opacity:1;paint-order:normal" />
  <rect
     style="opacity:1;fill:#dce5e6;fill-opacity:1;stroke:none;stroke-width:2;stroke-linecap:round;stroke-linejoin:round;stroke-miterlimit:4;stroke-dasharray:none;stroke-dashoffset:0;stroke-opacity:1;paint-order:normal"
     id="rect1462"
     width="1"
     height="2"
     x="20"
     y="26" />
  <rect
     y="14"
     x="12"
     height="2"
     width="1"
     id="rect1464"
     style="opacity:1;fill:#dce5e6;fill-opacity:1;stroke:none;stroke-width:2;stroke-linecap:round;stroke-linejoin:round;stroke-miterlimit:4;stroke-dasharray:none;stroke-dashoffset:0;stroke-opacity:1;paint-order:normal" />
  <rect
     style="opacity:1;fill:#dce5e6;fill-opacity:1;stroke:none;stroke-width:2;stroke-linecap:round;stroke-linejoin:round;stroke-miterlimit:4;stroke-dasharray:none;stroke-dashoffset:0;stroke-opacity:1;paint-order:normal"
     id="rect1466"
     width="1"
     height="2"
     x="14"
     y="14" />
  <rect
     y="14"
     x="16"
     height="2"
     width="1"
     id="rect1468"
     style="opacity:1;fill:#dce5e6;fill-opacity:1;stroke:none;stroke-width:2;stroke-linecap:round;stroke-linejoin:round;stroke-miterlimit:4;stroke-dasharray:none;stroke-dashoffset:0;stroke-opacity:1;paint-order:normal" />
  <rect
     style="opacity:1;fill:#dce5e6;fill-opacity:1;stroke:none;stroke-width:2;stroke-linecap:round;stroke-linejoin:round;stroke-miterlimit:4;stroke-dasharray:none;stroke-dashoffset:0;stroke-opacity:1;paint-order:normal"
     id="rect1470"
     width="1"
     height="2"
     x="18"
     y="14" />
  <rect
     y="14"
     x="20"
     height="2"
     width="1"
     id="rect1472"
     style="opacity:1;fill:#dce5e6;fill-opacity:1;stroke:none;stroke-width:2;stroke-linecap:round;stroke-linejoin:round;stroke-miterlimit:4;stroke-dasharray:none;stroke-dashoffset:0;stroke-opacity:1;paint-order:normal" />
  <rect
     transform="rotate(90)"
     id="rect1476"
     style="fill:#fcff71;stroke-width:0.7071082;fill-opacity:1"
     height="3"
     y="-16"
     x="34"
     width="5" />
  <rect
     width="5"
     x="34"
     y="-22"
     height="3"
     style="fill:#fcff71;stroke-width:0.7071082;fill-opacity:1"
     id="rect1478"
     transform="rotate(90)" />
  <rect
     transform="rotate(90)"
     id="rect1480"
     style="fill:#fcff71;stroke-width:0.7071082;fill-opacity:1"
     height="3"
     y="-28"
     x="34"
     width="5" />
  <rect
     width="5"
     x="34"
     y="-34"
     height="3"
     style="fill:#fcff71;stroke-width:0.7071082;fill-opacity:1"
     id="rect1482"
     transform="rotate(90)" />
  <rect
     transform="rotate(90)"
     id="rect1484"
     style="fill:#fcff71;stroke-width:0.7071082;fill-opacity:1"
     height="3"
     y="-40"
     x="34"
     width="5" />
  <path
     style="opacity:1;fill:#fcff71;fill-opacity:1;stroke:none;stroke-width:2;stroke-linecap:round;stroke-linejoin:round;stroke-miterlimit:4;stroke-dasharray:none;stroke-dashoffset:0;stroke-opacity:1;paint-order:normal"
     d="M 8.5,10 A 1.5,1.5 0 0 0 7,11.5 1.5,1.5 0 0 0 8.5,13 1.5,1.5 0 0 0 10,11.5 1.5,1.5 0 0 0 8.5,10 Z M 8,11 h 1 v 1 H 8 Z"
     id="path1496"
     inkscape:connector-curvature="0" />
  <path
     inkscape:connector-curvature="0"
     id="path1516"
     d="M 24.5,10 A 1.5,1.5 0 0 1 26,11.5 1.5,1.5 0 0 1 24.5,13 1.5,1.5 0 0 1 23,11.5 1.5,1.5 0 0 1 24.5,10 Z m 0.5,1 h -1 v 1 h 1 z"
     style="opacity:1;fill:#fcff71;fill-opacity:1;stroke:none;stroke-width:2;stroke-linecap:round;stroke-linejoin:round;stroke-miterlimit:4;stroke-dasharray:none;stroke-dashoffset:0;stroke-opacity:1;paint-order:normal" />
  <rect
     y="22"
     x="32"
     height="2"
     width="1"
     id="rect1553"
     style="opacity:1;fill:#dce5e6;fill-opacity:1;stroke:none;stroke-width:2;stroke-linecap:round;stroke-linejoin:round;stroke-miterlimit:4;stroke-dasharray:none;stroke-dashoffset:0;stroke-opacity:1;paint-order:normal" />
  <rect
     style="opacity:1;fill:#dce5e6;fill-opacity:1;stroke:none;stroke-width:2;stroke-linecap:round;stroke-linejoin:round;stroke-miterlimit:4;stroke-dasharray:none;stroke-dashoffset:0;stroke-opacity:1;paint-order:normal"
     id="rect1555"
     width="1"
     height="2"
     x="34"
     y="22" />
  <rect
     y="22"
     x="36"
     height="2"
     width="1"
     id="rect1557"
     style="opacity:1;fill:#dce5e6;fill-opacity:1;stroke:none;stroke-width:2;stroke-linecap:round;stroke-linejoin:round;stroke-miterlimit:4;stroke-dasharray:none;stroke-dashoffset:0;stroke-opacity:1;paint-order:normal" />
  <rect
     style="opacity:1;fill:#dce5e6;fill-opacity:1;stroke:none;stroke-width:2;stroke-linecap:round;stroke-linejoin:round;stroke-miterlimit:4;stroke-dasharray:none;stroke-dashoffset:0;stroke-opacity:1;paint-order:normal"
     id="rect1559"
     width="1"
     height="2"
     x="32"
     y="14" />
  <rect
     y="14"
     x="34"
     height="2"
     width="1"
     id="rect1561"
     style="opacity:1;fill:#dce5e6;fill-opacity:1;stroke:none;stroke-width:2;stroke-linecap:round;stroke-linejoin:round;stroke-miterlimit:4;stroke-dasharray:none;stroke-dashoffset:0;stroke-opacity:1;paint-order:normal" />
  <rect
     style="opacity:1;fill:#dce5e6;fill-opacity:1;stroke:none;stroke-width:2;stroke-linecap:round;stroke-linejoin:round;stroke-miterlimit:4;stroke-dasharray:none;stroke-dashoffset:0;stroke-opacity:1;paint-order:normal"
     id="rect1563"
     width="1"
     height="2"
     x="36"
     y="14" />
  <path
     style="opacity:1;fill:#fcff71;fill-opacity:1;stroke:none;stroke-width:2;stroke-linecap:round;stroke-linejoin:round;stroke-miterlimit:4;stroke-dasharray:none;stroke-dashoffset:0;stroke-opacity:1;paint-order:normal"
     d="M 40.5,12 A 1.5,1.5 0 0 1 42,13.5 1.5,1.5 0 0 1 40.5,15 1.5,1.5 0 0 1 39,13.5 1.5,1.5 0 0 1 40.5,12 Z m 0.5,1 h -1 v 1 h 1 z"
     id="path1570"
     inkscape:connector-curvature="0" />
  <path
     inkscape:connector-curvature="0"
     id="path1572"
     d="M 39.5,26 A 1.5,1.5 0 0 1 41,27.5 1.5,1.5 0 0 1 39.5,29 1.5,1.5 0 0 1 38,27.5 1.5,1.5 0 0 1 39.5,26 Z m 0.5,1 h -1 v 1 h 1 z"
     style="opacity:1;fill:#fcff71;fill-opacity:1;stroke:none;stroke-width:2;stroke-linecap:round;stroke-linejoin:round;stroke-miterlimit:4;stroke-dasharray:none;stroke-dashoffset:0;stroke-opacity:1;paint-order:normal" />
  <path
     style="opacity:1;fill:#fcff71;fill-opacity:1;stroke:none;stroke-width:2;stroke-linecap:round;stroke-linejoin:round;stroke-miterlimit:4;stroke-dasharray:none;stroke-dashoffset:0;stroke-opacity:1;paint-order:normal"
     d="M 33.5,26 A 1.5,1.5 0 0 1 35,27.5 1.5,1.5 0 0 1 33.5,29 1.5,1.5 0 0 1 32,27.5 1.5,1.5 0 0 1 33.5,26 Z m 0.5,1 h -1 v 1 h 1 z"
     id="path1574"
     inkscape:connector-curvature="0" />
  <path
     id="path1576"
     style="fill:none;stroke:#fcff71;stroke-width:1px;stroke-linecap:butt;stroke-linejoin:miter;stroke-opacity:1"
     d="m 33.5,28.5 v 1 l 1.75,1 h 2.5 l 1.75,-1 v -1 M 20.500248,14 v -2.5 m -2,2.5 -2.14e-4,-1 1.200214,-1.7 M 23.5,11.5 H 19.300248 M 12.5,14 v -3 m 2,3 v -2.5 m 2,2.5 2.14e-4,-1 L 15.3,11.3 m -5.8,0.2 h 6.2 M 18.5,28 v 3 l 2,2.2 v 2.3 m -6,-7.5 v 7 0 m 2,-7 v 3 l -2,1 v 4 0 m 6,-8 v 2 l 6,3 v 2 m -14,-7 v 2 L 11,31.5 8.5,33.2 V 35"
     inkscape:connector-curvature="0"
     sodipodi:nodetypes="ccccccccccccccccccccccccccccccccccccccccccc" />
  <g
     id="g1581"
     transform="matrix(0,1.2727277,-0.95454547,0,32.27537,74.104605)">
    <path
       id="path232"
       d="M -45.653603,7.6218158 V 4.4789587 h 1.571428 v 3.1428571 z m 0,0"
       inkscape:connector-curvature="0"
       style="fill:#986a44;stroke-width:0.39285713" />
    <path
       id="path234"
       d="M -45.653603,7.6218158 V 4.4789587 h 0.785714 v 3.1428571 z m 0,0"
       inkscape:connector-curvature="0"
       style="fill:#b5835a;stroke-width:0.39285713" />
    <path
       id="path236"
       d="M -45.653603,7.6218158 V 6.574197 h 1.571428 v 1.0476188 z m 0,-2.0952378 V 4.4789587 h 1.571428 V 5.526578 Z"
       inkscape:connector-curvature="0"
       style="fill:#f6f5f4;stroke-width:0.39285713"
       sodipodi:nodetypes="cccccccccc" />
  </g>
  <g
     transform="matrix(0,1.2727277,-0.95454547,0,32.27537,78.104605)"
     id="g1589">
    <path
       style="fill:#986a44;stroke-width:0.39285713"
       inkscape:connector-curvature="0"
       d="M -45.653603,7.6218158 V 4.4789587 h 1.571428 v 3.1428571 z m 0,0"
       id="path1583" />
    <path
       style="fill:#b5835a;stroke-width:0.39285713"
       inkscape:connector-curvature="0"
       d="M -45.653603,7.6218158 V 4.4789587 h 0.785714 v 3.1428571 z m 0,0"
       id="path1585" />
    <path
       sodipodi:nodetypes="cccccccccc"
       style="fill:#f6f5f4;stroke-width:0.39285713"
       inkscape:connector-curvature="0"
       d="M -45.653603,7.6218158 V 6.574197 h 1.571428 v 1.0476188 z m 0,-2.0952378 V 4.4789587 h 1.571428 V 5.526578 Z"
       id="path1587" />
  </g>
  <g
     id="g1597"
     transform="matrix(0,1.2727277,-0.95454547,0,32.27537,82.104605)">
    <path
       id="path1591"
       d="M -45.653603,7.6218158 V 4.4789587 h 1.571428 v 3.1428571 z m 0,0"
       inkscape:connector-curvature="0"
       style="fill:#986a44;stroke-width:0.39285713" />
    <path
       id="path1593"
       d="M -45.653603,7.6218158 V 4.4789587 h 0.785714 v 3.1428571 z m 0,0"
       inkscape:connector-curvature="0"
       style="fill:#b5835a;stroke-width:0.39285713" />
    <path
       id="path1595"
       d="M -45.653603,7.6218158 V 6.574197 h 1.571428 v 1.0476188 z m 0,-2.0952378 V 4.4789587 h 1.571428 V 5.526578 Z"
       inkscape:connector-curvature="0"
       style="fill:#f6f5f4;stroke-width:0.39285713"
       sodipodi:nodetypes="cccccccccc" />
  </g>
  <rect
     style="opacity:1;fill:#333333;fill-opacity:1;stroke:none;stroke-width:1.76391149;stroke-linecap:round;stroke-linejoin:round;stroke-miterlimit:4;stroke-dasharray:none;stroke-dashoffset:0;stroke-opacity:1;paint-order:normal"
     id="rect1600"
     width="3"
     height="6"
     x="5"
     y="17"
     ry="1.5"
     rx="1.5" />
  <path
     style="opacity:1;fill:#99492c;fill-opacity:1;stroke:none;stroke-width:0.60909766;stroke-linecap:round;stroke-linejoin:round;stroke-miterlimit:4;stroke-dasharray:none;stroke-dashoffset:0;stroke-opacity:1;paint-order:normal"
     d="M 6.5 17.5 C 5.9944849 17.5 5.5703135 17.543922 5.2988281 17.607422 C 5.2415657 17.684495 5.1921843 17.767924 5.1503906 17.855469 C 5.3897171 17.940325 5.8982105 18 6.5 18 C 7.1017895 18 7.6102829 17.940325 7.8496094 17.855469 C 7.8078157 17.767924 7.7584343 17.684495 7.7011719 17.607422 C 7.4296865 17.543922 7.0055151 17.5 6.5 17.5 z M 6.5 18.5 C 5.669 18.5 5 18.6115 5 18.75 C 5 18.8885 5.669 19 6.5 19 C 7.331 19 8 18.8885 8 18.75 C 8 18.6115 7.331 18.5 6.5 18.5 z M 6.5 19.5 C 5.669 19.5 5 19.6115 5 19.75 C 5 19.8885 5.669 20 6.5 20 C 7.331 20 8 19.8885 8 19.75 C 8 19.6115 7.331 19.5 6.5 19.5 z M 6.5 20.5 C 5.669 20.5 5 20.6115 5 20.75 C 5 20.8885 5.669 21 6.5 21 C 7.331 21 8 20.8885 8 20.75 C 8 20.6115 7.331 20.5 6.5 20.5 z M 6.5 21.5 C 5.669 21.5 5 21.6115 5 21.75 C 5 21.8885 5.669 22 6.5 22 C 7.331 22 8 21.8885 8 21.75 C 8 21.6115 7.331 21.5 6.5 21.5 z M 6.5 22.5 C 6.0890616 22.5 5.7196154 22.527951 5.4492188 22.572266 C 5.7194551 22.837061 6.0900141 23 6.5 23 C 6.9099859 23 7.280545 22.837061 7.5507812 22.572266 C 7.2803846 22.527951 6.9109384 22.5 6.5 22.5 z "
     id="rect1626" />
  <path
     style="opacity:0.3;fill:url(#linearGradient1669);fill-opacity:1;stroke:none;stroke-width:0.5;stroke-linecap:round;stroke-linejoin:round;stroke-miterlimit:4;stroke-dasharray:none;stroke-dashoffset:0;stroke-opacity:1;paint-order:normal"
     d="M 22 16 L 17.863281 20.136719 L 17.363281 19.636719 L 11 26 L 24 39 L 38.142578 39 L 44 39 L 44 38 L 22 16 z "
     id="rect1647" />
  <path
     style="opacity:0.3;fill:url(#linearGradient1671);fill-opacity:1;stroke:none;stroke-width:0.42619848;stroke-linecap:round;stroke-linejoin:round;stroke-miterlimit:4;stroke-dasharray:none;stroke-dashoffset:0;stroke-opacity:1;paint-order:normal"
     d="M 38 16 L 36.923828 17.076172 L 36.423828 16.576172 L 31 22 L 44 35 L 44 22 L 38 16 z "
     id="rect1651" />
  <rect
     width="11"
     x="11"
     y="16"
     height="10"
     style="fill:url(#linearGradient4384);fill-rule:evenodd;stroke-width:0.5687933"
     id="rect4241" />
  <path
     style="fill:#afc0c6;stroke-width:0.44721368;fill-opacity:1"
     d="M 13 18 L 13 19 L 19 19 L 19 18 L 13 18 z M 13 20 L 13 22 L 16 22 L 16 20 L 13 20 z M 17 20 L 17 22 L 21 22 L 21 20 L 17 20 z "
     id="path1451" />
  <rect
     id="rect1533"
     style="fill:url(#linearGradient1537);fill-rule:evenodd;stroke-width:0.35146555"
     height="6"
     y="16"
     x="31"
     width="7" />
  <path
     style="fill:#afc0c6;fill-opacity:1;stroke-width:0.25819898"
     d="m 32,19 v 1 h 2 v -1 z"
     id="path1547"
     inkscape:connector-curvature="0" />
  <path
     inkscape:connector-curvature="0"
     id="path1551"
     d="m 32,17 v 1 h 4 v -1 z"
     style="fill:#afc0c6;fill-opacity:1;stroke-width:0.36514848" />
</svg>
