<?xml version="1.0" encoding="UTF-8" standalone="no"?>
<svg
   xmlns:dc="http://purl.org/dc/elements/1.1/"
   xmlns:cc="http://creativecommons.org/ns#"
   xmlns:rdf="http://www.w3.org/1999/02/22-rdf-syntax-ns#"
   xmlns:svg="http://www.w3.org/2000/svg"
   xmlns="http://www.w3.org/2000/svg"
   xmlns:xlink="http://www.w3.org/1999/xlink"
   xmlns:sodipodi="http://sodipodi.sourceforge.net/DTD/sodipodi-0.dtd"
   xmlns:inkscape="http://www.inkscape.org/namespaces/inkscape"
   width="48"
   height="48"
   version="1.1"
   id="svg18"
   sodipodi:docname="org.gnome.Fractal.svg"
   inkscape:version="0.92.3 (2405546, 2018-03-11)">
  <metadata
     id="metadata24">
    <rdf:RDF>
      <cc:Work
         rdf:about="">
        <dc:format>image/svg+xml</dc:format>
        <dc:type
           rdf:resource="http://purl.org/dc/dcmitype/StillImage" />
        <dc:title />
      </cc:Work>
    </rdf:RDF>
  </metadata>
  <defs
     id="defs22">
    <linearGradient
       inkscape:collect="always"
       id="linearGradient862">
      <stop
         style="stop-color:#22c7fe;stop-opacity:1"
         offset="0"
         id="stop858" />
      <stop
         style="stop-color:#a1e7fe;stop-opacity:1"
         offset="1"
         id="stop860" />
    </linearGradient>
    <linearGradient
       inkscape:collect="always"
       id="linearGradient853">
      <stop
         style="stop-color:#000000;stop-opacity:1;"
         offset="0"
         id="stop849" />
      <stop
         style="stop-color:#000000;stop-opacity:0;"
         offset="1"
         id="stop851" />
    </linearGradient>
    <linearGradient
       inkscape:collect="always"
       xlink:href="#linearGradient853"
       id="linearGradient855"
       x1="33.173649"
       y1="22.841337"
       x2="43.040405"
       y2="28.53791"
       gradientUnits="userSpaceOnUse" />
    <linearGradient
       inkscape:collect="always"
       xlink:href="#linearGradient862"
       id="linearGradient864"
       x1="29.242302"
       y1="36.110771"
       x2="18.384932"
       y2="7.9983225"
       gradientUnits="userSpaceOnUse" />
  </defs>
  <sodipodi:namedview
     pagecolor="#ffffff"
     bordercolor="#666666"
     borderopacity="1"
     objecttolerance="10"
     gridtolerance="10"
     guidetolerance="10"
     inkscape:pageopacity="0"
     inkscape:pageshadow="2"
     inkscape:window-width="1920"
     inkscape:window-height="1020"
     id="namedview20"
     showgrid="false"
     inkscape:zoom="14.94"
     inkscape:cx="8.4241566"
     inkscape:cy="18.645248"
     inkscape:window-x="0"
     inkscape:window-y="30"
     inkscape:window-maximized="1"
     inkscape:current-layer="svg18">
    <inkscape:grid
       type="xygrid"
       id="grid828" />
  </sodipodi:namedview>
  <path
     style="opacity:1;vector-effect:none;fill:#3584e4;fill-opacity:1;stroke:none;stroke-width:0.79282486;stroke-linecap:butt;stroke-linejoin:round;stroke-miterlimit:4;stroke-dasharray:none;stroke-dashoffset:0;stroke-opacity:1"
     d="M 5,7 26.773762,5 H 46 V 37 H 31.726908 L 5,35 Z"
     id="rect868"
     inkscape:connector-curvature="0"
     sodipodi:nodetypes="ccccccc" />
  <path
     style="opacity:0.3;fill:url(#linearGradient855);fill-opacity:1;stroke:none;stroke-width:0.5;stroke-linecap:round;stroke-linejoin:round;stroke-miterlimit:4;stroke-dasharray:none;stroke-dashoffset:0;stroke-opacity:1;paint-order:normal"
     d="M 30.619141 13.501953 L 35.248047 22.060547 L 31.632812 30.160156 L 25.275391 36.517578 L 31.726562 37 L 46 37 L 46 23.794922 L 36.375 14.169922 L 30.619141 13.501953 z "
     id="rect841" />
  <path
     style="fill:url(#linearGradient864);fill-opacity:1;fill-rule:evenodd;stroke:none;stroke-width:0.39285713px;stroke-linecap:butt;stroke-linejoin:miter;stroke-opacity:1"
     d="m 2,5 v 32 h 9 v 6 l 5.855469,-6 h 15.80664 c 0,0 1.37075,-0.883567 2.056641,-1.462891 5.734367,-5.077671 7.47952,-14.748807 2.162109,-20.804687 -3.636695,-4.141572 -10.986552,-5.1820456 -15.222656,-1.21875 -2.818549,2.637608 -3.654639,7.712575 -0.861328,10.699219 1.801126,1.926192 5.029116,2.486214 7.005859,0.498047 1.228268,-1.236277 1.578959,-3.62745 0.25,-4.933594 -0.790801,-0.77782 -2.177986,-0.994709 -2.978515,-0.105469 -0.456657,0.502756 -0.579701,1.373809 -0.02734,1.855469 0.293132,0.256312 0.795694,0.322596 1.058594,-0.01563 0.13145,-0.165801 0.166525,-0.447466 -0.02539,-0.583985 -0.08702,-0.05944 -0.226643,-0.0733 -0.287109,0.02734 -0.01577,0.03908 -0.01735,0.104826 0.02734,0.128906 0.01578,0.0081 0.04883,-0.02857 0.04883,-0.0098 v -0.01367 -0.002 c -0.02629,-0.0054 0,-0.01247 0,-0.01367 0.01578,-0.0083 0.04297,0.01322 0.04297,0.0293 0.01314,0.05059 -0.03538,0.09284 -0.08008,0.103515 -0.115677,0.02677 -0.194413,-0.08471 -0.220703,-0.1875 -0.03838,-0.231732 0.179029,-0.409513 0.386719,-0.433593 0.420903,-0.05006 0.730847,0.358436 0.759765,0.75 0.05573,0.737804 -0.635608,1.468327 -1.304687,1.498047 -1.184364,0.05316 -2.006913,-1.097601 -2.033203,-2.216797 -0.03155,-1.879648 1.738229,-3.176696 3.466797,-3.166016 2.779378,0.0159 5.173147,2.531633 5.107422,5.189453 -0.10122,4.12112 -4.011382,6.897127 -7.837891,6.734375 C 18.406628,29.101315 14.692145,23.439227 15,17.894531 15.398098,10.702214 21.415992,5.6730465 28.091797,5 Z"
     id="path872"
     inkscape:connector-curvature="0"
     sodipodi:nodetypes="ccccccccccccccccccccccccccccccccccc" />
  <path
     style="opacity:0.2;vector-effect:none;fill:#000000;fill-opacity:1;stroke:none;stroke-width:0.79282486;stroke-linecap:butt;stroke-linejoin:round;stroke-miterlimit:4;stroke-dasharray:none;stroke-dashoffset:0;stroke-opacity:1"
     d="M 2 36 L 2 37 L 11 37 L 11 36 L 2 36 z M 16.855469 36 L 11 42 L 11 43 L 16.855469 37 L 31.726562 37 L 32.662109 37 L 46 37 L 46 36 L 32.662109 36 L 31.726562 36 L 16.855469 36 z "
     id="path871" />
</svg>
