<?xml version="1.0" encoding="UTF-8" standalone="no"?>
<!-- Generator: Adobe Illustrator 19.0.0, SVG Export Plug-In . SVG Version: 6.00 Build 0)  -->

<svg
   xmlns:dc="http://purl.org/dc/elements/1.1/"
   xmlns:cc="http://creativecommons.org/ns#"
   xmlns:rdf="http://www.w3.org/1999/02/22-rdf-syntax-ns#"
   xmlns:svg="http://www.w3.org/2000/svg"
   xmlns="http://www.w3.org/2000/svg"
   xmlns:xlink="http://www.w3.org/1999/xlink"
   xmlns:sodipodi="http://sodipodi.sourceforge.net/DTD/sodipodi-0.dtd"
   xmlns:inkscape="http://www.inkscape.org/namespaces/inkscape"
   version="1.1"
   id="Layer_1"
   x="0px"
   y="0px"
   viewBox="0 0 48 48"
   xml:space="preserve"
   sodipodi:docname="org.gnome.Eolie.svg"
   inkscape:version="0.92.3 (2405546, 2018-03-11)"
   width="48"
   height="48"><metadata
     id="metadata66"><rdf:RDF><cc:Work
         rdf:about=""><dc:format>image/svg+xml</dc:format><dc:type
           rdf:resource="http://purl.org/dc/dcmitype/StillImage" /><dc:title></dc:title></cc:Work></rdf:RDF></metadata><defs
     id="defs64"><linearGradient
       inkscape:collect="always"
       id="linearGradient982"><stop
         style="stop-color:#2d2a34;stop-opacity:1"
         offset="0"
         id="stop978" /><stop
         style="stop-color:#534c5f;stop-opacity:1"
         offset="1"
         id="stop980" /></linearGradient><linearGradient
       inkscape:collect="always"
       id="linearGradient971"><stop
         style="stop-color:#ffffff;stop-opacity:1;"
         offset="0"
         id="stop967" /><stop
         style="stop-color:#ffffff;stop-opacity:0;"
         offset="1"
         id="stop969" /></linearGradient><linearGradient
       inkscape:collect="always"
       id="linearGradient951"><stop
         style="stop-color:#000000;stop-opacity:1;"
         offset="0"
         id="stop947" /><stop
         style="stop-color:#000000;stop-opacity:0;"
         offset="1"
         id="stop949" /></linearGradient><linearGradient
       inkscape:collect="always"
       id="linearGradient931"><stop
         style="stop-color:#3c89e5;stop-opacity:1;"
         offset="0"
         id="stop927" /><stop
         style="stop-color:#609fea;stop-opacity:1"
         offset="1"
         id="stop929" /></linearGradient><linearGradient
       inkscape:collect="always"
       id="linearGradient923"><stop
         style="stop-color:#144b8f;stop-opacity:1;"
         offset="0"
         id="stop919" /><stop
         style="stop-color:#1d6acb;stop-opacity:1"
         offset="1"
         id="stop921" /></linearGradient><linearGradient
       inkscape:collect="always"
       xlink:href="#linearGradient923"
       id="linearGradient925"
       x1="28"
       y1="34"
       x2="25"
       y2="13"
       gradientUnits="userSpaceOnUse"
       gradientTransform="translate(0,312)" /><linearGradient
       inkscape:collect="always"
       xlink:href="#linearGradient931"
       id="linearGradient933"
       x1="24"
       y1="46"
       x2="20"
       y2="2"
       gradientUnits="userSpaceOnUse" /><linearGradient
       inkscape:collect="always"
       xlink:href="#linearGradient951"
       id="linearGradient953"
       x1="28.845703"
       y1="18.986328"
       x2="34.931641"
       y2="25.072266"
       gradientUnits="userSpaceOnUse" /><linearGradient
       inkscape:collect="always"
       xlink:href="#linearGradient971"
       id="linearGradient973"
       x1="23.25"
       y1="328.25543"
       x2="25.089674"
       y2="348.09238"
       gradientUnits="userSpaceOnUse" /><linearGradient
       inkscape:collect="always"
       xlink:href="#linearGradient982"
       id="linearGradient984"
       x1="26.880434"
       y1="340.00815"
       x2="24.720108"
       y2="331.3125"
       gradientUnits="userSpaceOnUse" /></defs><sodipodi:namedview
     pagecolor="#ffffff"
     bordercolor="#666666"
     borderopacity="1"
     objecttolerance="10"
     gridtolerance="10"
     guidetolerance="10"
     inkscape:pageopacity="0"
     inkscape:pageshadow="2"
     inkscape:window-width="1920"
     inkscape:window-height="1026"
     id="namedview62"
     showgrid="false"
     inkscape:zoom="8.44"
     inkscape:cx="36.538117"
     inkscape:cy="23.212948"
     inkscape:window-x="0"
     inkscape:window-y="30"
     inkscape:window-maximized="1"
     inkscape:current-layer="XMLID_1079_"><inkscape:grid
       type="xygrid"
       id="grid915" /></sodipodi:namedview><g
     id="XMLID_1079_"
     transform="translate(0,-312)"><g
       id="XMLID_1088_" /><path
       style="fill:url(#linearGradient933);fill-opacity:1;stroke-width:0.12222222"
       d="M 24 2 L 18.824219 18.824219 L 2 24 L 18.824219 29.175781 L 24 46 L 29.175781 29.175781 L 46 24 L 29.175781 18.824219 L 24 2 z "
       transform="translate(0,312)"
       id="XMLID_1080_" /><path
       style="fill:#000000;fill-opacity:1;stroke-width:0.12222222;opacity:0.2"
       d="M 3.625 23.5 L 2 24 L 18.824219 29.175781 L 24 46 L 29.175781 29.175781 L 46 24 L 44.375 23.5 L 29.175781 28.175781 L 24 45 L 18.824219 28.175781 L 3.625 23.5 z "
       transform="translate(0,312)"
       id="path986" /><polygon
       points="180,180 137.647,222.354 0,180 "
       style="fill:#ffffff;fill-opacity:0"
       id="XMLID_81_"
       transform="matrix(0.12222222,0,0,0.12222222,2.0000004,314)" /><path
       inkscape:connector-curvature="0"
       id="XMLID_1090_"
       d="m 10.554688,322.55469 4.078124,7.70312 A 11,11 0 0 0 13,336 a 11,11 0 0 0 1.630859,5.74609 l -4.076171,7.69922 7.703124,-4.07812 A 11,11 0 0 0 24,347 a 11,11 0 0 0 5.746094,-1.63086 l 7.699218,4.07617 -4.078124,-7.70312 A 11,11 0 0 0 35,336 11,11 0 0 0 33.369141,330.25391 l 4.076171,-7.69922 -7.703124,4.07812 A 11,11 0 0 0 24,325 a 11,11 0 0 0 -5.746094,1.63086 z"
       style="fill:url(#linearGradient925);fill-opacity:1;stroke-width:0.12222222" /><path
       style="fill:url(#linearGradient953);fill-opacity:1;stroke-width:0.12222222;opacity:0.3"
       d="M 29.300781 19.441406 A 7 7 0 0 1 31 24 A 7 7 0 0 1 24 31 A 7 7 0 0 1 19.541016 29.390625 L 25.09375 34.943359 A 11 11 0 0 0 29.746094 33.369141 L 37.445312 37.445312 L 33.367188 29.742188 A 11 11 0 0 0 34.931641 25.072266 L 29.300781 19.441406 z "
       transform="translate(0,312)"
       id="path942" /><g
       id="XMLID_1091_"
       transform="matrix(0.12222222,0,0,0.12222222,2.0000004,314)" /><g
       id="XMLID_1093_"
       transform="matrix(0.12222222,0,0,0.12222222,2.0000004,314)" /><g
       id="XMLID_1095_"
       transform="matrix(0.12222222,0,0,0.12222222,2.0000004,314)" /><circle
       r="7"
       cy="336"
       cx="24"
       style="fill:url(#linearGradient973);stroke-width:0.11666667;fill-opacity:1"
       id="XMLID_1101_" /><circle
       id="XMLID_1102_"
       style="fill:url(#linearGradient984);fill-opacity:1;stroke-width:0.125"
       cx="24"
       cy="336"
       r="5" /></g><g
     id="g31"
     transform="translate(0,-312)" /><g
     id="g33"
     transform="translate(0,-312)" /><g
     id="g35"
     transform="translate(0,-312)" /><g
     id="g37"
     transform="translate(0,-312)" /><g
     id="g39"
     transform="translate(0,-312)" /><g
     id="g41"
     transform="translate(0,-312)" /><g
     id="g43"
     transform="translate(0,-312)" /><g
     id="g45"
     transform="translate(0,-312)" /><g
     id="g47"
     transform="translate(0,-312)" /><g
     id="g49"
     transform="translate(0,-312)" /><g
     id="g51"
     transform="translate(0,-312)" /><g
     id="g53"
     transform="translate(0,-312)" /><g
     id="g55"
     transform="translate(0,-312)" /><g
     id="g57"
     transform="translate(0,-312)" /><g
     id="g59"
     transform="translate(0,-312)" /></svg>