<?xml version="1.0" encoding="UTF-8" standalone="no"?>
<svg
   xmlns:dc="http://purl.org/dc/elements/1.1/"
   xmlns:cc="http://creativecommons.org/ns#"
   xmlns:rdf="http://www.w3.org/1999/02/22-rdf-syntax-ns#"
   xmlns:svg="http://www.w3.org/2000/svg"
   xmlns="http://www.w3.org/2000/svg"
   xmlns:sodipodi="http://sodipodi.sourceforge.net/DTD/sodipodi-0.dtd"
   xmlns:inkscape="http://www.inkscape.org/namespaces/inkscape"
   width="16"
   height="16"
   version="1.1"
   id="svg8"
   sodipodi:docname="preferences-system-search-symbolic.svg"
   inkscape:version="0.92.3 (2405546, 2018-03-11)">
  <metadata
     id="metadata14">
    <rdf:RDF>
      <cc:Work
         rdf:about="">
        <dc:format>image/svg+xml</dc:format>
        <dc:type
           rdf:resource="http://purl.org/dc/dcmitype/StillImage" />
      </cc:Work>
    </rdf:RDF>
  </metadata>
  <defs
     id="defs12" />
  <sodipodi:namedview
     pagecolor="#ffffff"
     bordercolor="#666666"
     borderopacity="1"
     objecttolerance="10"
     gridtolerance="10"
     guidetolerance="10"
     inkscape:pageopacity="0"
     inkscape:pageshadow="2"
     inkscape:window-width="1920"
     inkscape:window-height="1026"
     id="namedview10"
     showgrid="false"
     inkscape:zoom="14.75"
     inkscape:cx="8.1355932"
     inkscape:cy="8"
     inkscape:window-x="0"
     inkscape:window-y="30"
     inkscape:window-maximized="1"
     inkscape:current-layer="svg8" />
  <path
     inkscape:connector-curvature="0"
     style="fill:#eff0f1;fill-opacity:1;stroke:none"
     d="M 6,2e-7 C 2.6759952,2e-7 0,2.6759954 0,5.9999998 0,9.3240048 2.6759952,12 6,12 7.481205,12 8.830584,11.465318 9.875,10.582031 L 15.292969,16 16,15.292969 10.582031,9.8749998 C 11.465318,8.8305838 12,7.4812048 12,5.9999998 12,2.6759954 9.324005,2e-7 6,2e-7 Z m 0,1 c 2.770005,0 5,2.2299952 5,4.9999996 C 11,8.7700048 8.770005,11 6,11 3.2299952,11 1,8.7700048 1,5.9999998 1,3.2299954 3.2299952,1.0000002 6,1.0000002 Z"
     class="ColorScheme-Text"
     id="path4-3" />
</svg>
