<?xml version="1.0" encoding="UTF-8" standalone="no"?>
<svg
   width="22"
   height="22"
   version="1.1"
   id="svg24"
   sodipodi:docname="weather-few-clouds.svg"
   inkscape:version="1.1.1 (3bf5ae0d25, 2021-09-20, custom)"
   xmlns:inkscape="http://www.inkscape.org/namespaces/inkscape"
   xmlns:sodipodi="http://sodipodi.sourceforge.net/DTD/sodipodi-0.dtd"
   xmlns:xlink="http://www.w3.org/1999/xlink"
   xmlns="http://www.w3.org/2000/svg"
   xmlns:svg="http://www.w3.org/2000/svg">
  <sodipodi:namedview
     id="namedview26"
     pagecolor="#ffffff"
     bordercolor="#666666"
     borderopacity="1.0"
     inkscape:pageshadow="2"
     inkscape:pageopacity="0.0"
     inkscape:pagecheckerboard="0"
     showgrid="false"
     inkscape:zoom="8.8977273"
     inkscape:cx="3.0906769"
     inkscape:cy="14.666667"
     inkscape:window-width="1920"
     inkscape:window-height="999"
     inkscape:window-x="0"
     inkscape:window-y="0"
     inkscape:window-maximized="1"
     inkscape:current-layer="svg24"
     showguides="true" />
  <defs
     id="defs14">
    <linearGradient
       inkscape:collect="always"
       id="linearGradient1391">
      <stop
         style="stop-color:#eff1f1;stop-opacity:1;"
         offset="0"
         id="stop1387" />
      <stop
         style="stop-color:#b0b8b8;stop-opacity:1"
         offset="1"
         id="stop1389" />
    </linearGradient>
    <linearGradient
       id="0">
      <stop
         stop-color="#faffa5"
         id="stop2" />
      <stop
         offset="1"
         stop-color="#edf573"
         id="stop4" />
    </linearGradient>
    <linearGradient
       id="1">
      <stop
         stop-color="#f0ff01"
         id="stop7" />
      <stop
         offset="1"
         stop-color="#ff9701"
         id="stop9" />
    </linearGradient>
    <linearGradient
       xlink:href="#1"
       id="2"
       y1="502.798"
       x2="0"
       y2="582.79797"
       gradientUnits="userSpaceOnUse"
       gradientTransform="matrix(0.45000029,0,0,0.45000029,-172.85724,-224.70924)" />
    <linearGradient
       xlink:href="#0"
       id="3"
       y1="507.798"
       x2="0"
       y2="547.79797"
       gradientUnits="userSpaceOnUse"
       gradientTransform="matrix(0.41176387,0,0,0.41176387,-157.23493,-204.68107)" />
    <linearGradient
       inkscape:collect="always"
       xlink:href="#linearGradient1391"
       id="linearGradient1393"
       x1="13"
       y1="12.5"
       x2="13.853129"
       y2="19.955938"
       gradientUnits="userSpaceOnUse" />
    <linearGradient
       inkscape:collect="always"
       xlink:href="#linearGradient1391"
       id="linearGradient3636"
       x1="8.2980337"
       y1="1.9735005"
       x2="8.2781439"
       y2="6.5629215"
       gradientUnits="userSpaceOnUse"
       gradientTransform="translate(0,1.0000018)" />
  </defs>
  <metadata
     id="metadata16" />
  <path
     id="rect18"
     style="fill:url(#2);stroke-width:0.449999"
     d="m 10.999997,1.9999982 c 4.986,0 9,4.014 9,8.9999998 v 10e-6 c 0,4.986 -4.014,9 -9,9 -4.9859999,0 -8.9999999,-4.014 -8.9999999,-9 v -10e-6 c 0,-4.9859998 4.014,-8.9999998 8.9999999,-8.9999998 z" />
  <rect
     width="14"
     height="14.00001"
     x="4.0000005"
     y="4.0000014"
     fill="url(#3)"
     rx="7.0000024"
     id="rect20"
     style="fill:url(#3);stroke-width:0.411761" />
  <path
     id="rect953"
     style="stroke-width:0.583333;stroke-linejoin:round;fill:url(#linearGradient1393);fill-opacity:1"
     d="m 10.5,13 h 7 c 1.939,0 3.5,1.561 3.5,3.5 0,1.939 -1.561,3.5 -3.5,3.5 h -7 C 8.561,20 7,18.439 7,16.5 7,14.561 8.561,13 10.5,13 Z" />
  <path
     id="rect1057"
     style="fill:#000000;opacity:0.2;stroke-width:0.5;stroke-linejoin:round"
     d="M 7.0371094 16 C 7.0139896 16.163114 7 16.330302 7 16.5 C 7 18.439 8.561 20 10.5 20 L 17.5 20 C 19.439 20 21 18.439 21 16.5 C 21 16.330302 20.98601 16.163114 20.962891 16 C 20.72184 17.700661 19.269302 19 17.5 19 L 10.5 19 C 8.7306978 19 7.2781603 17.700661 7.0371094 16 z " />
  <path
     id="rect2111"
     style="fill:url(#linearGradient3636);fill-opacity:1;stroke-width:0.622154;stroke-linejoin:round"
     d="m 3.9999971,3 h 3.9999996 c 1.108,0 2,0.892 2,2 0,1.108 -0.892,2 -2,2 H 3.9999971 c -1.108,0 -2,-0.892 -2,-2 0,-1.108 0.892,-2 2,-2 z" />
  <path
     id="rect3401"
     style="fill:#000000;opacity:0.2;stroke-width:0.5;stroke-linejoin:round"
     d="M 2.015625,4.7460956 C 2.0052797,4.828844 2,4.9140995 2,5.0000018 c 0,1.108 0.892,2 2,2 h 4 c 1.108,0 2,-0.892 2,-2 C 10,4.9140995 9.9947203,4.828844 9.984375,4.7460956 9.8635894,5.7369176 9.024482,6.5000018 8,6.5000018 H 4 c -1.024482,0 -1.8635894,-0.7630842 -1.984375,-1.7539062 z" />
</svg>
