<?xml version="1.0" encoding="UTF-8" standalone="no"?>
<!-- Created with Inkscape (http://www.inkscape.org/) -->

<svg
   width="64"
   height="64"
   viewBox="0 0 16.933333 16.933334"
   version="1.1"
   id="svg1615"
   inkscape:version="1.1.1 (3bf5ae0d25, 2021-09-20, custom)"
   sodipodi:docname="folder-games.svg"
   xmlns:inkscape="http://www.inkscape.org/namespaces/inkscape"
   xmlns:sodipodi="http://sodipodi.sourceforge.net/DTD/sodipodi-0.dtd"
   xmlns:xlink="http://www.w3.org/1999/xlink"
   xmlns="http://www.w3.org/2000/svg"
   xmlns:svg="http://www.w3.org/2000/svg">
  <sodipodi:namedview
     id="namedview1617"
     pagecolor="#ffffff"
     bordercolor="#666666"
     borderopacity="1.0"
     inkscape:pageshadow="2"
     inkscape:pageopacity="0.0"
     inkscape:pagecheckerboard="0"
     inkscape:document-units="px"
     showgrid="true"
     units="px"
     inkscape:zoom="4.430466"
     inkscape:cx="16.928242"
     inkscape:cy="19.411051"
     inkscape:window-width="1920"
     inkscape:window-height="1007"
     inkscape:window-x="0"
     inkscape:window-y="0"
     inkscape:window-maximized="1"
     inkscape:current-layer="svg1615">
    <inkscape:grid
       type="xygrid"
       id="grid1778" />
  </sodipodi:namedview>
  <defs
     id="defs1612">
    <style
       type="text/css"
       id="current-color-scheme">
      .ColorScheme-Text {
        color:#31363b;
      }
      .ColorScheme-Highlight {
        color:#3daee9;
      }
      </style>
    <linearGradient
       inkscape:collect="always"
       xlink:href="#linearGradient1263"
       id="linearGradient1265"
       x1="5.2916665"
       y1="-0.5291667"
       x2="5.2916665"
       y2="4.4979167"
       gradientUnits="userSpaceOnUse"
       gradientTransform="translate(-0.26458375)" />
    <linearGradient
       inkscape:collect="always"
       id="linearGradient1263">
      <stop
         style="stop-color:currentColor;stop-opacity:1;"
         class="ColorScheme-Text"
         offset="0"
         id="stop1259" />
      <stop
         style="stop-color:currentColor;stop-opacity:0;"
         class="ColorScheme-Text"
         offset="1"
         id="stop1261" />
    </linearGradient>
    <linearGradient
       inkscape:collect="always"
       xlink:href="#linearGradient2143"
       id="linearGradient2145"
       x1="12.7"
       y1="2.645833"
       x2="12.7"
       y2="14.287499"
       gradientUnits="userSpaceOnUse"
       gradientTransform="translate(2.1166666,0.79375034)" />
    <linearGradient
       inkscape:collect="always"
       id="linearGradient2143">
      <stop
         style="stop-color:#ffffff;stop-opacity:1;"
         offset="0"
         id="stop2139" />
      <stop
         style="stop-color:#ffffff;stop-opacity:0;"
         offset="1"
         id="stop2141" />
    </linearGradient>
  </defs>
  <path
     id="rect864"
     style="fill:currentColor;stroke-width:0.264583"
     class="ColorScheme-Highlight"
     d="M 0.79375001,1.5875 H 7.1437473 l 1.322917,1.5875 7.6729167,-1.32e-5 2e-6,12.1708472 H 0.79375001 Z"
     sodipodi:nodetypes="ccccccc" />
  <path
     id="rect3366"
     style="opacity:0.5;fill:url(#linearGradient1265);fill-opacity:1;stroke-width:0.264583"
     d="M 0.79374955,1.5875003 7.1437501,1.5875 8.4666667,3.175 h 7.6729163 l 1e-6,0.2645833 -7.6729173,1e-7 -1.3229166,1.5875 H 0.79375001 Z"
     sodipodi:nodetypes="ccccccccc" />
  <path
     id="rect1847"
     style="opacity:0.3;fill:url(#linearGradient2145);fill-opacity:1;stroke-width:0.264583"
     d="M 0.79375001,5.0270834 H 7.1437501 l 1.3229166,-1.5875 H 16.139583 V 15.08125 H 0.79375001 Z"
     sodipodi:nodetypes="ccccccc" />
  <path
     id="rect1287"
     style="fill:currentColor;fill-opacity:0.2;stroke-width:0.264583"
     class="ColorScheme-Text"
     d="m 0.79375001,1.5875 6.35000099,-3e-7 1.3229166,1.5875 H 16.139584 V 3.439583 l -7.6729154,1e-7 -1.3229185,1.5874998 -6.35000009,5e-7 z"
     sodipodi:nodetypes="ccccccccc" />
  <rect
     style="fill:#000000;fill-opacity:0.235294;stroke-width:0.177687"
     id="rect5839"
     width="15.345834"
     height="0.26458332"
     x="0.79375064"
     y="15.08125" />
  <path
     id="rect3586"
     style="fill:currentColor;fill-opacity:0.2;stroke-width:0.264583"
     class="ColorScheme-Text"
     d="m 0.79375001,4.7625 6.08541699,3e-7 1.5874997,-1.3229169 -1.3229166,1.5875 -6.35000009,-2e-7 z"
     sodipodi:nodetypes="cccccc" />
  <path
     id="rect870"
     style="fill:#ffffff;fill-opacity:0.2;stroke-width:0.118237"
     d="M 7.1437501,1.5875 8.4666667,3.4395834 H 16.139583 V 3.175 H 8.4666667 Z m 1.3229166,1.8520834 -1.3229166,1.5875 H 0.79375001 V 5.2916667 H 7.4083334 Z"
     sodipodi:nodetypes="cccccccccccc" />
  <path
     id="rect865-3"
     style="opacity:0.5;fill:currentColor;stroke-width:9.0768e-05"
     class="ColorScheme-Text"
     d="m 6.6145801,7.6729168 c -0.58449,0 -1.05833,0.71075 -1.05833,1.5875 v 1.8520802 c 0,0.29226 0.23692,0.52972 0.52917,0.52917 0.24396,-5.3e-4 0.37413,-0.15503 0.37413,-0.15503 l 0.63872,-0.63976 0.17984,7.5e-4 c 0.12448,0.16599 0.31963,0.26394 0.5271,0.26459 0.20747,-7.5e-4 0.40261,-0.0986 0.5271,-0.26459 h 0.24029 c 0.12449,0.16599 0.31963,0.26393 0.5271,0.26459 0.20747,-7.5e-4 0.40262,-0.0986 0.5271,-0.26459 l 0.2082596,-7.5e-4 0.6387193,0.63976 c 0,0 0.13017,0.15458 0.37413,0.15503 0.29226,5.3e-4 0.52917,-0.23692 0.52917,-0.52917 V 9.2604168 c 0,-0.87675 -0.47383,-1.5875 -1.05833,-1.5875 H 8.4666601 Z m 0,0.26459 h 3.7041689 c 0.43838,0 0.79375,0.59229 0.79375,1.32291 v 1.8520802 c 0,0.14613 -0.11846,0.26451 -0.26459,0.26459 -0.11547,6e-5 -0.18706,-0.0775 -0.18706,-0.0775 L 9.9446097,10.582327 H 9.4774501 c -0.0559,0.15819 -0.2053,0.26412 -0.37309,0.26457 -0.1678,-5.2e-4 -0.31718,-0.10638 -0.37311,-0.26457 -0.0238,-7.5e-4 -0.55294,7.5e-4 -0.55294,7.5e-4 -0.0559,0.15819 -0.2053,0.26412 -0.3731,0.26457 -0.16779,-5.2e-4 -0.31718,-0.10638 -0.3731,-0.26457 l -0.44339,-7.5e-4 -0.71623,0.71726 c 0,0 -0.0716,0.0776 -0.18707,0.0775 -0.14613,-8e-5 -0.26458,-0.11846 -0.26458,-0.26459 V 9.2604168 c 0,-0.73062 0.35537,-1.32291 0.79374,-1.32291 z m 0,0.26355 v 0.52916 h -0.52916 v 0.52917 h 0.52916 v 0.5291595 h 0.52917 V 9.2593868 h 0.52917 v -0.52917 h -0.52917 v -0.52916 z m 3.4395899,7.5e-4 a 0.26458332,0.26458332 0 0 0 -0.2645903,0.26457 0.26458332,0.26458332 0 0 0 0.2645903,0.26459 0.26458332,0.26458332 0 0 0 0.264579,-0.26459 0.26458332,0.26458332 0 0 0 -0.264579,-0.26457 z m -0.5291699,0.52916 a 0.26458332,0.26458332 0 0 0 -0.26458,0.26458 0.26458332,0.26458332 0 0 0 0.26458,0.26459 0.26458332,0.26458332 0 0 0 0.2645796,-0.26459 0.26458332,0.26458332 0 0 0 -0.2645796,-0.26458 z m 1.0583389,0 a 0.26458332,0.26458332 0 0 0 -0.26459,0.26458 0.26458332,0.26458332 0 0 0 0.26459,0.26459 0.26458332,0.26458332 0 0 0 0.26457,-0.26459 0.26458332,0.26458332 0 0 0 -0.26457,-0.26458 z m -0.529169,0.52917 A 0.26458332,0.26458332 0 0 0 9.7895797,9.5247163 0.26458332,0.26458332 0 0 0 10.05417,9.7892963 0.26458332,0.26458332 0 0 0 10.318749,9.5247163 0.26458332,0.26458332 0 0 0 10.05417,9.2601368 Z M 7.8052101,9.7892963 a 0.39687497,0.39687497 0 0 0 -0.39688,0.3968807 0.39687497,0.39687497 0 0 0 0.39688,0.39688 0.39687497,0.39687497 0 0 0 0.39688,-0.39688 0.39687497,0.39687497 0 0 0 -0.39688,-0.3968807 z m 1.32292,0 a 0.39687497,0.39687497 0 0 0 -0.39688,0.3968807 0.39687497,0.39687497 0 0 0 0.39688,0.39688 0.39687497,0.39687497 0 0 0 0.39687,-0.39688 0.39687497,0.39687497 0 0 0 -0.39687,-0.3968807 z" />
</svg>
