<?xml version="1.0" encoding="UTF-8" standalone="no"?>
<!-- Created with Inkscape (http://www.inkscape.org/) -->

<svg
   width="64"
   height="64"
   viewBox="0 0 16.933333 16.933334"
   version="1.1"
   id="svg1615"
   inkscape:version="1.1.1 (3bf5ae0d25, 2021-09-20, custom)"
   sodipodi:docname="folder-onedrive.svg"
   xmlns:inkscape="http://www.inkscape.org/namespaces/inkscape"
   xmlns:sodipodi="http://sodipodi.sourceforge.net/DTD/sodipodi-0.dtd"
   xmlns="http://www.w3.org/2000/svg"
   xmlns:svg="http://www.w3.org/2000/svg">
  <sodipodi:namedview
     id="namedview1617"
     pagecolor="#ffffff"
     bordercolor="#666666"
     borderopacity="1.0"
     inkscape:pageshadow="2"
     inkscape:pageopacity="0.0"
     inkscape:pagecheckerboard="0"
     inkscape:document-units="px"
     showgrid="true"
     units="px"
     inkscape:zoom="12.234375"
     inkscape:cx="32"
     inkscape:cy="32"
     inkscape:window-width="1920"
     inkscape:window-height="999"
     inkscape:window-x="0"
     inkscape:window-y="0"
     inkscape:window-maximized="1"
     inkscape:current-layer="svg1615">
    <inkscape:grid
       type="xygrid"
       id="grid1778" />
  </sodipodi:namedview>
  <defs
     id="defs1612">
    <style
       type="text/css"
       id="current-color-scheme">
      .ColorScheme-Text {
        color:#31363b;
      }
      .ColorScheme-Highlight {
        color:#3daee9;
      }
      </style>
  </defs>
  <path
     id="rect864"
     style="fill:currentColor;stroke-width:0.264583"
     class="ColorScheme-Highlight"
     d="M 0.79375001,1.5875 H 7.1437473 l 1.322917,1.5875 7.6729167,-1.32e-5 2e-6,12.1708472 H 0.79375001 Z"
     sodipodi:nodetypes="ccccccc" />
  <path
     id="rect1287"
     style="fill:#31363b;fill-opacity:0.95643151;stroke-width:0.264583;opacity:0.3"
     class="ColorScheme-Text"
     d="m 0.79375001,1.5875 6.35000099,-3e-7 1.3229166,1.5875 H 16.139584 V 3.439583 l -7.6729154,1e-7 -1.3229185,1.5874998 -6.35000009,5e-7 z"
     sodipodi:nodetypes="ccccccccc" />
  <rect
     style="fill:#000000;fill-opacity:0.235294;stroke-width:0.177687"
     id="rect5839"
     width="15.345834"
     height="0.26458332"
     x="0.79375064"
     y="15.08125" />
  <path
     id="rect3586"
     style="fill:currentColor;fill-opacity:0.2;stroke-width:0.264583"
     class="ColorScheme-Text"
     d="m 0.79375001,4.7625 6.08541699,3e-7 1.5874997,-1.3229169 -1.3229166,1.5875 -6.35000009,-2e-7 z"
     sodipodi:nodetypes="cccccc" />
  <path
     id="rect870"
     style="fill:#ffffff;fill-opacity:0.2;stroke-width:0.118237"
     d="M 7.1437501,1.5875 8.4666667,3.4395834 H 16.139583 V 3.175 H 8.4666667 Z m 1.3229166,1.8520834 -1.3229166,1.5875 H 0.79375001 V 5.2916667 H 7.4083334 Z"
     sodipodi:nodetypes="cccccccccccc" />
  <path
     id="rect865-3"
     style="opacity:0.6;fill:currentColor;stroke-width:0.0000756402"
     class="ColorScheme-Text"
     d="m 8.4666734,7.9375101 c -0.8524,0 -1.54341,0.69101 -1.54341,1.54341 2e-5,0.0739 0.005,0.14774 0.0159,0.22091 -0.005,-1.8e-4 -0.0106,-2.2e-4 -0.0159,-4.4e-4 -0.60886,0 -1.10243,0.4935699 -1.10243,1.1024299 0,0.60885 0.49357,1.10244 1.10243,1.10244 h 2.86633 c 0.7306196,0 1.3229096,-0.59229 1.3229096,-1.32292 -6e-5,-0.6507799 -0.47342,-1.2048799 -1.1162096,-1.3065599 -0.10229,-0.76663 -0.7562,-1.33917 -1.52962,-1.33928 z m 0,0.22049 c 0.73063,0 1.32292,0.59229 1.32292,1.32292 0.6088496,0 1.1024196,0.49357 1.1024196,1.1024299 0,0.60885 -0.49357,1.10242 -1.1024196,1.10242 h -2.86633 c -0.48708,0 -0.88195,-0.39485 -0.88195,-0.88194 0,-0.48708 0.39487,-0.8819499 0.88195,-0.8819499 0.11043,1.6e-4 0.21983,0.021 0.32255,0.0616 -0.0665,-0.15926 -0.10113,-0.32998 -0.10206,-0.50255 0,-0.73062 0.59229,-1.32292 1.32292,-1.32292 z" />
</svg>
