<?xml version="1.0" encoding="UTF-8" standalone="no"?>
<svg
   height="16"
   width="16"
   version="1.1"
   id="svg108"
   sodipodi:docname="cs-cat-appearance.svg"
   inkscape:version="1.1 (c4e8f9ed74, 2021-05-24)"
   xmlns:inkscape="http://www.inkscape.org/namespaces/inkscape"
   xmlns:sodipodi="http://sodipodi.sourceforge.net/DTD/sodipodi-0.dtd"
   xmlns:xlink="http://www.w3.org/1999/xlink"
   xmlns="http://www.w3.org/2000/svg"
   xmlns:svg="http://www.w3.org/2000/svg">
  <defs
     id="defs112" />
  <sodipodi:namedview
     id="namedview110"
     pagecolor="#ffffff"
     bordercolor="#666666"
     borderopacity="1.0"
     inkscape:pageshadow="2"
     inkscape:pageopacity="0.0"
     inkscape:pagecheckerboard="0"
     showgrid="false"
     inkscape:zoom="21.53125"
     inkscape:cx="15.976778"
     inkscape:cy="16"
     inkscape:window-width="1920"
     inkscape:window-height="1021"
     inkscape:window-x="0"
     inkscape:window-y="29"
     inkscape:window-maximized="1"
     inkscape:current-layer="svg108" />
  <linearGradient
     id="a">
    <stop
       offset="0"
       stop-color="#e81877"
       id="stop2" />
    <stop
       offset=".312499"
       stop-color="#dd1d8c"
       id="stop4" />
    <stop
       offset=".562499"
       stop-color="#6d57b1"
       id="stop6" />
    <stop
       offset=".75"
       stop-color="#2a78c1"
       id="stop8" />
    <stop
       offset="1"
       stop-color="#018dcb"
       id="stop10" />
  </linearGradient>
  <linearGradient
     id="b">
    <stop
       offset="0"
       stop-color="#e51561"
       id="stop13" />
    <stop
       offset=".312499"
       stop-color="#e4156c"
       id="stop15" />
    <stop
       offset=".562499"
       stop-color="#e71e2c"
       id="stop17" />
    <stop
       offset=".75"
       stop-color="#e8301e"
       id="stop19" />
    <stop
       offset="1"
       stop-color="#e6320e"
       id="stop21" />
  </linearGradient>
  <linearGradient
     id="c">
    <stop
       offset="0"
       stop-color="#bec900"
       id="stop24" />
    <stop
       offset=".312499"
       stop-color="#9ec80a"
       id="stop26" />
    <stop
       offset=".562499"
       stop-color="#71b93d"
       id="stop28" />
    <stop
       offset=".75"
       stop-color="#35a48f"
       id="stop30" />
    <stop
       offset="1"
       stop-color="#018fca"
       id="stop32" />
  </linearGradient>
  <linearGradient
     id="d">
    <stop
       offset="0"
       stop-color="#c1cc00"
       id="stop35" />
    <stop
       offset=".312499"
       stop-color="#dfcd00"
       id="stop37" />
    <stop
       offset=".562499"
       stop-color="#f0cc00"
       id="stop39" />
    <stop
       offset=".75"
       stop-color="#fd8c08"
       id="stop41" />
    <stop
       offset="1"
       stop-color="#f25c13"
       id="stop43" />
  </linearGradient>
  <linearGradient
     id="e"
     gradientTransform="matrix(-0.40403755,-1.5078898,1.5078887,-0.40403789,34.507553,61.88627)"
     gradientUnits="userSpaceOnUse"
     x1="8"
     x2="24.00001"
     xlink:href="#d"
     y1="24"
     y2="8" />
  <linearGradient
     id="f"
     gradientUnits="userSpaceOnUse"
     x1="394.57144"
     x2="408.57144"
     y1="523.79797"
     y2="537.79797">
    <stop
       offset="0"
       stop-color="#292c2f"
       id="stop47" />
    <stop
       offset="1"
       stop-color="#292c2f"
       stop-opacity=".035714"
       id="stop49" />
  </linearGradient>
  <linearGradient
     id="g"
     gradientTransform="matrix(0.99946327,0,0,0.99953344,0.211233,0.25042)"
     gradientUnits="userSpaceOnUse"
     x1="400.57144"
     x2="400.57144"
     y1="536.79797"
     y2="522.79797">
    <stop
       offset="0"
       stop-color="#eff0f1"
       id="stop52" />
    <stop
       offset="1"
       stop-color="#fcfcfc"
       id="stop54" />
  </linearGradient>
  <linearGradient
     id="h"
     gradientTransform="matrix(-1.1038511,-1.103852,1.1038511,-1.103852,60.999973,68.984915)"
     gradientUnits="userSpaceOnUse"
     x1="8"
     x2="24.00001"
     xlink:href="#d"
     y1="24"
     y2="8" />
  <linearGradient
     id="i"
     gradientTransform="matrix(-0.40403755,-1.5078898,-1.5078887,0.40403789,106.88621,42.492466)"
     gradientUnits="userSpaceOnUse"
     x1="8"
     x2="24.00001"
     xlink:href="#c"
     y1="23.999973"
     y2="8" />
  <linearGradient
     id="j"
     gradientTransform="matrix(0.40403755,1.5078898,1.5078887,-0.40403789,15.113754,-10.492425)"
     gradientUnits="userSpaceOnUse"
     x1="8"
     x2="24.00001"
     xlink:href="#b"
     y1="24.000031"
     y2="8" />
  <linearGradient
     id="k"
     gradientTransform="matrix(1.5078887,0.40403789,-0.40403755,1.5078898,34.50755,-29.88626)"
     gradientUnits="userSpaceOnUse"
     x1="8"
     x2="24.00001"
     xlink:href="#a"
     y1="23.999973"
     y2="8" />
  <linearGradient
     id="l"
     gradientTransform="matrix(1.5078887,0.40403789,0.40403755,-1.5078898,15.113751,42.492446)"
     gradientUnits="userSpaceOnUse"
     x1="8"
     x2="24.00001"
     xlink:href="#b"
     y1="24.000031"
     y2="8" />
  <linearGradient
     id="m"
     gradientTransform="matrix(-1.5078887,-0.40403789,-0.40403755,1.5078898,106.88621,-10.492446)"
     gradientUnits="userSpaceOnUse"
     x1="8"
     x2="24.00001"
     xlink:href="#c"
     y1="23.999973"
     y2="8" />
  <linearGradient
     id="n"
     gradientTransform="matrix(-1.5078887,-0.40403789,0.40403755,-1.5078898,87.492393,61.88626)"
     gradientUnits="userSpaceOnUse"
     x1="8"
     x2="24.00001"
     xlink:href="#d"
     y1="24"
     y2="8" />
  <linearGradient
     id="o"
     gradientTransform="matrix(1.1038511,1.103852,-1.1038511,1.103852,60.99999,-36.98486)"
     gradientUnits="userSpaceOnUse"
     x1="8"
     x2="24.00001"
     xlink:href="#a"
     y1="23.999973"
     y2="8" />
  <linearGradient
     id="p"
     gradientTransform="matrix(1.1038511,1.103852,1.1038511,-1.103852,8.015131,16.00003)"
     gradientUnits="userSpaceOnUse"
     x1="8"
     x2="24.00001"
     xlink:href="#b"
     y1="24.000031"
     y2="8" />
  <linearGradient
     id="q"
     gradientTransform="matrix(-1.1038511,-1.103852,-1.1038511,1.103852,113.98484,16.00003)"
     gradientUnits="userSpaceOnUse"
     x1="8"
     x2="24.00001"
     xlink:href="#c"
     y1="23.999973"
     y2="8" />
  <linearGradient
     id="r"
     gradientTransform="matrix(0.40403755,1.5078898,-1.5078887,0.40403789,87.49235,-29.88624)"
     gradientUnits="userSpaceOnUse"
     x1="8"
     x2="24.00001"
     xlink:href="#a"
     y1="23.999973"
     y2="8" />
  <g
     transform="matrix(0.49999969,0,0,0.49999969,-192.28559,-257.89884)"
     id="g106">
    <g
       stroke-opacity="0.550265"
       stroke-width="4.37103"
       id="g92">
      <path
         d="M 45,11.712891 V 32 H 56.712891 L 61,16 Z"
         fill="url(#l)"
         transform="translate(339.57143,513.798)"
         id="path68"
         style="fill:url(#l)" />
      <path
         d="M 64.214844,4 61,16 77,20.287109 V 4 Z"
         fill="url(#m)"
         transform="translate(339.57143,513.798)"
         id="path70"
         style="fill:url(#m)" />
      <path
         d="M 61,16 56.712891,32 H 77 V 20.287109 Z"
         fill="url(#n)"
         transform="translate(339.57143,513.798)"
         id="path72"
         style="fill:url(#n)" />
      <path
         d="M 77,11.712891 61,16 65.287109,32 H 77 Z"
         fill="url(#i)"
         opacity="0.3"
         transform="translate(339.57143,513.798)"
         id="path74"
         style="fill:url(#i)" />
      <path
         d="M 73,4 61,16 77,32 V 4 Z"
         fill="url(#q)"
         opacity="0.35"
         transform="translate(339.57143,513.798)"
         id="path76"
         style="fill:url(#q)" />
      <path
         d="M 57.785156,4 61,16 77,11.712891 V 4 Z"
         fill="url(#r)"
         opacity="0.3"
         transform="translate(339.57143,513.798)"
         id="path78"
         style="fill:url(#r)" />
      <path
         d="m 45,4 v 7.712891 L 61,16 64.214844,4 Z"
         fill="url(#k)"
         transform="translate(339.57143,513.798)"
         id="path80"
         style="fill:url(#k)" />
      <path
         d="M 45,4 V 32 L 61,16 49,4 Z"
         fill="url(#p)"
         opacity="0.35"
         transform="translate(339.57143,513.798)"
         id="path82"
         style="fill:url(#p)" />
      <path
         d="M 61,16 45,32 h 32 z"
         fill="url(#h)"
         opacity="0.35"
         transform="translate(339.57143,513.798)"
         id="path84"
         style="fill:url(#h)" />
      <path
         d="M 61,16 45,20.287109 V 32 h 20.287109 z"
         fill="url(#e)"
         opacity="0.3"
         id="path86"
         transform="translate(339.57143,513.798)"
         style="fill:url(#e)" />
      <path
         d="M 45,4 V 20.287109 L 61,16 57.785156,4 Z"
         fill="url(#j)"
         opacity="0.3"
         transform="translate(339.57143,513.798)"
         id="path88"
         style="fill:url(#j)" />
      <path
         d="M 49,4 61,16 73,4 Z"
         fill="url(#o)"
         opacity="0.35"
         transform="translate(339.57143,513.798)"
         id="path90"
         style="fill:url(#o)" />
    </g>
    <path
       d="m 407.43666,522.93472 a 1.7499762,7.8748938 44.997781 0 1 -4.33203,6.80469 1.7499762,7.8748938 44.997781 0 1 -3.54492,3.06054 l 12.9043,12.99805 h 4.10742 v -13.72851 z m -9.84765,7.84961 -0.0176,0.0137 0.004,0.004 a 1.7499762,7.8748938 44.997781 0 1 0.0137,-0.0176 z m 0.13672,0.16992 1.70312,1.71485 c -0.30575,-0.78802 -0.91881,-1.40227 -1.70312,-1.71485 z m 0.69531,1.61914 c 0.4221,0.38858 0.40039,0.94169 0.40039,1.30469 0,1.16824 -1.7472,2.91992 -5.25,2.91992 l 9,9 h 9.07422 z"
       fill="url(#f)"
       opacity="0.25"
       id="path94"
       style="fill:url(#f)" />
    <path
       d="m 384.57144,541.79803 h 32.00001 v 3.99997 h -32.00001 z"
       fill="#ffffff"
       fill-opacity="0.784314"
       stroke-width="1"
       id="path96" />
    <path
       d="m 400.57144,541.79803 h 16.00001 v 3.99997 h -16.00001 z"
       fill="#31363b"
       fill-opacity="0.862245"
       stroke-width="0.707108"
       id="path98" />
    <circle
       cx="413.5715"
       cy="543.79797"
       fill="#eff0f1"
       r="1"
       id="circle100" />
    <path
       d="m 386.57148,542.79797 v 1 h 1 v -1 z m 1,1 v 1 h 1 v -1 z"
       fill="#4d4d4d"
       id="path102" />
    <path
       d="m 407.14523,522.8045 a 1.7499762,7.8748938 44.997781 0 0 -6.51432,4.46054 1.7499762,7.8748938 44.997781 0 0 -3.09995,3.5992 c 0.9415,0.29981 1.67569,1.03404 1.97548,1.97564 a 1.7499762,7.8748938 44.997781 0 0 3.59895,-3.10019 1.7499762,7.8748938 44.997781 0 0 4.33035,-6.80529 1.7499762,7.8748938 44.997781 0 0 -0.29051,-0.1299 m -10.07396,9.32442 c -3.49984,0.93784 -0.87497,3.15348 -3.49984,4.66905 3.5028,0 5.24975,-1.75076 5.24975,-2.919 0,-0.58179 0.0591,-1.65331 -1.74991,-1.75005 z"
       fill="url(#g)"
       id="path104"
       style="fill:url(#g)" />
  </g>
</svg>
