<?xml version="1.0" encoding="UTF-8" standalone="no"?>
<svg
   xmlns:dc="http://purl.org/dc/elements/1.1/"
   xmlns:cc="http://creativecommons.org/ns#"
   xmlns:rdf="http://www.w3.org/1999/02/22-rdf-syntax-ns#"
   xmlns:svg="http://www.w3.org/2000/svg"
   xmlns="http://www.w3.org/2000/svg"
   xmlns:sodipodi="http://sodipodi.sourceforge.net/DTD/sodipodi-0.dtd"
   xmlns:inkscape="http://www.inkscape.org/namespaces/inkscape"
   width="16"
   height="16"
   version="1.1"
   id="svg6"
   sodipodi:docname="preferences-system-notifications-symbolic.svg"
   inkscape:version="0.92.3 (2405546, 2018-03-11)">
  <metadata
     id="metadata12">
    <rdf:RDF>
      <cc:Work
         rdf:about="">
        <dc:format>image/svg+xml</dc:format>
        <dc:type
           rdf:resource="http://purl.org/dc/dcmitype/StillImage" />
      </cc:Work>
    </rdf:RDF>
  </metadata>
  <defs
     id="defs10" />
  <sodipodi:namedview
     pagecolor="#ffffff"
     bordercolor="#666666"
     borderopacity="1"
     objecttolerance="10"
     gridtolerance="10"
     guidetolerance="10"
     inkscape:pageopacity="0"
     inkscape:pageshadow="2"
     inkscape:window-width="726"
     inkscape:window-height="480"
     id="namedview8"
     showgrid="false"
     inkscape:zoom="14.75"
     inkscape:cx="8"
     inkscape:cy="8"
     inkscape:window-x="108"
     inkscape:window-y="221"
     inkscape:window-maximized="0"
     inkscape:current-layer="svg6" />
  <path
     inkscape:connector-curvature="0"
     d="M 6.2695312,13 A 2,2 0 0 0 6,14 2,2 0 0 0 8.0000002,16 2,2 0 0 0 10,14 2,2 0 0 0 9.7285163,13 Z M 8.0000002,0 a 1,1 0 0 0 -1,1 1,1 0 0 0 0.0098,0.1289062 A 3.9999999,3.9999999 0 0 0 4,5 C 4,8 3,9 1,11 v 1 H 15 V 11 C 13,9 12,8 12,5 A 3.9999999,3.9999999 0 0 0 8.9902343,1.1289062 1,1 0 0 0 9.0000043,1 a 1,1 0 0 0 -1,-1 z m 0,2 A 3,3 0 0 1 11,5 c 0,3 0.585938,4 2.585938,6 H 2.4140621 C 4.414062,9 4.9999996,8 4.9999996,5 A 3,3 0 0 1 8.0000002,2 Z"
     class="ColorScheme-Text"
     id="path3"
     style="fill:#eff0f1;fill-rule:evenodd;fill-opacity:1" />
</svg>
