<?xml version="1.0" encoding="UTF-8" standalone="no"?>
<svg
   xmlns:dc="http://purl.org/dc/elements/1.1/"
   xmlns:cc="http://creativecommons.org/ns#"
   xmlns:rdf="http://www.w3.org/1999/02/22-rdf-syntax-ns#"
   xmlns:svg="http://www.w3.org/2000/svg"
   xmlns="http://www.w3.org/2000/svg"
   xmlns:xlink="http://www.w3.org/1999/xlink"
   xmlns:sodipodi="http://sodipodi.sourceforge.net/DTD/sodipodi-0.dtd"
   xmlns:inkscape="http://www.inkscape.org/namespaces/inkscape"
   viewBox="0 0 48 48"
   version="1.1"
   id="svg38"
   sodipodi:docname="builder.svg"
   inkscape:version="0.92.1 r15371">
  <metadata
     id="metadata44">
    <rdf:RDF>
      <cc:Work
         rdf:about="">
        <dc:format>image/svg+xml</dc:format>
        <dc:type
           rdf:resource="http://purl.org/dc/dcmitype/StillImage" />
        <dc:title />
      </cc:Work>
    </rdf:RDF>
  </metadata>
  <defs
     id="defs42">
    <linearGradient
       inkscape:collect="always"
       id="linearGradient4596">
      <stop
         style="stop-color:#000000;stop-opacity:1;"
         offset="0"
         id="stop4592" />
      <stop
         style="stop-color:#000000;stop-opacity:0;"
         offset="1"
         id="stop4594" />
    </linearGradient>
    <linearGradient
       inkscape:collect="always"
       id="linearGradient4556">
      <stop
         style="stop-color:#3f3f3f;stop-opacity:1;"
         offset="0"
         id="stop4552" />
      <stop
         style="stop-color:#5c5c5c;stop-opacity:1"
         offset="1"
         id="stop4554" />
    </linearGradient>
    <linearGradient
       inkscape:collect="always"
       id="linearGradient4532">
      <stop
         style="stop-color:#ead526;stop-opacity:1"
         offset="0"
         id="stop4528" />
      <stop
         style="stop-color:#f2e999;stop-opacity:1"
         offset="1"
         id="stop4530" />
    </linearGradient>
    <linearGradient
       inkscape:collect="always"
       xlink:href="#linearGradient4532"
       id="linearGradient4534"
       x1="-13.249641"
       y1="31.74749"
       x2="-13.249641"
       y2="16.395983"
       gradientUnits="userSpaceOnUse" />
    <linearGradient
       inkscape:collect="always"
       xlink:href="#linearGradient4532"
       id="linearGradient4542"
       x1="-27.241034"
       y1="15.882353"
       x2="-27.241034"
       y2="4.0459108"
       gradientUnits="userSpaceOnUse" />
    <linearGradient
       inkscape:collect="always"
       xlink:href="#linearGradient4532"
       id="linearGradient4550"
       x1="-12.747489"
       y1="40.215206"
       x2="-12.747489"
       y2="38.134865"
       gradientUnits="userSpaceOnUse" />
    <linearGradient
       inkscape:collect="always"
       xlink:href="#linearGradient4556"
       id="linearGradient4558"
       x1="-13.097561"
       y1="29.73888"
       x2="-13.097561"
       y2="18.189383"
       gradientUnits="userSpaceOnUse" />
    <linearGradient
       inkscape:collect="always"
       xlink:href="#linearGradient4556"
       id="linearGradient4566"
       x1="-27.088953"
       y1="14.088953"
       x2="-27.088953"
       y2="5.9827833"
       gradientUnits="userSpaceOnUse" />
    <linearGradient
       inkscape:collect="always"
       xlink:href="#linearGradient4556"
       id="linearGradient4576"
       x1="43.084747"
       y1="25.464849"
       x2="36.746246"
       y2="19.12635"
       gradientUnits="userSpaceOnUse" />
    <linearGradient
       inkscape:collect="always"
       xlink:href="#linearGradient4596"
       id="linearGradient4598"
       x1="11.382383"
       y1="22.342497"
       x2="18.177071"
       y2="29.137184"
       gradientUnits="userSpaceOnUse" />
    <linearGradient
       inkscape:collect="always"
       xlink:href="#linearGradient4596"
       id="linearGradient4600"
       x1="25.790245"
       y1="9.176652"
       x2="30.668076"
       y2="14.054482"
       gradientUnits="userSpaceOnUse" />
  </defs>
  <sodipodi:namedview
     pagecolor="#ffffff"
     bordercolor="#666666"
     borderopacity="1"
     objecttolerance="10"
     gridtolerance="10"
     guidetolerance="10"
     inkscape:pageopacity="0"
     inkscape:pageshadow="2"
     inkscape:window-width="1600"
     inkscape:window-height="808"
     id="namedview40"
     showgrid="false"
     inkscape:zoom="11.33"
     inkscape:cx="-1.4495973"
     inkscape:cy="29.164053"
     inkscape:window-x="0"
     inkscape:window-y="0"
     inkscape:window-maximized="1"
     inkscape:current-layer="svg38" />
  <path
     style="color:#000000;font-style:normal;font-variant:normal;font-weight:normal;font-stretch:normal;font-size:medium;line-height:normal;font-family:sans-serif;font-variant-ligatures:normal;font-variant-position:normal;font-variant-caps:normal;font-variant-numeric:normal;font-variant-alternates:normal;font-feature-settings:normal;text-indent:0;text-align:start;text-decoration:none;text-decoration-line:none;text-decoration-style:solid;text-decoration-color:#000000;letter-spacing:normal;word-spacing:normal;text-transform:none;writing-mode:lr-tb;direction:ltr;text-orientation:mixed;dominant-baseline:auto;baseline-shift:baseline;text-anchor:start;white-space:normal;shape-padding:0;clip-rule:nonzero;display:inline;overflow:visible;visibility:visible;opacity:1;isolation:auto;mix-blend-mode:normal;color-interpolation:sRGB;color-interpolation-filters:linearRGB;solid-color:#000000;solid-opacity:1;vector-effect:none;fill:#e9ae10;fill-opacity:1;fill-rule:nonzero;stroke:none;stroke-width:8;stroke-linecap:butt;stroke-linejoin:miter;stroke-miterlimit:4;stroke-dasharray:none;stroke-dashoffset:0;stroke-opacity:1;color-rendering:auto;image-rendering:auto;shape-rendering:auto;text-rendering:auto;enable-background:accumulate"
     d="M 24.171875 7.171875 L 10.171875 21.171875 L 13 24 L 7 24 L 7 41 L 19 41 L 19 24 L 18.65625 24 L 27.707031 14.949219 L 34.878906 22.121094 L 39.121094 17.878906 L 29.121094 7.8789062 L 27 10 L 24.171875 7.171875 z "
     id="path2" />
  <rect
     ry="2"
     transform="scale(-1,1)"
     height="4"
     width="16"
     y="38.071735"
     x="-21"
     id="rect8"
     style="fill:url(#linearGradient4550);fill-opacity:1" />
  <path
     style="enable-background:new"
     fill="#3f3f3f"
     d="m21 40c2 0 2 2 2 2v2h-20v-2c0-2 2-2 2-2z"
     id="path12" />
  <rect
     ry="8"
     style="enable-background:new;fill:url(#linearGradient4534);fill-opacity:1"
     transform="scale(-1,1)"
     height="16"
     width="16"
     y="16"
     x="-21"
     fill="#d6c84a"
     id="rect14" />
  <path
     style="opacity:0.2;vector-effect:none;fill:url(#linearGradient4598);fill-opacity:1;stroke:none;stroke-width:3.61059594;stroke-linecap:round;stroke-linejoin:round;stroke-miterlimit:4;stroke-dasharray:none;stroke-dashoffset:0;stroke-opacity:1"
     d="M 14.169922 18.863281 L 7.7636719 25.777344 L 8.6777344 28.162109 L 12.490234 31.974609 C 12.659603 31.985215 12.827866 32 13 32 C 17.432 32 21 28.432 21 24 C 21 23.827208 20.985296 23.658286 20.974609 23.488281 L 17.009766 19.523438 L 14.169922 18.863281 z "
     id="rect4578" />
  <rect
     ry="6"
     style="enable-background:new;fill-opacity:1;fill:url(#linearGradient4558)"
     transform="scale(-1,1)"
     height="12"
     width="12"
     y="18"
     x="-19"
     fill="#3f3f3f"
     id="rect16" />
  <rect
     ry="6"
     style="enable-background:new;fill-opacity:1;fill:url(#linearGradient4542)"
     transform="scale(-1,1)"
     height="12"
     width="12"
     y="4"
     x="-33"
     fill="#d6c84a"
     id="rect22" />
  <path
     style="color:#000000;font-style:normal;font-variant:normal;font-weight:normal;font-stretch:normal;font-size:medium;line-height:normal;font-family:sans-serif;font-variant-ligatures:normal;font-variant-position:normal;font-variant-caps:normal;font-variant-numeric:normal;font-variant-alternates:normal;font-feature-settings:normal;text-indent:0;text-align:start;text-decoration:none;text-decoration-line:none;text-decoration-style:solid;text-decoration-color:#000000;letter-spacing:normal;word-spacing:normal;text-transform:none;writing-mode:lr-tb;direction:ltr;text-orientation:mixed;dominant-baseline:auto;baseline-shift:baseline;text-anchor:start;white-space:normal;shape-padding:0;clip-rule:nonzero;display:inline;overflow:visible;visibility:visible;opacity:1;isolation:auto;mix-blend-mode:normal;color-interpolation:sRGB;color-interpolation-filters:linearRGB;solid-color:#000000;solid-opacity:1;vector-effect:none;fill:url(#linearGradient4576);fill-opacity:1;fill-rule:nonzero;stroke:none;stroke-width:2;stroke-linecap:round;stroke-linejoin:round;stroke-miterlimit:4;stroke-dasharray:none;stroke-dashoffset:0;stroke-opacity:1;color-rendering:auto;image-rendering:auto;shape-rendering:auto;text-rendering:auto;enable-background:accumulate"
     d="m 39,17 a 1.0001,1.0001 0 0 0 -0.707031,0.292969 l -4,4 A 1.0001,1.0001 0 0 0 34,22 v 4 a 1.0001,1.0001 0 0 0 0.552734,0.894531 l 4,2 a 1.0001163,1.0001163 0 1 0 0.894532,-1.789062 L 36,25.382812 v -2.96875 L 39.414062,19 h 2.96875 l 1.722657,3.447266 a 1.0001163,1.0001163 0 1 0 1.789062,-0.894532 l -2,-4 A 1.0001,1.0001 0 0 0 43,17 Z"
     id="path24"
     inkscape:connector-curvature="0" />
  <path
     style="opacity:0.2;vector-effect:none;fill:url(#linearGradient4600);fill-opacity:1;stroke:none;stroke-width:3.00617552;stroke-linecap:round;stroke-linejoin:round;stroke-miterlimit:4;stroke-dasharray:none;stroke-dashoffset:0;stroke-opacity:1"
     d="M 27.476562 6.6054688 L 24.435547 10.001953 L 24.113281 12.775391 L 27.322266 15.984375 C 30.398686 15.822064 32.841532 13.368294 32.986328 10.287109 L 29.818359 7.1210938 L 27.476562 6.6054688 z "
     id="rect4581" />
  <rect
     ry="4"
     style="enable-background:new;fill-opacity:1;fill:url(#linearGradient4566)"
     transform="scale(-1,1)"
     height="8"
     width="8"
     y="6"
     x="-31"
     fill="#3f3f3f"
     id="rect26" />
  <path
     style="enable-background:new;fill:#0d0d0d;fill-opacity:1;opacity:0.2"
     d="M 3 43 L 3 44 L 23 44 L 23 43 L 3 43 z "
     id="path4602" />
  <path
     style="color:#000000;font-style:normal;font-variant:normal;font-weight:normal;font-stretch:normal;font-size:medium;line-height:normal;font-family:sans-serif;font-variant-ligatures:normal;font-variant-position:normal;font-variant-caps:normal;font-variant-numeric:normal;font-variant-alternates:normal;font-feature-settings:normal;text-indent:0;text-align:start;text-decoration:none;text-decoration-line:none;text-decoration-style:solid;text-decoration-color:#000000;letter-spacing:normal;word-spacing:normal;text-transform:none;writing-mode:lr-tb;direction:ltr;text-orientation:mixed;dominant-baseline:auto;baseline-shift:baseline;text-anchor:start;white-space:normal;shape-padding:0;clip-rule:nonzero;display:inline;overflow:visible;visibility:visible;opacity:0.2;isolation:auto;mix-blend-mode:normal;color-interpolation:sRGB;color-interpolation-filters:linearRGB;solid-color:#000000;solid-opacity:1;vector-effect:none;fill:#0d0d0d;fill-opacity:1;fill-rule:nonzero;stroke:none;stroke-width:2;stroke-linecap:round;stroke-linejoin:round;stroke-miterlimit:4;stroke-dasharray:none;stroke-dashoffset:0;stroke-opacity:1;color-rendering:auto;image-rendering:auto;shape-rendering:auto;text-rendering:auto;enable-background:accumulate"
     d="M 39.414062 18 L 36 21.414062 L 36 22.414062 L 39.414062 19 L 42.382812 19 L 44.105469 22.447266 A 1.0001163 1.0001163 0 1 0 45.894531 21.552734 L 45.867188 21.498047 A 1.0001163 1.0001163 0 0 1 44.105469 21.447266 L 42.382812 18 L 39.414062 18 z M 34 25 L 34 26 A 1.0001 1.0001 0 0 0 34.552734 26.894531 L 38.552734 28.894531 A 1.0001163 1.0001163 0 0 0 39.865234 27.501953 A 1.0001163 1.0001163 0 0 1 38.552734 27.894531 L 34.552734 25.894531 A 1.0001 1.0001 0 0 1 34 25 z "
     id="path4608" />
</svg>
