<?xml version="1.0" encoding="UTF-8" standalone="no"?>
<svg
   xmlns:dc="http://purl.org/dc/elements/1.1/"
   xmlns:cc="http://creativecommons.org/ns#"
   xmlns:rdf="http://www.w3.org/1999/02/22-rdf-syntax-ns#"
   xmlns:svg="http://www.w3.org/2000/svg"
   xmlns="http://www.w3.org/2000/svg"
   xmlns:xlink="http://www.w3.org/1999/xlink"
   xmlns:sodipodi="http://sodipodi.sourceforge.net/DTD/sodipodi-0.dtd"
   xmlns:inkscape="http://www.inkscape.org/namespaces/inkscape"
   width="48"
   height="48"
   x="0"
   y="0"
   version="1.1"
   xml:space="preserve"
   id="svg20"
   sodipodi:docname="crow-translate.svg"
   inkscape:version="0.92.3 (2405546, 2018-03-11)"><metadata
   id="metadata26"><rdf:RDF><cc:Work
       rdf:about=""><dc:format>image/svg+xml</dc:format><dc:type
         rdf:resource="http://purl.org/dc/dcmitype/StillImage" /></cc:Work></rdf:RDF></metadata><defs
   id="defs24"><linearGradient
     inkscape:collect="always"
     id="linearGradient877"><stop
       style="stop-color:#242424;stop-opacity:1"
       offset="0"
       id="stop873" /><stop
       style="stop-color:#3f3f3f;stop-opacity:1"
       offset="1"
       id="stop875" /></linearGradient><linearGradient
     inkscape:collect="always"
     id="linearGradient869"><stop
       style="stop-color:#41d444;stop-opacity:1;"
       offset="0"
       id="stop865" /><stop
       style="stop-color:#117c13;stop-opacity:1"
       offset="1"
       id="stop867" /></linearGradient><linearGradient
     inkscape:collect="always"
     id="linearGradient856"><stop
       style="stop-color:#000000;stop-opacity:1;"
       offset="0"
       id="stop852" /><stop
       style="stop-color:#000000;stop-opacity:0;"
       offset="1"
       id="stop854" /></linearGradient><linearGradient
     inkscape:collect="always"
     id="linearGradient837"><stop
       style="stop-color:#cccccc;stop-opacity:1;"
       offset="0"
       id="stop833" /><stop
       style="stop-color:#fbfbfb;stop-opacity:1"
       offset="1"
       id="stop835" /></linearGradient><linearGradient
     inkscape:collect="always"
     xlink:href="#linearGradient837"
     id="linearGradient839"
     x1="32.747116"
     y1="44.753265"
     x2="22.170637"
     y2="3.554189"
     gradientUnits="userSpaceOnUse" /><linearGradient
     inkscape:collect="always"
     xlink:href="#linearGradient856"
     id="linearGradient858"
     x1="25.833235"
     y1="16.3897"
     x2="37.806915"
     y2="23.302708"
     gradientUnits="userSpaceOnUse" /><linearGradient
     inkscape:collect="always"
     xlink:href="#linearGradient869"
     id="linearGradient871"
     x1="24.996927"
     y1="19.507702"
     x2="26.616432"
     y2="38.262505"
     gradientUnits="userSpaceOnUse" /><linearGradient
     inkscape:collect="always"
     xlink:href="#linearGradient877"
     id="linearGradient879"
     x1="17.140661"
     y1="40.083015"
     x2="26.902382"
     y2="11.950807"
     gradientUnits="userSpaceOnUse" /></defs><sodipodi:namedview
   pagecolor="#ffffff"
   bordercolor="#666666"
   borderopacity="1"
   objecttolerance="10"
   gridtolerance="10"
   guidetolerance="10"
   inkscape:pageopacity="0"
   inkscape:pageshadow="2"
   inkscape:window-width="1920"
   inkscape:window-height="1020"
   id="namedview22"
   showgrid="false"
   inkscape:zoom="13.01"
   inkscape:cx="24"
   inkscape:cy="21.13056"
   inkscape:window-x="0"
   inkscape:window-y="30"
   inkscape:window-maximized="1"
   inkscape:current-layer="svg20" />
 
 
 
 
 
 
 
 
 <circle
   style="fill:url(#linearGradient839);fill-opacity:1"
   cx="24"
   cy="24"
   r="20"
   id="circle4" /><path
   inkscape:connector-curvature="0"
   style="opacity:0.2;fill:#000000;fill-opacity:1"
   d="M 43.978516,23.417969 A 20,20 0 0 1 24,43 20,20 0 0 1 4.0214844,23.582031 20,20 0 0 0 4,24 20,20 0 0 0 24,44 20,20 0 0 0 44,24 20,20 0 0 0 43.978516,23.417969 Z"
   id="circle860" /><path
   inkscape:connector-curvature="0"
   style="opacity:0.2;fill:url(#linearGradient858);fill-opacity:1;stroke:none;stroke-width:2.44670057;stroke-linecap:round;stroke-linejoin:round;stroke-miterlimit:4;stroke-dasharray:none;stroke-dashoffset:0;stroke-opacity:1;paint-order:normal"
   d="m 28.371094,2 0.330078,6.0351562 -0.900391,6.9863278 -3.574219,9.03125 -10.03125,10.03125 1.306641,1.306641 -4.119141,4.121094 C 14.825057,42.314965 19.214626,44 24,44 35.045695,44 44,35.045695 44,24 44,21.113853 43.371735,18.38049 42.271484,15.902344 Z"
   id="rect841" /><path
   inkscape:connector-curvature="0"
   style="fill:url(#linearGradient879);fill-opacity:1"
   d="m 30.940354,18.008436 c 0.09463,0.849953 -0.06973,1.7347 0.0249,2.599565 0.09961,0.939423 -0.02988,1.92855 -0.199216,2.85306 -0.01992,-0.750543 -0.03985,-1.511027 -0.07969,-2.24666 -0.03985,-0.775396 -0.34863,-1.570674 -0.557808,-2.326189 0.224119,1.590557 0.323727,3.200995 0.363571,4.796521 0.02988,1.232681 0.03486,2.515067 -0.169334,3.717925 -0.199218,1.173036 -0.81181,2.351042 -1.195302,3.439578 -0.567769,1.610439 -0.388474,3.76266 -0.522945,5.532154 0,0 -0.134471,0.308171 -0.363571,-1.192917 -0.308787,-2.027959 -0.48033,-4.249767 -0.44049,-6.31252 v -0.04971 c 0,-0.02486 -0.0049,-0.06959 -0.0049,-0.06959 0,0 -0.06475,0.188877 -0.0747,0.243553 -0.0049,0.01988 -0.01494,0.07456 -0.01494,0.08947 v 0.0049 c -0.0049,0.02485 -0.01,0.05468 -0.01494,0.08947 -0.0049,0.01988 -0.0049,0.03479 -0.01,0.05467 -0.0049,0.03479 -0.01494,0.07953 -0.01993,0.119292 -0.0049,0.01988 -0.01,0.04473 -0.01,0.06462 -0.02988,0.164027 -0.06973,0.367816 -0.119529,0.611371 -0.244042,1.168065 -1.721386,1.695302 -1.88574,2.873308 -0.0049,0.02485 -2.245337,0.208665 -0.01,0.06959 -0.134472,0.81516 -0.207243,1.095755 -0.710266,1.667362 -0.532905,0.606399 -0.195806,-0.37038 -0.917968,0.05708 0.690463,0.178844 0.02989,-0.01989 0,0 -0.966203,0.656105 1.978794,-0.593937 0.967768,-0.04718 -0.06973,0.03976 0.506462,-0.561333 -0.0498,-0.0099 1.838138,-0.804787 -1.132456,1.674084 -1.097598,1.634313 0.258983,-0.278347 -0.169335,0.31314 0,0 1.399163,-1.941872 -0.0049,0.0099 0,0 0.557808,-1.133271 -0.323393,-0.409165 0.17963,-1.57723 0,0 -0.139452,0.20876 -0.313767,0.457284 -0.219138,0.308171 -0.508003,0.685928 -0.627533,0.830073 -0.946281,1.143211 -1.613658,2.803355 -2.604763,3.891891 -0.358591,0.392669 -0.971183,0.541783 -1.374597,0.924511 -0.378513,0.357875 -0.921379,0.591489 -1.414442,0.675986 -0.796867,0.134204 -1.64354,0.621311 -2.455349,0.919541 0,0 0.47812,-0.571606 0.826751,-1.023921 0.727142,-0.954334 1.3995,-1.958372 2.012092,-2.997204 -0.01494,0.0099 -0.428317,0.347935 -0.69726,0.929482 -0.46816,1.028891 -1.63856,1.799317 -2.450369,2.594594 C 14.310764,42.483069 13.469072,42.826032 12.657263,43 11.287646,42.94532 9.893127,42.796209 8.5633533,42.468157 7.4576988,42.18981 5.4406264,41.548617 5.0372119,40.788132 c -0.054784,-0.109351 -0.079687,-0.546753 0.1494128,-0.964274 0.398434,-0.725692 1.2002825,-1.327121 1.6883643,-2.03293 0.9163983,-1.337061 2.2262502,-3.365021 3.546063,-4.155328 0.732122,-0.437403 1.713267,-0.700839 2.569899,-1.048773 0.393455,-0.134204 0.58271,-0.20379 0.971184,-0.347934 -0.966203,0.21373 -1.897542,0.576576 -2.818921,0.924511 0,0 0.0049,0.0099 0.498042,-0.646165 0.547847,-0.725691 1.270008,-1.327119 1.907503,-1.963342 1.120596,-1.11836 3.849869,-2.927618 3.849869,-2.927618 0,0 -1.449303,0.864866 -2.206328,0.874806 -0.458199,0.0049 -0.906438,0.273377 -1.28495,0.51196 0.46816,-0.526871 0.971183,-1.038831 1.454285,-1.545821 0.976163,-1.033862 2.315897,-1.774465 3.5112,-2.549861 -0.592671,0.124263 -1.250087,0.06462 -1.842758,-0.02485 1.125576,-0.70581 2.221269,-1.506058 3.162571,-2.425599 2.315897,-2.271512 3.456414,-5.601739 5.249368,-8.231128 0.82177,-1.202858 1.957307,-2.251631 3.04802,-3.235788 0,0 0.727142,0.109351 0.836712,0.526872 0.268943,1.038832 0.727142,2.072694 1.080753,3.106555 0.368551,1.058714 0.408395,2.261572 0.532905,3.374961 z"
   id="path10" /><path
   inkscape:connector-curvature="0"
   style="fill:url(#linearGradient871);fill-opacity:1"
   d="m 26.985956,22.553473 c -0.135505,0.04988 0.614992,2.812775 0.854734,4.064557 0.114659,0.598463 0.198048,1.221862 0.140718,1.8303 0,0 -0.06776,0.189512 -0.07817,0.244371 -0.0051,0.01996 -0.01563,0.07481 -0.01563,0.08977 0,0 0,0 0,0.0049 -0.0051,0.02992 -0.01046,0.05486 -0.01563,0.08977 -0.0051,0.01995 -0.0051,0.03491 -0.01046,0.05485 -0.0051,0.03492 -0.01563,0.0798 -0.02086,0.119693 -0.0051,0.01995 -0.01046,0.04488 -0.01046,0.06484 -0.03127,0.164578 -0.07297,0.369051 -0.125083,0.613425 -0.255377,1.171989 -0.437789,2.358939 -0.609779,3.540903 -0.0051,0.02493 -0.0051,0.04488 -0.01046,0.06982 -0.140719,0.817899 -0.40652,1.167002 -0.932911,1.74053 -0.55766,0.608436 -1.229981,1.371475 -1.98569,1.800374 -0.02085,0.01496 -0.05212,0.02992 -0.08339,0.04988 -1.011087,0.65831 -1.949207,1.491171 -3.0072,2.039761 -0.07297,0.03989 -0.09903,0.03989 -0.05211,-0.0099 0.03648,-0.03989 0.07297,-0.0748 0.109448,-0.114705 0.271013,-0.279282 0.531602,-0.588488 0.708802,-0.90268 0.0051,-0.0099 0.01046,-0.01996 0.01563,-0.02992 0.583719,-1.137078 1.110109,-2.329015 1.6365,-3.501005 0.02606,-0.04488 0.03648,-0.06982 0.05734,-0.114706 0.05212,-0.09974 0.0886,-0.209461 0.114659,-0.329154 0.302284,-1.511118 0.625415,-3.266609 0.276225,-4.777727 -0.312707,-1.341553 -0.333555,-1.012398 -0.333555,-1.012398 -0.07817,0.648334 -0.203259,1.301655 -0.390883,1.925053 -0.145931,0.473784 -0.411732,0.887721 -0.448214,1.132093 -0.09903,0.643348 0.171989,1.301656 0.187624,1.341554 -0.01563,-0.02493 -0.250165,-0.403962 -0.302284,-0.967515 -0.05732,-0.613424 0.328344,-1.27672 0.469061,-1.840271 0.229319,-0.912658 -0.229318,-2.229274 -0.02606,-2.89257 0.52639,-1.750504 2.590256,-4.453559 3.429354,-6.877333 0.437791,1.296669 0.776556,2.708043 1.245617,3.914943 0.0417,0.109718 0.05733,0.144628 0.01563,0.09476 -0.218913,-0.483712 -0.802633,-1.456213 -0.802633,-1.456213 z"
   id="path14" /><path
   inkscape:connector-curvature="0"
   style="fill:#666666"
   d="m 28.370387,2.0000005 c 0.792357,2.9271811 0.807498,5.935112 0.671233,8.9228555 -0.151406,3.25018 -1.377794,6.66186 -2.437636,9.730354 -1.115357,3.23504 -2.901946,5.97044 -4.582552,8.902668 -1.54434,2.689978 -3.99207,4.961067 -6.399424,6.873829 -2.099495,1.665465 -4.421053,2.937275 -6.9192501,3.855804 -0.7772171,0.282624 -1.6452777,0.383561 -2.4679165,0.408796 -0.6056237,0.01514 -1.039654,-0.02019 -1.0598414,-0.02019 1.7865898,-0.373468 3.598414,-0.913482 5.183129,-1.826964 4.395819,-2.538573 8.534247,-6.010815 11.113195,-10.441962 1.640231,-2.811103 3.189618,-5.571738 4.269647,-8.660419 0.994232,-2.856525 2.079308,-5.849315 2.377073,-8.86734 0.227108,-2.3064166 0.217015,-4.668349 -0.196828,-6.9596252 0.141312,-0.4794521 0.201874,-0.7217016 0.307859,-1.2011537 0.06056,-0.2927181 0.09084,-0.4340303 0.141312,-0.7166546 z"
   id="path18" />
</svg>