<?xml version="1.0" encoding="UTF-8" standalone="no"?>
<svg
   width="48"
   version="1.1"
   height="48"
   viewBox="0 0 48 48"
   id="svg30"
   sodipodi:docname="discord.svg"
   inkscape:version="1.1 (c4e8f9ed74, 2021-05-24)"
   xmlns:inkscape="http://www.inkscape.org/namespaces/inkscape"
   xmlns:sodipodi="http://sodipodi.sourceforge.net/DTD/sodipodi-0.dtd"
   xmlns:xlink="http://www.w3.org/1999/xlink"
   xmlns="http://www.w3.org/2000/svg"
   xmlns:svg="http://www.w3.org/2000/svg"
   xmlns:rdf="http://www.w3.org/1999/02/22-rdf-syntax-ns#"
   xmlns:cc="http://creativecommons.org/ns#"
   xmlns:dc="http://purl.org/dc/elements/1.1/">
  <metadata
     id="metadata34">
    <rdf:RDF>
      <cc:Work
         rdf:about="">
        <dc:format>image/svg+xml</dc:format>
        <dc:type
           rdf:resource="http://purl.org/dc/dcmitype/StillImage" />
      </cc:Work>
    </rdf:RDF>
  </metadata>
  <sodipodi:namedview
     pagecolor="#ffffff"
     bordercolor="#666666"
     borderopacity="1"
     objecttolerance="10"
     gridtolerance="10"
     guidetolerance="10"
     inkscape:pageopacity="0"
     inkscape:pageshadow="2"
     inkscape:window-width="1920"
     inkscape:window-height="1006"
     id="namedview32"
     showgrid="false"
     inkscape:zoom="8"
     inkscape:cx="1.25"
     inkscape:cy="30.9375"
     inkscape:window-x="0"
     inkscape:window-y="0"
     inkscape:window-maximized="1"
     inkscape:current-layer="svg30"
     inkscape:pagecheckerboard="0" />
  <defs
     id="defs20">
    <linearGradient
       id="linearGradient4084">
      <stop
         style="stop-color:#5866ef;stop-opacity:1"
         offset="0"
         id="stop4080" />
      <stop
         style="stop-color:#9b84ee;stop-opacity:1"
         offset="1"
         id="stop4082" />
    </linearGradient>
    <linearGradient
       inkscape:collect="always"
       id="linearGradient845">
      <stop
         style="stop-color:#ffffff;stop-opacity:1;"
         offset="0"
         id="stop841" />
      <stop
         style="stop-color:#ffffff;stop-opacity:0;"
         offset="1"
         id="stop843" />
    </linearGradient>
    <linearGradient
       id="linearGradient4533">
      <stop
         style="stop-color:#000000;stop-opacity:1"
         offset="0"
         id="stop2" />
      <stop
         style="stop-color:#000000;stop-opacity:0"
         offset="1"
         id="stop4" />
    </linearGradient>
    <linearGradient
       id="linearGradient4507">
      <stop
         style="stop-color:#4762c9;stop-opacity:1"
         offset="0"
         id="stop12" />
      <stop
         style="stop-color:#8698da;stop-opacity:1"
         offset="1"
         id="stop14" />
    </linearGradient>
    <linearGradient
       xlink:href="#linearGradient4507"
       id="linearGradient4509"
       x1="36.853"
       y1="37.567"
       x2="27.831"
       y2="3.893"
       gradientUnits="userSpaceOnUse"
       gradientTransform="translate(-15.543305,5.327629)" />
    <linearGradient
       xlink:href="#linearGradient4533"
       id="linearGradient4535"
       x1="18.519"
       y1="15.562"
       x2="35.158"
       y2="32.202"
       gradientUnits="userSpaceOnUse"
       gradientTransform="translate(-35.206691,-10.474111)" />
    <linearGradient
       inkscape:collect="always"
       xlink:href="#linearGradient845"
       id="linearGradient847"
       x1="23.826086"
       y1="8.0651293"
       x2="32.760868"
       y2="40.456432"
       gradientUnits="userSpaceOnUse"
       gradientTransform="translate(0,3.0001758)" />
    <linearGradient
       inkscape:collect="always"
       xlink:href="#linearGradient4533"
       id="linearGradient2816"
       x1="20.720703"
       y1="15"
       x2="36.752438"
       y2="32.16378"
       gradientUnits="userSpaceOnUse"
       gradientTransform="translate(6.96e-4,6.3e-4)" />
    <linearGradient
       inkscape:collect="always"
       xlink:href="#linearGradient4084"
       id="linearGradient3192"
       x1="34.250381"
       y1="45.622643"
       x2="10.228386"
       y2="2.8234024"
       gradientUnits="userSpaceOnUse" />
  </defs>
  <circle
     style="fill:url(#linearGradient3192);stroke-width:1.92876;fill-opacity:1"
     id="path1121"
     cx="24"
     cy="24"
     r="20" />
  <path
     id="path1121-3"
     style="fill:url(#linearGradient2816);fill-opacity:1;stroke-width:1.92876;opacity:0.2"
     d="m 20.875,15.136895 c 0.02143,0.02298 0.03902,0.04542 0.05078,0.06641 -3.7018,1.102 -5.388672,2.808594 -5.388672,2.808594 0,0 0.45196,-0.259669 1.21289,-0.605469 1.395002,-0.626559 3.079131,-1.102406 5.091797,-1.302734 z m -1.923828,0.121094 c -0.267441,0.06825 -0.556668,0.154528 -0.865234,0.263672 0.308566,-0.109144 0.597793,-0.195419 0.865234,-0.263672 z m -1.839844,0.664062 c -0.339396,0.159565 -0.692801,0.34689 -1.052734,0.566407 0.359933,-0.219517 0.713338,-0.406842 1.052734,-0.566407 z m 16.808594,2.107422 c 0.04605,0.046 0.09578,0.08989 0.140625,0.136719 l -0.134765,-0.136719 z m 0.140625,0.136719 C 36.235772,20.437768 37,23.705304 37,29.736505 c 0,0 -2.726484,3.112471 -7.271484,3.263671 0,0 -0.761946,-0.950384 -1.378906,-1.771484 2.6118,-0.8211 3.599609,-2.529297 3.599609,-2.529297 -2.237095,1.542203 -5.309582,2.260281 -7.949219,2.300781 -2.639637,-0.0405 -5.712123,-0.758578 -7.949218,-2.300781 0,0 0.987809,1.708197 3.599609,2.529297 -0.61696,0.8211 -1.378906,1.771484 -1.378906,1.771484 -3.935627,-0.130927 -6.498235,-2.475348 -7.117188,-3.103515 0.01466,0.01494 0.0083,0.01028 0.02539,0.02734 l 13.060548,13.06055 A 20,20 0 0 0 43.421875,27.525567 Z M 20,23.000176 c -1.11753,0 -2,1.1138 -2,2.5 0,1.3865 0.9021,2.5 2,2.5 1.11754,0 2,-1.1135 2,-2.5 0.0195,-1.3862 -0.8825,-2.5 -2,-2.5 z m 8,0 c -1.1175,0 -2.0195,1.1138 -2,2.5 0,1.3865 0.88246,2.5 2,2.5 1.0979,0 2,-1.1135 2,-2.5 0,-1.3862 -0.88247,-2.5 -2,-2.5 z m 15.205078,6.560547 a 20,20 0 0 1 -0.115234,0.341797 20,20 0 0 0 0.115234,-0.341797 z m -0.949218,2.580078 a 20,20 0 0 1 -0.271485,0.550782 20,20 0 0 0 0.271485,-0.550782 z m -1.300782,2.431641 a 20,20 0 0 1 -0.402343,0.601563 20,20 0 0 0 0.402343,-0.601563 z m -1.615234,2.224609 a 20,20 0 0 1 -0.539062,0.615235 20,20 0 0 0 0.539062,-0.615235 z m -1.910156,1.986328 a 20,20 0 0 1 -0.650391,0.570313 20,20 0 0 0 0.650391,-0.570313 z m -2.181641,1.714844 a 20,20 0 0 1 -0.722656,0.482422 20,20 0 0 0 0.722656,-0.482422 z m -2.388672,1.394532 a 20,20 0 0 1 -0.791015,0.390624 20,20 0 0 0 0.791015,-0.390624 z m -2.611328,1.068359 a 20,20 0 0 1 -0.783203,0.265625 20,20 0 0 0 0.783203,-0.265625 z" />
  <path
     id="path1121-6"
     style="fill:#000000;stroke-width:1.92876;opacity:0.3;fill-opacity:1"
     d="M 44.000002,23.25 A 20,20 0 0 1 24.01758,43 20,20 0 0 1 4.0527362,23.5 20,20 0 0 0 4.0175802,24 20,20 0 0 0 24.01758,44 a 20,20 0 0 0 20,-20 A 20,20 0 0 0 44,23.25 Z" />
  <path
     style="fill:url(#linearGradient847);fill-opacity:1"
     d="m 20.720703,15.000176 c 0,0 -2.798366,-0.06395 -5.759765,2.248047 C 11.999538,19.560223 11,22.843704 11,29.736504 c 0,0 2.726484,3.112472 7.271484,3.263672 0,0 0.761947,-0.950384 1.378907,-1.771484 -2.6118,-0.8211 -3.59961,-2.529297 -3.59961,-2.529297 2.237095,1.542203 5.309582,2.26028 7.949219,2.300781 2.639637,-0.0405 5.712124,-0.758578 7.949219,-2.300781 0,0 -0.98781,1.708197 -3.59961,2.529297 0.61696,0.8211 1.378907,1.771484 1.378907,1.771484 C 34.273516,32.848976 37,29.736504 37,29.736504 c 0,-6.8928 -0.999538,-10.176281 -3.960938,-12.488281 -2.961399,-2.312 -5.759765,-2.248047 -5.759765,-2.248047 l -0.205078,0.203125 c 3.7018,1.102 5.388672,2.808594 5.388672,2.808594 0,0 -0.451961,-0.259669 -1.212891,-0.605469 -1.867374,-0.838724 -4.25,-1.40625 -7.25,-1.40625 -3,0 -5.382626,0.567526 -7.25,1.40625 -0.76093,0.3458 -1.212891,0.605469 -1.212891,0.605469 0,0 1.686872,-1.706594 5.388672,-2.808594 -0.04703,-0.08394 -0.205078,-0.203125 -0.205078,-0.203125 z m -0.720703,8 c 1.1175,0 2.0195,1.1138 2,2.5 0,1.3865 -0.88246,2.5 -2,2.5 -1.0979,0 -2,-1.1135 -2,-2.5 0,-1.3862 0.88247,-2.5 2,-2.5 z m 8,0 c 1.11753,0 2,1.1138 2,2.5 0,1.3865 -0.9021,2.5 -2,2.5 -1.11754,0 -2,-1.1135 -2,-2.5 -0.0195,-1.3862 0.8825,-2.5 2,-2.5 z"
     id="path26" />
</svg>
