<?xml version="1.0" encoding="UTF-8" standalone="no"?>
<!-- Created with Inkscape (http://www.inkscape.org/) -->

<svg
   xmlns:dc="http://purl.org/dc/elements/1.1/"
   xmlns:cc="http://creativecommons.org/ns#"
   xmlns:rdf="http://www.w3.org/1999/02/22-rdf-syntax-ns#"
   xmlns:svg="http://www.w3.org/2000/svg"
   xmlns="http://www.w3.org/2000/svg"
   xmlns:xlink="http://www.w3.org/1999/xlink"
   xmlns:sodipodi="http://sodipodi.sourceforge.net/DTD/sodipodi-0.dtd"
   xmlns:inkscape="http://www.inkscape.org/namespaces/inkscape"
   width="48"
   version="1.1"
   height="48"
   id="svg16"
   sodipodi:docname="preferences-desktop-keyboard-shortcuts.svg"
   inkscape:version="0.92.3 (2405546, 2018-03-11)">
  <sodipodi:namedview
     pagecolor="#ffffff"
     bordercolor="#666666"
     borderopacity="1"
     objecttolerance="10"
     gridtolerance="10"
     guidetolerance="10"
     inkscape:pageopacity="0"
     inkscape:pageshadow="2"
     inkscape:window-width="1920"
     inkscape:window-height="1020"
     id="namedview18"
     showgrid="true"
     inkscape:zoom="20.95"
     inkscape:cx="14.657531"
     inkscape:cy="24.020321"
     inkscape:window-x="0"
     inkscape:window-y="30"
     inkscape:window-maximized="1"
     inkscape:current-layer="g4882">
    <inkscape:grid
       type="xygrid"
       id="grid988" />
  </sodipodi:namedview>
  <defs
     id="defs5455">
    <linearGradient
       inkscape:collect="always"
       id="linearGradient4876">
      <stop
         style="stop-color:#b0b8b8"
         id="stop4878" />
      <stop
         offset="1"
         style="stop-color:#eff1f1"
         id="stop4880" />
    </linearGradient>
    <linearGradient
       inkscape:collect="always"
       xlink:href="#linearGradient4876"
       id="linearGradient4185"
       y1="539.79797"
       y2="506.47214"
       x2="0"
       gradientUnits="userSpaceOnUse"
       gradientTransform="matrix(0.6249997,0,0,0.70588236,145.21441,164.76413)" />
  </defs>
  <metadata
     id="metadata5458">
    <rdf:RDF>
      <cc:Work
         rdf:about="">
        <dc:format>image/svg+xml</dc:format>
        <dc:type
           rdf:resource="http://purl.org/dc/dcmitype/StillImage" />
        <dc:title />
      </cc:Work>
    </rdf:RDF>
  </metadata>
  <g
     inkscape:label="Capa 1"
     inkscape:groupmode="layer"
     id="g4882"
     transform="translate(-376.57144,-509.79798)">
    <rect
       width="40"
       x="380.57144"
       y="521.79797"
       height="24"
       style="fill:url(#linearGradient4185);stroke-width:0.78446454"
       id="rect4177" />
    <rect
       width="39.999981"
       x="380.57144"
       y="544.79797"
       height="1"
       style="fill:#909c9c;stroke-width:0.87705803"
       id="rect4187" />
    <rect
       width="1"
       x="418.57144"
       y="522.79797"
       height="1"
       style="fill:#31c281;stroke-width:1"
       id="rect4462-0-90" />
    <rect
       width="1"
       x="416.57144"
       y="522.79797"
       height="1"
       style="fill:#31c281;stroke-width:1"
       id="rect4975" />
    <rect
       width="1"
       x="414.57144"
       y="522.79797"
       height="1"
       style="fill:#31c281;stroke-width:1"
       id="rect4977" />
    <path
       style="fill:#334545;stroke-width:0.75000077;opacity:0.5"
       d="m 6,16 v 1 h 3 v -1 z"
       transform="translate(376.57144,509.79798)"
       id="path904" />
    <path
       style="fill:#334545;stroke-width:0.75000077;opacity:0.5"
       d="m 10,16 v 1 h 3 v -1 z"
       transform="translate(376.57144,509.79798)"
       id="path902" />
    <path
       style="fill:#334545;stroke-width:0.75000077;opacity:0.5"
       d="m 14,16 v 1 h 3 v -1 z"
       transform="translate(376.57144,509.79798)"
       id="path900" />
    <path
       style="fill:#334545;stroke-width:0.75000077;opacity:0.5"
       d="m 18,16 v 1 h 3 v -1 z"
       transform="translate(376.57144,509.79798)"
       id="path898" />
    <path
       style="fill:#334545;stroke-width:0.75000077;opacity:0.5"
       d="m 22,16 v 1 h 3 v -1 z"
       transform="translate(376.57144,509.79798)"
       id="path896" />
    <path
       style="fill:#334545;stroke-width:0.75000077;opacity:0.5"
       d="m 26,16 v 1 h 3 v -1 z"
       transform="translate(376.57144,509.79798)"
       id="path894" />
    <path
       style="fill:#334545;stroke-width:0.75000077;opacity:0.5"
       d="m 30,16 v 1 h 3 v -1 z"
       transform="translate(376.57144,509.79798)"
       id="path892" />
    <path
       style="fill:#334545;stroke-width:0.75000077;opacity:0.5"
       d="m 34,16 v 1 h 3 v -1 z"
       transform="translate(376.57144,509.79798)"
       id="path890" />
    <path
       style="fill:#334545;stroke-width:0.75000077;opacity:0.5"
       d="m 38,16 v 1 h 3 v -1 z"
       transform="translate(376.57144,509.79798)"
       id="path888" />
    <path
       style="fill:#334545;stroke-width:0.75000077;opacity:0.5"
       d="m 5,18 v 3 h 3 v -3 z"
       transform="translate(376.57144,509.79798)"
       id="path886" />
    <path
       style="fill:#334545;stroke-width:0.75000077;opacity:0.5"
       d="m 9,18 v 3 h 3 v -3 z"
       transform="translate(376.57144,509.79798)"
       id="path884" />
    <path
       style="fill:#334545;stroke-width:0.75000077;opacity:0.5"
       d="m 13,18 v 3 h 3 v -3 z"
       transform="translate(376.57144,509.79798)"
       id="path882" />
    <path
       style="fill:#334545;stroke-width:0.75000077;opacity:0.5"
       d="m 17,18 v 3 h 3 v -3 z"
       transform="translate(376.57144,509.79798)"
       id="path880" />
    <path
       style="fill:#334545;stroke-width:0.75000077;opacity:1"
       d="m 21,18 v 3 h 3 v -3 z"
       transform="translate(376.57144,509.79798)"
       id="path878" />
    <path
       style="fill:#334545;stroke-width:0.75000077;opacity:0.5"
       d="m 25,18 v 3 h 3 v -3 z"
       transform="translate(376.57144,509.79798)"
       id="path876" />
    <path
       style="fill:#334545;stroke-width:0.75000077;opacity:0.5"
       d="m 29,18 v 3 h 3 v -3 z"
       transform="translate(376.57144,509.79798)"
       id="path874" />
    <path
       style="fill:#334545;stroke-width:0.75000077;opacity:0.5"
       d="m 33,18 v 3 h 3 v -3 z"
       transform="translate(376.57144,509.79798)"
       id="path872" />
    <path
       style="fill:#334545;stroke-width:0.75000077;opacity:0.5"
       d="m 37,18 v 3 h 6 v -3 z"
       transform="translate(376.57144,509.79798)"
       id="path870" />
    <path
       style="fill:#334545;stroke-width:0.75000077;opacity:0.5"
       d="m 38,21.923828 v 3 h 5 v -3 z"
       transform="translate(376.57144,509.79798)"
       id="path868" />
    <path
       style="fill:#334545;stroke-width:0.75000077;opacity:0.5"
       d="m 5,22 v 3 h 4 v -3 z"
       transform="translate(376.57144,509.79798)"
       id="path866" />
    <path
       style="fill:#334545;stroke-width:0.75000077;opacity:0.5"
       d="m 10,22 v 3 h 3 v -3 z"
       transform="translate(376.57144,509.79798)"
       id="path864" />
    <path
       style="fill:#334545;stroke-width:0.75000077;opacity:0.5"
       d="m 14,22 v 3 h 3 v -3 z"
       transform="translate(376.57144,509.79798)"
       id="path862" />
    <path
       style="fill:#334545;stroke-width:0.75000077;opacity:1"
       d="m 18,22 v 3 h 3 v -3 z"
       transform="translate(376.57144,509.79798)"
       id="path860" />
    <path
       style="fill:#334545;stroke-width:0.75000077;opacity:0.5"
       d="m 22,22 v 3 h 3 v -3 z"
       transform="translate(376.57144,509.79798)"
       id="path858" />
    <path
       style="fill:#334545;stroke-width:0.75000077;opacity:0.5"
       d="m 26,22 v 3 h 3 v -3 z"
       transform="translate(376.57144,509.79798)"
       id="path856" />
    <path
       style="fill:#334545;stroke-width:0.75000077;opacity:0.5"
       d="m 30,22 v 3 h 3 v -3 z"
       transform="translate(376.57144,509.79798)"
       id="path854" />
    <path
       style="fill:#334545;stroke-width:0.75000077;opacity:0.5"
       d="m 34,22 v 3 h 3 v -3 z"
       transform="translate(376.57144,509.79798)"
       id="path852" />
    <path
       style="fill:#334545;stroke-width:0.75000077;opacity:0.5"
       d="m 5,26 v 3 h 7 v -3 z"
       transform="translate(376.57144,509.79798)"
       id="path850" />
    <path
       style="fill:#334545;stroke-width:0.75000077;opacity:0.5"
       d="m 13,26 v 3 h 3 v -3 z"
       transform="translate(376.57144,509.79798)"
       id="path848" />
    <path
       style="fill:#334545;stroke-width:0.75000077;opacity:0.5"
       d="m 17,26 v 3 h 3 v -3 z"
       transform="translate(376.57144,509.79798)"
       id="path846" />
    <path
       style="fill:#334545;stroke-width:0.75000077;opacity:0.5"
       d="m 21,26 v 3 h 3 v -3 z"
       transform="translate(376.57144,509.79798)"
       id="path844" />
    <path
       style="fill:#334545;stroke-width:0.75000077;opacity:0.5"
       d="m 25,26 v 3 h 3 v -3 z"
       transform="translate(376.57144,509.79798)"
       id="path842" />
    <path
       style="fill:#334545;stroke-width:0.75000077;opacity:0.5"
       d="m 29,26 v 3 h 3 v -3 z"
       transform="translate(376.57144,509.79798)"
       id="path840" />
    <path
       style="fill:#334545;stroke-width:0.75000077;opacity:0.5"
       d="m 33,26 v 3 h 3 v -3 z"
       transform="translate(376.57144,509.79798)"
       id="path838" />
    <path
       style="fill:#334545;stroke-width:0.75000077;opacity:0.5"
       d="m 37,26 v 3 h 6 v -3 z"
       transform="translate(376.57144,509.79798)"
       id="path836" />
    <path
       style="fill:#334545;stroke-width:0.75000077;opacity:0.5"
       d="m 5,30 v 3 h 4 v -3 z"
       transform="translate(376.57144,509.79798)"
       id="path834" />
    <path
       style="fill:#334545;stroke-width:0.75000077;opacity:0.5"
       d="m 10,30 v 3 h 17.199219 v -3 z"
       transform="translate(376.57144,509.79798)"
       id="path832" />
    <path
       style="fill:#334545;stroke-width:0.75000077;opacity:0.5"
       d="m 28,30 v 3 h 3 v -3 z"
       transform="translate(376.57144,509.79798)"
       id="path830" />
    <path
       style="fill:#334545;stroke-width:0.75000077;opacity:0.5"
       d="m 36,30 v 3 h 3 v -3 z"
       transform="translate(376.57144,509.79798)"
       id="path828" />
    <path
       style="fill:#334545;stroke-width:0.75000077;opacity:0.5"
       d="m 40,30.923828 v 2 h 3 v -2 z"
       transform="translate(376.57144,509.79798)"
       id="path826" />
    <path
       style="fill:#334545;stroke-width:0.75000077;opacity:0.5"
       d="m 32,31 v 2 h 3 v -2 z"
       transform="translate(376.57144,509.79798)"
       id="path4577" />
    <path
       style="opacity:0.5;fill:#172525;fill-opacity:1;stroke-width:0.75000077"
       d="m 6,16 v 1 h 3 v -1 z"
       transform="translate(376.57144,509.79798)"
       id="path986" />
    <path
       style="opacity:0.5;fill:#172525;fill-opacity:1;stroke-width:0.75000077"
       d="m 10,16 v 1 h 3 v -1 z"
       transform="translate(376.57144,509.79798)"
       id="path984" />
    <path
       style="opacity:0.5;fill:#172525;fill-opacity:1;stroke-width:0.75000077"
       d="m 14,16 v 1 h 3 v -1 z"
       transform="translate(376.57144,509.79798)"
       id="path982" />
    <path
       style="opacity:0.5;fill:#172525;fill-opacity:1;stroke-width:0.75000077"
       d="m 18,16 v 1 h 3 v -1 z"
       transform="translate(376.57144,509.79798)"
       id="path980" />
    <path
       style="opacity:0.5;fill:#172525;fill-opacity:1;stroke-width:0.75000077"
       d="m 22,16 v 1 h 3 v -1 z"
       transform="translate(376.57144,509.79798)"
       id="path978" />
    <path
       style="opacity:0.5;fill:#172525;fill-opacity:1;stroke-width:0.75000077"
       d="m 26,16 v 1 h 3 v -1 z"
       transform="translate(376.57144,509.79798)"
       id="path976" />
    <path
       style="opacity:0.5;fill:#172525;fill-opacity:1;stroke-width:0.75000077"
       d="m 30,16 v 1 h 3 v -1 z"
       transform="translate(376.57144,509.79798)"
       id="path974" />
    <path
       style="opacity:0.5;fill:#172525;fill-opacity:1;stroke-width:0.75000077"
       d="m 34,16 v 1 h 3 v -1 z"
       transform="translate(376.57144,509.79798)"
       id="path972" />
    <path
       style="opacity:0.5;fill:#172525;fill-opacity:1;stroke-width:0.75000077"
       d="m 38,16 v 1 h 3 v -1 z"
       transform="translate(376.57144,509.79798)"
       id="path970" />
    <path
       style="opacity:0.5;fill:#172525;fill-opacity:1;stroke-width:0.75000077"
       d="m 5,20 v 1 h 3 v -1 z"
       transform="translate(376.57144,509.79798)"
       id="path968" />
    <path
       style="opacity:0.5;fill:#172525;fill-opacity:1;stroke-width:0.75000077"
       d="m 9,20 v 1 h 1 2 v -1 z"
       transform="translate(376.57144,509.79798)"
       id="path966" />
    <path
       style="opacity:0.5;fill:#172525;fill-opacity:1;stroke-width:0.75000077"
       d="m 13,20 v 1 h 1 2 v -1 z"
       transform="translate(376.57144,509.79798)"
       id="path964" />
    <path
       style="opacity:0.5;fill:#172525;fill-opacity:1;stroke-width:0.75000077"
       d="m 17,20 v 1 h 1 2 v -1 z"
       transform="translate(376.57144,509.79798)"
       id="path962" />
    <path
       style="opacity:0.5;fill:#172525;fill-opacity:1;stroke-width:0.75000077"
       d="m 21,20 v 1 h 1 2 v -1 z"
       transform="translate(376.57144,509.79798)"
       id="path960" />
    <path
       style="opacity:0.5;fill:#172525;fill-opacity:1;stroke-width:0.75000077"
       d="m 25,20 v 1 h 1 2 v -1 z"
       transform="translate(376.57144,509.79798)"
       id="path958" />
    <path
       style="opacity:0.5;fill:#172525;fill-opacity:1;stroke-width:0.75000077"
       d="m 29,20 v 1 h 1 2 v -1 z"
       transform="translate(376.57144,509.79798)"
       id="path956" />
    <path
       style="opacity:0.5;fill:#172525;fill-opacity:1;stroke-width:0.75000077"
       d="m 33,20 v 1 h 1 2 v -1 z"
       transform="translate(376.57144,509.79798)"
       id="path954" />
    <path
       style="opacity:0.5;fill:#172525;fill-opacity:1;stroke-width:0.75000077"
       d="m 37,20 v 1 h 1 v -0.07617 h 5 V 20 Z"
       transform="translate(376.57144,509.79798)"
       id="path952" />
    <path
       style="opacity:0.5;fill:#172525;fill-opacity:1;stroke-width:0.75000077"
       d="m 38,23.923828 v 1 h 5 v -1 z"
       transform="translate(376.57144,509.79798)"
       id="path950" />
    <path
       style="opacity:0.5;fill:#172525;fill-opacity:1;stroke-width:0.75000077"
       d="m 5,24 v 1 h 4 v -1 z"
       transform="translate(376.57144,509.79798)"
       id="path948" />
    <path
       style="opacity:0.5;fill:#172525;fill-opacity:1;stroke-width:0.75000077"
       d="m 10,24 v 1 h 2 1 v -1 z"
       transform="translate(376.57144,509.79798)"
       id="path946" />
    <path
       style="opacity:0.5;fill:#172525;fill-opacity:1;stroke-width:0.75000077"
       d="m 14,24 v 1 h 2 1 v -1 z"
       transform="translate(376.57144,509.79798)"
       id="path944" />
    <path
       style="opacity:1;fill:#172525;fill-opacity:1;stroke-width:0.75000077"
       d="m 18,24 v 1 h 2 1 v -1 z"
       transform="translate(376.57144,509.79798)"
       id="path942" />
    <path
       style="opacity:0.5;fill:#172525;fill-opacity:1;stroke-width:0.75000077"
       d="m 22,24 v 1 h 2 1 v -1 z"
       transform="translate(376.57144,509.79798)"
       id="path940" />
    <path
       style="opacity:0.5;fill:#172525;fill-opacity:1;stroke-width:0.75000077"
       d="m 26,24 v 1 h 2 1 v -1 z"
       transform="translate(376.57144,509.79798)"
       id="path938" />
    <path
       style="opacity:0.5;fill:#172525;fill-opacity:1;stroke-width:0.75000077"
       d="m 30,24 v 1 h 2 1 v -1 z"
       transform="translate(376.57144,509.79798)"
       id="path936" />
    <path
       style="opacity:0.5;fill:#172525;fill-opacity:1;stroke-width:0.75000077"
       d="m 34,24 v 1 h 2 1 v -1 z"
       transform="translate(376.57144,509.79798)"
       id="path934" />
    <path
       style="opacity:0.5;fill:#172525;fill-opacity:1;stroke-width:0.75000077"
       d="m 5,28 v 1 h 4 1 2 v -1 z"
       transform="translate(376.57144,509.79798)"
       id="path932" />
    <path
       style="opacity:0.5;fill:#172525;fill-opacity:1;stroke-width:0.75000077"
       d="m 13,28 v 1 h 3 v -1 z"
       transform="translate(376.57144,509.79798)"
       id="path930" />
    <path
       style="opacity:0.5;fill:#172525;fill-opacity:1;stroke-width:0.75000077"
       d="m 17,28 v 1 h 3 v -1 z"
       transform="translate(376.57144,509.79798)"
       id="path928" />
    <path
       style="opacity:0.5;fill:#172525;fill-opacity:1;stroke-width:0.75000077"
       d="m 21,28 v 1 h 3 v -1 z"
       transform="translate(376.57144,509.79798)"
       id="path926" />
    <path
       style="opacity:0.5;fill:#172525;fill-opacity:1;stroke-width:0.75000077"
       d="m 25,28 v 1 H 27.199219 28 v -1 z"
       transform="translate(376.57144,509.79798)"
       id="path924" />
    <path
       style="opacity:0.5;fill:#172525;fill-opacity:1;stroke-width:0.75000077"
       d="m 29,28 v 1 h 2 1 v -1 z"
       transform="translate(376.57144,509.79798)"
       id="path922" />
    <path
       style="opacity:0.5;fill:#172525;fill-opacity:1;stroke-width:0.75000077"
       d="m 33,28 v 1 h 3 v -1 z"
       transform="translate(376.57144,509.79798)"
       id="path920" />
    <path
       style="opacity:0.5;fill:#172525;fill-opacity:1;stroke-width:0.75000077"
       d="m 37,28 v 1 h 2 4 v -1 z"
       transform="translate(376.57144,509.79798)"
       id="path918" />
    <path
       style="opacity:0.5;fill:#172525;fill-opacity:1;stroke-width:0.75000077"
       d="m 40,31.923828 v 1 h 3 v -1 z"
       transform="translate(376.57144,509.79798)"
       id="path916" />
    <path
       style="opacity:0.5;fill:#172525;fill-opacity:1;stroke-width:0.75000077"
       d="m 5,32 v 1 h 4 v -1 z"
       transform="translate(376.57144,509.79798)"
       id="path914" />
    <path
       style="opacity:0.5;fill:#172525;fill-opacity:1;stroke-width:0.75000077"
       d="m 10,32 v 1 h 17.199219 v -1 z"
       transform="translate(376.57144,509.79798)"
       id="path912" />
    <path
       style="opacity:0.5;fill:#172525;fill-opacity:1;stroke-width:0.75000077"
       d="m 28,32 v 1 h 3 v -1 z"
       transform="translate(376.57144,509.79798)"
       id="path910" />
    <path
       style="opacity:0.5;fill:#172525;fill-opacity:1;stroke-width:0.75000077"
       d="m 32,32 v 1 h 3 v -1 z"
       transform="translate(376.57144,509.79798)"
       id="path908" />
    <path
       style="opacity:0.5;fill:#172525;fill-opacity:1;stroke-width:0.75000077"
       d="m 36,32 v 1 h 3 v -1 z"
       transform="translate(376.57144,509.79798)"
       id="path4901" />
    <rect
       style="opacity:0.5;vector-effect:none;fill:#172525;fill-opacity:1;stroke:none;stroke-width:1.18654966;stroke-linecap:round;stroke-linejoin:round;stroke-miterlimit:4;stroke-dasharray:none;stroke-dashoffset:0;stroke-opacity:1"
       id="rect4906"
       width="3"
       height="1"
       x="412.57144"
       y="539.79797" />
    <path
       style="opacity:1;fill:#da4040;fill-opacity:1;stroke:none;stroke-width:4;stroke-linecap:round;stroke-linejoin:round;stroke-miterlimit:4;stroke-dasharray:none;stroke-dashoffset:0;stroke-opacity:1;paint-order:normal"
       d="M 17 21 L 17 26 L 22 26 L 22 21 L 17 21 z M 18 22 L 21 22 L 21 25 L 18 25 L 18 22 z "
       transform="translate(376.57144,509.79798)"
       id="rect990" />
    <path
       id="path995"
       d="m 396.57144,526.79798 v 5 h 5 v -5 z m 1,1 h 3 v 3 h -3 z"
       style="opacity:1;fill:#da4040;fill-opacity:1;stroke:none;stroke-width:4;stroke-linecap:round;stroke-linejoin:round;stroke-miterlimit:4;stroke-dasharray:none;stroke-dashoffset:0;stroke-opacity:1;paint-order:normal"
       inkscape:connector-curvature="0" />
  </g>
</svg>
