<?xml version="1.0" encoding="UTF-8" standalone="no"?>
<!-- Created with Inkscape (http://www.inkscape.org/) -->

<svg
   width="48"
   height="48"
   viewBox="0 0 12.7 12.7"
   version="1.1"
   id="svg5"
   sodipodi:docname="reddit.svg"
   inkscape:version="1.1.1 (3bf5ae0d25, 2021-09-20)"
   xmlns:inkscape="http://www.inkscape.org/namespaces/inkscape"
   xmlns:sodipodi="http://sodipodi.sourceforge.net/DTD/sodipodi-0.dtd"
   xmlns:xlink="http://www.w3.org/1999/xlink"
   xmlns="http://www.w3.org/2000/svg"
   xmlns:svg="http://www.w3.org/2000/svg">
  <sodipodi:namedview
     id="namedview7"
     pagecolor="#ffffff"
     bordercolor="#666666"
     borderopacity="1.0"
     inkscape:pageshadow="2"
     inkscape:pageopacity="0.0"
     inkscape:pagecheckerboard="0"
     inkscape:document-units="px"
     showgrid="false"
     units="px"
     height="48px"
     inkscape:zoom="12.212323"
     inkscape:cx="24.114985"
     inkscape:cy="32.467204"
     inkscape:window-width="1853"
     inkscape:window-height="1049"
     inkscape:window-x="67"
     inkscape:window-y="31"
     inkscape:window-maximized="1"
     inkscape:current-layer="svg5" />
  <defs
     id="defs2">
    <linearGradient
       inkscape:collect="always"
       id="linearGradient3205">
      <stop
         style="stop-color:#ffffff;stop-opacity:1;"
         offset="0"
         id="stop3201" />
      <stop
         style="stop-color:#ffffff;stop-opacity:0;"
         offset="1"
         id="stop3203" />
    </linearGradient>
    <linearGradient
       inkscape:collect="always"
       id="linearGradient2429">
      <stop
         style="stop-color:#000000;stop-opacity:1;"
         offset="0"
         id="stop2425" />
      <stop
         style="stop-color:#000000;stop-opacity:0;"
         offset="1"
         id="stop2427" />
    </linearGradient>
    <linearGradient
       inkscape:collect="always"
       id="linearGradient1315">
      <stop
         style="stop-color:#ff4500;stop-opacity:1;"
         offset="0"
         id="stop1311" />
      <stop
         style="stop-color:#ffa000;stop-opacity:1"
         offset="1"
         id="stop1313" />
    </linearGradient>
    <linearGradient
       inkscape:collect="always"
       xlink:href="#linearGradient1315"
       id="linearGradient1317"
       x1="10.255548"
       y1="10.605019"
       x2="2.5525014"
       y2="1.0902635"
       gradientUnits="userSpaceOnUse" />
    <linearGradient
       inkscape:collect="always"
       xlink:href="#linearGradient2429"
       id="linearGradient2431"
       x1="24.59598"
       y1="25.790876"
       x2="38.471825"
       y2="40.881557"
       gradientUnits="userSpaceOnUse" />
    <linearGradient
       inkscape:collect="always"
       xlink:href="#linearGradient3205"
       id="linearGradient3207"
       x1="6.4972777"
       y1="5.1226845"
       x2="6.6926146"
       y2="11.628747"
       gradientUnits="userSpaceOnUse" />
  </defs>
  <circle
     style="fill:url(#linearGradient1317);fill-opacity:1;stroke-width:0.275997"
     id="path1085"
     cx="6.3499999"
     cy="6.3499999"
     r="5.2916665" />
  <path
     id="path1921"
     style="opacity:0.3;fill:url(#linearGradient2431);fill-opacity:1;stroke-width:1.44849"
     d="M 33.310547 11.722656 C 33.334245 11.731954 33.357419 11.741559 33.380859 11.751953 C 33.357502 11.741597 33.334139 11.731878 33.310547 11.722656 z M 31.587891 11.902344 C 31.561018 11.917726 31.534201 11.932774 31.507812 11.949219 C 31.534118 11.932853 31.561071 11.917692 31.587891 11.902344 z M 34.070312 12.238281 C 34.73242 12.900957 35.020731 13.909526 34.552734 14.728516 C 33.97334 15.74246 32.670195 16.319631 31.65625 15.740234 C 30.932006 15.450537 30.498047 14.726516 30.498047 13.857422 L 26.005859 12.84375 L 24.556641 19.361328 C 27.743323 19.506179 30.643988 20.522212 32.671875 21.970703 C 33.830667 20.81191 35.858783 20.81191 37.017578 21.970703 C 37.596972 22.5501 37.884766 23.273484 37.884766 24.142578 C 38.319309 25.44622 37.451441 26.45803 36.4375 26.892578 L 36.4375 27.763672 C 36.4375 30.290728 34.897614 32.532624 32.441406 34.085938 C 32.429423 34.093516 32.418277 34.10183 32.40625 34.109375 C 32.394123 34.116968 32.381306 34.123301 32.369141 34.130859 C 30.187568 35.488632 27.29865 36.308594 24.125 36.308594 C 19.976431 36.308594 16.311883 34.909882 14.082031 32.736328 L 25.294922 43.951172 C 35.813133 43.268729 43.996383 34.540326 44 24 C 43.999728 23.356939 43.968272 22.714265 43.90625 22.074219 L 34.070312 12.238281 z M 31.037109 12.324219 C 31.028719 12.332836 31.021987 12.342907 31.013672 12.351562 C 31.022289 12.342567 31.030332 12.333063 31.039062 12.324219 C 31.039062 12.324219 31.037109 12.324219 31.037109 12.324219 z M 19.488281 24.142578 C 18.329488 24.142578 17.314453 25.157613 17.314453 26.316406 C 17.314453 27.475199 18.184639 28.488281 19.488281 28.488281 C 20.647073 28.488281 21.660156 27.475199 21.660156 26.316406 C 21.660156 25.157613 20.647073 24.142578 19.488281 24.142578 z M 29.050781 24.142578 C 27.891988 24.142578 26.876953 25.157613 26.876953 26.316406 C 26.876953 27.475199 27.891988 28.488281 29.050781 28.488281 C 30.209573 28.488281 31.222656 27.475199 31.222656 26.316406 C 31.222656 25.157613 30.209573 24.142578 29.050781 24.142578 z M 29.066406 31.021484 C 28.939663 31.021484 28.830238 31.093433 28.757812 31.238281 C 27.88872 32.252225 25.862554 32.542969 24.414062 32.542969 C 22.965572 32.542969 20.937454 32.252224 20.068359 31.238281 C 19.923509 31.093431 19.779089 31.023438 19.652344 31.023438 C 19.525601 31.023438 19.416177 31.093431 19.34375 31.238281 C 19.054049 31.527978 19.054049 31.818042 19.34375 31.962891 C 20.792241 33.411382 23.687545 33.558594 24.556641 33.558594 C 25.425736 33.558594 28.180098 33.411383 29.773438 31.962891 C 29.628587 31.81804 29.627268 31.527979 29.482422 31.238281 C 29.337573 31.093433 29.193149 31.021484 29.066406 31.021484 z "
     transform="scale(0.26458333)" />
  <path
     id="path868"
     style="opacity:0.2;fill:#000000;stroke-width:0.346252"
     d="M 11.638566,6.172233 A 5.2916663,5.2916663 0 0 1 6.3499999,11.377083 5.2916663,5.2916663 0 0 1 1.0635009,6.2177083 5.2916663,5.2916663 0 0 0 1.0583333,6.3499999 5.2916663,5.2916663 0 0 0 6.3499999,11.641667 5.2916663,5.2916663 0 0 0 11.641667,6.3499999 5.2916663,5.2916663 0 0 0 11.638566,6.172233 Z" />
  <path
     id="rect899"
     style="fill:url(#linearGradient3207);fill-opacity:1;stroke-width:0.383246"
     d="m 8.6622442,3.0696319 c 0.072458,0.00299 0.1447657,0.022307 0.2118339,0.060631 C 9.1423505,3.2835613 9.2953498,3.6284833 9.142051,3.8967557 8.9887525,4.1650284 8.6438305,4.3180277 8.3755579,4.1647289 8.1839344,4.0880796 8.0694098,3.896157 8.0694098,3.6662092 L 6.8807467,3.398236 6.4975001,5.1228455 c 0.8431425,0.038325 1.6102343,0.3068965 2.1467794,0.6901431 0.3065971,-0.3065973 0.8431424,-0.3065973 1.1497398,0 0.1532987,0.1532988 0.2297987,0.3449219 0.2297987,0.5748697 0.114974,0.344922 -0.1149741,0.6125959 -0.3832468,0.72757 v 0.2305466 c 0,1.2647136 -1.456337,2.2605564 -3.2575957,2.2605564 -1.8012591,0 -3.2575964,-0.9958428 -3.2575964,-2.2605564 V 7.1154283 C 2.7038082,6.9238049 2.5506591,6.4643581 2.7039577,6.0427869 2.8189318,5.7361898 3.1249301,5.5441174 3.4315274,5.582442 c 0.2299478,0 0.4215712,0.077248 0.5748697,0.2305466 C 4.6579164,5.3914174 5.4248589,5.1228455 6.1913521,5.1228455 L 6.6127733,3.2066126 c 0,-0.038325 0.038175,-0.07635 0.038175,-0.07635 0.038325,-0.038325 0.076949,-0.038923 0.1152737,-0.038923 L 8.1075855,3.398236 C 8.2225594,3.1970315 8.4448721,3.0606496 8.6622442,3.0696319 Z m -3.506107,3.3182264 c -0.3065973,0 -0.57487,0.2682727 -0.57487,0.57487 0,0.3065973 0.229948,0.57487 0.57487,0.57487 0.3065971,0 0.5748697,-0.2682727 0.5748697,-0.57487 0,-0.3065973 -0.2682726,-0.57487 -0.5748697,-0.57487 z m 2.530026,0 c -0.3065973,0 -0.5748697,0.2682727 -0.5748697,0.57487 0,0.3065973 0.2682724,0.57487 0.5748697,0.57487 0.3065971,0 0.5748698,-0.2682727 0.5748698,-0.57487 0,-0.3065973 -0.2682727,-0.57487 -0.5748698,-0.57487 z M 5.1995516,8.2082797 c -0.033534,0 -0.062427,0.018563 -0.08159,0.056888 -0.07665,0.076649 -0.07665,0.1532988 0,0.1916234 0.3832466,0.3832466 1.14959,0.42217 1.3795381,0.42217 0.2299481,0 0.9587151,-0.038923 1.3802863,-0.42217 C 7.839461,8.4184661 7.839012,8.341817 7.800688,8.2651677 c -0.076649,-0.076649 -0.1532983,-0.076649 -0.1916234,0 -0.2299476,0.2682727 -0.7664929,0.3450714 -1.1497395,0.3450714 -0.3832466,0 -0.9197918,-0.076799 -1.1497398,-0.3450714 -0.038325,-0.038325 -0.076499,-0.056888 -0.1100337,-0.056888 z"
     sodipodi:nodetypes="ssscccccsccssscccccccccsssssssssssssccscccscs" />
</svg>
