<?xml version="1.0" encoding="UTF-8" standalone="no"?>
<svg
   xmlns:dc="http://purl.org/dc/elements/1.1/"
   xmlns:cc="http://creativecommons.org/ns#"
   xmlns:rdf="http://www.w3.org/1999/02/22-rdf-syntax-ns#"
   xmlns:svg="http://www.w3.org/2000/svg"
   xmlns="http://www.w3.org/2000/svg"
   xmlns:xlink="http://www.w3.org/1999/xlink"
   xmlns:sodipodi="http://sodipodi.sourceforge.net/DTD/sodipodi-0.dtd"
   xmlns:inkscape="http://www.inkscape.org/namespaces/inkscape"
   height="48"
   width="48"
   version="1"
   id="svg20"
   sodipodi:docname="screencloud.svg"
   inkscape:version="0.92.1 r15371">
  <metadata
     id="metadata26">
    <rdf:RDF>
      <cc:Work
         rdf:about="">
        <dc:format>image/svg+xml</dc:format>
        <dc:type
           rdf:resource="http://purl.org/dc/dcmitype/StillImage" />
        <dc:title />
      </cc:Work>
    </rdf:RDF>
  </metadata>
  <defs
     id="defs24">
    <linearGradient
       inkscape:collect="always"
       id="linearGradient4503">
      <stop
         style="stop-color:#bed6e0;stop-opacity:1"
         offset="0"
         id="stop4499" />
      <stop
         style="stop-color:#ffffff;stop-opacity:1"
         offset="1"
         id="stop4501" />
    </linearGradient>
    <linearGradient
       inkscape:collect="always"
       id="linearGradient4526">
      <stop
         style="stop-color:#000000;stop-opacity:1;"
         offset="0"
         id="stop4522" />
      <stop
         style="stop-color:#000000;stop-opacity:0;"
         offset="1"
         id="stop4524" />
    </linearGradient>
    <linearGradient
       inkscape:collect="always"
       id="linearGradient4507">
      <stop
         style="stop-color:#2676c2;stop-opacity:1;"
         offset="0"
         id="stop4503" />
      <stop
         style="stop-color:#71abe3;stop-opacity:1"
         offset="1"
         id="stop4505" />
    </linearGradient>
    <linearGradient
       inkscape:collect="always"
       xlink:href="#linearGradient4507"
       id="linearGradient4509"
       x1="25.695652"
       y1="41.282558"
       x2="25.695652"
       y2="6.2825589"
       gradientUnits="userSpaceOnUse" />
    <linearGradient
       inkscape:collect="always"
       xlink:href="#linearGradient4526"
       id="linearGradient4528"
       x1="26.721294"
       y1="25.995319"
       x2="41.069157"
       y2="40.343182"
       gradientUnits="userSpaceOnUse" />
    <linearGradient
       inkscape:collect="always"
       xlink:href="#linearGradient4526"
       id="linearGradient4530"
       x1="29.230268"
       y1="22.760351"
       x2="39.983891"
       y2="33.513973"
       gradientUnits="userSpaceOnUse" />
    <linearGradient
       inkscape:collect="always"
       xlink:href="#linearGradient4526"
       id="linearGradient4532"
       x1="14.568589"
       y1="12.373464"
       x2="19.775177"
       y2="17.580051"
       gradientUnits="userSpaceOnUse" />
    <linearGradient
       inkscape:collect="always"
       xlink:href="#linearGradient4503"
       id="linearGradient4505"
       x1="15.362731"
       y1="14.714083"
       x2="14.935988"
       y2="9.3086767"
       gradientUnits="userSpaceOnUse" />
    <linearGradient
       inkscape:collect="always"
       xlink:href="#linearGradient4503"
       id="linearGradient4513"
       x1="24.827881"
       y1="31.689901"
       x2="24.827881"
       y2="20.736841"
       gradientUnits="userSpaceOnUse" />
    <linearGradient
       inkscape:collect="always"
       xlink:href="#linearGradient4503"
       id="linearGradient4521"
       x1="23.845703"
       y1="36.78125"
       x2="22.059744"
       y2="15.473684"
       gradientUnits="userSpaceOnUse" />
  </defs>
  <sodipodi:namedview
     pagecolor="#ffffff"
     bordercolor="#666666"
     borderopacity="1"
     objecttolerance="10"
     gridtolerance="10"
     guidetolerance="10"
     inkscape:pageopacity="0"
     inkscape:pageshadow="2"
     inkscape:window-width="1600"
     inkscape:window-height="808"
     id="namedview22"
     showgrid="false"
     inkscape:zoom="7.03"
     inkscape:cx="-11.120902"
     inkscape:cy="15.266013"
     inkscape:window-x="0"
     inkscape:window-y="0"
     inkscape:window-maximized="1"
     inkscape:current-layer="svg20" />
  <path
     fill="#569cde"
     d="m21 6a15 15 0 0 0 -15 15 15 15 0 0 0 0.502 3.816c-2.667 1.31-4.502 4.069-4.502 7.286v1.7969c0 4.487 3.5648 8.101 7.9922 8.101h28.016c4.427 0 7.992-3.614 7.992-8.102v-1.7969c0-3.4009-2.0487-6.2954-4.9668-7.5a9 9 0 0 0 1.967 -5.601 9 9 0 0 0 -9 -9 9 9 0 0 0 -2.459 0.346 15 15 0 0 0 -10.541 -4.346z"
     id="path2"
     style="fill:url(#linearGradient4509);fill-opacity:1" />
  <path
     d="m 42.979,18.562 a 9,9 0 0 1 -1.9453,5.0391 c 0.18306,0.07556 0.35142,0.17705 0.52734,0.26563 a 9,9 0 0 0 1.439,-4.867 9,9 0 0 0 -0.021,-0.438 z M 6.021,20.402 A 15,15 0 0 0 5.9995,21 15,15 0 0 0 6.2983,23.936 c 0.069606,-0.03679 0.13233,-0.08437 0.20312,-0.11914 a 15,15 0 0 1 -0.4804,-3.415 z M 1.9995,32.898 v 1 c 0,4.488 3.5648,8.102 7.9922,8.102 h 28.016 c 4.427,0 7.992,-3.614 7.992,-8.102 v -1 c 0,4.488 -3.565,8.102 -7.992,8.102 H 9.9917 c -4.4272,0 -7.992,-3.614 -7.992,-8.102 z"
     id="path6"
     inkscape:connector-curvature="0"
     style="opacity:0.2" />
  <path
     style="opacity:0.25;vector-effect:none;fill:url(#linearGradient4530);fill-opacity:1;stroke:none;stroke-width:1.94812298;stroke-linecap:round;stroke-linejoin:round;stroke-miterlimit:4;stroke-dasharray:none;stroke-dashoffset:0;stroke-opacity:1"
     d="M 32.392578 17.472656 L 34.742188 28.738281 L 32.527344 32.759766 L 23.845703 36.78125 L 13.951172 31.582031 L 15.388672 34.359375 L 23.029297 42 L 38.007812 42 C 42.434812 42 46 38.386438 46 33.898438 L 46 32.101562 C 46 31.726286 45.966275 31.359401 45.917969 30.998047 L 32.392578 17.472656 z "
     id="rect4511" />
  <path
     inkscape:connector-curvature="0"
     id="path4520"
     d="M 17.056497,9.8419514 29.414535,22.199988 25.18744,26.427083 12.829403,14.069045 Z"
     style="opacity:0.2;vector-effect:none;fill:url(#linearGradient4532);fill-opacity:1;stroke:none;stroke-width:0.85380125;stroke-linecap:round;stroke-linejoin:round;stroke-miterlimit:4;stroke-dasharray:none;stroke-dashoffset:0;stroke-opacity:1" />
  <path
     fill="#aaceee"
     d="m24 14a12 12 0 0 0 -12 12 12 12 0 0 0 12 12 12 12 0 0 0 12 -12 12 12 0 0 0 -12 -12zm0 3a9 9 0 0 1 9 9 9 9 0 0 1 -9 9 9 9 0 0 1 -9 -9 9 9 0 0 1 9 -9z"
     id="path10"
     style="fill-opacity:1;fill:url(#linearGradient4521)" />
  <path
     style="opacity:0.15;vector-effect:none;fill:url(#linearGradient4528);fill-opacity:1;stroke:none;stroke-width:1.71122134;stroke-linecap:round;stroke-linejoin:round;stroke-miterlimit:4;stroke-dasharray:none;stroke-dashoffset:0;stroke-opacity:1"
     d="M 27.923828 21.453125 L 19.451172 29.925781 L 31.525391 42 L 38.007812 42 C 40.843473 42 43.320321 40.513057 44.738281 38.267578 L 27.923828 21.453125 z "
     id="rect4517" />
  <path
     fill="#fff"
     d="m24 20a6 6 0 0 0 -6 6 6 6 0 0 0 6 6 6 6 0 0 0 6 -6 6 6 0 0 0 -6 -6z"
     id="path14"
     style="fill-opacity:1;fill:url(#linearGradient4513)" />
  <circle
     cy="12"
     cx="15"
     r="3"
     fill="#fff"
     id="circle18"
     style="fill-opacity:1;fill:url(#linearGradient4505)" />
</svg>
