<?xml version="1.0" encoding="UTF-8" standalone="no"?>
<svg
   width="48"
   height="48"
   version="1.1"
   id="svg32"
   sodipodi:docname="skype.svg.2021_08_14_15_38_07.0.svg"
   inkscape:version="1.1 (c4e8f9ed74, 2021-05-24)"
   xmlns:inkscape="http://www.inkscape.org/namespaces/inkscape"
   xmlns:sodipodi="http://sodipodi.sourceforge.net/DTD/sodipodi-0.dtd"
   xmlns:xlink="http://www.w3.org/1999/xlink"
   xmlns="http://www.w3.org/2000/svg"
   xmlns:svg="http://www.w3.org/2000/svg">
  <sodipodi:namedview
     id="namedview34"
     pagecolor="#ffffff"
     bordercolor="#666666"
     borderopacity="1.0"
     inkscape:pageshadow="2"
     inkscape:pageopacity="0.0"
     inkscape:pagecheckerboard="0"
     showgrid="false"
     inkscape:zoom="14.354167"
     inkscape:cx="24.034833"
     inkscape:cy="29.538461"
     inkscape:window-width="1920"
     inkscape:window-height="1018"
     inkscape:window-x="0"
     inkscape:window-y="0"
     inkscape:window-maximized="1"
     inkscape:current-layer="svg32" />
  <defs
     id="defs20">
    <linearGradient
       id="linearGradient4143">
      <stop
         offset="0"
         style="stop-color:#197cf1;stop-opacity:1"
         id="stop2" />
      <stop
         offset="1"
         style="stop-color:#20bcfa;stop-opacity:1"
         id="stop4" />
    </linearGradient>
    <linearGradient
       gradientUnits="userSpaceOnUse"
       y2="517.798"
       x2="400.571"
       y1="545.798"
       x1="400.571"
       id="linearGradient4149"
       xlink:href="#linearGradient4143"
       gradientTransform="matrix(1.2857138,0,0,1.2857138,-491.02022,-659.74)" />
    <linearGradient
       id="linearGradient4227">
      <stop
         style="stop-color:#292c2f;stop-opacity:1"
         offset="0"
         id="stop8" />
      <stop
         style="stop-color:#000000;stop-opacity:0;"
         offset="1"
         id="stop10" />
    </linearGradient>
    <linearGradient
       xlink:href="#linearGradient4290"
       id="linearGradient4204"
       x1="407.7"
       y1="531.838"
       x2="408.036"
       y2="516.059"
       gradientUnits="userSpaceOnUse"
       gradientTransform="matrix(1.5384616,0,0,1.4999916,-220.00001,-261.89451)" />
    <linearGradient
       id="linearGradient4290">
      <stop
         style="stop-color:#7cbaf8;stop-opacity:1"
         offset="0"
         id="stop14" />
      <stop
         style="stop-color:#f4fcff;stop-opacity:1"
         offset="1"
         id="stop16" />
    </linearGradient>
    <linearGradient
       xlink:href="#linearGradient4227"
       id="linearGradient4304"
       x1="16.065"
       y1="13.778"
       x2="40.536"
       y2="41.261"
       gradientUnits="userSpaceOnUse" />
    <linearGradient
       inkscape:collect="always"
       xlink:href="#linearGradient4290"
       id="linearGradient3941"
       x1="23.726767"
       y1="35.584"
       x2="23.627399"
       y2="12.006"
       gradientUnits="userSpaceOnUse" />
    <linearGradient
       inkscape:collect="always"
       xlink:href="#linearGradient4227"
       id="linearGradient5475"
       gradientUnits="userSpaceOnUse"
       gradientTransform="matrix(1.2857138,0,0,1.2857138,-491.0205,-659.73999)"
       x1="391.33261"
       y1="523.54541"
       x2="411.74408"
       y2="543.3136" />
  </defs>
  <g
     transform="translate(-384.57143,-499.798)"
     id="g30">
    <path
       style="opacity:1;fill:url(#linearGradient4149);fill-opacity:1;stroke:none"
       d="M 14,4 C 8.46001,4 4,8.46001 4,14 c 0,1.996067 0.589282,3.843762 1.5898438,5.400391 A 19,19 0 0 0 5,24 19,19 0 0 0 24,43 19,19 0 0 0 28.603516,42.414062 C 30.159211,43.412836 32.005876,44 34,44 39.53999,44 44,39.53998 44,34 44,32.003933 43.410718,30.15624 42.410156,28.599609 A 19,19 0 0 0 43,24 19,19 0 0 0 24,5 19,19 0 0 0 19.394531,5.5859375 C 17.839121,4.58771 15.993534,4 14,4 Z"
       transform="translate(384.57143,499.798)"
       id="path22" />
    <path
       d="M 408.32743,515.9635"
       style="fill:#ffffff;fill-opacity:1;fill-rule:nonzero;stroke:none"
       id="path24" />
  </g>
  <path
     id="path22-9"
     style="fill:url(#linearGradient5475);fill-opacity:1;stroke:none;opacity:0.3"
     d="m 24.802935,12.000041 c -1.4569,-0.0086 -2.905497,0.235383 -4.279297,0.720703 -1.2631,0.42644 -2.390278,1.179814 -3.267578,2.183594 -0.8442,0.99957 -1.290706,2.276134 -1.253906,3.583984 -0.0299,1.030501 0.209813,2.051438 0.695313,2.960938 0.2807,0.4805 0.620818,0.919547 1.011718,1.310547 l 8.923828,8.923828 c -0.780855,0.48157 -1.689456,0.71596 -2.607421,0.650391 -0.5518,0.0057 -1.103577,-0.05162 -1.642579,-0.169922 -0.437199,-0.0959 -0.864543,-0.231497 -1.277343,-0.404297 -0.3615,-0.1565 -0.854569,-0.390225 -1.480469,-0.703125 -0.5033,-0.2685 -1.064366,-0.412222 -1.634766,-0.419922 -0.512,-0.021 -1.011084,0.154588 -1.396484,0.492188 -0.3722,0.3541 -0.571069,0.854187 -0.542969,1.367187 -0.0116,0.4805 0.134563,0.950697 0.414063,1.341797 0.0816,0.1033 0.167265,0.202422 0.259765,0.294922 l 8.769532,8.769531 a 19,19 0 0 0 3.109375,-0.488281 c 1.555695,0.998774 3.40236,1.585937 5.396484,1.585937 5.53999,0 10,-4.46002 10,-9.999999 0,-1.996067 -0.589282,-3.84376 -1.589844,-5.400391 a 19,19 0 0 0 0.494141,-3.148438 L 31.16817,13.714885 31.10176,13.646525 c -0.4155,-0.41554 -0.921015,-0.729289 -1.478515,-0.917969 -0.6395,-0.23486 -1.30131,-0.405786 -1.974609,-0.509766 -0.9407,-0.15431 -1.892404,-0.22776 -2.845704,-0.21875 z" />
  <path
     id="path49"
     fill-rule="evenodd"
     fill="#ffffff"
     d="m 18.728361,23.590475 a 6.4737329,6.4737329 0 0 1 -2.030654,-2.142066 5.9211334,5.9211334 0 0 1 -0.695206,-2.960566 5.3209984,5.3209984 0 0 1 1.253747,-3.582984 7.5462513,7.5462513 0 0 1 3.268061,-2.18366 12.619174,12.619174 0 0 1 4.27819,-0.720458 16.613637,16.613637 0 0 1 2.846185,0.218366 10.276568,10.276568 0 0 1 1.974206,0.50952 3.8266029,3.8266029 0 0 1 1.544902,0.986361 1.9964886,1.9964886 0 0 1 0.47684,1.326535 1.9222144,1.9222144 0 0 1 -0.502093,1.382986 1.6696823,1.6696823 0 0 1 -1.261174,0.525859 2.2713029,2.2713029 0 0 1 -0.93734,-0.210937 16.985007,16.985007 0 0 0 -2.232681,-0.817017 8.1033072,8.1033072 0 0 0 -2.150979,-0.267386 4.9095198,4.9095198 0 0 0 -2.694665,0.689263 2.2415931,2.2415931 0 0 0 -1.075488,2.01283 2.0247127,2.0247127 0 0 0 0.558541,1.415664 5.0892631,5.0892631 0 0 0 1.504793,1.076975 q 0.946253,0.469413 2.822416,1.244834 a 2.9264005,2.9264005 0 0 1 0.404053,0.161918 20.049558,20.049558 0 0 1 3.493854,1.795948 7.0441581,7.0441581 0 0 1 2.150979,2.207428 5.8230915,5.8230915 0 0 1 0.776907,3.066036 6.1662379,6.1662379 0 0 1 -1.07549,3.69588 6.3935168,6.3935168 0 0 1 -3.008102,2.232681 12.681564,12.681564 0 0 1 -4.521808,0.736799 14.245777,14.245777 0 0 1 -6.163266,-1.166104 3.3542195,3.3542195 0 0 1 -1.268603,-0.986361 2.2178254,2.2178254 0 0 1 -0.412964,-1.342876 1.7543549,1.7543549 0 0 1 0.542201,-1.366643 1.9979739,1.9979739 0 0 1 1.397839,-0.493181 3.5755565,3.5755565 0 0 1 1.634031,0.420391 q 0.938825,0.469413 1.481026,0.704119 a 7.4392965,7.4392965 0 0 0 1.277514,0.404051 7.308574,7.308574 0 0 0 1.641459,0.169346 4.3821735,4.3821735 0 0 0 2.75854,-0.735313 2.428764,2.428764 0 0 0 0.929912,-2.014315 2.1390948,2.1390948 0 0 0 -0.582308,-1.470628 6.1900057,6.1900057 0 0 0 -1.714247,-1.247805 q -1.133424,-0.597164 -3.187845,-1.455773 a 19.743549,19.743549 0 0 1 -3.501283,-1.819717"
     style="stroke-width:1.48548;fill-opacity:1;fill:url(#linearGradient3941)" />
</svg>
