<?xml version="1.0" encoding="UTF-8" standalone="no"?>
<svg
   xmlns:dc="http://purl.org/dc/elements/1.1/"
   xmlns:cc="http://creativecommons.org/ns#"
   xmlns:rdf="http://www.w3.org/1999/02/22-rdf-syntax-ns#"
   xmlns:svg="http://www.w3.org/2000/svg"
   xmlns="http://www.w3.org/2000/svg"
   xmlns:xlink="http://www.w3.org/1999/xlink"
   xmlns:sodipodi="http://sodipodi.sourceforge.net/DTD/sodipodi-0.dtd"
   xmlns:inkscape="http://www.inkscape.org/namespaces/inkscape"
   width="48"
   height="48"
   version="1"
   id="svg12"
   sodipodi:docname="system-suspend.svg"
   inkscape:version="0.92.3 (2405546, 2018-03-11)">
  <metadata
     id="metadata18">
    <rdf:RDF>
      <cc:Work
         rdf:about="">
        <dc:format>image/svg+xml</dc:format>
        <dc:type
           rdf:resource="http://purl.org/dc/dcmitype/StillImage" />
      </cc:Work>
    </rdf:RDF>
  </metadata>
  <defs
     id="defs16">
    <linearGradient
       inkscape:collect="always"
       id="linearGradient921">
      <stop
         style="stop-color:#ffffff;stop-opacity:1;"
         offset="0"
         id="stop917" />
      <stop
         style="stop-color:#ffffff;stop-opacity:0;"
         offset="1"
         id="stop919" />
    </linearGradient>
    <linearGradient
       inkscape:collect="always"
       id="linearGradient881">
      <stop
         style="stop-color:#000000;stop-opacity:1;"
         offset="0"
         id="stop877" />
      <stop
         style="stop-color:#000000;stop-opacity:0;"
         offset="1"
         id="stop879" />
    </linearGradient>
    <linearGradient
       inkscape:collect="always"
       id="linearGradient842">
      <stop
         style="stop-color:#125a72;stop-opacity:1"
         offset="0"
         id="stop838" />
      <stop
         style="stop-color:#53b3d3;stop-opacity:1"
         offset="1"
         id="stop840" />
    </linearGradient>
    <linearGradient
       inkscape:collect="always"
       xlink:href="#linearGradient842"
       id="linearGradient844"
       x1="32.260868"
       y1="40.95652"
       x2="26.282608"
       y2="5.9565215"
       gradientUnits="userSpaceOnUse" />
    <linearGradient
       inkscape:collect="always"
       xlink:href="#linearGradient881"
       id="linearGradient883"
       x1="16.09375"
       y1="10.097656"
       x2="40.438885"
       y2="34.442791"
       gradientUnits="userSpaceOnUse" />
    <linearGradient
       inkscape:collect="always"
       xlink:href="#linearGradient881"
       id="linearGradient885"
       x1="29"
       y1="12"
       x2="43.362061"
       y2="26.362061"
       gradientUnits="userSpaceOnUse" />
    <linearGradient
       inkscape:collect="always"
       xlink:href="#linearGradient881"
       id="linearGradient887"
       x1="19"
       y1="18"
       x2="38.717297"
       y2="37.717297"
       gradientUnits="userSpaceOnUse" />
    <linearGradient
       inkscape:collect="always"
       xlink:href="#linearGradient921"
       id="linearGradient923"
       x1="20.076855"
       y1="3.7787485"
       x2="30.727749"
       y2="43.528427"
       gradientUnits="userSpaceOnUse" />
  </defs>
  <sodipodi:namedview
     pagecolor="#ffffff"
     bordercolor="#666666"
     borderopacity="1"
     objecttolerance="10"
     gridtolerance="10"
     guidetolerance="10"
     inkscape:pageopacity="0"
     inkscape:pageshadow="2"
     inkscape:window-width="1920"
     inkscape:window-height="1020"
     id="namedview14"
     showgrid="false"
     inkscape:zoom="14.94"
     inkscape:cx="-0.63186039"
     inkscape:cy="16.287993"
     inkscape:window-x="0"
     inkscape:window-y="30"
     inkscape:window-maximized="1"
     inkscape:current-layer="svg12">
    <inkscape:grid
       type="xygrid"
       id="grid846" />
  </sodipodi:namedview>
  <circle
     fill="#41a5c7"
     cx="24"
     cy="24"
     r="20"
     id="circle2"
     style="fill:url(#linearGradient844);fill-opacity:1" />
  <path
     d="M 43.979,23.418 A 20,20 0 0 1 24,43 20,20 0 0 1 4.022,23.582 20,20 0 0 0 4,24 20,20 0 0 0 24,44 20,20 0 0 0 44,24 20,20 0 0 0 43.979,23.418 Z"
     id="path10"
     inkscape:connector-curvature="0"
     style="opacity:0.2" />
  <path
     style="opacity:0.2;fill:url(#linearGradient885);fill-opacity:1;stroke:none;stroke-width:2.82842708;stroke-linecap:round;stroke-linejoin:round;stroke-miterlimit:4;stroke-dasharray:none;stroke-dashoffset:0;stroke-opacity:1;paint-order:normal"
     d="M 37 12 L 37 13.414062 L 36.414062 14 L 32.414062 18 L 37 18 L 37 20 L 29 20 L 41.888672 32.888672 A 20 20 0 0 0 44 24 A 20 20 0 0 0 43.082031 18.082031 L 37 12 z M 29 14 L 31.292969 16.292969 L 33.585938 14 L 29 14 z "
     id="rect851" />
  <path
     style="opacity:0.2;fill:url(#linearGradient887);fill-opacity:1;stroke:none;stroke-width:2.82842708;stroke-linecap:round;stroke-linejoin:round;stroke-miterlimit:4;stroke-dasharray:none;stroke-dashoffset:0;stroke-opacity:1;paint-order:normal"
     d="M 27 18 L 27 19.414062 L 26.414062 20 L 22.414062 24 L 27 24 L 27 26 L 19 26 L 34.185547 41.185547 A 20 20 0 0 0 41.888672 32.888672 L 27 18 z M 19 20 L 21.292969 22.292969 L 23.585938 20 L 19 20 z "
     id="path861" />
  <path
     style="fill:url(#linearGradient923);stroke-width:2;opacity:1;fill-opacity:1"
     d="M 16.09375 10.097656 A 15.99 16 0 0 0 8 24 A 15.99 16 0 0 0 23.988281 40 A 15.99 16 0 0 0 37.863281 31.914062 A 15.99 16 0 0 0 37.884766 31.902344 L 36.40625 30.425781 A 13.992 14 0 0 1 36.398438 30.4375 A 13.992 14 0 0 1 29.984375 32 A 13.992 14 0 0 1 15.996094 18 A 13.992 14 0 0 1 17.566406 11.574219 L 16.09375 10.097656 z M 29 12 L 29 14 L 33.585938 14 L 29.585938 18 L 29 18.585938 L 29 20 L 37 20 L 37 18 L 32.414062 18 L 36.414062 14 L 37 13.414062 L 37 12 L 35.585938 12 L 29 12 z M 14.605469 13.640625 A 15.99 16 0 0 0 13.996094 18 A 15.99 16 0 0 0 29.984375 34 A 15.99 16 0 0 0 34.359375 33.373047 A 13.992 14 0 0 1 23.988281 38 A 13.992 14 0 0 1 10 24 A 13.992 14 0 0 1 14.605469 13.640625 z M 19 18 L 19 20 L 23.585938 20 L 19.585938 24 L 19 24.585938 L 19 26 L 27 26 L 27 24 L 22.414062 24 L 26.414062 20 L 27 19.414062 L 27 18 L 25.585938 18 L 19 18 z "
     id="path904" />
  <path
     style="opacity:0.2;fill:url(#linearGradient883);fill-opacity:1;stroke:none;stroke-width:2.82842708;stroke-linecap:round;stroke-linejoin:round;stroke-miterlimit:4;stroke-dasharray:none;stroke-dashoffset:0;stroke-opacity:1;paint-order:normal"
     d="M 17.566406 11.574219 A 13.992 14 0 0 0 15.996094 18 A 13.992 14 0 0 0 29.984375 32 A 13.992 14 0 0 0 36.398438 30.4375 A 13.992 14 0 0 0 36.40625 30.425781 L 37.884766 31.902344 A 15.99 16 0 0 1 37.863281 31.914062 A 15.99 16 0 0 1 23.988281 40 A 15.99 16 0 0 1 13.105469 35.703125 L 21.177734 43.775391 A 20 20 0 0 0 24 44 A 20 20 0 0 0 40.802734 34.810547 L 17.566406 11.574219 z M 21.150391 37.705078 A 13.992 14 0 0 0 23.078125 37.955078 L 21.150391 37.705078 z "
     id="rect857" />
</svg>
