<?xml version="1.0" encoding="UTF-8" standalone="no"?>
<svg xmlns="http://www.w3.org/2000/svg" xmlns:xlink="http://www.w3.org/1999/xlink" width="48" height="48" version="1.1">
 <defs>
  <linearGradient id="linearGradient4227">
   <stop style="stop-color:#292c2f;stop-opacity:1" offset="0"/>
   <stop style="stop-color:#000000;stop-opacity:0;" offset="1"/>
  </linearGradient>
  <linearGradient id="linearGradient4219">
   <stop offset="0" style="stop-color:#999a9c;stop-opacity:1"/>
   <stop offset="1" style="stop-color:#f4f5f5;stop-opacity:1"/>
  </linearGradient>
  <linearGradient id="linearGradient4159">
   <stop style="stop-color:#2a2c2f;stop-opacity:1" offset="0"/>
   <stop style="stop-color:#424649;stop-opacity:1" offset="1"/>
  </linearGradient>
  <linearGradient xlink:href="#linearGradient4159" id="linearGradient4165" x1="409.571" y1="543.798" x2="409.571" y2="503.798" gradientUnits="userSpaceOnUse" gradientTransform="translate(-1.7372437e-5,0)"/>
  <linearGradient xlink:href="#linearGradient4219" id="linearGradient4217" x1="25" y1="34" x2="25" y2="14" gradientUnits="userSpaceOnUse"/>
  <linearGradient xlink:href="#linearGradient4227" id="linearGradient4233" x1="403.571" y1="523.798" x2="416.571" y2="536.798" gradientUnits="userSpaceOnUse"/>
 </defs>
 <g transform="translate(-384.57143,-499.798)">
  <rect style="opacity:1;fill:url(#linearGradient4165);fill-opacity:1;stroke:none" width="40" height="40" x="388.57" y="503.8" ry="0"/>
  <rect style="opacity:1;fill:#1c1e20;fill-opacity:1;stroke:none" width="40" height="1" x="388.57" y="542.8"/>
  <path style="opacity:1;fill:url(#linearGradient4217);fill-opacity:1;stroke:none" d="M 20.414062 14 L 19 15.414062 L 27.585938 24 L 19 32.585938 L 20.414062 34 L 29 25.414062 L 30.414062 24 L 29 22.585938 L 20.414062 14 z" transform="translate(384.57143,499.798)"/>
  <path style="fill:url(#linearGradient4233);fill-rule:evenodd;stroke:none;stroke-width:1px;stroke-linecap:butt;stroke-linejoin:miter;stroke-opacity:1;fill-opacity:1;opacity:0.4" d="m 404.98573,533.798 9.5857,9.5857 14,0 0,-5.99991 -13.58607,-13.58607 z"/>
  <path style="fill:#ffffff;fill-rule:evenodd;stroke:none;stroke-width:1px;stroke-linecap:butt;stroke-linejoin:miter;stroke-opacity:1;fill-opacity:0.19607843" d="m 414.98564,523.798 -0.41421,0.41365 -9.99988,-9.99988 0.41377,-0.41377 z"/>
 </g>
</svg>
