<svg xmlns="http://www.w3.org/2000/svg" width="22" height="22" version="1">
 <defs>
  <style id="current-color-scheme" type="text/css">
   .ColorScheme-Text { color:#eff0f1; } .ColorScheme-Highlight { color:#3daee9; }
  </style>
 </defs>
 <path style="fill:currentColor" class="ColorScheme-Text" d="M 9.1757812 5 C 9.1757812 5 7.1953354 4.9569599 5.0976562 6.4980469 C 2.9999782 8.0391299 2 11.228965 2 15.824219 C 2 15.824219 4.2239914 17.899201 7.4433594 18 C 7.4433594 18 7.9829059 17.365754 8.4199219 16.818359 C 6.5699399 16.270965 5.8691406 14.632814 5.8691406 14.632812 C 7.5736656 15.585679 8.732467 15.983424 10.5 16 C 12.267533 15.98342 14.426335 15.585679 16.130859 14.632812 C 16.130859 14.632812 15.43006 16.270965 13.580078 16.818359 C 14.017094 17.365754 14.556641 18 14.556641 18 C 17.776009 17.899201 20 15.824219 20 15.824219 C 20 11.228965 19.000022 8.0391299 16.902344 6.4980469 C 14.804665 4.9569598 12.824219 5 12.824219 5 L 12.677734 5.171875 C 15.299807 5.906568 16.494141 7.5449219 16.494141 7.5449219 C 16.494141 7.5449219 16.173752 7.3730751 15.634766 7.1425781 C 13.999968 6.3578109 12.000043 5.9999685 10.5 6 C 8.9999571 5.9999685 8.0000334 6.3578109 6.3652344 7.1425781 C 5.8262494 7.3730751 5.5058594 7.5449219 5.5058594 7.5449219 C 5.5058594 7.5449219 6.7001906 5.906568 9.3222656 5.171875 L 9.1757812 5 z M 10.5 7 C 11.840988 6.9999718 13.746301 7.3465266 15.201172 8.0449219 A 1.0001 1.0001 0 0 0 15.242188 8.0625 C 15.747683 8.2786754 16.021484 8.4257814 16.021484 8.4257812 A 1.0001 1.0001 0 0 0 17.191406 8.2597656 C 18.266389 9.6778322 18.874173 12.066471 18.939453 15.353516 C 18.552814 15.671999 17.439315 16.453914 15.599609 16.814453 C 16.593687 15.985467 17.050781 15.025391 17.050781 15.025391 A 1.0001 1.0001 0 0 0 15.642578 13.759766 C 14.151306 14.593418 12.123645 14.981427 10.5 14.998047 C 8.8856843 14.981482 7.9930076 14.674092 6.3574219 13.759766 A 1.0001 1.0001 0 0 0 4.9492188 15.025391 C 4.9492188 15.025391 5.4063125 15.985467 6.4003906 16.814453 C 4.5606853 16.453914 3.447186 15.671999 3.0605469 15.353516 C 3.1258266 12.066471 3.7336109 9.6778322 4.8085938 8.2597656 A 1.0001 1.0001 0 0 0 5.9785156 8.4257812 C 5.9785156 8.4257812 6.2523161 8.2786756 6.7578125 8.0625 A 1.0001 1.0001 0 0 0 6.7988281 8.0449219 C 8.3971274 7.2776757 9.159003 6.9999718 10.5 7 z M 8.5 11 C 7.661868 11 7 11.668208 7 12.5 C 7 13.331792 7.676558 14 8.5 14 C 9.338151 14 10 13.331792 10 12.5 C 10.0146 11.668208 9.338151 11 8.5 11 z M 13.5 11 C 12.661849 11 11.9854 11.668208 12 12.5 C 12 13.331792 12.661849 14 13.5 14 C 14.323442 14 15 13.331792 15 12.5 C 15 11.668208 14.338132 11 13.5 11 z"/>
</svg>
