<?xml version="1.0" encoding="UTF-8" standalone="no"?>
<svg
   xmlns:dc="http://purl.org/dc/elements/1.1/"
   xmlns:cc="http://creativecommons.org/ns#"
   xmlns:rdf="http://www.w3.org/1999/02/22-rdf-syntax-ns#"
   xmlns:svg="http://www.w3.org/2000/svg"
   xmlns="http://www.w3.org/2000/svg"
   xmlns:sodipodi="http://sodipodi.sourceforge.net/DTD/sodipodi-0.dtd"
   xmlns:inkscape="http://www.inkscape.org/namespaces/inkscape"
   width="22"
   height="22"
   version="1.1"
   id="svg9"
   sodipodi:docname="fcitx-pinyin-panel.svg"
   inkscape:version="0.92.3 (2405546, 2018-03-11)">
  <metadata
     id="metadata13">
    <rdf:RDF>
      <cc:Work
         rdf:about="">
        <dc:format>image/svg+xml</dc:format>
        <dc:type
           rdf:resource="http://purl.org/dc/dcmitype/StillImage" />
      </cc:Work>
    </rdf:RDF>
  </metadata>
  <sodipodi:namedview
     pagecolor="#ffffff"
     bordercolor="#666666"
     borderopacity="1"
     objecttolerance="10"
     gridtolerance="10"
     guidetolerance="10"
     inkscape:pageopacity="0"
     inkscape:pageshadow="2"
     inkscape:window-width="1920"
     inkscape:window-height="1020"
     id="namedview11"
     showgrid="false"
     inkscape:zoom="21.46"
     inkscape:cx="11"
     inkscape:cy="11"
     inkscape:window-x="0"
     inkscape:window-y="30"
     inkscape:window-maximized="1"
     inkscape:current-layer="svg9" />
  <defs
     id="defs3">
    <style
       id="current-color-scheme"
       type="text/css">
   .ColorScheme-Text { color:#eff0f1; } .ColorScheme-Highlight { color:#3daee9; }
  </style>
  </defs>
  <path
     style="color:#eff0f1;fill:currentColor"
     d="M 5 3 C 3.892 3 3 3.892 3 5 L 3 17 C 3 18.108 3.892 19 5 19 L 17 19 C 18.108 19 19 18.108 19 17 L 19 5 C 19 3.892 18.108 3 17 3 L 5 3 z M 5 4 L 17 4 C 17.571297 4 18 4.4287028 18 5 L 18 17 C 18 17.571297 17.571297 18 17 18 L 5 18 C 4.4287028 18 4 17.571297 4 17 L 4 5 C 4 4.4287028 4.4287028 4 5 4 z M 10.900391 4.6992188 L 10.099609 5.3007812 L 11.375 7 L 10 7 L 10 8 L 11 8 L 11 11 L 9.1171875 11 L 9.2226562 10.949219 L 8.7773438 10.050781 L 8 10.439453 L 8 8 L 9 8 L 9 7 L 8 7 L 8 5 L 7 5 L 7 7 L 5 7 L 5 8 L 7 8 L 7 10.939453 L 4.7773438 12.050781 L 5.2226562 12.949219 L 7 12.060547 L 7 16 L 5 16 L 5 17 L 8 17 L 8 11.560547 L 9 11.060547 L 9 12 L 10.960938 12 C 10.871937 12.9 10.568969 13.610547 10.167969 14.310547 C 9.6706685 15.170547 8.6582031 16.136719 8.6582031 16.136719 L 9.3417969 16.865234 C 9.3417969 16.865234 10.412203 15.880547 11.033203 14.810547 C 11.482203 14.030547 11.862984 13.12 11.958984 12 L 14 12 L 14 17 L 15 17 L 15 12 L 17 12 L 17 11 L 15 11 L 15 8 L 17 8 L 17 7 L 14.625 7 L 15.900391 5.3007812 L 15.099609 4.6992188 L 13.599609 6.6992188 L 13.998047 7 L 12.001953 7 L 12.400391 6.6992188 L 10.900391 4.6992188 z M 12 8 L 14 8 L 14 11 L 12 11 L 12 8 z "
     id="path825" />
</svg>
