<svg xmlns="http://www.w3.org/2000/svg" id="svg9" width="22" height="22" version="1.1">
 <defs id="defs3">
  <style id="current-color-scheme" type="text/css">
   .ColorScheme-Text { color:#eff0f1; } .ColorScheme-Highlight { color:#3daee9; }
  </style>
 </defs>
 <path id="path4492" style="fill:#eff0f1;fill-opacity:1" d="M 6.5292969 3 C 4.5664567 3 3 4.5684098 3 6.53125 L 3 15.46875 C 3 17.431591 4.5664567 19 6.5292969 19 L 15.470703 19 C 17.433543 19 19 17.431591 19 15.46875 L 19 6.53125 C 19 4.5684098 17.433543 3 15.470703 3 L 6.5292969 3 z M 6.5292969 4 L 15.470703 4 C 16.900582 4 18 5.1006861 18 6.53125 L 18 15.46875 C 18 16.899315 16.901025 18 15.470703 18 L 6.5292969 18 C 5.0989748 18 4 16.899315 4 15.46875 L 4 6.53125 C 4 5.100686 5.0994173 4 6.5292969 4 z M 5 5 L 5 5.4707031 C 5.4619624 5.4707031 5.7685239 5.5225236 6.0625 5.8125 C 6.356476 6.1024764 6.9590745 6.8826062 7.875 8.1875 L 10 11.439453 L 10 16 C 9.8120154 16.192984 8.798935 16.493297 8 16.529297 L 8 17 L 14 17 L 14 16.53125 C 13.213064 16.519251 12.210983 16.192984 12 16 L 12 11.46875 L 14.5625 7.40625 C 15.090457 6.6083149 15.526775 6.0784784 15.84375 5.8125 C 16.172723 5.5345226 16.554036 5.5067001 17 5.4707031 L 17 5 L 13 5 L 13 5.4707031 L 14 5.4707031 C 14.187984 5.5556962 14.375 5.7075188 14.375 5.9375 C 14.375 6.0954872 14.300985 6.3489758 14.125 6.6269531 L 11.470703 10.529297 L 8.96875 6.65625 C 8.7697659 6.3902717 8.6894531 6.1429314 8.6894531 5.8769531 C 8.6894531 5.5749777 9.086997 5.5067001 9.6269531 5.4707031 C 9.7909397 5.4707031 9.8710105 5.4827021 10 5.4707031 L 10 5 L 5.0019531 5.0019531 L 5 5 z"/>
</svg>
