<?xml version="1.0" encoding="UTF-8" standalone="no"?>
<!-- Created with Inkscape (http://www.inkscape.org/) -->

<svg
   width="96"
   height="96"
   viewBox="0 0 25.399999 25.400001"
   version="1.1"
   id="svg5"
   inkscape:version="1.1.1 (3bf5ae0d25, 2021-09-20, custom)"
   sodipodi:docname="folder-games.svg"
   xmlns:inkscape="http://www.inkscape.org/namespaces/inkscape"
   xmlns:sodipodi="http://sodipodi.sourceforge.net/DTD/sodipodi-0.dtd"
   xmlns:xlink="http://www.w3.org/1999/xlink"
   xmlns="http://www.w3.org/2000/svg"
   xmlns:svg="http://www.w3.org/2000/svg">
  <sodipodi:namedview
     id="namedview7"
     pagecolor="#ffffff"
     bordercolor="#666666"
     borderopacity="1.0"
     inkscape:pageshadow="2"
     inkscape:pageopacity="0.0"
     inkscape:pagecheckerboard="0"
     inkscape:document-units="px"
     showgrid="false"
     units="px"
     height="96px"
     inkscape:zoom="5.7747054"
     inkscape:cx="83.64063"
     inkscape:cy="55.414082"
     inkscape:window-width="1920"
     inkscape:window-height="1019"
     inkscape:window-x="0"
     inkscape:window-y="0"
     inkscape:window-maximized="1"
     inkscape:current-layer="svg5" />
  <defs
     id="defs2">
    <linearGradient
       inkscape:collect="always"
       id="linearGradient4652">
      <stop
         style="stop-color:#147eb8;stop-opacity:1;"
         offset="0"
         id="stop4648" />
      <stop
         style="stop-color:#22a3e6;stop-opacity:1"
         offset="1"
         id="stop4650" />
    </linearGradient>
    <linearGradient
       inkscape:collect="always"
       id="linearGradient3734">
      <stop
         style="stop-color:#3daee9;stop-opacity:1;"
         offset="0"
         id="stop3730" />
      <stop
         style="stop-color:#6cc1ef;stop-opacity:1"
         offset="1"
         id="stop3732" />
    </linearGradient>
    <linearGradient
       inkscape:collect="always"
       xlink:href="#linearGradient3734"
       id="linearGradient3736"
       x1="15.081244"
       y1="23.283333"
       x2="15.081244"
       y2="5.5562501"
       gradientUnits="userSpaceOnUse" />
    <linearGradient
       inkscape:collect="always"
       xlink:href="#linearGradient4652"
       id="linearGradient4654"
       x1="7.1437502"
       y1="11.509376"
       x2="7.1437502"
       y2="2.1166673"
       gradientUnits="userSpaceOnUse" />
  </defs>
  <path
     id="rect846-3"
     style="fill:url(#linearGradient4654);stroke-width:0.300092;fill-opacity:1"
     d="m 1.3229165,2.1166673 8.9958335,-7e-7 2.381251,3.1749999 11.377083,7e-7 V 18.785418 H 1.3229165 Z"
     sodipodi:nodetypes="ccccccc" />
  <path
     id="rect956"
     style="opacity:0.2;fill:#f9f9f9;stroke-width:0.458269"
     d="m 10.31875,2.1166666 2.381251,3.1749999 11.377083,7e-7 V 5.5562501 H 12.700001 Z"
     sodipodi:nodetypes="cccccc" />
  <path
     id="rect956-3"
     style="opacity:0.2;stroke-width:0.458269"
     d="M 10.054167,8.4666662 12.7,5.5562501 10.31875,8.7312498 H 1.3229166 V 8.4666662 Z"
     sodipodi:nodetypes="cccccc" />
  <path
     id="rect846"
     style="fill:url(#linearGradient3736);stroke-width:0.309472;fill-opacity:1"
     d="M 1.3229166,8.7312498 H 10.31875 L 12.700001,5.5562501 H 24.077084 V 23.283333 H 1.3229166 Z"
     sodipodi:nodetypes="ccccccc" />
  <path
     id="rect956-3-6"
     style="opacity:0.2;fill:#f9f9f9;stroke-width:0.458269"
     d="M 10.31875,8.7312498 12.700001,5.5562501 10.583333,8.9958338 H 1.3229166 v -0.264584 z"
     sodipodi:nodetypes="cccccc" />
  <path
     id="rect956-3-7"
     style="opacity:0.2;stroke-width:0.458269"
     d="m 24.077084,23.018749 v 0.264584 H 1.3229166 v -0.264584 z"
     sodipodi:nodetypes="ccccc" />
  <path
     id="path1233"
     style="opacity:0.99;fill:#1272a5;stroke-width:0.256732"
     d="m 10.054167,11.90625 c -0.8767523,0 -1.5875003,1.066122 -1.5875003,2.38125 v 2.910417 c 0,0.438376 0.355374,0.79375 0.79375,0.79375 0.350457,0 0.561206,-0.232544 0.561206,-0.232544 L 10.911995,16.66875 h 0.02636 c 0.153127,0.322821 0.47831,0.528751 0.835607,0.529167 0.356993,-5.29e-4 0.681896,-0.206199 0.835092,-0.52865 h 0.181901 c 0.153195,0.322451 0.478098,0.528129 0.83509,0.52865 0.357298,-4.23e-4 0.682481,-0.206346 0.835608,-0.529167 h 0.02636 c 0,0 1.089339,1.095541 1.089339,1.095541 0,0 0.238412,0.243149 0.567924,0.226859 0.438375,0 0.788065,-0.354857 0.788065,-0.793233 V 14.2875 c 0,-1.315128 -0.710748,-2.38125 -1.5875,-2.38125 z m 0,0.264583 h 5.291666 c 0.730627,0 1.322917,0.947664 1.322917,2.116667 v 2.910417 c 0,0.29225 -0.236917,0.529669 -0.529167,0.529167 -0.246517,-4.24e-4 -0.374137,-0.15503 -0.374137,-0.15503 l -1.167888,-1.167887 h -0.331245 c -0.06226,0.305111 -0.328895,0.525478 -0.640272,0.529167 -0.311376,-0.0037 -0.578013,-0.224056 -0.640271,-0.529167 h -0.571541 c -0.06226,0.305111 -0.328895,0.525478 -0.640271,0.529167 -0.311376,-0.0037 -0.578013,-0.224056 -0.640271,-0.529167 h -0.331246 l -1.1678873,1.167887 c 0,0 -0.127621,0.154606 -0.374137,0.15503 -0.29225,5.02e-4 -0.529167,-0.236917 -0.529167,-0.529167 V 14.2875 c 0,-1.169003 0.59229,-2.116667 1.3229173,-2.116667 z m 0,0.529167 v 0.79375 H 9.2604167 v 0.79375 h 0.7937503 v 0.79375 h 0.79375 V 14.2875 h 0.79375 v -0.79375 h -0.79375 V 12.7 Z m 4.894791,0 a 0.396875,0.396875 0 0 0 -0.396875,0.396875 0.396875,0.396875 0 0 0 0.396875,0.396875 0.396875,0.396875 0 0 0 0.396875,-0.396875 A 0.396875,0.396875 0 0 0 14.948958,12.7 Z m -0.79375,0.79375 a 0.396875,0.396875 0 0 0 -0.396875,0.396875 0.396875,0.396875 0 0 0 0.396875,0.396875 0.396875,0.396875 0 0 0 0.396875,-0.396875 0.396875,0.396875 0 0 0 -0.396875,-0.396875 z m 1.5875,0 a 0.396875,0.396875 0 0 0 -0.396875,0.396875 0.396875,0.396875 0 0 0 0.396875,0.396875 0.396875,0.396875 0 0 0 0.396875,-0.396875 0.396875,0.396875 0 0 0 -0.396875,-0.396875 z m -0.79375,0.79375 a 0.396875,0.396875 0 0 0 -0.396875,0.396875 0.396875,0.396875 0 0 0 0.396875,0.396875 0.396875,0.396875 0 0 0 0.396875,-0.396875 0.396875,0.396875 0 0 0 -0.396875,-0.396875 z m -3.175,0.79375 a 0.66145832,0.66145832 0 0 0 -0.661458,0.661459 0.66145832,0.66145832 0 0 0 0.661458,0.661458 0.66145832,0.66145832 0 0 0 0.661459,-0.661458 0.66145832,0.66145832 0 0 0 -0.661459,-0.661459 z m 1.852083,0 a 0.66145832,0.66145832 0 0 0 -0.661458,0.661459 0.66145832,0.66145832 0 0 0 0.661458,0.661458 0.66145832,0.66145832 0 0 0 0.661459,-0.661458 0.66145832,0.66145832 0 0 0 -0.661459,-0.661459 z" />
</svg>
