<?xml version="1.0" encoding="UTF-8" standalone="no"?>
<!-- Created with Inkscape (http://www.inkscape.org/) -->

<svg
   width="96"
   height="96"
   viewBox="0 0 25.399999 25.400001"
   version="1.1"
   id="svg5"
   inkscape:version="1.1.1 (3bf5ae0d25, 2021-09-20, custom)"
   sodipodi:docname="folder-book.svg"
   xmlns:inkscape="http://www.inkscape.org/namespaces/inkscape"
   xmlns:sodipodi="http://sodipodi.sourceforge.net/DTD/sodipodi-0.dtd"
   xmlns:xlink="http://www.w3.org/1999/xlink"
   xmlns="http://www.w3.org/2000/svg"
   xmlns:svg="http://www.w3.org/2000/svg">
  <sodipodi:namedview
     id="namedview7"
     pagecolor="#ffffff"
     bordercolor="#666666"
     borderopacity="1.0"
     inkscape:pageshadow="2"
     inkscape:pageopacity="0.0"
     inkscape:pagecheckerboard="0"
     inkscape:document-units="px"
     showgrid="false"
     units="px"
     height="96px"
     inkscape:zoom="5.7747054"
     inkscape:cx="19.914436"
     inkscape:cy="50.56535"
     inkscape:window-width="1920"
     inkscape:window-height="1007"
     inkscape:window-x="0"
     inkscape:window-y="0"
     inkscape:window-maximized="1"
     inkscape:current-layer="svg5" />
  <defs
     id="defs2">
    <style
       type="text/css"
       id="current-color-scheme">
      .ColorScheme-Text {
        color:#31363b;
      }
      .ColorScheme-Highlight {
        color:#3daee9;
      }
      </style>
    <linearGradient
       inkscape:collect="always"
       id="linearGradient3163">
      <stop
         style="stop-color:#000000;stop-opacity:1;"
         offset="0"
         id="stop3159" />
      <stop
         style="stop-color:#000000;stop-opacity:0;"
         offset="1"
         id="stop3161" />
    </linearGradient>
    <linearGradient
       inkscape:collect="always"
       id="linearGradient3734">
      <stop
         style="stop-color:#ffffff;stop-opacity:1"
         offset="0"
         id="stop3730" />
      <stop
         style="stop-color:#ffffff;stop-opacity:0"
         offset="1"
         id="stop3732" />
    </linearGradient>
    <linearGradient
       inkscape:collect="always"
       xlink:href="#linearGradient3734"
       id="linearGradient3736"
       x1="24.077084"
       y1="5.291667"
       x2="24.077084"
       y2="23.283333"
       gradientUnits="userSpaceOnUse" />
    <linearGradient
       inkscape:collect="always"
       xlink:href="#linearGradient3163"
       id="linearGradient3165"
       x1="-4.2394924"
       y1="9.0177469"
       x2="-4.2394924"
       y2="16.69067"
       gradientUnits="userSpaceOnUse"
       gradientTransform="translate(4.2879353,-9.0415772)" />
  </defs>
  <path
     id="rect846-3"
     style="fill:currentColor;fill-opacity:1;stroke-width:0.300092"
     class="ColorScheme-Highlight"
     d="m 1.3229165,2.1166673 8.9958335,-7e-7 2.381251,3.1749999 11.377083,7e-7 V 23.283333 H 1.3229165 Z"
     sodipodi:nodetypes="ccccccc" />
  <path
     id="rect846"
     style="fill:url(#linearGradient3736);stroke-width:0.309472;fill-opacity:1;opacity:0.3"
     d="M 1.3229166,8.7312498 H 10.31875 L 12.700001,5.5562501 H 24.077084 V 23.283333 H 1.3229166 Z"
     sodipodi:nodetypes="ccccccc" />
  <path
     id="rect956-3-7"
     style="opacity:0.2;stroke-width:0.458269"
     d="m 24.077084,23.018749 v 0.264584 H 1.3229166 v -0.264584 z"
     sodipodi:nodetypes="ccccc" />
  <path
     id="rect2169"
     style="opacity:0.3;fill:url(#linearGradient3165);fill-opacity:1;stroke-width:0.264583"
     d="m 1.3229165,2.1166678 8.9958335,-1e-6 2.381251,3.175 11.377083,1e-6 v 0.264583 H 12.7 l -2.38125,3.174999 H 1.3229166 Z"
     sodipodi:nodetypes="ccccccccc" />
  <path
     id="rect2772"
     style="opacity:0.2;stroke-width:0.264583"
     d="m 1.322917,2.1166668 h 8.995833 l 2.381251,3.175 11.377083,1e-6 v 0.264583 H 12.7 l -2.38125,3.174999 -8.995833,-1e-6 z"
     sodipodi:nodetypes="ccccccccc" />
  <path
     id="rect956-3"
     style="opacity:0.2;stroke-width:0.458269"
     d="M 10.054167,8.4666662 12.7,5.5562501 10.31875,8.7312498 H 1.3229166 V 8.4666662 Z"
     sodipodi:nodetypes="cccccc" />
  <path
     id="rect956-3-6"
     style="opacity:0.2;fill:#ffffff;stroke-width:1.73204"
     d="M 39 8 L 48 21 L 91 21 L 91 20 L 48 20 L 39 8 z M 48 21 L 39 33 L 5 33 L 5 34 L 40 34 L 48 21 z "
     transform="scale(0.26458333)" />
  <path
     id="rect855"
     style="fill:#31363b;stroke-width:0.264583;fill-opacity:0.50196081"
     d="m 9.5250003,10.847917 v 1.322916 H 8.73125 v 1.5875 H 9.5250003 V 15.875 H 8.73125 v 1.5875 h 0.7937503 v 1.322917 h 6.6145827 v -7.9375 z m 0.264583,0.264583 h 1.0583327 v 7.408333 H 9.7895833 Z m 1.3229167,0 h 4.7625 v 7.408333 h -4.7625 z" />
</svg>
