<?xml version="1.0" encoding="UTF-8" standalone="no"?>
<svg
   id="svg71"
   version="1.1"
   viewBox="0 0 96 96"
   sodipodi:docname="user-trash.svg"
   inkscape:version="1.1.1 (3bf5ae0d25, 2021-09-20, custom)"
   xmlns:inkscape="http://www.inkscape.org/namespaces/inkscape"
   xmlns:sodipodi="http://sodipodi.sourceforge.net/DTD/sodipodi-0.dtd"
   xmlns:xlink="http://www.w3.org/1999/xlink"
   xmlns="http://www.w3.org/2000/svg"
   xmlns:svg="http://www.w3.org/2000/svg">
  <sodipodi:namedview
     id="namedview43"
     pagecolor="#ffffff"
     bordercolor="#666666"
     borderopacity="1.0"
     inkscape:pageshadow="2"
     inkscape:pageopacity="0.0"
     inkscape:pagecheckerboard="0"
     showgrid="false"
     inkscape:zoom="7.8229167"
     inkscape:cx="20.964048"
     inkscape:cy="57.075899"
     inkscape:window-width="1920"
     inkscape:window-height="1019"
     inkscape:window-x="0"
     inkscape:window-y="31"
     inkscape:window-maximized="1"
     inkscape:current-layer="svg71" />
  <defs
     id="defs12">
    <linearGradient
       inkscape:collect="always"
       id="linearGradient1986">
      <stop
         style="stop-color:#6cc1ef;stop-opacity:1;"
         offset="0"
         id="stop1982" />
      <stop
         style="stop-color:#22a3e6;stop-opacity:1"
         offset="1"
         id="stop1984" />
    </linearGradient>
    <radialGradient
       id="l"
       cx="20.571428"
       cy="8.5"
       r="4"
       gradientTransform="matrix(11.225337,-1.0222482e-7,8.1600553e-8,2.25,-182.84228,4.8750023)"
       gradientUnits="userSpaceOnUse">
      <stop
         id="stop2"
         stop-color="#4f575f"
         stop-opacity=".25098041"
         offset="0" />
      <stop
         id="stop4"
         stop-color="#8a939a"
         offset="1" />
    </radialGradient>
    <linearGradient
       id="k"
       x1="390.57101"
       x2="410.57101"
       y1="521.79797"
       y2="545.79797"
       gradientTransform="matrix(3,0,0,2.75,-1153.7131,-1413.9445)"
       gradientUnits="userSpaceOnUse">
      <stop
         id="stop7"
         stop-color="#bdc3c7"
         offset="0" />
      <stop
         id="stop9"
         stop-color="#8a9696"
         offset="1" />
    </linearGradient>
    <linearGradient
       id="linearGradient916"
       x1="395.57101"
       x2="395.57101"
       y1="520.79797"
       y2="516.79797"
       gradientTransform="matrix(3,0,0,3,-1153.7131,-1544.394)"
       gradientUnits="userSpaceOnUse">
      <stop
         id="stop31"
         stop-color="#afb0b3"
         offset="0" />
      <stop
         id="stop33"
         stop-color="#bdc3c7"
         offset="1" />
    </linearGradient>
    <radialGradient
       id="radialGradient1034"
       cx="48"
       cy="17.25"
       r="10"
       gradientTransform="matrix(2.1,0,0,1.6,-52.8,-9.6)"
       gradientUnits="userSpaceOnUse">
      <stop
         id="stop21"
         stop-color="#4f575f"
         stop-opacity=".25"
         offset="0" />
      <stop
         id="stop23"
         stop-color="#9da5ab"
         offset="1" />
    </radialGradient>
    <linearGradient
       inkscape:collect="always"
       xlink:href="#linearGradient1986"
       id="linearGradient1988"
       x1="29"
       y1="60"
       x2="19"
       y2="50"
       gradientUnits="userSpaceOnUse" />
    <linearGradient
       inkscape:collect="always"
       xlink:href="#linearGradient1986"
       id="linearGradient2218"
       x1="44.000031"
       y1="60"
       x2="34.000031"
       y2="50"
       gradientUnits="userSpaceOnUse" />
    <linearGradient
       inkscape:collect="always"
       xlink:href="#linearGradient1986"
       id="linearGradient2802"
       x1="62.000031"
       y1="60"
       x2="52.000031"
       y2="50"
       gradientUnits="userSpaceOnUse" />
    <linearGradient
       inkscape:collect="always"
       xlink:href="#linearGradient1986"
       id="linearGradient3194"
       x1="77.000061"
       y1="60"
       x2="67.000061"
       y2="50"
       gradientUnits="userSpaceOnUse" />
  </defs>
  <linearGradient
     id="a">
    <stop
       id="stop14"
       stop-color="#4f575f"
       stop-opacity=".4"
       offset="0" />
    <stop
       id="stop16"
       stop-color="#4f575f"
       stop-opacity=".6"
       offset=".5" />
    <stop
       id="stop18"
       stop-color="#4f575f"
       stop-opacity=".4"
       offset="1" />
  </linearGradient>
  <linearGradient
     id="c"
     x1="412.57101"
     x2="412.57101"
     y1="522.79797"
     y2="520.79797"
     gradientTransform="matrix(3,0,0,3,-1153.7131,-1544.394)"
     gradientUnits="userSpaceOnUse">
    <stop
       id="stop26"
       stop-color="#9da5ab"
       offset="0" />
    <stop
       id="stop28"
       stop-color="#bdc3c7"
       offset="1" />
  </linearGradient>
  <linearGradient
     id="f"
     x1="390.57101"
     x2="406.57101"
     y1="521.79797"
     y2="537.79797"
     gradientTransform="matrix(3,0,0,2.8636364,-1153.7131,-1470.2397)"
     gradientUnits="userSpaceOnUse">
    <stop
       id="stop36"
       stop-color="#292c2f"
       offset="0" />
    <stop
       id="stop38"
       stop-opacity="0"
       offset="1" />
  </linearGradient>
  <linearGradient
     id="g"
     x1="391.57101"
     x2="394.57101"
     y1="534.79797"
     y2="534.79797"
     gradientTransform="matrix(2.00001,0,0,2.7,-747.14101,-1389.9546)"
     gradientUnits="userSpaceOnUse"
     xlink:href="#a" />
  <linearGradient
     id="h"
     x1="391.57101"
     x2="394.57101"
     y1="534.79797"
     y2="534.79797"
     gradientTransform="matrix(2.00001,0,0,2.6999999,-762.14401,-1389.9544)"
     gradientUnits="userSpaceOnUse"
     xlink:href="#a" />
  <linearGradient
     id="i"
     x1="391.57101"
     x2="394.57101"
     y1="534.79797"
     y2="534.79797"
     gradientTransform="matrix(2.00001,0,0,2.7,-729.14401,-1389.9546)"
     gradientUnits="userSpaceOnUse"
     xlink:href="#a" />
  <linearGradient
     id="j"
     x1="391.57101"
     x2="394.57101"
     y1="534.79797"
     y2="534.79797"
     gradientTransform="matrix(2.00001,0,0,2.7,-714.14101,-1389.9546)"
     gradientUnits="userSpaceOnUse"
     xlink:href="#a" />
  <path
     id="path45"
     d="M 18,21 V 84.250001 C 18,85.773499 19.338,87 21,87 h 54 c 1.662,0 3,-1.226501 3,-2.749999 V 21 Z"
     fill="url(#k)"
     stroke-width="2.87228" />
  <path
     id="path51"
     d="m15 18c-1.662 0-3 1.338-3 3v3h72v-3c0-1.662-1.338-3-3-3z"
     fill="url(#c)"
     stroke-width="3" />
  <path
     id="path47"
     d="m36 9c-1.662 0-3 1.338-3 3v6h6v-2.25c-9.15e-4 -0.395088 0.304831-0.723135 0.699-0.75h16.605c0.392985 0.02836 0.69702 0.355991 0.696 0.75v2.25h6v-6c0-1.662-1.338-3-3-3z"
     fill="url(#linearGradient916)"
     stroke-width="3" />
  <path
     id="path987"
     d="m39 14c-0.554 0-1 0.446-1 1v3h1v-2.25c0-0.4155 0.3345-0.75 0.75-0.75h16.5c0.4155 0 0.75 0.3345 0.75 0.75v2.25h1v-3c0-0.554-0.446-1-1-1z"
     fill="url(#radialGradient1034)" />
  <g
     stroke-width="2.84605"
     id="g37">
    <path
       id="rect882-3-7"
       style="opacity:1;fill:url(#linearGradient3194);fill-opacity:1;stroke-width:0.897913"
       d="m 72.000062,27 c 1.662,0 3,1.178919 3,2.7 v 48.6 c 0,1.570123 -1.338,2.7 -3,2.7 -1.662,0 -3,-1.1764 -3,-2.7 V 29.7 c 0,-1.487334 1.338,-2.7 3,-2.7 z"
       sodipodi:nodetypes="sssssss" />
    <path
       id="rect882-6"
       style="opacity:1;fill:url(#linearGradient2802);fill-opacity:1;stroke-width:0.897913"
       d="m 57.000031,27 c 1.662,0 3,1.178919 3,2.7 v 48.6 c 0,1.570123 -1.338,2.7 -3,2.7 -1.662,0 -3,-1.1764 -3,-2.7 V 29.7 c 0,-1.487334 1.338,-2.7 3,-2.7 z"
       sodipodi:nodetypes="sssssss" />
    <path
       id="rect882-3"
       style="opacity:1;fill:url(#linearGradient2218);fill-opacity:1;stroke-width:0.897913"
       d="m 39.000031,27 c 1.662,0 3,1.178919 3,2.7 v 48.6 c 0,1.570123 -1.338,2.7 -3,2.7 -1.662,0 -3,-1.1764 -3,-2.7 V 29.7 c 0,-1.487334 1.338,-2.7 3,-2.7 z"
       sodipodi:nodetypes="sssssss" />
    <path
       id="rect882"
       style="opacity:1;fill:url(#linearGradient1988);fill-opacity:1;stroke-width:0.897913"
       d="m 24,27 c 1.662,0 3,1.178919 3,2.7 v 48.6 c 0,1.570123 -1.338,2.7 -3,2.7 -1.662,0 -3,-1.1764 -3,-2.7 V 29.7 C 21,28.212666 22.338,27 24,27 Z"
       sodipodi:nodetypes="sssssss" />
  </g>
  <path
     id="path65"
     d="m18 24v6l60 57v-63z"
     fill="url(#f)"
     opacity=".2"
     stroke-width="2.93103" />
  <path
     id="path67"
     d="m12 24h72v-1h-72z"
     fill="url(#l)"
     stroke-width="2.11899" />
  <path
     id="path69"
     d="m78 83.25c0 0.761748-0.334703 1.449959-0.876953 1.947266s-1.292047 0.802734-2.123047 0.802734h-54c-0.831 0-1.580797-0.305427-2.123047-0.802734s-0.876953-1.185518-0.876953-1.947266v1c0 1.523496 1.338 2.75 3 2.75h54c1.662 0 3-1.226504 3-2.75z"
     opacity=".2" />
</svg>
