<?xml version="1.0" encoding="UTF-8" standalone="no"?>
<!-- Created with Inkscape (http://www.inkscape.org/) -->

<svg
   width="64"
   version="1.1"
   height="64"
   id="svg2"
   inkscape:version="1.1.1 (3bf5ae0d25, 2021-09-20, custom)"
   sodipodi:docname="system-file-manager.svg"
   xmlns:inkscape="http://www.inkscape.org/namespaces/inkscape"
   xmlns:sodipodi="http://sodipodi.sourceforge.net/DTD/sodipodi-0.dtd"
   xmlns:xlink="http://www.w3.org/1999/xlink"
   xmlns="http://www.w3.org/2000/svg"
   xmlns:svg="http://www.w3.org/2000/svg"
   xmlns:rdf="http://www.w3.org/1999/02/22-rdf-syntax-ns#"
   xmlns:cc="http://creativecommons.org/ns#"
   xmlns:dc="http://purl.org/dc/elements/1.1/">
  <sodipodi:namedview
     pagecolor="#ffffff"
     bordercolor="#666666"
     borderopacity="1"
     objecttolerance="10"
     gridtolerance="10"
     guidetolerance="10"
     inkscape:pageopacity="0"
     inkscape:pageshadow="2"
     inkscape:window-width="1920"
     inkscape:window-height="1019"
     id="namedview17"
     showgrid="true"
     inkscape:object-nodes="true"
     inkscape:zoom="3.6875"
     inkscape:cx="35.79661"
     inkscape:cy="3.661017"
     inkscape:window-x="0"
     inkscape:window-y="31"
     inkscape:window-maximized="1"
     inkscape:current-layer="layer1"
     inkscape:pagecheckerboard="0">
    <inkscape:grid
       type="xygrid"
       id="grid4177" />
  </sodipodi:namedview>
  <defs
     id="defs5455">
    <linearGradient
       inkscape:collect="always"
       id="linearGradient4501">
      <stop
         style="stop-color:#fcbc19;stop-opacity:1"
         offset="0"
         id="stop4497" />
      <stop
         style="stop-color:#f4b61f;stop-opacity:1"
         offset="1"
         id="stop4499" />
    </linearGradient>
    <linearGradient
       gradientTransform="translate(-384.57144,-483.7981)"
       inkscape:collect="always"
       xlink:href="#linearGradient4176"
       id="linearGradient4182"
       x1="406.57144"
       y1="503.7981"
       x2="440.57144"
       y2="532.7981"
       gradientUnits="userSpaceOnUse" />
    <linearGradient
       inkscape:collect="always"
       id="linearGradient4176">
      <stop
         style="stop-color:#fce798;stop-opacity:1"
         offset="0"
         id="stop4178" />
      <stop
         style="stop-color:#ffc937;stop-opacity:1"
         offset="1"
         id="stop4180" />
    </linearGradient>
    <linearGradient
       inkscape:collect="always"
       xlink:href="#linearGradient4501"
       id="linearGradient4503"
       x1="414.57144"
       y1="489.798"
       x2="414.57144"
       y2="503.798"
       gradientUnits="userSpaceOnUse"
       gradientTransform="translate(-384.57143,-483.798)" />
    <linearGradient
       inkscape:collect="always"
       xlink:href="#linearGradient1884"
       id="linearGradient988"
       x1="8.9999905"
       y1="1029.3622"
       x2="39"
       y2="1046.3622"
       gradientUnits="userSpaceOnUse"
       gradientTransform="translate(385.57144,-504.5643)" />
    <linearGradient
       inkscape:collect="always"
       id="linearGradient1884">
      <stop
         style="stop-color:#1394dc;stop-opacity:1;"
         offset="0"
         id="stop1880" />
      <stop
         style="stop-color:#156ed0;stop-opacity:1"
         offset="1"
         id="stop1882" />
    </linearGradient>
  </defs>
  <metadata
     id="metadata5458">
    <rdf:RDF>
      <cc:Work
         rdf:about="">
        <dc:format>image/svg+xml</dc:format>
        <dc:type
           rdf:resource="http://purl.org/dc/dcmitype/StillImage" />
      </cc:Work>
    </rdf:RDF>
  </metadata>
  <g
     inkscape:label="Capa 1"
     inkscape:groupmode="layer"
     id="layer1"
     transform="translate(-384.57143,-483.798)">
    <path
       inkscape:connector-curvature="0"
       style="fill:#ffffff;fill-opacity:0.235294;fill-rule:evenodd"
       id="path4224-3"
       d="m 387.57144,503.79802 v 1 h 19.99999 l 3,-5 -4,4 z" />
    <path
       id="rect4160"
       style="fill:url(#linearGradient4503);fill-opacity:1;fill-rule:evenodd;stroke:none;stroke-width:1px;stroke-linecap:butt;stroke-linejoin:miter;stroke-opacity:1"
       d="M 5,6 C 3.8919662,6 3,6.8919662 3,8 V 50 H 61 V 14 c 0,-1.10803 -0.89197,-2 -2,-2 H 32 L 27,6 Z"
       transform="translate(384.57143,483.798)" />
    <path
       id="path4166"
       style="fill:#ffffff;fill-opacity:0.235294;fill-rule:evenodd"
       d="m 27,6 5,7 h 2 25 c 1.10803,0 2,0.89197 2,2 v -1 c 0,-1.10803 -0.89197,-2 -2,-2 H 34 32 Z"
       transform="translate(384.57143,483.798)" />
    <path
       id="rect3347"
       style="fill:url(#linearGradient4182);fill-opacity:1;fill-rule:evenodd;stroke:none;stroke-width:1px;stroke-linecap:butt;stroke-linejoin:miter;stroke-opacity:1"
       d="m 32,13 -5,6 H 3 v 37 c 0,1.10803 0.89197,2 2,2 h 54 c 1.10803,0 2,-0.89197 2,-2 V 15 c 0,-1.10803 -0.89197,-2 -2,-2 z"
       transform="translate(384.57143,483.798)" />
    <path
       sodipodi:nodetypes="cccccccc"
       inkscape:connector-curvature="0"
       style="fill:#ffffff;fill-opacity:0.235294;fill-rule:evenodd"
       id="path4168"
       d="m 416.57143,496.7979 -4,7 h -4 -21 v -1 h 21 3 z" />
    <path
       inkscape:connector-curvature="0"
       style="fill:#000000;fill-opacity:0.235294;fill-rule:evenodd"
       id="path4228-6"
       d="m 387.57143,501.7979 v 1 h 24 l 5,-6 -6,5 z"
       sodipodi:nodetypes="cccccc" />
    <path
       id="path4151-2-7"
       style="fill-opacity:0.235294"
       d="m 3,55 v 1 c 0,1.10803 0.89197,2 2,2 h 54 c 1.10803,0 2,-0.89197 2,-2 v -1 c 0,1.10803 -0.89197,2 -2,2 H 5 C 3.89197,57 3,56.10803 3,55 Z"
       transform="translate(384.57143,483.798)" />
    <path
       id="rect3670"
       style="opacity:0.3;stroke-width:1.06882"
       d="m 390.57143,493.798 h 16 v 4 h -16 z" />
    <path
       id="rect3954"
       style="fill:#ffffff;stroke-width:1.03015"
       d="m 391.57143,494.798 h 14 v 2 h -14 z" />
    <path
       id="rect3954-1"
       style="fill:#62bdee;stroke-width:0.674392"
       d="m 391.57143,494.798 h 6 v 2 h -6 z" />
    <path
       id="rect882"
       style="fill:url(#linearGradient988);stroke-width:0.811679"
       d="m 399.57144,527.798 h 34 c 1.99999,0 4,1.0001 4,4 v 9.9999 h -42 v -9.9999 c 0,-2.9999 1.99999,-4 4,-4 z"
       sodipodi:nodetypes="sssccss" />
    <path
       id="rect4701"
       style="opacity:0.2;stroke-width:0.881338"
       d="m 400.57144,533.798 h 32 c 0.554,0 1,0.446 1,1 0,0.554 -0.446,1 -1,1 h -32 c -0.554,0 -1,-0.446 -1,-1 0,-0.554 0.446,-1 1,-1 z"
       sodipodi:nodetypes="sssssss" />
  </g>
</svg>
