<svg xmlns="http://www.w3.org/2000/svg" id="svg7" width="22" height="22" version="1.1">
 <defs id="defs3">
  <style id="current-color-scheme" type="text/css">
   .ColorScheme-Text { color:#eff0f1; } .ColorScheme-Highlight { color:#3daee9; }
  </style>
  <style id="current-color-scheme-3" type="text/css">
   .ColorScheme-Text { color:#d3dae3; } .ColorScheme-Highlight { color:#5294e2; }
  </style>
 </defs>
 <g id="g4" style="fill:#eff0f1;fill-opacity:1" transform="translate(-473,-957.27)">
  <path id="path6" style="color:#d3dae3;fill:#eff0f1;fill-opacity:1" class="ColorScheme-Text" d="m 476,960.27 v 1.00005 14.99995 h 2 12 2 v -16 l -2,2e-4 c -4,-9e-5 -14,-2e-4 -14,-2e-4 z m 2,1 h 12 1 v 2 6 1 h -0.625 l -1.9062,-6.625 -0.4375,-1.5625 -0.5,1.5312 -1.5312,4.5938 -1.5312,-4.5938 -0.46875,-1.4375 -0.46875,1.4375 -2.5,7.5 -1.5625,-5.4688 -0.0937,-0.375 h -0.375 -2 v -2 -1.99995 c 0,0 0,-5e-5 1,-5e-5 z m 6,4.0625 1.5312,4.5938 0.46875,1.4375 0.46875,-1.4375 1.5,-4.5 1.5625,5.4688 0.0937,0.375 h 0.375 1 v 2 1 c 0,1 10e-5,1 10e-5,1 l -14,-0.0353 c 0,0 -10e-5,0.0353 -10e-5,-0.96469 v -1 -6 -1 h 1.625 l 1.9062,6.625 0.4375,1.5625 0.5,-1.5312 2.5313,-7.5938 z"/>
 </g>
</svg>
