<svg xmlns="http://www.w3.org/2000/svg" id="svg2" width="22" height="22" version="1.1">
 <defs id="defs10">
  <style id="current-color-scheme" type="text/css">
   .ColorScheme-Text { color:#eff0f1; } .ColorScheme-Highlight { color:#3daee9; }
  </style>
 </defs>
 <path id="path4" fill-rule="evenodd" style="fill:#3daee9;fill-opacity:1" class="ColorScheme-Text" d="m12 2.5v3l7 4v-3l-7-4zm-8 0.7227c-0.552 0-1 0.448-1 1v1.2773l7 4v-2.998c-1.833-1.048-3.6739-2.1035-5.5039-3.1465-0.151-0.087-0.3221-0.1328-0.4961-0.1328zm-1 4.2773v3l7 4v-3l-7-4zm9 0v3l7 4v-3l-7-4zm-9 5v3l7 4v-3l-7-4z"/>
 <path id="path6" fill-rule="evenodd" style="fill:#3daee9;fill-opacity:1" class="ColorScheme-Highlight" d="m12 12.5v2.998c1.833 1.048 3.6739 2.1035 5.5039 3.1465 0.151 0.087 0.32209 0.13281 0.49609 0.13281 0.552 0 1-0.448 1-1v-1.277l-7-4z"/>
</svg>
