<svg xmlns="http://www.w3.org/2000/svg" width="22" height="22" version="1.1">
 <defs>
  <style id="current-color-scheme" type="text/css">
   .ColorScheme-Text { color:#eff0f1; } .ColorScheme-Highlight { color:#3daee9; }
  </style>
 </defs>
 <path style="fill:currentColor" class="ColorScheme-Text" d="M 4.8613281,3 C 3.8408878,2.978527 3.0005357,3.7113 3,4.6230469 L 5,11 3,17.376953 c 0.00175,1.249871 1.5170593,2.02976 2.7285156,1.404297 l 6.1816404,-3.1875 6.181641,-3.1875 c 1.211098,-0.625425 1.211098,-2.187075 0,-2.8125 L 11.910156,6.40625 5.7285156,3.2167969 C 5.4643728,3.0807332 5.1661674,3.0061818 4.8613281,3 Z m -0.021484,1 h 0.00195 c 0.1544533,0.00313 0.3040803,0.042105 0.4277343,0.1054688 l 6.1816408,3.1894531 6.18164,3.1875001 C 17.936635,10.639442 18,10.822465 18,11 c 0,0.177535 -0.06337,0.360558 -0.367188,0.517578 l -6.18164,3.1875 -6.1816408,3.1875 C 4.6614973,18.206492 4.0016646,17.818862 4,17.376953 L 6,11 4,4.625 C 4.0002153,4.327434 4.3094151,3.9888456 4.8398438,4 Z M 6,6 8,11 6,16 10.5,13.5 15,11 10.5,8.5 Z"/>
</svg>
