<svg xmlns="http://www.w3.org/2000/svg" id="svg9" width="22" height="22" version="1.1">
 <defs id="defs3">
  <style id="current-color-scheme" type="text/css">
   .ColorScheme-Text { color:#eff0f1; } .ColorScheme-Highlight { color:#3daee9; }
  </style>
 </defs>
 <path id="path4500" style="opacity:1;fill:#eff0f1;fill-opacity:1" d="M 11 3.0039062 C 8.92893 3.0039062 7.16529 4.2718264 6.40625 6.0664062 C 4.47842 6.3530064 3 7.9963268 3 10.003906 C 3 12.213046 4.79086 14.003906 7 14.003906 L 15.5 14.003906 C 17.433 14.003906 19 12.436906 19 10.503906 C 19 8.7073666 17.64921 7.2352063 15.90625 7.0351562 C 15.45168 4.7417662 13.42687 3.0039063 11 3.0039062 z M 11 4.0039062 C 12.949476 4.0039062 14.562591 5.3981071 14.925781 7.2304688 L 15.066406 7.9453125 L 15.792969 8.0292969 C 17.041935 8.1726487 18 9.2086231 18 10.503906 C 18 11.896468 16.892562 13.003906 15.5 13.003906 L 7 13.003906 C 5.3312996 13.003906 4 11.672607 4 10.003906 C 4 8.4872732 5.1012983 7.2704647 6.5527344 7.0546875 L 7.109375 6.9726562 L 7.328125 6.4550781 C 7.9365026 5.0167057 9.3370669 4.0039063 11 4.0039062 z M 5.9785156 14.994141 A 0.50005 0.50005 0 0 0 5.5527344 15.277344 L 4.5527344 17.277344 A 0.50006306 0.50006306 0 1 0 5.4472656 17.724609 L 6.4472656 15.724609 A 0.50005 0.50005 0 0 0 5.9785156 14.994141 z M 8.4785156 14.994141 A 0.50005 0.50005 0 0 0 8.0527344 15.277344 L 7.0527344 17.277344 A 0.50006306 0.50006306 0 1 0 7.9472656 17.724609 L 8.9472656 15.724609 A 0.50005 0.50005 0 0 0 8.4785156 14.994141 z M 10.978516 14.994141 A 0.50005 0.50005 0 0 0 10.552734 15.277344 L 9.5527344 17.277344 A 0.50006306 0.50006306 0 1 0 10.447266 17.724609 L 11.447266 15.724609 A 0.50005 0.50005 0 0 0 10.978516 14.994141 z M 13.478516 14.994141 A 0.50005 0.50005 0 0 0 13.052734 15.277344 L 12.052734 17.277344 A 0.50006306 0.50006306 0 1 0 12.947266 17.724609 L 13.947266 15.724609 A 0.50005 0.50005 0 0 0 13.478516 14.994141 z M 15.978516 14.994141 A 0.50005 0.50005 0 0 0 15.552734 15.277344 L 14.552734 17.277344 A 0.50006306 0.50006306 0 1 0 15.447266 17.724609 L 16.447266 15.724609 A 0.50005 0.50005 0 0 0 15.978516 14.994141 z"/>
</svg>
