<?xml version="1.0" encoding="UTF-8" standalone="no"?>
<svg
   viewBox="0 0 16 16"
   version="1.1"
   id="svg11"
   sodipodi:docname="drive-harddisk-root-symbolic.svg"
   inkscape:version="1.1.1 (3bf5ae0d25, 2021-09-20, custom)"
   xmlns:inkscape="http://www.inkscape.org/namespaces/inkscape"
   xmlns:sodipodi="http://sodipodi.sourceforge.net/DTD/sodipodi-0.dtd"
   xmlns="http://www.w3.org/2000/svg"
   xmlns:svg="http://www.w3.org/2000/svg">
  <defs
     id="defs15" />
  <sodipodi:namedview
     id="namedview13"
     pagecolor="#ffffff"
     bordercolor="#666666"
     borderopacity="1.0"
     inkscape:pageshadow="2"
     inkscape:pageopacity="0.0"
     inkscape:pagecheckerboard="0"
     showgrid="false"
     inkscape:zoom="32.129164"
     inkscape:cx="5.9136304"
     inkscape:cy="7.3764758"
     inkscape:window-width="1920"
     inkscape:window-height="1019"
     inkscape:window-x="0"
     inkscape:window-y="0"
     inkscape:window-maximized="1"
     inkscape:current-layer="svg11" />
  <style
     type="text/css"
     id="current-color-scheme">
        .ColorScheme-Text {
            color:#232629;
        }
    </style>
  <path
     id="rect864"
     style="fill:currentColor;fill-opacity:1;stroke:none;stroke-width:1.26491"
     class="ColorScheme-Text"
     d="M 2 0 L 2 16 L 14 16 L 14 0 L 2 0 z M 5 1 L 11 1 A 2 2 0 0 1 13 3 L 13 6.0976562 A 1.5 1.5 0 0 0 12 7.5 A 1.5 1.5 0 0 0 13 8.9023438 L 13 11 L 11 13 L 5 13 L 3 11 L 3 8.9023438 A 1.5 1.5 0 0 0 4 7.5 A 1.5 1.5 0 0 0 3 6.0859375 L 3 3 A 2 2 0 0 1 5 1 z M 8 4 L 5 10 L 6 10 L 9 4 L 8 4 z M 8 9 L 8 10 L 11 10 L 11 9 L 8 9 z M 3 14 L 8 14 L 8 15 L 3 15 L 3 14 z M 10 14 L 13 14 L 13 15 L 10 15 L 10 14 z " />
</svg>
