<?xml version="1.0" encoding="UTF-8" standalone="no"?>
<svg
   viewBox="0 0 16 16"
   version="1.1"
   id="svg11"
   sodipodi:docname="drive-multidisk-symbolic.svg"
   inkscape:version="1.1.1 (3bf5ae0d25, 2021-09-20, custom)"
   xmlns:inkscape="http://www.inkscape.org/namespaces/inkscape"
   xmlns:sodipodi="http://sodipodi.sourceforge.net/DTD/sodipodi-0.dtd"
   xmlns="http://www.w3.org/2000/svg"
   xmlns:svg="http://www.w3.org/2000/svg">
  <defs
     id="defs15" />
  <sodipodi:namedview
     id="namedview13"
     pagecolor="#ffffff"
     bordercolor="#666666"
     borderopacity="1.0"
     inkscape:pageshadow="2"
     inkscape:pageopacity="0.0"
     inkscape:pagecheckerboard="0"
     showgrid="false"
     inkscape:zoom="22.71875"
     inkscape:cx="7.7469052"
     inkscape:cy="6.338377"
     inkscape:window-width="1920"
     inkscape:window-height="1019"
     inkscape:window-x="0"
     inkscape:window-y="0"
     inkscape:window-maximized="1"
     inkscape:current-layer="svg11" />
  <style
     type="text/css"
     id="current-color-scheme">
        .ColorScheme-Text {
            color:#232629;
        }
    </style>
  <path
     id="rect864"
     style="fill:currentColor;fill-opacity:1;stroke:none;stroke-width:1.26491"
     class="ColorScheme-Text"
     d="M 2 0 L 2 16 L 14 16 L 14 0 L 2 0 z M 5 1 L 11 1 C 12.104569 1 13 1.8954305 13 3 L 13 3.5976562 C 12.404766 3.8080807 12.005003 4.3686867 12 5 C 12.005 5.6313133 12.404766 6.1919192 13 6.4023438 L 13 7 L 11 9 L 5 9 L 3 7 L 3 6.4023438 C 3.5952336 6.1919192 3.9949971 5.6313133 4 5 C 3.999936 4.364381 3.5992674 3.7978105 3 3.5859375 L 3 3 C 3 1.8954305 3.8954305 1 5 1 z M 3 10 L 8 10 L 8 11 L 3 11 L 3 10 z M 10 10 L 13 10 L 13 11 L 10 11 L 10 10 z M 3 12 L 8 12 L 8 13 L 3 13 L 3 12 z M 10 12 L 13 12 L 13 13 L 10 13 L 10 12 z M 3 14 L 8 14 L 8 15 L 3 15 L 3 14 z M 10 14 L 13 14 L 13 15 L 10 15 L 10 14 z " />
</svg>
