<?xml version="1.0" encoding="UTF-8" standalone="no"?>
<svg
   xmlns:dc="http://purl.org/dc/elements/1.1/"
   xmlns:cc="http://creativecommons.org/ns#"
   xmlns:rdf="http://www.w3.org/1999/02/22-rdf-syntax-ns#"
   xmlns:svg="http://www.w3.org/2000/svg"
   xmlns="http://www.w3.org/2000/svg"
   xmlns:sodipodi="http://sodipodi.sourceforge.net/DTD/sodipodi-0.dtd"
   xmlns:inkscape="http://www.inkscape.org/namespaces/inkscape"
   width="16"
   height="16"
   version="1.1"
   id="svg10"
   sodipodi:docname="video-joined-displays-symbolic.svg"
   inkscape:version="0.92.3 (2405546, 2018-03-11)">
  <metadata
     id="metadata16">
    <rdf:RDF>
      <cc:Work
         rdf:about="">
        <dc:format>image/svg+xml</dc:format>
        <dc:type
           rdf:resource="http://purl.org/dc/dcmitype/StillImage" />
      </cc:Work>
    </rdf:RDF>
  </metadata>
  <defs
     id="defs14" />
  <sodipodi:namedview
     pagecolor="#ffffff"
     bordercolor="#666666"
     borderopacity="1"
     objecttolerance="10"
     gridtolerance="10"
     guidetolerance="10"
     inkscape:pageopacity="0"
     inkscape:pageshadow="2"
     inkscape:window-width="1920"
     inkscape:window-height="1026"
     id="namedview12"
     showgrid="true"
     inkscape:zoom="22.358716"
     inkscape:cx="8.1355932"
     inkscape:cy="8"
     inkscape:window-x="0"
     inkscape:window-y="30"
     inkscape:window-maximized="1"
     inkscape:current-layer="svg10">
    <inkscape:grid
       type="xygrid"
       id="grid829" />
  </sodipodi:namedview>
  <path
     style="color:#232627;fill:currentColor;fill-opacity:1;stroke:none;stroke-width:0.625"
     d="M 8 2 L 8 4 L 9 4 L 9 3 L 15 3 L 15 11 L 11 11 L 11 12 L 11 13 L 10 13 L 10 14 L 14 14 L 14 13 L 13 13 L 13 12 L 15.375 12 L 16 12 L 16 2 L 15.375 2 L 8.625 2 L 8 2 z M 0 5 L 0 12 L 0.625 12 L 4 12 L 4 13 L 3 13 L 3 14 L 7 14 L 7 13 L 6 13 L 6 12 L 9.375 12 L 10 12 L 10 5 L 9.375 5 L 0.625 5 L 0 5 z M 1 6 L 9 6 L 9 11 L 1 11 L 1 6 z "
     id="rect4211" />
</svg>
