<?xml version="1.0" encoding="UTF-8" standalone="no"?>
<svg
   xmlns:dc="http://purl.org/dc/elements/1.1/"
   xmlns:cc="http://creativecommons.org/ns#"
   xmlns:rdf="http://www.w3.org/1999/02/22-rdf-syntax-ns#"
   xmlns:svg="http://www.w3.org/2000/svg"
   xmlns="http://www.w3.org/2000/svg"
   xmlns:sodipodi="http://sodipodi.sourceforge.net/DTD/sodipodi-0.dtd"
   xmlns:inkscape="http://www.inkscape.org/namespaces/inkscape"
   width="22"
   height="22"
   version="1.1"
   id="svg7"
   sodipodi:docname="bitwarden-tray.svg"
   inkscape:version="0.92.3 (2405546, 2018-03-11)">
  <metadata
     id="metadata11">
    <rdf:RDF>
      <cc:Work
         rdf:about="">
        <dc:format>image/svg+xml</dc:format>
        <dc:type
           rdf:resource="http://purl.org/dc/dcmitype/StillImage" />
        <dc:title />
      </cc:Work>
    </rdf:RDF>
  </metadata>
  <sodipodi:namedview
     pagecolor="#ffffff"
     bordercolor="#666666"
     borderopacity="1"
     objecttolerance="10"
     gridtolerance="10"
     guidetolerance="10"
     inkscape:pageopacity="0"
     inkscape:pageshadow="2"
     inkscape:window-width="1920"
     inkscape:window-height="1020"
     id="namedview9"
     showgrid="true"
     inkscape:zoom="30.35"
     inkscape:cx="2.4258124"
     inkscape:cy="14.747825"
     inkscape:window-x="0"
     inkscape:window-y="30"
     inkscape:window-maximized="1"
     inkscape:current-layer="svg7">
    <inkscape:grid
       type="xygrid"
       id="grid818" />
  </sodipodi:namedview>
  <defs
     id="defs3">
    <style
       id="current-color-scheme"
       type="text/css">
   .ColorScheme-Text { color:#eff0f1; } .ColorScheme-Highlight { color:#3daee9; }
  </style>
  </defs>
  <path
     style="fill:#eff0f1;fill-opacity:1"
     d="M 4 3 L 4 4 C 3.971518 4.6076132 4 5.6553717 4 7.8144531 C 4 12.647547 3.99433 12.551002 4.3769531 13.488281 C 4.8171534 14.566471 5.5255238 15.476556 6.6894531 16.466797 C 7.6660619 17.297672 8.8237507 18.05076 10.115234 18.689453 C 10.552159 18.905531 10.778121 19.003571 11 19 C 11.221879 19.0035 11.447839 18.90554 11.884766 18.689453 C 13.17625 18.05076 14.333937 17.297672 15.310547 16.466797 C 16.474476 15.476556 17.182847 14.566471 17.623047 13.488281 C 18.005727 12.551001 18 12.647547 18 7.8144531 C 18 5.6553701 18.028482 4.6076128 18 4 L 18 3 L 11 3 L 4 3 z M 5 4 L 11 4 L 16.970703 4 L 17 4 L 17 4.0234375 L 17.001953 4.046875 C 17.02641 4.5696312 17 5.6465757 17 7.8144531 C 17 10.231395 16.998401 11.423993 16.957031 12.044922 C 16.915701 12.665851 16.892491 12.631227 16.697266 13.109375 C 16.324536 14.022309 15.748238 14.781027 14.662109 15.705078 C 13.755426 16.476461 12.66576 17.187475 11.441406 17.792969 C 11.230521 17.897265 11.103168 17.949089 11.039062 17.974609 C 10.974957 18.000129 10.9741 17.999345 11.015625 18 L 11 18 L 10.984375 18 C 11.067875 17.9987 10.980475 18.0016 10.558594 17.792969 C 9.3342396 17.187474 8.2445717 16.47646 7.3378906 15.705078 C 6.2517614 14.781027 5.6754645 14.022309 5.3027344 13.109375 C 5.1075353 12.631212 5.0843045 12.665853 5.0429688 12.044922 C 5.001633 11.42399 5 10.231391 5 7.8144531 C 5 5.6465772 4.9735426 4.5696306 4.9980469 4.046875 L 5 4.0234375 L 5 4 z M 5.9960938 5 C 5.9938743 5.5937036 6 6.1684507 6 7.8144531 C 6 10.230941 6.0052008 11.440518 6.0410156 11.978516 C 6.0805382 12.57221 6.0164365 12.210956 6.2285156 12.730469 C 6.5381882 13.488955 6.9729944 14.081241 7.9863281 14.943359 C 8.8221913 15.654491 9.84422 16.322703 11 16.894531 L 11 5 L 5.9960938 5 z "
     id="path825" />
</svg>
