<svg xmlns="http://www.w3.org/2000/svg" width="22" height="22" version="1.1">
 <defs>
  <style id="current-color-scheme" type="text/css">
   .ColorScheme-Text { color:#eff0f1; } .ColorScheme-Highlight { color:#3daee9; }
  </style>
 </defs>
 <path style="fill:currentColor" class="ColorScheme-Text" d="M 11 3 C 6.581951 3 3 6.5819503 3 11 C 3 15.418049 6.581951 19 11 19 C 15.41805 19 19 15.418049 19 11 C 19 6.5819503 15.41805 3 11 3 z M 11 4 C 13.93893 4 16.439861 5.7948317 17.480469 8.3515625 L 16.28125 8.8125 C 15.367239 6.8024775 13.304026 5.5 11 5.5 C 8.640974 5.5 6.5012595 6.8959764 5.65625 9 L 7.4355469 9.6875 C 8.0025533 8.2834843 9.4269828 7.34375 11 7.34375 C 12.515017 7.34375 13.847743 8.1587353 14.46875 9.46875 L 13.1875 9.96875 L 16.5 11.8125 L 17.490234 8.3769531 C 17.816138 9.1867068 18 10.071008 18 11 C 18 14.877533 14.877534 18 11 18 C 7.1224671 18 4 14.877533 4 11 C 4 7.1224663 7.1224671 4 11 4 z M 5.5019531 10.21875 L 4.5019531 13.59375 L 5.7207031 13.15625 C 6.6147131 15.161272 8.7099279 16.5 11.001953 16.5 C 13.36698 16.5 15.468693 15.134273 16.345703 13.03125 L 14.564453 12.34375 C 13.980447 13.746766 12.577971 14.65625 11.001953 14.65625 C 9.4969367 14.65625 8.14621 13.805014 7.5332031 12.5 L 8.8125 12 L 5.5019531 10.21875 z"/>
</svg>
