<svg xmlns="http://www.w3.org/2000/svg" id="svg7" width="22" height="22" version="1.1">
 <defs id="defs3">
  <style id="current-color-scheme" type="text/css">
   .ColorScheme-Text { color:#eff0f1; } .ColorScheme-Highlight { color:#3daee9; }
  </style>
 </defs>
 <path id="path4494" style="fill:#eff0f1;stroke-width:1.00131023;stroke-linecap:round;stroke-linejoin:round;fill-opacity:1" d="M 11 3 A 8 8 0 0 0 3 11 A 8 8 0 0 0 11 19 A 8 8 0 0 0 19 11 A 8 8 0 0 0 11 3 z M 11 4 A 7 7 0 0 1 18 11 A 7 7 0 0 1 11 18 A 7 7 0 0 1 4 11 A 7 7 0 0 1 11 4 z M 8 7 A 2 2 0 0 0 6 9 A 2 2 0 0 0 8 11 A 2 2 0 0 0 10 9 A 2 2 0 0 0 8 7 z M 14 7 A 2 2 0 0 0 12 9 A 2 2 0 0 0 14 11 A 2 2 0 0 0 16 9 A 2 2 0 0 0 14 7 z M 6.9375 11.986328 A 1.0001 1.0001 0 0 0 6.0097656 13.146484 C 6.0097656 13.146484 6.1541128 14.140483 6.8613281 15.095703 C 7.5685434 16.050923 8.9400341 17 11 17 C 13.059966 17 14.431457 16.050923 15.138672 15.095703 C 15.845887 14.140484 15.990234 13.146484 15.990234 13.146484 A 1.00101 1.00101 0 1 0 14.009766 12.853516 C 14.009766 12.853516 13.934586 13.359516 13.53125 13.904297 C 13.127911 14.449077 12.497818 15 11 15 C 9.5021818 15 8.8720891 14.449077 8.46875 13.904297 C 8.0654114 13.359517 7.9902344 12.853516 7.9902344 12.853516 A 1.0001 1.0001 0 0 0 7.0371094 11.986328 A 1.0001 1.0001 0 0 0 6.9375 11.986328 z"/>
</svg>
