<svg xmlns="http://www.w3.org/2000/svg" id="svg7" width="22" height="22" version="1.1">
 <defs id="defs3">
  <style id="current-color-scheme" type="text/css">
   .ColorScheme-Text { color:#eff0f1; } .ColorScheme-Highlight { color:#3daee9; }
  </style>
 </defs>
 <path id="path4490" style="fill:#eff0f1;stroke-width:1.00131023;stroke-linecap:round;stroke-linejoin:round;fill-opacity:1" d="M 11 3 A 8 8 0 0 0 3 11 A 8 8 0 0 0 11 19 A 8 8 0 0 0 19 11 A 8 8 0 0 0 11 3 z M 11 4 A 7 7 0 0 1 18 11 A 7 7 0 0 1 11 18 A 7 7 0 0 1 4 11 A 7 7 0 0 1 11 4 z M 10.875 5 C 10.39025 5 10 5.39025 10 5.875 L 10 10.875 L 10 11.125 C 10 11.60975 10.39025 12 10.875 12 L 11.125 12 L 16.125 12 C 16.60975 12 17 11.60975 17 11.125 L 17 10.875 C 17 10.39025 16.60975 10 16.125 10 L 12 10 L 12 5.875 C 12 5.39025 11.60975 5 11.125 5 L 10.875 5 z"/>
</svg>
