<?xml version="1.0" encoding="UTF-8" standalone="no"?>
<svg
   xmlns:dc="http://purl.org/dc/elements/1.1/"
   xmlns:cc="http://creativecommons.org/ns#"
   xmlns:rdf="http://www.w3.org/1999/02/22-rdf-syntax-ns#"
   xmlns:svg="http://www.w3.org/2000/svg"
   xmlns="http://www.w3.org/2000/svg"
   xmlns:sodipodi="http://sodipodi.sourceforge.net/DTD/sodipodi-0.dtd"
   xmlns:inkscape="http://www.inkscape.org/namespaces/inkscape"
   width="22"
   height="22"
   version="1.1"
   id="svg7"
   sodipodi:docname="keybase-tray.svg"
   inkscape:version="0.92.3 (2405546, 2018-03-11)">
  <metadata
     id="metadata11">
    <rdf:RDF>
      <cc:Work
         rdf:about="">
        <dc:format>image/svg+xml</dc:format>
        <dc:type
           rdf:resource="http://purl.org/dc/dcmitype/StillImage" />
        <dc:title></dc:title>
      </cc:Work>
    </rdf:RDF>
  </metadata>
  <sodipodi:namedview
     pagecolor="#ffffff"
     bordercolor="#666666"
     borderopacity="1"
     objecttolerance="10"
     gridtolerance="10"
     guidetolerance="10"
     inkscape:pageopacity="0"
     inkscape:pageshadow="2"
     inkscape:window-width="1920"
     inkscape:window-height="1020"
     id="namedview9"
     showgrid="true"
     inkscape:zoom="23"
     inkscape:cx="11"
     inkscape:cy="11"
     inkscape:window-x="0"
     inkscape:window-y="30"
     inkscape:window-maximized="1"
     inkscape:current-layer="svg7">
    <inkscape:grid
       type="xygrid"
       id="grid818" />
  </sodipodi:namedview>
  <defs
     id="defs3">
    <style
       id="current-color-scheme"
       type="text/css">
   .ColorScheme-Text { color:#eff0f1; } .ColorScheme-Highlight { color:#3daee9; }
  </style>
  </defs>
  <path
     style="fill:#eff0f1;fill-opacity:1"
     d="M 9.3378906 3 C 9.2917506 3 8.9898905 3.5097587 8.703125 4.0722656 C 8.3342454 4.7958464 8.1404513 5.3745502 8.0507812 6 L 7 6 L 7 5 L 4 5 L 4 8 L 7 8 L 7 7 L 8.0019531 7 C 8.0017654 7.0097883 8.0000893 7.0195038 8 7.0292969 C 8 7.350909 8.06468 7.6552539 8.1601562 7.9453125 C 6.8950987 8.5095454 5.823752 9.4303823 5.0878906 10.589844 C 4.9068303 10.826602 4.7468155 11.073389 4.6308594 11.337891 C 4.4486475 11.753525 4.313504 12.183712 4.2109375 12.648438 C 4.1426895 12.924193 4.0852482 13.20267 4.0507812 13.490234 C 4.0477112 13.515834 4.0557914 13.521208 4.0683594 13.517578 C 4.0552044 13.628341 4.0375767 13.733607 4.0273438 13.849609 C 3.9945383 14.221494 3.9905989 14.374998 4.015625 14.375 L 8 10 L 6.96875 13.455078 C 6.97482 13.461178 7.1062876 13.407508 7.2617188 13.335938 C 8.2166789 12.896236 9.4068479 12.129473 10.458984 12.003906 C 10.821824 11.960606 12.080719 11.956444 12.458984 11.996094 C 13.225236 12.076384 13.924789 12.66763 14.785156 12.904297 C 15.16638 13.009168 15.353785 13.034766 15.666016 13.023438 C 15.978476 13.012117 16.161765 12.970368 16.392578 12.859375 C 16.968534 12.582416 17.271543 11.981039 17.1875 11.332031 C 17.1796 11.270861 17.162791 11.21171 17.150391 11.152344 C 17.175081 11.091224 17.152088 10.988693 17.054688 10.818359 C 16.958797 10.563556 16.816689 10.307994 16.603516 10.019531 C 15.812925 9.1507618 14.885394 8.4287802 13.837891 7.9492188 C 13.934232 7.6579794 14 7.3524242 14 7.0292969 C 13.999997 7.0195222 13.998123 7.0097818 13.998047 7 L 15 7 L 15 8 L 16 8 L 16 7 L 17 7 L 17 9 L 19 9 L 19 7 L 19 6 L 13.896484 6 C 13.686795 5.2899816 13.168221 4.7700066 12.453125 4.4042969 C 11.978118 4.1613714 11.251468 4.0478117 10.777344 4.046875 C 10.185851 4.045709 9.7363509 3.537145 9.4472656 3.1210938 C 9.4009907 3.0544932 9.3516794 2.9999994 9.3378906 3 z M 5 6 L 6 6 L 6 7 L 5 7 L 5 6 z M 17.832031 12.828125 C 17.596352 13.220568 17.257983 13.552121 16.826172 13.759766 C 16.497288 13.917917 16.09035 14.009408 15.703125 14.023438 C 15.321853 14.037267 14.941439 13.985198 14.519531 13.869141 C 13.382163 13.556277 12.67841 13.024073 12.355469 12.990234 C 12.213148 12.975324 10.678186 12.984094 10.578125 12.996094 C 9.9135234 13.075414 8.7491037 13.751739 7.6796875 14.244141 C 7.5909405 14.285001 7.5096359 14.321392 7.4355469 14.351562 C 7.3985019 14.366643 7.366892 14.379364 7.3164062 14.396484 C 7.2911633 14.405084 7.2657062 14.414496 7.1992188 14.429688 C 7.1659748 14.437288 7.1266108 14.447525 7.0273438 14.453125 C 6.9777107 14.455925 6.7992596 14.441486 6.7988281 14.441406 C 6.7986124 14.441366 6.5782807 14.37507 6.578125 14.375 C 6.5779693 14.374934 6.2598605 14.160252 6.2597656 14.160156 A 1.0001 1.0001 0 0 1 5.9960938 13.6875 L 4.7558594 15.048828 A 1.0001 1.0001 0 0 1 4.0898438 15.373047 A 6.9999312 6.9999312 0 0 0 5.7929688 19 L 16.208984 19 A 6.9999312 6.9999312 0 0 0 18 14.333984 A 6.9999312 6.9999312 0 0 0 17.832031 12.828125 z M 8 15 A 1 1 0 0 1 9 16 A 1 1 0 0 1 8 17 A 1 1 0 0 1 7 16 A 1 1 0 0 1 8 15 z M 14 15 A 1 1 0 0 1 15 16 A 1 1 0 0 1 14 17 A 1 1 0 0 1 13 16 A 1 1 0 0 1 14 15 z "
     id="path5" />
</svg>
