<svg xmlns="http://www.w3.org/2000/svg" width="22" height="22" version="1">
 <defs>
  <style id="current-color-scheme" type="text/css">
   .ColorScheme-Text { color:#eff0f1; } .ColorScheme-Highlight { color:#3daee9; }
  </style>
 </defs>
 <path style="fill:currentColor" class="ColorScheme-Text" d="m 6.9999999,3 a 4,4 0 0 0 -4,4 A 4,4 0 0 0 4.1152343,9.7695312 7,7 0 0 0 3.9999999,11 7,7 0 0 0 11,18 7,7 0 0 0 12.238281,17.886719 4,4 0 0 0 15,19 4,4 0 0 0 19,15 4,4 0 0 0 17.884766,12.230469 7,7 0 0 0 18,11 7,7 0 0 0 11,4 7,7 0 0 0 9.7617191,4.1132812 4,4 0 0 0 6.9999999,3 Z m -0.00195,1 h 0.00195 c 0.7718073,0.00188 1.5132822,0.3016305 2.0703122,0.8359375 l 0.367188,0.3535156 0.503906,-0.091797 C 10.290985,5.0339791 10.644672,5.0009351 11,5.0000001 c 3.324886,0 5.998927,2.6734217 6,5.9980469 -0.0018,0.352993 -0.03391,0.703584 -0.09766,1.050781 l -0.09375,0.503906 0.355468,0.369141 C 17.700765,13.480714 17.999865,14.225181 18,15 c 0,1.668043 -1.330269,2.998954 -2.998047,3 -0.772531,-0.0013 -1.514693,-0.299272 -2.072265,-0.833984 L 12.5625,16.8125 12.058594,16.902344 C 11.709091,16.96592 11.355234,16.999135 11,17 7.6751138,17 5.0010724,14.326578 4.9999999,11.001953 v -0.002 c 0.00209,-0.351838 0.036015,-0.702771 0.099609,-1.048828 L 5.1914059,9.4472687 4.8359372,9.076175 C 4.2992746,8.5174507 4.0002726,7.7747104 3.9999999,7 c 0,-1.6680432 1.3302689,-2.9989543 2.9980469,-3 z m 4.1289061,3 0.002,0.00195 c -1.9736499,3.1e-6 -3.1289561,0.8909781 -3.1289561,2.4218781 0,1.6671999 2.1581411,2.1022029 3.4941411,2.2832029 1.25083,0.33734 1.296875,0.526216 1.296875,1.072266 0,0.68385 -0.863719,0.951172 -1.449219,0.951172 -1.7631299,0 -1.6372689,-1.289063 -2.5800779,-1.289063 -0.4843905,0 -0.7167973,0.153725 -0.7167973,0.765625 0,0.612 1.2610753,1.792969 3.2343752,1.792969 1.974,0 3.220703,-0.767828 3.220703,-2.298828 0,-1.577 -1.287859,-2.036094 -3.005859,-2.496094 -1.1395,-0.2811499 -1.7851569,-0.4831499 -1.7851569,-1.0312499 0,-0.6818 0.7290499,-0.9472656 1.3124999,-0.9472656 1.7632,0 1.37705,1.1328125 2.31836,1.1328125 0.48439,0 0.779297,-0.091128 0.779297,-0.7050781 C 14.119141,8.0423969 13.100553,7 11.126953,7 Z"/>
</svg>
