<svg xmlns="http://www.w3.org/2000/svg" width="22" height="22" version="1">
 <defs>
  <style id="current-color-scheme" type="text/css">
   .ColorScheme-Text { color:#eff0f1; } .ColorScheme-Highlight { color:#3daee9; }
  </style>
 </defs>
 <path style="fill:currentColor" class="ColorScheme-Text" d="m 16,3 c -2.198218,0 -4,1.8017873 -4,4 0,0.788003 0.238384,1.521198 0.636719,2.1425781 l 0.341797,4.0488279 c -0.438865,0.161291 -0.831901,0.416592 -1.148438,0.75 l -3.8535154,-1.71289 c 0.00598,-0.07685 0.023437,-0.150218 0.023437,-0.228516 0,-1.64863 -1.3512478,-3 -2.9999998,-3 -1.6487529,0 -3,1.35137 -3,3 0,1.648727 1.3512471,3 3,3 0.852592,0 1.62215,-0.364438 2.169922,-0.941406 l 3.8535162,1.71289 C 11.017458,15.848329 11,15.921702 11,16 c 0,1.648727 1.351248,3 3,3 1.648753,0 3,-1.351369 3,-3 0,-0.815385 -0.331653,-1.557179 -0.865234,-2.099609 L 17.9375,10.474609 C 19.159651,9.787699 20,8.4931078 20,7 20,4.8017873 18.198218,3 16,3 Z m 0,1 c 1.669104,0 3,1.3305865 3,3 0,1.6694133 -1.33053,3 -3,3 -1.669103,0 -3,-1.3305867 -3,-3 0,-1.66905 1.330531,-3 3,-3 z m 0.05859,1 A 2,2 0 0 0 14,7 2,2 0 0 0 18,7 2,2 0 0 0 16.058594,5 Z M 5.0000004,10 c 1.025816,0 1.8692259,0.787022 1.978515,1.785156 l -1.572265,-0.699218 a 1.0001,1.0001 0 0 0 -0.386719,-0.0918 1.0001,1.0001 0 0 0 -0.425781,1.919921 l 1.5742189,0.699219 C 5.8380193,13.853428 5.4365034,14 5.0000004,14 c -1.099168,0 -2,-0.900849 -2,-2 0,-1.099087 0.900832,-2 2,-2 z M 14,14 c 1.099169,0 2,0.900913 2,2 0,1.099087 -0.900831,2 -2,2 -1.025816,0 -1.869226,-0.786977 -1.978516,-1.785156 l 1.572266,0.699218 a 1.0002742,1.0002742 0 1 0 0.8125,-1.828124 L 12.832031,14.386719 C 13.161981,14.146572 13.563497,14 14,14 Z"/>
</svg>
