<?xml version="1.0" encoding="UTF-8" standalone="no"?>
<svg
   width="48"
   height="48"
   version="1.1"
   id="svg38"
   sodipodi:docname="gnome-weather.svg"
   inkscape:version="1.1.1 (3bf5ae0d25, 2021-09-20, custom)"
   xmlns:inkscape="http://www.inkscape.org/namespaces/inkscape"
   xmlns:sodipodi="http://sodipodi.sourceforge.net/DTD/sodipodi-0.dtd"
   xmlns:xlink="http://www.w3.org/1999/xlink"
   xmlns="http://www.w3.org/2000/svg"
   xmlns:svg="http://www.w3.org/2000/svg">
  <sodipodi:namedview
     id="namedview40"
     pagecolor="#ffffff"
     bordercolor="#666666"
     borderopacity="1.0"
     inkscape:pageshadow="2"
     inkscape:pageopacity="0.0"
     inkscape:pagecheckerboard="0"
     showgrid="false"
     inkscape:zoom="5.5316374"
     inkscape:cx="-1.2654481"
     inkscape:cy="10.394752"
     inkscape:window-width="1920"
     inkscape:window-height="1019"
     inkscape:window-x="0"
     inkscape:window-y="31"
     inkscape:window-maximized="1"
     inkscape:current-layer="svg38" />
  <defs
     id="defs20">
    <linearGradient
       id="0">
      <stop
         stop-color="#eff1f1"
         id="stop2" />
      <stop
         offset="1"
         stop-color="#b0b8b8"
         id="stop4" />
    </linearGradient>
    <linearGradient
       xlink:href="#0"
       id="1"
       y1="511.798"
       x2="0"
       y2="535.79797"
       gradientUnits="userSpaceOnUse"
       gradientTransform="matrix(0.99899726,0,0,0.99899726,-0.60137005,4.513178)" />
    <linearGradient
       xlink:href="#3"
       id="2"
       y1="502.798"
       x2="0"
       y2="582.79797"
       gradientUnits="userSpaceOnUse"
       gradientTransform="matrix(1.0666667,0,0,1.0666667,-25.904809,-34.919942)" />
    <linearGradient
       id="3">
      <stop
         stop-color="#f0ff01"
         id="stop9" />
      <stop
         offset="1"
         stop-color="#ff9701"
         id="stop11" />
    </linearGradient>
    <linearGradient
       xlink:href="#5"
       id="4"
       y1="507.798"
       x2="0"
       y2="547.79797"
       gradientUnits="userSpaceOnUse"
       gradientTransform="matrix(1.0196041,0,0,1.0196041,-6.6763524,-10.268618)" />
    <linearGradient
       id="5">
      <stop
         stop-color="#faffa5"
         id="stop15" />
      <stop
         offset="1"
         stop-color="#edf573"
         id="stop17" />
    </linearGradient>
    <linearGradient
       xlink:href="#0"
       id="1-3"
       y1="511.798"
       x2="0"
       y2="535.79797"
       gradientUnits="userSpaceOnUse"
       gradientTransform="matrix(0.99899726,0,0,0.99899726,-0.6013726,4.513176)" />
  </defs>
  <metadata
     id="metadata22" />
  <g
     transform="translate(-388.57141,-503.798)"
     id="g36">
    <g
       transform="matrix(0.8437505,0,0,0.8437505,64.714087,83.843192)"
       id="g28">
      <rect
         ry="21.333321"
         y="502.46466"
         x="388.57141"
         height="42.666668"
         width="42.666641"
         fill="url(#2)"
         rx="21.333321"
         id="rect24"
         style="fill:url(#2)" />
      <rect
         y="506.46466"
         x="392.57141"
         height="34.666634"
         width="34.666615"
         fill="url(#4)"
         rx="17.333307"
         id="rect26"
         style="fill:url(#4)" />
    </g>
    <g
       color="#4d4d4d"
       id="g34"
       transform="translate(4.0321,8.02409)">
      <path
         d="m 412.53931,515.77391 a 9.9999995,9.9999995 0 0 1 9.83984,8.22267 8.0000033,8.0000033 0 0 1 6.16016,7.77733 8.0000033,8.0000033 0 0 1 -8,8 h -18 a 5.9999954,5.9999954 0 0 1 -6,-6 5.9999954,5.9999954 0 0 1 6,-6 5.9999954,5.9999954 0 0 1 0.21484,0.0121 9.9999995,9.9999995 0 0 1 -0.21484,-2.01171 9.9999995,9.9999995 0 0 1 10,-10 z"
         fill="url(#1)"
         id="path30"
         style="fill:url(#1);stroke-width:0.998997" />
      <path
         id="path30-5"
         style="opacity:0.2;fill:#000000;stroke-width:0.998997"
         d="M 18.033203,29.611328 A 9.9999995,9.9999995 0 0 0 18,30 a 9.9999995,9.9999995 0 0 0 0.05664,1.003906 5.9999954,5.9999954 0 0 1 0.158203,0.0078 9.9999995,9.9999995 0 0 1 -0.181641,-1.400391 z m 25.917969,5.882813 A 8.0000033,8.0000033 0 0 1 36,43 H 18 A 5.9999954,5.9999954 0 0 1 12.056641,37.5 5.9999954,5.9999954 0 0 0 12,38 a 5.9999954,5.9999954 0 0 0 6,6 h 18 a 8.0000033,8.0000033 0 0 0 8,-8 8.0000033,8.0000033 0 0 0 -0.04883,-0.505859 z"
         transform="translate(384.53931,495.77391)" />
    </g>
  </g>
</svg>
