<?xml version="1.0" encoding="UTF-8" standalone="no"?>
<svg
   xmlns:dc="http://purl.org/dc/elements/1.1/"
   xmlns:cc="http://creativecommons.org/ns#"
   xmlns:rdf="http://www.w3.org/1999/02/22-rdf-syntax-ns#"
   xmlns:svg="http://www.w3.org/2000/svg"
   xmlns="http://www.w3.org/2000/svg"
   xmlns:xlink="http://www.w3.org/1999/xlink"
   xmlns:sodipodi="http://sodipodi.sourceforge.net/DTD/sodipodi-0.dtd"
   xmlns:inkscape="http://www.inkscape.org/namespaces/inkscape"
   width="48"
   height="48"
   version="1.1"
   id="svg34"
   sodipodi:docname="kbibtex.svg"
   inkscape:version="0.92.3 (2405546, 2018-03-11)">
  <metadata
     id="metadata38">
    <rdf:RDF>
      <cc:Work
         rdf:about="">
        <dc:format>image/svg+xml</dc:format>
        <dc:type
           rdf:resource="http://purl.org/dc/dcmitype/StillImage" />
        <dc:title></dc:title>
      </cc:Work>
    </rdf:RDF>
  </metadata>
  <sodipodi:namedview
     pagecolor="#ffffff"
     bordercolor="#666666"
     borderopacity="1"
     objecttolerance="10"
     gridtolerance="10"
     guidetolerance="10"
     inkscape:pageopacity="0"
     inkscape:pageshadow="2"
     inkscape:window-width="1920"
     inkscape:window-height="1020"
     id="namedview36"
     showgrid="false"
     inkscape:zoom="5.65"
     inkscape:cx="8.3531943"
     inkscape:cy="19.64512"
     inkscape:window-x="0"
     inkscape:window-y="30"
     inkscape:window-maximized="1"
     inkscape:current-layer="svg34">
    <inkscape:grid
       type="xygrid"
       id="grid880" />
  </sodipodi:namedview>
  <defs
     id="defs12">
    <linearGradient
       inkscape:collect="always"
       id="linearGradient898">
      <stop
         style="stop-color:#000000;stop-opacity:1;"
         offset="0"
         id="stop894" />
      <stop
         style="stop-color:#000000;stop-opacity:0;"
         offset="1"
         id="stop896" />
    </linearGradient>
    <linearGradient
       inkscape:collect="always"
       id="linearGradient869">
      <stop
         style="stop-color:#1a6c42;stop-opacity:1"
         offset="0"
         id="stop865" />
      <stop
         style="stop-color:#6eb090;stop-opacity:1"
         offset="1"
         id="stop867" />
    </linearGradient>
    <linearGradient
       inkscape:collect="always"
       xlink:href="#linearGradient869"
       id="linearGradient871"
       x1="25.544592"
       y1="43.924084"
       x2="25.301708"
       y2="4.4553928"
       gradientUnits="userSpaceOnUse" />
    <linearGradient
       inkscape:collect="always"
       xlink:href="#linearGradient898"
       id="linearGradient900"
       x1="18.76058"
       y1="14.850711"
       x2="38.531948"
       y2="34.622078"
       gradientUnits="userSpaceOnUse" />
  </defs>
  <rect
     style="fill:url(#linearGradient871);fill-opacity:1"
     id="rect14"
     height="40"
     rx="0"
     y="3.9999855"
     x="6"
     width="36" />
  <g
     style="fill:#66351b"
     id="g20"
     transform="translate(0,-1004.36)">
    <rect
       id="rect16"
       height="1"
       y="1047.36"
       x="6"
       width="36"
       style="fill:#18673f;fill-opacity:1" />
    <rect
       id="rect18"
       height="40"
       y="1008.36"
       x="6"
       width="2"
       style="fill:#18673f;fill-opacity:1" />
  </g>
  <rect
     style="fill:#8b8f8f"
     id="rect22"
     height="1"
     y="41.999985"
     x="8"
     width="34" />
  <rect
     style="fill:#212323;fill-opacity:0.45199998"
     id="rect24"
     height="1"
     y="40.999985"
     x="8"
     width="34" />
  <path
     style="opacity:0.2;fill:url(#linearGradient900);fill-opacity:1;stroke:none;stroke-width:1.55588686;stroke-linecap:round;stroke-linejoin:round;stroke-miterlimit:4;stroke-dasharray:none;stroke-dashoffset:0;stroke-opacity:1;paint-order:normal"
     d="M 24.087891 13 L 19.884766 14.318359 L 18.251953 18.837891 L 17.732422 22.078125 L 18.152344 24.894531 L 19.992188 26.734375 L 17.216797 29.509766 L 14.400391 31 L 27.400391 44 L 42 44 L 42 21.273438 L 33.726562 13 L 29.125 15.640625 L 27.693359 16.603516 L 24.087891 13 z "
     id="rect882" />
  <g
     aria-label="K"
     transform="matrix(0.99951559,0,0,1.0004846,1.0096955,-1.9999971)"
     style="font-style:normal;font-weight:normal;font-size:24.91867065px;line-height:1.25;font-family:sans-serif;letter-spacing:0px;word-spacing:0px;fill:#ffffff;fill-opacity:1;stroke:none;stroke-width:0.62296677"
     id="text875">
    <path
       d="m 22.566865,24.561502 3.488614,5.706376 c 0.199349,0.348861 0.299024,0.573129 0.299024,0.797397 l -2.018412,1.918738 h 9.070396 c 0,0 -1.927606,-2.190123 -2.616461,-3.264346 l -5.183083,-8.272999 2.06825,-2.167924 5.05849,-4.286012 h -8.397592 l 2.466948,2.217762 c 0,0.274105 -0.37378,0.872154 -0.822316,1.370527 l -6.006916,5.43134 v -5.43134 c 0,-1.569876 0,-1.669551 0.174431,-1.8689 l 2.941919,-1.719389 h -9.693363 v 0 c 0.845105,-0.08666 2.417111,1.719389 2.417111,1.719389 0.174431,0.199349 0.174431,0.299024 0.174431,1.8689 v 10.814703 c 0,1.569876 0,1.669551 -0.174431,1.8689 l -2.417111,1.719389 h 9.693363 l -2.941919,-1.719389 c -0.174431,-0.199349 -0.174431,-0.299024 -0.174431,-1.8689 v -2.641379 z"
       style="font-style:normal;font-variant:normal;font-weight:bold;font-stretch:normal;font-family:'Century Schoolbook L';-inkscape-font-specification:'Century Schoolbook L Bold';fill:#ffffff;stroke-width:0.62296677"
       id="path877"
       inkscape:connector-curvature="0"
       sodipodi:nodetypes="cccccccccccccscccccssccccscc" />
  </g>
</svg>
