<?xml version="1.0" encoding="UTF-8" standalone="no"?>
<svg
   xmlns:a="http://ns.adobe.com/AdobeSVGViewerExtensions/3.0/"
   xmlns:dc="http://purl.org/dc/elements/1.1/"
   xmlns:cc="http://creativecommons.org/ns#"
   xmlns:rdf="http://www.w3.org/1999/02/22-rdf-syntax-ns#"
   xmlns:svg="http://www.w3.org/2000/svg"
   xmlns="http://www.w3.org/2000/svg"
   xmlns:xlink="http://www.w3.org/1999/xlink"
   xmlns:sodipodi="http://sodipodi.sourceforge.net/DTD/sodipodi-0.dtd"
   xmlns:inkscape="http://www.inkscape.org/namespaces/inkscape"
   width="48"
   height="48"
   version="1.1"
   id="svg123"
   sodipodi:docname="kig.svg"
   inkscape:version="0.92.3 (2405546, 2018-03-11)">
  <metadata
     id="metadata127">
    <rdf:RDF>
      <cc:Work
         rdf:about="">
        <dc:format>image/svg+xml</dc:format>
        <dc:type
           rdf:resource="http://purl.org/dc/dcmitype/StillImage" />
        <dc:title></dc:title>
      </cc:Work>
    </rdf:RDF>
  </metadata>
  <sodipodi:namedview
     pagecolor="#ffffff"
     bordercolor="#666666"
     borderopacity="1"
     objecttolerance="10"
     gridtolerance="10"
     guidetolerance="10"
     inkscape:pageopacity="0"
     inkscape:pageshadow="2"
     inkscape:window-width="1920"
     inkscape:window-height="1021"
     id="namedview125"
     showgrid="false"
     inkscape:zoom="16.01"
     inkscape:cx="26.625054"
     inkscape:cy="19.003123"
     inkscape:window-x="0"
     inkscape:window-y="30"
     inkscape:window-maximized="1"
     inkscape:current-layer="svg123">
    <inkscape:grid
       type="xygrid"
       id="grid1005" />
  </sodipodi:namedview>
  <defs
     id="defs35">
    <linearGradient
       inkscape:collect="always"
       id="linearGradient1036">
      <stop
         style="stop-color:#000000;stop-opacity:1;"
         offset="0"
         id="stop1032" />
      <stop
         style="stop-color:#000000;stop-opacity:0;"
         offset="1"
         id="stop1034" />
    </linearGradient>
    <linearGradient
       id="b"
       y1="11"
       x1="17"
       y2="41"
       gradientUnits="userSpaceOnUse"
       x2="44"
       gradientTransform="translate(0 1004.36)">
      <stop
         id="stop12" />
      <stop
         offset="1"
         stop-opacity="0"
         id="stop14" />
    </linearGradient>
    <linearGradient
       id="c"
       y1="40"
       y2="6"
       gradientUnits="userSpaceOnUse"
       x2="0"
       gradientTransform="matrix(0.94118,0,0,0.91176,1.412,2.08)">
      <stop
         stop-color="#b1b1b1"
         id="stop17" />
      <stop
         offset="1"
         stop-color="#dddddd"
         id="stop19" />
    </linearGradient>
    <linearGradient
       xlink:href="#b"
       id="d"
       y1="21"
       x1="23"
       y2="39"
       gradientUnits="userSpaceOnUse"
       x2="40" />
    <linearGradient
       id="e"
       y1="1040.95"
       y2="1012.95"
       gradientUnits="userSpaceOnUse"
       x2="0"
       gradientTransform="translate(0,-1004.36)">
      <stop
         stop-color="#f2f2f2"
         id="stop23" />
      <stop
         offset="1"
         stop-color="#ffffff"
         id="stop25" />
    </linearGradient>
    <linearGradient
       y2="113.3281"
       x2="76.171898"
       y1="76.330101"
       x1="76.171898"
       gradientUnits="userSpaceOnUse"
       id="XMLID_4_"
       gradientTransform="matrix(0.2432564,0,0,0.24325638,10.970917,8.4322415)">
      <stop
         id="stop26"
         style="stop-color:#FF0000"
         offset="0" />
      <stop
         id="stop28-3"
         style="stop-color:#7C0000"
         offset="1" />
      <a:midPointStop
         style="stop-color:#FF0000"
         offset="0" />
      <a:midPointStop
         style="stop-color:#FF0000"
         offset="0.5" />
      <a:midPointStop
         style="stop-color:#7C0000"
         offset="1" />
    </linearGradient>
    <linearGradient
       y2="97.043503"
       x2="66.381798"
       y1="34.545399"
       x1="66.381798"
       gradientUnits="userSpaceOnUse"
       id="XMLID_5_"
       gradientTransform="matrix(0.24000768,0,0,0.24000768,10.56781,8.7089344)">
      <stop
         id="stop33"
         style="stop-color:#57ADFF"
         offset="0" />
      <stop
         id="stop35"
         style="stop-color:#428AFF"
         offset="1" />
      <a:midPointStop
         style="stop-color:#57ADFF"
         offset="0" />
      <a:midPointStop
         style="stop-color:#57ADFF"
         offset="0.5" />
      <a:midPointStop
         style="stop-color:#428AFF"
         offset="1" />
    </linearGradient>
    <linearGradient
       gradientTransform="matrix(-0.24030835,0,0,-0.24030835,-4.4604329,33.154858)"
       y2="88.722702"
       x2="-99.8218"
       y1="88.722702"
       x1="-185.0137"
       gradientUnits="userSpaceOnUse"
       id="XMLID_7_">
      <stop
         id="stop53"
         style="stop-color:#FFC957"
         offset="0" />
      <stop
         id="stop55"
         style="stop-color:#FFE6B0"
         offset="1" />
      <a:midPointStop
         style="stop-color:#FFC957"
         offset="0" />
      <a:midPointStop
         style="stop-color:#FFC957"
         offset="0.5" />
      <a:midPointStop
         style="stop-color:#FFE6B0"
         offset="1" />
    </linearGradient>
    <linearGradient
       id="XMLID_9_"
       gradientUnits="userSpaceOnUse"
       x1="306.6748"
       y1="-174.3911"
       x2="316.29559"
       y2="-164.76939"
       gradientTransform="matrix(0.01073991,0.2694559,0.24664775,-0.01173306,59.193085,-61.088859)">
      <stop
         offset="0"
         style="stop-color:#F8F1DC"
         id="stop83" />
      <stop
         offset="1"
         style="stop-color:#D6A84A"
         id="stop85" />
      <a:midPointStop
         offset="0"
         style="stop-color:#F8F1DC" />
      <a:midPointStop
         offset="0.5"
         style="stop-color:#F8F1DC" />
      <a:midPointStop
         offset="1"
         style="stop-color:#D6A84A" />
    </linearGradient>
    <linearGradient
       id="XMLID_12_"
       gradientUnits="userSpaceOnUse"
       x1="63.630901"
       y1="44.088402"
       x2="55.8433"
       y2="44.088402"
       gradientTransform="matrix(0.24195675,-0.05370237,0.04915672,0.26433111,8.493787,9.5579185)">
      <stop
         offset="0"
         style="stop-color:#7C0000"
         id="stop106" />
      <stop
         offset="1"
         style="stop-color:#663333"
         id="stop108" />
      <a:midPointStop
         offset="0"
         style="stop-color:#7C0000" />
      <a:midPointStop
         offset="0.5"
         style="stop-color:#7C0000" />
      <a:midPointStop
         offset="1"
         style="stop-color:#663333" />
    </linearGradient>
    <linearGradient
       inkscape:collect="always"
       xlink:href="#linearGradient1036"
       id="linearGradient1038"
       x1="19.512932"
       y1="23.129606"
       x2="38.719616"
       y2="42.336288"
       gradientUnits="userSpaceOnUse" />
  </defs>
  <rect
     width="32"
     x="8"
     y="4"
     height="40"
     style="fill:url(#c);fill-rule:evenodd"
     ry="1"
     rx="1"
     id="rect37" />
  <path
     d="m 38,37 -28,5 1.786,1.963 28.21,0.037 0,-36 -2,-2 z"
     style="opacity:0.2;fill:url(#d);fill-rule:evenodd"
     id="path39" />
  <path
     d="m 10,6 0,36 28,0 0,-36 z"
     style="fill:url(#e);fill-rule:evenodd"
     id="path41" />
  <rect
     width="28"
     x="10"
     y="41"
     height="1.016"
     style="fill:#1b1b1b;fill-rule:evenodd;fill-opacity:1;opacity:0.437"
     id="rect43" />
  <path
     d="m 30.99999,6 7,7 0,-7 z"
     style="fill:#fdfdfd;fill-opacity:1;fill-rule:evenodd"
     id="path101" />
  <path
     inkscape:connector-curvature="0"
     id="path31"
     d="m 25,27 v 9 h 9 v -9 z m 8.19993,8.200416 c -1.198767,0 -6.201092,0 -7.399616,0 0,-1.198767 0,-6.201578 0,-7.400345 1.198524,0 6.201092,0 7.399616,0 0,1.198767 0,6.201578 0,7.400345 z"
     style="opacity:0.6;fill:url(#XMLID_4_);stroke:none;stroke-width:0.24325639" />
  <path
     inkscape:connector-curvature="0"
     id="path38"
     d="M 26.499761,17 C 22.357708,17 19,20.357708 19,24.49976 19,28.642292 22.357708,32 26.499761,32 c 4.142532,0 7.50024,-3.357708 7.50024,-7.50024 C 34.000001,20.357947 30.642293,17 26.499761,17 Z m 0,14.230776 c -3.710999,0 -6.730536,-3.019297 -6.730536,-6.731016 0,-3.710998 3.019537,-6.730295 6.730536,-6.730295 3.711239,0 6.731015,3.019297 6.731015,6.730295 0,3.711719 -3.019776,6.731016 -6.731015,6.731016 z"
     style="fill:url(#XMLID_5_);stroke:none;stroke-width:0.24000768" />
  <path
     inkscape:connector-curvature="0"
     id="path58"
     d="M 40,19.668104 V 4 H 19.527651 L 40,19.668104 m -2.769794,-5.608556 c -3.243201,-2.481184 -5.399488,-4.131862 -9.525582,-7.2892734 4.570664,0 7.296001,-4.806e-4 9.525582,0 4.81e-4,2.1216824 0,3.9388944 0,7.2892734 z"
     style="fill:url(#XMLID_7_);stroke:none;stroke-width:0.24030834" />
  <path
     style="opacity:0.15;fill:url(#linearGradient1038);fill-opacity:1;stroke:none;stroke-width:1;stroke-linecap:round;stroke-linejoin:round;stroke-miterlimit:4;stroke-dasharray:none;stroke-dashoffset:0;stroke-opacity:1;paint-order:normal"
     d="M 26 17 L 24.644531 18.355469 L 23.191406 19.525391 L 12.080078 28.138672 L 27.941406 44 L 39 44 C 39.554 44 40 43.554 40 43 L 40 31 L 26 17 z "
     id="rect1018" />
  <path
     style="fill:url(#XMLID_9_);stroke:none;stroke-width:0.25805777"
     d="M 26 17 L 21.673828 18.701172 L 21.591797 18.759766 L 12.107422 28.09375 C 12.08835 28.112543 12.078355 28.140196 12.064453 28.164062 L 14.638672 30.738281 L 23.929688 21.589844 L 23.916016 21.576172 C 23.931556 21.550552 23.942072 21.519301 23.951172 21.488281 L 23.96875 21.509766 L 26 17 z "
     id="path88" />
  <path
     style="fill:#ff9e57;stroke:none;stroke-width:0.25805777;fill-opacity:1"
     d="M 21.826172 18.732422 C 21.738154 18.723167 21.659896 18.728289 21.595703 18.748047 L 12.048828 28.148438 L 12.050781 28.150391 C 12.058511 28.143374 12.071714 28.144741 12.080078 28.138672 C 12.074266 28.146816 12.073482 28.15916 12.068359 28.167969 L 14.644531 30.744141 L 23.623047 21.908203 C 23.630948 21.902809 23.844661 21.691408 23.894531 21.642578 C 24.109824 21.430304 23.975727 20.865345 23.634766 20.277344 C 23.521194 20.080444 23.379747 19.87827 23.216797 19.681641 C 23.07187 19.504431 22.918903 19.347484 22.769531 19.212891 C 22.441038 18.918548 22.090226 18.760185 21.826172 18.732422 z "
     id="path95-6" />
  <path
     style="opacity:0.8;fill:url(#XMLID_12_);stroke:none;stroke-width:0.25805777"
     d="m 24.089776,17.76575 1.829736,-0.711266 -0.769076,1.71006 c 0,0 -0.01358,-0.252462 -0.344419,-0.617131 -0.436015,-0.48308 -0.716241,-0.381663 -0.716241,-0.381663 z"
     id="path111"
     inkscape:connector-curvature="0" />
</svg>
