<?xml version="1.0" encoding="UTF-8" standalone="no"?>
<svg
   xmlns:dc="http://purl.org/dc/elements/1.1/"
   xmlns:cc="http://creativecommons.org/ns#"
   xmlns:rdf="http://www.w3.org/1999/02/22-rdf-syntax-ns#"
   xmlns:svg="http://www.w3.org/2000/svg"
   xmlns="http://www.w3.org/2000/svg"
   xmlns:xlink="http://www.w3.org/1999/xlink"
   xmlns:sodipodi="http://sodipodi.sourceforge.net/DTD/sodipodi-0.dtd"
   xmlns:inkscape="http://www.inkscape.org/namespaces/inkscape"
   width="48"
   height="48"
   id="svg11300"
   version="1.0"
   style="display:inline;enable-background:new"
   viewBox="0 0 48 48"
   sodipodi:docname="org.gnome.design.Contrast.svg"
   inkscape:version="0.92.3 (2405546, 2018-03-11)">
  <sodipodi:namedview
     pagecolor="#ffffff"
     bordercolor="#666666"
     borderopacity="1"
     objecttolerance="10"
     gridtolerance="10"
     guidetolerance="10"
     inkscape:pageopacity="0"
     inkscape:pageshadow="2"
     inkscape:window-width="1920"
     inkscape:window-height="1020"
     id="namedview36"
     showgrid="false"
     inkscape:zoom="12.81"
     inkscape:cx="3.1847717"
     inkscape:cy="23.293879"
     inkscape:window-x="0"
     inkscape:window-y="30"
     inkscape:window-maximized="1"
     inkscape:current-layer="svg11300">
    <inkscape:grid
       type="xygrid"
       id="grid950" />
  </sodipodi:namedview>
  <title
     id="title4162">Adwaita Icon Template</title>
  <defs
     id="defs3">
    <linearGradient
       inkscape:collect="always"
       id="linearGradient962">
      <stop
         style="stop-color:#000000;stop-opacity:1;"
         offset="0"
         id="stop958" />
      <stop
         style="stop-color:#000000;stop-opacity:0;"
         offset="1"
         id="stop960" />
    </linearGradient>
    <linearGradient
       inkscape:collect="always"
       id="linearGradient919">
      <stop
         style="stop-color:#adaba3;stop-opacity:1"
         offset="0"
         id="stop915" />
      <stop
         style="stop-color:#f0efee;stop-opacity:1"
         offset="1"
         id="stop917" />
    </linearGradient>
    <linearGradient
       y2="188.05273"
       x2="91.947273"
       y1="224.05273"
       x1="127.94727"
       gradientTransform="matrix(0.25636288,0,0,0.25632986,0.18927681,-33.192313)"
       gradientUnits="userSpaceOnUse"
       id="linearGradient1117"
       xlink:href="#linearGradient976" />
    <linearGradient
       id="linearGradient976">
      <stop
         id="stop972"
         offset="0"
         style="stop-color:#241f31;stop-opacity:1" />
      <stop
         id="stop974"
         offset="1"
         style="stop-color:#3d3846;stop-opacity:1" />
    </linearGradient>
    <linearGradient
       inkscape:collect="always"
       xlink:href="#linearGradient919"
       id="linearGradient921"
       x1="33.586262"
       y1="40.939892"
       x2="24.000315"
       y2="6.0003138"
       gradientUnits="userSpaceOnUse" />
    <linearGradient
       inkscape:collect="always"
       xlink:href="#linearGradient962"
       id="linearGradient991"
       x1="25.263607"
       y1="26.070248"
       x2="36.702179"
       y2="37.50882"
       gradientUnits="userSpaceOnUse" />
  </defs>
  <metadata
     id="metadata4">
    <rdf:RDF>
      <cc:Work
         rdf:about="">
        <dc:format>image/svg+xml</dc:format>
        <dc:type
           rdf:resource="http://purl.org/dc/dcmitype/StillImage" />
        <dc:creator>
          <cc:Agent>
            <dc:title>GNOME Design Team</dc:title>
          </cc:Agent>
        </dc:creator>
        <dc:source />
        <cc:license
           rdf:resource="http://creativecommons.org/licenses/by-sa/4.0/" />
        <dc:title>Adwaita Icon Template</dc:title>
        <dc:subject>
          <rdf:Bag />
        </dc:subject>
        <dc:date />
        <dc:rights>
          <cc:Agent>
            <dc:title />
          </cc:Agent>
        </dc:rights>
        <dc:publisher>
          <cc:Agent>
            <dc:title />
          </cc:Agent>
        </dc:publisher>
        <dc:identifier />
        <dc:relation />
        <dc:language />
        <dc:coverage />
        <dc:description />
        <dc:contributor>
          <cc:Agent>
            <dc:title />
          </cc:Agent>
        </dc:contributor>
      </cc:Work>
      <cc:License
         rdf:about="http://creativecommons.org/licenses/by-sa/4.0/">
        <cc:permits
           rdf:resource="http://creativecommons.org/ns#Reproduction" />
        <cc:permits
           rdf:resource="http://creativecommons.org/ns#Distribution" />
        <cc:requires
           rdf:resource="http://creativecommons.org/ns#Notice" />
        <cc:requires
           rdf:resource="http://creativecommons.org/ns#Attribution" />
        <cc:permits
           rdf:resource="http://creativecommons.org/ns#DerivativeWorks" />
        <cc:requires
           rdf:resource="http://creativecommons.org/ns#ShareAlike" />
      </cc:License>
    </rdf:RDF>
  </metadata>
  <ellipse
     ry="19.999823"
     rx="20"
     cy="24"
     cx="24"
     id="ellipse1089"
     style="opacity:1;vector-effect:none;fill:url(#linearGradient921);fill-opacity:1;stroke:none;stroke-width:6.66663742;stroke-linecap:butt;stroke-linejoin:round;stroke-miterlimit:4;stroke-dasharray:none;stroke-dashoffset:0;stroke-opacity:1;marker:none;marker-start:none;marker-mid:none;marker-end:none;paint-order:normal" />
  <path
     style="opacity:1;vector-effect:none;fill:#3d3846;fill-opacity:1;stroke:none;stroke-width:5.8295331;stroke-linecap:butt;stroke-linejoin:round;stroke-miterlimit:4;stroke-dasharray:none;stroke-dashoffset:0;stroke-opacity:1;marker:none;marker-start:none;marker-mid:none;marker-end:none;paint-order:normal"
     d="M 24 6 A 17.999853 17.999692 0 0 0 6 24 A 17.999853 17.999692 0 0 0 24 42 A 17.999853 17.999692 0 0 0 42 24 A 17.999853 17.999692 0 0 0 24 6 z M 24 6.8847656 A 17.115933 17.115779 0 0 1 41.115234 24 A 17.115933 17.115779 0 0 1 24 41.115234 L 24 6.8847656 z "
     id="path1093" />
  <path
     style="opacity:0.3;fill:url(#linearGradient991);fill-opacity:1;stroke:none;stroke-width:2;stroke-linecap:round;stroke-linejoin:round;stroke-miterlimit:4;stroke-dasharray:none;stroke-dashoffset:0;stroke-opacity:1;paint-order:normal"
     d="m 35.117188,12.882812 -3.273438,1.572266 -3.22219,8.31766 -3.068743,2.936602 -8.282174,8.25023 -3.730136,1.41711 L 12,34.541016 l 9.244141,9.24414 C 22.156706,43.920242 23.077525,43.992028 24,44 c 11.045764,0 20.000098,-8.954334 20,-20 -0.0083,-0.80412 -0.065,-1.60701 -0.169922,-2.404297 z"
     id="rect977"
     inkscape:connector-curvature="0"
     sodipodi:nodetypes="cccccccccccc" />
  <path
     style="opacity:1;vector-effect:none;fill:#ffffff;fill-opacity:1;stroke:none;stroke-width:3.03825688;stroke-linecap:round;stroke-linejoin:miter;stroke-miterlimit:4;stroke-dasharray:none;stroke-dashoffset:0;stroke-opacity:1;marker:none;marker-start:none;marker-mid:none;marker-end:none;paint-order:normal"
     d="M 26.097656 18.013672 L 13.945312 30.162109 C 12.972217 31.621565 13.459645 33.081558 12 34.541016 L 13.458984 36 C 14.91863 34.540543 16.891776 35.043678 17.837891 34.054688 L 29.990234 21.904297 L 26.097656 18.013672 z M 26.097656 19.427734 L 28.576172 21.904297 L 17.123047 33.355469 L 17.115234 33.363281 C 16.940703 33.545722 16.447583 33.686747 15.619141 33.875 C 15.028951 34.009113 14.308422 34.291919 13.599609 34.726562 L 13.292969 34.419922 C 13.705205 33.779006 13.988931 33.137957 14.125 32.59375 C 14.315895 31.830269 14.423837 31.28482 14.763672 30.757812 L 26.097656 19.427734 z "
     id="path1099" />
  <path
     id="path1105"
     d="m 32.923621,12.00184 c -0.822187,9.78e-4 -1.6098,0.330834 -2.187095,0.916179 l -0.0015,-0.0015 -3.164488,3.164071 -1.978066,-1.977814 c -0.461453,-0.461395 -0.922905,2e-6 -0.922905,2e-6 l -1.464476,1.464282 c 0,0 -0.461453,0.461393 -1e-6,0.922787 l 8.306166,8.305088 c 0.461453,0.461394 0.922907,2e-6 0.922907,2e-6 l 1.464473,-1.464284 c 0.461454,-0.461395 0,-0.92279 0,-0.92279 l -1.977998,-1.977741 3.146454,-3.146049 0.01801,-0.01801 -4.89e-4,-4.9e-4 c 0.585392,-0.577552 0.915027,-1.36545 0.915391,-2.187732 0,-1.698806 -1.37733,-3.07596 -3.076353,-3.075957 z"
     style="color:#000000;font-style:normal;font-variant:normal;font-weight:normal;font-stretch:normal;font-size:medium;line-height:normal;font-family:sans-serif;font-variant-ligatures:normal;font-variant-position:normal;font-variant-caps:normal;font-variant-numeric:normal;font-variant-alternates:normal;font-feature-settings:normal;text-indent:0;text-align:start;text-decoration:none;text-decoration-line:none;text-decoration-style:solid;text-decoration-color:#000000;letter-spacing:normal;word-spacing:normal;text-transform:none;writing-mode:lr-tb;direction:ltr;text-orientation:mixed;dominant-baseline:auto;baseline-shift:baseline;text-anchor:start;white-space:normal;shape-padding:0;clip-rule:nonzero;display:inline;overflow:visible;visibility:visible;opacity:1;isolation:auto;mix-blend-mode:normal;color-interpolation:sRGB;color-interpolation-filters:linearRGB;solid-color:#000000;solid-opacity:1;vector-effect:none;fill:url(#linearGradient1117);fill-opacity:1;fill-rule:evenodd;stroke:none;stroke-width:3.91530871;stroke-linecap:butt;stroke-linejoin:miter;stroke-miterlimit:4;stroke-dasharray:none;stroke-dashoffset:0;stroke-opacity:1;color-rendering:auto;image-rendering:auto;shape-rendering:auto;text-rendering:auto;enable-background:accumulate"
     inkscape:connector-curvature="0" />
  <path
     style="opacity:0.2;vector-effect:none;fill:#000000;fill-opacity:1;stroke:none;stroke-width:6.66663742;stroke-linecap:butt;stroke-linejoin:round;stroke-miterlimit:4;stroke-dasharray:none;stroke-dashoffset:0;stroke-opacity:1;marker:none;marker-start:none;marker-mid:none;marker-end:none;paint-order:normal"
     d="M 43.978516 23.417969 A 20 19.999823 0 0 1 24 43 A 20 19.999823 0 0 1 4.0214844 23.582031 A 20 19.999823 0 0 0 4 24 A 20 19.999823 0 0 0 24 44 A 20 19.999823 0 0 0 44 24 A 20 19.999823 0 0 0 43.978516 23.417969 z "
     id="ellipse966" />
</svg>
