<?xml version="1.0" encoding="UTF-8" standalone="no"?>
<svg
   xmlns:dc="http://purl.org/dc/elements/1.1/"
   xmlns:cc="http://creativecommons.org/ns#"
   xmlns:rdf="http://www.w3.org/1999/02/22-rdf-syntax-ns#"
   xmlns:svg="http://www.w3.org/2000/svg"
   xmlns="http://www.w3.org/2000/svg"
   xmlns:xlink="http://www.w3.org/1999/xlink"
   xmlns:sodipodi="http://sodipodi.sourceforge.net/DTD/sodipodi-0.dtd"
   xmlns:inkscape="http://www.inkscape.org/namespaces/inkscape"
   height="48"
   width="48"
   version="1"
   id="svg28"
   sodipodi:docname="owncloud.svg"
   inkscape:version="0.92.1 r15371">
  <metadata
     id="metadata34">
    <rdf:RDF>
      <cc:Work
         rdf:about="">
        <dc:format>image/svg+xml</dc:format>
        <dc:type
           rdf:resource="http://purl.org/dc/dcmitype/StillImage" />
        <dc:title></dc:title>
      </cc:Work>
    </rdf:RDF>
  </metadata>
  <defs
     id="defs32">
    <linearGradient
       inkscape:collect="always"
       id="linearGradient4613">
      <stop
         style="stop-color:#000000;stop-opacity:1;"
         offset="0"
         id="stop4609" />
      <stop
         style="stop-color:#000000;stop-opacity:0;"
         offset="1"
         id="stop4611" />
    </linearGradient>
    <linearGradient
       inkscape:collect="always"
       id="linearGradient4515">
      <stop
         style="stop-color:#1d2d44;stop-opacity:1"
         offset="0"
         id="stop4511" />
      <stop
         style="stop-color:#59759f;stop-opacity:1"
         offset="1"
         id="stop4513" />
    </linearGradient>
    <linearGradient
       inkscape:collect="always"
       xlink:href="#linearGradient4515"
       id="linearGradient4517"
       x1="-44"
       y1="-24"
       x2="-4"
       y2="-24"
       gradientUnits="userSpaceOnUse" />
    <linearGradient
       inkscape:collect="always"
       xlink:href="#linearGradient4613"
       id="linearGradient4615"
       x1="22.486723"
       y1="21.938532"
       x2="37.370941"
       y2="36.82275"
       gradientUnits="userSpaceOnUse" />
  </defs>
  <sodipodi:namedview
     pagecolor="#ffffff"
     bordercolor="#666666"
     borderopacity="1"
     objecttolerance="10"
     gridtolerance="10"
     guidetolerance="10"
     inkscape:pageopacity="0"
     inkscape:pageshadow="2"
     inkscape:window-width="1600"
     inkscape:window-height="808"
     id="namedview30"
     showgrid="false"
     inkscape:zoom="9.95"
     inkscape:cx="24.728649"
     inkscape:cy="24"
     inkscape:window-x="0"
     inkscape:window-y="0"
     inkscape:window-maximized="1"
     inkscape:current-layer="svg28" />
  <polygon
     points="502 812.5 551.5 721.5 612.5 637 628.5 616 668 619.5 707 615 713 603 688.5 578 676.5 569.5 693.5 560.5 693.5 540 732.5 497.5 664 430.5 588 333 517.5 214 500 192 386 355 328 328 304 332.5 299.5 366 318.5 403.5 338 431 309.5 462 275.5 507 300 533 304 551 318.5 569.5 340.5 583 351.5 604.5 373.5 617 395 637.5 452.5 723 488.5 788.5"
     fill="#5a0e00"
     transform="matrix(.063142 0 0 .063142 -131 -8.0295)"
     display="none"
     id="polygon2" />
  <rect
     transform="matrix(0,-1,-1,0,0,0)"
     height="40"
     width="40"
     y="-44"
     x="-44"
     fill="#394e6f"
     id="rect4"
     rx="2"
     ry="2"
     style="fill:url(#linearGradient4517);fill-opacity:1" />
  <path
     d="M 6,44 C 4.892,44 4,43.108 4,42 v -1 c 0,1.108 0.892,2 2,2 h 36 c 1.108,0 2,-0.892 2,-2 v 1 c 0,1.108 -0.892,2 -2,2 z"
     id="path8"
     inkscape:connector-curvature="0"
     style="opacity:0.2" />
  <path
     style="opacity:0.3;vector-effect:none;fill:url(#linearGradient4615);fill-opacity:1;stroke:none;stroke-width:3.62785149;stroke-linecap:round;stroke-linejoin:round;stroke-miterlimit:4;stroke-dasharray:none;stroke-dashoffset:0;stroke-opacity:1"
     d="M 31.519531 18.451172 L 31.650391 22.007812 L 35.677734 25.357422 L 38.679688 29.523438 L 38.074219 31.714844 L 21.328125 31.111328 L 16.646484 31.806641 L 11.619141 31.621094 L 9.3535156 31.419922 L 21.933594 44 L 42 44 C 43.108 44 44 43.108 44 42 L 44 30.931641 L 31.519531 18.451172 z "
     id="rect4600" />
  <path
     style="color:#000000;font-style:normal;font-variant:normal;font-weight:normal;font-stretch:normal;font-size:medium;line-height:normal;font-family:sans-serif;font-variant-ligatures:normal;font-variant-position:normal;font-variant-caps:normal;font-variant-numeric:normal;font-variant-alternates:normal;font-feature-settings:normal;text-indent:0;text-align:start;text-decoration:none;text-decoration-line:none;text-decoration-style:solid;text-decoration-color:#000000;letter-spacing:normal;word-spacing:normal;text-transform:none;writing-mode:lr-tb;direction:ltr;text-orientation:mixed;dominant-baseline:auto;baseline-shift:baseline;text-anchor:start;white-space:normal;shape-padding:0;clip-rule:nonzero;display:inline;overflow:visible;visibility:visible;opacity:1;isolation:auto;mix-blend-mode:normal;color-interpolation:sRGB;color-interpolation-filters:linearRGB;solid-color:#000000;solid-opacity:1;vector-effect:none;fill:#ffffff;fill-opacity:1;fill-rule:nonzero;stroke:none;stroke-width:1;stroke-linecap:round;stroke-linejoin:round;stroke-miterlimit:4;stroke-dasharray:none;stroke-dashoffset:0;stroke-opacity:1;color-rendering:auto;image-rendering:auto;shape-rendering:auto;text-rendering:auto;enable-background:accumulate"
     d="M 22.5 14 C 21.141416 14 19.898391 14.498396 18.9375 15.318359 C 18.497394 15.118097 18.013436 15 17.5 15 C 15.572926 15 14 16.572926 14 18.5 C 14 18.818427 14.05828 19.120473 14.138672 19.414062 C 13.053557 20.329355 12.303229 21.622755 12.078125 23.087891 C 9.7615046 23.522606 8 25.559741 8 28 C 8 30.755501 10.244499 33 13 33 C 13.939885 33 14.810313 32.723011 15.5625 32.269531 C 16.08723 32.718558 16.75885 33 17.5 33 C 18.516453 33 19.415787 32.485404 19.958984 31.707031 C 21.101353 32.518122 22.493369 33 23.998047 33 C 25.485217 33 26.863174 32.530284 27.998047 31.736328 C 28.950156 32.524877 30.170686 33 31.5 33 C 32.708376 33 33.823665 32.603121 34.732422 31.939453 C 35.283595 32.582372 36.091201 33 37 33 C 38.650932 33 40 31.650932 40 30 C 40 28.349068 38.650932 27 37 27 C 36.9913 27 36.983249 27.001853 36.974609 27.001953 C 36.767001 24.708575 35.144953 22.81963 32.990234 22.210938 C 32.993206 22.1404 33 22.071251 33 22 C 33 19.244499 30.755501 17 28 17 C 27.800012 17 27.604098 17.014129 27.410156 17.037109 C 26.504261 15.239485 24.645762 14 22.5 14 z M 22.5 16 C 23.875571 16 25.047552 16.791635 25.625 17.9375 A 2.0002 2.0002 0 0 0 27.644531 19.023438 C 27.77731 19.007705 27.894211 19 28 19 C 29.669432 19 31 20.330568 31 22 C 31 21.94411 30.998187 21.98326 30.992188 22.126953 A 2.0002 2.0002 0 0 0 32.447266 24.134766 C 33.812964 24.520566 34.850253 25.721616 34.982422 27.181641 A 2.0002 2.0002 0 0 0 36.998047 29.001953 L 37 29 C 37.561391 29 38 29.438609 38 30 C 38 30.561391 37.561391 31 37 31 C 36.703919 31 36.451404 30.8736 36.25 30.638672 A 2.0002 2.0002 0 0 0 33.552734 30.324219 C 32.966688 30.75221 32.270456 31 31.5 31 C 30.647246 31 29.882824 30.700016 29.273438 30.195312 A 2.0002 2.0002 0 0 0 26.851562 30.097656 C 26.036175 30.668105 25.064089 31 23.998047 31 C 22.920373 31 21.939106 30.65974 21.117188 30.076172 A 2.0002 2.0002 0 0 0 18.318359 30.5625 C 18.1313 30.830547 17.841431 31 17.5 31 C 17.265166 31 17.061149 30.919321 16.863281 30.75 A 2.0002 2.0002 0 0 0 14.529297 30.556641 C 14.052981 30.843803 13.546945 31 13 31 C 11.330568 31 10 29.669432 10 28 C 10 26.52221 11.063187 25.312458 12.447266 25.052734 A 2.0002 2.0002 0 0 0 14.054688 23.392578 C 14.205317 22.412165 14.705091 21.552908 15.427734 20.943359 A 2.0002 2.0002 0 0 0 16.068359 18.886719 C 16.015223 18.692666 16 18.574394 16 18.5 C 16 17.661226 16.661226 17 17.5 17 C 17.706752 17 17.90256 17.04456 18.109375 17.138672 A 2.0002 2.0002 0 0 0 20.236328 16.839844 C 20.853768 16.31296 21.630549 16 22.5 16 z "
     id="path4592" />
</svg>
