<?xml version="1.0" encoding="UTF-8" standalone="no"?>
<svg
   xmlns:dc="http://purl.org/dc/elements/1.1/"
   xmlns:cc="http://creativecommons.org/ns#"
   xmlns:rdf="http://www.w3.org/1999/02/22-rdf-syntax-ns#"
   xmlns:svg="http://www.w3.org/2000/svg"
   xmlns="http://www.w3.org/2000/svg"
   xmlns:xlink="http://www.w3.org/1999/xlink"
   xmlns:sodipodi="http://sodipodi.sourceforge.net/DTD/sodipodi-0.dtd"
   xmlns:inkscape="http://www.inkscape.org/namespaces/inkscape"
   width="48"
   height="48"
   version="1"
   id="svg14"
   sodipodi:docname="qnapi.svg"
   inkscape:version="0.92.3 (2405546, 2018-03-11)">
  <metadata
     id="metadata20">
    <rdf:RDF>
      <cc:Work
         rdf:about="">
        <dc:format>image/svg+xml</dc:format>
        <dc:type
           rdf:resource="http://purl.org/dc/dcmitype/StillImage" />
      </cc:Work>
    </rdf:RDF>
  </metadata>
  <defs
     id="defs18">
    <linearGradient
       inkscape:collect="always"
       id="linearGradient865">
      <stop
         style="stop-color:#000000;stop-opacity:1;"
         offset="0"
         id="stop861" />
      <stop
         style="stop-color:#000000;stop-opacity:0;"
         offset="1"
         id="stop863" />
    </linearGradient>
    <linearGradient
       inkscape:collect="always"
       id="linearGradient847">
      <stop
         style="stop-color:#000000;stop-opacity:1;"
         offset="0"
         id="stop843" />
      <stop
         style="stop-color:#000000;stop-opacity:0;"
         offset="1"
         id="stop845" />
    </linearGradient>
    <linearGradient
       inkscape:collect="always"
       id="linearGradient831">
      <stop
         style="stop-color:#f2620d;stop-opacity:1;"
         offset="0"
         id="stop827" />
      <stop
         style="stop-color:#f89400;stop-opacity:1"
         offset="1"
         id="stop829" />
    </linearGradient>
    <linearGradient
       inkscape:collect="always"
       xlink:href="#linearGradient831"
       id="linearGradient833"
       x1="38.720909"
       y1="45.570484"
       x2="27.443708"
       y2="2.8079469"
       gradientUnits="userSpaceOnUse" />
    <linearGradient
       inkscape:collect="always"
       xlink:href="#linearGradient847"
       id="linearGradient849"
       x1="18.586285"
       y1="1.1732576"
       x2="35.151989"
       y2="64.188873"
       gradientUnits="userSpaceOnUse" />
    <linearGradient
       inkscape:collect="always"
       xlink:href="#linearGradient865"
       id="linearGradient867"
       x1="23.390629"
       y1="18.791519"
       x2="40.503559"
       y2="35.904449"
       gradientUnits="userSpaceOnUse" />
  </defs>
  <sodipodi:namedview
     pagecolor="#ffffff"
     bordercolor="#666666"
     borderopacity="1"
     objecttolerance="10"
     gridtolerance="10"
     guidetolerance="10"
     inkscape:pageopacity="0"
     inkscape:pageshadow="2"
     inkscape:window-width="1920"
     inkscape:window-height="1020"
     id="namedview16"
     showgrid="false"
     inkscape:zoom="16.01"
     inkscape:cx="12.507183"
     inkscape:cy="14.006246"
     inkscape:window-x="0"
     inkscape:window-y="30"
     inkscape:window-maximized="1"
     inkscape:current-layer="svg14" />
  <rect
     style="fill:url(#linearGradient833);fill-opacity:1"
     width="40"
     height="40"
     x="4"
     y="4"
     rx="8"
     ry="8"
     id="rect4" />
  <path
     style="fill:url(#linearGradient849);fill-opacity:1"
     d="M 24 10 A 14 14 0 0 0 10 24 A 14 14 0 0 0 24 38 A 14 14 0 0 0 31.228516 35.970703 C 32.205273 37.061282 33.081476 38.214142 33.777344 39.34375 L 37.181641 37.244141 C 36.375201 35.935038 35.405062 34.647384 34.328125 33.429688 A 14 14 0 0 0 38 24 A 14 14 0 0 0 24 10 z M 24 15 A 8 9 0 0 1 32 24 A 8 9 0 0 1 30.244141 29.613281 C 30.185015 29.5682 30.127744 29.519091 30.068359 29.474609 C 27.253502 27.366172 24.141035 25.84334 20.947266 26.091797 L 21.257812 30.078125 C 22.721177 29.964284 24.920896 30.770506 27.109375 32.283203 A 8 9 0 0 1 24 33 A 8 9 0 0 1 16 24 A 8 9 0 0 1 24 15 z "
     id="path8" />
  <path
     style="opacity:0.2;fill:url(#linearGradient867);fill-opacity:1;stroke:none;stroke-width:1.46915483;stroke-linecap:round;stroke-linejoin:round;stroke-miterlimit:4;stroke-dasharray:none;stroke-dashoffset:0;stroke-opacity:1;paint-order:normal"
     d="M 33.744141 13.945312 L 33.744141 13.949219 A 14 14 0 0 1 33.753906 13.957031 L 33.744141 13.945312 z M 33.753906 13.957031 A 14 14 0 0 1 38 24 A 14 14 0 0 1 34.328125 33.429688 C 35.405062 34.647384 36.375201 35.935038 37.181641 37.244141 L 33.777344 39.34375 C 33.081476 38.214142 32.205273 37.061282 31.228516 35.970703 A 14 14 0 0 1 24 38 A 14 14 0 0 1 14.472656 34.242188 L 24.230469 44 L 36 44 C 40.432 44 44 40.432 44 36 L 44 24.201172 L 33.753906 13.957031 z "
     id="rect851" />
  <path
     style="fill:#000000;fill-opacity:1;opacity:0.2"
     d="M 4 35 L 4 36 C 4 40.432 7.568 44 12 44 L 36 44 C 40.432 44 44 40.432 44 36 L 44 35 C 44 39.432 40.432 43 36 43 L 12 43 C 7.568 43 4 39.432 4 35 z "
     id="rect872" />
</svg>
