<?xml version="1.0" encoding="UTF-8" standalone="no"?>
<svg
   xmlns:dc="http://purl.org/dc/elements/1.1/"
   xmlns:cc="http://creativecommons.org/ns#"
   xmlns:rdf="http://www.w3.org/1999/02/22-rdf-syntax-ns#"
   xmlns:svg="http://www.w3.org/2000/svg"
   xmlns="http://www.w3.org/2000/svg"
   xmlns:xlink="http://www.w3.org/1999/xlink"
   xmlns:sodipodi="http://sodipodi.sourceforge.net/DTD/sodipodi-0.dtd"
   xmlns:inkscape="http://www.inkscape.org/namespaces/inkscape"
   width="48"
   height="48"
   version="1.1"
   id="svg32"
   sodipodi:docname="telegram.svg"
   inkscape:version="0.92.3 (2405546, 2018-03-11)">
  <metadata
     id="metadata36">
    <rdf:RDF>
      <cc:Work
         rdf:about="">
        <dc:format>image/svg+xml</dc:format>
        <dc:type
           rdf:resource="http://purl.org/dc/dcmitype/StillImage" />
      </cc:Work>
    </rdf:RDF>
  </metadata>
  <sodipodi:namedview
     pagecolor="#ffffff"
     bordercolor="#666666"
     borderopacity="1"
     objecttolerance="10"
     gridtolerance="10"
     guidetolerance="10"
     inkscape:pageopacity="0"
     inkscape:pageshadow="2"
     inkscape:window-width="1920"
     inkscape:window-height="1020"
     id="namedview34"
     showgrid="false"
     inkscape:zoom="13.01"
     inkscape:cx="8.8434926"
     inkscape:cy="24"
     inkscape:window-x="0"
     inkscape:window-y="30"
     inkscape:window-maximized="1"
     inkscape:current-layer="svg32" />
  <defs
     id="defs18">
    <linearGradient
       inkscape:collect="always"
       id="linearGradient831">
      <stop
         style="stop-color:#ffffff;stop-opacity:1;"
         offset="0"
         id="stop827" />
      <stop
         style="stop-color:#ffffff;stop-opacity:0;"
         offset="1"
         id="stop829" />
    </linearGradient>
    <linearGradient
       id="linearGradient4512">
      <stop
         style="stop-color:#71a9ff;stop-opacity:1"
         offset="0"
         id="stop2" />
      <stop
         style="stop-color:#e6f6ff;stop-opacity:1"
         offset="1"
         id="stop4" />
    </linearGradient>
    <linearGradient
       id="a"
       y1="543.8"
       y2="503.8"
       x2="0"
       gradientUnits="userSpaceOnUse">
      <stop
         stop-color="#197cf1"
         id="stop7" />
      <stop
         offset="1"
         stop-color="#20bcfa"
         id="stop9" />
    </linearGradient>
    <linearGradient
       id="b"
       y1="18.71"
       x1="22.285"
       y2="36.633"
       x2="39.28"
       gradientUnits="userSpaceOnUse">
      <stop
         stop-color="#292c2f"
         id="stop12" />
      <stop
         offset="1"
         stop-color="#292c2f"
         stop-opacity="0"
         id="stop14" />
    </linearGradient>
    <style
       id="current-color-scheme"
       type="text/css">
   .ColorScheme-Text { color:#cbcbcb; } .ColorScheme-Highlight { color:#3daee9; }
  </style>
    <linearGradient
       inkscape:collect="always"
       xlink:href="#linearGradient831"
       id="linearGradient833"
       x1="20.455803"
       y1="14.585231"
       x2="28.540907"
       y2="37.106369"
       gradientUnits="userSpaceOnUse" />
  </defs>
  <g
     style="stroke-width:2.79999995;stroke-opacity:0.55"
     id="g24"
     transform="translate(-384.57,-499.8)">
    <rect
       style="fill:url(#a)"
       id="rect20"
       height="40"
       rx="20"
       y="503.79999"
       x="388.57001"
       width="40" />
    <path
       style="fill:#0c69cf"
       inkscape:connector-curvature="0"
       id="path22"
       transform="translate(384.57,499.8)"
       d="m 4.01,23.5 c -0.004,0.167 -0.012,0.332 -0.012,0.5 0,11.08 8.92,20 20,20 11.08,0 20,-8.92 20,-20 0,-0.168 -0.008,-0.333 -0.012,-0.5 C 43.722,34.347 34.906,43 23.998,43 13.086,43 4.274,34.347 4.01,23.5" />
  </g>
  <path
     style="opacity:0.2;fill:url(#b)"
     d="M 31.767578 16.462891 L 31.748047 16.515625 C 31.950178 16.806983 32.036831 17.16163 31.984375 17.537109 C 31.914304 18.04898 26.238743 34.085295 26.027344 34.369141 C 25.577231 34.974834 24.813704 35.176022 24.251953 34.833984 C 24.163428 34.780592 24.080087 34.697905 23.996094 34.621094 L 31.794922 42.435547 C 37.720922 39.938547 42.165922 34.671234 43.544922 28.240234 L 31.767578 16.462891 z M 13.181641 23.785156 L 13.275391 23.878906 C 13.254291 23.85291 13.240678 23.826721 13.222656 23.800781 L 13.181641 23.785156 z M 13.464844 24.068359 L 23.816406 34.441406 C 23.437708 33.992591 22.972129 33.124681 21.914062 30.986328 C 21.101246 29.340266 20.326373 27.878421 20.193359 27.738281 C 20.04431 27.580325 18.815824 26.92749 16.984375 26.033203 C 14.940384 25.036028 13.953437 24.515424 13.464844 24.068359 z "
     id="path26" />
  <path
     style="color:#cbcbcb;font-style:normal;font-variant:normal;font-weight:normal;font-stretch:normal;font-size:medium;line-height:normal;font-family:sans-serif;font-variant-ligatures:normal;font-variant-position:normal;font-variant-caps:normal;font-variant-numeric:normal;font-variant-alternates:normal;font-feature-settings:normal;text-indent:0;text-align:start;text-decoration:none;text-decoration-line:none;text-decoration-style:solid;text-decoration-color:#000000;letter-spacing:normal;word-spacing:normal;text-transform:none;writing-mode:lr-tb;direction:ltr;text-orientation:mixed;dominant-baseline:auto;baseline-shift:baseline;text-anchor:start;white-space:normal;shape-padding:0;clip-rule:nonzero;display:inline;overflow:visible;visibility:visible;opacity:1;isolation:auto;mix-blend-mode:normal;color-interpolation:sRGB;color-interpolation-filters:linearRGB;solid-color:#000000;solid-opacity:1;vector-effect:none;fill:url(#linearGradient833);fill-opacity:1;fill-rule:nonzero;stroke:none;stroke-width:4;stroke-linecap:butt;stroke-linejoin:miter;stroke-miterlimit:4;stroke-dasharray:none;stroke-dashoffset:0;stroke-opacity:1;color-rendering:auto;image-rendering:auto;shape-rendering:auto;text-rendering:auto;enable-background:accumulate"
     d="M 30.736328 16.003906 C 30.195956 15.970886 29.901827 16.065789 21.992188 18.832031 C 17.491174 20.406359 13.706785 21.759796 13.583984 21.839844 C 13.226744 22.072262 13 22.520062 13 22.986328 C 13 23.987621 13.365654 24.267785 16.984375 26.033203 C 18.815824 26.92749 20.04431 27.580325 20.193359 27.738281 C 20.326373 27.878421 21.101246 29.340266 21.914062 30.986328 C 23.384353 33.957788 23.722268 34.51451 24.251953 34.833984 C 24.813704 35.176022 25.577231 34.974834 26.027344 34.369141 C 26.238743 34.085295 31.914304 18.04898 31.984375 17.537109 C 32.050875 17.061105 31.900542 16.616178 31.564453 16.294922 C 31.339992 16.080794 31.203069 16.032409 30.736328 16.003906 z M 29.634766 18.308594 C 29.494894 18.722692 29.358785 19.127129 29.164062 19.691406 C 28.621638 21.263274 27.89944 23.32058 27.173828 25.371094 C 26.448216 27.421607 25.718098 29.466553 25.158203 31.009766 C 24.993413 31.46397 24.884327 31.757516 24.753906 32.111328 C 24.485275 31.618175 24.238282 31.173268 23.707031 30.099609 C 23.292874 29.260885 22.888761 28.47302 22.564453 27.861328 C 22.402299 27.555482 22.261897 27.294557 22.140625 27.082031 C 22.079985 26.975769 22.02471 26.882481 21.964844 26.787109 C 21.905594 26.692719 21.917634 26.651998 21.646484 26.365234 L 21.644531 26.363281 C 21.143044 25.832611 21.112275 25.933541 20.904297 25.810547 C 20.695703 25.687188 20.451736 25.552503 20.158203 25.396484 C 19.571137 25.084446 18.793075 24.690342 17.863281 24.236328 L 17.861328 24.236328 C 16.637677 23.639362 16.299159 23.423416 15.810547 23.144531 C 16.139091 23.025593 16.397677 22.930513 16.820312 22.779297 C 18.337733 22.236375 20.405617 21.504592 22.652344 20.71875 C 26.545668 19.357136 28.54455 18.662553 29.634766 18.308594 z "
     id="path860" />
</svg>
