<?xml version="1.0" encoding="UTF-8" standalone="no"?>
<svg
   xmlns:dc="http://purl.org/dc/elements/1.1/"
   xmlns:cc="http://creativecommons.org/ns#"
   xmlns:rdf="http://www.w3.org/1999/02/22-rdf-syntax-ns#"
   xmlns:svg="http://www.w3.org/2000/svg"
   xmlns="http://www.w3.org/2000/svg"
   xmlns:sodipodi="http://sodipodi.sourceforge.net/DTD/sodipodi-0.dtd"
   xmlns:inkscape="http://www.inkscape.org/namespaces/inkscape"
   width="16"
   height="16"
   version="1.1"
   id="svg8"
   sodipodi:docname="preferences-system-devices-symbolic.svg"
   inkscape:version="0.92.3 (2405546, 2018-03-11)">
  <metadata
     id="metadata14">
    <rdf:RDF>
      <cc:Work
         rdf:about="">
        <dc:format>image/svg+xml</dc:format>
        <dc:type
           rdf:resource="http://purl.org/dc/dcmitype/StillImage" />
      </cc:Work>
    </rdf:RDF>
  </metadata>
  <defs
     id="defs12" />
  <sodipodi:namedview
     pagecolor="#ffffff"
     bordercolor="#666666"
     borderopacity="1"
     objecttolerance="10"
     gridtolerance="10"
     guidetolerance="10"
     inkscape:pageopacity="0"
     inkscape:pageshadow="2"
     inkscape:window-width="1920"
     inkscape:window-height="1026"
     id="namedview10"
     showgrid="false"
     inkscape:zoom="14.75"
     inkscape:cx="8.2711864"
     inkscape:cy="7.7288136"
     inkscape:window-x="0"
     inkscape:window-y="30"
     inkscape:window-maximized="1"
     inkscape:current-layer="svg8" />
  <path
     inkscape:connector-curvature="0"
     style="color:#232629;fill:#232627;fill-opacity:1;stroke:none"
     d="m 1.9999999,-1.5e-7 v 1.00000005 2 h -1 -1 v 1 5 1 h 1 2 V 11 12 h 4 v -1 h -3 V 9.9999999 h 3 V 7.9999998 h -5 v 1.0000001 h -1 v -5 H 11 v 2.9999999 h 1 v -2.9999999 -1 H 9.9999999 v -2 V -1.5e-7 Z m 1,1.00000005 h 6 v 2 h -6 z m 5,3.9999999 v 1 h 2 v -1 z m 0,3 V 14 H 11 v 1 H 9.9999999 v 1 H 14 v -1 h -1 v -1 h 3 V 7.9999998 Z m 1,1.0000001 H 15 V 13 H 8.9999999 Z"
     id="path4-3" />
</svg>
