<?xml version="1.0" encoding="UTF-8" standalone="no"?>
<!-- Created with Inkscape (http://www.inkscape.org/) -->

<svg
   width="16"
   height="16"
   viewBox="0 0 4.2333332 4.2333335"
   version="1.1"
   id="svg5"
   inkscape:version="1.1.1 (3bf5ae0d25, 2021-09-20)"
   sodipodi:docname="system-software-install-symbolic.svg"
   xmlns:inkscape="http://www.inkscape.org/namespaces/inkscape"
   xmlns:sodipodi="http://sodipodi.sourceforge.net/DTD/sodipodi-0.dtd"
   xmlns="http://www.w3.org/2000/svg"
   xmlns:svg="http://www.w3.org/2000/svg">
  <sodipodi:namedview
     id="namedview7"
     pagecolor="#ffffff"
     bordercolor="#666666"
     borderopacity="1.0"
     inkscape:pageshadow="2"
     inkscape:pageopacity="0.0"
     inkscape:pagecheckerboard="0"
     inkscape:document-units="px"
     showgrid="false"
     units="px"
     height="16px"
     inkscape:zoom="12.953125"
     inkscape:cx="-2.2002413"
     inkscape:cy="-1.3510253"
     inkscape:window-width="1853"
     inkscape:window-height="1049"
     inkscape:window-x="67"
     inkscape:window-y="31"
     inkscape:window-maximized="1"
     inkscape:current-layer="svg5" />
  <defs
     id="defs2" />
  <path
     id="rect1086"
     style="fill:#232627;fill-opacity:1;stroke-width:0.822198;stroke-opacity:0.266667"
     d="M 7.9980469 2 C 5.329358 2.0255151 2.9009142 3.8895839 2.1855469 6.4609375 C 1.5193197 9.0464658 2.6910418 11.873445 4.9902344 13.230469 C 7.3149415 14.544024 10.347835 14.143598 12.253906 12.273438 C 13.952392 10.543196 14.438309 7.8816617 13.529297 5.6660156 C 14.431027 7.8834505 13.935051 10.539586 12.238281 12.257812 C 10.335045 14.114744 7.3128012 14.501181 5.0117188 13.191406 C 2.7493812 11.848557 1.5985773 9.0627235 2.2402344 6.5253906 C 1.6136973 9.0665038 2.7832142 11.834001 5.0351562 13.150391 C 7.3239542 14.43654 10.313999 14.029437 12.171875 12.191406 C 13.970954 10.352327 14.367951 7.431627 13.150391 5.1855469 C 14.354616 7.4384597 13.93403 10.348054 12.138672 12.160156 C 10.288356 13.971728 7.3216889 14.349847 5.0820312 13.070312 C 2.9444049 11.806046 1.8200369 9.2020159 2.3222656 6.7929688 C 1.8349256 9.2043519 2.978828 11.790664 5.1054688 13.029297 C 7.3318961 14.286151 10.267373 13.886421 12.074219 12.09375 C 13.827716 10.304903 14.21627 7.438644 13.027344 5.2519531 C 14.202063 7.4454762 13.790792 10.299607 12.041016 12.060547 C 10.240784 13.827702 7.3305761 14.198513 5.1523438 12.949219 C 3.0360536 11.70177 1.930541 9.0825964 2.4824219 6.7070312 C 1.9446601 9.085652 3.0687008 11.685871 5.1738281 12.908203 C 7.3397752 14.132927 10.220748 13.743404 11.976562 11.996094 C 13.604915 10.339377 14.024506 7.7071367 13.056641 5.6230469 C 14.012774 7.7129734 13.56898 10.331062 11.943359 11.962891 C 10.193214 13.684687 7.339463 14.046234 5.2226562 12.828125 C 3.1612501 11.616956 2.0774049 9.0511192 2.6191406 6.7402344 C 2.0924252 9.0541743 3.1948275 11.603941 5.2441406 12.789062 C 7.3486621 13.984491 10.172168 13.59938 11.876953 11.896484 C 13.542078 10.209034 13.914948 7.451775 12.783203 5.3847656 C 13.901586 7.459452 13.505154 10.201877 11.84375 11.863281 C 10.14558 13.538772 7.3473424 13.8949 5.2910156 12.707031 C 3.3181741 11.55079 2.2595032 9.0974429 2.7304688 6.8789062 C 2.2735446 9.0998015 3.3516818 11.53736 5.3144531 12.667969 C 7.3584949 13.833157 10.125542 13.454411 11.779297 11.796875 C 13.425492 10.132724 13.774501 7.3731134 12.607422 5.3574219 C 13.761271 7.3797287 13.388509 10.129824 11.746094 11.765625 C 10.098953 13.3967 7.3571749 13.743565 5.3613281 12.585938 C 3.4434148 11.466315 2.406097 9.0615235 2.8671875 6.90625 C 2.4209312 9.0631162 3.4769225 11.451971 5.3847656 12.546875 C 7.3673822 13.680879 10.076962 13.311394 11.679688 11.699219 C 13.205851 10.161344 13.587409 7.6310914 12.634766 5.7050781 C 13.574891 7.6367603 13.169457 10.154758 11.646484 11.666016 C 10.050374 13.251731 7.3660618 13.594185 5.4316406 12.466797 C 3.5677401 11.383794 2.5523876 9.0268302 3.0019531 6.9355469 C 2.5672864 9.0291894 3.6011258 11.367496 5.453125 12.425781 C 7.3752619 13.5286 10.030336 13.168377 11.582031 11.601562 C 12.959395 10.218342 13.37389 7.9845012 12.683594 6.1757812 C 12.870175 6.6745761 12.973146 7.2034186 12.994141 7.7382812 A 4.9999997 4.9999997 0 0 1 12.994141 7.7402344 A 4.9999997 4.9999997 0 0 1 12.994141 7.7421875 C 12.99551 7.7777331 12.997391 7.8140318 12.998047 7.8496094 A 4.9999997 4.9999997 0 0 1 12.998047 7.8515625 A 4.9999997 4.9999997 0 0 1 12.998047 7.8535156 A 4.9999997 4.9999997 0 0 1 12.998047 7.8554688 A 4.9999997 4.9999997 0 0 1 12.998047 7.8574219 A 4.9999997 4.9999997 0 0 1 12.998047 7.859375 A 4.9999997 4.9999997 0 0 1 12.998047 7.8613281 A 4.9999997 4.9999997 0 0 1 12.998047 7.8632812 A 4.9999997 4.9999997 0 0 1 12.998047 7.8652344 A 4.9999997 4.9999997 0 0 1 12.998047 7.8671875 A 4.9999997 4.9999997 0 0 1 12.998047 7.8691406 A 4.9999997 4.9999997 0 0 1 12.998047 7.8710938 A 4.9999997 4.9999997 0 0 1 13 8 A 4.9999997 4.9999997 0 0 1 12.837891 9.2519531 C 12.835934 9.2598061 12.834024 9.2675472 12.832031 9.2753906 A 4.9999997 4.9999997 0 0 1 12.777344 9.4746094 C 12.544441 10.263002 12.129115 10.993207 11.546875 11.568359 C 11.002045 12.111856 10.322171 12.505096 9.5878906 12.738281 A 4.9999997 4.9999997 0 0 1 8 13 A 4.9999997 4.9999997 0 0 1 7.1582031 12.925781 C 7.0671132 12.911546 6.9767507 12.894175 6.8867188 12.875 C 6.3993648 12.771204 5.9299956 12.597456 5.5 12.345703 C 5.2083779 12.176932 4.9380701 11.973939 4.6914062 11.746094 C 4.6862981 11.741375 4.6808691 11.737163 4.6757812 11.732422 A 4.9999997 4.9999997 0 0 1 3 8 A 4.9999997 4.9999997 0 0 1 8 3 L 8 2 L 7.9980469 2 z M 7 5 L 7 9 L 5 9 L 8 12 L 11 9 L 9 9 L 9 5 L 7 5 z M 12.849609 5.2167969 C 12.887307 5.2833679 12.924367 5.3520325 12.958984 5.4199219 C 12.9237 5.3517404 12.888 5.2835968 12.849609 5.2167969 z M 12.464844 5.6777344 C 12.512254 5.7682472 12.55256 5.861715 12.59375 5.9550781 C 12.553257 5.8616487 12.511595 5.7684318 12.464844 5.6777344 z M 12.59375 5.9550781 C 12.623676 6.0241271 12.653154 6.0936938 12.679688 6.1640625 C 12.652652 6.0937737 12.624153 6.0239914 12.59375 5.9550781 z "
     transform="scale(0.26458333)" />
</svg>
