<?xml version="1.0" encoding="UTF-8" standalone="no"?>
<svg
   xmlns:dc="http://purl.org/dc/elements/1.1/"
   xmlns:cc="http://creativecommons.org/ns#"
   xmlns:rdf="http://www.w3.org/1999/02/22-rdf-syntax-ns#"
   xmlns:svg="http://www.w3.org/2000/svg"
   xmlns="http://www.w3.org/2000/svg"
   xmlns:sodipodi="http://sodipodi.sourceforge.net/DTD/sodipodi-0.dtd"
   xmlns:inkscape="http://www.inkscape.org/namespaces/inkscape"
   viewBox="0 0 16 16"
   version="1.1"
   id="svg8"
   sodipodi:docname="microphone-sensitivity-muted-symbolic.svg"
   width="16"
   height="16"
   inkscape:version="0.92.1 r15371">
  <metadata
     id="metadata12">
    <rdf:RDF>
      <cc:Work
         rdf:about="">
        <dc:format>image/svg+xml</dc:format>
        <dc:type
           rdf:resource="http://purl.org/dc/dcmitype/StillImage" />
        <dc:title></dc:title>
      </cc:Work>
    </rdf:RDF>
  </metadata>
  <sodipodi:namedview
     pagecolor="#ffffff"
     bordercolor="#666666"
     borderopacity="1"
     objecttolerance="10"
     gridtolerance="10"
     guidetolerance="10"
     inkscape:pageopacity="0"
     inkscape:pageshadow="2"
     inkscape:window-width="1600"
     inkscape:window-height="808"
     id="namedview10"
     showgrid="false"
     inkscape:zoom="10.727273"
     inkscape:cx="-8.0635593"
     inkscape:cy="11"
     inkscape:window-x="0"
     inkscape:window-y="0"
     inkscape:window-maximized="1"
     inkscape:current-layer="svg8" />
  <defs
     id="defs3051">
    <style
       type="text/css"
       id="current-color-scheme">
      .ColorScheme-Text {
        color:#232627;
      }
      </style>
  </defs>
  <path
     class="warning" style="color:#232627;fill:#da4453;fill-opacity:1;stroke:none"
     d="M 5.5 0 C 4.115 0 3 1.115 3 2.5 L 3 8.5 C 3 9.885 4.115 11 5.5 11 C 6.885 11 8 9.885 8 8.5 L 8 2.5 C 8 1.115 6.885 0 5.5 0 z M 11.732422 5.5253906 L 11.025391 6.2324219 L 12.792969 8 L 11.025391 9.7675781 L 11.732422 10.474609 L 13.5 8.7070312 L 15.267578 10.474609 L 15.974609 9.7675781 L 14.207031 8 L 15.974609 6.2324219 L 15.267578 5.5253906 L 13.5 7.2929688 L 11.732422 5.5253906 z M 0 7 L 0 8 C 0.0009163 10.235554 1.6341118 12.198898 4 12.808594 L 4 15 L 2 15 L 2 16 L 9 16 L 9 15 L 7 15 L 7 12.806641 C 9.365122 12.197142 10.998124 10.23483 11 8 L 11 7 L 10 7 L 10 8 C 10 10.209139 7.9852814 12 5.5 12 C 3.0147186 12 1 10.209139 1 8 L 1 7 L 0 7 z "
     id="path4" />
</svg>
