<?xml version="1.0" encoding="UTF-8" standalone="no"?>
<!-- Created with Inkscape (http://www.inkscape.org/) -->

<svg
   xmlns:dc="http://purl.org/dc/elements/1.1/"
   xmlns:cc="http://creativecommons.org/ns#"
   xmlns:rdf="http://www.w3.org/1999/02/22-rdf-syntax-ns#"
   xmlns:svg="http://www.w3.org/2000/svg"
   xmlns="http://www.w3.org/2000/svg"
   xmlns:sodipodi="http://sodipodi.sourceforge.net/DTD/sodipodi-0.dtd"
   xmlns:inkscape="http://www.inkscape.org/namespaces/inkscape"
   id="svg7384"
   height="16"
   viewBox="0 0 16.000286 16"
   width="16"
   version="1.1"
   sodipodi:docname="folder-drag-accept-symbolic.svg"
   inkscape:version="0.92.1 r15371">
  <defs
     id="defs9" />
  <sodipodi:namedview
     pagecolor="#ffffff"
     bordercolor="#666666"
     borderopacity="1"
     objecttolerance="10"
     gridtolerance="10"
     guidetolerance="10"
     inkscape:pageopacity="0"
     inkscape:pageshadow="2"
     inkscape:window-width="1600"
     inkscape:window-height="808"
     id="namedview7"
     showgrid="false"
     inkscape:zoom="14.75"
     inkscape:cx="8.5762712"
     inkscape:cy="8"
     inkscape:window-x="0"
     inkscape:window-y="0"
     inkscape:window-maximized="1"
     inkscape:current-layer="svg7384" />
  <metadata
     id="metadata90">
    <rdf:RDF>
      <cc:Work
         rdf:about="">
        <dc:format>image/svg+xml</dc:format>
        <dc:type
           rdf:resource="http://purl.org/dc/dcmitype/StillImage" />
        <dc:title>Gnome Symbolic Icon Theme</dc:title>
      </cc:Work>
    </rdf:RDF>
  </metadata>
  <title
     id="title9167">Gnome Symbolic Icon Theme</title>
  <path
     style="fill:#232627;fill-opacity:1;stroke:none;stroke-width:1"
     d="M 0 0 L 0 1 L 0 3 L 1 3 L 1 1 L 4 1 L 6.5859375 1 L 7.5898438 2.0039062 L 6.5878906 3 L 7 3 L 7 3.0078125 L 7.0078125 3 L 9.0078125 5 L 15 5 L 16 5 L 16 2 L 9.0078125 2 L 7.0078125 0 L 7 0.0078125 L 7 0 L 1 0 L 0 0 z M 0 4 L 0 5 L 0 16 L 1 16 L 16 16 L 16 15 L 16 6 L 9.0078125 6 L 7.0078125 4 L 7 4.0078125 L 7 4 L 1 4 L 0 4 z M 1 5 L 4 5 L 6.5859375 5 L 7.5898438 6.0039062 L 3.5703125 10 L 3.5683594 10 L 1 10 L 1 5 z M 6.0078125 9 L 15 9 L 15 15 L 1 15 L 1 11 L 2.5625 11 L 4 11 L 4 10.992188 L 4.0078125 11 L 6.0078125 9 z "
     transform="matrix(1.0000179,0,0,1.0000179,0,-1.43e-4)"
     id="path4" />
</svg>
