<?xml version="1.0" encoding="UTF-8" standalone="no"?>
<svg
   xmlns:dc="http://purl.org/dc/elements/1.1/"
   xmlns:cc="http://creativecommons.org/ns#"
   xmlns:rdf="http://www.w3.org/1999/02/22-rdf-syntax-ns#"
   xmlns:svg="http://www.w3.org/2000/svg"
   xmlns="http://www.w3.org/2000/svg"
   xmlns:sodipodi="http://sodipodi.sourceforge.net/DTD/sodipodi-0.dtd"
   xmlns:inkscape="http://www.inkscape.org/namespaces/inkscape"
   width="16"
   height="16.001"
   version="1.1"
   id="svg10"
   sodipodi:docname="mail-attachment-symbolic.svg"
   inkscape:version="0.92.3 (2405546, 2018-03-11)">
  <metadata
     id="metadata16">
    <rdf:RDF>
      <cc:Work
         rdf:about="">
        <dc:format>image/svg+xml</dc:format>
        <dc:type
           rdf:resource="http://purl.org/dc/dcmitype/StillImage" />
      </cc:Work>
    </rdf:RDF>
  </metadata>
  <defs
     id="defs14" />
  <sodipodi:namedview
     pagecolor="#ffffff"
     bordercolor="#666666"
     borderopacity="1"
     objecttolerance="10"
     gridtolerance="10"
     guidetolerance="10"
     inkscape:pageopacity="0"
     inkscape:pageshadow="2"
     inkscape:window-width="1920"
     inkscape:window-height="1026"
     id="namedview12"
     showgrid="false"
     inkscape:zoom="14.749079"
     inkscape:cx="8.1356017"
     inkscape:cy="8.0004997"
     inkscape:window-x="0"
     inkscape:window-y="30"
     inkscape:window-maximized="1"
     inkscape:current-layer="svg10" />
  <path
     inkscape:connector-curvature="0"
     style="fill:#232627;fill-opacity:1;stroke:none;stroke-width:0.9426626"
     d="M 9.803481,1.0010001 1.113897,9.5962762 c -1.48519601,1.4690768 -1.48519601,3.8338648 0,5.3029228 1.485177,1.469067 3.87592,1.469067 5.361107,0 l 8.019445,-7.9324109 0.670139,-0.6628653 c 1.113887,-1.1017985 1.113878,-2.875403 0,-3.977192 -1.113888,-1.1017985 -2.906943,-1.1017985 -4.020831,0 L 10.473619,2.9895962 2.454173,10.922006 c -0.742598,0.734539 -0.742588,1.916932 0,2.651461 0.742598,0.734539 1.937956,0.734549 2.680554,0 L 13.154173,5.6410575 12.484035,4.9781921 5.134727,12.247737 4.464588,12.910602 c -0.371299,0.367269 -0.968996,0.367269 -1.340276,0 -0.371299,-0.36725 -0.371308,-0.958451 0,-1.325731 l 8.019445,-7.9324096 0.670139,-0.6628652 c 0.742597,-0.7345481 1.937964,-0.7345481 2.680553,0 0.742598,0.7345197 0.742598,1.9169226 0,2.6514613 L 5.804866,14.236334 c -1.113888,1.101797 -2.906943,1.101797 -4.020831,0 -1.11389701,-1.1018 -1.11389701,-2.875395 0,-3.977192 l 8.689584,-8.5952766 z"
     class="ColorScheme-Text"
     id="path4-3" />
</svg>
