<?xml version="1.0" encoding="UTF-8" standalone="no"?>
<svg
   xmlns:dc="http://purl.org/dc/elements/1.1/"
   xmlns:cc="http://creativecommons.org/ns#"
   xmlns:rdf="http://www.w3.org/1999/02/22-rdf-syntax-ns#"
   xmlns:svg="http://www.w3.org/2000/svg"
   xmlns="http://www.w3.org/2000/svg"
   xmlns:sodipodi="http://sodipodi.sourceforge.net/DTD/sodipodi-0.dtd"
   xmlns:inkscape="http://www.inkscape.org/namespaces/inkscape"
   width="16"
   height="16"
   version="1.1"
   id="svg8"
   sodipodi:docname="notifications-disabled-symbolic.svg"
   inkscape:version="0.92.3 (2405546, 2018-03-11)">
  <metadata
     id="metadata14">
    <rdf:RDF>
      <cc:Work
         rdf:about="">
        <dc:format>image/svg+xml</dc:format>
        <dc:type
           rdf:resource="http://purl.org/dc/dcmitype/StillImage" />
      </cc:Work>
    </rdf:RDF>
  </metadata>
  <defs
     id="defs12" />
  <sodipodi:namedview
     pagecolor="#ffffff"
     bordercolor="#666666"
     borderopacity="1"
     objecttolerance="10"
     gridtolerance="10"
     guidetolerance="10"
     inkscape:pageopacity="0"
     inkscape:pageshadow="2"
     inkscape:window-width="1920"
     inkscape:window-height="1026"
     id="namedview10"
     showgrid="false"
     inkscape:zoom="20.86"
     inkscape:cx="8.1355932"
     inkscape:cy="8"
     inkscape:window-x="0"
     inkscape:window-y="30"
     inkscape:window-maximized="1"
     inkscape:current-layer="svg8" />
  <path
     inkscape:connector-curvature="0"
     id="strikethrough"
     d="M 0,0.7070312 15.292969,16 16,15.292969 0.707031,2e-7 Z"
     style="fill:#232627;fill-opacity:1" />
  <path
     inkscape:connector-curvature="0"
     d="m 8,2e-7 a 1,1 0 0 0 -1,1 1,1 0 0 0 0.0098,0.128906 3.9999999,3.9999999 0 0 0 -2.240235,1.519532 l 0.716763,0.716796 A 3,3 0 0 1 8,2.0000002 a 3,3 0 0 1 3,3 c 0,3 0.585938,4 2.585938,5.9999998 h -0.464844 l 1,1 H 15 V 11 C 13,9.0000002 12,8.0000002 12,5.0000002 a 3.9999999,3.9999999 0 0 0 -3.009766,-3.871094 1,1 0 0 0 0.0098,-0.128906 1,1 0 0 0 -1,-1 z M 3.947265,6.0683592 C 3.721903,8.2730852 2.741131,9.2588692 1,11 v 1 h 8.878906 l -1,-1 H 2.414062 C 3.893706,9.5203562 4.596239,8.5841412 4.863281,6.9843752 Z M 6.269531,13 A 2,2 0 0 0 6,14 2,2 0 0 0 8,16 2,2 0 0 0 10,14 2,2 0 0 0 9.728516,13 Z"
     class="ColorScheme-Text"
     id="path4-3"
     style="fill:#232627;fill-rule:evenodd;fill-opacity:1;opacity:0.5" />
</svg>
