<?xml version="1.0" encoding="UTF-8" standalone="no"?>
<svg
   xmlns:dc="http://purl.org/dc/elements/1.1/"
   xmlns:cc="http://creativecommons.org/ns#"
   xmlns:rdf="http://www.w3.org/1999/02/22-rdf-syntax-ns#"
   xmlns:svg="http://www.w3.org/2000/svg"
   xmlns="http://www.w3.org/2000/svg"
   xmlns:sodipodi="http://sodipodi.sourceforge.net/DTD/sodipodi-0.dtd"
   xmlns:inkscape="http://www.inkscape.org/namespaces/inkscape"
   width="16"
   height="16"
   version="1.1"
   id="svg12"
   sodipodi:docname="help-contents-symbolic.svg"
   inkscape:version="0.92.3 (2405546, 2018-03-11)">
  <metadata
     id="metadata18">
    <rdf:RDF>
      <cc:Work
         rdf:about="">
        <dc:format>image/svg+xml</dc:format>
        <dc:type
           rdf:resource="http://purl.org/dc/dcmitype/StillImage" />
      </cc:Work>
    </rdf:RDF>
  </metadata>
  <defs
     id="defs16" />
  <sodipodi:namedview
     pagecolor="#ffffff"
     bordercolor="#666666"
     borderopacity="1"
     objecttolerance="10"
     gridtolerance="10"
     guidetolerance="10"
     inkscape:pageopacity="0"
     inkscape:pageshadow="2"
     inkscape:window-width="1920"
     inkscape:window-height="1026"
     id="namedview14"
     showgrid="false"
     inkscape:zoom="14.75"
     inkscape:cx="8.1355932"
     inkscape:cy="8"
     inkscape:window-x="0"
     inkscape:window-y="30"
     inkscape:window-maximized="1"
     inkscape:current-layer="svg12" />
  <path
     style="color:#bebebe;font-weight:400;font-family:sans-serif;font-variant-ligatures:normal;font-variant-position:normal;font-variant-caps:normal;font-variant-numeric:normal;font-variant-alternates:normal;font-feature-settings:normal;text-indent:0;text-decoration:none;text-decoration-line:none;text-decoration-style:solid;text-decoration-color:#000000;text-transform:none;text-orientation:mixed;white-space:normal;shape-padding:0;overflow:visible;isolation:auto;mix-blend-mode:normal;fill:#eff0f1"
     d="M 1 0 L 1 16 L 2 16 L 14 16 L 15 16 L 15 15 L 15 5.40625 L 15 4 L 15 3.9921875 L 11.007812 0 L 11 0.009765625 L 11 0 L 10 0 L 2 0 L 1 0 z M 2 1 L 10 1 L 10 4 L 10 5 L 14 5 L 14 15 L 2 15 L 2 1 z M 8 4.8769531 C 5.76 4.8769531 3.9394531 6.6975 3.9394531 8.9375 C 3.9394531 11.1785 5.76 12.998047 8 12.998047 C 10.24 12.998047 12.060547 11.1775 12.060547 8.9375 C 12.060547 6.6965 10.24 4.8769531 8 4.8769531 z M 8 5.8769531 A 3.043 3.043 0 0 1 9.3730469 6.2011719 L 8.9003906 7.1621094 C 8.6285767 7.023313 8.3246527 6.9375 8 6.9375 C 7.6747921 6.9375 7.3717667 7.0248218 7.0996094 7.1640625 L 6.625 6.1992188 A 3.043 3.043 0 0 1 8 5.8769531 z M 5.2539062 7.5800781 L 6.2148438 8.0605469 C 6.0826623 8.3271279 6 8.6212056 6 8.9375 C 6 9.2627978 6.0870127 9.5674713 6.2265625 9.8398438 L 5.265625 10.320312 A 3.043 3.043 0 0 1 4.9394531 8.9394531 A 3.043 3.043 0 0 1 5.2539062 7.5800781 z M 10.746094 7.5800781 A 3.043 3.043 0 0 1 11.060547 8.9375 A 3.043 3.043 0 0 1 10.734375 10.320312 L 9.7734375 9.8417969 C 9.9135754 9.5689718 10 9.2635303 10 8.9375 C 10 8.6214384 9.9191085 8.3269805 9.7871094 8.0605469 L 10.746094 7.5800781 z M 8 7.9375 C 8.563 7.9375 9 8.3745 9 8.9375 C 9 9.4995 8.563 9.9375 8 9.9375 C 7.437 9.9375 7 9.4995 7 8.9375 C 7 8.3745 7.437 7.9375 8 7.9375 z M 7.109375 10.71875 C 7.3788706 10.854676 7.6790733 10.9375 8 10.9375 C 8.3207232 10.9375 8.6212567 10.854515 8.890625 10.71875 L 9.3710938 11.679688 A 3.043 3.043 0 0 1 8 11.998047 A 3.043 3.043 0 0 1 6.6308594 11.677734 L 7.109375 10.71875 z "
     id="path4" />
</svg>
