<?xml version="1.0" encoding="UTF-8" standalone="no"?>
<!-- Created with Inkscape (http://www.inkscape.org/) -->

<svg
   width="16"
   height="16"
   viewBox="0 0 4.2333332 4.2333335"
   version="1.1"
   id="svg5"
   inkscape:version="1.1.1 (3bf5ae0d25, 2021-09-20)"
   sodipodi:docname="polari-symbolic.svg"
   xmlns:inkscape="http://www.inkscape.org/namespaces/inkscape"
   xmlns:sodipodi="http://sodipodi.sourceforge.net/DTD/sodipodi-0.dtd"
   xmlns="http://www.w3.org/2000/svg"
   xmlns:svg="http://www.w3.org/2000/svg">
  <sodipodi:namedview
     id="namedview7"
     pagecolor="#ffffff"
     bordercolor="#666666"
     borderopacity="1.0"
     inkscape:pageshadow="2"
     inkscape:pageopacity="0.0"
     inkscape:pagecheckerboard="0"
     inkscape:document-units="px"
     showgrid="false"
     units="px"
     height="16px"
     inkscape:zoom="34.648232"
     inkscape:cx="7.3741136"
     inkscape:cy="10.245833"
     inkscape:window-width="1920"
     inkscape:window-height="1011"
     inkscape:window-x="0"
     inkscape:window-y="0"
     inkscape:window-maximized="1"
     inkscape:current-layer="svg5" />
  <defs
     id="defs2" />
  <path
     id="rect846"
     style="fill:#eff0f1;fill-opacity:1;stroke-width:1.01601"
     d="M 2 2 L 2 11 L 4 11 L 4 14 L 7 11 L 14 11 L 14 2 L 2 2 z M 3 3 L 13 3 L 13 10 L 6.5 10 L 5 11.5 L 5 10 L 3 10 L 3 3 z M 7.3730469 3.5 L 7.0371094 5.28125 L 5.8105469 5.28125 L 5.8105469 5.8359375 L 6.9375 5.8359375 L 6.6679688 7.1816406 L 5.5 7.1816406 L 5.5 7.7441406 L 6.5585938 7.7441406 L 6.2402344 9.5 L 6.828125 9.5 L 7.15625 7.7441406 L 8.3574219 7.7441406 L 8.0117188 9.5 L 8.609375 9.5 L 8.953125 7.7441406 L 10.214844 7.7441406 L 10.214844 7.1816406 L 9.0625 7.1816406 L 9.3242188 5.8359375 L 10.5 5.8359375 L 10.5 5.28125 L 9.4335938 5.28125 L 9.7695312 3.5 L 9.1894531 3.5 L 8.8535156 5.28125 L 7.6425781 5.28125 L 7.9785156 3.5 L 7.3730469 3.5 z M 7.5253906 5.8359375 L 8.7265625 5.8359375 L 8.4667969 7.1816406 L 7.265625 7.1816406 L 7.5253906 5.8359375 z "
     transform="scale(0.26458333)" />
</svg>
