<?xml version="1.0" encoding="UTF-8" standalone="no"?>
<svg
   xmlns:dc="http://purl.org/dc/elements/1.1/"
   xmlns:cc="http://creativecommons.org/ns#"
   xmlns:rdf="http://www.w3.org/1999/02/22-rdf-syntax-ns#"
   xmlns:svg="http://www.w3.org/2000/svg"
   xmlns="http://www.w3.org/2000/svg"
   xmlns:sodipodi="http://sodipodi.sourceforge.net/DTD/sodipodi-0.dtd"
   xmlns:inkscape="http://www.inkscape.org/namespaces/inkscape"
   width="16"
   height="16"
   version="1.1"
   id="svg12"
   sodipodi:docname="preferences-color-symbolic.svg"
   inkscape:version="0.92.3 (2405546, 2018-03-11)">
  <metadata
     id="metadata18">
    <rdf:RDF>
      <cc:Work
         rdf:about="">
        <dc:format>image/svg+xml</dc:format>
        <dc:type
           rdf:resource="http://purl.org/dc/dcmitype/StillImage" />
      </cc:Work>
    </rdf:RDF>
  </metadata>
  <defs
     id="defs16" />
  <sodipodi:namedview
     pagecolor="#ffffff"
     bordercolor="#666666"
     borderopacity="1"
     objecttolerance="10"
     gridtolerance="10"
     guidetolerance="10"
     inkscape:pageopacity="0"
     inkscape:pageshadow="2"
     inkscape:window-width="1920"
     inkscape:window-height="1026"
     id="namedview14"
     showgrid="false"
     inkscape:zoom="14.75"
     inkscape:cx="8.1355932"
     inkscape:cy="8"
     inkscape:window-x="0"
     inkscape:window-y="30"
     inkscape:window-maximized="1"
     inkscape:current-layer="svg12" />
  <path
     inkscape:connector-curvature="0"
     style="fill:#eff0f1;fill-opacity:1;stroke:none"
     d="M 8,6e-8 C 7.027093,3.405034 4.645554,6.332277 3.595703,8.675781 3.228299,9.372552 3,10.15458 3,11 c 0,2.770002 2.229998,5 5,5 2.770002,0 5,-2.229998 5,-5 C 13,10.15458 12.771701,9.372552 12.404297,8.675781 11.354447,6.332277 8.972897,3.405034 8,6e-8 Z M 10.283203,7.716797 C 11.3209,8.438005 12,9.635082 12,11 12,13.216002 10.216002,15 8,15 6.635043,15 5.437998,14.320951 4.716797,13.283203 5.363845,13.732907 6.148916,14 7,14 9.216002,14 11,12.216002 11,10 11,9.148916 10.732907,8.363845 10.283203,7.716797 Z"
     class="ColorScheme-Text"
     id="path4-3" />
</svg>
