<svg xmlns="http://www.w3.org/2000/svg" width="22" height="22" version="1.1">
 <defs>
  <style id="current-color-scheme" type="text/css">
   .ColorScheme-Text { color:#cecfce; } .ColorScheme-Highlight { color:#3daee9; }
  </style>
 </defs>
 <path style="fill:currentColor" class="ColorScheme-Text" d="m 16.656855,16.656853 c 3.124033,-3.12403 3.124033,-8.1896743 0,-11.3137071 -3.124032,-3.1240324 -8.1896749,-3.1240323 -11.3137093,-5e-7 -3.1240315,3.1240321 -3.1240328,8.1896756 3e-7,11.3137106 3.1240314,3.124032 8.189676,3.124033 11.313709,-3e-6 z m -0.707107,-0.707106 c -2.078137,2.078138 -5.1157,2.577425 -7.6594025,1.505363 l 0.522043,-1.173908 c 2.0676045,0.775 4.4475065,0.237078 6.0766985,-1.392116 1.668084,-1.668082 2.193987,-4.168193 1.30373,-6.2534736 l -1.744289,0.7720171 c 0.591854,1.3937225 0.249124,3.0654385 -0.863167,4.1777295 -1.07128,1.071279 -2.589938,1.437381 -3.9553814,0.950174 L 10.182407,13.276 6.536391,14.314568 8.2654861,17.444069 C 7.462454,17.101936 6.7071497,16.606645 6.0502527,15.949754 c -2.7418291,-2.741838 -2.7418296,-7.1576707 2e-7,-9.8995014 2.7418311,-2.7418296 7.1576661,-2.7418299 9.8994951,-4e-7 2.741831,2.7418311 2.74183,7.1576668 0,9.8994948 z M 15.440135,7.6647217 13.760755,4.5711285 13.208328,5.7422741 C 11.158404,4.9566707 8.7302394,5.4915868 7.1095309,7.112294 5.4372051,8.7846193 4.9167849,11.23647 5.7837064,13.343671 L 7.5293783,12.570274 C 6.9502497,11.165238 7.2988473,9.5304348 8.4132613,8.4160207 9.4774679,7.3518144 11.03449,6.9986215 12.390735,7.487944 l -0.551044,1.2581536 z"/>
</svg>
