<svg xmlns="http://www.w3.org/2000/svg" id="svg6391" width="22" height="22" version="1.1">
 <defs id="defs6393">
  <marker id="marker7225" style="overflow:visible" orient="auto" refX="0" refY="0">
   <path id="path7227" style="fill:#cecfce;fill-opacity:1;fill-rule:evenodd;stroke:#cecfce;stroke-width:1pt;stroke-opacity:1" transform="scale(-0.2,-0.2)" d="m 5.77,0 -8.65,5 0,-10 8.65,5 z"/>
  </marker>
  <marker id="TriangleInM" style="overflow:visible" orient="auto" refX="0" refY="0">
   <path id="path5391" style="fill:#cecfce;fill-opacity:1;fill-rule:evenodd;stroke:#cecfce;stroke-width:1pt;stroke-opacity:1" transform="scale(-0.4,-0.4)" d="m 5.77,0 -8.65,5 0,-10 8.65,5 z"/>
  </marker>
 </defs>
 <g id="layer1" transform="translate(0,-1030.3622)">
  <g id="g7305">
   <path id="path6941" style="color:#000000;font-style:normal;font-variant:normal;font-weight:normal;font-stretch:normal;font-size:medium;line-height:normal;font-family:sans-serif;text-indent:0;text-align:start;text-decoration:none;text-decoration-line:none;text-decoration-style:solid;text-decoration-color:#000000;letter-spacing:normal;word-spacing:normal;text-transform:none;direction:ltr;block-progression:tb;writing-mode:lr-tb;baseline-shift:baseline;text-anchor:start;white-space:normal;clip-rule:nonzero;display:inline;overflow:visible;visibility:visible;opacity:1;isolation:auto;mix-blend-mode:normal;color-interpolation:sRGB;color-interpolation-filters:linearRGB;solid-color:#000000;solid-opacity:1;fill:#cecfce;fill-opacity:1;fill-rule:nonzero;stroke:none;stroke-width:1.00000012;stroke-linecap:butt;stroke-linejoin:bevel;stroke-miterlimit:4;stroke-dasharray:none;stroke-dashoffset:0;stroke-opacity:1;color-rendering:auto;image-rendering:auto;shape-rendering:auto;text-rendering:auto;enable-background:accumulate" d="m 16.49456,1035.881 -0.299038,2.4821 0.866025,-0.5 c 1.7145,2.9696 1.029152,6.735 -1.621242,8.9107 -2.650394,2.1757 -6.4771425,2.1142 -9.05576,-0.146 l -0.6575318,0.7517 c 2.941476,2.5783 7.3261778,2.6499 10.3495148,0.1681 3.023285,-2.4818 3.806795,-6.797 1.851045,-10.1845 l 0.866025,-0.5 -2.299038,-0.9821 z"/>
   <path id="path7314" style="color:#000000;font-style:normal;font-variant:normal;font-weight:normal;font-stretch:normal;font-size:medium;line-height:normal;font-family:sans-serif;text-indent:0;text-align:start;text-decoration:none;text-decoration-line:none;text-decoration-style:solid;text-decoration-color:#000000;letter-spacing:normal;word-spacing:normal;text-transform:none;direction:ltr;block-progression:tb;writing-mode:lr-tb;baseline-shift:baseline;text-anchor:start;white-space:normal;clip-rule:nonzero;display:inline;overflow:visible;visibility:visible;opacity:1;isolation:auto;mix-blend-mode:normal;color-interpolation:sRGB;color-interpolation-filters:linearRGB;solid-color:#000000;solid-opacity:1;fill:#cecfce;fill-opacity:1;fill-rule:nonzero;stroke:none;stroke-width:1.00000012;stroke-linecap:butt;stroke-linejoin:bevel;stroke-miterlimit:4;stroke-dasharray:none;stroke-dashoffset:0;stroke-opacity:1;color-rendering:auto;image-rendering:auto;shape-rendering:auto;text-rendering:auto;enable-background:accumulate" d="m 5.5041795,1046.8452 0.2990381,-2.4821 -0.8660254,0.5 c -1.7145,-2.9696 -1.0291263,-6.7349 1.6212672,-8.9106 2.6503938,-2.1757 6.4770946,-2.1143 9.0557116,0.1459 l 0.657565,-0.7517 c -2.941476,-2.5783 -7.3261727,-2.6499 -10.3495093,-0.1681 -3.0232846,2.4819 -3.8068099,6.797 -1.8510599,10.1845 l -0.8660254,0.5 2.2990381,0.9821 z"/>
   <path id="path4154" style="fill:#cecfce;fill-rule:evenodd;stroke:none;stroke-width:1px;stroke-linecap:butt;stroke-linejoin:miter;stroke-opacity:1" d="m 11,1036.3622 -3.9999999,4 2,0 -5e-7,5 3.9999994,0 10e-7,-5 2,0 z"/>
   <g id="g855" transform="translate(-420.71429,505.57149)">
    <rect id="rect4153" style="opacity:1;fill:#1d99f3;fill-opacity:1;stroke:none" width="8" height="8" x="433.71" y="536.79" ry="4"/>
    <path id="path4198" style="fill:#ffffff;fill-opacity:1;stroke:none;stroke-linecap:butt;stroke-linejoin:round" d="m 435.59297,538.66942 a 3,3 0 0 0 -0.32455,3.86008 l 0.72506,-0.72506 a 2,2 0 0 1 0.3066,-2.42791 2,2 0 0 1 2.4293,-0.30798 l 0.71953,-0.71954 a 3,3 0 0 0 -3.85594,0.32041 z m 0.3867,4.56305 a 3,3 0 0 0 3.85594,-0.32041 3,3 0 0 0 0.32455,-3.86008 l -0.72506,0.72506 a 2,2 0 0 1 -0.3066,2.42791 2,2 0 0 1 -2.4293,0.30798 z"/>
   </g>
  </g>
 </g>
</svg>
