<svg xmlns="http://www.w3.org/2000/svg" id="svg2" width="22" height="22" version="1.1">
 <defs id="defs8">
  <style id="current-color-scheme" type="text/css">
   .ColorScheme-Text { color:#cecfce; } .ColorScheme-Highlight { color:#3daee9; }
  </style>
 </defs>
 <path id="path4491" style="fill:#cecfce;fill-opacity:1" d="M 11 3 A 8 8 0 0 0 3 11 A 8 8 0 0 0 11 19 A 8 8 0 0 0 19 11 A 8 8 0 0 0 11 3 z M 11 4 A 7 7 0 0 1 16.748047 7.0214844 A 1.5 1.5 0 0 0 16.5 7 A 1.5 1.5 0 0 0 15.087891 8 C 14.806891 7.9985 14.577172 7.9956 14.201172 8 C 13.317172 8.0103 13.202 8.0034 13 8 L 13 7.5 A 0.50005 0.50005 0 0 0 12.5 7 L 11.761719 7 C 11.694519 6.889 11.688256 6.7375031 11.597656 6.6582031 C 11.374556 6.4630031 11.110925 6.3425 10.828125 6.25 C 10.262525 6.065 9.6026 6 9 6 C 8.2656 6 7.5452687 6.3515375 6.9804688 6.8984375 C 6.4155688 7.4454375 6 8.21625 6 9.09375 C 6 9.78265 6.190375 10.558531 6.609375 11.144531 L 6.609375 11.146484 C 6.608175 11.154484 6.6067625 11.163594 6.6015625 11.183594 C 6.5962625 11.202594 6.5795656 11.19575 6.5722656 11.34375 C 6.5611656 11.56475 6.7377906 11.82125 6.9003906 11.90625 C 6.9780906 11.94725 7.0492406 11.967469 7.1191406 11.980469 C 7.0424406 12.432469 6.9509125 12.930406 6.8203125 13.441406 C 6.6386125 14.153406 6.3799156 14.835313 6.1035156 15.195312 A 0.50005 0.50005 0 0 0 6.5019531 16 C 6.5019531 16 9.1703932 15.992 10.496094 16 A 0.50005 0.50005 0 0 0 10.5 16 L 13.5 16 A 0.50005 0.50005 0 0 0 13.986328 15.386719 C 13.900328 15.014719 13.719016 14.673984 13.541016 14.333984 C 13.363016 13.993984 13.182891 13.66125 13.087891 13.40625 C 12.992891 13.15225 13.025766 13.037453 13.009766 13.064453 C 12.992766 13.092453 13.047141 12.995 13.494141 13 A 0.50005 0.50005 0 0 0 14 12.488281 L 13.994141 12.21875 C 14.699141 11.54775 15.644844 10.854034 16.339844 9.9902344 A 1.5 1.5 0 0 0 16.5 10 A 1.5 1.5 0 0 0 17.779297 9.28125 A 7 7 0 0 1 18 11 A 7 7 0 0 1 11 18 A 7 7 0 0 1 4 11 A 7 7 0 0 1 11 4 z M 9 7 C 9.5236 7 10.114678 7.0693719 10.517578 7.2011719 C 10.718978 7.2669719 10.8678 7.3490563 10.9375 7.4101562 C 11.0072 7.4711562 11 7.4728 11 7.5 A 0.50005 0.50005 0 0 0 11.5 8 A 0.50005 0.50005 0 0 0 11.039062 8.3046875 C 10.965464 8.4782875 10.875697 8.6412813 10.779297 8.8007812 C 10.500897 9.1493814 10.237016 9.506775 9.9160156 9.796875 C 9.7413156 9.943875 9.5395781 10.078938 9.3300781 10.210938 C 9.2342781 10.269937 9.1411219 10.332719 9.0449219 10.386719 C 8.7623219 10.542719 8.4608406 10.693125 8.1191406 10.828125 C 7.8310406 10.920125 7.6991 10.932172 7.5625 10.951172 C 7.552 10.887172 7.5696687 10.840484 7.5429688 10.771484 A 0.50005 0.50005 0 0 0 7.4648438 10.638672 C 7.2257437 10.341672 7 9.59465 7 9.09375 C 7 8.53515 7.2721814 8.0079875 7.6757812 7.6171875 C 8.0793813 7.2263875 8.6082 7 9 7 z M 12.583984 9 C 12.634984 9.0014 13.033891 9.0138 14.212891 9 C 14.567891 8.9959 14.807891 8.9985 15.087891 9 A 1.5 1.5 0 0 0 15.357422 9.46875 C 14.751422 10.16895 13.896766 10.882484 13.134766 11.646484 A 0.50005 0.50005 0 0 0 12.988281 12.011719 L 12.992188 12.207031 C 12.680187 12.283031 12.311297 12.287875 12.154297 12.546875 C 11.902297 12.963875 12.017344 13.393859 12.152344 13.755859 C 12.287344 14.117859 12.48425 14.469828 12.65625 14.798828 C 12.69925 14.879828 12.706141 14.923 12.744141 15 L 10.503906 15 C 9.4122065 14.993 7.9273281 14.998 7.2363281 15 C 7.4334281 14.569 7.6671625 14.167453 7.7890625 13.689453 C 7.9619625 13.012453 8.0616313 12.384047 8.1445312 11.873047 C 8.1653313 11.866047 8.2445375 11.832266 8.2734375 11.822266 C 8.3347375 11.804266 8.3807656 11.797391 8.4472656 11.775391 A 0.50005 0.50005 0 0 0 8.4765625 11.765625 C 8.5592625 11.732625 8.6250781 11.689297 8.7050781 11.654297 C 9.1189781 11.489297 9.6443902 11.249781 10.275391 10.800781 C 10.950891 10.319781 11.337991 9.6889 11.650391 9.3125 C 11.789591 9.1447 11.897975 9.0557064 11.984375 9.0039062 L 12.496094 9.0078125 A 0.50005 0.50005 0 0 0 12.583984 9 z"/>
 <g id="layer1-9" transform="translate(6,-1025.3622)">
  <rect id="rect4153" style="opacity:1;fill:#27ae60;fill-opacity:1;stroke:none" width="8" height="8" x="7" y="1037.36" ry="4"/>
  <path id="path4142" style="fill:#ffffff;fill-opacity:1;fill-rule:evenodd;stroke:none;stroke-width:1px;stroke-linecap:butt;stroke-linejoin:miter;stroke-opacity:1" d="m 13,1039.3622 -3,3 -1,-1 -1,1 1,1 1,1 4,-4 z"/>
 </g>
</svg>
