<?xml version="1.0" encoding="UTF-8" standalone="no"?>
<svg
   xmlns:dc="http://purl.org/dc/elements/1.1/"
   xmlns:cc="http://creativecommons.org/ns#"
   xmlns:rdf="http://www.w3.org/1999/02/22-rdf-syntax-ns#"
   xmlns:svg="http://www.w3.org/2000/svg"
   xmlns="http://www.w3.org/2000/svg"
   xmlns:sodipodi="http://sodipodi.sourceforge.net/DTD/sodipodi-0.dtd"
   xmlns:inkscape="http://www.inkscape.org/namespaces/inkscape"
   id="svg8"
   width="22"
   height="22"
   version="1.1"
   sodipodi:docname="vivaldi-tray.svg"
   inkscape:version="0.92.3 (2405546, 2018-03-11)">
  <metadata
     id="metadata8">
    <rdf:RDF>
      <cc:Work
         rdf:about="">
        <dc:format>image/svg+xml</dc:format>
        <dc:type
           rdf:resource="http://purl.org/dc/dcmitype/StillImage" />
      </cc:Work>
    </rdf:RDF>
  </metadata>
  <sodipodi:namedview
     pagecolor="#ffffff"
     bordercolor="#666666"
     borderopacity="1"
     objecttolerance="10"
     gridtolerance="10"
     guidetolerance="10"
     inkscape:pageopacity="0"
     inkscape:pageshadow="2"
     inkscape:window-width="1920"
     inkscape:window-height="1020"
     id="namedview6"
     showgrid="false"
     inkscape:zoom="10.73"
     inkscape:cx="11"
     inkscape:cy="11"
     inkscape:window-x="0"
     inkscape:window-y="30"
     inkscape:window-maximized="1"
     inkscape:current-layer="svg8" />
  <defs
     id="defs3">
    <style
       id="current-color-scheme"
       type="text/css">
   .ColorScheme-Text { color:#cecfce; } .ColorScheme-Highlight { color:#3daee9; }
  </style>
  </defs>
  <path
     style="fill:#cecfce;fill-opacity:1;stroke-width:0.94279736"
     d="M 18 3 C 16.895431 3 16 3.8954305 16 5 C 16.00092 5.2672118 16.05538 5.5315299 16.160156 5.7773438 C 16.176196 5.8350798 16.188341 5.9023028 16.207031 5.9511719 C 16.625428 7.5637791 16.200073 8.8248773 15.248047 9.9726562 C 13.914781 11.315687 11.998028 11.339384 10.673828 10.027344 L 6.6308594 3.6347656 C 6.2209724 3.1925157 5.6508038 3.0338852 5.1289062 3.03125 C 4.0069115 3.012681 3.2294654 3.9082749 3.0449219 4.8691406 C 2.9086108 5.6380846 2.8463007 5.5048179 6.4707031 12.089844 C 8.7584201 16.246278 9.8451281 18.163238 10.023438 18.351562 C 10.654995 19.018767 11.556468 19.183468 12.398438 18.787109 C 12.619815 18.682885 12.869215 18.495334 13.029297 18.314453 C 13.342861 17.960154 19.72682 6.2240695 19.832031 5.8203125 C 19.957403 5.5517148 19.984041 5.2679004 20 5 C 20 3.8954305 19.104569 3 18 3 z M 18 4 C 18.558658 4 18.985797 4.4301621 18.994141 4.9863281 C 18.978841 5.188028 18.956561 5.3324902 18.925781 5.3984375 L 18.888672 5.4804688 L 18.882812 5.5 C 18.873912 5.519549 18.86348 5.5453535 18.84375 5.5859375 C 18.79699 5.6821215 18.723511 5.8255726 18.632812 6.0019531 C 18.451417 6.3547141 18.1946 6.844825 17.886719 7.4238281 C 17.270956 8.5818344 16.453834 10.095226 15.630859 11.607422 C 14.807885 13.119618 13.977573 14.631479 13.335938 15.783203 C 13.01512 16.359065 12.741483 16.845237 12.541016 17.193359 C 12.440782 17.367421 12.357823 17.507528 12.300781 17.601562 C 12.283586 17.629908 12.26519 17.651917 12.246094 17.677734 C 12.178266 17.740527 12.030303 17.855673 11.972656 17.882812 C 11.48868 18.110646 11.129902 18.044382 10.777344 17.6875 C 10.767999 17.675441 10.762423 17.668411 10.751953 17.652344 C 10.712113 17.591264 10.649768 17.492441 10.572266 17.363281 C 10.417211 17.104966 10.196015 16.722215 9.9082031 16.214844 C 9.3325796 15.200102 8.4905767 13.683935 7.3476562 11.607422 C 5.5352482 8.3145331 4.6394523 6.6856709 4.2519531 5.8691406 C 4.0582035 5.4608755 4.0072565 5.271578 4.0019531 5.2382812 C 3.9970732 5.2076429 3.9987637 5.2158523 4.0273438 5.0585938 C 4.1354764 4.4955778 4.5308537 4.0216108 5.1132812 4.03125 L 5.1191406 4.03125 L 5.125 4.03125 C 5.4372847 4.03283 5.6960713 4.126736 5.8730469 4.3046875 L 9.890625 10.658203 L 9.9707031 10.738281 C 11.641723 12.393956 14.290486 12.356489 15.957031 10.677734 L 15.988281 10.646484 L 16.017578 10.611328 C 17.105721 9.2994438 17.667484 7.5943644 17.175781 5.6992188 L 17.162109 5.6464844 L 17.140625 5.59375 C 17.179625 5.6957177 17.1598 5.6350036 17.125 5.5097656 L 17.107422 5.4453125 L 17.080078 5.3847656 C 17.028179 5.2630257 17.000967 5.1322954 17 5 L 17 4.9980469 C 17.001026 4.4348821 17.436536 4 18 4 z "
     id="path8-3" />
</svg>
