<?xml version="1.0" encoding="UTF-8" standalone="no"?>
<svg
   width="22"
   height="22"
   viewBox="0 0 5.8208331 5.8208336"
   version="1.1"
   id="svg8"
   inkscape:version="1.1.1 (3bf5ae0d25, 2021-09-20, custom)"
   sodipodi:docname="weather-few-clouds-wind-night.svg"
   xmlns:inkscape="http://www.inkscape.org/namespaces/inkscape"
   xmlns:sodipodi="http://sodipodi.sourceforge.net/DTD/sodipodi-0.dtd"
   xmlns:xlink="http://www.w3.org/1999/xlink"
   xmlns="http://www.w3.org/2000/svg"
   xmlns:svg="http://www.w3.org/2000/svg"
   xmlns:rdf="http://www.w3.org/1999/02/22-rdf-syntax-ns#"
   xmlns:cc="http://creativecommons.org/ns#"
   xmlns:dc="http://purl.org/dc/elements/1.1/">
  <defs
     id="defs2">
    <linearGradient
       inkscape:collect="always"
       id="linearGradient914">
      <stop
         style="stop-color:#6f8181;stop-opacity:1;"
         offset="0"
         id="stop910" />
      <stop
         style="stop-color:#334545;stop-opacity:1"
         offset="1"
         id="stop912" />
    </linearGradient>
    <linearGradient
       inkscape:collect="always"
       id="linearGradient839">
      <stop
         style="stop-color:#b0b8b8;stop-opacity:1;"
         offset="0"
         id="stop835" />
      <stop
         style="stop-color:#909c9c;stop-opacity:1"
         offset="1"
         id="stop837" />
    </linearGradient>
    <linearGradient
       inkscape:collect="always"
       xlink:href="#linearGradient839"
       id="linearGradient841"
       x1="2.1057785"
       y1="0.53134418"
       x2="2.1101334"
       y2="3.7194099"
       gradientUnits="userSpaceOnUse"
       gradientTransform="matrix(1.5,0,0,1.5,-0.2645833,-0.2645833)" />
    <linearGradient
       inkscape:collect="always"
       xlink:href="#linearGradient914"
       id="linearGradient916"
       x1="1.7056007"
       y1="1.9596193"
       x2="1.7403708"
       y2="14.009003"
       gradientUnits="userSpaceOnUse"
       gradientTransform="matrix(0.396875,0,0,0.396875,-0.2645833,-0.2645833)" />
    <linearGradient
       inkscape:collect="always"
       xlink:href="#linearGradient1391"
       id="linearGradient1393"
       x1="13"
       y1="12.5"
       x2="13.853129"
       y2="19.955938"
       gradientUnits="userSpaceOnUse"
       gradientTransform="scale(0.26458333)" />
    <linearGradient
       inkscape:collect="always"
       id="linearGradient1391">
      <stop
         style="stop-color:#eff1f1;stop-opacity:1;"
         offset="0"
         id="stop1387" />
      <stop
         style="stop-color:#b0b8b8;stop-opacity:1"
         offset="1"
         id="stop1389" />
    </linearGradient>
    <linearGradient
       inkscape:collect="always"
       xlink:href="#linearGradient1391"
       id="linearGradient3636"
       x1="8.2980337"
       y1="1.9735005"
       x2="8.2781439"
       y2="6.5629215"
       gradientUnits="userSpaceOnUse"
       gradientTransform="matrix(0.26458333,0,0,0.26458333,7.7818182e-7,0.26458382)" />
  </defs>
  <sodipodi:namedview
     id="base"
     pagecolor="#ffffff"
     bordercolor="#666666"
     borderopacity="1.0"
     inkscape:pageopacity="0.0"
     inkscape:pageshadow="2"
     inkscape:zoom="35.590909"
     inkscape:cx="11"
     inkscape:cy="11"
     inkscape:document-units="px"
     inkscape:current-layer="svg8"
     inkscape:document-rotation="0"
     showgrid="false"
     units="px"
     inkscape:window-width="1920"
     inkscape:window-height="999"
     inkscape:window-x="0"
     inkscape:window-y="0"
     inkscape:window-maximized="1"
     inkscape:pagecheckerboard="0" />
  <metadata
     id="metadata5">
    <rdf:RDF>
      <cc:Work
         rdf:about="">
        <dc:format>image/svg+xml</dc:format>
        <dc:type
           rdf:resource="http://purl.org/dc/dcmitype/StillImage" />
      </cc:Work>
    </rdf:RDF>
  </metadata>
  <circle
     style="fill:url(#linearGradient841);fill-opacity:1;stroke-width:0.562581"
     id="path833"
     cx="2.9104166"
     cy="2.9104166"
     r="2.3812499" />
  <path
     id="rect843"
     style="opacity:0.6;fill:url(#linearGradient916);fill-opacity:1;stroke-width:0.845972"
     d="M 2.5236185,0.5609477 A 2.3812499,2.3812499 0 0 0 1.0035563,1.4849224 l 0.08139,1.0045897 0.3813721,0.091467 0.3371887,1.175122 L 2.4879619,3.5127055 2.5685771,2.8274761 2.4166484,2.3484355 3.0514935,2.1166667 3.6607585,1.7197916 3.48325,1.1694377 2.5429973,1.3857035 2.4383525,1.0252604 3.2321025,0.82682296 Z m -0.4860168,1.1588439 0.15813,0.3968751 -0.2775025,0.396875 -0.1984376,-0.396875 z m 2.1107242,0 -0.6425967,0.571283 0.2999815,0.5426027 -0.1418515,0.6464721 0.040307,1.0177674 0.31781,-0.5953125 0.079065,-0.5953125 0.2457216,0.5053956 0.017828,0.7030578 0.6984071,-0.5875611 z m 0.8658382,0.3968751 -0.2387448,0.396875 0.1193724,0.396875 0.2775026,-0.396875 z m -3.8896849,0.9921875 0.039533,0.396875 0.3573425,0.039532 0.039532,-0.3573425 z" />
  <path
     id="rect953"
     style="fill:url(#linearGradient1393);fill-opacity:1;stroke-width:0.15434;stroke-linejoin:round"
     d="m 2.7781258,3.4395833 h 1.8520833 c 0.5130271,0 0.9260416,0.4130146 0.9260416,0.9260417 0,0.5130271 -0.4130145,0.9260416 -0.9260416,0.9260416 H 2.7781258 c -0.5130271,0 -0.9260417,-0.4130145 -0.9260417,-0.9260416 0,-0.5130271 0.4130146,-0.9260417 0.9260417,-0.9260417 z" />
  <path
     id="rect1057"
     style="opacity:0.2;fill:#000000;stroke-width:0.132292;stroke-linejoin:round"
     d="m 1.8619027,4.2333333 c -0.00612,0.043157 -0.00982,0.087392 -0.00982,0.1322917 0,0.5130271 0.4130146,0.9260416 0.9260417,0.9260416 h 1.8520833 c 0.5130271,0 0.9260416,-0.4130145 0.9260416,-0.9260416 0,-0.044899 -0.0037,-0.089134 -0.00982,-0.1322917 -0.063778,0.4499666 -0.4480954,0.79375 -0.9162232,0.79375 H 2.7781258 c -0.4681279,0 -0.8524451,-0.3437834 -0.9162231,-0.79375 z" />
  <path
     id="rect2111"
     style="fill:url(#linearGradient3636);fill-opacity:1;stroke-width:0.164612;stroke-linejoin:round"
     d="m 1.0583333,0.79375 h 1.0583333 c 0.2931583,0 0.5291666,0.2360083 0.5291666,0.5291667 0,0.2931583 -0.2360083,0.5291666 -0.5291666,0.5291666 H 1.0583333 c -0.2931583,0 -0.52916663,-0.2360083 -0.52916663,-0.5291666 0,-0.2931584 0.23600833,-0.5291667 0.52916663,-0.5291667 z" />
  <path
     id="rect3401"
     style="opacity:0.2;fill:#000000;stroke-width:0.132292;stroke-linejoin:round"
     d="m 0.53330155,1.2557378 c -0.002737,0.021894 -0.004134,0.044451 -0.004134,0.067179 0,0.2931583 0.23600833,0.5291667 0.52916665,0.5291667 h 1.0583333 c 0.2931583,0 0.5291666,-0.2360084 0.5291666,-0.5291667 0,-0.022728 -0.0014,-0.045286 -0.00413,-0.067179 -0.031962,0.262155 -0.2539758,0.4640543 -0.5250366,0.4640543 H 1.0583341 c -0.27106086,0 -0.49307469,-0.2018993 -0.52503255,-0.4640543 z" />
  <path
     id="rect854"
     style="fill:#3daee9;fill-opacity:1;stroke-width:0.132292;stroke-linejoin:round"
     d="M 3.7041667,2.6458333 C 3.4119164,2.6458333 3.175,2.8827495 3.175,3.175 h 0.2645833 c 0,-0.1461257 0.1184577,-0.2645833 0.2645834,-0.2645833 0.1461256,0 0.2645833,0.1184576 0.2645833,0.2645833 0,0.1461249 -0.1184585,0.2645833 -0.2645833,0.2645833 H 2.6458333 v 0.2645834 h 1.0583334 c 0.2922505,0 0.5291666,-0.2369162 0.5291666,-0.5291667 0,-0.2922513 -0.2369153,-0.5291667 -0.5291666,-0.5291667 z M 5.0270833,3.175 c -0.2922505,0 -0.5291666,0.2369161 -0.5291666,0.5291667 H 4.7625 c 0,-0.1461254 0.1184579,-0.2645834 0.2645833,-0.2645834 0.1461254,0 0.2645833,0.118458 0.2645833,0.2645834 0,0.1461254 -0.1184579,0.2645833 -0.2645833,0.2645833 H 2.38125 V 4.2333333 H 5.0270833 C 5.3193339,4.2333333 5.55625,3.9964172 5.55625,3.7041667 5.55625,3.4119161 5.3193339,3.175 5.0270833,3.175 Z M 2.9104167,4.4979166 v 0.2645833 h 1.5875 c 0.1461256,0 0.2645833,0.1184577 0.2645833,0.2645834 0,0.1461256 -0.1184577,0.2645833 -0.2645833,0.2645833 -0.1461249,0 -0.2645834,-0.1184587 -0.2645834,-0.2645833 H 3.96875 c 0,0.2922502 0.2369161,0.5291666 0.5291667,0.5291666 0.2922513,0 0.5291666,-0.2369153 0.5291666,-0.5291666 0,-0.2922506 -0.2369161,-0.5291667 -0.5291666,-0.5291667 z" />
</svg>
