<svg xmlns="http://www.w3.org/2000/svg" id="svg2" width="22" height="22" version="1.1">
 <defs id="defs10">
  <style id="current-color-scheme" type="text/css">
   .ColorScheme-Text { color:#eff0f1; } .ColorScheme-Highlight { color:#3daee9; }
  </style>
 </defs>
 <path id="path4510" style="fill:#eff0f1;fill-opacity:1" d="M 11 3 A 8 8 0 0 0 3 11 A 8 8 0 0 0 11 19 A 8 8 0 0 0 19 11 A 8 8 0 0 0 11 3 z M 11 4 A 7 7 0 0 1 18 11 A 7 7 0 0 1 11 18 A 7 7 0 0 1 4 11 A 7 7 0 0 1 11 4 z M 9 5 L 9 7 C 8.754153 7.01 8.3019103 7 8.0664062 7 L 7 7 L 7 8 C 7 8 7.3594231 7.985005 7.3457031 8 C 7.8058321 7.993 7.95236 8.3260671 8 8.5488281 L 8 13.5 C 7.982365 13.640776 7.9973503 13.99 7.6757812 14 C 7.6906313 14.013 7 14 7 14 L 7 15 L 8.1269531 15 C 8.4020551 14.99 8.734241 15 9 15 L 9 17 L 10 16.982422 L 10 15 L 10.984375 15 L 11.015625 17 L 12.015625 17 L 11.984375 15 C 13.892187 14.861524 15 14.633628 15 12.5 C 15 11 13.999292 10.500955 12.816406 10.5 C 13.566724 10.443175 13.999662 9.9999999 14 8.75 C 14.000203 8 13.566724 7 13 7 L 12 7 L 12 5 L 11 5 L 11 7 C 10.701376 6.999995 10.30317 6.989 10 7 L 10 5 L 9 5 z M 10 8 C 11.410185 8 12.000138 8.0000152 12 9 C 12.000138 10.000066 11.269373 10 10 10 L 10 8 z M 10 11 C 12 11.000075 13.000208 11.000023 13 12.5 C 13.000208 14.000099 12 14 10 14 L 10 11 z"/>
</svg>
