<?xml version="1.0" encoding="UTF-8" standalone="no"?>
<!-- Created with Inkscape (http://www.inkscape.org/) -->

<svg
   width="22"
   height="22"
   viewBox="0 0 5.8208332 5.8208335"
   version="1.1"
   id="svg84"
   sodipodi:docname="fcitx-anthy-panel.svg"
   inkscape:version="1.1.1 (3bf5ae0d25, 2021-09-20, custom)"
   xmlns:inkscape="http://www.inkscape.org/namespaces/inkscape"
   xmlns:sodipodi="http://sodipodi.sourceforge.net/DTD/sodipodi-0.dtd"
   xmlns="http://www.w3.org/2000/svg"
   xmlns:svg="http://www.w3.org/2000/svg">
  <defs
     id="defs81">
    <style
       id="current-color-scheme"
       type="text/css">
   .ColorScheme-Text { color:#eff0f1; } .ColorScheme-Highlight { color:#3daee9; }
  </style>
  </defs>
  <path
     id="path16752"
     style="fill:currentColor"
     class="ColorScheme-Text"
     d="M 5 3 C 3.8920001 3 3 3.8919998 3 5 L 3 17 C 3 18.108 3.8920001 19 5 19 L 17 19 C 18.108 19 19 18.108 19 17 L 19 5 C 19 3.8919998 18.108 3 17 3 L 5 3 z M 5 4 L 17 4 C 17.571297 4 18 4.4287029 18 5 L 18 17 C 18 17.571297 17.571297 18 17 18 L 5 18 C 4.4287029 18 4 17.571297 4 17 L 4 5 C 4 4.4287029 4.4287029 4 5 4 z M 9.3554688 5.1992188 C 9.3693018 5.3650493 9.3419203 5.6145377 9.328125 5.8632812 L 9.2167969 6.9277344 L 8.2773438 6.9414062 C 7.683123 6.9414062 6.4817149 6.844634 5.9980469 6.7617188 L 6.0253906 7.7988281 C 6.5919732 7.8402858 7.6694512 7.8945312 8.2636719 7.8945312 L 9.1074219 7.8808594 C 9.0521425 8.5303572 8.9827178 9.221155 8.9550781 9.9121094 C 7.0480442 10.796531 5.5 12.607963 5.5 14.390625 C 5.5 15.565247 6.2187997 16.130859 7.1308594 16.130859 C 7.8909091 16.130859 8.720419 15.827122 9.4804688 15.371094 L 9.7011719 16.144531 L 10.695312 15.839844 C 10.58476 15.494358 10.475787 15.121457 10.365234 14.720703 C 11.539857 13.725729 12.657625 12.192779 13.445312 10.230469 C 14.730488 10.603584 15.435547 11.543499 15.435547 12.59375 C 15.435547 14.390231 13.887973 15.674937 11.386719 15.9375 L 11.980469 16.863281 C 15.186497 16.351975 16.5 14.638386 16.5 12.648438 C 16.5 11.128338 15.477386 9.8564205 13.75 9.4003906 L 13.763672 9.3457031 C 13.832753 9.124597 13.958101 8.752061 14.041016 8.5585938 L 12.949219 8.28125 C 12.935386 8.5161741 12.865969 8.8766981 12.796875 9.0839844 L 12.755859 9.2207031 L 12.244141 9.2070312 C 11.539367 9.2070312 10.695744 9.331632 9.921875 9.5527344 C 9.9633326 8.9723327 10.005271 8.39246 10.060547 7.8535156 C 11.760295 7.7706003 13.597824 7.5768686 15.048828 7.328125 L 15.035156 6.3046875 C 13.625623 6.6363456 11.940571 6.8174761 10.185547 6.9003906 L 10.349609 5.8496094 C 10.391067 5.6561429 10.446528 5.4081638 10.515625 5.2285156 L 9.3554688 5.1992188 z M 12.230469 10.078125 L 12.464844 10.078125 C 11.884442 11.625863 11.040966 12.744632 10.128906 13.615234 C 9.9768963 12.813727 9.8808594 11.972312 9.8808594 11.087891 L 9.8945312 10.519531 C 10.530196 10.284607 11.332228 10.078125 12.230469 10.078125 z M 8.9140625 10.949219 L 8.9140625 11.197266 C 8.9140625 12.233697 9.0506742 13.352829 9.2441406 14.333984 C 8.5393672 14.831471 7.876835 15.066406 7.3378906 15.066406 C 6.8127653 15.066406 6.5507812 14.777521 6.5507812 14.210938 C 6.5507812 13.077772 7.5736103 11.709267 8.9140625 10.949219 z "
     transform="scale(0.26458333)" />
  <sodipodi:namedview
     id="namedview86"
     pagecolor="#ffffff"
     bordercolor="#666666"
     borderopacity="1.0"
     inkscape:pageshadow="2"
     inkscape:pageopacity="0.0"
     inkscape:pagecheckerboard="0"
     inkscape:document-units="px"
     showgrid="false"
     units="px"
     inkscape:zoom="26.066527"
     inkscape:cx="1.6879886"
     inkscape:cy="5.6202347"
     inkscape:window-width="1920"
     inkscape:window-height="1007"
     inkscape:window-x="0"
     inkscape:window-y="0"
     inkscape:window-maximized="1"
     inkscape:current-layer="svg84" />
</svg>
