<svg xmlns="http://www.w3.org/2000/svg" id="svg2" width="22" height="22" version="1.1">
 <defs id="defs4">
  <style id="current-color-scheme" type="text/css">
   .ColorScheme-Text { color:#eff0f1; } .ColorScheme-Highlight { color:#3daee9; }
  </style>
 </defs>
 <path id="rect4198" style="color:#eff0f1;opacity:1;fill:currentColor;fill-opacity:1" class="ColorScheme-Text" d="m 4.8321785,3.0002592 c -0.2105737,0.00455 -0.393835,0.080379 -0.53125,0.2167969 -0.1952,0.191 -0.3007812,0.5002006 -0.3007812,0.9003906 V 17.877212 c 0,0.40016 0.1145814,0.709411 0.3007812,0.900391 0.28372,0.28193 0.7270619,0.307932 1.2324219,0.0078 l 3.5878907,-2.091785 7.7636719,-4.523437 c 0.03827,-0.193779 0.06696,-0.389329 0.08594,-0.585937 -0.01899,0.196608 -0.04767,0.392158 -0.08594,0.585937 l 0.476562,-0.277344 c 0.85117,-0.49111 0.85117,-1.290815 0,-1.791015 L 16.882959,9.8225248 c -0.54756,-2.7493573 -2.972238,-4.8222656 -5.882812,-4.8222656 -0.65436,0 -1.2842397,0.106345 -1.8730466,0.3007812 L 5.5333504,3.2072905 C 5.2806604,3.0617754 5.0427524,2.9957111 4.8321785,3.0002592 Z m 3.6582032,2.5566406 c -0.063644,0.029542 -0.125087,0.062062 -0.1875,0.09375 0.062375,-0.031654 0.1238917,-0.064235 0.1875,-0.09375 z m -0.6074219,0.328125 c -0.071257,0.043706 -0.1416758,0.088212 -0.2109375,0.1347656 0.069334,-0.046571 0.139603,-0.091049 0.2109375,-0.1347656 z m 3.1171872,0.1152344 c 2.773606,0 5,2.2266829 5,4.9999998 2.5e-5,0.18825 -0.03354,0.373712 -0.05469,0.560547 L 9.0489754,15.576431 C 8.9207113,15.520876 8.7874778,15.476582 8.6642098,15.410415 l -0.021484,-0.01172 -0.023437,-0.01172 c -0.018751,-0.0089 -0.015315,-0.0025 -0.033203,-0.0098 -0.011032,-0.0088 -0.039139,-0.03097 -0.1542969,-0.09961 h -0.00195 c -0.074437,-0.04408 -0.1486541,-0.09079 -0.2207031,-0.138672 l -0.00781,-0.0059 c -0.08764,-0.05976 -0.1665977,-0.116865 -0.2402344,-0.173828 l -0.00195,-0.002 C 7.8809582,14.896298 7.8050185,14.833417 7.7306161,14.767837 h -0.00195 C 7.6274139,14.67883 7.5578254,14.620659 7.5216317,14.586197 l -0.00195,-0.002 -0.00195,-0.002 -0.00977,-0.01172 -0.013672,-0.01367 C 7.3753492,14.439942 7.2630412,14.318063 7.1563973,14.189712 c -0.037439,-0.04504 -0.088765,-0.114087 -0.15625,-0.205078 l -0.00195,-0.0039 -0.00195,-0.002 c -0.06382,-0.08453 -0.125298,-0.17123 -0.1836,-0.259725 l -0.00195,-0.0039 C 6.7574719,13.633177 6.7083419,13.555155 6.6642098,13.478775 l -0.00391,-0.0078 c -0.050824,-0.09094 -0.09752,-0.181484 -0.1425744,-0.275404 l -0.00195,-0.0039 -0.00195,-0.0039 c -0.056889,-0.115998 -0.09754,-0.192712 -0.1152406,-0.234387 v -0.0019 C 6.3285179,12.783429 6.2663336,12.612393 6.2149911,12.437759 v -0.0039 -0.002 c -0.010058,-0.03362 -0.027876,-0.102872 -0.054688,-0.208984 -0.032985,-0.13066 -0.059706,-0.263586 -0.082031,-0.396484 -0.01586,-0.09472 -0.028763,-0.16606 -0.035156,-0.21875 v -0.0039 -0.0059 c -0.026085,-0.19872 -0.040906,-0.397233 -0.042969,-0.597652 0.00183,-0.116593 0.0076,-0.233426 0.017578,-0.349609 v -0.0078 l 0.00195,-0.0059 c 0.00742,-0.103539 0.018032,-0.211356 0.033203,-0.322266 v -0.002 h 0.00195 c 0.00619,-0.04658 0.012026,-0.09424 0.019531,-0.140625 v -0.0039 c 0.021451,-0.128216 0.047982,-0.2532046 0.078125,-0.3749999 0.00638,-0.024246 0.012785,-0.048118 0.019531,-0.072266 l 0.00195,-0.00586 0.00195,-0.00586 C 6.2132936,9.5691955 6.2549814,9.4333852 6.3028817,9.3010404 v -0.00195 c 4.834e-4,-0.00133 0.00147,-0.00257 0.00195,-0.00391 0.00414,-0.011131 0.00945,-0.022102 0.013672,-0.033203 v -0.00391 l 0.00195,-0.00195 C 6.3729278,9.115486 6.4298139,8.9783568 6.4942879,8.8440092 l 0.00391,-0.00586 v -0.00195 c 0.00567,-0.011444 0.011822,-0.021803 0.017578,-0.033203 l 0.00195,-0.00391 0.00195,-0.00391 c 0.063681,-0.1289157 0.1337284,-0.2566568 0.208987,-0.3808545 0.01287,-0.021263 0.025876,-0.041431 0.039063,-0.0625 C 6.8530323,8.2158071 6.9398952,8.0871184 7.0333504,7.965103 7.1352968,7.8321183 7.2397333,7.709706 7.3478035,7.5940092 l 0.00391,-0.00391 0.00977,-0.00977 c 0.914875,-0.9726409 2.1980382,-1.58007 3.6386635,-1.58007 z M 7.3087411,6.2854154 c -0.061573,0.048414 -0.1239804,0.095759 -0.1835938,0.1464844 0.059715,-0.050802 0.121914,-0.09801 0.1835938,-0.1464844 z m 9.6601559,4.1054686 c 0.0206,0.200236 0.03125,0.403597 0.03125,0.609375 0,-0.20579 -0.01102,-0.408917 -0.03125,-0.609375 z M 5.0001473,11.000259 c 0.00316,0.126497 0.010329,0.252862 0.021484,0.378906 -0.011155,-0.126044 -0.01832,-0.252409 -0.021484,-0.378906 z m 0.2558594,1.71875 c 0.031388,0.0972 0.065253,0.193588 0.1015625,0.289062 -0.036309,-0.09547 -0.070174,-0.191859 -0.1015625,-0.289062 z m 2.9355468,3.572266 c 0.1473419,0.07785 0.297863,0.149525 0.4511719,0.214843 -0.1533089,-0.06532 -0.30383,-0.136994 -0.4511719,-0.214843 z m 5.8085935,-5.291016 c 0,1.656854 -1.343146,3 -3,3 -1.6568543,0 -3.0000001,-1.343146 -3.0000001,-3 2e-7,-1.6568541 1.343146,-2.9999997 3.0000001,-2.9999996 1.656854,0 3,1.3431455 3,2.9999996 z"/>
 <g id="layer1-3" transform="translate(6,-1026.3622)">
  <rect id="rect4153-8-8" style="opacity:1;fill:#f47750;fill-opacity:1;stroke:none" width="8" height="8" x="7" y="1037.36" ry="4"/>
  <rect id="rect4521" style="opacity:1;fill:#ffffff;fill-opacity:1;stroke-linecap:round" width="1" height="4" x="9" y="1039.36" ry="0"/>
  <rect id="rect4521-3" style="opacity:1;fill:#ffffff;fill-opacity:1;stroke-linecap:round" width="1" height="4" x="12" y="1039.36" ry="0"/>
 </g>
</svg>
