<?xml version="1.0" encoding="UTF-8" standalone="no"?>
<!-- Created with Inkscape (http://www.inkscape.org/) -->

<svg
   width="64"
   height="64"
   viewBox="0 0 16.933333 16.933333"
   version="1.1"
   id="svg1415"
   inkscape:version="1.1.1 (3bf5ae0d25, 2021-09-20, custom)"
   sodipodi:docname="folder-decrypted.svg"
   xmlns:inkscape="http://www.inkscape.org/namespaces/inkscape"
   xmlns:sodipodi="http://sodipodi.sourceforge.net/DTD/sodipodi-0.dtd"
   xmlns:xlink="http://www.w3.org/1999/xlink"
   xmlns="http://www.w3.org/2000/svg"
   xmlns:svg="http://www.w3.org/2000/svg">
  <sodipodi:namedview
     id="namedview1417"
     pagecolor="#ffffff"
     bordercolor="#666666"
     borderopacity="1.0"
     inkscape:pageshadow="2"
     inkscape:pageopacity="0.0"
     inkscape:pagecheckerboard="0"
     inkscape:document-units="px"
     showgrid="false"
     units="px"
     inkscape:zoom="8.4479167"
     inkscape:cx="37.642417"
     inkscape:cy="39.536375"
     inkscape:window-width="1920"
     inkscape:window-height="1006"
     inkscape:window-x="0"
     inkscape:window-y="0"
     inkscape:window-maximized="1"
     inkscape:current-layer="svg1415" />
  <defs
     id="defs1412">
    <linearGradient
       inkscape:collect="always"
       id="linearGradient1305">
      <stop
         style="stop-color:#111111;stop-opacity:1"
         offset="0"
         id="stop1299" />
      <stop
         style="stop-color:#333333;stop-opacity:1"
         offset="0.60154283"
         id="stop1301" />
      <stop
         style="stop-color:#666666;stop-opacity:1"
         offset="1"
         id="stop1303" />
    </linearGradient>
    <linearGradient
       inkscape:collect="always"
       id="linearGradient8759">
      <stop
         style="stop-color:#4d4d4d;stop-opacity:1;"
         offset="0"
         id="stop8755" />
      <stop
         style="stop-color:#666666;stop-opacity:1"
         offset="1"
         id="stop8757" />
    </linearGradient>
    <linearGradient
       inkscape:collect="always"
       xlink:href="#linearGradient1305"
       id="linearGradient849"
       x1="-1.0583334"
       y1="7.4083309"
       x2="19.579165"
       y2="7.4083309"
       gradientUnits="userSpaceOnUse"
       gradientTransform="translate(-0.2645833)" />
    <linearGradient
       inkscape:collect="always"
       xlink:href="#linearGradient8759"
       id="linearGradient1940"
       x1="16.139585"
       y1="15.345839"
       x2="8.4666662"
       y2="4.2333331"
       gradientUnits="userSpaceOnUse" />
  </defs>
  <path
     id="rect865"
     style="opacity:1;fill:url(#linearGradient849);fill-opacity:1;stroke-width:0.264583"
     d="m 0.79375,1.5875 6.3499968,-5.3e-6 1.322917,1.5875 7.6729172,-1.33e-5 2e-6,10.0541856 H 0.79375 Z"
     sodipodi:nodetypes="ccccccc" />
  <path
     id="rect1371"
     style="opacity:1;fill:url(#linearGradient1940);fill-opacity:1;stroke-width:0.264583"
     d="m 0.79375,5.8208333 h 6.3499999 l 1.3229165,-1.5875 7.6729186,6e-6 V 15.345839 H 0.7937526 Z"
     sodipodi:nodetypes="ccccccc" />
  <path
     id="rect6613"
     style="fill:#ffffff;fill-opacity:0.24;stroke-width:0.0529166"
     d="m 8.4666638,3.1749947 7.6729172,-1.33e-5 V 3.4395647 L 8.4666638,3.439578 7.1437468,1.5874947 Z"
     sodipodi:nodetypes="cccccc" />
  <path
     id="rect7008"
     style="fill:#000000;fill-opacity:0.24;stroke-width:0.22776"
     d="m 0.79375,5.55625 h 6.0854169 l 1.5874995,-1.3229167 -1.3229165,1.5875 H 0.79375 Z"
     sodipodi:nodetypes="cccccc" />
  <path
     id="rect4179-71-2"
     style="opacity:0.6;fill:#808080;fill-opacity:1;stroke:none;stroke-width:2;stroke-miterlimit:4;stroke-dasharray:none;stroke-opacity:1"
     d="M 34 16 L 34 20 L 38 20 L 38 16 L 34 16 z M 38 20 L 38 24 L 42 24 L 42 20 L 38 20 z M 42 20 L 46 20 L 46 16 L 42 16 L 42 20 z M 46 20 L 46 24 L 50 24 L 50 20 L 46 20 z M 50 20 L 54 20 L 54 16 L 50 16 L 50 20 z M 54 20 L 54 24 L 58 24 L 58 20 L 54 20 z M 58 20 L 61 20 L 61 16 L 58 16 L 58 20 z M 58 24 L 58 28 L 61 28 L 61 24 L 58 24 z M 54 24 L 50 24 L 50 28 L 54 28 L 54 24 z M 46 24 L 42 24 L 42 28 L 46 28 L 46 24 z M 38 24 L 34 24 L 34 28 L 38 28 L 38 24 z M 34 24 L 34 20 L 30 20 L 30 24 L 34 24 z M 30 24 L 26 24 L 26 28 L 30 28 L 30 24 z M 26 24 L 26 22 L 22 22 L 22 24 L 26 24 z M 22 24 L 18 24 L 18 28 L 22 28 L 22 24 z M 18 24 L 18 22 L 14 22 L 14 24 L 18 24 z M 14 24 L 10 24 L 10 28 L 14 28 L 14 24 z M 10 24 L 10 22 L 6 22 L 6 24 L 10 24 z M 6 24 L 3 24 L 3 28 L 6 28 L 6 24 z M 30 20 L 30 18.400391 L 28.666016 20 L 30 20 z "
     transform="scale(0.26458333)" />
  <path
     id="rect4136-9-5"
     style="fill:#999999;fill-opacity:1;stroke-width:0.999999"
     d="m 32,28 c -2.770001,0 -5,2.23 -5,5 h 1 c 0,-2.42375 1.922511,-4 4,-4 2.077501,0 4,1.57625 4,4 v 4 H 24 v 9 h 16 v -9 h -3 v -4 c 0,-2.77 -2.229999,-5 -5,-5 z m -7,10 h 14 v 7 H 25 Z"
     transform="scale(0.26458333)"
     sodipodi:nodetypes="sccssccccccssccccc" />
  <rect
     style="fill:#000000;fill-opacity:0.24;stroke-width:0.192254"
     id="rect9471"
     width="15.345834"
     height="0.26458332"
     x="0.7937507"
     y="15.081255" />
  <path
     id="rect7008-3"
     style="fill:#ffffff;fill-opacity:0.24;stroke-width:0.22776"
     d="m 0.79375,5.8208333 h 6.3499999 l 1.3229165,-1.5875 -1.0583335,1.852083 H 0.79375 Z"
     sodipodi:nodetypes="cccccc" />
</svg>
