<?xml version="1.0" encoding="UTF-8" standalone="no"?>
<!-- Created with Inkscape (http://www.inkscape.org/) -->

<svg
   width="64"
   height="64"
   viewBox="0 0 16.933333 16.933333"
   version="1.1"
   id="svg1415"
   inkscape:version="1.1.1 (3bf5ae0d25, 2021-09-20, custom)"
   sodipodi:docname="folder-games.svg"
   xmlns:inkscape="http://www.inkscape.org/namespaces/inkscape"
   xmlns:sodipodi="http://sodipodi.sourceforge.net/DTD/sodipodi-0.dtd"
   xmlns:xlink="http://www.w3.org/1999/xlink"
   xmlns="http://www.w3.org/2000/svg"
   xmlns:svg="http://www.w3.org/2000/svg">
  <sodipodi:namedview
     id="namedview1417"
     pagecolor="#ffffff"
     bordercolor="#666666"
     borderopacity="1.0"
     inkscape:pageshadow="2"
     inkscape:pageopacity="0.0"
     inkscape:pagecheckerboard="0"
     inkscape:document-units="px"
     showgrid="false"
     units="px"
     inkscape:zoom="4.2239584"
     inkscape:cx="30.540074"
     inkscape:cy="33.617755"
     inkscape:window-width="1920"
     inkscape:window-height="1006"
     inkscape:window-x="0"
     inkscape:window-y="0"
     inkscape:window-maximized="1"
     inkscape:current-layer="svg1415" />
  <defs
     id="defs1412">
    <linearGradient
       inkscape:collect="always"
       id="linearGradient1305">
      <stop
         style="stop-color:#5e2750;stop-opacity:1"
         offset="0"
         id="stop1299" />
      <stop
         style="stop-color:#772953;stop-opacity:1"
         offset="0.60154283"
         id="stop1301" />
      <stop
         style="stop-color:#e95420;stop-opacity:1"
         offset="1"
         id="stop1303" />
    </linearGradient>
    <linearGradient
       inkscape:collect="always"
       id="linearGradient8759">
      <stop
         style="stop-color:#4d4d4d;stop-opacity:1;"
         offset="0"
         id="stop8755" />
      <stop
         style="stop-color:#666666;stop-opacity:1"
         offset="1"
         id="stop8757" />
    </linearGradient>
    <linearGradient
       inkscape:collect="always"
       xlink:href="#linearGradient1305"
       id="linearGradient849"
       x1="-1.0583334"
       y1="7.4083309"
       x2="19.579165"
       y2="7.4083309"
       gradientUnits="userSpaceOnUse"
       gradientTransform="translate(-0.2645833)" />
    <linearGradient
       inkscape:collect="always"
       xlink:href="#linearGradient8759"
       id="linearGradient1940"
       x1="16.139585"
       y1="15.345839"
       x2="8.4666662"
       y2="4.2333331"
       gradientUnits="userSpaceOnUse" />
  </defs>
  <path
     id="rect865"
     style="opacity:1;fill:url(#linearGradient849);fill-opacity:1;stroke-width:0.264583"
     d="m 0.79375,1.5875 6.3499968,-5.3e-6 1.322917,1.5875 7.6729172,-1.33e-5 2e-6,10.0541856 H 0.79375 Z"
     sodipodi:nodetypes="ccccccc" />
  <path
     id="rect1371"
     style="opacity:1;fill:url(#linearGradient1940);fill-opacity:1;stroke-width:0.264583"
     d="m 0.79375,5.8208333 h 6.3499999 l 1.3229165,-1.5875 7.6729186,6e-6 V 15.345839 H 0.7937526 Z"
     sodipodi:nodetypes="ccccccc" />
  <path
     id="rect6613"
     style="fill:#ffffff;fill-opacity:0.24;stroke-width:0.0529166"
     d="m 8.4666638,3.1749947 7.6729172,-1.33e-5 V 3.4395647 L 8.4666638,3.439578 7.1437468,1.5874947 Z"
     sodipodi:nodetypes="cccccc" />
  <path
     id="rect7008"
     style="fill:#000000;fill-opacity:0.24;stroke-width:0.22776"
     d="m 0.79375,5.55625 h 6.0854169 l 1.5874995,-1.3229167 -1.3229165,1.5875 H 0.79375 Z"
     sodipodi:nodetypes="cccccc" />
  <path
     id="rect7008-3"
     style="fill:#ffffff;fill-opacity:0.24;stroke-width:0.22776"
     d="m 0.79375,5.8208333 h 6.3499999 l 1.3229165,-1.5875 -1.0583335,1.852083 H 0.79375 Z"
     sodipodi:nodetypes="cccccc" />
  <rect
     style="fill:#000000;fill-opacity:0.24;stroke-width:0.192254"
     id="rect9471"
     width="15.345834"
     height="0.26458332"
     x="0.7937507"
     y="15.081255" />
  <g
     fill="#999999"
     id="g25"
     transform="scale(0.26458333)">
    <path
       d="m 25,30 c -2.21,0 -4,2.685 -4,5.999 v 6.998 c 0,1.78 2.154,2.673 3.414,1.413 l 2.414,-2.413 h 0.676 a 2.5,2.5 0 0 0 1.996,1 2.5,2.5 0 0 0 1.992,-1 h 0.906 a 2.5,2.5 0 0 0 1.997,1 2.5,2.5 0 0 0 1.992,-1 h 0.785 l 2.414,2.413 C 40.846,45.67 43,44.777 43,42.997 V 35.999 C 43,32.685 41.21,30 39,30 Z m 0,1 h 14 c 1.657,0 3,2.238 3,4.999 v 6.998 c 0,0.89 -1.077,1.336 -1.707,0.707 l -2.707,-2.707 h -1.779 a 1.5,1.5 0 0 1 -1.412,1 A 1.5,1.5 0 0 1 33,41.042 v -0.045 h -2.088 a 1.5,1.5 0 0 1 -1.412,1 1.5,1.5 0 0 1 -1.412,-1 h -1.674 l -2.707,2.707 C 23.077,44.334 22,43.888 22,42.997 v -6.998 c 0,-2.76 1.343,-5 3,-5 z"
       id="path21" />
    <path
       d="m 25,31.996 v 2 h -2 v 2 h 2 v 2 h 2 v -2 h 2 v -2 h -2 v -2 z m 11,7.5 a 1.5,1.5 0 0 1 -1.5,1.5 1.5,1.5 0 0 1 -1.5,-1.5 1.5,1.5 0 0 1 1.5,-1.5 1.5,1.5 0 0 1 1.5,1.5 z m -5,0 a 1.5,1.5 0 0 1 -1.5,1.5 1.5,1.5 0 0 1 -1.5,-1.5 1.5,1.5 0 0 1 1.5,-1.5 1.5,1.5 0 0 1 1.5,1.5 z m 8,-2.5 a 1,1 0 0 1 -1,1 1,1 0 0 1 -1,-1 1,1 0 0 1 1,-1 1,1 0 0 1 1,1 z m 2,-2 a 1,1 0 0 1 -1,1 1,1 0 0 1 -1,-1 1,1 0 0 1 1,-1 1,1 0 0 1 1,1 z m -2,-2 a 1,1 0 0 1 -1,1 1,1 0 0 1 -1,-1 1,1 0 0 1 1,-1 1,1 0 0 1 1,1 z m -2,2 a 1,1 0 0 1 -1,1 1,1 0 0 1 -1,-1 1,1 0 0 1 1,-1 1,1 0 0 1 1,1 z"
       id="path23" />
  </g>
</svg>
