<?xml version="1.0" encoding="UTF-8" standalone="no"?>
<!-- Created with Inkscape (http://www.inkscape.org/) -->

<svg
   width="64"
   height="64"
   viewBox="0 0 16.933333 16.933333"
   version="1.1"
   id="svg1415"
   inkscape:version="1.1.1 (3bf5ae0d25, 2021-09-20, custom)"
   sodipodi:docname="folder-publicshare.svg"
   xmlns:inkscape="http://www.inkscape.org/namespaces/inkscape"
   xmlns:sodipodi="http://sodipodi.sourceforge.net/DTD/sodipodi-0.dtd"
   xmlns:xlink="http://www.w3.org/1999/xlink"
   xmlns="http://www.w3.org/2000/svg"
   xmlns:svg="http://www.w3.org/2000/svg">
  <sodipodi:namedview
     id="namedview1417"
     pagecolor="#ffffff"
     bordercolor="#666666"
     borderopacity="1.0"
     inkscape:pageshadow="2"
     inkscape:pageopacity="0.0"
     inkscape:pagecheckerboard="0"
     inkscape:document-units="px"
     showgrid="false"
     units="px"
     inkscape:zoom="5.9735792"
     inkscape:cx="18.079613"
     inkscape:cy="25.947593"
     inkscape:window-width="1920"
     inkscape:window-height="1006"
     inkscape:window-x="0"
     inkscape:window-y="0"
     inkscape:window-maximized="1"
     inkscape:current-layer="svg1415" />
  <defs
     id="defs1412">
    <linearGradient
       inkscape:collect="always"
       id="linearGradient1305">
      <stop
         style="stop-color:#5e2750;stop-opacity:1"
         offset="0"
         id="stop1299" />
      <stop
         style="stop-color:#772953;stop-opacity:1"
         offset="0.60154283"
         id="stop1301" />
      <stop
         style="stop-color:#e95420;stop-opacity:1"
         offset="1"
         id="stop1303" />
    </linearGradient>
    <linearGradient
       inkscape:collect="always"
       id="linearGradient8759">
      <stop
         style="stop-color:#4d4d4d;stop-opacity:1;"
         offset="0"
         id="stop8755" />
      <stop
         style="stop-color:#666666;stop-opacity:1"
         offset="1"
         id="stop8757" />
    </linearGradient>
    <linearGradient
       inkscape:collect="always"
       xlink:href="#linearGradient1305"
       id="linearGradient849"
       x1="-1.0583334"
       y1="7.4083309"
       x2="19.579165"
       y2="7.4083309"
       gradientUnits="userSpaceOnUse"
       gradientTransform="translate(-0.2645833)" />
    <linearGradient
       inkscape:collect="always"
       xlink:href="#linearGradient8759"
       id="linearGradient1940"
       x1="16.139585"
       y1="15.345839"
       x2="8.4666662"
       y2="4.2333331"
       gradientUnits="userSpaceOnUse" />
  </defs>
  <path
     id="rect865"
     style="opacity:1;fill:url(#linearGradient849);fill-opacity:1;stroke-width:0.264583"
     d="m 0.79375,1.5875 6.3499968,-5.3e-6 1.322917,1.5875 7.6729172,-1.33e-5 2e-6,10.0541856 H 0.79375 Z"
     sodipodi:nodetypes="ccccccc" />
  <path
     id="rect1371"
     style="opacity:1;fill:url(#linearGradient1940);fill-opacity:1;stroke-width:0.264583"
     d="m 0.79375,5.8208333 h 6.3499999 l 1.3229165,-1.5875 7.6729186,6e-6 V 15.345839 H 0.7937526 Z"
     sodipodi:nodetypes="ccccccc" />
  <path
     id="rect6613"
     style="fill:#ffffff;fill-opacity:0.24;stroke-width:0.0529166"
     d="m 8.4666638,3.1749947 7.6729172,-1.33e-5 V 3.4395647 L 8.4666638,3.439578 7.1437468,1.5874947 Z"
     sodipodi:nodetypes="cccccc" />
  <path
     id="rect7008"
     style="fill:#000000;fill-opacity:0.24;stroke-width:0.22776"
     d="m 0.79375,5.55625 h 6.0854169 l 1.5874995,-1.3229167 -1.3229165,1.5875 H 0.79375 Z"
     sodipodi:nodetypes="cccccc" />
  <path
     id="rect7008-3"
     style="fill:#ffffff;fill-opacity:0.24;stroke-width:0.22776"
     d="m 0.79375,5.8208333 h 6.3499999 l 1.3229165,-1.5875 -1.0583335,1.852083 H 0.79375 Z"
     sodipodi:nodetypes="cccccc" />
  <rect
     style="fill:#000000;fill-opacity:0.24;stroke-width:0.192254"
     id="rect9471"
     width="15.345834"
     height="0.26458332"
     x="0.7937507"
     y="15.081255" />
  <path
     style="fill:#999999;stroke-width:0.264583"
     id="rect4129"
     d="m 7.6729162,7.1437499 c -0.586314,0 -1.058333,0.4720193 -1.058333,1.0583333 0,0.586314 0.472019,1.0583329 1.058333,1.0583329 0.586314,0 1.058333,-0.4720189 1.058333,-1.0583329 0,-0.586314 -0.472019,-1.0583333 -1.058333,-1.0583333 z m 0,0.2645833 c 0.439735,0 0.79375,0.3540152 0.79375,0.79375 0,0.4397349 -0.354015,0.7937499 -0.79375,0.7937499 -0.439735,0 -0.79375,-0.354015 -0.79375,-0.7937499 0,-0.4397348 0.354015,-0.79375 0.79375,-0.79375 z m 2.3812498,0 c -0.4397368,0 -0.7937498,0.3540125 -0.7937498,0.79375 0,0.4397375 0.354013,0.7937499 0.7937498,0.7937499 0.439738,0 0.79375,-0.3540124 0.79375,-0.7937499 0,-0.4397375 -0.354012,-0.79375 -0.79375,-0.79375 z m 0,0.2645834 c 0.293158,0 0.529167,0.2360083 0.529167,0.5291666 0,0.2931584 -0.236009,0.5291667 -0.529167,0.5291667 -0.2931578,0 -0.5291668,-0.2360083 -0.5291668,-0.5291667 0,-0.2931583 0.236009,-0.5291666 0.5291668,-0.5291666 z m 0,1.5874995 c -0.2931578,0 -0.5574978,0.118249 -0.7487908,0.309542 l 0.187068,0.187069 c 0.143471,-0.14347 0.341854,-0.232027 0.5617228,-0.232027 0.439738,0 0.79375,0.354012 0.79375,0.7937499 v 0.79375 h -0.79375 v 0.264583 h 1.058333 V 10.31875 c 0,-0.5863169 -0.472016,-1.0583339 -1.058333,-1.0583339 z m -2.3812498,0.264584 c -1.026054,0 -1.852083,0.8260289 -1.852083,1.8520829 v 1.058333 h 3.704166 v -1.058333 c 0,-1.026054 -0.826029,-1.8520829 -1.852083,-1.8520829 z m 0,0.264583 c 0.879475,0 1.5875,0.7080249 1.5875,1.5874999 v 0.79375 h -3.175 v -0.79375 c 0,-0.879475 0.708025,-1.5874999 1.5875,-1.5874999 z" />
</svg>
