<?xml version="1.0" encoding="UTF-8" standalone="no"?>
<!-- Created with Inkscape (http://www.inkscape.org/) -->

<svg
   width="64"
   height="64"
   viewBox="0 0 16.933333 16.933334"
   version="1.1"
   id="svg5"
   inkscape:version="1.1.1 (3bf5ae0d25, 2021-09-20, custom)"
   sodipodi:docname="user-desktop.svg"
   xmlns:inkscape="http://www.inkscape.org/namespaces/inkscape"
   xmlns:sodipodi="http://sodipodi.sourceforge.net/DTD/sodipodi-0.dtd"
   xmlns:xlink="http://www.w3.org/1999/xlink"
   xmlns="http://www.w3.org/2000/svg"
   xmlns:svg="http://www.w3.org/2000/svg">
  <sodipodi:namedview
     id="namedview7"
     pagecolor="#ffffff"
     bordercolor="#666666"
     borderopacity="1.0"
     inkscape:pageshadow="2"
     inkscape:pageopacity="0.0"
     inkscape:pagecheckerboard="0"
     inkscape:document-units="px"
     showgrid="false"
     units="px"
     height="64px"
     showguides="false"
     inkscape:zoom="4.3973203"
     inkscape:cx="42.525899"
     inkscape:cy="64.357377"
     inkscape:window-width="1920"
     inkscape:window-height="1006"
     inkscape:window-x="0"
     inkscape:window-y="0"
     inkscape:window-maximized="1"
     inkscape:current-layer="svg5" />
  <defs
     id="defs2">
    <linearGradient
       inkscape:collect="always"
       id="linearGradient1138">
      <stop
         style="stop-color:#e95420;stop-opacity:1;"
         offset="0"
         id="stop1134" />
      <stop
         style="stop-color:#77216f;stop-opacity:1"
         offset="0.41396701"
         id="stop1526" />
      <stop
         style="stop-color:#411934;stop-opacity:1"
         offset="1"
         id="stop1136" />
    </linearGradient>
    <linearGradient
       inkscape:collect="always"
       xlink:href="#linearGradient1138"
       id="linearGradient1140"
       x1="16.871498"
       y1="16.877937"
       x2="-0.05096988"
       y2="0.03980967"
       gradientUnits="userSpaceOnUse" />
  </defs>
  <rect
     style="fill:url(#linearGradient1140);fill-opacity:1;stroke-width:0.911973"
     id="rect846"
     width="15.345834"
     height="13.758333"
     x="0.79374999"
     y="1.5875" />
  <path
     id="rect5680"
     style="fill:#ffffff;fill-opacity:0.1;stroke-width:0.53042"
     d="m 10.847917,1.5875 h 5.291667 v 5.2916742 z"
     sodipodi:nodetypes="cccc" />
  <path
     id="rect5820-1"
     style="fill:#ffffff;fill-opacity:0.05;stroke-width:0.624985"
     d="m 16.139584,10.054166 v 5.291667 h -5.291667 z"
     sodipodi:nodetypes="cccc" />
  <path
     id="rect5820"
     style="fill:#ffffff;fill-opacity:0.05;stroke-width:0.23863"
     d="m 16.139584,12.170835 v 3.174998 h -3.175 z"
     sodipodi:nodetypes="cccc" />
  <path
     id="rect5680-2"
     style="fill:#ffffff;fill-opacity:0.1;stroke-width:0.53042"
     d="M 6.0854167,1.5875 H 0.79374999 v 5.2916785 z"
     sodipodi:nodetypes="cccc" />
  <path
     id="rect5820-1-7"
     style="fill:#ffffff;fill-opacity:0.05;stroke-width:0.624985"
     d="m 0.79374999,10.054167 v 5.291666 H 6.0854167 Z"
     sodipodi:nodetypes="cccc" />
  <path
     id="rect5820-0"
     style="fill:#ffffff;fill-opacity:0.05;stroke-width:0.23863"
     d="m 0.79374999,12.170835 v 3.174998 H 3.96875 Z"
     sodipodi:nodetypes="cccc" />
  <path
     id="path1712"
     style="fill:#ffffff;fill-opacity:0.101961;stroke-width:0.15669"
     d="M 6.2483597,4.8507184 A 0.7137667,0.7137667 0 0 0 5.9871029,5.8257418 0.7137667,0.7137667 0 0 0 6.9621263,6.0869986 0.7137667,0.7137667 0 0 0 7.2233833,5.1119752 0.7137667,0.7137667 0 0 0 6.2483597,4.8507184 Z M 5.922695,6.5060189 A 3.2119501,3.2119501 0 0 0 5.2247303,8.0225264 l 1.2780179,-2.008e-4 a 1.9628583,1.9628583 0 0 1 0.1869312,-0.4443607 1.9628583,1.9628583 0 0 1 0.2115829,-0.2964112 1.9628583,1.9628583 0 0 1 0.113109,-0.1212421 1.9628583,1.9628583 0 0 1 0.017305,-0.016031 1.9628583,1.9628583 0 0 1 0.1066491,-0.096184 1.9628583,1.9628583 0 0 1 0.033127,-0.025568 1.9628583,1.9628583 0 0 1 0.097541,-0.07362 1.9628583,1.9628583 0 0 1 0.063274,-0.040957 1.9628583,1.9628583 0 0 1 0.077637,-0.048848 1.9628583,1.9628583 0 0 1 0.080217,-0.042287 1.9628583,1.9628583 0 0 1 0.068016,-0.034841 1.9628583,1.9628583 0 0 1 0.1142119,-0.048234 1.9628583,1.9628583 0 0 1 0.036116,-0.014817 1.9628583,1.9628583 0 0 1 0.1430536,-0.046374 1.9628583,1.9628583 0 0 1 0.013468,-0.00459 1.9628583,1.9628583 0 0 1 0.00251,-6.157e-4 1.9628583,1.9628583 0 0 1 0.1626329,-0.037555 1.9628583,1.9628583 0 0 1 0.3624908,-0.03503 1.9628583,1.9628583 0 0 1 0.4787232,0.059642 L 9.5093282,5.5492154 A 3.2119501,3.2119501 0 0 0 7.8511558,5.394231 1.2490915,1.2490915 0 0 1 7.229789,6.5506035 1.2490915,1.2490915 0 0 1 5.922695,6.5060189 Z M 5.2238774,9.0930928 a 3.2119501,3.2119501 0 0 0 0.3841518,1.0724402 3.2119501,3.2119501 0 0 0 0.312974,0.445897 1.2490915,1.2490915 0 0 1 0.062684,-0.04826 1.2490915,1.2490915 0 0 1 1.2491416,-2.9e-5 1.2490915,1.2490915 0 0 1 0.6211807,1.160957 3.2119501,3.2119501 0 0 0 1.6546707,-0.155687 L 8.8700181,10.462214 A 1.9628583,1.9628583 0 0 1 7.408368,10.259365 1.9628583,1.9628583 0 0 1 6.5015929,9.0930666 Z M 10.436939,6.084538 9.7991725,7.1888061 a 1.9628583,1.9628583 0 0 1 0.5562275,1.3690892 1.9628583,1.9628583 0 0 1 -0.220911,0.9006201 1.9628583,1.9628583 0 0 1 -0.0016,0.00291 1.9628583,1.9628583 0 0 1 -0.0035,0.00646 1.9628583,1.9628583 0 0 1 -0.3339449,0.4559956 l 0.6404419,1.109216 A 3.2119501,3.2119501 0 0 0 11.402237,9.6670838 1.2490915,1.2490915 0 0 1 10.709004,8.5569838 1.2490915,1.2490915 0 0 1 11.3336,7.4752099 1.2490915,1.2490915 0 0 1 11.40079,7.4472889 3.2119501,3.2119501 0 0 0 11.171289,6.9535836 3.2119501,3.2119501 0 0 0 10.436939,6.084538 Z m -4.1855902,4.942233 a 0.7137667,0.7137667 0 0 0 -0.2613229,0.261142 0.7137667,0.7137667 0 0 0 0.2615102,0.975031 0.7137667,0.7137667 0 0 0 0.9747284,-0.261336 0.7137667,0.7137667 0 0 0 -0.2610337,-0.974902 0.7137667,0.7137667 0 0 0 -0.713882,6.5e-5 z M 11.601266,7.9388006 A 0.7137667,0.7137667 0 0 0 11.24457,8.5568325 0.7137667,0.7137667 0 0 0 11.958214,9.2708223 0.7137667,0.7137667 0 0 0 12.67203,8.5568744 0.7137667,0.7137667 0 0 0 11.958082,7.8430592 0.7137667,0.7137667 0 0 0 11.601266,7.9388006 Z" />
  <rect
     style="fill:#333333;fill-opacity:0.784314;stroke-width:0.0733821"
     id="rect890"
     width="15.345833"
     height="1.0583333"
     x="0.79375076"
     y="14.2875" />
  <g
     id="text4213"
     style="fill:#ffffff;fill-opacity:1"
     transform="matrix(0.1715289,0,0,0.1715289,-60.838208,-77.717984)">
    <path
       inkscape:connector-curvature="0"
       id="path4218"
       d="m 434.23853,537.83412 c -0.15893,0.11003 -0.36677,0.22414 -0.54201,0.30157 l 0.0734,0.28934 c 0.14264,-0.0448 0.27305,-0.12225 0.43198,-0.22414 v 2.60819 h 0.35455 v -2.97496 h -0.31787 z" />
    <path
       inkscape:connector-curvature="0"
       id="path4220"
       d="m 435.20119,538.03381 0.11819,0.29749 c 0.16708,-0.17116 0.41568,-0.24452 0.66427,-0.24452 0.33825,0 0.52571,0.18747 0.52571,0.51757 v 0.0204 c -0.004,0.2323 -0.15486,0.46051 -0.38715,0.71726 l -1.02697,1.14108 0.0448,0.32602 h 1.74016 l 0.0245,-0.30565 h -1.38153 l 0.83951,-0.89656 c 0.32603,-0.35048 0.52572,-0.63575 0.52979,-1.01067 v -0.0122 c 0,-0.48904 -0.34232,-0.81098 -0.88434,-0.81098 -0.38715,0 -0.63982,0.10595 -0.80691,0.26082 z" />
    <path
       inkscape:connector-curvature="0"
       id="path4222"
       d="m 437.42599,540.85799 h 0.4116 v -0.46459 h -0.4116 z m 0,-1.82574 h 0.4116 v -0.46051 h -0.4116 z" />
    <path
       inkscape:connector-curvature="0"
       id="path4224"
       d="m 439.75394,539.98995 c 0,0.3627 -0.2649,0.56239 -0.65613,0.56239 -0.30157,0 -0.50941,-0.0978 -0.6602,-0.21599 l -0.1141,0.28934 c 0.11003,0.10596 0.39122,0.22822 0.77838,0.22822 0.57869,0 1.00252,-0.3301 1.00252,-0.85989 0,-0.41975 -0.23229,-0.68872 -0.59499,-0.77023 0.32195,-0.0978 0.52164,-0.3301 0.52164,-0.71317 0,-0.47681 -0.41161,-0.73763 -0.85174,-0.73763 -0.41161,0 -0.6765,0.0897 -0.85581,0.22821 l 0.1141,0.28935 c 0.15894,-0.12634 0.39123,-0.21192 0.66428,-0.21192 0.35047,0 0.54609,0.14671 0.54609,0.47681 0,0.46866 -0.43198,0.52164 -0.88842,0.52164 v 0.29342 c 0.55424,0 0.99438,0.0856 0.99438,0.61945 z" />
    <path
       inkscape:connector-curvature="0"
       id="path4226"
       d="m 441.86538,538.2824 v 1.49971 h -0.99437 z m 0.67243,1.78905 0.0285,-0.28934 h -0.36678 v -1.94799 h -0.37085 l -1.30817,1.93169 v 0.30564 h 1.34484 v 0.73763 h 0.33418 v -0.73763 h 0.33825 z" />
  </g>
  <path
     inkscape:connector-curvature="0"
     style="color:#000000;fill:#ffffff;stroke-width:0.264583"
     id="path2994"
     d="m 1.4552085,14.525732 a 0.04409722,0.04409722 0 0 0 -0.044098,0.0441 0.04409722,0.04409722 0 0 0 0.044098,0.0441 0.04409722,0.04409722 0 0 0 0.044096,-0.0441 0.04409722,0.04409722 0 0 0 -0.044096,-0.0441 z m 0.2204852,0 -0.085439,0.0689 0.1143767,0.141938 -0.107487,0.107487 0.07855,0.07855 0.1763898,-0.17639 z m -0.286631,0.17639 a 0.06614583,0.06614583 0 0 0 -0.066146,0.06614 0.06614583,0.06614583 0 0 0 0.066146,0.06615 0.06614583,0.06614583 0 0 0 0.066146,-0.06615 0.06614583,0.06614583 0 0 0 -0.066146,-0.06614 z m 0.1322916,0.220485 a 0.06614583,0.06614583 0 0 0 -0.066146,0.06615 0.06614583,0.06614583 0 0 0 0.066146,0.06615 0.06614583,0.06614583 0 0 0 0.066146,-0.06615 0.06614583,0.06614583 0 0 0 -0.066146,-0.06615 z" />
</svg>
