<?xml version="1.0" encoding="UTF-8" standalone="no"?>
<!-- Created with Inkscape (http://www.inkscape.org/) -->

<svg
   width="16"
   height="16"
   viewBox="0 0 4.2333332 4.2333335"
   version="1.1"
   id="svg5"
   inkscape:version="1.1.1 (3bf5ae0d25, 2021-09-20, custom)"
   sodipodi:docname="arch-lit-symbolic.svg"
   xmlns:inkscape="http://www.inkscape.org/namespaces/inkscape"
   xmlns:sodipodi="http://sodipodi.sourceforge.net/DTD/sodipodi-0.dtd"
   xmlns="http://www.w3.org/2000/svg"
   xmlns:svg="http://www.w3.org/2000/svg">
  <sodipodi:namedview
     id="namedview7"
     pagecolor="#ffffff"
     bordercolor="#666666"
     borderopacity="1.0"
     inkscape:pageshadow="2"
     inkscape:pageopacity="0.0"
     inkscape:pagecheckerboard="0"
     inkscape:document-units="px"
     showgrid="false"
     units="px"
     width="16px"
     inkscape:zoom="35.708892"
     inkscape:cx="4.760719"
     inkscape:cy="9.1013745"
     inkscape:window-width="1920"
     inkscape:window-height="1019"
     inkscape:window-x="0"
     inkscape:window-y="0"
     inkscape:window-maximized="1"
     inkscape:current-layer="svg5" />
  <defs
     id="defs2" />
  <path
     id="path846-3"
     style="fill:#242628;fill-opacity:1;stroke-width:1.54796"
     d="M 8.0195312 0 C 6.6404017 -0.0034648499 5.2537206 0.34962068 4.0019531 1.0722656 C 0.17561201 3.2814045 -1.1368733 8.1736588 1.0722656 12 L 0.20703125 12.5 L 2.5058594 13.482422 L 2.8046875 11 L 1.9394531 11.5 C 0.0064563578 8.1519516 1.153905 3.8704967 4.5019531 1.9375 C 7.0983075 0.43894934 10.360821 0.7603898 12.615234 2.7363281 L 13.273438 1.984375 C 11.783793 0.67893197 9.9094492 0.0047481449 8.0195312 0 z M 13.494141 2.5175781 L 13.195312 5 L 14.060547 4.5 C 15.993545 7.8480491 14.846095 12.129503 11.498047 14.0625 C 8.9016921 15.561051 5.6391788 15.239611 3.3847656 13.263672 L 2.7265625 14.015625 C 5.3032467 16.273689 9.0308936 16.64067 11.998047 14.927734 C 15.824388 12.718595 17.134922 7.8263415 14.925781 4 L 15.792969 3.5 L 13.494141 2.5175781 z M 6 4 L 6 9 L 4 9 L 8 13 L 12 9 L 10 9 L 10 4 L 6 4 z "
     transform="scale(0.26458333)" />
</svg>
