<?xml version="1.0" encoding="UTF-8" standalone="no"?>
<svg
   version="1.1"
   viewBox="0 0 16 16"
   id="svg7"
   sodipodi:docname="media-playlist-repeat-symbolic-rtl.svg"
   inkscape:version="1.1 (c4e8f9ed74, 2021-05-24)"
   xmlns:inkscape="http://www.inkscape.org/namespaces/inkscape"
   xmlns:sodipodi="http://sodipodi.sourceforge.net/DTD/sodipodi-0.dtd"
   xmlns="http://www.w3.org/2000/svg"
   xmlns:svg="http://www.w3.org/2000/svg">
  <sodipodi:namedview
     id="namedview9"
     pagecolor="#ffffff"
     bordercolor="#666666"
     borderopacity="1.0"
     inkscape:pageshadow="2"
     inkscape:pageopacity="0.0"
     inkscape:pagecheckerboard="0"
     showgrid="false"
     inkscape:zoom="41.0625"
     inkscape:cx="7.9878234"
     inkscape:cy="8.5114155"
     inkscape:window-width="1920"
     inkscape:window-height="1021"
     inkscape:window-x="0"
     inkscape:window-y="29"
     inkscape:window-maximized="1"
     inkscape:current-layer="svg7" />
  <defs
     id="defs3">
    <style
       id="current-color-scheme"
       type="text/css">.ColorScheme-Text {
        color:#232627;
      }</style>
  </defs>
  <path
     class="ColorScheme-Text"
     d="m 12,2 c 1.108,0 2,0.892 2,2 V 7.0391 C 13.935165,7.028263 13.8766,7.000038 13.80859,7.000038 H 13 v -3 c 0,-0.554 -0.446,-1 -1,-1 H 3 l 2.5352,2.5352 -0.70703,0.70703 -3.5352,-3.5352 L 2,2.000038 H 12 Z M 2,8.9609 C 2.064835,8.971737 2.1234,8.999962 2.19141,8.999962 H 3 v 3 c 0,0.554 0.446,1 1,1 h 9 l -2.5352,-2.5352 0.70703,-0.70703 3.5352,3.5352 L 14,13.999962 H 4 c -1.108,0 -2,-0.892 -2,-2 v -3.0391 z"
     fill="CurrentColor"
     id="path5" />
</svg>
