<?xml version="1.0" encoding="UTF-8" standalone="no"?>
<svg
   width="16"
   height="16"
   version="1.1"
   id="svg22"
   sodipodi:docname="internet-web-browser-symbolic.svg"
   inkscape:version="1.1 (c4e8f9ed74, 2021-05-24)"
   xmlns:inkscape="http://www.inkscape.org/namespaces/inkscape"
   xmlns:sodipodi="http://sodipodi.sourceforge.net/DTD/sodipodi-0.dtd"
   xmlns="http://www.w3.org/2000/svg"
   xmlns:svg="http://www.w3.org/2000/svg">
  <sodipodi:namedview
     id="namedview24"
     pagecolor="#ffffff"
     bordercolor="#666666"
     borderopacity="1.0"
     inkscape:pageshadow="2"
     inkscape:pageopacity="0.0"
     inkscape:pagecheckerboard="0"
     showgrid="false"
     inkscape:zoom="49.3125"
     inkscape:cx="8"
     inkscape:cy="8"
     inkscape:window-width="1920"
     inkscape:window-height="1006"
     inkscape:window-x="0"
     inkscape:window-y="0"
     inkscape:window-maximized="1"
     inkscape:current-layer="svg22" />
  <defs
     id="defs12">
    <style type="text/css" id="current-color-scheme">
      .ColorScheme-Text {
        color:#eff0f1;
      }
      </style>
  </defs>
  <path
     id="rect14"
     style="fill:currentColor;stroke-width:0.35;fill-opacity:1"
     d="M 8 1 C 4.1220008 1 1 4.1220008 1 8 C 1 11.877999 4.1220008 15 8 15 C 11.877999 15 15 11.877999 15 8 C 15 4.1220008 11.877999 1 8 1 z M 8.3574219 2.0117188 A 6 6 0 0 1 12.71875 4.296875 A 6 6 0 0 1 12.818359 4.4257812 C 12.785498 4.3824154 12.752845 4.3392442 12.71875 4.296875 C 12.628977 4.1853153 12.533648 4.0767504 12.4375 3.9707031 L 12.195312 4.6992188 L 12.494141 5 L 11.294922 6.8007812 L 11.894531 8.9003906 L 13.876953 9.1464844 A 6 6 0 0 1 8.1796875 13.986328 L 10.095703 10.699219 L 5.2949219 8 L 4.0957031 8.5996094 L 5.5957031 12.199219 L 5.5957031 13.478516 A 6 6 0 0 1 2 8 A 6 6 0 0 1 2.0136719 7.8203125 L 4.0957031 8.5996094 L 3.7949219 7.6992188 L 3.1953125 6.8007812 L 2.1367188 6.8007812 A 6 6 0 0 1 2.3261719 6.0683594 L 3.4960938 5.5996094 L 4.3945312 6.1992188 L 4.6953125 5.3007812 L 8.5957031 3.1992188 L 8.3574219 2.0117188 z M 6.7148438 2.15625 L 6.1953125 3.1992188 L 5.3984375 2.6035156 A 6 6 0 0 1 6.7148438 2.15625 z M 5.3027344 2.6425781 C 5.2841993 2.6518713 5.26647 2.6623974 5.2480469 2.671875 A 6 6 0 0 1 5.3027344 2.6425781 z M 12.974609 4.6445312 A 6 6 0 0 1 13.287109 5.1640625 L 12.794922 5 L 12.974609 4.6445312 z M 13.447266 5.4863281 A 6 6 0 0 1 13.587891 5.8183594 A 6 6 0 0 1 13.708984 6.1601562 A 6 6 0 0 1 13.810547 6.5136719 A 6 6 0 0 1 13.890625 6.8730469 A 6 6 0 0 1 14 8 A 6 6 0 0 1 13.992188 8.0996094 C 13.992739 8.0663162 13.994141 8.0334294 13.994141 8 C 13.994141 7.6146971 13.95961 7.2376309 13.890625 6.8730469 C 13.86763 6.7515189 13.840715 6.6324408 13.810547 6.5136719 C 13.780379 6.394903 13.746079 6.2759375 13.708984 6.1601562 C 13.67189 6.044375 13.631666 5.9309245 13.587891 5.8183594 C 13.544115 5.7057942 13.497476 5.5954486 13.447266 5.4863281 z M 13.931641 8.8691406 A 6 6 0 0 1 13.90625 9.0253906 C 13.915181 8.9734329 13.924028 8.9215516 13.931641 8.8691406 z "
     class="ColorScheme-Text"
     />
</svg>
