<?xml version="1.0" encoding="UTF-8" standalone="no"?>
<!-- Created with Inkscape (http://www.inkscape.org/) -->

<svg
   width="16"
   height="16"
   viewBox="0 0 4.2333332 4.2333335"
   version="1.1"
   id="svg5"
   inkscape:version="1.1.1 (3bf5ae0d25, 2021-09-20)"
   sodipodi:docname="rhythmbox.svg"
   xmlns:inkscape="http://www.inkscape.org/namespaces/inkscape"
   xmlns:sodipodi="http://sodipodi.sourceforge.net/DTD/sodipodi-0.dtd"
   xmlns="http://www.w3.org/2000/svg"
   xmlns:svg="http://www.w3.org/2000/svg">
  <sodipodi:namedview
     id="namedview7"
     pagecolor="#ffffff"
     bordercolor="#666666"
     borderopacity="1.0"
     inkscape:pageshadow="2"
     inkscape:pageopacity="0.0"
     inkscape:pagecheckerboard="0"
     inkscape:document-units="px"
     showgrid="false"
     units="px"
     height="16px"
     inkscape:zoom="24.5"
     inkscape:cx="0.83673469"
     inkscape:cy="8.7346939"
     inkscape:window-width="1920"
     inkscape:window-height="1011"
     inkscape:window-x="0"
     inkscape:window-y="0"
     inkscape:window-maximized="1"
     inkscape:current-layer="svg5" />
  <defs
     id="defs2" />
  <path
     id="rect846"
     style="fill:#eff0f1;stroke-width:0.279982"
     d="M 0.79374999,0.52916666 V 3.7041666 H 3.4395833 V 0.52916666 Z M 1.0583333,0.79374999 H 3.175 V 3.4395833 H 1.0583333 Z M 2.1166666,1.0583333 a 0.79374994,0.79374994 0 0 0 -0.79375,0.79375 0.79374994,0.79374994 0 0 0 0.79375,0.79375 0.79374994,0.79374994 0 0 0 0.79375,-0.79375 0.79374994,0.79374994 0 0 0 -0.79375,-0.79375 z m 0,0.2645833 A 0.52916669,0.52916669 0 0 1 2.6458333,1.8520833 0.52916669,0.52916669 0 0 1 2.1166666,2.38125 0.52916669,0.52916669 0 0 1 1.5875,1.8520833 0.52916669,0.52916669 0 0 1 2.1166666,1.3229166 Z m 0,0.2645834 A 0.26458336,0.26458336 0 0 0 1.8520833,1.8520833 0.26458336,0.26458336 0 0 0 2.1166666,2.1166666 0.26458336,0.26458336 0 0 0 2.38125,1.8520833 0.26458336,0.26458336 0 0 0 2.1166666,1.5875 Z" />
</svg>
