<?xml version="1.0" encoding="UTF-8" standalone="no"?>
<!-- Created with Inkscape (http://www.inkscape.org/) -->

<svg
   width="16"
   height="16"
   viewBox="0 0 4.2333332 4.2333335"
   version="1.1"
   id="svg5"
   inkscape:version="1.1.1 (3bf5ae0d25, 2021-09-20)"
   sodipodi:docname="system-software-install-symbolic.svg"
   xmlns:inkscape="http://www.inkscape.org/namespaces/inkscape"
   xmlns:sodipodi="http://sodipodi.sourceforge.net/DTD/sodipodi-0.dtd"
   xmlns:xlink="http://www.w3.org/1999/xlink"
   xmlns="http://www.w3.org/2000/svg"
   xmlns:svg="http://www.w3.org/2000/svg">
  <sodipodi:namedview
     id="namedview7"
     pagecolor="#ffffff"
     bordercolor="#666666"
     borderopacity="1.0"
     inkscape:pageshadow="2"
     inkscape:pageopacity="0.0"
     inkscape:pagecheckerboard="0"
     inkscape:document-units="px"
     showgrid="false"
     units="px"
     height="16px"
     inkscape:zoom="51.8125"
     inkscape:cx="8"
     inkscape:cy="8"
     inkscape:window-width="1853"
     inkscape:window-height="1049"
     inkscape:window-x="67"
     inkscape:window-y="31"
     inkscape:window-maximized="1"
     inkscape:current-layer="svg5" />
  <defs
     id="defs2">
    <linearGradient
       inkscape:collect="always"
       id="linearGradient2009">
      <stop
         style="stop-color:#eff0f1;stop-opacity:1;"
         offset="0"
         id="stop2005" />
      <stop
         style="stop-color:#eff0f1;stop-opacity:0;"
         offset="1"
         id="stop2007" />
    </linearGradient>
    <linearGradient
       inkscape:collect="always"
       xlink:href="#linearGradient2009"
       id="linearGradient2011"
       x1="10.136534"
       y1="10.810623"
       x2="7.0550656"
       y2="7.7575331"
       gradientUnits="userSpaceOnUse"
       gradientTransform="scale(0.26458333)" />
  </defs>
  <path
     id="path846"
     style="fill:#eff0f1;fill-opacity:1;stroke-width:0.258455;stroke-opacity:0.266667"
     d="M 2.1166666,0.52916666 A 1.5874999,1.5874999 0 0 0 0.52916666,2.1166666 1.5874999,1.5874999 0 0 0 2.1166666,3.7041666 V 3.4395833 A 1.3229166,1.3229166 0 0 1 0.79374999,2.1166666 1.3229166,1.3229166 0 0 1 2.1166666,0.79374999 Z" />
  <path
     id="rect1086"
     style="fill:#eff0f1;fill-opacity:1;stroke-width:0.21754;stroke-opacity:0.266667"
     d="M 1.8520833,1.3229166 V 2.38125 H 1.3229167 L 2.1166666,3.175 2.9104166,2.38125 H 2.38125 V 1.3229166 Z"
     sodipodi:nodetypes="cccccccc" />
  <path
     id="rect1867-5"
     style="fill:url(#linearGradient2011);fill-opacity:1;stroke-width:0.356936;stroke-opacity:0.266667"
     d="M 2.1166666,0.52916666 V 0.79374999 A 1.3229166,1.3229166 0 0 1 3.4395833,2.1166666 1.3229166,1.3229166 0 0 1 2.1166666,3.4395833 v 0.2645833 a 1.5875,1.5875 0 0 0 1.5875,-1.5875 1.5875,1.5875 0 0 0 -1.5875,-1.58749994 z" />
</svg>
