<?xml version="1.0" encoding="UTF-8" standalone="no"?>
<svg
   xmlns:dc="http://purl.org/dc/elements/1.1/"
   xmlns:cc="http://creativecommons.org/ns#"
   xmlns:rdf="http://www.w3.org/1999/02/22-rdf-syntax-ns#"
   xmlns:svg="http://www.w3.org/2000/svg"
   xmlns="http://www.w3.org/2000/svg"
   xmlns:xlink="http://www.w3.org/1999/xlink"
   xmlns:sodipodi="http://sodipodi.sourceforge.net/DTD/sodipodi-0.dtd"
   xmlns:inkscape="http://www.inkscape.org/namespaces/inkscape"
   width="48"
   height="48"
   version="1.1"
   id="svg40"
   sodipodi:docname="blender.svg"
   inkscape:version="0.92.1 r15371">
  <metadata
     id="metadata44">
    <rdf:RDF>
      <cc:Work
         rdf:about="">
        <dc:format>image/svg+xml</dc:format>
        <dc:type
           rdf:resource="http://purl.org/dc/dcmitype/StillImage" />
      </cc:Work>
    </rdf:RDF>
  </metadata>
  <sodipodi:namedview
     pagecolor="#ffffff"
     bordercolor="#666666"
     borderopacity="1"
     objecttolerance="10"
     gridtolerance="10"
     guidetolerance="10"
     inkscape:pageopacity="0"
     inkscape:pageshadow="2"
     inkscape:window-width="1600"
     inkscape:window-height="808"
     id="namedview42"
     showgrid="true"
     inkscape:zoom="12.14"
     inkscape:cx="24"
     inkscape:cy="24"
     inkscape:window-x="0"
     inkscape:window-y="0"
     inkscape:window-maximized="1"
     inkscape:current-layer="svg40">
    <inkscape:grid
       type="xygrid"
       id="grid4526" />
  </sodipodi:namedview>
  <defs
     id="defs26">
    <linearGradient
       xlink:href="#linearGradient4300-8-4"
       id="linearGradient4309"
       x1="31"
       y1="44"
       x2="9.638"
       y2="7"
       gradientUnits="userSpaceOnUse"
       gradientTransform="translate(2)" />
    <linearGradient
       id="linearGradient4903">
      <stop
         offset="0"
         style="stop-color:#eef1f2;stop-opacity:1"
         id="stop3" />
      <stop
         offset="1"
         style="stop-color:#f9fafb;stop-opacity:1"
         id="stop5" />
    </linearGradient>
    <linearGradient
       id="linearGradient4303">
      <stop
         style="stop-color:#197cf1;stop-opacity:1"
         offset="0"
         id="stop8" />
      <stop
         style="stop-color:#21c9fb;stop-opacity:1"
         offset="1"
         id="stop10" />
    </linearGradient>
    <linearGradient
       id="linearGradient4227">
      <stop
         offset="0"
         style="stop-color:#292c2f;stop-opacity:1"
         id="stop13" />
      <stop
         offset="1"
         style="stop-color:#000000;stop-opacity:0;"
         id="stop15" />
    </linearGradient>
    <linearGradient
       xlink:href="#linearGradient4303"
       id="linearGradient4498"
       x1="414.635"
       y1="531.769"
       x2="409.79"
       y2="523.379"
       gradientUnits="userSpaceOnUse"
       gradientTransform="translate(-440.57146,-499.79795)" />
    <linearGradient
       xlink:href="#linearGradient4903"
       id="linearGradient4506"
       x1="413.504"
       y1="537.256"
       x2="405.396"
       y2="519.755"
       gradientUnits="userSpaceOnUse"
       gradientTransform="translate(-382.57143,-499.798)" />
    <linearGradient
       xlink:href="#linearGradient4227"
       id="linearGradient4518"
       x1="423.571"
       y1="527.798"
       x2="423.571"
       y2="544.668"
       gradientUnits="userSpaceOnUse"
       gradientTransform="rotate(-45,-382.02384,742.11777)" />
    <linearGradient
       id="linearGradient4300-8-4">
      <stop
         style="stop-color:#f27935;stop-opacity:1"
         offset="0"
         id="stop21" />
      <stop
         style="stop-color:#f2784b;stop-opacity:1"
         offset="1"
         id="stop23" />
    </linearGradient>
  </defs>
  <path
     inkscape:connector-curvature="0"
     id="path28"
     d="M 22.875,3.97461 A 3.0003,3.0003 0 0 0 21.16992,9.37695 L 24.58008,12 H 8 a 3.0003,3.0003 0 1 0 0,6 h 7.51953 l -12.2832,8.92383 a 3.0003,3.0003 0 1 0 3.52539,4.85351 L 13.03906,27.2168 A 15.999973,15.999973 0 0 0 12.99996,28 a 15.999973,15.999973 0 0 0 16,16 15.999973,15.999973 0 0 0 16,-16 15.999973,15.999973 0 0 0 -6.95508,-13.19727 3.0003,3.0003 0 0 0 -0.21679,-0.18164 l -13,-10 A 3.0003,3.0003 0 0 0 22.87496,3.97461 Z"
     style="opacity:1;fill:url(#linearGradient4309);fill-opacity:1;stroke:none;stroke-width:2;stroke-linecap:round;stroke-linejoin:round;stroke-miterlimit:4;stroke-dasharray:none;stroke-opacity:1" />
  <path
     inkscape:connector-curvature="0"
     id="path30"
     d="M 20.00977,6.47656 C 19.823,7.58431 20.27071,8.70359 21.16992,9.37695 L 24.58008,12 h 1 L 21.16992,8.37695 C 20.55377,7.91574 20.13842,7.23538 20.00977,6.47656 Z M 5.00195,14.49219 C 4.68434,16.34176 6.12353,18.02566 8,18 h 7.5 l 1,-1 H 8 C 6.51853,17.019 5.24503,15.9537 5.00195,14.49219 Z m 8.03711,11.72461 -6.27734,4.56054 c -1.79736,1.37114 -4.40795,0.33736 -4.7793,-1.89257 -0.4631,2.68873 2.61203,4.5499 4.7793,2.89257 l 6.25,-4.54101 c -0.004,-0.0787 -0.008,-0.15753 -0.0117,-0.23633 0.007,-0.26135 0.0196,-0.52249 0.0391,-0.7832 z m -0.0137,1.28125 c -0.0111,0.16717 -0.0196,0.33451 -0.0254,0.50195 -2e-5,8.83656 7.16344,16.00001 16,16 8.83656,1e-5 16.00002,-7.16344 16,-16 -0.005,-0.14006 -0.0125,-0.28005 -0.0215,-0.41992 C 44.66644,36.18099 37.60651,42.99412 28.99994,43 20.36413,42.99 13.29413,36.12968 13.02533,27.49805 Z"
     style="opacity:1;fill:#b86333;fill-opacity:1;stroke:none;stroke-width:2;stroke-linecap:round;stroke-linejoin:round;stroke-miterlimit:4;stroke-dasharray:none;stroke-opacity:1" />
  <path
     inkscape:connector-curvature="0"
     id="path32"
     d="m 36.070312,20.929688 -14.140624,14.140624 8.824218,8.826172 a 15.999973,15.999973 0 0 0 14.13086,-14.152343 z"
     style="opacity:0.2;fill:url(#linearGradient4518);fill-opacity:1;stroke:none;stroke-width:6;stroke-linecap:round;stroke-linejoin:round;stroke-miterlimit:4;stroke-dasharray:none;stroke-opacity:1" />
  <circle
     id="circle34"
     cx="28.999584"
     cy="27.999973"
     r="10"
     style="opacity:1;fill:url(#linearGradient4506);fill-opacity:1;stroke:none;stroke-width:2;stroke-linecap:round;stroke-linejoin:round;stroke-miterlimit:4;stroke-dasharray:none;stroke-opacity:1" />
  <circle
     id="circle36"
     transform="scale(-1,1)"
     cx="-28.999594"
     cy="27.999973"
     r="4"
     style="opacity:1;fill:url(#linearGradient4498);fill-opacity:1;stroke:none;stroke-width:2;stroke-linecap:round;stroke-linejoin:round;stroke-miterlimit:4;stroke-dasharray:none;stroke-opacity:1" />
</svg>
