<?xml version="1.0" encoding="UTF-8" standalone="no"?>
<svg
   xmlns:dc="http://purl.org/dc/elements/1.1/"
   xmlns:cc="http://creativecommons.org/ns#"
   xmlns:rdf="http://www.w3.org/1999/02/22-rdf-syntax-ns#"
   xmlns:svg="http://www.w3.org/2000/svg"
   xmlns="http://www.w3.org/2000/svg"
   xmlns:xlink="http://www.w3.org/1999/xlink"
   xmlns:sodipodi="http://sodipodi.sourceforge.net/DTD/sodipodi-0.dtd"
   xmlns:inkscape="http://www.inkscape.org/namespaces/inkscape"
   width="48"
   height="48"
   version="1.1"
   id="svg20"
   sodipodi:docname="deluge.svg"
   inkscape:version="0.92.3 (2405546, 2018-03-11)">
  <metadata
     id="metadata26">
    <rdf:RDF>
      <cc:Work
         rdf:about="">
        <dc:format>image/svg+xml</dc:format>
        <dc:type
           rdf:resource="http://purl.org/dc/dcmitype/StillImage" />
      </cc:Work>
    </rdf:RDF>
  </metadata>
  <defs
     id="defs24">
    <linearGradient
       inkscape:collect="always"
       id="linearGradient931">
      <stop
         style="stop-color:#000000;stop-opacity:1;"
         offset="0"
         id="stop927" />
      <stop
         style="stop-color:#000000;stop-opacity:0;"
         offset="1"
         id="stop929" />
    </linearGradient>
    <linearGradient
       inkscape:collect="always"
       id="linearGradient903">
      <stop
         style="stop-color:#b0d2fb;stop-opacity:1;"
         offset="0"
         id="stop899" />
      <stop
         style="stop-color:#b0d2fb;stop-opacity:0;"
         offset="1"
         id="stop901" />
    </linearGradient>
    <linearGradient
       inkscape:collect="always"
       id="linearGradient895">
      <stop
         style="stop-color:#76aaed;stop-opacity:1"
         offset="0"
         id="stop891" />
      <stop
         style="stop-color:#4c90e8;stop-opacity:0;"
         offset="1"
         id="stop893" />
    </linearGradient>
    <linearGradient
       inkscape:collect="always"
       id="linearGradient887">
      <stop
         style="stop-color:#094491;stop-opacity:1;"
         offset="0"
         id="stop883" />
      <stop
         style="stop-color:#2975d7;stop-opacity:1"
         offset="1"
         id="stop885" />
    </linearGradient>
    <linearGradient
       inkscape:collect="always"
       xlink:href="#linearGradient887"
       id="linearGradient889"
       x1="35"
       y1="42"
       x2="23"
       y2="7"
       gradientUnits="userSpaceOnUse" />
    <linearGradient
       inkscape:collect="always"
       xlink:href="#linearGradient895"
       id="linearGradient897"
       x1="20"
       y1="10"
       x2="30"
       y2="42"
       gradientUnits="userSpaceOnUse" />
    <linearGradient
       inkscape:collect="always"
       xlink:href="#linearGradient903"
       id="linearGradient905"
       x1="15"
       y1="21"
       x2="25"
       y2="46"
       gradientUnits="userSpaceOnUse" />
    <linearGradient
       inkscape:collect="always"
       xlink:href="#linearGradient931"
       id="linearGradient933"
       x1="18.565287"
       y1="22.861155"
       x2="35.845695"
       y2="40.141563"
       gradientUnits="userSpaceOnUse" />
    <linearGradient
       inkscape:collect="always"
       xlink:href="#linearGradient931"
       id="linearGradient935"
       x1="22.055082"
       y1="11.38165"
       x2="41.752914"
       y2="31.079481"
       gradientUnits="userSpaceOnUse" />
  </defs>
  <sodipodi:namedview
     pagecolor="#ffffff"
     bordercolor="#666666"
     borderopacity="1"
     objecttolerance="10"
     gridtolerance="10"
     guidetolerance="10"
     inkscape:pageopacity="0"
     inkscape:pageshadow="2"
     inkscape:window-width="1920"
     inkscape:window-height="1020"
     id="namedview22"
     showgrid="false"
     inkscape:zoom="6.06"
     inkscape:cx="24"
     inkscape:cy="15.536429"
     inkscape:window-x="0"
     inkscape:window-y="30"
     inkscape:window-maximized="1"
     inkscape:current-layer="svg20">
    <inkscape:grid
       type="xygrid"
       id="grid848" />
  </sodipodi:namedview>
  <path
     style="color:#000000;font-style:normal;font-variant:normal;font-weight:normal;font-stretch:normal;font-size:medium;line-height:normal;font-family:sans-serif;font-variant-ligatures:normal;font-variant-position:normal;font-variant-caps:normal;font-variant-numeric:normal;font-variant-alternates:normal;font-feature-settings:normal;text-indent:0;text-align:start;text-decoration:none;text-decoration-line:none;text-decoration-style:solid;text-decoration-color:#000000;letter-spacing:normal;word-spacing:normal;text-transform:none;writing-mode:lr-tb;direction:ltr;text-orientation:mixed;dominant-baseline:auto;baseline-shift:baseline;text-anchor:start;white-space:normal;shape-padding:0;clip-rule:nonzero;display:inline;overflow:visible;visibility:visible;opacity:1;isolation:auto;mix-blend-mode:normal;color-interpolation:sRGB;color-interpolation-filters:linearRGB;solid-color:#000000;solid-opacity:1;vector-effect:none;fill:url(#linearGradient889);fill-opacity:1;fill-rule:evenodd;stroke:none;stroke-width:3.07329798;stroke-linecap:butt;stroke-linejoin:miter;stroke-miterlimit:4;stroke-dasharray:none;stroke-dashoffset:0;stroke-opacity:1;color-rendering:auto;image-rendering:auto;shape-rendering:auto;text-rendering:auto;enable-background:accumulate"
     d="M 24.013672 2.0292969 L 22.732422 3.9570312 L 11.152344 21.384766 C 7.1670142 27.382093 7.2094183 33.875353 9.8964844 38.771484 C 12.58355 43.667615 17.860231 47 24.005859 47 C 30.151293 47 35.422819 43.667652 38.107422 38.771484 C 40.792025 33.875317 40.834771 27.381516 36.853516 21.380859 L 24.013672 2.0292969 z "
     id="path869" />
  <path
     style="opacity:0.2;fill:url(#linearGradient935);fill-opacity:1;stroke:none;stroke-width:2;stroke-linecap:round;stroke-linejoin:round;stroke-miterlimit:4;stroke-dasharray:none;stroke-dashoffset:0;stroke-opacity:1;paint-order:normal"
     d="M 24.011719 7.5859375 L 34.292969 23.080078 C 35.668475 25.153279 36.459108 27.219111 36.783203 29.205078 C 31.658736 38.033976 25.118087 38.671393 21.560547 35.126953 L 21.566406 35.177734 L 25.302734 38.914062 C 26.767959 38.912254 28.373557 38.617359 30.125 38.0625 C 29.217998 39.048558 28.038932 39.822952 26.720703 40.332031 L 31.552734 45.164062 C 34.336258 43.712202 36.620315 41.483664 38.107422 38.771484 C 40.792025 33.875317 40.834771 27.381516 36.853516 21.380859 L 34.974609 18.548828 L 24.011719 7.5859375 z M 20.728516 19.154297 C 18.871634 19.090656 16.894891 19.76 14.990234 21.333984 C 14.876263 21.431981 14.775224 21.544854 14.666016 21.648438 L 15.990234 22.972656 C 18.304338 20.715273 21.540795 20.355779 24.015625 22.115234 C 21.260478 22.18238 19.377509 23.454443 18.205078 25.1875 L 20.304688 27.287109 C 21.638833 24.977963 24.33617 23.227241 28.123047 24.771484 C 26.584917 21.400944 23.823318 19.260364 20.728516 19.154297 z "
     id="rect907" />
  <path
     style="opacity:0.2;fill:url(#linearGradient933);fill-opacity:1;stroke:none;stroke-width:2;stroke-linecap:round;stroke-linejoin:round;stroke-miterlimit:4;stroke-dasharray:none;stroke-dashoffset:0;stroke-opacity:1;paint-order:normal"
     d="M 24.015625 22.115234 C 16.880168 22.289133 15.52546 30.511149 17.501953 34.033203 C 20.249716 38.929648 24.419809 39.869912 30.125 38.0625 C 27.077957 41.37513 21.032073 42.408721 16.546875 38.388672 L 25.119141 46.960938 C 30.784397 46.585939 35.586309 43.369479 38.107422 38.771484 C 38.415946 38.2088 38.685233 37.623197 38.921875 37.021484 L 24.015625 22.115234 z M 15.576172 37.408203 L 15.578125 37.419922 L 15.630859 37.472656 C 15.611892 37.451466 15.594928 37.429494 15.576172 37.408203 z "
     id="rect917" />
  <path
     inkscape:connector-curvature="0"
     sodipodi:nodetypes="cscszc"
     id="path4478"
     d="m 24.015753,22.114801 c -7.135457,0.173899 -8.48998,8.395907 -6.513487,11.917961 2.747763,4.896445 6.916821,5.838122 12.622012,4.03071 -3.257596,3.541536 -9.943325,4.478822 -14.484512,-0.579951 -3.124729,-3.480874 -3.397858,-8.33911 -1.229337,-12.396379 2.168523,-4.057272 6.492527,-5.185353 9.605324,-2.972341 z"
     style="fill:url(#linearGradient905);fill-opacity:1;fill-rule:evenodd;stroke:none;stroke-width:1.05298114" />
  <path
     style="display:inline;fill:url(#linearGradient897);fill-opacity:1;fill-rule:evenodd;stroke:none;stroke-width:3.07329798;stroke-miterlimit:4;stroke-dasharray:none;stroke-opacity:1"
     d="M 24.011719 7.5859375 L 14.666016 21.648438 C 14.775224 21.544854 14.876263 21.431981 14.990234 21.333984 C 20.069319 17.136692 25.662039 19.37862 28.123047 24.771484 C 21.806933 22.195847 18.493286 28.775369 19.546875 31.849609 C 21.829343 38.509519 30.407771 40.189252 36.783203 29.205078 C 36.459108 27.219111 35.668475 25.153279 34.292969 23.080078 L 24.011719 7.5859375 z "
     id="path862" />
  <path
     style="color:#000000;font-style:normal;font-variant:normal;font-weight:normal;font-stretch:normal;font-size:medium;line-height:normal;font-family:sans-serif;font-variant-ligatures:normal;font-variant-position:normal;font-variant-caps:normal;font-variant-numeric:normal;font-variant-alternates:normal;font-feature-settings:normal;text-indent:0;text-align:start;text-decoration:none;text-decoration-line:none;text-decoration-style:solid;text-decoration-color:#000000;letter-spacing:normal;word-spacing:normal;text-transform:none;writing-mode:lr-tb;direction:ltr;text-orientation:mixed;dominant-baseline:auto;baseline-shift:baseline;text-anchor:start;white-space:normal;shape-padding:0;clip-rule:nonzero;display:inline;overflow:visible;visibility:visible;opacity:0.2;isolation:auto;mix-blend-mode:normal;color-interpolation:sRGB;color-interpolation-filters:linearRGB;solid-color:#000000;solid-opacity:1;vector-effect:none;fill:#000000;fill-opacity:1;fill-rule:evenodd;stroke:none;stroke-width:3.07329798;stroke-linecap:butt;stroke-linejoin:miter;stroke-miterlimit:4;stroke-dasharray:none;stroke-dashoffset:0;stroke-opacity:1;color-rendering:auto;image-rendering:auto;shape-rendering:auto;text-rendering:auto;enable-background:accumulate"
     d="M 8.015625 30.832031 C 7.9310809 33.69194 8.6045135 36.417371 9.8964844 38.771484 C 12.58355 43.667615 17.860231 47 24.005859 47 C 30.151293 47 35.422819 43.667652 38.107422 38.771484 C 39.398209 36.417353 40.070656 33.692444 39.986328 30.832031 C 39.904483 33.326093 39.246947 35.693224 38.107422 37.771484 C 35.422819 42.667652 30.151293 46 24.005859 46 C 17.860231 46 12.58355 42.667615 9.8964844 37.771484 C 8.7559141 35.693239 8.0974337 33.325721 8.015625 30.832031 z "
     id="path946" />
</svg>
