<?xml version="1.0" encoding="UTF-8" standalone="no"?>
<svg
   xmlns:dc="http://purl.org/dc/elements/1.1/"
   xmlns:cc="http://creativecommons.org/ns#"
   xmlns:rdf="http://www.w3.org/1999/02/22-rdf-syntax-ns#"
   xmlns:svg="http://www.w3.org/2000/svg"
   xmlns="http://www.w3.org/2000/svg"
   xmlns:xlink="http://www.w3.org/1999/xlink"
   xmlns:sodipodi="http://sodipodi.sourceforge.net/DTD/sodipodi-0.dtd"
   xmlns:inkscape="http://www.inkscape.org/namespaces/inkscape"
   id="svg2471"
   version="1.1"
   viewBox="0 0 12.7 12.7"
   height="48"
   width="48"
   sodipodi:docname="distributor-logo-ubuntu-mate.svg"
   inkscape:version="1.0.1 (3bc2e813f5, 2020-09-07)">
  <defs
     id="defs2465">
    <linearGradient
       inkscape:collect="always"
       id="linearGradient3834">
      <stop
         style="stop-color:#000000;stop-opacity:1;"
         offset="0"
         id="stop3830" />
      <stop
         style="stop-color:#000000;stop-opacity:0;"
         offset="1"
         id="stop3832" />
    </linearGradient>
    <linearGradient
       inkscape:collect="always"
       id="linearGradient3089">
      <stop
         style="stop-color:#ffffff;stop-opacity:1"
         offset="0"
         id="stop3085" />
      <stop
         style="stop-color:#ffffff;stop-opacity:0"
         offset="1"
         id="stop3087" />
    </linearGradient>
    <linearGradient
       inkscape:collect="always"
       id="linearGradient3065">
      <stop
         style="stop-color:#4c7c38;stop-opacity:1"
         offset="0"
         id="stop3061" />
      <stop
         style="stop-color:#87a556;stop-opacity:1"
         offset="1"
         id="stop3063" />
    </linearGradient>
    <linearGradient
       inkscape:collect="always"
       xlink:href="#linearGradient3065"
       id="linearGradient3067"
       x1="10.835676"
       y1="11.878944"
       x2="6.5044184"
       y2="1.8605574"
       gradientUnits="userSpaceOnUse" />
    <linearGradient
       inkscape:collect="always"
       xlink:href="#linearGradient3089"
       id="linearGradient4264"
       x1="6.8154321"
       y1="2.9858618"
       x2="6.7906308"
       y2="11.098285"
       gradientUnits="userSpaceOnUse" />
    <linearGradient
       inkscape:collect="always"
       xlink:href="#linearGradient3834"
       id="linearGradient4272"
       x1="2.4061389"
       y1="12.199605"
       x2="25.559141"
       y2="40.498539"
       gradientUnits="userSpaceOnUse" />
    <linearGradient
       inkscape:collect="always"
       xlink:href="#linearGradient3834"
       id="linearGradient4274"
       x1="24.383453"
       y1="28.754057"
       x2="34.026573"
       y2="39.472256"
       gradientUnits="userSpaceOnUse" />
    <linearGradient
       inkscape:collect="always"
       xlink:href="#linearGradient3834"
       id="linearGradient4276"
       x1="25.22242"
       y1="8.5764284"
       x2="40.640568"
       y2="24.747248"
       gradientUnits="userSpaceOnUse" />
  </defs>
  <sodipodi:namedview
     id="base"
     pagecolor="#ffffff"
     bordercolor="#666666"
     borderopacity="1.0"
     inkscape:pageopacity="0.0"
     inkscape:pageshadow="2"
     inkscape:zoom="8.78125"
     inkscape:cx="-2.2734404"
     inkscape:cy="20.487808"
     inkscape:document-units="px"
     inkscape:current-layer="layer1"
     inkscape:document-rotation="0"
     showgrid="false"
     units="px"
     inkscape:window-width="1920"
     inkscape:window-height="1017"
     inkscape:window-x="-8"
     inkscape:window-y="-8"
     inkscape:window-maximized="1"
     showguides="false" />
  <metadata
     id="metadata2468">
    <rdf:RDF>
      <cc:Work
         rdf:about="">
        <dc:format>image/svg+xml</dc:format>
        <dc:type
           rdf:resource="http://purl.org/dc/dcmitype/StillImage" />
        <dc:title></dc:title>
      </cc:Work>
    </rdf:RDF>
  </metadata>
  <g
     inkscape:label="레이어 1"
     inkscape:groupmode="layer"
     id="layer1">
    <path
       id="path3034"
       style="opacity:1;fill:url(#linearGradient3067);fill-opacity:1;stroke-width:0.41225"
       d="M 11.641666,6.3499999 A 5.2916665,5.2916665 0 0 1 6.3499999,11.641666 5.2916665,5.2916665 0 0 1 1.0583334,6.3499999 5.2916665,5.2916665 0 0 1 6.3499999,1.0583334 5.2916665,5.2916665 0 0 1 11.641666,6.3499999 Z" />
    <path
       id="path3034-8"
       style="opacity:1;fill:#376a36;fill-opacity:1;stroke-width:1.55811"
       d="M 43.994141,23.488281 A 19.999999,19.999999 0 0 1 24,43 19.999999,19.999999 0 0 1 4.0058594,23.511719 19.999999,19.999999 0 0 0 4,24 19.999999,19.999999 0 0 0 24,44 19.999999,19.999999 0 0 0 44,24 19.999999,19.999999 0 0 0 43.9941,23.488281 Z"
       transform="scale(0.26458333)" />
    <path
       id="path9"
       d="m 6.35,2.9521017 c -1.399168,0 -2.603151,0.852493 -3.122979,2.064303 l 0.40032,0.236331 c 0.432981,-1.076409 1.488465,-1.83279 2.722659,-1.83279 0.158758,0 0.313925,0.01408 0.465432,0.03858 V 2.9858617 C 6.663084,2.9647117 6.508296,2.9521017 6.35,2.9521017 Z m 0,1.155142 c -0.974595,0 -1.808116,0.629375 -2.114944,1.502405 l 0.414789,0.24598 C 4.862776,5.1160917 5.539475,4.5774977 6.35,4.5774977 c 0.160261,0 0.315395,0.02082 0.463021,0.06029 V 4.1578837 C 6.663432,4.1261137 6.508502,4.1072437 6.35,4.1072437 Z m 2.72507,0.21463 -0.402731,0.238744 c 0.380824,0.494337 0.607715,1.114973 0.607715,1.789382 0,0.687316 -0.235348,1.317051 -0.62942,1.81591 l 0.402732,0.238744 c 0.434766,-0.571053 0.694531,-1.283912 0.694531,-2.054654 0,-0.758915 -0.250197,-1.461524 -0.672827,-2.028126 z m -1.005623,0.595656 -0.407555,0.238744 c 0.28615,0.314664 0.460609,0.732473 0.460609,1.193726 0,0.474737 -0.185695,0.901266 -0.487136,1.21784 l 0.412378,0.243571 c 0.338839,-0.393277 0.545014,-0.90509 0.545014,-1.461411 0,-0.544028 -0.197704,-1.043016 -0.52331,-1.43247 z m -3.419602,1.926842 -0.414789,0.243567 c 0.30618,0.874094 1.139597,1.504818 2.114944,1.504818 0.158502,0 0.313432,-0.01886 0.463021,-0.05064 v -0.482315 c -0.147665,0.03878 -0.30273,0.06029 -0.463021,0.06029 -0.810525,0 -1.487224,-0.536765 -1.700155,-1.275717 z m -1.022504,0.602892 -0.40032,0.236332 C 3.746849,8.8954053 4.950832,9.747898 6.35,9.747898 c 0.156401,0 0.310085,-0.01283 0.460609,-0.03376 V 9.243883 C 6.660425,9.267593 6.507219,9.280053 6.35,9.280053 c -1.234194,0 -2.289678,-0.7563793 -2.722659,-1.8327893 z"
       style="color:#000000;font-style:normal;font-variant:normal;font-weight:normal;font-stretch:normal;font-size:medium;line-height:normal;font-family:Sans;-inkscape-font-specification:Sans;text-indent:0;text-align:start;text-decoration:none;text-decoration-line:none;letter-spacing:normal;word-spacing:normal;text-transform:none;writing-mode:lr-tb;direction:ltr;baseline-shift:baseline;text-anchor:start;display:inline;overflow:visible;visibility:visible;opacity:1;fill:url(#linearGradient4264);fill-opacity:1;stroke:none;stroke-width:0.0903454;marker:none;enable-background:accumulate"
       sodipodi:nodetypes="sccsccssccsccsccsccscccsccscccsccsscccsccsc" />
    <path
       id="path5227-8"
       d="m 2.416734,5.0742826 -0.0024,2.551435 2.160764,-1.2757179 z"
       style="display:inline;fill:#ffffff;fill-opacity:1;fill-rule:evenodd;stroke:none;stroke-width:0.0771702;enable-background:new"
       sodipodi:nodetypes="cccc" />
    <path
       id="path4158"
       style="opacity:0.3;fill:url(#linearGradient4274);fill-opacity:1;fill-rule:evenodd;stroke:none;stroke-width:0.291667"
       d="m 30.175781,34.435547 -2.685547,5.03125 3.333985,3.333984 a 19.999999,19.999999 0 0 0 7.814453,-5.173828 l -2.980469,-2.980469 z"
       transform="scale(0.26458333)" />
    <path
       id="path4158-6"
       style="opacity:0.3;fill:url(#linearGradient4276);fill-opacity:1;fill-rule:evenodd;stroke:none;stroke-width:0.291667"
       d="M 30.185547,13.291016 27.5,18.322266 41.964844,32.787109 A 19.999999,19.999999 0 0 0 44,24 19.999999,19.999999 0 0 0 43.867188,21.701172 l -8.199219,-8.199219 z"
       transform="scale(0.26458333)" />
    <path
       id="path4158-8"
       style="opacity:0.3;fill:url(#linearGradient4272);fill-opacity:1;fill-rule:evenodd;stroke:none;stroke-width:0.291667"
       d="M 11.810547,23.791016 9.125,28.822266 24.298828,43.996094 a 19.999999,19.999999 0 0 0 6.523438,-1.197266 l -3.332032,-3.332031 1.833985,-3.433594 -12.03125,-12.03125 z m 22.572265,17.300781 a 19.999999,19.999999 0 0 1 -0.154296,0.0957 19.999999,19.999999 0 0 0 0.15625,-0.09375 z"
       transform="scale(0.26458333)" />
    <path
       id="path5227"
       d="m 7.278453,2.2961574 -0.0024,2.5514353 2.160764,-1.275718 z m -4.861719,2.7781253 -0.0024,2.551435 2.160764,-1.275718 z m 4.859307,2.819119 -0.0024,2.5490273 2.160764,-1.2757197 z"
       style="display:inline;fill:#ffffff;fill-opacity:1;fill-rule:evenodd;stroke:none;stroke-width:0.0771702;enable-background:new" />
  </g>
</svg>
