<?xml version="1.0" encoding="UTF-8" standalone="no"?>
<!-- Created with Inkscape (http://www.inkscape.org/) -->

<svg
   xmlns:osb="http://www.openswatchbook.org/uri/2009/osb"
   xmlns:dc="http://purl.org/dc/elements/1.1/"
   xmlns:cc="http://creativecommons.org/ns#"
   xmlns:rdf="http://www.w3.org/1999/02/22-rdf-syntax-ns#"
   xmlns:svg="http://www.w3.org/2000/svg"
   xmlns="http://www.w3.org/2000/svg"
   xmlns:xlink="http://www.w3.org/1999/xlink"
   xmlns:sodipodi="http://sodipodi.sourceforge.net/DTD/sodipodi-0.dtd"
   xmlns:inkscape="http://www.inkscape.org/namespaces/inkscape"
   width="48"
   height="48"
   viewBox="0 0 48 48"
   id="svg4280"
   version="1.1"
   inkscape:version="0.92.3 (2405546, 2018-03-11)"
   sodipodi:docname="goodvibes.svg"
   inkscape:export-filename="/Users/jbx/Desktop/gooV5-0.png"
   inkscape:export-xdpi="300"
   inkscape:export-ydpi="300">
  <defs
     id="defs4282">
    <linearGradient
       inkscape:collect="always"
       id="linearGradient978">
      <stop
         style="stop-color:#838383;stop-opacity:1;"
         offset="0"
         id="stop974" />
      <stop
         style="stop-color:#838383;stop-opacity:0;"
         offset="1"
         id="stop976" />
    </linearGradient>
    <linearGradient
       inkscape:collect="always"
       id="linearGradient957">
      <stop
         style="stop-color:#000000;stop-opacity:1;"
         offset="0"
         id="stop953" />
      <stop
         style="stop-color:#000000;stop-opacity:0;"
         offset="1"
         id="stop955" />
    </linearGradient>
    <linearGradient
       inkscape:collect="always"
       id="linearGradient914">
      <stop
         style="stop-color:#dfdfdf;stop-opacity:1"
         offset="0"
         id="stop910" />
      <stop
         style="stop-color:#e1e1e1;stop-opacity:1"
         offset="1"
         id="stop912" />
    </linearGradient>
    <linearGradient
       inkscape:collect="always"
       id="linearGradient906">
      <stop
         style="stop-color:#8ec945;stop-opacity:1;"
         offset="0"
         id="stop902" />
      <stop
         style="stop-color:#2c9742;stop-opacity:1"
         offset="1"
         id="stop904" />
    </linearGradient>
    <linearGradient
       inkscape:collect="always"
       id="linearGradient888">
      <stop
         style="stop-color:#3a3a3a;stop-opacity:1;"
         offset="0"
         id="stop884" />
      <stop
         style="stop-color:#3a3a3a;stop-opacity:0;"
         offset="1"
         id="stop886" />
    </linearGradient>
    <linearGradient
       inkscape:collect="always"
       id="linearGradient880">
      <stop
         style="stop-color:#545454;stop-opacity:1;"
         offset="0"
         id="stop876" />
      <stop
         style="stop-color:#545454;stop-opacity:0;"
         offset="1"
         id="stop878" />
    </linearGradient>
    <linearGradient
       inkscape:collect="always"
       id="linearGradient872">
      <stop
         style="stop-color:#ababab;stop-opacity:1"
         offset="0"
         id="stop868" />
      <stop
         style="stop-color:#6a6a6a;stop-opacity:1"
         offset="1"
         id="stop870" />
    </linearGradient>
    <linearGradient
       inkscape:collect="always"
       id="linearGradient860">
      <stop
         style="stop-color:#ee9700;stop-opacity:1;"
         offset="0"
         id="stop856" />
      <stop
         style="stop-color:#ffe557;stop-opacity:1"
         offset="1"
         id="stop858" />
    </linearGradient>
    <linearGradient
       id="linearGradient4702"
       osb:paint="solid">
      <stop
         style="stop-color:#cc9122;stop-opacity:1;"
         offset="0"
         id="stop4704" />
    </linearGradient>
    <linearGradient
       inkscape:collect="always"
       xlink:href="#linearGradient860"
       id="linearGradient862"
       x1="165.76405"
       y1="543.95337"
       x2="159.93677"
       y2="510.62003"
       gradientUnits="userSpaceOnUse" />
    <linearGradient
       inkscape:collect="always"
       xlink:href="#linearGradient872"
       id="linearGradient874"
       x1="156.7485"
       y1="518.45941"
       x2="180.9872"
       y2="542.69812"
       gradientUnits="userSpaceOnUse" />
    <linearGradient
       inkscape:collect="always"
       xlink:href="#linearGradient880"
       id="linearGradient882"
       x1="156.7485"
       y1="516.45941"
       x2="179.7485"
       y2="543.45941"
       gradientUnits="userSpaceOnUse" />
    <linearGradient
       inkscape:collect="always"
       xlink:href="#linearGradient888"
       id="linearGradient890"
       x1="167.7485"
       y1="530.45941"
       x2="160.7485"
       y2="520.45941"
       gradientUnits="userSpaceOnUse" />
    <linearGradient
       inkscape:collect="always"
       xlink:href="#linearGradient906"
       id="linearGradient908"
       x1="145.30672"
       y1="519.49585"
       x2="145.55916"
       y2="523.6333"
       gradientUnits="userSpaceOnUse"
       gradientTransform="translate(0,-3)" />
    <linearGradient
       inkscape:collect="always"
       xlink:href="#linearGradient914"
       id="linearGradient916"
       x1="147.90138"
       y1="537.53583"
       x2="143.36702"
       y2="529.89209"
       gradientUnits="userSpaceOnUse" />
    <linearGradient
       inkscape:collect="always"
       xlink:href="#linearGradient957"
       id="linearGradient959"
       x1="9.0857763"
       y1="33.378685"
       x2="18.44825"
       y2="42.741158"
       gradientUnits="userSpaceOnUse" />
    <linearGradient
       inkscape:collect="always"
       xlink:href="#linearGradient957"
       id="linearGradient961"
       x1="10.96875"
       y1="21.390625"
       x2="16.705065"
       y2="27.12694"
       gradientUnits="userSpaceOnUse"
       gradientTransform="translate(134.7485,495.45942)" />
    <linearGradient
       inkscape:collect="always"
       xlink:href="#linearGradient957"
       id="linearGradient963"
       x1="27.807943"
       y1="21.808735"
       x2="43.27652"
       y2="37.277313"
       gradientUnits="userSpaceOnUse" />
    <linearGradient
       inkscape:collect="always"
       xlink:href="#linearGradient978"
       id="linearGradient980"
       x1="145.7485"
       y1="537.45941"
       x2="144.7485"
       y2="529.45941"
       gradientUnits="userSpaceOnUse" />
  </defs>
  <sodipodi:namedview
     id="base"
     pagecolor="#555753"
     bordercolor="#666666"
     borderopacity="1.0"
     inkscape:pageopacity="1"
     inkscape:pageshadow="2"
     inkscape:zoom="16.15"
     inkscape:cx="23.553864"
     inkscape:cy="18.056153"
     inkscape:document-units="px"
     inkscape:current-layer="layer1"
     showgrid="true"
     inkscape:window-width="1920"
     inkscape:window-height="1026"
     inkscape:window-x="0"
     inkscape:window-y="30"
     inkscape:window-maximized="1"
     units="px"
     fit-margin-left="0.5"
     fit-margin-right="0.5"
     fit-margin-top="0.5"
     fit-margin-bottom="0.5"
     showborder="true"
     inkscape:measure-start="0,0"
     inkscape:measure-end="0,0"
     inkscape:showpageshadow="false">
    <inkscape:grid
       type="xygrid"
       id="grid844" />
  </sodipodi:namedview>
  <metadata
     id="metadata4285">
    <rdf:RDF>
      <cc:Work
         rdf:about="">
        <dc:format>image/svg+xml</dc:format>
        <dc:type
           rdf:resource="http://purl.org/dc/dcmitype/StillImage" />
        <dc:title />
        <cc:license
           rdf:resource="https://www.gnu.org/licenses/gpl-3.0" />
        <dc:creator>
          <cc:Agent>
            <dc:title>Hector Lahminewski</dc:title>
          </cc:Agent>
        </dc:creator>
      </cc:Work>
    </rdf:RDF>
  </metadata>
  <g
     inkscape:label="Layer 1"
     inkscape:groupmode="layer"
     id="layer1"
     transform="translate(-134.7485,-498.45942)">
    <path
       style="color:#000000;font-style:normal;font-variant:normal;font-weight:normal;font-stretch:normal;font-size:medium;line-height:normal;font-family:sans-serif;font-variant-ligatures:normal;font-variant-position:normal;font-variant-caps:normal;font-variant-numeric:normal;font-variant-alternates:normal;font-feature-settings:normal;text-indent:0;text-align:start;text-decoration:none;text-decoration-line:none;text-decoration-style:solid;text-decoration-color:#000000;letter-spacing:normal;word-spacing:normal;text-transform:none;writing-mode:lr-tb;direction:ltr;text-orientation:mixed;dominant-baseline:auto;baseline-shift:baseline;text-anchor:start;white-space:normal;shape-padding:0;clip-rule:nonzero;display:inline;overflow:visible;visibility:visible;opacity:1;isolation:auto;mix-blend-mode:normal;color-interpolation:sRGB;color-interpolation-filters:linearRGB;solid-color:#000000;solid-opacity:1;vector-effect:none;fill:#909090;fill-opacity:1;fill-rule:nonzero;stroke:none;stroke-width:3;stroke-linecap:butt;stroke-linejoin:miter;stroke-miterlimit:4;stroke-dasharray:none;stroke-dashoffset:0;stroke-opacity:1;color-rendering:auto;image-rendering:auto;shape-rendering:auto;text-rendering:auto;enable-background:accumulate"
       d="m 176.21794,504.70447 -33.08122,7.16467 0.77539,2.89844 32.31895,-10.01321 v 0 z"
       id="path967"
       inkscape:connector-curvature="0"
       sodipodi:nodetypes="cccccc" />
    <path
       style="opacity:1;fill:#a8a8a8;fill-opacity:1;stroke:none;stroke-width:1.16375268;stroke-linecap:round;stroke-linejoin:round;stroke-miterlimit:4;stroke-dasharray:none;stroke-dashoffset:0;stroke-opacity:1;paint-order:normal"
       d="m 173.7485,504.0934 2.36602,-0.63398 0.31699,1.18302 0.31699,1.183 -2.36602,0.63398 z"
       id="rect969"
       inkscape:connector-curvature="0"
       sodipodi:nodetypes="cccccc" />
    <rect
       style="opacity:1;fill:url(#linearGradient862);fill-opacity:1;stroke:none;stroke-width:0.99863023;stroke-linecap:round;stroke-linejoin:round;stroke-miterlimit:4;stroke-dasharray:1.9972606, 0.99863029999999997;stroke-dashoffset:0;stroke-opacity:1;paint-order:normal"
       id="rect854"
       width="44"
       height="32"
       x="136.7485"
       y="511.45941"
       rx="8"
       ry="8" />
    <path
       style="opacity:0.2;fill:#000000;fill-opacity:1;stroke:none;stroke-width:0.43404385;stroke-linecap:round;stroke-linejoin:round;stroke-miterlimit:4;stroke-dasharray:0.86808769, 0.43404384000000001;stroke-dashoffset:0;stroke-opacity:1;paint-order:normal"
       d="M 10.5 29 A 0.5 0.5 0 0 0 10 29.5 A 0.5 0.5 0 0 0 10.5 30 A 0.5 0.5 0 0 0 11 29.5 A 0.5 0.5 0 0 0 10.5 29 z M 6.25 30.757812 A 0.5 0.5 0 0 0 5.9042969 30.904297 A 0.5 0.5 0 0 0 5.9042969 31.611328 A 0.5 0.5 0 0 0 6.6113281 31.611328 A 0.5 0.5 0 0 0 6.6113281 30.904297 A 0.5 0.5 0 0 0 6.25 30.757812 z M 14.734375 30.757812 A 0.5 0.5 0 0 0 14.388672 30.904297 A 0.5 0.5 0 0 0 14.388672 31.611328 A 0.5 0.5 0 0 0 15.095703 31.611328 A 0.5 0.5 0 0 0 15.095703 30.904297 A 0.5 0.5 0 0 0 14.734375 30.757812 z M 4.5 35 A 0.5 0.5 0 0 0 4 35.5 A 0.5 0.5 0 0 0 4.5 36 A 0.5 0.5 0 0 0 5 35.5 A 0.5 0.5 0 0 0 4.5 35 z M 16.5 35 A 0.5 0.5 0 0 0 16 35.5 A 0.5 0.5 0 0 0 16.5 36 A 0.5 0.5 0 0 0 17 35.5 A 0.5 0.5 0 0 0 16.5 35 z M 6.25 39.242188 A 0.5 0.5 0 0 0 5.9042969 39.388672 A 0.5 0.5 0 0 0 5.9042969 40.095703 A 0.5 0.5 0 0 0 6.6113281 40.095703 A 0.5 0.5 0 0 0 6.6113281 39.388672 A 0.5 0.5 0 0 0 6.25 39.242188 z M 14.734375 39.242188 A 0.5 0.5 0 0 0 14.388672 39.388672 A 0.5 0.5 0 0 0 14.388672 40.095703 A 0.5 0.5 0 0 0 15.095703 40.095703 A 0.5 0.5 0 0 0 15.095703 39.388672 A 0.5 0.5 0 0 0 14.734375 39.242188 z M 10.5 41 A 0.5 0.5 0 0 0 10 41.5 A 0.5 0.5 0 0 0 10.5 42 A 0.5 0.5 0 0 0 11 41.5 A 0.5 0.5 0 0 0 10.5 41 z "
       transform="translate(134.7485,498.45942)"
       id="path918" />
    <path
       style="opacity:0.3;fill:url(#linearGradient963);fill-opacity:1;stroke:none;stroke-width:1;stroke-linecap:round;stroke-linejoin:round;stroke-miterlimit:4;stroke-dasharray:2, 1;stroke-dashoffset:0;stroke-opacity:1;paint-order:normal"
       d="M 33.958984 18.878906 L 23.623047 24.263672 L 24.179688 24.820312 L 19.474609 32.435547 L 21.140625 37.136719 L 29.003906 45 L 38 45 C 42.432 45 46 41.432 46 37 L 46 28.072266 L 38.351562 20.423828 L 33.958984 18.878906 z "
       transform="translate(134.7485,498.45942)"
       id="rect929" />
    <path
       style="opacity:0.3;fill:url(#linearGradient959);fill-opacity:1;stroke:none;stroke-width:0.54019576;stroke-linecap:round;stroke-linejoin:round;stroke-miterlimit:4;stroke-dasharray:1.08039149, 0.54019574999999997;stroke-dashoffset:0;stroke-opacity:1;paint-order:normal"
       d="M 10.583984 31.919922 L 6.8105469 36.761719 L 7.2773438 38.644531 L 13.632812 45 L 26.324219 45 L 13.521484 32.197266 L 12.181641 32.072266 L 10.765625 32.101562 L 10.583984 31.919922 z "
       transform="translate(134.7485,498.45942)"
       id="rect933" />
    <path
       style="opacity:0.3;fill:url(#linearGradient961);fill-opacity:1;stroke:none;stroke-width:0.54019576;stroke-linecap:round;stroke-linejoin:round;stroke-miterlimit:4;stroke-dasharray:1.08039149, 0.54019575;stroke-dashoffset:0;stroke-opacity:1;paint-order:normal"
       d="m 150.62155,516.52973 -0.84375,0.22461 -1.61914,0.89649 -2.44141,-0.80078 -4.30859,2.21093 -0.56641,1.30274 20.09375,20.0957 h 11.8125 c 0.56095,0 1.10893,-0.0572 1.63672,-0.16602 z"
       id="rect941"
       inkscape:connector-curvature="0" />
    <path
       style="fill:url(#linearGradient916);fill-opacity:1;fill-rule:evenodd;stroke:none;stroke-width:0.12695943;stroke-miterlimit:4;stroke-dasharray:none;stroke-opacity:1"
       d="m 145.25244,529.45942 c 2.48534,10e-4 4.49843,2.01858 4.49606,4.50404 -0.003,2.48232 -2.01387,4.49405 -4.49606,4.49596 -2.48527,0.003 -4.50187,-2.01057 -4.50394,-4.49596 -0.003,-2.48853 2.01552,-4.50648 4.50394,-4.50404 z"
       id="path4591"
       inkscape:connector-curvature="0" />
    <path
       inkscape:connector-curvature="0"
       id="path892"
       d="m 143.48227,532.19011 c 0.97685,-0.97583 2.56013,-0.97418 3.53559,0.003 0.97444,0.97586 0.97431,2.55656 -5e-5,3.53241 -0.9756,0.977 -2.55832,0.97867 -3.53549,0.003 -0.97829,-0.97688 -0.97854,-2.56208 -5e-5,-3.53867 z"
       style="fill:url(#linearGradient980);fill-opacity:1;fill-rule:evenodd;stroke:none;stroke-width:0.07053301;stroke-miterlimit:4;stroke-dasharray:none;stroke-opacity:1" />
    <rect
       style="opacity:1;fill:#b22d2d;fill-opacity:1;stroke:none;stroke-width:1;stroke-linecap:round;stroke-linejoin:round;stroke-miterlimit:4;stroke-dasharray:2, 1;stroke-dashoffset:0;stroke-opacity:1;paint-order:normal"
       id="rect894"
       width="1"
       height="2"
       x="-275.36014"
       y="477.77252"
       transform="rotate(-45)" />
    <path
       style="fill:url(#linearGradient874);fill-opacity:1;fill-rule:evenodd;stroke:none;stroke-width:0.09268071;stroke-miterlimit:4;stroke-dasharray:none;stroke-opacity:1"
       d="m 164.74849,515.45942 c 6.6263,2e-5 11.99842,5.37084 12.00001,11.99708 0.002,6.62853 -5.37141,12.0029 -12.00001,12.00292 -6.62858,-2e-5 -12.00164,-5.37439 -11.99999,-12.00292 0.002,-6.62624 5.37369,-11.99706 11.99999,-11.99708 z"
       id="path850"
       inkscape:connector-curvature="0" />
    <path
       inkscape:connector-curvature="0"
       id="path864"
       d="m 164.7485,517.45942 c 5.52192,2e-5 9.99869,4.4757 10.00001,9.99757 10e-4,5.52377 -4.47618,10.00242 -10.00001,10.00243 -5.52381,-10e-6 -10.00137,-4.47866 -9.99999,-10.00243 10e-4,-5.52187 4.47808,-9.99755 9.99999,-9.99757 z"
       style="fill:url(#linearGradient882);fill-opacity:1;fill-rule:evenodd;stroke:none;stroke-width:0.07723392;stroke-miterlimit:4;stroke-dasharray:none;stroke-opacity:1" />
    <path
       style="fill:url(#linearGradient890);fill-opacity:1;fill-rule:evenodd;stroke:none;stroke-width:0.02317018;stroke-miterlimit:4;stroke-dasharray:none;stroke-opacity:1"
       d="m 164.7485,524.45942 c 1.65658,10e-6 2.9996,1.34271 3,2.99927 3e-4,1.65713 -1.34285,3.00073 -3,3.00073 -1.65715,0 -3.00041,-1.3436 -3,-3.00073 3e-4,-1.65656 1.34342,-2.99926 3,-2.99927 z"
       id="path866"
       inkscape:connector-curvature="0" />
    <path
       style="fill:url(#linearGradient908);fill-opacity:1;fill-rule:evenodd;stroke:none;stroke-width:0.09531531;stroke-miterlimit:4;stroke-dasharray:none;stroke-opacity:1"
       d="m 141.03706,516.45942 h 9.42288 c 0.16037,0 0.28856,0.17311 0.28856,0.38097 v 3.24489 c 0,0.20793 -0.12813,0.37414 -0.28856,0.37414 h -9.42288 c -0.16037,0 -0.28856,-0.16614 -0.28856,-0.37414 v -3.24489 c 0,-0.20793 0.12813,-0.38097 0.28856,-0.38097 z"
       id="path848"
       inkscape:connector-curvature="0" />
    <path
       style="opacity:0.2;fill:#000000;fill-opacity:1;stroke:none;stroke-width:0.99863023;stroke-linecap:round;stroke-linejoin:round;stroke-miterlimit:4;stroke-dasharray:1.9972606, 0.99863029999999997;stroke-dashoffset:0;stroke-opacity:1;paint-order:normal"
       d="M 2 36 L 2 37 C 2 41.432 5.568 45 10 45 L 38 45 C 42.432 45 46 41.432 46 37 L 46 36 C 46 40.432 42.432 44 38 44 L 10 44 C 5.568 44 2 40.432 2 36 z "
       transform="translate(134.7485,498.45942)"
       id="rect866" />
  </g>
</svg>
