<?xml version="1.0" encoding="UTF-8" standalone="no"?>
<!-- Generator: Adobe Illustrator 10.0, SVG Export Plug-In . SVG Version: 3.0.0 Build 43)  -->

<svg
   xmlns:a="http://ns.adobe.com/AdobeSVGViewerExtensions/3.0/"
   xmlns:dc="http://purl.org/dc/elements/1.1/"
   xmlns:cc="http://creativecommons.org/ns#"
   xmlns:rdf="http://www.w3.org/1999/02/22-rdf-syntax-ns#"
   xmlns:svg="http://www.w3.org/2000/svg"
   xmlns="http://www.w3.org/2000/svg"
   xmlns:xlink="http://www.w3.org/1999/xlink"
   xmlns:sodipodi="http://sodipodi.sourceforge.net/DTD/sodipodi-0.dtd"
   xmlns:inkscape="http://www.inkscape.org/namespaces/inkscape"
   width="48"
   height="48"
   viewBox="0 0 48 48"
   style="overflow:visible"
   xml:space="preserve"
   version="1.1"
   id="svg466"
   sodipodi:docname="ktouch.svg"
   inkscape:version="0.92.3 (2405546, 2018-03-11)"><metadata
   id="metadata472"><rdf:RDF><cc:Work
       rdf:about=""><dc:format>image/svg+xml</dc:format><dc:type
         rdf:resource="http://purl.org/dc/dcmitype/StillImage" /><dc:title /></cc:Work></rdf:RDF></metadata><defs
   id="defs470"><linearGradient
     inkscape:collect="always"
     id="linearGradient1794"><stop
       style="stop-color:#000000;stop-opacity:1;"
       offset="0"
       id="stop1790" /><stop
       style="stop-color:#000000;stop-opacity:0;"
       offset="1"
       id="stop1792" /></linearGradient><linearGradient
     inkscape:collect="always"
     id="linearGradient1776"><stop
       style="stop-color:#007d59;stop-opacity:1"
       offset="0"
       id="stop1772" /><stop
       style="stop-color:#17ae49;stop-opacity:1"
       offset="1"
       id="stop1774" /></linearGradient><linearGradient
     y2="82.6689"
     x2="126.9839"
     y1="144.2314"
     x1="126.9839"
     gradientUnits="userSpaceOnUse"
     id="XMLID_2_"
     gradientTransform="matrix(0.1640625,0,0,0.1640625,3,3)">
			<stop
   id="stop27"
   style="stop-color:#FFFFFF"
   offset="0" />
			<stop
   id="stop29"
   style="stop-color:#E9E9EF"
   offset="0.1629" />
			<stop
   id="stop31"
   style="stop-color:#CCCCCC"
   offset="1" />
			<a:midPointStop
   style="stop-color:#FFFFFF"
   offset="0" />
			<a:midPointStop
   style="stop-color:#FFFFFF"
   offset="0.5" />
			<a:midPointStop
   style="stop-color:#E9E9EF"
   offset="0.1629" />
			<a:midPointStop
   style="stop-color:#E9E9EF"
   offset="0.5" />
			<a:midPointStop
   style="stop-color:#CCCCCC"
   offset="1" />
		</linearGradient><linearGradient
     y2="168.8555"
     x2="164.5889"
     y1="230.418"
     x1="164.5889"
     gradientUnits="userSpaceOnUse"
     id="XMLID_26_"
     gradientTransform="matrix(0.19228921,0,0,0.19492543,-0.64868887,-1.9143288)">
			<stop
   id="stop347"
   style="stop-color:#FFFFFF"
   offset="0" />
			<stop
   id="stop349"
   style="stop-color:#E9E9EF"
   offset="0.1629" />
			<stop
   id="stop351"
   style="stop-color:#CCCCCC"
   offset="1" />
			<a:midPointStop
   style="stop-color:#FFFFFF"
   offset="0" />
			<a:midPointStop
   style="stop-color:#FFFFFF"
   offset="0.5" />
			<a:midPointStop
   style="stop-color:#E9E9EF"
   offset="0.1629" />
			<a:midPointStop
   style="stop-color:#E9E9EF"
   offset="0.5" />
			<a:midPointStop
   style="stop-color:#CCCCCC"
   offset="1" />
		</linearGradient><linearGradient
     inkscape:collect="always"
     xlink:href="#XMLID_2_"
     id="linearGradient1667"
     x1="30.843458"
     y1="31.322111"
     x2="32.812218"
     y2="44.291565"
     gradientUnits="userSpaceOnUse" /><linearGradient
     inkscape:collect="always"
     xlink:href="#XMLID_2_"
     id="linearGradient1685"
     gradientUnits="userSpaceOnUse"
     x1="30.843458"
     y1="31.322111"
     x2="32.812218"
     y2="44.291565"
     gradientTransform="translate(-14.000001)" /><linearGradient
     inkscape:collect="always"
     xlink:href="#XMLID_26_"
     id="linearGradient1687"
     gradientUnits="userSpaceOnUse"
     gradientTransform="matrix(0.19228921,0,0,0.19492543,-14.64869,-1.9143288)"
     x1="164.5889"
     y1="230.418"
     x2="164.5889"
     y2="168.8555" /><linearGradient
     inkscape:collect="always"
     xlink:href="#XMLID_2_"
     id="linearGradient1709"
     gradientUnits="userSpaceOnUse"
     x1="30.843458"
     y1="31.322111"
     x2="32.812218"
     y2="44.291565"
     gradientTransform="translate(-7,-14.000001)" /><linearGradient
     inkscape:collect="always"
     xlink:href="#XMLID_26_"
     id="linearGradient1711"
     gradientUnits="userSpaceOnUse"
     gradientTransform="matrix(0.19228921,0,0,0.19492543,-7.6486889,-15.91433)"
     x1="164.5889"
     y1="230.418"
     x2="164.5889"
     y2="168.8555" /><linearGradient
     inkscape:collect="always"
     xlink:href="#XMLID_2_"
     id="linearGradient1713"
     gradientUnits="userSpaceOnUse"
     x1="30.843458"
     y1="31.322111"
     x2="32.812218"
     y2="44.291565"
     gradientTransform="translate(-21.000001,-14.000001)" /><linearGradient
     inkscape:collect="always"
     xlink:href="#XMLID_26_"
     id="linearGradient1715"
     gradientUnits="userSpaceOnUse"
     gradientTransform="matrix(0.19228921,0,0,0.19492543,-21.64869,-15.91433)"
     x1="164.5889"
     y1="230.418"
     x2="164.5889"
     y2="168.8555" /><linearGradient
     inkscape:collect="always"
     xlink:href="#XMLID_2_"
     id="linearGradient1727"
     gradientUnits="userSpaceOnUse"
     x1="30.843458"
     y1="31.322111"
     x2="32.812218"
     y2="44.291565"
     gradientTransform="translate(6.999999,-14.000001)" /><linearGradient
     inkscape:collect="always"
     xlink:href="#XMLID_26_"
     id="linearGradient1729"
     gradientUnits="userSpaceOnUse"
     gradientTransform="matrix(0.19228921,0,0,0.19492543,6.3513101,-15.91433)"
     x1="164.5889"
     y1="230.418"
     x2="164.5889"
     y2="168.8555" /><linearGradient
     inkscape:collect="always"
     xlink:href="#XMLID_26_"
     id="linearGradient1747"
     gradientUnits="userSpaceOnUse"
     gradientTransform="matrix(0.19228921,0,0,0.19492543,-0.64868887,-1.9143288)"
     x1="164.5889"
     y1="230.418"
     x2="164.5889"
     y2="168.8555" /><linearGradient
     inkscape:collect="always"
     xlink:href="#linearGradient1776"
     id="linearGradient1778"
     x1="26.372477"
     y1="13.818098"
     x2="24.396067"
     y2="5.4798369"
     gradientUnits="userSpaceOnUse"
     gradientTransform="matrix(1.0222867,0,0,1.0137027,-0.34795748,-0.27030961)" /><linearGradient
     inkscape:collect="always"
     xlink:href="#linearGradient1794"
     id="linearGradient1796"
     x1="22.414072"
     y1="19"
     x2="40.076004"
     y2="36.661934"
     gradientUnits="userSpaceOnUse" /></defs><sodipodi:namedview
   pagecolor="#ffffff"
   bordercolor="#666666"
   borderopacity="1"
   objecttolerance="10"
   gridtolerance="10"
   guidetolerance="10"
   inkscape:pageopacity="0"
   inkscape:pageshadow="2"
   inkscape:window-width="1920"
   inkscape:window-height="1020"
   id="namedview468"
   showgrid="true"
   inkscape:zoom="6.86"
   inkscape:cx="20.707446"
   inkscape:cy="16.365073"
   inkscape:window-x="0"
   inkscape:window-y="30"
   inkscape:window-maximized="1"
   inkscape:current-layer="svg466"><inkscape:grid
     type="xygrid"
     id="grid1780" /></sodipodi:namedview>
	
<path
   inkscape:connector-curvature="0"
   id="path330"
   d="m 25.579491,31.000001 c -0.871193,0 -1.57949,0.698682 -1.57949,1.557628 v 10.884913 c 0,0.858946 0.708488,1.557459 1.57949,1.557459 h 10.84102 c 0.87081,0 1.57949,-0.698513 1.57949,-1.557459 V 32.557629 c 0,-0.858946 -0.70868,-1.557628 -1.57949,-1.557628 z"
   style="opacity:1;fill:url(#linearGradient1667);fill-opacity:1;stroke:none;stroke-width:0.17911194" /><path
   inkscape:connector-curvature="0"
   id="path354"
   d="M 37,41.904325 C 37,42.509569 36.516009,43 35.918951,43 H 26.081242 C 25.484184,43 25,42.509569 25,41.904325 V 32.095871 C 25,31.490629 25.484184,31 26.081242,31 h 9.837709 C 36.516009,31 37,31.490629 37,32.095871 Z"
   style="fill:url(#linearGradient1747);stroke:none;stroke-width:0.19360286" /><path
   style="fill:#5d5d5d;fill-opacity:1;stroke:none;stroke-width:0.17709091"
   d="m 27.134362,35.279817 c 0.173057,0.09082 0.450125,0.181106 0.73163,0.181106 0.302982,0 0.463082,-0.125096 0.463082,-0.318747 0,-0.177042 -0.138446,-0.284822 -0.489351,-0.405325 C 27.354988,34.56458 27.034611,34.297249 27.034611,33.870546 27.034611,33.374933 27.454384,33 28.1388,33 c 0.333156,0 0.571352,0.06468 0.744409,0.146475 l -0.147142,0.525826 c -0.112532,-0.05602 -0.324636,-0.137994 -0.606142,-0.137994 -0.285765,0 -0.424387,0.133754 -0.424387,0.280228 0,0.185523 0.160277,0.267508 0.541179,0.413983 C 28.761981,34.418105 29,34.685258 29,35.099064 29,35.586195 28.627795,36 27.826943,36 27.493432,36 27.164537,35.90918 27,35.818894 Z"
   id="path416"
   inkscape:connector-curvature="0" /><path
   inkscape:connector-curvature="0"
   id="path454"
   d="M 28,11 V 4.8081032 C 28,4.3625571 27.626497,4 27.201833,4 h -6.44175 C 20.335419,4 20.000725,4.362724 20,4.8081032 V 11 H 17 L 23.999916,17 31,11 Z"
   style="fill:url(#linearGradient1778);fill-opacity:1;stroke:none;stroke-width:0.16701326"
   sodipodi:nodetypes="cssssccccc" /><path
   inkscape:connector-curvature="0"
   id="path463"
   d="M 45,45 H 3 V 3 h 42 z"
   style="opacity:0.2;fill:none;stroke:none;stroke-width:0.1640625" /><path
   style="opacity:1;fill:url(#linearGradient1685);fill-opacity:1;stroke:none;stroke-width:0.17911194"
   d="M 11.57949,31.000001 C 10.708297,31.000001 10,31.698683 10,32.557629 v 10.884913 c 0,0.858946 0.708488,1.557459 1.57949,1.557459 H 22.42051 C 23.29132,45.000001 24,44.301488 24,43.442542 V 32.557629 c 0,-0.858946 -0.70868,-1.557628 -1.57949,-1.557628 z"
   id="path1675"
   inkscape:connector-curvature="0" /><path
   style="fill:url(#linearGradient1687);stroke:none;stroke-width:0.19360286"
   d="M 22.999999,41.904325 C 22.999999,42.509569 22.516008,43 21.91895,43 h -9.837709 c -0.597058,0 -1.081242,-0.490431 -1.081242,-1.095675 V 32.095871 C 10.999999,31.490629 11.484183,31 12.081241,31 h 9.837709 c 0.597058,0 1.081049,0.490629 1.081049,1.095871 z"
   id="path1677"
   inkscape:connector-curvature="0" /><path
   style="opacity:1;fill:url(#linearGradient1709);fill-opacity:1;stroke:none;stroke-width:0.17911194"
   d="m 18.579491,17 c -0.871193,0 -1.57949,0.698682 -1.57949,1.557628 v 10.884913 c 0,0.858946 0.708488,1.557459 1.57949,1.557459 h 10.84102 c 0.87081,0 1.57949,-0.698513 1.57949,-1.557459 V 18.557628 C 31.000001,17.698682 30.291321,17 29.420511,17 Z"
   id="path1689"
   inkscape:connector-curvature="0" /><path
   style="fill:url(#linearGradient1711);stroke:none;stroke-width:0.19360286"
   d="m 30,27.904324 c 0,0.605244 -0.483991,1.095675 -1.081049,1.095675 H 19.081242 C 18.484184,28.999999 18,28.509568 18,27.904324 V 18.09587 c 0,-0.605242 0.484184,-1.095871 1.081242,-1.095871 h 9.837709 C 29.516009,16.999999 30,17.490628 30,18.09587 Z"
   id="path1691"
   inkscape:connector-curvature="0" /><path
   inkscape:connector-curvature="0"
   id="path1699"
   d="M 4.57949,17 C 3.708297,17 3,17.698682 3,18.557628 V 29.442541 C 3,30.301487 3.708488,31 4.57949,31 H 15.42051 C 16.29132,31 17,30.301487 17,29.442541 V 18.557628 C 17,17.698682 16.29132,17 15.42051,17 Z"
   style="opacity:1;fill:url(#linearGradient1713);fill-opacity:1;stroke:none;stroke-width:0.17911194" /><path
   inkscape:connector-curvature="0"
   id="path1701"
   d="m 15.999999,27.904324 c 0,0.605244 -0.483991,1.095675 -1.081049,1.095675 H 5.081241 c -0.597058,0 -1.081242,-0.490431 -1.081242,-1.095675 V 18.09587 c 0,-0.605242 0.484184,-1.095871 1.081242,-1.095871 h 9.837709 c 0.597058,0 1.081049,0.490629 1.081049,1.095871 z"
   style="fill:url(#linearGradient1715);stroke:none;stroke-width:0.19360286" /><path
   inkscape:connector-curvature="0"
   id="path1717"
   d="M 32.57949,17 C 31.708297,17 31,17.698682 31,18.557628 V 29.442541 C 31,30.301487 31.708488,31 32.57949,31 H 43.42051 C 44.29132,31 45,30.301487 45,29.442541 V 18.557628 C 45,17.698682 44.29132,17 43.42051,17 Z"
   style="opacity:1;fill:url(#linearGradient1727);fill-opacity:1;stroke:none;stroke-width:0.17911194" /><path
   inkscape:connector-curvature="0"
   id="path1719"
   d="m 43.999999,27.904324 c 0,0.605244 -0.483991,1.095675 -1.081049,1.095675 h -9.837709 c -0.597058,0 -1.081242,-0.490431 -1.081242,-1.095675 V 18.09587 c 0,-0.605242 0.484184,-1.095871 1.081242,-1.095871 h 9.837709 c 0.597058,0 1.081049,0.490629 1.081049,1.095871 z"
   style="fill:url(#linearGradient1729);stroke:none;stroke-width:0.19360286" /><path
   style="fill:#5d5d5d;fill-opacity:1;stroke:none;stroke-width:0.19666421"
   d="M 8.8018263,23 C 8.3595719,22.86017 7.9909951,22.710309 7.5714107,22.525643 7.5022671,22.495752 7.4285895,22.480807 7.359446,22.475689 6.6545971,22.425735 6.0000001,21.866415 6.0000001,20.767633 6.0000001,19.754018 6.5899875,19 7.520781,19 c 0.9445844,0 1.4654282,0.778995 1.4654282,1.69782 0,0.76405 -0.327204,1.303511 -0.7326196,1.503327 v 0.01986 c 0.2350126,0.07493 0.502141,0.134916 0.7464106,0.189988 z M 7.497922,21.871328 c 0.4743703,0 0.7464106,-0.484389 0.7464106,-1.143617 0,-0.614188 -0.2673174,-1.123555 -0.7464106,-1.123555 -0.479471,0 -0.7558564,0.504453 -0.7558564,1.138704 0,0.644079 0.2812972,1.128468 0.7513224,1.128468 z"
   id="path408"
   inkscape:connector-curvature="0" /><path
   style="fill:#5d5d5d;fill-opacity:1;stroke:none;stroke-width:0.18652695"
   d="M 21.244053,22 20.5,19.000182 h 0.757973 l 0.237403,1.23288 c 0.06979,0.36054 0.134814,0.747719 0.185918,1.054798 h 0.0093 c 0.0511,-0.329339 0.125662,-0.690062 0.204796,-1.063921 L 22.160485,19 h 0.753588 l 0.251132,1.26408 c 0.06979,0.351599 0.120894,0.671998 0.167421,1.005899 h 0.0092 c 0.04653,-0.333901 0.116318,-0.6855 0.181532,-1.04604 L 23.77902,19 H 24.5 l -0.809267,2.999818 h -0.767508 l -0.265052,-1.290719 c -0.06045,-0.302518 -0.11155,-0.582959 -0.148734,-0.9258 h -0.0093 c -0.05568,0.33828 -0.107165,0.623282 -0.181341,0.9258 l -0.29785,1.290719 h -0.776851 z"
   id="path420"
   inkscape:connector-curvature="0" /><path
   sodipodi:nodetypes="ccccccccccccc"
   style="fill:#5d5d5d;fill-opacity:1;stroke:none;stroke-width:0.18675087"
   d="m 35.865061,20.575986 h -1.156345 v 0.867661 H 36 V 22 h -2 v -3 h 1.934824 v 0.556353 h -1.226108 v 0.46766 h 1.156345 z"
   id="path424"
   inkscape:connector-curvature="0" /><path
   sodipodi:nodetypes="cccccccccccccccc"
   style="fill:#5d5d5d;fill-opacity:1;stroke:none;stroke-width:0.19102745"
   d="M 13.999867,35.029467 13.770697,36 H 13 l 1.004866,-3 h 0.970871 L 16,36 H 15.200107 L 14.94654,35.029467 Z M 14.734,34.522533 14.629383,34.085949 c -0.05379,-0.17792 -0.112585,-0.404927 -0.161179,-0.578832 h -0.0146 c -0.04379,0.178467 -0.09759,0.404927 -0.14638,0.578832 L 14.207,34.522533 Z"
   id="path412"
   inkscape:connector-curvature="0" /><path
   inkscape:connector-curvature="0"
   style="opacity:0.2;fill:url(#linearGradient1796);fill-opacity:1;stroke:none;stroke-width:4.46543407;stroke-linecap:round;stroke-linejoin:round;stroke-miterlimit:4;stroke-dasharray:none;stroke-dashoffset:0;stroke-opacity:1;paint-order:normal"
   d="m 29.660156,17.310547 -0.193359,1.25 -0.361328,9.789062 L 18.210938,28.554688 34.65625,45 H 45 V 32.650391 Z"
   id="rect1782" /><path
   inkscape:connector-curvature="0"
   style="color:#000000;font-style:normal;font-variant:normal;font-weight:normal;font-stretch:normal;font-size:medium;line-height:normal;font-family:sans-serif;font-variant-ligatures:normal;font-variant-position:normal;font-variant-caps:normal;font-variant-numeric:normal;font-variant-alternates:normal;font-feature-settings:normal;text-indent:0;text-align:start;text-decoration:none;text-decoration-line:none;text-decoration-style:solid;text-decoration-color:#000000;letter-spacing:normal;word-spacing:normal;text-transform:none;writing-mode:lr-tb;direction:ltr;text-orientation:mixed;dominant-baseline:auto;baseline-shift:baseline;text-anchor:start;white-space:normal;shape-padding:0;clip-rule:nonzero;display:inline;overflow:visible;visibility:visible;opacity:1;isolation:auto;mix-blend-mode:normal;color-interpolation:sRGB;color-interpolation-filters:linearRGB;solid-color:#000000;solid-opacity:1;vector-effect:none;fill:#de4a4a;fill-opacity:1;fill-rule:nonzero;stroke:none;stroke-width:4;stroke-linecap:butt;stroke-linejoin:miter;stroke-miterlimit:4;stroke-dasharray:none;stroke-dashoffset:0;stroke-opacity:1;color-rendering:auto;image-rendering:auto;shape-rendering:auto;text-rendering:auto;enable-background:accumulate"
   d="M 19.082031,17 C 18.484973,17 18,17.490461 18,18.095703 v 9.808594 C 18,28.509541 18.484973,29 19.082031,29 h 9.837891 C 29.51698,29 30,28.509541 30,27.904297 V 18.095703 C 30,17.490461 29.51698,17 28.919922,17 Z M 19,18 H 29 V 28 H 19 Z"
   id="path1767" /></svg>