<?xml version="1.0" encoding="UTF-8" standalone="no"?>
<svg
   xmlns:dc="http://purl.org/dc/elements/1.1/"
   xmlns:cc="http://creativecommons.org/ns#"
   xmlns:rdf="http://www.w3.org/1999/02/22-rdf-syntax-ns#"
   xmlns:svg="http://www.w3.org/2000/svg"
   xmlns="http://www.w3.org/2000/svg"
   xmlns:xlink="http://www.w3.org/1999/xlink"
   xmlns:sodipodi="http://sodipodi.sourceforge.net/DTD/sodipodi-0.dtd"
   xmlns:inkscape="http://www.inkscape.org/namespaces/inkscape"
   width="48"
   height="48"
   version="1.1"
   id="svg14"
   sodipodi:docname="leonflix.svg"
   inkscape:version="0.92.3 (2405546, 2018-03-11)">
  <metadata
     id="metadata20">
    <rdf:RDF>
      <cc:Work
         rdf:about="">
        <dc:format>image/svg+xml</dc:format>
        <dc:type
           rdf:resource="http://purl.org/dc/dcmitype/StillImage" />
        <dc:title />
      </cc:Work>
    </rdf:RDF>
  </metadata>
  <defs
     id="defs18">
    <linearGradient
       inkscape:collect="always"
       id="linearGradient857">
      <stop
         style="stop-color:#000000;stop-opacity:1;"
         offset="0"
         id="stop853" />
      <stop
         style="stop-color:#000000;stop-opacity:0;"
         offset="1"
         id="stop855" />
    </linearGradient>
    <linearGradient
       inkscape:collect="always"
       id="linearGradient839">
      <stop
         style="stop-color:#15913c;stop-opacity:1"
         offset="0"
         id="stop835" />
      <stop
         style="stop-color:#62e9d1;stop-opacity:1"
         offset="1"
         id="stop837" />
    </linearGradient>
    <linearGradient
       inkscape:collect="always"
       xlink:href="#a"
       id="linearGradient833"
       x1="33.328289"
       y1="43.678333"
       x2="23.375591"
       y2="2.6187322"
       gradientUnits="userSpaceOnUse" />
    <linearGradient
       inkscape:collect="always"
       xlink:href="#linearGradient839"
       id="linearGradient841"
       x1="27.025352"
       y1="40.605888"
       x2="21.949028"
       y2="5.5331073"
       gradientUnits="userSpaceOnUse" />
    <linearGradient
       inkscape:collect="always"
       xlink:href="#linearGradient857"
       id="linearGradient859"
       x1="25.107449"
       y1="18.543863"
       x2="40.246574"
       y2="33.682991"
       gradientUnits="userSpaceOnUse" />
    <linearGradient
       id="a"
       y1="785.71002"
       y2="727.71002"
       gradientUnits="userSpaceOnUse"
       x2="0"
       gradientTransform="matrix(0.72727,0,0,0.68966,-433.17398,-484.28383)">
      <stop
         stop-color="#2a2c2f"
         id="stop2" />
      <stop
         offset="1"
         stop-color="#424649"
         id="stop4" />
    </linearGradient>
  </defs>
  <sodipodi:namedview
     pagecolor="#ffffff"
     bordercolor="#666666"
     borderopacity="1"
     objecttolerance="10"
     gridtolerance="10"
     guidetolerance="10"
     inkscape:pageopacity="0"
     inkscape:pageshadow="2"
     inkscape:window-width="1920"
     inkscape:window-height="1026"
     id="namedview16"
     showgrid="false"
     inkscape:zoom="11.33"
     inkscape:cx="-16.423654"
     inkscape:cy="13.754127"
     inkscape:window-x="0"
     inkscape:window-y="30"
     inkscape:window-maximized="1"
     inkscape:current-layer="svg14" />
  <path
     inkscape:connector-curvature="0"
     style="fill:url(#linearGradient833);fill-opacity:1"
     d="M 24,4 A 20,20 0 0 0 4,24 20,20 0 0 0 24,44 20,20 0 0 0 44,24 20,20 0 0 0 24,4 Z"
     id="path4" />
  <path
     style="opacity:0.3;fill:url(#linearGradient859);fill-opacity:1;stroke:none;stroke-width:3;stroke-linecap:round;stroke-linejoin:round;stroke-miterlimit:4;stroke-dasharray:none;stroke-dashoffset:0;stroke-opacity:1;paint-order:normal"
     d="m 28.75,11.975633 5.010672,2.138489 3.553135,4.8751 -0.664521,5.254106 -2.522697,8.774744 -9.199389,1.344139 -12.44111,0.7104 8.707269,8.708639 C 22.122606,43.920001 23.060476,43.993098 24,44 35.045695,44 44,35.045695 44,24 43.992,23.054468 43.91693,22.110694 43.775391,21.175781 l -9.005154,-9.005153 z"
     id="rect843"
     inkscape:connector-curvature="0"
     sodipodi:nodetypes="ccccccccccccc" />
  <path
     inkscape:connector-curvature="0"
     style="fill:url(#linearGradient841);fill-opacity:1"
     d="M 24,8 A 16,16 0 0 0 8,24 16,16 0 0 0 24,40 16,16 0 0 0 40,24 16,16 0 0 0 24,8 Z m 8.166016,8 H 35 v 3.017578 h -1.449219 c -0.524138,0 -0.888806,0.09516 -1.095703,0.28711 C 32.248182,19.489778 32,19.815097 32,20.28125 V 21 h 3 v 3 h -3 v 8 h -4 v -8 h -2 v -3 h 2 v -1.318359 c 0,-1.254499 0.193036,-2.180943 0.896484,-2.777344 C 29.599933,16.301042 30.690153,16 32.166016,16 Z M 14,18 h 4 v 11 h 6 v 3 H 14 Z"
     id="path10" />
  <path
     style="fill:#000000;fill-opacity:1;opacity:0.2"
     d="M 4.0214844 23.417969 A 20 20 0 0 0 4 24 A 20 20 0 0 0 24 44 A 20 20 0 0 0 44 24 A 20 20 0 0 0 43.978516 23.582031 A 20 20 0 0 1 24 43 A 20 20 0 0 1 4.0214844 23.417969 z "
     id="path826" />
</svg>
