<?xml version="1.0" encoding="UTF-8" standalone="no"?>
<svg
   xmlns:dc="http://purl.org/dc/elements/1.1/"
   xmlns:cc="http://creativecommons.org/ns#"
   xmlns:rdf="http://www.w3.org/1999/02/22-rdf-syntax-ns#"
   xmlns:svg="http://www.w3.org/2000/svg"
   xmlns="http://www.w3.org/2000/svg"
   xmlns:xlink="http://www.w3.org/1999/xlink"
   xmlns:sodipodi="http://sodipodi.sourceforge.net/DTD/sodipodi-0.dtd"
   xmlns:inkscape="http://www.inkscape.org/namespaces/inkscape"
   width="48"
   height="48"
   version="1.1"
   id="svg111"
   sodipodi:docname="pan.svg"
   inkscape:version="0.92.3 (2405546, 2018-03-11)">
  <metadata
     id="metadata115">
    <rdf:RDF>
      <cc:Work
         rdf:about="">
        <dc:format>image/svg+xml</dc:format>
        <dc:type
           rdf:resource="http://purl.org/dc/dcmitype/StillImage" />
        <dc:title></dc:title>
      </cc:Work>
    </rdf:RDF>
  </metadata>
  <sodipodi:namedview
     pagecolor="#ffffff"
     bordercolor="#666666"
     borderopacity="1"
     objecttolerance="10"
     gridtolerance="10"
     guidetolerance="10"
     inkscape:pageopacity="0"
     inkscape:pageshadow="2"
     inkscape:window-width="1920"
     inkscape:window-height="1026"
     id="namedview113"
     showgrid="true"
     inkscape:zoom="8"
     inkscape:cx="11.891969"
     inkscape:cy="30.12035"
     inkscape:window-x="0"
     inkscape:window-y="30"
     inkscape:window-maximized="1"
     inkscape:current-layer="svg111">
    <inkscape:grid
       type="xygrid"
       id="grid1045" />
  </sodipodi:namedview>
  <defs
     id="defs33">
    <linearGradient
       inkscape:collect="always"
       id="linearGradient1178">
      <stop
         style="stop-color:#000000;stop-opacity:1;"
         offset="0"
         id="stop1174" />
      <stop
         style="stop-color:#000000;stop-opacity:0;"
         offset="1"
         id="stop1176" />
    </linearGradient>
    <linearGradient
       inkscape:collect="always"
       id="linearGradient1091">
      <stop
         style="stop-color:#aeaeae;stop-opacity:1;"
         offset="0"
         id="stop1087" />
      <stop
         style="stop-color:#cfcfcf;stop-opacity:1"
         offset="1"
         id="stop1089" />
    </linearGradient>
    <linearGradient
       id="a"
       y1="541.8"
       y2="505.8"
       x2="0"
       gradientUnits="userSpaceOnUse"
       gradientTransform="matrix(1.375,0,0,1.375,-537.78375,-688.475)">
      <stop
         stop-color="#bdc3c7"
         id="stop2" />
      <stop
         offset="1"
         stop-color="#eff0f1"
         id="stop4" />
    </linearGradient>
    <linearGradient
       inkscape:collect="always"
       xlink:href="#linearGradient1091"
       id="linearGradient1093"
       x1="38"
       y1="15"
       x2="37"
       y2="9"
       gradientUnits="userSpaceOnUse" />
    <linearGradient
       inkscape:collect="always"
       xlink:href="#linearGradient1091"
       id="linearGradient1099"
       gradientUnits="userSpaceOnUse"
       x1="38"
       y1="15"
       x2="37"
       y2="9"
       gradientTransform="matrix(1.2666667,0,0,3.1666667,-30.200001,-9.4999989)" />
    <linearGradient
       inkscape:collect="always"
       xlink:href="#linearGradient1178"
       id="linearGradient1180"
       x1="23"
       y1="9"
       x2="27"
       y2="13"
       gradientUnits="userSpaceOnUse" />
    <linearGradient
       inkscape:collect="always"
       xlink:href="#linearGradient1178"
       id="linearGradient1182"
       x1="18"
       y1="9"
       x2="22"
       y2="13"
       gradientUnits="userSpaceOnUse" />
    <linearGradient
       inkscape:collect="always"
       xlink:href="#linearGradient1178"
       id="linearGradient1203"
       x1="13"
       y1="9"
       x2="17"
       y2="13"
       gradientUnits="userSpaceOnUse" />
    <linearGradient
       inkscape:collect="always"
       xlink:href="#linearGradient1178"
       id="linearGradient1219"
       x1="7.6738281"
       y1="9"
       x2="11.836914"
       y2="13.163086"
       gradientUnits="userSpaceOnUse" />
  </defs>
  <path
     inkscape:connector-curvature="0"
     style="fill:url(#a);stroke-width:1.375"
     id="path37"
     d="M 2,7 V 40 H 46 V 7 Z" />
  <path
     style="fill:#aeaeae;stroke-width:1.94935894"
     d="M 25 17 L 25 18 L 27 18 L 27 17 L 25 17 z M 28 17 L 28 18 L 43 18 L 43 17 L 28 17 z M 25 19 L 25 20 L 32 20 L 33 20 L 41 20 L 42 20 L 44 20 L 44 19 L 43 19 L 28 19 L 27 19 L 25 19 z M 25 21 L 25 22 L 27 22 L 28 22 L 32 22 L 32 21 L 25 21 z M 33 21 L 33 22 L 41 22 L 41 21 L 33 21 z M 42 21 L 42 22 L 44 22 L 44 21 L 42 21 z M 25 23 L 25 24 L 27 24 L 27 23 L 25 23 z M 28 23 L 28 24 L 44 24 L 44 23 L 42 23 L 41 23 L 33 23 L 32 23 L 28 23 z M 25 25 L 25 26 L 26 26 L 27 26 L 37 26 L 38 26 L 44 26 L 44 25 L 28 25 L 27 25 L 25 25 z M 25 27 L 25 28 L 26 28 L 26 27 L 25 27 z M 27 27 L 27 28 L 33 28 L 34 28 L 37 28 L 37 27 L 27 27 z M 38 27 L 38 28 L 44 28 L 44 27 L 38 27 z M 25 29 L 25 30 L 29 30 L 30 30 L 33 30 L 33 29 L 27 29 L 26 29 L 25 29 z M 34 29 L 34 30 L 44 30 L 44 29 L 38 29 L 37 29 L 34 29 z M 25 31 L 25 32 L 29 32 L 29 31 L 25 31 z M 30 31 L 30 32 L 31 32 L 32 32 L 43 32 L 44 32 L 44 31 L 34 31 L 33 31 L 30 31 z M 25 33 L 25 34 L 31 34 L 31 33 L 30 33 L 29 33 L 25 33 z M 32 33 L 32 34 L 41 34 L 42 34 L 43 34 L 43 33 L 32 33 z M 25 35 L 25 36 L 30 36 L 31 36 L 33 36 L 34 36 L 41 36 L 41 35 L 32 35 L 31 35 L 25 35 z M 42 35 L 42 36 L 44 36 L 44 35 L 43 35 L 42 35 z M 25 37 L 25 38 L 30 38 L 30 37 L 25 37 z M 31 37 L 31 38 L 33 38 L 33 37 L 31 37 z M 34 37 L 34 38 L 44 38 L 44 37 L 42 37 L 41 37 L 34 37 z "
     id="rect71" />
  <rect
     style="opacity:1;fill:url(#linearGradient1093);fill-opacity:1;stroke:none;stroke-width:3.75734568;stroke-linecap:round;stroke-linejoin:round;stroke-miterlimit:4;stroke-dasharray:none;stroke-dashoffset:0;stroke-opacity:1;paint-order:normal"
     id="rect1085"
     width="15"
     height="6"
     x="27"
     y="9" />
  <rect
     style="opacity:0.2;fill:#000000;fill-opacity:1;stroke:none;stroke-width:4;stroke-linecap:round;stroke-linejoin:round;stroke-miterlimit:4;stroke-dasharray:none;stroke-dashoffset:0;stroke-opacity:1;paint-order:normal"
     id="rect1095"
     width="44"
     height="1"
     x="2"
     y="39" />
  <rect
     y="19"
     x="4"
     height="19"
     width="19"
     id="rect1097"
     style="opacity:1;fill:url(#linearGradient1099);fill-opacity:1;stroke:none;stroke-width:7.52512121;stroke-linecap:round;stroke-linejoin:round;stroke-miterlimit:4;stroke-dasharray:none;stroke-dashoffset:0;stroke-opacity:1;paint-order:normal" />
  <path
     style="opacity:0.2;fill:url(#linearGradient1180);fill-opacity:1;stroke:none;stroke-width:4.92705393;stroke-linecap:round;stroke-linejoin:round;stroke-miterlimit:4;stroke-dasharray:none;stroke-dashoffset:0;stroke-opacity:1;paint-order:normal"
     d="M 18 9 L 17 13 L 17 17 L 19 19 L 27 19 L 27 13 L 23 9 L 23 17 L 18 9 z "
     id="rect1151" />
  <path
     style="opacity:0.2;fill:url(#linearGradient1203);fill-opacity:1;stroke:none;stroke-width:2.6973238;stroke-linecap:round;stroke-linejoin:round;stroke-miterlimit:4;stroke-dasharray:none;stroke-dashoffset:0;stroke-opacity:1;paint-order:normal"
     d="M 12.949219 9 L 14 13 L 14 15 L 11.322266 14.677734 L 10.677734 15.322266 L 9 17 L 11 19 L 17 19 L 17 13.050781 L 12.949219 9 z "
     id="rect1155" />
  <path
     id="path1159"
     d="m 18,9 4.654432,4.654432 v 0 L 23,17 18,10 Z"
     style="opacity:0.2;fill:url(#linearGradient1182);fill-opacity:1;stroke:none;stroke-width:1.27550292;stroke-linecap:round;stroke-linejoin:round;stroke-miterlimit:4;stroke-dasharray:none;stroke-dashoffset:0;stroke-opacity:1;paint-order:normal"
     inkscape:connector-curvature="0"
     sodipodi:nodetypes="cccccc" />
  <path
     style="opacity:0.2;fill:url(#linearGradient1219);fill-opacity:1;stroke:none;stroke-width:2.6973238;stroke-linecap:round;stroke-linejoin:round;stroke-miterlimit:4;stroke-dasharray:none;stroke-dashoffset:0;stroke-opacity:1;paint-order:normal"
     d="M 6,9 9,11 8,13 4.3261719,13.628906 4,15 v 2 l 2,2 h 5 V 12.326172 L 8.2471914,9.5733633 7,9.5382131 Z"
     id="path1191"
     inkscape:connector-curvature="0"
     sodipodi:nodetypes="cccccccccccc" />
  <path
     style="font-style:normal;font-weight:normal;font-size:medium;line-height:1.25;font-family:sans-serif;letter-spacing:0px;word-spacing:0px;fill:#3a3a3a;fill-opacity:1;stroke:none;stroke-width:0.27679789"
     d="M 4 9 L 4 17 L 4.984375 17 L 4.984375 13.984375 L 5.8828125 13.984375 C 6.6584612 14.070831 7.278244 13.865982 7.7304688 13.626953 C 8.1899873 13.387924 8.5154356 13.078219 8.7050781 12.697266 C 8.9020147 12.308844 9 11.794225 9 11.353516 C 9 10.60655 8.7656406 10.028018 8.2988281 9.6171875 C 7.8320156 9.2063565 7.0895119 9 6.0683594 9 L 4 9 z M 12.060547 9 L 9 17 L 9.9980469 17 L 10.931641 15.033203 L 14.035156 15.033203 L 14.980469 17 L 16 17 L 12.949219 9 L 12.060547 9 z M 17 9 L 17 17 L 17.978516 17 L 17.978516 12.529297 C 17.987706 12.118568 17.968466 11.7185 17.947266 11.330078 C 17.926056 10.941656 17.908661 10.616907 17.894531 10.355469 L 17.9375 10.355469 L 21.886719 17 L 23 17 L 23 9 L 22.009766 9 L 22.009766 13.515625 C 22.004306 13.762063 22.012431 14.0267 22.019531 14.310547 C 22.033661 14.586924 22.045634 14.844955 22.052734 15.083984 L 22.083984 15.621094 L 22.041016 15.621094 L 18.101562 9 L 17 9 z M 4.984375 9.8632812 L 5.9804688 9.8632812 C 6.6660997 9.8632812 7.1693007 9.9901723 7.4902344 10.244141 C 7.8184619 10.49811 7.9824219 10.88303 7.9824219 11.398438 C 7.9824219 11.988539 7.8002442 12.505455 7.4355469 12.751953 C 7.0708496 12.998452 6.5154669 13.123047 5.7714844 13.123047 L 4.984375 13.123047 L 4.984375 9.8632812 z M 12.488281 10.037109 C 12.517539 10.12637 12.555719 10.256651 12.599609 10.427734 C 12.650812 10.591379 12.700753 10.751997 12.751953 10.908203 C 12.80316 11.06441 12.839388 11.172912 12.861328 11.232422 L 13.740234 14 L 11.259766 14 L 12.148438 11.232422 C 12.192329 11.105969 12.244224 10.934464 12.302734 10.71875 C 12.368567 10.495598 12.429771 10.2677 12.488281 10.037109 z "
     id="path1073" />
</svg>
