<?xml version="1.0" encoding="UTF-8" standalone="no"?>
<!-- Generator: Adobe Illustrator 22.0.0, SVG Export Plug-In . SVG Version: 6.00 Build 0)  -->

<svg
   xmlns:dc="http://purl.org/dc/elements/1.1/"
   xmlns:cc="http://creativecommons.org/ns#"
   xmlns:rdf="http://www.w3.org/1999/02/22-rdf-syntax-ns#"
   xmlns:svg="http://www.w3.org/2000/svg"
   xmlns="http://www.w3.org/2000/svg"
   xmlns:xlink="http://www.w3.org/1999/xlink"
   xmlns:sodipodi="http://sodipodi.sourceforge.net/DTD/sodipodi-0.dtd"
   xmlns:inkscape="http://www.inkscape.org/namespaces/inkscape"
   version="1.1"
   id="Layer_1"
   x="0px"
   y="0px"
   viewBox="0 0 47.999999 48"
   xml:space="preserve"
   sodipodi:docname="thunderbird.svg"
   width="48"
   height="48"
   inkscape:version="0.92.3 (2405546, 2018-03-11)"><metadata
   id="metadata203"><rdf:RDF><cc:Work
       rdf:about=""><dc:format>image/svg+xml</dc:format><dc:type
         rdf:resource="http://purl.org/dc/dcmitype/StillImage" /><dc:title /></cc:Work></rdf:RDF></metadata><defs
   id="defs201"><linearGradient
     inkscape:collect="always"
     id="linearGradient1389"><stop
       style="stop-color:#2673c7;stop-opacity:1"
       offset="0"
       id="stop1385" /><stop
       style="stop-color:#4f3ab1;stop-opacity:1"
       offset="1"
       id="stop1387" /></linearGradient><linearGradient
     inkscape:collect="always"
     id="linearGradient1240"><stop
       style="stop-color:#000000;stop-opacity:1;"
       offset="0"
       id="stop1236" /><stop
       style="stop-color:#000000;stop-opacity:0;"
       offset="1"
       id="stop1238" /></linearGradient><linearGradient
     inkscape:collect="always"
     id="linearGradient1216"><stop
       style="stop-color:#dddddd;stop-opacity:1;"
       offset="0"
       id="stop1212" /><stop
       style="stop-color:#d3d3d3;stop-opacity:1"
       offset="1"
       id="stop1214" /></linearGradient><linearGradient
     inkscape:collect="always"
     id="linearGradient1208"><stop
       style="stop-color:#e6e6e6;stop-opacity:1"
       offset="0"
       id="stop1204" /><stop
       style="stop-color:#f2f2f2;stop-opacity:1"
       offset="1"
       id="stop1206" /></linearGradient><linearGradient
     id="SVGID_2_"
     gradientUnits="userSpaceOnUse"
     x1="10.2428"
     y1="95.311302"
     x2="57.703899"
     y2="95.311302"
     gradientTransform="matrix(0.16196982,0,0,0.16196982,3.9999997,3.83627)">
			<stop
   offset="0"
   style="stop-color:#3156A8"
   id="stop27" />
			<stop
   offset="0.2474"
   style="stop-color:#3351A4"
   id="stop29" />
			<stop
   offset="0.5365"
   style="stop-color:#3B4397"
   id="stop31" />
			<stop
   offset="0.8453"
   style="stop-color:#472C82"
   id="stop33" />
			<stop
   offset="1"
   style="stop-color:#4E1D75"
   id="stop35" />
		</linearGradient><radialGradient
     id="SVGID_3_"
     cx="59.0732"
     cy="113.9232"
     r="85.246597"
     gradientTransform="matrix(0.16196982,0,0,0.23485624,3.9999997,-4.4671776)"
     gradientUnits="userSpaceOnUse">
			<stop
   offset="0.1654"
   style="stop-color:#14CDDA"
   id="stop40" />
			<stop
   offset="0.5478"
   style="stop-color:#2061BD"
   id="stop42" />
			<stop
   offset="0.6546"
   style="stop-color:#2658AC"
   id="stop44" />
			<stop
   offset="0.864"
   style="stop-color:#373F81"
   id="stop46" />
			<stop
   offset="1"
   style="stop-color:#432D62"
   id="stop48" />
		</radialGradient><linearGradient
     id="SVGID_8_"
     gradientUnits="userSpaceOnUse"
     x1="48.2686"
     y1="92.033699"
     x2="54.241402"
     y2="95.4683"
     gradientTransform="matrix(0.16196982,0,0,0.16196982,3.9999997,3.83627)">
			<stop
   offset="0"
   style="stop-color:#B0DCD6"
   id="stop99" />
			<stop
   offset="1"
   style="stop-color:#53ACE0"
   id="stop101" />
		</linearGradient><defs
     id="defs109">
			<filter
   id="Adobe_OpacityMaskFilter"
   filterUnits="userSpaceOnUse"
   x="162.67999"
   y="18.355"
   width="14.927"
   height="6.6290002">
				<feColorMatrix
   type="matrix"
   values="1 0 0 0 0  0 1 0 0 0  0 0 1 0 0  0 0 0 1 0"
   id="feColorMatrix106" />
			</filter>
		</defs><mask
     maskUnits="userSpaceOnUse"
     x="162.68"
     y="18.355"
     width="14.927"
     height="6.629"
     id="SVGID_9_">
			<g
   class="st13"
   id="g118"
   style="filter:url(#Adobe_OpacityMaskFilter)">
				<radialGradient
   id="SVGID_10_"
   cx="154.384"
   cy="67.998497"
   r="51.967499"
   gradientUnits="userSpaceOnUse">
					<stop
   offset="0.868"
   style="stop-color:#FFFFFF"
   id="stop111" />
					<stop
   offset="1"
   style="stop-color:#000000"
   id="stop113" />
				</radialGradient>
				<rect
   x="91.294998"
   y="-7.2179999"
   class="st14"
   width="100.015"
   height="93.338997"
   id="rect116"
   style="fill:url(#SVGID_10_)" />
			</g>
		</mask><linearGradient
     id="SVGID_12_"
     gradientUnits="userSpaceOnUse"
     x1="80.783798"
     y1="38.0252"
     x2="90.637001"
     y2="77.544296"
     gradientTransform="matrix(0.16196982,0,0,0.16196982,3.9999997,3.83627)">
			<stop
   offset="0.0074"
   style="stop-color:#1398D1;stop-opacity:0"
   id="stop138" />
			<stop
   offset="0.2482"
   style="stop-color:#1187C2;stop-opacity:0.6197"
   id="stop140" />
			<stop
   offset="0.6422"
   style="stop-color:#3F6499;stop-opacity:0.71"
   id="stop142" />
			<stop
   offset="1"
   style="stop-color:#2F4282;stop-opacity:0.5"
   id="stop144" />
		</linearGradient><linearGradient
     id="SVGID_13_"
     gradientUnits="userSpaceOnUse"
     x1="48.7383"
     y1="14.373"
     x2="43.199299"
     y2="11.3027"
     gradientTransform="matrix(0.16187264,0.00565275,-0.00565275,0.16187264,8.5833668,12.788257)">
			<stop
   offset="0"
   style="stop-color:#F9C21B"
   id="stop153" />
			<stop
   offset="0.1479"
   style="stop-color:#F3BA1B"
   id="stop155" />
			<stop
   offset="0.3787"
   style="stop-color:#E3A41B"
   id="stop157" />
			<stop
   offset="0.6634"
   style="stop-color:#C9801C"
   id="stop159" />
			<stop
   offset="0.9884"
   style="stop-color:#A44E1C"
   id="stop161" />
			<stop
   offset="1"
   style="stop-color:#A34C1C"
   id="stop163" />
		</linearGradient><linearGradient
     inkscape:collect="always"
     xlink:href="#linearGradient1208"
     id="linearGradient1210"
     x1="103.51609"
     y1="134.1916"
     x2="103.51609"
     y2="87.282516"
     gradientUnits="userSpaceOnUse"
     gradientTransform="matrix(0.16196982,0,0,0.16196982,3.9999997,3.83627)" /><linearGradient
     inkscape:collect="always"
     xlink:href="#linearGradient1216"
     id="linearGradient1218"
     x1="84.182365"
     y1="90.463676"
     x2="118.66627"
     y2="193.37277"
     gradientUnits="userSpaceOnUse" /><linearGradient
     inkscape:collect="always"
     xlink:href="#linearGradient1240"
     id="linearGradient1242"
     x1="114.87975"
     y1="-8.9177113"
     x2="223.23967"
     y2="-8.9177113"
     gradientUnits="userSpaceOnUse"
     gradientTransform="matrix(0.11452996,0.11452996,-0.11452996,0.11452996,3.9999997,3.83627)" /><linearGradient
     y2="57.897499"
     x2="191.515"
     y1="57.897499"
     x1="44.5387"
     gradientUnits="userSpaceOnUse"
     id="SVGID_4_"
     gradientTransform="matrix(0.16196982,0,0,0.16196982,3.9999997,3.83627)">
				<stop
   id="stop53"
   style="stop-color:#2061BD"
   offset="0" />
				<stop
   id="stop55"
   style="stop-color:#2B51AC"
   offset="0.1846" />
				<stop
   id="stop57"
   style="stop-color:#442C84"
   offset="0.6826" />
				<stop
   id="stop59"
   style="stop-color:#4E1D75"
   offset="0.9409" />
			</linearGradient><linearGradient
     inkscape:collect="always"
     xlink:href="#linearGradient1389"
     id="linearGradient1391"
     x1="29.535891"
     y1="10.852096"
     x2="37.364376"
     y2="36.74976"
     gradientUnits="userSpaceOnUse" /></defs><sodipodi:namedview
   pagecolor="#ffffff"
   bordercolor="#666666"
   borderopacity="1"
   objecttolerance="10"
   gridtolerance="10"
   guidetolerance="10"
   inkscape:pageopacity="0"
   inkscape:pageshadow="2"
   inkscape:window-width="1920"
   inkscape:window-height="1020"
   id="namedview199"
   showgrid="false"
   inkscape:zoom="12.65"
   inkscape:cx="10.095387"
   inkscape:cy="28.670899"
   inkscape:window-x="0"
   inkscape:window-y="30"
   inkscape:window-maximized="1"
   inkscape:current-layer="Layer_1"><inkscape:grid
     type="xygrid"
     id="grid1281" /></sodipodi:namedview>
<style
   type="text/css"
   id="style2">
	.st0{fill:#363959;}
	.st1{fill:url(#SVGID_1_);}
	.st2{fill:#FBFBFB;}
	.st3{fill:#999999;}
	.st4{fill:#F8F8F8;}
	.st5{fill:url(#SVGID_2_);}
	.st6{fill:url(#SVGID_3_);}
	.st7{fill:url(#SVGID_4_);}
	.st8{fill:#3F6499;}
	.st9{fill:url(#SVGID_5_);}
	.st10{fill:url(#SVGID_6_);}
	.st11{fill:url(#SVGID_7_);}
	.st12{fill:url(#SVGID_8_);}
	.st13{filter:url(#Adobe_OpacityMaskFilter);}
	.st14{fill:url(#SVGID_10_);}
	.st15{mask:url(#SVGID_9_);}
	.st16{opacity:0.6;}
	.st17{opacity:0.2;}
	.st18{fill:url(#SVGID_11_);}
	.st19{fill:url(#SVGID_12_);}
	.st20{opacity:0.1;fill:#F2F2F2;}
	.st21{fill:#2F4282;}
	.st22{fill:url(#SVGID_13_);}
	.st23{fill:url(#SVGID_14_);}
	.st24{fill:#FFFFFF;}
	.st25{fill:url(#SVGID_15_);}
	.st26{fill:url(#SVGID_16_);}
	.st27{fill:url(#SVGID_17_);}
	.st28{fill:url(#SVGID_18_);}
	.st29{fill:url(#SVGID_19_);}
	.st30{fill:url(#SVGID_20_);}
	.st31{fill:url(#SVGID_21_);}
	.st32{fill:url(#SVGID_22_);}
	.st33{fill:url(#SVGID_23_);}
	.st34{fill:url(#SVGID_24_);}
	.st35{filter:url(#Adobe_OpacityMaskFilter_1_);}
	.st36{fill:url(#SVGID_26_);}
	.st37{mask:url(#SVGID_25_);}
	.st38{fill:url(#SVGID_27_);}
	.st39{fill:url(#SVGID_28_);}
	.st40{fill:url(#SVGID_29_);}
	.st41{fill:url(#SVGID_30_);}
	.st42{fill:url(#SVGID_31_);}
	.st43{fill:url(#SVGID_32_);}
	.st44{fill:url(#SVGID_33_);}
	.st45{fill:url(#SVGID_34_);}
	.st46{fill:url(#SVGID_35_);}
	.st47{fill:url(#SVGID_36_);}
	.st48{fill:url(#SVGID_37_);}
	.st49{fill:url(#SVGID_38_);}
	.st50{fill:url(#SVGID_39_);}
	.st51{fill:url(#SVGID_40_);}
	.st52{filter:url(#Adobe_OpacityMaskFilter_2_);}
	.st53{fill:url(#SVGID_42_);}
	.st54{mask:url(#SVGID_41_);}
	.st55{fill:url(#SVGID_43_);}
	.st56{fill:url(#SVGID_44_);}
	.st57{fill:url(#SVGID_45_);}
	.st58{fill:url(#SVGID_46_);}
	.st59{fill:url(#SVGID_47_);}
	.st60{fill:url(#SVGID_48_);}
</style>
<path
   class="st1"
   d="M 34.593993,9.5849029 C 32.245269,8.0507247 29.241538,7.5541252 27.583777,7.3806556 25.80956,7.1952001 24.268579,7.227918 22.913216,7.426817 c -0.114837,-0.00146 -0.229026,-0.00599 -0.34451,-0.00599 -0.08811,0 -0.174928,0.00373 -0.263525,0.0047 0.03644,-0.044542 0.06171,-0.072077 0.06171,-0.072077 0,0 -0.07127,0.011176 -0.211208,0.074506 -0.440072,0.00713 -0.878039,0.022352 -1.309526,0.05183 0.60107,-0.6588932 1.093458,-1.0042129 1.093458,-1.0042129 0,0 -0.584387,0.08552 -1.650796,1.052156 -0.50729,0.046647 -1.007615,0.1085197 -1.499517,0.1854554 1.120507,-1.5163614 2.292683,-2.1548465 2.292683,-2.1548465 0,0 -1.420799,-0.2892781 -3.645455,1.9462294 -0.186103,0.1870702 -0.358763,0.381596 -0.525754,0.5785513 C 10.426962,9.6521203 5.7865268,13.839202 5.7865268,18.760007 c 0,0.965016 -0.2962428,2.026405 0.023162,3.086173 -0.1276322,1.693071 0.1441531,6.312774 0.1441531,6.312774 0,0 1.755267,9.499368 8.5050351,11.150974 0.107224,0.02559 -1.410271,-2.367999 -2.081474,-5.254625 1.306934,1.329449 2.864436,2.380795 4.612576,2.563011 0.21461,0.02219 -0.998544,-1.39942 -2.061066,-3.115328 l 15.338218,5.167809 c 8.022204,-3.445746 7.088286,-3.13525 8.810673,-5.000818 3.794629,-4.107555 4.32589,-6.4383 3.369944,-13.319588 -0.646746,-4.645133 -4.075161,-9.245723 -7.853755,-10.7654861 z"
   id="path15"
   style="fill:#433361;fill-opacity:1;stroke-width:0.16196983"
   inkscape:connector-curvature="0" /><polygon
   class="st2"
   points="22.687,62.276 8.546,142.68 16.387,166.974 172.911,219.015 201.939,95.591 "
   id="polygon17"
   style="fill:url(#linearGradient1218);fill-opacity:1"
   transform="matrix(0.16196982,0,0,0.16196982,3.9999997,3.83627)" /><path
   class="st4"
   d="m 7.9855911,14.059967 c 0,0 0.123097,0.636865 0.6933928,1.341758 0.5668943,0.711371 8.1810951,12.240221 8.5631821,12.138666 4.987861,-1.324265 23.084749,-8.369628 23.084749,-8.369628 z"
   id="path23"
   inkscape:connector-curvature="0"
   style="fill:url(#linearGradient1210);fill-opacity:1;stroke-width:0.16196983" /><path
   style="opacity:0.2;fill:url(#linearGradient1242);fill-opacity:1;stroke:none;stroke-width:0.32393965;stroke-linecap:round;stroke-linejoin:round;stroke-miterlimit:4;stroke-dasharray:none;stroke-dashoffset:0;stroke-opacity:1;paint-order:normal"
   d="m 28.945896,16.087936 4.118356,3.434673 1.080363,13.604061 -3.645692,6.501055 -18.697161,-18.69716 5.447441,-6.045899 z"
   id="rect1233"
   inkscape:connector-curvature="0"
   sodipodi:nodetypes="ccccccc" /><path
   class="st5"
   d="m 13.346306,13.521255 c 0,0 -8.7661304,2.567222 -4.7437719,11.505203 0,0 -1.8443503,-1.688698 -2.9425057,-3.847917 -0.049401,-0.0967 1.8304209,-6.775036 1.8304209,-6.775036 z"
   id="path38"
   style="fill:url(#SVGID_2_);stroke-width:0.16196983"
   inkscape:connector-curvature="0" /><path
   class="st6"
   d="M 8.6025341,25.026458 C 7.8401422,25.013338 6.6153264,24.384409 6.2180144,23.622989 5.7214149,31.899323 9.0981618,36.732664 14.459039,39.310252 12.707335,39.10941 3.9999997,34.514488 3.9999997,23.457294 c 0,-9.401862 7.4603303,-17.8056663 19.1354383,-18.1906685 0.07159,0.5270498 -5.788153,1.8487235 -5.975552,2.4702017 -0.290898,0.9672838 -0.95951,2.0202496 -1.523489,2.8642748 -0.764173,1.143668 1.062037,2.121642 -0.280045,2.429709 -2.01944,0.463395 -4.712998,0.206835 -6.6992341,2.788958 -2.9857516,3.881607 -0.9933609,8.321847 -0.054584,9.206689 z"
   id="path51"
   style="fill:url(#SVGID_3_);stroke-width:0.16196983"
   inkscape:connector-curvature="0" /><path
   inkscape:connector-curvature="0"
   style="fill:url(#SVGID_4_);stroke-width:0.16196983"
   id="path62"
   d="m 26.19764,5.5691851 c -7.561076,-0.5801759 -11.4524,2.4452584 -13.950461,5.9632429 -0.909784,1.280533 -0.810173,2.456434 -0.496923,3.877072 0.134597,0.606415 0.270651,0.896988 0.106738,1.515227 -0.09038,0.341109 -0.07532,0.659541 -0.187561,0.860708 -0.155329,0.278102 -0.353095,0.582119 -0.41934,1.081472 -0.165533,1.247006 0.275834,1.644156 0.551669,2.063658 0.392939,-0.390185 1.160514,-1.308554 2.544546,-1.857146 1.384032,-0.548592 2.294626,-1.373018 4.029161,-2.258021 2.369943,-1.208781 5.147725,0.625041 10.41466,-1.100747 1.62067,-0.531099 5.345328,-6.0486013 6.229521,-6.2604578 C 32.557223,6.7311566 28.368035,5.7355281 26.19764,5.5691851 Z"
   class="st7" /><path
   class="st8"
   d="m 21.202328,3.841453 c 0,0 -1.350018,0.6520905 -1.937969,1.830421 1.35747,-0.6843225 2.145453,-1.0581489 2.517983,-1.1026906 0,0 -0.356819,0.1728218 -0.799321,1.1127327 0.782314,-0.2505673 1.05167,-0.4084879 1.266442,-0.4109174 0,0 -0.06236,0.098802 -0.119371,1.0369308 C 20.928761,5.918554 18.61648,6.3722315 17.386481,7.1425599 16.969247,4.9179045 21.202328,3.841453 21.202328,3.841453 Z"
   id="path66"
   inkscape:connector-curvature="0"
   style="fill:#3f6499;stroke-width:0.16196983" /><path
   inkscape:connector-curvature="0"
   style="fill:url(#linearGradient1391);fill-opacity:1;stroke-width:0.16196983"
   d="m 21.210938,3.8417969 c -1.239717,-0.091027 -5.388325,0.9709699 -7.884766,6.0273437 -0.409136,0.4983814 -0.792466,1.0091744 -1.15625,1.5214844 -0.939101,1.322322 -0.835659,2.536946 -0.511719,4.003906 0.137998,0.626338 0.163561,1.625387 0.02734,2.271485 -0.02721,0.129414 -0.381467,0.463872 -0.472656,1.365234 -0.09751,0.956431 0.243666,1.425887 0.580078,1.814453 1.195337,-1.747979 2.373047,-2.09375 2.373047,-2.09375 1.673149,-0.685456 2.371047,-1.418359 4.162109,-2.332031 1.878586,-0.958566 7.354973,1.212879 12.259766,1.470703 0.686603,1.628056 0.975928,4.021981 0.976562,4.027344 0,0 0,0.002 0,0.002 0.255139,4.957054 -0.943359,6.792969 -0.943359,6.792969 0,0 1.263507,-0.485512 2.591797,-1.822266 0.0015,0.979141 -0.204802,3.712198 -2.488282,6.458984 0,0 1.151386,-0.327051 2.451172,-0.958984 -0.713535,3.348974 -2.636136,7.352364 -8.86914,10.384766 0,0 5.241694,-0.428513 7.841797,-3.355469 -1.05734,2.431491 -3.958985,3.74414 -3.958985,3.74414 2.135086,-0.312277 7.74563,-1.967446 11.318359,-6.435546 4.04374,-5.057507 5.258544,-9.801555 4.041016,-16.16211 -0.349944,-1.859408 -1.068137,-3.670994 -2.023437,-5.339844 -0.150829,-0.280548 -0.321363,-0.568587 -0.513672,-0.861328 -0.0042,-0.0063 -0.0076,-0.01125 -0.01172,-0.01758 C 40.72189,13.915087 40.422802,13.49897 40.115234,13.091797 37.809345,9.9620372 36.116834,9.0226908 35.941406,8.9316406 35.619757,8.7067152 35.297126,8.4965765 34.984375,8.3027344 32.083658,6.5040595 30.21875,6.2519531 30.21875,6.2519531 c 0,0 -0.01879,0.00377 -0.01953,0.00391 -1.343045,-0.5614605 -2.631916,-0.892802 -3.625,-1.0214844 -2.317626,-0.300292 -4.25332,-0.2411271 -5.900391,0.076172 0.517979,-0.4964375 1.117188,-0.7421875 1.117188,-0.7421875 -0.776645,0.068675 -1.746248,0.5765132 -2.578125,1.1132812 -0.419178,0.133787 -0.818904,0.2845144 -1.197266,0.453125 0.231617,-0.3053131 0.500309,-0.6304539 0.763672,-0.8808594 0.978135,-0.9301927 2.431641,-1.4121093 2.431641,-1.4121093 z"
   id="path79" /><path
   class="st12"
   d="m 13.816829,17.695542 c 0,0 -0.764336,0.534662 -1.317787,0.398445 -0.655168,-0.160836 -0.766117,-0.795757 -0.766117,-0.795757 -0.01441,0.130061 -0.0311,0.255588 -0.05523,0.368157 -0.02721,0.129414 -0.382735,0.46372 -0.473924,1.365082 -0.0975,0.956431 0.261582,1.510368 0.597993,1.898934 1.195499,-1.747978 2.356985,-2.178818 2.356985,-2.178818 -0.454973,-0.159055 -0.341918,-1.056043 -0.341918,-1.056043 z"
   id="path104"
   style="fill:url(#SVGID_8_);stroke-width:0.16196983"
   inkscape:connector-curvature="0" /><path
   class="st19"
   d="m 13.888419,17.590909 c 0,0 4.193075,-6.909956 7.983817,-8.7747149 0.35196,-0.177033 -5.248632,1.4886649 -7.502443,3.9763589 -1.339652,1.478623 -0.630224,4.373509 -0.481374,4.798356 z"
   id="path147"
   style="fill:url(#SVGID_12_);stroke-width:0.16196983"
   inkscape:connector-curvature="0" /><path
   class="st20"
   d="m 13.888419,17.590909 c 0.0039,-0.0024 0.0081,-0.0049 0.01215,-0.0073 1.084226,-0.669907 2.942344,-1.055719 3.541308,-2.270007 C 19.747841,10.637696 21.8724,8.8161831 21.8724,8.8161831 18.081496,10.680942 13.888421,17.590898 13.888421,17.590898 Z"
   id="path149"
   inkscape:connector-curvature="0"
   style="opacity:0.1;fill:#f2f2f2;stroke-width:0.16196983" /><path
   class="st21"
   d="m 14.887461,16.027297 c 0,0 -0.755751,-1.159542 0.332524,-2.216881 0.574345,-0.557177 1.444609,-0.247652 1.545192,-0.147393 0.428248,0.424685 0.159054,1.321026 -0.226434,1.828315 -0.217849,0.285715 -0.851799,0.730484 -1.651282,0.535959 z"
   id="path151"
   inkscape:connector-curvature="0"
   style="fill:#2f4282;stroke-width:0.16196983" /><path
   class="st22"
   d="m 15.32073,15.955382 c 0,0 -0.522191,-0.801589 0.230321,-1.532073 0.396178,-0.38484 0.997896,-0.17104 1.067705,-0.102041 0.295757,0.29349 0.109492,0.913024 -0.156786,1.263365 -0.15047,0.198089 -0.588761,0.505184 -1.14124,0.370749 z"
   id="path166"
   style="fill:url(#SVGID_13_);stroke-width:0.16196983"
   inkscape:connector-curvature="0" /><path
   d="m 16.363168,15.100019 c -0.01166,0.320377 -0.282799,0.570458 -0.605443,0.559444 -0.323292,-0.01118 -0.576289,-0.27956 -0.564789,-0.599936 0.0115,-0.320214 0.282475,-0.570296 0.605929,-0.559282 0.322644,0.01118 0.575479,0.279722 0.564303,0.599774 z"
   id="path168"
   inkscape:connector-curvature="0"
   style="fill:#444444;fill-opacity:1;stroke-width:0.16196983" /><circle
   style="fill:#ffffff;stroke-width:0.16196983"
   id="circle172"
   r="0.18399772"
   cy="14.92088"
   cx="15.407867"
   class="st24" />
</svg>