<?xml version="1.0" encoding="UTF-8" standalone="no"?>
<svg
   xmlns:dc="http://purl.org/dc/elements/1.1/"
   xmlns:cc="http://creativecommons.org/ns#"
   xmlns:rdf="http://www.w3.org/1999/02/22-rdf-syntax-ns#"
   xmlns:svg="http://www.w3.org/2000/svg"
   xmlns="http://www.w3.org/2000/svg"
   xmlns:xlink="http://www.w3.org/1999/xlink"
   xmlns:sodipodi="http://sodipodi.sourceforge.net/DTD/sodipodi-0.dtd"
   xmlns:inkscape="http://www.inkscape.org/namespaces/inkscape"
   height="48"
   width="48"
   version="1"
   id="svg21"
   sodipodi:docname="tomahawk.svg"
   inkscape:version="0.92.1 r15371">
  <metadata
     id="metadata25">
    <rdf:RDF>
      <cc:Work
         rdf:about="">
        <dc:format>image/svg+xml</dc:format>
        <dc:type
           rdf:resource="http://purl.org/dc/dcmitype/StillImage" />
        <dc:title></dc:title>
      </cc:Work>
    </rdf:RDF>
  </metadata>
  <sodipodi:namedview
     pagecolor="#ffffff"
     bordercolor="#666666"
     borderopacity="1"
     objecttolerance="10"
     gridtolerance="10"
     guidetolerance="10"
     inkscape:pageopacity="0"
     inkscape:pageshadow="2"
     inkscape:window-width="1600"
     inkscape:window-height="808"
     id="namedview23"
     showgrid="false"
     inkscape:zoom="7.03"
     inkscape:cx="13.65263"
     inkscape:cy="24"
     inkscape:window-x="0"
     inkscape:window-y="0"
     inkscape:window-maximized="1"
     inkscape:current-layer="svg21" />
  <defs
     id="defs5">
    <linearGradient
       inkscape:collect="always"
       id="linearGradient4507">
      <stop
         style="stop-color:#c81a3a;stop-opacity:1;"
         offset="0"
         id="stop4503" />
      <stop
         style="stop-color:#ea5a75;stop-opacity:1"
         offset="1"
         id="stop4505" />
    </linearGradient>
    <clipPath
       id="clipPath4186"
       clipPathUnits="userSpaceOnUse">
      <circle
         cx="286"
         cy="26"
         r="10"
         fill="url(#linearGradient4190)"
         id="circle2" />
    </clipPath>
    <linearGradient
       inkscape:collect="always"
       xlink:href="#linearGradient4507"
       id="linearGradient4509"
       x1="24.862471"
       y1="43.580421"
       x2="24.862471"
       y2="4.6526809"
       gradientUnits="userSpaceOnUse" />
  </defs>
  <path
     d="M 24 4 A 20 20 0 0 0 4 24 A 20 20 0 0 0 24 44 A 20 20 0 0 0 44 24 A 20 20 0 0 0 24 4 z M 24 9 A 15 15 0 0 1 39 24 A 15 15 0 0 1 33 35.982422 L 33 18 C 33 16.892 32.108 16 31 16 L 30 16 C 28.892 16 28 16.892 28 18 L 28 22.837891 L 22.496094 19.630859 L 16.494141 16.132812 A 0.99575 1.0047 0 0 0 16.017578 16 A 0.99575 1.0047 0 0 0 15 17.003906 L 15 30.994141 A 0.99575 1.0047 0 0 0 16.494141 31.865234 L 22.496094 28.367188 L 28 25.162109 L 28 38 C 28 38.152 28.020734 38.298453 28.052734 38.439453 A 15 15 0 0 1 24 39 A 15 15 0 0 1 9 24 A 15 15 0 0 1 24 9 z "
     id="path7"
     style="fill:url(#linearGradient4509);fill-opacity:1" />
  <circle
     opacity="0"
     style="color:#000000"
     clip-path="url(#clipPath4186)"
     r="10"
     transform="matrix(2,0,0,2,-548,-28)"
     cy="26"
     cx="286"
     stroke-width=".455"
     id="circle13" />
  <circle
     opacity="0"
     style="color:#000000"
     clip-path="url(#clipPath4186)"
     r="10"
     transform="matrix(2,0,0,2,-548,-28)"
     cy="26"
     cx="286"
     stroke-width=".909"
     id="circle15" />
  <path
     style="fill:#000000;fill-opacity:1;opacity:0.2"
     d="M 24 8 A 15 15 0 0 0 9 23 A 15 15 0 0 0 9.0195312 23.585938 A 15 15 0 0 1 24 9 A 15 15 0 0 1 38.978516 23.408203 A 15 15 0 0 0 39 23 A 15 15 0 0 0 24 8 z M 4.0214844 23.417969 A 20 20 0 0 0 4 24 A 20 20 0 0 0 24 44 A 20 20 0 0 0 44 24 A 20 20 0 0 0 43.978516 23.582031 A 20 20 0 0 1 24 43 A 20 20 0 0 1 4.0214844 23.417969 z M 28 24.162109 L 22.496094 27.367188 L 16.494141 30.865234 A 0.99575 1.0047 0 0 1 15 29.994141 L 15 30.994141 A 0.99575 1.0047 0 0 0 16.494141 31.865234 L 22.496094 28.367188 L 28 25.162109 L 28 24.162109 z M 28 37 L 28 37.451172 A 15 15 0 0 0 28.052734 37.439453 C 28.020734 37.298453 28 37.152 28 37 z "
     id="path4511" />
</svg>
