<?xml version="1.0" encoding="UTF-8" standalone="no"?>
<svg
   xmlns:dc="http://purl.org/dc/elements/1.1/"
   xmlns:cc="http://creativecommons.org/ns#"
   xmlns:rdf="http://www.w3.org/1999/02/22-rdf-syntax-ns#"
   xmlns:svg="http://www.w3.org/2000/svg"
   xmlns="http://www.w3.org/2000/svg"
   xmlns:xlink="http://www.w3.org/1999/xlink"
   xmlns:sodipodi="http://sodipodi.sourceforge.net/DTD/sodipodi-0.dtd"
   xmlns:inkscape="http://www.inkscape.org/namespaces/inkscape"
   width="48"
   height="48"
   version="1"
   id="svg12"
   sodipodi:docname="vk.svg"
   inkscape:version="0.92.3 (2405546, 2018-03-11)">
  <metadata
     id="metadata18">
    <rdf:RDF>
      <cc:Work
         rdf:about="">
        <dc:format>image/svg+xml</dc:format>
        <dc:type
           rdf:resource="http://purl.org/dc/dcmitype/StillImage" />
      </cc:Work>
    </rdf:RDF>
  </metadata>
  <defs
     id="defs16">
    <linearGradient
       inkscape:collect="always"
       id="linearGradient859">
      <stop
         style="stop-color:#000000;stop-opacity:1;"
         offset="0"
         id="stop855" />
      <stop
         style="stop-color:#000000;stop-opacity:0;"
         offset="1"
         id="stop857" />
    </linearGradient>
    <linearGradient
       inkscape:collect="always"
       id="linearGradient832">
      <stop
         style="stop-color:#3165a0;stop-opacity:1"
         offset="0"
         id="stop828" />
      <stop
         style="stop-color:#659eda;stop-opacity:1"
         offset="1"
         id="stop830" />
    </linearGradient>
    <linearGradient
       inkscape:collect="always"
       xlink:href="#linearGradient832"
       id="linearGradient834"
       x1="36.372322"
       y1="44.922569"
       x2="25.383856"
       y2="2.9126854"
       gradientUnits="userSpaceOnUse" />
    <linearGradient
       inkscape:collect="always"
       xlink:href="#linearGradient859"
       id="linearGradient861"
       x1="23.351019"
       y1="16.71447"
       x2="40.326416"
       y2="33.689865"
       gradientUnits="userSpaceOnUse" />
    <linearGradient
       inkscape:collect="always"
       xlink:href="#linearGradient859"
       id="linearGradient863"
       x1="28.33058"
       y1="-4.692749"
       x2="35.78326"
       y2="-4.692749"
       gradientUnits="userSpaceOnUse" />
    <linearGradient
       inkscape:collect="always"
       xlink:href="#linearGradient859"
       id="linearGradient865"
       x1="24.438093"
       y1="-1.6491827"
       x2="27.394445"
       y2="-1.6491827"
       gradientUnits="userSpaceOnUse" />
    <linearGradient
       inkscape:collect="always"
       xlink:href="#linearGradient859"
       id="linearGradient867"
       x1="21.440521"
       y1="3.3194603"
       x2="30.88105"
       y2="3.3194604"
       gradientUnits="userSpaceOnUse" />
  </defs>
  <sodipodi:namedview
     pagecolor="#ffffff"
     bordercolor="#666666"
     borderopacity="1"
     objecttolerance="10"
     gridtolerance="10"
     guidetolerance="10"
     inkscape:pageopacity="0"
     inkscape:pageshadow="2"
     inkscape:window-width="1920"
     inkscape:window-height="1026"
     id="namedview14"
     showgrid="true"
     inkscape:zoom="14.94"
     inkscape:cx="13.959839"
     inkscape:cy="25.920426"
     inkscape:window-x="0"
     inkscape:window-y="30"
     inkscape:window-maximized="1"
     inkscape:current-layer="svg12">
    <inkscape:grid
       type="xygrid"
       id="grid831" />
  </sodipodi:namedview>
  <rect
     fill="#507299"
     width="40"
     height="40"
     x="4"
     y="4"
     id="rect2"
     style="fill:url(#linearGradient834);fill-opacity:1" />
  <path
     style="opacity:0.3;fill:url(#linearGradient861);fill-opacity:1;stroke:none;stroke-width:4;stroke-linecap:round;stroke-linejoin:round;stroke-miterlimit:4;stroke-dasharray:none;stroke-dashoffset:0;stroke-opacity:1;paint-order:normal"
     d="m 37.876953,17.103516 -1.783203,0.02734 -3.755859,3.003907 -1.369141,-1.369141 -3.406986,7.314623 -4.719967,-6.34392 -2.0287,4.948657 -5.459581,3.115796 0.699218,1.804688 L 30.447266,44 H 44 V 23.226562 Z"
     id="rect836"
     inkscape:connector-curvature="0"
     sodipodi:nodetypes="ccccccccccccc" />
  <path
     transform="rotate(45)"
     style="opacity:0.3;fill:url(#linearGradient867);fill-opacity:1;stroke:none;stroke-width:1.167835;stroke-linecap:round;stroke-linejoin:round;stroke-miterlimit:4;stroke-dasharray:none;stroke-dashoffset:0;stroke-opacity:1;paint-order:normal"
     d="M 21.673771,2.1561456 22.565695,1.5999337 H 36.134656 V 5.038987 l -14.694135,0 z"
     id="rect842"
     inkscape:connector-curvature="0"
     sodipodi:nodetypes="cccccc" />
  <path
     transform="rotate(45)"
     style="opacity:0.3;fill:url(#linearGradient865);fill-opacity:1;stroke:none;stroke-width:1.167835;stroke-linecap:round;stroke-linejoin:round;stroke-miterlimit:4;stroke-dasharray:none;stroke-dashoffset:0;stroke-opacity:1;paint-order:normal"
     d="m 26.539495,-3.6498897 0.97828,-0.8074043 h 12.51372 v 3.4390533 H 25.33736 Z"
     id="rect848"
     inkscape:connector-curvature="0"
     sodipodi:nodetypes="cccccc" />
  <path
     transform="rotate(45)"
     style="opacity:0.3;fill:url(#linearGradient863);fill-opacity:1;stroke:none;stroke-width:1.167835;stroke-linecap:round;stroke-linejoin:round;stroke-miterlimit:4;stroke-dasharray:none;stroke-dashoffset:0;stroke-opacity:1;paint-order:normal"
     d="m 28.850907,-5.6766402 0.873774,-0.7356351 13.300033,0 L 41.79414,0.05588335 28.33058,-2.973222 Z"
     id="rect850"
     inkscape:connector-curvature="0"
     sodipodi:nodetypes="cccccc" />
  <path
     fill="#fff"
     fill-rule="evenodd"
     d="m23.189 32.929h1.7334s0.52346-0.05929 0.79111-0.35519c0.246-0.27198 0.23814-0.78236 0.23814-0.78236s-0.03391-2.3899 1.0454-2.7418c1.0644-0.3469 2.4308 2.3097 3.8791 3.3314 1.0952 0.77282 1.9275 0.60366 1.9275 0.60366l3.8728-0.05561s2.0258-0.12844 1.0652-1.7652c-0.07863-0.13368-0.55961-1.2107-2.8796-3.4235-2.4286-2.316-2.103-1.9413 0.82215-5.9475 1.7815-2.4398 2.4935-3.9291 2.271-4.567-0.212-0.60776-1.5224-0.44722-1.5224-0.44722l-4.3605 0.02771s-0.32351-0.04523-0.56308 0.1021c-0.23436 0.14407-0.38478 0.48069-0.38478 0.48069s-0.69042 1.8878-1.6105 3.4936c-1.9417 3.3878-2.7182 3.5671-3.0356 3.3564-0.73842-0.49034-0.55389-1.9694-0.55389-3.0205 0-3.2833 0.48465-4.6522-0.94378-5.0066-0.47393-0.11752-0.82307-0.19528-2.0353-0.20797-1.556-0.01628-2.8726 0.0049-3.6183 0.38027-0.49609 0.24963-0.87883 0.80577-0.64559 0.83777 0.28828 0.03944 0.94082 0.18101 1.2868 0.66474 0.44697 0.62486 0.43135 2.0276 0.43135 2.0276s0.25683 3.8649-0.59964 4.3449c-0.58769 0.32927-1.394-0.34292-3.1251-3.4166-0.8868-1.5744-1.5566-3.3149-1.5566-3.3149s-0.12898-0.32518-0.35936-0.49926c-0.2794-0.21091-0.66979-0.27775-0.66979-0.27775l-4.1438 0.0278s-0.6219 0.01785-0.85045 0.2958c-0.20332 0.24743-0.01625 0.75854-0.01625 0.75854s3.2439 7.7987 6.9173 11.729c3.3686 3.6038 7.193 3.3672 7.193 3.3672"
     id="path10" />
  <rect
     style="opacity:0.2;fill:#000000;fill-opacity:1;stroke:none;stroke-width:2;stroke-linecap:round;stroke-linejoin:round;stroke-miterlimit:4;stroke-dasharray:none;stroke-dashoffset:0;stroke-opacity:1;paint-order:normal"
     id="rect833"
     width="40"
     height="1"
     x="4"
     y="43" />
</svg>
