<?xml version="1.0" encoding="UTF-8" standalone="no"?>
<svg
   width="32"
   height="32"
   version="1"
   id="svg12"
   sodipodi:docname="system-suspend-hibernate.svg"
   inkscape:version="1.1 (c4e8f9ed74, 2021-05-24)"
   xmlns:inkscape="http://www.inkscape.org/namespaces/inkscape"
   xmlns:sodipodi="http://sodipodi.sourceforge.net/DTD/sodipodi-0.dtd"
   xmlns:xlink="http://www.w3.org/1999/xlink"
   xmlns="http://www.w3.org/2000/svg"
   xmlns:svg="http://www.w3.org/2000/svg"
   xmlns:rdf="http://www.w3.org/1999/02/22-rdf-syntax-ns#"
   xmlns:cc="http://creativecommons.org/ns#"
   xmlns:dc="http://purl.org/dc/elements/1.1/">
  <metadata
     id="metadata18">
    <rdf:RDF>
      <cc:Work
         rdf:about="">
        <dc:format>image/svg+xml</dc:format>
        <dc:type
           rdf:resource="http://purl.org/dc/dcmitype/StillImage" />
      </cc:Work>
    </rdf:RDF>
  </metadata>
  <defs
     id="defs16">
    <linearGradient
       inkscape:collect="always"
       id="linearGradient892">
      <stop
         style="stop-color:#000000;stop-opacity:1;"
         offset="0"
         id="stop888" />
      <stop
         style="stop-color:#000000;stop-opacity:0;"
         offset="1"
         id="stop890" />
    </linearGradient>
    <linearGradient
       inkscape:collect="always"
       id="linearGradient869">
      <stop
         style="stop-color:#7936b5;stop-opacity:1"
         offset="0"
         id="stop865" />
      <stop
         style="stop-color:#a874d6;stop-opacity:1"
         offset="1"
         id="stop867" />
    </linearGradient>
    <linearGradient
       gradientTransform="matrix(1.0500001,0,0,1.0500001,-13.750001,-4.3000019)"
       inkscape:collect="always"
       xlink:href="#linearGradient921"
       id="linearGradient923"
       x1="26.333332"
       y1="10.666668"
       x2="32.333332"
       y2="28.666666"
       gradientUnits="userSpaceOnUse" />
    <linearGradient
       inkscape:collect="always"
       id="linearGradient921">
      <stop
         style="stop-color:#ffffff;stop-opacity:1;"
         offset="0"
         id="stop917" />
      <stop
         style="stop-color:#ffffff;stop-opacity:0;"
         offset="1"
         id="stop919" />
    </linearGradient>
    <linearGradient
       inkscape:collect="always"
       xlink:href="#linearGradient869"
       id="linearGradient871"
       x1="30"
       y1="43"
       x2="23"
       y2="7"
       gradientUnits="userSpaceOnUse"
       gradientTransform="matrix(0.7,0,0,0.7,-0.8,-0.8)" />
    <linearGradient
       inkscape:collect="always"
       xlink:href="#linearGradient892"
       id="linearGradient894"
       x1="25"
       y1="13"
       x2="41.153877"
       y2="29.153879"
       gradientUnits="userSpaceOnUse"
       gradientTransform="matrix(0.7,0,0,0.7,-0.8,-0.8)" />
    <linearGradient
       inkscape:collect="always"
       xlink:href="#linearGradient892"
       id="linearGradient896"
       x1="10"
       y1="22"
       x2="28.372007"
       y2="40.372009"
       gradientUnits="userSpaceOnUse"
       gradientTransform="matrix(0.7,0,0,0.7,-0.8,-0.8)" />
  </defs>
  <sodipodi:namedview
     pagecolor="#ffffff"
     bordercolor="#666666"
     borderopacity="1"
     objecttolerance="10"
     gridtolerance="10"
     guidetolerance="10"
     inkscape:pageopacity="0"
     inkscape:pageshadow="2"
     inkscape:window-width="1920"
     inkscape:window-height="1018"
     id="namedview14"
     showgrid="true"
     inkscape:zoom="12.14"
     inkscape:cx="8.8962109"
     inkscape:cy="17.545305"
     inkscape:window-x="0"
     inkscape:window-y="0"
     inkscape:window-maximized="1"
     inkscape:current-layer="svg12"
     inkscape:pagecheckerboard="0">
    <inkscape:grid
       type="xygrid"
       id="grid858" />
  </sodipodi:namedview>
  <circle
     cx="16"
     cy="16"
     r="14"
     id="circle2"
     style="fill:url(#linearGradient871);fill-opacity:1;stroke-width:0.7" />
  <path
     style="opacity:0.3;fill:url(#linearGradient894);fill-opacity:1;stroke:none;stroke-width:2.8;stroke-linecap:round;stroke-linejoin:round;stroke-miterlimit:4;stroke-dasharray:none;stroke-dashoffset:0;stroke-opacity:1;paint-order:normal"
     d="M 25.1,8.3 V 9.7847658 L 24.484766,10.4 l -4.2,4.2 H 25.1 v 2.1 h -8.4 l 9.192968,9.192968 A 14,14 0 0 0 30,16 14,14 0 0 0 29.61582,12.81582 Z m -8.4,2.1 2.407617,2.407617 L 21.515234,10.4 Z"
     id="rect873" />
  <path
     style="opacity:0.3;fill:url(#linearGradient896);fill-opacity:1;stroke:none;stroke-width:2.8;stroke-linecap:round;stroke-linejoin:round;stroke-miterlimit:4;stroke-dasharray:none;stroke-dashoffset:0;stroke-opacity:1;paint-order:normal"
     d="m 14.6,14.6 v 1.484766 L 13.984766,16.7 9.7847658,20.9 H 14.6 V 23 H 6.2 l 6.618555,6.618555 A 14,14 0 0 0 16,30 14,14 0 0 0 25.892968,25.892968 L 16.7,16.7 Z M 6.2,16.7 8.6076171,19.107617 11.015234,16.7 Z"
     id="path880" />
  <path
     d="M 29.9853,15.5926 A 14,14 0 0 1 16,29.3 14,14 0 0 1 2.0154,15.7074 14,14 0 0 0 2,16 14,14 0 0 0 16,30 14,14 0 0 0 30,16 14,14 0 0 0 29.9853,15.5926 Z"
     id="path10"
     inkscape:connector-curvature="0"
     style="opacity:0.2;stroke-width:0.7" />
  <path
     style="opacity:1;fill:url(#linearGradient923);fill-opacity:1;stroke-width:2.1"
     d="m 16.7,8.3 v 2.1 h 4.815234 l -4.2,4.2 L 16.7,15.215234 V 16.7 h 8.4 v -2.1 h -4.815234 l 4.2,-4.2 L 25.1,9.7847658 V 8.3 H 23.615234 Z M 6.2,14.6 v 2.1 h 4.815234 L 6.8152342,20.9 6.2,21.515234 V 23 h 8.4 V 20.9 H 9.7847658 L 13.984766,16.7 14.6,16.084766 V 14.6 h -1.484766 z"
     id="path904" />
</svg>
