<?xml version="1.0" encoding="UTF-8" standalone="no"?>
<svg
   xmlns:dc="http://purl.org/dc/elements/1.1/"
   xmlns:cc="http://creativecommons.org/ns#"
   xmlns:rdf="http://www.w3.org/1999/02/22-rdf-syntax-ns#"
   xmlns:svg="http://www.w3.org/2000/svg"
   xmlns="http://www.w3.org/2000/svg"
   xmlns:sodipodi="http://sodipodi.sourceforge.net/DTD/sodipodi-0.dtd"
   xmlns:inkscape="http://www.inkscape.org/namespaces/inkscape"
   width="16"
   height="16"
   version="1.1"
   id="svg8"
   sodipodi:docname="preferences-desktop-remote-desktop-symbolic.svg"
   inkscape:version="0.92.3 (2405546, 2018-03-11)">
  <metadata
     id="metadata14">
    <rdf:RDF>
      <cc:Work
         rdf:about="">
        <dc:format>image/svg+xml</dc:format>
        <dc:type
           rdf:resource="http://purl.org/dc/dcmitype/StillImage" />
      </cc:Work>
    </rdf:RDF>
  </metadata>
  <defs
     id="defs12" />
  <sodipodi:namedview
     pagecolor="#ffffff"
     bordercolor="#666666"
     borderopacity="1"
     objecttolerance="10"
     gridtolerance="10"
     guidetolerance="10"
     inkscape:pageopacity="0"
     inkscape:pageshadow="2"
     inkscape:window-width="1920"
     inkscape:window-height="1026"
     id="namedview10"
     showgrid="false"
     inkscape:zoom="14.75"
     inkscape:cx="8.2711864"
     inkscape:cy="7.7288136"
     inkscape:window-x="0"
     inkscape:window-y="30"
     inkscape:window-maximized="1"
     inkscape:current-layer="svg8" />
  <g
     transform="translate(-8,-10)"
     id="g41"
     style="fill:#eff0f1;fill-opacity:1">
    <path
       inkscape:connector-curvature="0"
       d="m 16,12 a 9,9 0 0 0 -7.877,4.668 c 0.129,0.364 0.357,0.677 0.656,0.908 A 8,8 0 0 1 16,13 a 4,4 0 0 0 -4,4 4,4 0 0 0 4,4 4,4 0 0 0 4,-4 4,4 0 0 0 -3.65,-3.982 8,8 0 0 1 6.87,4.558 c 0.302,-0.234 0.533,-0.55 0.66,-0.918 A 9,9 0 0 0 16,12 Z m 0,2 a 3,3 0 0 1 3,3 3,3 0 0 1 -3,3 3,3 0 0 1 -3,-3 3,3 0 0 1 3,-3 z m 0,1 a 2,2 0 0 0 -2,2 2,2 0 0 0 2,2 2,2 0 0 0 2,-2 A 2,2 0 0 0 17.91,16.412 1,1 0 0 1 17,17 1,1 0 0 1 16,16 1,1 0 0 1 16.59,15.09 2,2 0 0 0 16,15 Z"
       id="path37"
       style="fill:#eff0f1;fill-opacity:1" />
    <path
       inkscape:connector-curvature="0"
       d="m 8,11 v 11 h 7 v 2 h -3 v 1 h 8 v -1 h -3 v -2 h 7 V 11 H 9 Z m 1,1 h 14 v 9 H 9 Z"
       id="path39"
       style="fill:#eff0f1;fill-opacity:1" />
  </g>
</svg>
