<?xml version="1.0" encoding="UTF-8" standalone="no"?>
<svg
   height="32"
   width="32"
   version="1.1"
   id="svg46"
   sodipodi:docname="yast-journal.svg"
   inkscape:version="1.1.1 (3bf5ae0d25, 2021-09-20, custom)"
   xmlns:inkscape="http://www.inkscape.org/namespaces/inkscape"
   xmlns:sodipodi="http://sodipodi.sourceforge.net/DTD/sodipodi-0.dtd"
   xmlns:xlink="http://www.w3.org/1999/xlink"
   xmlns="http://www.w3.org/2000/svg"
   xmlns:svg="http://www.w3.org/2000/svg">
  <defs
     id="defs50" />
  <sodipodi:namedview
     id="namedview48"
     pagecolor="#ffffff"
     bordercolor="#666666"
     borderopacity="1.0"
     inkscape:pageshadow="2"
     inkscape:pageopacity="0.0"
     inkscape:pagecheckerboard="0"
     showgrid="false"
     inkscape:zoom="25.8125"
     inkscape:cx="16"
     inkscape:cy="16"
     inkscape:window-width="1920"
     inkscape:window-height="1006"
     inkscape:window-x="0"
     inkscape:window-y="0"
     inkscape:window-maximized="1"
     inkscape:current-layer="svg46" />
  <linearGradient
     id="f"
     gradientUnits="userSpaceOnUse"
     x1="2"
     x2="2"
     y1="27"
     y2="9">
    <stop
       offset="0"
       stop-color="#31363b"
       id="stop2" />
    <stop
       offset="1"
       stop-color="#4f575f"
       id="stop4" />
  </linearGradient>
  <linearGradient
     id="a">
    <stop
       offset="0"
       stop-color="#292c2f"
       id="stop7" />
    <stop
       offset="1"
       stop-opacity="0"
       id="stop9" />
  </linearGradient>
  <radialGradient
     id="e"
     cx="12"
     cy="1"
     gradientTransform="matrix(0 .31579 -1.89476 -.00005 3.895 5.21)"
     gradientUnits="userSpaceOnUse"
     r="9.5"
     xlink:href="#a" />
  <radialGradient
     id="d"
     cx="2"
     cy="5.5"
     gradientTransform="matrix(0 1.37931 -2.27586 0 14.517 9.241)"
     gradientUnits="userSpaceOnUse"
     r="14.5"
     xlink:href="#a" />
  <linearGradient
     id="b"
     gradientTransform="matrix(.66667 0 0 .63518 -256.381 -317.28)"
     gradientUnits="userSpaceOnUse"
     x2="0"
     y1="543.798"
     y2="502.655">
    <stop
       offset="0"
       stop-color="#c6cdd1"
       id="stop14" />
    <stop
       offset="1"
       stop-color="#e0e5e7"
       id="stop16" />
  </linearGradient>
  <linearGradient
     id="c"
     gradientUnits="userSpaceOnUse"
     x1="7"
     x2="22"
     y1="10"
     y2="25">
    <stop
       offset="0"
       id="stop19" />
    <stop
       offset="1"
       stop-opacity="0"
       id="stop21" />
  </linearGradient>
  <path
     d="M0 2h32v28H0z"
     fill="url(#b)"
     id="path24" />
  <path
     d="M1 28L31 8l1 1v21H3z"
     fill="url(#c)"
     fill-rule="evenodd"
     opacity=".2"
     id="path26" />
  <path
     d="M1 8h30v20H1z"
     fill="#eff0f1"
     id="path32" />
  <path
     d="M2 27l1 1h28V13l-1-1z"
     fill="url(#d)"
     opacity=".2"
     id="path36" />
  <path
     d="M2 12h28v15H2z"
     fill="#fcfcfc"
     id="path38" />
  <path
     d="M2 10l2 2h16v-2l-1-1z"
     fill="url(#e)"
     opacity=".2"
     id="path40" />
  <path
     d="M2 9h18v1H2z"
     fill="#fcfcfc"
     id="path42" />
  <path
     d="M2 9h9v1H2zm0 17h4v1H2zm6 0h12v1H8zm-6-2h4v1H2zm6 0h14v1H8zm-6-2h4v1H2zm6 0h12v1H8zm-6-2h4v1H2zm6 0h14v1H8zm-6-2h4v1H2zm6 0h10v1H8zm-6-2h4v1H2zm6 0h16v1H8zm-6-2h4v1H2zm6 0h18v1H8zm-6-2h4v1H2zm6 0h12v1H8z"
     fill="url(#f)"
     id="path44" />
  <rect
     style="fill:#333333;fill-opacity:1"
     id="rect860"
     width="31.999969"
     height="4"
     x="2.9563904e-05"
     y="2" />
  <circle
     style="fill:#e95420;fill-opacity:1"
     id="path1090"
     cx="30"
     cy="4"
     r="1" />
  <rect
     style="fill:#77216f;fill-opacity:1"
     id="rect1462"
     width="31.999969"
     height="1"
     x="-9.5367432e-07"
     y="6" />
</svg>
