<?xml version="1.0" encoding="UTF-8" standalone="no"?>
<!-- Created with Inkscape (http://www.inkscape.org/) -->

<svg
   width="32"
   version="1.1"
   height="32"
   id="svg26"
   sodipodi:docname="preferences-system-windows-move.svg"
   inkscape:version="1.1.1 (3bf5ae0d25, 2021-09-20, custom)"
   xmlns:inkscape="http://www.inkscape.org/namespaces/inkscape"
   xmlns:sodipodi="http://sodipodi.sourceforge.net/DTD/sodipodi-0.dtd"
   xmlns:xlink="http://www.w3.org/1999/xlink"
   xmlns="http://www.w3.org/2000/svg"
   xmlns:svg="http://www.w3.org/2000/svg">
  <sodipodi:namedview
     id="namedview28"
     pagecolor="#ffffff"
     bordercolor="#666666"
     borderopacity="1.0"
     inkscape:pageshadow="2"
     inkscape:pageopacity="0.0"
     inkscape:pagecheckerboard="0"
     showgrid="false"
     inkscape:zoom="25.8125"
     inkscape:cx="16"
     inkscape:cy="16"
     inkscape:window-width="1920"
     inkscape:window-height="1006"
     inkscape:window-x="0"
     inkscape:window-y="0"
     inkscape:window-maximized="1"
     inkscape:current-layer="layer1" />
  <defs
     id="defs5455">
    <linearGradient
       id="linearGradient4227">
      <stop
         style="stop-color:#2e3436"
         id="stop4229" />
      <stop
         offset="1"
         style="stop-color:#555753"
         id="stop4231" />
    </linearGradient>
    <linearGradient
       inkscape:collect="always"
       xlink:href="#linearGradient4303-6"
       id="linearGradient4643-8"
       y1="543.79797"
       y2="502.65509"
       gradientUnits="userSpaceOnUse"
       x2="0"
       gradientTransform="matrix(0.66666726 0 0 0.63518419 128.19014 198.51873)" />
    <linearGradient
       inkscape:collect="always"
       id="linearGradient4303-6">
      <stop
         style="stop-color:#c6cdd1"
         id="stop4305-7" />
      <stop
         offset="1"
         style="stop-color:#e0e5e7"
         id="stop4307-0" />
    </linearGradient>
    <linearGradient
       inkscape:collect="always"
       xlink:href="#linearGradient4293"
       id="linearGradient4183"
       y1="525.79797"
       x1="391.57144"
       y2="540.79797"
       x2="406.57147"
       gradientUnits="userSpaceOnUse"
       gradientTransform="matrix(1 0 0 1 -0.000007 0.000029)" />
    <linearGradient
       inkscape:collect="always"
       id="linearGradient4293">
      <stop
         id="stop4295" />
      <stop
         offset="1"
         style="stop-opacity:0"
         id="stop4297" />
    </linearGradient>
    <linearGradient
       inkscape:collect="always"
       xlink:href="#linearGradient4293"
       id="linearGradient4226"
       y1="11"
       x1="9.00001"
       y2="25"
       x2="23.00001"
       gradientUnits="userSpaceOnUse" />
    <linearGradient
       inkscape:collect="always"
       xlink:href="#linearGradient4227"
       id="linearGradient4224"
       y1="24.999973"
       y2="10.999974"
       x2="0"
       gradientUnits="userSpaceOnUse" />
  </defs>
  <metadata
     id="metadata5458" />
  <g
     inkscape:label="Capa 1"
     inkscape:groupmode="layer"
     id="layer1"
     transform="translate(-384.57143,-515.798)">
    <rect
       width="32"
       x="384.57144"
       y="517.79797"
       rx="0"
       height="28"
       style="fill:url(#linearGradient4643-8)"
       id="rect4641-5" />
    <path
       inkscape:connector-curvature="0"
       style="opacity:0.2;fill:url(#linearGradient4183);fill-rule:evenodd"
       id="path4167"
       d="m 385.57142,543.79803 30,-20 1.00001,1 -1e-5,20.99997 -29,3e-5 z" />
    <rect
       width="30"
       x="385.57141"
       y="523.79797"
       height="20.000031"
       style="fill:#ffffff"
       id="rect4653-5" />
    <path
       style="opacity:0.2;fill:url(#linearGradient4226);fill-rule:evenodd"
       id="path4201"
       d="m 16,11 -2,4 2.332031,2.332031 L 15,18 13,16 9,18 21,30 h 11 v -3 l -9,-9 z"
       transform="translate(384.57143,515.798)" />
    <path
       style="fill:url(#linearGradient4224);stroke-width:0.1"
       id="path4196"
       d="m 16,11 -2,4 h 4 z m -3,5 -4,2 4,2 z m 6,0 v 4 l 4,-2 z m -3,1 c -0.554,0 -1,0.446 -1,1 0,0.554 0.446,1 1,1 0.554,0 1,-0.446 1,-1 0,-0.554 -0.446,-1 -1,-1 z m -2,4 2,4 2,-4 z"
       transform="translate(384.57143,515.798)" />
    <rect
       style="fill:#333333;fill-opacity:1"
       id="rect860"
       width="31.999969"
       height="4"
       x="384.57144"
       y="517.79797" />
    <circle
       style="fill:#e95420;fill-opacity:1"
       id="path1090"
       cx="414.57141"
       cy="519.79797"
       r="1" />
    <rect
       style="fill:#77216f;fill-opacity:1"
       id="rect1462"
       width="31.999969"
       height="1"
       x="384.57141"
       y="521.79797" />
  </g>
</svg>
