<?xml version="1.0" encoding="UTF-8" standalone="no"?>
<svg
   height="32"
   width="32"
   version="1.1"
   id="svg68"
   sodipodi:docname="preferences-virtualization-vm.svg"
   inkscape:version="1.1.1 (3bf5ae0d25, 2021-09-20, custom)"
   xmlns:inkscape="http://www.inkscape.org/namespaces/inkscape"
   xmlns:sodipodi="http://sodipodi.sourceforge.net/DTD/sodipodi-0.dtd"
   xmlns="http://www.w3.org/2000/svg"
   xmlns:svg="http://www.w3.org/2000/svg">
  <defs
     id="defs72" />
  <sodipodi:namedview
     id="namedview70"
     pagecolor="#ffffff"
     bordercolor="#666666"
     borderopacity="1.0"
     inkscape:pageshadow="2"
     inkscape:pageopacity="0.0"
     inkscape:pagecheckerboard="0"
     showgrid="false"
     inkscape:zoom="25.8125"
     inkscape:cx="16"
     inkscape:cy="16"
     inkscape:window-width="1920"
     inkscape:window-height="1006"
     inkscape:window-x="0"
     inkscape:window-y="0"
     inkscape:window-maximized="1"
     inkscape:current-layer="g54" />
  <linearGradient
     id="c"
     gradientUnits="userSpaceOnUse"
     x1="393.571"
     x2="407.571"
     y1="527.673"
     y2="541.673">
    <stop
       offset="0"
       stop-color="#292c30"
       id="stop2" />
    <stop
       offset="1"
       stop-opacity="0"
       id="stop4" />
  </linearGradient>
  <linearGradient
     id="a"
     gradientTransform="matrix(.66667 0 0 .63518 128.19 198.519)"
     gradientUnits="userSpaceOnUse"
     x2="0"
     y1="543.798"
     y2="502.655">
    <stop
       offset="0"
       stop-color="#c6cdd1"
       id="stop7" />
    <stop
       offset="1"
       stop-color="#e0e5e7"
       id="stop9" />
  </linearGradient>
  <linearGradient
     id="b"
     gradientUnits="userSpaceOnUse"
     x1="391.571"
     x2="406.571"
     y1="525.798"
     y2="540.798">
    <stop
       offset="0"
       id="stop12" />
    <stop
       offset="1"
       stop-opacity="0"
       id="stop14" />
  </linearGradient>
  <linearGradient
     id="h"
     gradientUnits="userSpaceOnUse"
     x1="358.571"
     x2="358.571"
     y1="519.798"
     y2="505.798">
    <stop
       offset="0"
       stop-color="#4d4d4d"
       id="stop17" />
    <stop
       offset="1"
       stop-color="#585858"
       id="stop19" />
  </linearGradient>
  <linearGradient
     id="g"
     gradientUnits="userSpaceOnUse"
     x1="356.571"
     x2="356.571"
     y1="519.798"
     y2="505.798">
    <stop
       offset="0"
       stop-color="#afb0b3"
       id="stop22" />
    <stop
       offset="1"
       stop-color="#bdc3c7"
       id="stop24" />
  </linearGradient>
  <linearGradient
     id="f"
     gradientUnits="userSpaceOnUse"
     x1="350.571"
     x2="350.571"
     y1="505.798"
     y2="519.798">
    <stop
       offset="0"
       stop-color="#7f8c8d"
       id="stop27" />
    <stop
       offset="1"
       stop-color="#afb0b3"
       id="stop29" />
  </linearGradient>
  <linearGradient
     id="e"
     gradientUnits="userSpaceOnUse"
     x1="353.571"
     x2="353.571"
     y1="505.798"
     y2="519.798">
    <stop
       offset="0"
       stop-color="#31363b"
       id="stop32" />
    <stop
       offset="1"
       stop-color="#4d4d4d"
       id="stop34" />
  </linearGradient>
  <linearGradient
     id="d"
     gradientTransform="matrix(2.85714 0 0 2.8 -885.347 -966.434)"
     gradientUnits="userSpaceOnUse"
     x1="428.371"
     x2="428.371"
     y1="530.798"
     y2="525.798">
    <stop
       offset="0"
       stop-color="#da4453"
       id="stop37" />
    <stop
       offset="1"
       stop-color="#fa4e5f"
       id="stop39" />
  </linearGradient>
  <g
     transform="translate(-384.571,-515.798)"
     id="g54">
    <path
       d="m 384.571,517.798 h 32 v 28 h -32 z"
       fill="url(#a)"
       id="path42" />
    <path
       d="m 385.571,543.798 30,-20 1,1 v 21 h -29 z"
       fill="url(#b)"
       fill-rule="evenodd"
       opacity="0.2"
       id="path44" />
    <path
       d="m 385.571,523.798 h 30 v 20 h -30 z"
       fill="#ffffff"
       id="path50" />
    <rect
       style="fill:#333333;fill-opacity:1"
       id="rect860"
       width="31.999969"
       height="4"
       x="384.57101"
       y="517.79797" />
    <circle
       style="fill:#e95420;fill-opacity:1"
       id="path1090"
       cx="414.57098"
       cy="519.79797"
       r="1" />
    <rect
       style="fill:#77216f;fill-opacity:1"
       id="rect1462"
       width="31.999969"
       height="1"
       x="384.57098"
       y="521.79797" />
  </g>
  <path
     d="M396.513 535.673l-1.177-8 3.235 3.235 6.177-3.235 1.823 1.824 4.06-1.824 7.94 7.941v6.059h-16.058z"
     fill="url(#c)"
     fill-opacity=".2"
     transform="translate(-387.571 -513.673)"
     id="path56" />
  <path
     d="M331.571 505.798h3l3.5 10 3.5-10h3l-5 14h-3z"
     fill="url(#d)"
     transform="matrix(.58824 0 0 .57143 -189.042 -275.027)"
     id="path58" />
  <path
     d="M342.571 519.798l5-14h3l-5 14zm10 0l5-14h3l-5 14z"
     fill="url(#e)"
     transform="matrix(.58824 0 0 .57143 -189.042 -275.027)"
     id="path60" />
  <path
     d="M339.571 519.798l5-14h3l-5 14zm10 0l5-14h3l-5 14z"
     fill="url(#f)"
     transform="matrix(.58824 0 0 .57143 -189.042 -275.027)"
     id="path62" />
  <path
     d="M352.571 519.798h-3l-5-14h3zm10 0h-3l-5-14h3z"
     fill="url(#g)"
     transform="matrix(.58824 0 0 .57143 -189.042 -275.027)"
     id="path64" />
  <path
     d="M347.571 505.798l5 14h3l-5-14zm10 0l5 14h3l-5-14z"
     fill="url(#h)"
     transform="matrix(.58824 0 0 .57143 -189.042 -275.027)"
     id="path66" />
</svg>
