<?xml version="1.0" encoding="UTF-8" standalone="no"?>
<svg
   version="1.1"
   viewBox="0 0 32 32"
   id="svg42"
   sodipodi:docname="preferences-desktop-theme-applications.svg"
   inkscape:version="1.1.1 (3bf5ae0d25, 2021-09-20, custom)"
   xmlns:inkscape="http://www.inkscape.org/namespaces/inkscape"
   xmlns:sodipodi="http://sodipodi.sourceforge.net/DTD/sodipodi-0.dtd"
   xmlns="http://www.w3.org/2000/svg"
   xmlns:svg="http://www.w3.org/2000/svg">
  <sodipodi:namedview
     id="namedview44"
     pagecolor="#ffffff"
     bordercolor="#666666"
     borderopacity="1.0"
     inkscape:pageshadow="2"
     inkscape:pageopacity="0.0"
     inkscape:pagecheckerboard="0"
     showgrid="false"
     inkscape:zoom="25.8125"
     inkscape:cx="16"
     inkscape:cy="16"
     inkscape:window-width="1920"
     inkscape:window-height="1006"
     inkscape:window-x="0"
     inkscape:window-y="0"
     inkscape:window-maximized="1"
     inkscape:current-layer="g40" />
  <defs
     id="defs22">
    <linearGradient
       id="f"
       x2="0"
       y1="543.8"
       y2="502.66"
       gradientTransform="matrix(.66667 0 0 .63518 128.19 198.52)"
       gradientUnits="userSpaceOnUse">
      <stop
         stop-color="#c6cdd1"
         offset="0"
         id="stop2" />
      <stop
         stop-color="#e0e5e7"
         offset="1"
         id="stop4" />
    </linearGradient>
    <linearGradient
       id="e"
       x1="391.57"
       x2="406.57"
       y1="525.8"
       y2="540.8"
       gradientUnits="userSpaceOnUse">
      <stop
         offset="0"
         id="stop7" />
      <stop
         stop-opacity="0"
         offset="1"
         id="stop9" />
    </linearGradient>
    <linearGradient
       id="g"
       x1="393.41"
       x2="407.41"
       y1="526.65"
       y2="526.65"
       gradientTransform="matrix(1 0 0 .99999 .15371 .1567)"
       gradientUnits="userSpaceOnUse">
      <stop
         stop-color="#2e3436"
         offset="0"
         id="stop12" />
      <stop
         stop-color="#555753"
         offset="1"
         id="stop14" />
    </linearGradient>
    <linearGradient
       id="h"
       x1="392.57"
       x2="407.57"
       y1="521.8"
       y2="536.8"
       gradientTransform="translate(-5.9e-4,4.0005)"
       gradientUnits="userSpaceOnUse">
      <stop
         offset="0"
         id="stop17" />
      <stop
         stop-opacity="0"
         offset="1"
         id="stop19" />
    </linearGradient>
  </defs>
  <g
     transform="translate(-384.57,-515.8)"
     id="g40">
    <rect
       x="384.57001"
       y="517.79999"
       width="32"
       height="28"
       rx="0"
       fill="url(#f)"
       id="rect24" />
    <path
       d="m 385.57,543.8 30,-20 1,1 -10e-6,21 -29,3e-5 z"
       fill="url(#e)"
       fill-rule="evenodd"
       opacity="0.2"
       id="path26" />
    <rect
       x="385.57001"
       y="523.79999"
       width="30"
       height="20"
       fill="#ffffff"
       id="rect32" />
    <path
       d="m 407.43,526.94 c 0.67976,0.68608 -1.259,3.7315 -4.332,6.8047 -1.1894,1.1888 -2.4316,2.2613 -3.5449,3.0605 L 406.57,543.8 h 9 l 0.9945,-7.7258 z m -9.8476,7.8496 -0.0176,0.0137 0.004,0.004 0.0137,-0.0176 z m 0.13672,0.16992 1.7031,1.7148 c -0.30575,-0.78802 -0.91881,-1.4023 -1.7031,-1.7148 z m 0.69531,1.6191 c 0.4221,0.38858 0.40039,0.94169 0.40039,1.3047 0,1.1682 -1.7472,2.9199 -5.25,2.9199 l 3.0052,2.9968 h 9 z"
       fill="url(#h)"
       opacity="0.25"
       id="path36" />
    <path
       d="m 407.14,526.81 a 1.75,7.8749 44.998 0 0 -6.5143,4.4605 1.75,7.8749 44.998 0 0 -3.1,3.5992 c 0.9415,0.29981 1.6757,1.034 1.9755,1.9756 a 1.75,7.8749 44.998 0 0 3.599,-3.1002 1.75,7.8749 44.998 0 0 4.3304,-6.8053 1.75,7.8749 44.998 0 0 -0.29051,-0.1299 m -10.074,9.3244 c -3.4998,0.93784 -0.87497,3.1535 -3.4998,4.669 3.5028,0 5.2498,-1.7508 5.2498,-2.919 0,-0.58179 0.0591,-1.6533 -1.7499,-1.75 z"
       fill="url(#g)"
       id="path38" />
    <rect
       style="fill:#333333;fill-opacity:1"
       id="rect860"
       width="31.999969"
       height="4"
       x="384.57001"
       y="517.79999" />
    <circle
       style="fill:#e95420;fill-opacity:1"
       id="path1090"
       cx="414.56998"
       cy="519.79999"
       r="1" />
    <rect
       style="fill:#77216f;fill-opacity:1"
       id="rect1462"
       width="31.999969"
       height="1"
       x="384.56998"
       y="521.79999" />
  </g>
</svg>
