<?xml version="1.0" encoding="UTF-8" standalone="no"?>
<!-- Created with Inkscape (http://www.inkscape.org/) -->

<svg
   width="32"
   version="1.1"
   height="32"
   id="svg31"
   sodipodi:docname="preferences-web-browser-adblock.svg"
   inkscape:version="1.1.1 (3bf5ae0d25, 2021-09-20, custom)"
   xmlns:inkscape="http://www.inkscape.org/namespaces/inkscape"
   xmlns:sodipodi="http://sodipodi.sourceforge.net/DTD/sodipodi-0.dtd"
   xmlns:xlink="http://www.w3.org/1999/xlink"
   xmlns="http://www.w3.org/2000/svg"
   xmlns:svg="http://www.w3.org/2000/svg">
  <sodipodi:namedview
     id="namedview33"
     pagecolor="#ffffff"
     bordercolor="#666666"
     borderopacity="1.0"
     inkscape:pageshadow="2"
     inkscape:pageopacity="0.0"
     inkscape:pagecheckerboard="0"
     showgrid="false"
     inkscape:zoom="25.8125"
     inkscape:cx="16"
     inkscape:cy="16"
     inkscape:window-width="1920"
     inkscape:window-height="1006"
     inkscape:window-x="0"
     inkscape:window-y="0"
     inkscape:window-maximized="1"
     inkscape:current-layer="layer1" />
  <defs
     id="defs5455">
    <linearGradient
       inkscape:collect="always"
       id="linearGradient4293">
      <stop
         id="stop4295" />
      <stop
         offset="1"
         style="stop-opacity:0"
         id="stop4297" />
    </linearGradient>
    <linearGradient
       inkscape:collect="always"
       id="linearGradient4303-6">
      <stop
         style="stop-color:#c6cdd1"
         id="stop4305-7" />
      <stop
         offset="1"
         style="stop-color:#e0e5e7"
         id="stop4307-0" />
    </linearGradient>
    <linearGradient
       inkscape:collect="always"
       xlink:href="#linearGradient4303-6"
       id="linearGradient4643-8"
       y1="543.79797"
       y2="502.65509"
       gradientUnits="userSpaceOnUse"
       x2="0"
       gradientTransform="matrix(0.66666726 0 0 0.63518419 128.19015 198.5187)" />
    <linearGradient
       inkscape:collect="always"
       xlink:href="#linearGradient4293"
       id="linearGradient4183"
       y1="525.79797"
       x1="391.57144"
       y2="540.79797"
       x2="406.57147"
       gradientUnits="userSpaceOnUse" />
    <linearGradient
       inkscape:collect="always"
       xlink:href="#linearGradient4227"
       id="linearGradient4181"
       y1="27"
       y2="9"
       x2="0"
       gradientUnits="userSpaceOnUse" />
    <linearGradient
       id="linearGradient4227">
      <stop
         style="stop-color:#2e3436"
         id="stop4229" />
      <stop
         offset="1"
         style="stop-color:#555753"
         id="stop4231" />
    </linearGradient>
    <linearGradient
       inkscape:collect="always"
       xlink:href="#linearGradient4227-2"
       id="linearGradient4220"
       y1="14.999974"
       x1="18"
       y2="26.999973"
       x2="30"
       gradientUnits="userSpaceOnUse" />
    <linearGradient
       inkscape:collect="always"
       id="linearGradient4227-2">
      <stop
         style="stop-color:#292c2f"
         id="stop4229-9" />
      <stop
         offset="1"
         style="stop-opacity:0"
         id="stop4231-0" />
    </linearGradient>
  </defs>
  <metadata
     id="metadata5458" />
  <g
     inkscape:label="Capa 1"
     inkscape:groupmode="layer"
     id="layer1"
     transform="translate(-384.57143,-515.798)">
    <rect
       width="32"
       x="384.57144"
       y="517.79797"
       rx="0"
       height="28"
       style="fill:url(#linearGradient4643-8)"
       id="rect4641-5" />
    <path
       inkscape:connector-curvature="0"
       style="opacity:0.2;fill:url(#linearGradient4183);fill-rule:evenodd"
       id="path4167"
       d="m 385.57143,543.798 30,-20 1.00001,1 -10e-6,20.99997 -29,3e-5 z" />
    <rect
       width="30"
       x="385.57141"
       y="523.79797"
       height="20.000031"
       style="fill:#ffffff"
       id="rect4653-5" />
    <path
       style="color:#000000;fill:url(#linearGradient4181);stroke-width:2"
       id="rect3814"
       d="m 2,9 v 1 H 29 V 9 Z m 0,3 v 1 h 22 v -1 z m 0,3 v 1 h 9 v -1 z m 16,0 V 27 H 30 V 15 Z m 1,1 h 10 v 9 1 H 19 v -1 z m 0,9 h 2 l 2,-2 -1,-1 z m 10,0 -3,-3 -3,3 z M 21.5,17 C 20.669,17 20,17.669 20,18.5 20,19.331 20.669,20 21.5,20 22.331,20 23,19.331 23,18.5 23,17.669 22.331,17 21.5,17 Z M 2,18 v 1 h 14 v -1 z m 0,3 v 1 h 11 v -1 z m 0,3 v 1 h 14 v -1 z"
       transform="translate(384.57143,515.798)" />
    <path
       inkscape:connector-curvature="0"
       style="opacity:0.2;fill:url(#linearGradient4220);fill-rule:evenodd"
       id="path4165"
       d="M 25.099609,15.181641 24,15.681641 V 16 h -2 c 0,0 -1,1 -2,1 -1,0 -1,2 -1,2 v 3 l 1,3 0.283203,-0.494141 0.117188,1.175782 L 25,30 h 7 v -9 l -3.599609,-4.019531 0.507812,1.529297 z"
       transform="translate(384.57143,515.798)" />
    <path
       style="color:#000000;fill:#da4453;stroke-width:2"
       id="path3806"
       d="m 24,15 c -3.31371,0 -6,2.68629 -6,6 0,3.31371 2.68629,6 6,6 3.31371,0 6,-2.68629 6,-6 0,-3.31371 -2.68629,-6 -6,-6 z m 0,1 c 2.76142,0 5,2.23858 5,5 0,1.205108 -0.444214,2.294852 -1.154297,3.158203 L 20.841797,17.154297 C 21.705148,16.444214 22.794892,16 24,16 Z m -3.845703,1.841797 7.003906,7.003906 C 26.294852,25.555786 25.205108,26 24,26 c -2.76142,0 -5,-2.23858 -5,-5 0,-1.205108 0.444214,-2.294852 1.154297,-3.158203 z"
       transform="translate(384.57143,515.798)" />
    <path
       style="color:#000000;fill:#da4453;stroke-width:2"
       id="path4164"
       d="m 24,15 c -3.31371,0 -6,2.68629 -6,6 0,3.31371 2.68629,6 6,6 3.31371,0 6,-2.68629 6,-6 0,-3.31371 -2.68629,-6 -6,-6 z m 0,1 c 2.76142,0 5,2.23858 5,5 0,1.205108 -0.444214,2.294852 -1.154297,3.158203 L 20.841797,17.154297 C 21.705148,16.444214 22.794892,16 24,16 Z m -3.845703,1.841797 7.003906,7.003906 C 26.294852,25.555786 25.205108,26 24,26 c -2.76142,0 -5,-2.23858 -5,-5 0,-1.205108 0.444214,-2.294852 1.154297,-3.158203 z"
       transform="translate(384.57143,515.798)" />
    <rect
       style="fill:#333333;fill-opacity:1"
       id="rect860"
       width="31.999969"
       height="4"
       x="384.57144"
       y="517.79797" />
    <circle
       style="fill:#e95420;fill-opacity:1"
       id="path1090"
       cx="414.57141"
       cy="519.79797"
       r="1" />
    <rect
       style="fill:#77216f;fill-opacity:1"
       id="rect1462"
       width="31.999969"
       height="1"
       x="384.57141"
       y="521.79797" />
  </g>
</svg>
