<?xml version="1.0" encoding="UTF-8" standalone="no"?>
<!-- Created with Inkscape (http://www.inkscape.org/) -->

<svg
   width="32"
   version="1.1"
   height="32"
   id="svg34"
   sodipodi:docname="preferences-desktop-launch-feedback.svg"
   inkscape:version="1.1.1 (3bf5ae0d25, 2021-09-20, custom)"
   xmlns:inkscape="http://www.inkscape.org/namespaces/inkscape"
   xmlns:sodipodi="http://sodipodi.sourceforge.net/DTD/sodipodi-0.dtd"
   xmlns:xlink="http://www.w3.org/1999/xlink"
   xmlns="http://www.w3.org/2000/svg"
   xmlns:svg="http://www.w3.org/2000/svg">
  <sodipodi:namedview
     id="namedview36"
     pagecolor="#ffffff"
     bordercolor="#666666"
     borderopacity="1.0"
     inkscape:pageshadow="2"
     inkscape:pageopacity="0.0"
     inkscape:pagecheckerboard="0"
     showgrid="false"
     inkscape:zoom="25.8125"
     inkscape:cx="16"
     inkscape:cy="16"
     inkscape:window-width="1920"
     inkscape:window-height="1006"
     inkscape:window-x="0"
     inkscape:window-y="0"
     inkscape:window-maximized="1"
     inkscape:current-layer="layer1" />
  <defs
     id="defs5455">
    <linearGradient
       inkscape:collect="always"
       id="linearGradient4254">
      <stop
         style="stop-color:#197cf1"
         id="stop4256" />
      <stop
         offset="1"
         style="stop-color:#20bcfa"
         id="stop4258" />
    </linearGradient>
    <linearGradient
       inkscape:collect="always"
       id="linearGradient4293">
      <stop
         id="stop4295" />
      <stop
         offset="1"
         style="stop-opacity:0"
         id="stop4297" />
    </linearGradient>
    <linearGradient
       inkscape:collect="always"
       id="linearGradient4303-6">
      <stop
         style="stop-color:#c6cdd1"
         id="stop4305-7" />
      <stop
         offset="1"
         style="stop-color:#e0e5e7"
         id="stop4307-0" />
    </linearGradient>
    <linearGradient
       inkscape:collect="always"
       xlink:href="#linearGradient4303-6"
       id="linearGradient4643-8"
       y1="543.58923"
       y2="502.65616"
       gradientUnits="userSpaceOnUse"
       x2="0"
       gradientTransform="matrix(0.66666726 0 0 0.63518419 128.19014 198.51873)" />
    <linearGradient
       inkscape:collect="always"
       xlink:href="#linearGradient4293"
       id="linearGradient4183"
       y1="525.79797"
       x1="391.57144"
       y2="540.79797"
       x2="406.57147"
       gradientUnits="userSpaceOnUse"
       gradientTransform="matrix(1 0 0 1 -0.000007 0.000029)" />
    <linearGradient
       inkscape:collect="always"
       xlink:href="#linearGradient4303-6"
       id="linearGradient4193"
       y1="25"
       y2="11"
       x2="0"
       gradientUnits="userSpaceOnUse"
       gradientTransform="matrix(1 0 0 1 384.57143 515.798)" />
    <linearGradient
       inkscape:collect="always"
       id="linearGradient4143">
      <stop
         style="stop-color:#197cf1"
         id="stop4145" />
      <stop
         offset="1"
         style="stop-color:#20bcfa;stop-opacity:0"
         id="stop4147" />
    </linearGradient>
    <linearGradient
       inkscape:collect="always"
       xlink:href="#linearGradient4143"
       id="linearGradient4246"
       y1="23"
       x1="22"
       y2="18"
       gradientUnits="userSpaceOnUse"
       x2="16"
       gradientTransform="matrix(1 0 0 1 384.57143 515.798)" />
    <linearGradient
       inkscape:collect="always"
       xlink:href="#linearGradient4254"
       id="linearGradient4252"
       y1="25"
       x1="11"
       y2="11"
       gradientUnits="userSpaceOnUse"
       x2="16" />
    <linearGradient
       inkscape:collect="always"
       xlink:href="#linearGradient4293"
       id="linearGradient4200"
       y1="10.999974"
       x1="9"
       y2="25"
       x2="23.00003"
       gradientUnits="userSpaceOnUse" />
  </defs>
  <metadata
     id="metadata5458" />
  <g
     inkscape:label="Capa 1"
     inkscape:groupmode="layer"
     id="layer1"
     transform="translate(-384.57143,-515.798)">
    <rect
       width="32"
       x="384.57144"
       y="517.79797"
       rx="0"
       height="28"
       style="fill:url(#linearGradient4643-8)"
       id="rect4641-5" />
    <rect
       width="31.999983"
       x="384.57144"
       y="544.73163"
       height="1"
       style="fill:#99a1a7"
       id="rect4645-7" />
    <path
       inkscape:connector-curvature="0"
       style="opacity:0.2;fill:url(#linearGradient4183);fill-rule:evenodd"
       id="path4167"
       d="m 385.57142,543.79803 30,-20 1.00001,1 -1e-5,20.99997 -29,3e-5 z" />
    <rect
       width="30"
       x="385.57141"
       y="523.79797"
       height="20.000031"
       style="fill:#ffffff"
       id="rect4653-5" />
    <path
       style="opacity:0.2;fill:url(#linearGradient4200)"
       id="rect4170"
       d="m 16,12 a 6,6 0 0 0 -6,6 6,6 0 0 0 1.759766,4.240234 L 11.050781,22.949219 18.101562,30 H 32 V 24.101562 L 20.949219,13.050781 20.240234,13.759766 A 6,6 0 0 0 16,12 Z"
       transform="translate(384.57143,515.798)" />
    <path
       inkscape:connector-curvature="0"
       style="fill:url(#linearGradient4193)"
       id="path4182"
       d="m 400.57143,526.798 a 7,7 0 0 0 -7,7 7,7 0 0 0 7,7 7,7 0 0 0 7,-7 7,7 0 0 0 -7,-7 z m 0,1 a 6,6 0 0 1 6,6 6,6 0 0 1 -6,6 6,6 0 0 1 -6,-6 6,6 0 0 1 6,-6 z" />
    <path
       inkscape:connector-curvature="0"
       style="fill:url(#linearGradient4246)"
       id="path4195"
       d="m 400.57143,526.798 a 7,7 0 0 0 -7,7 7,7 0 0 0 7,7 7,7 0 0 0 7,-7 7,7 0 0 0 -7,-7 z m 0,1 a 6,6 0 0 1 6,6 6,6 0 0 1 -6,6 6,6 0 0 1 -6,-6 6,6 0 0 1 6,-6 z" />
    <path
       style="fill:url(#linearGradient4252)"
       id="path4250"
       d="m 16,11 a 7,7 0 0 0 -7,7 7,7 0 0 0 7,7 7,7 0 0 0 4.947266,-2.052734 L 20.240234,22.240234 A 6,6 0 0 1 16,24 6,6 0 0 1 10,18 6,6 0 0 1 16,12 Z"
       transform="translate(384.57143,515.798)" />
    <g
       id="g1759">
      <rect
         style="fill:#333333;fill-opacity:1"
         id="rect860"
         width="31.999969"
         height="4"
         x="384.57144"
         y="517.79797" />
      <circle
         style="fill:#e95420;fill-opacity:1"
         id="path1090"
         cx="414.57141"
         cy="519.79797"
         r="1" />
      <rect
         style="fill:#77216f;fill-opacity:1"
         id="rect1462"
         width="31.999969"
         height="1"
         x="384.57141"
         y="521.79797" />
    </g>
  </g>
</svg>
