<?xml version="1.0" encoding="UTF-8" standalone="no"?>
<svg
   height="32"
   width="32"
   version="1.1"
   id="svg43"
   sodipodi:docname="preferences-system-network-remote.svg"
   inkscape:version="1.1.1 (3bf5ae0d25, 2021-09-20, custom)"
   xmlns:inkscape="http://www.inkscape.org/namespaces/inkscape"
   xmlns:sodipodi="http://sodipodi.sourceforge.net/DTD/sodipodi-0.dtd"
   xmlns:xlink="http://www.w3.org/1999/xlink"
   xmlns="http://www.w3.org/2000/svg"
   xmlns:svg="http://www.w3.org/2000/svg">
  <defs
     id="defs47" />
  <sodipodi:namedview
     id="namedview45"
     pagecolor="#ffffff"
     bordercolor="#666666"
     borderopacity="1.0"
     inkscape:pageshadow="2"
     inkscape:pageopacity="0.0"
     inkscape:pagecheckerboard="0"
     showgrid="false"
     inkscape:zoom="25.8125"
     inkscape:cx="16"
     inkscape:cy="16"
     inkscape:window-width="1920"
     inkscape:window-height="1006"
     inkscape:window-x="0"
     inkscape:window-y="0"
     inkscape:window-maximized="1"
     inkscape:current-layer="svg43" />
  <linearGradient
     id="e"
     gradientUnits="userSpaceOnUse"
     x1="8"
     x2="8"
     y1="25"
     y2="11">
    <stop
       offset="0"
       stop-color="#2e3436"
       id="stop2" />
    <stop
       offset="1"
       stop-color="#555753"
       id="stop4" />
  </linearGradient>
  <linearGradient
     id="a">
    <stop
       offset="0"
       id="stop7" />
    <stop
       offset="1"
       stop-opacity="0"
       id="stop9" />
  </linearGradient>
  <linearGradient
     id="b"
     gradientTransform="matrix(.66667 0 0 .63518 128.19 198.519)"
     gradientUnits="userSpaceOnUse"
     x2="0"
     y1="543.798"
     y2="502.655">
    <stop
       offset="0"
       stop-color="#c6cdd1"
       id="stop12" />
    <stop
       offset="1"
       stop-color="#e0e5e7"
       id="stop14" />
  </linearGradient>
  <linearGradient
     id="c"
     gradientUnits="userSpaceOnUse"
     x1="391.571"
     x2="406.571"
     xlink:href="#a"
     y1="525.798"
     y2="540.798" />
  <linearGradient
     id="d"
     gradientUnits="userSpaceOnUse"
     x1="11"
     x2="25"
     xlink:href="#a"
     y1="14"
     y2="28" />
  <g
     transform="translate(-384.571,-515.798)"
     id="g31">
    <path
       d="m 384.571,517.798 h 32 v 28 h -32 z"
       fill="url(#b)"
       id="path19" />
    <path
       d="m 385.571,543.798 30,-20 1,1 v 21 h -29 z"
       fill="url(#c)"
       fill-rule="evenodd"
       opacity="0.2"
       id="path21" />
    <path
       d="m 385.571,523.798 h 30 v 20 h -30 z"
       fill="#ffffff"
       id="path27" />
    <rect
       style="fill:#333333;fill-opacity:1"
       id="rect860"
       width="31.999969"
       height="4"
       x="384.57101"
       y="517.79797" />
    <circle
       style="fill:#e95420;fill-opacity:1"
       id="path1090"
       cx="414.57098"
       cy="519.79797"
       r="1" />
    <rect
       style="fill:#77216f;fill-opacity:1"
       id="rect1462"
       width="31.999969"
       height="1"
       x="384.57098"
       y="521.79797" />
  </g>
  <path
     d="M8 11h16l7 7v10H14l-6-6z"
     fill="url(#d)"
     opacity=".2"
     id="path33" />
  <path
     d="M9 12h14v9H9z"
     fill="#fcfcfc"
     id="path35" />
  <g
     fill="url(#e)"
     id="g41">
    <path
       d="M16 12a9 9 0 0 0-7.877 4.668c.129.364.357.677.656.908A8 8 0 0 1 16 13a4 4 0 0 0-4 4 4 4 0 0 0 4 4 4 4 0 0 0 4-4 4 4 0 0 0-3.65-3.982 8 8 0 0 1 6.87 4.558c.302-.234.533-.55.66-.918A9 9 0 0 0 16 12zm0 2a3 3 0 0 1 3 3 3 3 0 0 1-3 3 3 3 0 0 1-3-3 3 3 0 0 1 3-3zm0 1a2 2 0 0 0-2 2 2 2 0 0 0 2 2 2 2 0 0 0 2-2 2 2 0 0 0-.09-.588A1 1 0 0 1 17 17a1 1 0 0 1-1-1 1 1 0 0 1 .59-.91A2 2 0 0 0 16 15z"
       id="path37" />
    <path
       d="M8 11v11h7v2h-3v1h8v-1h-3v-2h7V11H9zm1 1h14v9H9z"
       id="path39" />
  </g>
</svg>
