<?xml version="1.0" encoding="UTF-8" standalone="no"?>
<!-- Created with Inkscape (http://www.inkscape.org/) -->

<svg
   xmlns:dc="http://purl.org/dc/elements/1.1/"
   xmlns:cc="http://creativecommons.org/ns#"
   xmlns:rdf="http://www.w3.org/1999/02/22-rdf-syntax-ns#"
   xmlns:svg="http://www.w3.org/2000/svg"
   xmlns="http://www.w3.org/2000/svg"
   xmlns:sodipodi="http://sodipodi.sourceforge.net/DTD/sodipodi-0.dtd"
   xmlns:inkscape="http://www.inkscape.org/namespaces/inkscape"
   id="svg7384"
   height="16"
   viewBox="0 0 16 16"
   width="16"
   version="1.1"
   sodipodi:docname="airplane-mode-symbolic.svg"
   inkscape:version="0.92.1 r15371">
  <defs
     id="defs9" />
  <sodipodi:namedview
     pagecolor="#ffffff"
     bordercolor="#666666"
     borderopacity="1"
     objecttolerance="10"
     gridtolerance="10"
     guidetolerance="10"
     inkscape:pageopacity="0"
     inkscape:pageshadow="2"
     inkscape:window-width="1600"
     inkscape:window-height="808"
     id="namedview7"
     showgrid="false"
     inkscape:zoom="14.75"
     inkscape:cx="8"
     inkscape:cy="8"
     inkscape:window-x="0"
     inkscape:window-y="0"
     inkscape:window-maximized="1"
     inkscape:current-layer="svg7384" />
  <metadata
     id="metadata90">
    <rdf:RDF>
      <cc:Work
         rdf:about="">
        <dc:format>image/svg+xml</dc:format>
        <dc:type
           rdf:resource="http://purl.org/dc/dcmitype/StillImage" />
        <dc:title>Gnome Symbolic Icon Theme</dc:title>
      </cc:Work>
    </rdf:RDF>
  </metadata>
  <title
     id="title9167">Gnome Symbolic Icon Theme</title>
  <path
     inkscape:connector-curvature="0"
     style="color:#31363b;fill:#eff0f1;fill-opacity:1;fill-rule:evenodd;stroke:none;stroke-width:1px;stroke-linecap:butt;stroke-linejoin:miter;stroke-opacity:1"
     d="m 4.9999999,-1e-7 c -2.76142,0 -5.000000045,2.2385763 -5.000000045,5 H 0.99999986 c 0,-2.209139 1.79086004,-4 4.00000004,-4 z m 3.0000003,0 c 0,0 -1,0 -1,3 v 2.5 L 5.9003899,6.0507811 v -0.050781 h -0.80078 v 0.3007812 h -0.09961 v 0.1992188 l -2,0.9999998 v -0.5 h -0.0996 v -0.300781 h -0.80078 v 0.300781 h -0.09962 v 1 l -2.000000045,1 v 1 l 2.191400045,-0.273438 0.10938,0.273438 h 0.39844 l 0.14257,-0.355469 2.75196,-0.34375 h 0.10547 l 0.006,-0.01367 1.2947803,-0.162111 V 12 c 0,0.487991 0.24052,0.971967 0.484375,1.34375 L 4.9999999,15 v 1 L 8.0000002,15 11,16 V 15 L 8.5156252,13.34375 C 8.7594802,12.971967 9.0000002,12.487991 9.0000002,12 V 9.1249999 l 1.2949218,0.162109 0.0059,0.01367 h 0.105469 l 2.751953,0.34375 0.142578,0.355469 H 13.69926 L 13.808635,9.7265599 16,9.9999999 v -1 l -2,-1 v -1 H 13.90039 V 6.6992187 h -0.800782 v 0.3007812 h -0.09961 v 0.5 l -2,-1 V 6.3007811 h -0.09961 V 5.9999999 h -0.800782 v 0.050781 L 9.0000002,5.4999999 v -2.5 c 0,-3 -1,-3 -1,-3 z m -3.0000003,2 c -1.65685,0 -3,1.3431458 -3,3 h 1 c 0,-1.1045695 0.89543,-2 2,-2 z m 0,2 c 0,0 -1,0 -1,1 h 1 z"
     id="path4467-5"
     class="ColorScheme-Text" />
</svg>
