<?xml version="1.0" encoding="UTF-8" standalone="no"?>
<svg
   xmlns:dc="http://purl.org/dc/elements/1.1/"
   xmlns:cc="http://creativecommons.org/ns#"
   xmlns:rdf="http://www.w3.org/1999/02/22-rdf-syntax-ns#"
   xmlns:svg="http://www.w3.org/2000/svg"
   xmlns="http://www.w3.org/2000/svg"
   xmlns:sodipodi="http://sodipodi.sourceforge.net/DTD/sodipodi-0.dtd"
   xmlns:inkscape="http://www.inkscape.org/namespaces/inkscape"
   viewBox="0 0 16 16"
   version="1.1"
   id="svg8"
   sodipodi:docname="microphone-disabled-symbolic.svg"
   width="16"
   height="16"
   inkscape:version="0.92.3 (2405546, 2018-03-11)">
  <metadata
     id="metadata12">
    <rdf:RDF>
      <cc:Work
         rdf:about="">
        <dc:format>image/svg+xml</dc:format>
        <dc:type
           rdf:resource="http://purl.org/dc/dcmitype/StillImage" />
        <dc:title />
      </cc:Work>
    </rdf:RDF>
  </metadata>
  <sodipodi:namedview
     pagecolor="#ffffff"
     bordercolor="#666666"
     borderopacity="1"
     objecttolerance="10"
     gridtolerance="10"
     guidetolerance="10"
     inkscape:pageopacity="0"
     inkscape:pageshadow="2"
     inkscape:window-width="1920"
     inkscape:window-height="1026"
     id="namedview10"
     showgrid="true"
     inkscape:zoom="15.17"
     inkscape:cx="-31.934547"
     inkscape:cy="10.363441"
     inkscape:window-x="0"
     inkscape:window-y="30"
     inkscape:window-maximized="1"
     inkscape:current-layer="svg8">
    <inkscape:grid
       type="xygrid"
       id="grid816" />
  </sodipodi:namedview>
  <defs
     id="defs3051">
    <style
       type="text/css"
       id="current-color-scheme">
      .ColorScheme-Text {
        color:#232627;
      }
      </style>
  </defs>
  <path
     style="color:#232627;fill:#eff0f1;fill-opacity:1;stroke:none;opacity:0.5"
     d="M 7.5 0 C 6.115 0 5 1.115 5 2.5 L 5 2.8789062 L 10 7.8789062 L 10 2.5 C 10 1.115 8.885 0 7.5 0 z M 2 7 L 2 8 C 2.0009163 10.235554 3.6341118 12.198898 6 12.808594 L 6 15 L 4 15 L 4 16 L 11 16 L 11 15 L 9 15 L 9 12.806641 C 9.4326381 12.695148 9.8308443 12.525492 10.208984 12.330078 L 9.4628906 11.583984 C 8.8675591 11.842285 8.2070655 12 7.5 12 C 5.0147186 12 3 10.209139 3 8 L 3 7 L 2 7 z M 12 7 L 12 8 C 12 8.5436972 11.875347 9.060639 11.654297 9.5332031 L 12.390625 10.269531 C 12.777723 9.5820922 12.999319 8.8107488 13 8 L 13 7 L 12 7 z M 5 7.1210938 L 5 8.5 C 5 9.885 6.115 11 7.5 11 C 7.901263 11 8.2739877 10.897101 8.609375 10.730469 L 5 7.1210938 z "
     id="path4" />
  <path
     style="color:#000000;font-style:normal;font-variant:normal;font-weight:normal;font-stretch:normal;font-size:medium;line-height:normal;font-family:sans-serif;font-variant-ligatures:normal;font-variant-position:normal;font-variant-caps:normal;font-variant-numeric:normal;font-variant-alternates:normal;font-feature-settings:normal;text-indent:0;text-align:start;text-decoration:none;text-decoration-line:none;text-decoration-style:solid;text-decoration-color:#000000;letter-spacing:normal;word-spacing:normal;text-transform:none;writing-mode:lr-tb;direction:ltr;text-orientation:mixed;dominant-baseline:auto;baseline-shift:baseline;text-anchor:start;white-space:normal;shape-padding:0;clip-rule:nonzero;display:inline;overflow:visible;visibility:visible;opacity:1;isolation:auto;mix-blend-mode:normal;color-interpolation:sRGB;color-interpolation-filters:linearRGB;solid-color:#000000;solid-opacity:1;vector-effect:none;fill:#eff0f1;fill-opacity:1;fill-rule:nonzero;stroke:none;stroke-width:1px;stroke-linecap:butt;stroke-linejoin:miter;stroke-miterlimit:4;stroke-dasharray:none;stroke-dashoffset:0;stroke-opacity:1;color-rendering:auto;image-rendering:auto;shape-rendering:auto;text-rendering:auto;enable-background:accumulate"
     d="M 0.35351562,-0.35351562 -0.35351562,0.35351562 15.646484,16.353516 16.353516,15.646484 Z"
     id="path818"
     inkscape:connector-curvature="0" />
</svg>
