<?xml version="1.0" encoding="UTF-8" standalone="no"?>
<!-- Created with Inkscape (http://www.inkscape.org/) -->

<svg
   width="32"
   version="1.1"
   height="32"
   viewBox="0 0 32 32"
   id="svg17"
   sodipodi:docname="folder-bookmark.svg"
   inkscape:version="1.1.1 (3bf5ae0d25, 2021-09-20, custom)"
   xmlns:inkscape="http://www.inkscape.org/namespaces/inkscape"
   xmlns:sodipodi="http://sodipodi.sourceforge.net/DTD/sodipodi-0.dtd"
   xmlns="http://www.w3.org/2000/svg"
   xmlns:svg="http://www.w3.org/2000/svg">
  <sodipodi:namedview
     id="namedview19"
     pagecolor="#ffffff"
     bordercolor="#666666"
     borderopacity="1.0"
     inkscape:pageshadow="2"
     inkscape:pageopacity="0.0"
     inkscape:pagecheckerboard="0"
     showgrid="false"
     inkscape:zoom="19.6875"
     inkscape:cx="14.450794"
     inkscape:cy="18.768254"
     inkscape:window-width="1920"
     inkscape:window-height="997"
     inkscape:window-x="0"
     inkscape:window-y="0"
     inkscape:window-maximized="1"
     inkscape:current-layer="svg17" />
  <defs
     id="defs5455" />
  <metadata
     id="metadata5458" />
  <path
     inkscape:connector-curvature="0"
     style="fill:#6d8342;fill-rule:evenodd"
     id="path4308"
     d="m 2,3 v 7 1 H 30 V 5 H 15.99999 l -2,-2 z" />
  <path
     inkscape:connector-curvature="0"
     style="fill-opacity:0.235294;fill-rule:evenodd"
     id="path4306"
     d="M 12.99999,8 11,9 H 2 v 1 h 6.99999 3 z" />
  <path
     inkscape:connector-curvature="0"
     style="fill:#87a252;fill-opacity:1"
     id="rect4294"
     d="m 12.99999,8 -2,2 h -9 -1 v 19 h 11 1 18 V 8 Z" />
  <path
     inkscape:connector-curvature="0"
     style="fill:#ffffff;fill-opacity:0.235294;fill-rule:evenodd"
     id="path4310"
     d="m 13.99999,3 1,3 H 30 V 5 H 15.99999 Z" />
  <path
     id="rect976"
     style="opacity:0.1;fill:#eff0f1;fill-opacity:1;stroke-width:0.5;stroke-linejoin:round"
     d="m 13,7.99997 h 18 v 21 H 1 L 0.99999,10 h 10 z"
     sodipodi:nodetypes="ccccccc" />
  <path
     inkscape:connector-curvature="0"
     style="fill:#ffffff;fill-opacity:0.235294;fill-rule:evenodd"
     id="path4304"
     d="m 12.99999,8 -2,2 h -10 v 1 h 11 z" />
  <rect
     width="30"
     x="1.0000017"
     y="27.999973"
     height="1"
     style="fill-opacity:0.235294"
     id="rect4292" />
  <path
     inkscape:connector-curvature="0"
     style="fill:#677c3e"
     id="rect4186"
     d="m 13,13 v 10 l 3,-1 3,1 V 13 Z m 1,1 h 4 v 7.7 L 16,21 14,21.7 Z" />
</svg>
