<svg xmlns="http://www.w3.org/2000/svg" id="svg2" width="22" height="22" version="1.1">
 <defs id="defs10">
  <style id="current-color-scheme" type="text/css">
   .ColorScheme-Text { color:#eff0f1; } .ColorScheme-Highlight { color:#3daee9; }
  </style>
 </defs>
 <path id="path4488" style="fill:#eff0f1;fill-opacity:1" d="M 7.5 3 A 4.5 4.5 0 0 0 3 7.5 A 4.5 4.5 0 0 0 3.6132812 9.7558594 A 7.5 7.5 0 0 0 3.5 11 A 7.5 7.5 0 0 0 11 18.5 A 7.5 7.5 0 0 0 12.25 18.394531 A 4.5 4.5 0 0 0 14.5 19 A 4.5 4.5 0 0 0 19 14.5 A 4.5 4.5 0 0 0 18.386719 12.244141 A 7.5 7.5 0 0 0 18.5 11 A 7.5 7.5 0 0 0 11 3.5 A 7.5 7.5 0 0 0 9.75 3.6054688 A 4.5 4.5 0 0 0 7.5 3 z M 7.4980469 4 L 7.5 4 C 8.11395 4.00095 8.7166769 4.1631131 9.2480469 4.4707031 L 9.5605469 4.6523438 L 9.9179688 4.5917969 C 10.275889 4.531097 10.63697 4.5002 11 4.5 C 14.60103 4.5 17.49893 7.3972768 17.5 10.998047 C 17.497 11.357597 17.464744 11.716183 17.402344 12.070312 L 17.337891 12.431641 L 17.523438 12.748047 C 17.834258 13.280717 17.99835 13.887176 18 14.503906 C 17.998 16.446206 16.444523 17.99893 14.501953 18 C 13.887343 17.99939 13.283873 17.837217 12.751953 17.529297 L 12.439453 17.349609 L 12.082031 17.408203 C 11.724111 17.468907 11.36303 17.4998 11 17.5 C 7.39897 17.5 4.50107 14.602723 4.5 11.001953 L 4.5 11 C 4.503 10.6411 4.5354562 10.283177 4.5976562 9.9296875 L 4.6621094 9.5683594 L 4.4765625 9.2519531 C 4.1660625 8.7198331 4.00199 8.11606 4 7.5 L 4 7.4980469 C 4.001 5.5548038 5.5548069 4.00107 7.4980469 4 z M 10.851562 6.0175781 C 8.3880625 6.0175781 6.9375 7.1253437 6.9375 9.0273438 C 6.9375 11.096284 9.6387406 11.636051 11.306641 11.863281 C 12.867741 12.281211 12.914062 12.521765 12.914062 13.203125 C 12.914063 14.052325 11.838915 14.378906 11.109375 14.378906 C 8.906775 14.378906 9.0760438 12.78125 7.9023438 12.78125 C 7.2976738 12.78125 7 12.975578 7 13.736328 C 7 14.497128 8.56775 15.970703 11.03125 15.970703 C 13.49465 15.970703 15.0625 15.019187 15.0625 13.117188 C 15.0625 11.159188 13.447641 10.579029 11.306641 10.005859 C 9.8825506 9.6603594 9.0859375 9.4098756 9.0859375 8.7285156 C 9.0859375 7.8792856 9.9872569 7.5527344 10.716797 7.5527344 C 12.919437 7.5527344 12.437628 8.9628906 13.611328 8.9628906 C 14.215998 8.9628906 14.583984 8.838925 14.583984 8.078125 C 14.583984 7.317325 13.315062 6.0175781 10.851562 6.0175781 z"/>
</svg>
