<svg xmlns="http://www.w3.org/2000/svg" id="svg2" width="22" height="22" version="1.1">
 <defs id="defs18">
  <style id="current-color-scheme" type="text/css">
   .ColorScheme-Text { color:#eff0f1; } .ColorScheme-Highlight { color:#3daee9; }
  </style>
 </defs>
 <path id="path8" style="color:#eff0f1;fill:currentColor" d="m 3,4 v 1 h 3 v 4 h -0.4863281 -2 -0.5 v 0.5 2 0.5 h 0.5 2 H 6 v 1 h -0.4863281 -2 -0.5 v 0.5 2 0.5 h 0.5 2 H 6 v 3 H 7 V 5 4 H 6 Z m 5.0136719,3 v 1 h 0.5 0.5 5.0000001 1 H 18 v 8 h -6.986328 -1 -1.0000001 -1 v 1 H 10 v 1 1 h 0.01367 8 1 V 18 8 7 h -1 -3 -1 -5.0000001 -0.5 z m -4,3 h 1 v 1 h -1 z m 5,0.09961 v 4 h 1.0000001 v -4 z m 2.0000001,0 v 4 h 1 v -4 z m 2,0 v 4 h 1 v -4 z m 2,0 v 4 h 1 v -4 z M 4.0136719,14 h 1 v 1 h -1 z"/>
</svg>
