<?xml version="1.0" encoding="UTF-8" standalone="no"?>
<svg
   xmlns:dc="http://purl.org/dc/elements/1.1/"
   xmlns:cc="http://creativecommons.org/ns#"
   xmlns:rdf="http://www.w3.org/1999/02/22-rdf-syntax-ns#"
   xmlns:svg="http://www.w3.org/2000/svg"
   xmlns="http://www.w3.org/2000/svg"
   xmlns:sodipodi="http://sodipodi.sourceforge.net/DTD/sodipodi-0.dtd"
   xmlns:inkscape="http://www.inkscape.org/namespaces/inkscape"
   width="22"
   height="22"
   version="1.1"
   id="svg7"
   sodipodi:docname="irccloud-desktop-tray.svg"
   inkscape:version="0.92.3 (2405546, 2018-03-11)">
  <metadata
     id="metadata11">
    <rdf:RDF>
      <cc:Work
         rdf:about="">
        <dc:format>image/svg+xml</dc:format>
        <dc:type
           rdf:resource="http://purl.org/dc/dcmitype/StillImage" />
        <dc:title></dc:title>
      </cc:Work>
    </rdf:RDF>
  </metadata>
  <sodipodi:namedview
     pagecolor="#ffffff"
     bordercolor="#666666"
     borderopacity="1"
     objecttolerance="10"
     gridtolerance="10"
     guidetolerance="10"
     inkscape:pageopacity="0"
     inkscape:pageshadow="2"
     inkscape:window-width="1920"
     inkscape:window-height="1020"
     id="namedview9"
     showgrid="false"
     inkscape:zoom="17.43"
     inkscape:cx="8.070977"
     inkscape:cy="6.689158"
     inkscape:window-x="0"
     inkscape:window-y="30"
     inkscape:window-maximized="1"
     inkscape:current-layer="svg7" />
  <defs
     id="defs3">
    <style
       id="current-color-scheme"
       type="text/css">
   .ColorScheme-Text { color:#eff0f1; } .ColorScheme-Highlight { color:#3daee9; }
  </style>
  </defs>
  <path
     style="fill:#eff0f1;fill-opacity:1"
     d="M 10.5,3 C 7.6098708,3.0036077 5.2155571,5.2434771 5.0195312,8.1269531 3.2456807,8.5754346 2.002254,10.170334 2,12 c 0,2.209139 1.5701579,4 3.7792969,4 v 0 c 0.07907,0.28213 0.1487537,0.567335 0.1289062,0.845703 0.01039,0.746578 -0.3997707,1.199563 -0.9023437,1.634766 -0.127824,0.06781 -0.2260149,0.147344 -0.2167969,0.175781 0.03038,0.09368 0.6159005,0.29352 0.9609375,0.328125 0.445165,0.04463 1.0652649,-0.0096 1.4199219,-0.142578 0.563869,-0.211406 1.0170285,-0.563451 1.3359375,-1.041016 0.272695,-0.408366 0.4161593,-0.813186 0.4589844,-1.285156 L 8.9960938,16 H 15.5 C 17.432997,16 19,14.432997 19,12.5 18.997478,10.75158 17.705062,9.2732225 15.972656,9.0371094 15.990524,8.8586259 15.999649,8.6793752 16,8.5 16,5.4624339 13.537566,3 10.5,3 Z m 0,1 h 0.002 C 12.9981,4.0010706 15,6.0035416 15,8.5 14.999651,8.6461099 14.9931,8.7921156 14.97852,8.9375 14.92527,9.4727787 15.304957,9.9542951 15.837895,10.027344 17.082819,10.197018 17.998188,11.245513 18,12.501953 17.998956,13.893584 16.8919,15 15.5,15 H 8.9960938 c -0.5287055,1.12e-4 -0.9659857,0.41172 -0.9980469,0.939453 L 7.96875,16.425781 c -0.029313,0.323052 -0.1017705,0.531065 -0.2949219,0.820313 -0.3103429,0.49262 -0.6680728,0.49302 -1.0761719,0.679686 0.5186327,-0.917177 0.415411,-2.335807 0.244147,-2.443368 -0.017505,-0.02827 -0.036409,-0.05565 -0.056641,-0.08203 -0.019517,-0.02707 -0.040376,-0.05314 -0.0625,-0.07813 -0.02294,-0.02397 -0.047058,-0.04679 -0.072266,-0.06836 -0.049984,-0.04438 -0.1042925,-0.08364 -0.1621094,-0.117187 -0.08635,-0.05079 -0.1798417,-0.08832 -0.2773437,-0.111328 -0.032241,-0.0075 -0.064833,-0.01334 -0.097656,-0.01758 C 6.0756992,15.003065 6.0378779,15.000457 6,15 4.3319568,15 3.0010457,13.669731 3,12.001953 V 12 C 3.0025729,10.623509 3.9289996,9.4331474 5.2636719,9.0957031 5.6832788,8.9902437 5.9874921,8.6269216 6.0175781,8.1953125 6.178562,5.827293 8.126755,4.0039827 10.5,4 Z"
     id="path5"
     inkscape:connector-curvature="0"
     sodipodi:nodetypes="cccccccccccccsccccccccccscccccccccccccccccc" />
</svg>
