<svg xmlns="http://www.w3.org/2000/svg" id="svg2" width="22" height="22" version="1.1">
 <defs id="defs14">
  <style id="current-color-scheme" type="text/css">
   .ColorScheme-Text { color:#eff0f1; } .ColorScheme-Highlight { color:#3daee9; }
  </style>
 </defs>
 <path id="path4506" style="fill:#eff0f1;fill-opacity:1;opacity:0.5" d="M 8 3 L 13.5 13 L 20 13 L 14 3 L 8 3 z M 7.5 4 L 2 14 L 5 19 L 10.5 9.5 L 7.5 4 z M 9.6914062 4 L 13.433594 4 L 18.234375 12 L 14.091797 12 L 9.6914062 4 z M 7.4980469 6.0820312 L 9.3535156 9.4863281 L 4.984375 17.03125 L 3.1523438 13.978516 L 7.4980469 6.0820312 z M 20 14 L 9 14.009766 L 6 19 L 17 19 L 20 14 z M 18.232422 15.001953 L 16.433594 18 L 7.7695312 18 L 9.5664062 15.009766 L 18.232422 15.001953 z"/>
</svg>
