<?xml version="1.0" encoding="UTF-8" standalone="no"?>
<svg
   xmlns:dc="http://purl.org/dc/elements/1.1/"
   xmlns:cc="http://creativecommons.org/ns#"
   xmlns:rdf="http://www.w3.org/1999/02/22-rdf-syntax-ns#"
   xmlns:svg="http://www.w3.org/2000/svg"
   xmlns="http://www.w3.org/2000/svg"
   xmlns:sodipodi="http://sodipodi.sourceforge.net/DTD/sodipodi-0.dtd"
   xmlns:inkscape="http://www.inkscape.org/namespaces/inkscape"
   id="svg2"
   width="22"
   height="22"
   version="1.1"
   sodipodi:docname="xfce4-whiskermenu.svg"
   inkscape:version="0.92.3 (2405546, 2018-03-11)">
  <metadata
     id="metadata8">
    <rdf:RDF>
      <cc:Work
         rdf:about="">
        <dc:format>image/svg+xml</dc:format>
        <dc:type
           rdf:resource="http://purl.org/dc/dcmitype/StillImage" />
      </cc:Work>
    </rdf:RDF>
  </metadata>
  <sodipodi:namedview
     pagecolor="#ffffff"
     bordercolor="#666666"
     borderopacity="1"
     objecttolerance="10"
     gridtolerance="10"
     guidetolerance="10"
     inkscape:pageopacity="0"
     inkscape:pageshadow="2"
     inkscape:window-width="1920"
     inkscape:window-height="1020"
     id="namedview6"
     showgrid="false"
     inkscape:zoom="24.65"
     inkscape:cx="11"
     inkscape:cy="11"
     inkscape:window-x="0"
     inkscape:window-y="30"
     inkscape:window-maximized="1"
     inkscape:current-layer="svg2" />
  <defs
     id="defs8">
    <style
       id="current-color-scheme"
       type="text/css">
   .ColorScheme-Text { color:#eff0f1; } .ColorScheme-Highlight { color:#3daee9; }
  </style>
  </defs>
  <path
     style="fill:#eff0f1;fill-opacity:1"
     d="M 11.166016 3 C 10.973876 2.99716 10.780481 3.003161 10.587891 3.015625 C 7.4184898 3.134425 4.4739781 5.3450031 3.4550781 8.3457031 C 2.4012781 11.240903 3.2252019 14.696922 5.4824219 16.794922 C 7.7113219 18.974522 11.257381 19.6122 14.113281 18.375 C 17.020381 17.1842 19.0496 14.150306 19 11.003906 L 18.998047 11.003906 C 18.999047 9.7418066 18.699047 8.4816281 18.123047 7.3613281 C 16.833047 4.7733281 14.048016 3.0424 11.166016 3 z M 11.150391 4 C 13.641328 4.036647 16.115488 5.5756353 17.228516 7.8085938 L 17.232422 7.8144531 L 17.234375 7.8203125 C 17.352495 8.0500514 17.453571 8.2887305 17.544922 8.53125 C 17.376042 8.7842687 17.181778 9.1539507 17.246094 9.3417969 C 17.274667 9.4229113 17.480043 9.096131 17.625 8.7753906 C 17.864794 9.4917638 17.998647 10.246818 17.998047 11.003906 L 17.998047 11.033203 C 18.034357 13.735005 16.23693 16.424128 13.734375 17.449219 L 13.724609 17.453125 L 13.714844 17.457031 C 11.250968 18.524423 8.1011384 17.957119 6.1816406 16.080078 L 6.171875 16.072266 L 6.1621094 16.0625 C 4.2172115 14.254805 3.4855433 11.184845 4.3945312 8.6875 L 4.3984375 8.6777344 L 4.4003906 8.6660156 C 4.5130738 8.3341598 4.655698 8.0138064 4.8222656 7.7050781 C 5.4018391 8.0101447 6.119234 8.3867634 6.5644531 8.6660156 C 7.3421531 9.1424156 8.3937875 10.113744 8.4765625 10.277344 C 7.6676125 11.686544 8.0350231 12.933606 7.9394531 13.066406 C 7.8706731 13.177206 7.2347131 13.875316 7.4394531 13.978516 C 7.6425831 14.080116 7.9648869 13.919872 8.0136719 13.888672 C 8.1152399 13.826272 8.2197675 13.736416 8.1757812 13.916016 C 8.0898124 14.283216 7.6996512 15.166116 8.2382812 14.978516 C 8.3038815 14.940876 9.1706206 13.983972 9.2753906 13.951172 C 11.000091 14.401172 12.928066 14.194544 13.285156 14.027344 C 13.471106 14.039744 13.998918 14.371297 14.298828 14.529297 C 14.598738 14.685697 15.415748 15.077634 15.173828 14.365234 C 15.098648 14.140034 14.561267 13.564944 14.648438 13.527344 C 14.840376 13.450944 15.315307 13.725744 15.498047 13.777344 C 16.044687 13.930544 16.118536 13.719153 15.773438 13.251953 C 15.432736 12.784753 15.381405 12.856225 15.273438 12.640625 C 15.189056 12.467025 15.273558 12.275316 15.335938 12.228516 C 15.446737 12.144116 17.078257 11.237425 17.460938 10.890625 C 18.027968 10.375025 17.461426 9.731425 17.322266 9.640625 C 16.146166 8.793825 14.939428 8.9742437 14.923828 8.8398438 C 14.915838 8.6866435 14.916884 8.2449969 14.896484 8.0917969 C 14.779314 7.0541969 14.301908 7.3164064 14.236328 7.3164062 C 13.756878 7.3916062 13.933579 8.1256065 14.136719 8.8164062 C 14.152309 8.9928052 13.967345 8.9145156 13.859375 8.7285156 C 13.490685 7.7392796 13.335945 7.7561625 13.234375 7.7265625 C 13.136005 7.7045625 12.790875 7.9164063 12.796875 8.3164062 C 12.798475 8.4304064 12.933594 8.973425 12.933594 9.140625 C 12.707264 9.339025 12.696514 9.789125 12.458984 9.953125 C 11.767184 10.096725 10.104024 9.6118438 9.8964844 9.5898438 C 9.1778844 9.4554436 8.86556 9.9948344 8.75 9.8652344 C 7.8175 8.7964344 6.3924006 8.0028344 5.7753906 7.8652344 C 5.6231992 7.83239 5.2705848 7.681104 4.9375 7.5253906 C 6.101861 5.5253625 8.3193971 4.100167 10.626953 4.0136719 L 10.640625 4.0136719 L 10.654297 4.0136719 C 10.819322 4.0029921 10.983517 3.9975335 11.150391 4 z M 17.109375 8.140625 C 16.884245 8.382665 16.923923 9.2868969 16.970703 9.2792969 C 17.200233 9.2324969 17.178155 8.067825 17.109375 8.140625 z M 14.685547 9.6914062 C 14.693537 9.6834066 14.703691 9.693925 14.712891 9.703125 C 14.781661 9.931125 14.857487 10.148325 15.310547 10.203125 C 15.363727 10.209525 15.058749 10.388497 14.849609 10.279297 C 14.658869 10.163697 14.641557 9.7430063 14.685547 9.6914062 z M 15.863281 10.839844 C 15.904261 10.833744 15.933751 10.835144 15.962891 10.839844 C 16.073661 10.867844 15.159071 11.344897 15.087891 11.279297 C 15.044301 11.237297 15.575771 10.893044 15.863281 10.839844 z M 16.099609 11.140625 C 16.194779 11.148625 15.57038 11.795716 15.5 11.728516 C 15.44842 11.681716 15.904469 11.125025 16.099609 11.140625 z "
     id="path827" />
</svg>
