<svg xmlns="http://www.w3.org/2000/svg" width="22" height="22" version="1.1">
 <defs>
  <style id="current-color-scheme" type="text/css">
   .ColorScheme-Text { color:#eff0f1; } .ColorScheme-Highlight { color:#3daee9; }
  </style>
 </defs>
 <path style="fill:currentColor" class="ColorScheme-Text" d="M 15.000001,17.928202 C 18.826144,15.71918 20.137229,10.826143 17.928204,7.0000002 15.71918,3.1738576 10.826145,1.8627729 7.0000003,4.0717963 3.1738586,6.2808207 1.8627723,11.173856 4.0717968,15.000002 c 2.2090236,3.826142 7.1020602,5.137228 10.9282042,2.9282 z m -0.5,-0.866025 c -2.545188,1.469466 -5.6084736,1.165561 -7.7880314,-0.52833 l 0.8080845,-0.998793 c 1.7965678,1.283728 4.2346009,1.380099 6.2299459,0.228084 2.042977,-1.179511 3.198037,-3.458319 2.877825,-5.702961 l -1.884667,0.294256 c 0.210965,1.499415 -0.552758,3.025464 -1.915031,3.811973 -1.312044,0.757508 -2.8737095,0.718078 -4.0665281,-0.105931 l 0.859595,-1.073637 -3.7905822,0.05952 0.8602031,3.470388 C 6.0036959,15.978433 5.4023187,15.304532 4.9378209,14.500006 2.9990572,11.141956 4.1419583,6.8765895 7.5000006,4.9378222 10.858044,2.9990563 15.123413,4.1419582 17.062179,7.4999997 19.000946,10.858043 17.858043,15.123413 14.500001,17.062177 Z M 16.152075,8.9275599 15.330599,5.5047228 14.493881,6.492984 C 12.717135,5.20359 10.233262,5.091824 8.248308,6.2378367 6.2001357,7.4203492 5.0628627,9.6539604 5.3548608,11.913736 L 7.2412203,11.618505 C 7.0454751,10.111455 7.8053127,8.6225801 9.1701856,7.8345703 10.473567,7.0820629 12.068948,7.1438917 13.252334,7.967563 l -0.857902,1.0726623 z"/>
</svg>
