<svg xmlns="http://www.w3.org/2000/svg" id="svg2" width="22" height="22" version="1.1">
 <defs id="defs8">
  <style id="current-color-scheme" type="text/css">
   .ColorScheme-Text { color:#eff0f1; } .ColorScheme-Highlight { color:#3daee9; }
  </style>
 </defs>
 <path id="path4489" style="fill:#eff0f1;fill-opacity:1" d="M 11.009766 5 C 5.3342652 5 2 10.669922 2 10.669922 C 2 10.669922 5.6243652 17 11.009766 17 C 16.811766 17 20 10.669922 20 10.669922 C 20 10.669922 16.779766 5 11.009766 5 z M 11.009766 6 C 15.667947 6 18.265749 9.9382982 18.748047 10.703125 C 18.291301 11.514502 15.660304 16 11.009766 16 C 6.8122505 16 3.8292673 11.537386 3.2792969 10.685547 C 3.8090779 9.8793036 6.4766619 6 11.009766 6 z M 11 8 C 9.3432 8 8 9.3432 8 11 C 8 12.657 9.3432 14 11 14 C 12.657 14 14 12.657 14 11 C 14 9.3432 12.657 8 11 8 z M 11 9 C 12.104 9 13 9.895 13 11 C 13 12.105 12.105 13 11 13 C 9.8961 13 9 12.105 9 11 C 9 9.8961 9.895 9 11 9 z"/>
</svg>
