<?xml version="1.0" encoding="UTF-8" standalone="no"?>
<svg
   xmlns:dc="http://purl.org/dc/elements/1.1/"
   xmlns:cc="http://creativecommons.org/ns#"
   xmlns:rdf="http://www.w3.org/1999/02/22-rdf-syntax-ns#"
   xmlns:svg="http://www.w3.org/2000/svg"
   xmlns="http://www.w3.org/2000/svg"
   xmlns:sodipodi="http://sodipodi.sourceforge.net/DTD/sodipodi-0.dtd"
   xmlns:inkscape="http://www.inkscape.org/namespaces/inkscape"
   width="22"
   height="22"
   version="1.1"
   id="svg7"
   sodipodi:docname="motrix-tray-active.svg"
   inkscape:version="0.92.3 (2405546, 2018-03-11)">
  <metadata
     id="metadata11">
    <rdf:RDF>
      <cc:Work
         rdf:about="">
        <dc:format>image/svg+xml</dc:format>
        <dc:type
           rdf:resource="http://purl.org/dc/dcmitype/StillImage" />
        <dc:title></dc:title>
      </cc:Work>
    </rdf:RDF>
  </metadata>
  <sodipodi:namedview
     pagecolor="#ffffff"
     bordercolor="#666666"
     borderopacity="1"
     objecttolerance="10"
     gridtolerance="10"
     guidetolerance="10"
     inkscape:pageopacity="0"
     inkscape:pageshadow="2"
     inkscape:window-width="1920"
     inkscape:window-height="1020"
     id="namedview9"
     showgrid="false"
     inkscape:zoom="24.65"
     inkscape:cx="11"
     inkscape:cy="11"
     inkscape:window-x="0"
     inkscape:window-y="30"
     inkscape:window-maximized="1"
     inkscape:current-layer="svg7" />
  <defs
     id="defs3">
    <style
       id="current-color-scheme"
       type="text/css">
   .ColorScheme-Text { color:#eff0f1; } .ColorScheme-Highlight { color:#3daee9; }
  </style>
  </defs>
  <path
     style="fill:#3daee9;fill-opacity:1"
     d="M 4 3 C 3.446 3 3 3.446 3 4 L 3 18 C 3 18.554 3.446 19 4 19 L 18 19 C 18.554 19 19 18.554 19 18 L 19 4 C 19 3.446 18.554 3 18 3 L 16 3 L 16 6.1992188 C 16 6.6424188 15.627682 7 15.166016 7 L 6.8339844 7 C 6.3723184 7 6 6.6424188 6 6.1992188 L 6 3 L 4 3 z M 4 4 L 5 4 L 5 6.1992188 C 5 7.2024639 5.8559552 8 6.8339844 8 L 15.166016 8 C 16.144045 8 17 7.2024639 17 6.1992188 L 17 4 L 18 4 L 18 18 L 4 18 L 4 4 z M 7 4 L 7 5 L 10 5 L 10 4 L 7 4 z M 12 4 L 12 5 L 15 5 L 15 4 L 12 4 z M 6 14 C 5.446 14 5 14.446 5 15 L 5 16 L 5 17 L 6 17 L 6 15 L 7 15 L 7 17 L 8 17 L 8 15 L 9 15 L 9 17 L 10 17 L 10 16 L 10 15 C 10 14.446 9.554 14 9 14 L 6 14 z M 14 14 C 13.446 14 13 14.446 13 15 L 13 16 C 13 16.554 13.446 17 14 17 L 16 17 C 16.554 17 17 16.554 17 16 L 17 15 C 17 14.446 16.554 14 16 14 L 14 14 z M 11.5 15 C 11.223 15 11 15.223 11 15.5 C 11 15.777 11.223 16 11.5 16 C 11.777 16 12 15.777 12 15.5 C 12 15.223 11.777 15 11.5 15 z M 14 15 L 16 15 L 16 16 L 14 16 L 14 15 z "
     id="path830" />
</svg>
