<?xml version="1.0" encoding="UTF-8" standalone="no"?>
<svg
   xmlns:dc="http://purl.org/dc/elements/1.1/"
   xmlns:cc="http://creativecommons.org/ns#"
   xmlns:rdf="http://www.w3.org/1999/02/22-rdf-syntax-ns#"
   xmlns:svg="http://www.w3.org/2000/svg"
   xmlns="http://www.w3.org/2000/svg"
   xmlns:sodipodi="http://sodipodi.sourceforge.net/DTD/sodipodi-0.dtd"
   xmlns:inkscape="http://www.inkscape.org/namespaces/inkscape"
   width="22"
   height="22"
   version="1.1"
   id="svg7"
   sodipodi:docname="yate-tray-incomingchat.svg"
   inkscape:version="0.92.3 (2405546, 2018-03-11)">
  <metadata
     id="metadata11">
    <rdf:RDF>
      <cc:Work
         rdf:about="">
        <dc:format>image/svg+xml</dc:format>
        <dc:type
           rdf:resource="http://purl.org/dc/dcmitype/StillImage" />
        <dc:title></dc:title>
      </cc:Work>
    </rdf:RDF>
  </metadata>
  <sodipodi:namedview
     pagecolor="#ffffff"
     bordercolor="#666666"
     borderopacity="1"
     objecttolerance="10"
     gridtolerance="10"
     guidetolerance="10"
     inkscape:pageopacity="0"
     inkscape:pageshadow="2"
     inkscape:window-width="1920"
     inkscape:window-height="1020"
     id="namedview9"
     showgrid="false"
     inkscape:zoom="10.727273"
     inkscape:cx="11"
     inkscape:cy="11"
     inkscape:window-x="0"
     inkscape:window-y="30"
     inkscape:window-maximized="1"
     inkscape:current-layer="svg7" />
  <defs
     id="defs3">
    <style
       id="current-color-scheme"
       type="text/css">
   .ColorScheme-Text { color:#eff0f1; } .ColorScheme-Highlight { color:#3daee9; }
  </style>
  </defs>
  <path
     style="fill:#3daee9;fill-opacity:1"
     d="M 10.601562 3.0019531 C 8.48334 3.0371311 6.8325133 3.8238158 5.2695312 5.375 C 3.5801833 7.0515966 2.9718666 8.5913306 2.9785156 11.169922 C 2.9828156 12.853087 3.2222854 13.984912 3.7714844 14.912109 L 4.0664062 15.410156 L 3.3320312 16.865234 C 2.9289554 17.665327 2 18.90889 2 19 C 2 19.253448 3.6452363 18.524005 4.8476562 18.025391 L 5.890625 17.59375 L 6.8515625 18.042969 C 7.3806955 18.289614 8.3867256 18.617015 9.0878906 18.769531 C 10.03321 18.975158 10.33803 19.031078 11.414062 18.986328 C 13.67654 18.892248 15.208577 18.258444 16.654297 16.818359 C 18.111381 15.366954 18.839188 13.621559 18.980469 11.242188 C 19.233399 6.9824856 16.956592 3.9828678 12.888672 3.2167969 C 12.06498 3.0616791 11.307638 2.9902273 10.601562 3.0019531 z M 10.619141 4.0019531 C 11.245909 3.9915441 11.934102 4.0543961 12.703125 4.1992188 C 14.537154 4.5446032 15.873473 5.3583843 16.757812 6.5234375 C 17.642155 7.6884907 18.09754 9.2428816 17.982422 11.181641 C 17.85147 13.38705 17.240268 14.823358 15.949219 16.109375 C 14.649821 17.403708 13.467973 17.899215 11.373047 17.986328 C 10.339404 18.029318 10.239267 17.995128 9.3007812 17.791016 C 8.6959332 17.65945 7.6717416 17.32147 7.2753906 17.136719 L 5.9160156 16.5 L 4.4648438 17.101562 C 4.4092507 17.124613 4.3538688 17.146132 4.296875 17.169922 L 5.2070312 15.371094 L 4.6328125 14.402344 C 4.2005089 13.672498 3.9825762 12.755478 3.9785156 11.166016 C 3.9722748 8.7457222 4.4173427 7.6294966 5.9746094 6.0839844 C 7.407693 4.661718 8.7397821 4.0331642 10.619141 4.0019531 z M 8.5351562 6 C 8.2345442 6 7.4865161 6.7132951 7.2207031 7.2539062 C 6.7122131 8.2880673 7.0356761 9.3853564 8.7050781 12.275391 C 10.697147 15.724018 11.651027 16.446247 13.332031 15.773438 C 14.085838 15.47173 14.149859 15.293221 13.78125 14.513672 C 13.611263 14.154174 13.31656 13.668172 13.126953 13.433594 C 12.79398 12.931906 12.740589 13.029407 12.255859 13.296875 L 12.009766 13.433594 C 11.398191 13.771056 11.192279 13.831808 11.027344 13.728516 C 10.910315 13.655226 10.669644 13.125156 10.478516 12.519531 C 10.172454 11.549712 10.063192 11.362844 9.3925781 10.660156 C 8.9823111 10.230266 8.6464844 9.7835767 8.6464844 9.6679688 C 8.6464844 9.4440728 9.0840144 8.9707318 9.6152344 8.6210938 C 10.017088 8.3566047 10.02104 8.1125546 9.6328125 7.3066406 C 9.2765905 6.5671789 8.8008523 6 8.5351562 6 z "
     id="path820" />
</svg>
