<?xml version="1.0" encoding="UTF-8" standalone="no"?>
<!-- Created with Inkscape (http://www.inkscape.org/) -->

<svg
   width="22"
   height="22"
   viewBox="0 0 5.8208332 5.8208335"
   version="1.1"
   id="svg2123"
   inkscape:version="1.1.1 (3bf5ae0d25, 2021-09-20, custom)"
   sodipodi:docname="weather-snow-scattered.svg"
   xmlns:inkscape="http://www.inkscape.org/namespaces/inkscape"
   xmlns:sodipodi="http://sodipodi.sourceforge.net/DTD/sodipodi-0.dtd"
   xmlns:xlink="http://www.w3.org/1999/xlink"
   xmlns="http://www.w3.org/2000/svg"
   xmlns:svg="http://www.w3.org/2000/svg">
  <sodipodi:namedview
     id="namedview2125"
     pagecolor="#ffffff"
     bordercolor="#666666"
     borderopacity="1.0"
     inkscape:pageshadow="2"
     inkscape:pageopacity="0.0"
     inkscape:pagecheckerboard="0"
     inkscape:document-units="px"
     showgrid="false"
     units="px"
     inkscape:zoom="19.74415"
     inkscape:cx="6.4576091"
     inkscape:cy="19.879307"
     inkscape:window-width="1920"
     inkscape:window-height="999"
     inkscape:window-x="0"
     inkscape:window-y="0"
     inkscape:window-maximized="1"
     inkscape:current-layer="svg2123" />
  <defs
     id="defs2120">
    <linearGradient
       inkscape:collect="always"
       id="linearGradient2887">
      <stop
         style="stop-color:#eff1f1;stop-opacity:1;"
         offset="0"
         id="stop2883" />
      <stop
         style="stop-color:#b0b8b8;stop-opacity:1"
         offset="1"
         id="stop2885" />
    </linearGradient>
    <linearGradient
       inkscape:collect="always"
       xlink:href="#linearGradient2887"
       id="linearGradient2889"
       x1="2.778125"
       y1="1.0583333"
       x2="2.793014"
       y2="4.4970551"
       gradientUnits="userSpaceOnUse"
       gradientTransform="translate(0,-0.52916663)" />
    <linearGradient
       id="0">
      <stop
         stop-color="#abdaf9"
         id="stop2" />
      <stop
         offset="1"
         stop-color="#e1f2ff"
         id="stop4" />
    </linearGradient>
    <linearGradient
       inkscape:collect="always"
       xlink:href="#0"
       id="linearGradient872"
       gradientUnits="userSpaceOnUse"
       gradientTransform="translate(3.999976,6)"
       y1="538.79797"
       x2="0"
       y2="532.79797" />
    <linearGradient
       inkscape:collect="always"
       xlink:href="#0"
       id="linearGradient870"
       gradientUnits="userSpaceOnUse"
       gradientTransform="translate(3.999976,6)"
       y1="538.79797"
       x2="0"
       y2="532.79797" />
    <linearGradient
       inkscape:collect="always"
       xlink:href="#0"
       id="linearGradient874"
       gradientUnits="userSpaceOnUse"
       y1="538.79797"
       x2="0"
       y2="532.79797"
       gradientTransform="matrix(0.13229164,0,0,0.13229164,-51.4275,-66.251386)" />
    <linearGradient
       gradientTransform="matrix(0.13229164,0,0,0.13229164,-50.36917,-65.722217)"
       xlink:href="#0"
       id="4"
       y1="538.79797"
       x2="0"
       y2="532.79797"
       gradientUnits="userSpaceOnUse" />
    <linearGradient
       xlink:href="#0"
       id="3"
       y1="538.79797"
       x2="0"
       y2="532.79797"
       gradientUnits="userSpaceOnUse"
       gradientTransform="matrix(0.13229164,0,0,0.13229164,-51.295209,-66.251386)" />
  </defs>
  <path
     id="path2228"
     style="fill:url(#linearGradient2889);fill-opacity:1;stroke-width:0.121268;stroke-linejoin:round"
     d="m 2.778125,0.52916667 c -0.8036894,0 -1.4552084,0.65151903 -1.4552083,1.45520843 2.98e-4,0.047123 0.00288,0.094204 0.00775,0.1410766 -0.45895972,0.06229 -0.80131523,0.4540893 -0.80150144,0.9172567 0,0.5114388 0.41460298,0.9260416 0.92604164,0.9260416 h 2.778125 c 0.5845013,0 1.0583333,-0.4738319 1.0583333,-1.0583333 0,-0.5845013 -0.473832,-1.0583333 -1.0583333,-1.0583333 -0.00206,-6.1e-6 -0.00414,-6.1e-6 -0.0062,0 C 4.1587353,1.1028369 3.5304867,0.52925747 2.778125,0.52916667 Z"
     sodipodi:nodetypes="ccccccsccc" />
  <path
     id="path3407"
     style="opacity:0.2;fill:#000000;fill-opacity:1;stroke-width:0.154341;stroke-linejoin:round"
     d="m 1.3296346,1.8469157 c -4.531e-4,0.00484 -0.00114,0.00962 -0.00155,0.014469 8.763e-4,-1.215e-4 0.00171,-3.977e-4 0.00258,-5.168e-4 -4.822e-4,-0.00465 -5.96e-4,-0.0093 -0.00103,-0.013952 z m 3.953247,0.9291424 C 5.2185355,3.2989433 4.7736172,3.7041666 4.2333333,3.7041666 h -2.778125 c -0.46744631,0 -0.85318158,-0.346779 -0.91622311,-0.7968506 -0.006524,0.044262 -0.0098,0.089476 -0.009819,0.1353923 0,0.5114388 0.41460298,0.9260417 0.92604161,0.9260417 h 2.778125 c 0.5845013,0 1.0583333,-0.473832 1.0583333,-1.0583333 0,-0.045566 -0.0032,-0.09031 -0.00879,-0.1343586 z" />
  <g
     id="g916">
    <g
       fill="url(#4)"
       id="g31"
       style="fill:url(#linearGradient872)"
       transform="matrix(0.13229164,0,0,0.13229164,-51.030614,-66.515967)">
      <path
         d="m 392.57144,538.79797 1.11802,1.06354 1.48006,0.43646 -0.36204,1.5 0.36204,1.5 -1.48006,0.43647 -1.11802,1.06353 -1.11802,-1.06353 -1.48005,-0.43647 0.36203,-1.5 -0.36203,-1.5 1.48005,-0.43646 z"
         id="path29"
         style="fill:url(#linearGradient870)" />
    </g>
    <path
       d="m 2.0939205,4.2333333 0.1479047,0.1406975 0.1957996,0.05774 -0.047892,0.1984375 0.047892,0.1984375 -0.1957996,0.05774 L 2.0939205,5.0270833 1.9460184,4.8863858 1.7502188,4.8286458 1.7981111,4.6302083 1.7502188,4.4317708 1.9460184,4.3740308 Z"
       fill="url(#3)"
       id="path33"
       style="fill:url(#linearGradient874);stroke-width:0.132292" />
    <path
       d="m 3.1522564,4.7625022 0.1479021,0.1406975 0.1958022,0.05774 -0.047897,0.1984375 0.047897,0.1984375 -0.1958022,0.05774 L 3.1522564,5.5562522 3.004349,5.4155547 2.8085521,5.3578147 2.8564443,5.1593772 2.8085521,4.9609397 3.004349,4.9031997 Z"
       fill="url(#4)"
       id="path35"
       style="fill:url(#4);stroke-width:0.132292" />
    <path
       d="m 4.3428814,4.2333333 0.1479021,0.1406975 0.1958022,0.05774 -0.047898,0.1984375 0.047898,0.1984375 -0.1958022,0.05774 L 4.3428814,5.0270833 4.194974,4.8863858 3.9991771,4.8286458 4.0470693,4.6302083 3.9991771,4.4317708 4.194974,4.3740308 Z"
       fill="url(#3)"
       id="path37"
       style="fill:url(#3);stroke-width:0.132292" />
  </g>
</svg>
