<?xml version="1.0" encoding="UTF-8" standalone="no"?>
<svg
   xmlns:dc="http://purl.org/dc/elements/1.1/"
   xmlns:cc="http://creativecommons.org/ns#"
   xmlns:rdf="http://www.w3.org/1999/02/22-rdf-syntax-ns#"
   xmlns:svg="http://www.w3.org/2000/svg"
   xmlns="http://www.w3.org/2000/svg"
   xmlns:sodipodi="http://sodipodi.sourceforge.net/DTD/sodipodi-0.dtd"
   xmlns:inkscape="http://www.inkscape.org/namespaces/inkscape"
   width="16.003"
   height="16"
   version="1.1"
   id="svg8"
   sodipodi:docname="rotation-locked-symbolic.svg"
   inkscape:version="0.92.3 (2405546, 2018-03-11)">
  <metadata
     id="metadata14">
    <rdf:RDF>
      <cc:Work
         rdf:about="">
        <dc:format>image/svg+xml</dc:format>
        <dc:type
           rdf:resource="http://purl.org/dc/dcmitype/StillImage" />
        <dc:title></dc:title>
      </cc:Work>
    </rdf:RDF>
  </metadata>
  <defs
     id="defs12" />
  <sodipodi:namedview
     pagecolor="#ffffff"
     bordercolor="#666666"
     borderopacity="1"
     objecttolerance="10"
     gridtolerance="10"
     guidetolerance="10"
     inkscape:pageopacity="0"
     inkscape:pageshadow="2"
     inkscape:window-width="1920"
     inkscape:window-height="1026"
     id="namedview10"
     showgrid="true"
     inkscape:zoom="38.93"
     inkscape:cx="1.4286855"
     inkscape:cy="7.8211091"
     inkscape:window-x="0"
     inkscape:window-y="30"
     inkscape:window-maximized="1"
     inkscape:current-layer="svg8">
    <inkscape:grid
       type="xygrid"
       id="grid827" />
  </sodipodi:namedview>
  <path
     style="fill:#232627;fill-opacity:1;stroke:none"
     d="M 8.171875 1.671875 L 7.4648438 2.3789062 L 8.4140625 3.328125 L 9.0859375 4 L 5 4 L 5 5 L 9.0859375 5 L 8.4140625 5.671875 L 7.4648438 6.6210938 L 8.171875 7.328125 L 9.1210938 6.3789062 L 11 4.5 L 9.1210938 2.6210938 L 8.171875 1.671875 z M 3.5 5 C 3.22386 5 3 5.22386 3 5.5 C 3 5.77614 3.22386 6 3.5 6 C 3.77614 6 4 5.77614 4 5.5 C 4 5.22386 3.77614 5 3.5 5 z M 10.5 7 C 10.210752 7 9.9565399 7.0323658 9.7226562 7.1367188 C 9.488773 7.2410717 9.2915726 7.4349637 9.1835938 7.6484375 C 8.967636 8.0753851 9 8.4980607 9 9 L 9 10 L 8 10 L 8 14 L 13 14 L 13 10 L 12 10 L 12 9 C 12 8.4980607 12.032364 8.0753851 11.816406 7.6484375 C 11.708427 7.4349637 11.511227 7.2410717 11.277344 7.1367188 C 11.04346 7.0323658 10.789248 7 10.5 7 z M 2.5 8 C 2.22386 8 2 8.22386 2 8.5 C 2 8.77614 2.22386 9 2.5 9 C 2.77614 9 3 8.77614 3 8.5 C 3 8.22386 2.77614 8 2.5 8 z M 10.5 8 C 10.704934 8 10.822865 8.0301342 10.869141 8.0507812 C 10.915411 8.0714283 10.905348 8.0650365 10.923828 8.1015625 C 10.960776 8.1746154 11 8.5019393 11 9 L 11 10 L 10 10 L 10 9 C 10 8.5019393 10.039222 8.1746149 10.076172 8.1015625 C 10.094652 8.0650365 10.084569 8.0714284 10.130859 8.0507812 C 10.177134 8.0301341 10.295066 8 10.5 8 z M 3.5 11 C 3.22386 11 3 11.22386 3 11.5 C 3 11.77614 3.22386 12 3.5 12 C 3.77614 12 4 11.77614 4 11.5 C 4 11.22386 3.77614 11 3.5 11 z M 6.5 12 C 6.22386 12 6 12.22386 6 12.5 C 6 12.77614 6.22386 13 6.5 13 C 6.77614 13 7 12.77614 7 12.5 C 7 12.22386 6.77614 12 6.5 12 z "
     id="path4-3" />
</svg>
