<?xml version="1.0" encoding="UTF-8" standalone="no"?>
<!-- Created with Inkscape (http://www.inkscape.org/) -->

<svg
   width="24"
   height="24"
   viewBox="0 0 6.3499999 6.3500002"
   version="1.1"
   id="svg880"
   inkscape:version="1.1.1 (3bf5ae0d25, 2021-09-20, custom)"
   sodipodi:docname="system-file-manager.svg"
   xmlns:inkscape="http://www.inkscape.org/namespaces/inkscape"
   xmlns:sodipodi="http://sodipodi.sourceforge.net/DTD/sodipodi-0.dtd"
   xmlns:xlink="http://www.w3.org/1999/xlink"
   xmlns="http://www.w3.org/2000/svg"
   xmlns:svg="http://www.w3.org/2000/svg">
  <sodipodi:namedview
     id="namedview882"
     pagecolor="#ffffff"
     bordercolor="#666666"
     borderopacity="1.0"
     inkscape:pageshadow="2"
     inkscape:pageopacity="0.0"
     inkscape:pagecheckerboard="0"
     inkscape:document-units="px"
     showgrid="false"
     units="px"
     inkscape:lockguides="true"
     inkscape:zoom="12.985052"
     inkscape:cx="6.6230001"
     inkscape:cy="10.088523"
     inkscape:window-width="1920"
     inkscape:window-height="1019"
     inkscape:window-x="0"
     inkscape:window-y="0"
     inkscape:window-maximized="1"
     inkscape:current-layer="layer1" />
  <defs
     id="defs877">
    <linearGradient
       inkscape:collect="always"
       id="linearGradient6749">
      <stop
         style="stop-color:#232629;stop-opacity:1;"
         offset="0"
         id="stop6745" />
      <stop
         style="stop-color:#232629;stop-opacity:0;"
         offset="1"
         id="stop6747" />
    </linearGradient>
    <linearGradient
       inkscape:collect="always"
       id="linearGradient1845">
      <stop
         style="stop-color:#95d0ff;stop-opacity:1;"
         offset="0"
         id="stop1841" />
      <stop
         style="stop-color:#eff8ff;stop-opacity:1"
         offset="1"
         id="stop1843" />
    </linearGradient>
    <linearGradient
       inkscape:collect="always"
       id="linearGradient1056">
      <stop
         style="stop-color:#05abff;stop-opacity:1;"
         offset="0"
         id="stop1052" />
      <stop
         style="stop-color:#2ad1ff;stop-opacity:1"
         offset="1"
         id="stop1054" />
    </linearGradient>
    <linearGradient
       inkscape:collect="always"
       xlink:href="#linearGradient1845"
       id="linearGradient1847"
       x1="4.9285822"
       y1="0.50426149"
       x2="4.9316425"
       y2="3.8369749"
       gradientUnits="userSpaceOnUse"
       gradientTransform="translate(0.26391696,0.26458317)" />
    <linearGradient
       inkscape:collect="always"
       xlink:href="#linearGradient6749"
       id="linearGradient6751"
       x1="1.724511"
       y1="1.758685"
       x2="3.190424"
       y2="3.2995734"
       gradientUnits="userSpaceOnUse"
       gradientTransform="translate(0.26391696,0.26458317)" />
    <linearGradient
       inkscape:collect="always"
       xlink:href="#linearGradient1056"
       id="linearGradient1333"
       x1="2.3705442"
       y1="0.54036146"
       x2="2.3713782"
       y2="5.827198"
       gradientUnits="userSpaceOnUse"
       gradientTransform="translate(-0.26476159)" />
  </defs>
  <g
     inkscape:label="Layer 1"
     inkscape:groupmode="layer"
     id="layer1">
    <path
       id="rect962"
       style="fill:url(#linearGradient1333);stroke-width:0.273463"
       d="M 0.79308363,0.52916667 H 5.5555835 c 0.1465792,0 0.2645833,0.1180042 0.2645833,0.2645834 V 5.5562498 c 0,0.1465792 -0.1180041,0.2645834 -0.2645833,0.2645834 H 0.79308363 c -0.14657918,0 -0.26458335,-0.1180042 -0.26458335,-0.2645834 V 0.79375007 c 0,-0.1465792 0.11800417,-0.2645834 0.26458335,-0.2645834 z" />
    <rect
       style="opacity:1;fill:#232629;fill-opacity:1;stroke-width:3.67065"
       id="rect5800"
       width="0.26458332"
       height="0.79374999"
       x="1.8520833"
       y="1.8520832" />
    <path
       id="rect6468"
       style="opacity:0.3;fill:url(#linearGradient6751);fill-opacity:1;stroke-width:5.71782"
       d="M 2.5338062,3.0873735 H 3.8567228 V 4.41029 Z"
       sodipodi:nodetypes="cccc" />
    <path
       id="rect1615"
       style="opacity:1;fill:url(#linearGradient1847);stroke-width:9.14339"
       d="M 3.3066253,0.52916047 C 2.5628844,1.4605755 2.4689503,2.9098998 2.4689503,2.9098998 c 0,0 -0.025744,0.1860659 0.2100483,0.2651002 h 0.495335 C 3.1932355,4.5398392 3.438917,5.8208396 3.438917,5.8208396 h 2.1171896 c 0.1462101,0 0.2640666,-0.1178565 0.2640666,-0.2640666 V 0.79322707 c 0,-0.1462101 -0.1178565,-0.2640666 -0.2640666,-0.2640666 z"
       sodipodi:nodetypes="cccccssssc" />
    <path
       id="path4847"
       style="opacity:1;fill:#232629;fill-opacity:1;stroke-width:4.66704"
       d="M 4.2274994,4.0793375 A 1.3229166,1.0583333 0 0 1 3.1743336,4.4979165 1.3229166,1.0583333 0 0 1 2.1247853,4.0829549 L 1.9387501,4.26899 A 1.5875,1.3229166 0 0 0 3.1743336,4.7624998 1.5875,1.3229166 0 0 0 4.4140513,4.2658894 Z" />
    <rect
       style="fill:#232629;fill-opacity:1;stroke-width:3.67065"
       id="rect5800-1"
       width="0.26458332"
       height="0.79374999"
       x="4.2333336"
       y="1.8520832" />
    <path
       style="color:#000000;clip-rule:nonzero;display:inline;overflow:visible;visibility:visible;opacity:0.3;isolation:auto;mix-blend-mode:normal;color-interpolation:sRGB;color-interpolation-filters:linearRGB;solid-color:#000000;solid-opacity:1;fill:#ffffff;fill-opacity:1;fill-rule:nonzero;stroke-width:0.264612;stroke-linecap:butt;stroke-linejoin:miter;stroke-miterlimit:4;stroke-dasharray:none;stroke-dashoffset:0;stroke-opacity:1;color-rendering:auto;image-rendering:auto;shape-rendering:auto;text-rendering:auto;enable-background:accumulate"
       d="m 0.79308363,0.52916667 c -0.1462,0 -0.2640952,0.1178913 -0.2640952,0.2640953 V 1.057874 c 0,-0.14620403 0.1178952,-0.26409533 0.2640952,-0.26409533 H 5.55656 c 0.1461999,0 0.2640952,0.1178913 0.2640952,0.26409533 V 0.79326197 c 0,-0.146204 -0.1178953,-0.2640953 -0.2640952,-0.2640953 z"
       id="rect7776"
       sodipodi:nodetypes="sscsscsss" />
    <path
       id="path7790"
       d="m 0.79326187,5.8203616 c -0.1462,0 -0.2640952,-0.1178847 -0.2640952,-0.2640828 V 5.2916667 c 0,0.1461982 0.1178952,0.2640829 0.2640952,0.2640829 H 5.5567382 c 0.1461999,0 0.2640952,-0.1178847 0.2640952,-0.2640829 v 0.2646121 c 0,0.1461981 -0.1178953,0.2640828 -0.2640952,0.2640828 z"
       style="color:#000000;clip-rule:nonzero;display:inline;overflow:visible;visibility:visible;opacity:0.3;isolation:auto;mix-blend-mode:normal;color-interpolation:sRGB;color-interpolation-filters:linearRGB;solid-color:#000000;solid-opacity:1;fill:#f2f2f2;fill-opacity:1;fill-rule:nonzero;stroke-width:0.264612;stroke-linecap:butt;stroke-linejoin:miter;stroke-miterlimit:4;stroke-dasharray:none;stroke-dashoffset:0;stroke-opacity:1;color-rendering:auto;image-rendering:auto;shape-rendering:auto;text-rendering:auto;enable-background:accumulate"
       inkscape:connector-curvature="0"
       sodipodi:nodetypes="sscsscsss" />
  </g>
</svg>
