<?xml version="1.0" encoding="UTF-8" standalone="no"?>
<svg
   xmlns:dc="http://purl.org/dc/elements/1.1/"
   xmlns:cc="http://creativecommons.org/ns#"
   xmlns:rdf="http://www.w3.org/1999/02/22-rdf-syntax-ns#"
   xmlns:svg="http://www.w3.org/2000/svg"
   xmlns="http://www.w3.org/2000/svg"
   xmlns:sodipodi="http://sodipodi.sourceforge.net/DTD/sodipodi-0.dtd"
   xmlns:inkscape="http://www.inkscape.org/namespaces/inkscape"
   id="svg9"
   width="16"
   height="16"
   version="1.1"
   sodipodi:docname="capslock-enabled-symbolic.svg"
   inkscape:version="0.92.3 (2405546, 2018-03-11)">
  <metadata
     id="metadata8">
    <rdf:RDF>
      <cc:Work
         rdf:about="">
        <dc:format>image/svg+xml</dc:format>
        <dc:type
           rdf:resource="http://purl.org/dc/dcmitype/StillImage" />
        <dc:title></dc:title>
      </cc:Work>
    </rdf:RDF>
  </metadata>
  <sodipodi:namedview
     pagecolor="#ffffff"
     bordercolor="#666666"
     borderopacity="1"
     objecttolerance="10"
     gridtolerance="10"
     guidetolerance="10"
     inkscape:pageopacity="0"
     inkscape:pageshadow="2"
     inkscape:window-width="1920"
     inkscape:window-height="1021"
     id="namedview6"
     showgrid="false"
     inkscape:zoom="10.727273"
     inkscape:cx="11"
     inkscape:cy="11"
     inkscape:window-x="0"
     inkscape:window-y="30"
     inkscape:window-maximized="1"
     inkscape:current-layer="svg9" />
  <defs
     id="defs3">
    <style
       id="current-color-scheme"
       type="text/css">
   .ColorScheme-Text { color:#232627; } .ColorScheme-Highlight { color:#3daee9; }
  </style>
  </defs>
  <path
     id="path4492"
     style="fill:#232627;fill-opacity:1;fill-rule:evenodd"
     d="M 3.0007428,1.4288451e-8 C 1.98142,-1.7088571e-4 1.1250344,0.76620941 1.0124616,1.7792969 L 0.01246157,10.779297 C -0.11914833,11.964248 0.80850557,13.000193 2.0007428,13 H 14.000743 c 1.192117,1.4e-5 2.119878,-1.035871 1.988281,-2.220703 l -1,-9.0000001 C 14.876464,0.76632331 14.019951,-1.7985712e-5 13.000743,1.4288451e-8 Z M 3.0007428,1 H 13.000743 c 0.51793,-9.09e-6 0.936941,0.3758633 0.994141,0.890625 l 1,8.998047 C 15.062513,11.497575 14.613391,12.000007 14.000743,12 H 2.0007428 c -0.6127149,9.9e-5 -1.06177763,-0.502358 -0.9941406,-1.111328 l 1,-8.998047 C 2.0638086,1.3758017 2.4827509,0.99991321 3.0007428,1 Z M 6.8991803,2 4.0007428,11 H 5.910899 L 6.5280866,9 h 3.0761722 l 0.6093752,2 H 12.12379 L 9.2136338,2 Z m 1.1816405,1.296875 1.09961,3.992187 H 7.0007428 Z M 7.4277654e-4,13.203125 V 13.75 C 7.4277654e-4,14.962 1.0388428,16 2.2507428,16 H 13.750743 c 1.212,0 2.25,-1.038 2.25,-2.25 v -0.546875 c -0.532,0.485 -1.225,0.796875 -2,0.796875 H 2.0007428 c -0.7746,0 -1.46840003,-0.311875 -2.00000002346,-0.796875 z"
     inkscape:connector-curvature="0" />
</svg>
