<svg xmlns="http://www.w3.org/2000/svg" width="22" height="22" version="1.1">
 <defs>
  <style id="current-color-scheme" type="text/css">
   .ColorScheme-Text { color:#eff0f1; } .ColorScheme-Highlight { color:#3daee9; }
  </style>
 </defs>
 <path style="fill:currentColor" class="ColorScheme-Text" d="M 17.928204,14.999999 C 20.137229,11.173858 18.826144,6.2808216 15.000001,4.0717968 11.173858,1.8627724 6.280823,3.1738572 4.0717964,6.9999998 1.8627727,10.826142 3.1738564,15.719178 7.0000005,17.928205 10.826142,20.137229 15.719179,18.826145 17.928204,14.999999 Z M 17.062178,14.5 c -1.469465,2.545188 -4.2743,3.813642 -7.008798,3.436468 l 0.200425,-1.269023 c 2.197737,0.213457 4.357322,-0.9221 5.509334,-2.917446 1.179514,-2.042975 1.040421,-4.5940105 -0.359212,-6.3778217 l -1.485041,1.1971664 c 0.932409,1.1930493 1.034029,2.8965083 0.247521,4.2587803 -0.75751,1.312044 -2.129667,2.058729 -3.574682,1.941526 l 0.207613,-1.359594 -3.2529801,1.946838 2.4801521,2.575343 C 9.16229,17.809602 8.3045314,17.526675 7.5000016,17.062184 4.1419583,15.12341 2.9990561,10.858043 4.9378223,7.5000001 6.8765901,4.141958 11.141959,2.9990555 14.5,4.9378219 17.858044,6.8765892 19.000945,11.141959 17.062178,14.5 Z M 14.425607,6.6291773 12.00277,4.0756512 11.772281,5.3498697 C 9.5888773,5.1215944 7.3818972,6.2667389 6.2358829,8.251692 5.0533698,10.299864 5.1852683,12.802865 6.5680339,14.613889 L 8.0540534,13.415031 C 7.1310081,12.20776 7.0446094,10.538438 7.832619,9.1735651 8.5851268,7.8701838 9.9976821,7.1260385 11.43436,7.2476658 l -0.206634,1.3579038 z"/>
</svg>
