<?xml version="1.0" encoding="UTF-8" standalone="no"?>
<svg
   xmlns:dc="http://purl.org/dc/elements/1.1/"
   xmlns:cc="http://creativecommons.org/ns#"
   xmlns:rdf="http://www.w3.org/1999/02/22-rdf-syntax-ns#"
   xmlns:svg="http://www.w3.org/2000/svg"
   xmlns="http://www.w3.org/2000/svg"
   xmlns:sodipodi="http://sodipodi.sourceforge.net/DTD/sodipodi-0.dtd"
   xmlns:inkscape="http://www.inkscape.org/namespaces/inkscape"
   width="22"
   height="22"
   version="1.1"
   id="svg7"
   sodipodi:docname="qnapi-panel.svg"
   inkscape:version="0.92.3 (2405546, 2018-03-11)">
  <metadata
     id="metadata11">
    <rdf:RDF>
      <cc:Work
         rdf:about="">
        <dc:format>image/svg+xml</dc:format>
        <dc:type
           rdf:resource="http://purl.org/dc/dcmitype/StillImage" />
        <dc:title></dc:title>
      </cc:Work>
    </rdf:RDF>
  </metadata>
  <sodipodi:namedview
     pagecolor="#ffffff"
     bordercolor="#666666"
     borderopacity="1"
     objecttolerance="10"
     gridtolerance="10"
     guidetolerance="10"
     inkscape:pageopacity="0"
     inkscape:pageshadow="2"
     inkscape:window-width="1920"
     inkscape:window-height="1020"
     id="namedview9"
     showgrid="false"
     inkscape:zoom="21.46"
     inkscape:cx="11"
     inkscape:cy="11"
     inkscape:window-x="0"
     inkscape:window-y="30"
     inkscape:window-maximized="1"
     inkscape:current-layer="svg7">
    <inkscape:grid
       type="xygrid"
       id="grid818" />
  </sodipodi:namedview>
  <defs
     id="defs3">
    <style
       id="current-color-scheme"
       type="text/css">
   .ColorScheme-Text { color:#eff0f1; } .ColorScheme-Highlight { color:#3daee9; }
  </style>
  </defs>
  <path
     style="opacity:1;fill:#eff0f1;fill-opacity:1;stroke:none;stroke-width:2.21313334;stroke-linecap:round;stroke-linejoin:round;stroke-miterlimit:4;stroke-dasharray:none;stroke-dashoffset:0;stroke-opacity:1;paint-order:normal"
     d="M 10.5 3 A 7.5 8 0 0 0 3 11 A 7.5 8 0 0 0 10.5 19 A 7.5 8 0 0 0 15.310547 17.136719 C 15.78605 17.859544 16.057843 18.781688 16 19.976562 L 17 20.023438 C 17.071298 18.550622 16.675398 17.345375 16.011719 16.414062 A 7.5 8 0 0 0 18 11 A 7.5 8 0 0 0 10.5 3 z M 10.5 4 A 6.5 7 0 0 1 17 11 A 6.5 7 0 0 1 15.345703 15.65625 C 15.137659 15.459876 14.920665 15.274331 14.6875 15.115234 C 13.275013 14.151447 11.499483 13.826499 9.9550781 13.96875 L 10.044922 14.964844 C 11.375321 14.842304 12.952405 15.142638 14.123047 15.941406 C 14.313695 16.071492 14.489369 16.217931 14.658203 16.373047 A 6.5 7 0 0 1 10.5 18 A 6.5 7 0 0 1 4 11 A 6.5 7 0 0 1 10.5 4 z "
     id="path820" />
</svg>
