<svg xmlns="http://www.w3.org/2000/svg" id="svg2" width="22" height="22" version="1.1">
 <defs id="defs10">
  <style id="current-color-scheme" type="text/css">
   .ColorScheme-Text { color:#eff0f1; } .ColorScheme-Highlight { color:#3daee9; }
  </style>
 </defs>
 <g id="g4" transform="translate(0 -1030.4)">
  <path id="path6" style="fill:currentColor" class="ColorScheme-Text" transform="translate(0 1030.4)" d="m11 2c-2.1276 0-4.0845 0.7344-5.625 1.9688l-1.8125-1.8126-1.4063 1.4063 1.8126 1.8125c-1.2344 1.5405-1.9688 3.4974-1.9688 5.625 0 4.9706 4.0294 9 9 9s9-4.0294 9-9c0-2.1276-0.734-4.0845-1.969-5.625l1.813-1.8125-1.406-1.4063-1.813 1.8126c-1.541-1.2344-3.497-1.9688-5.625-1.9688zm0 2c3.866 0 7 3.134 7 7s-3.134 7-7 7-7-3.134-7-7 3.134-7 7-7zm-3 4v6h6v-3-3z"/>
 </g>
</svg>
