<svg xmlns="http://www.w3.org/2000/svg" id="svg11" width="22" height="22" version="1.1">
 <defs id="defs3">
  <style id="current-color-scheme" type="text/css">
   .ColorScheme-Text { color:#eff0f1; } .ColorScheme-Highlight { color:#3daee9; }
  </style>
 </defs>
 <path id="path5" style="opacity:0.3;fill:currentColor" class="ColorScheme-Text" d="M 11,3 C 6.581722,3 3,6.581722 3,11 L 4.5,13 6,11 C 6,8.2385763 8.2385763,6 11,6 L 9,4.5 Z"/>
 <path id="path7" style="fill:currentColor" class="ColorScheme-Text" d="M 11 3 L 9 4.5 L 11 6 A 5 5 0 0 1 16 11 L 17.5 9 L 19 11 A 8 8 0 0 0 11 3 z M 3 11 A 8 8 0 0 0 11 19 L 13 17.5 L 11 16 A 5 5 0 0 1 6 11 L 4.5 13 L 3 11 z"/>
 <g id="g857" transform="translate(-420.71429,-525.79072)">
  <path id="path4142" style="fill:#ffffff;fill-opacity:1;fill-rule:evenodd;stroke:none;stroke-width:1px;stroke-linecap:butt;stroke-linejoin:miter;stroke-opacity:1" d="m 440.21429,540.29076 -2.25,2.25 -0.75,-0.75 -0.75,0.75 0.75,0.75 0.75,0.75 3,-3 z"/>
  <g id="layer1-9" transform="translate(426.71429,-500.57146)">
   <rect id="rect4153" style="opacity:1;fill:#27ae60;fill-opacity:1;stroke:none" width="8" height="8" x="7" y="1037.36" ry="4"/>
   <path id="path4142-5" style="fill:#ffffff;fill-opacity:1;fill-rule:evenodd;stroke:none;stroke-width:1px;stroke-linecap:butt;stroke-linejoin:miter;stroke-opacity:1" d="m 13,1039.3622 -3,3 -1,-1 -1,1 1,1 1,1 4,-4 z"/>
  </g>
 </g>
</svg>
