<svg xmlns="http://www.w3.org/2000/svg" id="svg7" width="22" height="22" version="1">
 <defs id="defs3">
  <style id="current-color-scheme" type="text/css">
   .ColorScheme-Text { color:#eff0f1; } .ColorScheme-Highlight { color:#3daee9; }
  </style>
 </defs>
 <path id="path5" style="fill:#3daee9;fill-opacity:1" d="M 17.935547 3.0039062 C 17.480516 2.9761043 17.232729 3.0554029 10.572266 5.3847656 C 6.7821014 6.7104581 3.5955946 7.850564 3.4921875 7.9179688 C 3.1913665 8.1136824 3 8.4901851 3 8.8828125 C 3 9.7259713 3.3082568 9.9626147 6.3554688 11.449219 C 7.8976761 12.202271 8.9311318 12.751757 9.0566406 12.884766 C 9.1686484 13.002774 9.8214125 14.233044 10.505859 15.619141 C 11.743945 18.121316 12.028578 18.590356 12.474609 18.859375 C 12.947642 19.147395 13.591677 18.978786 13.970703 18.46875 C 14.148716 18.229733 18.927324 4.725952 18.986328 4.2949219 C 19.042328 3.8940939 18.915827 3.5185658 18.632812 3.2480469 C 18.4438 3.0677343 18.328575 3.0279081 17.935547 3.0039062 z M 17.875 4.0019531 C 17.9583 4.0070431 17.925922 4.0023427 17.951172 4.0058594 L 9.7851562 12.199219 C 9.5197037 11.917903 9.4692105 11.944648 9.3085938 11.849609 C 9.1479768 11.754571 8.9486505 11.646067 8.7070312 11.517578 C 8.2237929 11.2606 7.5731379 10.93078 6.7949219 10.550781 C 5.2781535 9.8108155 4.4467705 9.3635533 4.1425781 9.1308594 C 3.990482 9.0145124 3.9917872 8.9860318 4.0019531 9.0078125 C 4.0121191 9.0295932 4 9.032617 4 8.8828125 C 4 8.8265799 4.0321107 8.7864324 4.03125 8.7773438 C 4.1270934 8.7404458 4.2721272 8.6864701 4.4550781 8.6191406 C 4.8224607 8.4839366 5.3462894 8.2934664 5.9863281 8.0644531 C 7.2664056 7.6064266 9.0091588 6.9903075 10.902344 6.328125 C 14.232285 5.163545 15.963941 4.5607341 16.888672 4.2617188 C 17.351037 4.112211 17.612777 4.0410237 17.734375 4.015625 C 17.855973 3.9902263 17.795698 3.9971079 17.875 4.0019531 z"/>
</svg>
