<svg xmlns="http://www.w3.org/2000/svg" id="svg2" width="22" height="22" version="1.1">
 <defs id="defs8">
  <style id="current-color-scheme" type="text/css">
   .ColorScheme-Text { color:#eff0f1; } .ColorScheme-Highlight { color:#3daee9; }
  </style>
 </defs>
 <path id="path4" style="fill:#da4453;fill-opacity:1" d="M 9.0429688 5 C 8.6509688 5.011001 8.2524219 5.0827909 7.8574219 5.2167969 C 6.1664219 5.7918269 4.8828594 7.445525 4.5058594 9.515625 C 3.3958594 9.783635 2.4451875 10.772641 2.1171875 12.181641 C 1.6521875 14.181741 2.6184844 16.260266 4.2714844 16.822266 C 4.2984844 16.830266 4.3265156 16.834797 4.3535156 16.841797 C 4.5815156 16.940797 4.8250312 17 5.0820312 17 L 17.070312 17 C 17.499312 17 17.895469 16.842994 18.230469 16.583984 C 19.570469 15.809944 20.298813 13.969741 19.882812 12.181641 C 19.575813 10.860541 18.721172 9.9033594 17.701172 9.5683594 C 17.692172 9.5243574 17.683828 9.482506 17.673828 9.4375 C 17.208828 7.4374 15.490891 6.2670781 13.837891 6.8300781 C 13.520891 6.9380881 13.228891 7.1102087 12.962891 7.3242188 C 12.051891 5.8431187 10.590922 4.9599531 9.0449219 5.0019531 L 9.0429688 5 z M 9.0605469 6.0019531 L 9.0722656 6.0019531 C 10.220392 5.9707621 11.357265 6.6217036 12.111328 7.8476562 L 12.705078 8.8144531 L 13.589844 8.1035156 C 13.780293 7.9502889 13.971874 7.8414962 14.160156 7.7773438 C 14.686622 7.5980334 15.175244 7.6836766 15.640625 8 C 16.106006 8.3163234 16.520453 8.8847846 16.701172 9.6621094 C 16.706272 9.6857594 16.712116 9.7179814 16.722656 9.7695312 L 16.837891 10.337891 L 17.388672 10.519531 C 18.029665 10.730054 18.671713 11.38212 18.910156 12.408203 C 19.233322 13.797271 18.610025 15.209553 17.728516 15.71875 L 17.671875 15.751953 L 17.617188 15.792969 C 17.429394 15.938168 17.256873 16 17.070312 16 L 5.0820312 16 C 4.9781052 16 4.8740344 15.976838 4.7519531 15.923828 L 4.6796875 15.892578 L 4.6035156 15.873047 C 4.5820266 15.867447 4.6019057 15.874194 4.5898438 15.871094 C 3.537948 15.509577 2.7292352 13.959285 3.0898438 12.408203 C 3.3445 11.314315 4.049206 10.65513 4.7402344 10.488281 L 5.3730469 10.333984 L 5.4902344 9.6953125 C 5.8123381 7.9266467 6.895667 6.6006978 8.1796875 6.1640625 C 8.4798906 6.0622169 8.7753271 6.0111126 9.0605469 6.0019531 z"/>
</svg>
