<?xml version="1.0" encoding="UTF-8" standalone="no"?>
<svg xmlns="http://www.w3.org/2000/svg" xmlns:xlink="http://www.w3.org/1999/xlink" width="48" height="48" version="1.1">
 <defs>
  <linearGradient id="linearGradient4238">
   <stop style="stop-color:#c95200;stop-opacity:1;" offset="0"/>
   <stop style="stop-color:#c95200;stop-opacity:0;" offset="1"/>
  </linearGradient>
  <linearGradient id="linearGradient4230">
   <stop style="stop-color:#0090b8;stop-opacity:1;" offset="0"/>
   <stop style="stop-color:#0090b8;stop-opacity:0;" offset="1"/>
  </linearGradient>
  <linearGradient id="linearGradient4222">
   <stop style="stop-color:#00a0b4;stop-opacity:1;" offset="0"/>
   <stop style="stop-color:#00a0b4;stop-opacity:0;" offset="1"/>
  </linearGradient>
  <linearGradient id="linearGradient4214">
   <stop style="stop-color:#0d6173;stop-opacity:1;" offset="0"/>
   <stop style="stop-color:#0d6173;stop-opacity:0;" offset="1"/>
  </linearGradient>
  <linearGradient id="linearGradient4206">
   <stop style="stop-color:#38b0d2;stop-opacity:1;" offset="0"/>
   <stop style="stop-color:#74ccd6;stop-opacity:1" offset="1"/>
  </linearGradient>
  <linearGradient xlink:href="#linearGradient4206" id="linearGradient4212" x1="23" y1="41" x2="23" y2="4" gradientUnits="userSpaceOnUse" gradientTransform="translate(384.57143,502.798)"/>
  <linearGradient xlink:href="#linearGradient4214" id="linearGradient4220" x1="18" y1="38" x2="21" y2="36.268" gradientUnits="userSpaceOnUse" gradientTransform="translate(384.57143,502.798)"/>
  <linearGradient xlink:href="#linearGradient4222" id="linearGradient4228" x1="7" y1="19" x2="11" y2="17.928" gradientUnits="userSpaceOnUse" gradientTransform="translate(384.57143,502.798)"/>
  <linearGradient xlink:href="#linearGradient4230" id="linearGradient4236" x1="32" y1="34" x2="32" y2="28" gradientUnits="userSpaceOnUse" gradientTransform="translate(384.57143,502.798)"/>
  <linearGradient xlink:href="#linearGradient4238" id="linearGradient4244" x1="22" y1="31" x2="23.876" y2="24" gradientUnits="userSpaceOnUse" gradientTransform="translate(384.57143,502.798)"/>
 </defs>
 <g transform="translate(-384.57143,-499.798)">
  <path style="fill:url(#linearGradient4212);fill-opacity:1;fill-rule:evenodd;stroke:none;stroke-width:1px;stroke-linecap:butt;stroke-linejoin:miter;stroke-opacity:1" d="m 428.57143,503.798 -10,20 5,1 z m -34,14 -9,8 10,-4 7,22 5,-3 23,2 -8,-15 -4,-1 -13,9 -7,-17 z"/>
  <path style="fill:#f45a00;fill-opacity:1;fill-rule:evenodd;stroke:none;stroke-width:1px;stroke-linecap:butt;stroke-linejoin:miter;stroke-opacity:1" d="m 403.57143,527.798 3,5 11,-6 -8,-2 z"/>
  <path style="fill:url(#linearGradient4228);fill-opacity:1;fill-rule:evenodd;stroke:none;stroke-width:1px;stroke-linecap:butt;stroke-linejoin:miter;stroke-opacity:1" d="m 394.57143,517.798 -1.41992,4.9668 2.41992,-0.9668 -1,-4 z"/>
  <path style="fill:url(#linearGradient4220);fill-opacity:1;fill-rule:evenodd;stroke:none;stroke-width:1px;stroke-linecap:butt;stroke-linejoin:miter;stroke-opacity:1" d="m 405.42299,535.43862 -1.77929,7.7168 3.92773,-2.35742 0.14648,0.0137 -1.85937,-5.21094 -0.28711,0.19727 -0.14844,-0.35938 z"/>
  <path style="fill:url(#linearGradient4244);fill-opacity:1;fill-rule:evenodd;stroke:none;stroke-width:1px;stroke-linecap:butt;stroke-linejoin:miter;stroke-opacity:1" d="m 409.57143,524.798 -6,3 3,5 0.4082,-0.22266 2.5918,-7.77734 z"/>
  <path style="fill:url(#linearGradient4236);fill-opacity:1;fill-rule:evenodd;stroke:none;stroke-width:1px;stroke-linecap:butt;stroke-linejoin:miter;stroke-opacity:1" d="m 418.57143,526.798 -4.68359,3.24219 16.64062,12.67773 -7.95703,-14.91992 -4,-1 z"/>
 </g>
</svg>
