<?xml version="1.0" encoding="UTF-8" standalone="no"?>
<svg
   xmlns:dc="http://purl.org/dc/elements/1.1/"
   xmlns:cc="http://creativecommons.org/ns#"
   xmlns:rdf="http://www.w3.org/1999/02/22-rdf-syntax-ns#"
   xmlns:svg="http://www.w3.org/2000/svg"
   xmlns="http://www.w3.org/2000/svg"
   xmlns:xlink="http://www.w3.org/1999/xlink"
   xmlns:sodipodi="http://sodipodi.sourceforge.net/DTD/sodipodi-0.dtd"
   xmlns:inkscape="http://www.inkscape.org/namespaces/inkscape"
   width="48"
   height="48"
   version="1"
   id="svg44"
   sodipodi:docname="glabels-3.0.svg"
   inkscape:version="0.92.3 (2405546, 2018-03-11)">
  <metadata
     id="metadata50">
    <rdf:RDF>
      <cc:Work
         rdf:about="">
        <dc:format>image/svg+xml</dc:format>
        <dc:type
           rdf:resource="http://purl.org/dc/dcmitype/StillImage" />
      </cc:Work>
    </rdf:RDF>
  </metadata>
  <defs
     id="defs48">
    <linearGradient
       inkscape:collect="always"
       id="linearGradient1014">
      <stop
         style="stop-color:#000000;stop-opacity:1;"
         offset="0"
         id="stop1010" />
      <stop
         style="stop-color:#000000;stop-opacity:0;"
         offset="1"
         id="stop1012" />
    </linearGradient>
    <linearGradient
       inkscape:collect="always"
       id="linearGradient993">
      <stop
         style="stop-color:#ffe093;stop-opacity:1;"
         offset="0"
         id="stop989" />
      <stop
         style="stop-color:#ffbd1a;stop-opacity:1"
         offset="1"
         id="stop991" />
    </linearGradient>
    <linearGradient
       inkscape:collect="always"
       xlink:href="#linearGradient993"
       id="linearGradient995"
       x1="17"
       y1="0"
       x2="30.071453"
       y2="48.783329"
       gradientUnits="userSpaceOnUse" />
    <linearGradient
       inkscape:collect="always"
       xlink:href="#linearGradient1014"
       id="linearGradient1016"
       x1="15.949219"
       y1="9.0507812"
       x2="20.489641"
       y2="13.591204"
       gradientUnits="userSpaceOnUse" />
    <linearGradient
       inkscape:collect="always"
       xlink:href="#linearGradient1014"
       id="linearGradient1020"
       gradientUnits="userSpaceOnUse"
       x1="15.949219"
       y1="9.0507812"
       x2="20.489641"
       y2="13.591204"
       gradientTransform="translate(0,9)" />
    <linearGradient
       inkscape:collect="always"
       xlink:href="#linearGradient1014"
       id="linearGradient1024"
       gradientUnits="userSpaceOnUse"
       gradientTransform="translate(0,18)"
       x1="15.949219"
       y1="9.0507812"
       x2="20.489641"
       y2="13.591204" />
    <linearGradient
       inkscape:collect="always"
       xlink:href="#linearGradient1014"
       id="linearGradient1028"
       gradientUnits="userSpaceOnUse"
       gradientTransform="translate(0,27)"
       x1="15.949219"
       y1="9.0507812"
       x2="20.489641"
       y2="13.591204" />
    <linearGradient
       inkscape:collect="always"
       xlink:href="#linearGradient1014"
       id="linearGradient1038"
       gradientUnits="userSpaceOnUse"
       x1="15.949219"
       y1="9.0507812"
       x2="20.489641"
       y2="13.591204"
       gradientTransform="translate(14)" />
    <linearGradient
       inkscape:collect="always"
       xlink:href="#linearGradient1014"
       id="linearGradient1040"
       gradientUnits="userSpaceOnUse"
       gradientTransform="translate(14,9)"
       x1="15.949219"
       y1="9.0507812"
       x2="20.489641"
       y2="13.591204" />
    <linearGradient
       inkscape:collect="always"
       xlink:href="#linearGradient1014"
       id="linearGradient1042"
       gradientUnits="userSpaceOnUse"
       gradientTransform="translate(14,18)"
       x1="15.949219"
       y1="9.0507812"
       x2="20.489641"
       y2="13.591204" />
    <linearGradient
       inkscape:collect="always"
       xlink:href="#linearGradient1014"
       id="linearGradient1044"
       gradientUnits="userSpaceOnUse"
       gradientTransform="translate(14,27)"
       x1="15.949219"
       y1="9.0507812"
       x2="20.489641"
       y2="13.591204" />
  </defs>
  <sodipodi:namedview
     pagecolor="#ffffff"
     bordercolor="#666666"
     borderopacity="1"
     objecttolerance="10"
     gridtolerance="10"
     guidetolerance="10"
     inkscape:pageopacity="0"
     inkscape:pageshadow="2"
     inkscape:window-width="1920"
     inkscape:window-height="1020"
     id="namedview46"
     showgrid="true"
     inkscape:zoom="18.370197"
     inkscape:cx="24"
     inkscape:cy="19.64512"
     inkscape:window-x="0"
     inkscape:window-y="30"
     inkscape:window-maximized="1"
     inkscape:current-layer="svg44">
    <inkscape:grid
       type="xygrid"
       id="grid866" />
  </sodipodi:namedview>
  <rect
     style="fill:#e48a26;stroke-width:0.94372928"
     width="30"
     height="38"
     x="-39"
     y="5"
     transform="scale(-1,1)"
     id="rect2" />
  <path
     style="opacity:0.3;fill:url(#linearGradient1044);fill-opacity:1;stroke:none;stroke-width:2;stroke-linecap:round;stroke-linejoin:round;stroke-miterlimit:4;stroke-dasharray:none;stroke-dashoffset:0;stroke-opacity:1;paint-order:normal"
     d="m 37,34 -4.550781,4.550781 -2.5,-2.5 L 25,41 l 2,2 h 12 v -7 z"
     id="path1036"
     inkscape:connector-curvature="0"
     sodipodi:nodetypes="cccccccc" />
  <path
     style="opacity:0.3;fill:url(#linearGradient1016);fill-opacity:1;stroke:none;stroke-width:2;stroke-linecap:round;stroke-linejoin:round;stroke-miterlimit:4;stroke-dasharray:none;stroke-dashoffset:0;stroke-opacity:1;paint-order:normal"
     d="m 23,7 -4.550781,4.550781 -2.5,-2.4999998 L 11,14 13,16 H 25 V 9 Z"
     id="rect999"
     inkscape:connector-curvature="0"
     sodipodi:nodetypes="cccccccc" />
  <path
     sodipodi:nodetypes="cccccccc"
     inkscape:connector-curvature="0"
     id="path1026"
     d="m 23,34 -4.550781,4.550781 -2.5,-2.5 L 11,41 l 2,2 h 12 v -7 z"
     style="opacity:0.3;fill:url(#linearGradient1028);fill-opacity:1;stroke:none;stroke-width:2;stroke-linecap:round;stroke-linejoin:round;stroke-miterlimit:4;stroke-dasharray:none;stroke-dashoffset:0;stroke-opacity:1;paint-order:normal" />
  <path
     sodipodi:nodetypes="cccccccc"
     inkscape:connector-curvature="0"
     id="path1034"
     d="m 37,25 -4.550781,4.550781 -2.5,-2.5 L 25,32 l 2,2 h 12 v -7 z"
     style="opacity:0.3;fill:url(#linearGradient1042);fill-opacity:1;stroke:none;stroke-width:2;stroke-linecap:round;stroke-linejoin:round;stroke-miterlimit:4;stroke-dasharray:none;stroke-dashoffset:0;stroke-opacity:1;paint-order:normal" />
  <path
     style="opacity:0.3;fill:url(#linearGradient1024);fill-opacity:1;stroke:none;stroke-width:2;stroke-linecap:round;stroke-linejoin:round;stroke-miterlimit:4;stroke-dasharray:none;stroke-dashoffset:0;stroke-opacity:1;paint-order:normal"
     d="m 23,25 -4.550781,4.550781 -2.5,-2.5 L 11,32 l 2,2 h 12 v -7 z"
     id="path1022"
     inkscape:connector-curvature="0"
     sodipodi:nodetypes="cccccccc" />
  <path
     sodipodi:nodetypes="cccccccc"
     inkscape:connector-curvature="0"
     id="path1018"
     d="m 23,16 -4.550781,4.550781 -2.5,-2.5 L 11,23 l 2,2 h 12 v -7 z"
     style="opacity:0.3;fill:url(#linearGradient1020);fill-opacity:1;stroke:none;stroke-width:2;stroke-linecap:round;stroke-linejoin:round;stroke-miterlimit:4;stroke-dasharray:none;stroke-dashoffset:0;stroke-opacity:1;paint-order:normal" />
  <path
     style="opacity:0.3;fill:url(#linearGradient1040);fill-opacity:1;stroke:none;stroke-width:2;stroke-linecap:round;stroke-linejoin:round;stroke-miterlimit:4;stroke-dasharray:none;stroke-dashoffset:0;stroke-opacity:1;paint-order:normal"
     d="m 37,16 -4.550781,4.550781 -2.5,-2.5 L 25,23 l 2,2 h 12 v -7 z"
     id="path1032"
     inkscape:connector-curvature="0"
     sodipodi:nodetypes="cccccccc" />
  <path
     sodipodi:nodetypes="cccccccc"
     inkscape:connector-curvature="0"
     id="path1030"
     d="m 37,7 -4.550781,4.550781 -2.5,-2.4999998 L 25,14 27,16 H 39 V 9 Z"
     style="opacity:0.3;fill:url(#linearGradient1038);fill-opacity:1;stroke:none;stroke-width:2;stroke-linecap:round;stroke-linejoin:round;stroke-miterlimit:4;stroke-dasharray:none;stroke-dashoffset:0;stroke-opacity:1;paint-order:normal" />
  <path
     style="fill:url(#linearGradient995);stroke-width:0.93541437;fill-opacity:1"
     d="M 11 7 L 11 14 L 23 14 L 23 7 L 11 7 z M 25 7 L 25 14 L 37 14 L 37 7 L 25 7 z M 11 16 L 11 23 L 23 23 L 23 16 L 11 16 z M 25 16 L 25 23 L 37 23 L 37 16 L 25 16 z M 11 25 L 11 32 L 23 32 L 23 25 L 11 25 z M 25 25 L 25 32 L 37 32 L 37 25 L 25 25 z M 11 34 L 11 41 L 23 41 L 23 34 L 11 34 z M 25 34 L 25 41 L 37 41 L 37 34 L 25 34 z "
     id="rect18" />
  <path
     inkscape:connector-curvature="0"
     style="opacity:0.2;stroke-width:0.81649661"
     d="m 12,17 v 1 h 4 v -1 z m 7,1 v 3 h 3 v -3 z m -7,1 v 1 h 5 v -1 z m 8,0 h 1 v 1 h -1 z m -8,2 v 1 h 4 v -1 z"
     id="path864" />
  <path
     inkscape:connector-curvature="0"
     id="path880"
     d="m 26,17 v 1 h 4 v -1 z m 7,1 v 3 h 3 v -3 z m -7,1 v 1 h 5 v -1 z m 8,0 h 1 v 1 h -1 z m -8,2 v 1 h 4 v -1 z"
     style="opacity:0.2;stroke-width:0.81649661" />
  <path
     inkscape:connector-curvature="0"
     id="path886"
     d="m 12,8 v 1 h 4 V 8 Z m 7,1 v 3 h 3 V 9 Z m -7,1 v 1 h 5 v -1 z m 8,0 h 1 v 1 h -1 z m -8,2 v 1 h 4 v -1 z"
     style="opacity:0.2;stroke-width:0.81649661" />
  <path
     style="opacity:0.2;stroke-width:0.81649661"
     d="m 26,8 v 1 h 4 V 8 Z m 7,1 v 3 h 3 V 9 Z m -7,1 v 1 h 5 v -1 z m 8,0 h 1 v 1 h -1 z m -8,2 v 1 h 4 v -1 z"
     id="path892"
     inkscape:connector-curvature="0" />
  <path
     style="opacity:0.2;stroke-width:0.81649661"
     d="m 12,26 v 1 h 4 v -1 z m 7,1 v 3 h 3 v -3 z m -7,1 v 1 h 5 v -1 z m 8,0 h 1 v 1 h -1 z m -8,2 v 1 h 4 v -1 z"
     id="path898"
     inkscape:connector-curvature="0" />
  <path
     inkscape:connector-curvature="0"
     id="path904"
     d="m 26,26 v 1 h 4 v -1 z m 7,1 v 3 h 3 v -3 z m -7,1 v 1 h 5 v -1 z m 8,0 h 1 v 1 h -1 z m -8,2 v 1 h 4 v -1 z"
     style="opacity:0.2;stroke-width:0.81649661" />
  <path
     inkscape:connector-curvature="0"
     id="path910"
     d="m 12,35 v 1 h 4 v -1 z m 7,1 v 3 h 3 v -3 z m -7,1 v 1 h 5 v -1 z m 8,0 h 1 v 1 h -1 z m -8,2 v 1 h 4 v -1 z"
     style="opacity:0.2;stroke-width:0.81649661" />
  <path
     style="opacity:0.2;stroke-width:0.81649661"
     d="m 26,35 v 1 h 4 v -1 z m 7,1 v 3 h 3 v -3 z m -7,1 v 1 h 5 v -1 z m 8,0 h 1 v 1 h -1 z m -8,2 v 1 h 4 v -1 z"
     id="path916"
     inkscape:connector-curvature="0" />
  <rect
     style="opacity:0.2;fill:#000000;fill-opacity:1;stroke:none;stroke-width:2;stroke-linecap:round;stroke-linejoin:round;stroke-miterlimit:4;stroke-dasharray:none;stroke-dashoffset:0;stroke-opacity:1;paint-order:normal"
     id="rect997"
     width="30"
     height="1"
     x="9"
     y="42" />
</svg>
