<?xml version="1.0" encoding="UTF-8" standalone="no"?>
<!-- Created with Inkscape (http://www.inkscape.org/) -->

<svg
   xmlns:dc="http://purl.org/dc/elements/1.1/"
   xmlns:cc="http://creativecommons.org/ns#"
   xmlns:rdf="http://www.w3.org/1999/02/22-rdf-syntax-ns#"
   xmlns:svg="http://www.w3.org/2000/svg"
   xmlns="http://www.w3.org/2000/svg"
   xmlns:xlink="http://www.w3.org/1999/xlink"
   xmlns:sodipodi="http://sodipodi.sourceforge.net/DTD/sodipodi-0.dtd"
   xmlns:inkscape="http://www.inkscape.org/namespaces/inkscape"
   version="1.1"
   id="svg19066"
   width="48"
   height="48"
   viewBox="0 0 48 48"
   sodipodi:docname="rsibreak.svg"
   inkscape:version="0.92.3 (2405546, 2018-03-11)">
  <metadata
     id="metadata19072">
    <rdf:RDF>
      <cc:Work
         rdf:about="">
        <dc:format>image/svg+xml</dc:format>
        <dc:type
           rdf:resource="http://purl.org/dc/dcmitype/StillImage" />
        <dc:title />
      </cc:Work>
    </rdf:RDF>
  </metadata>
  <defs
     id="defs19070">
    <linearGradient
       inkscape:collect="always"
       id="linearGradient882">
      <stop
         style="stop-color:#000000;stop-opacity:1;"
         offset="0"
         id="stop878" />
      <stop
         style="stop-color:#000000;stop-opacity:0;"
         offset="1"
         id="stop880" />
    </linearGradient>
    <linearGradient
       inkscape:collect="always"
       id="linearGradient838">
      <stop
         style="stop-color:#924b89;stop-opacity:1;"
         offset="0"
         id="stop834" />
      <stop
         style="stop-color:#2d3589;stop-opacity:1"
         offset="1"
         id="stop836" />
    </linearGradient>
    <linearGradient
       inkscape:collect="always"
       id="linearGradient828">
      <stop
         style="stop-color:#bfc4cb;stop-opacity:1;"
         offset="0"
         id="stop824" />
      <stop
         style="stop-color:#bfc4cb;stop-opacity:0;"
         offset="1"
         id="stop826" />
    </linearGradient>
    <linearGradient
       inkscape:collect="always"
       id="linearGradient818">
      <stop
         style="stop-color:#2e3338;stop-opacity:1"
         offset="0"
         id="stop814" />
      <stop
         style="stop-color:#484f54;stop-opacity:1"
         offset="1"
         id="stop816" />
    </linearGradient>
    <linearGradient
       inkscape:collect="always"
       xlink:href="#linearGradient818"
       id="linearGradient820"
       x1="29.031767"
       y1="42.932655"
       x2="21.636595"
       y2="7.1003814"
       gradientUnits="userSpaceOnUse" />
    <linearGradient
       inkscape:collect="always"
       xlink:href="#linearGradient828"
       id="linearGradient830"
       x1="19.862524"
       y1="1.7262738"
       x2="32.661572"
       y2="49.492966"
       gradientUnits="userSpaceOnUse" />
    <linearGradient
       inkscape:collect="always"
       xlink:href="#linearGradient838"
       id="linearGradient840"
       x1="21.977129"
       y1="8.752224"
       x2="30.421179"
       y2="40.265846"
       gradientUnits="userSpaceOnUse" />
    <linearGradient
       inkscape:collect="always"
       xlink:href="#linearGradient882"
       id="linearGradient884"
       x1="22.790468"
       y1="14.193405"
       x2="41.523941"
       y2="32.926876"
       gradientUnits="userSpaceOnUse" />
  </defs>
  <sodipodi:namedview
     pagecolor="#ffffff"
     bordercolor="#666666"
     borderopacity="1"
     objecttolerance="10"
     gridtolerance="10"
     guidetolerance="10"
     inkscape:pageopacity="0"
     inkscape:pageshadow="2"
     inkscape:window-width="1920"
     inkscape:window-height="1020"
     id="namedview19068"
     showgrid="true"
     inkscape:zoom="12.81"
     inkscape:cx="11.126246"
     inkscape:cy="20.376582"
     inkscape:window-x="0"
     inkscape:window-y="30"
     inkscape:window-maximized="1"
     inkscape:current-layer="svg19066">
    <inkscape:grid
       type="xygrid"
       id="grid852" />
  </sodipodi:namedview>
  <circle
     style="opacity:1;fill:url(#linearGradient820);fill-opacity:1;stroke:none;stroke-width:4.01663303;stroke-linecap:round;stroke-linejoin:round;stroke-miterlimit:4;stroke-dasharray:none;stroke-dashoffset:0;stroke-opacity:1;paint-order:normal"
     id="path812"
     cx="24"
     cy="24"
     r="20" />
  <circle
     style="opacity:1;fill:url(#linearGradient830);fill-opacity:1;stroke:none;stroke-width:4.95000076;stroke-linecap:round;stroke-linejoin:round;stroke-miterlimit:4;stroke-dasharray:none;stroke-dashoffset:0;stroke-opacity:1;paint-order:normal"
     id="path822"
     cx="24"
     cy="24"
     r="18" />
  <circle
     style="opacity:1;fill:url(#linearGradient840);fill-opacity:1;stroke:none;stroke-width:5.52328491;stroke-linecap:round;stroke-linejoin:round;stroke-miterlimit:4;stroke-dasharray:none;stroke-dashoffset:0;stroke-opacity:1;paint-order:normal"
     id="path832"
     cx="24"
     cy="24"
     r="16" />
  <path
     style="opacity:0.1;fill:#ffffff;fill-opacity:1;stroke:none;stroke-width:6.86949873;stroke-linecap:round;stroke-linejoin:round;stroke-miterlimit:4;stroke-dasharray:none;stroke-dashoffset:0;stroke-opacity:1;paint-order:normal"
     d="M 23 8 L 23 13 L 25 13 L 25 8 L 23 8 z M 13.392578 11.978516 L 11.978516 13.392578 L 15.515625 16.929688 L 16.929688 15.515625 L 13.392578 11.978516 z M 34.607422 11.978516 L 31.070312 15.515625 L 32.484375 16.929688 L 36.021484 13.392578 L 34.607422 11.978516 z M 8 23 L 8 25 L 13 25 L 13 23 L 8 23 z M 35 23 L 35 25 L 40 25 L 40 23 L 35 23 z M 15.515625 31.070312 L 11.978516 34.607422 L 13.392578 36.021484 L 16.929688 32.484375 L 15.515625 31.070312 z M 32.484375 31.070312 L 31.070312 32.484375 L 34.607422 36.021484 L 36.021484 34.607422 L 32.484375 31.070312 z M 23 35 L 23 40 L 25 40 L 25 35 L 23 35 z "
     id="rect850" />
  <path
     style="opacity:0.2;fill:url(#linearGradient884);fill-opacity:1;stroke:none;stroke-width:4;stroke-linecap:round;stroke-linejoin:round;stroke-miterlimit:4;stroke-dasharray:none;stroke-dashoffset:0;stroke-opacity:1;paint-order:normal"
     d="M 24.435547 8.1855469 L 23.792969 9.4121094 L 24.037109 19.21875 L 24.226562 19.408203 L 22.769531 24.734375 L 21.685547 25.933594 L 35.841797 40.089844 A 20 20 0 0 0 43.683594 27.431641 L 24.435547 8.1855469 z "
     id="rect870" />
  <path
     style="opacity:1;fill:#ffffff;fill-opacity:1;stroke:none;stroke-width:3.97664142;stroke-linecap:round;stroke-linejoin:round;stroke-miterlimit:4;stroke-dasharray:none;stroke-dashoffset:0;stroke-opacity:1;paint-order:normal"
     d="M 24 8 C 22.895431 8 22 11.861225 22 13.333984 C 22 14.318911 22.404318 15.169055 23 15.630859 L 23 21.173828 A 3 3 0 0 0 21 24 A 3 3 0 0 0 24 27 A 3 3 0 0 0 27 24 A 3 3 0 0 0 25 21.175781 L 25 15.630859 C 25.595682 15.169055 26 14.318911 26 13.333984 C 26 11.861225 25.104569 8 24 8 z "
     id="path842" />
  <path
     style="opacity:1;fill:#694d4d;fill-opacity:1;stroke:none;stroke-width:4.61880207;stroke-linecap:round;stroke-linejoin:round;stroke-miterlimit:4;stroke-dasharray:none;stroke-dashoffset:0;stroke-opacity:1;paint-order:normal"
     d="M 24 22 A 2 2 0 0 0 22 24 A 2 2 0 0 0 24 26 A 2 2 0 0 0 26 24 A 2 2 0 0 0 24 22 z M 24 23 A 1 1 0 0 1 25 24 A 1 1 0 0 1 24 25 A 1 1 0 0 1 23 24 A 1 1 0 0 1 24 23 z "
     id="path886" />
</svg>
