<?xml version="1.0" encoding="UTF-8" standalone="no"?>
<svg
   xmlns:dc="http://purl.org/dc/elements/1.1/"
   xmlns:cc="http://creativecommons.org/ns#"
   xmlns:rdf="http://www.w3.org/1999/02/22-rdf-syntax-ns#"
   xmlns:svg="http://www.w3.org/2000/svg"
   xmlns="http://www.w3.org/2000/svg"
   xmlns:xlink="http://www.w3.org/1999/xlink"
   xmlns:sodipodi="http://sodipodi.sourceforge.net/DTD/sodipodi-0.dtd"
   xmlns:inkscape="http://www.inkscape.org/namespaces/inkscape"
   height="48"
   width="48"
   version="1"
   id="svg28"
   sodipodi:docname="devhelp.svg"
   inkscape:version="0.92.1 r15371">
  <metadata
     id="metadata34">
    <rdf:RDF>
      <cc:Work
         rdf:about="">
        <dc:format>image/svg+xml</dc:format>
        <dc:type
           rdf:resource="http://purl.org/dc/dcmitype/StillImage" />
        <dc:title />
      </cc:Work>
    </rdf:RDF>
  </metadata>
  <defs
     id="defs32">
    <linearGradient
       inkscape:collect="always"
       id="linearGradient4567">
      <stop
         style="stop-color:#e87474;stop-opacity:1"
         offset="0"
         id="stop4563" />
      <stop
         style="stop-color:#fbfbfb;stop-opacity:1"
         offset="1"
         id="stop4565" />
    </linearGradient>
    <linearGradient
       inkscape:collect="always"
       id="linearGradient4559">
      <stop
         style="stop-color:#000000;stop-opacity:1;"
         offset="0"
         id="stop4555" />
      <stop
         style="stop-color:#000000;stop-opacity:0;"
         offset="1"
         id="stop4557" />
    </linearGradient>
    <linearGradient
       inkscape:collect="always"
       id="linearGradient4545">
      <stop
         style="stop-color:#3f9343;stop-opacity:1;"
         offset="0"
         id="stop4541" />
      <stop
         style="stop-color:#5bb960;stop-opacity:1"
         offset="1"
         id="stop4543" />
    </linearGradient>
    <linearGradient
       inkscape:collect="always"
       id="linearGradient4537">
      <stop
         style="stop-color:#2095f2;stop-opacity:1;"
         offset="0"
         id="stop4533" />
      <stop
         style="stop-color:#5eb3f6;stop-opacity:1"
         offset="1"
         id="stop4535" />
    </linearGradient>
    <linearGradient
       inkscape:collect="always"
       id="linearGradient4529">
      <stop
         style="stop-color:#fec006;stop-opacity:1;"
         offset="0"
         id="stop4525" />
      <stop
         style="stop-color:#fedd7a;stop-opacity:1"
         offset="1"
         id="stop4527" />
    </linearGradient>
    <linearGradient
       inkscape:collect="always"
       id="linearGradient4515">
      <stop
         style="stop-color:#f55e53;stop-opacity:1"
         offset="0"
         id="stop4511" />
      <stop
         style="stop-color:#c12217;stop-opacity:1"
         offset="1"
         id="stop4513" />
    </linearGradient>
    <linearGradient
       inkscape:collect="always"
       xlink:href="#linearGradient4515"
       id="linearGradient4517"
       x1="24.331886"
       y1="4.2270579"
       x2="24.331886"
       y2="44.151371"
       gradientUnits="userSpaceOnUse" />
    <linearGradient
       inkscape:collect="always"
       xlink:href="#linearGradient4529"
       id="linearGradient4531"
       x1="41.00148"
       y1="40"
       x2="41.00148"
       y2="28"
       gradientUnits="userSpaceOnUse"
       gradientTransform="translate(-0.0014801,-3.9999898)" />
    <linearGradient
       inkscape:collect="always"
       xlink:href="#linearGradient4537"
       id="linearGradient4539"
       x1="41.00148"
       y1="30"
       x2="41.00148"
       y2="18"
       gradientUnits="userSpaceOnUse"
       gradientTransform="translate(-0.0014801,-3.9999898)" />
    <linearGradient
       inkscape:collect="always"
       xlink:href="#linearGradient4545"
       id="linearGradient4547"
       x1="41.00148"
       y1="20"
       x2="41.00148"
       y2="8"
       gradientUnits="userSpaceOnUse"
       gradientTransform="translate(-0.0014732,-3.9999898)" />
    <linearGradient
       inkscape:collect="always"
       xlink:href="#linearGradient4559"
       id="linearGradient4561"
       x1="25.263966"
       y1="23.186865"
       x2="38.616249"
       y2="36.539146"
       gradientUnits="userSpaceOnUse" />
    <linearGradient
       inkscape:collect="always"
       xlink:href="#linearGradient4567"
       id="linearGradient4569"
       x1="27.544659"
       y1="32.141891"
       x2="27.045534"
       y2="14.891455"
       gradientUnits="userSpaceOnUse" />
  </defs>
  <sodipodi:namedview
     pagecolor="#ffffff"
     bordercolor="#666666"
     borderopacity="1"
     objecttolerance="10"
     gridtolerance="10"
     guidetolerance="10"
     inkscape:pageopacity="0"
     inkscape:pageshadow="2"
     inkscape:window-width="1600"
     inkscape:window-height="808"
     id="namedview30"
     showgrid="false"
     inkscape:zoom="11.42"
     inkscape:cx="10.888913"
     inkscape:cy="26.07746"
     inkscape:window-x="0"
     inkscape:window-y="0"
     inkscape:window-maximized="1"
     inkscape:current-layer="svg28" />
  <path
     d="m 7,4 c 0,0 0,0.892 0,2 v 36 c 0,1.108 0,2 0,2 h 5.9785 l 3,-20 -3,-20 z"
     id="path2"
     inkscape:connector-curvature="0"
     style="fill:#3f3f3f"
     sodipodi:nodetypes="cssccccc" />
  <rect
     style="fill:url(#linearGradient4531);fill-opacity:1"
     id="rect8"
     x="27"
     y="24"
     width="14"
     height="12"
     ry="1" />
  <rect
     style="fill:url(#linearGradient4539);fill-opacity:1"
     id="rect6"
     x="27"
     y="14"
     width="14"
     height="12"
     ry="1" />
  <rect
     style="fill:url(#linearGradient4547);fill-opacity:1"
     id="rect4"
     x="27"
     y="4.0000129"
     width="14"
     height="12"
     ry="1" />
  <path
     d="M 12.979,4 V 44 H 39 c 0,0 0,-0.892 0,-2 V 6 C 39,4.892 39,4 39,4 H 22.979 Z"
     id="path18"
     inkscape:connector-curvature="0"
     style="fill:url(#linearGradient4517);fill-opacity:1"
     sodipodi:nodetypes="cccssccc" />
  <path
     style="opacity:0.2;vector-effect:none;fill:url(#linearGradient4561);fill-opacity:1;stroke:none;stroke-width:7.78058863;stroke-linecap:round;stroke-linejoin:round;stroke-miterlimit:4;stroke-dasharray:none;stroke-dashoffset:0;stroke-opacity:1"
     d="m 24.972656,15.661781 3.805341,0.533829 3.303856,3.840749 -0.256325,8.878056 -2.933921,2.616203 -4.868166,0.901683 L 19,32 18.074219,33.050781 29.023438,44 H 39 V 42 25.363281 l -8.029297,-8.029297 z"
     id="rect4549"
     inkscape:connector-curvature="0"
     sodipodi:nodetypes="cccccccccccccc" />
  <path
     style="fill:url(#linearGradient4569);fill-opacity:1"
     d="M 18 15 L 18 33 L 23.332031 33 C 32.666031 33 33 27.333 33 24 C 33 20.667 32.664031 14.835 23.332031 15 L 18 15 z M 19 16 L 23.341797 16 L 23.351562 16 C 27.809134 15.92118 29.787644 17.193531 30.835938 18.748047 C 31.884194 20.302563 32 22.367003 32 24 C 32 25.633197 31.886966 27.651685 30.839844 29.1875 C 29.792721 30.723315 27.796653 32 23.332031 32 L 19 32 L 19 16 z M 21 18 L 21 30 L 23.333984 30 C 25.417318 30 27.022542 29.775035 28.167969 28.744141 C 29.313396 27.713246 29.666016 26.111108 29.666016 24 C 29.666016 21.888892 29.313396 20.286754 28.167969 19.255859 C 27.022542 18.224965 25.417318 18 23.333984 18 L 21 18 z M 22 19 L 23.333984 19 C 27.333984 19 28.666016 20 28.666016 24 C 28.666016 28 27.333984 29 23.333984 29 L 22 29 L 22 19 z "
     id="path24" />
</svg>
