<?xml version="1.0" encoding="UTF-8" standalone="no"?>
<svg
   xmlns:dc="http://purl.org/dc/elements/1.1/"
   xmlns:cc="http://creativecommons.org/ns#"
   xmlns:rdf="http://www.w3.org/1999/02/22-rdf-syntax-ns#"
   xmlns:svg="http://www.w3.org/2000/svg"
   xmlns="http://www.w3.org/2000/svg"
   xmlns:xlink="http://www.w3.org/1999/xlink"
   xmlns:sodipodi="http://sodipodi.sourceforge.net/DTD/sodipodi-0.dtd"
   xmlns:inkscape="http://www.inkscape.org/namespaces/inkscape"
   width="48"
   height="48"
   version="1.1"
   id="svg18"
   sodipodi:docname="glade.svg"
   inkscape:version="0.92.3 (2405546, 2018-03-11)">
  <metadata
     id="metadata24">
    <rdf:RDF>
      <cc:Work
         rdf:about="">
        <dc:format>image/svg+xml</dc:format>
        <dc:type
           rdf:resource="http://purl.org/dc/dcmitype/StillImage" />
        <dc:title />
      </cc:Work>
    </rdf:RDF>
  </metadata>
  <defs
     id="defs22">
    <linearGradient
       inkscape:collect="always"
       id="linearGradient841">
      <stop
         style="stop-color:#000000;stop-opacity:1;"
         offset="0"
         id="stop837" />
      <stop
         style="stop-color:#000000;stop-opacity:0;"
         offset="1"
         id="stop839" />
    </linearGradient>
    <linearGradient
       inkscape:collect="always"
       id="linearGradient832">
      <stop
         style="stop-color:#ffffff;stop-opacity:1;"
         offset="0"
         id="stop828" />
      <stop
         style="stop-color:#ffffff;stop-opacity:0;"
         offset="1"
         id="stop830" />
    </linearGradient>
    <linearGradient
       inkscape:collect="always"
       id="linearGradient1173">
      <stop
         style="stop-color:#1b69c7;stop-opacity:1;"
         offset="0"
         id="stop1169" />
      <stop
         style="stop-color:#73aaec;stop-opacity:1"
         offset="1"
         id="stop1171" />
    </linearGradient>
    <linearGradient
       inkscape:collect="always"
       id="linearGradient1101">
      <stop
         style="stop-color:#ebc40a;stop-opacity:1"
         offset="0"
         id="stop1097" />
      <stop
         style="stop-color:#fae78b;stop-opacity:1"
         offset="1"
         id="stop1099" />
    </linearGradient>
    <linearGradient
       inkscape:collect="always"
       xlink:href="#linearGradient1101"
       id="linearGradient1103"
       x1="38"
       y1="40.549385"
       x2="33.487633"
       y2="25"
       gradientUnits="userSpaceOnUse"
       gradientTransform="translate(-3)" />
    <linearGradient
       inkscape:collect="always"
       xlink:href="#linearGradient1173"
       id="linearGradient1175"
       x1="33"
       y1="38"
       x2="27"
       y2="8"
       gradientUnits="userSpaceOnUse" />
    <linearGradient
       inkscape:collect="always"
       xlink:href="#linearGradient832"
       id="linearGradient834"
       x1="23"
       y1="12"
       x2="25"
       y2="37"
       gradientUnits="userSpaceOnUse" />
    <linearGradient
       inkscape:collect="always"
       xlink:href="#linearGradient841"
       id="linearGradient843"
       x1="36"
       y1="22"
       x2="43"
       y2="29"
       gradientUnits="userSpaceOnUse" />
  </defs>
  <sodipodi:namedview
     pagecolor="#ffffff"
     bordercolor="#666666"
     borderopacity="1"
     objecttolerance="10"
     gridtolerance="10"
     guidetolerance="10"
     inkscape:pageopacity="0"
     inkscape:pageshadow="2"
     inkscape:window-width="1920"
     inkscape:window-height="1020"
     id="namedview20"
     showgrid="true"
     inkscape:zoom="12.14"
     inkscape:cx="40.267283"
     inkscape:cy="22.233216"
     inkscape:window-x="0"
     inkscape:window-y="30"
     inkscape:window-maximized="1"
     inkscape:current-layer="svg18"
     showguides="false">
    <inkscape:grid
       type="xygrid"
       id="grid1073" />
  </sodipodi:namedview>
  <path
     style="display:inline;opacity:1;fill:url(#linearGradient1175);fill-opacity:1;stroke:none;stroke-width:0.19508468;stroke-linejoin:round;stroke-miterlimit:4;stroke-dasharray:none;stroke-opacity:1;enable-background:new"
     clip-path="none"
     d="m 1.9999997,38 44.0000013,-2e-6 -2e-6,-30.9999988 H 1.9999997 Z"
     id="path1469-9"
     inkscape:connector-curvature="0"
     sodipodi:nodetypes="ccccc" />
  <path
     style="opacity:1;fill:url(#linearGradient834);fill-opacity:1;stroke:none;stroke-width:2;stroke-linecap:round;stroke-linejoin:round;stroke-miterlimit:4;stroke-dasharray:none;stroke-dashoffset:0;stroke-opacity:1;paint-order:normal"
     d="m 7,12 v 1 3 1 15 1 H 8 41 V 32 12 H 8 Z m 1,1 h 32 v 3 H 8 Z m 0,4 H 40 V 32 H 8 Z m 4.5,4 C 11.671573,21 11,21.671573 11,22.5 11,23.328427 11.671573,24 12.5,24 13.328427,24 14,23.328427 14,22.5 14,21.671573 13.328427,21 12.5,21 Z M 12,22 h 1 v 1 h -1 z m 5,0 v 1 h 16 v -1 z m -4.5,3 C 11.671573,25 11,25.671573 11,26.5 11,27.328427 11.671573,28 12.5,28 13.328427,28 14,27.328427 14,26.5 14,25.671573 13.328427,25 12.5,25 Z M 12,26 h 1 v 1 h -1 z m 5,0 v 1 h 16 v -1 z"
     id="rect1105"
     inkscape:connector-curvature="0"
     sodipodi:nodetypes="ccccccccccccccccccccccsssssccccccccccssssscccccccccc" />
  <path
     style="opacity:0.2;fill:url(#linearGradient843);fill-opacity:1;stroke:none;stroke-width:2;stroke-linecap:round;stroke-linejoin:round;stroke-miterlimit:4;stroke-dasharray:none;stroke-dashoffset:0;stroke-opacity:1;paint-order:normal"
     d="M 41 17.572266 L 37 23 L 39 34 L 40.142578 38 L 46 38 L 46 22.572266 L 41 17.572266 z "
     id="rect829" />
  <path
     style="color:#000000;font-style:normal;font-variant:normal;font-weight:normal;font-stretch:normal;font-size:medium;line-height:normal;font-family:sans-serif;font-variant-ligatures:normal;font-variant-position:normal;font-variant-caps:normal;font-variant-numeric:normal;font-variant-alternates:normal;font-feature-settings:normal;text-indent:0;text-align:start;text-decoration:none;text-decoration-line:none;text-decoration-style:solid;text-decoration-color:#000000;letter-spacing:normal;word-spacing:normal;text-transform:none;writing-mode:lr-tb;direction:ltr;text-orientation:mixed;dominant-baseline:auto;baseline-shift:baseline;text-anchor:start;white-space:normal;shape-padding:0;clip-rule:nonzero;display:inline;overflow:visible;visibility:visible;opacity:1;isolation:auto;mix-blend-mode:normal;color-interpolation:sRGB;color-interpolation-filters:linearRGB;solid-color:#000000;solid-opacity:1;vector-effect:none;fill:url(#linearGradient1103);fill-opacity:1;fill-rule:nonzero;stroke:none;stroke-width:5.46076822;stroke-linecap:butt;stroke-linejoin:miter;stroke-miterlimit:4;stroke-dasharray:none;stroke-dashoffset:0;stroke-opacity:1;color-rendering:auto;image-rendering:auto;shape-rendering:auto;text-rendering:auto;enable-background:accumulate"
     d="M 41,17.572266 0,41 H 10.242188 41 Z m -5,9.320312 V 36 H 19.984375 Z"
     id="path1077"
     inkscape:connector-curvature="0" />
  <path
     style="opacity:1;fill:#b38108;fill-opacity:1;stroke:none;stroke-width:2;stroke-linecap:round;stroke-linejoin:round;stroke-miterlimit:4;stroke-dasharray:none;stroke-dashoffset:0;stroke-opacity:1;paint-order:normal"
     d="m 4,39 v 2 h 1 v -2 z m 4,0 v 2 h 1 v -2 z m 4,0 v 2 h 1 v -2 z m 4,0 v 2 h 1 v -2 z m 4,0 v 2 h 1 v -2 z m 4,0 v 2 h 1 v -2 z m 4,0 v 2 h 1 v -2 z m 4,0 v 2 h 1 v -2 z m 4,0 v 2 h 1 v -2 z m 4,0 v 2 h 1 v -2 z"
     id="rect1083"
     inkscape:connector-curvature="0" />
  <path
     style="opacity:0.2;fill:#000000;fill-opacity:1;stroke:none;stroke-width:2;stroke-linecap:round;stroke-linejoin:round;stroke-miterlimit:4;stroke-dasharray:none;stroke-dashoffset:0;stroke-opacity:1;paint-order:normal"
     d="M 1.75,40 0,41 h 41 v -1 z"
     id="rect1177"
     inkscape:connector-curvature="0" />
</svg>
