<?xml version="1.0" encoding="UTF-8" standalone="no"?>
<!-- Created with Inkscape (http://www.inkscape.org/) -->

<svg
   xmlns:dc="http://purl.org/dc/elements/1.1/"
   xmlns:cc="http://creativecommons.org/ns#"
   xmlns:rdf="http://www.w3.org/1999/02/22-rdf-syntax-ns#"
   xmlns:svg="http://www.w3.org/2000/svg"
   xmlns="http://www.w3.org/2000/svg"
   xmlns:xlink="http://www.w3.org/1999/xlink"
   xmlns:sodipodi="http://sodipodi.sourceforge.net/DTD/sodipodi-0.dtd"
   xmlns:inkscape="http://www.inkscape.org/namespaces/inkscape"
   width="48"
   version="1.1"
   height="48"
   id="svg63"
   sodipodi:docname="jockey.svg"
   inkscape:version="0.92.1 r15371">
  <sodipodi:namedview
     pagecolor="#ffffff"
     bordercolor="#666666"
     borderopacity="1"
     objecttolerance="10"
     gridtolerance="10"
     guidetolerance="10"
     inkscape:pageopacity="0"
     inkscape:pageshadow="2"
     inkscape:window-width="1600"
     inkscape:window-height="808"
     id="namedview65"
     showgrid="false"
     inkscape:zoom="1"
     inkscape:cx="19.673485"
     inkscape:cy="23.806406"
     inkscape:window-x="0"
     inkscape:window-y="0"
     inkscape:window-maximized="1"
     inkscape:current-layer="layer1">
    <inkscape:grid
       type="xygrid"
       id="grid4596" />
  </sodipodi:namedview>
  <defs
     id="defs5455">
    <linearGradient
       inkscape:collect="always"
       id="linearGradient4655">
      <stop
         style="stop-color:#000000;stop-opacity:1;"
         offset="0"
         id="stop4651" />
      <stop
         style="stop-color:#000000;stop-opacity:0;"
         offset="1"
         id="stop4653" />
    </linearGradient>
    <linearGradient
       inkscape:collect="always"
       id="linearGradient4251-0">
      <stop
         style="stop-color:#63984b"
         id="stop4253-4" />
      <stop
         offset="1"
         style="stop-color:#8fc278"
         id="stop4255-2" />
    </linearGradient>
    <linearGradient
       inkscape:collect="always"
       xlink:href="#linearGradient4251-0"
       id="linearGradient4232"
       y1="54"
       y2="12"
       x2="0"
       gradientUnits="userSpaceOnUse"
       gradientTransform="matrix(0.76363636,0,0,0.76363636,375.75326,506.56161)" />
    <linearGradient
       inkscape:collect="always"
       xlink:href="#linearGradient4159"
       id="linearGradient4384"
       y1="1043.3622"
       y2="1012.3622"
       x2="0"
       gradientUnits="userSpaceOnUse"
       gradientTransform="matrix(0.50000003,0,0,0.51612908,422.5715,3.2882664)" />
    <linearGradient
       inkscape:collect="always"
       id="linearGradient4159">
      <stop
         style="stop-color:#2a2c2f"
         id="stop4161" />
      <stop
         offset="1"
         style="stop-color:#424649"
         id="stop4163" />
    </linearGradient>
    <linearGradient
       inkscape:collect="always"
       xlink:href="#linearGradient4655"
       id="linearGradient4657"
       x1="28.242075"
       y1="23.600386"
       x2="37.992313"
       y2="33.350624"
       gradientUnits="userSpaceOnUse" />
  </defs>
  <metadata
     id="metadata5458">
    <rdf:RDF>
      <cc:Work
         rdf:about="">
        <dc:format>image/svg+xml</dc:format>
        <dc:type
           rdf:resource="http://purl.org/dc/dcmitype/StillImage" />
        <dc:title></dc:title>
      </cc:Work>
    </rdf:RDF>
  </metadata>
  <g
     inkscape:label="Capa 1"
     inkscape:groupmode="layer"
     id="layer1"
     transform="translate(-376.57144,-507.79797)">
    <path
       inkscape:connector-curvature="0"
       style="fill:url(#linearGradient4232);stroke-width:0.76363635"
       id="rect4200"
       d="m 383.38962,544.79797 h 9.18182 v 3 h 23 v -3 h 6 v -24 h -15.27273 -22.90909 c 0.18182,0 0,24 0,24 z"
       sodipodi:nodetypes="cccccccccc" />
    <rect
       width="23"
       x="392.57144"
       y="546.79797"
       height="1"
       style="fill:#dce269;stroke-width:0.87559682"
       id="rect4234" />
    <path
       id="path4621"
       d="m 398.57144,544.79797 v -1 h 1 v 1 z m 1,-1 v -1 h 1 v 1 z m 1,0 h 1 v 1 h -1 z m 1,0 v -1 h 1 v 1 z m 1,0 h 1 v 1 h -1 z m 1,0 v -1 h 1 v 1 z m 1,0 h 1 v 1 h -1 z m 1,0 v -1 h 1 v 1 z m 1,0 h 1 v 1 h -1 z m 1,0 v -1 h 1 v 1 z m 1,0 h 1 v 1 h -1 z m 1,0 v -1 h 1 v 1 z m 1,0 h 1 v 1 h -1 z m -12,0 h -1 v -1 h 1 z"
       style="opacity:1;vector-effect:none;fill:#080f12;fill-opacity:1;stroke:none;stroke-width:3;stroke-linecap:round;stroke-linejoin:round;stroke-miterlimit:4;stroke-dasharray:none;stroke-dashoffset:0;stroke-opacity:1"
       inkscape:connector-curvature="0" />
    <path
       style="opacity:0.2;vector-effect:none;fill:url(#linearGradient4657);fill-opacity:1;stroke:none;stroke-width:4.2373457;stroke-linecap:round;stroke-linejoin:round;stroke-miterlimit:4;stroke-dasharray:none;stroke-dashoffset:0;stroke-opacity:1"
       d="M 36.042969 18.042969 L 27.277344 19.65625 L 26.242188 28.886719 L 20.064453 34.023438 L 26.041016 40 L 39 40 L 39 37 L 45 37 L 45 27 L 36.042969 18.042969 z "
       transform="translate(376.57144,507.79797)"
       id="rect4645" />
    <rect
       width="16"
       x="396.57144"
       y="525.79797"
       height="16"
       style="fill:url(#linearGradient4384);fill-rule:evenodd;stroke-width:0.80000001"
       id="rect4241" />
    <path
       style="fill:#afc0c6;stroke-width:0.76363635"
       d="m 380.57144,515.79797 h 3 v 31.99998 h -3 z"
       id="rect4487"
       inkscape:connector-curvature="0"
       sodipodi:nodetypes="ccccc" />
    <rect
       width="1"
       x="380.57144"
       y="515.79797"
       height="32"
       style="fill:#96aab5;stroke-width:0.87287158"
       id="rect4489" />
    <path
       inkscape:connector-curvature="0"
       style="fill:#afc0c6;stroke-width:0.86602694"
       id="path4757"
       d="m 379.57144,537.79797 c -0.55401,0 -1.00001,0.3345 -1.00001,0.75 v 1.5 c 0,0.4155 0.446,0.75 1.00001,0.75 h 0.99999 v -3 z" />
    <path
       inkscape:connector-curvature="0"
       style="fill:#afc0c6;stroke-width:0.76363635"
       id="path4826"
       d="m 380.30826,526.79815 c -0.42306,0 -0.76364,0.34058 -0.76364,0.76364 v 3.52709 c 0,0.42305 0.34058,0.76364 0.76364,0.76364 h 0.26318 v -5.05437 z"
       sodipodi:nodetypes="ssssccs" />
    <path
       style="opacity:1;vector-effect:none;fill:#080f12;fill-opacity:1;stroke:none;stroke-width:3;stroke-linecap:round;stroke-linejoin:round;stroke-miterlimit:4;stroke-dasharray:none;stroke-dashoffset:0;stroke-opacity:1"
       d="m 386.57144,541.79797 v 1 h 1 v -1 z m 1,1 v 1 h 1 v -1 z m 1,0 h 1 v -1 h -1 z m 1,0 v 1 h 1 v -1 z m 1,0 h 1 v -1 h -1 z m -4,0 h -1 v 1 h 1 z"
       id="rect4598"
       inkscape:connector-curvature="0" />
    <path
       style="opacity:1;vector-effect:none;fill:#080f12;fill-opacity:1;stroke:none;stroke-width:3;stroke-linecap:round;stroke-linejoin:round;stroke-miterlimit:4;stroke-dasharray:none;stroke-dashoffset:0;stroke-opacity:1"
       d="m 398.57144,522.79797 v 1 h 1 v -1 z m 1,1 v 1 h 1 v -1 z m 1,0 h 1 v -1 h -1 z m 1,0 v 1 h 1 v -1 z m 1,0 h 1 v -1 h -1 z m 1,0 v 1 h 1 v -1 z m 1,0 h 1 v -1 h -1 z m 1,0 v 1 h 1 v -1 z m 1,0 h 1 v -1 h -1 z m 1,0 v 1 h 1 v -1 z m 1,0 h 1 v -1 h -1 z m 1,0 v 1 h 1 v -1 z m 1,0 h 1 v -1 h -1 z m -12,0 h -1 v 1 h 1 z"
       id="path4611"
       inkscape:connector-curvature="0" />
    <path
       style="opacity:1;vector-effect:none;fill:#afc0c6;fill-opacity:1;stroke:none;stroke-width:2.12132001;stroke-linecap:round;stroke-linejoin:round;stroke-miterlimit:4;stroke-dasharray:none;stroke-dashoffset:0;stroke-opacity:1"
       d="M 24 19 L 24 20 L 28 20 L 28 19 L 24 19 z M 29 19 L 29 20 L 31 20 L 31 19 L 29 19 z M 21 23 L 21 24 L 22 24 L 22 23 L 21 23 z M 23 23 L 23 24 L 25 24 L 25 23 L 23 23 z M 26 23 L 26 24 L 30 24 L 30 23 L 26 23 z M 21 25 L 21 26 L 26 26 L 26 25 L 21 25 z M 27 25 L 27 26 L 29 26 L 29 25 L 27 25 z M 21 27 L 21 28 L 23 28 L 23 27 L 21 27 z M 24 27 L 24 28 L 25 28 L 25 27 L 24 27 z M 26 27 L 26 28 L 27 28 L 27 27 L 26 27 z "
       transform="translate(376.57144,507.79797)"
       id="rect4623" />
  </g>
</svg>
