<?xml version="1.0" encoding="UTF-8" standalone="no"?>
<svg
   xmlns:dc="http://purl.org/dc/elements/1.1/"
   xmlns:cc="http://creativecommons.org/ns#"
   xmlns:rdf="http://www.w3.org/1999/02/22-rdf-syntax-ns#"
   xmlns:svg="http://www.w3.org/2000/svg"
   xmlns="http://www.w3.org/2000/svg"
   xmlns:xlink="http://www.w3.org/1999/xlink"
   xmlns:sodipodi="http://sodipodi.sourceforge.net/DTD/sodipodi-0.dtd"
   xmlns:inkscape="http://www.inkscape.org/namespaces/inkscape"
   width="48"
   height="48"
   version="1"
   id="svg12"
   sodipodi:docname="keurocalc.svg"
   inkscape:version="0.92.3 (2405546, 2018-03-11)">
  <metadata
     id="metadata18">
    <rdf:RDF>
      <cc:Work
         rdf:about="">
        <dc:format>image/svg+xml</dc:format>
        <dc:type
           rdf:resource="http://purl.org/dc/dcmitype/StillImage" />
        <dc:title />
      </cc:Work>
    </rdf:RDF>
  </metadata>
  <defs
     id="defs16">
    <linearGradient
       inkscape:collect="always"
       id="linearGradient827">
      <stop
         style="stop-color:#283f61;stop-opacity:1"
         offset="0"
         id="stop823" />
      <stop
         style="stop-color:#456ea9;stop-opacity:1"
         offset="1"
         id="stop825" />
    </linearGradient>
    <linearGradient
       inkscape:collect="always"
       id="linearGradient856">
      <stop
         style="stop-color:#000000;stop-opacity:1;"
         offset="0"
         id="stop852" />
      <stop
         style="stop-color:#000000;stop-opacity:0;"
         offset="1"
         id="stop854" />
    </linearGradient>
    <linearGradient
       inkscape:collect="always"
       id="linearGradient838">
      <stop
         style="stop-color:#4e6edc;stop-opacity:1"
         offset="0"
         id="stop834" />
      <stop
         style="stop-color:#7cbfff;stop-opacity:1"
         offset="1"
         id="stop836" />
    </linearGradient>
    <linearGradient
       inkscape:collect="always"
       xlink:href="#linearGradient838"
       id="linearGradient840"
       x1="29.284397"
       y1="35.378452"
       x2="24"
       y2="11"
       gradientUnits="userSpaceOnUse" />
    <linearGradient
       inkscape:collect="always"
       xlink:href="#linearGradient856"
       id="linearGradient858"
       x1="16.070312"
       y1="14.933594"
       x2="35.644493"
       y2="34.507774"
       gradientUnits="userSpaceOnUse" />
    <linearGradient
       inkscape:collect="always"
       xlink:href="#linearGradient827"
       id="linearGradient829"
       x1="24.964844"
       y1="43.964844"
       x2="25.526751"
       y2="4.4558368"
       gradientUnits="userSpaceOnUse" />
  </defs>
  <sodipodi:namedview
     pagecolor="#ffffff"
     bordercolor="#666666"
     borderopacity="1"
     objecttolerance="10"
     gridtolerance="10"
     guidetolerance="10"
     inkscape:pageopacity="0"
     inkscape:pageshadow="2"
     inkscape:window-width="1920"
     inkscape:window-height="1020"
     id="namedview14"
     showgrid="false"
     inkscape:zoom="7.470261"
     inkscape:cx="-4.9146524"
     inkscape:cy="13.29087"
     inkscape:window-x="0"
     inkscape:window-y="30"
     inkscape:window-maximized="1"
     inkscape:current-layer="svg12" />
  <circle
     fill="#578cff"
     cx="24"
     cy="24"
     r="20"
     id="circle2"
     style="fill:url(#linearGradient829);fill-opacity:1" />
  <path
     d="M 43.979,23.418 A 20,20 0 0 1 24,43 20,20 0 0 1 4.022,23.582 20,20 0 0 0 4,24 20,20 0 0 0 24,44 20,20 0 0 0 44,24 20,20 0 0 0 43.979,23.418 Z"
     id="path6"
     inkscape:connector-curvature="0"
     style="opacity:0.2" />
  <path
     style="opacity:0.2;fill:url(#linearGradient858);fill-opacity:1;stroke:none;stroke-width:2;stroke-linecap:round;stroke-linejoin:round;stroke-miterlimit:4;stroke-dasharray:none;stroke-dashoffset:0;stroke-opacity:1;paint-order:normal"
     d="M 21.957031 12.255859 L 16.070312 14.933594 L 11.810547 21.888672 L 9.8398438 21.160156 L 8 23 L 11 26 L 9 28 L 24.964844 43.964844 A 20 20 0 0 0 43.916016 25.6875 L 34.228516 16 L 30.634766 14.642578 L 21.957031 12.255859 z "
     id="rect842" />
  <path
     d="M 24,11 A 13,13 0 0 0 11.648,20 H 9 l -1,3 h 3.043 A 13,13 0 0 0 11,24 13,13 0 0 0 11.049,25 H 10 l -1,3 h 2.639 A 13,13 0 0 0 24,37 13,13 0 0 0 34.24,32 H 29.984 A 10,10 0 0 1 24,34 10,10 0 0 1 14.848,28 H 28 l 1,-3 H 14.061 A 10,10 0 0 1 14,24 10,10 0 0 1 14.051,23 H 29 l 1,-3 H 14.84 a 10,10 0 0 1 9.16,-6 10,10 0 0 1 5.98,2 h 4.249 A 13,13 0 0 0 24,11 Z"
     id="path10"
     inkscape:connector-curvature="0"
     style="fill:url(#linearGradient840);fill-opacity:1" />
</svg>
