<?xml version="1.0" encoding="UTF-8" standalone="no"?>
<svg
   xmlns:dc="http://purl.org/dc/elements/1.1/"
   xmlns:cc="http://creativecommons.org/ns#"
   xmlns:rdf="http://www.w3.org/1999/02/22-rdf-syntax-ns#"
   xmlns:svg="http://www.w3.org/2000/svg"
   xmlns="http://www.w3.org/2000/svg"
   xmlns:xlink="http://www.w3.org/1999/xlink"
   xmlns:sodipodi="http://sodipodi.sourceforge.net/DTD/sodipodi-0.dtd"
   xmlns:inkscape="http://www.inkscape.org/namespaces/inkscape"
   width="48"
   height="48"
   id="svg2"
   version="1.1"
   sodipodi:docname="multimedia-video-player.svg"
   inkscape:version="0.92.1 r15371">
  <metadata
     id="metadata123">
    <rdf:RDF>
      <cc:Work
         rdf:about="">
        <dc:format>image/svg+xml</dc:format>
        <dc:type
           rdf:resource="http://purl.org/dc/dcmitype/StillImage" />
        <dc:title></dc:title>
      </cc:Work>
    </rdf:RDF>
  </metadata>
  <sodipodi:namedview
     pagecolor="#ffffff"
     bordercolor="#666666"
     borderopacity="1"
     objecttolerance="10"
     gridtolerance="10"
     guidetolerance="10"
     inkscape:pageopacity="0"
     inkscape:pageshadow="2"
     inkscape:window-width="1600"
     inkscape:window-height="808"
     id="namedview121"
     showgrid="false"
     inkscape:zoom="7.470261"
     inkscape:cx="22.81755"
     inkscape:cy="24"
     inkscape:window-x="0"
     inkscape:window-y="0"
     inkscape:window-maximized="1"
     inkscape:current-layer="svg2" />
  <defs
     id="defs4">
    <linearGradient
       gradientTransform="translate(383.57001,-499.79999)"
       id="linearGradient4847"
       y1="541.8"
       x1="-430.57"
       y2="503.8"
       x2="-385.57"
       gradientUnits="userSpaceOnUse">
      <stop
         stop-color="#197cf1"
         id="stop4849"
         style="stop-color:#0b5dbd;stop-opacity:1" />
      <stop
         offset="1"
         stop-color="#21c9fb"
         id="stop4851"
         style="stop-color:#0dc4fb;stop-opacity:1" />
    </linearGradient>
    <linearGradient
       id="linearGradient4402">
      <stop
         id="stop4404"
         offset="0"
         style="stop-color:#ffffff;stop-opacity:1;" />
      <stop
         id="stop4406"
         offset="1"
         style="stop-color:#ffffff;stop-opacity:0;" />
    </linearGradient>
    <style
       type="text/css"
       id="current-color-scheme">
   .ColorScheme-Text { color:#f2f2f2 }
  </style>
    <style
       type="text/css"
       id="current-color-scheme-3">
   .ColorScheme-Text { color:#f2f2f2 }
  </style>
    <style
       type="text/css"
       id="current-color-scheme-6">
   .ColorScheme-Text { color:#f2f2f2 }
  </style>
    <linearGradient
       gradientUnits="userSpaceOnUse"
       y2="33.5"
       x2="32.125"
       y1="-15.125"
       x1="11.875"
       id="linearGradient4408"
       xlink:href="#linearGradient4402" />
    <linearGradient
       xlink:href="#linearGradient4847"
       id="linearGradient4845"
       gradientUnits="userSpaceOnUse"
       gradientTransform="translate(383.57001,-499.79999)"
       x1="-331.57"
       y1="549.742"
       x2="-383.57"
       y2="499.8" />
  </defs>
  <rect
     ry="1"
     width="40"
     x="4"
     y="4"
     rx="1"
     height="40"
     id="rect23"
     style="color:#000000;clip-rule:nonzero;display:inline;overflow:visible;visibility:visible;opacity:1;isolation:auto;mix-blend-mode:normal;color-interpolation:sRGB;color-interpolation-filters:linearRGB;solid-color:#000000;solid-opacity:1;fill:url(#linearGradient4845);fill-opacity:1;fill-rule:nonzero;stroke-width:0.5;stroke-linecap:butt;stroke-linejoin:round;stroke-miterlimit:4;stroke-dasharray:none;stroke-dashoffset:0;stroke-opacity:1;color-rendering:auto;image-rendering:auto;shape-rendering:auto;text-rendering:auto;enable-background:accumulate;filter-blend-mode:normal;filter-gaussianBlur-deviation:0" />
  <path
     style="fill:#000000;stroke-width:0.5;stroke-linejoin:round;fill-opacity:1;opacity:0.656"
     d="M 5,4 C 4.4459958,4 4,4.4459933 4,5 l 0,7 0,6 0,16 0,9 c 0,0.554007 0.4459958,1 1,1 l 1,0 2,0 2,0 0,-8 28,0 0,8 2,0 2,0 1,0 c 0.554004,0 1,-0.445993 1,-1 L 44,5 C 44,4.4459933 43.554004,4 43,4 l -1,0 0,2 -2,0 0,-2 -2,0 0,6 0,2 -28,0 0,-2 L 10,4 8,4 8,6 6,6 6,4 Z m 1,4 2,0 0,2 -2,0 z m 34,0 2,0 0,2 -2,0 z m -34,4 2,0 0,2 -2,0 z m 34,0 2,0 0,2 -2,0 z m -34,4 2,0 0,2 -2,0 z m 4,-2 28,0 0,2 0,18 -28,0 0,-2 0,-16 z m 30,2 2,0 0,2 -2,0 z m -34,4 2,0 0,2 -2,0 z m 34,0 2,0 0,2 -2,0 z m -34,4 2,0 0,2 -2,0 z m 34,0 2,0 0,2 -2,0 z m -34,4 2,0 0,2 -2,0 z m 34,0 2,0 0,2 -2,0 z m -34,4 2,0 0,2 -2,0 z m 34,0 2,0 0,2 -2,0 z m -34,4 2,0 0,2 -2,0 z m 34,0 2,0 0,2 -2,0 z m -34,4 2,0 0,2 -2,0 z m 34,0 2,0 0,2 -2,0 z"
     id="path4229" />
  <path
     id="rect4185"
     d="m 3.99999,42.00001 0,1 c 0,0.55401 0.446,1 1,1 l 38,0 c 0.554,0 1,-0.44599 1,-1 l 0,-1 c 0,0.55401 -0.446,1 -1,1 l -38,0 c -0.554,0 -1,-0.44599 -1,-1 z"
     style="opacity:0.3;fill:#000000;fill-opacity:1" />
  <rect
     ry="1"
     width="40"
     x="4"
     y="4"
     rx="1"
     height="40"
     id="rect4400"
     style="opacity:0.43600003;fill:url(#linearGradient4408);fill-opacity:1" />
</svg>
