<?xml version="1.0" encoding="UTF-8" standalone="no"?>
<!-- Created with Inkscape (http://www.inkscape.org/) -->

<svg
   xmlns:dc="http://purl.org/dc/elements/1.1/"
   xmlns:cc="http://creativecommons.org/ns#"
   xmlns:rdf="http://www.w3.org/1999/02/22-rdf-syntax-ns#"
   xmlns:svg="http://www.w3.org/2000/svg"
   xmlns="http://www.w3.org/2000/svg"
   xmlns:xlink="http://www.w3.org/1999/xlink"
   xmlns:sodipodi="http://sodipodi.sourceforge.net/DTD/sodipodi-0.dtd"
   xmlns:inkscape="http://www.inkscape.org/namespaces/inkscape"
   version="1.1"
   id="svg18513"
   width="48"
   height="48"
   viewBox="0 0 48.000002 48.000002"
   sodipodi:docname="palapeli.svg"
   inkscape:version="0.92.3 (2405546, 2018-03-11)">
  <metadata
     id="metadata18519">
    <rdf:RDF>
      <cc:Work
         rdf:about="">
        <dc:format>image/svg+xml</dc:format>
        <dc:type
           rdf:resource="http://purl.org/dc/dcmitype/StillImage" />
        <dc:title></dc:title>
      </cc:Work>
    </rdf:RDF>
  </metadata>
  <defs
     id="defs18517">
    <linearGradient
       inkscape:collect="always"
       id="linearGradient978">
      <stop
         style="stop-color:#ffffff;stop-opacity:1;"
         offset="0"
         id="stop974" />
      <stop
         style="stop-color:#ffffff;stop-opacity:0;"
         offset="1"
         id="stop976" />
    </linearGradient>
    <linearGradient
       inkscape:collect="always"
       id="linearGradient858">
      <stop
         style="stop-color:#286a4c;stop-opacity:1"
         offset="0"
         id="stop854" />
      <stop
         style="stop-color:#5aad15;stop-opacity:1"
         offset="1"
         id="stop856" />
    </linearGradient>
    <linearGradient
       inkscape:collect="always"
       xlink:href="#linearGradient858"
       id="linearGradient860"
       x1="5"
       y1="24"
       x2="19"
       y2="10"
       gradientUnits="userSpaceOnUse" />
    <linearGradient
       inkscape:collect="always"
       xlink:href="#linearGradient858"
       id="linearGradient868"
       x1="22.357641"
       y1="28"
       x2="45"
       y2="13"
       gradientUnits="userSpaceOnUse" />
    <linearGradient
       inkscape:collect="always"
       xlink:href="#linearGradient858"
       id="linearGradient876"
       x1="35.098053"
       y1="43.040554"
       x2="28.585033"
       y2="23.992937"
       gradientUnits="userSpaceOnUse" />
    <linearGradient
       inkscape:collect="always"
       xlink:href="#linearGradient978"
       id="linearGradient980"
       x1="39.845299"
       y1="5"
       x2="24.256842"
       y2="32"
       gradientUnits="userSpaceOnUse" />
  </defs>
  <sodipodi:namedview
     pagecolor="#ffffff"
     bordercolor="#666666"
     borderopacity="1"
     objecttolerance="10"
     gridtolerance="10"
     guidetolerance="10"
     inkscape:pageopacity="0"
     inkscape:pageshadow="2"
     inkscape:window-width="1920"
     inkscape:window-height="1020"
     id="namedview18515"
     showgrid="true"
     inkscape:zoom="9.0597503"
     inkscape:cx="23.610843"
     inkscape:cy="18.114286"
     inkscape:window-x="0"
     inkscape:window-y="30"
     inkscape:window-maximized="1"
     inkscape:current-layer="svg18513">
    <inkscape:grid
       type="xygrid"
       id="grid844" />
  </sodipodi:namedview>
  <path
     style="opacity:1;fill:url(#linearGradient860);fill-opacity:1;stroke:none;stroke-width:0.01217468"
     inkscape:connector-curvature="0"
     id="path4"
     d="m 2.0000001,14.551345 v 9.551345 l 1.897963,0.08582 C 7.113621,24.347903 9.0733312,24.1272 9.7865779,23.440587 10.306403,22.925624 10.270136,22.337094 9.629422,21.258124 8.8436407,19.90941 8.8678189,18.740399 9.701956,17.820821 c 1.184716,-1.336454 3.347333,-0.9441 4.048492,0.674357 0.350579,0.809228 0.253868,1.696236 -0.362668,2.762946 -1.402317,2.390901 0.04836,3.187868 5.319133,2.930386 l 2.39795,-0.08582 -0.07253,-2.6116 c -0.08462,-2.770993 0.01209,-3.739615 0.45938,-4.622409 0.44729,-0.895056 0.551749,-0.931839 1.954066,-0.159394 0.773692,0.416875 1.13636,0.551747 1.547384,0.551747 0.785781,0 1.523206,-0.441398 1.970497,-1.164799 0.326402,-0.527225 0.362669,-0.698879 0.362669,-1.532628 0,-0.833751 -0.03627,-1.005406 -0.362669,-1.544891 -0.79787,-1.29967 -2.067208,-1.495846 -3.626681,-0.564008 -1.233072,0.747923 -1.422153,0.674357 -1.893621,-0.282004 -0.386847,-0.796966 -0.483559,-1.839154 -0.411025,-4.5488431 l 0.07253,-2.6238614 h -9.80847 -9.2963929 z"
     sodipodi:nodetypes="ccccccsccccccscscccccccc" />
  <path
     style="opacity:1;fill:url(#linearGradient868);fill-opacity:1;stroke:none;stroke-width:0.01217468"
     inkscape:connector-curvature="0"
     id="path8"
     d="m 21.104863,5.2114983 c -0.03627,0.1103494 -0.07253,1.4468021 -0.08462,2.9671704 -0.01209,3.1388243 0.1088,3.8499653 0.761603,4.4875383 0.314312,0.306526 -0.06479,0.343309 0.382503,0.294265 0.302224,-0.03679 0.870403,-0.282004 1.36605,-0.576268 0.785781,-0.478181 0.894582,-0.514964 1.59574,-0.478181 0.616536,0.03679 0.834137,0.11035 1.196805,0.416875 0.604447,0.490442 0.930848,1.164798 0.991293,2.035332 0.09671,1.275147 -0.495646,2.354119 -1.486939,2.746471 -0.773692,0.294265 -1.426495,0.183916 -2.429877,-0.429135 -2.357343,-1.41002 -2.643135,0.04905 -2.389267,5.407115 l 0.08462,2.112841 2.425535,-0.01226 c 3.324457,-0.02452 4.025616,0.08582 4.593796,0.784706 0.447291,0.527225 0.09865,1.056399 -0.529975,2.221198 -0.447291,0.83375 -0.544002,1.128016 -0.544002,1.65524 0,3.040736 5.60487,3.187869 5.895005,0.147132 0.04836,-0.551746 0,-0.71114 -0.519825,-1.6675 -0.870403,-1.630719 -1.061368,-2.35607 0.207971,-2.883294 0.676981,-0.269742 0.822048,-0.282004 3.687127,-0.269742 l 3.289175,0.03677 0.257264,-0.833739 c 0.241778,-2.954908 0.169245,-5.427187 -0.22969,-6.395809 -0.495646,-1.18932 -2.123949,-1.29967 -3.671332,-0.453659 -1.353962,0.747923 -2.176009,0.747923 -2.985969,-0.03679 -1.027559,-0.980883 -1.184715,-2.287233 -0.374756,-3.525599 0.749514,-1.140276 2.13113,-1.287408 3.581803,-0.392353 1.051738,0.637574 2.507389,0.686619 3.027215,0.171655 0.664892,-0.686618 0.918759,-2.699139 0.725337,-5.6172653 -0.06044,-1.054449 -0.12089,-1.9617655 -0.12089,-2.0108097 0,-0.061305 -4.694966,-0.098088 -9.808587,-0.098088 -8.413902,0 -8.820584,0.024522 -8.893116,0.1961765 z"
     sodipodi:nodetypes="cccccccccccccccscccccccccccccsscc" />
  <path
     style="opacity:1;fill:url(#linearGradient876);fill-opacity:1;stroke:none;stroke-width:0.01217468"
     inkscape:connector-curvature="0"
     id="path46"
     d="m 22.343446,24.036129 c -0.398935,0.02452 -0.894582,0.0613 -1.088005,0.09809 l -0.362668,0.0613 0.09671,1.185376 c 0.132979,1.826894 0.03627,4.401711 -0.205511,5.186417 -0.435202,1.422281 -1.508884,1.942738 -2.959555,1.072204 -1.632006,-0.993143 -2.96179,-0.698879 -3.65086,0.796968 -0.846226,1.839155 0.193423,3.584651 1.922142,3.621434 0.676981,0.01226 0.882492,-0.0613 1.861696,-0.649836 1.220982,-0.711141 2.137507,-0.512625 2.633153,0.480519 0.398935,0.796968 0.519825,2.059854 0.435202,4.524322 -0.04836,1.238365 -0.09671,2.405249 -0.108801,2.491077 -0.01209,0.09809 2.141978,0.04696 9.020583,0.07148 L 39.282528,43 39.209998,41.504156 c -0.03627,-0.833752 -0.09671,-1.704285 -0.120888,-1.937244 -0.07253,-0.613052 0.120888,-2.660644 0.314312,-3.285957 0.217601,-0.760185 1.100827,-1.350308 1.620651,-1.350308 0.398936,0 0.277066,0.12261 1.425515,0.784706 1.051737,0.625313 2.417786,0.343309 3.034322,-0.637574 0.809959,-1.250625 0.652802,-2.4695 -0.374757,-3.450384 -0.809959,-0.784706 -1.644094,-0.784706 -3.010145,-0.03679 -1.208893,0.674357 -1.716382,0.423503 -2.224118,-0.09146 -0.640714,-0.662096 -0.882492,-2.501252 -0.701158,-5.529726 0.04836,-1.04219 0.472199,-1.724863 0.423849,-1.761646 -0.09671,-0.09809 -2.406678,-0.23296 -3.954063,-0.24522 -2.345253,-0.02452 -3.735482,0.17997 -4.061883,0.976938 -0.217601,0.514964 0.166787,1.170692 0.771233,2.21288 0.592359,1.029927 0.68907,1.679762 0.35058,2.439946 -0.737425,1.692023 -3.703619,2.035331 -5.021313,0.625312 -0.423112,-0.441396 -0.580269,-0.895056 -0.580269,-1.606195 0,-0.453658 0.108801,-0.760183 0.495647,-1.434541 0.822048,-1.422279 0.961887,-2.208936 -0.04149,-2.723899 -0.858314,-0.453658 -2.226599,-0.576269 -5.212566,-0.416875 z"
     sodipodi:nodetypes="cccccccccccccccccsccccccccccccscccc" />
  <path
     style="opacity:0.4;fill:url(#linearGradient980);fill-opacity:1;stroke:none;stroke-width:4;stroke-linecap:round;stroke-linejoin:round;stroke-miterlimit:4;stroke-dasharray:none;stroke-dashoffset:0;stroke-opacity:1;paint-order:normal"
     d="M 35.318359 5.0351562 C 33.377308 6.7164408 31.467449 8.3809507 29.378906 9.6171875 C 23.787143 12.92703 18.234339 15.09967 13.230469 17.755859 C 13.43825 17.965361 13.623293 18.203621 13.75 18.496094 C 14.100579 19.305322 14.005208 20.191102 13.388672 21.257812 C 12.296882 23.119275 12.963974 24.005404 15.787109 24.189453 C 15.980627 23.950819 16.166713 23.70962 16.365234 23.472656 C 19.840892 19.323963 24.986475 16.383374 30.132812 12.658203 C 33.230586 10.415882 36.048144 7.552716 39.449219 5.1054688 C 39.148471 5.0734022 37.594676 5.0498011 35.318359 5.0351562 z M 39.935547 7.3613281 C 33.368711 12.049906 26.798055 15.292217 21.769531 20.324219 C 20.518261 21.576354 19.332411 22.873591 18.197266 24.203125 C 18.374432 24.196677 18.520319 24.198574 18.707031 24.189453 L 21.089844 24.103516 L 21.091797 24.162109 L 20.892578 24.195312 L 20.990234 25.380859 C 21.123213 27.207753 21.024984 29.7817 20.783203 30.566406 C 20.348001 31.988687 19.27489 32.509206 17.824219 31.638672 C 16.192213 30.645529 14.862898 30.9397 14.173828 32.435547 C 13.327602 34.274702 14.366984 36.021811 16.095703 36.058594 C 16.772684 36.070854 16.977827 35.996734 17.957031 35.408203 C 19.178013 34.697062 20.094198 34.895528 20.589844 35.888672 C 20.988779 36.68564 21.110014 37.947641 21.025391 40.412109 C 20.977031 41.650474 20.928111 42.818469 20.916016 42.904297 C 20.915044 42.912179 21.028302 42.913864 21.056641 42.919922 C 24.13507 35.581844 26.715565 28.062358 31.275391 20.933594 C 32.145089 19.573921 33.189121 18.307389 34.330078 17.076172 C 33.824076 17.090907 33.393535 16.899825 32.96875 16.488281 C 31.941191 15.507398 31.783791 14.201257 32.59375 12.962891 C 33.343264 11.822615 34.725108 11.67526 36.175781 12.570312 C 36.903035 13.011182 37.816308 13.164542 38.486328 13.050781 C 38.859375 12.71307 39.221049 12.375684 39.601562 12.035156 C 39.946742 11.088408 40.058373 9.4668036 39.935547 7.3613281 z M 37.664062 15.982422 C 37.517933 15.99378 37.365474 16.02275 37.212891 16.054688 C 34.916432 18.68106 32.751712 21.277529 30.880859 24.376953 C 27.418924 30.112309 24.620982 36.470529 22.234375 42.960938 C 23.509268 42.969592 25.796342 42.959847 29.9375 42.974609 L 30.798828 42.976562 C 32.55282 36.630614 34.274626 30.237423 36.853516 23.958984 C 37.689505 21.923728 38.73221 20.029395 39.878906 18.15625 C 39.817968 17.667343 39.737405 17.251436 39.625 16.978516 C 39.315221 16.235191 38.562605 15.912579 37.664062 15.982422 z M 9.1582031 20.134766 C 8.4274235 20.61645 7.7110392 21.116975 7.0175781 21.652344 C 5.9598741 22.468916 4.9424696 23.321573 3.9453125 24.191406 C 7.1301823 24.34586 9.0777059 24.12432 9.7871094 23.441406 C 10.306934 22.926443 10.26962 22.336782 9.6289062 21.257812 C 9.4012607 20.867082 9.2499216 20.493659 9.1582031 20.134766 z "
     id="rect878" />
</svg>
