<?xml version="1.0" encoding="UTF-8" standalone="no"?>
<svg
   xmlns:dc="http://purl.org/dc/elements/1.1/"
   xmlns:cc="http://creativecommons.org/ns#"
   xmlns:rdf="http://www.w3.org/1999/02/22-rdf-syntax-ns#"
   xmlns:svg="http://www.w3.org/2000/svg"
   xmlns="http://www.w3.org/2000/svg"
   xmlns:xlink="http://www.w3.org/1999/xlink"
   xmlns:sodipodi="http://sodipodi.sourceforge.net/DTD/sodipodi-0.dtd"
   xmlns:inkscape="http://www.inkscape.org/namespaces/inkscape"
   height="48"
   width="48"
   version="1"
   id="svg18"
   sodipodi:docname="radiotray.svg"
   inkscape:version="0.92.1 r15371">
  <metadata
     id="metadata24">
    <rdf:RDF>
      <cc:Work
         rdf:about="">
        <dc:format>image/svg+xml</dc:format>
        <dc:type
           rdf:resource="http://purl.org/dc/dcmitype/StillImage" />
        <dc:title />
      </cc:Work>
    </rdf:RDF>
  </metadata>
  <defs
     id="defs22">
    <linearGradient
       inkscape:collect="always"
       id="linearGradient4520">
      <stop
         style="stop-color:#000000;stop-opacity:1;"
         offset="0"
         id="stop4516" />
      <stop
         style="stop-color:#000000;stop-opacity:0;"
         offset="1"
         id="stop4518" />
    </linearGradient>
    <linearGradient
       inkscape:collect="always"
       id="linearGradient4595">
      <stop
         style="stop-color:#000000;stop-opacity:1;"
         offset="0"
         id="stop4591" />
      <stop
         style="stop-color:#000000;stop-opacity:0;"
         offset="1"
         id="stop4593" />
    </linearGradient>
    <linearGradient
       inkscape:collect="always"
       id="linearGradient4526">
      <stop
         style="stop-color:#bdbdbd;stop-opacity:1;"
         offset="0"
         id="stop4522" />
      <stop
         style="stop-color:#fbfbfb;stop-opacity:1"
         offset="1"
         id="stop4524" />
    </linearGradient>
    <linearGradient
       inkscape:collect="always"
       id="linearGradient4504">
      <stop
         style="stop-color:#39a865;stop-opacity:1"
         offset="0"
         id="stop4500" />
      <stop
         style="stop-color:#b4ed55;stop-opacity:1"
         offset="1"
         id="stop4502" />
    </linearGradient>
    <linearGradient
       inkscape:collect="always"
       id="linearGradient4496">
      <stop
         style="stop-color:#424649;stop-opacity:1"
         offset="0"
         id="stop4492" />
      <stop
         style="stop-color:#2a2c2f;stop-opacity:1"
         offset="1"
         id="stop4494" />
    </linearGradient>
    <linearGradient
       inkscape:collect="always"
       xlink:href="#linearGradient4496"
       id="linearGradient4498"
       x1="24.859287"
       y1="9.4446526"
       x2="24.859287"
       y2="38.52533"
       gradientUnits="userSpaceOnUse" />
    <linearGradient
       inkscape:collect="always"
       xlink:href="#linearGradient4504"
       id="linearGradient4506"
       x1="22.66604"
       y1="17.970919"
       x2="22.66604"
       y2="10.935272"
       gradientUnits="userSpaceOnUse" />
    <linearGradient
       inkscape:collect="always"
       xlink:href="#linearGradient4526"
       id="linearGradient4528"
       x1="13.127625"
       y1="33.964222"
       x2="13.444287"
       y2="22.117479"
       gradientUnits="userSpaceOnUse" />
    <linearGradient
       inkscape:collect="always"
       xlink:href="#linearGradient4595"
       id="linearGradient4597"
       x1="11.431489"
       y1="27.197096"
       x2="20.959408"
       y2="36.725014"
       gradientUnits="userSpaceOnUse" />
    <linearGradient
       inkscape:collect="always"
       xlink:href="#linearGradient4504"
       id="linearGradient4607"
       x1="6.6006098"
       y1="37.024391"
       x2="6.6280489"
       y2="34.128048"
       gradientUnits="userSpaceOnUse" />
    <linearGradient
       inkscape:collect="always"
       xlink:href="#linearGradient4520"
       id="linearGradient4522"
       x1="16.570108"
       y1="14"
       x2="21.727884"
       y2="19.157776"
       gradientUnits="userSpaceOnUse" />
  </defs>
  <sodipodi:namedview
     pagecolor="#ffffff"
     bordercolor="#666666"
     borderopacity="1"
     objecttolerance="10"
     gridtolerance="10"
     guidetolerance="10"
     inkscape:pageopacity="0"
     inkscape:pageshadow="2"
     inkscape:window-width="1600"
     inkscape:window-height="808"
     id="namedview20"
     showgrid="false"
     inkscape:zoom="1"
     inkscape:cx="19.926782"
     inkscape:cy="33.282806"
     inkscape:window-x="0"
     inkscape:window-y="0"
     inkscape:window-maximized="1"
     inkscape:current-layer="svg18">
    <inkscape:grid
       type="xygrid"
       id="grid4532" />
  </sodipodi:namedview>
  <rect
     style="opacity:1;vector-effect:none;fill:url(#linearGradient4498);fill-opacity:1;stroke:none;stroke-width:3.15516996;stroke-linecap:round;stroke-linejoin:round;stroke-miterlimit:4;stroke-dasharray:none;stroke-dashoffset:0;stroke-opacity:1"
     id="rect4490"
     width="42"
     height="30"
     x="3"
     y="9" />
  <rect
     style="opacity:1;fill:url(#linearGradient4506);fill-opacity:1"
     width="34"
     height="7"
     x="7"
     y="11"
     id="rect12" />
  <path
     style="opacity:0.1;vector-effect:none;fill:#000000;fill-opacity:1;stroke:none;stroke-width:6.9206934;stroke-linecap:round;stroke-linejoin:round;stroke-miterlimit:4;stroke-dasharray:none;stroke-dashoffset:0;stroke-opacity:1"
     d="M 7 12 L 7 13 L 41 13 L 41 12 L 7 12 z M 7 14 L 7 15 L 41 15 L 41 14 L 7 14 z M 7 16 L 7 17 L 41 17 L 41 16 L 7 16 z "
     id="rect4508" />
  <path
     style="opacity:0.2;vector-effect:none;fill:#000000;fill-opacity:1;stroke:none;stroke-width:2.88661814;stroke-linecap:round;stroke-linejoin:round;stroke-miterlimit:4;stroke-dasharray:none;stroke-dashoffset:0;stroke-opacity:1"
     d="M 14 11 L 14 18 L 15 18 L 15 11 L 14 11 z M 23 11 L 23 18 L 24 18 L 24 11 L 23 11 z M 33 11 L 33 18 L 34 18 L 34 11 L 33 11 z "
     id="rect4515" />
  <path
     style="opacity:1;vector-effect:none;fill:#1e2022;fill-opacity:1;stroke:none;stroke-width:2.88047218;stroke-linecap:round;stroke-linejoin:round;stroke-miterlimit:4;stroke-dasharray:none;stroke-dashoffset:0;stroke-opacity:1"
     d="m 27,21 v 2 h 2 v -2 z m 4,0 v 2 h 2 v -2 z m 4,0 v 2 h 2 v -2 z m 4,0 v 2 h 2 v -2 z m -12,4 v 2 h 2 v -2 z m 4,0 v 2 h 2 v -2 z m 4,0 v 2 h 2 v -2 z m 4,0 v 2 h 2 v -2 z m -12,4 v 2 h 2 v -2 z m 4,0 v 2 h 2 v -2 z m 4,0 v 2 h 2 v -2 z m 4,0 v 2 h 2 v -2 z m -12,4 v 2 h 2 v -2 z m 4,0 v 2 h 2 v -2 z m 4,0 v 2 h 2 v -2 z m 4,0 v 2 h 2 v -2 z"
     id="rect4530"
     inkscape:connector-curvature="0" />
  <path
     style="opacity:0.2;vector-effect:none;fill:#000000;fill-opacity:1;stroke:none;stroke-width:2.88047218;stroke-linecap:round;stroke-linejoin:round;stroke-miterlimit:4;stroke-dasharray:none;stroke-dashoffset:0;stroke-opacity:1"
     d="m 27,22 v 1 h 2 v -1 z m 4,0 v 1 h 2 v -1 z m 4,0 v 1 h 2 v -1 z m 4,0 v 1 h 2 v -1 z m -12,4 v 1 h 2 v -1 z m 4,0 v 1 h 2 v -1 z m 4,0 v 1 h 2 v -1 z m 4,0 v 1 h 2 v -1 z m -12,4 v 1 h 2 v -1 z m 4,0 v 1 h 2 v -1 z m 4,0 v 1 h 2 v -1 z m 4,0 v 1 h 2 v -1 z m -12,4 v 1 h 2 v -1 z m 4,0 v 1 h 2 v -1 z m 4,0 v 1 h 2 v -1 z m 4,0 v 1 h 2 v -1 z"
     id="path4565"
     inkscape:connector-curvature="0" />
  <path
     style="opacity:0.3;vector-effect:none;fill:url(#linearGradient4522);fill-opacity:1;stroke:none;stroke-width:2.00350738;stroke-linecap:round;stroke-linejoin:round;stroke-miterlimit:4;stroke-dasharray:none;stroke-dashoffset:0;stroke-opacity:1"
     d="M 18 13 L 16.470703 16.435547 L 16.039062 18.025391 L 19.013672 21 L 26 21 L 18 13 z M 24.013672 26 L 24.068359 26.054688 L 24.123047 26 L 24.013672 26 z "
     id="rect4510" />
  <path
     style="opacity:0.4;vector-effect:none;fill:url(#linearGradient4597);fill-opacity:1;stroke:none;stroke-width:2.43498659;stroke-linecap:round;stroke-linejoin:round;stroke-miterlimit:4;stroke-dasharray:none;stroke-dashoffset:0;stroke-opacity:1"
     d="M 17.160156 23.691406 L 14.111328 23.769531 L 8.7070312 29.972656 L 8.8828125 32.355469 L 15.527344 39 L 32.46875 39 L 17.160156 23.691406 z "
     id="rect4585" />
  <circle
     cy="28"
     cx="13"
     r="6"
     style="fill:url(#linearGradient4528);fill-opacity:1"
     id="circle6" />
  <circle
     style="opacity:1;vector-effect:none;fill:url(#linearGradient4607);fill-opacity:1;stroke:none;stroke-width:3.14908004;stroke-linecap:round;stroke-linejoin:round;stroke-miterlimit:4;stroke-dasharray:none;stroke-dashoffset:0;stroke-opacity:1"
     id="path4599"
     cx="6.5"
     cy="35.5"
     r="1.5" />
  <path
     style="opacity:0.2;vector-effect:none;fill:#000000;fill-opacity:1;stroke:none;stroke-width:3.15516996;stroke-linecap:round;stroke-linejoin:round;stroke-miterlimit:4;stroke-dasharray:none;stroke-dashoffset:0;stroke-opacity:1"
     d="M 3 38 L 3 39 L 45 39 L 45 38 L 3 38 z "
     id="rect4609" />
  <rect
     style="opacity:1;fill:#c41313;fill-opacity:1;stroke-width:0.69006556"
     width="5"
     height="2"
     x="13"
     y="-18"
     transform="rotate(90)"
     id="rect14" />
</svg>
