<?xml version="1.0" encoding="UTF-8" standalone="no"?>
<svg
   xmlns:dc="http://purl.org/dc/elements/1.1/"
   xmlns:cc="http://creativecommons.org/ns#"
   xmlns:rdf="http://www.w3.org/1999/02/22-rdf-syntax-ns#"
   xmlns:svg="http://www.w3.org/2000/svg"
   xmlns="http://www.w3.org/2000/svg"
   xmlns:xlink="http://www.w3.org/1999/xlink"
   xmlns:sodipodi="http://sodipodi.sourceforge.net/DTD/sodipodi-0.dtd"
   xmlns:inkscape="http://www.inkscape.org/namespaces/inkscape"
   height="48"
   width="48"
   version="1"
   id="svg12"
   sodipodi:docname="seafile.svg"
   inkscape:version="0.92.1 r15371">
  <metadata
     id="metadata18">
    <rdf:RDF>
      <cc:Work
         rdf:about="">
        <dc:format>image/svg+xml</dc:format>
        <dc:type
           rdf:resource="http://purl.org/dc/dcmitype/StillImage" />
        <dc:title />
      </cc:Work>
    </rdf:RDF>
  </metadata>
  <defs
     id="defs16">
    <linearGradient
       inkscape:collect="always"
       id="linearGradient4524">
      <stop
         style="stop-color:#eda551;stop-opacity:1"
         offset="0"
         id="stop4520" />
      <stop
         style="stop-color:#ffffff;stop-opacity:1"
         offset="1"
         id="stop4522" />
    </linearGradient>
    <linearGradient
       id="linearGradient4518"
       inkscape:collect="always">
      <stop
         id="stop4514"
         offset="0"
         style="stop-color:#feba6a;stop-opacity:1" />
      <stop
         id="stop4516"
         offset="1"
         style="stop-color:#ffffff;stop-opacity:1" />
    </linearGradient>
    <linearGradient
       inkscape:collect="always"
       id="linearGradient4531">
      <stop
         style="stop-color:#fe8d0a;stop-opacity:1;"
         offset="0"
         id="stop4527" />
      <stop
         style="stop-color:#febb6e;stop-opacity:1"
         offset="1"
         id="stop4529" />
    </linearGradient>
    <linearGradient
       inkscape:collect="always"
       id="linearGradient4521">
      <stop
         style="stop-color:#000000;stop-opacity:1;"
         offset="0"
         id="stop4517" />
      <stop
         style="stop-color:#000000;stop-opacity:0;"
         offset="1"
         id="stop4519" />
    </linearGradient>
    <linearGradient
       inkscape:collect="always"
       xlink:href="#linearGradient4521"
       id="linearGradient4523"
       x1="15.201742"
       y1="17.123781"
       x2="25.370905"
       y2="27.292944"
       gradientUnits="userSpaceOnUse" />
    <linearGradient
       inkscape:collect="always"
       xlink:href="#linearGradient4521"
       id="linearGradient4525"
       x1="26.207373"
       y1="24.172941"
       x2="37.249916"
       y2="35.215485"
       gradientUnits="userSpaceOnUse" />
    <linearGradient
       inkscape:collect="always"
       xlink:href="#linearGradient4531"
       id="linearGradient4533"
       x1="24.599539"
       y1="43.754036"
       x2="24.599539"
       y2="3.9385087"
       gradientUnits="userSpaceOnUse" />
    <linearGradient
       inkscape:collect="always"
       xlink:href="#linearGradient4518"
       id="linearGradient4502"
       x1="16.740725"
       y1="23.013466"
       x2="14.677266"
       y2="15.312535"
       gradientUnits="userSpaceOnUse" />
    <linearGradient
       inkscape:collect="always"
       xlink:href="#linearGradient4524"
       id="linearGradient4512"
       gradientUnits="userSpaceOnUse"
       x1="26.579365"
       y1="32.795246"
       x2="23.021963"
       y2="19.518839" />
  </defs>
  <sodipodi:namedview
     pagecolor="#ffffff"
     bordercolor="#666666"
     borderopacity="1"
     objecttolerance="10"
     gridtolerance="10"
     guidetolerance="10"
     inkscape:pageopacity="0"
     inkscape:pageshadow="2"
     inkscape:window-width="1600"
     inkscape:window-height="808"
     id="namedview14"
     showgrid="false"
     inkscape:zoom="8.6599296"
     inkscape:cx="-21.284498"
     inkscape:cy="26.142905"
     inkscape:window-x="0"
     inkscape:window-y="0"
     inkscape:window-maximized="1"
     inkscape:current-layer="svg12" />
  <path
     d="m24 4c-11.08 0-20 8.92-20 20s8.92 20 20 20 20-8.92 20-20-8.92-20-20-20z"
     fill="#fea238"
     id="path2"
     style="fill:url(#linearGradient4533);fill-opacity:1" />
  <path
     style="opacity:0.15;vector-effect:none;fill:url(#linearGradient4525);fill-opacity:1;stroke:none;stroke-width:2;stroke-linecap:round;stroke-linejoin:round;stroke-miterlimit:4;stroke-dasharray:none;stroke-dashoffset:0;stroke-opacity:1"
     d="M 26.634766 18.693359 L 13.371094 31.957031 L 25.363281 43.949219 C 33.815133 43.384601 40.791273 37.618193 43.142578 29.804688 L 32.695312 19.357422 L 30.78125 18.804688 L 29.492188 20.044922 L 28.722656 19.326172 L 26.634766 18.693359 z "
     id="rect4499" />
  <path
     d="m 14.718,32.842 c -1.5131,-0.53431 -2.3726,-1.9789 -1.987,-3.3397 0.21422,-0.75605 0.77918,-1.3758 1.6502,-1.8103 0.5818,-0.29021 0.72926,-0.41891 0.66615,-0.58141 -0.59937,-1.5434 -0.21625,-3.338 0.96098,-4.5012 1.582,-1.5632 4.1014,-1.6565 5.7647,-0.21335 0.2343,0.20328 0.47859,0.3696 0.54287,0.3696 0.0643,0 0.21293,-0.30115 0.33034,-0.66922 0.43829,-1.3739 1.2561,-2.4683 2.4103,-3.2253 3.2197,-2.1118 7.3993,-1.0062 9.074,2.4004 0.48811,0.99289 0.52526,1.1434 0.57045,2.3115 0.0355,0.91842 -0.007,1.437 -0.16004,1.9577 -0.1146,0.38954 -0.17429,0.74194 -0.13264,0.78309 0.0417,0.04116 0.26833,-0.13292 0.50373,-0.38683 0.45625,-0.49211 0.49443,-0.4965 1.5592,-0.17942 1.032,0.30731 2.0167,1.2928 2.3764,2.3784 0.24403,0.73651 0.1881,1.916 -0.12401,2.6153 -0.31391,0.70339 -1.1168,1.558 -1.8151,1.9318 -0.47626,0.25501 -0.67881,0.26943 -4.3103,0.30694 -2.4105,0.0249 -3.9733,-0.0082 -4.2535,-0.08997 -1.1471,-0.33495 -2.0246,-1.5901 -2.0246,-2.8961 0,-1.5658 1.2684,-2.9174 2.7378,-2.9174 h 0.46571 l -0.45805,0.41458 c -0.72352,0.65486 -0.90625,1.4342 -0.52328,2.2317 0.22658,0.4718 0.99251,0.93392 1.5479,0.93392 0.55916,0 1.351,-0.43512 1.6379,-0.90002 0.32755,-0.53084 0.32384,-1.5996 -0.009,-2.4776 -0.35753,-0.94425 -1.0912,-1.717 -2.0925,-2.2041 -0.73609,-0.35808 -0.95188,-0.40536 -1.8362,-0.40229 -1.7463,0.006 -1.9073,0.11821 -6.1774,4.3018 -3.2413,3.1756 -3.7708,3.6454 -4.3109,3.8241 -0.72869,0.24118 -1.9515,0.25702 -2.5845,0.03347 z"
     id="path4497"
     style="fill:url(#linearGradient4512);fill-opacity:1" />
  <path
     d="M 4.0117,23.5 C 4.0076,23.667 4,23.832 4,24 4,35.08 12.92,44 24,44 35.08,44 44,35.08 44,24 44,23.832 43.992,23.667 43.988,23.5 43.724,34.346 34.912,43 24,43 13.088,43 4.276,34.346 4.012,23.5 Z"
     id="path6"
     inkscape:connector-curvature="0"
     style="opacity:0.2" />
  <path
     style="opacity:0.2;vector-effect:none;fill:url(#linearGradient4523);fill-opacity:1;stroke:none;stroke-width:2.68942976;stroke-linecap:round;stroke-linejoin:round;stroke-miterlimit:4;stroke-dasharray:none;stroke-dashoffset:0;stroke-opacity:1"
     d="M 22.472656 15.216797 L 21.251953 15.371094 L 20.103516 16.421875 L 19.316406 15.652344 L 9.2929688 22.832031 L 29.644531 43.185547 C 34.611784 41.735598 38.754872 38.419322 41.294922 34.039062 L 22.472656 15.216797 z "
     id="rect4508" />
  <path
     d="m 9.2923,22.833 c -0.37463,-0.37019 -0.38776,-0.67288 -0.0477,-1.1 0.2003,-0.25161 0.3688,-0.32529 0.74396,-0.32529 0.46238,0 0.4889,-0.0216 0.56822,-0.46295 0.14051,-0.78182 0.68937,-1.6477 1.2789,-2.0175 0.74383,-0.46667 1.6156,-0.66031 2.2246,-0.49414 0.26263,0.07166 0.52054,0.08778 0.57312,0.03581 0.0526,-0.05196 0.15345,-0.39807 0.22415,-0.76913 0.26923,-1.4131 1.221,-2.6785 2.5123,-3.3403 0.76811,-0.39365 2.6137,-0.48419 3.4584,-0.16965 1.383,0.51505 2.3351,1.5031 2.7744,2.8792 0.13775,0.43153 0.25045,0.85754 0.25045,0.94669 0,0.08915 -0.25847,0.45829 -0.57437,0.82031 -0.3159,0.36202 -0.74546,0.95432 -0.95458,1.3162 -0.27217,0.47101 -0.43736,0.63928 -0.58129,0.59215 -0.1106,-0.03622 -0.53841,-0.18524 -0.9507,-0.33117 -1.1184,-0.39584 -2.6955,-0.30934 -3.8165,0.20934 -0.95942,0.44392 -1.6071,0.97486 -2.1483,1.7612 -0.21476,0.31199 -0.4504,0.60807 -0.52365,0.65796 -0.0733,0.04988 -1.1618,0.09155 -2.419,0.09259 -2.2615,0.0019 -2.289,-0.0014 -2.5924,-0.30114 z"
     id="path10"
     style="fill:url(#linearGradient4502);fill-opacity:1" />
</svg>
