<?xml version="1.0" encoding="UTF-8" standalone="no"?>
<svg xmlns="http://www.w3.org/2000/svg" xmlns:xlink="http://www.w3.org/1999/xlink" width="48" height="48" viewBox="0 0 48 48" version="1.1">
 <defs>
  <linearGradient id="linearGradient4412">
   <stop offset="0" style="stop-color:#18222a;stop-opacity:1"/>
   <stop offset="1" style="stop-color:#3f474d;stop-opacity:1"/>
  </linearGradient>
  <linearGradient id="linearGradient4199">
   <stop style="stop-color:#24cf5f;stop-opacity:1" offset="0"/>
   <stop style="stop-color:#35dc6e;stop-opacity:1" offset="1"/>
  </linearGradient>
  <linearGradient xlink:href="#linearGradient4199" id="linearGradient4201" x1="23" y1="1048.362" x2="23" y2="1008.362" gradientUnits="userSpaceOnUse"/>
  <linearGradient xlink:href="#linearGradient4412" id="linearGradient4406" x1="23" y1="1037.362" x2="23" y2="1019.362" gradientUnits="userSpaceOnUse"/>
  <linearGradient id="linearGradient4227">
   <stop style="stop-color:#292c2f;stop-opacity:1" offset="0"/>
   <stop style="stop-color:#000000;stop-opacity:0;" offset="1"/>
  </linearGradient>
  <linearGradient xlink:href="#linearGradient4227" id="linearGradient4554" x1="11" y1="23" x2="21.392" y2="41" gradientUnits="userSpaceOnUse"/>
  <linearGradient xlink:href="#linearGradient4227" id="linearGradient4562" x1="15" y1="19" x2="27" y2="39.785" gradientUnits="userSpaceOnUse"/>
  <linearGradient xlink:href="#linearGradient4227" id="linearGradient4570" x1="16" y1="10" x2="29.279" y2="33" gradientUnits="userSpaceOnUse"/>
 </defs>
 <g transform="translate(0,-1004.3622)">
  <ellipse style="opacity:1;fill:url(#linearGradient4201);fill-opacity:1;stroke:none;stroke-opacity:1" cx="24" cy="1028.362" rx="20" ry="20"/>
  <path style="fill:url(#linearGradient4570);fill-rule:evenodd;stroke:none;stroke-width:1px;stroke-linecap:butt;stroke-linejoin:miter;stroke-opacity:1;fill-opacity:1;opacity:0.2" d="M 22 17 L 12.099609 18 L 26.972656 43.759766 A 20 19.99999 0 0 0 43.119141 29.865234 L 38 21 L 37.501953 21.337891 L 37 20 L 22 17 z" transform="translate(0,1004.3622)"/>
  <path style="fill:url(#linearGradient4562);fill-rule:evenodd;stroke:none;stroke-width:1px;stroke-linecap:butt;stroke-linejoin:miter;stroke-opacity:1;fill-opacity:1;opacity:0.2" d="M 16 22 L 13 24 L 24.535156 43.980469 A 20 19.99999 0 0 0 40.097656 35.830078 L 35 27 L 34.359375 27 L 34.332031 26.996094 L 34 26 L 24 22 L 16 22 z" transform="translate(0,1004.3622)"/>
  <path style="fill:url(#linearGradient4554);fill-rule:evenodd;stroke:none;stroke-width:1px;stroke-linecap:butt;stroke-linejoin:miter;stroke-opacity:1;fill-opacity:1;opacity:0.2" d="M 13.400391 29 L 22.027344 43.902344 A 20 19.99999 0 0 0 24 44 A 20 19.99999 0 0 0 36.308594 39.753906 L 32 32 L 24 29 L 13.400391 29 z" transform="translate(0,1004.3622)"/>
  <path style="fill:url(#linearGradient4406);fill-opacity:1;fill-rule:evenodd;stroke-width:2.56946993" d="m 18.885549,1019.3783 c -2.037364,0.06 -3.902477,0.404 -5.550781,0.8008 -0.922776,0.2209 -1.511099,1.0861 -1.28711,2.0039 0.220374,0.919 1.165521,1.504 2.091797,1.2832 5.738316,-1.3826 15.532576,-0.5533 21.240234,3.2851 0.784191,0.5278 1.801459,0.3044 2.332032,-0.4804 0.530695,-0.7863 0.305037,-1.872 -0.482422,-2.4043 -4.924662,-3.3119 -12.231715,-4.6679 -18.34375,-4.4883 z m 0.402344,6.4121 c -1.809392,0.033 -3.614012,0.2331 -5.308594,0.6406 -0.767747,0.1829 -1.232236,0.917 -1.046875,1.6836 0.187128,0.7662 0.919766,1.2282 1.689453,1.041 5.930382,-1.4244 13.512134,-0.023 18.263672,3.2852 0.646646,0.4467 1.473956,0.1647 1.929687,-0.4805 0.448657,-0.6462 0.327811,-1.4713 -0.320312,-1.9238 -4.093129,-2.8431 -9.778826,-4.3465 -15.207031,-4.2461 z m 0.162109,5.9297 c -1.625949,0.019 -3.381429,0.1835 -5.150391,0.4805 -0.624341,0.1034 -1.069016,0.6631 -0.964843,1.2832 0.10254,0.6217 0.664622,1.0636 1.287109,0.9609 6.467314,-1.0833 11.936398,-0.1458 16.089844,2.7246 0.516539,0.3588 1.167078,0.1973 1.529297,-0.3203 0.357188,-0.5205 0.281751,-1.1659 -0.240235,-1.5215 -3.497505,-2.4182 -7.673017,-3.6684 -12.550781,-3.6074 z"/>
  <path style="opacity:1;fill:#21b354;fill-opacity:1;stroke:none;stroke-opacity:1" d="M 43.978516 23.417969 A 20 19.99999 0 0 1 24 43 A 20 19.99999 0 0 1 4.0214844 23.582031 A 20 19.99999 0 0 0 4 24 A 20 19.99999 0 0 0 24 44 A 20 19.99999 0 0 0 44 24 A 20 19.99999 0 0 0 43.978516 23.417969 z" transform="translate(0,1004.3622)"/>
 </g>
</svg>
