<?xml version="1.0" encoding="UTF-8" standalone="no"?>
<svg
   xmlns:dc="http://purl.org/dc/elements/1.1/"
   xmlns:cc="http://creativecommons.org/ns#"
   xmlns:rdf="http://www.w3.org/1999/02/22-rdf-syntax-ns#"
   xmlns:svg="http://www.w3.org/2000/svg"
   xmlns="http://www.w3.org/2000/svg"
   xmlns:xlink="http://www.w3.org/1999/xlink"
   xmlns:sodipodi="http://sodipodi.sourceforge.net/DTD/sodipodi-0.dtd"
   xmlns:inkscape="http://www.inkscape.org/namespaces/inkscape"
   width="48"
   height="48"
   version="1"
   id="svg12"
   sodipodi:docname="system-suspend-hibernate.svg"
   inkscape:version="0.92.3 (2405546, 2018-03-11)">
  <metadata
     id="metadata18">
    <rdf:RDF>
      <cc:Work
         rdf:about="">
        <dc:format>image/svg+xml</dc:format>
        <dc:type
           rdf:resource="http://purl.org/dc/dcmitype/StillImage" />
      </cc:Work>
    </rdf:RDF>
  </metadata>
  <defs
     id="defs16">
    <linearGradient
       inkscape:collect="always"
       id="linearGradient892">
      <stop
         style="stop-color:#000000;stop-opacity:1;"
         offset="0"
         id="stop888" />
      <stop
         style="stop-color:#000000;stop-opacity:0;"
         offset="1"
         id="stop890" />
    </linearGradient>
    <linearGradient
       inkscape:collect="always"
       id="linearGradient869">
      <stop
         style="stop-color:#7936b5;stop-opacity:1"
         offset="0"
         id="stop865" />
      <stop
         style="stop-color:#a874d6;stop-opacity:1"
         offset="1"
         id="stop867" />
    </linearGradient>
    <linearGradient
       gradientTransform="matrix(1.5000001,0,0,1.5000001,-18.500002,-5.0000027)"
       inkscape:collect="always"
       xlink:href="#linearGradient921"
       id="linearGradient923"
       x1="26.333332"
       y1="10.666668"
       x2="32.333332"
       y2="28.666666"
       gradientUnits="userSpaceOnUse" />
    <linearGradient
       inkscape:collect="always"
       id="linearGradient921">
      <stop
         style="stop-color:#ffffff;stop-opacity:1;"
         offset="0"
         id="stop917" />
      <stop
         style="stop-color:#ffffff;stop-opacity:0;"
         offset="1"
         id="stop919" />
    </linearGradient>
    <linearGradient
       inkscape:collect="always"
       xlink:href="#linearGradient869"
       id="linearGradient871"
       x1="30"
       y1="43"
       x2="23"
       y2="7"
       gradientUnits="userSpaceOnUse" />
    <linearGradient
       inkscape:collect="always"
       xlink:href="#linearGradient892"
       id="linearGradient894"
       x1="25"
       y1="13"
       x2="41.153877"
       y2="29.153879"
       gradientUnits="userSpaceOnUse" />
    <linearGradient
       inkscape:collect="always"
       xlink:href="#linearGradient892"
       id="linearGradient896"
       x1="10"
       y1="22"
       x2="28.372007"
       y2="40.372009"
       gradientUnits="userSpaceOnUse" />
  </defs>
  <sodipodi:namedview
     pagecolor="#ffffff"
     bordercolor="#666666"
     borderopacity="1"
     objecttolerance="10"
     gridtolerance="10"
     guidetolerance="10"
     inkscape:pageopacity="0"
     inkscape:pageshadow="2"
     inkscape:window-width="1920"
     inkscape:window-height="1020"
     id="namedview14"
     showgrid="true"
     inkscape:zoom="12.14"
     inkscape:cx="8.8434926"
     inkscape:cy="17.567662"
     inkscape:window-x="0"
     inkscape:window-y="30"
     inkscape:window-maximized="1"
     inkscape:current-layer="svg12">
    <inkscape:grid
       type="xygrid"
       id="grid858" />
  </sodipodi:namedview>
  <circle
     fill="#9f65d3"
     cx="24"
     cy="24"
     r="20"
     id="circle2"
     style="fill:url(#linearGradient871);fill-opacity:1" />
  <path
     style="opacity:0.3;fill:url(#linearGradient894);fill-opacity:1;stroke:none;stroke-width:4;stroke-linecap:round;stroke-linejoin:round;stroke-miterlimit:4;stroke-dasharray:none;stroke-dashoffset:0;stroke-opacity:1;paint-order:normal"
     d="M 37 13 L 37 15.121094 L 36.121094 16 L 30.121094 22 L 37 22 L 37 25 L 25 25 L 38.132812 38.132812 A 20 20 0 0 0 44 24 A 20 20 0 0 0 43.451172 19.451172 L 37 13 z M 25 16 L 28.439453 19.439453 L 31.878906 16 L 25 16 z "
     id="rect873" />
  <path
     style="opacity:0.3;fill:url(#linearGradient896);fill-opacity:1;stroke:none;stroke-width:4;stroke-linecap:round;stroke-linejoin:round;stroke-miterlimit:4;stroke-dasharray:none;stroke-dashoffset:0;stroke-opacity:1;paint-order:normal"
     d="M 22 22 L 22 24.121094 L 21.121094 25 L 15.121094 31 L 22 31 L 22 34 L 10 34 L 19.455078 43.455078 A 20 20 0 0 0 24 44 A 20 20 0 0 0 38.132812 38.132812 L 25 25 L 22 22 z M 10 25 L 13.439453 28.439453 L 16.878906 25 L 10 25 z "
     id="path880" />
  <path
     d="M 43.979,23.418 A 20,20 0 0 1 24,43 20,20 0 0 1 4.022,23.582 20,20 0 0 0 4,24 20,20 0 0 0 24,44 20,20 0 0 0 44,24 20,20 0 0 0 43.979,23.418 Z"
     id="path10"
     inkscape:connector-curvature="0"
     style="opacity:0.2" />
  <path
     style="opacity:1;fill:url(#linearGradient923);fill-opacity:1;stroke-width:3"
     d="M 25 13 L 25 16 L 31.878906 16 L 25.878906 22 L 25 22.878906 L 25 25 L 37 25 L 37 22 L 30.121094 22 L 36.121094 16 L 37 15.121094 L 37 13 L 34.878906 13 L 25 13 z M 10 22 L 10 25 L 16.878906 25 L 10.878906 31 L 10 31.878906 L 10 34 L 22 34 L 22 31 L 15.121094 31 L 21.121094 25 L 22 24.121094 L 22 22 L 19.878906 22 L 10 22 z "
     id="path904" />
</svg>
