<?xml version="1.0" encoding="UTF-8" standalone="no"?>
<svg xmlns="http://www.w3.org/2000/svg" xmlns:xlink="http://www.w3.org/1999/xlink" width="48" height="48" viewBox="0 0 12.7 12.7" version="1.1">
 <defs>
  <linearGradient id="linearGradient4522">
   <stop style="stop-color:#dadada;stop-opacity:1" offset="0"/>
   <stop style="stop-color:#4c474b;stop-opacity:1" offset="1"/>
  </linearGradient>
  <linearGradient id="linearGradient1570">
   <stop style="stop-color:#070707;stop-opacity:1" offset="0"/>
   <stop style="stop-color:#070707;stop-opacity:0" offset="1"/>
  </linearGradient>
  <linearGradient id="linearGradient1525">
   <stop style="stop-color:#e4e4e4;stop-opacity:1" offset="0"/>
   <stop style="stop-color:#f0f0f0;stop-opacity:1" offset="1"/>
  </linearGradient>
  <linearGradient id="linearGradient1498">
   <stop style="stop-color:#dcdcdc;stop-opacity:1" offset="0"/>
   <stop style="stop-color:#878787;stop-opacity:1" offset="1"/>
  </linearGradient>
  <linearGradient xlink:href="#linearGradient5898" id="linearGradient881" gradientUnits="userSpaceOnUse" gradientTransform="matrix(0.83333333,0,0,0.81818037,-2.6666678,-813.84028)" x1="32" y1="1042.362" x2="32" y2="1017.918"/>
  <linearGradient id="linearGradient5898">
   <stop style="stop-color:#5b555a;stop-opacity:1" offset="0"/>
   <stop style="stop-color:#2d2a2b;stop-opacity:1" offset="1"/>
  </linearGradient>
  <linearGradient xlink:href="#linearGradient5822" id="linearGradient5828" x1="27" y1="1018.484" x2="27" y2="1008.362" gradientUnits="userSpaceOnUse" gradientTransform="matrix(0.26458333,0,0,0.26458333,-2.1166667,18.827062)"/>
  <linearGradient id="linearGradient5822">
   <stop style="stop-color:#ac0808;stop-opacity:1" offset="0"/>
   <stop style="stop-color:#ec4040;stop-opacity:1" offset="1"/>
  </linearGradient>
  <linearGradient xlink:href="#linearGradient1498" id="linearGradient1500" x1="6.215" y1="295.924" x2="6.215" y2="288.897" gradientUnits="userSpaceOnUse" gradientTransform="matrix(0.94879219,0,0,1,0.32516876,0)"/>
  <linearGradient xlink:href="#linearGradient1525" id="linearGradient1527" x1="6.35" y1="289.327" x2="6.35" y2="294.794" gradientUnits="userSpaceOnUse"/>
  <linearGradient xlink:href="#linearGradient1570" id="linearGradient1564" x1="16.576" y1="23.171" x2="20.244" y2="26.839" gradientUnits="userSpaceOnUse"/>
  <linearGradient xlink:href="#linearGradient1570" id="linearGradient1572" x1="21.53" y1="27.552" x2="33.046" y2="39.067" gradientUnits="userSpaceOnUse"/>
  <linearGradient xlink:href="#linearGradient4522" id="linearGradient4530" x1="6.35" y1="286.152" x2="6.278" y2="292.32" gradientUnits="userSpaceOnUse"/>
 </defs>
 <g transform="translate(0,-284.29998)">
  <path style="fill:url(#linearGradient1500);stroke-width:0.29621744;stroke-linecap:round;stroke-linejoin:round;stroke-dasharray:0.5924349, 0.29621745" d="m 2.8355148,289.0625 h 7.0289691 c 0.4172201,0 0.6912131,0.35888 0.7531051,0.79375 l 0.753104,5.29167 c 0.06189,0.43486 -0.335885,0.79375 -0.753104,0.79375 H 2.0824112 c -0.4172195,0 -0.8149933,-0.35889 -0.7531039,-0.79375 l 0.7531037,-5.29167 c 0.061891,-0.43487 0.3358844,-0.79375 0.7531038,-0.79375 z"/>
  <path d="M 3.3108819,289.32706 H 9.389118 c 0.3293834,0 0.5486227,0.27564 0.5945556,0.61057 l 0.5945184,4.33507 c 0.04593,0.33492 -0.265172,0.61057 -0.5945552,0.61057 H 2.7163632 c -0.3293837,0 -0.6404857,-0.27566 -0.5945555,-0.61057 l 0.5945187,-4.33507 c 0.045933,-0.33493 0.2651718,-0.61057 0.5945555,-0.61057 z" style="fill:url(#linearGradient1527);stroke-width:0.23083831;stroke-linecap:round;stroke-linejoin:round;stroke-dasharray:0.46167668, 0.23083833000000001"/>
  <path style="opacity:0.30000001;fill:url(#linearGradient1564);stroke-width:1.06418085;stroke-linecap:round;stroke-linejoin:round;stroke-dasharray:2.12836169, 1.06418082999999997" d="M 21.347656,22.201172 15,25 l 5.444793,5.444793 5.131379,-7.614715 z" transform="matrix(0.26458333,0,0,0.26458333,0,284.29998)"/>
  <path style="opacity:0.35;fill:url(#linearGradient1572);stroke-width:1.06418085;stroke-linecap:round;stroke-linejoin:round;stroke-dasharray:2.12836169, 1.06418083" d="M 25.289062,20.384766 19.126953,31.761719 14,31 24.01707,41.01707 24.018898,44 h 16.110008 c 1.576891,0 3.081571,-1.356435 2.847656,-3 l -1,-7.029297 -8.988281,-8.986328 z" transform="matrix(0.26458333,0,0,0.26458333,0,284.29998)"/>
  <path style="fill:url(#linearGradient881);fill-rule:evenodd;stroke-width:0.82572204px" d="M 24 19 L 15 25 L 19 25 L 19 31 L 14 31 L 24 39 L 34 31 L 29 31 L 29 25 L 33 25 L 24 19 z" transform="matrix(0.26458333,0,0,0.26458333,0,284.29998)"/>
  <rect ry=".832" rx=".665" y="-10.32" x="285.89" height="7.938" width="1.587" style="fill:#d5d5d5;stroke-width:0.24791051;stroke-linecap:round;stroke-linejoin:round;stroke-dasharray:0.49582105, 0.24791052999999999" transform="rotate(90)"/>
  <path style="fill:url(#linearGradient5828);stroke-width:0.52916664" d="m 3.1750053,285.62289 h 6.349989 c 0.293161,0 0.5291727,0.26458 0.5291727,1.05833 0,0.79375 -0.2360116,1.05834 -0.5291727,1.05834 h -6.349989 c -0.293162,0 -0.529172,-0.26459 -0.529172,-1.05834 0,-0.79375 0.23601,-1.05833 0.529172,-1.05833 z"/>
  <path style="color:#000000;opacity:0.2;stroke-width:1.99999988" d="M 10.019531 8.5 C 10.013153 8.667055 10 8.8185301 10 9 C 10 12 10.891986 13 12 13 L 36 13 C 37.10801 13 38 12 38 9 C 38 8.8185301 37.986847 8.667055 37.980469 8.5 C 37.881405 11.094647 37.040987 12 36 12 L 12 12 C 10.95901 12 10.118594 11.094647 10.019531 8.5 z" transform="matrix(0.26458333,0,0,0.26458333,0,284.29998)"/>
  <path style="fill:url(#linearGradient4530);stroke-width:0.27655575;stroke-linecap:round;stroke-linejoin:round;stroke-dasharray:0.55311152, 0.27655576999999998" d="m 6.1786181,285.35831 h 0.3427633 c 0.6223686,0 0.8869517,0.0815 0.8869517,0.51144 v 6.12081 l 2e-7,0.77608 H 6.35 5.2916667 l -2e-7,-0.77608 v -6.12081 c 0,-0.42995 0.2645835,-0.51144 0.8869516,-0.51144 z"/>
  <path style="opacity:0.2;fill:#0f0f0f;stroke-width:1.11956203;stroke-linecap:round;stroke-linejoin:round;stroke-dasharray:2.23912403, 1.11956202000000005" d="M 5.2558594,39.373047 5.0234375,41 c -0.2339127,1.643565 1.2707637,3 2.8476563,3 H 24.7 40.128906 c 1.576891,0 3.081571,-1.356435 2.847656,-3 L 42.744141,39.373047 C 42.281109,40.331582 41.229896,41 40.128906,41 H 24.043127 7.8710938 C 6.7701031,41 5.7188901,40.331582 5.2558594,39.373047 Z" transform="matrix(0.26458333,0,0,0.26458333,0,284.29998)"/>
 </g>
</svg>
