<?xml version="1.0" encoding="UTF-8" standalone="no"?>
<svg
   xmlns:dc="http://purl.org/dc/elements/1.1/"
   xmlns:cc="http://creativecommons.org/ns#"
   xmlns:rdf="http://www.w3.org/1999/02/22-rdf-syntax-ns#"
   xmlns:svg="http://www.w3.org/2000/svg"
   xmlns="http://www.w3.org/2000/svg"
   xmlns:sodipodi="http://sodipodi.sourceforge.net/DTD/sodipodi-0.dtd"
   xmlns:inkscape="http://www.inkscape.org/namespaces/inkscape"
   width="22"
   height="22"
   version="1.1"
   id="svg9"
   sodipodi:docname="ao-app-tray.svg"
   inkscape:version="0.92.3 (2405546, 2018-03-11)">
  <metadata
     id="metadata13">
    <rdf:RDF>
      <cc:Work
         rdf:about="">
        <dc:format>image/svg+xml</dc:format>
        <dc:type
           rdf:resource="http://purl.org/dc/dcmitype/StillImage" />
      </cc:Work>
    </rdf:RDF>
  </metadata>
  <sodipodi:namedview
     pagecolor="#ffffff"
     bordercolor="#666666"
     borderopacity="1"
     objecttolerance="10"
     gridtolerance="10"
     guidetolerance="10"
     inkscape:pageopacity="0"
     inkscape:pageshadow="2"
     inkscape:window-width="1920"
     inkscape:window-height="1020"
     id="namedview11"
     showgrid="false"
     inkscape:zoom="26.42"
     inkscape:cx="4.0355791"
     inkscape:cy="11"
     inkscape:window-x="0"
     inkscape:window-y="30"
     inkscape:window-maximized="1"
     inkscape:current-layer="svg9" />
  <defs
     id="defs3">
    <style
       id="current-color-scheme"
       type="text/css">
   .ColorScheme-Text { color:#eff0f1; } .ColorScheme-Highlight { color:#3daee9; }
  </style>
  </defs>
  <path
     style="fill:#eff0f1;fill-opacity:1"
     d="M 11.041016 3 C 10.715869 2.9923029 10.393101 3.0776787 10.111328 3.2441406 L 4.8886719 6.3339844 C 4.3392388 6.658953 3.99996 7.2601614 4 7.9101562 L 4 14.089844 C 3.9999998 14.493116 4.1429115 14.868474 4.3730469 15.179688 L 17.835938 7.1816406 C 17.686183 6.8335857 17.44356 6.5304869 17.111328 6.3339844 L 11.888672 3.2421875 C 11.631571 3.0903187 11.339632 3.007349 11.042969 3 L 11.041016 3 z M 11.017578 4 C 11.143569 4.00312 11.270272 4.039727 11.378906 4.1035156 L 16.226562 6.9746094 L 5 13.644531 L 5 7.9101562 C 4.9999814 7.6081803 5.1589036 7.3369876 5.3984375 7.1953125 L 10.619141 4.1054688 C 10.741899 4.0329471 10.882988 3.9968139 11.017578 4 z M 17.929688 7.4101562 A 1.7755407 1.8191524 0 0 1 17.943359 7.4628906 C 17.938961 7.4450803 17.934602 7.4277889 17.929688 7.4101562 z M 4.5019531 15.351562 C 4.5147092 15.365088 4.5278303 15.377488 4.5410156 15.390625 A 1.7755407 1.8191524 0 0 1 4.5019531 15.351562 z "
     id="path5" />
  <path
     style="fill:#eff0f1;opacity:0.3;fill-opacity:1"
     d="M 17.847656 7.1757812 L 4.3613281 15.185547 A 1.7755407 1.8191524 0 0 0 4.8886719 15.666016 L 10.111328 18.755859 A 1.7755407 1.8191524 0 0 0 11.888672 18.755859 L 17.111328 15.666016 A 1.7755407 1.8191524 0 0 0 18 14.089844 L 18 7.9101562 A 1.7755407 1.8191524 0 0 0 17.847656 7.1757812 z M 17 8.8417969 L 17 14.089844 C 16.999915 14.392568 16.843049 14.663026 16.603516 14.804688 L 11.378906 17.896484 C 11.139302 18.038248 10.860698 18.038248 10.621094 17.896484 L 6.1796875 15.267578 L 17 8.8417969 z "
     id="path7" />
</svg>
