<svg xmlns="http://www.w3.org/2000/svg" width="22" height="22" version="1.1">
 <defs>
  <style id="current-color-scheme" type="text/css">
   .ColorScheme-Text { color:#eff0f1; } .ColorScheme-Highlight { color:#3daee9; }
  </style>
 </defs>
 <path style="fill:currentColor" class="ColorScheme-Text" d="m 16.656854,5.3431455 c -3.124032,-3.1240323 -8.1896752,-3.1240327 -11.3137081,10e-8 -3.1240322,3.1240319 -3.1240322,8.1896754 -4e-7,11.3137094 3.124033,3.124032 8.1896755,3.124032 11.3137095,-1e-6 3.124032,-3.124032 3.124033,-8.1896751 -1e-6,-11.3137085 z m -0.707106,0.7071068 c 2.078137,2.0781375 2.577424,5.1157007 1.505363,7.6594037 L 16.281203,13.187611 C 17.056202,11.120008 16.51828,8.740105 14.889087,7.1109126 13.221004,5.4428295 10.720893,4.916927 8.6356118,5.8071845 l 0.772017,1.7442888 c 1.3937232,-0.591855 3.0654392,-0.2491238 4.1777302,0.8631673 1.071279,1.0712789 1.437377,2.5899404 0.950175,3.9553794 L 13.276,11.817593 l 1.038564,3.646018 3.129499,-1.729098 c -0.342133,0.803033 -0.837422,1.558337 -1.494315,2.215234 -2.741831,2.74183 -7.1576646,2.74183 -9.8994955,10e-7 -2.7418295,-2.741831 -2.7418298,-7.1576658 1e-7,-9.8994956 2.7418305,-2.7418304 7.1576654,-2.7418298 9.8994954,-10e-8 z M 7.6647211,6.5598665 4.5711288,8.2392452 5.7422744,8.7916724 c -0.7856037,2.0499246 -0.2506872,4.4780896 1.3700191,6.0987966 1.672326,1.672326 4.1241775,2.192747 6.2313785,1.325825 L 12.570274,14.470623 C 11.165237,15.049751 9.5304349,14.701153 8.4160215,13.58674 7.3518146,12.522533 6.9986216,10.96551 7.4879442,9.6092648 L 8.7460974,10.16031 Z"/>
</svg>
