<?xml version="1.0" encoding="UTF-8" standalone="no"?>
<svg
   xmlns:dc="http://purl.org/dc/elements/1.1/"
   xmlns:cc="http://creativecommons.org/ns#"
   xmlns:rdf="http://www.w3.org/1999/02/22-rdf-syntax-ns#"
   xmlns:svg="http://www.w3.org/2000/svg"
   xmlns="http://www.w3.org/2000/svg"
   xmlns:sodipodi="http://sodipodi.sourceforge.net/DTD/sodipodi-0.dtd"
   xmlns:inkscape="http://www.inkscape.org/namespaces/inkscape"
   width="22"
   height="22"
   version="1.1"
   id="svg9"
   sodipodi:docname="fcitx-shuangpin-libpinyin-panel.svg"
   inkscape:version="0.92.3 (2405546, 2018-03-11)">
  <metadata
     id="metadata13">
    <rdf:RDF>
      <cc:Work
         rdf:about="">
        <dc:format>image/svg+xml</dc:format>
        <dc:type
           rdf:resource="http://purl.org/dc/dcmitype/StillImage" />
      </cc:Work>
    </rdf:RDF>
  </metadata>
  <sodipodi:namedview
     pagecolor="#ffffff"
     bordercolor="#666666"
     borderopacity="1"
     objecttolerance="10"
     gridtolerance="10"
     guidetolerance="10"
     inkscape:pageopacity="0"
     inkscape:pageshadow="2"
     inkscape:window-width="1920"
     inkscape:window-height="1020"
     id="namedview11"
     showgrid="false"
     inkscape:zoom="20.02"
     inkscape:cx="11"
     inkscape:cy="11"
     inkscape:window-x="0"
     inkscape:window-y="30"
     inkscape:window-maximized="1"
     inkscape:current-layer="svg9" />
  <defs
     id="defs3">
    <style
       id="current-color-scheme"
       type="text/css">
   .ColorScheme-Text { color:#eff0f1; } .ColorScheme-Highlight { color:#3daee9; }
  </style>
  </defs>
  <path
     style="color:#eff0f1;fill:currentColor"
     d="M 5 3 C 3.892 3 3 3.892 3 5 L 3 17 C 3 18.108 3.892 19 5 19 L 17 19 C 18.108 19 19 18.108 19 17 L 19 5 C 19 3.892 18.108 3 17 3 L 5 3 z M 5 4 L 17 4 C 17.571297 4 18 4.4287028 18 5 L 18 17 C 18 17.571297 17.571297 18 17 18 L 5 18 C 4.4287028 18 4 17.571297 4 17 L 4 5 C 4 4.4287028 4.4287028 4 5 4 z M 5 5 L 5 6 L 9.4277344 6 C 9.3567344 6.64 9.1095938 8.740625 8.5585938 10.640625 C 7.8635938 9.680625 7.071625 8.6594531 5.890625 7.1894531 L 5.109375 7.8105469 C 6.527375 9.5805469 7.3971094 10.700547 8.1621094 11.810547 C 6.8691094 15.151047 4.8984375 16.460938 4.8984375 16.460938 L 5.4550781 17.292969 C 5.4550781 17.292969 7.4263125 15.931047 8.8203125 12.810547 C 9.2583125 13.491047 9.7031875 14.229688 10.242188 15.179688 L 11.111328 14.689453 C 10.412328 13.449453 9.8564375 12.549687 9.2734375 11.679688 C 10.170438 9.0696875 10.498047 5.5507812 10.498047 5.5507812 L 10.548828 5 L 5 5 z M 11 5 L 11 6 L 11.589844 6 C 11.691844 6.59 12.142391 9.1398435 12.900391 11.089844 C 13.165991 11.779844 13.449109 12.439644 13.787109 13.089844 C 12.499209 15.129844 10.71875 16.228516 10.71875 16.228516 L 11.236328 17.083984 C 11.236328 17.083984 12.946644 16.034781 14.339844 14.050781 C 14.995844 15.070781 15.860578 16.077328 17.142578 17.111328 L 17.769531 16.332031 C 16.385531 15.220031 15.549781 14.189609 14.925781 13.099609 C 15.050781 12.869209 15.181969 12.660156 15.292969 12.410156 C 16.166969 10.470156 17 7.65 17 5.5 L 17 5 L 11 5 z M 12.607422 6 L 15.923828 6 C 15.814828 7.85 15.130047 10.329766 14.373047 12.009766 C 14.185047 11.599766 14.006984 11.180469 13.833984 10.730469 C 13.175984 9.0304686 12.747422 6.77 12.607422 6 z "
     id="path827" />
</svg>
