<svg xmlns="http://www.w3.org/2000/svg" id="svg2" width="22" height="22" version="1.1">
 <defs id="defs10">
  <style id="current-color-scheme" type="text/css">
   .ColorScheme-Text { color:#eff0f1; } .ColorScheme-Highlight { color:#3daee9; }
  </style>
 </defs>
 <path id="path4490" style="fill:#eff0f1;fill-opacity:1" d="M 11 3 C 7.134 3 4 6.1044937 4 9.9335938 C 4 13.762794 7.134 16.867188 11 16.867188 L 11 19 C 12.7361 17.7749 17.272297 16.029391 17.966797 10.650391 C 17.996897 10.417391 18 10.180844 18 9.9335938 C 18 9.7126835 17.993497 9.4983631 17.966797 9.2832031 C 17.638847 5.7559031 14.6467 3 11 3 z M 11 4 C 14.14287 4 16.690203 6.3600231 16.970703 9.3769531 L 16.972656 9.390625 L 16.974609 9.40625 C 16.993821 9.5622198 17 9.7338135 17 9.9335938 C 17 10.171144 16.994999 10.363674 16.974609 10.521484 C 16.477337 14.372894 14.04971 15.888983 12 17.126953 L 12 15.867188 L 11 15.867188 C 7.66928 15.867188 5 13.217164 5 9.9335938 C 5 6.6501435 7.6693 4 11 4 z M 7 9 A 1 1 0 0 0 6 10 A 1 1 0 0 0 7 11 A 1 1 0 0 0 8 10 A 1 1 0 0 0 7 9 z M 11 9 A 1 1 0 0 0 10 10 A 1 1 0 0 0 11 11 A 1 1 0 0 0 12 10 A 1 1 0 0 0 11 9 z M 15 9 A 1 1 0 0 0 14 10 A 1 1 0 0 0 15 11 A 1 1 0 0 0 16 10 A 1 1 0 0 0 15 9 z"/>
</svg>
