<svg xmlns="http://www.w3.org/2000/svg" id="svg7" width="22" height="22" version="1.1">
 <defs id="defs3">
  <style id="current-color-scheme" type="text/css">
   .ColorScheme-Text { color:#eff0f1; } .ColorScheme-Highlight { color:#3daee9; }
  </style>
 </defs>
 <path id="rect3343" style="opacity:1;fill:#eff0f1;fill-opacity:1;stroke:none" d="m 6.0000002,3 c 0,0 -1,-3e-5 -1,1 h -2 V 7.0000001 18 19 H 19 V 18 7.0000001 4 H 17 C 17,2.99997 16,3 16,3 h -3 c 0,0 -1,-3e-5 -1,1 H 10 C 10,2.99997 9.0000002,3 9.0000002,3 Z m 0,1 h 3 v 1 h -3 z M 13,4 h 3 V 5 H 13 Z M 4.0000002,7.0000001 H 18 V 18 H 4.0000002 Z m 2,1 V 10 h 2 V 8.0000001 Z m 3.9999998,0 V 10 h 2 V 8.0000001 Z m 4,0 V 10 h 2 V 8.0000001 Z M 6.0000002,11 v 2 h 2 V 11 Z M 10,11 v 2 h 2 v -2 z m 4,0 v 2 h 2 v -2 z m 0,3 v 2 h 2 v -2 z"/>
</svg>
