<svg xmlns="http://www.w3.org/2000/svg" id="svg2" width="22" height="22" version="1.1">
 <defs id="defs10">
  <style id="current-color-scheme" type="text/css">
   .ColorScheme-Text { color:#eff0f1; } .ColorScheme-Highlight { color:#3daee9; }
  </style>
 </defs>
 <path id="rect4488" style="opacity:1;vector-effect:none;fill:#eff0f1;fill-opacity:1;stroke:none;stroke-width:2.16231871;stroke-linecap:round;stroke-linejoin:round;stroke-miterlimit:4;stroke-dasharray:none;stroke-dashoffset:0;stroke-opacity:1" d="M 9 3 L 9 11.541016 A 4 4 0 0 0 7 15 A 4 4 0 0 0 11 19 A 4 4 0 0 0 15 15 A 4 4 0 0 0 13 11.541016 L 13 9 L 11 9 L 11 8 L 13 8 L 13 7 L 11 7 L 11 6 L 13 6 L 13 5 L 11 5 L 11 4 L 13 4 L 13 3 L 9 3 z"/>
</svg>
