<svg xmlns="http://www.w3.org/2000/svg" id="svg9" width="22" height="22" version="1.1">
 <defs id="defs3">
  <style id="current-color-scheme" type="text/css">
   .ColorScheme-Text { color:#eff0f1; } .ColorScheme-Highlight { color:#3daee9; }
  </style>
 </defs>
 <path id="path4492" style="fill:#eff0f1;fill-opacity:1" d="M 10.751953 4.0371094 C 7.9891732 4.1385494 5.4432531 5.8416894 4.4394531 8.5996094 C 3.1756231 12.071949 4.8081231 15.924179 8.1269531 17.412109 C 8.0337531 17.074649 7.9800731 16.705189 8.0019531 16.349609 C 8.0296531 15.348359 8.5859231 14.462239 9.3769531 13.880859 C 7.8100731 12.147669 7.2413631 9.6343994 8.0957031 7.2871094 C 8.6098631 5.8744594 9.5701432 4.7787494 10.751953 4.0371094 z M 14.001953 12.005859 C 12.690273 12.005859 11.597133 12.864289 11.189453 14.037109 C 9.9586233 14.193079 9.0019531 15.232679 9.0019531 16.505859 C 9.0019531 17.886569 10.121243 19.005859 11.501953 19.005859 L 17.001953 19.005859 C 18.106523 19.005859 19.001953 18.110429 19.001953 17.005859 C 19.001953 15.901289 18.106523 15.005859 17.001953 15.005859 C 17.001953 13.349009 15.658803 12.005859 14.001953 12.005859 z M 14.001953 13.005859 C 15.11836 13.005859 16.001953 13.889453 16.001953 15.005859 L 16.001953 16.005859 L 17.001953 16.005859 C 17.566084 16.005859 18.001953 16.441729 18.001953 17.005859 C 18.001953 17.56999 17.566084 18.005859 17.001953 18.005859 L 11.501953 18.005859 C 10.661685 18.005859 10.001953 17.346128 10.001953 16.505859 C 10.001953 15.733614 10.569305 15.123722 11.314453 15.029297 L 11.929688 14.951172 L 12.134766 14.365234 C 12.410108 13.573125 13.126574 13.005859 14.001953 13.005859 z"/>
</svg>
