<?xml version="1.0" encoding="UTF-8" standalone="no"?>
<svg
   xmlns:dc="http://purl.org/dc/elements/1.1/"
   xmlns:cc="http://creativecommons.org/ns#"
   xmlns:rdf="http://www.w3.org/1999/02/22-rdf-syntax-ns#"
   xmlns:svg="http://www.w3.org/2000/svg"
   xmlns="http://www.w3.org/2000/svg"
   xmlns:xlink="http://www.w3.org/1999/xlink"
   xmlns:sodipodi="http://sodipodi.sourceforge.net/DTD/sodipodi-0.dtd"
   xmlns:inkscape="http://www.inkscape.org/namespaces/inkscape"
   width="48"
   height="48"
   version="1.1"
   id="svg46"
   sodipodi:docname="2048.svg"
   inkscape:version="0.92.1 r15371">
  <metadata
     id="metadata50">
    <rdf:RDF>
      <cc:Work
         rdf:about="">
        <dc:format>image/svg+xml</dc:format>
        <dc:type
           rdf:resource="http://purl.org/dc/dcmitype/StillImage" />
        <dc:title></dc:title>
      </cc:Work>
    </rdf:RDF>
  </metadata>
  <sodipodi:namedview
     pagecolor="#ffffff"
     bordercolor="#666666"
     borderopacity="1"
     objecttolerance="10"
     gridtolerance="10"
     guidetolerance="10"
     inkscape:pageopacity="0"
     inkscape:pageshadow="2"
     inkscape:window-width="1600"
     inkscape:window-height="808"
     id="namedview48"
     showgrid="false"
     inkscape:zoom="9.95"
     inkscape:cx="24"
     inkscape:cy="19.39736"
     inkscape:window-x="0"
     inkscape:window-y="0"
     inkscape:window-maximized="1"
     inkscape:current-layer="svg46">
    <inkscape:grid
       type="xygrid"
       id="grid4605" />
  </sodipodi:namedview>
  <defs
     id="defs32">
    <linearGradient
       id="linearGradient4546">
      <stop
         id="stop4542"
         offset="0"
         style="stop-color:#58377d;stop-opacity:1" />
      <stop
         id="stop4544"
         offset="1"
         style="stop-color:#b154d8;stop-opacity:1" />
    </linearGradient>
    <linearGradient
       id="linearGradient4540">
      <stop
         id="stop4536"
         offset="0"
         style="stop-color:#ff5e2d;stop-opacity:1" />
      <stop
         id="stop4538"
         offset="1"
         style="stop-color:#ff9e69;stop-opacity:1" />
    </linearGradient>
    <linearGradient
       id="linearGradient4214">
      <stop
         style="stop-color:#000000;stop-opacity:1;"
         offset="0"
         id="stop2" />
      <stop
         style="stop-color:#000000;stop-opacity:0;"
         offset="1"
         id="stop4" />
    </linearGradient>
    <linearGradient
       xlink:href="#linearGradient4546"
       id="linearGradient4213"
       x1="403.42099"
       y1="544.09198"
       x2="391.89001"
       y2="525.72498"
       gradientUnits="userSpaceOnUse"
       gradientTransform="translate(-384.57001,-499.79999)" />
    <linearGradient
       id="linearGradient4472">
      <stop
         style="stop-color:#ffa92d;stop-opacity:1"
         offset="0"
         id="stop13" />
      <stop
         style="stop-color:#ffc169;stop-opacity:1"
         offset="1"
         id="stop15" />
    </linearGradient>
    <linearGradient
       xlink:href="#linearGradient4472"
       id="linearGradient4235"
       x1="401.296"
       y1="523.203"
       x2="391.154"
       y2="505.319"
       gradientUnits="userSpaceOnUse"
       gradientTransform="translate(-384.57001,-499.79999)" />
    <linearGradient
       xlink:href="#linearGradient4438"
       id="linearGradient4257"
       x1="424.60199"
       y1="523.79797"
       x2="413.77899"
       y2="503.798"
       gradientUnits="userSpaceOnUse"
       gradientTransform="translate(-384.57001,-499.79999)" />
    <linearGradient
       id="linearGradient4438">
      <stop
         style="stop-color:#375a7d;stop-opacity:1"
         offset="0"
         id="stop25" />
      <stop
         style="stop-color:#54a3d8;stop-opacity:1"
         offset="1"
         id="stop27" />
    </linearGradient>
    <linearGradient
       xlink:href="#linearGradient4214"
       id="linearGradient4220"
       x1="4"
       y1="4"
       x2="36.132866"
       y2="36.132866"
       gradientUnits="userSpaceOnUse"
       gradientTransform="translate(0.00142264,-0.00198746)" />
    <linearGradient
       inkscape:collect="always"
       xlink:href="#linearGradient4540"
       id="linearGradient4534"
       x1="33.790211"
       y1="43.324009"
       x2="33.790211"
       y2="24.209789"
       gradientUnits="userSpaceOnUse" />
  </defs>
  <rect
     style="fill:url(#linearGradient4257);fill-opacity:1.0;fill-rule:evenodd"
     width="20"
     height="20"
     x="24"
     y="4"
     ry="0"
     id="rect38" />
  <path
     style="opacity:1;vector-effect:none;fill:#ffffff;fill-opacity:1;stroke:none;stroke-width:2.02259946;stroke-linecap:round;stroke-linejoin:round;stroke-miterlimit:4;stroke-dasharray:none;stroke-dashoffset:0;stroke-opacity:1"
     d="M 32 10 L 32 11 L 32 15 L 32 18 L 32 19 L 37 19 L 37 18 L 37 15 L 37 14 L 37 11 L 37 10 L 36 10 L 33 10 L 32 10 z M 33 11 L 36 11 L 36 14 L 36 15 L 36 18 L 33 18 L 33 15 L 33 11 z "
     id="rect4564" />
  <rect
     ry="0"
     y="24"
     x="24"
     height="20"
     width="20"
     style="fill:url(#linearGradient4534);fill-opacity:1;fill-rule:evenodd"
     id="rect34" />
  <path
     style="opacity:1;vector-effect:none;fill:#ffffff;fill-opacity:1;stroke:none;stroke-width:2.02259946;stroke-linecap:round;stroke-linejoin:round;stroke-miterlimit:4;stroke-dasharray:none;stroke-dashoffset:0;stroke-opacity:1"
     d="M 32 30 L 32 31 L 32 35 L 32 38 L 32 39 L 37 39 L 37 38 L 37 35 L 37 34 L 37 31 L 37 30 L 36 30 L 33 30 L 32 30 z M 33 31 L 36 31 L 36 34 L 33 34 L 33 31 z M 33 35 L 36 35 L 36 38 L 33 38 L 33 35 z "
     id="rect4588" />
  <rect
     ry="0"
     y="24"
     x="4"
     height="20"
     width="20"
     style="fill:url(#linearGradient4213);fill-opacity:1.0;fill-rule:evenodd"
     id="rect36" />
  <path
     style="opacity:1;vector-effect:none;fill:#ffffff;fill-opacity:1;stroke:none;stroke-width:2.02259946;stroke-linecap:round;stroke-linejoin:round;stroke-miterlimit:4;stroke-dasharray:none;stroke-dashoffset:0;stroke-opacity:1"
     d="M 11 30 L 11 35 L 12 35 L 15 35 L 15 39 L 16 39 L 16 35 L 16 34 L 16 30 L 15 30 L 15 34 L 12 34 L 12 30 L 11 30 z "
     id="rect4576" />
  <path
     style="opacity:0.2;fill:url(#linearGradient4220);fill-opacity:1;stroke:none;stroke-width:2;stroke-linecap:round;stroke-linejoin:round;stroke-miterlimit:4;stroke-dasharray:none;stroke-opacity:1"
     d="m 23.99947,4.0273094 0,19.9726566 -19.9804693,0 20.0000003,20 19.980469,0 0,-19.972656 -20,-20.0000006 z"
     id="path40" />
  <rect
     y="43"
     x="4"
     height="1"
     width="40"
     style="opacity:0.15;fill:#000000;fill-opacity:1;stroke:none"
     id="rect42" />
  <rect
     style="fill:url(#linearGradient4235);fill-opacity:1;fill-rule:evenodd"
     width="20"
     height="20"
     x="4"
     y="4"
     ry="0"
     id="rect44" />
  <path
     style="opacity:1;vector-effect:none;fill:#2f2f2f;fill-opacity:1;stroke:none;stroke-width:2.02259946;stroke-linecap:round;stroke-linejoin:round;stroke-miterlimit:4;stroke-dasharray:none;stroke-dashoffset:0;stroke-opacity:1"
     d="M 11 10 L 11 11 L 15 11 L 15 14 L 11 14 L 11 15 L 11 18 L 11 19 L 16 19 L 16 18 L 12 18 L 12 15 L 15 15 L 16 15 L 16 14 L 16 11 L 16 10 L 15 10 L 11 10 z "
     id="rect4543" />
</svg>
