<?xml version="1.0" encoding="UTF-8" standalone="no"?>
<!-- Created with Inkscape (http://www.inkscape.org/) -->

<svg
   xmlns:dc="http://purl.org/dc/elements/1.1/"
   xmlns:cc="http://creativecommons.org/ns#"
   xmlns:rdf="http://www.w3.org/1999/02/22-rdf-syntax-ns#"
   xmlns:svg="http://www.w3.org/2000/svg"
   xmlns="http://www.w3.org/2000/svg"
   xmlns:xlink="http://www.w3.org/1999/xlink"
   xmlns:sodipodi="http://sodipodi.sourceforge.net/DTD/sodipodi-0.dtd"
   xmlns:inkscape="http://www.inkscape.org/namespaces/inkscape"
   width="48"
   version="1.1"
   height="48"
   id="svg17"
   sodipodi:docname="gnome-appfolders-manager.svg"
   inkscape:version="0.92.3 (2405546, 2018-03-11)">
  <sodipodi:namedview
     pagecolor="#ffffff"
     bordercolor="#666666"
     borderopacity="1"
     objecttolerance="10"
     gridtolerance="10"
     guidetolerance="10"
     inkscape:pageopacity="0"
     inkscape:pageshadow="2"
     inkscape:window-width="1920"
     inkscape:window-height="1020"
     id="namedview19"
     showgrid="true"
     inkscape:zoom="15.78"
     inkscape:cx="18.913891"
     inkscape:cy="10.970131"
     inkscape:window-x="0"
     inkscape:window-y="30"
     inkscape:window-maximized="1"
     inkscape:current-layer="layer1">
    <inkscape:grid
       type="xygrid"
       id="grid4518" />
  </sodipodi:namedview>
  <defs
     id="defs5455">
    <linearGradient
       inkscape:collect="always"
       id="linearGradient4172-9">
      <stop
         style="stop-color:#3daee9"
         id="stop4174-7" />
      <stop
         offset="1"
         style="stop-color:#6cc1ef"
         id="stop4176-9" />
    </linearGradient>
    <linearGradient
       inkscape:collect="always"
       id="linearGradient4178-9"
       xlink:href="#linearGradient4172-9"
       y1="541.79797"
       y2="499.78421"
       gradientUnits="userSpaceOnUse"
       x2="0"
       gradientTransform="matrix(0.68965517,0,0,0.69025356,121.28079,167.82002)" />
  </defs>
  <metadata
     id="metadata5458">
    <rdf:RDF>
      <cc:Work
         rdf:about="">
        <dc:format>image/svg+xml</dc:format>
        <dc:type
           rdf:resource="http://purl.org/dc/dcmitype/StillImage" />
        <dc:title></dc:title>
      </cc:Work>
    </rdf:RDF>
  </metadata>
  <g
     inkscape:label="Capa 1"
     inkscape:groupmode="layer"
     id="layer1"
     transform="translate(-384.57143,-499.798)">
    <path
       d="m 389.57143,505.79826 v 3.3928 14.92838 c 0,0.37574 0.30264,0.67856 0.67857,0.67856 h 36.64285 c 0.37592,0 0.67858,-0.30282 0.67858,-0.67856 v -14.92175 c 0,-0.002 -9.8e-4,-0.004 -9.8e-4,-0.007 h 9.8e-4 V 508.798 h -19 l -2.99972,-3.00012 h -16.00028 z"
       id="rect4180-0"
       style="fill:#147eb8;stroke-width:0.67856693"
       inkscape:connector-curvature="0"
       sodipodi:nodetypes="ccsssssccccccc" />
    <path
       d="m 404.57143,512.79793 -2.89655,3.00007 h -13.10345 v 0.45232 h 10e-4 c -3e-5,0.003 -10e-4,0.006 -10e-4,0.008 v 24.84913 0.69047 h 0.68966 38.62069 0.68965 v -0.69047 -24.84913 -0.008 -3.45239 z"
       id="rect4113-6"
       style="fill:url(#linearGradient4178-9);stroke-width:0.69006664"
       inkscape:connector-curvature="0"
       sodipodi:nodetypes="cccccscccccccccc" />
    <path
       d="m 388.57143,540.798 v 1 h 0.68966 38.62069 0.68965 v -1 h -0.68965 -38.62069 z"
       id="path4151-2-6"
       style="fill-opacity:0.235294;stroke-width:0.83045793"
       inkscape:connector-curvature="0" />
    <path
       style="opacity:1;fill:#1272a5;fill-opacity:1;stroke:none;stroke-width:2;stroke-linecap:round;stroke-linejoin:round;stroke-miterlimit:4;stroke-dasharray:none;stroke-dashoffset:0;stroke-opacity:1;paint-order:normal"
       d="M 10 19 L 10 28 L 17 28 L 17 19 L 10 19 z M 23 19 L 23 20.039062 A 3.5 3.5 0 0 0 21.40625 20.699219 L 20.671875 19.964844 L 19.964844 20.671875 L 20.699219 21.40625 A 3.5 3.5 0 0 0 20.041016 23 L 19 23 L 19 24 L 20.039062 24 A 3.5 3.5 0 0 0 20.699219 25.59375 L 19.964844 26.328125 L 20.671875 27.035156 L 21.40625 26.300781 A 3.5 3.5 0 0 0 23 26.958984 L 23 28 L 24 28 L 24 26.960938 A 3.5 3.5 0 0 0 25.59375 26.300781 L 26.328125 27.035156 L 27.035156 26.328125 L 26.300781 25.59375 A 3.5 3.5 0 0 0 26.958984 24 L 28 24 L 28 23 L 26.960938 23 A 3.5 3.5 0 0 0 26.300781 21.40625 L 27.035156 20.671875 L 26.328125 19.964844 L 25.59375 20.699219 A 3.5 3.5 0 0 0 24 20.041016 L 24 19 L 23 19 z M 34.5 19 L 30 23.5 L 34.5 28 L 39 23.5 L 34.5 19 z M 11 20 L 16 20 L 16 25 L 14.208984 27 L 11 27 L 11 20 z M 23.5 21 A 2.5 2.5 0 0 1 26 23.5 A 2.5 2.5 0 0 1 23.5 26 A 2.5 2.5 0 0 1 21 23.5 A 2.5 2.5 0 0 1 23.5 21 z M 23.5 22 A 1.5 1.5 0 0 0 22 23.5 A 1.5 1.5 0 0 0 23.5 25 A 1.5 1.5 0 0 0 25 23.5 A 1.5 1.5 0 0 0 23.5 22 z M 9 30 L 9 39 L 18 39 L 18 30 L 9 30 z M 20 30 L 20 39 L 27 39 L 27 30 L 20 30 z M 34.5 30 A 4.5 4.5 0 0 0 30 34.5 A 4.5 4.5 0 0 0 34.5 39 A 4.5 4.5 0 0 0 39 34.5 A 4.5 4.5 0 0 0 34.5 30 z M 13.5 31 A 3.5 3.5 0 0 1 17 34.5 A 3.5 3.5 0 0 1 13.5 38 A 3.5 3.5 0 0 1 10 34.5 A 3.5 3.5 0 0 1 13.5 31 z M 21 31 L 26 31 L 26 32 L 21 32 L 21 31 z M 34.5 31 A 3.5 3.5 0 0 1 38 34.5 A 3.5 3.5 0 0 1 34.5 38 A 3.5 3.5 0 0 1 31 34.5 A 3.5 3.5 0 0 1 34.5 31 z M 34.5 32 A 2.5 2.5 0 0 0 32 34.5 A 2.5 2.5 0 0 0 34.5 37 A 2.5 2.5 0 0 0 37 34.5 A 2.5 2.5 0 0 0 34.5 32 z M 21 33 L 26 33 L 26 34 L 21 34 L 21 33 z M 21 35 L 26 35 L 26 36 L 21 36 L 21 35 z M 21 37 L 26 37 L 26 38 L 21 38 L 21 37 z "
       transform="translate(384.57143,499.798)"
       id="rect821" />
  </g>
</svg>
