<?xml version="1.0" encoding="UTF-8" standalone="no"?>
<svg
   xmlns:dc="http://purl.org/dc/elements/1.1/"
   xmlns:cc="http://creativecommons.org/ns#"
   xmlns:rdf="http://www.w3.org/1999/02/22-rdf-syntax-ns#"
   xmlns:svg="http://www.w3.org/2000/svg"
   xmlns="http://www.w3.org/2000/svg"
   xmlns:xlink="http://www.w3.org/1999/xlink"
   xmlns:sodipodi="http://sodipodi.sourceforge.net/DTD/sodipodi-0.dtd"
   xmlns:inkscape="http://www.inkscape.org/namespaces/inkscape"
   height="48"
   width="48"
   version="1"
   id="svg10"
   sodipodi:docname="nvidia.svg"
   inkscape:version="0.92.1 r15371">
  <metadata
     id="metadata16">
    <rdf:RDF>
      <cc:Work
         rdf:about="">
        <dc:format>image/svg+xml</dc:format>
        <dc:type
           rdf:resource="http://purl.org/dc/dcmitype/StillImage" />
        <dc:title></dc:title>
      </cc:Work>
    </rdf:RDF>
  </metadata>
  <defs
     id="defs14">
    <linearGradient
       inkscape:collect="always"
       id="linearGradient4504">
      <stop
         style="stop-color:#a3e331;stop-opacity:1"
         offset="0"
         id="stop4500" />
      <stop
         style="stop-color:#619504;stop-opacity:1"
         offset="1"
         id="stop4502" />
    </linearGradient>
    <linearGradient
       inkscape:collect="always"
       xlink:href="#linearGradient4504"
       id="linearGradient4506"
       x1="3"
       y1="24.24707"
       x2="18.669922"
       y2="24.24707"
       gradientUnits="userSpaceOnUse" />
    <linearGradient
       inkscape:collect="always"
       xlink:href="#linearGradient4504"
       id="linearGradient4514"
       x1="18"
       y1="24"
       x2="45"
       y2="24"
       gradientUnits="userSpaceOnUse" />
  </defs>
  <sodipodi:namedview
     pagecolor="#ffffff"
     bordercolor="#666666"
     borderopacity="1"
     objecttolerance="10"
     gridtolerance="10"
     guidetolerance="10"
     inkscape:pageopacity="0"
     inkscape:pageshadow="2"
     inkscape:window-width="1600"
     inkscape:window-height="808"
     id="namedview12"
     showgrid="true"
     inkscape:zoom="9.2"
     inkscape:cx="21.833678"
     inkscape:cy="24"
     inkscape:window-x="0"
     inkscape:window-y="0"
     inkscape:window-maximized="1"
     inkscape:current-layer="svg10">
    <inkscape:grid
       type="xygrid"
       id="grid4493" />
  </sodipodi:namedview>
  <path
     style="fill:url(#linearGradient4514);stroke-width:1.39998925;fill-opacity:1.0"
     inkscape:connector-curvature="0"
     id="path4497"
     d="m 7.2911069,22.052967 c 0,0 3.7971911,-5.644617 11.3789731,-6.228553 V 13.77651 c -8.398536,0.678995 -15.6700801,7.84554 -15.6700801,7.84554 0,0 4.118768,11.996368 15.6700801,13.0948 V 32.540146 C 10.193145,31.464955 7.2909669,22.052827 7.2909669,22.052827 Z M 18.67008,28.210959 v 1.993445 c -6.406491,-1.150749 -8.184897,-7.86052 -8.184897,-7.86052 0,0 3.076056,-3.433193 8.184897,-3.989969 v 2.187483 c -0.0032,0 -0.0053,-0.0011 -0.0081,-0.0011 -2.6814,-0.324196 -4.776063,2.199523 -4.776063,2.199523 0,0 1.174059,4.248547 4.785863,5.471298 m 0,-18.21106 v 3.777171 c 0.246524,-0.01886 0.493048,-0.035 0.740916,-0.04351 9.547367,-0.324196 15.768079,7.88922 15.768079,7.88922 0,0 -7.144705,8.753152 -14.587888,8.753152 -0.682201,0 -1.320862,-0.06378 -1.920785,-0.170826 v 2.335742 c 0.512956,0.06552 1.044812,0.104215 1.599768,0.104215 6.926726,0 11.936028,-3.564093 16.785871,-7.7824 0.80421,0.648909 4.096508,2.227523 4.773403,2.918557 -4.611844,3.890151 -15.360682,7.026126 -21.453435,7.026126 -0.587352,0 -1.151449,-0.0358 -1.705887,-0.0897 v 3.282135 H 45 V 10.000122 H 18.671802 Z m 0,8.354716 v -2.529501 c 0.24399,-0.01459 0.489842,-0.03032 0.740916,-0.0384 6.865548,-0.217278 11.369733,5.944215 11.369733,5.944215 0,0 -4.864963,6.807448 -10.081183,6.807448 -0.750702,0 -1.423789,-0.12152 -2.029564,-0.326758 v -7.669561 c 2.672719,0.325385 3.210735,1.514928 4.817503,4.213688 l 3.573753,-3.036157 c 0,0 -2.60874,-3.447194 -7.006527,-3.447194 -0.478026,-1.64e-4 -0.935459,0.03374 -1.384631,0.08191" />
  <path
     style="fill:url(#linearGradient4506);stroke-width:1.39998925;fill-opacity:1"
     d="M 18.669922 13.777344 C 10.271386 14.456339 3 21.621094 3 21.621094 C 3 21.621094 7.1186098 33.618365 18.669922 34.716797 L 18.669922 32.541016 C 10.192987 31.465825 7.2910156 22.052734 7.2910156 22.052734 C 7.2910156 22.052734 11.08814 16.408155 18.669922 15.824219 L 18.669922 13.777344 z M 18.669922 18.353516 C 13.561081 18.910292 10.484375 22.34375 10.484375 22.34375 C 10.484375 22.34375 12.263431 29.054329 18.669922 30.205078 L 18.669922 28.210938 C 15.059489 26.987407 13.886719 22.740234 13.886719 22.740234 C 13.886719 22.740234 15.980709 20.21682 18.662109 20.541016 C 18.664909 20.541016 18.666722 20.541016 18.669922 20.541016 L 18.669922 18.353516 z "
     id="path6" />
  <path
     style="fill:#000000;stroke-width:1.39998925;fill-opacity:1;opacity:0.2"
     d="M 19.412109 12.734375 C 19.164241 12.742885 18.918399 12.758484 18.671875 12.777344 L 18.671875 13.777344 C 18.918399 13.758484 19.164241 13.742885 19.412109 13.734375 C 27.564953 13.457532 33.254824 19.371508 34.753906 21.115234 C 35.01341 20.822067 35.181641 20.623047 35.181641 20.623047 C 35.181641 20.623047 28.959476 12.410179 19.412109 12.734375 z M 18.669922 14.824219 C 11.08814 15.408155 7.2910156 21.052734 7.2910156 21.052734 C 7.2910156 21.052734 7.3888309 21.334602 7.5390625 21.722656 C 8.4617348 20.534923 12.161436 16.325491 18.669922 15.824219 L 18.669922 14.824219 z M 20.056641 17.273438 C 19.578615 17.273273 19.121047 17.307299 18.671875 17.355469 L 18.671875 18.353516 C 19.121047 18.305346 19.578615 18.273273 20.056641 18.273438 C 23.325593 18.273437 25.599354 20.174565 26.554688 21.152344 L 27.0625 20.720703 C 27.0625 20.720703 24.454428 17.273438 20.056641 17.273438 z M 18.166016 19.511719 C 15.726484 19.521854 13.886719 21.740234 13.886719 21.740234 C 13.886719 21.740234 13.966963 22.026992 14.144531 22.466797 C 14.710829 21.874146 16.449452 20.273493 18.662109 20.541016 C 18.664909 20.541016 18.666722 20.541016 18.669922 20.541016 L 18.669922 19.541016 C 18.666722 19.541016 18.664909 19.541016 18.662109 19.541016 C 18.494522 19.520753 18.328651 19.511043 18.166016 19.511719 z M 30.378906 21.240234 C 29.409551 22.504346 25.292189 27.539062 20.701172 27.539062 C 19.95047 27.539062 19.27765 27.416176 18.671875 27.210938 L 18.671875 28.210938 C 19.27765 28.416176 19.95047 28.539062 20.701172 28.539062 C 25.917392 28.539063 30.783203 21.730469 30.783203 21.730469 C 30.783203 21.730469 30.616575 21.521614 30.378906 21.240234 z M 3.296875 21.355469 C 3.248053 21.402051 3 21.621094 3 21.621094 C 3 21.621094 7.1186098 33.618365 18.669922 34.716797 L 18.669922 33.716797 C 8.7884012 32.777148 4.3747498 23.913127 3.296875 21.355469 z M 10.744141 22.091797 C 10.663365 22.173976 10.484375 22.34375 10.484375 22.34375 C 10.484375 22.34375 12.263431 29.054329 18.669922 30.205078 L 18.669922 29.205078 C 13.536102 28.282929 11.400468 23.840073 10.744141 22.091797 z M 37.058594 23.863281 C 32.208751 28.081588 27.19821 31.644531 20.271484 31.644531 C 19.716528 31.644531 19.184831 31.606536 18.671875 31.541016 L 18.671875 32.541016 C 19.184831 32.606536 19.716528 32.644531 20.271484 32.644531 C 27.19821 32.644531 32.208751 29.081588 37.058594 24.863281 C 37.708668 25.38782 39.963909 26.51332 41.169922 27.292969 C 41.397299 27.123853 41.627789 26.953531 41.832031 26.78125 C 41.155136 26.090216 37.862804 24.51219 37.058594 23.863281 z M 18.671875 37 L 18.671875 38 L 45 38 L 45 37 L 18.671875 37 z "
     id="path4516" />
</svg>
