<?xml version="1.0" encoding="UTF-8" standalone="no"?>
<svg
   width="22"
   height="22"
   version="1.1"
   id="svg24"
   sodipodi:docname="weather-clear-wind.svg"
   inkscape:version="1.1.1 (3bf5ae0d25, 2021-09-20, custom)"
   xmlns:inkscape="http://www.inkscape.org/namespaces/inkscape"
   xmlns:sodipodi="http://sodipodi.sourceforge.net/DTD/sodipodi-0.dtd"
   xmlns:xlink="http://www.w3.org/1999/xlink"
   xmlns="http://www.w3.org/2000/svg"
   xmlns:svg="http://www.w3.org/2000/svg">
  <sodipodi:namedview
     id="namedview26"
     pagecolor="#ffffff"
     bordercolor="#666666"
     borderopacity="1.0"
     inkscape:pageshadow="2"
     inkscape:pageopacity="0.0"
     inkscape:pagecheckerboard="0"
     showgrid="false"
     inkscape:zoom="35.590909"
     inkscape:cx="11"
     inkscape:cy="14.371648"
     inkscape:window-width="1920"
     inkscape:window-height="999"
     inkscape:window-x="0"
     inkscape:window-y="0"
     inkscape:window-maximized="1"
     inkscape:current-layer="svg24" />
  <defs
     id="defs14">
    <linearGradient
       id="0">
      <stop
         stop-color="#faffa5"
         id="stop2" />
      <stop
         offset="1"
         stop-color="#edf573"
         id="stop4" />
    </linearGradient>
    <linearGradient
       id="1">
      <stop
         stop-color="#f0ff01"
         id="stop7" />
      <stop
         offset="1"
         stop-color="#ff9701"
         id="stop9" />
    </linearGradient>
    <linearGradient
       xlink:href="#1"
       id="2"
       y1="502.798"
       x2="0"
       y2="582.79797"
       gradientUnits="userSpaceOnUse"
       gradientTransform="matrix(0.45000029,0,0,0.45000029,-172.85724,-224.70924)" />
    <linearGradient
       xlink:href="#0"
       id="3"
       y1="507.798"
       x2="0"
       y2="547.79797"
       gradientUnits="userSpaceOnUse"
       gradientTransform="matrix(0.41176387,0,0,0.41176387,-157.23493,-204.68107)" />
  </defs>
  <metadata
     id="metadata16" />
  <rect
     width="18"
     height="18.00001"
     x="1.9999971"
     y="1.9999982"
     ry="9"
     fill="url(#2)"
     rx="9"
     id="rect18"
     style="fill:url(#2);stroke-width:0.449999" />
  <rect
     width="14"
     height="14.00001"
     x="4.0000005"
     y="4.0000014"
     fill="url(#3)"
     rx="7.0000024"
     id="rect20"
     style="fill:url(#3);stroke-width:0.411761" />
  <path
     id="rect854"
     style="fill:#3daee9;fill-opacity:1;stroke-width:0.5;stroke-linejoin:round"
     d="M 13 10 C 11.895432 10 11 10.895431 11 12 L 12 12 C 12 11.447714 12.447714 11 13 11 C 13.552286 11 14 11.447714 14 12 C 14 12.552283 13.552283 13 13 13 L 9 13 L 9 14 L 13 14 C 14.104569 14 15 13.104569 15 12 C 15 10.895428 14.104572 10 13 10 z M 18 12 C 16.895431 12 16 12.895431 16 14 L 17 14 C 17 13.447715 17.447715 13 18 13 C 18.552285 13 19 13.447715 19 14 C 19 14.552285 18.552285 15 18 15 L 8 15 L 8 16 L 18 16 C 19.104569 16 20 15.104569 20 14 C 20 12.895431 19.104569 12 18 12 z M 10 17 L 10 18 L 16 18 C 16.552286 18 17 18.447714 17 19 C 17 19.552286 16.552286 20 16 20 C 15.447717 20 15 19.552282 15 19 L 14 19 C 14 20.104568 14.895431 21 16 21 C 17.104572 21 18 20.104572 18 19 C 18 17.895431 17.104569 17 16 17 L 10 17 z " />
</svg>
