<?xml version="1.0" encoding="UTF-8" standalone="no"?>
<svg
   xmlns:dc="http://purl.org/dc/elements/1.1/"
   xmlns:cc="http://creativecommons.org/ns#"
   xmlns:rdf="http://www.w3.org/1999/02/22-rdf-syntax-ns#"
   xmlns:svg="http://www.w3.org/2000/svg"
   xmlns="http://www.w3.org/2000/svg"
   xmlns:sodipodi="http://sodipodi.sourceforge.net/DTD/sodipodi-0.dtd"
   xmlns:inkscape="http://www.inkscape.org/namespaces/inkscape"
   height="16"
   width="16"
   version="1.1"
   id="svg2"
   sodipodi:docname="gser-icon-playing-symbolic.svg"
   inkscape:version="0.92.1 r15371">
  <metadata
     id="metadata9">
    <rdf:RDF>
      <cc:Work
         rdf:about="">
        <dc:format>image/svg+xml</dc:format>
        <dc:type
           rdf:resource="http://purl.org/dc/dcmitype/StillImage" />
        <dc:title></dc:title>
      </cc:Work>
    </rdf:RDF>
  </metadata>
  <sodipodi:namedview
     pagecolor="#ffffff"
     bordercolor="#666666"
     borderopacity="1"
     objecttolerance="10"
     gridtolerance="10"
     guidetolerance="10"
     inkscape:pageopacity="0"
     inkscape:pageshadow="2"
     inkscape:window-width="1600"
     inkscape:window-height="808"
     id="namedview7"
     showgrid="false"
     inkscape:zoom="13.2"
     inkscape:cx="8.284783"
     inkscape:cy="10.627119"
     inkscape:window-x="0"
     inkscape:window-y="0"
     inkscape:window-maximized="1"
     inkscape:current-layer="svg2" />
  <defs
     id="defs10">
    <style
       type="text/css"
       id="current-color-scheme">
   .ColorScheme-Text { color:#232627; } .ColorScheme-Highlight { color:#3daee9; }
  </style>
  </defs>
  <path
     style="display:inline;opacity:1;fill:#232627;fill-opacity:1;stroke:none"
     d="M 6.7070303,-4.9999999e-8 6,0.70699995 10.29297,5 H -1.5e-7 V 16 H 16 V 5 H 11.70703 Z M 0.99999985,6 H 11.29297 12.70703 15 v 9 H 0.99999985 Z M 5.4999998,7 c -1.9329965,1e-7 -3.4999999,1.5670031 -3.5,3.5 10e-8,1.932997 1.5670035,3.5 3.5,3.5 1.9329968,0 3.5000004,-1.567003 3.5000004,-3.5 0,-1.9329969 -1.5670036,-3.5000002 -3.5000004,-3.5 z m 0,1.0000001 c 1.3807119,0 2.5,1.119288 2.5,2.4999999 0,1.380712 -1.1192881,2.5 -2.5,2.5 C 4.119288,13 2.9999999,11.880712 2.9999999,10.5 3,9.1192881 4.119288,8.0000001 5.4999998,8.0000001 Z m 3.5000004,0 v 1 H 14 v -1 z m 0,1.9999999 v 1 H 14 v -1 z m 0,2 v 1 H 14 v -1 z"
     id="rect4703"
     inkscape:connector-curvature="0"
     sodipodi:nodetypes="ccccccccccccccccssssssssssccccccccccccccc" />
</svg>
