<?xml version="1.0" encoding="UTF-8" standalone="no"?>
<!-- Created with Inkscape (http://www.inkscape.org/) -->

<svg
   id="svg7384"
   height="16"
   width="16"
   version="1.1"
   sodipodi:docname="network-wireless-connected-symbolic.svg"
   inkscape:version="1.1.1 (3bf5ae0d25, 2021-09-20, custom)"
   xmlns:inkscape="http://www.inkscape.org/namespaces/inkscape"
   xmlns:sodipodi="http://sodipodi.sourceforge.net/DTD/sodipodi-0.dtd"
   xmlns="http://www.w3.org/2000/svg"
   xmlns:svg="http://www.w3.org/2000/svg"
   xmlns:rdf="http://www.w3.org/1999/02/22-rdf-syntax-ns#"
   xmlns:cc="http://creativecommons.org/ns#"
   xmlns:dc="http://purl.org/dc/elements/1.1/">
  <defs
     id="defs14" />
  <sodipodi:namedview
     pagecolor="#ffffff"
     bordercolor="#666666"
     borderopacity="1"
     objecttolerance="10"
     gridtolerance="10"
     guidetolerance="10"
     inkscape:pageopacity="0"
     inkscape:pageshadow="2"
     inkscape:window-width="1920"
     inkscape:window-height="1019"
     id="namedview12"
     showgrid="true"
     inkscape:zoom="18.16"
     inkscape:cx="3.6343612"
     inkscape:cy="6.8281938"
     inkscape:window-x="0"
     inkscape:window-y="0"
     inkscape:window-maximized="1"
     inkscape:current-layer="svg7384"
     inkscape:pagecheckerboard="0">
    <inkscape:grid
       type="xygrid"
       id="grid4508" />
  </sodipodi:namedview>
  <metadata
     id="metadata90">
    <rdf:RDF>
      <cc:Work
         rdf:about="">
        <dc:format>image/svg+xml</dc:format>
        <dc:type
           rdf:resource="http://purl.org/dc/dcmitype/StillImage" />
        <dc:title>Gnome Symbolic Icon Theme</dc:title>
      </cc:Work>
    </rdf:RDF>
  </metadata>
  <title
     id="title9167">Gnome Symbolic Icon Theme</title>
  <path
     id="path4477"
     style="color:#31363b;opacity:0.5;fill:#232627;fill-opacity:1;stroke:none"
     d="M 15.797923,5.2531269 C 13.809673,3.264876 11.058462,2.0380003 8.011462,2.038 4.964462,2.0380002 2.2132498,3.2648772 0.225,5.2531267 L 0.932107,5.9602334 C 2.7396068,4.1527236 5.241462,3.0378942 8.011462,3.0378932 c 2.77,2e-7 5.271845,1.1148298 7.079354,2.9223404 z M 12.966734,8.0566948 C 11.701484,6.7914443 9.950462,6.0099517 8.011462,6.0099518 c -1.939,-10e-8 -3.6900221,0.7814929 -4.955272,2.046742 l 0.708488,0.708488 c 1.0845,-1.084499 2.584784,-1.755337 4.246784,-1.755337 1.662,0 3.162285,0.670838 4.246784,1.755338 z M 10.537436,10.485993 C 9.148955,9.0963688 6.897751,9.0926618 5.5048236,10.477693 L 6.213311,11.18618 c 1.001342,-0.993436 2.61725,-0.990968 3.615636,0.0055 l 0.0014,0.0014 z" />
  <circle
     style="opacity:1;fill:#242628;fill-opacity:0.895224;stroke-width:2"
     id="path849"
     cx="8"
     cy="12.999826"
     r="1" />
</svg>
