<?xml version="1.0" encoding="UTF-8" standalone="no"?>
<svg
   xmlns:dc="http://purl.org/dc/elements/1.1/"
   xmlns:cc="http://creativecommons.org/ns#"
   xmlns:rdf="http://www.w3.org/1999/02/22-rdf-syntax-ns#"
   xmlns:svg="http://www.w3.org/2000/svg"
   xmlns="http://www.w3.org/2000/svg"
   xmlns:sodipodi="http://sodipodi.sourceforge.net/DTD/sodipodi-0.dtd"
   xmlns:inkscape="http://www.inkscape.org/namespaces/inkscape"
   viewBox="0 0 16 16"
   version="1.1"
   id="svg6"
   sodipodi:docname="security-high-symbolic.svg"
   inkscape:version="0.92.1 r15371">
  <metadata
     id="metadata10">
    <rdf:RDF>
      <cc:Work
         rdf:about="">
        <dc:format>image/svg+xml</dc:format>
        <dc:type
           rdf:resource="http://purl.org/dc/dcmitype/StillImage" />
        <dc:title></dc:title>
      </cc:Work>
    </rdf:RDF>
  </metadata>
  <sodipodi:namedview
     pagecolor="#ffffff"
     bordercolor="#666666"
     borderopacity="1"
     objecttolerance="10"
     gridtolerance="10"
     guidetolerance="10"
     inkscape:pageopacity="0"
     inkscape:pageshadow="2"
     inkscape:window-width="1600"
     inkscape:window-height="808"
     id="namedview8"
     showgrid="true"
     inkscape:zoom="14.75"
     inkscape:cx="-5.8644068"
     inkscape:cy="8"
     inkscape:window-x="0"
     inkscape:window-y="0"
     inkscape:window-maximized="1"
     inkscape:current-layer="svg6">
    <inkscape:grid
       type="xygrid"
       id="grid4493" />
  </sodipodi:namedview>
  <defs
     id="defs3051">
    <style
       type="text/css"
       id="current-color-scheme">
      .ColorScheme-Text {
        color:#232627;
      }
      </style>
  </defs>
  <path
     style="fill:#232627;fill-opacity:1;stroke:none;stroke-width:1.33333337"
     d="M 8 0 C 8 0 6 2.3333 0 3 C 0 3 0 12.6581 8 16 C 16 12.6581 16 3 16 3 C 10 2.3333 8 1.4802974e-16 8 0 z M 8 1.203125 C 8.3163266 1.4874767 8.4223851 1.6757957 9.2792969 2.1328125 C 10.480959 2.7736949 12.401116 3.413254 14.935547 3.8046875 C 14.813418 5.6596756 13.960801 12.071702 8 14.855469 C 2.0391992 12.071702 1.1865815 5.6596756 1.0644531 3.8046875 C 3.5988836 3.413254 5.5190411 2.7736949 6.7207031 2.1328125 C 7.5776149 1.6757957 7.6836734 1.4874767 8 1.203125 z "
     id="path4491" />
  <path
     style="fill:#232627;fill-opacity:1;stroke:none;stroke-width:1.33333337"
     d="M 8 2.4199219 C 7.6475105 2.6822836 7.7064533 2.740935 7.1914062 3.015625 C 6.0582012 3.6199973 4.2982325 4.1789591 2.1699219 4.5996094 C 2.5163419 6.9976025 3.764694 11.463275 8 13.707031 C 12.235306 11.463275 13.483658 6.9976025 13.830078 4.5996094 C 11.701767 4.1789591 9.9417988 3.6199973 8.8085938 3.015625 C 8.2935466 2.740935 8.3524895 2.6822836 8 2.4199219 z "
     id="path4500" />
</svg>
