<?xml version="1.0" encoding="UTF-8" standalone="no"?>
<!-- Created with Inkscape (http://www.inkscape.org/) -->

<svg
   xmlns:dc="http://purl.org/dc/elements/1.1/"
   xmlns:cc="http://creativecommons.org/ns#"
   xmlns:rdf="http://www.w3.org/1999/02/22-rdf-syntax-ns#"
   xmlns:svg="http://www.w3.org/2000/svg"
   xmlns="http://www.w3.org/2000/svg"
   xmlns:sodipodi="http://sodipodi.sourceforge.net/DTD/sodipodi-0.dtd"
   xmlns:inkscape="http://www.inkscape.org/namespaces/inkscape"
   id="svg7384"
   height="16"
   width="16"
   version="1.1"
   sodipodi:docname="weather-few-clouds-night-symbolic.svg"
   inkscape:version="0.92.1 r15371">
  <defs
     id="defs12" />
  <sodipodi:namedview
     pagecolor="#ffffff"
     bordercolor="#666666"
     borderopacity="1"
     objecttolerance="10"
     gridtolerance="10"
     guidetolerance="10"
     inkscape:pageopacity="0"
     inkscape:pageshadow="2"
     inkscape:window-width="1600"
     inkscape:window-height="808"
     id="namedview10"
     showgrid="false"
     inkscape:zoom="14.75"
     inkscape:cx="-5.8644068"
     inkscape:cy="8"
     inkscape:window-x="0"
     inkscape:window-y="0"
     inkscape:window-maximized="1"
     inkscape:current-layer="svg7384" />
  <metadata
     id="metadata90">
    <rdf:RDF>
      <cc:Work
         rdf:about="">
        <dc:format>image/svg+xml</dc:format>
        <dc:type
           rdf:resource="http://purl.org/dc/dcmitype/StillImage" />
        <dc:title>Gnome Symbolic Icon Theme</dc:title>
      </cc:Work>
    </rdf:RDF>
  </metadata>
  <title
     id="title9167">Gnome Symbolic Icon Theme</title>
  <path
     inkscape:connector-curvature="0"
     style="fill:#232627;fill-opacity:1"
     d="m 6.7396228,0.0312498 c -2.7627798,0.10144 -5.3086999,1.8045801 -6.31249987,4.5625 -1.26383,3.4723397 0.36866999,7.3245702 3.68749997,8.8125002 -0.0932,-0.33746 -0.14688,-0.70692 -0.125,-1.0625 0.0277,-1.00125 0.58397,-1.88737 1.375,-2.468751 -1.56688,-1.7331895 -2.13559,-4.2464591 -1.28125,-6.5937491 0.51416,-1.41265 1.4744401,-2.50836 2.6562499,-3.2500001 z m 3.2499997,7.9687497 c -1.3116797,0 -2.4048197,0.8584299 -2.8124997,2.0312495 C 5.9462931,10.18722 4.9896229,11.22682 4.9896229,12.5 c 0,1.38071 1.1192899,2.5 2.4999999,2.5 h 5.5000012 c 1.10457,0 2,-0.89543 2,-2 0,-1.10457 -0.89543,-2 -2,-2 0,-1.656851 -1.34315,-3.0000005 -3.0000015,-3.0000005 z m 0,1 c 1.1164085,0 2.0000015,0.8835935 2.0000015,2.0000005 v 1 h 1 c 0.564131,0 1,0.43587 1,1 0,0.564131 -0.435869,1 -1,1 H 7.4896228 c -0.840268,0 -1.5,-0.659731 -1.5,-1.5 0,-0.772245 0.567352,-1.382137 1.3125,-1.476562 l 0.615235,-0.07813 0.205078,-0.585938 C 8.3977778,9.56726 9.1142438,8.9999944 9.9896225,8.9999944 Z"
     id="path4492" />
</svg>
