<?xml version="1.0" encoding="UTF-8" standalone="no"?>
<!-- Created with Inkscape (http://www.inkscape.org/) -->

<svg
   width="22"
   height="22"
   viewBox="0 0 5.8208332 5.8208335"
   version="1.1"
   id="svg880"
   inkscape:version="1.1 (c4e8f9ed74, 2021-05-24)"
   sodipodi:docname="system-file-manager.svg"
   xmlns:inkscape="http://www.inkscape.org/namespaces/inkscape"
   xmlns:sodipodi="http://sodipodi.sourceforge.net/DTD/sodipodi-0.dtd"
   xmlns:xlink="http://www.w3.org/1999/xlink"
   xmlns="http://www.w3.org/2000/svg"
   xmlns:svg="http://www.w3.org/2000/svg">
  <sodipodi:namedview
     id="namedview882"
     pagecolor="#ffffff"
     bordercolor="#666666"
     borderopacity="1.0"
     inkscape:pageshadow="2"
     inkscape:pageopacity="0.0"
     inkscape:pagecheckerboard="0"
     inkscape:document-units="px"
     showgrid="false"
     units="px"
     inkscape:lockguides="true"
     inkscape:zoom="9.3409091"
     inkscape:cx="39.182482"
     inkscape:cy="5.1386861"
     inkscape:window-width="1920"
     inkscape:window-height="1018"
     inkscape:window-x="0"
     inkscape:window-y="32"
     inkscape:window-maximized="1"
     inkscape:current-layer="layer1" />
  <defs
     id="defs877">
    <linearGradient
       inkscape:collect="always"
       id="linearGradient6749">
      <stop
         style="stop-color:#232629;stop-opacity:1;"
         offset="0"
         id="stop6745" />
      <stop
         style="stop-color:#232629;stop-opacity:0;"
         offset="1"
         id="stop6747" />
    </linearGradient>
    <linearGradient
       inkscape:collect="always"
       id="linearGradient1845">
      <stop
         style="stop-color:#95d0ff;stop-opacity:1;"
         offset="0"
         id="stop1841" />
      <stop
         style="stop-color:#eff8ff;stop-opacity:1"
         offset="1"
         id="stop1843" />
    </linearGradient>
    <linearGradient
       inkscape:collect="always"
       id="linearGradient1056">
      <stop
         style="stop-color:#05abff;stop-opacity:1;"
         offset="0"
         id="stop1052" />
      <stop
         style="stop-color:#2ad1ff;stop-opacity:1"
         offset="1"
         id="stop1054" />
    </linearGradient>
    <linearGradient
       inkscape:collect="always"
       xlink:href="#linearGradient1056"
       id="linearGradient1058"
       x1="0.79326189"
       y1="0.5291667"
       x2="0.79492694"
       y2="4.5585613"
       gradientUnits="userSpaceOnUse"
       gradientTransform="matrix(1.0000414,0,0,1.0000414,-2.2889836e-5,-2.1112763e-4)" />
    <linearGradient
       inkscape:collect="always"
       xlink:href="#linearGradient1845"
       id="linearGradient1847"
       x1="4.9285822"
       y1="0.50426149"
       x2="4.9316425"
       y2="3.8369749"
       gradientUnits="userSpaceOnUse"
       gradientTransform="scale(3.7795275)" />
    <linearGradient
       inkscape:collect="always"
       xlink:href="#linearGradient6749"
       id="linearGradient6751"
       x1="1.724511"
       y1="1.758685"
       x2="3.190424"
       y2="3.2995734"
       gradientUnits="userSpaceOnUse" />
  </defs>
  <g
     inkscape:label="Layer 1"
     inkscape:groupmode="layer"
     id="layer1">
    <path
       id="rect23"
       style="fill:url(#linearGradient1058);stroke-width:0.264623"
       d="M 0.79308363,0.52916667 H 5.0277497 c 0.14621,0 0.263917,0.11770696 0.263917,0.26391697 V 5.0277497 c 0,0.1462101 -0.117707,0.2639171 -0.263917,0.2639171 H 0.79308363 c -0.14621,0 -0.26391696,-0.117707 -0.26391696,-0.2639171 V 0.79308364 c 0,-0.14621001 0.11770696,-0.26391697 0.26391696,-0.26391697 z" />
    <rect
       style="opacity:1;fill:#232629;fill-opacity:1;stroke-width:3.67065"
       id="rect5800"
       width="0.26458332"
       height="0.79374999"
       x="1.5875"
       y="1.5875" />
    <path
       id="rect6468"
       style="opacity:0.3;fill:url(#linearGradient6751);fill-opacity:1;stroke-width:5.71782"
       d="M 2.2698892,2.8227902 H 3.5928058 V 4.1457068 Z"
       sodipodi:nodetypes="cccc" />
    <path
       id="rect1615"
       style="opacity:1;fill:url(#linearGradient1847);stroke-width:34.5577"
       d="M 11,2 C 8.6510312,5.5219038 8.3339844,9.9980469 8.3339844,9.9980469 c 0,0 -0.097302,0.7032411 0.7938832,1.0019531 H 11 c 0.07144,5.158448 1,9 1,9 h 7.001953 C 19.554558,20 20,19.554558 20,19.001953 V 2.9980469 C 20,2.4454421 19.554558,2 19.001953,2 Z"
       transform="scale(0.26458333)"
       sodipodi:nodetypes="cccccssssc" />
    <path
       id="path4847"
       style="opacity:1;fill:#232629;fill-opacity:1;stroke-width:17.6392"
       d="M 14.980469,14.417969 A 4.9999997,3.9999999 0 0 1 11,16 4.9999997,3.9999999 0 0 1 7.0332031,14.431641 l -0.703125,0.703125 A 6,4.9999997 0 0 0 11,17 6,4.9999997 0 0 0 15.685547,15.123047 Z"
       transform="scale(0.26458333)" />
    <rect
       style="fill:#232629;fill-opacity:1;stroke-width:3.67065"
       id="rect5800-1"
       width="0.26458332"
       height="0.79374999"
       x="3.96875"
       y="1.5875" />
    <path
       style="color:#000000;clip-rule:nonzero;display:inline;overflow:visible;visibility:visible;opacity:0.3;isolation:auto;mix-blend-mode:normal;color-interpolation:sRGB;color-interpolation-filters:linearRGB;solid-color:#000000;solid-opacity:1;fill:#ffffff;fill-opacity:1;fill-rule:nonzero;stroke-width:0.264612;stroke-linecap:butt;stroke-linejoin:miter;stroke-miterlimit:4;stroke-dasharray:none;stroke-dashoffset:0;stroke-opacity:1;color-rendering:auto;image-rendering:auto;shape-rendering:auto;text-rendering:auto;enable-background:accumulate"
       d="m 0.79326187,0.52916667 c -0.1462,0 -0.2640952,0.1178913 -0.2640952,0.2640953 V 1.057874 c 0,-0.14620403 0.1178952,-0.26409533 0.2640952,-0.26409533 H 5.0275715 c 0.1461999,0 0.2640952,0.1178913 0.2640952,0.26409533 V 0.79326197 c 0,-0.146204 -0.1178953,-0.2640953 -0.2640952,-0.2640953 z"
       id="rect7776" />
    <path
       id="path7790"
       d="m 0.79326187,5.2916667 c -0.1462,0 -0.2640952,-0.1178847 -0.2640952,-0.2640828 V 4.7629718 c 0,0.1461982 0.1178952,0.2640829 0.2640952,0.2640829 H 5.0275715 c 0.1461999,0 0.2640952,-0.1178847 0.2640952,-0.2640829 v 0.2646121 c 0,0.1461981 -0.1178953,0.2640828 -0.2640952,0.2640828 z"
       style="color:#000000;clip-rule:nonzero;display:inline;overflow:visible;visibility:visible;opacity:0.3;isolation:auto;mix-blend-mode:normal;color-interpolation:sRGB;color-interpolation-filters:linearRGB;solid-color:#000000;solid-opacity:1;fill:#f2f2f2;fill-opacity:1;fill-rule:nonzero;stroke-width:0.264612;stroke-linecap:butt;stroke-linejoin:miter;stroke-miterlimit:4;stroke-dasharray:none;stroke-dashoffset:0;stroke-opacity:1;color-rendering:auto;image-rendering:auto;shape-rendering:auto;text-rendering:auto;enable-background:accumulate"
       inkscape:connector-curvature="0" />
  </g>
</svg>
