<?xml version="1.0" encoding="UTF-8" standalone="no"?>
<svg
   xmlns:dc="http://purl.org/dc/elements/1.1/"
   xmlns:cc="http://creativecommons.org/ns#"
   xmlns:rdf="http://www.w3.org/1999/02/22-rdf-syntax-ns#"
   xmlns:svg="http://www.w3.org/2000/svg"
   xmlns="http://www.w3.org/2000/svg"
   xmlns:sodipodi="http://sodipodi.sourceforge.net/DTD/sodipodi-0.dtd"
   xmlns:inkscape="http://www.inkscape.org/namespaces/inkscape"
   width="22"
   height="22"
   version="1.1"
   id="svg9"
   sodipodi:docname="fcitx-anthy-panel.svg"
   inkscape:version="0.92.3 (2405546, 2018-03-11)">
  <metadata
     id="metadata13">
    <rdf:RDF>
      <cc:Work
         rdf:about="">
        <dc:format>image/svg+xml</dc:format>
        <dc:type
           rdf:resource="http://purl.org/dc/dcmitype/StillImage" />
      </cc:Work>
    </rdf:RDF>
  </metadata>
  <sodipodi:namedview
     pagecolor="#ffffff"
     bordercolor="#666666"
     borderopacity="1"
     objecttolerance="10"
     gridtolerance="10"
     guidetolerance="10"
     inkscape:pageopacity="0"
     inkscape:pageshadow="2"
     inkscape:window-width="1920"
     inkscape:window-height="1020"
     id="namedview11"
     showgrid="true"
     inkscape:zoom="18.68"
     inkscape:cx="11"
     inkscape:cy="11"
     inkscape:window-x="0"
     inkscape:window-y="30"
     inkscape:window-maximized="1"
     inkscape:current-layer="svg9">
    <inkscape:grid
       type="xygrid"
       id="grid833" />
  </sodipodi:namedview>
  <defs
     id="defs3">
    <style
       id="current-color-scheme"
       type="text/css">
   .ColorScheme-Text { color:#eff0f1; } .ColorScheme-Highlight { color:#3daee9; }
  </style>
  </defs>
  <path
     style="fill:#eff0f1;fill-opacity:1"
     d="M 5 3 C 3.892 3 3 3.892 3 5 L 3 17 C 3 18.108 3.892 19 5 19 L 17 19 C 18.108 19 19 18.108 19 17 L 19 5 C 19 3.892 18.108 3 17 3 L 5 3 z M 5 4 L 17 4 C 17.571297 4 18 4.4287028 18 5 L 18 17 C 18 17.571297 17.571297 18 17 18 L 5 18 C 4.4287028 18 4 17.571297 4 17 L 4 5 C 4 4.4287028 4.4287028 4 5 4 z M 9.3339844 5 L 8.9453125 6.9335938 C 7.9321125 6.9652937 6.9591 6.9758688 6 6.9804688 L 6 8.0117188 L 8.6660156 8.0117188 C 8.2216156 9.9747187 7.7039281 12.438191 7.1113281 13.400391 L 8.1113281 14.177734 C 9.4447281 12.880834 10.669 12.234375 12.1875 12.234375 C 12.9653 12.234375 13.556844 12.418662 13.964844 12.789062 C 14.371844 13.121963 14.576172 13.584734 14.576172 14.177734 C 14.576172 14.843734 14.261812 14.944344 13.632812 15.277344 C 13.039812 15.574344 12.150044 15.722656 10.964844 15.722656 C 9.8385437 15.722656 8.9443 15.689047 8 15.498047 L 8 16.945312 C 9.1191 17.006312 10.053972 17 11.076172 17 C 12.705772 17 13.929141 16.740656 14.744141 16.222656 C 15.596141 15.666656 16 15.251734 16 14.177734 C 16 13.251734 15.688484 12.492991 15.021484 11.900391 C 14.355484 11.307791 13.41 11.011719 12.1875 11.011719 C 11.2245 11.011719 10.258972 11.474491 8.8886719 12.400391 L 8.7773438 12.345703 C 9.2588438 11.271603 9.6490125 9.2397875 9.9453125 8.0546875 C 12.904613 7.9216875 14.832 7.9884688 16 7.8554688 L 16 6.5761719 C 14.609 6.7398719 12.729656 6.8749625 10.222656 6.9765625 C 10.407756 6.1247625 10.537328 5.5556 10.611328 5 L 9.3339844 5 z "
     id="path822" />
</svg>
