<?xml version="1.0" encoding="UTF-8" standalone="no"?>
<svg
   xmlns:dc="http://purl.org/dc/elements/1.1/"
   xmlns:cc="http://creativecommons.org/ns#"
   xmlns:rdf="http://www.w3.org/1999/02/22-rdf-syntax-ns#"
   xmlns:svg="http://www.w3.org/2000/svg"
   xmlns="http://www.w3.org/2000/svg"
   xmlns:xlink="http://www.w3.org/1999/xlink"
   xmlns:sodipodi="http://sodipodi.sourceforge.net/DTD/sodipodi-0.dtd"
   xmlns:inkscape="http://www.inkscape.org/namespaces/inkscape"
   height="48"
   width="48"
   version="1"
   id="svg14"
   sodipodi:docname="accessories-dictionary.svg"
   inkscape:version="0.92.1 r15371">
  <metadata
     id="metadata20">
    <rdf:RDF>
      <cc:Work
         rdf:about="">
        <dc:format>image/svg+xml</dc:format>
        <dc:type
           rdf:resource="http://purl.org/dc/dcmitype/StillImage" />
        <dc:title />
      </cc:Work>
    </rdf:RDF>
  </metadata>
  <defs
     id="defs18">
    <linearGradient
       inkscape:collect="always"
       id="linearGradient4775">
      <stop
         style="stop-color:#090501;stop-opacity:1;"
         offset="0"
         id="stop4771" />
      <stop
         style="stop-color:#090501;stop-opacity:0;"
         offset="1"
         id="stop4773" />
    </linearGradient>
    <linearGradient
       inkscape:collect="always"
       id="linearGradient4753">
      <stop
         style="stop-color:#7f4799;stop-opacity:1"
         offset="0"
         id="stop4749" />
      <stop
         style="stop-color:#b18ac4;stop-opacity:1"
         offset="1"
         id="stop4751" />
    </linearGradient>
    <linearGradient
       inkscape:collect="always"
       id="linearGradient4508">
      <stop
         style="stop-color:#ffffff;stop-opacity:1;"
         offset="0"
         id="stop4504" />
      <stop
         style="stop-color:#e8e8e8;stop-opacity:1"
         offset="1"
         id="stop4506" />
    </linearGradient>
    <linearGradient
       inkscape:collect="always"
       xlink:href="#linearGradient4508"
       id="linearGradient4510"
       x1="24"
       y1="24"
       x2="43"
       y2="24"
       gradientUnits="userSpaceOnUse" />
    <linearGradient
       inkscape:collect="always"
       xlink:href="#linearGradient4508"
       id="linearGradient4514"
       gradientUnits="userSpaceOnUse"
       x1="24"
       y1="24"
       x2="43"
       y2="24"
       gradientTransform="translate(-19)" />
    <linearGradient
       inkscape:collect="always"
       xlink:href="#linearGradient4543"
       id="linearGradient4545"
       x1="12"
       y1="18.691"
       x2="12.413043"
       y2="4.2391305"
       gradientUnits="userSpaceOnUse"
       gradientTransform="translate(8,1.0000153)" />
    <linearGradient
       inkscape:collect="always"
       id="linearGradient4543">
      <stop
         style="stop-color:#d73733;stop-opacity:1"
         offset="0"
         id="stop4539" />
      <stop
         style="stop-color:#f88885;stop-opacity:1"
         offset="1"
         id="stop4541" />
    </linearGradient>
    <linearGradient
       id="b"
       y1="4"
       x1="8"
       y2="24.613508"
       gradientUnits="userSpaceOnUse"
       x2="28.613508"
       gradientTransform="translate(7.9999995,-1)">
      <stop
         stop-color="#292c2f"
         id="stop7" />
      <stop
         offset="1"
         stop-opacity="0"
         id="stop9" />
    </linearGradient>
    <linearGradient
       inkscape:collect="always"
       xlink:href="#linearGradient4753"
       id="linearGradient4755"
       x1="20.073172"
       y1="43.887428"
       x2="20.073172"
       y2="3.7373359"
       gradientUnits="userSpaceOnUse" />
    <linearGradient
       inkscape:collect="always"
       xlink:href="#linearGradient4775"
       id="linearGradient4777"
       x1="26"
       y1="23"
       x2="44.520638"
       y2="41.520638"
       gradientUnits="userSpaceOnUse" />
  </defs>
  <sodipodi:namedview
     pagecolor="#ffffff"
     bordercolor="#666666"
     borderopacity="1"
     objecttolerance="10"
     gridtolerance="10"
     guidetolerance="10"
     inkscape:pageopacity="0"
     inkscape:pageshadow="2"
     inkscape:window-width="1600"
     inkscape:window-height="808"
     id="namedview16"
     showgrid="false"
     inkscape:zoom="10.66"
     inkscape:cx="-1.8449269"
     inkscape:cy="24"
     inkscape:window-x="0"
     inkscape:window-y="0"
     inkscape:window-maximized="1"
     inkscape:current-layer="svg14" />
  <polygon
     fill="#5a0e00"
     display="none"
     points="688.5 578 676.5 569.5 693.5 560.5 693.5 540 732.5 497.5 664 430.5 588 333 517.5 214 500 192 386 355 328 328 304 332.5 299.5 366 318.5 403.5 338 431 309.5 462 275.5 507 300 533 304 551 318.5 569.5 340.5 583 351.5 604.5 373.5 617 395 637.5 452.5 723 488.5 788.5 502 812.5 551.5 721.5 612.5 637 628.5 616 668 619.5 707 615 713 603"
     transform="matrix(.063142 0 0 .063142 -131 -8.0295)"
     id="polygon2" />
  <rect
     style="opacity:1;vector-effect:none;fill:url(#linearGradient4755);fill-opacity:1;stroke:none;stroke-width:1.78936052;stroke-linecap:round;stroke-linejoin:round;stroke-miterlimit:4;stroke-dasharray:none;stroke-dashoffset:0;stroke-opacity:1"
     id="rect4497"
     width="42"
     height="40"
     x="3"
     y="4"
     ry="2"
     rx="2" />
  <path
     style="opacity:0.2;vector-effect:none;fill:url(#linearGradient4777);fill-opacity:1;stroke:none;stroke-width:2;stroke-linecap:round;stroke-linejoin:round;stroke-miterlimit:4;stroke-dasharray:none;stroke-dashoffset:0;stroke-opacity:1"
     d="M 43 6 L 37.427734 11.572266 L 5 42 L 7 44 L 43 44 C 44.108 44 45 43.108 45 42 L 45 19.693359 L 44.923828 19.068359 L 45 18.992188 L 45 8 L 43 6 z "
     id="rect4762" />
  <path
     id="path4502"
     d="M 24,6 H 43 V 42 H 24 Z"
     style="opacity:1;vector-effect:none;fill:url(#linearGradient4510);fill-opacity:1;stroke:none;stroke-width:1.61467934;stroke-linecap:round;stroke-linejoin:round;stroke-miterlimit:4;stroke-dasharray:none;stroke-dashoffset:0;stroke-opacity:1"
     inkscape:connector-curvature="0"
     sodipodi:nodetypes="ccccc" />
  <path
     sodipodi:nodetypes="ccccc"
     inkscape:connector-curvature="0"
     style="opacity:1;vector-effect:none;fill:url(#linearGradient4514);fill-opacity:1;stroke:none;stroke-width:1.61467934;stroke-linecap:round;stroke-linejoin:round;stroke-miterlimit:4;stroke-dasharray:none;stroke-dashoffset:0;stroke-opacity:1"
     d="M 5,6 H 24 V 42 H 5 Z"
     id="path4512" />
  <g
     id="g4651">
    <rect
       id="rect45"
       width="8"
       x="7"
       y="15"
       height="1"
       style="fill:#bcbcbc;fill-rule:evenodd" />
    <rect
       id="rect47"
       width="5"
       x="16"
       y="15"
       height="1"
       style="fill:#bcbcbc;fill-rule:evenodd" />
    <rect
       id="rect49"
       width="6"
       x="7"
       y="17"
       height="1"
       style="fill:#bcbcbc;fill-rule:evenodd" />
    <rect
       id="rect51"
       width="3"
       x="14"
       y="17"
       height="1"
       style="fill:#bcbcbc;fill-rule:evenodd" />
    <rect
       id="rect53"
       width="4.0300002"
       x="7"
       y="19"
       height="1"
       style="fill:#bcbcbc;fill-rule:evenodd" />
    <rect
       id="rect55"
       width="7"
       x="12"
       y="19"
       height="1"
       style="fill:#bcbcbc;fill-rule:evenodd" />
    <rect
       id="rect57"
       width="5"
       x="7"
       y="11"
       height="1"
       style="fill:#bcbcbc;fill-opacity:1;fill-rule:evenodd" />
    <rect
       id="rect61"
       width="7"
       x="7"
       y="13"
       height="1"
       style="fill:#bcbcbc;fill-opacity:1;fill-rule:evenodd" />
    <rect
       id="rect63"
       width="3"
       x="15"
       y="13"
       height="1"
       style="fill:#bcbcbc;fill-opacity:1;fill-rule:evenodd" />
    <rect
       id="rect65"
       transform="scale(1,-1)"
       height="1"
       y="-28"
       x="7"
       width="7"
       style="fill:#bcbcbc;fill-rule:evenodd" />
    <rect
       id="rect67"
       transform="scale(1,-1)"
       height="1"
       y="-28"
       x="15"
       width="3"
       style="fill:#bcbcbc;fill-rule:evenodd" />
    <rect
       id="rect69"
       transform="scale(1,-1)"
       height="1"
       y="-26"
       x="7"
       width="4.0300002"
       style="fill:#bcbcbc;fill-rule:evenodd" />
    <rect
       id="rect71"
       transform="scale(1,-1)"
       height="1"
       y="-26"
       x="12"
       width="8"
       style="fill:#bcbcbc;fill-rule:evenodd" />
    <rect
       id="rect73"
       transform="scale(1,-1)"
       style="fill:#bcbcbc;fill-opacity:1;fill-rule:evenodd"
       height="1"
       y="-24"
       x="7"
       width="10" />
    <rect
       id="rect75"
       transform="scale(1,-1)"
       style="fill:#bcbcbc;fill-opacity:1;fill-rule:evenodd"
       height="1"
       y="-24"
       x="18"
       width="5" />
    <rect
       id="rect79"
       style="fill:#bcbcbc;fill-opacity:1;fill-rule:evenodd"
       height="1"
       y="31"
       x="7"
       width="10" />
    <rect
       id="rect81"
       style="fill:#bcbcbc;fill-opacity:1;fill-rule:evenodd"
       height="1"
       y="33"
       x="7"
       width="7" />
    <rect
       id="rect83"
       style="fill:#bcbcbc;fill-opacity:1;fill-rule:evenodd"
       height="1"
       y="33"
       x="15"
       width="4" />
    <rect
       id="rect85"
       style="fill:#bcbcbc;fill-opacity:1;fill-rule:evenodd"
       height="1"
       y="35"
       x="7"
       width="4" />
    <rect
       id="rect87"
       style="fill:#bcbcbc;fill-opacity:1;fill-rule:evenodd"
       height="1"
       y="37"
       x="7"
       width="7" />
    <rect
       id="rect89"
       style="fill:#bcbcbc;fill-rule:evenodd"
       height="1"
       y="17"
       x="18"
       width="4" />
    <rect
       id="rect91"
       style="fill:#bcbcbc;fill-opacity:1;fill-rule:evenodd"
       height="1"
       y="11"
       x="13"
       width="4" />
    <rect
       id="rect109"
       width="4"
       x="18"
       y="31"
       height="1"
       style="fill:#bcbcbc;fill-opacity:1;fill-rule:evenodd" />
    <rect
       id="rect111"
       width="8"
       x="12"
       y="35"
       height="1"
       style="fill:#bcbcbc;fill-opacity:1;fill-rule:evenodd" />
    <rect
       id="rect113"
       width="7"
       x="15"
       y="37"
       height="1"
       style="fill:#bcbcbc;fill-opacity:1;fill-rule:evenodd" />
    <rect
       id="rect115"
       style="fill:#bcbcbc;fill-rule:evenodd"
       width="3"
       x="15"
       y="-28"
       height="1"
       transform="scale(1,-1)" />
  </g>
  <g
     id="g4705"
     transform="matrix(1,0,0,-1,19,49)">
    <rect
       style="fill:#bcbcbc;fill-rule:evenodd"
       height="1"
       y="15"
       x="7"
       width="8"
       id="rect4653" />
    <rect
       style="fill:#bcbcbc;fill-rule:evenodd"
       height="1"
       y="15"
       x="16"
       width="5"
       id="rect4655" />
    <rect
       style="fill:#bcbcbc;fill-rule:evenodd"
       height="1"
       y="17"
       x="7"
       width="6"
       id="rect4657" />
    <rect
       style="fill:#bcbcbc;fill-rule:evenodd"
       height="1"
       y="17"
       x="14"
       width="3"
       id="rect4659" />
    <rect
       style="fill:#bcbcbc;fill-rule:evenodd"
       height="1"
       y="19"
       x="7"
       width="4.0300002"
       id="rect4661" />
    <rect
       style="fill:#bcbcbc;fill-rule:evenodd"
       height="1"
       y="19"
       x="12"
       width="7"
       id="rect4663" />
    <rect
       style="fill:#bcbcbc;fill-opacity:1;fill-rule:evenodd"
       height="1"
       y="11"
       x="7"
       width="5"
       id="rect4665" />
    <rect
       style="fill:#bcbcbc;fill-opacity:1;fill-rule:evenodd"
       height="1"
       y="13"
       x="7"
       width="7"
       id="rect4667" />
    <rect
       style="fill:#bcbcbc;fill-opacity:1;fill-rule:evenodd"
       height="1"
       y="13"
       x="15"
       width="3"
       id="rect4669" />
    <rect
       style="fill:#bcbcbc;fill-rule:evenodd"
       width="7"
       x="7"
       y="-28"
       height="1"
       transform="scale(1,-1)"
       id="rect4671" />
    <rect
       style="fill:#bcbcbc;fill-rule:evenodd"
       width="3"
       x="15"
       y="-28"
       height="1"
       transform="scale(1,-1)"
       id="rect4673" />
    <rect
       style="fill:#bcbcbc;fill-rule:evenodd"
       width="4.0300002"
       x="7"
       y="-26"
       height="1"
       transform="scale(1,-1)"
       id="rect4675" />
    <rect
       style="fill:#bcbcbc;fill-rule:evenodd"
       width="8"
       x="12"
       y="-26"
       height="1"
       transform="scale(1,-1)"
       id="rect4677" />
    <rect
       width="10"
       x="7"
       y="-24"
       height="1"
       style="fill:#bcbcbc;fill-opacity:1;fill-rule:evenodd"
       transform="scale(1,-1)"
       id="rect4679" />
    <rect
       width="5"
       x="18"
       y="-24"
       height="1"
       style="fill:#bcbcbc;fill-opacity:1;fill-rule:evenodd"
       transform="scale(1,-1)"
       id="rect4681" />
    <rect
       width="10"
       x="7"
       y="31"
       height="1"
       style="fill:#bcbcbc;fill-opacity:1;fill-rule:evenodd"
       id="rect4683" />
    <rect
       width="7"
       x="7"
       y="33"
       height="1"
       style="fill:#bcbcbc;fill-opacity:1;fill-rule:evenodd"
       id="rect4685" />
    <rect
       width="4"
       x="15"
       y="33"
       height="1"
       style="fill:#bcbcbc;fill-opacity:1;fill-rule:evenodd"
       id="rect4687" />
    <rect
       width="4"
       x="7"
       y="35"
       height="1"
       style="fill:#bcbcbc;fill-opacity:1;fill-rule:evenodd"
       id="rect4689" />
    <rect
       width="7"
       x="7"
       y="37"
       height="1"
       style="fill:#bcbcbc;fill-opacity:1;fill-rule:evenodd"
       id="rect4691" />
    <rect
       width="4"
       x="18"
       y="17"
       height="1"
       style="fill:#bcbcbc;fill-rule:evenodd"
       id="rect4693" />
    <rect
       width="4"
       x="13"
       y="11"
       height="1"
       style="fill:#bcbcbc;fill-opacity:1;fill-rule:evenodd"
       id="rect4695" />
    <rect
       style="fill:#bcbcbc;fill-opacity:1;fill-rule:evenodd"
       height="1"
       y="31"
       x="18"
       width="4"
       id="rect4697" />
    <rect
       style="fill:#bcbcbc;fill-opacity:1;fill-rule:evenodd"
       height="1"
       y="35"
       x="12"
       width="8"
       id="rect4699" />
    <rect
       style="fill:#bcbcbc;fill-opacity:1;fill-rule:evenodd"
       height="1"
       y="37"
       x="15"
       width="7"
       id="rect4701" />
    <rect
       transform="scale(1,-1)"
       height="1"
       y="-28"
       x="15"
       width="3"
       style="fill:#bcbcbc;fill-rule:evenodd"
       id="rect4703" />
  </g>
  <path
     inkscape:connector-curvature="0"
     style="opacity:0.25;fill:url(#b);fill-rule:evenodd"
     id="path39"
     d="M 24,3.0000004 V 20 L 20,17.691 16,20 39,43 H 50 V 29 Z" />
  <g
     id="g4747"
     transform="translate(0,-2.000015)">
    <path
       d="M 16,5.0000153 V 22.000015 l 4,-2.309 4,2.309 V 5.0000153 Z"
       id="path35"
       style="fill:url(#linearGradient4545);fill-opacity:1"
       inkscape:connector-curvature="0" />
    <path
       d="m 17,5.0000153 h 6 V 20.000015 l -3,-2 -3,2 z"
       id="path45"
       style="opacity:0.1;fill:#ffffff;fill-opacity:1"
       inkscape:connector-curvature="0" />
  </g>
  <path
     style="opacity:0.2;vector-effect:none;fill:#090501;fill-opacity:1;stroke:none;stroke-width:1.78936052;stroke-linecap:round;stroke-linejoin:round;stroke-miterlimit:4;stroke-dasharray:none;stroke-dashoffset:0;stroke-opacity:1"
     d="M 3 41 L 3 42 C 3 43.108 3.892 44 5 44 L 43 44 C 44.108 44 45 43.108 45 42 L 45 41 C 45 42.108 44.108 43 43 43 L 5 43 C 3.892 43 3 42.108 3 41 z "
     id="rect4757" />
</svg>
