<?xml version="1.0" encoding="UTF-8" standalone="no"?>
<svg
   xmlns:dc="http://purl.org/dc/elements/1.1/"
   xmlns:cc="http://creativecommons.org/ns#"
   xmlns:rdf="http://www.w3.org/1999/02/22-rdf-syntax-ns#"
   xmlns:svg="http://www.w3.org/2000/svg"
   xmlns="http://www.w3.org/2000/svg"
   xmlns:xlink="http://www.w3.org/1999/xlink"
   xmlns:sodipodi="http://sodipodi.sourceforge.net/DTD/sodipodi-0.dtd"
   xmlns:inkscape="http://www.inkscape.org/namespaces/inkscape"
   width="48"
   height="48"
   version="1"
   id="svg12"
   sodipodi:docname="audacious.svg"
   inkscape:version="0.92.3 (2405546, 2018-03-11)">
  <metadata
     id="metadata18">
    <rdf:RDF>
      <cc:Work
         rdf:about="">
        <dc:format>image/svg+xml</dc:format>
        <dc:type
           rdf:resource="http://purl.org/dc/dcmitype/StillImage" />
      </cc:Work>
    </rdf:RDF>
  </metadata>
  <defs
     id="defs16">
    <linearGradient
       inkscape:collect="always"
       id="linearGradient879">
      <stop
         style="stop-color:#000000;stop-opacity:1;"
         offset="0"
         id="stop875" />
      <stop
         style="stop-color:#000000;stop-opacity:0;"
         offset="1"
         id="stop877" />
    </linearGradient>
    <linearGradient
       inkscape:collect="always"
       id="linearGradient843">
      <stop
         style="stop-color:#ffffff;stop-opacity:1;"
         offset="0"
         id="stop839" />
      <stop
         style="stop-color:#ffffff;stop-opacity:0;"
         offset="1"
         id="stop841" />
    </linearGradient>
    <linearGradient
       inkscape:collect="always"
       xlink:href="#a-8"
       id="linearGradient834"
       x1="29.066196"
       y1="43.06443"
       x2="22.640778"
       y2="5.0238304"
       gradientUnits="userSpaceOnUse" />
    <linearGradient
       inkscape:collect="always"
       xlink:href="#linearGradient843"
       id="linearGradient845"
       x1="20.150045"
       y1="5.1120915"
       x2="29.085613"
       y2="42.534863"
       gradientUnits="userSpaceOnUse" />
    <linearGradient
       inkscape:collect="always"
       xlink:href="#linearGradient879"
       id="linearGradient881"
       x1="24.101562"
       y1="25.513672"
       x2="32.792404"
       y2="34.204514"
       gradientUnits="userSpaceOnUse" />
    <linearGradient
       inkscape:collect="always"
       xlink:href="#linearGradient879"
       id="linearGradient883"
       x1="18.515047"
       y1="21.372156"
       x2="33.886463"
       y2="36.743572"
       gradientUnits="userSpaceOnUse" />
    <linearGradient
       inkscape:collect="always"
       xlink:href="#linearGradient879"
       id="linearGradient885"
       x1="16.537437"
       y1="18.800591"
       x2="36.354557"
       y2="38.61771"
       gradientUnits="userSpaceOnUse" />
    <linearGradient
       x1="428.81601"
       gradientTransform="translate(-384.57,-499.8)"
       gradientUnits="userSpaceOnUse"
       x2="388.86499"
       y2="499.67899"
       y1="547.63397"
       id="a-8">
      <stop
         stop-color="#2a2c2f"
         id="stop8" />
      <stop
         stop-color="#536161"
         offset="1"
         id="stop10" />
    </linearGradient>
  </defs>
  <sodipodi:namedview
     pagecolor="#ffffff"
     bordercolor="#666666"
     borderopacity="1"
     objecttolerance="10"
     gridtolerance="10"
     guidetolerance="10"
     inkscape:pageopacity="0"
     inkscape:pageshadow="2"
     inkscape:window-width="1920"
     inkscape:window-height="1020"
     id="namedview14"
     showgrid="false"
     inkscape:zoom="11.42"
     inkscape:cx="7.8879159"
     inkscape:cy="22.912169"
     inkscape:window-x="0"
     inkscape:window-y="30"
     inkscape:window-maximized="1"
     inkscape:current-layer="svg12" />
  <path
     fill="#4f4f4f"
     d="m44 24a20 20 0 0 1 -20 20 20 20 0 0 1 -20 -20 20 20 0 0 1 20 -20 20 20 0 0 1 20 20z"
     id="path2"
     style="fill:url(#linearGradient834);fill-opacity:1.0" />
  <path
     d="M 43.979,23.418 A 20,20 0 0 1 24,43 20,20 0 0 1 4.022,23.582 20,20 0 0 0 4,24 20,20 0 0 0 24,44 20,20 0 0 0 44,24 20,20 0 0 0 43.979,23.418 Z"
     id="path10"
     inkscape:connector-curvature="0"
     style="opacity:0.2" />
  <path
     style="opacity:1;fill:url(#linearGradient845);fill-opacity:1;stroke:none;stroke-width:2.51700497;stroke-linecap:round;stroke-linejoin:round;stroke-miterlimit:4;stroke-dasharray:none;stroke-dashoffset:0;stroke-opacity:1;paint-order:normal"
     d="M 24 10 A 14 14 0 0 0 10 24 A 14 14 0 0 0 24 38 A 14 14 0 0 0 38 24 A 14 14 0 0 0 24 10 z M 24.882812 15.003906 C 29.151012 15.162906 31.674705 18.004584 31.953125 22.146484 C 32.266965 26.815584 30.872473 28.03051 31.470703 28.96875 C 32.719903 30.92795 30.949791 31.441118 29.775391 32.398438 C 29.044891 32.993888 27.634997 32.72239 26.935547 31.875 C 24.810247 30.6652 25.629634 32.98987 21.240234 33 C 18.958434 32.908 16.866321 31.286862 16.275391 29.101562 C 15.369191 25.750262 16.699191 23.276675 20.400391 22.109375 C 21.470991 21.771735 23.591361 21.974954 24.525391 21.302734 C 25.407511 20.667834 25.091013 19.753716 24.007812 19.634766 C 22.454313 19.464156 20.031156 20.158876 18.597656 19.878906 C 17.446986 19.654206 17.096766 17.488824 17.847656 16.558594 C 19.076456 15.036244 22.227113 15.102604 24.007812 15.021484 C 24.307682 15.007854 24.598273 14.993216 24.882812 15.003906 z M 24.310547 25.013672 C 23.321977 25.013672 22.505859 25.738458 22.505859 26.642578 C 22.505859 27.546688 23.321947 28.294922 24.310547 28.294922 C 25.299147 28.294922 26.078125 27.546698 26.078125 26.642578 C 26.078125 25.738498 25.299147 25.013671 24.310547 25.013672 z "
     id="path836" />
  <path
     style="opacity:0.2;fill:url(#linearGradient885);fill-opacity:1;stroke:none;stroke-width:1.4216373;stroke-linecap:round;stroke-linejoin:round;stroke-miterlimit:4;stroke-dasharray:none;stroke-dashoffset:0;stroke-opacity:1;paint-order:normal"
     d="M 33.357422 13.539062 L 33.3125 13.568359 A 14 14 0 0 1 38 24 A 14 14 0 0 1 24 38 A 14 14 0 0 1 14.472656 34.242188 L 24.222656 43.992188 A 20 20 0 0 0 43.992188 24.173828 L 33.357422 13.539062 z M 13.740234 33.509766 L 13.875 33.644531 A 14 14 0 0 1 13.753906 33.513672 L 13.740234 33.509766 z "
     id="rect847" />
  <path
     style="opacity:0.2;fill:url(#linearGradient883);fill-opacity:1;stroke:none;stroke-width:2.3719182;stroke-linecap:round;stroke-linejoin:round;stroke-miterlimit:4;stroke-dasharray:none;stroke-dashoffset:0;stroke-opacity:1;paint-order:normal"
     d="M 24.822266 19.992188 C 24.840281 20.011015 24.865123 20.027031 24.880859 20.046875 L 24.826172 19.992188 L 24.822266 19.992188 z M 24.880859 20.046875 C 25.160507 20.399525 25.076716 20.905922 24.525391 21.302734 C 23.591361 21.974954 21.470991 21.771735 20.400391 22.109375 C 16.699191 23.276675 15.369191 25.750262 16.275391 29.101562 C 16.866321 31.286862 18.958434 32.908 21.240234 33 C 25.629634 32.98987 24.810247 30.6652 26.935547 31.875 C 27.634997 32.72239 29.044891 32.993887 29.775391 32.398438 C 30.949791 31.441118 32.719903 30.92795 31.470703 28.96875 C 31.157989 28.478302 31.389059 27.898248 31.636719 26.802734 L 24.880859 20.046875 z M 24.310547 25.013672 C 25.299147 25.013671 26.078125 25.738498 26.078125 26.642578 C 26.078125 27.546698 25.299147 28.294922 24.310547 28.294922 C 23.321947 28.294922 22.505859 27.546688 22.505859 26.642578 C 22.505859 25.738458 23.321977 25.013672 24.310547 25.013672 z M 36.005859 31.171875 A 14 14 0 0 1 24 38 A 14 14 0 0 1 22.779297 37.9375 L 28.339844 43.498047 A 20 20 0 0 0 40.341797 35.507812 L 36.005859 31.171875 z "
     id="rect851" />
  <path
     style="opacity:0.2;fill:url(#linearGradient881);fill-opacity:1;stroke:none;stroke-width:2.30056;stroke-linecap:round;stroke-linejoin:round;stroke-miterlimit:4;stroke-dasharray:none;stroke-dashoffset:0;stroke-opacity:1;paint-order:normal"
     d="M 25.570312 25.494141 C 25.885027 25.78791 26.078125 26.193425 26.078125 26.642578 C 26.078125 27.546698 25.299147 28.294922 24.310547 28.294922 C 23.809517 28.294922 23.354022 28.102185 23.025391 27.794922 L 23.023438 27.802734 L 27.658203 32.4375 C 28.370599 32.801193 29.248322 32.828065 29.775391 32.398438 C 30.284831 31.983164 30.895434 31.64655 31.333984 31.244141 L 25.582031 25.494141 L 25.570312 25.494141 z M 33.939453 33.849609 A 14 14 0 0 1 31.205078 35.984375 L 35.53125 40.310547 A 20 20 0 0 0 38.175781 38.085938 L 33.939453 33.849609 z "
     id="rect861" />
</svg>
