<?xml version="1.0" encoding="UTF-8" standalone="no"?>
<svg
   xmlns:dc="http://purl.org/dc/elements/1.1/"
   xmlns:cc="http://creativecommons.org/ns#"
   xmlns:rdf="http://www.w3.org/1999/02/22-rdf-syntax-ns#"
   xmlns:svg="http://www.w3.org/2000/svg"
   xmlns="http://www.w3.org/2000/svg"
   xmlns:xlink="http://www.w3.org/1999/xlink"
   xmlns:sodipodi="http://sodipodi.sourceforge.net/DTD/sodipodi-0.dtd"
   xmlns:inkscape="http://www.inkscape.org/namespaces/inkscape"
   width="48"
   height="48"
   version="1.1"
   id="svg51"
   sodipodi:docname="calibre-viewer.svg"
   inkscape:version="0.92.3 (2405546, 2018-03-11)">
  <metadata
     id="metadata55">
    <rdf:RDF>
      <cc:Work
         rdf:about="">
        <dc:format>image/svg+xml</dc:format>
        <dc:type
           rdf:resource="http://purl.org/dc/dcmitype/StillImage" />
      </cc:Work>
    </rdf:RDF>
  </metadata>
  <sodipodi:namedview
     pagecolor="#ffffff"
     bordercolor="#666666"
     borderopacity="1"
     objecttolerance="10"
     gridtolerance="10"
     guidetolerance="10"
     inkscape:pageopacity="0"
     inkscape:pageshadow="2"
     inkscape:window-width="1920"
     inkscape:window-height="1020"
     id="namedview53"
     showgrid="true"
     inkscape:zoom="13.94"
     inkscape:cx="24"
     inkscape:cy="24"
     inkscape:window-x="0"
     inkscape:window-y="30"
     inkscape:window-maximized="1"
     inkscape:current-layer="svg51">
    <inkscape:grid
       type="xygrid"
       id="grid862" />
  </sodipodi:namedview>
  <defs
     id="defs31">
    <linearGradient
       id="linearGradient4193">
      <stop
         style="stop-color:#ffa92d;stop-opacity:1;"
         offset="0"
         id="stop2" />
      <stop
         style="stop-color:#ffdaa5;stop-opacity:1"
         offset="1"
         id="stop4" />
    </linearGradient>
    <linearGradient
       id="0">
      <stop
         stop-color="#ffffff"
         id="stop7" />
      <stop
         offset="1"
         stop-color="#ffffff"
         stop-opacity="0"
         id="stop9" />
    </linearGradient>
    <linearGradient
       xlink:href="#2"
       id="1"
       y1="543.798"
       x2="0"
       y2="503.798"
       gradientUnits="userSpaceOnUse"
       gradientTransform="matrix(1.1250015,0,0,1,-435.6434,-499.798)" />
    <linearGradient
       id="2">
      <stop
         stop-color="#426467"
         id="stop13" />
      <stop
         offset="1"
         stop-color="#525b58"
         id="stop15" />
    </linearGradient>
    <linearGradient
       xlink:href="#0"
       id="5"
       y1="527.798"
       x2="0"
       y2="504.798"
       gradientUnits="userSpaceOnUse"
       gradientTransform="translate(-384.57143,-499.79799)" />
    <linearGradient
       id="6"
       y1="-.883"
       x1="-41.26"
       y2="37.956"
       x2="-2.994"
       gradientUnits="userSpaceOnUse"
       gradientTransform="translate(-1.01,-1.022)">
      <stop
         stop-color="#21c9fb"
         id="stop19" />
      <stop
         offset="1"
         stop-color="#1a86f2"
         id="stop21" />
    </linearGradient>
    <linearGradient
       xlink:href="#6"
       id="7"
       x1="404.571"
       y1="517.798"
       x2="424.571"
       y2="537.798"
       gradientUnits="userSpaceOnUse"
       gradientTransform="translate(-384.76088,-500.19777)" />
    <linearGradient
       xlink:href="#linearGradient4193"
       id="linearGradient4199"
       x1="14"
       y1="21"
       x2="14"
       y2="4"
       gradientUnits="userSpaceOnUse"
       gradientTransform="translate(-1.99999,0)" />
    <linearGradient
       id="b"
       y1="4"
       x1="8"
       y2="18"
       gradientUnits="userSpaceOnUse"
       x2="22">
      <stop
         stop-color="#292c2f"
         id="stop26" />
      <stop
         offset="1"
         stop-opacity="0"
         id="stop28" />
    </linearGradient>
  </defs>
  <rect
     style="fill:url(#1)"
     rx="0"
     y="4"
     x="6"
     height="40"
     width="36"
     id="rect33" />
  <path
     style="opacity:0.2;fill:url(#b);fill-rule:evenodd"
     d="M 16,4 16,21 12,18.691 8,21 31,44 42,44 42,30 Z"
     id="path49" />
  <rect
     style="fill:#000000;fill-opacity:1;opacity:0.15"
     width="36"
     height="1"
     x="6"
     y="43"
     id="rect35" />
  <rect
     width="2"
     height="40"
     x="6"
     y="4"
     style="opacity:0.6;fill:#080809"
     id="rect37" />
  <rect
     style="fill:#8b8f8f"
     y="42"
     x="8"
     height="1"
     width="34"
     id="rect39" />
  <rect
     style="fill:#212323;fill-opacity:0.45199998"
     y="41"
     x="8"
     height="1"
     width="34"
     id="rect41" />
  <path
     style="fill:url(#linearGradient4199);fill-opacity:1"
     d="M 8,4 8,21 12,18.69141 16,21 16,4 8,4 Z"
     id="path43" />
  <path
     style="opacity:0.15;fill:url(#5)"
     d="m 9.00001,4 6,0 0,15 -3,-2 -3,2 z"
     id="path45" />
  <path
     style="fill:url(#7)"
     d="m 27.029297,18.068984 c -4.44881,0 -8.029297,3.58244 -8.029297,8.03125 0,4.44881 3.580487,8.03125 8.029297,8.03125 1.901607,0 3.642902,-0.659091 5.015625,-1.755859 l 7.107422,7.109375 1.261719,-1.261719 -7.107422,-7.109375 c 1.096305,-1.372575 1.753906,-3.11251 1.753906,-5.013672 0,-4.44881 -3.58244,-8.03125 -8.03125,-8.03125 z m 0,1.785156 c 3.46019,0 6.246094,2.785904 6.246094,6.246094 0,3.46019 -2.785904,6.246094 -6.246094,6.246094 -3.46019,0 -6.244141,-2.785904 -6.244141,-6.246094 0,-3.46019 2.783951,-6.246094 6.244141,-6.246094 z"
     id="path47"
     inkscape:connector-curvature="0" />
</svg>
