<?xml version="1.0" encoding="UTF-8" standalone="no"?>
<svg
   xmlns:dc="http://purl.org/dc/elements/1.1/"
   xmlns:cc="http://creativecommons.org/ns#"
   xmlns:rdf="http://www.w3.org/1999/02/22-rdf-syntax-ns#"
   xmlns:svg="http://www.w3.org/2000/svg"
   xmlns="http://www.w3.org/2000/svg"
   xmlns:xlink="http://www.w3.org/1999/xlink"
   xmlns:sodipodi="http://sodipodi.sourceforge.net/DTD/sodipodi-0.dtd"
   xmlns:inkscape="http://www.inkscape.org/namespaces/inkscape"
   width="48"
   height="48"
   version="1.1"
   id="svg33"
   sodipodi:docname="goa-panel.svg"
   inkscape:version="0.92.1 r15371">
  <metadata
     id="metadata37">
    <rdf:RDF>
      <cc:Work
         rdf:about="">
        <dc:format>image/svg+xml</dc:format>
        <dc:type
           rdf:resource="http://purl.org/dc/dcmitype/StillImage" />
        <dc:title></dc:title>
      </cc:Work>
    </rdf:RDF>
  </metadata>
  <sodipodi:namedview
     pagecolor="#ffffff"
     bordercolor="#666666"
     borderopacity="1"
     objecttolerance="10"
     gridtolerance="10"
     guidetolerance="10"
     inkscape:pageopacity="0"
     inkscape:pageshadow="2"
     inkscape:window-width="1600"
     inkscape:window-height="808"
     id="namedview35"
     showgrid="false"
     inkscape:zoom="7.03"
     inkscape:cx="24"
     inkscape:cy="23.861919"
     inkscape:window-x="0"
     inkscape:window-y="0"
     inkscape:window-maximized="1"
     inkscape:current-layer="svg33" />
  <defs
     id="defs17">
    <linearGradient
       inkscape:collect="always"
       id="linearGradient4581">
      <stop
         style="stop-color:#000000;stop-opacity:1"
         offset="0"
         id="stop4577" />
      <stop
         style="stop-color:#000000;stop-opacity:0"
         offset="1"
         id="stop4579" />
    </linearGradient>
    <linearGradient
       id="b"
       y1="537.22"
       y2="505.83"
       x1="423.04"
       gradientUnits="userSpaceOnUse"
       x2="398.97"
       gradientTransform="translate(-384.57,-499.8)">
      <stop
         stop-color="#197cf1"
         id="stop7" />
      <stop
         offset="1"
         stop-color="#20bcfa"
         id="stop9" />
    </linearGradient>
    <linearGradient
       id="c"
       y1="506.87"
       y2="536.3"
       x1="398.46"
       x2="427.88"
       gradientUnits="userSpaceOnUse"
       gradientTransform="translate(-384.569,-499.799)">
      <stop
         stop-color="#abdaf9"
         id="stop12" />
      <stop
         offset="1"
         stop-color="#7cbcec"
         id="stop14" />
    </linearGradient>
    <linearGradient
       inkscape:collect="always"
       xlink:href="#linearGradient4581"
       id="linearGradient4583"
       x1="21.928898"
       y1="22.327032"
       x2="37.362404"
       y2="37.760536"
       gradientUnits="userSpaceOnUse" />
  </defs>
  <rect
     style="fill:url(#b)"
     id="rect19"
     height="40"
     rx="20"
     y="3.9999878"
     x="4.0000072"
     width="40" />
  <path
     inkscape:connector-curvature="0"
     style="fill:url(#c);fill-rule:evenodd"
     id="path21"
     d="M 24,4 C 22.548,4 21.136,4.16 19.773,4.451 L 18,8 15.32,5.99 C 10.514,8.301 6.791,12.462 5.066,17.574 L 9,16 12,18 13,15 26,8 25.207,4.039 C 24.807,4.015 24.406,4 24,4 m 14.81,6.568 -0.811,2.432 1,1 -4,6 2,7 6.633,0.83 c 0.239,-1.239 0.367,-2.519 0.367,-3.83 0,-3.425 -0.857,-6.641 -2.361,-9.453 L 39.999,14 40.595,12.807 C 40.06,12.013 39.451,11.276 38.81,10.569 M 4.396,20.001 C 4.175,21.097 4.05,22.228 4.015,23.382 l 6.984,2.619 -1,-3 -2,-3 z m 6.603,6 5,12 v 4.338 c 2.449,1.065 5.151,1.662 8,1.662 0.199,0 0.395,-0.008 0.592,-0.014 l 6.408,-10.986 -16,-9 z" />
  <path
     d="M 4.012,23.5 C 4.008,23.667 4,23.832 4,24 4,35.08 12.92,44 24,44 35.08,44 44,35.08 44,24 44,23.832 43.992,23.667 43.988,23.5 43.724,34.347 34.908,43 24,43 13.088,43 4.276,34.347 4.012,23.5"
     id="path23"
     inkscape:connector-curvature="0"
     style="opacity:0.2;fill:#000000;fill-opacity:1;stroke-width:2.79999995;stroke-opacity:0.55" />
  <path
     style="opacity:0.2;vector-effect:none;fill:url(#linearGradient4583);fill-opacity:1;stroke:none;stroke-width:2.80254149;stroke-linecap:round;stroke-linejoin:round;stroke-miterlimit:4;stroke-dasharray:none;stroke-dashoffset:0;stroke-opacity:1"
     d="M 29.820312 12.318359 L 31.9375 13.929688 L 33.316406 16.167969 L 32.501953 19.826172 L 29 22 L 29.501953 22.677734 L 34.800781 24.212891 L 38.375 29.736328 L 37.939453 31 L 35.867188 31.550781 L 29.796875 32 L 27.439453 33.486328 L 12.150391 33.113281 L 8.984375 34.011719 L 18.089844 43.117188 C 19.956381 43.689942 21.940873 44 24 44 C 34.773744 44 43.502109 35.564726 43.976562 24.912109 L 32.5 13.435547 L 29.820312 12.318359 z "
     id="rect4544" />
  <path
     style="color:#4d4d4d;color-interpolation:sRGB;color-interpolation-filters:linearRGB;fill:#fcfcfc;fill-opacity:1;color-rendering:auto;image-rendering:auto;shape-rendering:auto;text-rendering:auto"
     d="m 29,12 c -2.761424,0 -5,2.238576 -5,5 0,2.761424 2.238576,5 5,5 2.761424,0 5,-2.238576 5,-5 0,-2.761424 -2.238576,-5 -5,-5 z m 0,10 c -0.302364,4.02e-4 -0.603159,0.0174 -0.902344,0.04492 -0.146066,0.0131 -0.289403,0.03538 -0.433594,0.05469 -0.139855,0.01906 -0.279284,0.03953 -0.417968,0.06445 -0.179459,0.03181 -0.357189,0.06813 -0.533203,0.109376 -0.09168,0.02168 -0.182451,0.04607 -0.273438,0.07031 -0.199163,0.05269 -0.397711,0.105452 -0.591797,0.169922 -0.02561,0.0085 -0.05063,0.01859 -0.07617,0.02734 -0.743093,0.253609 -1.444944,0.591826 -2.097656,1.003906 -0.0035,0.0022 -0.0063,0.0056 -0.0098,0.0078 -0.157384,0.09964 -0.30802,0.208212 -0.458984,0.316407 0.364401,0.149489 0.717261,0.318053 1.060547,0.503906 0.717687,-0.446917 1.486204,-0.803668 2.296875,-1.033203 0.521482,-0.147654 1.057639,-0.24714 1.601562,-0.298828 C 28.441018,23.014686 28.719715,23.00051 29,23 c 0.281775,1.33e-4 0.560313,0.01539 0.835938,0.04102 0.543921,0.05162 1.08008,0.151164 1.601562,0.298828 1.311633,0.371403 2.532401,1.039502 3.5625,1.964844 v -0.0098 C 36.597492,26.725386 37.685007,28.724183 37.939453,31 H 35 29.556641 c 0.09552,0.327277 0.175818,0.660589 0.240234,1 H 35 39 c 0,-3.268883 -1.574595,-6.163588 -4,-7.988281 v -0.002 c -0.01578,-0.01188 -0.03298,-0.02142 -0.04883,-0.0332 -0.199845,-0.148478 -0.404318,-0.290303 -0.615234,-0.423828 l -0.002,-0.002 c -0.0027,-0.0017 -0.0051,-0.0041 -0.0078,-0.0059 -0.652712,-0.41208 -1.354563,-0.750297 -2.097656,-1.003906 -0.02562,-0.0087 -0.05046,-0.0188 -0.07617,-0.02734 -0.194087,-0.06447 -0.392634,-0.117229 -0.591797,-0.169922 -0.09099,-0.02425 -0.181754,-0.04864 -0.273438,-0.07031 -0.176014,-0.04125 -0.353744,-0.07756 -0.533203,-0.109376 -0.138684,-0.02492 -0.278115,-0.04539 -0.417968,-0.06445 -0.14419,-0.01931 -0.287528,-0.04159 -0.433594,-0.05469 C 29.603226,22.017657 29.302365,22.00041 29,22 Z m 0,-9 c 2.209141,6e-6 4,1.790865 4,4 0,2.209135 -1.790859,3.999994 -4,4 -2.209141,-6e-6 -4,-1.790865 -4,-4 0,-0.276143 0.02875,-0.54625 0.08203,-0.806641 C 25.455018,14.37063 27.067002,13.000005 29,13 Z m -10,1 c -2.761424,0 -5,2.238576 -5,5 0,2.761424 2.238576,5 5,5 2.761424,0 5,-2.238576 5,-5 0,-2.761424 -2.238576,-5 -5,-5 z m 0,10 c -0.302364,4.02e-4 -0.603159,0.0174 -0.902344,0.04492 -0.146066,0.0131 -0.289404,0.03538 -0.433594,0.05469 -0.139855,0.01906 -0.279284,0.03953 -0.417968,0.06445 -0.179459,0.03181 -0.357189,0.06813 -0.533203,0.109376 -0.09168,0.02168 -0.182451,0.04607 -0.273438,0.07031 -0.199163,0.05269 -0.397711,0.105452 -0.591797,0.169922 -0.02561,0.0085 -0.05063,0.01859 -0.07617,0.02734 -0.743093,0.253609 -1.444944,0.591826 -2.097656,1.003906 -0.0035,0.0022 -0.0063,0.0056 -0.0098,0.0078 -0.210915,0.133525 -0.415389,0.275348 -0.615234,0.423828 -0.01585,0.01178 -0.03304,0.02132 -0.04883,0.0332 v 0.002 C 10.574629,27.836389 9,30.731119 9,34 h 4 12 4 c 0,-3.268883 -1.574595,-6.163588 -4,-7.988281 v -0.002 c -0.01578,-0.01188 -0.03298,-0.02142 -0.04883,-0.0332 -0.199845,-0.148479 -0.404319,-0.290303 -0.615234,-0.423828 0,0 -0.002,-0.002 -0.002,-0.002 -0.0027,-0.0017 -0.0051,-0.0041 -0.0078,-0.0059 -0.652712,-0.41208 -1.354563,-0.750297 -2.097656,-1.003906 -0.02562,-0.0087 -0.05046,-0.0188 -0.07617,-0.02734 -0.194087,-0.06447 -0.392634,-0.117229 -0.591797,-0.169922 -0.09099,-0.02425 -0.181754,-0.04864 -0.273438,-0.07031 -0.176014,-0.04125 -0.353744,-0.07756 -0.533203,-0.109376 -0.138684,-0.02492 -0.278114,-0.04539 -0.417968,-0.06445 -0.14419,-0.01931 -0.287528,-0.04159 -0.433594,-0.05469 C 19.603192,24.017532 19.302365,24.00041 19,24 Z m 0,-9 c 2.209141,6e-6 4,1.790865 4,4 0,2.209135 -1.790859,3.999994 -4,4 -2.209141,-6e-6 -4,-1.790865 -4,-4 0,-0.276143 0.02875,-0.54625 0.08203,-0.806641 C 15.455017,16.37063 17.067002,15.000005 19,15 Z m 0,10 c 0.281775,1.33e-4 0.560313,0.01539 0.835938,0.04102 0.543922,0.05162 1.08008,0.151164 1.601562,0.298828 1.311633,0.371403 2.532401,1.039503 3.5625,1.964844 v -0.0098 C 26.597492,28.725356 27.685007,30.724183 27.939453,33 H 25 13 10.060547 C 10.314991,30.724183 11.402507,28.725325 13,27.294922 v 0.0098 c 1.0301,-0.925344 2.250868,-1.593466 3.5625,-1.964844 0.521482,-0.147654 1.05764,-0.24714 1.601562,-0.298828 C 18.440986,25.014666 18.719715,25.00051 19,25 Z"
     id="path25-5"
     inkscape:connector-curvature="0" />
</svg>
