<?xml version="1.0" encoding="UTF-8" standalone="no"?>
<!-- Generator: Adobe Illustrator 12.0.0, SVG Export Plug-In . SVG Version: 6.00 Build 51448)  -->

<svg
   xmlns:ns="http://ns.adobe.com/SaveForWeb/1.0/"
   xmlns:dc="http://purl.org/dc/elements/1.1/"
   xmlns:cc="http://creativecommons.org/ns#"
   xmlns:rdf="http://www.w3.org/1999/02/22-rdf-syntax-ns#"
   xmlns:svg="http://www.w3.org/2000/svg"
   xmlns="http://www.w3.org/2000/svg"
   xmlns:xlink="http://www.w3.org/1999/xlink"
   xmlns:sodipodi="http://sodipodi.sourceforge.net/DTD/sodipodi-0.dtd"
   xmlns:inkscape="http://www.inkscape.org/namespaces/inkscape"
   version="1.0"
   id="Layer_1"
   width="48"
   height="48"
   viewBox="0 0 48 48"
   overflow="visible"
   enable-background="new 0 0 109.547 119"
   xml:space="preserve"
   sodipodi:version="0.32"
   inkscape:version="0.92.3 (2405546, 2018-03-11)"
   sodipodi:docname="kwordquiz.svg"
   style="overflow:visible"><defs
   id="defs155"><linearGradient
     id="linearGradient891"
     inkscape:collect="always"><stop
       id="stop887"
       offset="0"
       style="stop-color:#1d6a2d;stop-opacity:1" /><stop
       id="stop889"
       offset="1"
       style="stop-color:#79ae30;stop-opacity:1" /></linearGradient><linearGradient
     inkscape:collect="always"
     id="linearGradient911"><stop
       style="stop-color:#000000;stop-opacity:1;"
       offset="0"
       id="stop907" /><stop
       style="stop-color:#000000;stop-opacity:0;"
       offset="1"
       id="stop909" /></linearGradient><linearGradient
     inkscape:collect="always"
     id="linearGradient973"><stop
       style="stop-color:#bdbdbd;stop-opacity:1"
       offset="0"
       id="stop969" /><stop
       style="stop-color:#f0f0f0;stop-opacity:1"
       offset="1"
       id="stop971" /></linearGradient><linearGradient
     inkscape:collect="always"
     xlink:href="#linearGradient973"
     id="linearGradient975"
     x1="85.109726"
     y1="80.802063"
     x2="51.727116"
     y2="25.488705"
     gradientUnits="userSpaceOnUse"
     gradientTransform="matrix(0.39598146,0,0,0.39653582,1.9702577,-0.24781924)" /><linearGradient
     inkscape:collect="always"
     xlink:href="#linearGradient891"
     id="linearGradient884"
     x1="35.447838"
     y1="31"
     x2="30.426876"
     y2="3.5849802"
     gradientUnits="userSpaceOnUse" /><linearGradient
     inkscape:collect="always"
     xlink:href="#linearGradient891"
     id="linearGradient892"
     x1="35.110672"
     y1="39.9249"
     x2="34.05357"
     y2="34"
     gradientUnits="userSpaceOnUse" /><linearGradient
     inkscape:collect="always"
     xlink:href="#linearGradient911"
     id="linearGradient913"
     x1="36.186134"
     y1="24.485802"
     x2="40.281418"
     y2="28.581085"
     gradientUnits="userSpaceOnUse" /><linearGradient
     inkscape:collect="always"
     xlink:href="#linearGradient911"
     id="linearGradient915"
     x1="29.845762"
     y1="9.6728621"
     x2="38.318199"
     y2="18.145298"
     gradientUnits="userSpaceOnUse" /></defs><sodipodi:namedview
   inkscape:window-height="1020"
   inkscape:window-width="1920"
   inkscape:pageshadow="2"
   inkscape:pageopacity="0"
   borderopacity="1.0"
   bordercolor="#666666"
   pagecolor="#ffffff"
   id="base"
   inkscape:showpageshadow="false"
   inkscape:zoom="14.52"
   inkscape:cx="2.4918577"
   inkscape:cy="27.646801"
   inkscape:window-x="0"
   inkscape:window-y="30"
   inkscape:current-layer="Layer_1"
   showguides="true"
   inkscape:guide-bbox="true"
   showgrid="false"
   inkscape:window-maximized="1"><inkscape:grid
     type="xygrid"
     id="grid894" /></sodipodi:namedview>
<metadata
   id="metadata3">
	<ns:sfw>
		<ns:slices />
		<ns:sliceSourceBounds
   x="0"
   y="0"
   height="128"
   width="128"
   bottomLeftOrigin="true" />
	</ns:sfw>
<rdf:RDF><cc:Work
     rdf:about=""><dc:format>image/svg+xml</dc:format><dc:type
       rdf:resource="http://purl.org/dc/dcmitype/StillImage" /><dc:title /></cc:Work></rdf:RDF></metadata>

<linearGradient
   id="XMLID_9_"
   gradientUnits="userSpaceOnUse"
   x1="538.77338"
   y1="793"
   x2="538.77338"
   y2="674"
   gradientTransform="translate(-484,-674)">
	<stop
   offset="0"
   style="stop-color:#094422"
   id="stop7" />
	<stop
   offset="0.1124"
   style="stop-color:#095A22"
   id="stop9" />
	<stop
   offset="0.4045"
   style="stop-color:#1E7D27"
   id="stop11" />
	<stop
   offset="0.4231"
   style="stop-color:#217F29"
   id="stop13" />
	<stop
   offset="0.4369"
   style="stop-color:#2A8531"
   id="stop15" />
	<stop
   offset="0.4491"
   style="stop-color:#3A8F3D"
   id="stop17" />
	<stop
   offset="0.4605"
   style="stop-color:#519D4E"
   id="stop19" />
	<stop
   offset="0.4712"
   style="stop-color:#6EAF64"
   id="stop21" />
	<stop
   offset="0.4814"
   style="stop-color:#92C680"
   id="stop23" />
	<stop
   offset="0.4911"
   style="stop-color:#BCE0A0"
   id="stop25" />
	<stop
   offset="0.4944"
   style="stop-color:#CCEAAC"
   id="stop27" />
	<stop
   offset="0.5124"
   style="stop-color:#A4CD90"
   id="stop29" />
	<stop
   offset="0.5326"
   style="stop-color:#80B276"
   id="stop31" />
	<stop
   offset="0.5552"
   style="stop-color:#609A5F"
   id="stop33" />
	<stop
   offset="0.5803"
   style="stop-color:#44864C"
   id="stop35" />
	<stop
   offset="0.6086"
   style="stop-color:#2E763C"
   id="stop37" />
	<stop
   offset="0.6416"
   style="stop-color:#1D6931"
   id="stop39" />
	<stop
   offset="0.6825"
   style="stop-color:#126028"
   id="stop41" />
	<stop
   offset="0.7398"
   style="stop-color:#0B5B23"
   id="stop43" />
	<stop
   offset="0.8989"
   style="stop-color:#095A22"
   id="stop45" />
	<stop
   offset="1"
   style="stop-color:#9ED676"
   id="stop47" />
</linearGradient>






<radialGradient
   id="XMLID_13_"
   cx="538.77252"
   cy="792.99609"
   r="121.5466"
   gradientTransform="translate(-484,-674)"
   gradientUnits="userSpaceOnUse">
	<stop
   offset="0"
   style="stop-color:#FFFAB3"
   id="stop83" />
	<stop
   offset="0.0494"
   style="stop-color:#DFEE9F"
   id="stop85" />
	<stop
   offset="0.1049"
   style="stop-color:#C3E48D"
   id="stop87" />
	<stop
   offset="0.1605"
   style="stop-color:#AEDC80"
   id="stop89" />
	<stop
   offset="0.2156"
   style="stop-color:#A2D879"
   id="stop91" />
	<stop
   offset="0.2697"
   style="stop-color:#9ED676"
   id="stop93" />
	<stop
   offset="0.3989"
   style="stop-color:#3BA42A"
   id="stop95" />
	<stop
   offset="0.3995"
   style="stop-color:#3BA42A"
   id="stop97" />
	<stop
   offset="0.4484"
   style="stop-color:#258426"
   id="stop99" />
	<stop
   offset="0.4956"
   style="stop-color:#166D24"
   id="stop101" />
	<stop
   offset="0.54"
   style="stop-color:#0C5F23"
   id="stop103" />
	<stop
   offset="0.5787"
   style="stop-color:#095A22"
   id="stop105" />
	<stop
   offset="0.5948"
   style="stop-color:#166727"
   id="stop107" />
	<stop
   offset="0.6456"
   style="stop-color:#388B33"
   id="stop109" />
	<stop
   offset="0.6932"
   style="stop-color:#51A53C"
   id="stop111" />
	<stop
   offset="0.7359"
   style="stop-color:#61B542"
   id="stop113" />
	<stop
   offset="0.7697"
   style="stop-color:#66BA44"
   id="stop115" />
	<stop
   offset="1"
   style="stop-color:#095A22"
   id="stop117" />
</radialGradient>

<linearGradient
   id="XMLID_14_"
   gradientUnits="userSpaceOnUse"
   x1="538.77338"
   y1="677.87701"
   x2="538.77338"
   y2="789.12207"
   gradientTransform="translate(-484,-674)">
	<stop
   offset="0.0056"
   style="stop-color:#1E7D27"
   id="stop122" />
	<stop
   offset="0.1348"
   style="stop-color:#3BA42A"
   id="stop124" />
	<stop
   offset="0.4831"
   style="stop-color:#B8E57F"
   id="stop126" />
	<stop
   offset="0.6299"
   style="stop-color:#A9E66E"
   id="stop128" />
	<stop
   offset="0.8528"
   style="stop-color:#97E859"
   id="stop130" />
	<stop
   offset="1"
   style="stop-color:#91E851"
   id="stop132" />
</linearGradient>

<radialGradient
   id="XMLID_15_"
   cx="538.77338"
   cy="651.10352"
   r="126.0234"
   gradientTransform="translate(-484,-674)"
   gradientUnits="userSpaceOnUse">
	<stop
   offset="0"
   style="stop-color:#CCEAAC"
   id="stop137" />
	<stop
   offset="0.5393"
   style="stop-color:#3BA42A"
   id="stop139" />
	<stop
   offset="1"
   style="stop-color:#91E851"
   id="stop141" />
</radialGradient>

<linearGradient
   id="XMLID_16_"
   gradientUnits="userSpaceOnUse"
   x1="538.77338"
   y1="675.48541"
   x2="538.77338"
   y2="677.06049"
   gradientTransform="translate(-484,-674)">
	<stop
   offset="0"
   style="stop-color:#FFFFFF"
   id="stop146" />
	<stop
   offset="1"
   style="stop-color:#00BF00"
   id="stop148" />
</linearGradient>


<path
   inkscape:connector-curvature="0"
   id="path2906"
   d="m 2.0000001,9.9085087 c 0,0.9808023 0,31.1112033 0,32.0914913 L 45,30.851693 C 45,30.452127 45,7.9782876 45,7 44.075015,7.1747514 2.9245023,9.7338537 2.0000001,9.9085087 Z"
   style="fill:url(#linearGradient975);fill-opacity:1;stroke-width:0.4802655"
   sodipodi:nodetypes="ccccc" /><path
   style="opacity:0.3;fill:url(#linearGradient915);fill-opacity:1;stroke:none;stroke-width:4;stroke-linecap:round;stroke-linejoin:round;stroke-miterlimit:4;stroke-dasharray:none;stroke-dashoffset:0;stroke-opacity:1;paint-order:normal"
   d="M 36.548828 7.7753906 L 26.425781 10.048828 L 23.785156 15.673828 L 40.205078 32.09375 L 45 30.851562 L 45 12.154297 L 43.689453 10.576172 L 36.548828 7.7753906 z "
   id="rect896" /><path
   style="opacity:0.3;fill:url(#linearGradient913);fill-opacity:1;stroke:none;stroke-width:4;stroke-linecap:round;stroke-linejoin:round;stroke-miterlimit:4;stroke-dasharray:none;stroke-dashoffset:0;stroke-opacity:1;paint-order:normal"
   d="M 45 14.603516 L 32.949219 31 L 35.3125 33.363281 L 45 30.851562 L 45 18.96875 C 44.974313 18.911647 44.953666 18.862151 44.927734 18.804688 L 45 17.492188 L 45 14.603516 z "
   id="rect902" /><path
   inkscape:connector-curvature="0"
   id="path2094"
   d="M 34.053568,34 C 32.339289,34 31,35.339287 31,36.999999 31,38.660713 32.339289,40 33.999997,40 35.66071,40 37,38.660713 37,36.999999 37,35.392857 35.66071,34 34.053568,34"
   style="font-style:normal;font-variant:normal;font-weight:normal;font-stretch:normal;font-size:104.81578827px;line-height:125%;font-family:'Standard Symbols L';text-align:start;writing-mode:lr-tb;text-anchor:start;fill:url(#linearGradient892);fill-opacity:1.0;stroke:none;stroke-width:1.26712978;stroke-linecap:butt;stroke-linejoin:miter;stroke-miterlimit:4;stroke-dasharray:none;stroke-opacity:1" /><path
   style="font-style:normal;font-variant:normal;font-weight:normal;font-stretch:normal;font-size:131.12860107px;line-height:125%;font-family:Cotillion;text-align:start;writing-mode:lr-tb;text-anchor:start;fill:#41505b;fill-opacity:1;stroke:none;stroke-width:0.39506641px;stroke-linecap:butt;stroke-linejoin:miter;stroke-opacity:1"
   d="m 26.086502,24.078144 -0.0035,0.269378 -0.09408,0.341896 -0.162613,0.248642 c -0.389658,0.776309 -0.813029,1.431651 -1.245144,2.099806 l -0.600506,0.984213 -0.600506,0.984212 -0.347292,0.663054 -0.822359,1.191406 c -0.412739,0.587074 -0.77436,1.073993 -1.084865,1.460761 -0.277228,0.37987 -0.486689,0.656136 -0.628386,0.828799 -0.950141,1.056706 -1.741536,1.650647 -2.374186,1.781822 -0.720167,0.220961 -1.336953,0.151832 -1.850362,-0.207389 -0.513419,-0.359217 -0.844473,-0.953264 -0.993164,-1.782138 l -0.08597,-1.056802 0.126585,-1.315801 -0.609799,0.932408 -0.781706,1.329404 -0.609799,0.932408 c -1.03376,1.360613 -1.972278,2.289536 -2.815558,2.786771 -0.347688,0.179553 -0.6880208,0.303849 -1.0210006,0.37289 -0.8324421,0.1726 -1.5448645,0.05166 -2.137269,-0.362826 C 6.7131489,36.118941 6.3104636,35.414374 6.1369812,34.447356 5.8272063,32.720543 6.0428352,30.93852 6.7838674,29.101282 c 0.8579657,-2.148034 2.3973708,-4.347815 4.6182206,-6.599348 0.706213,-0.683728 1.424816,-1.298396 2.155813,-1.844007 0.730992,-0.545581 1.340027,-0.904695 1.827106,-1.077344 0.480876,-0.207153 0.821209,-0.331449 1.021001,-0.37289 0.865736,-0.179488 1.552216,-0.106898 2.059441,0.217769 0.54051,0.317796 0.830132,0.777148 0.86887,1.378058 l 0.864157,-2.113507 3.346429,-0.693854 -4.934067,11.569165 -0.269465,0.808111 c -0.10454,0.379888 -0.195522,0.739051 -0.272946,1.07749 -0.05034,0.297007 -0.04452,0.618188 0.01744,0.963548 0.123906,0.69073 0.491737,1.008493 1.103496,0.953292 0.199779,-0.04142 0.615223,-0.324577 1.246333,-0.849463 0.208293,-0.18647 0.42395,-0.4282 0.646973,-0.72519 0.06039,-0.04834 0.293856,-0.383315 0.700399,-1.004925 l 0.813065,-1.243211 0.885079,-1.419336 0.162613,-0.248642 0.39724,-0.673411 0.631865,-0.898019 0.788665,-1.668003 0.225332,-0.476573 0.231147,-0.155389 0.168427,0.07254 m -7.55829,-2.57017 c 0.0085,-0.145035 -0.01202,-0.355705 -0.06158,-0.63201 -0.173484,-0.967002 -0.759689,-1.34695 -1.758616,-1.139846 -0.632663,0.131193 -1.279253,0.569736 -1.939773,1.31563 -0.633425,0.704484 -1.564191,2.061651 -2.792303,4.071503 l -0.631865,1.098178 -0.315934,0.549089 -0.657411,1.533325 c -0.252434,0.51802 -0.4924774,1.105105 -0.7201316,1.761256 -0.267144,0.628531 -0.4080724,0.99805 -0.4227855,1.108558 -0.1672502,0.607818 -0.2636495,1.129298 -0.2891981,1.564442 -0.03174,0.400615 -0.00928,0.718346 0.067388,0.953194 0.2795683,0.980843 0.9021685,1.371155 1.8678042,1.170938 0.366276,-0.07594 0.703511,-0.217508 1.011706,-0.424695 0.341493,-0.214088 0.73835,-0.600851 1.190573,-1.16029 0.479322,-0.600873 1.08912,-1.733438 1.829398,-2.997382 l 0.550559,-0.973856 c 0.279532,-0.559445 0.456856,-0.918601 0.531972,-1.077465 0.25243,-0.518005 0.396456,-0.870255 0.432079,-1.056753 l 0.648118,-1.384973 0.400719,-0.942789 c 0.52809,-1.291575 0.850599,-2.092773 0.96753,-2.403598 0.110721,-0.345333 0.141303,-0.656151 0.09175,-0.932456"
   id="text3176"
   inkscape:connector-curvature="0"
   sodipodi:nodetypes="cccccccccccccccccccccccccccccccccccccccccccccccccccccccccccccccccccccccc" />
<path
   inkscape:connector-curvature="0"
   sodipodi:nodetypes="cccssssssssccc"
   id="path2092"
   d="m 35.648014,31 c 0.06724,-2.867769 0.329948,-4.949222 2.885497,-7.123176 4.10234,-3.09904 3.902166,-3.099044 4.978189,-4.209148 C 45.192983,17.956265 46,16.198595 46,14.348421 46,10.27804 41.225141,7 34.365499,7 28.111119,7 23,9.977622 23,13.58546 c 0,1.988937 1.813977,3.46908 3.898763,3.46908 1.614038,0 3.176475,-0.83258 3.176475,-1.896431 0,-0.508797 -0.295987,-0.989248 -0.874266,-1.572649 -2.703491,-2.72744 1.858012,-3.533526 4.238663,-3.53846 4.035078,-0.0084 6.171476,1.017363 6.171476,4.486439 0,2.081445 -0.609996,3.006539 -3.636304,7.169429 C 33.486502,25.171944 33.082995,26.420821 32.948489,31 h 2.699525"
   style="font-style:normal;font-variant:normal;font-weight:normal;font-stretch:normal;font-size:104.81578827px;line-height:125%;font-family:'Standard Symbols L';text-align:start;writing-mode:lr-tb;text-anchor:start;fill:url(#linearGradient884);fill-opacity:1;stroke:none;stroke-width:1.21557271;stroke-linecap:butt;stroke-linejoin:round;stroke-miterlimit:4;stroke-dasharray:none;stroke-opacity:1" /></svg>