<?xml version="1.0" encoding="UTF-8" standalone="no"?>
<svg
   xmlns:dc="http://purl.org/dc/elements/1.1/"
   xmlns:cc="http://creativecommons.org/ns#"
   xmlns:rdf="http://www.w3.org/1999/02/22-rdf-syntax-ns#"
   xmlns:svg="http://www.w3.org/2000/svg"
   xmlns="http://www.w3.org/2000/svg"
   xmlns:xlink="http://www.w3.org/1999/xlink"
   xmlns:sodipodi="http://sodipodi.sourceforge.net/DTD/sodipodi-0.dtd"
   xmlns:inkscape="http://www.inkscape.org/namespaces/inkscape"
   width="48"
   height="48"
   version="1.1"
   id="svg50"
   sodipodi:docname="org.gnome.design.IconLibrary.svg"
   inkscape:version="0.92.3 (2405546, 2018-03-11)">
  <metadata
     id="metadata56">
    <rdf:RDF>
      <cc:Work
         rdf:about="">
        <dc:format>image/svg+xml</dc:format>
        <dc:type
           rdf:resource="http://purl.org/dc/dcmitype/StillImage" />
        <dc:title></dc:title>
      </cc:Work>
    </rdf:RDF>
  </metadata>
  <defs
     id="defs54">
    <linearGradient
       inkscape:collect="always"
       id="linearGradient1055">
      <stop
         style="stop-color:#000000;stop-opacity:1;"
         offset="0"
         id="stop1051" />
      <stop
         style="stop-color:#000000;stop-opacity:0;"
         offset="1"
         id="stop1053" />
    </linearGradient>
    <linearGradient
       inkscape:collect="always"
       id="linearGradient972">
      <stop
         style="stop-color:#343353;stop-opacity:1;"
         offset="0"
         id="stop968" />
      <stop
         style="stop-color:#565570;stop-opacity:1"
         offset="1"
         id="stop970" />
    </linearGradient>
    <linearGradient
       id="b"
       y1="4"
       x1="8"
       y2="18"
       gradientUnits="userSpaceOnUse"
       x2="22"
       gradientTransform="translate(0,7.2717667e-6)">
      <stop
         stop-color="#292c2f"
         id="stop7" />
      <stop
         offset="1"
         stop-opacity="0"
         id="stop9" />
    </linearGradient>
    <linearGradient
       inkscape:collect="always"
       xlink:href="#linearGradient4543"
       id="linearGradient4545"
       x1="12"
       y1="18.691"
       x2="12.413043"
       y2="4.2391305"
       gradientUnits="userSpaceOnUse"
       gradientTransform="translate(0,7.2717667e-6)" />
    <linearGradient
       inkscape:collect="always"
       id="linearGradient4543">
      <stop
         style="stop-color:#d73733;stop-opacity:1"
         offset="0"
         id="stop4539" />
      <stop
         style="stop-color:#f88885;stop-opacity:1"
         offset="1"
         id="stop4541" />
    </linearGradient>
    <linearGradient
       inkscape:collect="always"
       xlink:href="#linearGradient972"
       id="linearGradient974"
       x1="34.263988"
       y1="42.507885"
       x2="25.213774"
       y2="3.7704372"
       gradientUnits="userSpaceOnUse" />
    <linearGradient
       inkscape:collect="always"
       xlink:href="#linearGradient1055"
       id="linearGradient1057"
       x1="16"
       y1="23.0625"
       x2="24.727486"
       y2="31.789986"
       gradientUnits="userSpaceOnUse" />
    <linearGradient
       inkscape:collect="always"
       xlink:href="#linearGradient1055"
       id="linearGradient1059"
       x1="22.027414"
       y1="22.557344"
       x2="26.223967"
       y2="26.753897"
       gradientUnits="userSpaceOnUse" />
    <linearGradient
       inkscape:collect="always"
       xlink:href="#linearGradient1055"
       id="linearGradient1061"
       x1="21.773479"
       y1="26.233322"
       x2="27.924412"
       y2="32.384254"
       gradientUnits="userSpaceOnUse" />
    <linearGradient
       inkscape:collect="always"
       xlink:href="#linearGradient1055"
       id="linearGradient1063"
       x1="25.671906"
       y1="26.538044"
       x2="30.255455"
       y2="31.121593"
       gradientUnits="userSpaceOnUse" />
    <linearGradient
       inkscape:collect="always"
       xlink:href="#linearGradient1055"
       id="linearGradient1065"
       x1="26.078203"
       y1="22.436405"
       x2="29.79837"
       y2="26.156572"
       gradientUnits="userSpaceOnUse" />
    <linearGradient
       inkscape:collect="always"
       xlink:href="#linearGradient1055"
       id="linearGradient1067"
       x1="30"
       y1="23"
       x2="37.325798"
       y2="30.3258"
       gradientUnits="userSpaceOnUse" />
  </defs>
  <sodipodi:namedview
     pagecolor="#ffffff"
     bordercolor="#666666"
     borderopacity="1"
     objecttolerance="10"
     gridtolerance="10"
     guidetolerance="10"
     inkscape:pageopacity="0"
     inkscape:pageshadow="2"
     inkscape:window-width="1920"
     inkscape:window-height="1020"
     id="namedview52"
     showgrid="false"
     inkscape:zoom="6.06"
     inkscape:cx="23.581333"
     inkscape:cy="21.74216"
     inkscape:window-x="0"
     inkscape:window-y="30"
     inkscape:window-maximized="1"
     inkscape:current-layer="svg50" />
  <rect
     style="fill:url(#linearGradient974);fill-opacity:1"
     id="rect29"
     height="40"
     rx="0"
     y="3.9999928"
     x="6"
     width="36" />
  <path
     inkscape:connector-curvature="0"
     style="opacity:0.25;fill:url(#b);fill-rule:evenodd"
     id="path39"
     d="M 16,4.0000073 V 21.000007 l -4,-2.309 -4,2.309 23,23 h 11 v -14 z" />
  <rect
     style="fill:#080809"
     id="rect33"
     height="1"
     y="42.999992"
     x="6"
     width="36" />
  <path
     inkscape:connector-curvature="0"
     style="fill:url(#linearGradient4545);fill-opacity:1"
     id="path35"
     d="M 8,4.0000073 V 21.000007 l 4,-2.309 4,2.309 V 4.0000073 Z" />
  <rect
     style="opacity:0.6;fill:#080809"
     id="rect37"
     height="40"
     y="3.9999928"
     x="6"
     width="2" />
  <rect
     style="fill:#8b8f8f"
     id="rect41"
     height="1"
     y="41.999992"
     x="8"
     width="34" />
  <path
     style="opacity:0.3;fill:url(#linearGradient1057);fill-opacity:1;stroke:none;stroke-width:1.53226173;stroke-linecap:round;stroke-linejoin:round;stroke-miterlimit:4;stroke-dasharray:none;stroke-dashoffset:0;stroke-opacity:1;paint-order:normal"
     d="M 19.416016 22.652344 L 19.652344 24.412109 L 18.222656 26.277344 L 17.738281 27.210938 L 15.949219 29 L 30.949219 44 L 40.763672 44 L 35.474609 38.710938 L 19.416016 22.652344 z "
     id="rect1011" />
  <rect
     style="fill:#212323;fill-opacity:0.45199998"
     id="rect43"
     height="1"
     y="40.999992"
     x="8"
     width="34" />
  <path
     inkscape:connector-curvature="0"
     style="opacity:0.1;fill:#ffffff;fill-opacity:1"
     id="path45"
     d="m 9,4.0000073 h 6 V 19.000007 l -3,-2 -3,2 z" />
  <path
     style="opacity:0.3;fill:url(#linearGradient1067);fill-opacity:1;stroke:none;stroke-width:1.53226173;stroke-linecap:round;stroke-linejoin:round;stroke-miterlimit:4;stroke-dasharray:none;stroke-dashoffset:0;stroke-opacity:1;paint-order:normal"
     d="M 36 22 L 35.605469 26.859375 L 35.277344 28.601562 L 32.552734 28.550781 L 30.755859 28.169922 L 29 29 L 42 42 L 42 28 L 36 22 z "
     id="rect1005" />
  <path
     style="opacity:0.3;fill:url(#linearGradient1059);fill-opacity:1;stroke:none;stroke-width:1.04467618;stroke-linecap:round;stroke-linejoin:round;stroke-miterlimit:4;stroke-dasharray:none;stroke-dashoffset:0;stroke-opacity:1;paint-order:normal"
     d="M 23.580078 22.445312 L 23.404297 23.382812 L 22.931641 24.646484 L 21.417969 24.533203 L 32.166016 35.283203 L 40.882812 44 L 42 44 L 42 40.865234 L 34.291016 33.15625 L 23.580078 22.445312 z "
     id="rect1022" />
  <path
     style="opacity:0.3;fill:url(#linearGradient1065);fill-opacity:1;stroke:none;stroke-width:1.04467618;stroke-linecap:round;stroke-linejoin:round;stroke-miterlimit:4;stroke-dasharray:none;stroke-dashoffset:0;stroke-opacity:1;paint-order:normal"
     d="M 27.578125 22.445312 L 27.404297 23.382812 L 26.931641 24.646484 L 25.417969 24.533203 L 36.166016 35.283203 L 42 41.117188 L 42 36.865234 L 38.291016 33.15625 L 27.578125 22.445312 z "
     id="path1027" />
  <path
     style="opacity:0.3;fill:url(#linearGradient1061);fill-opacity:1;stroke:none;stroke-width:1.04467618;stroke-linecap:round;stroke-linejoin:round;stroke-miterlimit:4;stroke-dasharray:none;stroke-dashoffset:0;stroke-opacity:1;paint-order:normal"
     d="M 23.580078 26.445312 L 23.404297 27.382812 L 22.931641 28.646484 L 21.417969 28.533203 L 32.166016 39.283203 L 36.882812 44 L 41.134766 44 L 34.291016 37.15625 L 23.580078 26.445312 z "
     id="path1029" />
  <path
     style="opacity:0.3;fill:url(#linearGradient1063);fill-opacity:1;stroke:none;stroke-width:1.04467618;stroke-linecap:round;stroke-linejoin:round;stroke-miterlimit:4;stroke-dasharray:none;stroke-dashoffset:0;stroke-opacity:1;paint-order:normal"
     d="M 27.578125 26.445312 L 27.404297 27.382812 L 26.931641 28.646484 L 25.417969 28.533203 L 36.166016 39.283203 L 40.882812 44 L 42 44 L 42 40.865234 L 38.291016 37.15625 L 27.578125 26.445312 z "
     id="path1031" />
  <path
     style="color:#000000;font-style:normal;font-variant:normal;font-weight:normal;font-stretch:normal;font-size:medium;line-height:normal;font-family:sans-serif;font-variant-ligatures:normal;font-variant-position:normal;font-variant-caps:normal;font-variant-numeric:normal;font-variant-alternates:normal;font-feature-settings:normal;text-indent:0;text-align:start;text-decoration:none;text-decoration-line:none;text-decoration-style:solid;text-decoration-color:#000000;letter-spacing:normal;word-spacing:normal;text-transform:none;writing-mode:lr-tb;direction:ltr;text-orientation:mixed;dominant-baseline:auto;baseline-shift:baseline;text-anchor:start;white-space:normal;shape-padding:0;clip-rule:nonzero;display:inline;overflow:visible;visibility:visible;opacity:1;isolation:auto;mix-blend-mode:normal;color-interpolation:sRGB;color-interpolation-filters:linearRGB;solid-color:#000000;solid-opacity:1;vector-effect:none;fill:#ffffff;fill-opacity:1;fill-rule:nonzero;stroke:none;stroke-width:2;stroke-linecap:butt;stroke-linejoin:miter;stroke-miterlimit:4;stroke-dasharray:none;stroke-dashoffset:0;stroke-opacity:1;color-rendering:auto;image-rendering:auto;shape-rendering:auto;text-rendering:auto;enable-background:accumulate"
     d="M 14.154297 22 C 12.964247 22 12 22.982824 12 24.193359 C 12 24.824037 12.261319 25.39098 12.679688 25.791016 L 15.949219 29 L 19.320312 25.791016 C 19.738678 25.39098 20 24.824037 20 24.193359 C 20 22.982824 19.035754 22 17.845703 22 C 17.06254 22 16.376275 22.425308 16 23.0625 C 15.623724 22.425308 14.937459 22 14.154297 22 z M 22.5 22 A 1.5 1.5 0 0 0 21 23.5 A 1.5 1.5 0 0 0 22.5 25 A 1.5 1.5 0 0 0 24 23.5 A 1.5 1.5 0 0 0 22.5 22 z M 26.5 22 A 1.5 1.5 0 0 0 25 23.5 A 1.5 1.5 0 0 0 26.5 25 A 1.5 1.5 0 0 0 28 23.5 A 1.5 1.5 0 0 0 26.5 22 z M 29 22 L 29 29 L 36 29 L 36 22 L 29 22 z M 14.154297 23 C 14.574742 23 14.933826 23.225376 15.138672 23.572266 L 16 25.029297 L 16.861328 23.572266 C 17.066173 23.225378 17.425256 23 17.845703 23 C 18.485356 23 19 23.513877 19 24.193359 C 19 24.547637 18.855884 24.851326 18.628906 25.068359 L 17.814453 25.847656 L 15.960938 27.609375 L 15.126953 26.791016 L 15.171875 26.791016 L 13.371094 25.068359 C 13.144115 24.851326 13 24.547637 13 24.193359 C 13 23.513877 13.514644 23 14.154297 23 z M 22.5 23 A 0.5 0.5 0 0 1 23 23.5 A 0.5 0.5 0 0 1 22.5 24 A 0.5 0.5 0 0 1 22 23.5 A 0.5 0.5 0 0 1 22.5 23 z M 26.5 23 A 0.5 0.5 0 0 1 27 23.5 A 0.5 0.5 0 0 1 26.5 24 A 0.5 0.5 0 0 1 26 23.5 A 0.5 0.5 0 0 1 26.5 23 z M 30 23 L 35 23 L 35 28 L 30 28 L 30 23 z M 22.5 26 A 1.5 1.5 0 0 0 21 27.5 A 1.5 1.5 0 0 0 22.5 29 A 1.5 1.5 0 0 0 24 27.5 A 1.5 1.5 0 0 0 22.5 26 z M 26.5 26 A 1.5 1.5 0 0 0 25 27.5 A 1.5 1.5 0 0 0 26.5 29 A 1.5 1.5 0 0 0 28 27.5 A 1.5 1.5 0 0 0 26.5 26 z M 22.5 27 A 0.5 0.5 0 0 1 23 27.5 A 0.5 0.5 0 0 1 22.5 28 A 0.5 0.5 0 0 1 22 27.5 A 0.5 0.5 0 0 1 22.5 27 z M 26.5 27 A 0.5 0.5 0 0 1 27 27.5 A 0.5 0.5 0 0 1 26.5 28 A 0.5 0.5 0 0 1 26 27.5 A 0.5 0.5 0 0 1 26.5 27 z "
     id="path983" />
</svg>
