<?xml version="1.0" encoding="UTF-8" standalone="no"?>
<svg
   xmlns:dc="http://purl.org/dc/elements/1.1/"
   xmlns:cc="http://creativecommons.org/ns#"
   xmlns:rdf="http://www.w3.org/1999/02/22-rdf-syntax-ns#"
   xmlns:svg="http://www.w3.org/2000/svg"
   xmlns="http://www.w3.org/2000/svg"
   xmlns:xlink="http://www.w3.org/1999/xlink"
   xmlns:sodipodi="http://sodipodi.sourceforge.net/DTD/sodipodi-0.dtd"
   xmlns:inkscape="http://www.inkscape.org/namespaces/inkscape"
   height="48"
   width="48"
   version="1"
   id="svg20"
   sodipodi:docname="pushbullet-indicator.svg"
   inkscape:version="0.92.1 r15371">
  <metadata
     id="metadata26">
    <rdf:RDF>
      <cc:Work
         rdf:about="">
        <dc:format>image/svg+xml</dc:format>
        <dc:type
           rdf:resource="http://purl.org/dc/dcmitype/StillImage" />
        <dc:title></dc:title>
      </cc:Work>
    </rdf:RDF>
  </metadata>
  <defs
     id="defs24">
    <linearGradient
       inkscape:collect="always"
       id="linearGradient4536">
      <stop
         style="stop-color:#000000;stop-opacity:1;"
         offset="0"
         id="stop4532" />
      <stop
         style="stop-color:#000000;stop-opacity:0;"
         offset="1"
         id="stop4534" />
    </linearGradient>
    <linearGradient
       inkscape:collect="always"
       id="linearGradient4528">
      <stop
         style="stop-color:#000000;stop-opacity:1;"
         offset="0"
         id="stop4524" />
      <stop
         style="stop-color:#000000;stop-opacity:0;"
         offset="1"
         id="stop4526" />
    </linearGradient>
    <linearGradient
       inkscape:collect="always"
       id="linearGradient4507">
      <stop
         style="stop-color:#3e9656;stop-opacity:1;"
         offset="0"
         id="stop4503" />
      <stop
         style="stop-color:#77c78d;stop-opacity:1"
         offset="1"
         id="stop4505" />
    </linearGradient>
    <linearGradient
       inkscape:collect="always"
       xlink:href="#linearGradient4507"
       id="linearGradient4509"
       x1="-44"
       y1="-24"
       x2="-4"
       y2="-24"
       gradientUnits="userSpaceOnUse" />
    <linearGradient
       inkscape:collect="always"
       xlink:href="#linearGradient4528"
       id="linearGradient4530"
       x1="15.059106"
       y1="24.069824"
       x2="24.726618"
       y2="33.737335"
       gradientUnits="userSpaceOnUse" />
    <linearGradient
       inkscape:collect="always"
       xlink:href="#linearGradient4536"
       id="linearGradient4538"
       x1="27.556152"
       y1="24.097019"
       x2="37.380051"
       y2="33.920918"
       gradientUnits="userSpaceOnUse" />
  </defs>
  <sodipodi:namedview
     pagecolor="#ffffff"
     bordercolor="#666666"
     borderopacity="1"
     objecttolerance="10"
     gridtolerance="10"
     guidetolerance="10"
     inkscape:pageopacity="0"
     inkscape:pageshadow="2"
     inkscape:window-width="1600"
     inkscape:window-height="808"
     id="namedview22"
     showgrid="false"
     inkscape:zoom="10.66"
     inkscape:cx="22.612591"
     inkscape:cy="16.706927"
     inkscape:window-x="0"
     inkscape:window-y="0"
     inkscape:window-maximized="1"
     inkscape:current-layer="svg20" />
  <rect
     transform="matrix(0,-1,-1,0,0,0)"
     rx="20"
     ry="20"
     height="40"
     width="40"
     y="-44"
     x="-44"
     fill="#4ab367"
     id="rect2"
     style="fill:url(#linearGradient4509);fill-opacity:1" />
  <path
     d="M 4.0117,23.5 C 4.0076,23.667 4,23.832 4,24 4,35.08 12.92,44 24,44 35.08,44 44,35.08 44,24 44,23.832 43.992,23.667 43.988,23.5 43.724,34.346 34.912,43 24,43 13.088,43 4.276,34.346 4.012,23.5 Z"
     id="path6"
     inkscape:connector-curvature="0"
     style="opacity:0.2" />
  <path
     style="opacity:0.2;vector-effect:none;fill:url(#linearGradient4538);fill-opacity:1;stroke:none;stroke-width:1.38281429;stroke-linecap:round;stroke-linejoin:round;stroke-miterlimit:4;stroke-dasharray:none;stroke-dashoffset:0;stroke-opacity:1"
     d="M 33.128906 17.976562 L 22.767578 28.339844 L 23.171875 28.746094 L 20.230469 31.6875 L 44.177734 55.636719 L 54.541016 45.273438 L 54.134766 44.867188 L 57.078125 41.923828 L 33.128906 17.976562 z "
     id="rect4511" />
  <path
     style="opacity:0.3;vector-effect:none;fill:url(#linearGradient4530);fill-opacity:1;stroke:none;stroke-width:2;stroke-linecap:round;stroke-linejoin:round;stroke-miterlimit:4;stroke-dasharray:none;stroke-dashoffset:0;stroke-opacity:1"
     d="M 17.667969 16.232422 L 16.880859 26.863281 L 12.146484 31.599609 L 27.105469 46.558594 L 31.841797 41.824219 L 27.488281 37.470703 L 32.628906 31.191406 L 17.667969 16.232422 z "
     id="rect4516" />
  <g
     transform="translate(0.999975)"
     id="g18"
     style="fill:#f9f9f9">
    <path
       d="m 12,16 h 4 c 0.551,0 1,0.396 1,0.886 V 31.111 C 17,31.601 16.551,32 16,32 h -4 c -0.551,0 -1,-0.399 -1,-0.889 V 16.886 C 11,16.396 11.449,16 12,16"
       id="path14"
       inkscape:connector-curvature="0" />
    <path
       d="M 19.944,16 C 19.422,16 19,16.396 19,16.885 v 14.222 c 0,0.48978 0.42167,0.88889 0.94378,0.88889 2.8427,0 3.68367,0.0036 6.52827,0.0036 4.709,10e-4 8.528,-3.581 8.528,-7.999 0,-4.4178 -3.8187,-8 -8.5281,-8 h -6.52827 z"
       id="path16"
       inkscape:connector-curvature="0"
       sodipodi:nodetypes="cssscsscc" />
  </g>
</svg>
