<?xml version="1.0" encoding="UTF-8" standalone="no"?>
<svg
   xmlns:dc="http://purl.org/dc/elements/1.1/"
   xmlns:cc="http://creativecommons.org/ns#"
   xmlns:rdf="http://www.w3.org/1999/02/22-rdf-syntax-ns#"
   xmlns:svg="http://www.w3.org/2000/svg"
   xmlns="http://www.w3.org/2000/svg"
   xmlns:xlink="http://www.w3.org/1999/xlink"
   xmlns:sodipodi="http://sodipodi.sourceforge.net/DTD/sodipodi-0.dtd"
   xmlns:inkscape="http://www.inkscape.org/namespaces/inkscape"
   width="48"
   height="48"
   version="1"
   id="svg12"
   sodipodi:docname="system-shutdown.svg"
   inkscape:version="0.92.3 (2405546, 2018-03-11)">
  <metadata
     id="metadata18">
    <rdf:RDF>
      <cc:Work
         rdf:about="">
        <dc:format>image/svg+xml</dc:format>
        <dc:type
           rdf:resource="http://purl.org/dc/dcmitype/StillImage" />
      </cc:Work>
    </rdf:RDF>
  </metadata>
  <defs
     id="defs16">
    <linearGradient
       inkscape:collect="always"
       id="linearGradient845">
      <stop
         style="stop-color:#ffffff;stop-opacity:1;"
         offset="0"
         id="stop840" />
      <stop
         style="stop-color:#ffffff;stop-opacity:0;"
         offset="1"
         id="stop843" />
    </linearGradient>
    <linearGradient
       inkscape:collect="always"
       id="linearGradient865">
      <stop
         style="stop-color:#000000;stop-opacity:1;"
         offset="0"
         id="stop861" />
      <stop
         style="stop-color:#000000;stop-opacity:0;"
         offset="1"
         id="stop863" />
    </linearGradient>
    <linearGradient
       inkscape:collect="always"
       id="linearGradient846">
      <stop
         style="stop-color:#a62419;stop-opacity:1"
         offset="0"
         id="stop842" />
      <stop
         style="stop-color:#d8584c;stop-opacity:1"
         offset="1"
         id="stop844" />
    </linearGradient>
    <linearGradient
       inkscape:collect="always"
       xlink:href="#linearGradient846"
       id="linearGradient848"
       x1="31.483906"
       y1="42.356411"
       x2="24.861862"
       y2="4.9475851"
       gradientUnits="userSpaceOnUse" />
    <linearGradient
       inkscape:collect="always"
       xlink:href="#linearGradient865"
       id="linearGradient867"
       x1="27.650057"
       y1="21.911186"
       x2="37.311806"
       y2="38.645824"
       gradientUnits="userSpaceOnUse" />
    <linearGradient
       inkscape:collect="always"
       xlink:href="#linearGradient865"
       id="linearGradient884"
       x1="22"
       y1="8"
       x2="37.002464"
       y2="23.002464"
       gradientUnits="userSpaceOnUse" />
    <linearGradient
       inkscape:collect="always"
       xlink:href="#linearGradient845"
       id="linearGradient847"
       x1="21.146551"
       y1="5.465517"
       x2="26.278736"
       y2="45.120689"
       gradientUnits="userSpaceOnUse" />
  </defs>
  <sodipodi:namedview
     pagecolor="#ffffff"
     bordercolor="#666666"
     borderopacity="1"
     objecttolerance="10"
     gridtolerance="10"
     guidetolerance="10"
     inkscape:pageopacity="0"
     inkscape:pageshadow="2"
     inkscape:window-width="1920"
     inkscape:window-height="1020"
     id="namedview14"
     showgrid="false"
     inkscape:zoom="13.92"
     inkscape:cx="10.781609"
     inkscape:cy="24"
     inkscape:window-x="0"
     inkscape:window-y="30"
     inkscape:window-maximized="1"
     inkscape:current-layer="svg12" />
  <circle
     cx="24"
     cy="24"
     r="20"
     id="circle2"
     style="fill:url(#linearGradient848);fill-opacity:1" />
  <path
     d="M 43.979,23.418 A 20,20 0 0 1 24,43 20,20 0 0 1 4.022,23.582 20,20 0 0 0 4,24 20,20 0 0 0 24,44 20,20 0 0 0 44,24 20,20 0 0 0 43.979,23.418 Z"
     id="path10"
     inkscape:connector-curvature="0"
     style="opacity:0.2" />
  <path
     style="opacity:0.2;fill:url(#linearGradient867);fill-opacity:1;stroke:none;stroke-width:4;stroke-linecap:round;stroke-linejoin:round;stroke-miterlimit:4;stroke-dasharray:none;stroke-dashoffset:0;stroke-opacity:1;paint-order:normal"
     d="M 34.992188 12.355469 L 35.011719 12.408203 C 38.082405 15.311667 40 19.417141 40 24 C 40 32.864 32.864 40 24 40 C 19.620452 40 15.666799 38.253639 12.783203 35.421875 L 21.128906 43.767578 A 20 20 0 0 0 24 44 A 20 20 0 0 0 44 24 A 20 20 0 0 0 43.773438 21.136719 L 34.992188 12.355469 z M 12.380859 35.019531 L 12.578125 35.216797 C 12.519012 35.156601 12.466361 35.090422 12.408203 35.029297 L 12.380859 35.019531 z "
     id="rect850" />
  <path
     style="opacity:0.3;fill:url(#linearGradient884);fill-opacity:1;stroke:none;stroke-width:2.45166636;stroke-linecap:round;stroke-linejoin:round;stroke-miterlimit:4;stroke-dasharray:none;stroke-dashoffset:0;stroke-opacity:1;paint-order:normal"
     d="M 26 8 L 26 22 L 22 22 L 33.908203 33.908203 C 36.438703 31.377703 38 27.878 38 24 C 38 22.277512 37.682411 20.636037 37.117188 19.117188 L 28.917969 10.917969 C 28.616038 10.805274 28.311486 10.697696 28 10.605469 L 28 10 L 26 8 z M 39.841797 21.841797 C 39.849926 21.902281 39.85778 21.962734 39.865234 22.023438 C 39.85824 21.964921 39.855049 21.906138 39.847656 21.847656 L 39.841797 21.841797 z M 39.953125 22.878906 C 39.978688 23.24992 40 23.622158 40 24 C 40 23.625648 39.981916 23.251918 39.953125 22.878906 z "
     id="path853" />
  <path
     inkscape:connector-curvature="0"
     style="fill:url(#linearGradient847);fill-opacity:1;stroke:none;stroke-width:2"
     d="M 22,8.0000001 V 22 h 4 V 8.0000001 Z m -2,0.53125 C 13.088904,10.300437 8,16.522021 8,24 8,32.864 15.136,40 24,40 32.864,40 40,32.864 40,24 40,16.522021 34.911096,10.300437 28,8.5312501 V 10.605468 C 33.790082,12.31984 38,17.63925 38,24 38,31.756 31.756,38 24,38 16.244,38 10,31.756 10,24 10,17.63925 14.209918,12.31984 20,10.605468 Z"
     class="ColorScheme-Text"
     id="path4-3" />
</svg>
