<?xml version="1.0" encoding="UTF-8" standalone="no"?>
<!-- Created with Inkscape (http://www.inkscape.org/) -->

<svg
   width="64"
   version="1.1"
   height="64"
   id="svg38"
   sodipodi:docname="cpu.svg"
   inkscape:version="1.1 (c4e8f9ed74, 2021-05-24)"
   xmlns:inkscape="http://www.inkscape.org/namespaces/inkscape"
   xmlns:sodipodi="http://sodipodi.sourceforge.net/DTD/sodipodi-0.dtd"
   xmlns:xlink="http://www.w3.org/1999/xlink"
   xmlns="http://www.w3.org/2000/svg"
   xmlns:svg="http://www.w3.org/2000/svg">
  <sodipodi:namedview
     id="namedview40"
     pagecolor="#ffffff"
     bordercolor="#666666"
     borderopacity="1.0"
     inkscape:pageshadow="2"
     inkscape:pageopacity="0.0"
     inkscape:pagecheckerboard="0"
     showgrid="false"
     inkscape:zoom="10.765625"
     inkscape:cx="31.953556"
     inkscape:cy="32"
     inkscape:window-width="1920"
     inkscape:window-height="1021"
     inkscape:window-x="0"
     inkscape:window-y="29"
     inkscape:window-maximized="1"
     inkscape:current-layer="layer1" />
  <defs
     id="defs5455">
    <linearGradient
       inkscape:collect="always"
       id="linearGradient4251-0">
      <stop
         style="stop-color:#63984b"
         id="stop4253-4" />
      <stop
         offset="1"
         style="stop-color:#8fc278"
         id="stop4255-2" />
    </linearGradient>
    <linearGradient
       inkscape:collect="always"
       xlink:href="#linearGradient4251-0"
       id="linearGradient4291"
       y1="549.79797"
       y2="497.79797"
       x2="0"
       gradientUnits="userSpaceOnUse"
       gradientTransform="matrix(1 0 0 1 -376.57144 -491.79797)" />
    <linearGradient
       inkscape:collect="always"
       xlink:href="#linearGradient4219"
       id="linearGradient4337"
       y1="549.79797"
       y2="497.79797"
       gradientUnits="userSpaceOnUse"
       x2="0"
       gradientTransform="matrix(0.65384614 0 0 0.65384614 141.42858 181.31471)" />
    <linearGradient
       inkscape:collect="always"
       id="linearGradient4227">
      <stop
         style="stop-color:#292c2f"
         id="stop4229" />
      <stop
         offset="1"
         style="stop-opacity:0"
         id="stop4231" />
    </linearGradient>
    <linearGradient
       inkscape:collect="always"
       xlink:href="#linearGradient4227"
       id="linearGradient4383"
       y1="15"
       x1="15"
       y2="57"
       x2="57"
       gradientUnits="userSpaceOnUse" />
    <linearGradient
       inkscape:collect="always"
       id="linearGradient4219">
      <stop
         style="stop-color:#999a9c"
         id="stop4221" />
      <stop
         offset="1"
         style="stop-color:#dcdfdf"
         id="stop4223" />
    </linearGradient>
  </defs>
  <metadata
     id="metadata5458" />
  <g
     inkscape:label="Capa 1"
     inkscape:groupmode="layer"
     id="layer1"
     transform="translate(-376.57144,-491.79797)">
    <path
       style="fill:#dce269;fill-rule:evenodd"
       id="path4346"
       d="m 6,15 v 1 L 9.1992188,18.400391 10,18 Z"
       transform="translate(376.57144,491.79797)" />
    <path
       style="fill:url(#linearGradient4291)"
       id="rect4283"
       d="m 6,6 v 9 l 4,3 -4,2 V 58 H 58 V 6 Z"
       transform="translate(376.57144,491.79797)" />
    <path
       style="opacity:0.2;fill:url(#linearGradient4383);fill-rule:evenodd"
       id="path4378"
       d="m 49,15 -34,34 9,9 H 58 V 24 Z"
       transform="translate(376.57144,491.79797)" />
    <rect
       width="52"
       x="382.57144"
       y="548.79773"
       height="1"
       style="fill:#dce269"
       id="rect4293" />
    <path
       inkscape:connector-curvature="0"
       style="color:#000000"
       id="path4303-6"
       d="m 427.57143,543.79797 v 1 h -1 v -1 z m -1,1 v 1 h -1 v -1 z m -1,0 h -1 v -1 h 1 z m -1,0 v 1 h -1 v -1 z m -1,0 h -1 v -1 h 1 z m -1,0 v 1 h -1 v -1 z m -1,0 h -1 v -1 h 1 z m -1,0 v 1 h -1 v -1 z m -1,0 h -1 v -1 h 1 z m -1,0 v 1 h -1 v -1 z m -1,0 h -1 v -1 h 1 z m -1,0 v 1 h -1 v -1 z m -1,0 h -1 v -1 h 1 z m -1,0 v 1 h -1 v -1 z m -1,0 h -1 v -1 h 1 z m -1,0 v 1 h -1 v -1 z" />
    <path
       inkscape:connector-curvature="0"
       style="fill:#e6ea97;fill-rule:evenodd"
       id="path4317"
       d="m 431.57143,543.79797 -2,2 h 2 z" />
    <path
       inkscape:connector-curvature="0"
       style="color:#000000"
       id="path4331"
       d="m 387.57143,543.79797 v 1 h 1 v -1 z m 1,1 v 1 h 1 v -1 z m 1,0 h 1 v -1 h -1 z m 1,0 v 1 h 1 v -1 z m 1,0 h 1 v -1 h -1 z m 1,0 v 1 h 1 v -1 z m 1,0 h 1 v -1 h -1 z m 1,0 v 1 h 1 v -1 z m 1,0 h 1 v -1 h -1 z m 1,0 v 1 h 1 v -1 z m 1,0 h 1 v -1 h -1 z m 1,0 v 1 h 1 v -1 z m 1,0 h 1 v -1 h -1 z m 1,0 v 1 h 1 v -1 z m 1,0 h 1 v -1 h -1 z m 1,0 v 1 h 1 v -1 z" />
    <path
       inkscape:connector-curvature="0"
       style="color:#000000"
       id="path4333"
       d="m 432.57143,521.79797 h -1 v -1 h 1 z m -1,-1 h -1 v -1 h 1 z m 0,-1 v -1 h 1 v 1 z m 0,-1 h -1 v -1 h 1 z m 0,-1 v -1 h 1 v 1 z m 0,-1 h -1 v -1 h 1 z m 0,-1 v -1 h 1 v 1 z m 0,-1 h -1 v -1 h 1 z m 0,-1 v -1 h 1 v 1 z m 0,-1 h -1 v -1 h 1 z m 0,-1 v -1 h 1 v 1 z m 0,-1 h -1 v -1 h 1 z m 0,-1 v -1 h 1 v 1 z m 0,-1 h -1 v -1 h 1 z m 0,-1 v -1 h 1 v 1 z m 0,-1 h -1 v -1 h 1 z" />
    <rect
       width="34"
       x="391.57144"
       y="506.79797"
       height="34"
       style="fill:url(#linearGradient4337)"
       id="rect4335" />
    <path
       inkscape:connector-curvature="0"
       style="color:#000000"
       id="path4339"
       d="m 54,40 v 1 h 1 v -1 z m 1,1 v 1 h 1 v -1 z m 0,1 h -1 v 1 h 1 z m 0,1 v 1 h 1 v -1 z m 0,1 h -1 v 1 h 1 z m 0,1 v 1 h 1 v -1 z m 0,1 h -1 v 1 h 1 z m 0,1 v 1 h 1 v -1 z m 0,1 h -1 v 1 h 1 z"
       transform="translate(376.57144,491.79797)" />
    <rect
       width="34"
       x="391.57144"
       y="539.79797"
       height="0.99999601"
       style="fill:#616365"
       id="rect4167" />
    <rect
       width="8"
       x="393.57144"
       y="535.79797"
       height="1"
       style="fill:#484a4b"
       id="rect4172" />
    <rect
       width="4"
       x="393.57144"
       y="537.79797"
       height="1"
       style="fill:#484a4b"
       id="rect4174" />
    <path
       style="fill:#484a4b"
       id="rect4176"
       d="m 42,16 v 1 h 1 1 v -1 h -1 z m 2,1 v 1 h -1 -1 v 1 1 1 h 1 v -1 -1 h 1 v 1 1 h 1 1 1 v -1 h -1 v -1 h -1 v -1 h 1 v -1 h -1 z m 2,0 h 1 v -1 h -1 z m 0,1 v 1 h 1 v -1 z"
       transform="translate(376.57144,491.79797)" />
  </g>
</svg>
