<?xml version="1.0" encoding="UTF-8" standalone="no"?>
<svg
   width="22"
   height="22"
   version="1"
   id="svg12"
   sodipodi:docname="system-suspend-hibernate.svg"
   inkscape:version="1.1 (c4e8f9ed74, 2021-05-24)"
   xmlns:inkscape="http://www.inkscape.org/namespaces/inkscape"
   xmlns:sodipodi="http://sodipodi.sourceforge.net/DTD/sodipodi-0.dtd"
   xmlns:xlink="http://www.w3.org/1999/xlink"
   xmlns="http://www.w3.org/2000/svg"
   xmlns:svg="http://www.w3.org/2000/svg"
   xmlns:rdf="http://www.w3.org/1999/02/22-rdf-syntax-ns#"
   xmlns:cc="http://creativecommons.org/ns#"
   xmlns:dc="http://purl.org/dc/elements/1.1/">
  <metadata
     id="metadata18">
    <rdf:RDF>
      <cc:Work
         rdf:about="">
        <dc:format>image/svg+xml</dc:format>
        <dc:type
           rdf:resource="http://purl.org/dc/dcmitype/StillImage" />
      </cc:Work>
    </rdf:RDF>
  </metadata>
  <defs
     id="defs16">
    <linearGradient
       inkscape:collect="always"
       id="linearGradient892">
      <stop
         style="stop-color:#000000;stop-opacity:1;"
         offset="0"
         id="stop888" />
      <stop
         style="stop-color:#000000;stop-opacity:0;"
         offset="1"
         id="stop890" />
    </linearGradient>
    <linearGradient
       inkscape:collect="always"
       id="linearGradient869">
      <stop
         style="stop-color:#7936b5;stop-opacity:1"
         offset="0"
         id="stop865" />
      <stop
         style="stop-color:#a874d6;stop-opacity:1"
         offset="1"
         id="stop867" />
    </linearGradient>
    <linearGradient
       gradientTransform="matrix(0.82500008,0,0,0.82500008,-12.375001,-4.9500015)"
       inkscape:collect="always"
       xlink:href="#linearGradient921"
       id="linearGradient923"
       x1="26.333332"
       y1="10.666668"
       x2="32.333332"
       y2="28.666666"
       gradientUnits="userSpaceOnUse" />
    <linearGradient
       inkscape:collect="always"
       id="linearGradient921">
      <stop
         style="stop-color:#ffffff;stop-opacity:1;"
         offset="0"
         id="stop917" />
      <stop
         style="stop-color:#ffffff;stop-opacity:0;"
         offset="1"
         id="stop919" />
    </linearGradient>
    <linearGradient
       inkscape:collect="always"
       xlink:href="#linearGradient869"
       id="linearGradient871"
       x1="30"
       y1="43"
       x2="23"
       y2="7"
       gradientUnits="userSpaceOnUse"
       gradientTransform="matrix(0.55,0,0,0.55,-2.2,-2.2)" />
    <linearGradient
       inkscape:collect="always"
       xlink:href="#linearGradient892"
       id="linearGradient894"
       x1="25"
       y1="13"
       x2="41.153877"
       y2="29.153879"
       gradientUnits="userSpaceOnUse"
       gradientTransform="matrix(0.55,0,0,0.55,-2.2,-2.2)" />
    <linearGradient
       inkscape:collect="always"
       xlink:href="#linearGradient892"
       id="linearGradient896"
       x1="10"
       y1="22"
       x2="28.372007"
       y2="40.372009"
       gradientUnits="userSpaceOnUse"
       gradientTransform="matrix(0.55,0,0,0.55,-2.2,-2.2)" />
  </defs>
  <sodipodi:namedview
     pagecolor="#ffffff"
     bordercolor="#666666"
     borderopacity="1"
     objecttolerance="10"
     gridtolerance="10"
     guidetolerance="10"
     inkscape:pageopacity="0"
     inkscape:pageshadow="2"
     inkscape:window-width="1920"
     inkscape:window-height="993"
     id="namedview14"
     showgrid="true"
     inkscape:zoom="12.14"
     inkscape:cx="8.937397"
     inkscape:cy="17.586491"
     inkscape:window-x="0"
     inkscape:window-y="29"
     inkscape:window-maximized="1"
     inkscape:current-layer="svg12"
     inkscape:pagecheckerboard="0">
    <inkscape:grid
       type="xygrid"
       id="grid858" />
  </sodipodi:namedview>
  <circle
     cx="11"
     cy="11"
     r="11"
     id="circle2"
     style="fill:url(#linearGradient871);fill-opacity:1;stroke-width:0.55" />
  <path
     style="opacity:0.3;fill:url(#linearGradient894);fill-opacity:1;stroke:none;stroke-width:2.2;stroke-linecap:round;stroke-linejoin:round;stroke-miterlimit:4;stroke-dasharray:none;stroke-dashoffset:0;stroke-opacity:1;paint-order:normal"
     d="M 18.15,4.95 V 6.1166017 L 17.666602,6.6 l -3.3,3.3 H 18.15 v 1.65 h -6.6 l 7.223046,7.223046 A 11,11 0 0 0 22,11 11,11 0 0 0 21.698144,8.498144 Z M 11.55,6.6 13.441699,8.491699 15.333398,6.6 Z"
     id="rect873" />
  <path
     style="opacity:0.3;fill:url(#linearGradient896);fill-opacity:1;stroke:none;stroke-width:2.2;stroke-linecap:round;stroke-linejoin:round;stroke-miterlimit:4;stroke-dasharray:none;stroke-dashoffset:0;stroke-opacity:1;paint-order:normal"
     d="m 9.9,9.9 v 1.166602 L 9.416602,11.55 6.1166017,14.85 H 9.9 V 16.5 H 3.3 l 5.200293,5.200293 A 11,11 0 0 0 11,22 11,11 0 0 0 18.773046,18.773046 L 11.55,11.55 Z M 3.3,11.55 5.1916992,13.441699 7.0833981,11.55 Z"
     id="path880" />
  <path
     d="M 21.98845,10.6799 A 11,11 0 0 1 11,21.45 11,11 0 0 1 0.0121,10.7701 11,11 0 0 0 0,11 11,11 0 0 0 11,22 11,11 0 0 0 22,11 11,11 0 0 0 21.98845,10.6799 Z"
     id="path10"
     inkscape:connector-curvature="0"
     style="opacity:0.2;stroke-width:0.55" />
  <path
     style="opacity:1;fill:url(#linearGradient923);fill-opacity:1;stroke-width:1.65"
     d="M 11.55,4.95 V 6.6 h 3.783398 l -3.3,3.3 L 11.55,10.383398 V 11.55 h 6.6 V 9.9 h -3.783398 l 3.3,-3.3 L 18.15,6.1166017 V 4.95 H 16.983398 Z M 3.3,9.9 v 1.65 H 7.0833981 L 3.7833983,14.85 3.3,15.333398 V 16.5 H 9.9 V 14.85 H 6.1166017 L 9.416602,11.55 9.9,11.066602 V 9.9 H 8.733398 Z"
     id="path904" />
</svg>
