<?xml version="1.0" encoding="UTF-8" standalone="no"?>
<!-- Created with Inkscape (http://www.inkscape.org/) -->

<svg
   xmlns:dc="http://purl.org/dc/elements/1.1/"
   xmlns:cc="http://creativecommons.org/ns#"
   xmlns:rdf="http://www.w3.org/1999/02/22-rdf-syntax-ns#"
   xmlns:svg="http://www.w3.org/2000/svg"
   xmlns="http://www.w3.org/2000/svg"
   xmlns:sodipodi="http://sodipodi.sourceforge.net/DTD/sodipodi-0.dtd"
   xmlns:inkscape="http://www.inkscape.org/namespaces/inkscape"
   id="svg7384"
   height="16"
   width="16"
   version="1.1"
   sodipodi:docname="audio-headset-symbolic.svg"
   inkscape:version="0.92.1 r15371">
  <defs
     id="defs11" />
  <sodipodi:namedview
     pagecolor="#ffffff"
     bordercolor="#666666"
     borderopacity="1"
     objecttolerance="10"
     gridtolerance="10"
     guidetolerance="10"
     inkscape:pageopacity="0"
     inkscape:pageshadow="2"
     inkscape:window-width="1600"
     inkscape:window-height="808"
     id="namedview9"
     showgrid="true"
     inkscape:zoom="19.46"
     inkscape:cx="1.6657846"
     inkscape:cy="8"
     inkscape:window-x="0"
     inkscape:window-y="0"
     inkscape:window-maximized="1"
     inkscape:current-layer="svg7384">
    <inkscape:grid
       type="xygrid"
       id="grid4485" />
  </sodipodi:namedview>
  <metadata
     id="metadata90">
    <rdf:RDF>
      <cc:Work
         rdf:about="">
        <dc:format>image/svg+xml</dc:format>
        <dc:type
           rdf:resource="http://purl.org/dc/dcmitype/StillImage" />
        <dc:title>Gnome Symbolic Icon Theme</dc:title>
      </cc:Work>
    </rdf:RDF>
  </metadata>
  <title
     id="title9167">Gnome Symbolic Icon Theme</title>
  <path
     style="opacity:1;vector-effect:none;fill:#eff0f1;fill-opacity:1;stroke:none;stroke-width:1.28455579;stroke-linecap:round;stroke-linejoin:round;stroke-miterlimit:4;stroke-dasharray:none;stroke-dashoffset:0;stroke-opacity:1"
     d="M 8 0 C 4.134007 0 1 3.1340069 1 7 C 1 7.423331 1.0450997 7.8355002 1.1171875 8.2382812 C 0.42879855 8.9567641 -1.4802974e-16 9.926393 0 11 C 0 13.209139 1.790861 15 4 15 L 4 7 C 3.278591 7 2.6117448 7.2068616 2.0273438 7.5410156 C 2.0113538 7.3624806 2 7.182644 2 7 C 2 3.6862916 4.686292 1 8 1 C 11.313708 1 14 3.6862916 14 7 C 14 7.180506 13.968795 7.3527709 13.953125 7.5292969 C 13.373249 7.2021009 12.713285 7 12 7 L 12 14 L 10 14 L 10 13 L 6 13 L 6 16 L 10 16 L 10 15 L 12 15 C 14.209139 15 16 13.209139 16 11 C 16 9.930352 15.574523 8.9638087 14.890625 8.2460938 C 14.963145 7.8417227 15 7.425053 15 7 C 15 3.1340069 11.865993 5.9211895e-16 8 0 z "
     id="path4485" />
</svg>
