<?xml version="1.0" encoding="UTF-8" standalone="no"?>
<!-- Created with Inkscape (http://www.inkscape.org/) -->

<svg
   xmlns:dc="http://purl.org/dc/elements/1.1/"
   xmlns:cc="http://creativecommons.org/ns#"
   xmlns:rdf="http://www.w3.org/1999/02/22-rdf-syntax-ns#"
   xmlns:svg="http://www.w3.org/2000/svg"
   xmlns="http://www.w3.org/2000/svg"
   xmlns:sodipodi="http://sodipodi.sourceforge.net/DTD/sodipodi-0.dtd"
   xmlns:inkscape="http://www.inkscape.org/namespaces/inkscape"
   id="svg7384"
   height="16.009"
   width="16"
   version="1.1"
   sodipodi:docname="input-mouse-symbolic.svg"
   inkscape:version="0.92.1 r15371">
  <defs
     id="defs10" />
  <sodipodi:namedview
     pagecolor="#ffffff"
     bordercolor="#666666"
     borderopacity="1"
     objecttolerance="10"
     gridtolerance="10"
     guidetolerance="10"
     inkscape:pageopacity="0"
     inkscape:pageshadow="2"
     inkscape:window-width="1600"
     inkscape:window-height="808"
     id="namedview8"
     showgrid="true"
     inkscape:zoom="25.66"
     inkscape:cx="7.7106236"
     inkscape:cy="8.0045004"
     inkscape:window-x="0"
     inkscape:window-y="0"
     inkscape:window-maximized="1"
     inkscape:current-layer="svg7384">
    <inkscape:grid
       type="xygrid"
       id="grid4487" />
  </sodipodi:namedview>
  <metadata
     id="metadata90">
    <rdf:RDF>
      <cc:Work
         rdf:about="">
        <dc:format>image/svg+xml</dc:format>
        <dc:type
           rdf:resource="http://purl.org/dc/dcmitype/StillImage" />
        <dc:title>Gnome Symbolic Icon Theme</dc:title>
      </cc:Work>
    </rdf:RDF>
  </metadata>
  <title
     id="title9167">Gnome Symbolic Icon Theme</title>
  <g
     id="layer10"
     transform="translate(-341 -446.99)">
    <path
       style="fill:#eff0f1;fill-opacity:1"
       d="M 8.0605469 0.009765625 C 7.6062469 0.059265625 7.1765769 0.23116563 6.8105469 0.50976562 C 6.3225069 0.88122563 5.9980469 2.7654069 5.9980469 3.4980469 C 5.9940469 3.7622069 6.2338669 4.0039062 6.4980469 4.0039062 C 6.7622269 4.0039062 7.0017869 3.7622069 6.9980469 3.4980469 C 6.9980469 3.0489469 7.1696869 1.4933756 7.4355469 1.2910156 C 7.7014069 1.0886556 8.0993069 0.99078563 8.4980469 1.0097656 C 8.8967869 1.0287656 9.2823269 1.1638556 9.5605469 1.4160156 C 9.8387669 1.6681756 10.029297 2.0005156 10.029297 2.5410156 C 10.029297 4.7063156 11.493097 6.0500656 13.029297 6.0097656 C 13.886017 5.9872656 14.717497 5.5328056 15.279297 4.6972656 L 14.716797 3.6972656 C 14.341427 4.6129656 13.649047 4.9926656 12.998047 5.0097656 C 12.037587 5.0349656 11.029297 4.2800656 11.029297 2.5410156 C 11.029297 1.7490456 10.692477 1.0971156 10.216797 0.66601562 C 9.7411169 0.23489562 9.1357969 0.038635625 8.5292969 0.009765625 C 8.3776769 0.002765625 8.2119769 -0.006734375 8.0605469 0.009765625 z M 14.998047 1.9785156 C 14.997717 1.9889156 14.997717 1.9993656 14.998047 2.0097656 C 14.998047 2.0552656 14.998937 2.0904656 14.998047 2.1347656 L 15.779297 3.5097656 C 15.790697 3.4689656 15.800147 3.4264656 15.810547 3.3847656 L 14.998047 1.9785156 z M 14.998047 2.3535156 C 14.992047 2.4595056 14.977897 2.5673756 14.966797 2.6660156 L 15.685547 3.8847656 C 15.708947 3.8222656 15.727047 3.7624356 15.748047 3.6972656 L 14.998047 2.3535156 z M 14.935547 2.8535156 C 14.921747 2.9434156 14.891147 3.0201056 14.873047 3.1035156 L 15.529297 4.2285156 C 15.558597 4.1676156 15.596247 4.1049256 15.623047 4.0410156 L 14.935547 2.8535156 z M 14.841797 3.2910156 C 14.818097 3.3799156 14.776447 3.4600056 14.748047 3.5410156 L 15.341797 4.5722656 C 15.381897 4.5071656 15.429797 4.4540656 15.466797 4.3847656 L 14.841797 3.2910156 z M 4.6796875 5.0019531 C 3.7481775 4.9989531 2.9947344 5.7673056 2.9902344 6.7285156 C 3.0082344 7.4728856 3.0129594 8.2359469 3.0058594 8.9980469 L 5.9902344 9.0136719 L 6.0097656 5.0097656 L 4.6796875 5.0039062 L 4.6796875 5.0019531 z M 7.0097656 5.015625 L 6.9902344 9.0175781 L 9.9902344 9.0332031 C 10.005234 8.2681031 10.020744 7.4995719 10.027344 6.7636719 C 10.030344 5.8024819 9.2850556 5.0261844 8.3535156 5.0214844 L 7.0097656 5.015625 z M 3 10.009766 C 2.9887 10.841376 2.9633906 11.595828 2.9628906 12.361328 C 2.9538906 14.372428 4.5157438 15.999866 6.4648438 16.009766 C 8.4138438 16.019766 9.9904 14.407584 10 12.396484 C 9.9647 11.559934 9.9543906 10.802966 9.9628906 10.009766 L 3 10.009766 z "
       transform="translate(341,446.99)"
       id="rect7357" />
  </g>
</svg>
