<?xml version="1.0" encoding="UTF-8" standalone="no"?>
<!-- Created with Inkscape (http://www.inkscape.org/) -->

<svg
   xmlns:dc="http://purl.org/dc/elements/1.1/"
   xmlns:cc="http://creativecommons.org/ns#"
   xmlns:rdf="http://www.w3.org/1999/02/22-rdf-syntax-ns#"
   xmlns:svg="http://www.w3.org/2000/svg"
   xmlns="http://www.w3.org/2000/svg"
   xmlns:sodipodi="http://sodipodi.sourceforge.net/DTD/sodipodi-0.dtd"
   xmlns:inkscape="http://www.inkscape.org/namespaces/inkscape"
   id="svg7384"
   height="16"
   width="16"
   version="1.1"
   sodipodi:docname="media-tape-symbolic.svg"
   inkscape:version="0.92.1 r15371">
  <defs
     id="defs9" />
  <sodipodi:namedview
     pagecolor="#ffffff"
     bordercolor="#666666"
     borderopacity="1"
     objecttolerance="10"
     gridtolerance="10"
     guidetolerance="10"
     inkscape:pageopacity="0"
     inkscape:pageshadow="2"
     inkscape:window-width="1600"
     inkscape:window-height="808"
     id="namedview7"
     showgrid="false"
     inkscape:zoom="14.75"
     inkscape:cx="-5.8644068"
     inkscape:cy="8"
     inkscape:window-x="0"
     inkscape:window-y="0"
     inkscape:window-maximized="1"
     inkscape:current-layer="svg7384" />
  <metadata
     id="metadata90">
    <rdf:RDF>
      <cc:Work
         rdf:about="">
        <dc:format>image/svg+xml</dc:format>
        <dc:type
           rdf:resource="http://purl.org/dc/dcmitype/StillImage" />
        <dc:title>Gnome Symbolic Icon Theme</dc:title>
      </cc:Work>
    </rdf:RDF>
  </metadata>
  <title
     id="title9167">Gnome Symbolic Icon Theme</title>
  <path
     style="opacity:1;vector-effect:none;fill:#eff0f1;fill-opacity:1;stroke:none;stroke-width:2.1903336;stroke-linecap:round;stroke-linejoin:round;stroke-miterlimit:4;stroke-dasharray:none;stroke-dashoffset:0;stroke-opacity:1"
     d="M 0 2 L 0 15 L 16 15 L 16 2 L 0 2 z M 1 3 L 15 3 L 15 14 L 1 14 L 1 3 z M 4.5 6 C 3.1252 6 2 7.1252 2 8.5 C 2 9.8748 3.1252 11 4.5 11 L 5 11 L 11 11 L 11.5 11 C 12.8748 11 14 9.8748 14 8.5 C 14 7.1252 12.8748 6 11.5 6 C 10.1252 6 9 7.1252 9 8.5 C 9 9.06453 9.21241 9.58026 9.53125 10 L 6.46875 10 C 6.78759 9.5803 7 9.06453 7 8.5 C 7 7.1252 5.8748 6 4.5 6 z M 4.5 7 C 5.33435 7 6 7.66565 6 8.5 C 6 9.33435 5.33435 10 4.5 10 C 3.66565 10 3 9.33435 3 8.5 C 3 7.66565 3.66565 7 4.5 7 z M 11.5 7 C 12.33435 7 13 7.66565 13 8.5 C 13 9.33435 12.33435 10 11.5 10 C 10.66565 10 10 9.33435 10 8.5 C 10 7.66565 10.66565 7 11.5 7 z "
     id="rect4500" />
</svg>
