<?xml version="1.0" encoding="UTF-8" standalone="no"?>
<!-- Created with Inkscape (http://www.inkscape.org/) -->

<svg
   xmlns:dc="http://purl.org/dc/elements/1.1/"
   xmlns:cc="http://creativecommons.org/ns#"
   xmlns:rdf="http://www.w3.org/1999/02/22-rdf-syntax-ns#"
   xmlns:svg="http://www.w3.org/2000/svg"
   xmlns="http://www.w3.org/2000/svg"
   xmlns:sodipodi="http://sodipodi.sourceforge.net/DTD/sodipodi-0.dtd"
   xmlns:inkscape="http://www.inkscape.org/namespaces/inkscape"
   id="svg7384"
   height="16"
   width="16"
   version="1.1"
   sodipodi:docname="printer-network-symbolic.svg"
   inkscape:version="0.92.1 r15371">
  <defs
     id="defs12" />
  <sodipodi:namedview
     pagecolor="#ffffff"
     bordercolor="#666666"
     borderopacity="1"
     objecttolerance="10"
     gridtolerance="10"
     guidetolerance="10"
     inkscape:pageopacity="0"
     inkscape:pageshadow="2"
     inkscape:window-width="1600"
     inkscape:window-height="808"
     id="namedview10"
     showgrid="false"
     inkscape:zoom="18.16"
     inkscape:cx="7.1927313"
     inkscape:cy="8"
     inkscape:window-x="0"
     inkscape:window-y="0"
     inkscape:window-maximized="1"
     inkscape:current-layer="svg7384" />
  <metadata
     id="metadata90">
    <rdf:RDF>
      <cc:Work
         rdf:about="">
        <dc:format>image/svg+xml</dc:format>
        <dc:type
           rdf:resource="http://purl.org/dc/dcmitype/StillImage" />
        <dc:title>Gnome Symbolic Icon Theme</dc:title>
      </cc:Work>
    </rdf:RDF>
  </metadata>
  <title
     id="title9167">Gnome Symbolic Icon Theme</title>
  <path
     style="color:#31363b;fill:#eff0f1;fill-opacity:1;stroke:none"
     d="M 3 0 L 3 1 L 3 4 L 1 4 L 0 4 L 0 5 L 0 11 L 0 12 L 2 12 L 2 13 L 3 13 L 3 15 L 3 16 L 4 16 L 12 16 L 13 16 L 13 13 L 14 13 L 14 12 L 16 12 L 16 11 L 16 4 L 15 4 L 13 4 L 13 0 L 12 0 L 4 0 L 3 0 z M 4 1 L 12 1 L 12 5 L 4 5 L 4 1 z M 11 7 L 14 7 L 14 8 L 11 8 L 11 7 z M 4 10 L 12 10 L 12 15 L 4 15 L 4 10 z "
     id="path4491" />
</svg>
