<?xml version="1.0" encoding="UTF-8" standalone="no"?>
<svg
   viewBox="0 0 32 32"
   version="1.1"
   id="svg62"
   sodipodi:docname="org.xfce.settings.mouse.svg"
   inkscape:version="1.1.1 (3bf5ae0d25, 2021-09-20)"
   width="32"
   height="32"
   xmlns:inkscape="http://www.inkscape.org/namespaces/inkscape"
   xmlns:sodipodi="http://sodipodi.sourceforge.net/DTD/sodipodi-0.dtd"
   xmlns="http://www.w3.org/2000/svg"
   xmlns:svg="http://www.w3.org/2000/svg">
  <defs
     id="defs66" />
  <sodipodi:namedview
     id="namedview64"
     pagecolor="#ffffff"
     bordercolor="#666666"
     borderopacity="1.0"
     inkscape:pageshadow="2"
     inkscape:pageopacity="0.0"
     inkscape:pagecheckerboard="0"
     showgrid="false"
     inkscape:zoom="9.84375"
     inkscape:cx="17.67619"
     inkscape:cy="31.949206"
     inkscape:window-width="1920"
     inkscape:window-height="1007"
     inkscape:window-x="0"
     inkscape:window-y="0"
     inkscape:window-maximized="1"
     inkscape:current-layer="svg62"
     width="1e-05px" />
  <linearGradient
     id="a"
     gradientUnits="userSpaceOnUse"
     x1="41"
     x2="23"
     y1="58"
     y2="6"
     gradientTransform="scale(0.5)">
    <stop
       offset="0"
       stop-color="#848f9a"
       id="stop2" />
    <stop
       offset=".33333299"
       stop-color="#bdc2c7"
       id="stop4" />
    <stop
       offset="1"
       stop-color="#f6f6f6"
       id="stop6" />
  </linearGradient>
  <linearGradient
     id="b"
     gradientTransform="matrix(-1,0,0,1,-25,0)"
     gradientUnits="userSpaceOnUse"
     x1="-55"
     x2="-55"
     y1="12"
     y2="22">
    <stop
       offset="0"
       stop-color="#54b5e8"
       id="stop9" />
    <stop
       offset=".333"
       stop-color="#8fd9ff"
       id="stop11" />
    <stop
       offset="1"
       stop-color="#369acf"
       id="stop13" />
  </linearGradient>
  <linearGradient
     id="c"
     gradientTransform="matrix(-0.5,0,0,0.5,-12.5,0)"
     gradientUnits="userSpaceOnUse"
     x1="-60"
     x2="-54"
     y1="22"
     y2="12">
    <stop
       offset="0"
       stop-color="#8e98a2"
       id="stop16" />
    <stop
       offset="1"
       stop-color="#6c7884"
       id="stop18" />
  </linearGradient>
  <linearGradient
     id="d"
     gradientUnits="userSpaceOnUse"
     x1="32"
     x2="32"
     y1="6"
     y2="28"
     gradientTransform="scale(0.5)">
    <stop
       offset="0"
       stop-color="#68737e"
       id="stop21" />
    <stop
       offset="1"
       stop-color="#7a8692"
       id="stop23" />
  </linearGradient>
  <linearGradient
     id="e"
     gradientTransform="matrix(-1,0,0,1,-25,0)"
     gradientUnits="userSpaceOnUse"
     x1="-55"
     x2="-55"
     y1="22"
     y2="12">
    <stop
       offset="0"
       stop-color="#232629"
       id="stop26" />
    <stop
       offset=".333"
       stop-color="#373d43"
       id="stop28" />
    <stop
       offset=".667"
       stop-color="#565f68"
       id="stop30" />
    <stop
       offset="1"
       stop-color="#474e55"
       id="stop32" />
  </linearGradient>
  <linearGradient
     id="f"
     gradientUnits="userSpaceOnUse"
     x1="21.005859"
     x2="21"
     y1="21.005859"
     y2="58">
    <stop
       offset="0"
       stop-color="#565f68"
       id="stop35" />
    <stop
       offset=".5945304"
       stop-color="#68737e"
       id="stop37" />
    <stop
       offset="1"
       stop-color="#424950"
       id="stop39" />
  </linearGradient>
  <path
     d="m 15.5,3.2498047 c 0,0 -0.404819,0.019151 -0.5,0.02539 C 11.081153,3.5320606 8,6.513945 8,10.5 c 0,0 1,3.666666 1,5.5 0,1.833334 -0.5,3.659106 -0.5,5.5 0,4.155 2.845,7.25 7,7.25 h 1 c 4.155,0 7,-3.095 7,-7.25 0,-1.840894 -0.5,-3.666666 -0.5,-5.5 0,-1.833334 1,-3.659106 1,-5.5 0,-3.986055 -3.08513,-6.9131408 -7,-7.2248047 -0.110351,-0.00878 -0.5,-0.025391 -0.5,-0.025391 V 6 h -1 z"
     fill="url(#a)"
     fill-rule="evenodd"
     id="path42"
     style="fill:url(#a);stroke-width:0.5" />
  <path
     d="M 15.5,3 C 15.5,3 15.095181,3.019151 15,3.025391 11.081153,3.2822569 8,6.513945 8,10.5 8,10.600718 8.0069,10.701126 8.0098,10.801758 8.110836,6.9081155 11.146926,3.7779451 15,3.5253906 15.095181,3.5191506 15.5,3.5 15.5,3.5 h 1 c 0,0 0.389649,0.016605 0.5,0.025391 3.849401,0.306452 6.889393,3.3851255 6.990234,7.277345 C 23.993082,10.701779 24,10.601044 24,10.5 24,6.513945 20.91487,3.3370547 17,3.0253906 16.889649,3.0166056 16.5,3 16.5,3 Z"
     fill="#c9cdd1"
     id="path44"
     style="stroke-width:0.5" />
  <path
     d="m 15.5,3 v 2 l -1,1 v 5 l 0.5,0.5 v 2 c 0,0.554 0.446,1 1,1 0.554,0 1,-0.446 1,-1 v -2 L 17.5,11 V 6 l -1,-1 V 3 Z"
     fill="url(#d)"
     id="path46"
     style="fill:url(#d);stroke-width:0.5" />
  <path
     d="M 8.009765,21.190453 C 8.006792,21.293662 8,21.396677 8,21.5 8,25.655 11.345,29 15.5,29 h 1 C 20.655,29 24,25.655 24,21.5 24,21.396677 23.9932,21.293662 23.9902,21.190429 23.888833,25.255786 20.590654,28.5 16.5,28.5 h -1 c -4.090654,0 -7.388834,-3.244214 -7.490235,-7.309571 z"
     fill="#7a8692"
     fill-rule="evenodd"
     id="path48"
     style="stroke-width:0.5" />
  <path
     d="m 17.5,6 v 5 l -1,-1 V 7 Z m -3,0 1,1 v 3 l -1,1 z"
     fill="url(#c)"
     id="path50"
     style="fill:url(#c);stroke-width:0.5" />
  <g
     fill-rule="evenodd"
     id="g60"
     transform="scale(0.5)">
    <rect
       fill="#2a2e32"
       height="3"
       rx="1"
       width="2"
       x="31"
       y="24"
       id="rect52" />
    <path
       d="m 32,12 c 0.372982,0 0.701757,0.06416 1,0.152344 v 9.695312 C 32.701757,21.935842 32.372982,22 32,22 31.627018,22 31.298243,21.93584 31,21.847656 V 12.152344 C 31.298243,12.064158 31.627018,12 32,12 Z"
       fill="url(#e)"
       id="path54"
       style="fill:url(#e)" />
    <path
       d="M 33,12.152344 C 33.587732,12.326127 34,13.632491 34,14 v 6 c 0,0.367509 -0.412268,1.673873 -1,1.847656 z m -2,0 v 9.695312 C 30.412268,21.673873 30,20.367509 30,20 v -6 c 0,-0.367509 0.412268,-1.673873 1,-1.847656 z"
       fill="url(#b)"
       id="path56"
       style="fill:url(#b)" />
    <path
       d="m 16,21.005859 c 0.001,3.679786 1,7.314308 1,10.994141 0,3.679833 -0.99894,7.314355 -1,10.994141 V 43 c 0,7.894237 6.041343,14.313625 13.769531,14.9375 C 23.70376,57.325166 19,52.2325 19,46 V 34 C 19,30.615541 17.87688,23.51038 16,21.005859 Z m 32,0 C 46.123125,23.51038 45,30.615541 45,34 V 46 C 45,52.2325 40.29624,57.325166 34.230469,57.9375 41.958657,57.313625 48,50.894237 48,43 V 42.9941 C 47.9989,39.314355 47,35.679833 47,32 c 0,-3.679833 0.99894,-7.314355 1,-10.994141 z"
       fill="url(#f)"
       stroke-width="0.999995"
       id="path58"
       style="fill:url(#f)" />
  </g>
</svg>
