<?xml version="1.0" encoding="UTF-8" standalone="no"?>
<svg
   height="32"
   viewBox="0 0 32 32.000001"
   width="32"
   version="1.1"
   id="svg89"
   sodipodi:docname="preferences-system-splash.svg"
   inkscape:version="1.1.1 (3bf5ae0d25, 2021-09-20, custom)"
   xmlns:inkscape="http://www.inkscape.org/namespaces/inkscape"
   xmlns:sodipodi="http://sodipodi.sourceforge.net/DTD/sodipodi-0.dtd"
   xmlns:xlink="http://www.w3.org/1999/xlink"
   xmlns="http://www.w3.org/2000/svg"
   xmlns:svg="http://www.w3.org/2000/svg">
  <defs
     id="defs93">
    <linearGradient
       inkscape:collect="always"
       xlink:href="#linearGradient1276"
       id="linearGradient1278"
       x1="419.29715"
       y1="539.56555"
       x2="382.97226"
       y2="517.03619"
       gradientUnits="userSpaceOnUse"
       gradientTransform="translate(-384.57144,504.56416)" />
    <linearGradient
       inkscape:collect="always"
       id="linearGradient1276">
      <stop
         style="stop-color:#e95420;stop-opacity:1;"
         offset="0"
         id="stop1272" />
      <stop
         style="stop-color:#77216f;stop-opacity:1"
         offset="0.3756544"
         id="stop1728" />
      <stop
         style="stop-color:#411934;stop-opacity:1"
         offset="1"
         id="stop1274" />
    </linearGradient>
  </defs>
  <sodipodi:namedview
     id="namedview91"
     pagecolor="#ffffff"
     bordercolor="#666666"
     borderopacity="1.0"
     inkscape:pageshadow="2"
     inkscape:pageopacity="0.0"
     inkscape:pagecheckerboard="0"
     showgrid="false"
     inkscape:zoom="25.8125"
     inkscape:cx="16"
     inkscape:cy="16"
     inkscape:window-width="1920"
     inkscape:window-height="1006"
     inkscape:window-x="0"
     inkscape:window-y="0"
     inkscape:window-maximized="1"
     inkscape:current-layer="g87" />
  <linearGradient
     id="a"
     gradientTransform="matrix(.62499976 0 0 .54999977 -239.35706 746.27342)"
     gradientUnits="userSpaceOnUse"
     x1="418.16971"
     x2="384.57144"
     y1="503.07938"
     y2="531.45813">
    <stop
       offset="0"
       stop-color="#1abc9c"
       id="stop2" />
    <stop
       offset="1"
       stop-color="#2980b9"
       id="stop4" />
  </linearGradient>
  <linearGradient
     id="b"
     gradientTransform="matrix(.62499976 0 0 .54999977 -239.35706 746.27342)"
     gradientUnits="userSpaceOnUse"
     x1="404.0452"
     x2="430.73611"
     y1="521.63281"
     y2="528.35034">
    <stop
       offset="0"
       stop-color="#cc4a5e"
       id="stop7" />
    <stop
       offset="1"
       stop-color="#aa478a"
       id="stop9" />
  </linearGradient>
  <linearGradient
     id="c"
     gradientTransform="matrix(.62499976 0 0 .54999977 -239.35706 746.27342)"
     gradientUnits="userSpaceOnUse"
     x1="398.09201"
     x2="394.00299"
     xlink:href="#d"
     y1="542.22382"
     y2="524.89966" />
  <linearGradient
     id="d">
    <stop
       offset="0"
       stop-color="#334545"
       id="stop13" />
    <stop
       offset="1"
       stop-color="#536161"
       id="stop15" />
  </linearGradient>
  <linearGradient
     id="e"
     gradientTransform="matrix(-.62499973 0 0 .54999974 285.107 724.27344)"
     gradientUnits="userSpaceOnUse"
     x1="431.57141"
     x2="439.57141"
     xlink:href="#d"
     y1="568.79803"
     y2="562.79803" />
  <linearGradient
     id="f"
     gradientTransform="matrix(-.62499976 0 0 .54999977 285.10702 724.27342)"
     gradientUnits="userSpaceOnUse"
     x1="406.53735"
     x2="423.31955"
     xlink:href="#d"
     y1="581.87024"
     y2="572.67786" />
  <linearGradient
     id="g"
     gradientTransform="matrix(-.62499976 0 0 .54999977 285.10702 724.27342)"
     gradientUnits="userSpaceOnUse"
     x1="423.05438"
     x2="431.22452"
     xlink:href="#d"
     y1="572.33411"
     y2="566.76562" />
  <linearGradient
     id="h"
     gradientTransform="matrix(-.62499976 0 0 .54999977 285.10702 724.27342)"
     gradientUnits="userSpaceOnUse"
     x1="431.3129"
     x2="440.63208"
     xlink:href="#d"
     y1="577.10217"
     y2="571.44531" />
  <linearGradient
     id="i"
     gradientTransform="matrix(-.62499976 0 0 .54999977 285.10702 724.27342)"
     gradientUnits="userSpaceOnUse"
     x1="430.56738"
     x2="423.74994"
     xlink:href="#d"
     y1="577.36243"
     y2="591.32782" />
  <linearGradient
     id="j"
     gradientTransform="matrix(1 0 0 1.2105271 -387.57147 393.13263)"
     gradientUnits="userSpaceOnUse"
     x2="0"
     y1="538.79797"
     y2="519.79797">
    <stop
       offset="0"
       stop-color="#2a2c2f"
       id="stop23" />
    <stop
       offset="1"
       stop-color="#424649"
       id="stop25" />
  </linearGradient>
  <linearGradient
     id="k"
     gradientTransform="translate(-384.5715 506.56421)"
     gradientUnits="userSpaceOnUse"
     x2="0"
     y1="542.79797"
     y2="538.79797">
    <stop
       offset="0"
       stop-color="#c6cdd1"
       id="stop28" />
    <stop
       offset="1"
       stop-color="#e0e5e7"
       id="stop30" />
  </linearGradient>
  <linearGradient
     id="l"
     gradientUnits="userSpaceOnUse"
     x1="9.00001"
     x2="26.00001"
     y1="1024.36218"
     y2="1041.36218">
    <stop
       offset="0"
       id="stop33" />
    <stop
       offset="1"
       stop-opacity="0"
       id="stop35" />
  </linearGradient>
  <linearGradient
     id="m"
     gradientUnits="userSpaceOnUse"
     x1="16"
     x2="16"
     y1="18"
     y2="6">
    <stop
       offset="0"
       stop-color="#f0f0f0"
       id="stop38" />
    <stop
       offset="1"
       stop-color="#fcfcfc"
       id="stop40" />
  </linearGradient>
  <linearGradient
     id="n"
     gradientUnits="userSpaceOnUse"
     x1="19.513672"
     x2="15"
     y1="15.554688"
     y2="11">
    <stop
       offset="0"
       stop-color="#f3f3f3"
       id="stop43" />
    <stop
       offset="1"
       stop-color="#fcfcfc"
       stop-opacity="0"
       id="stop45" />
  </linearGradient>
  <linearGradient
     id="o"
     gradientUnits="userSpaceOnUse"
     x1="14"
     x2="23"
     y1="10"
     y2="19">
    <stop
       offset="0"
       stop-color="#292c2f"
       id="stop48" />
    <stop
       offset="1"
       stop-color="#292c2f"
       stop-opacity=".030612"
       id="stop50" />
  </linearGradient>
  <g
     transform="translate(0,-1020.3622)"
     id="g87">
    <rect
       style="fill:url(#linearGradient1278);fill-opacity:1"
       id="rect922"
       width="29.99999"
       height="17.99999"
       x="1.000012"
       y="1023.3622" />
    <g
       id="g2787"
       transform="translate(-384.57143,504.56418)">
      <path
         id="rect2182"
         style="fill:#ffffff;fill-opacity:0.101961;stroke-width:0.724399"
         d="m 385.57144,518.79803 h 6 l -6,6 z"
         sodipodi:nodetypes="cccc" />
      <path
         id="rect2182-3"
         style="fill:#ffffff;fill-opacity:0.101961;stroke-width:0.724399"
         d="m 385.57144,536.79803 v -6 l 6,6 z"
         sodipodi:nodetypes="cccc" />
      <path
         id="rect2182-3-5"
         style="fill:#ffffff;fill-opacity:0.101961;stroke-width:0.362199"
         d="m 385.57143,536.79801 v -3 l 3,3 z"
         sodipodi:nodetypes="cccc" />
      <path
         id="rect2182-3-5-3"
         style="fill:#ffffff;fill-opacity:0.101961;stroke-width:0.362199"
         d="m 415.57144,536.79803 v -3 l -3,3 z"
         sodipodi:nodetypes="cccc" />
      <path
         id="rect2182-6"
         style="fill:#ffffff;fill-opacity:0.101961;stroke-width:0.724399"
         d="m 415.57144,518.79803 h -6 l 6,6 z"
         sodipodi:nodetypes="cccc" />
      <path
         id="rect2182-3-7"
         style="fill:#ffffff;fill-opacity:0.101961;stroke-width:0.724399"
         d="m 415.57144,536.79803 v -6 l -6,6 z"
         sodipodi:nodetypes="cccc" />
    </g>
    <path
       d="m 0,1022.3622 v 23 h 32 v -23 z m 1,1 h 30 v 18 H 1 Z"
       fill="url(#j)"
       id="path73" />
    <path
       d="m 13.000011,1045.3622 h 6 v 4 h -6 z"
       fill="url(#k)"
       id="path75" />
    <path
       d="m 10.000011,1049.3622 h 12 v 1 h -12 z"
       fill="#99a1a7"
       id="path77" />
    <path
       d="m 1,1041.3622 4,4 h 27 v -21 l -1,-1 v 18 z"
       fill="url(#l)"
       fill-rule="evenodd"
       opacity="0.2"
       id="path79" />
    <path
       d="m 16.087891,6 a 6,6 0 0 0 -4.330079,1.7578125 6,6 0 0 0 0,8.4843755 L 16.515625,21 H 31 V 18.515625 L 20.242188,7.7578125 A 6,6 0 0 0 16.087891,6 Z"
       fill="url(#o)"
       opacity="0.25"
       transform="translate(0,1020.3622)"
       id="path81" />
    <path
       d="m 16,6 a 6,6 0 0 0 -6,6 6,6 0 0 0 6,6 6,6 0 0 0 6,-6 6,6 0 0 0 -6,-6 z m 0,1 a 5.0000172,5.0000172 0 0 1 5,5 5.0000172,5.0000172 0 0 1 -5,5 5.0000172,5.0000172 0 0 1 -5,-5 5.0000172,5.0000172 0 0 1 5,-5 z"
       fill="url(#n)"
       transform="translate(0,1020.3622)"
       id="path83" />
    <path
       d="m 16,6 a 5.9999828,5.9999828 0 0 0 -6,6 5.9999828,5.9999828 0 0 0 6,6 5.9999828,5.9999828 0 0 0 4.214844,-1.736328 L 19.513672,15.554688 A 5.0000172,5.0000172 0 0 1 16,17 5.0000172,5.0000172 0 0 1 11,12 5.0000172,5.0000172 0 0 1 16,7 Z"
       fill="url(#m)"
       transform="translate(0,1020.3622)"
       id="path85" />
  </g>
</svg>
