<?xml version="1.0" encoding="UTF-8" standalone="no"?>
<!-- Created with Inkscape (http://www.inkscape.org/) -->

<svg
   width="64"
   height="64"
   viewBox="0 0 16.933333 16.933333"
   version="1.1"
   id="svg5"
   inkscape:version="1.1.1 (3bf5ae0d25, 2021-09-20, custom)"
   sodipodi:docname="system-file-manager.svg"
   xmlns:inkscape="http://www.inkscape.org/namespaces/inkscape"
   xmlns:sodipodi="http://sodipodi.sourceforge.net/DTD/sodipodi-0.dtd"
   xmlns:xlink="http://www.w3.org/1999/xlink"
   xmlns="http://www.w3.org/2000/svg"
   xmlns:svg="http://www.w3.org/2000/svg">
  <sodipodi:namedview
     id="namedview7"
     pagecolor="#ffffff"
     bordercolor="#666666"
     borderopacity="1.0"
     inkscape:pageshadow="2"
     inkscape:pageopacity="0.0"
     inkscape:pagecheckerboard="0"
     inkscape:document-units="px"
     showgrid="false"
     units="px"
     height="48px"
     inkscape:zoom="5.951482"
     inkscape:cx="26.379984"
     inkscape:cy="33.773101"
     inkscape:window-width="1920"
     inkscape:window-height="1019"
     inkscape:window-x="0"
     inkscape:window-y="0"
     inkscape:window-maximized="1"
     inkscape:current-layer="svg5" />
  <defs
     id="defs2">
    <linearGradient
       inkscape:collect="always"
       xlink:href="#linearGradient2036"
       id="linearGradient2855"
       x1="51.894592"
       y1="55.607143"
       x2="18.112864"
       y2="17.499033"
       gradientUnits="userSpaceOnUse"
       gradientTransform="matrix(0.26458333,0,0,0.26458333,-0.2645833,1.3229167)" />
    <linearGradient
       inkscape:collect="always"
       id="linearGradient2036">
      <stop
         style="stop-color:#3daee9;stop-opacity:1;"
         offset="0"
         id="stop2032" />
      <stop
         style="stop-color:#6cc1ef;stop-opacity:1"
         offset="1"
         id="stop2034" />
    </linearGradient>
    <linearGradient
       inkscape:collect="always"
       xlink:href="#linearGradient5915"
       id="linearGradient5917"
       x1="17"
       y1="21"
       x2="26.916685"
       y2="39.087307"
       gradientUnits="userSpaceOnUse"
       gradientTransform="matrix(0.26458333,0,0,0.26458333,-0.2645833,1.8520834)" />
    <linearGradient
       inkscape:collect="always"
       id="linearGradient5915">
      <stop
         style="stop-color:#000000;stop-opacity:1;"
         offset="0"
         id="stop5911" />
      <stop
         style="stop-color:#000000;stop-opacity:0;"
         offset="1"
         id="stop5913" />
    </linearGradient>
    <linearGradient
       inkscape:collect="always"
       xlink:href="#linearGradient6903"
       id="linearGradient6905"
       x1="14.328809"
       y1="13.060619"
       x2="27.229906"
       y2="26.985249"
       gradientUnits="userSpaceOnUse"
       gradientTransform="matrix(0.26458333,0,0,0.26458333,3e-8,0.52916672)" />
    <linearGradient
       inkscape:collect="always"
       id="linearGradient6903">
      <stop
         style="stop-color:#f5f5f5;stop-opacity:1;"
         offset="0"
         id="stop6899" />
      <stop
         style="stop-color:#f9f9f9;stop-opacity:1"
         offset="1"
         id="stop6901" />
    </linearGradient>
    <linearGradient
       inkscape:collect="always"
       xlink:href="#linearGradient7842"
       id="linearGradient7844"
       x1="6.9980469"
       y1="13"
       x2="6.9052615"
       y2="23.69512"
       gradientUnits="userSpaceOnUse"
       gradientTransform="matrix(0.26458333,0,0,0.26458333,0,0.52916672)" />
    <linearGradient
       inkscape:collect="always"
       id="linearGradient7842">
      <stop
         style="stop-color:#ffffff;stop-opacity:1;"
         offset="0"
         id="stop7838" />
      <stop
         style="stop-color:#ffffff;stop-opacity:0;"
         offset="1"
         id="stop7840" />
    </linearGradient>
  </defs>
  <path
     id="rect893"
     style="fill:#147eb8;stroke-width:0.264583"
     d="M 1.0583333,1.5875 H 7.540625 L 8.598958,2.6458333 H 15.875 v 6.35 H 1.0583333 Z"
     sodipodi:nodetypes="ccccccc" />
  <path
     id="rect6535"
     style="fill:url(#linearGradient6905);stroke-width:0.21027"
     d="M 1.8514974,3.96875 H 15.081836 c 0.146255,0 0.263997,0.1177428 0.263997,0.2639976 v 3.4407265 c 0,0.1462548 -0.117742,0.2639976 -0.263997,0.2639976 H 1.8514974 C 1.7052428,7.9374717 1.5875,7.8197289 1.5875,7.6734741 V 4.2327476 C 1.5875,4.0864928 1.7052428,3.96875 1.8514974,3.96875 Z"
     sodipodi:nodetypes="sssssssss" />
  <path
     id="rect7562"
     style="fill:url(#linearGradient7844);fill-opacity:1;stroke-width:0.264583"
     d="M 1.8515665,3.96875 C 1.7053119,3.96875 1.5875,4.0865619 1.5875,4.2328166 V 4.4974 c 0,-0.1462548 0.1178119,-0.2640666 0.2640665,-0.2640666 H 15.081768 c 0.146255,0 0.264066,0.1178118 0.264066,0.2640666 V 4.2328166 c 0,-0.1462547 -0.117811,-0.2640666 -0.264066,-0.2640666 z"
     sodipodi:nodetypes="sscsscsss" />
  <path
     id="rect2847"
     style="fill:url(#linearGradient2855);fill-opacity:1;stroke-width:0.264583"
     d="M 5.8208333,7.4083334 6.8791667,6.35 16.139584,6.3500265 V 15.08125 c 0,0.146579 -0.118004,0.264583 -0.264584,0.264583 H 1.0583334 C 0.9117542,15.345833 0.79375,15.227829 0.79375,15.08125 V 7.4083334 Z"
     sodipodi:nodetypes="cccsssscc" />
  <path
     id="rect5230"
     style="opacity:0.1;fill:url(#linearGradient5917);fill-opacity:1;stroke-width:0.196438"
     d="M 6.8791667,6.35 6.35,7.6729167 H 0.79375 l 7.6729172,7.6729163 7.4083328,-1e-6 c 0.14658,0 0.264584,-0.118004 0.264584,-0.264583 V 6.3500265 Z"
     sodipodi:nodetypes="ccccsscc" />
  <path
     id="rect8656"
     style="opacity:0.2;fill:#ffffff;stroke-width:0.264583"
     d="M 0.79375,7.4083334 H 5.8208333 L 6.8791667,6.35 6.35,7.6729167 H 0.79375 Z"
     sodipodi:nodetypes="cccccc" />
  <path
     id="rect2847-6"
     style="opacity:0.2;fill:#000000;fill-opacity:1;stroke-width:0.264583"
     d="m 0.79375,14.816669 v 0.264584 c 0,0.146579 0.1180042,0.264583 0.2645834,0.264583 H 15.875 c 0.14658,0 0.264584,-0.118004 0.264584,-0.264583 v -0.264584 c 0,0.14658 -0.118004,0.264584 -0.264584,0.264584 H 1.0583334 c -0.1465792,0 -0.2645834,-0.118004 -0.2645834,-0.264584 z"
     sodipodi:nodetypes="csssscssc" />
  <path
     id="rect911"
     style="opacity:0.2;fill:#ffffff;stroke-width:0.305514"
     d="M 7.540625,1.5875 8.598958,2.6458333 H 15.875 V 2.9104166 H 8.3343749 Z"
     sodipodi:nodetypes="cccccc" />
</svg>
