<?xml version="1.0" encoding="UTF-8" standalone="no"?>
<svg
   xmlns:dc="http://purl.org/dc/elements/1.1/"
   xmlns:cc="http://creativecommons.org/ns#"
   xmlns:rdf="http://www.w3.org/1999/02/22-rdf-syntax-ns#"
   xmlns:svg="http://www.w3.org/2000/svg"
   xmlns="http://www.w3.org/2000/svg"
   xmlns:sodipodi="http://sodipodi.sourceforge.net/DTD/sodipodi-0.dtd"
   xmlns:inkscape="http://www.inkscape.org/namespaces/inkscape"
   width="16"
   height="16"
   version="1.1"
   id="svg8"
   sodipodi:docname="preferences-system-sharing-symbolic.svg"
   inkscape:version="0.92.3 (2405546, 2018-03-11)">
  <metadata
     id="metadata14">
    <rdf:RDF>
      <cc:Work
         rdf:about="">
        <dc:format>image/svg+xml</dc:format>
        <dc:type
           rdf:resource="http://purl.org/dc/dcmitype/StillImage" />
      </cc:Work>
    </rdf:RDF>
  </metadata>
  <defs
     id="defs12" />
  <sodipodi:namedview
     pagecolor="#ffffff"
     bordercolor="#666666"
     borderopacity="1"
     objecttolerance="10"
     gridtolerance="10"
     guidetolerance="10"
     inkscape:pageopacity="0"
     inkscape:pageshadow="2"
     inkscape:window-width="1920"
     inkscape:window-height="1026"
     id="namedview10"
     showgrid="false"
     inkscape:zoom="14.75"
     inkscape:cx="8.1355932"
     inkscape:cy="8"
     inkscape:window-x="0"
     inkscape:window-y="30"
     inkscape:window-maximized="1"
     inkscape:current-layer="svg8" />
  <path
     inkscape:connector-curvature="0"
     style="fill:#eff0f1;fill-opacity:1;stroke:none"
     d="M 13,0 A 2.00001,2 0 0 0 11,2 2.00001,2 0 0 0 13,4 2.00001,2 0 0 0 15,2 2.00001,2 0 0 0 13,0 M 8.4999997,4 a 0.5,0.5 0 0 0 -0.5,0.5 0.5,0.5 0 0 0 0.5,0.5 0.5,0.5 0 0 0 0.5,-0.5 0.5,0.5 0 0 0 -0.5,-0.5 m -2,1 a 0.5,0.499991 0 0 0 -0.5,0.5 0.5,0.499991 0 0 0 0.5,0.5 0.5,0.499991 0 0 0 0.5,-0.5 0.5,0.499991 0 0 0 -0.5,-0.5 m -3.5,1 a 2,2.00001 0 0 0 -1.99999993,2 2,2.00001 0 0 0 1.99999993,2 2,2.00001 0 0 0 2,-2 2,2.00001 0 0 0 -2,-2 m 3.5,4 a 0.500009,0.5 0 0 0 -0.5,0.5 0.500009,0.5 0 0 0 0.5,0.5 0.500009,0.5 0 0 0 0.5,-0.5 0.500009,0.5 0 0 0 -0.5,-0.5 m 2,1 a 0.5,0.5 0 0 0 -0.5,0.5 0.5,0.5 0 0 0 0.5,0.5 0.5,0.5 0 0 0 0.5,-0.5 0.5,0.5 0 0 0 -0.5,-0.5 M 13,12 a 2.00001,2 0 0 0 -2,2 2.00001,2 0 0 0 2,2 2.00001,2 0 0 0 2,-2 2.00001,2 0 0 0 -2,-2"
     class="ColorScheme-Text"
     id="path4-3" />
</svg>
