<?xml version="1.0" encoding="UTF-8" standalone="no"?>
<!-- Created with Inkscape (http://www.inkscape.org/) -->

<svg
   width="22"
   height="22"
   viewBox="0 0 5.8208331 5.8208336"
   version="1.1"
   id="svg3856"
   inkscape:version="1.1.1 (3bf5ae0d25, 2021-09-20, custom)"
   sodipodi:docname="drive-harddisk.svg"
   xmlns:inkscape="http://www.inkscape.org/namespaces/inkscape"
   xmlns:sodipodi="http://sodipodi.sourceforge.net/DTD/sodipodi-0.dtd"
   xmlns:xlink="http://www.w3.org/1999/xlink"
   xmlns="http://www.w3.org/2000/svg"
   xmlns:svg="http://www.w3.org/2000/svg">
  <sodipodi:namedview
     id="namedview3858"
     pagecolor="#ffffff"
     bordercolor="#666666"
     borderopacity="1.0"
     inkscape:pageshadow="2"
     inkscape:pageopacity="0.0"
     inkscape:pagecheckerboard="0"
     inkscape:document-units="px"
     showgrid="false"
     units="px"
     inkscape:zoom="25.166573"
     inkscape:cx="5.1457145"
     inkscape:cy="17.543112"
     inkscape:window-width="1920"
     inkscape:window-height="999"
     inkscape:window-x="0"
     inkscape:window-y="0"
     inkscape:window-maximized="1"
     inkscape:current-layer="svg3856" />
  <defs
     id="defs3853">
    <linearGradient
       inkscape:collect="always"
       xlink:href="#linearGradient1166"
       id="linearGradient1168"
       x1="11.32978"
       y1="13.962088"
       x2="11.32978"
       y2="1.9620924"
       gradientUnits="userSpaceOnUse"
       gradientTransform="matrix(0.42333335,0,0,0.48506946,-0.47625002,-0.97013899)" />
    <linearGradient
       inkscape:collect="always"
       id="linearGradient1166">
      <stop
         style="stop-color:#7f8c8d;stop-opacity:1;"
         offset="0"
         id="stop1162" />
      <stop
         style="stop-color:#afb0b3;stop-opacity:1"
         offset="1"
         id="stop1164" />
    </linearGradient>
    <linearGradient
       inkscape:collect="always"
       id="linearGradient2778">
      <stop
         style="stop-color:#eef1f2;stop-opacity:1;"
         offset="0"
         id="stop2774" />
      <stop
         style="stop-color:#f9fafb;stop-opacity:1"
         offset="1"
         id="stop2776" />
    </linearGradient>
    <linearGradient
       inkscape:collect="always"
       xlink:href="#linearGradient2778"
       id="linearGradient6986"
       x1="4.1451392"
       y1="4.7626767"
       x2="4.1380424"
       y2="0.16448131"
       gradientUnits="userSpaceOnUse" />
  </defs>
  <rect
     style="fill:url(#linearGradient1168);fill-opacity:1;stroke-width:0.453156"
     id="rect1006"
     width="4.2333331"
     height="5.8208332"
     x="0.79374999"
     y="0" />
  <path
     id="rect1272"
     style="fill:#292c2e;stroke-width:0.249452"
     d="m 1.3229167,5.0270834 3.1749999,-1e-7 -4e-7,0.7937499 -3.1749999,1e-7 z"
     sodipodi:nodetypes="ccccc" />
  <path
     id="rect847"
     style="fill:#f6b44d;fill-opacity:1;stroke-width:0.264583"
     d="M 1.8520834,5.0270835 V 5.2916668 H 2.9104167 V 5.0270835 Z m 1.5874999,0 V 5.2916668 H 3.96875 V 5.0270835 Z" />
  <path
     id="rect5314"
     style="opacity:0.2;fill:#292c2f;fill-opacity:1;stroke-width:0.324047"
     d="m 0.79374961,5.8208332 3.8e-7,-0.7937499 H 1.3229166 l -4e-7,0.7937499 z m 3.70416659,0 4e-7,-0.7937499 h 0.5291667 l -4e-7,0.7937499 z"
     sodipodi:nodetypes="cccccccccc" />
  <rect
     style="fill:#292c2f;fill-opacity:1;stroke-width:0.132292;stroke-linejoin:round;opacity:0.4"
     id="rect3275"
     width="4.2333331"
     height="0.26458332"
     x="0.79374999"
     y="5.5562501" />
  <path
     id="rect3916-5"
     style="fill:url(#linearGradient6986);fill-opacity:1;stroke-width:0.231554;stroke-linejoin:round"
     d="M 1.9602593,0.26467247 C 1.4584,0.27730167 1.0583333,0.68570313 1.0583333,1.1907143 v 1.1025176 c 0.2557195,0 0.4630209,0.2073015 0.4630209,0.4630209 0,0.2557193 -0.2073014,0.4630209 -0.4630209,0.4630209 V 4.1453154 L 1.6756944,4.7626765 H 4.145139 L 4.7625,4.1453154 V 3.2192737 c -0.2557193,0 -0.4630209,-0.2073016 -0.4630209,-0.4630209 0,-0.2557194 0.2073016,-0.4630209 0.4630209,-0.4630209 V 1.21483 1.1907143 C 4.7625,0.67768708 4.3494854,0.26467247 3.8364582,0.26467247 H 1.984375 c -0.00801,0 -0.01615,-2.0055e-4 -0.024116,0 z"
     sodipodi:nodetypes="cscsccccccsccsssc" />
</svg>
