<?xml version="1.0" encoding="UTF-8" standalone="no"?>
<svg
   xmlns:dc="http://purl.org/dc/elements/1.1/"
   xmlns:cc="http://creativecommons.org/ns#"
   xmlns:rdf="http://www.w3.org/1999/02/22-rdf-syntax-ns#"
   xmlns:svg="http://www.w3.org/2000/svg"
   xmlns="http://www.w3.org/2000/svg"
   xmlns:sodipodi="http://sodipodi.sourceforge.net/DTD/sodipodi-0.dtd"
   xmlns:inkscape="http://www.inkscape.org/namespaces/inkscape"
   viewBox="0 0 16 16"
   version="1.1"
   id="svg8"
   sodipodi:docname="microphone-sensitivity-high-symbolic.svg"
   width="16"
   height="16"
   inkscape:version="0.92.1 r15371">
  <metadata
     id="metadata12">
    <rdf:RDF>
      <cc:Work
         rdf:about="">
        <dc:format>image/svg+xml</dc:format>
        <dc:type
           rdf:resource="http://purl.org/dc/dcmitype/StillImage" />
        <dc:title></dc:title>
      </cc:Work>
    </rdf:RDF>
  </metadata>
  <sodipodi:namedview
     pagecolor="#ffffff"
     bordercolor="#666666"
     borderopacity="1"
     objecttolerance="10"
     gridtolerance="10"
     guidetolerance="10"
     inkscape:pageopacity="0"
     inkscape:pageshadow="2"
     inkscape:window-width="1600"
     inkscape:window-height="808"
     id="namedview10"
     showgrid="false"
     inkscape:zoom="10.727273"
     inkscape:cx="-8.0635593"
     inkscape:cy="11"
     inkscape:window-x="0"
     inkscape:window-y="0"
     inkscape:window-maximized="1"
     inkscape:current-layer="svg8" />
  <defs
     id="defs3051">
    <style
       type="text/css"
       id="current-color-scheme">
      .ColorScheme-Text {
        color:#232627;
      }
      </style>
  </defs>
  <path
     style="color:#232627;fill:#232627;fill-opacity:1;stroke:none"
     d="M 5.5,0 C 4.115,0 3,1.115 3,2.5 v 6 C 3,9.885 4.115,11 5.5,11 6.885,11 8,9.885 8,8.5 v -6 C 8,1.115 6.885,0 5.5,0 Z m 8.564453,3 -0.757812,0.4804688 a 10.801709,8.36847 0 0 1 1.710937,4.5175782 10.801709,8.36847 0 0 1 -1.71875,4.511719 L 14.068359,13 A 11.783681,9.1292385 0 0 0 16,7.998047 11.783681,9.1292385 0 0 0 14.064453,3 Z M 11.767578,4.4609375 11,4.9472656 a 7.8557841,6.0861592 0 0 1 1.072266,3.0546874 7.8557841,6.0861592 0 0 1 -1.070313,3.056641 l 0.767578,0.486328 A 8.8377559,6.8469285 0 0 0 13.054688,8.001953 8.8377559,6.8469285 0 0 0 11.767578,4.4609375 Z M 0,7 v 1 c 9.163e-4,2.235554 1.6341118,4.198898 4,4.808594 V 15 H 2 v 1 H 9 V 15 H 7 V 12.806641 C 9.365122,12.197142 10.998124,10.23483 11,8 V 7 H 10 V 8 C 10,10.209139 7.9852814,12 5.5,12 3.0147186,12 1,10.209139 1,8 V 7 Z"
     id="path4"
     inkscape:connector-curvature="0" />
</svg>
