<svg xmlns="http://www.w3.org/2000/svg" width="22" height="22" version="1.1">
 <defs>
  <style id="current-color-scheme" type="text/css">
   .ColorScheme-Text { color:#cecfce; } .ColorScheme-Highlight { color:#3daee9; }
  </style>
 </defs>
 <path style="fill:currentColor;opacity:0.5" class="ColorScheme-Text" d="m 13.070554,18.727406 c 4.267507,-1.143473 6.800329,-5.53045 5.656853,-9.7979581 C 17.583933,4.6619404 13.196958,2.1291192 8.9294482,3.2725928 4.6619416,4.4160682 2.1291187,8.8030433 3.2725931,13.070554 c 1.1434745,4.267507 5.5304509,6.80033 9.7979609,5.656852 z M 12.811735,17.76148 C 9.9729461,18.522132 7.0926958,17.435746 5.4258159,15.235462 l 1.0390563,-0.755613 c 1.403098,1.704972 3.7331148,2.429069 5.9586328,1.832741 2.278645,-0.610559 3.984146,-2.512767 4.255801,-4.763801 l -1.896608,-0.203558 c -0.1843,1.502925 -1.316971,2.779309 -2.836389,3.186436 -1.463395,0.392115 -2.9616424,-0.05016 -3.9005475,-1.154816 L 9.1539442,12.562277 5.4771181,11.638694 5.409808,15.213468 C 4.8854277,14.515658 4.4789604,13.709072 4.2385166,12.811739 3.234942,9.0663224 5.4428578,5.2420993 9.1882674,4.2385192 12.933678,3.2349408 16.757903,5.442858 17.761482,9.1882665 18.765062,12.933677 16.557143,16.757903 12.811735,17.76148 Z m 3.701174,-7.429848 0.09241,-3.5188208 -1.063988,0.7380284 C 14.158847,5.845525 11.788537,5.0946937 9.5746084,5.687913 7.2901691,6.3000264 5.6135466,8.1631812 5.3107222,10.421531 l 1.8984947,0.203055 C 7.4101948,9.1182249 8.5294908,7.8767426 10.051809,7.4688387 c 1.453733,-0.3895264 2.97875,0.083111 3.908631,1.1849989 l -1.106295,0.8140708 z"/>
</svg>
