<?xml version="1.0" encoding="UTF-8" standalone="no"?>
<svg
   xmlns:dc="http://purl.org/dc/elements/1.1/"
   xmlns:cc="http://creativecommons.org/ns#"
   xmlns:rdf="http://www.w3.org/1999/02/22-rdf-syntax-ns#"
   xmlns:svg="http://www.w3.org/2000/svg"
   xmlns="http://www.w3.org/2000/svg"
   xmlns:sodipodi="http://sodipodi.sourceforge.net/DTD/sodipodi-0.dtd"
   xmlns:inkscape="http://www.inkscape.org/namespaces/inkscape"
   width="22"
   height="22"
   version="1.1"
   id="svg9"
   sodipodi:docname="crow-translate-tray.svg"
   inkscape:version="0.92.3 (2405546, 2018-03-11)">
  <metadata
     id="metadata13">
    <rdf:RDF>
      <cc:Work
         rdf:about="">
        <dc:format>image/svg+xml</dc:format>
        <dc:type
           rdf:resource="http://purl.org/dc/dcmitype/StillImage" />
        <dc:title></dc:title>
      </cc:Work>
    </rdf:RDF>
  </metadata>
  <sodipodi:namedview
     pagecolor="#ffffff"
     bordercolor="#666666"
     borderopacity="1"
     objecttolerance="10"
     gridtolerance="10"
     guidetolerance="10"
     inkscape:pageopacity="0"
     inkscape:pageshadow="2"
     inkscape:window-width="1920"
     inkscape:window-height="1020"
     id="namedview11"
     showgrid="false"
     inkscape:zoom="20.02"
     inkscape:cx="11"
     inkscape:cy="11"
     inkscape:window-x="0"
     inkscape:window-y="30"
     inkscape:window-maximized="1"
     inkscape:current-layer="svg9" />
  <defs
     id="defs3">
    <style
       id="current-color-scheme"
       type="text/css">
   .ColorScheme-Text { color:#cecfce; } .ColorScheme-Highlight { color:#3daee9; }
  </style>
  </defs>
  <path
     style="opacity:0.3;fill:#cecfce;fill-opacity:1"
     d="M 11 3 C 6.5817 3 3 6.5817003 3 11 C 3 13.607097 4.2531964 15.916373 6.1835938 17.376953 C 6.2189837 17.357323 6.2561858 17.340903 6.2910156 17.320312 C 6.5617611 17.159938 6.8252787 16.984276 7.0859375 16.800781 A 7 7 0 0 1 4 11 A 7 7 0 0 1 11 4 A 7 7 0 0 1 13.009766 4.296875 C 12.992022 4.1136299 12.977284 3.929609 12.945312 3.7480469 C 12.998843 3.5617562 13.020402 3.4675407 13.060547 3.28125 C 13.060856 3.27972 13.060242 3.2788537 13.060547 3.2773438 C 12.401947 3.1019189 11.713831 3 11 3 z M 13.177734 3.3066406 C 13.257882 3.6732491 13.310278 4.0432724 13.34375 4.4140625 A 7 7 0 0 1 18 11 A 7 7 0 0 1 11 18 A 7 7 0 0 1 7.4160156 17.001953 C 7.0941429 17.205279 6.7627898 17.389451 6.4199219 17.552734 C 7.7180365 18.461824 9.294935 19 11 19 C 15.418 19 19 15.418 19 11 C 19 7.3376682 16.536053 4.2559723 13.177734 3.3066406 z "
     id="path5" />
  <path
     style="fill:currentColor"
     class="ColorScheme-Text"
     d="m 13.115234,3.0019191 c -0.01912,0.1098135 -0.03175,0.1655615 -0.05469,0.2792969 -0.04015,0.1862907 -0.0617,0.2805062 -0.115235,0.4667969 0.156771,0.8902736 0.160249,1.8069685 0.07422,2.703125 -0.01964,0.2041821 -0.04801,0.4079682 -0.08398,0.6113281 -0.01873,0.046093 0.373047,0.037109 0.373047,0.037109 0.02959,-0.2111748 0.05105,-0.4222258 0.06055,-0.6308594 0.05162,-1.1608854 0.04625,-2.329443 -0.253907,-3.4667969 z M 12.916016,7.109341 C 12.534593,7.4478395 12.149281,7.8066615 11.863281,8.2148098 11.173678,9.200798 10.734487,10.447004 9.84375,11.298794 9.48171,11.64361 9.05987,11.944281 8.6269531,12.20895 8.854905,12.24249 9.107984,12.2653 9.335938,12.21875 8.8762021,12.509514 8.3617782,12.786143 7.9863281,13.173828 7.8005187,13.363943 7.6077972,13.558289 7.4277344,13.755859 7.5733172,13.666389 7.7436902,13.564401 7.9199219,13.5625 c 0.2911653,-0.0037 0.8496094,-0.326172 0.8496093,-0.326172 0,0 -1.0514205,0.676332 -1.4824218,1.095703 -0.2451918,0.238576 -0.5217103,0.466157 -0.7324219,0.738281 -0.1896425,0.246011 -0.1933594,0.240235 -0.1933594,0.240235 0.3543788,-0.130472 0.7143186,-0.265557 1.0859375,-0.345703 -0.1494138,0.05405 -0.2217177,0.08053 -0.3730468,0.130859 -0.3294767,0.130472 -0.7066937,0.228557 -0.9882813,0.392578 -0.5076238,0.296356 -1.0108179,1.057212 -1.3632813,1.558594 -0.187725,0.26467 -0.4971456,0.489594 -0.6503906,0.761719 -0.088116,0.156566 -0.079665,0.320323 -0.058594,0.361328 0.1551604,0.285172 0.9302142,0.526483 1.3554687,0.630859 C 5.8805953,18.923797 6.4185328,18.979498 6.9453122,19 7.2575486,18.93477 7.5806792,18.805872 7.8105466,18.585938 8.1227831,18.287716 8.5738433,17.999103 8.7539059,17.613281 8.8573465,17.395207 9.015772,17.26738 9.021484,17.263672 c -0.2356138,0.389551 -0.4937655,0.767137 -0.7734374,1.125 -0.1340893,0.169613 -0.3183594,0.384766 -0.3183594,0.384766 0.3122364,-0.111832 0.6388226,-0.295376 0.9453125,-0.345704 0.1896413,-0.03169 0.3993403,-0.119707 0.5449223,-0.253906 0.15516,-0.143518 0.389423,-0.200411 0.527344,-0.347656 0.381196,-0.408188 0.637996,-1.030293 1.001953,-1.458984 0.04597,-0.05405 0.155949,-0.194987 0.240234,-0.310547 0.06705,-0.09319 0.121094,-0.171875 0.121094,-0.171875 -0.193471,0.43801 -0.387021,0.883629 -0.601563,1.308593 -0.0019,0.0038 -0.002,0.008 -0.0039,0.01172 -0.06513,0.117425 -0.162114,0.23165 -0.261719,0.337891 -0.01342,0.0149 -0.02565,0.02805 -0.03906,0.04297 -0.01723,0.01862 -0.0072,0.01884 0.01953,0.0039 0.388859,-0.205026 0.731897,-0.517641 1.103516,-0.763672 0.01149,-0.0074 0.02364,-0.01393 0.03125,-0.01953 0.277757,-0.160293 0.52355,-0.444483 0.728515,-0.671875 0.193472,-0.214346 0.292029,-0.344715 0.34375,-0.650391 0.0019,-0.0093 0.002,-0.01802 0.0039,-0.02734 0.06321,-0.441738 0.130745,-0.882302 0.224609,-1.320312 0.01915,-0.09133 0.03343,-0.168962 0.04492,-0.230469 0,-0.0074 0.002,-0.01798 0.0039,-0.02539 0.0019,-0.0149 0.0059,-0.02992 0.0078,-0.04297 0.0019,-0.0074 0.002,-0.01406 0.0039,-0.02149 0.0019,-0.01305 0.004,-0.02388 0.0059,-0.0332 v -0.002 c 0,-0.0056 0.004,-0.02578 0.0059,-0.0332 0.0038,-0.0205 0.0293,-0.09375 0.0293,-0.09375 v 0.0293 0.01758 c -0.01537,0.773508 -0.140246,1.606728 -0.02149,2.367187 0.08812,0.56289 0.138672,0.447266 0.138672,0.447266 0.05172,-0.663539 -0.01721,-1.470324 0.201172,-2.074219 0.147498,-0.408189 0.384317,-0.851142 0.460937,-1.291015 0.07853,-0.451058 0.07594,-0.932291 0.06445,-1.394532 -0.01532,-0.598303 -0.05248,-1.200436 -0.138672,-1.796875 0.08045,0.283309 0.19756,0.580329 0.21289,0.871094 0.01532,0.275852 0.02364,0.560353 0.03125,0.841797 0.06513,-0.346679 0.114488,-0.716086 0.07617,-1.068359 -0.03644,-0.324313 0.02664,-0.655888 -0.0098,-0.97461 C 13.928704,9.211407 13.915204,8.7602453 13.77345,8.3632402 13.637444,7.9755547 13.460875,7.5887271 13.357434,7.1991778 c -0.0097,-0.035937 -0.03412,-0.065095 -0.0625,-0.089844 -0.150269,1.0644461 -0.515311,2.1478742 -0.84961,3.1406252 -0.422507,1.256972 -1.099697,2.319669 -1.736328,3.458984 -0.585013,1.045189 -1.511896,1.928673 -2.4238281,2.671875 -0.7953115,0.647116 -1.6747492,1.141153 -2.6210937,1.498047 -0.2944183,0.109814 -0.6239224,0.148399 -0.9355469,0.158203 -0.2294169,0.0059 -0.3927434,-0.0078 -0.4003906,-0.0078 0.6767797,-0.145111 1.3625832,-0.354052 1.9628906,-0.708985 1.6651839,-0.98636 3.2340037,-2.336875 4.2109377,-4.058593 0.621337,-1.092252 1.208062,-2.16513 1.617188,-3.365235 0.305941,-0.9015956 0.623828,-1.8387632 0.796875,-2.7871092 z"
     id="path7" />
</svg>
