<svg xmlns="http://www.w3.org/2000/svg" id="svg2" width="22" height="22" version="1.1">
 <defs id="defs8">
  <style id="current-color-scheme" type="text/css">
   .ColorScheme-Text { color:#cecfce; } .ColorScheme-Highlight { color:#3daee9; }
  </style>
 </defs>
 <path id="path4" style="fill:#cecfce;fill-opacity:1" d="M 11.103516 3.7988281 C 10.385781 3.7897719 9.6481406 3.8613312 8.9003906 4.0039062 C 5.8858906 4.8677063 3.7579844 7.1922281 4.0214844 10.423828 C 4.3255244 14.152428 9.7814688 17.922 11.917969 18 C 12.849059 17.78182 12.309789 14.829763 11.761719 12.601562 C 11.608079 11.999543 11.453654 11.399975 11.277344 10.796875 C 11.219994 10.601515 11.150942 10.359791 11.132812 10.300781 C 10.841033 9.3311512 10.487776 8.2236906 9.9101562 6.4628906 C 9.8009362 6.1446306 10.030878 5.8115113 10.367188 5.8007812 C 10.592277 5.7933212 10.794578 5.9372537 10.861328 6.1523438 C 11.862428 9.2042438 12.259769 10.545694 12.667969 12.121094 C 14.276769 14.117694 16.613641 16.850087 17.369141 16.679688 C 18.534541 16.416788 18.957171 8.7313281 16.832031 6.3613281 C 15.237531 4.5836031 13.256719 3.8259969 11.103516 3.7988281 z M 9.5605469 4.9804688 C 9.6990345 4.993619 9.8371549 5.0100616 9.9863281 4.9941406 C 9.2333848 5.2514773 8.6914447 5.9961334 8.9628906 6.7871094 C 9.5362779 8.5351943 9.8865781 9.6352672 10.173828 10.589844 A 1.0001 1.0001 0 0 0 10.175781 10.59375 C 10.178081 10.60125 10.257361 10.877009 10.316406 11.078125 C 10.486758 11.660844 10.637739 12.249013 10.791016 12.849609 C 11.05792 13.935944 11.31841 15.199353 11.396484 16.136719 C 11.421754 16.440054 11.399972 16.604257 11.388672 16.804688 C 11.059116 16.717088 10.774992 16.673447 10.285156 16.419922 C 9.544914 16.036831 8.7065094 15.478576 7.9296875 14.818359 C 6.3760437 13.497926 5.1344003 11.750496 5.0195312 10.341797 C 4.7960745 7.6012925 6.4809247 5.7625578 9.1289062 4.9863281 C 9.2832046 4.9574581 9.4220593 4.9673185 9.5605469 4.9804688 z M 11.005859 5.0058594 C 12.919369 5.0145894 14.675082 5.4541411 16.087891 7.0292969 C 16.769832 7.7898119 17.32225 10.18736 17.335938 12.316406 C 17.342737 13.380929 17.247768 14.38868 17.099609 15.080078 C 17.068109 15.22709 17.038136 15.279018 17.003906 15.392578 C 16.739314 15.178963 16.424552 14.896482 16.058594 14.517578 C 15.256342 13.686951 14.335707 12.586986 13.560547 11.628906 C 13.164601 10.116662 12.77412 8.7757747 11.816406 5.8554688 L 11.814453 5.8535156 C 11.687985 5.4486088 11.373106 5.1825448 11.005859 5.0058594 z"/>
</svg>
