<?xml version="1.0" encoding="UTF-8" standalone="no"?>
<svg
   xmlns:dc="http://purl.org/dc/elements/1.1/"
   xmlns:cc="http://creativecommons.org/ns#"
   xmlns:rdf="http://www.w3.org/1999/02/22-rdf-syntax-ns#"
   xmlns:svg="http://www.w3.org/2000/svg"
   xmlns="http://www.w3.org/2000/svg"
   xmlns:sodipodi="http://sodipodi.sourceforge.net/DTD/sodipodi-0.dtd"
   xmlns:inkscape="http://www.inkscape.org/namespaces/inkscape"
   width="22"
   height="22"
   version="1.1"
   id="svg7"
   sodipodi:docname="nixnote2-tray.svg"
   inkscape:version="0.92.3 (2405546, 2018-03-11)">
  <metadata
     id="metadata11">
    <rdf:RDF>
      <cc:Work
         rdf:about="">
        <dc:format>image/svg+xml</dc:format>
        <dc:type
           rdf:resource="http://purl.org/dc/dcmitype/StillImage" />
        <dc:title></dc:title>
      </cc:Work>
    </rdf:RDF>
  </metadata>
  <sodipodi:namedview
     pagecolor="#ffffff"
     bordercolor="#666666"
     borderopacity="1"
     objecttolerance="10"
     gridtolerance="10"
     guidetolerance="10"
     inkscape:pageopacity="0"
     inkscape:pageshadow="2"
     inkscape:window-width="1920"
     inkscape:window-height="1020"
     id="namedview9"
     showgrid="false"
     inkscape:zoom="20.02"
     inkscape:cx="11"
     inkscape:cy="11"
     inkscape:window-x="0"
     inkscape:window-y="30"
     inkscape:window-maximized="1"
     inkscape:current-layer="svg7" />
  <defs
     id="defs3">
    <style
       id="current-color-scheme"
       type="text/css">
   .ColorScheme-Text { color:#cecfce; } .ColorScheme-Highlight { color:#3daee9; }
  </style>
  </defs>
  <path
     style="fill:#cecfce;fill-opacity:1"
     d="M 10.466797 3.0039062 C 9.7983007 3.0385564 8.5049303 3.3445989 7.8320312 4.4355469 C 7.8320312 4.4355469 7.2108904 4.2353961 7.9355469 3.0957031 C 7.9355469 3.0957031 6.0002798 3 4.9433594 4 L 3 4 L 3 14.166016 C 3 14.166016 5.6301796 19.979646 14.175781 18.855469 C 14.175781 18.855469 18.043131 18.271032 17.537109 14.646484 C 17.537109 14.646484 18.7455 13.272132 18.917969 11.519531 C 19.077363 9.900923 19.059656 9.1328962 18.376953 7.0351562 C 18.329303 6.8889202 18.126909 6.8999462 18.095703 7.0507812 C 17.8564 8.2079613 17.389955 10.551182 15.373047 11.734375 C 15.373047 11.734375 16.434864 10.359088 15.855469 7.9804688 C 15.836899 7.9041787 15.731508 7.9121504 15.722656 7.9902344 C 15.637686 8.7452214 15.335068 9.7945199 14.304688 10.123047 C 14.304688 10.123047 13.464618 7.714424 10.669922 6.140625 C 10.669922 6.140625 10.911316 5.3879615 10.980469 4.8515625 C 11.049409 4.3149395 10.80743 4.0649481 10.945312 3.8144531 C 11.083414 3.5639521 11.634766 3.2070313 11.634766 3.2070312 C 11.634766 3.2070312 11.135295 2.9692523 10.466797 3.0039062 z M 9.9882812 4.1367188 C 10.000132 4.2203798 9.9493974 4.3910228 9.9589844 4.4355469 C 9.9943914 4.5999834 10.001408 4.6224306 9.9882812 4.7246094 C 9.9416943 5.0859716 9.7167969 5.8359375 9.7167969 5.8359375 L 9.46875 6.6113281 L 10.179688 7.0117188 C 12.668934 8.4135081 13.361328 10.453125 13.361328 10.453125 L 13.681641 11.371094 L 14.601562 11.078125 C 14.600263 11.079725 14.582031 11.123047 14.582031 11.123047 L 15.878906 12.597656 C 16.872772 12.014618 17.489103 11.206819 17.955078 10.386719 C 17.945578 10.710116 17.964975 10.984164 17.921875 11.421875 C 17.789 12.772124 16.785156 13.986328 16.785156 13.986328 L 16.482422 14.330078 L 16.546875 14.785156 C 16.750631 16.244628 16.186308 16.818359 15.494141 17.277344 C 14.80578 17.733804 14.041656 17.861843 14.033203 17.863281 C 10.002182 18.390561 7.5267652 17.307142 5.9882812 16.136719 C 4.5980188 15.079057 4.0984058 14.102436 4 13.900391 L 4 5 L 5.3417969 5 L 5.6308594 4.7265625 C 5.8669762 4.5031617 6.3048466 4.4011342 6.7089844 4.3066406 C 6.7218334 4.3708256 6.6428545 4.4486228 6.6640625 4.5117188 C 6.8660404 5.1126262 7.5253906 5.3867188 7.5253906 5.3867188 L 8.2714844 5.6269531 L 8.6835938 4.9609375 C 8.9801241 4.4801827 9.5194151 4.2606859 9.9882812 4.1367188 z M 11.935547 11.001953 C 11.437655 11.033338 11.033343 11.437594 11.001953 11.935547 C 10.963713 12.539376 11.462657 13.036247 12.066406 12.998047 C 12.564306 12.966662 12.966347 12.562119 12.998047 12.064453 C 13.035993 11.460622 12.539304 10.963753 11.935547 11.001953 z M 15.425781 16.001953 C 15.289113 15.994163 15.167996 16.005619 15.103516 16.011719 C 14.722457 16.047431 14.46661 16.187639 14.353516 16.261719 C 14.243373 16.33403 13.98117 16.507197 14 16.736328 C 14.002693 16.768503 14.01804 16.935948 14.177734 16.986328 C 14.344967 17.039189 14.580448 16.933998 14.691406 16.861328 C 14.804234 16.787604 14.773686 16.756584 14.896484 16.677734 C 15.047288 16.581033 15.222217 16.544703 15.279297 16.533203 C 15.513319 16.485963 15.584323 16.536323 15.763672 16.476562 C 15.822111 16.457118 15.977837 16.403187 15.998047 16.310547 C 16.019316 16.213304 15.876878 16.131092 15.835938 16.107422 C 15.712733 16.036333 15.562448 16.009853 15.425781 16.001953 z "
     id="path822" />
</svg>
