<?xml version="1.0" encoding="UTF-8" standalone="no"?>
<svg
   xmlns:dc="http://purl.org/dc/elements/1.1/"
   xmlns:cc="http://creativecommons.org/ns#"
   xmlns:rdf="http://www.w3.org/1999/02/22-rdf-syntax-ns#"
   xmlns:svg="http://www.w3.org/2000/svg"
   xmlns="http://www.w3.org/2000/svg"
   xmlns:sodipodi="http://sodipodi.sourceforge.net/DTD/sodipodi-0.dtd"
   xmlns:inkscape="http://www.inkscape.org/namespaces/inkscape"
   width="22"
   height="22"
   version="1.1"
   id="svg7"
   sodipodi:docname="rclonetray-tray.svg"
   inkscape:version="0.92.3 (2405546, 2018-03-11)">
  <metadata
     id="metadata11">
    <rdf:RDF>
      <cc:Work
         rdf:about="">
        <dc:format>image/svg+xml</dc:format>
        <dc:type
           rdf:resource="http://purl.org/dc/dcmitype/StillImage" />
        <dc:title></dc:title>
      </cc:Work>
    </rdf:RDF>
  </metadata>
  <sodipodi:namedview
     pagecolor="#ffffff"
     bordercolor="#666666"
     borderopacity="1"
     objecttolerance="10"
     gridtolerance="10"
     guidetolerance="10"
     inkscape:pageopacity="0"
     inkscape:pageshadow="2"
     inkscape:window-width="1920"
     inkscape:window-height="1020"
     id="namedview9"
     showgrid="false"
     inkscape:zoom="26.42"
     inkscape:cx="11"
     inkscape:cy="11"
     inkscape:window-x="0"
     inkscape:window-y="30"
     inkscape:window-maximized="1"
     inkscape:current-layer="svg7" />
  <defs
     id="defs3">
    <style
       id="current-color-scheme"
       type="text/css">
   .ColorScheme-Text { color:#cecfce; } .ColorScheme-Highlight { color:#3daee9; }
  </style>
  </defs>
  <path
     style="fill:#cecfce;fill-opacity:1;opacity:0.3"
     d="M 12.128906 3.0039062 C 11.755126 3.0254334 11.383836 3.1263346 11.027344 3.3066406 C 10.913034 3.3644566 10.757785 3.4532424 10.681641 3.5039062 C 9.9231379 4.0086261 9.2692043 4.7282794 8.8164062 5.7773438 C 8.7052764 6.0348116 8.5537094 6.4385564 8.5371094 6.5214844 C 8.5221894 6.5960604 8.4906687 6.5928125 8.4023438 6.5078125 C 8.0570087 6.1754605 7.6311576 6.0015575 7.2128906 6.0234375 C 6.7935386 6.0453895 6.432175 6.2226701 6.078125 6.5800781 C 5.801747 6.8590781 5.6006075 7.1640697 5.4296875 7.5585938 C 5.2070305 8.0725456 5.0996595 8.5347035 5.0390625 9.2421875 L 5.0292969 9.3457031 L 4.8789062 9.4472656 C 4.0331963 10.015693 3.3754436 11.399453 3.1191406 12.814453 C 2.7753256 14.712605 3.1904409 16.6847 4.1699219 17.929688 C 4.2834839 18.07403 4.559854 18.358221 4.6875 18.460938 C 5.063401 18.763409 5.4480405 18.93179 5.8984375 18.990234 L 5.9003906 18.990234 C 5.9261806 18.993534 8.2753741 18.996847 11.121094 18.998047 C 16.794183 19.000647 16.408827 19.007649 16.712891 18.912109 C 17.243469 18.745313 17.772642 18.295155 18.15625 17.685547 C 18.811258 16.644643 19.109197 15.20517 18.964844 13.767578 C 18.771594 11.843006 17.8629 10.280348 17.140625 10.007812 L 17.015625 9.9726562 L 17.011719 9.8417969 C 16.982009 8.7339357 16.923252 8.1786014 16.751953 7.4121094 C 16.284056 5.3184972 14.616172 3.6900555 13.25 3.1796875 C 12.879437 3.0412515 12.502687 2.9823797 12.128906 3.0039062 z M 12.185547 4.0019531 C 12.416338 3.9886621 12.650913 4.0239871 12.900391 4.1171875 C 13.86327 4.4768952 15.393747 5.9231887 15.775391 7.6308594 C 15.934883 8.3445233 15.982716 8.7876488 16.011719 9.8691406 C 16.011716 9.8704406 16.011716 9.8717469 16.011719 9.8730469 L 16.015625 10.003906 C 16.029155 10.44015 16.324029 10.817235 16.744141 10.935547 L 16.791016 10.949219 C 16.698976 10.916319 17.084106 11.18474 17.361328 11.724609 C 17.640576 12.268425 17.885004 13.033167 17.96875 13.867188 C 18.092806 15.102641 17.816998 16.349472 17.310547 17.154297 C 17.029537 17.600862 16.6331 17.889512 16.412109 17.958984 C 16.281797 17.999934 16.38119 17.975734 16.375 17.976562 C 16.3688 17.97739 16.227975 17.987428 15.914062 17.992188 C 15.28624 18.001687 13.95806 17.999347 11.121094 17.998047 C 9.6985041 17.997447 8.4007664 17.997527 7.4550781 17.996094 C 6.982234 17.9954 6.597469 17.994941 6.3300781 17.994141 C 6.1963827 17.993746 6.0920018 17.992588 6.0214844 17.992188 C 6.0161944 17.992158 6.0146746 17.992217 6.0097656 17.992188 C 5.7421515 17.955085 5.5656501 17.883768 5.3144531 17.681641 C 5.3394214 17.701733 4.9755325 17.338499 4.9550781 17.3125 C 4.2080076 16.362922 3.8065109 14.63386 4.1035156 12.994141 C 4.3267186 11.76188 5.0142036 10.560542 5.4355469 10.277344 L 5.4375 10.277344 L 5.5878906 10.175781 C 5.8362631 10.008785 5.9967896 9.7393301 6.0253906 9.4414062 L 6.0351562 9.3378906 C 6.0351722 9.3346306 6.0351722 9.331385 6.0351562 9.328125 C 6.0903407 8.6838246 6.1653098 8.3779357 6.3476562 7.9570312 C 6.479546 7.6525983 6.598396 7.4776316 6.7890625 7.2851562 C 7.020044 7.051984 7.0970018 7.0322645 7.265625 7.0234375 C 7.3724845 7.0178475 7.5340245 7.0601335 7.7089844 7.2285156 C 7.7913854 7.3078146 7.7752244 7.5070975 8.3964844 7.5703125 C 8.7071142 7.60192 9.171748 7.3683154 9.3300781 7.1503906 C 9.4884083 6.9324659 9.5002868 6.8051788 9.5175781 6.71875 C 9.4722114 6.9453867 9.5294576 6.6960635 9.578125 6.5664062 C 9.6267924 6.4367491 9.6886274 6.279817 9.734375 6.1738281 C 10.114292 5.2936184 10.622122 4.7465932 11.236328 4.3378906 C 11.241128 4.3348606 11.407173 4.2353027 11.478516 4.1992188 C 11.719546 4.0773107 11.952891 4.0153524 12.185547 4.0019531 z M 9.7148438 8.0019531 C 8.9310146 8.011263 8.1293324 8.0788411 7.4433594 8.2050781 C 7.2654544 8.2378121 7.09339 8.27196 7.0625 8.28125 L 7.0078125 8.2988281 L 7.0039062 12.142578 L 7 16.986328 L 7.6972656 16.982422 L 9.0429688 16.980469 L 9.046875 15.0625 C 9.049475 14.416212 9.0432775 15.006741 9.0546875 14.994141 C 9.0635875 14.984221 9.0844125 14.978922 9.1015625 14.982422 C 9.1187145 14.985922 9.2601725 15.000662 9.4609375 15.013672 C 9.9157265 15.043152 10.576065 15.046371 10.919922 15.019531 C 11.358114 14.973572 11.728571 14.938392 12.097656 14.888672 L 12.970703 17 L 13.888672 17 L 14.611328 17 L 15.511719 17 L 13.966797 14.03125 C 14.387161 13.657689 14.720367 13.039128 14.847656 12.523438 C 14.993616 11.932056 15.079349 10.539724 14.898438 10.0625 C 14.627783 9.3485835 13.926204 8.8027661 13.060547 8.4746094 C 12.684805 8.3321709 12.308939 8.2305178 11.876953 8.1523438 C 11.264571 8.041524 10.498673 7.9926431 9.7148438 8.0019531 z M 10.550781 10 C 10.699643 10.00041 10.840751 10.005625 10.964844 10.015625 C 11.749447 10.078698 12.254928 10.242733 12.597656 10.546875 C 12.885402 10.80222 13.019667 11.133131 12.998047 11.53125 C 12.985132 11.769161 12.944193 11.916782 12.845703 12.095703 C 12.697136 12.365589 12.455472 12.571825 12.115234 12.716797 C 11.831639 12.837636 11.445499 12.92781 11.041016 12.96875 C 10.754746 12.99773 9.9525363 13.010824 9.6601562 12.990234 C 9.3569474 12.968884 9.0271956 12.921054 9.0097656 12.896484 C 9.0039656 12.888384 9.000089 12.28754 9 11.523438 C 8.99984 10.302895 9.0012881 10.165011 9.0175781 10.150391 C 9.0276081 10.141461 9.0386687 10.134766 9.0429688 10.134766 C 9.0473086 10.134766 9.1148663 10.123145 9.1914062 10.109375 C 9.5815433 10.03923 10.104196 9.99878 10.550781 10 z "
     id="path822" />
</svg>
