<svg xmlns="http://www.w3.org/2000/svg" id="svg2" width="22" height="22" version="1.1">
 <defs id="defs8">
  <style id="current-color-scheme" type="text/css">
   .ColorScheme-Text { color:#cecfce; } .ColorScheme-Highlight { color:#3daee9; }
  </style>
 </defs>
 <path id="path4489" style="fill:#cecfce;fill-opacity:1" d="M 6 3 A 2.0002 2.0002 0 0 0 4.0117188 4.7792969 L 3.0117188 13.779297 A 2.0002 2.0002 0 0 0 5 16 L 17 16 A 2.0002 2.0002 0 0 0 18.988281 13.779297 L 17.988281 4.7792969 A 2.0002 2.0002 0 0 0 16 3 L 6 3 z M 6 4 L 16 4 C 16.517875 3.9999822 16.936869 4.3759262 16.994141 4.890625 L 17.994141 13.890625 C 18.061677 14.49953 17.612639 15.000089 17 15 L 5 15 C 4.3872855 15.000099 3.9382224 14.499595 4.0058594 13.890625 L 5.0058594 4.890625 C 5.0630658 4.3758017 5.4820082 3.9999131 6 4 z M 10 5 L 10 9 L 7 9 L 11 14.121094 L 15 9 L 12 9 L 12 5 L 10 5 z M 3 16.203125 L 3 16.75 C 3 17.962 4.0381 19 5.25 19 L 16.75 19 C 17.962 19 19 17.962 19 16.75 L 19 16.203125 C 18.468 16.688125 17.775 17 17 17 L 5 17 C 4.2254 17 3.5316 16.688125 3 16.203125 z"/>
</svg>
