<?xml version="1.0" encoding="UTF-8" standalone="no"?>
<svg
   xmlns:dc="http://purl.org/dc/elements/1.1/"
   xmlns:cc="http://creativecommons.org/ns#"
   xmlns:rdf="http://www.w3.org/1999/02/22-rdf-syntax-ns#"
   xmlns:svg="http://www.w3.org/2000/svg"
   xmlns="http://www.w3.org/2000/svg"
   xmlns:xlink="http://www.w3.org/1999/xlink"
   xmlns:sodipodi="http://sodipodi.sourceforge.net/DTD/sodipodi-0.dtd"
   xmlns:inkscape="http://www.inkscape.org/namespaces/inkscape"
   width="48"
   height="48"
   version="1.1"
   id="svg90"
   sodipodi:docname="accessories-calculator.svg"
   inkscape:version="0.92.3 (2405546, 2018-03-11)">
  <metadata
     id="metadata94">
    <rdf:RDF>
      <cc:Work
         rdf:about="">
        <dc:format>image/svg+xml</dc:format>
        <dc:type
           rdf:resource="http://purl.org/dc/dcmitype/StillImage" />
      </cc:Work>
    </rdf:RDF>
  </metadata>
  <sodipodi:namedview
     pagecolor="#ffffff"
     bordercolor="#666666"
     borderopacity="1"
     objecttolerance="10"
     gridtolerance="10"
     guidetolerance="10"
     inkscape:pageopacity="0"
     inkscape:pageshadow="2"
     inkscape:window-width="777"
     inkscape:window-height="480"
     id="namedview92"
     showgrid="false"
     inkscape:zoom="4.9166667"
     inkscape:cx="24"
     inkscape:cy="24"
     inkscape:window-x="0"
     inkscape:window-y="30"
     inkscape:window-maximized="0"
     inkscape:current-layer="svg90" />
  <defs
     id="defs32">
    <linearGradient
       id="a"
       y1="543.8"
       y2="503.8"
       x2="0"
       gradientUnits="userSpaceOnUse"
       gradientTransform="matrix(1.125,0,0,1,-435.64,-499.8)">
      <stop
         stop-color="#2a2c2f"
         id="stop2" />
      <stop
         offset="1"
         stop-color="#424649"
         id="stop4" />
    </linearGradient>
    <linearGradient
       id="b"
       y1="540.92"
       y2="522.55"
       x2="0"
       gradientUnits="userSpaceOnUse"
       gradientTransform="matrix(1,0,0,1.14286,-384.57,-577.2)">
      <stop
         stop-color="#197cf1"
         id="stop7" />
      <stop
         offset="1"
         stop-color="#05a0eb"
         id="stop9" />
    </linearGradient>
    <linearGradient
       id="c"
       y1="542.8"
       y2="533.8"
       gradientUnits="userSpaceOnUse"
       x2="0"
       gradientTransform="translate(-384.57,-527.8)">
      <stop
         stop-color="#bcb4a1"
         id="stop12" />
      <stop
         offset="1"
         stop-color="#c5bfad"
         id="stop14" />
    </linearGradient>
    <linearGradient
       id="d"
       y1="540.8"
       y2="531.8"
       gradientUnits="userSpaceOnUse"
       x2="0">
      <stop
         stop-color="#1e1f21"
         id="stop17" />
      <stop
         offset="1"
         stop-color="#242628"
         id="stop19" />
    </linearGradient>
    <linearGradient
       xlink:href="#d"
       id="e"
       y1="528.8"
       y2="519.8"
       gradientUnits="userSpaceOnUse"
       x2="0" />
    <linearGradient
       id="f"
       y1="20"
       x1="32"
       y2="30"
       x2="42"
       gradientUnits="userSpaceOnUse">
      <stop
         stop-color="#383e51"
         id="stop23" />
      <stop
         offset="1"
         stop-color="#655c6f"
         stop-opacity="0"
         id="stop25" />
    </linearGradient>
    <linearGradient
       xlink:href="#f"
       id="g"
       y1="531.8"
       x1="404.57"
       y2="543.8"
       x2="416.57"
       gradientUnits="userSpaceOnUse"
       gradientTransform="translate(-384.57,-499.8)" />
    <linearGradient
       xlink:href="#f"
       id="h"
       y1="531.8"
       x1="404.57"
       y2="543.8"
       gradientUnits="userSpaceOnUse"
       x2="416.57"
       gradientTransform="translate(-384.57,-511.8)" />
    <linearGradient
       xlink:href="#f"
       id="i"
       y1="531.8"
       x1="404.57"
       y2="543.8"
       gradientUnits="userSpaceOnUse"
       x2="416.57"
       gradientTransform="translate(-396.57,-511.8)" />
    <linearGradient
       xlink:href="#f"
       id="j"
       y1="531.8"
       x1="404.57"
       y2="543.8"
       gradientUnits="userSpaceOnUse"
       x2="416.57"
       gradientTransform="translate(-396.57,-499.8)" />
    <linearGradient
       inkscape:collect="always"
       xlink:href="#f"
       id="linearGradient904"
       gradientUnits="userSpaceOnUse"
       x1="32"
       y1="20"
       x2="42"
       y2="30" />
    <linearGradient
       inkscape:collect="always"
       xlink:href="#d"
       id="linearGradient906"
       gradientUnits="userSpaceOnUse"
       y1="540.8"
       x2="0"
       y2="531.8"
       gradientTransform="translate(-384.57,-499.8)" />
    <linearGradient
       inkscape:collect="always"
       xlink:href="#d"
       id="linearGradient908"
       gradientUnits="userSpaceOnUse"
       y1="528.8"
       x2="0"
       y2="519.8"
       gradientTransform="translate(-384.57,-499.8)" />
    <linearGradient
       inkscape:collect="always"
       xlink:href="#d"
       id="linearGradient910"
       gradientUnits="userSpaceOnUse"
       y1="528.8"
       x2="0"
       y2="519.8"
       gradientTransform="translate(-384.57,-499.8)" />
    <linearGradient
       inkscape:collect="always"
       xlink:href="#d"
       id="linearGradient912"
       gradientUnits="userSpaceOnUse"
       y1="540.8"
       x2="0"
       y2="531.8"
       gradientTransform="translate(-384.57,-499.8)" />
  </defs>
  <rect
     style="fill:url(#a)"
     id="rect34"
     height="40"
     rx="0"
     y="3.9999878"
     x="6.0000072"
     width="36" />
  <path
     d="m 29,20 -9,9 3,3 h 18 z"
     id="path36"
     style="opacity:0.2;fill:url(#h);fill-rule:evenodd"
     inkscape:connector-curvature="0" />
  <path
     d="m 17,20 -9,9 3,3 h 18 z"
     id="path38"
     style="opacity:0.2;fill:url(#i);fill-rule:evenodd"
     inkscape:connector-curvature="0" />
  <path
     d="m 17,32 -9,9 3,3 h 18 z"
     id="path40"
     style="opacity:0.2;fill:url(#j);fill-rule:evenodd"
     inkscape:connector-curvature="0" />
  <path
     d="m 29,32 -9,9 3,3 h 18 z"
     id="path42"
     style="opacity:0.2;fill:url(#g);fill-rule:evenodd"
     inkscape:connector-curvature="0" />
  <rect
     style="fill:#000000;opacity:0.2"
     id="rect46"
     height="1"
     y="42.999989"
     x="6.0000072"
     width="36" />
  <path
     inkscape:connector-curvature="0"
     style="opacity:0.2;fill:url(#linearGradient904);fill-rule:evenodd"
     id="path48"
     d="m 40,20 -8,21 3,3 h 7 V 22 Z" />
  <rect
     style="fill:url(#b)"
     id="rect50"
     height="21"
     rx="0"
     y="19.999989"
     x="32.000008"
     width="8" />
  <rect
     style="fill:url(#c)"
     id="rect52"
     height="9"
     y="5.9999876"
     x="8.0000076"
     width="32" />
  <path
     style="fill:#ffffff"
     inkscape:connector-curvature="0"
     id="path54"
     d="m 34,35 v 1 h 4 v -1 z m 0,2 v 1 h 4 v -1 z" />
  <rect
     style="fill:#383432"
     width="3"
     x="34.000008"
     y="6.9999876"
     height="1"
     id="rect56" />
  <rect
     style="fill:#383432"
     width="1"
     x="37.000008"
     y="7.9999876"
     height="5"
     id="rect58" />
  <rect
     style="fill:#383432"
     width="3"
     x="34.000008"
     y="12.999988"
     height="1"
     id="rect60" />
  <rect
     style="fill:#383432"
     width="1"
     x="33.000008"
     y="7.9999876"
     height="5"
     id="rect62" />
  <rect
     style="fill:url(#linearGradient906)"
     id="rect66"
     height="9"
     rx="0"
     y="31.999989"
     x="8.0000076"
     width="9" />
  <rect
     width="9"
     x="8.0000076"
     y="19.999989"
     rx="0"
     height="9"
     id="rect68"
     style="fill:url(#linearGradient908)" />
  <rect
     width="9"
     x="20.000008"
     y="19.999989"
     rx="0"
     height="9"
     id="rect70"
     style="fill:url(#linearGradient910)" />
  <rect
     style="fill:url(#linearGradient912)"
     id="rect74"
     height="9"
     rx="0"
     y="31.999989"
     x="20.000008"
     width="9" />
  <path
     style="fill:#ffffff"
     d="m 12,22 v 2 h -2 v 1 h 2 v 2 h 1 v -2 h 2 v -1 h -2 v -2 z"
     id="path76"
     inkscape:connector-curvature="0" />
  <rect
     style="fill:#ffffff"
     width="1"
     x="23.999989"
     y="-27.000008"
     rx="0"
     height="5"
     transform="rotate(90)"
     id="rect78" />
  <g
     style="fill:#ffffff"
     id="g84">
    <path
       d="M 12.5,34 A 0.5,0.5 0 0 0 12,34.5 0.5,0.5 0 0 0 12.5,35 0.5,0.5 0 0 0 13,34.5 0.5,0.5 0 0 0 12.5,34 M 10,36 v 1 h 5 v -1 z m 2.5,2 A 0.5,0.5 0 0 0 12,38.5 0.5,0.5 0 0 0 12.5,39 0.5,0.5 0 0 0 13,38.5 0.5,0.5 0 0 0 12.5,38"
       id="path80"
       inkscape:connector-curvature="0" />
    <path
       d="M 22.707,34 22,34.707 23.793,36.5 22,38.293 22.707,39 24.5,37.207 26.293,39 27,38.293 25.207,36.5 27,34.707 26.293,34 24.5,35.793 Z"
       id="path82"
       inkscape:connector-curvature="0" />
  </g>
</svg>
