<?xml version="1.0" encoding="UTF-8" standalone="no"?>
<svg
   width="48"
   height="48"
   version="1.1"
   id="svg24"
   sodipodi:docname="akregator.svg"
   inkscape:version="1.1 (c4e8f9ed74, 2021-05-24)"
   xmlns:inkscape="http://www.inkscape.org/namespaces/inkscape"
   xmlns:sodipodi="http://sodipodi.sourceforge.net/DTD/sodipodi-0.dtd"
   xmlns:xlink="http://www.w3.org/1999/xlink"
   xmlns="http://www.w3.org/2000/svg"
   xmlns:svg="http://www.w3.org/2000/svg">
  <sodipodi:namedview
     id="namedview26"
     pagecolor="#ffffff"
     bordercolor="#666666"
     borderopacity="1.0"
     inkscape:pageshadow="2"
     inkscape:pageopacity="0.0"
     inkscape:pagecheckerboard="0"
     showgrid="false"
     inkscape:zoom="8.9166667"
     inkscape:cx="21.420561"
     inkscape:cy="28.934579"
     inkscape:window-width="1920"
     inkscape:window-height="1026"
     inkscape:window-x="0"
     inkscape:window-y="30"
     inkscape:window-maximized="1"
     inkscape:current-layer="svg24" />
  <defs
     id="defs12">
    <linearGradient
       id="a"
       y1="40"
       x1="43"
       y2="4"
       x2="13"
       gradientUnits="userSpaceOnUse">
      <stop
         stop-color="#f27935"
         id="stop2" />
      <stop
         offset="1"
         stop-color="#f2784b"
         id="stop4" />
    </linearGradient>
    <linearGradient
       id="b"
       y1="27.13"
       x1="24.13"
       y2="41"
       x2="38"
       gradientUnits="userSpaceOnUse">
      <stop
         stop-color="#292c2f"
         id="stop7" />
      <stop
         offset="1"
         stop-opacity="0"
         id="stop9" />
    </linearGradient>
    <linearGradient
       inkscape:collect="always"
       xlink:href="#a"
       id="linearGradient2464"
       x1="39.112728"
       y1="41.603165"
       x2="11"
       y2="4"
       gradientUnits="userSpaceOnUse" />
  </defs>
  <g
     stroke-linejoin="round"
     stroke-width="6"
     id="g22">
    <rect
       id="rect30"
       ry="1.9999999"
       rx="1.9999999"
       y="4"
       x="4"
       height="40"
       width="40"
       style="fill:url(#linearGradient2464);fill-opacity:1;stroke:none;stroke-width:2;stroke-linecap:round;stroke-linejoin:round;stroke-miterlimit:4;stroke-dasharray:none;stroke-opacity:1" />
    <path
       inkscape:connector-curvature="0"
       id="path36"
       d="m 4.0000011,40.999998 v 0.999999 c 0,1.107998 0.892002,2.000001 2.000001,2.000001 H 42.000004 c 1.107999,0 2.000002,-0.892003 2.000002,-2.000001 v -0.999999 c 0,1.107999 -0.892003,1.999997 -2.000002,1.999997 H 6.0000021 c -1.107999,0 -2.000001,-0.891998 -2.000001,-1.999997 z"
       style="opacity:1;fill:#b86333;fill-opacity:1;stroke:none;stroke-width:2;stroke-linecap:round;stroke-linejoin:round;stroke-miterlimit:4;stroke-dasharray:none;stroke-opacity:1" />
    <path
       opacity="0.2"
       fill="url(#b)"
       d="M 26,21.75 12,20 l 6,6 -6,2 15.719,15.718998 13.698411,-0.274609 2.582597,-2.444393 z m -11.172,11.422 -5.656,5.656 4.889,4.891 11.316001,-2e-6 z"
       id="path16"
       sodipodi:nodetypes="ccccccccccccc" />
    <path
       fill="#ffffff"
       d="m 12,16 v 4 c 8.837,0 16,7.163 16,16 h 4 C 32,24.95 23.046,16 12,16 m 0,8 v 4 c 4.418,0 8,3.582 8,8 h 4 C 24,29.373 18.627,24 12,24 m 0,8 c -2.209,0 -4,1.791 -4,4 0,2.209 1.791,4 4,4 2.209,0 4,-1.791 4,-4 0,-2.209 -1.791,-4 -4,-4"
       id="path20" />
  </g>
</svg>
