<?xml version="1.0" encoding="UTF-8" standalone="no"?>
<svg
   xmlns:dc="http://purl.org/dc/elements/1.1/"
   xmlns:cc="http://creativecommons.org/ns#"
   xmlns:rdf="http://www.w3.org/1999/02/22-rdf-syntax-ns#"
   xmlns:svg="http://www.w3.org/2000/svg"
   xmlns="http://www.w3.org/2000/svg"
   xmlns:xlink="http://www.w3.org/1999/xlink"
   xmlns:sodipodi="http://sodipodi.sourceforge.net/DTD/sodipodi-0.dtd"
   xmlns:inkscape="http://www.inkscape.org/namespaces/inkscape"
   width="48"
   height="48"
   version="1"
   id="svg16"
   sodipodi:docname="amazon-store.svg"
   inkscape:version="0.92.3 (2405546, 2018-03-11)">
  <metadata
     id="metadata22">
    <rdf:RDF>
      <cc:Work
         rdf:about="">
        <dc:format>image/svg+xml</dc:format>
        <dc:type
           rdf:resource="http://purl.org/dc/dcmitype/StillImage" />
        <dc:title />
      </cc:Work>
    </rdf:RDF>
  </metadata>
  <defs
     id="defs20">
    <linearGradient
       inkscape:collect="always"
       id="linearGradient908">
      <stop
         style="stop-color:#ffffff;stop-opacity:1;"
         offset="0"
         id="stop904" />
      <stop
         style="stop-color:#ffffff;stop-opacity:0;"
         offset="1"
         id="stop906" />
    </linearGradient>
    <linearGradient
       inkscape:collect="always"
       id="linearGradient864">
      <stop
         style="stop-color:#000000;stop-opacity:1;"
         offset="0"
         id="stop860" />
      <stop
         style="stop-color:#000000;stop-opacity:0;"
         offset="1"
         id="stop862" />
    </linearGradient>
    <linearGradient
       inkscape:collect="always"
       id="linearGradient833">
      <stop
         style="stop-color:#232f3e;stop-opacity:1;"
         offset="0"
         id="stop829" />
      <stop
         style="stop-color:#4b6586;stop-opacity:1"
         offset="1"
         id="stop831" />
    </linearGradient>
    <linearGradient
       inkscape:collect="always"
       xlink:href="#linearGradient833"
       id="linearGradient835"
       x1="36.757572"
       y1="43.57341"
       x2="24.42659"
       y2="6.4549232"
       gradientUnits="userSpaceOnUse" />
    <linearGradient
       inkscape:collect="always"
       xlink:href="#linearGradient864"
       id="linearGradient866"
       x1="25.275391"
       y1="11.792969"
       x2="43.335098"
       y2="29.852678"
       gradientUnits="userSpaceOnUse" />
    <linearGradient
       inkscape:collect="always"
       xlink:href="#linearGradient864"
       id="linearGradient868"
       x1="23.728054"
       y1="0.13784266"
       x2="27.835575"
       y2="0.13784266"
       gradientUnits="userSpaceOnUse" />
    <linearGradient
       inkscape:collect="always"
       xlink:href="#linearGradient864"
       id="linearGradient895"
       x1="11.175781"
       y1="32.015625"
       x2="23.338512"
       y2="44.178356"
       gradientUnits="userSpaceOnUse" />
    <linearGradient
       inkscape:collect="always"
       xlink:href="#linearGradient864"
       id="linearGradient897"
       x1="45.495403"
       y1="-0.02129793"
       x2="48.865177"
       y2="-0.02129793"
       gradientUnits="userSpaceOnUse" />
    <linearGradient
       inkscape:collect="always"
       xlink:href="#linearGradient864"
       id="linearGradient899"
       x1="36.910156"
       y1="31.378906"
       x2="42.548515"
       y2="37.017265"
       gradientUnits="userSpaceOnUse" />
    <linearGradient
       inkscape:collect="always"
       xlink:href="#linearGradient908"
       id="linearGradient910"
       x1="21.531609"
       y1="9.3685694"
       x2="28.547892"
       y2="37.457649"
       gradientUnits="userSpaceOnUse" />
  </defs>
  <sodipodi:namedview
     pagecolor="#ffffff"
     bordercolor="#666666"
     borderopacity="1"
     objecttolerance="10"
     gridtolerance="10"
     guidetolerance="10"
     inkscape:pageopacity="0"
     inkscape:pageshadow="2"
     inkscape:window-width="1920"
     inkscape:window-height="1026"
     id="namedview18"
     showgrid="true"
     inkscape:zoom="13.92"
     inkscape:cx="20.619599"
     inkscape:cy="20.438729"
     inkscape:window-x="0"
     inkscape:window-y="30"
     inkscape:window-maximized="1"
     inkscape:current-layer="svg16">
    <inkscape:grid
       type="xygrid"
       id="grid835" />
  </sodipodi:namedview>
  <rect
     width="40"
     height="40"
     x="4"
     y="4"
     id="rect4"
     style="fill:url(#linearGradient835);fill-opacity:1" />
  <path
     style="opacity:0.3;fill:url(#linearGradient866);fill-opacity:1;stroke:none;stroke-width:1;stroke-linecap:round;stroke-linejoin:round;stroke-miterlimit:4;stroke-dasharray:none;stroke-dashoffset:0;stroke-opacity:1;paint-order:normal"
     d="M 29.199219 12.888672 C 30.688931 14.463042 30.556641 16.52619 30.556641 18.771484 L 30.556641 24.224609 C 30.556641 25.865609 31.204359 26.583703 31.818359 27.470703 C 32.033359 27.783703 32.080547 28.165391 31.810547 28.400391 C 31.126547 29.002391 29.912141 30.103609 29.244141 30.724609 L 29.232422 30.712891 L 29.236328 30.707031 C 29.017328 30.914031 28.697266 30.929969 28.447266 30.792969 C 27.338266 29.827969 27.138391 29.379031 26.525391 28.457031 C 24.689391 30.418031 23.392766 31.003906 21.009766 31.003906 C 19.643596 31.003906 18.427076 30.572217 17.533203 29.716797 L 31.816406 44 L 44 44 L 44 27.689453 L 29.199219 12.888672 z "
     id="rect837" />
  <path
     transform="rotate(45)"
     style="opacity:0.3;fill:url(#linearGradient868);fill-opacity:1;stroke:none;stroke-width:1;stroke-linecap:round;stroke-linejoin:round;stroke-miterlimit:4;stroke-dasharray:none;stroke-dashoffset:0;stroke-opacity:1;paint-order:normal"
     d="m 23.918905,-6.2769294 c 4.066522,-1.3166972 7.768109,-1.5385908 11.424234,-1.6240968 l -3.56052,5.3528625 -1.526944,2.68600636 h -6.52762 L 23.263019,-1.2676258 Z"
     id="rect844"
     inkscape:connector-curvature="0"
     sodipodi:nodetypes="ccccccc" />
  <path
     style="opacity:0.3;fill:url(#linearGradient895);fill-opacity:1;stroke:none;stroke-width:1;stroke-linecap:round;stroke-linejoin:round;stroke-miterlimit:4;stroke-dasharray:none;stroke-dashoffset:0;stroke-opacity:1;paint-order:normal"
     d="M 11.175781 32.015625 L 23.160156 44 L 44 44 L 44 41.279297 L 34.636719 33.123047 L 33.966797 33.261719 C 31.122671 35.43549 30.81931 34.722062 28.1875 35.443359 L 19.298828 35.599609 L 11.175781 32.015625 z "
     id="rect870" />
  <path
     style="opacity:0.3;fill:url(#linearGradient899);fill-opacity:1;stroke:none;stroke-width:0.91476989;stroke-linecap:round;stroke-linejoin:round;stroke-miterlimit:4;stroke-dasharray:none;stroke-dashoffset:0;stroke-opacity:1;paint-order:normal"
     d="M 36.910156 31.378906 L 36.208984 31.412109 L 35.978516 33.820312 L 35.474609 35.193359 L 34.890625 35.777344 L 43.111328 44 L 44 44 L 44 38.46875 L 36.910156 31.378906 z "
     id="rect875" />
  <path
     transform="rotate(45)"
     style="opacity:0.3;fill:url(#linearGradient897);fill-opacity:1;stroke:none;stroke-width:1;stroke-linecap:round;stroke-linejoin:round;stroke-miterlimit:4;stroke-dasharray:none;stroke-dashoffset:0;stroke-opacity:1;paint-order:normal"
     d="m 47.607707,-3.0374606 2.847467,0.1420608 v 2.87410187 l -4.959771,0 0.277352,-0.53272794 z"
     id="rect880"
     inkscape:connector-curvature="0"
     sodipodi:nodetypes="cccccc" />
  <path
     style="fill:#ff9900"
     d="M 35.092,30.998 C 34.182,31.011 33.107,31.221 32.295,31.807 32.041,31.987 32.084,32.236 32.365,32.201 33.279,32.087 35.323,31.837 35.686,32.314 36.053,32.79 35.279,34.76 34.939,35.639 34.834,35.905 35.057,36.014 35.291,35.811 36.822,34.503 37.213,31.76 36.9,31.365 36.746,31.168 36.001,30.985 35.092,30.998 Z M 11.189,31.525 C 11,31.551 10.916,31.786 11.115,31.971 14.509,35.114 18.995,37 23.975,37 27.529,37 31.652,35.851 34.5,33.703 L 34.502,33.699 C 34.975,33.339 34.572,32.809 34.088,33.016 30.9,34.407 27.427,35.074 24.275,35.074 19.599,35.074 15.068,33.762 11.408,31.578 11.328,31.53 11.253,31.517 11.189,31.525 Z"
     id="path14" />
  <path
     style="fill:url(#linearGradient910);fill-rule:evenodd;fill-opacity:1"
     d="M 25.861,22.175 C 25.861,23.542 25.896,24.679 25.236,25.89 24.705,26.874 23.861,27.48 22.92,27.48 21.635,27.48 20.889,26.457 20.889,24.945 20.889,21.961 23.444,21.418 25.862,21.418 V 22.176 M 29.237,30.707 C 29.018,30.914 28.698,30.93 28.448,30.793 27.339,29.828 27.139,29.379 26.526,28.457 24.69,30.418 23.393,31.004 21.01,31.004 18.194,31.004 16,29.188 16,25.551 16,22.711 17.473,20.774 19.566,19.828 21.379,18.992 23.918,18.844 25.859,18.613 V 18.16 C 25.859,17.328 25.922,16.344 25.457,15.625 25.047,14.98 24.266,14.715 23.578,14.715 22.301,14.715 21.164,15.399 20.887,16.817 20.828,17.133 20.61,17.442 20.305,17.458 L 17.059,17.095 C 16.786,17.029 16.485,16.798 16.559,16.361 17.309,12.252 20.864,11.009 24.043,11.009 25.672,11.009 27.801,11.462 29.083,12.751 30.712,14.341 30.556,16.462 30.556,18.771 V 24.224 C 30.556,25.865 31.204,26.583 31.818,27.47 32.033,27.783 32.08,28.165 31.81,28.4 31.126,29.002 29.912,30.103 29.244,30.724 L 29.232,30.712"
     id="path10" />
  <rect
     style="opacity:0.2;fill:#000000;fill-opacity:1;stroke:none;stroke-width:2;stroke-linecap:round;stroke-linejoin:round;stroke-miterlimit:4;stroke-dasharray:none;stroke-dashoffset:0;stroke-opacity:1;paint-order:normal"
     id="rect838"
     width="40"
     height="1"
     x="4"
     y="43" />
</svg>
