<?xml version="1.0" encoding="UTF-8" standalone="no"?>
<svg
   xmlns:dc="http://purl.org/dc/elements/1.1/"
   xmlns:cc="http://creativecommons.org/ns#"
   xmlns:rdf="http://www.w3.org/1999/02/22-rdf-syntax-ns#"
   xmlns:svg="http://www.w3.org/2000/svg"
   xmlns="http://www.w3.org/2000/svg"
   xmlns:xlink="http://www.w3.org/1999/xlink"
   xmlns:sodipodi="http://sodipodi.sourceforge.net/DTD/sodipodi-0.dtd"
   xmlns:inkscape="http://www.inkscape.org/namespaces/inkscape"
   width="48"
   height="48"
   viewBox="0 0 12.7 12.7"
   version="1.1"
   id="svg8"
   sodipodi:docname="desktop-xfce.svg"
   inkscape:version="1.0.1 (3bc2e813f5, 2020-09-07)">
  <defs
     id="defs2">
    <linearGradient
       inkscape:collect="always"
       id="linearGradient1405">
      <stop
         style="stop-color:#000000;stop-opacity:1;"
         offset="0"
         id="stop1401" />
      <stop
         style="stop-color:#000000;stop-opacity:0;"
         offset="1"
         id="stop1403" />
    </linearGradient>
    <linearGradient
       inkscape:collect="always"
       id="linearGradient882">
      <stop
         style="stop-color:#a7caff;stop-opacity:1;"
         offset="0"
         id="stop878" />
      <stop
         style="stop-color:#ecf6ff;stop-opacity:1"
         offset="1"
         id="stop880" />
    </linearGradient>
    <linearGradient
       inkscape:collect="always"
       id="linearGradient847">
      <stop
         style="stop-color:#002d72;stop-opacity:1"
         offset="0"
         id="stop843" />
      <stop
         style="stop-color:#0044aa;stop-opacity:1"
         offset="1"
         id="stop845" />
    </linearGradient>
    <linearGradient
       inkscape:collect="always"
       xlink:href="#linearGradient847"
       id="linearGradient849"
       x1="10.007088"
       y1="11.878944"
       x2="4.0789142"
       y2="2.1618624"
       gradientUnits="userSpaceOnUse" />
    <linearGradient
       inkscape:collect="always"
       xlink:href="#linearGradient882"
       id="linearGradient884"
       x1="6.5524058"
       y1="10.059804"
       x2="6.3283596"
       y2="4.0789022"
       gradientUnits="userSpaceOnUse" />
    <linearGradient
       inkscape:collect="always"
       xlink:href="#linearGradient1405"
       id="linearGradient1407"
       x1="36.837318"
       y1="16.313494"
       x2="41.693951"
       y2="22.349081"
       gradientUnits="userSpaceOnUse" />
    <linearGradient
       inkscape:collect="always"
       xlink:href="#linearGradient1405"
       id="linearGradient1429"
       x1="18.558863"
       y1="17.39917"
       x2="35.742119"
       y2="35.67675"
       gradientUnits="userSpaceOnUse" />
  </defs>
  <sodipodi:namedview
     id="base"
     pagecolor="#ffffff"
     bordercolor="#666666"
     borderopacity="1.0"
     inkscape:pageopacity="0.0"
     inkscape:pageshadow="2"
     inkscape:zoom="8.78125"
     inkscape:cx="-7.9874618"
     inkscape:cy="12.896033"
     inkscape:document-units="px"
     inkscape:current-layer="layer1"
     inkscape:document-rotation="0"
     showgrid="false"
     units="px"
     inkscape:window-width="1920"
     inkscape:window-height="1017"
     inkscape:window-x="-8"
     inkscape:window-y="-8"
     inkscape:window-maximized="1" />
  <metadata
     id="metadata5">
    <rdf:RDF>
      <cc:Work
         rdf:about="">
        <dc:format>image/svg+xml</dc:format>
        <dc:type
           rdf:resource="http://purl.org/dc/dcmitype/StillImage" />
        <dc:title></dc:title>
      </cc:Work>
    </rdf:RDF>
  </metadata>
  <g
     inkscape:label="레이어 1"
     inkscape:groupmode="layer"
     id="layer1">
    <path
       id="path833"
       style="opacity:1;fill:url(#linearGradient849);fill-opacity:1;stroke-width:0.808618"
       d="M 11.641666,6.3499999 A 5.2916665,5.2916665 0 0 1 6.3499999,11.641666 5.2916665,5.2916665 0 0 1 1.0583334,6.3499999 5.2916665,5.2916665 0 0 1 6.3499999,1.0583334 5.2916665,5.2916665 0 0 1 11.641666,6.3499999 Z" />
    <path
       id="path851"
       style="opacity:0.2;fill:#000000;fill-opacity:1;stroke-width:3.61135"
       d="M 43.994141,23.488281 A 19.999999,19.999999 0 0 1 24,43 19.999999,19.999999 0 0 1 4.0058594,23.511719 19.999999,19.999999 0 0 0 4,24 19.999999,19.999999 0 0 0 24,44 19.999999,19.999999 0 0 0 44,24 19.999999,19.999999 0 0 0 43.9941,23.488281 Z"
       transform="scale(0.26458333)" />
    <path
       id="path924"
       style="opacity:0.3;fill:url(#linearGradient1429);fill-opacity:1;fill-rule:evenodd;stroke:none;stroke-width:0.0497031"
       d="m 17.609375,25.539062 1.947266,1.732422 -1.921875,1.06836 c 0.06803,0.470589 -1.39741,1.287911 -1.291016,1.998047 0.007,0.04278 0.02295,0.07565 0.04687,0.09961 l 1.316406,1.316406 c -0.08395,0.319185 -0.135196,0.597237 -0.04687,0.685547 L 28.667969,43.447266 C 36.932418,41.463568 42.942406,34.50653 43.863281,26.214844 l -4.696567,-4.656305 -6.383511,-4.812445 -1.4375,1.001953 -1.443359,-0.113281 c -0.191169,-0.158759 -0.39321,-0.227174 -0.605469,-0.121094 -0.03507,0.01931 -0.06243,0.04288 -0.09375,0.06445 l 1.654275,5.940682 z m 26.332031,-0.191406 c -0.02166,0.283012 -0.04519,0.564959 -0.07617,0.845703 0.03088,-0.280764 0.05711,-0.562019 0.07617,-0.845703 z"
       transform="scale(0.26458333)"
       sodipodi:nodetypes="cccccccccccccccccccc" />
    <path
       id="path1305"
       style="fill:url(#linearGradient1407);fill-opacity:1;fill-rule:evenodd;stroke:none;stroke-width:0.0497031;opacity:0.3"
       d="m 38.476562,18.3125 c -0.09789,0.0421 -0.484202,2.031597 -0.316406,2.199219 l 5.703125,5.703125 C 43.944351,25.484877 43.999987,24.748234 44,24 43.999849,23.526892 43.98301,23.053938 43.94922,22.582031 l -3.978516,-3.978515 c -0.0049,-0.0043 -0.0088,-0.0057 -0.01563,-0.0059 L 38.65234,18.488241 Z"
       transform="scale(0.26458333)" />
    <path
       d="m 2.1266114,4.2078657 c -0.04488,0.024576 0.35789,0.2885076 1.1126621,0.599244 C 3.9940936,5.1178461 5.0375317,5.9045318 4.9557764,6.0316504 4.7106113,6.3769628 4.5663151,6.7909473 4.6661168,7.4983418 4.6841168,7.6228539 4.296198,7.8392029 4.3243484,8.0270864 4.3478844,8.1700466 4.7577906,7.8850542 4.802517,7.9412624 4.829877,8.0421425 4.5834671,8.5530599 4.6829809,8.589548 4.7557649,8.61118 5.3952441,7.9813425 5.4324186,7.9918369 c 1.05511,0.3189763 2.4286317,0.079072 2.4552142,0.06896 -0.00256,-0.0056 0.9867432,0.4655046 1.0728142,0.4092037 C 9.1775588,8.2348883 8.5491231,7.9035039 8.6539281,7.7711373 8.6998801,7.7018412 9.4200155,8.0312 9.455475,7.9412559 9.5070749,7.7855437 9.1211482,7.4587945 9.0631305,7.3619352 9.0126665,7.2726231 9.0026665,7.1287973 9.1320904,7.0385588 9.2615623,6.9483187 10.585331,6.4418893 10.529814,6.050036 10.433846,5.3380303 8.8495893,5.2915615 8.8240373,5.2316318 8.8120374,5.2034718 8.8950613,4.2134865 8.433227,4.3963684 8.1488763,4.5022085 8.3795789,5.1332141 8.397979,5.2147726 8.414939,5.2898607 8.2717388,5.2814447 8.2447148,5.2484846 8.1843947,5.1748205 7.9861353,4.5165062 7.7512198,4.6339158 7.4217489,4.8155705 7.7311078,5.3833536 7.6653957,5.401744 7.5433315,5.4699681 7.5502115,5.6368803 7.4523666,5.7726309 7.2910144,6.0038695 6.0832337,5.6644707 5.6929501,5.6408227 5.4072249,5.6239427 5.1348278,5.8576166 5.109031,5.8277989 4.7611202,5.4793969 4.0416233,4.872209 3.2530624,4.6706903 2.810841,4.5506741 2.1529906,4.2034338 2.1266066,4.2078481 Z M 10.180386,4.845425 c -0.02636,0.01136 -0.13264,0.558927 -0.08124,0.5839175 0.04556,0.03408 0.124353,-0.5520775 0.08276,-0.5823863 -6.81e-4,-7.84e-4 -6.81e-4,-0.00192 -0.0015,-0.00154 z m 0.390812,0.075088 c -0.05976,-0.00109 -0.378391,0.5081095 -0.304986,0.5624615 0.04556,0.03408 0.329103,-0.541655 0.309584,-0.5609287 -0.0013,-0.00113 -0.0028,-0.00149 -0.0046,-0.00154 z m -1.5448533,0.6207 c 0.075484,0 0.1363999,0.068848 0.1363999,0.1547842 0,0.085952 -0.060916,0.1563202 -0.1363999,0.1563202 -0.075484,0 -0.1364007,-0.070368 -0.1364007,-0.1563202 0,-0.085952 0.060916,-0.1547842 0.1364007,-0.1547842 z M 8.7198257,5.634701 C 8.7778898,5.8853606 8.8677618,5.9645399 9.1397562,5.9565463 8.7935618,6.2740011 8.5839264,5.7307764 8.7198257,5.634701 Z m 0.7325782,0.6559496 c 0.021555,-0.00176 0.038035,0.0016 0.047502,0.01072 0.1363839,0.04944 -0.5852431,0.3095348 -0.5900493,0.2728019 -0.0072,-0.025312 0.3917108,-0.2712963 0.5425382,-0.2835299 z m 0.088897,0.1655202 c 0.00756,-5.792e-4 0.0144,0.00176 0.01992,0.00464 C 9.6899566,6.588715 9.1536486,6.8723058 9.1596806,6.8623506 9.1164629,6.8362386 9.4293195,6.4649021 9.5412954,6.4562141 Z"
       id="path14"
       style="fill:url(#linearGradient884);fill-opacity:1;fill-rule:evenodd;stroke:none;stroke-width:0.0131506" />
  </g>
</svg>
