<?xml version="1.0" encoding="UTF-8" standalone="no"?>
<svg
   width="48"
   height="48"
   version="1.1"
   id="svg76"
   sodipodi:docname="dragonplayer.svg"
   inkscape:version="1.1 (c4e8f9ed74, 2021-05-24)"
   xmlns:inkscape="http://www.inkscape.org/namespaces/inkscape"
   xmlns:sodipodi="http://sodipodi.sourceforge.net/DTD/sodipodi-0.dtd"
   xmlns:xlink="http://www.w3.org/1999/xlink"
   xmlns="http://www.w3.org/2000/svg"
   xmlns:svg="http://www.w3.org/2000/svg">
  <sodipodi:namedview
     id="namedview78"
     pagecolor="#ffffff"
     bordercolor="#666666"
     borderopacity="1.0"
     inkscape:pageshadow="2"
     inkscape:pageopacity="0.0"
     inkscape:pagecheckerboard="0"
     showgrid="false"
     inkscape:zoom="9.2807765"
     inkscape:cx="11.690832"
     inkscape:cy="34.533748"
     inkscape:window-width="1920"
     inkscape:window-height="1026"
     inkscape:window-x="0"
     inkscape:window-y="30"
     inkscape:window-maximized="1"
     inkscape:current-layer="svg76" />
  <defs
     id="defs36">
    <linearGradient
       inkscape:collect="always"
       id="linearGradient4514">
      <stop
         style="stop-color:#f9f9f9;stop-opacity:1"
         offset="0"
         id="stop4510" />
      <stop
         style="stop-color:#b3ecfe;stop-opacity:1"
         offset="1"
         id="stop4512" />
    </linearGradient>
    <linearGradient
       spreadMethod="reflect"
       id="a"
       x1="425.57"
       x2="409.57"
       gradientUnits="userSpaceOnUse"
       gradientTransform="translate(-1 1)">
      <stop
         stop-color="#2f3943"
         id="stop2" />
      <stop
         offset="1"
         stop-color="#808c9b"
         id="stop4" />
    </linearGradient>
    <linearGradient
       spreadMethod="reflect"
       id="b"
       x1="41"
       x2="25"
       gradientUnits="userSpaceOnUse"
       gradientTransform="translate(383.57 500.8)">
      <stop
         stop-color="#197cf1"
         id="stop7" />
      <stop
         offset="1"
         stop-color="#21c9fb"
         id="stop9" />
    </linearGradient>
    <linearGradient
       xlink:href="#a"
       id="c"
       y1="528.8"
       y2="502.8"
       x2="0"
       gradientUnits="userSpaceOnUse"
       gradientTransform="translate(-384.57,-499.8)" />
    <linearGradient
       xlink:href="#a"
       id="d"
       y1="528.8"
       y2="502.8"
       x2="0"
       gradientUnits="userSpaceOnUse" />
    <linearGradient
       xlink:href="#a"
       id="e"
       y1="512.8"
       y2="501.8"
       x2="0"
       gradientUnits="userSpaceOnUse" />
    <linearGradient
       xlink:href="#b"
       id="f"
       y1="514.1"
       x1="416.83"
       y2="503.8"
       x2="416.57"
       gradientUnits="userSpaceOnUse" />
    <linearGradient
       id="g"
       y1="518.74"
       x1="406.82"
       y2="523.67"
       x2="411.76"
       gradientUnits="userSpaceOnUse">
      <stop
         stop-color="#18222a"
         id="stop16" />
      <stop
         offset="1"
         stop-color="#566069"
         id="stop18" />
    </linearGradient>
    <linearGradient
       id="h"
       y1="31"
       x1="19"
       y2="37"
       x2="25"
       gradientUnits="userSpaceOnUse"
       gradientTransform="translate(384.57 499.8)">
      <stop
         id="stop21" />
      <stop
         offset="1"
         stop-opacity="0"
         id="stop23" />
    </linearGradient>
    <linearGradient
       xlink:href="#h"
       id="i"
       y1="9"
       x1="23"
       y2="15"
       x2="27"
       gradientUnits="userSpaceOnUse" />
    <linearGradient
       id="j"
       y1="506.8"
       x1="421.57"
       y2="516.8"
       x2="414.57"
       gradientUnits="userSpaceOnUse">
      <stop
         stop-color="#18222a"
         id="stop27" />
      <stop
         offset="1"
         stop-color="#18222a"
         stop-opacity="0"
         id="stop29" />
    </linearGradient>
    <linearGradient
       xlink:href="#g"
       id="k"
       y1="519.3"
       x1="400.07"
       y2="524.45"
       x2="405.23"
       gradientUnits="userSpaceOnUse" />
    <linearGradient
       xlink:href="#j"
       id="l"
       y1="509.61"
       x1="420.95"
       y2="513.52"
       x2="424.85"
       gradientUnits="userSpaceOnUse" />
    <linearGradient
       xlink:href="#b"
       id="m"
       y1="527.8"
       x1="423.57"
       y2="519.3"
       x2="411.57"
       gradientUnits="userSpaceOnUse" />
    <linearGradient
       xlink:href="#b"
       id="n"
       y1="513.03"
       x1="410.71"
       y2="524.07"
       x2="392.13"
       gradientUnits="userSpaceOnUse" />
    <linearGradient
       inkscape:collect="always"
       xlink:href="#g"
       id="linearGradient895"
       gradientUnits="userSpaceOnUse"
       x1="406.82"
       y1="518.74"
       x2="411.76"
       y2="523.67" />
    <linearGradient
       inkscape:collect="always"
       xlink:href="#h"
       id="linearGradient897"
       gradientUnits="userSpaceOnUse"
       gradientTransform="translate(384.57,499.8)"
       x1="19"
       y1="31"
       x2="25"
       y2="37" />
    <linearGradient
       inkscape:collect="always"
       xlink:href="#a"
       id="linearGradient899"
       gradientUnits="userSpaceOnUse"
       gradientTransform="translate(-389.57,-498.8)"
       x1="425.57"
       x2="409.57"
       spreadMethod="reflect" />
    <linearGradient
       inkscape:collect="always"
       xlink:href="#b"
       id="linearGradient901"
       gradientUnits="userSpaceOnUse"
       gradientTransform="translate(-5,1)"
       x1="41"
       x2="25"
       spreadMethod="reflect" />
    <linearGradient
       inkscape:collect="always"
       xlink:href="#j"
       id="linearGradient903"
       gradientUnits="userSpaceOnUse"
       x1="421.57"
       y1="506.8"
       x2="414.57"
       y2="516.8" />
    <linearGradient
       inkscape:collect="always"
       xlink:href="#linearGradient4514"
       id="linearGradient4516"
       x1="50.183483"
       y1="-5.2056541"
       x2="10.783993"
       y2="44.508591"
       gradientUnits="userSpaceOnUse" />
  </defs>
  <path
     id="rect30"
     style="fill:url(#linearGradient4516);fill-opacity:1;stroke-width:2;stroke-linecap:round;stroke-linejoin:round"
     d="m 6,4 h 36 c 1.108,0 2,0.892 2,2 v 36 c 0,1.108 -0.892,2 -2,2 H 6 C 4.892,44 4,43.108 4,42 V 6 C 4,4.892 4.892,4 6,4 Z" />
  <g
     transform="translate(-388.57,-499.8)"
     id="g74">
    <g
       fill-rule="evenodd"
       id="g52"
       transform="translate(6)">
      <path
         fill="url(#f)"
         d="m 403.57,506.8 c 2,-3 6,-3 6,-3 0,0 0.208,0.426 0,1 1.738,-0.781 4,0 4,0 0,0 -0.317,0.667 -1,1 1.723,0.629 3,2 3,2 0,0 -0.317,0.605 -1,1 1.707,0.161 3,2 3,2 0,0 -0.453,0.777 -1,1 1.422,0.613 2,0.821 2,2 0,1.179 -3,3 -3,3 0,0 -1.75,-4.502 -3,-6 -1.25,-1.498 -2.463,-2.313 -4,-3 -1.537,-0.687 -5,-1 -5,-1"
         id="path38"
         style="fill:url(#f)" />
      <path
         fill="url(#n)"
         d="m 409.57,508.8 c 0,0 0,6 -3,8 -3,2 -9,3 -13,5 -4,2 -5,5 -5,5 0,0 4,-2 6,-2 2,0 5,1 5,1 0,0 2,-2 5,-2 3,0 6,1 6,1 l 1,-11 z"
         id="path40"
         style="fill:url(#n)" />
      <path
         fill="url(#g)"
         d="m 410.57,511.8 c 0,0 0.188,3.5 -2.813,5.5 -3,2 -10.721,3.239 -14.5,5.313 -2.766,1.517 -4.688,4.188 -4.688,4.188 0,0 4,-2 6,-2 2,0 5,1 5,1 0,0 2,-2 5,-2 3,0 6,1 6,1 l 1,-11 z"
         id="path42"
         style="fill:url(#linearGradient895)" />
      <path
         fill="url(#c)"
         d="M 23,5.625 C 22,5.75 22,7 22,7 l 3,6 c 2,4 1,13 -6,17 0,0 0.477,0.234 1.236,0.525 C 17.157,33.048 13.00001,35.99999 2,36 l 23.059,-1e-5 C 26.957456,34.570709 28.082,33.205 29.029,31.742 29.086,31.338 29.281,30.437 30,29 c 1,-2 2,-6 2,-6 0,0 1,0 2,1 0.835,0.835 -3.036,5.638 -4.393,7.27 C 30.446,30.992 31.258,30.594 32,30 37,26 34.254,15.786 30,11 26,6.5 24,5.5 23,5.625"
         transform="translate(384.57,499.8)"
         id="path44"
         style="fill:url(#c)"
         sodipodi:nodetypes="ccscccccccscccc" />
      <path
         opacity="0.2"
         fill="url(#i)"
         d="m 24,6 -1.5,2 2.5,5 c 0.459,0.917 0.751,2.105 0.857,3.428 L 31,13 Z"
         transform="translate(384.57,499.8)"
         id="path46"
         style="fill:url(#i)" />
      <path
         fill="#2980b9"
         d="m 409.34,528.14 c -1.945,2.427 -1.842,2.708 -4.572,4.755 -0.015,0.011 -0.032,0.022 -0.047,0.033 l 2.20799,2.87199 C 417.691,528.67314 409.339,528.14 409.339,528.14 m -5.443,5.382 c -1.132,0.803 -3.85698,2.1196 -6.32599,2.27799 h 8.05899 z"
         id="path48"
         sodipodi:nodetypes="ccccccccc" />
      <path
         opacity="0.2"
         fill="url(#h)"
         d="m 404.81,530.32 c -3.079,2.523 -7.50585,5.46898 -18.24,5.48 l 23.059,-10e-6 c 1.7351,-1.24068 3.211,-3.04399 4.21,-4.62199 0.961,-0.277 -9.789,-1.149 -9.03,-0.857"
         id="path50"
         style="fill:url(#linearGradient897)"
         sodipodi:nodetypes="ccccc" />
      <rect
         style="fill:#c1e7ed;stroke-width:1"
         id="rect1299"
         width="5.059"
         height="3.2237754"
         x="404.57001"
         y="535.79999"
         rx="0"
         ry="0" />
    </g>
    <g
       stroke-linejoin="round"
       color="#000000"
       stroke-width="3"
       id="g58">
      <path
         id="path54"
         style="fill:url(#linearGradient899)"
         d="m 4,36 v 6 c 0,1.108 0.892,2 2,2 h 36 c 1.108,0 2,-0.892 2,-2 v -6 z"
         transform="translate(388.57,499.8)" />
      <path
         id="path56"
         style="fill:url(#linearGradient901)"
         d="m 4,38 v 3 c 0,0.36693 0.1042911,0.704999 0.2753906,1 H 9 v -4 z m 6,0 v 4 h 6 v -4 z m 7,0 v 4 h 6 v -4 z m 7,0 v 4 h 6 v -4 z m 7,0 v 4 h 6 v -4 z m 7,0 v 4 h 5.724609 C 43.895709,41.704999 44,41.36693 44,41 v -3 z"
         transform="translate(388.57,499.8)" />
    </g>
    <g
       fill-rule="evenodd"
       id="g72"
       transform="translate(6)">
      <path
         fill="url(#d)"
         d="m 421.57,506.8 c -1,0 -1,3 -4,6 -3,3 -4,3 -4,3 0,0 3,2 3,6 3,2 3,6 3,6 l 4,-11 -1,-8 z"
         id="path60"
         style="fill:url(#d)" />
      <path
         fill="url(#j)"
         d="m 421.57,506.8 c -1,0 -1,3 -4,6 -3,3 -4,3 -4,3 0,0 3,2 3,6 0,4 -2,7 -2,7 l 9,-12 -1,-8 z"
         id="path62"
         style="fill:url(#linearGradient903)" />
      <path
         fill="url(#l)"
         d="m 421.57,506.8 c -2,13.5 -7.313,14.375 -7.938,18.25 -0.637,3.949 0.938,3.75 0.938,3.75 l 9,-12 -1,-8 z"
         id="path64"
         style="fill:url(#l)" />
      <path
         fill="url(#m)"
         d="m 421.57,506.8 c 1,0 4,6 3,15 -1,9 -6,11 -6,11 0,0 -7,-1 -9,-1 -2,0 -3,1 -3,1 0,0 -3,-2 -7,-2 -4,0 -9,4 -9,4 0,0 1,-4 7,-6 6,-2 15.799,-0.159 19,-4 10,-12 4,-18 5,-18"
         id="path66"
         style="fill:url(#m)" />
      <path
         fill="url(#e)"
         d="m 406.57,510.8 c -2.121,0.707 -5,0 -6,1 l -1,1 c 0,0 -1,-2 0,-3 1,-1 3,-1 4,-3 1,-2 4,-2 5,-1 2,2 1,4 -2,5"
         id="path68"
         style="fill:url(#e)" />
      <path
         fill="url(#k)"
         d="m 407.76,517.3 c -3,2 -10.721,3.239 -14.5,5.313 -2.766,1.517 -4.688,4.188 -4.688,4.188 0,0 4,-2 6,-2 2,0 5,1 5,1 0,0 11.188,-10.5 8.188,-8.5"
         id="path70"
         style="fill:url(#k)" />
    </g>
  </g>
  <path
     inkscape:connector-curvature="0"
     id="path36"
     d="m 4,41 v 1 c 0,1.108 0.892,2 2,2 h 36 c 1.108,0 2,-0.892 2,-2 v -1 c 0,1.108 -0.892,2 -2,2 H 6 C 4.892,43 4,42.108 4,41 Z"
     style="opacity:0.15;fill:#000000;fill-opacity:1;stroke:none;stroke-width:2;stroke-linecap:round;stroke-linejoin:round;stroke-miterlimit:4;stroke-dasharray:none;stroke-opacity:1" />
</svg>
