<?xml version="1.0" encoding="UTF-8" standalone="no"?>
<svg
   xmlns:dc="http://purl.org/dc/elements/1.1/"
   xmlns:cc="http://creativecommons.org/ns#"
   xmlns:rdf="http://www.w3.org/1999/02/22-rdf-syntax-ns#"
   xmlns:svg="http://www.w3.org/2000/svg"
   xmlns="http://www.w3.org/2000/svg"
   xmlns:xlink="http://www.w3.org/1999/xlink"
   xmlns:sodipodi="http://sodipodi.sourceforge.net/DTD/sodipodi-0.dtd"
   xmlns:inkscape="http://www.inkscape.org/namespaces/inkscape"
   height="48"
   width="48"
   version="1.1"
   viewBox="0 0 48 48"
   id="svg22"
   sodipodi:docname="ekiga.svg"
   inkscape:version="0.92.1 r15371">
  <metadata
     id="metadata26">
    <rdf:RDF>
      <cc:Work
         rdf:about="">
        <dc:format>image/svg+xml</dc:format>
        <dc:type
           rdf:resource="http://purl.org/dc/dcmitype/StillImage" />
        <dc:title></dc:title>
      </cc:Work>
    </rdf:RDF>
  </metadata>
  <sodipodi:namedview
     pagecolor="#ffffff"
     bordercolor="#666666"
     borderopacity="1"
     objecttolerance="10"
     gridtolerance="10"
     guidetolerance="10"
     inkscape:pageopacity="0"
     inkscape:pageshadow="2"
     inkscape:window-width="1600"
     inkscape:window-height="808"
     id="namedview24"
     showgrid="false"
     inkscape:zoom="1"
     inkscape:cx="21.085405"
     inkscape:cy="20.731359"
     inkscape:window-x="0"
     inkscape:window-y="0"
     inkscape:window-maximized="1"
     inkscape:current-layer="svg22">
    <inkscape:grid
       type="xygrid"
       id="grid4544" />
  </sodipodi:namedview>
  <defs
     id="defs14">
    <linearGradient
       inkscape:collect="always"
       id="linearGradient4569">
      <stop
         style="stop-color:#000000;stop-opacity:1;"
         offset="0"
         id="stop4565" />
      <stop
         style="stop-color:#000000;stop-opacity:0;"
         offset="1"
         id="stop4567" />
    </linearGradient>
    <linearGradient
       inkscape:collect="always"
       id="linearGradient4550">
      <stop
         style="stop-color:#d24c02;stop-opacity:1"
         offset="0"
         id="stop4546" />
      <stop
         style="stop-color:#973601;stop-opacity:1"
         offset="1"
         id="stop4548" />
    </linearGradient>
    <linearGradient
       inkscape:collect="always"
       id="linearGradient4513">
      <stop
         style="stop-color:#f6b106;stop-opacity:1;"
         offset="0"
         id="stop4509" />
      <stop
         style="stop-color:#d24b00;stop-opacity:1"
         offset="1"
         id="stop4511" />
    </linearGradient>
    <linearGradient
       inkscape:collect="always"
       xlink:href="#linearGradient4513"
       id="linearGradient4515"
       x1="24"
       y1="4"
       x2="24"
       y2="43.292034"
       gradientUnits="userSpaceOnUse" />
    <linearGradient
       inkscape:collect="always"
       xlink:href="#linearGradient4550"
       id="linearGradient4552"
       x1="3.2344506"
       y1="0.29549542"
       x2="12.576535"
       y2="16.848005"
       gradientUnits="userSpaceOnUse" />
    <linearGradient
       inkscape:collect="always"
       xlink:href="#linearGradient4569"
       id="linearGradient4571"
       x1="21.956118"
       y1="22.126959"
       x2="36.541004"
       y2="36.711845"
       gradientUnits="userSpaceOnUse" />
    <linearGradient
       inkscape:collect="always"
       xlink:href="#linearGradient4550"
       id="linearGradient4581"
       gradientUnits="userSpaceOnUse"
       x1="3.2344506"
       y1="0.29549542"
       x2="12.576535"
       y2="16.848005" />
  </defs>
  <path
     inkscape:connector-curvature="0"
     d="M 24,4 A 20,20 0 0 0 4,24 20,20 0 0 0 24,44 20,20 0 0 0 44,24 20,20 0 0 0 24,4 Z"
     style="fill:url(#linearGradient4515);fill-opacity:1"
     id="path16" />
  <g
     transform="matrix(-1.0867615,0.65870437,0.62744204,1.1409094,27.945021,8.9066539)"
     id="g4"
     style="fill:url(#linearGradient4552);fill-opacity:1">
    <path
       inkscape:connector-curvature="0"
       d="M 5.301,5.587 1.404,1.688 C 1.907,1.185 2.409,0.681 2.913,0.177 3.146,-0.056 3.522,-0.06 3.756,0.17 L 6.792,3.209 C 7.024,3.441 7.024,3.823 6.789,4.057 L 6.124,4.721 5.505,5.34 C 5.429,5.417 5.36,5.499 5.301,5.587 Z m 3.206,6.351 C 7.869,11.389 7.257,10.806 6.663,10.213 6.07,9.616 5.489,9.006 4.939,8.365 4.489,7.845 4.401,7.092 4.636,6.458 l -4,-4.001 c -0.931,0.957 -0.812,3.33 0.208,5.415 0.438,0.902 1.006,1.716 1.593,2.49 0.586,0.768 1.229,1.494 1.906,2.176 0.679,0.681 1.401,1.327 2.171,1.913 0.774,0.589 1.59,1.153 2.486,1.59 2.088,1.019 4.462,1.131 5.418,0.199 l -4.001,-4.001 c -0.634,0.235 -1.388,0.148 -1.91,-0.301 z m 8.195,1.181 -3.036,-3.037 c -0.233,-0.23 -0.615,-0.23 -0.848,0.003 h -0.002 l -0.667,0.666 -0.615,0.618 c -0.076,0.076 -0.159,0.143 -0.247,0.205 l 3.896,3.898 c 0.504,-0.505 1.007,-1.007 1.512,-1.51 0.235,-0.233 0.24,-0.61 0.007,-0.843 z"
       id="path2"
       style="fill:url(#linearGradient4581);fill-opacity:1" />
  </g>
  <path
     inkscape:connector-curvature="0"
     style="opacity:0.2"
     d="M 4.0215,23.418 A 20,20 0 0 0 4,24 20,20 0 0 0 24,44 20,20 0 0 0 44,24 20,20 0 0 0 43.979,23.582 20,20 0 0 1 24,43 20,20 0 0 1 4.022,23.418 Z"
     id="path18" />
  <path
     inkscape:connector-curvature="0"
     style="opacity:0.2;vector-effect:none;fill:url(#linearGradient4571);fill-opacity:1;stroke:none;stroke-width:1.92412281;stroke-linecap:round;stroke-linejoin:round;stroke-miterlimit:4;stroke-dasharray:none;stroke-dashoffset:0;stroke-opacity:1"
     d="M 18.523438,16.798828 15.291016,28.71875 11.3125,21.996094 10.816406,23.527344 9.0917969,27.785156 25.244141,43.9375 A 20,20 0 0 0 43.414062,28.71875 L 40.759766,26.064453 40.390625,26.433594 37,24.5 l -4.5,2 -2.5,-4 -1.5,6 -4,-6 -4,6 z"
     id="rect4556" />
  <path
     style="fill:none;stroke:#f6f6f6;stroke-width:1px;stroke-linecap:round;stroke-linejoin:round;stroke-opacity:1"
     d="m 9.5,27.5 2,-6 4,8 3,-14 2,13 4,-6 4,6 1.5,-6 2.5,4 4.5,-2 3.5,2"
     id="path4554"
     inkscape:connector-curvature="0"
     sodipodi:nodetypes="ccccccccccc" />
</svg>
