<?xml version="1.0" encoding="UTF-8" standalone="no"?>
<svg
   width="48"
   height="48"
   version="1"
   id="svg23"
   sodipodi:docname="firefox.svg"
   inkscape:version="1.1 (c4e8f9ed74, 2021-05-24)"
   xmlns:inkscape="http://www.inkscape.org/namespaces/inkscape"
   xmlns:sodipodi="http://sodipodi.sourceforge.net/DTD/sodipodi-0.dtd"
   xmlns:xlink="http://www.w3.org/1999/xlink"
   xmlns="http://www.w3.org/2000/svg"
   xmlns:svg="http://www.w3.org/2000/svg"
   xmlns:rdf="http://www.w3.org/1999/02/22-rdf-syntax-ns#"
   xmlns:cc="http://creativecommons.org/ns#"
   xmlns:dc="http://purl.org/dc/elements/1.1/">
  <metadata
     id="metadata29">
    <rdf:RDF>
      <cc:Work
         rdf:about="">
        <dc:format>image/svg+xml</dc:format>
        <dc:type
           rdf:resource="http://purl.org/dc/dcmitype/StillImage" />
      </cc:Work>
    </rdf:RDF>
  </metadata>
  <defs
     id="defs27">
    <linearGradient
       inkscape:collect="always"
       id="linearGradient875">
      <stop
         style="stop-color:#3b009b;stop-opacity:1;"
         offset="0"
         id="stop871" />
      <stop
         style="stop-color:#7e009b;stop-opacity:1"
         offset="1"
         id="stop873" />
    </linearGradient>
    <linearGradient
       id="linearGradient855"
       inkscape:collect="always">
      <stop
         id="stop851"
         offset="0"
         style="stop-color:#f55c3f;stop-opacity:1" />
      <stop
         id="stop853"
         offset="1"
         style="stop-color:#fff14a;stop-opacity:1" />
    </linearGradient>
    <linearGradient
       inkscape:collect="always"
       id="linearGradient847">
      <stop
         style="stop-color:#ff8539;stop-opacity:1"
         offset="0"
         id="stop843" />
      <stop
         style="stop-color:#ffbe38;stop-opacity:1"
         offset="1"
         id="stop845" />
    </linearGradient>
    <linearGradient
       inkscape:collect="always"
       id="linearGradient906">
      <stop
         style="stop-color:#e70a67;stop-opacity:1;"
         offset="0"
         id="stop902" />
      <stop
         style="stop-color:#fff14a;stop-opacity:1"
         offset="1"
         id="stop904" />
    </linearGradient>
    <linearGradient
       inkscape:collect="always"
       id="linearGradient890">
      <stop
         style="stop-color:#f58140;stop-opacity:1"
         offset="0"
         id="stop886" />
      <stop
         style="stop-color:#fff14a;stop-opacity:1"
         offset="1"
         id="stop888" />
    </linearGradient>
    <linearGradient
       inkscape:collect="always"
       id="linearGradient882">
      <stop
         style="stop-color:#ff3941;stop-opacity:1"
         offset="0"
         id="stop878" />
      <stop
         style="stop-color:#ffaf16;stop-opacity:1"
         offset="1"
         id="stop880" />
    </linearGradient>
    <linearGradient
       inkscape:collect="always"
       id="linearGradient874">
      <stop
         style="stop-color:#583db7;stop-opacity:1"
         offset="0"
         id="stop870" />
      <stop
         style="stop-color:#b435e2;stop-opacity:1"
         offset="1"
         id="stop872" />
    </linearGradient>
    <linearGradient
       inkscape:collect="always"
       xlink:href="#linearGradient992"
       id="linearGradient994"
       x1="14.810463"
       y1="13.507719"
       x2="28.240898"
       y2="28.001432"
       gradientUnits="userSpaceOnUse"
       gradientTransform="matrix(0.7,0,0,0.7,7.2457384,7.6109042)" />
    <linearGradient
       inkscape:collect="always"
       id="linearGradient992">
      <stop
         style="stop-color:#000000;stop-opacity:1;"
         offset="0"
         id="stop988" />
      <stop
         style="stop-color:#000000;stop-opacity:0;"
         offset="1"
         id="stop990" />
    </linearGradient>
    <linearGradient
       gradientTransform="matrix(0.7,0,0,0.7,7.1804085,7.5645151)"
       inkscape:collect="always"
       xlink:href="#linearGradient992"
       id="linearGradient1010"
       x1="13.322266"
       y1="21.8125"
       x2="27.079014"
       y2="32.786713"
       gradientUnits="userSpaceOnUse" />
    <linearGradient
       inkscape:collect="always"
       xlink:href="#linearGradient874"
       id="linearGradient876"
       x1="24.228001"
       y1="33.066002"
       x2="24.228001"
       y2="14.315143"
       gradientUnits="userSpaceOnUse"
       gradientTransform="matrix(0.7,0,0,0.7,7.2,7.9)" />
    <linearGradient
       inkscape:collect="always"
       xlink:href="#linearGradient882"
       id="linearGradient884"
       x1="21.855875"
       y1="39.163845"
       x2="28.850494"
       y2="18.103121"
       gradientUnits="userSpaceOnUse"
       gradientTransform="matrix(0.7,0,0,0.7,7.2,7.9)" />
    <linearGradient
       inkscape:collect="always"
       xlink:href="#linearGradient890"
       id="linearGradient892"
       x1="35.634674"
       y1="23.344957"
       x2="30.353409"
       y2="3.6350102"
       gradientUnits="userSpaceOnUse"
       gradientTransform="matrix(0.7,0,0,0.7,7.2,7.9)" />
    <linearGradient
       inkscape:collect="always"
       xlink:href="#linearGradient855"
       id="linearGradient900"
       x1="31.222618"
       y1="30.57012"
       x2="29.698462"
       y2="18.11816"
       gradientUnits="userSpaceOnUse"
       gradientTransform="matrix(0.7,0,0,0.7,7.2,7.9)" />
    <linearGradient
       inkscape:collect="always"
       xlink:href="#linearGradient906"
       id="linearGradient908"
       x1="24.522755"
       y1="42.843544"
       x2="36.621059"
       y2="17.017258"
       gradientUnits="userSpaceOnUse"
       gradientTransform="matrix(0.7,0,0,0.7,7.2,7.9)" />
    <linearGradient
       inkscape:collect="always"
       xlink:href="#linearGradient847"
       id="linearGradient849"
       x1="14.953329"
       y1="15.010217"
       x2="17.321199"
       y2="10.235444"
       gradientUnits="userSpaceOnUse"
       gradientTransform="matrix(0.7,0,0,0.7,7.2,7.9)" />
    <linearGradient
       inkscape:collect="always"
       xlink:href="#linearGradient875"
       id="linearGradient877"
       x1="35.016705"
       y1="41.479721"
       x2="6.1501193"
       y2="4"
       gradientUnits="userSpaceOnUse" />
    <linearGradient
       inkscape:collect="always"
       xlink:href="#linearGradient992"
       id="linearGradient1768"
       x1="10.547116"
       y1="15.527439"
       x2="34.914623"
       y2="38.4137"
       gradientUnits="userSpaceOnUse" />
  </defs>
  <sodipodi:namedview
     pagecolor="#ffffff"
     bordercolor="#666666"
     borderopacity="1"
     objecttolerance="10"
     gridtolerance="10"
     guidetolerance="10"
     inkscape:pageopacity="0"
     inkscape:pageshadow="2"
     inkscape:window-width="1920"
     inkscape:window-height="1026"
     id="namedview25"
     showgrid="false"
     inkscape:zoom="13.01"
     inkscape:cx="7.4173713"
     inkscape:cy="24.019985"
     inkscape:window-x="0"
     inkscape:window-y="30"
     inkscape:window-maximized="1"
     inkscape:current-layer="svg23"
     inkscape:pagecheckerboard="0" />
  <path
     id="rect1765"
     style="fill:url(#linearGradient877);fill-opacity:1;stroke-width:0.0492004"
     d="M 6.1501192,4 C 4.9589792,4 4,4.95898 4,6.15012 v 35.699761 c 0,1.191141 0.9589792,2.150121 2.1501192,2.150121 H 41.849976 c 1.191141,0 2.150026,-0.95898 2.150026,-2.150121 V 6.15012 C 44.000002,4.95898 43.041117,4 41.849976,4 Z" />
  <path
     id="path1485"
     style="opacity:0.2;fill:url(#linearGradient1768);fill-opacity:1;stroke-width:0.7"
     d="M 28.402344 9.2988281 C 22.878204 13.053263 23.14495 17.939839 23.316406 22.539062 L 22.509766 21.732422 C 22.043566 21.604922 21.214766 21.428497 20.072266 20.529297 C 19.070732 19.741034 18.584943 19.441041 15.716797 19.408203 L 15.503906 19.195312 C 15.279116 18.970593 15.231207 19.449904 15.210938 19.777344 L 15.167969 19.734375 C 11.89307 22.266876 10 20.434881 10 24.863281 C 10 28.654481 11.543969 32.090844 14.042969 34.589844 L 23.453125 44 L 41.849609 44 C 43.04075 44 44 43.04075 44 41.849609 L 44 24.896484 L 28.402344 9.2988281 z " />
  <path
     style="fill:url(#linearGradient892);fill-opacity:1;stroke-width:0.7"
     d="m 28.402493,9.3 c 0.590569,1.572168 2.726221,3.999779 5.543118,7.607543 2.385641,3.055429 2.659048,6.464406 3.540976,9.529466 l -6.628845,5.705425 -7.487743,-7.686729 C 23.336376,19.345582 22.109837,13.576826 28.402493,9.3 Z"
     id="path4" />
  <circle
     style="fill:url(#linearGradient876);fill-opacity:1;stroke-width:0.7"
     cx="24"
     cy="24.699999"
     r="6.9999995"
     id="circle10" />
  <path
     inkscape:connector-curvature="0"
     style="opacity:0.2;fill:url(#linearGradient1010);fill-opacity:1;stroke:none;stroke-width:2.8;stroke-linecap:round;stroke-linejoin:round;stroke-miterlimit:4;stroke-dasharray:none;stroke-dashoffset:0;stroke-opacity:1;paint-order:normal"
     d="m 24.022791,21.662953 -7.516797,1.170312 -1.051367,7.397852 8.110156,8.110155 c 4.651145,0.146254 8.929007,-2.005559 11.604688,-5.53164 z"
     id="path999" />
  <path
     style="opacity:0.2;fill:url(#linearGradient994);fill-opacity:1;stroke:none;stroke-width:2.8;stroke-linecap:round;stroke-linejoin:round;stroke-miterlimit:4;stroke-dasharray:none;stroke-dashoffset:0;stroke-opacity:1;paint-order:normal"
     d="m 19.32484,15.064811 -8.568164,8.568163 14.706837,14.706837 c 4.389285,-0.43705 8.274154,-2.922858 10.53828,-6.598048 z"
     id="rect954"
     inkscape:connector-curvature="0" />
  <path
     style="fill:url(#linearGradient849);fill-opacity:1;stroke-width:0.7"
     d="m 14.869483,18.899802 c 0.972534,-0.965014 2.560574,-3.212083 4.455357,-3.834991 -0.509056,2.713317 0.150891,3.575713 0.479374,4.962929 L 16.75878,19.238183 Z"
     id="path8" />
  <path
     style="fill:url(#linearGradient900);fill-opacity:1;stroke-width:0.7"
     d="m 26.617211,19.964329 c -0.09957,9.8e-4 -0.199095,0.0045 -0.298482,0.0106 2.027342,0.951689 3.323017,2.988282 3.325964,5.227885 -0.0016,3.077092 -2.412103,5.684539 -5.485094,5.843381 0.768411,0.36359 1.607525,0.48304 2.457612,0.485407 3.194212,2.9e-5 5.78366,-2.589362 5.783702,-5.783575 2.8e-5,-3.194262 -2.589441,-5.783731 -5.783702,-5.783703 z"
     id="path12" />
  <path
     id="ellipse841"
     style="fill:url(#linearGradient908);fill-opacity:1;stroke-width:0.7"
     d="m 15.168596,19.734863 c -3.274925,2.532579 -5.16854,0.700396 -5.16854,5.128716 C 10.000056,32.505223 16.268057,38.7 24.000028,38.7 31.731999,38.7 38,32.505223 38,24.863579 c 0,-3.557705 -1.358666,-6.80181 -3.591097,-9.253158 0.04976,-0.0019 -0.208769,-0.200629 -0.342052,-0.151029 0.933265,1.546909 1.470428,3.359677 1.470428,5.298033 0,5.672519 -3.154825,11.292134 -8.827346,11.292134 -3.643426,0.176849 -8.496869,-2.152364 -9.243886,-4.331953 -0.481955,-1.406211 -0.360299,-2.98556 0.95095,-3.859814 0.712228,-0.452114 1.750596,-0.898513 3.393376,-0.950935 1.500674,-0.98693 0.7705,-0.87467 0.698314,-1.173474 -0.466175,-0.127475 -1.293678,-0.303637 -2.436222,-1.202863 -1.011965,-0.796457 -1.48198,-1.09846 -4.431049,-1.126008 -0.557135,-1.072795 -0.418212,1.604157 -0.47282,0.330351 z" />
  <path
     style="fill:url(#linearGradient884);fill-opacity:1;stroke-width:0.7"
     d="m 15.379883,13.960742 c -3.134739,2.42417 -5.192628,6.141345 -5.363477,10.338672 0.179262,6.432487 6.051165,11.600585 13.283594,11.600585 7.345386,0 13.299999,-5.327811 13.299999,-11.899999 0,-1.77124 -0.43566,-3.450984 -1.211328,-4.961524 0.09441,0.559484 0.149024,1.132206 0.149024,1.718556 0,5.67252 -4.599158,10.271679 -10.271679,10.271679 -3.643425,0.17685 -6.384233,-1.835841 -7.13125,-4.01543 -0.481956,-1.406211 -0.324141,-1.999573 0.987109,-2.873828 0.712227,-0.452114 1.715033,-0.758321 3.357813,-0.810742 1.500674,-0.986931 1.61574,-1.36643 1.543554,-1.665235 C 23.557067,21.536002 22.27145,21.04239 21.128907,20.143164 20.116941,19.346708 18.837545,17.741547 15.888476,17.714 15.331342,16.641204 15.434491,15.234547 15.379883,13.960742 Z"
     id="path17" />
  <path
     style="fill:#ffba36;stroke-width:0.7"
     d="m 16.25499,21.204027 c -0.952725,-0.02067 -1.955044,0.306055 -2.592157,0.740836 -0.114118,0.114118 1.109281,2.179924 3.238567,2.202316 -0.197144,3.434767 2.548854,5.570708 4.275072,6.067714 l 5.23e-4,-0.0016 c -4.58e-4,-2.35e-4 -9.1e-4,-5.29e-4 -0.0014,-7.7e-4 -0.139103,-0.06896 -0.274408,-0.141484 -0.40594,-0.217344 -0.01229,-0.0071 -0.02444,-0.01432 -0.03668,-0.02147 -0.07352,-0.04299 -0.145784,-0.08698 -0.216834,-0.131991 -0.01391,-0.0088 -0.02783,-0.01757 -0.04165,-0.02645 -0.07112,-0.04575 -0.140889,-0.09249 -0.209422,-0.140168 -0.01075,-0.0075 -0.02164,-0.01484 -0.03233,-0.02236 -0.03934,-0.0277 -0.07833,-0.05564 -0.116786,-0.08395 -0.07542,-0.05552 -0.148941,-0.112309 -0.220921,-0.170068 -0.01708,-0.0137 -0.03397,-0.02746 -0.05085,-0.04128 -0.05098,-0.04175 -0.101094,-0.08394 -0.150263,-0.126752 -0.02394,-0.02082 -0.04767,-0.0418 -0.07117,-0.06286 -0.03412,-0.03062 -0.06786,-0.06139 -0.101073,-0.09251 -0.03209,-0.03004 -0.06385,-0.06024 -0.09507,-0.09072 -0.02576,-0.02518 -0.05125,-0.05043 -0.07641,-0.07589 -0.03656,-0.03698 -0.07257,-0.07423 -0.107841,-0.111803 -6.8e-4,-7e-4 -0.0014,-0.0015 -0.002,-0.0022 -0.02181,-0.02328 -0.04308,-0.04679 -0.0644,-0.07028 -0.03004,-0.03307 -0.05963,-0.06631 -0.08867,-0.09979 -0.02287,-0.02639 -0.04548,-0.05285 -0.06772,-0.07948 -0.02961,-0.03542 -0.05852,-0.07112 -0.08701,-0.106946 -0.01608,-0.02022 -0.03233,-0.04035 -0.04804,-0.06069 -0.03573,-0.04624 -0.07027,-0.09293 -0.104139,-0.139785 -0.01349,-0.01868 -0.02693,-0.03733 -0.04012,-0.05609 -0.03521,-0.05005 -0.06944,-0.100359 -0.10247,-0.15103 -0.009,-0.01385 -0.01771,-0.02777 -0.02657,-0.04165 -0.03284,-0.05144 -0.06486,-0.102995 -0.09545,-0.154991 -0.0065,-0.01101 -0.0128,-0.02206 -0.01916,-0.0331 -0.03083,-0.05334 -0.06025,-0.10703 -0.08867,-0.160868 -0.0053,-0.01 -0.01078,-0.0199 -0.01597,-0.02989 -0.02969,-0.05724 -0.05777,-0.114786 -0.08471,-0.172497 -0.0057,-0.01209 -0.01122,-0.02418 -0.01674,-0.03629 -0.02638,-0.05783 -0.05157,-0.115817 -0.07513,-0.174029 -0.0037,-0.0092 -0.0072,-0.01849 -0.01087,-0.02773 -0.02458,-0.06194 -0.04804,-0.124026 -0.06938,-0.186295 -0.481955,-1.406211 -0.325087,-1.999644 0.986163,-2.873899 0.712227,-0.452114 1.715383,-0.757668 3.358163,-0.810089 1.500675,-0.986931 1.615571,-1.367628 1.543385,-1.666432 -2.530983,2.006277 -4.895195,0.296055 -7.121243,-0.38623 -0.209477,-0.04472 -0.426678,-0.06794 -0.646538,-0.0727 z"
     id="path19" />
  <path
     style="opacity:0.2;fill:#000000;stroke-width:0.7"
     d="M 10.00957,24.538672 C 10.006869,24.648388 10,24.745587 10,24.864063 10,32.505706 16.268029,38.7 23.999999,38.7 31.73197,38.7 38,32.505706 38,24.864063 c 0,-0.0811 -0.0096,-0.159858 -0.01094,-0.240626 -0.246094,7.428201 -6.413213,13.376562 -13.989063,13.376562 -7.604652,0 -13.788684,-5.993646 -13.990429,-13.461327 z"
     id="path865"
     inkscape:connector-curvature="0"
     sodipodi:nodetypes="cssscsc" />
  <path
     id="rect911-0"
     style="opacity:0.2;fill:#000000;fill-opacity:0.99267;stroke-width:0.0547136"
     d="m 4.000031,40.849611 v 0.999998 c 0,1.191141 0.9592509,2.150393 2.1503906,2.150393 H 41.849643 c 1.191137,0 2.150389,-0.959252 2.150389,-2.150393 v -0.999998 c 0,1.19114 -0.959252,2.150392 -2.150389,2.150392 H 6.1504216 c -1.1911397,0 -2.1503906,-0.959252 -2.1503906,-2.150392 z" />
</svg>
