<?xml version="1.0" encoding="UTF-8" standalone="no"?>
<svg
   width="48"
   height="48"
   version="1.1"
   id="svg32"
   sodipodi:docname="github-desktop.svg"
   inkscape:version="1.1 (c4e8f9ed74, 2021-05-24)"
   xmlns:inkscape="http://www.inkscape.org/namespaces/inkscape"
   xmlns:sodipodi="http://sodipodi.sourceforge.net/DTD/sodipodi-0.dtd"
   xmlns:xlink="http://www.w3.org/1999/xlink"
   xmlns="http://www.w3.org/2000/svg"
   xmlns:svg="http://www.w3.org/2000/svg"
   xmlns:rdf="http://www.w3.org/1999/02/22-rdf-syntax-ns#"
   xmlns:cc="http://creativecommons.org/ns#"
   xmlns:dc="http://purl.org/dc/elements/1.1/">
  <metadata
     id="metadata36">
    <rdf:RDF>
      <cc:Work
         rdf:about="">
        <dc:format>image/svg+xml</dc:format>
        <dc:type
           rdf:resource="http://purl.org/dc/dcmitype/StillImage" />
      </cc:Work>
    </rdf:RDF>
  </metadata>
  <sodipodi:namedview
     pagecolor="#ffffff"
     bordercolor="#666666"
     borderopacity="1"
     objecttolerance="10"
     gridtolerance="10"
     guidetolerance="10"
     inkscape:pageopacity="0"
     inkscape:pageshadow="2"
     inkscape:window-width="1920"
     inkscape:window-height="1026"
     id="namedview34"
     showgrid="false"
     inkscape:zoom="8.5599999"
     inkscape:cx="6.8341122"
     inkscape:cy="28.212617"
     inkscape:window-x="0"
     inkscape:window-y="30"
     inkscape:window-maximized="1"
     inkscape:current-layer="svg32"
     inkscape:pagecheckerboard="0">
    <inkscape:grid
       type="xygrid"
       id="grid858" />
  </sodipodi:namedview>
  <defs
     id="defs18">
    <linearGradient
       inkscape:collect="always"
       id="linearGradient904">
      <stop
         style="stop-color:#000000;stop-opacity:1;"
         offset="0"
         id="stop900" />
      <stop
         style="stop-color:#000000;stop-opacity:0;"
         offset="1"
         id="stop902" />
    </linearGradient>
    <linearGradient
       inkscape:collect="always"
       id="linearGradient872">
      <stop
         style="stop-color:#cfb8e9;stop-opacity:1"
         offset="0"
         id="stop868" />
      <stop
         style="stop-color:#ebebeb;stop-opacity:1"
         offset="1"
         id="stop870" />
    </linearGradient>
    <linearGradient
       inkscape:collect="always"
       id="linearGradient864">
      <stop
         style="stop-color:#4e277b;stop-opacity:1"
         offset="0"
         id="stop860" />
      <stop
         style="stop-color:#a449af;stop-opacity:1"
         offset="1"
         id="stop862" />
    </linearGradient>
    <linearGradient
       inkscape:collect="always"
       xlink:href="#linearGradient864"
       id="linearGradient866"
       x1="31"
       y1="43"
       x2="18"
       y2="5"
       gradientUnits="userSpaceOnUse" />
    <linearGradient
       inkscape:collect="always"
       xlink:href="#linearGradient872"
       id="linearGradient874"
       x1="36"
       y1="50"
       x2="22"
       y2="4"
       gradientUnits="userSpaceOnUse"
       gradientTransform="matrix(0.88888886,0,0,0.88888886,2.6666664,2.6666664)" />
    <linearGradient
       inkscape:collect="always"
       xlink:href="#linearGradient904"
       id="linearGradient906"
       x1="14.048828"
       y1="29.341797"
       x2="18.852976"
       y2="34.145943"
       gradientUnits="userSpaceOnUse"
       gradientTransform="matrix(0.88888886,0,0,0.88888886,2.6666664,2.6666664)" />
    <linearGradient
       inkscape:collect="always"
       xlink:href="#linearGradient904"
       id="linearGradient908"
       x1="14.388672"
       y1="36.152344"
       x2="18.938721"
       y2="40.702393"
       gradientUnits="userSpaceOnUse"
       gradientTransform="matrix(0.88888886,0,0,0.88888886,2.6666664,2.6666664)" />
    <linearGradient
       inkscape:collect="always"
       xlink:href="#linearGradient904"
       id="linearGradient910"
       x1="33.494141"
       y1="13.048828"
       x2="41.745331"
       y2="21.30002"
       gradientUnits="userSpaceOnUse"
       gradientTransform="matrix(0.88888886,0,0,0.88888886,2.6666664,2.6666664)" />
    <linearGradient
       inkscape:collect="always"
       xlink:href="#linearGradient864"
       id="linearGradient996"
       x1="43.815891"
       y1="44.039604"
       x2="5.0497236"
       y2="15.855101"
       gradientUnits="userSpaceOnUse" />
  </defs>
  <path
     id="rect30"
     style="fill:url(#linearGradient996);fill-opacity:1;stroke-width:2;stroke-linecap:round;stroke-linejoin:round"
     d="m 6,4 h 36 c 1.108,0 2,0.892 2,2 v 36 c 0,1.108 -0.892,2 -2,2 H 6 C 4.892,44 4,43.108 4,42 V 6 C 4,4.892 4.892,4 6,4 Z" />
  <path
     inkscape:connector-curvature="0"
     id="path36"
     d="m 4,41 v 1 c 0,1.108 0.892,2 2,2 h 36 c 1.108,0 2,-0.892 2,-2 v -1 c 0,1.108 -0.892,2 -2,2 H 6 C 4.892,43 4,42.108 4,41 Z"
     style="opacity:0.15;fill:#000000;fill-opacity:1;stroke:none;stroke-width:2;stroke-linecap:round;stroke-linejoin:round;stroke-miterlimit:4;stroke-dasharray:none;stroke-opacity:1" />
  <path
     inkscape:connector-curvature="0"
     style="clip-rule:evenodd;fill:url(#linearGradient874);fill-opacity:1;fill-rule:evenodd;stroke-width:2"
     d="m 24,8 c -0.466387,0 -0.925714,0.03213 -1.381945,0.07118 a 16,16 0 0 0 -0.843749,0.102434 c -0.234292,0.03265 -0.468732,0.06322 -0.699653,0.105898 a 16,16 0 0 0 -0.975695,0.218749 c -0.181057,0.04542 -0.36312,0.08737 -0.541667,0.138889 A 16,16 0 0 0 18.552083,8.970484 C 18.387481,9.030154 18.221061,9.08618 18.059027,9.15104 a 16,16 0 0 0 -1.001736,0.449652 c -0.142161,0.06865 -0.287302,0.132172 -0.427083,0.204861 a 16,16 0 0 0 -0.970486,0.557291 c -0.132221,0.08102 -0.267922,0.156609 -0.397569,0.24132 a 16,16 0 0 0 -0.871528,0.623264 c -0.141371,0.106514 -0.28768,0.206671 -0.425347,0.317709 a 16,16 0 0 0 -0.74132,0.651041 c -0.147364,0.134601 -0.30048,0.262814 -0.442708,0.402777 a 16,16 0 0 0 -0.701388,0.751736 c -0.117742,0.131709 -0.242517,0.256783 -0.355904,0.392362 a 16,16 0 0 0 -0.874999,1.151041 16,16 0 0 0 -0.05729,0.07639 A 16,16 0 0 0 8.0816,22.388887 C 8.028702,22.918608 8,23.456295 8,24 c 0,0.38873 0.01879,0.772872 0.04341,1.154514 a 16,16 0 0 0 10.942708,14.026041 c 0.434655,-0.08987 0.609375,-0.441117 0.609375,-0.760417 0,-0.38 -0.0191,-1.729444 -0.0191,-3.069444 -4.020001,0.74 -4.615765,-0.980208 -4.935765,-1.880208 -0.18,-0.46 -0.960625,-1.790139 -1.640625,-2.170139 -0.56,-0.3 -1.360833,-1.040764 -0.02083,-1.060764 1.260001,-0.02 2.16007,1.160625 2.46007,1.640625 1.44,2.42 3.297013,1.650903 4.217013,1.230903 0.14,-1.04 0.559099,-1.650348 1.019099,-2.050348 -3.56,-0.4 -7.279515,-1.781041 -7.279516,-7.901041 0,-1.74 1.063334,-3.534514 2.083334,-4.654514 -0.159999,-0.4 -0.718542,-2.039583 0.161458,-4.239583 0,0 1.339307,-0.598195 4.399307,1.461805 1.28,-0.36 2.64,-0.539929 4,-0.539929 1.36,0 2.72,0.179929 4,0.539929 3.06,-2.08 4.399305,-1.461805 4.399305,-1.461805 0.88,2.2 0.321458,3.839583 0.161458,4.239583 1.02,1.12 2.083334,2.894514 2.083334,4.654514 0,6.14 -3.651806,7.501041 -7.211806,7.901041 0.58,0.5 0.982639,1.460071 0.982639,2.960071 0,2.139999 -0.02083,3.859304 -0.02083,4.399304 0,0.297189 0.204074,0.629662 0.604166,0.744792 A 16,16 0 0 0 40,24 c 0,-0.466387 -0.03213,-0.925714 -0.07118,-1.381945 a 16,16 0 0 0 -0.102434,-0.843749 c -0.03266,-0.234292 -0.06322,-0.468732 -0.105909,-0.699653 a 16,16 0 0 0 -0.218751,-0.975695 c -0.04542,-0.181057 -0.08737,-0.36312 -0.138888,-0.541667 a 16,16 0 0 0 -0.333334,-1.005208 c -0.05966,-0.164602 -0.115696,-0.331022 -0.180555,-0.493056 A 16,16 0 0 0 38.399301,17.057291 C 38.330651,16.91513 38.26713,16.769989 38.194439,16.630208 A 16,16 0 0 0 37.637148,15.659722 C 37.556128,15.527501 37.48054,15.3918 37.395828,15.262153 a 16,16 0 0 0 -0.623263,-0.871528 c -0.106514,-0.141371 -0.206672,-0.28768 -0.317709,-0.425347 a 16,16 0 0 0 -0.651041,-0.74132 C 35.669217,13.076594 35.541003,12.923478 35.40104,12.78125 A 16,16 0 0 0 34.649304,12.079862 C 34.517595,11.96212 34.392522,11.837345 34.256942,11.723958 a 16,16 0 0 0 -1.151039,-0.874999 c -0.02448,-0.01697 -0.04661,-0.03698 -0.07118,-0.05382 a 16,16 0 0 0 -0.0053,-0.0034 16,16 0 0 0 -7.418404,-2.71007 C 25.081392,8.028702 24.543705,8 24,8 Z"
     id="path2" />
  <path
     inkscape:connector-curvature="0"
     style="opacity:0.3;fill:url(#linearGradient910);fill-opacity:1;stroke:none;stroke-width:0.888889;stroke-linecap:round;stroke-linejoin:round;stroke-miterlimit:4;stroke-dasharray:none;stroke-dashoffset:0;stroke-opacity:1;paint-order:normal"
     d="m 32.439237,14.265625 c 0.88,2.2 0.321457,3.839583 0.161457,4.239583 1.02,1.12 2.083333,2.894514 2.083333,4.654514 0,6.14 -3.651805,7.501041 -7.211805,7.901041 0.58,0.5 0.98264,1.460071 0.98264,2.960071 0,2.139999 -0.02083,3.859304 -0.02083,4.399304 0,0.297189 0.204075,0.629662 0.604167,0.744792 A 16,16 0 0 0 40,24 c 0,-0.466387 -0.03213,-0.925714 -0.07118,-1.381945 a 16,16 0 0 0 -0.102434,-0.843749 c -0.0066,-0.04763 -0.01425,-0.09474 -0.02083,-0.142361 z"
     id="rect880" />
  <path
     inkscape:connector-curvature="0"
     style="opacity:0.3;fill:url(#linearGradient906);fill-opacity:1;stroke:none;stroke-width:0.527419;stroke-linecap:round;stroke-linejoin:round;stroke-miterlimit:4;stroke-dasharray:none;stroke-dashoffset:0;stroke-opacity:1;paint-order:normal"
     d="m 15.15625,28.723958 -0.0018,0.0243 4.40625,4.404513 c 0.0303,-0.01359 0.06695,-0.02864 0.09549,-0.04166 0.14,-1.04 0.559098,-1.650348 1.019098,-2.050348 -2.027897,-0.227853 -4.104669,-0.77769 -5.519098,-2.336805 z"
     id="rect884" />
  <path
     inkscape:connector-curvature="0"
     style="opacity:0.3;fill:url(#linearGradient908);fill-opacity:1;stroke:none;stroke-width:0.527419;stroke-linecap:round;stroke-linejoin:round;stroke-miterlimit:4;stroke-dasharray:none;stroke-dashoffset:0;stroke-opacity:1;paint-order:normal"
     d="m 15.456598,34.802083 0.0104,0.06598 3.996527,3.996528 c 0.08803,-0.134675 0.131945,-0.29273 0.131945,-0.444445 0,-0.38 -0.0191,-1.729445 -0.0191,-3.069445 -2.313613,0.42589 -3.4744,0.02994 -4.119792,-0.54861 z"
     id="rect887" />
</svg>
