<?xml version="1.0" encoding="UTF-8" standalone="no"?>
<!-- Created with Inkscape (http://www.inkscape.org/) -->

<svg
   width="48"
   height="48"
   viewBox="0 0 12.7 12.7"
   version="1.1"
   id="svg882"
   inkscape:version="1.1.1 (3bf5ae0d25, 2021-09-20)"
   sodipodi:docname="gwenview.svg"
   xmlns:inkscape="http://www.inkscape.org/namespaces/inkscape"
   xmlns:sodipodi="http://sodipodi.sourceforge.net/DTD/sodipodi-0.dtd"
   xmlns:xlink="http://www.w3.org/1999/xlink"
   xmlns="http://www.w3.org/2000/svg"
   xmlns:svg="http://www.w3.org/2000/svg">
  <sodipodi:namedview
     id="namedview884"
     pagecolor="#ffffff"
     bordercolor="#666666"
     borderopacity="1.0"
     inkscape:pageshadow="2"
     inkscape:pageopacity="0.0"
     inkscape:pagecheckerboard="0"
     inkscape:document-units="px"
     showgrid="false"
     units="px"
     inkscape:zoom="17.833333"
     inkscape:cx="37.093458"
     inkscape:cy="14.327103"
     inkscape:window-width="1920"
     inkscape:window-height="1013"
     inkscape:window-x="0"
     inkscape:window-y="0"
     inkscape:window-maximized="1"
     inkscape:current-layer="svg882" />
  <defs
     id="defs879">
    <linearGradient
       inkscape:collect="always"
       id="linearGradient3744">
      <stop
         style="stop-color:#f2f2f2;stop-opacity:1;"
         offset="0"
         id="stop3740" />
      <stop
         style="stop-color:#f9f9f9;stop-opacity:1"
         offset="1"
         id="stop3742" />
    </linearGradient>
    <linearGradient
       inkscape:collect="always"
       id="linearGradient3382">
      <stop
         style="stop-color:#000000;stop-opacity:1;"
         offset="0"
         id="stop3378" />
      <stop
         style="stop-color:#000000;stop-opacity:0;"
         offset="1"
         id="stop3380" />
    </linearGradient>
    <filter
       id="a"
       x="-0.016265131"
       y="-0.049244222"
       width="1.0325303"
       height="1.0984884"
       color-interpolation-filters="sRGB">
      <feGaussianBlur
         stdDeviation=".47521291"
         id="feGaussianBlur2" />
    </filter>
    <linearGradient
       id="k"
       x1="-350.66"
       x2="-376.35999"
       y1="-73.890999"
       y2="-319.06"
       gradientUnits="userSpaceOnUse">
      <stop
         stop-color="#83a3d4"
         offset="0"
         id="stop5" />
      <stop
         stop-color="#6bb5e3"
         offset="1"
         id="stop7" />
    </linearGradient>
    <linearGradient
       id="i"
       x1="-206.77"
       x2="10.512"
       y1="-12.925"
       y2="-156.89"
       gradientUnits="userSpaceOnUse">
      <stop
         stop-color="#70c2bd"
         offset="0"
         id="stop10" />
      <stop
         stop-color="#67c381"
         offset="1"
         id="stop12" />
    </linearGradient>
    <linearGradient
       id="e"
       x1="134.57001"
       x2="148.50999"
       y1="117.3"
       y2="-149.19"
       gradientUnits="userSpaceOnUse">
      <stop
         stop-color="#faaa32"
         offset="0"
         id="stop15" />
      <stop
         stop-color="#fdc22b"
         offset="1"
         id="stop17" />
    </linearGradient>
    <linearGradient
       id="r"
       x1="-146.05"
       x2="123.36"
       y1="144.89999"
       y2="144.89999"
       gradientUnits="userSpaceOnUse">
      <stop
         stop-color="#a0cf63"
         offset="0"
         id="stop20" />
      <stop
         stop-color="#c4da45"
         offset="1"
         id="stop22" />
    </linearGradient>
    <linearGradient
       id="m"
       x1="206.71001"
       x2="28.495001"
       y1="-12.741"
       y2="-150.00999"
       gradientUnits="userSpaceOnUse">
      <stop
         stop-color="#b28cc0"
         offset="0"
         id="stop25" />
      <stop
         stop-color="#9a8ec4"
         offset="1"
         id="stop27" />
    </linearGradient>
    <linearGradient
       id="q"
       x1="189.94"
       x2="-19.618"
       y1="147.05"
       y2="76.405998"
       gradientUnits="userSpaceOnUse">
      <stop
         stop-color="#f48155"
         offset="0"
         id="stop30" />
      <stop
         stop-color="#f16168"
         offset="1"
         id="stop32" />
    </linearGradient>
    <linearGradient
       id="l"
       x1="116.5"
       x2="21.156"
       y1="308.29999"
       y2="34.18"
       gradientUnits="userSpaceOnUse">
      <stop
         stop-color="#735194"
         offset="0"
         id="stop35" />
      <stop
         stop-color="#525da3"
         offset="1"
         id="stop37" />
    </linearGradient>
    <linearGradient
       id="j"
       x1="30.131001"
       x2="123.33"
       y1="111.5"
       y2="-107.17"
       gradientUnits="userSpaceOnUse">
      <stop
         stop-color="#416db9"
         offset="0"
         id="stop40" />
      <stop
         stop-color="#337e8d"
         offset="1"
         id="stop42" />
    </linearGradient>
    <linearGradient
       id="h"
       x1="-103.67"
       x2="205.55"
       y1="133.12"
       y2="0.071801998"
       gradientUnits="userSpaceOnUse">
      <stop
         stop-color="#2e9274"
         offset="0"
         id="stop45" />
      <stop
         stop-color="#469d3c"
         offset="1"
         id="stop47" />
    </linearGradient>
    <linearGradient
       id="f"
       x1="26.978001"
       x2="146.81"
       y1="120.23"
       y2="-100.49"
       gradientUnits="userSpaceOnUse">
      <stop
         stop-color="#ec4001"
         offset="0"
         id="stop50" />
      <stop
         stop-color="#fb6f01"
         offset="1"
         id="stop52" />
    </linearGradient>
    <linearGradient
       id="d"
       x1="-14.299"
       x2="309.39999"
       y1="73.5"
       y2="73.5"
       gradientUnits="userSpaceOnUse">
      <stop
         stop-color="#58a920"
         offset="0"
         id="stop55" />
      <stop
         stop-color="#98b811"
         offset="1"
         id="stop57" />
    </linearGradient>
    <linearGradient
       id="o"
       x1="-123.12"
       x2="145.99001"
       y1="144.89999"
       y2="144.89999"
       gradientUnits="userSpaceOnUse">
      <stop
         stop-color="#d287af"
         offset="0"
         id="stop60" />
      <stop
         stop-color="#e07993"
         offset="1"
         id="stop62" />
    </linearGradient>
    <linearGradient
       id="p"
       x1="-205.78"
       x2="117.82"
       y1="-71.695999"
       y2="-71.695999"
       gradientUnits="userSpaceOnUse">
      <stop
         stop-color="#bd090f"
         offset="0"
         id="stop65" />
      <stop
         stop-color="#e11f07"
         offset="1"
         id="stop67" />
    </linearGradient>
    <linearGradient
       id="n"
       x1="0.17641"
       x2="-308.72"
       y1="-14.583"
       y2="-143.71001"
       gradientUnits="userSpaceOnUse">
      <stop
         stop-color="#c23857"
         offset="0"
         id="stop70" />
      <stop
         stop-color="#914475"
         offset="1"
         id="stop72" />
    </linearGradient>
    <linearGradient
       id="g"
       x1="41.41"
       x2="117.32"
       y1="108.53"
       y2="319.10999"
       gradientUnits="userSpaceOnUse">
      <stop
         stop-color="#e69e08"
         offset="0"
         id="stop75" />
      <stop
         stop-color="#cbc507"
         offset="1"
         id="stop77" />
    </linearGradient>
    <filter
       id="a-3"
       x="-0.0024673239"
       y="-0.0024688947"
       width="1.0049346"
       height="1.0049378"
       color-interpolation-filters="sRGB" />
    <linearGradient
       id="k-7"
       x1="-350.66"
       x2="-376.35999"
       y1="-73.890999"
       y2="-319.06"
       gradientUnits="userSpaceOnUse"
       gradientTransform="matrix(0.00892406,0,0,-0.00892406,3.8781662,7.1014229)">
      <stop
         stop-color="#83a3d4"
         offset="0"
         id="stop5-5" />
      <stop
         stop-color="#6bb5e3"
         offset="1"
         id="stop7-3" />
    </linearGradient>
    <linearGradient
       id="i-5"
       x1="-206.77"
       x2="10.512"
       y1="-12.925"
       y2="-156.89"
       gradientUnits="userSpaceOnUse"
       gradientTransform="matrix(0.00892406,0,0,-0.00892406,3.8781662,7.1014229)">
      <stop
         stop-color="#70c2bd"
         offset="0"
         id="stop10-6" />
      <stop
         stop-color="#67c381"
         offset="1"
         id="stop12-2" />
    </linearGradient>
    <linearGradient
       id="e-9"
       x1="134.57001"
       x2="148.50999"
       y1="117.3"
       y2="-149.19"
       gradientUnits="userSpaceOnUse"
       gradientTransform="matrix(0.00892406,0,0,-0.00892406,-0.55208908,2.677846)">
      <stop
         stop-color="#faaa32"
         offset="0"
         id="stop15-1" />
      <stop
         stop-color="#fdc22b"
         offset="1"
         id="stop17-2" />
    </linearGradient>
    <linearGradient
       id="r-7"
       x1="-146.05"
       x2="123.36"
       y1="144.89999"
       y2="144.89999"
       gradientUnits="userSpaceOnUse"
       gradientTransform="matrix(0.00892406,0,0,-0.00892406,3.8781662,7.1014229)">
      <stop
         stop-color="#a0cf63"
         offset="0"
         id="stop20-0" />
      <stop
         stop-color="#c4da45"
         offset="1"
         id="stop22-9" />
    </linearGradient>
    <linearGradient
       id="m-3"
       x1="206.71001"
       x2="28.495001"
       y1="-12.741"
       y2="-150.00999"
       gradientUnits="userSpaceOnUse"
       gradientTransform="matrix(0.00892406,0,0,-0.00892406,-2.3889347,7.1012759)">
      <stop
         stop-color="#b28cc0"
         offset="0"
         id="stop25-6" />
      <stop
         stop-color="#9a8ec4"
         offset="1"
         id="stop27-0" />
    </linearGradient>
    <linearGradient
       id="q-6"
       x1="189.94"
       x2="-19.618"
       y1="147.05"
       y2="76.405998"
       gradientUnits="userSpaceOnUse"
       gradientTransform="matrix(0.00892406,0,0,-0.00892406,-2.3771191,4.5167464)">
      <stop
         stop-color="#f48155"
         offset="0"
         id="stop30-2" />
      <stop
         stop-color="#f16168"
         offset="1"
         id="stop32-6" />
    </linearGradient>
    <linearGradient
       id="l-1"
       x1="116.5"
       x2="21.156"
       y1="308.29999"
       y2="34.18"
       gradientUnits="userSpaceOnUse"
       gradientTransform="matrix(0.00892406,0,0,-0.00892406,-0.54966728,8.9271129)">
      <stop
         stop-color="#735194"
         offset="0"
         id="stop35-8" />
      <stop
         stop-color="#525da3"
         offset="1"
         id="stop37-7" />
    </linearGradient>
    <linearGradient
       id="j-9"
       x1="30.131001"
       x2="123.33"
       y1="111.5"
       y2="-107.17"
       gradientUnits="userSpaceOnUse"
       gradientTransform="matrix(0.00892406,0,0,-0.00892406,0.74997322,7.6340779)">
      <stop
         stop-color="#416db9"
         offset="0"
         id="stop40-2" />
      <stop
         stop-color="#337e8d"
         offset="1"
         id="stop42-0" />
    </linearGradient>
    <linearGradient
       id="h-2"
       x1="-103.67"
       x2="205.55"
       y1="133.12"
       y2="0.071801998"
       gradientUnits="userSpaceOnUse"
       gradientTransform="matrix(0.00892406,0,0,-0.00892406,2.0327342,7.1000279)">
      <stop
         stop-color="#2e9274"
         offset="0"
         id="stop45-3" />
      <stop
         stop-color="#469d3c"
         offset="1"
         id="stop47-7" />
    </linearGradient>
    <linearGradient
       id="f-5"
       x1="26.978001"
       x2="146.81"
       y1="120.23"
       y2="-100.49"
       gradientUnits="userSpaceOnUse"
       gradientTransform="matrix(0.00892406,0,0,-0.00892406,-0.54071388,4.5168932)">
      <stop
         stop-color="#ec4001"
         offset="0"
         id="stop50-9" />
      <stop
         stop-color="#fb6f01"
         offset="1"
         id="stop52-2" />
    </linearGradient>
    <linearGradient
       id="o-9"
       x1="-123.12"
       x2="145.99001"
       y1="144.89999"
       y2="144.89999"
       gradientUnits="userSpaceOnUse"
       gradientTransform="matrix(0.00892406,0,0,-0.00892406,-2.3889347,7.1012759)">
      <stop
         stop-color="#d287af"
         offset="0"
         id="stop60-7" />
      <stop
         stop-color="#e07993"
         offset="1"
         id="stop62-3" />
    </linearGradient>
    <linearGradient
       id="p-6"
       x1="-205.78"
       x2="117.82"
       y1="-71.695999"
       y2="-71.695999"
       gradientUnits="userSpaceOnUse"
       gradientTransform="matrix(0.00892406,0,0,-0.00899892,-0.54071388,4.5161593)">
      <stop
         stop-color="#bd090f"
         offset="0"
         id="stop65-1" />
      <stop
         stop-color="#e11f07"
         offset="1"
         id="stop67-2" />
    </linearGradient>
    <linearGradient
       id="n-9"
       x1="0.17641"
       x2="-308.72"
       y1="-14.583"
       y2="-143.71001"
       gradientUnits="userSpaceOnUse"
       gradientTransform="matrix(0.00892406,0,0,-0.00892406,0.37767222,5.8164601)">
      <stop
         stop-color="#c23857"
         offset="0"
         id="stop70-3" />
      <stop
         stop-color="#914475"
         offset="1"
         id="stop72-1" />
    </linearGradient>
    <linearGradient
       id="g-9"
       x1="41.41"
       x2="117.32"
       y1="108.53"
       y2="319.10999"
       gradientUnits="userSpaceOnUse"
       gradientTransform="matrix(-0.00883159,0,0,0.0090613,2.0351562,2.6629481)">
      <stop
         stop-color="#e69e08"
         offset="0"
         id="stop75-4" />
      <stop
         stop-color="#cbc507"
         offset="1"
         id="stop77-7" />
    </linearGradient>
    <linearGradient
       inkscape:collect="always"
       xlink:href="#linearGradient3382"
       id="linearGradient3384"
       x1="2.7068672"
       y1="0.0018925515"
       x2="39.934753"
       y2="39.931244"
       gradientUnits="userSpaceOnUse" />
    <linearGradient
       inkscape:collect="always"
       xlink:href="#linearGradient3744"
       id="linearGradient3746"
       x1="6.930027"
       y1="13.024098"
       x2="4.0058231"
       y2="-0.2527585"
       gradientUnits="userSpaceOnUse" />
  </defs>
  <rect
     id="rect30"
     ry="0"
     rx="0.52916664"
     y="1.0583333"
     x="1.0583333"
     height="10.583333"
     width="10.583333"
     style="fill:url(#linearGradient3746);fill-opacity:1;stroke:none;stroke-width:0.529167;stroke-linecap:round;stroke-linejoin:round;stroke-miterlimit:4;stroke-dasharray:none;stroke-opacity:1" />
  <path
     id="path2581"
     style="fill-opacity:1;stroke-width:0.0337301;fill:url(#linearGradient3384);opacity:0.3"
     d="M 23.988281 8.0429688 C 22.742213 8.0225389 21.595035 8.5014545 20.576172 9.4394531 C 19.766274 10.185092 19.298944 11.131442 19.103516 12.212891 C 19.062436 12.188191 19.020396 12.165072 18.980469 12.138672 C 17.87629 11.410513 16.666353 11.137475 15.365234 11.359375 C 13.013267 11.760404 11.252008 13.75769 11.236328 16.242188 C 11.23081 17.123186 11.453518 17.957257 11.904297 18.722656 C 11.989128 18.866558 12.07219 19.011748 12.15625 19.15625 C 11.940318 19.181157 11.730466 19.23523 11.523438 19.298828 C 9.0619601 20.055727 7.5992224 22.513766 8.1074219 25.039062 C 8.3018219 26.005361 8.7912508 26.87914 9.46875 27.556641 L 11.689453 29.777344 C 11.311197 30.594839 11.163941 31.470849 11.269531 32.400391 C 11.398281 33.534089 11.858858 34.511182 12.648438 35.300781 L 21.347656 44 L 42 44 C 43.108 44 44 43.108 44 42 L 44 21.416016 L 35.363281 12.779297 C 35.158882 12.574897 34.932447 12.384584 34.685547 12.208984 C 33.610848 11.444645 32.408255 11.16273 31.097656 11.34375 C 30.627405 11.40871 30.188989 11.546914 29.769531 11.736328 L 27.533203 9.5 C 26.996364 8.9631608 26.31797 8.5590078 25.494141 8.2988281 C 24.9778 8.1357581 24.475871 8.0509689 23.988281 8.0429688 z "
     transform="scale(0.26458333)" />
  <g
     transform="matrix(0.07338869,0,0,0.07338869,1.3539579,1.2451773)"
     fill-rule="evenodd"
     stroke-width="2.237"
     id="g174">
    <g
       transform="matrix(1.2135,0,0,-1.2135,5.7351,133.11)"
       fill-opacity="0.50259"
       filter="url(#a)"
       id="g108">
      <path
         transform="matrix(0.10021,0,0,0.10021,65.827,36.554)"
         d="m 0,0 c -0.404,0.276 -0.808,0.554 -1.21,0.83 1.343,0.93 0.825,2.095 0.544,3.342 -5.883,26.121 -17.834,49.059 -36.182,68.573 -21.634,23.009 -47.987,37.618 -78.958,43.868 -0.167,0.147 -0.337,0.289 -0.508,0.428 -1.027,5.331 -0.93,10.858 -2.814,16.039 0.282,0.578 0.564,1.157 0.844,1.735 4.407,3.345 8.814,6.688 13.222,10.032 0.419,-0.047 0.839,-0.093 1.259,-0.141 3.939,-2.418 7.757,-5.062 11.835,-7.218 29.949,-15.832 61.64,-20.773 95.046,-15.119 20.279,3.434 38.956,10.737 55.906,22.412 h 1.728 c 44.979,-38.192 83.951,-82.545 126.43,-123.3 6.443,-6.182 12.615,-12.616 17.712,-19.994 0.296,-0.426 0.467,-0.942 0.695,-1.416 -5.551,-1.262 -11.177,-2.125 -16.858,-2.13 -55.666,-0.051 -111.33,-0.106 -167,0.062 -7.233,0.022 -14.463,1.3 -21.695,1.996"
         id="path88" />
      <path
         transform="matrix(0.10021,0,0,0.10021,47.242,50.967)"
         d="m 0,0 c 0.636,0.014 1.272,0.028 1.909,0.04 4.966,-1.986 8.217,-6.431 12.822,-8.933 0.886,-6.106 -0.922,-11.986 -1.519,-17.967 -0.217,-0.091 -0.422,-0.205 -0.615,-0.341 -31.921,-6.426 -58.889,-21.717 -80.709,-45.807 -18.052,-19.931 -29.898,-43.117 -34.807,-69.689 -0.062,-0.33 -0.159,-0.65 -0.291,-0.957 -63.191,-4.993 -126.49,-1.063 -189.72,-2.145 -5.263,-0.09 -10.632,0.595 -15.791,2.088 3.139,4.982 6.775,9.566 10.936,13.728 38.841,38.845 77.649,77.722 116.59,116.47 4.135,4.116 8.99,7.522 13.604,11.137 1.548,1.211 3.383,2.053 3.575,4.329 0.761,-0.016 1.519,-0.033 2.278,-0.048 -0.34,-1.585 0.808,-2.178 1.874,-2.852 28.512,-18.025 59.806,-25.195 93.149,-22.363 24.048,2.043 46.325,10.256 66.72,23.311"
         id="path90" />
      <path
         transform="matrix(0.10021,0,0,0.10021,36.928,36.667)"
         d="m 0,0 c 3.8516,27.454 16.049,51.346 34.102,71.277 21.819,24.09 50.179,38.23 82.101,44.656 C 114.195,100.548 107.8659,85.916 100.295,72.604 77.964,31.475 39.582,2.477 -0.375,-0.936"
         id="path92" />
      <path
         transform="matrix(0.10021,0,0,0.10021,51.416,47.074)"
         d="m 0,0 c 4.757,-8.725 10.145,-17.124 13.704,-26.466 17.903,-46.992 16.234,-92.673 -10.178,-135.57 -0.465,-0.757 -3.1693,-3.1387 -3.6033,-3.9137 -9.948,12.669 -16.034,29.555 -20.079,44.907 -11.151,42.311 -5.036,82.102 18.485,119.12 0.367,0.577 0.508,1.301 0.754,1.956 -0.001,0 0.458,0.01 0.458,0.01 z"
         id="path94" />
      <path
         transform="matrix(0.10021,0,0,0.10021,48.566,48.275)"
         d="m 0,0 c 0.597,5.981 2.405,11.861 1.519,17.97 0,0.002 0.393,0.1 0.393,0.1 L 2.317,18.06 C 6.742,12.41 13.11,8.557 16.887,2.306 11.257,1.537 5.629,0.769 0,0"
         id="path96" />
      <path
         transform="matrix(0.10021,0,0,0.10021,51.416,47.074)"
         d="m 0,0 -0.459,0.041 c 0,0 -0.459,-0.01 -0.458,-0.01 -2.224,5.342 -7.089,8.843 -9.694,13.917 6.776,1.07 13.554,0.984 20.334,0.031 C 7.158,8.848 2.181,5.396 0,0"
         id="path98" />
      <path
         transform="matrix(0.10021,0,0,0.10021,54.222,48.24)"
         d="m 0,0 c 30.971,-6.25 57.323,-20.859 78.958,-43.868 18.348,-19.514 31.137,-42.143 37.02,-68.264 0.281,-1.247 1.1508,-3.736 -0.19119,-4.665 -56.325,10.799 -105.05,58.951 -115.77,114.66 -0.132,0.687 -0.015,1.42 -0.014,2.133"
         id="path100" />
      <path
         transform="matrix(0.10021,0,0,0.10021,52.472,48.505)"
         d="M 0,0 C 3.99,5.347 8.287,10.377 14.141,13.816 16.025,8.636 15.929,3.108 16.955,-2.223 11.308,-1.431 5.538,-1.604 0,0"
         id="path102" />
      <path
         transform="matrix(0.10021,0,0,0.10021,55.425,51.055)"
         d="m 0.1323,1.4995 c 16.148,11.715 34.215,17.267 53.639,20.819 31.52,5.764 62.559,2.188 91.622,-11.714 6.3657,-2.985 13.952,-5.7913 19.265,-10.403 -16.95,-11.676 -37.498,-19.104 -57.777,-22.538 -33.406,-5.654 -65.097,-0.713 -95.046,15.119 -4.078,2.156 -9.3082,5.0205 -13.246,7.4385"
         id="path104" />
      <path
         transform="matrix(0.10021,0,0,0.10021,47.242,50.967)"
         d="m 0.17641,-1.4995 c -20.395,-13.055 -42.848,-21.016 -66.896,-23.059 -37.915,-3.7022 -74.757,6.5336 -97.892,26.338 49.76,32.01 130.32,34.023 166.38,-1.7793"
         id="path106" />
    </g>
    <g
       transform="matrix(0.1216,0,0,-0.1216,110.76,87.183)"
       id="g114">
      <path
         d="m 0,0 c 10.295,-15.579 18.663,-32.038 23.041,-50.329 19.689,-82.256 -30.355,-160.7 -109.39,-178.91 -41.682,-9.605 -80.239,-1.874 -115.9,21.38 -0.889,0.579 -1.797,1.129 -2.89,1.814 -2.131,-2.732 -1.883,-6.067 -2.585,-9.016 -13.98,-58.674 -60.496,-102.13 -119.87,-111.83 -78.422,-12.813 -152.23,38.631 -167.83,116.97 -0.278,1.398 -0.639,2.781 -0.961,4.173 0.08,0.383 0.16,0.764 0.24,1.145 1.526,0.193 2.461,1.332 3.585,2.195 15.205,11.657 27.985,25.882 41.39,39.412 30.49,30.775 61.957,60.584 91.48,92.319 3.265,3.509 5.169,8.123 9.174,10.991 4.545,-6.605 9.352,-13.058 14.994,-18.726 37.42,-37.583 74.897,-75.111 112.56,-112.45 4.952,-4.909 10.069,-9.956 16.783,-13.315 1.876,7.529 2.35,14.846 2.38,22.041 0.209,51.783 0.221,103.57 0.007,155.35 -0.037,9.011 -0.943,18.074 -2.981,26.938 7.233,-0.696 14.462,-1.973 21.696,-1.996 55.666,-0.168 111.33,-0.113 167,-0.061 5.68,0.004 11.306,0.867 16.856,2.129 0.407,-0.078 0.813,-0.154 1.219,-0.23"
         fill="url(#k)"
         id="path110"
         style="fill:url(#k)" />
      <path
         d="m 0,0 c 10.295,-15.579 18.663,-32.038 23.041,-50.329 19.689,-82.256 -30.355,-160.7 -109.39,-178.91 -41.682,-9.605 -80.239,-1.874 -115.9,21.38 -0.889,0.579 -1.797,1.129 -2.89,1.814 -2.131,-2.732 -1.883,-6.067 -2.585,-9.016 l 1.544,10.882 c 1.876,7.529 2.35,14.846 2.38,22.041 0.209,51.783 0.221,103.57 0.007,155.35 -0.037,9.011 -0.943,18.074 -2.981,26.938 7.233,-0.696 14.462,-1.973 21.696,-1.996 55.666,-0.168 111.33,-0.113 167,-0.061 5.68,0.004 11.306,0.867 16.856,2.129 0.407,-0.078 0.813,-0.154 1.219,-0.23"
         fill="url(#i)"
         id="path112"
         style="fill:url(#i)" />
    </g>
    <path
       d="m 0,0 c 5.794,32.063 19.665,60.108 43.677,82.215 42.028,38.692 91.39,51.002 145.82,33.812 54.415,-17.185 87.492,-55.589 100.15,-111.35 0.355,-1.566 0.702,-3.133 1.054,-4.7 0.673,-7.412 1.91,-14.822 1.933,-22.236 0.166,-52.775 0.191,-105.55 -0.026,-158.32 -0.035,-8.462 -0.883,-16.993 -2.953,-25.299 -0.819,-0.369 -1.636,-0.738 -2.452,-1.108 -30.058,-6.688 -55.856,-20.997 -76.862,-43.556 -18.997,-20.402 -31.49,-44.229 -36.524,-71.793 -0.242,-0.069 -0.441,-0.205 -0.588,-0.408 -5.649,-0.804 -10.679,-2.6985 -16.331,-3.5015 -7.049,-0.275 -14.73,-0.0455 -21.753,1.4125 4.79,6.618 10.115,12.918 14.276,19.91 16.801,28.245 23.778,58.695 20.314,91.591 -3.552,33.727 -17.172,62.727 -40.754,86.723 C 92.078,-89.056 54.634,-52.034 17.321,-14.888 12.166,-9.756 6.658,-4.921 0.267,-1.266 0.179,-0.841 0.09,-0.416 0.002,0.008"
       fill="url(#e)"
       id="path116"
       style="fill:url(#e)"
       transform="matrix(0.1216,0,0,-0.1216,50.393,26.907)" />
    <path
       transform="matrix(0.1216,0,0,-0.1216,110.76,87.183)"
       d="m 0,0 c -0.406,0.076 -0.812,0.152 -1.218,0.23 -0.227,0.474 -0.398,0.99 -0.694,1.416 -5.098,7.378 -11.27,13.812 -17.713,19.995 -42.481,40.754 -81.453,85.106 -126.43,123.3 5.768,5.833 12.959,9.935 18.77,15.767 36.808,36.944 73.702,73.803 110.63,110.63 5.695,5.679 10.885,11.736 15.478,18.321 0.459,0.049 0.916,0.095 1.374,0.143 28.115,-4.32 52.691,-16.307 73.802,-35.122 26.848,-23.928 43.084,-53.927 47.964,-89.555 C 132.602,87.439 81.193,17.065 6.823,1.275 4.56,0.794 2.273,0.423 -0.002,0"
       fill="url(#r)"
       id="path118"
       style="fill:url(#r)" />
    <path
       transform="matrix(0.1216,0,0,-0.1216,110.78,51.943)"
       d="m 0,0 c -0.458,-0.047 -0.915,-0.094 -1.373,-0.142 -5.898,1.351 -11.879,2.16 -17.923,2.164 -54.965,0.036 -109.93,0.1 -164.9,-0.069 -7.591,-0.024 -15.177,-1.271 -22.765,-1.952 2.068,8.306 2.916,16.836 2.951,25.298 0.217,52.775 0.193,105.55 0.026,158.33 -0.023,7.414 -1.259,14.824 -1.933,22.236 19.78,13.304 41.152,22.514 64.947,25.801 38.857,5.367 74.518,-3.019 106.38,-25.68 C -1.852,182.704 18.381,150.823 25.12,111.22 31.705,72.528 23.67,36.517 1.888,3.72 1.113,2.553 -0.102,1.616 -0.005,0.007"
       fill="#efe129"
       id="path120" />
    <path
       transform="matrix(0.1216,0,0,-0.1216,25.364,87.181)"
       d="m 0,0 c 0.429,0.088 0.858,0.177 1.286,0.265 5.158,-1.494 10.527,-2.178 15.79,-2.088 63.236,1.082 126.53,-2.849 189.72,2.145 -1.747,-10.156 -2.987,-20.366 -2.99,-30.688 -0.016,-45.32 0.052,-90.64 -0.045,-135.96 -0.028,-12.825 0.262,-25.604 2.342,-38.287 -0.08,-0.382 -0.161,-0.763 -0.24,-1.146 -18.297,-12.198 -37.913,-21.308 -59.754,-24.941 -46.229,-7.69 -87.556,3.325 -123.07,33.907 -28.655,24.674 -45.18,56.397 -49.441,93.914 -4.074,35.857 4.301,69.059 24.337,99.204 0.776,1.167 1.383,2.446 2.068,3.674"
       fill="url(#m)"
       id="path122"
       style="fill:url(#m)" />
    <path
       transform="matrix(0.1216,0,0,-0.1216,25.525,51.964)"
       d="M 0,0 C -0.486,0.062 -0.973,0.123 -1.458,0.185 -3.95,4.468 -6.42,8.765 -8.935,13.034 -22.3,35.726 -28.887,60.45 -28.723,86.569 c 0.465,73.662 52.668,132.88 122.4,144.77 38.576,6.579 74.443,-1.486 107.18,-23.074 1.184,-0.782 2.429,-1.468 3.647,-2.2 0.088,-0.424 0.177,-0.849 0.264,-1.274 -0.749,-6.878 -2.12,-13.753 -2.143,-20.634 -0.176,-52.968 -0.213,-105.94 0.04,-158.91 0.04,-8.444 0.681,-17.015 3.118,-25.262 -7.245,0.736 -14.489,2.086 -21.736,2.109 C 128.326,2.272 72.607,2.222 16.887,2.146 11.211,2.139 5.547,1.406 0.009,-0.001"
       fill="url(#q)"
       id="path124"
       style="fill:url(#q)" />
    <path
       transform="matrix(0.1216,0,0,-0.1216,50.426,112.06)"
       d="m 0,0 c -2.079,12.684 -2.369,25.462 -2.342,38.287 0.097,45.319 0.029,90.64 0.045,135.96 0.003,10.322 1.244,20.532 2.993,30.688 0.133,0.307 0.229,0.627 0.291,0.957 1.784,-0.049 3.495,0.189 5.26,0.628 41.963,10.43 73.701,34.46 95.035,71.975 7.571,13.313 13.214,27.508 15.222,42.892 0.193,0.136 0.398,0.251 0.615,0.342 5.629,0.768 11.257,1.537 16.886,2.305 0.332,-0.066 0.647,-0.181 0.944,-0.345 2.605,-5.074 7.47,-8.575 9.695,-13.917 -0.247,-0.655 -0.388,-1.378 -0.755,-1.956 -23.521,-37.014 -29.636,-76.805 -18.485,-119.12 4.045,-15.351 10.131,-29.945 20.078,-42.614 0.049,-0.39 0.098,-0.778 0.147,-1.168 -4.004,-2.868 -5.909,-7.482 -9.174,-10.991 C 106.932,102.187 75.465,72.379 44.975,41.603 31.57,28.073 18.79,13.849 3.585,2.191 2.461,1.329 1.526,0.189 0,-0.003"
       fill="url(#l)"
       id="path126"
       style="fill:url(#l)" />
    <path
       transform="matrix(0.1216,0,0,-0.1216,68.135,94.441)"
       d="m 0,0 c -0.05,0.39 -0.099,0.778 -0.146,1.168 0.434,0.775 0.844,1.569 1.31,2.326 26.411,42.897 30.374,87.871 12.471,134.86 -3.56,9.342 -8.948,17.742 -13.704,26.466 2.18,5.397 7.158,8.848 9.722,13.979 0.252,0.156 0.526,0.258 0.819,0.302 5.538,-1.604 11.307,-1.43 16.952,-2.223 0.175,-0.138 0.345,-0.28 0.512,-0.427 -0.001,-0.713 -0.119,-1.446 0.013,-2.133 10.72,-55.713 58.257,-102.85 114.58,-113.65 0.404,-0.276 0.807,-0.554 1.211,-0.83 2.037,-8.864 2.944,-17.927 2.981,-26.939 0.214,-51.784 0.202,-103.57 -0.007,-155.35 -0.03,-7.195 -0.504,-14.513 -2.38,-22.041 -6.714,3.358 -11.831,8.406 -16.783,13.314 C 89.89,-93.837 52.413,-56.31 14.991,-18.728 9.349,-13.06 4.542,-6.606 -0.003,-0.001"
       fill="url(#j)"
       id="path128"
       style="fill:url(#j)" />
    <path
       transform="matrix(0.1216,0,0,-0.1216,85.614,87.164)"
       d="m 0,0 c -0.404,0.276 -0.808,0.554 -1.21,0.83 1.343,0.93 0.825,2.095 0.544,3.342 -5.883,26.121 -17.834,49.059 -36.182,68.573 -21.634,23.009 -47.987,37.618 -78.958,43.868 -0.167,0.147 -0.337,0.289 -0.508,0.428 -1.027,5.331 -0.93,10.858 -2.814,16.039 0.282,0.578 0.564,1.157 0.844,1.735 4.407,3.345 8.814,6.688 13.222,10.032 0.419,-0.047 0.839,-0.093 1.259,-0.141 3.939,-2.418 7.757,-5.062 11.835,-7.218 29.949,-15.832 61.64,-20.773 95.046,-15.119 20.279,3.434 38.956,10.737 55.906,22.412 h 1.728 c 44.979,-38.192 83.951,-82.545 126.43,-123.3 6.443,-6.182 12.615,-12.616 17.712,-19.994 0.296,-0.426 0.467,-0.942 0.695,-1.416 -5.551,-1.262 -11.177,-2.125 -16.858,-2.13 -55.666,-0.051 -111.33,-0.106 -167,0.062 -7.233,0.022 -14.463,1.3 -21.695,1.996"
       fill="url(#h)"
       id="path130"
       style="fill:url(#h)" />
    <path
       transform="matrix(0.1216,0,0,-0.1216,50.548,51.966)"
       d="m 0,0 c -2.437,8.247 -3.078,16.818 -3.119,25.261 -0.252,52.968 -0.215,105.94 -0.04,158.91 0.024,6.88 1.395,13.755 2.143,20.634 6.393,-3.655 11.901,-8.49 17.056,-13.622 37.315,-37.145 74.759,-74.167 111.66,-111.72 23.582,-23.996 37.202,-52.995 40.754,-86.722 3.463,-32.896 -3.513,-63.346 -20.314,-91.591 -4.161,-6.992 -9.486,-13.293 -14.276,-19.91 -0.281,-0.154 -0.578,-0.265 -0.89,-0.334 -5.724,0.77 -11.448,1.542 -17.172,2.312 -0.279,1.929 -0.423,3.889 -0.855,5.783 -5.341,23.385 -16.021,44.203 -31.624,62.247 -13.999,16.186 -30.76,28.993 -50.456,37.881 -10.62,4.793 -21.717,7.847 -32.87,10.874"
       fill="url(#f)"
       id="path132"
       style="fill:url(#f)" />
    <path
       d="m 0,0 c -0.42,0.048 -0.84,0.094 -1.26,0.141 -4.053,3.496 -8.146,6.943 -12.719,9.762 -1.173,6.178 1.252,12.087 1.362,18.168 0.151,0.202 0.349,0.338 0.594,0.405 24.713,5.127 46.929,15.487 66.177,31.898 24.954,21.275 41.293,47.829 48.553,79.893 0.378,1.669 1.155,3.138 -1.347,3.561 0.817,0.369 1.634,0.738 2.453,1.108 7.589,0.681 15.175,1.928 22.766,1.952 54.965,0.169 109.93,0.105 164.9,0.069 6.044,-0.004 12.025,-0.813 17.922,-2.164 -4.593,-6.586 -9.784,-12.644 -15.479,-18.322 C 256.994,89.645 220.101,52.786 183.292,15.841 177.482,10.01 170.29,5.908 164.523,0.075 c -0.58,0 -1.156,0 -1.732,0.001 -5.313,4.612 -11.652,7.543 -17.893,10.528 C 115.835,24.506 85.295,28.082 53.775,22.318 34.351,18.766 16.152,11.715 0.004,0"
       fill="url(#d)"
       id="path134"
       style="fill:url(#d)"
       transform="matrix(0.1216,0,0,-0.1216,72.992,69.567)" />
    <path
       transform="matrix(0.1216,0,0,-0.1216,85.317,52.078)"
       d="m -0.61742,1.323 c 2.502,-0.423 3.6655,0.66589 3.2875,-1.0031 -4.9667,-32.77 -24.922,-62.499 -49.876,-83.774 -19.248,-16.41 -41.464,-26.771 -66.178,-31.898 5.032,27.567 17.526,51.394 36.523,71.795 21.006,22.559 48.126,40.75 78.184,47.438"
       fill="#528000"
       id="path136" />
    <path
       transform="matrix(0.1216,0,0,-0.1216,71.191,68.377)"
       d="m 0,0 c -4.428,5.748 -10.831,9.658 -14.76,15.871 5.652,0.803 11.305,1.606 16.954,2.41 C 2.081,12.201 -0.345,6.292 0.828,0.113 0.555,0.044 0.279,0.006 0,0"
       fill="#c1dc73"
       id="path138" />
    <path
       transform="matrix(0.1216,0,0,-0.1216,25.364,87.181)"
       d="m 0,0 c -58.688,8.507 -108.2,56.069 -120.14,115.41 -15.065,74.87 28.28,147.71 101.26,170.15 6.138,1.887 12.346,3.5 18.748,4.239 0.486,-0.062 0.972,-0.122 1.457,-0.184 3.37,-5.259 7.303,-10.069 11.717,-14.483 38.584,-38.581 77.155,-77.176 115.78,-115.71 5.169,-5.157 10.893,-9.689 17.161,-13.488 -0.193,-2.277 -2.028,-3.118 -3.575,-4.329 -4.615,-3.616 -9.47,-7.022 -13.605,-11.137 C 89.867,91.721 51.058,52.844 12.223,13.998 8.061,9.837 4.425,5.252 1.288,0.271 0.859,0.183 0.43,0.094 0.001,0.006"
       fill="url(#o)"
       id="path140"
       style="fill:url(#o)" />
    <path
       transform="matrix(0.1216,0,0,-0.12262,50.548,51.956)"
       d="m 0,0 c 11.153,-3.027 22.25,-6.081 32.87,-10.874 19.696,-8.888 36.457,-21.695 50.456,-37.881 15.603,-18.044 26.283,-38.862 31.624,-62.247 0.432,-1.894 0.576,-3.854 0.854,-5.784 0.897,-6.283 3.094,-12.471 1.378,-18.944 -4.633,-2.644 -9.306,-5.238 -12.372,-9.849 -0.635,-0.013 -1.271,-0.028 -1.907,-0.042 -0.826,3.731 -4.397,4.371 -6.99,5.924 -19.36,11.597 -40.593,17.332 -62.864,19.701 -7.449,1.767 -14.898,1.766 -22.345,-0.001 -7.711,-1.26 -15.469,-2.161 -23.113,-3.897 -16.704,-3.791 -31.861,-11.094 -46.431,-19.823 -0.76,0.015 -1.517,0.032 -2.276,0.048 -6.269,3.799 -11.994,8.332 -17.162,13.488 -38.63,38.536 -77.201,77.131 -115.78,115.71 -4.414,4.414 -8.347,9.223 -11.717,14.483 5.539,1.407 11.203,2.14 16.879,2.147 55.722,0.075 111.44,0.126 167.16,-0.052 C -14.489,2.083 -7.246,0.733 0,-0.002"
       fill="url(#p)"
       id="path142"
       style="fill:url(#p)" />
    <path
       transform="matrix(0.1216,0,0,-0.1216,63.062,69.674)"
       d="m 0,0 c 0.636,0.014 1.272,0.028 1.909,0.04 4.966,-1.986 8.217,-6.431 12.822,-8.933 0.886,-6.106 -0.922,-11.986 -1.519,-17.967 -0.217,-0.091 -0.422,-0.205 -0.615,-0.341 -31.921,-6.426 -58.889,-21.717 -80.709,-45.807 -18.052,-19.931 -29.898,-43.117 -34.807,-69.689 -0.062,-0.33 -0.159,-0.65 -0.291,-0.957 -63.191,-4.993 -126.49,-1.063 -189.72,-2.145 -5.263,-0.09 -10.632,0.595 -15.791,2.088 3.139,4.982 6.775,9.566 10.936,13.728 38.841,38.845 77.649,77.722 116.59,116.47 4.135,4.116 8.99,7.522 13.604,11.137 1.548,1.211 3.383,2.053 3.575,4.329 0.761,-0.016 1.519,-0.033 2.278,-0.048 -0.34,-1.585 0.808,-2.178 1.874,-2.852 28.512,-18.025 59.806,-25.195 93.149,-22.363 24.048,2.043 46.325,10.256 66.72,23.311"
       fill="url(#n)"
       id="path144"
       style="fill:url(#n)" />
    <path
       transform="matrix(0.1216,0,0,-0.1216,50.546,87.026)"
       d="m 0,0 c 3.8516,27.454 16.049,51.346 34.102,71.277 21.819,24.09 50.179,38.23 82.101,44.656 C 114.195,100.548 107.8659,85.916 100.295,72.604 77.964,31.475 39.582,2.477 -0.375,-0.936"
       fill="#4a1235"
       id="path146" />
    <path
       transform="matrix(0.1216,0,0,-0.1216,68.127,74.398)"
       d="m 0,0 c 4.757,-8.725 10.145,-17.124 13.704,-26.466 17.903,-46.992 16.234,-92.673 -10.178,-135.57 -0.465,-0.757 -3.1693,-3.1387 -3.6033,-3.9137 -9.948,12.669 -16.034,29.555 -20.079,44.907 -11.151,42.311 -5.036,82.102 18.485,119.12 0.367,0.577 0.508,1.301 0.754,1.956 -0.001,0 0.458,0.01 0.458,0.01 z"
       fill="#232160"
       id="path148" />
    <path
       transform="matrix(0.1216,0,0,-0.1216,64.668,72.94)"
       d="m 0,0 c 0.597,5.981 2.405,11.861 1.519,17.97 0,0.002 0.393,0.1 0.393,0.1 L 2.317,18.06 C 6.742,12.41 13.11,8.557 16.887,2.306 11.257,1.537 5.629,0.769 0,0"
       fill="#aa81b8"
       id="path150" />
    <path
       transform="matrix(0.1216,0,0,-0.1216,68.127,74.398)"
       d="m 0,0 -0.459,0.041 c 0,0 -0.459,-0.01 -0.458,-0.01 -2.224,5.342 -7.089,8.843 -9.694,13.917 6.776,1.07 13.554,0.984 20.334,0.031 C 7.158,8.848 2.181,5.396 0,0"
       fill="#57afc9"
       id="path152" />
    <path
       transform="matrix(0.1216,0,0,-0.1216,71.532,72.983)"
       d="m 0,0 c 30.971,-6.25 57.323,-20.859 78.958,-43.868 18.348,-19.514 31.137,-42.143 37.02,-68.264 0.281,-1.247 1.1508,-3.736 -0.19119,-4.665 -56.325,10.799 -105.05,58.951 -115.77,114.66 -0.132,0.687 -0.015,1.42 -0.014,2.133"
       fill="#0c4120"
       id="path154" />
    <path
       transform="matrix(0.1216,0,0,-0.1216,69.408,72.661)"
       d="M 0,0 C 3.99,5.347 8.287,10.377 14.141,13.816 16.025,8.636 15.929,3.108 16.955,-2.223 11.308,-1.431 5.538,-1.604 0,0"
       fill="#57afc9"
       id="path156" />
    <path
       transform="matrix(0.1216,0,0,-0.1216,72.992,69.567)"
       d="m 0.1323,1.4995 c 16.148,11.715 34.215,17.267 53.639,20.819 31.52,5.764 62.559,2.188 91.622,-11.714 6.3657,-2.985 13.952,-5.7913 19.265,-10.403 -16.95,-11.676 -37.498,-19.104 -57.777,-22.538 -33.406,-5.654 -65.097,-0.713 -95.046,15.119 -4.078,2.156 -9.3082,5.0205 -13.246,7.4385"
       fill="#0a4f09"
       id="path158" />
    <path
       transform="matrix(0.1216,0,0,-0.1216,71.191,68.377)"
       d="M 0,0 C 0.279,0.006 0.555,0.044 0.828,0.113 5.401,-2.705 9.494,-6.152 13.548,-9.648 9.141,-12.992 4.733,-16.335 0.326,-19.68 -1.125,-13.142 -0.587,-6.571 0,0"
       fill="#a5d27d"
       id="path160" />
    <path
       transform="matrix(0.1216,0,0,-0.1216,64.798,68.471)"
       d="M 0,0 C 1.717,6.473 -1.363,16.014 -2.26,22.297 3.466,21.527 10.071,17.4043 15.795,16.6333 12.736,11.8223 8.466,8.1243 4.325,4.3283 2.872,2.9953 1.39,1.8113 1.25,-0.3307 0.833,-0.2207 0.417,-0.1097 0,3e-4"
       fill="#ed7985"
       id="path162" />
    <path
       transform="matrix(0.1216,0,0,-0.1216,64.798,68.471)"
       d="m 0,0 c 0.417,-0.11 0.833,-0.221 1.25,-0.331 0.742,-6.118 0.606,-12.237 0,-18.357 0,-0.003 -0.405,0.008 -0.405,0.008 0,0 -0.393,-0.099 -0.393,-0.101 -4.604,2.5 -7.856,6.945 -12.822,8.931 C -9.305,-5.238 -4.633,-2.644 0,0"
       fill="#ed5e88"
       id="path164" />
    <path
       transform="matrix(0.1216,0,0,-0.1216,63.062,69.674)"
       d="m 0.17641,-1.4995 c -20.395,-13.055 -42.848,-21.016 -66.896,-23.059 -37.915,-3.7022 -74.757,6.5336 -97.892,26.338 49.76,32.01 130.32,34.023 166.38,-1.7793"
       fill="#7e0804"
       id="path166" />
    <path
       transform="matrix(0.1216,0,0,0.1216,64.371,65.885)"
       d="m 0,0 c 2.502,-0.423 1.725,-1.892 1.347,-3.561 -7.26,-32.064 -23.599,-58.618 -48.553,-79.893 -19.248,-16.41 -41.901,-26.085 -66.615,-31.212 5.032,27.567 17.963,50.708 36.96,71.109 C -55.855,-20.998 -30.058,-6.688 0,0"
       fill="#ab0100"
       id="path168" />
    <path
       transform="matrix(0.1216,0,0,-0.11707,68.452,45.049)"
       d="m 0,0 c 4.757,-8.725 10.145,-17.124 13.704,-26.466 17.903,-46.992 13.941,-91.967 -12.471,-134.86 -0.465,-0.757 -0.876,-1.551 -1.31,-2.326 -9.948,12.669 -16.034,27.262 -20.079,42.614 -11.151,42.311 -5.2855,82.362 18.236,119.38 0.367,0.577 0.63274,1.1061 1.0035,1.6962 -0.001,0 0.458,0.01 0.458,0.01 z"
       fill="#a24e00"
       id="path170" />
    <path
       transform="matrix(-0.12034,0,0,0.12347,85.647,26.704)"
       d="m 0,0 c -2.079,12.684 -2.369,25.462 -2.342,38.287 0.097,45.319 0.029,90.64 0.045,135.96 0.003,10.322 -2.0537,20.185 2.28,29.906 42.559,7.7251 84.351,45.415 101.3,74.342 7.571,13.313 13.939,25.266 15.947,40.65 0.193,0.136 -0.10618,0.005 0.11082,0.0963 5.629,1.0137 4.7972,0.95346 6.8654,1.4144 1.1122,-0.0382 10.298,1.9802 10.082,2.4191 4.2465,-7.4036 5.7766,-10.983 9.0283,-19.504 -23.521,-37.014 -29.063,-72.56 -17.912,-114.87 4.6853,-15.179 11.932,-30.459 18.615,-39.9 -1.6229,-3.1504 -2.4735,-4.1769 -8.1121,-13.871 -23.129,-35.324 -60.442,-62.546 -90.932,-93.322 -13.405,-13.53 -26.185,-27.754 -41.39,-39.412 -1.124,-0.862 -2.059,-2.002 -3.585,-2.194"
       fill="url(#g)"
       id="path172"
       style="fill:url(#g)" />
  </g>
  <path
     inkscape:connector-curvature="0"
     id="path36"
     d="m 1.0583335,10.847916 v 0.264583 c 0,0.293158 0.236009,0.529167 0.529167,0.529167 h 9.5250005 c 0.293158,0 0.529167,-0.236009 0.529167,-0.529167 v -0.264583 c 0,0.293158 -0.236009,0.529166 -0.529167,0.529166 H 1.5875005 c -0.293158,0 -0.529167,-0.236008 -0.529167,-0.529166 z"
     style="opacity:0.15;fill:#000000;fill-opacity:1;stroke:none;stroke-width:0.529167;stroke-linecap:round;stroke-linejoin:round;stroke-miterlimit:4;stroke-dasharray:none;stroke-opacity:1" />
</svg>
