<?xml version="1.0" encoding="UTF-8" standalone="no"?>
<svg
   width="48"
   height="48"
   version="1.1"
   id="svg94"
   sodipodi:docname="kamoso.svg"
   inkscape:version="1.1 (c4e8f9ed74, 2021-05-24)"
   xmlns:inkscape="http://www.inkscape.org/namespaces/inkscape"
   xmlns:sodipodi="http://sodipodi.sourceforge.net/DTD/sodipodi-0.dtd"
   xmlns:xlink="http://www.w3.org/1999/xlink"
   xmlns="http://www.w3.org/2000/svg"
   xmlns:svg="http://www.w3.org/2000/svg">
  <sodipodi:namedview
     id="namedview96"
     pagecolor="#ffffff"
     bordercolor="#666666"
     borderopacity="1.0"
     inkscape:pageshadow="2"
     inkscape:pageopacity="0.0"
     inkscape:pagecheckerboard="0"
     showgrid="false"
     inkscape:zoom="17.833333"
     inkscape:cx="24"
     inkscape:cy="24"
     inkscape:window-width="1920"
     inkscape:window-height="1026"
     inkscape:window-x="0"
     inkscape:window-y="30"
     inkscape:window-maximized="1"
     inkscape:current-layer="g90" />
  <defs
     id="defs40">
    <linearGradient
       inkscape:collect="always"
       id="linearGradient1080">
      <stop
         style="stop-color:#575757;stop-opacity:1"
         offset="0"
         id="stop1076" />
      <stop
         style="stop-color:#909090;stop-opacity:1"
         offset="1"
         id="stop1078" />
    </linearGradient>
    <linearGradient
       inkscape:collect="always"
       id="linearGradient3484">
      <stop
         style="stop-color:#1a1a1a;stop-opacity:1;"
         offset="0"
         id="stop3480" />
      <stop
         style="stop-color:#1a1a1a;stop-opacity:0;"
         offset="1"
         id="stop3482" />
    </linearGradient>
    <linearGradient
       id="linearGradient2481"
       y1="530.8"
       x1="421.57"
       y2="507.8"
       x2="398.57"
       gradientUnits="userSpaceOnUse">
      <stop
         stop-color="#c6cdd1"
         id="stop2477"
         style="stop-color:#9da9b0;stop-opacity:1" />
      <stop
         offset="1"
         stop-color="#e0e5e7"
         id="stop2479"
         style="stop-color:#cad3d6;stop-opacity:1" />
    </linearGradient>
    <linearGradient
       id="a"
       y1="514.63"
       x1="402.41"
       y2="527.8"
       x2="415.57"
       gradientUnits="userSpaceOnUse">
      <stop
         stop-color="#2e5d89"
         id="stop2" />
      <stop
         offset="1"
         stop-color="#1b92f4"
         id="stop4" />
    </linearGradient>
    <linearGradient
       xlink:href="#a"
       id="b"
       y1="511.72"
       x1="399.7"
       y2="526.2"
       gradientUnits="userSpaceOnUse"
       x2="414.17" />
    <linearGradient
       xlink:href="#a"
       id="c"
       y1="506.89"
       x1="395.06"
       y2="524.6"
       gradientUnits="userSpaceOnUse"
       x2="412.77" />
    <linearGradient
       id="d"
       y1="508.8"
       x1="398.57"
       y2="528.8"
       x2="418.57"
       gradientUnits="userSpaceOnUse"
       gradientTransform="translate(-817.14-1039.6)">
      <stop
         stop-color="#2f3943"
         id="stop9" />
      <stop
         offset="1"
         stop-color="#4d5662"
         id="stop11" />
    </linearGradient>
    <linearGradient
       xlink:href="#d"
       id="e"
       y1="28"
       y2="12"
       x2="0"
       gradientUnits="userSpaceOnUse"
       gradientTransform="matrix(1.1000002,0,0,1.1000002,386.56999,497.19998)" />
    <linearGradient
       xlink:href="#d"
       id="f"
       y1="28"
       y2="12"
       x2="0"
       gradientUnits="userSpaceOnUse"
       gradientTransform="matrix(-1.1000002,0,0,1.1000002,430.56999,497.19998)" />
    <linearGradient
       id="g"
       y1="534.8"
       x1="405.57"
       y2="538.8"
       x2="411.57"
       gradientUnits="userSpaceOnUse"
       gradientTransform="matrix(1 0 0 .60001 0 213.91)">
      <stop
         stop-color="#18222a"
         id="stop16" />
      <stop
         offset="1"
         stop-color="#566069"
         id="stop18" />
    </linearGradient>
    <linearGradient
       xlink:href="#g"
       id="h"
       y1="511.73"
       x1="400.5"
       y2="528.6"
       x2="417.37"
       gradientUnits="userSpaceOnUse" />
    <linearGradient
       id="i"
       y1="530.8"
       x1="421.57"
       y2="507.8"
       x2="398.57"
       gradientUnits="userSpaceOnUse">
      <stop
         stop-color="#c6cdd1"
         id="stop22" />
      <stop
         offset="1"
         stop-color="#e0e5e7"
         id="stop24" />
    </linearGradient>
    <linearGradient
       xlink:href="#i"
       id="j"
       y1="531.8"
       y2="501.7"
       x2="0"
       gradientUnits="userSpaceOnUse"
       gradientTransform="matrix(0.91666,0,0,1,34.05,0)" />
    <linearGradient
       id="k"
       y1="519.8"
       y2="541.01"
       x2="0"
       gradientUnits="userSpaceOnUse"
       gradientTransform="matrix(.70711-.70711.70711.70711-632.46-58.649)">
      <stop
         id="stop28" />
      <stop
         offset="1"
         stop-opacity="0"
         id="stop30" />
    </linearGradient>
    <linearGradient
       xlink:href="#k"
       id="l"
       y1="538.8"
       x1="410.57"
       y2="541.8"
       x2="413.57"
       gradientUnits="userSpaceOnUse"
       gradientTransform="matrix(0.90909076,0,0,0.90909076,-347.42721,-447.99992)" />
    <linearGradient
       id="m"
       y1="541.8"
       y2="543.8"
       x2="0"
       gradientUnits="userSpaceOnUse">
      <stop
         stop-color="#1d1e1e"
         id="stop34" />
      <stop
         offset="1"
         stop-color="#44484c"
         id="stop36" />
    </linearGradient>
    <linearGradient
       xlink:href="#i"
       id="n"
       y1="537.8"
       y2="539.8"
       x2="0"
       gradientUnits="userSpaceOnUse" />
    <linearGradient
       inkscape:collect="always"
       xlink:href="#i"
       id="linearGradient917"
       gradientUnits="userSpaceOnUse"
       x1="421.57"
       y1="530.8"
       x2="398.57"
       y2="507.8"
       gradientTransform="matrix(0.89375015,0,0,0.89375015,43.410486,54.628671)" />
    <linearGradient
       inkscape:collect="always"
       xlink:href="#d"
       id="linearGradient919"
       gradientUnits="userSpaceOnUse"
       gradientTransform="matrix(-0.89375015,0,0,-0.89375015,773.72948,983.77133)"
       x1="398.57"
       y1="508.8"
       x2="418.57"
       y2="528.8" />
    <linearGradient
       inkscape:collect="always"
       xlink:href="#a"
       id="linearGradient921"
       gradientUnits="userSpaceOnUse"
       x1="402.41"
       y1="514.63"
       x2="415.57"
       y2="527.8" />
    <linearGradient
       inkscape:collect="always"
       xlink:href="#linearGradient2481"
       id="linearGradient1300"
       x1="-4.0726228"
       y1="44.164391"
       x2="1.2416841"
       y2="2.9087591"
       gradientUnits="userSpaceOnUse" />
    <linearGradient
       id="m-3"
       y1="541.79999"
       y2="543.79999"
       x2="0"
       gradientUnits="userSpaceOnUse"
       gradientTransform="matrix(1.25,0,0,1.5,-486.71251,-771.69999)">
      <stop
         stop-color="#1d1e1e"
         id="stop34-6" />
      <stop
         offset="1"
         stop-color="#44484c"
         id="stop36-7" />
    </linearGradient>
    <linearGradient
       inkscape:collect="always"
       xlink:href="#m-3"
       id="linearGradient2915"
       x1="44"
       y1="4"
       x2="44"
       y2="7"
       gradientUnits="userSpaceOnUse" />
    <linearGradient
       inkscape:collect="always"
       xlink:href="#m-3"
       id="linearGradient3642"
       gradientUnits="userSpaceOnUse"
       gradientTransform="matrix(1.25,0,0,1.5,-486.71251,-771.69999)"
       y1="541.79999"
       x2="0"
       y2="543.79999" />
    <linearGradient
       inkscape:collect="always"
       xlink:href="#linearGradient3484"
       id="linearGradient3486"
       x1="14.060767"
       y1="14.282195"
       x2="38.070827"
       y2="39.055458"
       gradientUnits="userSpaceOnUse" />
    <linearGradient
       inkscape:collect="always"
       xlink:href="#linearGradient1080"
       id="linearGradient1082"
       x1="422.78122"
       y1="530.48828"
       x2="403.27634"
       y2="509.21304"
       gradientUnits="userSpaceOnUse" />
  </defs>
  <path
     id="rect30"
     style="fill:url(#linearGradient1300);stroke-width:2;stroke-linecap:round;stroke-linejoin:round"
     d="M 5.9999999,4 H 42 c 1.108,0 2,0.8919999 2,1.9999999 V 42 c 0,1.108 -0.892,2 -2,2 H 5.9999999 C 4.8919999,44 4,43.108 4,42 V 5.9999999 C 4,4.8919999 4.8919999,4 5.9999999,4 Z" />
  <g
     stroke-linejoin="round"
     stroke-width="2"
     id="g90"
     transform="matrix(0.90909076,0,0,0.90909076,-347.42721,-447.99992)">
    <path
       fill="url(#e)"
       d="M 386.57,510.4 V 528 h 2.2 c 1.2188,0 2.20001,-0.9812 2.20001,-2.2 v -13.2 c 0,-1.2188 -0.98121,-2.2 -2.20001,-2.2 z"
       id="path76"
       style="fill:url(#e);stroke-width:2.2" />
    <path
       id="rect2020"
       style="opacity:0.3;fill:url(#linearGradient3486);fill-opacity:1;stroke-width:2.923"
       d="M 33.900391,14.179688 14.099609,33.978516 21.037109,41 H 44 V 24.28125 Z"
       transform="matrix(1.1000002,0,0,1.1000002,382.16999,492.79999)" />
    <circle
       style="opacity:1;fill:url(#linearGradient1082);fill-opacity:1;stroke-width:19.2302"
       id="path1086"
       cx="408.56998"
       cy="519.20001"
       r="15.400002" />
    <circle
       fill="url(#i)"
       cx="408.57001"
       cy="519.20001"
       id="circle58"
       style="fill:url(#linearGradient917);stroke-width:1.7875;stroke-linecap:round"
       r="14.300002" />
    <path
       fill="url(#d)"
       d="m 396.05879,519.19819 a 12.512478,12.512478 0 0 1 12.51247,-12.51247 12.512478,12.512478 0 0 1 12.51248,12.51247 12.512478,12.512478 0 0 1 -12.51248,12.51249 12.512478,12.512478 0 0 1 -12.51247,-12.51249"
       id="path62"
       style="fill:url(#linearGradient919);stroke-width:1.7875" />
    <g
       stroke-linecap="round"
       id="g74"
       transform="matrix(0.89375015,0,0,0.89375015,43.410482,54.628675)">
      <circle
         fill="url(#h)"
         cx="408.57001"
         cy="519.79999"
         r="11"
         id="circle64"
         style="fill:url(#h)" />
      <circle
         fill="url(#a)"
         cx="408.57001"
         cy="519.79999"
         r="10"
         id="circle66"
         style="fill:url(#linearGradient921)" />
      <circle
         fill="url(#b)"
         cx="408.57001"
         cy="519.79999"
         r="8"
         id="circle68"
         style="fill:url(#b)" />
      <circle
         fill="url(#c)"
         cx="408.57001"
         cy="519.79999"
         r="6"
         id="circle70"
         style="fill:url(#c)" />
      <circle
         fill="#2c3e50"
         cx="408.57001"
         cy="519.79999"
         r="4"
         id="circle72" />
    </g>
    <g
       fill="#84cbfe"
       id="g86"
       style="stroke-linecap:round"
       transform="matrix(0.89375015,0,0,0.89375015,43.410482,54.628675)">
      <circle
         cx="405.57001"
         cy="516.79999"
         r="1"
         id="circle82" />
      <circle
         cx="403.57001"
         cy="514.79999"
         id="ellipse84"
         r="1.5" />
    </g>
    <path
       fill="url(#f)"
       d="M 430.57001,510.4 V 528 h -2.2 c -1.2188,0 -2.2,-0.9812 -2.2,-2.2 v -13.2 c 0,-1.2188 0.9812,-2.2 2.2,-2.2 z"
       id="path78"
       style="fill:url(#f);stroke-width:2.2" />
    <circle
       fill="#11d116"
       cx="428.37"
       cy="514.79999"
       r="1.1000003"
       id="circle80"
       style="stroke-width:2.2;stroke-linecap:round" />
  </g>
  <path
     id="rect56"
     style="fill:url(#linearGradient3642);stroke-width:1.3693"
     d="M 4 41 L 4 42 C 4 43.108 4.892 44 6 44 L 42 44 C 43.108 44 44 43.108 44 42 L 44 41 L 4 41 z " />
  <path
     id="rect2755"
     style="opacity:1;fill:url(#linearGradient2915);fill-opacity:1;stroke-width:1.00868"
     d="M 6 4 C 4.892 4 4 4.892 4 6 L 4 7 L 44 7 L 44 6 C 44 4.892 43.108 4 42 4 L 6 4 z " />
  <path
     inkscape:connector-curvature="0"
     id="path36"
     d="m 4.0000003,40.999998 v 0.999999 c 0,1.107998 0.892002,2.000001 2.000001,2.000001 H 42.000003 c 1.107999,0 2.000002,-0.892003 2.000002,-2.000001 v -0.999999 c 0,1.107999 -0.892003,1.999997 -2.000002,1.999997 H 6.0000013 c -1.107999,0 -2.000001,-0.891998 -2.000001,-1.999997 z"
     style="opacity:0.3;fill:#909090;fill-opacity:1;stroke:none;stroke-width:2;stroke-linecap:round;stroke-linejoin:round;stroke-miterlimit:4;stroke-dasharray:none;stroke-opacity:1" />
</svg>
