<?xml version="1.0" encoding="UTF-8" standalone="no"?>
<svg
   width="48"
   height="48"
   version="1.1"
   id="svg68"
   sodipodi:docname="kmag.svg"
   inkscape:version="1.1 (c4e8f9ed74, 2021-05-24)"
   xmlns:inkscape="http://www.inkscape.org/namespaces/inkscape"
   xmlns:sodipodi="http://sodipodi.sourceforge.net/DTD/sodipodi-0.dtd"
   xmlns:xlink="http://www.w3.org/1999/xlink"
   xmlns="http://www.w3.org/2000/svg"
   xmlns:svg="http://www.w3.org/2000/svg">
  <sodipodi:namedview
     id="namedview70"
     pagecolor="#ffffff"
     bordercolor="#666666"
     borderopacity="1.0"
     inkscape:pageshadow="2"
     inkscape:pageopacity="0.0"
     inkscape:pagecheckerboard="0"
     showgrid="false"
     inkscape:zoom="8.9479166"
     inkscape:cx="-7.3760187"
     inkscape:cy="10.95227"
     inkscape:window-width="1920"
     inkscape:window-height="1026"
     inkscape:window-x="0"
     inkscape:window-y="30"
     inkscape:window-maximized="1"
     inkscape:current-layer="svg68" />
  <defs
     id="defs32">
    <linearGradient
       id="a"
       y1="536.8"
       y2="503.8"
       x2="0"
       gradientUnits="userSpaceOnUse"
       gradientTransform="matrix(0.83333333,0,0,1.1111111,68.094994,-55.977776)">
      <stop
         stop-color="#2a2c2f"
         id="stop2" />
      <stop
         offset="1"
         stop-color="#424649"
         id="stop4" />
    </linearGradient>
    <linearGradient
       id="b"
       y1="547.8"
       y2="536.8"
       x2="0"
       gradientUnits="userSpaceOnUse"
       gradientTransform="matrix(1 0 0 .54545 0 244)">
      <stop
         stop-color="#c6cdd1"
         id="stop7" />
      <stop
         offset="1"
         stop-color="#e0e5e7"
         id="stop9" />
    </linearGradient>
    <linearGradient
       id="c"
       y1="5.342"
       x1="42.799"
       y2="31.357"
       x2="11.999"
       gradientUnits="userSpaceOnUse"
       gradientTransform="matrix(0.8926033,0,0,1.2000551,378.22352,493.32228)">
      <stop
         stop-color="#1abc9c"
         id="stop12" />
      <stop
         offset="1"
         stop-color="#2980b9"
         id="stop14" />
    </linearGradient>
    <linearGradient
       id="d"
       y1="22.346"
       x1="29.855"
       y2="28.506"
       x2="54.32"
       gradientUnits="userSpaceOnUse">
      <stop
         stop-color="#cc4a5e"
         id="stop17" />
      <stop
         offset="1"
         stop-color="#aa478a"
         id="stop19" />
    </linearGradient>
    <linearGradient
       id="e"
       y1="41.22"
       x1="24.392"
       y2="25.343"
       x2="20.643"
       gradientUnits="userSpaceOnUse">
      <stop
         stop-color="#334545"
         id="stop22" />
      <stop
         offset="1"
         stop-color="#536161"
         id="stop24" />
    </linearGradient>
    <linearGradient
       xlink:href="#e"
       id="f"
       y1="568.8"
       x1="431.57"
       y2="562.8"
       x2="439.57"
       gradientUnits="userSpaceOnUse"
       gradientTransform="matrix(-1,0,0,1,839.14,-40)" />
    <linearGradient
       xlink:href="#e"
       id="g"
       y1="40.899"
       x1="56.03"
       y2="32.475"
       x2="40.647"
       gradientUnits="userSpaceOnUse" />
    <linearGradient
       xlink:href="#e"
       id="h"
       y1="32.15"
       x1="60.895"
       y2="27.06"
       x2="53.41"
       gradientUnits="userSpaceOnUse" />
    <linearGradient
       xlink:href="#e"
       id="i"
       y1="36.527"
       x1="33.32"
       y2="31.348"
       x2="24.78"
       gradientUnits="userSpaceOnUse" />
    <linearGradient
       xlink:href="#e"
       id="j"
       y1="36.765"
       x1="34"
       y2="49.571"
       x2="40.25"
       gradientUnits="userSpaceOnUse" />
    <linearGradient
       inkscape:collect="always"
       xlink:href="#e"
       id="linearGradient988"
       gradientUnits="userSpaceOnUse"
       x1="24.392"
       y1="41.22"
       x2="20.643"
       y2="25.343" />
    <linearGradient
       inkscape:collect="always"
       xlink:href="#a"
       id="linearGradient6739"
       x1="428.57001"
       y1="543.79999"
       x2="428.57001"
       y2="503.79999"
       gradientUnits="userSpaceOnUse" />
  </defs>
  <g
     transform="translate(-384.57,-499.8)"
     id="g66">
    <g
       stroke-opacity="0.55"
       stroke-width="2.8"
       id="g38">
      <path
         id="rect30"
         style="fill:url(#linearGradient6739);fill-opacity:1;stroke-width:2;stroke-linecap:round;stroke-linejoin:round"
         d="m 390.57,503.8 h 36 c 1.108,0 2,0.892 2,2 v 36 c 0,1.108 -0.892,2 -2,2 h -36 c -1.108,0 -2,-0.892 -2,-2 v -36 c 0,-1.108 0.892,-2 2,-2 z" />
      <path
         inkscape:connector-curvature="0"
         id="path36"
         d="m 388.57,540.8 v 1 c 0,1.108 0.892,2 2,2 h 36 c 1.108,0 2,-0.892 2,-2 v -1 c 0,1.108 -0.892,2 -2,2 h -36 c -1.108,0 -2,-0.892 -2,-2 z"
         style="opacity:1;fill:#424c51;fill-opacity:1;stroke:none;stroke-width:2;stroke-linecap:round;stroke-linejoin:round;stroke-miterlimit:4;stroke-dasharray:none;stroke-opacity:1" />
    </g>
    <g
       transform="matrix(0.91662424,0,0,0.91662424,34.062973,47.008869)"
       id="g60">
      <path
         fill="url(#c)"
         d="m 388.93476,500.52258 v 36.00167 h 39.27455 v -36.00167 z"
         id="path40"
         style="fill:url(#c);stroke-width:1.03498" />
      <g
         stroke-width="2"
         id="g58">
        <path
           fill="url(#d)"
           d="M 52.001818,8.3126018 25.72,23.482 47.402,36 l 4.599824,0.0014 z"
           transform="matrix(1.09091,0,0,1.09091,371.48,497.25)"
           id="path42"
           style="fill:url(#d)"
           sodipodi:nodetypes="ccccc" />
        <path
           fill="url(#e)"
           d="m 25.75,23.416 -9.749823,5.585029 6e-6,7.000337 L 47.605,36 Z"
           transform="matrix(1.09091,0,0,1.09091,371.48,497.25)"
           id="path44"
           style="fill:url(#linearGradient988)"
           sodipodi:nodetypes="ccccc" />
        <path
           fill="url(#f)"
           d="m 407.83,527.57 -8.259,-4.768 v 9.536 z"
           id="path46"
           style="fill:url(#f)" />
        <path
           fill="url(#g)"
           d="m 40.891,32.16 v 3.844 h 6.656 z"
           transform="matrix(1.09091,0,0,1.09091,371.48,497.25)"
           id="path48"
           style="fill:url(#g)" />
        <path
           fill="url(#h)"
           d="M 53.32,27.787 V 36 h 0.916 l 6.654,-3.842 z"
           transform="matrix(1.09091,0,0,1.09091,349.66,497.25)"
           id="path50"
           style="fill:url(#h)" />
        <path
           fill="url(#i)"
           d="m 25.75,32.16 v 3.842 h 6.654 z"
           transform="matrix(1.09091,0,0,1.09091,371.48,497.25)"
           id="path52"
           style="fill:url(#i)" />
        <path
           fill="url(#j)"
           d="m 40.891,32.16 -6.656,3.844 h 6.656 z"
           transform="matrix(1.09091,0,0,1.09091,371.48,497.25)"
           id="path54"
           style="fill:url(#j)" />
        <path
           id="path56"
           style="fill:#aa4781;fill-opacity:1;stroke-width:1.83325"
           d="M 42,11.3125 15.720703,26.484375 42,18.724609 Z"
           transform="matrix(1.0909596,0,0,1.0909596,382.389,493.97682)" />
      </g>
    </g>
    <path
       fill="#ffffff"
       stroke-width="0.099995"
       d="m 392.57,507.8 v 4.99975 h 0.99995 v -3.9998 h 3.9998 V 507.8 Z"
       id="path64"
       sodipodi:nodetypes="ccccccc" />
    <path
       d="m 419.57,507.8 v 0.99995 h 3.9998 v 3.9998 h 0.99995 V 507.8 Z"
       style="fill:#ffffff;stroke-width:0.099995"
       id="path1418"
       sodipodi:nodetypes="ccccccc" />
    <path
       d="m 423.56981,531.80024 v 3.9998 h -3.9998 v 0.99995 h 4.99975 v -4.99975 z"
       style="fill:#ffffff;stroke-width:0.099995"
       id="path3157" />
    <path
       d="m 392.56999,531.80027 v 4.99975 h 4.99975 v -0.99995 h -3.9998 v -3.9998 z"
       style="fill:#ffffff;stroke-width:0.099995"
       id="path2892" />
  </g>
  <path
     d="m 22,15 c -3.324,0 -6,2.676 -6,6 0,3.324 2.676,6 6,6 1.481,0 2.831,-0.535 3.875,-1.418 L 31.293,31 32,30.293 26.582,24.875 C 27.465,23.831 28,22.481 28,21 28,17.676 25.324,15 22,15 m 0,1 c 2.77,0 5,2.23 5,5 0,2.77 -2.23,5 -5,5 -2.77,0 -5,-2.23 -5,-5 0,-2.77 2.23,-5 5,-5"
     style="fill:#ffffff;stroke-width:0.1"
     id="path1011" />
</svg>
