<?xml version="1.0" encoding="UTF-8" standalone="no"?>
<!-- Created with Inkscape (http://www.inkscape.org/) -->

<svg
   width="48"
   height="48"
   viewBox="0 0 12.7 12.7"
   version="1.1"
   id="svg882"
   inkscape:version="1.1 (c4e8f9ed74, 2021-05-24)"
   sodipodi:docname="libreoffice-draw.svg"
   xmlns:inkscape="http://www.inkscape.org/namespaces/inkscape"
   xmlns:sodipodi="http://sodipodi.sourceforge.net/DTD/sodipodi-0.dtd"
   xmlns:xlink="http://www.w3.org/1999/xlink"
   xmlns="http://www.w3.org/2000/svg"
   xmlns:svg="http://www.w3.org/2000/svg">
  <sodipodi:namedview
     id="namedview884"
     pagecolor="#ffffff"
     bordercolor="#666666"
     borderopacity="1.0"
     inkscape:pageshadow="2"
     inkscape:pageopacity="0.0"
     inkscape:pagecheckerboard="0"
     inkscape:document-units="px"
     showgrid="false"
     units="px"
     inkscape:zoom="11.313709"
     inkscape:cx="20.85965"
     inkscape:cy="34.029514"
     inkscape:window-width="1920"
     inkscape:window-height="1026"
     inkscape:window-x="0"
     inkscape:window-y="30"
     inkscape:window-maximized="1"
     inkscape:current-layer="layer1"
     showguides="false" />
  <defs
     id="defs879">
    <linearGradient
       inkscape:collect="always"
       id="linearGradient1748">
      <stop
         style="stop-color:#f7bc5f;stop-opacity:1"
         offset="0"
         id="stop1744" />
      <stop
         style="stop-color:#fde9c5;stop-opacity:1"
         offset="1"
         id="stop1746" />
    </linearGradient>
    <linearGradient
       inkscape:collect="always"
       id="linearGradient7544">
      <stop
         style="stop-color:#383e51;stop-opacity:1;"
         offset="0"
         id="stop7540" />
      <stop
         style="stop-color:#383e51;stop-opacity:0;"
         offset="1"
         id="stop7542" />
    </linearGradient>
    <linearGradient
       inkscape:collect="always"
       id="linearGradient1707">
      <stop
         style="stop-color:#f7bb5d;stop-opacity:1"
         offset="0"
         id="stop1703" />
      <stop
         style="stop-color:#f5ab35;stop-opacity:1"
         offset="1"
         id="stop1705" />
    </linearGradient>
    <linearGradient
       inkscape:collect="always"
       xlink:href="#linearGradient1707"
       id="linearGradient1709"
       x1="11.641666"
       y1="11.641666"
       x2="11.641666"
       y2="1.0583333"
       gradientUnits="userSpaceOnUse" />
    <linearGradient
       inkscape:collect="always"
       xlink:href="#linearGradient7544"
       id="linearGradient7546"
       x1="2.4039876"
       y1="2.1166668"
       x2="9.0301352"
       y2="8.9726934"
       gradientUnits="userSpaceOnUse"
       gradientTransform="translate(0,0.26458324)" />
    <linearGradient
       inkscape:collect="always"
       xlink:href="#linearGradient1748"
       id="linearGradient1648"
       x1="8.4666662"
       y1="8.4666672"
       x2="8.4666662"
       y2="4.2333331"
       gradientUnits="userSpaceOnUse" />
  </defs>
  <g
     inkscape:label="레이어 1"
     inkscape:groupmode="layer"
     id="layer1">
    <path
       id="rect30"
       style="fill:url(#linearGradient1709);stroke-width:0.529167;stroke-linecap:round;stroke-linejoin:round"
       d="M 1.5874999,1.0583333 H 11.1125 c 0.293158,0 0.529166,0.2360083 0.529166,0.5291666 V 11.1125 c 0,0.293158 -0.236008,0.529166 -0.529166,0.529166 H 1.5874999 c -0.2931583,0 -0.5291666,-0.236008 -0.5291666,-0.529166 V 1.5874999 c 0,-0.2931583 0.2360083,-0.5291666 0.5291666,-0.5291666 z" />
    <path
       id="rect2783-3"
       style="fill:#f2f2f2;stroke-width:0.195886"
       d="m 2.4039876,2.1166668 c -0.159162,0 -0.2873209,0.1281592 -0.2873209,0.287321 l -1e-7,7.8883042 c 0,0.159163 0.1318796,0.291041 0.2910416,0.291041 h 7.8845838 c 0.159162,0 0.291041,-0.131878 0.291041,-0.291041 V 5.2916665 L 7.4083333,2.1166666 4.7625,2.1166668 H 4.4979166 Z"
       sodipodi:nodetypes="scccccccccs" />
    <path
       opacity="0.2"
       fill-rule="evenodd"
       d="m 4.4979167,6.6145833 v 1.8520834 l 3.1749997,3.1749993 2.9104166,10e-7 c 0.0026,-0.264583 -4.5e-5,-0.679449 -4.5e-5,-1.8520834 V 6.3500004 L 8.4666666,4.2333333 H 6.6145833 V 5.3051024 L 5.815149,4.5051514 4.5054072,5.8150275 5.2991071,6.608777 Z"
       id="path25"
       style="fill:url(#linearGradient7546);fill-opacity:1;stroke-width:0.264583"
       sodipodi:nodetypes="ccccscccccccc" />
    <path
       inkscape:connector-curvature="0"
       id="path36"
       d="m 1.0583335,10.847916 v 0.264583 c 0,0.293158 0.236009,0.529167 0.529167,0.529167 h 9.5250005 c 0.293158,0 0.529167,-0.236009 0.529167,-0.529167 v -0.264583 c 0,0.293158 -0.236009,0.529166 -0.529167,0.529166 H 1.5875005 c -0.293158,0 -0.529167,-0.236008 -0.529167,-0.529166 z"
       style="opacity:1;fill:#1a1a1a;fill-opacity:0.294118;stroke:none;stroke-width:0.529167;stroke-linecap:round;stroke-linejoin:round;stroke-miterlimit:4;stroke-dasharray:none;stroke-opacity:1" />
    <path
       stroke-opacity="0.55"
       stroke-width="0.740833"
       d="m 5.159375,4.2333333 c -0.5130271,0 -0.9260417,0.4130146 -0.9260417,0.9260417 0,0.513027 0.4130146,0.9260416 0.9260417,0.9260416 0.5130271,0 0.9260416,-0.4130146 0.9260416,-0.9260416 0,-0.5130271 -0.4130145,-0.9260417 -0.9260416,-0.9260417 m 1.4552083,0 V 6.0854166 H 8.4666666 V 4.2333333 Z m -2.1166666,2.38125 V 8.4666667 H 5.8208333 V 6.6145833 Z m 2.9104166,0 -1.0583334,1.8520834 h 2.1166667 z"
       id="path27"
       style="fill:url(#linearGradient1648);fill-opacity:1"
       sodipodi:nodetypes="csssccccccccccccccc" />
  </g>
</svg>
