<?xml version="1.0" encoding="UTF-8" standalone="no"?>
<svg
   width="48"
   height="48"
   version="1.1"
   id="svg67"
   sodipodi:docname="mail-client.svg"
   inkscape:version="1.1 (c4e8f9ed74, 2021-05-24)"
   xmlns:inkscape="http://www.inkscape.org/namespaces/inkscape"
   xmlns:sodipodi="http://sodipodi.sourceforge.net/DTD/sodipodi-0.dtd"
   xmlns:xlink="http://www.w3.org/1999/xlink"
   xmlns="http://www.w3.org/2000/svg"
   xmlns:svg="http://www.w3.org/2000/svg">
  <sodipodi:namedview
     id="namedview69"
     pagecolor="#ffffff"
     bordercolor="#666666"
     borderopacity="1.0"
     inkscape:pageshadow="2"
     inkscape:pageopacity="0.0"
     inkscape:pagecheckerboard="0"
     showgrid="false"
     inkscape:zoom="12.580608"
     inkscape:cx="22.892375"
     inkscape:cy="34.736"
     inkscape:window-width="1920"
     inkscape:window-height="1026"
     inkscape:window-x="0"
     inkscape:window-y="30"
     inkscape:window-maximized="1"
     inkscape:current-layer="svg67" />
  <defs
     id="defs37">
    <linearGradient
       inkscape:collect="always"
       id="linearGradient980">
      <stop
         style="stop-color:#197cf1;stop-opacity:1;"
         offset="0"
         id="stop976" />
      <stop
         style="stop-color:#60d8f5;stop-opacity:1"
         offset="1"
         id="stop978" />
    </linearGradient>
    <linearGradient
       id="a"
       x1="543.8"
       x2="503.8"
       gradientUnits="userSpaceOnUse"
       gradientTransform="matrix(0 1-1.16667 0-452.67-499.8)">
      <stop
         stop-color="#197cf1"
         id="stop2" />
      <stop
         offset="1"
         stop-color="#21c9fb"
         id="stop4" />
    </linearGradient>
    <linearGradient
       id="b"
       y1="547.8"
       x1="384.57"
       y2="530.48"
       x2="394.57"
       gradientUnits="userSpaceOnUse">
      <stop
         stop-color="#ffffff"
         stop-opacity="0"
         id="stop7" />
      <stop
         offset="1"
         stop-color="#ffffff"
         stop-opacity=".314"
         id="stop9" />
    </linearGradient>
    <linearGradient
       id="c"
       x1="384.57"
       x2="414.57"
       gradientUnits="userSpaceOnUse">
      <stop
         stop-opacity=".275"
         id="stop12" />
      <stop
         offset="1"
         stop-color="#ffffff"
         stop-opacity="0"
         id="stop14" />
    </linearGradient>
    <linearGradient
       id="d"
       y1="547.8"
       x1="432.57"
       y2="527.8"
       x2="421.02"
       gradientUnits="userSpaceOnUse">
      <stop
         stop-opacity=".082"
         id="stop17" />
      <stop
         offset="1"
         stop-opacity="0"
         id="stop19" />
    </linearGradient>
    <linearGradient
       id="e"
       y1="44"
       y2="20"
       x2="0"
       gradientUnits="userSpaceOnUse"
       gradientTransform="matrix(0.69999985,0,0,0.74999986,7.2000015,1.86e-6)">
      <stop
         stop-color="#eef1f2"
         id="stop22" />
      <stop
         offset="1"
         stop-color="#f9fafb"
         id="stop24" />
    </linearGradient>
    <linearGradient
       id="f"
       y1="523.8"
       y2="507.8"
       gradientUnits="userSpaceOnUse"
       x2="0"
       gradientTransform="translate(0 4)">
      <stop
         stop-color="#7cbaf8"
         id="stop27" />
      <stop
         offset="1"
         stop-color="#f4fcff"
         id="stop29" />
    </linearGradient>
    <linearGradient
       id="g"
       y1="511.8"
       x1="414.57"
       y2="519.8"
       x2="422.57"
       gradientUnits="userSpaceOnUse">
      <stop
         stop-color="#292c2f"
         id="stop32" />
      <stop
         offset="1"
         stop-opacity="0"
         id="stop34" />
    </linearGradient>
    <linearGradient
       inkscape:collect="always"
       xlink:href="#c-3"
       id="linearGradient2190"
       x1="42.985252"
       y1="31.653332"
       x2="14.931853"
       y2="14.857131"
       gradientUnits="userSpaceOnUse"
       gradientTransform="translate(384.57,499.8)" />
    <linearGradient
       id="c-3"
       x1="384.57001"
       x2="414.57001"
       gradientUnits="userSpaceOnUse">
      <stop
         stop-opacity=".275"
         id="stop12-6" />
      <stop
         offset="1"
         stop-color="#ffffff"
         stop-opacity="0"
         id="stop14-7" />
    </linearGradient>
    <linearGradient
       id="a-5"
       x1="543.79999"
       x2="503.79999"
       gradientUnits="userSpaceOnUse"
       gradientTransform="matrix(0,1,-1.16667,0,-452.67,-499.8)">
      <stop
         stop-color="#197cf1"
         id="stop2-6" />
      <stop
         offset="1"
         stop-color="#21c9fb"
         id="stop4-2" />
    </linearGradient>
    <linearGradient
       inkscape:collect="always"
       xlink:href="#g"
       id="linearGradient4586"
       x1="16.466328"
       y1="9.4266529"
       x2="44"
       y2="41.78125"
       gradientUnits="userSpaceOnUse" />
    <linearGradient
       inkscape:collect="always"
       xlink:href="#linearGradient980"
       id="linearGradient1098"
       x1="4.0203934"
       y1="3.8924866"
       x2="4.0244732"
       y2="44.029919"
       gradientUnits="userSpaceOnUse" />
  </defs>
  <path
     id="rect30"
     style="fill:url(#linearGradient1098);stroke-width:2;stroke-linecap:round;stroke-linejoin:round;fill-opacity:1"
     d="m 6,4 h 36 c 1.107999,0 1.999998,0.8919999 1.999998,1.9999998 V 42 c 0,1.107999 -0.891999,1.999998 -1.999998,1.999998 H 6 C 4.892,43.999998 4,43.107999 4,42 V 5.9999998 C 4,4.8919999 4.892,4 6,4 Z" />
  <path
     fill="url(#e)"
     d="M 10.000002,15 V 32.999998 H 37.999997 V 15 Z"
     id="path43"
     style="fill:url(#e);stroke-width:0.724569"
     sodipodi:nodetypes="ccccc" />
  <g
     fill-rule="evenodd"
     id="g53"
     transform="matrix(0.69999987,0,0,0.74999989,-261.99895,-374.84994)">
    <path
       fill="url(#c)"
       d="m 388.57,543.8 16,-12 4,3 4,-3 16,12 z"
       id="path47"
       style="fill:url(#c)"
       sodipodi:nodetypes="cccccc" />
    <path
       fill="url(#d)"
       d="m 428.57,543.8 -16,-12 16,-12 z"
       id="path49"
       style="fill:url(#d)" />
    <path
       fill="url(#b)"
       d="m 388.57,543.8 16,-12 -16,-12 z"
       id="path51"
       style="fill:url(#b)" />
    <path
       id="rect1732"
       style="fill:url(#linearGradient2190);fill-opacity:1;stroke-width:1.00246"
       d="m 408.57,534.8 -20,-15 h 40 z"
       sodipodi:nodetypes="cccc" />
  </g>
  <path
     id="rect3498"
     style="fill:url(#linearGradient4586);fill-opacity:1;opacity:0.3"
     d="M 38 15 L 38 33 L 10 33 C 10.000004 33 21 44 21 44 L 42.78125 44 C 43.456384 44 44 43.456384 44 42.78125 L 44 21 L 38 15 z " />
  <path
     id="rect885"
     style="stroke-width:0.298142;fill:#999999"
     d="M 10 15 L 10 16 L 19.949219 23.994141 L 10 32 L 10 33 L 20.570312 24.494141 L 24 27.25 L 27.429688 24.494141 L 38 33 L 38 32 L 28.050781 23.994141 L 38 16 L 38 15 L 24 26.25 L 10 15 z " />
  <rect
     width="27.999994"
     x="10.000003"
     y="31.999998"
     fill="#d1d3d4"
     height="1"
     id="rect55"
     style="stroke-width:0.83666" />
  <path
     inkscape:connector-curvature="0"
     id="path36"
     d="m 4.000001,40.999998 v 0.999998 c 0,1.107999 0.892002,2.000002 2.000001,2.000002 h 36.000002 c 1.107999,0 2.000002,-0.892003 2.000002,-2.000002 v -0.999998 c 0,1.107998 -0.892003,1.999997 -2.000002,1.999997 H 6.000002 c -1.107999,0 -2.000001,-0.891999 -2.000001,-1.999997 z"
     style="opacity:0.15;fill:#000000;fill-opacity:1;stroke:none;stroke-width:2;stroke-linecap:round;stroke-linejoin:round;stroke-miterlimit:4;stroke-dasharray:none;stroke-opacity:1" />
</svg>
