<?xml version="1.0" encoding="UTF-8" standalone="no"?>
<!-- Created with Inkscape (http://www.inkscape.org/) -->

<svg
   width="48"
   height="48"
   viewBox="0 0 12.7 12.7"
   version="1.1"
   id="svg5"
   inkscape:version="1.1.1 (3bf5ae0d25, 2021-09-20, custom)"
   sodipodi:docname="microsoft-edge.svg"
   xmlns:inkscape="http://www.inkscape.org/namespaces/inkscape"
   xmlns:sodipodi="http://sodipodi.sourceforge.net/DTD/sodipodi-0.dtd"
   xmlns:xlink="http://www.w3.org/1999/xlink"
   xmlns="http://www.w3.org/2000/svg"
   xmlns:svg="http://www.w3.org/2000/svg">
  <sodipodi:namedview
     id="namedview7"
     pagecolor="#ffffff"
     bordercolor="#666666"
     borderopacity="1.0"
     inkscape:pageshadow="2"
     inkscape:pageopacity="0.0"
     inkscape:pagecheckerboard="0"
     inkscape:document-units="px"
     showgrid="false"
     units="px"
     height="48px"
     inkscape:zoom="8"
     inkscape:cx="22.1875"
     inkscape:cy="40.75"
     inkscape:window-width="1365"
     inkscape:window-height="826"
     inkscape:window-x="191"
     inkscape:window-y="164"
     inkscape:window-maximized="0"
     inkscape:current-layer="svg5" />
  <defs
     id="defs2">
    <linearGradient
       inkscape:collect="always"
       id="linearGradient956">
      <stop
         style="stop-color:#eff0f1;stop-opacity:1"
         offset="0"
         id="stop952" />
      <stop
         style="stop-color:#fcfcfc;stop-opacity:1"
         offset="1"
         id="stop954" />
    </linearGradient>
    <linearGradient
       inkscape:collect="always"
       id="linearGradient13779">
      <stop
         style="stop-color:#000000;stop-opacity:1;"
         offset="0"
         id="stop13775" />
      <stop
         style="stop-color:#000000;stop-opacity:0;"
         offset="1"
         id="stop13777" />
    </linearGradient>
    <linearGradient
       inkscape:collect="always"
       id="linearGradient12344">
      <stop
         style="stop-color:#116393;stop-opacity:1;"
         offset="0"
         id="stop12340" />
      <stop
         style="stop-color:#1682c1;stop-opacity:1"
         offset="1"
         id="stop12342" />
    </linearGradient>
    <linearGradient
       inkscape:collect="always"
       id="linearGradient10516">
      <stop
         style="stop-color:#188fc8;stop-opacity:1"
         offset="0"
         id="stop10512" />
      <stop
         style="stop-color:#41c3e9;stop-opacity:1"
         offset="1"
         id="stop10514" />
    </linearGradient>
    <linearGradient
       inkscape:collect="always"
       id="linearGradient9708">
      <stop
         style="stop-color:#3be588;stop-opacity:1"
         offset="0"
         id="stop9704" />
      <stop
         style="stop-color:#39b2e4;stop-opacity:1"
         offset="1"
         id="stop9706" />
    </linearGradient>
    <linearGradient
       inkscape:collect="always"
       xlink:href="#linearGradient9708"
       id="linearGradient9710"
       x1="43.343521"
       y1="33.005779"
       x2="5.3279281"
       y2="5.7089119"
       gradientUnits="userSpaceOnUse"
       gradientTransform="matrix(0.21166655,0,0,0.21166655,1.2700005,1.2700005)" />
    <linearGradient
       inkscape:collect="always"
       xlink:href="#linearGradient10516"
       id="linearGradient10518"
       x1="10.758186"
       y1="31.086422"
       x2="21.440447"
       y2="15.766142"
       gradientUnits="userSpaceOnUse"
       gradientTransform="matrix(0.21166655,0,0,0.21166655,1.2700005,1.2700005)" />
    <linearGradient
       inkscape:collect="always"
       xlink:href="#linearGradient12344"
       id="linearGradient12346"
       x1="11.500359"
       y1="30.37657"
       x2="37.075485"
       y2="38.473064"
       gradientUnits="userSpaceOnUse"
       gradientTransform="matrix(0.21166655,0,0,0.21166655,1.2700005,1.2700005)" />
    <linearGradient
       inkscape:collect="always"
       xlink:href="#linearGradient13779"
       id="linearGradient13781"
       x1="5.8177958"
       y1="17.500849"
       x2="13.325488"
       y2="24.986536"
       gradientUnits="userSpaceOnUse"
       gradientTransform="matrix(0.21166655,0,0,0.21166655,1.2700005,1.2700005)" />
    <linearGradient
       inkscape:collect="always"
       xlink:href="#linearGradient13779"
       id="linearGradient16523"
       x1="12.679887"
       y1="31.411888"
       x2="19.472919"
       y2="37.440197"
       gradientUnits="userSpaceOnUse"
       gradientTransform="matrix(0.21166655,0,0,0.21166655,1.2700005,1.2700005)" />
    <linearGradient
       inkscape:collect="always"
       xlink:href="#linearGradient13779"
       id="linearGradient17995"
       x1="25.694397"
       y1="21.964504"
       x2="31.823616"
       y2="28.234488"
       gradientUnits="userSpaceOnUse"
       gradientTransform="matrix(0.21166655,0,0,0.21166655,1.2700005,1.2700005)" />
    <linearGradient
       inkscape:collect="always"
       xlink:href="#linearGradient956"
       id="linearGradient958"
       x1="4.093842"
       y1="12.519762"
       x2="9.4978876"
       y2="-1.1498709"
       gradientUnits="userSpaceOnUse" />
  </defs>
  <path
     style="color:#000000;fill:url(#linearGradient958);stroke-width:0.264583;stroke-linecap:round;stroke-linejoin:round;-inkscape-stroke:none;fill-opacity:1"
     d="m 1.6479614,1.0583333 c -0.3253773,0 -0.5896281,0.2642508 -0.5896281,0.5896281 v 9.4040776 c 0,0.325377 0.2642508,0.589628 0.5896281,0.589628 h 9.4040766 c 0.325378,0 0.589629,-0.264251 0.589629,-0.589628 V 1.6479614 c 0,-0.3253773 -0.264251,-0.5896281 -0.589629,-0.5896281 z"
     id="rect30-0"
     sodipodi:nodetypes="sssssssss" />
  <path
     id="path868"
     style="fill:url(#linearGradient12346);fill-opacity:1;stroke-width:0.223696"
     d="M 5.3251513,2.2448242 C 3.4404992,2.7150668 2.117691,4.4075662 2.1166667,6.3499978 c 0,2.3380041 1.8953269,4.2333312 4.2333311,4.2333312 1.1978161,-6.15e-4 2.3393028,-0.50865 3.141512,-1.3981571 -0.3351044,0.084388 -0.6792808,0.1274275 -1.0248465,0.1281579 -2.3380041,0 -4.2755583,-1.4957456 -3.9397427,-4.3552003 5.926e-4,-1.0475968 0.096026,-1.9358943 0.7982307,-2.7133053 z"
     sodipodi:nodetypes="ccccccc" />
  <path
     id="path1194-5-5"
     style="fill:url(#linearGradient10518);fill-opacity:1;stroke-width:0.209079"
     d="m 6.3499978,2.1166667 c -0.1055326,5.29e-5 -0.211026,0.00405 -0.3162597,0.011989 -2.209066,0.1654951 -3.9169882,2.0060856 -3.9170714,4.221342 0.00157,2.2855311 1.8170306,4.1571703 4.101453,4.2283693 C 4.2604245,8.8347762 4.5993382,6.5718527 4.5993382,6.5718527 4.5356859,4.5703503 6.4277192,4.9059523 6.4277192,4.9059523 c 0,0 2.9519906,-0.2170982 3.9207918,0.053743 -4.2e-5,-1.225e-4 4.3e-5,-2.963e-4 0,-4.232e-4 -0.01636,-0.047075 -0.03377,-0.09353 -0.05167,-0.1397332 -0.0041,-0.010629 -0.0083,-0.021238 -0.0124,-0.031833 -0.01775,-0.044733 -0.03624,-0.089237 -0.0554,-0.1331186 l -0.0033,-0.00744 c -3.18e-4,-7.409e-4 -8.8e-4,-0.00133 -0.0012,-0.00207 -0.04407,-0.1002377 -0.09148,-0.1983601 -0.142631,-0.2939362 l -0.0012,-0.00248 c -7.63e-4,-0.00141 -0.0017,-0.00271 -0.0025,-0.00413 C 10.029132,4.2534189 9.9769295,4.1645232 9.9218408,4.077892 l -0.00328,-0.00496 C 9.9140008,4.066022 9.9094908,4.059137 9.9049208,4.052261 9.8516408,3.969807 9.7960408,3.8893514 9.7374889,3.8112423 l -0.00168,-0.00207 C 9.7278889,3.7986605 9.7198729,3.7881877 9.7118329,3.7777509 9.6509689,3.6982278 9.5877281,3.6209336 9.5216634,3.5462407 9.4520314,3.4675127 9.3796778,3.3915594 9.3046227,3.3184511 c -0.00208,-0.00207 -0.00416,-0.00413 -0.00624,-0.0062 -0.00176,-0.0017 -0.0036,-0.00326 -0.00536,-0.00496 C 9.2174042,3.2341435 9.139005,3.1636501 9.0582549,3.0964513 8.9756334,3.0276952 8.8907281,2.9623295 8.8031801,2.900081 8.8030246,2.8999704 8.8029261,2.8997783 8.8027568,2.8996683 8.718199,2.8395553 8.6311155,2.7827103 8.5423176,2.7289288 c -0.00289,-0.00194 -0.00579,-0.00387 -0.00868,-0.00579 -0.00148,-8.88e-4 -0.00308,-0.00159 -0.00454,-0.00248 L 8.528267,2.7202493 C 8.4389569,2.6666334 8.3473522,2.6163225 8.25417,2.5693521 L 8.25085,2.5672821 C 8.2501938,2.5669497 8.24945,2.5667888 8.24878,2.5664581 8.1544287,2.5190636 8.058588,2.4753127 7.9606398,2.4349916 l -0.00372,-0.00165 c -6.818e-4,-2.842e-4 -0.00138,-5.487e-4 -0.00208,-8.267e-4 -0.096807,-0.039688 -0.1956186,-0.075375 -0.295573,-0.107899 l -0.00744,-0.0029 c -0.00161,-5.207e-4 -0.00334,-7.176e-4 -0.00496,-0.00124 -0.096277,-0.030998 -0.1938626,-0.058559 -0.292695,-0.082683 -0.00881,-0.00223 -0.017632,-0.00444 -0.026459,-0.00661 C 7.226604,2.2071922 7.1239558,2.18697 7.0205504,2.1704091 l -0.00579,-0.00124 c -0.0011,-1.734e-4 -0.00221,-2.413e-4 -0.00332,-4.128e-4 -0.1041332,-0.016444 -0.2093337,-0.028954 -0.3154327,-0.03762 -0.00647,-5.652e-4 -0.012952,-0.00112 -0.019431,-0.00165 -0.00647,-4.277e-4 -0.012952,-8.4e-4 -0.019431,-0.00124 -0.038486,-0.00278 -0.077048,-0.00529 -0.1157551,-0.00702 -0.013778,-6.18e-4 -0.027558,-0.00116 -0.041341,-0.00165 -0.0499,-0.00176 -0.099839,-0.0029 -0.1500662,-0.0029 z"
     sodipodi:nodetypes="ccccccccccccccccccccccscccsscccccccscccccsccccccccccc" />
  <path
     id="rect12928"
     style="opacity:0.2;fill:url(#linearGradient13781);fill-opacity:1;stroke-width:0.291221"
     d="M 5.4450405,4.7926776 C 4.6231931,4.8002278 3.5504747,5.0181206 2.1964551,5.5467397 L 5.1779771,8.5282616 7.4881188,6.2181195 6.108979,4.8389797 C 5.9307096,4.8104855 5.7360048,4.7942357 5.5235887,4.7926775 c -0.02599,-1.907e-4 -0.052036,-2.54e-4 -0.078548,1e-7 z" />
  <path
     id="path1194"
     style="fill:url(#linearGradient9710);fill-opacity:1;stroke-width:0.209079"
     d="M 6.3499978,2.1166667 C 4.3227963,2.1180468 2.5811083,3.5563655 2.1964551,5.5467397 4.7893416,4.5905737 5.4450405,4.7926776 6.3824016,4.8953306 7.5426804,5.0223961 8.1739439,6.4273264 7.0304728,7.5708011 6.9261914,7.6738465 6.8166275,7.7714052 6.7022241,7.863083 7.8960154,8.0418915 9.5326954,8.1259026 10.460546,7.3537603 c 0.08089,-0.3284798 0.122108,-0.6654709 0.122783,-1.0037625 0,-2.3380042 -1.895327,-4.2333312 -4.2333312,-4.2333311 z"
     sodipodi:nodetypes="ccsccccc" />
  <path
     id="path868-6"
     style="opacity:0.2;fill:#ffffff;fill-opacity:1;stroke-width:0.223696"
     d="m 6.0672243,4.6732017 c -0.5434124,0.014667 -1.5139828,0.2420065 -1.4680231,1.6871314 -2e-7,0 -0.00322,0.025781 -0.00703,0.063666 0.00181,0.00727 0.00393,0.014257 0.00579,0.021498 C 4.6158542,4.6560239 6.2871124,4.8838241 6.4149031,4.9038853 7.1985799,5.1173253 7.5776522,5.61185 7.6208238,6.1635493 7.6667666,5.5298135 7.2977241,4.9326614 6.4149031,4.6922187 6.3822203,4.6870881 6.248362,4.6683128 6.0672243,4.6732017 Z m 4.5136237,1.5391302 c -0.006,0.3133833 -0.04532,0.6252623 -0.120302,0.9297618 C 9.5857553,7.8700813 8.0852741,7.8355425 6.9155442,7.6795285 6.846377,7.7429477 6.7754758,7.8043823 6.7022239,7.8630829 c 1.1937915,0.1788087 2.8304723,0.26282 3.7583221,-0.5093226 0.08089,-0.3284798 0.122109,-0.665471 0.122783,-1.0037624 0,-0.046101 -0.0011,-0.09192 -0.0025,-0.137666 z m -8.4629413,0.03514 c -8.32e-4,0.034073 -0.00123,0.068293 -0.00124,0.1025262 2.45e-5,0.035711 3.35e-4,0.071155 0.00124,0.1066601 2.05e-5,8.24e-4 -2.09e-5,0.00165 0,0.00248 9.067e-4,0.034672 0.0024,0.069302 0.00413,0.1037664 0.00175,0.035382 0.004,0.070684 0.00661,0.1058332 1.738e-4,0.00234 2.36e-4,0.00469 4.136e-4,0.00702 0.00252,0.032692 0.00543,0.065081 0.00868,0.097565 3.139e-4,0.00316 5.061e-4,0.00636 8.24e-4,0.00951 0.00324,0.031628 0.00682,0.06325 0.010749,0.094671 0.0086,0.069115 0.019123,0.1378394 0.031005,0.2058786 0.00595,0.034035 0.012265,0.067948 0.019017,0.1016992 0.3877433,1.938075 2.0985052,3.3982414 4.1506518,3.3982414 1.1978164,-6.14e-4 2.3393028,-0.508649 3.1415119,-1.3981553 -0.088668,0.02233 -0.1780951,0.041357 -0.2678904,0.057878 -0.7785322,0.7211642 -1.8031622,1.1280633 -2.8736215,1.1286133 -2.0521466,0 -3.7629085,-1.4601683 -4.1506488,-3.3982408 -0.00675,-0.03375 -0.013073,-0.067664 -0.019017,-0.1016992 -0.011883,-0.068039 -0.022412,-0.1367643 -0.031006,-0.2058787 -0.00394,-0.031421 -0.00751,-0.063043 -0.010748,-0.094671 -3.16e-4,-0.00316 -5.095e-4,-0.00636 -8.24e-4,-0.00951 -0.00324,-0.032484 -0.00617,-0.064873 -0.00868,-0.097565 -1.904e-4,-0.00233 -2.398e-4,-0.00469 -4.136e-4,-0.00702 -0.00261,-0.035148 -0.00485,-0.070451 -0.00661,-0.1058333 -0.00173,-0.034463 -0.00323,-0.069094 -0.00413,-0.1037663 z"
     sodipodi:nodetypes="sscccccsscccccssccsccsccccscccccssccccccc" />
  <path
     id="rect16179"
     style="opacity:0.2;fill:url(#linearGradient16523);fill-opacity:1;stroke-width:0.211231"
     d="m 4.5987877,6.5761336 v 0.8470796 c 0.079531,0.8175467 0.414195,2.0851941 1.6172649,3.1576348 0.044541,0.0013 0.089064,0.0025 0.1339452,0.0025 0.642746,-3.4e-4 1.2693694,-0.146946 1.8359593,-0.420026 L 7.1681386,9.1454845 C 5.9074971,8.8029438 4.9182634,7.9376262 4.5987877,6.5761336 Z" />
  <path
     id="rect17125"
     style="opacity:0.2;fill:url(#linearGradient17995);fill-opacity:1;stroke-width:0.195437"
     d="M 7.3603749,5.2581787 C 7.5708929,5.5216103 7.6573296,5.8388463 7.6336397,6.1656163 7.6255455,6.0621727 7.6054471,5.9605333 7.5732817,5.862586 7.7281041,6.370821 7.5982704,7.003002 7.0304728,7.5708011 6.9261911,7.6738467 6.8166273,7.7714053 6.7022241,7.863083 7.6558746,8.0059225 8.8916935,8.0875564 9.8234792,7.721283 Z" />
  <path
     id="rect30-0-7"
     style="color:#000000;opacity:0.2;fill:#000000;fill-opacity:1;stroke-width:0.999999;stroke-linecap:round;stroke-linejoin:round;-inkscape-stroke:none"
     d="M 4 40.771484 L 4 41.771484 C 4 43.001256 4.9987443 44 6.2285156 44 L 41.771484 44 C 43.001259 44 44 43.001256 44 41.771484 L 44 40.771484 C 44 42.001256 43.001259 43 41.771484 43 L 6.2285156 43 C 4.9987443 43 4 42.001256 4 40.771484 z "
     transform="scale(0.26458333)" />
</svg>
