<?xml version="1.0" encoding="UTF-8" standalone="no"?>
<svg
   width="48"
   height="48"
   version="1.1"
   id="svg58"
   sodipodi:docname="muondiscover.svg"
   inkscape:version="1.1 (c4e8f9ed74, 2021-05-24)"
   xmlns:inkscape="http://www.inkscape.org/namespaces/inkscape"
   xmlns:sodipodi="http://sodipodi.sourceforge.net/DTD/sodipodi-0.dtd"
   xmlns:xlink="http://www.w3.org/1999/xlink"
   xmlns="http://www.w3.org/2000/svg"
   xmlns:svg="http://www.w3.org/2000/svg">
  <sodipodi:namedview
     id="namedview60"
     pagecolor="#ffffff"
     bordercolor="#666666"
     borderopacity="1.0"
     inkscape:pageshadow="2"
     inkscape:pageopacity="0.0"
     inkscape:pagecheckerboard="0"
     showgrid="false"
     inkscape:zoom="25.161216"
     inkscape:cx="15.798123"
     inkscape:cy="8.8231029"
     inkscape:window-width="1382"
     inkscape:window-height="797"
     inkscape:window-x="53"
     inkscape:window-y="121"
     inkscape:window-maximized="0"
     inkscape:current-layer="svg58" />
  <defs
     id="defs32">
    <linearGradient
       id="a"
       y1="543.8"
       y2="513.8"
       x2="0"
       gradientUnits="userSpaceOnUse"
       gradientTransform="matrix(1.125 0 0 1-51.07 0)">
      <stop
         stop-color="#197cf1"
         id="stop2" />
      <stop
         offset="1"
         stop-color="#20bcfa"
         id="stop4" />
    </linearGradient>
    <linearGradient
       xlink:href="#a"
       id="b"
       y1="44"
       y2="11"
       x2="0"
       gradientUnits="userSpaceOnUse"
       gradientTransform="translate(-2)" />
    <linearGradient
       id="c"
       y1="10"
       y2="14"
       x2="0"
       gradientUnits="userSpaceOnUse"
       gradientTransform="translate(-2.0000004)">
      <stop
         stop-color="#1d1e1e"
         id="stop8" />
      <stop
         offset="1"
         stop-color="#44484c"
         id="stop10" />
    </linearGradient>
    <linearGradient
       xlink:href="#a"
       id="d"
       y1="14"
       y2="10"
       gradientUnits="userSpaceOnUse"
       x2="0"
       gradientTransform="translate(-2)" />
    <linearGradient
       xlink:href="#a"
       id="e"
       y1="516.8"
       y2="503.8"
       x2="0"
       gradientUnits="userSpaceOnUse"
       gradientTransform="translate(-384.57,-497.8)" />
    <linearGradient
       id="f"
       y1="18"
       y2="15"
       x2="0"
       gradientUnits="userSpaceOnUse">
      <stop
         stop-color="#c6cdd1"
         id="stop15" />
      <stop
         offset="1"
         stop-color="#e0e5e7"
         id="stop17" />
    </linearGradient>
    <linearGradient
       xlink:href="#f"
       id="g"
       y1="517.8"
       y2="514.8"
       x2="0"
       gradientUnits="userSpaceOnUse"
       gradientTransform="translate(-384.57,-497.8)" />
    <linearGradient
       id="h"
       y1="19"
       y2="3"
       x2="0"
       gradientUnits="userSpaceOnUse"
       gradientTransform="translate(13,16)">
      <stop
         stop-color="#7cbaf8"
         id="stop21" />
      <stop
         offset="1"
         stop-color="#f4fcff"
         id="stop23" />
    </linearGradient>
    <linearGradient
       id="i"
       y1="23"
       x1="16"
       y2="39"
       x2="32"
       gradientUnits="userSpaceOnUse"
       gradientTransform="translate(0,-2)">
      <stop
         stop-color="#292c2f"
         id="stop26" />
      <stop
         offset="1"
         stop-opacity="0"
         id="stop28" />
    </linearGradient>
    <path
       fill-rule="evenodd"
       id="j"
       d="m10 10l-1 1 1 1-4 2h36l-4-2 1-1-1-1h-14z" />
    <linearGradient
       inkscape:collect="always"
       xlink:href="#a"
       id="linearGradient877"
       gradientUnits="userSpaceOnUse"
       gradientTransform="matrix(1.25,0,0,1,-486.71111,-499.8)"
       y1="543.8"
       x2="0"
       y2="513.8" />
    <linearGradient
       inkscape:collect="always"
       xlink:href="#f"
       id="linearGradient879"
       gradientUnits="userSpaceOnUse"
       y1="18"
       x2="0"
       y2="15"
       gradientTransform="translate(0,2)" />
    <linearGradient
       inkscape:collect="always"
       xlink:href="#a"
       id="linearGradient3081"
       x1="44.000008"
       y1="13.999988"
       x2="44.000008"
       y2="4"
       gradientUnits="userSpaceOnUse" />
  </defs>
  <rect
     style="fill:url(#linearGradient3081);stroke-width:1.05527;fill-opacity:1"
     id="rect2913"
     width="40"
     height="10"
     x="4.0000072"
     y="4" />
  <rect
     width="40"
     x="4.0000072"
     y="13.999988"
     rx="0"
     height="30"
     id="rect36"
     style="fill:url(#linearGradient877);stroke-width:1.05409" />
  <path
     opacity="0.2"
     fill="url(#i)"
     d="m 20.707,21.293 -1.414,1.414 8,8 L 27,31 38,42 h 4 V 36 L 32,26 28.707,29.293 Z m -2.146,6.146 -2.121,2.121 5.5,5.5 -1.354,1.354 5.586,5.586 h 6.951 z"
     id="path38"
     style="fill:url(#i)" />
  <rect
     width="40"
     x="4.0000072"
     y="42.999989"
     fill="#1c5593"
     height="1"
     id="rect40"
     style="stroke-width:1.05409" />
  <path
     fill-rule="evenodd"
     id="use44"
     d="m 4.0000072,4 -7.6e-6,10 40.0000084,-1.2e-5 0,-9.999988 z"
     style="opacity:0.6;fill:url(#c)"
     sodipodi:nodetypes="ccccc" />
  <path
     fill="url(#e)"
     d="m 16,19 v -5 c 0,-4.432 3.568,-8 8,-8 4.432,0 8,3.568 8,8 v 5 h -1 v -5 c 0,-3.878 -3.122,-7 -7,-7 -3.878,0 -7,3.122 -7,7 v 5 z"
     id="path48"
     style="fill:url(#e)" />
  <path
     fill="url(#g)"
     d="m 16.50143,16.998 a 1.5,1.5 0 0 1 1.5,1.5 1.5,1.5 0 0 1 -1.5,1.5 1.5,1.5 0 0 1 -1.5,-1.5 1.5,1.5 0 0 1 1.5,-1.5 m 0,1 a 0.5,0.5 0 0 0 -0.5,0.5 0.5,0.5 0 0 0 0.5,0.5 0.5,0.5 0 0 0 0.5,-0.5 0.5,0.5 0 0 0 -0.5,-0.5"
     id="path50"
     style="fill:url(#g)" />
  <path
     fill="url(#f)"
     d="M 31.5,17 A 1.5,1.5 0 0 0 30,18.5 1.5,1.5 0 0 0 31.5,20 1.5,1.5 0 0 0 33,18.5 1.5,1.5 0 0 0 31.5,17 m 0,1 A 0.5,0.5 0 0 1 32,18.5 0.5,0.5 0 0 1 31.5,19 0.5,0.5 0 0 1 31,18.5 0.5,0.5 0 0 1 31.5,18"
     id="path52"
     style="fill:url(#linearGradient879)" />
  <path
     fill="url(#h)"
     d="m 20,21 c -0.554,0 -1,0.446 -1,1 0,0.554 0.446,1 1,1 0.554,0 1,-0.446 1,-1 0,-0.554 -0.446,-1 -1,-1 m 7,0 -2,2 3,3 -3,3 2,2 5,-5 z m -9.5,6 C 16.669,27 16,27.669 16,28.5 16,29.331 16.669,30 17.5,30 18.331,30 19,29.331 19,28.5 19,27.669 18.331,27 17.5,27 m 4.5,6 c -1.108,0 -2,0.892 -2,2 0,1.108 0.892,2 2,2 1.108,0 2,-0.892 2,-2 0,-1.108 -0.892,-2 -2,-2"
     id="path54"
     style="fill:url(#h)" />
</svg>
