<?xml version="1.0" encoding="UTF-8" standalone="no"?>
<svg
   height="48"
   width="48"
   version="1"
   id="svg10"
   sodipodi:docname="nvidia.svg"
   inkscape:version="1.1 (c4e8f9ed74, 2021-05-24)"
   xmlns:inkscape="http://www.inkscape.org/namespaces/inkscape"
   xmlns:sodipodi="http://sodipodi.sourceforge.net/DTD/sodipodi-0.dtd"
   xmlns:xlink="http://www.w3.org/1999/xlink"
   xmlns="http://www.w3.org/2000/svg"
   xmlns:svg="http://www.w3.org/2000/svg"
   xmlns:rdf="http://www.w3.org/1999/02/22-rdf-syntax-ns#"
   xmlns:cc="http://creativecommons.org/ns#"
   xmlns:dc="http://purl.org/dc/elements/1.1/">
  <metadata
     id="metadata16">
    <rdf:RDF>
      <cc:Work
         rdf:about="">
        <dc:format>image/svg+xml</dc:format>
        <dc:type
           rdf:resource="http://purl.org/dc/dcmitype/StillImage" />
      </cc:Work>
    </rdf:RDF>
  </metadata>
  <defs
     id="defs14">
    <linearGradient
       inkscape:collect="always"
       id="linearGradient917">
      <stop
         style="stop-color:#4d4d4d;stop-opacity:1;"
         offset="0"
         id="stop913" />
      <stop
         style="stop-color:#1a1a1a;stop-opacity:1"
         offset="1"
         id="stop915" />
    </linearGradient>
    <linearGradient
       inkscape:collect="always"
       id="linearGradient4504">
      <stop
         style="stop-color:#a3e331;stop-opacity:1"
         offset="0"
         id="stop4500" />
      <stop
         style="stop-color:#619504;stop-opacity:1"
         offset="1"
         id="stop4502" />
    </linearGradient>
    <linearGradient
       inkscape:collect="always"
       xlink:href="#linearGradient4504"
       id="linearGradient4506"
       x1="3"
       y1="24.24707"
       x2="18.669922"
       y2="24.24707"
       gradientUnits="userSpaceOnUse"
       gradientTransform="matrix(0.85714286,0,0,0.85714286,3.4285715,3.4285799)" />
    <linearGradient
       inkscape:collect="always"
       xlink:href="#linearGradient4504"
       id="linearGradient4514"
       x1="18"
       y1="24"
       x2="45"
       y2="24"
       gradientUnits="userSpaceOnUse"
       gradientTransform="matrix(0.85714286,0,0,0.85714286,3.4285715,3.4285799)" />
    <linearGradient
       inkscape:collect="always"
       xlink:href="#linearGradient917"
       id="linearGradient919"
       x1="13"
       y1="4"
       x2="44"
       y2="44"
       gradientUnits="userSpaceOnUse" />
  </defs>
  <sodipodi:namedview
     pagecolor="#ffffff"
     bordercolor="#666666"
     borderopacity="1"
     objecttolerance="10"
     gridtolerance="10"
     guidetolerance="10"
     inkscape:pageopacity="0"
     inkscape:pageshadow="2"
     inkscape:window-width="1920"
     inkscape:window-height="1026"
     id="namedview12"
     showgrid="true"
     inkscape:zoom="9.2"
     inkscape:cx="21.847826"
     inkscape:cy="32.717391"
     inkscape:window-x="0"
     inkscape:window-y="30"
     inkscape:window-maximized="1"
     inkscape:current-layer="svg10"
     inkscape:pagecheckerboard="0">
    <inkscape:grid
       type="xygrid"
       id="grid4493" />
  </sodipodi:namedview>
  <path
     id="rect30"
     style="fill:url(#linearGradient919);stroke-width:2;stroke-linecap:round;stroke-linejoin:round;fill-opacity:1"
     d="M 5.9999998,4 H 42 c 1.107999,0 1.999998,0.8919999 1.999998,1.9999998 V 42 c 0,1.107999 -0.891999,1.999998 -1.999998,1.999998 H 5.9999998 C 4.8919999,43.999998 4,43.107999 4,42 V 5.9999998 C 4,4.8919999 4.8919999,4 5.9999998,4 Z" />
  <path
     inkscape:connector-curvature="0"
     id="path36"
     d="m 4.0000008,40.999998 v 0.999999 c 0,1.107998 0.8920025,2.000001 2.0000013,2.000001 H 42.000004 c 1.107999,0 2.000002,-0.892003 2.000002,-2.000001 v -0.999999 c 0,1.107999 -0.892003,1.999997 -2.000002,1.999997 H 6.0000021 c -1.1079988,0 -2.0000013,-0.891998 -2.0000013,-1.999997 z"
     style="opacity:0.15;fill:#ececec;fill-opacity:1;stroke:none;stroke-width:2;stroke-linecap:round;stroke-linejoin:round;stroke-miterlimit:4;stroke-dasharray:none;stroke-opacity:1" />
  <path
     style="fill:url(#linearGradient4514);fill-opacity:1;stroke-width:1.19999"
     inkscape:connector-curvature="0"
     id="path4497"
     d="m 9.6780921,22.331123 c 0,0 3.2547349,-4.838243 9.7534049,-5.33876 V 15.237017 C 12.232752,15.819013 6,21.961766 6,21.961766 c 0,0 3.5303731,10.282601 13.431497,11.224114 V 31.320134 C 12.165553,30.398541 9.6779721,22.331003 9.6779721,22.331003 Z m 9.7534049,5.278279 v 1.708667 c -5.491278,-0.986356 -7.015626,-6.737589 -7.015626,-6.737589 0,0 2.63662,-2.942736 7.015626,-3.419973 v 1.874985 c -0.0027,0 -0.0045,-9.42e-4 -0.0069,-9.42e-4 -2.298343,-0.277883 -4.093768,1.885305 -4.093768,1.885305 0,0 1.006336,3.641612 4.102168,4.689684 m 0,-15.60948 v 3.237575 c 0.211307,-0.01617 0.422613,-0.03 0.635071,-0.03729 8.183458,-0.277882 13.515496,6.762188 13.515496,6.762188 0,0 -6.124032,7.502702 -12.503904,7.502702 -0.584743,0 -1.132167,-0.05467 -1.646387,-0.146422 v 2.002064 c 0.439677,0.05616 0.895553,0.08933 1.37123,0.08933 5.937194,0 10.230881,-3.054937 14.387889,-6.670629 0.689323,0.556208 3.511293,1.909305 4.091489,2.50162 -3.95301,3.334415 -13.166299,6.022394 -18.388659,6.022394 -0.503444,0 -0.986956,-0.03069 -1.462189,-0.07689 V 35.99996 H 42 V 12.000113 H 19.432973 Z m 0,7.161185 V 16.9931 c 0.209135,-0.01251 0.419865,-0.02599 0.635071,-0.03291 5.884756,-0.186238 9.745486,5.095042 9.745486,5.095042 0,0 -4.169969,5.834955 -8.641014,5.834955 -0.643459,0 -1.220391,-0.10416 -1.739627,-0.280078 v -6.57391 c 2.290902,0.278902 2.752059,1.29851 4.129289,3.611733 l 3.063216,-2.60242 c 0,0 -2.236062,-2.954738 -6.005594,-2.954738 -0.409737,-1.41e-4 -0.801822,0.02892 -1.186827,0.07021" />
  <path
     style="fill:url(#linearGradient4506);fill-opacity:1;stroke-width:1.19999"
     d="m 19.431362,15.237732 c -7.198745,0.581996 -13.4313619,6.723214 -13.4313619,6.723214 0,0 3.530237,10.283375 13.4313619,11.224888 v -1.864955 c -7.265945,-0.921592 -9.7533489,-8.989956 -9.7533489,-8.989956 0,0 3.2546779,-4.83821 9.7533489,-5.338727 z m 0,3.922433 c -4.379007,0.477237 -7.016183,3.420201 -7.016183,3.420201 0,0 1.524905,5.751924 7.016183,6.738281 v -1.709263 c -3.094657,-1.048741 -4.099889,-4.689175 -4.099889,-4.689175 0,0 1.794849,-2.162926 4.093192,-1.885044 0.0024,0 0.004,0 0.0067,0 z"
     id="path6" />
  <path
     style="opacity:0.2;fill:#000000;fill-opacity:1;stroke-width:1.19999"
     d="m 20.067522,14.343758 c -0.212458,0.0073 -0.42318,0.02067 -0.634486,0.03683 v 0.857143 c 0.211306,-0.01617 0.422028,-0.02954 0.634486,-0.03683 6.988152,-0.237294 11.865184,4.831829 13.150112,6.326451 0.222432,-0.251286 0.36663,-0.421875 0.36663,-0.421875 0,0 -5.333285,-7.039601 -13.516742,-6.761719 z m -0.63616,1.791295 c -6.498671,0.500517 -9.7533489,5.338727 -9.7533489,5.338727 0,0 0.08384,0.241602 0.212612,0.574219 0.7908619,-1.018057 3.9620339,-4.626141 9.5407369,-5.055803 z m 1.188616,2.099331 c -0.409737,-1.42e-4 -0.801938,0.02902 -1.186942,0.07031 v 0.855469 c 0.385004,-0.04129 0.777205,-0.06878 1.186942,-0.06864 2.801959,-10e-7 4.750897,1.629537 5.569755,2.467633 L 26.625,21.189182 c 0,0 -2.23549,-2.954798 -6.005022,-2.954798 z m -1.620536,1.918526 c -2.091027,0.0087 -3.667969,1.910156 -3.667969,1.910156 0,0 0.06878,0.245793 0.220982,0.622768 0.485398,-0.507986 1.975647,-1.879974 3.87221,-1.650669 0.0024,0 0.004,0 0.0067,0 v -0.857143 c -0.0027,0 -0.0043,0 -0.0067,0 -0.143646,-0.01737 -0.285821,-0.02569 -0.425223,-0.02511 z m 10.468192,1.481585 c -0.830876,1.083524 -4.360043,5.398995 -8.295201,5.398995 -0.643459,0 -1.220162,-0.105331 -1.739397,-0.281249 v 0.857143 c 0.519235,0.175918 1.095938,0.281249 1.739397,0.281249 4.471046,10e-7 8.641741,-5.835937 8.641741,-5.835937 0,0 -0.142824,-0.179018 -0.34654,-0.420201 z m -23.2131696,0.09877 c -0.041847,0.03993 -0.2544643,0.227678 -0.2544643,0.227678 0,0 3.530237,10.283375 13.4313619,11.224888 V 32.328692 C 10.961487,31.523278 7.1783571,23.925546 6.2544644,21.733268 Z m 6.3833706,0.631138 c -0.06924,0.07044 -0.222656,0.21596 -0.222656,0.21596 0,0 1.524905,5.751924 7.016183,6.738281 v -0.85714 C 15.030945,27.67109 13.200401,23.862928 12.637835,22.364406 Z m 22.555245,1.518415 c -4.157008,3.615691 -8.451757,6.669643 -14.388951,6.669643 -0.475676,0 -0.931417,-0.03257 -1.371093,-0.08873 v 0.857143 c 0.439676,0.05616 0.895417,0.08873 1.371093,0.08873 5.937194,0 10.231943,-3.053951 14.388951,-6.669642 0.557207,0.449604 2.49027,1.414319 3.523996,2.082589 0.194894,-0.144956 0.392457,-0.290947 0.567522,-0.438616 C 38.704402,25.79162 35.882403,24.439026 35.19308,23.882819 Z M 19.433036,35.142866 v 0.857142 H 42 v -0.857142 z"
     id="path4516" />
</svg>
