<?xml version="1.0" encoding="UTF-8" standalone="no"?>
<svg
   width="48"
   height="48"
   version="1.1"
   id="svg139"
   sodipodi:docname="sheets.svg"
   inkscape:version="1.1 (c4e8f9ed74, 2021-05-24)"
   xmlns:inkscape="http://www.inkscape.org/namespaces/inkscape"
   xmlns:sodipodi="http://sodipodi.sourceforge.net/DTD/sodipodi-0.dtd"
   xmlns:xlink="http://www.w3.org/1999/xlink"
   xmlns="http://www.w3.org/2000/svg"
   xmlns:svg="http://www.w3.org/2000/svg">
  <sodipodi:namedview
     id="namedview141"
     pagecolor="#ffffff"
     bordercolor="#666666"
     borderopacity="1.0"
     inkscape:pageshadow="2"
     inkscape:pageopacity="0.0"
     inkscape:pagecheckerboard="0"
     showgrid="false"
     inkscape:zoom="8.9166667"
     inkscape:cx="13.345794"
     inkscape:cy="15.252336"
     inkscape:window-width="1920"
     inkscape:window-height="1026"
     inkscape:window-x="0"
     inkscape:window-y="30"
     inkscape:window-maximized="1"
     inkscape:current-layer="svg139" />
  <defs
     id="defs33">
    <linearGradient
       inkscape:collect="always"
       id="linearGradient1819">
      <stop
         style="stop-color:#f2f2f2;stop-opacity:1;"
         offset="0"
         id="stop1815" />
      <stop
         style="stop-color:#f9f9f9;stop-opacity:1"
         offset="1"
         id="stop1817" />
    </linearGradient>
    <linearGradient
       inkscape:collect="always"
       id="linearGradient1535">
      <stop
         style="stop-color:#c6cdd1;stop-opacity:1;"
         offset="0"
         id="stop1531" />
      <stop
         style="stop-color:#e0e5e7;stop-opacity:1"
         offset="1"
         id="stop1533" />
    </linearGradient>
    <linearGradient
       id="a"
       y1="25"
       x1="8"
       y2="44"
       x2="27"
       gradientUnits="userSpaceOnUse"
       gradientTransform="matrix(0.7,0,0,0.7,7.2,7.2)">
      <stop
         id="stop2" />
      <stop
         offset="1"
         stop-opacity="0"
         id="stop4" />
    </linearGradient>
    <linearGradient
       id="b"
       y1="44"
       y2="18"
       x2="0"
       gradientUnits="userSpaceOnUse"
       gradientTransform="translate(0.01355665,-7.8152597)">
      <stop
         stop-color="#c6cdd1"
         id="stop7" />
      <stop
         offset="1"
         stop-color="#e0e5e7"
         id="stop9" />
    </linearGradient>
    <linearGradient
       id="c"
       y1="20"
       y2="16"
       x2="0"
       gradientUnits="userSpaceOnUse">
      <stop
         stop-color="#06a370"
         id="stop12" />
      <stop
         offset="1"
         stop-color="#22d1b0"
         id="stop14" />
    </linearGradient>
    <linearGradient
       xlink:href="#c"
       id="d"
       y1="21"
       y2="4"
       x2="0"
       gradientUnits="userSpaceOnUse" />
    <linearGradient
       xlink:href="#c"
       id="e"
       y1="15"
       y2="4"
       x2="0"
       gradientUnits="userSpaceOnUse" />
    <linearGradient
       xlink:href="#c"
       id="f"
       y1="16"
       y2="7"
       x2="0"
       gradientUnits="userSpaceOnUse" />
    <linearGradient
       xlink:href="#c"
       id="g"
       y1="17"
       y2="10"
       x2="0"
       gradientUnits="userSpaceOnUse" />
    <linearGradient
       id="h"
       y1="17"
       y2="8"
       x2="0"
       gradientUnits="userSpaceOnUse">
      <stop
         stop-color="#c61423"
         id="stop21" />
      <stop
         offset="1"
         stop-color="#dc2b41"
         id="stop23" />
    </linearGradient>
    <linearGradient
       xlink:href="#h"
       id="i"
       y1="17"
       y2="12"
       x2="0"
       gradientUnits="userSpaceOnUse" />
    <linearGradient
       xlink:href="#h"
       id="j"
       y1="21"
       y2="12"
       x2="0"
       gradientUnits="userSpaceOnUse" />
    <linearGradient
       id="k"
       y1="25"
       y2="10"
       x2="0"
       gradientUnits="userSpaceOnUse"
       gradientTransform="matrix(0.7,0,0,0.7,7.2,7.2)">
      <stop
         stop-color="#f39c12"
         id="stop28" />
      <stop
         offset="1"
         stop-color="#f5ab35"
         id="stop30" />
    </linearGradient>
    <linearGradient
       inkscape:collect="always"
       xlink:href="#c"
       id="linearGradient969"
       gradientUnits="userSpaceOnUse"
       y1="20"
       x2="0"
       y2="16" />
    <linearGradient
       inkscape:collect="always"
       xlink:href="#h"
       id="linearGradient971"
       gradientUnits="userSpaceOnUse"
       y1="17"
       x2="0"
       y2="8" />
    <linearGradient
       inkscape:collect="always"
       xlink:href="#linearGradient1535"
       id="linearGradient1009"
       x1="44"
       y1="44"
       x2="44"
       y2="24"
       gradientUnits="userSpaceOnUse"
       gradientTransform="matrix(0.7,0,0,0.89999997,7.2,-1.5999983)" />
    <linearGradient
       inkscape:collect="always"
       xlink:href="#linearGradient1819"
       id="linearGradient1821"
       x1="44"
       y1="44"
       x2="15.746284"
       y2="-2.0136833"
       gradientUnits="userSpaceOnUse" />
    <linearGradient
       inkscape:collect="always"
       xlink:href="#a"
       id="linearGradient3478"
       x1="15.004659"
       y1="3.1919875"
       x2="28.3536"
       y2="18.123426"
       gradientUnits="userSpaceOnUse" />
    <linearGradient
       inkscape:collect="always"
       xlink:href="#a"
       id="linearGradient4890"
       x1="6"
       y1="4"
       x2="38"
       y2="38"
       gradientUnits="userSpaceOnUse" />
  </defs>
  <path
     id="rect30"
     style="fill:url(#linearGradient1821);stroke-width:2;stroke-linecap:round;stroke-linejoin:round"
     d="m 6,4 h 36 c 1.108,0 2,0.892 2,2 v 36 c 0,1.108 -0.892,2 -2,2 H 6 C 4.892,44 4,43.108 4,42 V 6 C 4,4.892 4.892,4 6,4 Z" />
  <path
     id="rect6837"
     style="opacity:0.5;fill:#95f1cb;fill-opacity:1;stroke-width:0.615425"
     d="M 9.9999998,3.9999996 V 10 h -6 v 1 h 6 v 8 h -6 v 1 h 6 v 8 h -6 v 1 h 6 v 8 h -6 v 1 h 6 v 6 H 11 v -6 h 8 v 6 h 1 v -6 h 8 v 6 h 1 v -6 h 8 v 6 h 1 v -6 h 6 v -1 h -6 v -8 h 6 v -1 h -6 v -8 h 6 v -1 h -6 v -8 h 6 V 10 H 38 V 3.9999996 H 37 V 10 H 29 V 3.9999996 H 28 V 10 H 20 V 3.9999996 H 19 V 10 H 11 V 3.9999996 Z M 11,11 h 8 v 8 h -8 z m 9,0 h 8 v 8 h -8 z m 9,0 h 8 v 8 h -8 z m -18,9 h 8 v 8 h -8 z m 9,0 h 8 v 8 h -8 z m 9,0 h 8 v 8 h -8 z m -18,9 h 8 v 8 h -8 z m 9,0 h 8 v 8 h -8 z m 9,0 h 8 v 8 h -8 z" />
  <rect
     style="fill:url(#linearGradient1009);fill-opacity:1;stroke-width:0.762123"
     id="rect921"
     width="28"
     height="18"
     x="10"
     y="20" />
  <path
     id="rect2211"
     style="opacity:0.2;fill:url(#linearGradient4890);fill-opacity:1;stroke-width:0.49793"
     d="M 38,20 V 38 H 10 l 6,6 h 26 c 1.108,0 2,-0.892 2,-2 V 26 Z" />
  <path
     id="rect3102"
     style="fill:url(#linearGradient3478);stroke-width:1.23718;fill-opacity:1;opacity:0.2"
     d="M 18.400391 10 L 18.400391 15.599609 L 18.400391 16 L 18.400391 24.300781 L 35.199219 24.300781 L 35.199219 15.599609 L 30.300781 15.599609 L 26.800781 12.099609 L 26.800781 15.599609 L 24 15.599609 L 18.400391 10 z M 32.400391 10 L 32.400391 12.800781 L 35.199219 12.800781 L 32.400391 10 z " />
  <g
     stroke-linejoin="bevel"
     stroke-linecap="round"
     stroke-width="2"
     id="g129"
     transform="matrix(0.7,0,0,0.7,7.2,7.2)">
    <rect
       width="4"
       x="8"
       y="16"
       fill="url(#c)"
       height="9"
       id="rect37"
       style="fill:url(#linearGradient969);stroke-width:2" />
    <rect
       width="4"
       x="12"
       y="4"
       fill="url(#d)"
       height="21"
       id="rect39"
       style="fill:url(#d);stroke-width:2" />
    <rect
       width="4"
       x="16"
       y="12"
       fill="url(#j)"
       height="13"
       id="rect41"
       style="fill:url(#j);stroke-width:2" />
    <rect
       width="4"
       x="20"
       y="10"
       fill="url(#g)"
       height="15"
       id="rect43"
       style="fill:url(#g);stroke-width:2" />
    <rect
       width="4"
       x="24"
       y="7"
       fill="url(#f)"
       height="18"
       id="rect45"
       style="fill:url(#f);stroke-width:2" />
    <rect
       width="4"
       x="28"
       y="12"
       fill="url(#i)"
       height="13"
       id="rect47"
       style="fill:url(#i);stroke-width:2" />
    <rect
       width="4"
       x="32"
       y="4"
       fill="url(#e)"
       height="21"
       id="rect49"
       style="fill:url(#e);stroke-width:2" />
    <rect
       width="4"
       x="36"
       y="8"
       fill="url(#h)"
       height="17"
       id="rect51"
       style="fill:url(#linearGradient971);stroke-width:1.99999" />
    <g
       fill="#eff0f1"
       id="g85">
      <rect
         width="4"
         x="8"
         y="31"
         height="3"
         id="rect53" />
      <rect
         width="4"
         x="8"
         y="39"
         height="3"
         id="rect55" />
      <rect
         width="4"
         x="8"
         y="27"
         height="3"
         id="rect57" />
      <rect
         width="4"
         x="14"
         y="31"
         height="3"
         id="rect59" />
      <rect
         width="4"
         x="14"
         y="39"
         height="3"
         id="rect61" />
      <rect
         width="4"
         x="14"
         y="27"
         height="3"
         id="rect63" />
      <rect
         width="12"
         x="20"
         y="31"
         height="3"
         id="rect65" />
      <rect
         width="12"
         x="20"
         y="39"
         height="3"
         id="rect67" />
      <rect
         width="12"
         x="20"
         y="27"
         height="3"
         id="rect69" />
      <rect
         width="6"
         x="34"
         y="31"
         height="3"
         id="rect71" />
      <rect
         width="6"
         x="34"
         y="39"
         height="3"
         id="rect73" />
      <rect
         width="6"
         x="34"
         y="27"
         height="3"
         id="rect75" />
      <rect
         width="4"
         x="8"
         y="35"
         height="3"
         id="rect77" />
      <rect
         width="4"
         x="14"
         y="35"
         height="3"
         id="rect79" />
      <rect
         width="12"
         x="20"
         y="35"
         height="3"
         id="rect81" />
      <rect
         width="6"
         x="34"
         y="35"
         height="3"
         id="rect83" />
    </g>
    <rect
       width="1"
       x="9"
       y="28"
       fill="#4d4d4d"
       height="1"
       id="rect87" />
    <rect
       width="2"
       x="9"
       y="32"
       fill="#c0392b"
       height="1"
       id="rect89" />
    <rect
       width="1"
       x="9"
       y="36"
       fill="#4d4d4d"
       height="1"
       id="rect91" />
    <rect
       width="2"
       x="9"
       y="40"
       fill="#258e52"
       height="1"
       id="rect93" />
    <rect
       width="1"
       x="15"
       y="40"
       fill="#4d4d4d"
       height="1"
       id="rect95" />
    <rect
       width="1"
       x="15"
       y="36"
       fill="#258e52"
       height="1"
       id="rect97" />
    <rect
       width="1"
       x="15"
       y="32"
       fill="#c0392b"
       height="1"
       id="rect99" />
    <g
       fill="#4d4d4d"
       id="g105">
      <rect
         width="1"
         x="15"
         y="28"
         height="1"
         id="rect101" />
      <rect
         width="4"
         x="21"
         y="28"
         height="1"
         id="rect103" />
    </g>
    <g
       fill="#258e52"
       id="g113">
      <rect
         width="2"
         x="21"
         y="32"
         height="1"
         id="rect107" />
      <rect
         width="2"
         x="24"
         y="32"
         height="1"
         id="rect109" />
      <rect
         width="3"
         x="21"
         y="36"
         height="1"
         id="rect111" />
    </g>
    <g
       fill="#c0392b"
       id="g119">
      <rect
         width="7"
         x="21"
         y="40"
         height="1"
         id="rect115" />
      <rect
         width="1"
         x="29"
         y="40"
         height="1"
         id="rect117" />
    </g>
    <rect
       width="3"
       x="35"
       y="28"
       fill="#258e52"
       height="1"
       id="rect121" />
    <rect
       width="1"
       x="35"
       y="32"
       fill="#4d4d4d"
       height="1"
       id="rect123" />
    <rect
       width="2"
       x="35"
       y="36"
       fill="#c0392b"
       height="1"
       id="rect125" />
    <rect
       width="3"
       x="35"
       y="40"
       fill="#4d4d4d"
       height="1"
       id="rect127" />
  </g>
  <path
     opacity="0.2"
     fill="url(#a)"
     fill-rule="evenodd"
     d="M 12.8,24.7 26.1,38 H 38 V 27.5 l -2.8,-2.8 z"
     id="path131"
     style="fill:url(#a);stroke-width:0.7" />
  <path
     fill="url(#k)"
     fill-rule="evenodd"
     d="m 12.8,24.7 v -2.1 c 1.4,0 1.4,-2.1 2.8,-2.1 1.4,0 1.05,2.8 2.8,2.8 1.75,0 1.4,-2.8 2.8,-2.8 1.4,0 1.4,-2.8 2.8,-2.8 1.4,0 1.4,2.8 2.8,2.8 1.4,0 1.4,-1.4 2.8,-1.4 1.4,0 1.4,-3.5 2.8,-3.5 1.4,0 1.4,4.9 2.8,4.9 v 4.2 z"
     id="path135"
     style="fill:url(#k);stroke-width:0.7" />
  <rect
     width="22.4"
     x="12.8"
     y="24"
     fill="#2e3132"
     height="0.69999999"
     fill-opacity="0.294"
     id="rect137"
     style="stroke-width:0.7" />
  <path
     style="color:#000000;fill:#c1c1c1;stroke-linecap:round;stroke-linejoin:round;-inkscape-stroke:none"
     d="M 6.228516,4 C 4.998743,4 4,4.998743 4,6.228516 V 41.771484 C 4,43.001257 4.998743,44 6.228516,44 H 41.771484 C 43.001257,44 44,43.001257 44,41.771484 V 6.228516 C 44,4.998743 43.001257,4 41.771484,4 Z m 0,0.50586 h 35.542968 c 0.958192,0 1.722657,0.764464 1.722657,1.722656 v 35.542968 c 0,0.958192 -0.764465,1.722657 -1.722657,1.722657 H 6.228516 c -0.958192,0 -1.722657,-0.764465 -1.722657,-1.722657 V 6.228516 c 0,-0.958192 0.764465,-1.722656 1.722657,-1.722656 z"
     id="rect30-0" />
  <path
     inkscape:connector-curvature="0"
     id="path36"
     d="m 4,41 v 1 c 0,1.108 0.892,2 2,2 h 36 c 1.108,0 2,-0.892 2,-2 v -1 c 0,1.108 -0.892,2 -2,2 H 6 C 4.892,43 4,42.108 4,41 Z"
     style="opacity:0.15;fill:#000000;fill-opacity:1;stroke:none;stroke-width:2;stroke-linecap:round;stroke-linejoin:round;stroke-miterlimit:4;stroke-dasharray:none;stroke-opacity:1" />
</svg>
