<?xml version="1.0" encoding="UTF-8" standalone="no"?>
<svg
   width="48"
   height="48"
   version="1.1"
   id="svg61"
   sodipodi:docname="utilities-system-monitor.svg"
   inkscape:version="1.1 (c4e8f9ed74, 2021-05-24)"
   xmlns:inkscape="http://www.inkscape.org/namespaces/inkscape"
   xmlns:sodipodi="http://sodipodi.sourceforge.net/DTD/sodipodi-0.dtd"
   xmlns:xlink="http://www.w3.org/1999/xlink"
   xmlns="http://www.w3.org/2000/svg"
   xmlns:svg="http://www.w3.org/2000/svg">
  <sodipodi:namedview
     id="namedview63"
     pagecolor="#ffffff"
     bordercolor="#666666"
     borderopacity="1.0"
     inkscape:pageshadow="2"
     inkscape:pageopacity="0.0"
     inkscape:pagecheckerboard="0"
     showgrid="false"
     inkscape:zoom="6.46875"
     inkscape:cx="15.690821"
     inkscape:cy="28.753623"
     inkscape:window-width="1489"
     inkscape:window-height="800"
     inkscape:window-x="45"
     inkscape:window-y="180"
     inkscape:window-maximized="0"
     inkscape:current-layer="svg61" />
  <defs
     id="defs33">
    <linearGradient
       id="a"
       y1="543.8"
       y2="503.8"
       x2="0"
       gradientUnits="userSpaceOnUse">
      <stop
         stop-color="#2a2c2f"
         id="stop2" />
      <stop
         offset="1"
         stop-color="#424649"
         id="stop4" />
    </linearGradient>
    <linearGradient
       id="b"
       y1="44"
       y2="12"
       x2="0"
       gradientUnits="userSpaceOnUse">
      <stop
         stop-color="#77b76b"
         id="stop7" />
      <stop
         offset="1"
         stop-color="#58b4b4"
         id="stop9" />
    </linearGradient>
    <linearGradient
       id="c"
       y1="21"
       y2="15"
       x2="0"
       gradientUnits="userSpaceOnUse">
      <stop
         stop-color="#b8ddd2"
         id="stop12" />
      <stop
         offset="1"
         stop-color="#c4e4dd"
         id="stop14" />
    </linearGradient>
    <linearGradient
       xlink:href="#c"
       id="d"
       y1="21"
       y2="15"
       x2="0"
       gradientUnits="userSpaceOnUse"
       gradientTransform="translate(406.57 509.8)" />
    <linearGradient
       id="e"
       y1="15"
       x1="9"
       y2="21.928"
       x2="13"
       gradientUnits="userSpaceOnUse">
      <stop
         stop-color="#ffffff"
         id="stop18" />
      <stop
         offset="1"
         stop-color="#ffffff"
         stop-opacity="0"
         id="stop20" />
    </linearGradient>
    <linearGradient
       xlink:href="#e"
       id="f"
       y1="23"
       x1="46"
       y2="30"
       gradientUnits="userSpaceOnUse"
       x2="39" />
    <linearGradient
       xlink:href="#e"
       id="g"
       y1="46"
       y2="38"
       gradientUnits="userSpaceOnUse"
       x2="0" />
    <linearGradient
       id="h"
       y1="15"
       x1="10"
       y2="41"
       x2="36"
       gradientUnits="userSpaceOnUse">
      <stop
         stop-color="#292c2f"
         id="stop25" />
      <stop
         offset="1"
         stop-opacity="0"
         id="stop27" />
    </linearGradient>
    <linearGradient
       xlink:href="#h"
       id="i"
       y1="11"
       x1="6"
       y2="27"
       gradientUnits="userSpaceOnUse"
       x2="22"
       gradientTransform="translate(22,10)" />
    <path
       fill-rule="evenodd"
       id="j"
       d="m24 30c-5-3-5-13-12-12-5.639.806-4.793 8.099-10 11.428v14.572h44v-11.512c-1.633.149-3 1.512-5-.488-8-10-10.414 1.088-17-2" />
    <path
       fill-rule="evenodd"
       id="k"
       d="m12.637 17.938c-.205.01-.418.031-.637.063-5.639.806-4.793 8.099-10 11.428v1c5.207-3.329 4.361-10.622 10-11.428 7-1 7 9 12 12 6.586 3.088 9-8 17 2 2 2 3.367.637 5 .488v-1c-1.633.149-3 1.512-5-.488-8-10-10.414 1.088-17-2-4.844-2.906-4.995-12.382-11.363-12.06" />
    <linearGradient
       inkscape:collect="always"
       xlink:href="#a"
       id="linearGradient999"
       x1="44"
       y1="43.999989"
       x2="44"
       y2="3.9999878"
       gradientUnits="userSpaceOnUse" />
    <linearGradient
       inkscape:collect="always"
       xlink:href="#e"
       id="linearGradient2786"
       gradientUnits="userSpaceOnUse"
       x1="9"
       y1="15"
       x2="13"
       y2="21.928" />
    <linearGradient
       id="a-5"
       y1="543.79999"
       y2="503.79999"
       x2="0"
       gradientUnits="userSpaceOnUse">
      <stop
         stop-color="#2a2c2f"
         id="stop2-3" />
      <stop
         offset="1"
         stop-color="#424649"
         id="stop4-5" />
    </linearGradient>
    <linearGradient
       id="a-2"
       y1="543.79999"
       y2="503.79999"
       x2="0"
       gradientUnits="userSpaceOnUse">
      <stop
         stop-color="#2a2c2f"
         id="stop2-9" />
      <stop
         offset="1"
         stop-color="#424649"
         id="stop4-1" />
    </linearGradient>
  </defs>
  <rect
     id="rect30"
     ry="1.9999999"
     rx="1.9999999"
     y="3.9999878"
     x="4"
     height="40"
     width="40"
     style="fill:url(#linearGradient999);fill-opacity:1;stroke:none;stroke-width:2;stroke-linecap:round;stroke-linejoin:round;stroke-miterlimit:4;stroke-dasharray:none;stroke-opacity:1" />
  <g
     transform="translate(-384.57,-499.8)"
     id="g59">
    <g
       transform="translate(384.57,499.8)"
       id="g47">
      <path
         id="path37"
         d="m 14.332031,17.935547 c -0.423,-0.018 -0.875468,5.94e-4 -1.355469,0.05859 C 7.630476,18.636707 7.592797,23.745718 4,27.107422 V 42.001953 H 44 V 30.105469 c -8.141491,-7.78521 -10.848309,1.734791 -17.849609,-1.03125 -5.145,-2.597 -5.46736,-10.874672 -11.81836,-11.138672 z"
         style="opacity:0.11" />
      <path
         id="use39"
         style="fill:url(#b)"
         d="m 13.216797,17.935547 c -0.187213,-0.0086 -0.381054,-0.008 -0.580078,0.002 C 12.431274,17.947768 12.21875,17.96875 12,18 7.2195472,18.683285 7.0980786,24.027915 4,27.667969 V 42 c 0,1.108 0.8920001,2 2,2 h 36 c 1.108,0 2,-0.892 2,-2 V 32.974609 C 43.095209,33.180222 42.153417,33.153417 41,32 33,22 30.586,33.088 24,30 19.307617,27.18457 19.020387,18.203398 13.216797,17.935547 Z" />
      <path
         id="use41"
         style="fill:url(#linearGradient2786)"
         d="M 12.636719,17.9375 C 12.431719,17.9475 12.219,17.96995 12,18.00195 7.2196093,18.685226 7.097961,24.027915 4,27.667966 v 1 c 3.097961,-3.640051 3.2196093,-8.98274 8,-9.666016 7,-1 7,9 12,12 6.586,3.088 9,-8 17,2 1.153519,1.153519 2.095136,1.178879 3,0.972656 v -1 c -0.904864,0.206223 -1.846481,0.180863 -3,-0.972656 -8,-10 -10.414,1.088 -17,-2 -4.844,-2.906 -4.995281,-12.382547 -11.363281,-12.060547 z" />
      <path
         id="use43"
         style="fill:url(#f)"
         d="M 12.636719,17.9375 C 12.431719,17.9475 12.219,17.96995 12,18.00195 7.2195472,18.685235 7.0980786,24.029923 4,27.669919 v 1 c 3.0980786,-3.639996 3.2195472,-8.984684 8,-9.667969 7,-1 7,9 12,12 6.586,3.088 9,-8 17,2 1.153519,1.153519 2.095136,1.178409 3,0.972656 v -1 c -0.904864,0.205753 -1.846481,0.180863 -3,-0.972656 -8,-10 -10.414,1.088 -17,-2 -4.844,-2.906 -4.995281,-12.382547 -11.363281,-12.060547 z" />
      <path
         id="path45"
         style="opacity:0.2;fill:url(#i)"
         d="m 34,25 v 1 h -1 v 1 h -1 l 12,12 v -4 l -6,-6 z m 4,0 v 2 h -1 l 7,7 v -3 z m -6,4 v 2 L 44,43 V 40 L 33,29 Z" />
    </g>
    <path
       fill="url(#d)"
       d="m 416.57,524.8 v 2 h 1 v -1 h 1 v -1 z m 4,0 v 1 h 1 v 1 h 1 v -2 z m -4,4 v 2 h 2 v -1 h -1 v -1 z m 5,0 v 1 h -1 v 1 h 2 v -2 z"
       id="path49" />
    <path
       id="use51"
       style="opacity:0.3;fill:url(#g)"
       d="m 13.216797,17.935547 c -0.187213,-0.0086 -0.381054,-0.008 -0.580078,0.002 C 12.431274,17.947768 12.21875,17.96875 12,18 7.2195472,18.683285 7.0980786,24.027915 4,27.667969 V 42 c 0,1.108 0.8920001,2 2,2 h 36 c 1.108,0 2,-0.892 2,-2 V 32.974609 C 43.095209,33.180222 42.153417,33.153417 41,32 33,22 30.586,33.088 24,30 19.307617,27.18457 19.020387,18.203398 13.216797,17.935547 Z"
       transform="translate(384.57,499.8)" />
    <path
       opacity="0.2"
       fill="url(#h)"
       fill-rule="evenodd"
       d="m 12,15 v 1 h -1 v 1 h -1 l 27,27 h 4 L 16,19 Z m 4,0 v 2 h -1 l 27,27 h 3 z m -6,4 v 2 l 23,23 h 3 L 11,19 Z"
       id="path53"
       transform="translate(384.57,499.8)" />
    <path
       fill="url(#c)"
       d="m 10,15 v 2 h 1 v -1 h 1 v -1 z m 4,0 v 1 h 1 v 1 h 1 v -2 z m -4,4 v 2 h 2 v -1 h -1 v -1 z m 5,0 v 1 h -1 v 1 h 2 v -2 z"
       transform="translate(384.57,499.8)"
       id="path55" />
  </g>
  <path
     inkscape:connector-curvature="0"
     id="path36"
     d="m 4.0000023,40.999986 v 0.999999 c 0,1.107999 0.892002,2.000001 2.000001,2.000001 H 42.000006 c 1.107999,0 2.000002,-0.892002 2.000002,-2.000001 v -0.999999 c 0,1.107999 -0.892003,1.999998 -2.000002,1.999998 H 6.0000033 c -1.107999,0 -2.000001,-0.891999 -2.000001,-1.999998 z"
     style="opacity:1;fill:#498d48;fill-opacity:1;stroke:none;stroke-width:2;stroke-linecap:round;stroke-linejoin:round;stroke-miterlimit:4;stroke-dasharray:none;stroke-opacity:1" />
</svg>
