<?xml version="1.0" encoding="UTF-8" standalone="no"?>
<!-- Created with Inkscape (http://www.inkscape.org/) -->

<svg
   width="64"
   version="1.1"
   height="64"
   id="svg23"
   sodipodi:docname="media-flash-memory-stick.svg"
   inkscape:version="1.1 (c4e8f9ed74, 2021-05-24)"
   xmlns:inkscape="http://www.inkscape.org/namespaces/inkscape"
   xmlns:sodipodi="http://sodipodi.sourceforge.net/DTD/sodipodi-0.dtd"
   xmlns:xlink="http://www.w3.org/1999/xlink"
   xmlns="http://www.w3.org/2000/svg"
   xmlns:svg="http://www.w3.org/2000/svg">
  <sodipodi:namedview
     id="namedview25"
     pagecolor="#ffffff"
     bordercolor="#666666"
     borderopacity="1.0"
     inkscape:pageshadow="2"
     inkscape:pageopacity="0.0"
     inkscape:pagecheckerboard="0"
     showgrid="false"
     inkscape:zoom="10.765625"
     inkscape:cx="31.953556"
     inkscape:cy="32"
     inkscape:window-width="1920"
     inkscape:window-height="1021"
     inkscape:window-x="0"
     inkscape:window-y="29"
     inkscape:window-maximized="1"
     inkscape:current-layer="layer1" />
  <defs
     id="defs5455">
    <linearGradient
       inkscape:collect="always"
       id="linearGradient4158"
       xlink:href="#linearGradient4271"
       x1="432.23273"
       gradientUnits="userSpaceOnUse"
       x2="401.07935"
       gradientTransform="matrix(0 1.0271756 1 0 -499.79799 -395.97889)" />
    <linearGradient
       inkscape:collect="always"
       id="linearGradient4271">
      <stop
         style="stop-color:#2a2c2f"
         id="stop4273" />
      <stop
         offset="1"
         style="stop-color:#424649"
         id="stop4275" />
    </linearGradient>
  </defs>
  <metadata
     id="metadata5458" />
  <g
     inkscape:label="Capa 1"
     inkscape:groupmode="layer"
     id="layer1"
     transform="translate(-376.57144,-491.79797)">
    <path
       style="fill:url(#linearGradient4158)"
       id="rect4139"
       d="m 6,16 v 25 l 7,7 h 8 2 5 2 28 V 42.638672 A 4,4 0 0 1 57,40 4,4 0 0 1 58,37.361328 V 16 H 33 20 Z"
       transform="translate(376.57144,491.79797)" />
    <path
       style="fill:#1c1e20;stroke-width:2.8;stroke-opacity:0.550265"
       id="rect4492"
       d="m 12,47 1,1 H 58 V 47 H 13 Z"
       transform="translate(376.57144,491.79797)" />
    <path
       inkscape:connector-curvature="0"
       style="fill:#afc0c6"
       id="rect4604"
       d="m 414.57144,529.79797 v 1 h 12 v -1 z m 0,2 v 1 h 18 v -1 z m 0,2 v 1 h 8 v -1 z m 0,2 v 1 h 5 v -1 z" />
    <path
       inkscape:connector-curvature="0"
       style="fill:#afc0c6"
       id="rect4618"
       d="m 391.57144,532.79797 v 1 h 5 v -1 z m 0,2 v 1 h 2 v -1 z" />
    <path
       inkscape:connector-curvature="0"
       style="fill:#dfe6e8;fill-rule:evenodd"
       id="path4616"
       d="m 432.57144,511.79799 -1.00001,0.99998 -0.99999,-0.99998 z" />
  </g>
</svg>
