<?xml version="1.0" encoding="UTF-8" standalone="no"?>
<svg
   xmlns:dc="http://purl.org/dc/elements/1.1/"
   xmlns:cc="http://creativecommons.org/ns#"
   xmlns:rdf="http://www.w3.org/1999/02/22-rdf-syntax-ns#"
   xmlns:svg="http://www.w3.org/2000/svg"
   xmlns="http://www.w3.org/2000/svg"
   xmlns:xlink="http://www.w3.org/1999/xlink"
   xmlns:sodipodi="http://sodipodi.sourceforge.net/DTD/sodipodi-0.dtd"
   xmlns:inkscape="http://www.inkscape.org/namespaces/inkscape"
   width="48"
   height="48"
   version="1"
   id="svg24"
   sodipodi:docname="dino.svg"
   inkscape:version="0.92.3 (2405546, 2018-03-11)">
  <metadata
     id="metadata30">
    <rdf:RDF>
      <cc:Work
         rdf:about="">
        <dc:format>image/svg+xml</dc:format>
        <dc:type
           rdf:resource="http://purl.org/dc/dcmitype/StillImage" />
      </cc:Work>
    </rdf:RDF>
  </metadata>
  <defs
     id="defs28">
    <linearGradient
       inkscape:collect="always"
       id="linearGradient875">
      <stop
         style="stop-color:#000000;stop-opacity:1;"
         offset="0"
         id="stop871" />
      <stop
         style="stop-color:#000000;stop-opacity:0;"
         offset="1"
         id="stop873" />
    </linearGradient>
    <linearGradient
       inkscape:collect="always"
       id="linearGradient860">
      <stop
         style="stop-color:#ffffff;stop-opacity:1;"
         offset="0"
         id="stop856" />
      <stop
         style="stop-color:#ffffff;stop-opacity:0;"
         offset="1"
         id="stop858" />
    </linearGradient>
    <linearGradient
       inkscape:collect="always"
       id="linearGradient852">
      <stop
         style="stop-color:#00776c;stop-opacity:1;"
         offset="0"
         id="stop848" />
      <stop
         style="stop-color:#00c5b3;stop-opacity:1"
         offset="1"
         id="stop850" />
    </linearGradient>
    <linearGradient
       inkscape:collect="always"
       id="linearGradient844">
      <stop
         style="stop-color:#2f3e45;stop-opacity:1;"
         offset="0"
         id="stop840" />
      <stop
         style="stop-color:#3e515a;stop-opacity:1"
         offset="1"
         id="stop842" />
    </linearGradient>
    <radialGradient
       inkscape:collect="always"
       xlink:href="#linearGradient844"
       id="radialGradient846"
       cx="26.976113"
       cy="23.591665"
       fx="26.976113"
       fy="23.591665"
       r="17.023887"
       gradientTransform="matrix(1,0,0,1.1508338,0,-3.5584211)"
       gradientUnits="userSpaceOnUse" />
    <linearGradient
       inkscape:collect="always"
       xlink:href="#linearGradient852"
       id="linearGradient854"
       x1="35.129902"
       y1="44.29142"
       x2="21.485058"
       y2="12.085425"
       gradientUnits="userSpaceOnUse" />
    <linearGradient
       inkscape:collect="always"
       xlink:href="#linearGradient860"
       id="linearGradient862"
       x1="11.230592"
       y1="18.002306"
       x2="14.461952"
       y2="26.226749"
       gradientUnits="userSpaceOnUse" />
    <linearGradient
       inkscape:collect="always"
       xlink:href="#linearGradient875"
       id="linearGradient877"
       x1="9.7404366"
       y1="17.756628"
       x2="21.579983"
       y2="29.596174"
       gradientUnits="userSpaceOnUse" />
  </defs>
  <sodipodi:namedview
     pagecolor="#ffffff"
     bordercolor="#666666"
     borderopacity="1"
     objecttolerance="10"
     gridtolerance="10"
     guidetolerance="10"
     inkscape:pageopacity="0"
     inkscape:pageshadow="2"
     inkscape:window-width="1920"
     inkscape:window-height="1020"
     id="namedview26"
     showgrid="false"
     inkscape:zoom="8.58"
     inkscape:cx="24"
     inkscape:cy="24"
     inkscape:window-x="0"
     inkscape:window-y="30"
     inkscape:window-maximized="1"
     inkscape:current-layer="svg24">
    <inkscape:grid
       type="xygrid"
       id="grid864" />
  </sodipodi:namedview>
  <path
     style="fill:url(#radialGradient846);fill-rule:evenodd;fill-opacity:1"
     d="m 42.421623,43.18333 c 0,0 1.958572,-3.84373 1.512227,-4.604792 -0.392391,-0.668996 -3.994539,-0.505077 -3.994539,-0.505077 0,0 2.47865,-3.41267 1.995689,-4.236086 -0.475486,-0.810657 -5.076723,-0.84875 -5.076723,-0.84875 0,0 5.074188,-2.304903 5.235979,-3.232911 0.169781,-0.972574 -4.485874,-4.487204 -4.485874,-4.487204 0,0 4.738695,-6.327666 4.374618,-7.191037 C 41.526006,16.994067 35,17 35,17 c 0,0 2.446829,-8.2670178 1.439149,-8.905 -0.84666,-0.5358119 -10.080633,2.659229 -10.080633,2.659229 0,0 -2.809869,-6.7542292 -4.374418,-6.7542292 -1.574436,0 -4.90057,6.7640082 -4.90057,6.7640082 0,0 -5.521243,-4.1950841 -6.543555,-3.614008 C 9.636166,7.6636455 10.044,14.716238 10.044,14.716238 Z"
     id="path6" />
  <g
     id="g14">
    <path
       style="fill:#73c6be;fill-opacity:1"
       d="M 38,26 C 38,35.388841 30.388841,43 21,43 13.736194,43 7.5364304,38.444299 5.1020782,32.034267 4.3899054,30.159004 5,28.125035 5,26 5,16.611159 11.764887,14.918524 21.153728,14.918524 30.542569,14.918524 38,16.611159 38,26 Z"
       id="path10" />
    <path
       style="fill:#80cbc4;fill-rule:evenodd"
       d="m 35.537456,30.916376 c 0,0 8.385019,11.787769 7.488544,12.937999 -0.87055,1.116842 -17.177092,-4.556916 -17.177092,-4.556916 z"
       id="path12" />
  </g>
  <path
     style="opacity:0.2;fill:#000000;fill-opacity:1"
     d="m 4.7753906,29.283203 c 8.359e-4,0.0187 -9.679e-4,0.03797 0,0.05664 -0.044843,0.927275 -0.00279,1.829096 0.3261719,2.695312 C 7.5359147,38.445188 13.736194,43 21,43 c 3.185978,0 6.156438,-0.893068 8.705078,-2.417969 4.864786,1.600039 12.716841,4.045687 13.320313,3.271485 0.116341,-0.149274 0.07175,-0.482832 -0.08594,-0.941407 0.03252,-0.01782 0.06728,-0.03466 0.08594,-0.05859 3.3e-4,-4.24e-4 -3.28e-4,-0.0015 0,-0.002 -0.603472,0.774203 -8.455527,-1.671445 -13.320313,-3.271484 -2.54864,1.524901 -5.5191,2.417969 -8.705078,2.417969 -7.263806,0 -13.4640853,-4.554812 -15.8984375,-10.964844 -0.2160026,-0.568769 -0.3009459,-1.153403 -0.3261719,-1.75 z M 42.945312,41.929688 c 0.06515,0.192364 0.102364,0.355356 0.123047,0.498046 -0.01968,-0.141683 -0.05799,-0.305743 -0.123047,-0.498046 z m 0.140626,0.640624 c 8.42e-4,0.02862 -3.2e-5,0.05655 -0.002,0.08203 0.0021,-0.02524 0.0026,-0.05371 0.002,-0.08203 z"
     id="path882"
     inkscape:connector-curvature="0"
     sodipodi:nodetypes="ccssccccccssccccccc" />
  <path
     style="fill:url(#linearGradient854);fill-rule:evenodd;fill-opacity:1"
     d="M 21,9 C 11.611159,9 4,16.611159 4,26 4,26.06397 4.00906,26.125652 4.00977,26.189453 4.0089704,26.256485 4,26.321454 4,26.388672 c 0,0.896295 0.072427,1.77619 0.2089844,2.634766 0.043933,0.208533 0.1150432,0.38628 0.1738281,0.578124 0.8288745,2.705037 2.9882813,3.792969 2.9882813,3.792969 0.5238817,0.423206 1.175831,0.854734 1.9277343,1.28125 h -0.0625 c 0,0 1.5771349,8.395468 4.4687499,8.324219 2.186972,-0.0539 3.903103,-4.087408 6.683594,-4 2.778078,0.08734 3.905469,3.971128 6.669922,4 1.596529,0.01667 2.982958,-2.772092 3.859375,-5 h 0.828125 c 2.628492,2.446778 8.603784,5.07369 11.192916,5.917969 0.03539,-0.01849 0.06423,-0.0391 0.08398,-0.06445 C 43.656738,43.040518 39.186635,36.077991 36.710938,32.482422 37.536734,30.483555 38,28.297136 38,26 38,16.611159 30.388841,9 21,9 Z"
     id="path16" />
  <path
     style="opacity:0.2;fill:url(#linearGradient877);fill-opacity:1;stroke:none;stroke-width:1.5531472;stroke-linecap:round;stroke-linejoin:round;stroke-miterlimit:4;stroke-dasharray:none;stroke-dashoffset:0;stroke-opacity:1;paint-order:normal"
     d="M 14.585938 19.783203 A 2 2 0 0 1 15 21 A 2 2 0 0 1 13 23 A 2 2 0 0 1 11.525391 22.347656 L 11.517578 22.361328 L 27.03125 37.875 L 29.777344 35.128906 L 29.292969 34.644531 L 29.371094 34.566406 L 14.585938 19.783203 z "
     id="rect866" />
  <circle
     style="fill:url(#linearGradient862);fill-opacity:1"
     cx="13"
     cy="21"
     r="2"
     id="circle20" />
</svg>
