<?xml version="1.0" encoding="UTF-8" standalone="no"?>
<svg
   width="48"
   version="1.1"
   height="48"
   viewBox="0 0 48 48"
   id="svg12"
   sodipodi:docname="fbmessenger.svg"
   inkscape:version="1.1 (c4e8f9ed74, 2021-05-24)"
   xmlns:inkscape="http://www.inkscape.org/namespaces/inkscape"
   xmlns:sodipodi="http://sodipodi.sourceforge.net/DTD/sodipodi-0.dtd"
   xmlns:xlink="http://www.w3.org/1999/xlink"
   xmlns="http://www.w3.org/2000/svg"
   xmlns:svg="http://www.w3.org/2000/svg"
   xmlns:rdf="http://www.w3.org/1999/02/22-rdf-syntax-ns#"
   xmlns:cc="http://creativecommons.org/ns#"
   xmlns:dc="http://purl.org/dc/elements/1.1/">
  <metadata
     id="metadata18">
    <rdf:RDF>
      <cc:Work
         rdf:about="">
        <dc:format>image/svg+xml</dc:format>
        <dc:type
           rdf:resource="http://purl.org/dc/dcmitype/StillImage" />
      </cc:Work>
    </rdf:RDF>
  </metadata>
  <defs
     id="defs16">
    <linearGradient
       inkscape:collect="always"
       id="linearGradient4521">
      <stop
         style="stop-color:#000000;stop-opacity:1;"
         offset="0"
         id="stop4517" />
      <stop
         style="stop-color:#000000;stop-opacity:0;"
         offset="1"
         id="stop4519" />
    </linearGradient>
    <linearGradient
       inkscape:collect="always"
       id="linearGradient4504">
      <stop
         style="stop-color:#ff7061;stop-opacity:1"
         offset="0"
         id="stop4500" />
      <stop
         style="stop-color:#ff5280;stop-opacity:1"
         offset="0.05013645"
         id="stop1196" />
      <stop
         style="stop-color:#a033ff;stop-opacity:1"
         offset="0.6230765"
         id="stop1582" />
      <stop
         style="stop-color:#0099ff;stop-opacity:1"
         offset="1"
         id="stop4502" />
    </linearGradient>
    <linearGradient
       inkscape:collect="always"
       xlink:href="#linearGradient4504"
       id="linearGradient4506"
       x1="34.925465"
       y1="4.9981198"
       x2="9.1782484"
       y2="42.345272"
       gradientUnits="userSpaceOnUse" />
    <linearGradient
       inkscape:collect="always"
       xlink:href="#linearGradient4521"
       id="linearGradient4523"
       x1="22.703962"
       y1="21.108391"
       x2="33.993008"
       y2="32.397434"
       gradientUnits="userSpaceOnUse" />
  </defs>
  <sodipodi:namedview
     pagecolor="#ffffff"
     bordercolor="#666666"
     borderopacity="1"
     objecttolerance="10"
     gridtolerance="10"
     guidetolerance="10"
     inkscape:pageopacity="0"
     inkscape:pageshadow="2"
     inkscape:window-width="1920"
     inkscape:window-height="1006"
     id="namedview14"
     showgrid="false"
     inkscape:zoom="11.42"
     inkscape:cx="25.218914"
     inkscape:cy="19.570928"
     inkscape:window-x="0"
     inkscape:window-y="0"
     inkscape:window-maximized="1"
     inkscape:current-layer="svg12"
     inkscape:pagecheckerboard="0" />
  <path
     d="m23.994 4c-0.56998 0.00422-1.1395 0.031591-1.707 0.082031-0.4114 0.03259-0.81493 0.085152-1.2188 0.14062-0.21405 0.027311-0.42762 0.057914-0.64062 0.091797-0.57543 0.096959-1.1403 0.21947-1.6973 0.36133-0.03648 0.00902-0.07294 0.018131-0.10938 0.027344-8.442 2.1985-14.621 9.4219-14.621 17.996 0.000101 0.06216 0.0051 0.12346 0.00586 0.18555-0.0021 0.038-0.0041 0.077-0.0059 0.115 0.00988 5.887 3.089 11.41 8 15v6l5.3047-3.1211c2.148 0.734 4.412 1.113 6.695 1.121 10.639-0.012 19.406-7.935 19.949-18.029 0.01591-0.22113 0.02754-0.44286 0.03516-0.66602 0.006-0.102 0.012-0.203 0.016-0.305-0.001-0.041-0.002-0.082-0.004-0.123 0.001-0.06 0.004-0.118 0.004-0.178 0-9.684-7.877-17.666-18.004-18.603-0.553-0.0489-1.108-0.0757-1.664-0.0804-0.112-0.0017-0.221-0.0156-0.334-0.0156z"
     fill="url(#linearGradient4506)"
     id="path2"
     style="fill:url(#linearGradient4506);fill-opacity:1" />
  <path
     style="fill:#000000;fill-opacity:1;opacity:0.2"
     d="M 43.982422 22.347656 C 43.974808 22.556255 43.964103 22.763834 43.949219 22.970703 C 43.406219 33.064703 34.639 40.988 24 41 C 21.717 40.992 19.452687 40.612906 17.304688 39.878906 L 12 43 L 12 44 L 17.304688 40.878906 C 19.452687 41.612906 21.717 41.992 24 42 C 34.639 41.988 43.406219 34.064703 43.949219 23.970703 C 43.965129 23.749573 43.976755 23.527848 43.984375 23.304688 C 43.990375 23.202687 43.996 23.102 44 23 C 43.999 22.959 43.998094 22.917953 43.996094 22.876953 C 43.997094 22.816953 44 22.759219 44 22.699219 C 44 22.580678 43.984772 22.465677 43.982422 22.347656 z M 4.0136719 22.400391 C 4.0119769 22.500615 4 22.598616 4 22.699219 C 4.000101 22.761379 4.0050994 22.822676 4.0058594 22.884766 C 4.0037594 22.922766 4.0018 22.962 4 23 C 4.00988 28.887 7.089 34.41 12 38 L 12 37 C 7.2007638 33.491701 4.1592202 28.13643 4.0136719 22.400391 z "
     id="path4495" />
  <path
     style="opacity:0.15;vector-effect:none;fill:url(#linearGradient4523);fill-opacity:1;stroke:none;stroke-width:2;stroke-linecap:round;stroke-linejoin:round;stroke-miterlimit:4;stroke-dasharray:none;stroke-dashoffset:0;stroke-opacity:1"
     d="M 38 17 L 36.873047 18.126953 L 28.634766 22.740234 L 24.289062 23.449219 L 18.732422 22.248047 L 10 29 L 22.953125 41.953125 C 23.30191 41.971736 23.649972 41.998773 24 42 C 34.639 41.988 43.406219 34.064703 43.949219 23.970703 C 43.965129 23.749573 43.976755 23.527848 43.984375 23.304688 C 43.990375 23.202687 43.996 23.102 44 23 L 38 17 z "
     id="rect4508" />
  <path
     d="m 26,29 -5,-6 -11,6 12,-12 5,6 11,-6 z"
     id="path6"
     inkscape:connector-curvature="0"
     style="fill:#ffffff" />
</svg>
