<?xml version="1.0" encoding="UTF-8" standalone="no"?>
<svg
   xmlns:dc="http://purl.org/dc/elements/1.1/"
   xmlns:cc="http://creativecommons.org/ns#"
   xmlns:rdf="http://www.w3.org/1999/02/22-rdf-syntax-ns#"
   xmlns:svg="http://www.w3.org/2000/svg"
   xmlns="http://www.w3.org/2000/svg"
   xmlns:xlink="http://www.w3.org/1999/xlink"
   xmlns:sodipodi="http://sodipodi.sourceforge.net/DTD/sodipodi-0.dtd"
   xmlns:inkscape="http://www.inkscape.org/namespaces/inkscape"
   width="48"
   height="48"
   x="0"
   y="0"
   version="1.1"
   xml:space="preserve"
   id="svg18"
   sodipodi:docname="gbrainy.svg"
   inkscape:version="0.92.3 (2405546, 2018-03-11)"><metadata
   id="metadata24"><rdf:RDF><cc:Work
       rdf:about=""><dc:format>image/svg+xml</dc:format><dc:type
         rdf:resource="http://purl.org/dc/dcmitype/StillImage" /></cc:Work></rdf:RDF></metadata><defs
   id="defs22"><linearGradient
     inkscape:collect="always"
     id="linearGradient863"><stop
       style="stop-color:#ffffff;stop-opacity:1;"
       offset="0"
       id="stop859" /><stop
       style="stop-color:#ffffff;stop-opacity:0;"
       offset="1"
       id="stop861" /></linearGradient><linearGradient
     inkscape:collect="always"
     id="linearGradient855"><stop
       style="stop-color:#000000;stop-opacity:1;"
       offset="0"
       id="stop851" /><stop
       style="stop-color:#000000;stop-opacity:0;"
       offset="1"
       id="stop853" /></linearGradient><linearGradient
     inkscape:collect="always"
     id="linearGradient839"><stop
       style="stop-color:#386fbd;stop-opacity:1"
       offset="0"
       id="stop835" /><stop
       style="stop-color:#52b3dd;stop-opacity:1"
       offset="1"
       id="stop837" /></linearGradient><linearGradient
     inkscape:collect="always"
     xlink:href="#linearGradient839"
     id="linearGradient841"
     x1="33.868271"
     y1="42.732262"
     x2="26.578997"
     y2="7.065279"
     gradientUnits="userSpaceOnUse" /><linearGradient
     inkscape:collect="always"
     xlink:href="#linearGradient855"
     id="linearGradient857"
     x1="19.45768"
     y1="9.4814615"
     x2="41.37141"
     y2="31.395193"
     gradientUnits="userSpaceOnUse" /><linearGradient
     inkscape:collect="always"
     xlink:href="#linearGradient863"
     id="linearGradient865"
     x1="19.389496"
     y1="3.4589028"
     x2="35.41156"
     y2="31.209932"
     gradientUnits="userSpaceOnUse" /></defs><sodipodi:namedview
   pagecolor="#ffffff"
   bordercolor="#666666"
   borderopacity="1"
   objecttolerance="10"
   gridtolerance="10"
   guidetolerance="10"
   inkscape:pageopacity="0"
   inkscape:pageshadow="2"
   inkscape:window-width="1920"
   inkscape:window-height="1020"
   id="namedview20"
   showgrid="false"
   inkscape:zoom="14.94"
   inkscape:cx="-0.63186039"
   inkscape:cy="21.7286"
   inkscape:window-x="0"
   inkscape:window-y="30"
   inkscape:window-maximized="1"
   inkscape:current-layer="svg18" />
 
 <path
   style="fill:url(#linearGradient841);fill-opacity:1"
   d="M 26 4 A 16 16 0 0 0 10 20 A 16 16 0 0 0 10.232422 22.71875 C 10.186513 22.825688 10.155762 22.939416 10.123047 23.052734 L 9.9179688 23.408203 L 7.2675781 28 A 2.0002 2.0002 0 0 0 9 31 L 10 31 L 10 36.158203 C 10 37.732671 11.267329 39 12.841797 39 L 18 39 L 18 41.158203 C 18 42.732671 19.267329 44 20.841797 44 L 33.158203 44 C 34.732671 44 36 42.732671 36 41.158203 L 36 32.484375 A 16 16 0 0 0 42 20 A 16 16 0 0 0 26 4 z "
   id="circle4" />
 
 
 
 
 
 
<path
   style="opacity:0.25;fill:url(#linearGradient857);fill-opacity:1;stroke:none;stroke-width:1.34044266;stroke-linecap:round;stroke-linejoin:round;stroke-miterlimit:4;stroke-dasharray:none;stroke-dashoffset:0;stroke-opacity:1;paint-order:normal"
   d="M 34.083984 11.078125 C 36.51877 13.331189 37.996652 16.556655 38 20 C 37.951677 20.992902 37.624007 21.509221 36.636719 21.988281 C 36.344931 22.240699 36.129232 22.547811 36.128906 22.970703 C 36.126873 25.578629 35.110174 27.00033 31.914062 26.96875 C 30.812398 26.957871 31.009225 27.018003 31.009766 27.101562 C 31.010299 27.185118 31.243575 27.433014 31.527344 27.898438 C 32.20573 29.011093 32.178068 29.363156 31.384766 29.724609 C 30.346185 30.197818 29.975147 30.086543 29.597656 29.185547 C 29.404096 28.723558 28.934357 28.054594 28.552734 27.699219 C 27.661528 26.869303 26.834222 24.959942 27.033203 24.441406 C 27.16353 24.101772 26.920043 24.039062 25.472656 24.039062 C 22.76174 24.039062 20.972656 23.193877 20.972656 21.708984 C 20.972656 21.031259 20.898826 20.980469 19.955078 20.980469 C 18.628655 20.980469 17.249858 20.446324 16.265625 19.525391 L 36 39.259766 L 36 32.484375 A 16 16 0 0 0 42 20 A 16 16 0 0 0 41.945312 18.912109 L 34.111328 11.078125 L 34.083984 11.078125 z M 15.923828 19.162109 L 15.910156 19.169922 L 16.078125 19.337891 C 16.024082 19.281396 15.97489 19.221168 15.923828 19.162109 z "
   id="rect843" /><path
   style="fill:url(#linearGradient865);fill-opacity:1"
   d="m 26.722656,8.0464512 c -0.318883,-0.010051 -0.641227,-0.00769 -0.96289,0.00391 -1.824965,0.065782 -3.670683,0.4796859 -5.291016,1.2050782 -1.674058,0.8720656 -3.118783,2.1267476 -4.216797,3.6621096 -1.169434,1.852561 -1.628255,4.0367 -0.902344,5.426205 0.856905,1.640248 2.783431,2.636719 4.604602,2.636719 0.943748,0 1.017578,0.05079 1.017578,0.728515 0,1.484893 1.789951,2.33084 4.500867,2.33084 1.447387,0 1.690874,0.06271 1.560547,0.402344 -0.198981,0.518536 0.628325,2.427135 1.519531,3.257051 0.381623,0.355375 0.851362,1.024339 1.044922,1.486328 0.377491,0.900996 0.748529,1.012271 1.78711,0.539062 0.793302,-0.361453 0.820964,-0.713515 0.142578,-1.826171 -0.283769,-0.465424 -0.517045,-0.712481 -0.517578,-0.796036 -5.41e-4,-0.08356 -0.197369,-0.143691 0.904296,-0.132812 3.196112,0.03158 4.212794,-1.390961 4.214827,-3.998887 3.26e-4,-0.422892 0.216434,-0.730397 0.508222,-0.982815 C 37.624399,21.508832 37.951677,20.992902 38,20 37.994997,14.85436 34.709927,10.184615 29.833984,8.5405918 29.720468,8.5072587 29.611493,8.4682236 29.496094,8.4370762 28.61593,8.2060545 27.679305,8.0766054 26.722656,8.0464512 Z"
   id="path14" /><path
   style="fill:#000000;fill-opacity:1;opacity:0.2"
   d="M 10.021484 19.419922 A 16 16 0 0 0 10 20 A 16 16 0 0 0 10.136719 22.011719 C 10.165212 21.912348 10.19216 21.812533 10.232422 21.71875 A 16 16 0 0 1 10.021484 19.419922 z M 41.976562 19.513672 A 16 16 0 0 1 36 31.484375 L 36 32.484375 A 16 16 0 0 0 42 20 A 16 16 0 0 0 41.976562 19.513672 z M 7.0644531 28.498047 A 2.0002 2.0002 0 0 0 9 31 L 10 31 L 10 30 L 9 30 A 2.0002 2.0002 0 0 1 7.0644531 28.498047 z M 10 35.158203 L 10 36.158203 C 10 37.732671 11.267329 39 12.841797 39 L 18 39 L 18 38 L 12.841797 38 C 11.267329 38 10 36.732671 10 35.158203 z M 18 40.158203 L 18 41.158203 C 18 42.732671 19.267329 44 20.841797 44 L 33.158203 44 C 34.732671 44 36 42.732671 36 41.158203 L 36 40.158203 C 36 41.732671 34.732671 43 33.158203 43 L 20.841797 43 C 19.267329 43 18 41.732671 18 40.158203 z "
   id="path870" /></svg>