<?xml version="1.0" encoding="UTF-8" standalone="no"?>
<!-- Created with Inkscape (http://www.inkscape.org/) -->

<svg
   xmlns:dc="http://purl.org/dc/elements/1.1/"
   xmlns:cc="http://creativecommons.org/ns#"
   xmlns:rdf="http://www.w3.org/1999/02/22-rdf-syntax-ns#"
   xmlns:svg="http://www.w3.org/2000/svg"
   xmlns="http://www.w3.org/2000/svg"
   xmlns:xlink="http://www.w3.org/1999/xlink"
   xmlns:sodipodi="http://sodipodi.sourceforge.net/DTD/sodipodi-0.dtd"
   xmlns:inkscape="http://www.inkscape.org/namespaces/inkscape"
   version="1.1"
   id="svg17960"
   width="48"
   height="48"
   viewBox="0 0 47.999998 47.999998"
   sodipodi:docname="marble.svg"
   inkscape:version="0.92.3 (2405546, 2018-03-11)">
  <metadata
     id="metadata17966">
    <rdf:RDF>
      <cc:Work
         rdf:about="">
        <dc:format>image/svg+xml</dc:format>
        <dc:type
           rdf:resource="http://purl.org/dc/dcmitype/StillImage" />
        <dc:title />
      </cc:Work>
    </rdf:RDF>
  </metadata>
  <defs
     id="defs17964">
    <linearGradient
       inkscape:collect="always"
       id="linearGradient913">
      <stop
         style="stop-color:#ffffff;stop-opacity:1;"
         offset="0"
         id="stop909" />
      <stop
         style="stop-color:#ffffff;stop-opacity:0;"
         offset="1"
         id="stop911" />
    </linearGradient>
    <linearGradient
       inkscape:collect="always"
       id="linearGradient905">
      <stop
         style="stop-color:#000000;stop-opacity:1;"
         offset="0"
         id="stop901" />
      <stop
         style="stop-color:#000000;stop-opacity:0;"
         offset="1"
         id="stop903" />
    </linearGradient>
    <linearGradient
       inkscape:collect="always"
       id="linearGradient837">
      <stop
         style="stop-color:#73767d;stop-opacity:1;"
         offset="0"
         id="stop833" />
      <stop
         style="stop-color:#c8c9cd;stop-opacity:1"
         offset="1"
         id="stop835" />
    </linearGradient>
    <linearGradient
       inkscape:collect="always"
       xlink:href="#linearGradient837"
       id="linearGradient839"
       x1="32.281075"
       y1="42.328079"
       x2="23.756571"
       y2="10.514196"
       gradientUnits="userSpaceOnUse" />
    <linearGradient
       inkscape:collect="always"
       xlink:href="#linearGradient837"
       id="linearGradient847"
       x1="25.273664"
       y1="8.217"
       x2="23.943335"
       y2="3.3490014"
       gradientUnits="userSpaceOnUse" />
    <linearGradient
       inkscape:collect="always"
       xlink:href="#linearGradient905"
       id="linearGradient907"
       x1="24"
       y1="26"
       x2="36.774792"
       y2="38.774792"
       gradientUnits="userSpaceOnUse" />
    <linearGradient
       inkscape:collect="always"
       xlink:href="#linearGradient913"
       id="linearGradient915"
       x1="19.948734"
       y1="9.4797554"
       x2="29.532755"
       y2="45.247803"
       gradientUnits="userSpaceOnUse" />
  </defs>
  <sodipodi:namedview
     pagecolor="#ffffff"
     bordercolor="#666666"
     borderopacity="1"
     objecttolerance="10"
     gridtolerance="10"
     guidetolerance="10"
     inkscape:pageopacity="0"
     inkscape:pageshadow="2"
     inkscape:window-width="1920"
     inkscape:window-height="1020"
     id="namedview17962"
     showgrid="true"
     inkscape:zoom="13.94"
     inkscape:cx="12.515047"
     inkscape:cy="27.791213"
     inkscape:window-x="0"
     inkscape:window-y="30"
     inkscape:window-maximized="1"
     inkscape:current-layer="svg17960">
    <inkscape:grid
       type="xygrid"
       id="grid821" />
  </sodipodi:namedview>
  <path
     style="opacity:1;fill:url(#linearGradient847);fill-opacity:1;stroke:none;stroke-width:3.68673754;stroke-linecap:round;stroke-linejoin:round;stroke-miterlimit:4;stroke-dasharray:none;stroke-dashoffset:0;stroke-opacity:1;paint-order:normal"
     d="M 22 3 C 20.892 3 20 3.892 20 5 L 20 9 C 20 10.108 20.892 11 22 11 L 26 11 C 27.108 11 28 10.108 28 9 L 28 5 C 28 3.892 27.108 3 26 3 L 22 3 z M 24 4 A 1 1 0 0 1 25 5 A 1 1 0 0 1 24 6 A 1 1 0 0 1 23 5 A 1 1 0 0 1 24 4 z "
     id="rect814" />
  <circle
     style="opacity:1;fill:url(#linearGradient839);fill-opacity:1;stroke:none;stroke-width:1.56437957;stroke-linecap:round;stroke-linejoin:round;stroke-miterlimit:4;stroke-dasharray:none;stroke-dashoffset:0;stroke-opacity:1;paint-order:normal"
     id="path812"
     cx="24"
     cy="26"
     r="19" />
  <circle
     style="opacity:1;fill:#006b83;fill-opacity:1;stroke:none;stroke-width:5.45163679;stroke-linecap:round;stroke-linejoin:round;stroke-miterlimit:4;stroke-dasharray:none;stroke-dashoffset:0;stroke-opacity:1;paint-order:normal"
     id="path917"
     cx="24"
     cy="26"
     r="17" />
  <path
     d="m 23.732998,8.999993 c -1.303996,0.018213 -2.567851,0.187046 -3.784264,0.479762 -0.319918,0.286644 -0.793103,0.432394 -1.32346,0.417818 -0.18976,0.180975 -0.145969,0.519846 -0.249365,0.768836 -0.08758,0.208909 -0.394118,0.432395 -0.603341,0.415391 -0.154486,-0.01336 -0.332081,-0.230772 -0.332081,-0.375308 0,-0.173687 0.242067,-0.270854 0.109479,-0.465189 -1.355086,0.548994 -2.616507,1.271675 -3.770885,2.13282 0.308969,-0.114175 0.650782,-0.304863 0.931774,-0.310935 0.04622,0 0.08879,0.0037 0.130156,0.01457 0.188544,0.0498 0.684841,0.592719 0.271261,0.768836 -0.03893,0.01699 -0.606992,0.07895 -0.705521,0.06194 -0.144754,-0.02428 -0.229903,-0.223485 -0.375873,-0.248991 -0.244498,-0.04251 -0.554684,0.211338 -0.765124,0.09717 -2.320918,1.870469 -4.121212,4.342158 -5.200172,7.178224 0.09853,-0.05708 0.200708,-0.116603 0.289507,-0.163969 0.304103,-0.157897 0.560767,-0.412961 0.914744,-0.436037 0.17638,-0.0036 0.431826,0.04737 0.600908,0.08259 0.156918,0.03158 0.282209,0.137249 0.418447,0.146965 0.384386,0.02916 0.475618,-0.269638 0.788237,-0.436036 0.323566,0.04615 0.538871,-0.05465 0.832027,-0.02186 0.199492,0.02186 0.343029,0.234416 0.49873,0.246561 0.130157,0.01336 0.246933,-0.121458 0.37344,-0.10202 0.122857,0.01943 0.334514,0.286644 0.353975,0.436037 0.02555,0.187048 -0.136237,0.354661 -0.08271,0.559926 0.195843,0.199193 0.552252,0.239274 0.832028,0.353446 0.182461,-0.149394 0.02433,-0.42875 0,-0.644947 -0.0036,-0.09595 0.01338,-0.179758 0,-0.268425 -0.01704,-0.149393 -0.08271,-0.286642 -0.08271,-0.415389 -0.0036,-0.59029 0.476834,-0.867217 0.8746,-1.100418 0.171515,-0.10202 0.306537,-0.279355 0.456157,-0.353446 0.210439,-0.105664 0.367357,-0.129961 0.541304,-0.228342 0.315051,-0.176117 0.585095,-0.319438 0.832027,-0.519846 0.114343,-0.268423 0.01216,-0.626727 0.02189,-0.891508 0.114343,-0.06924 0.211655,0.03158 0.332082,0.02186 0.18976,-0.04008 0.205573,-0.308507 0.313834,-0.41539 0.06326,-0.06194 0.233551,-0.105676 0.311402,-0.166399 0.189762,-0.14818 0.250581,-0.37288 0.416014,-0.436037 0.05961,-0.02429 0.195842,-0.01702 0.289507,-0.04251 0.122857,-0.0328 0.298021,-0.178544 0.498728,-0.246561 0.130157,-0.04494 0.430612,-0.05465 0.480485,-0.104462 0.06081,-0.06194 0,-0.238059 0.02189,-0.331583 0.100967,-0.468831 0.8077,-0.568427 1.228579,-0.726323 0.293156,-0.110533 0.592394,-0.313365 0.914743,-0.25142 -0.06326,0.222269 -0.362491,0.144536 -0.311401,0.415388 0.07055,0.37531 0.572931,-0.108091 0.70552,-0.163968 0.254241,-0.10689 0.688501,-0.171261 1.021799,-0.291505 0.29194,-0.106889 0.814998,-0.269639 0.538872,-0.602437 -0.229903,-0.01336 -0.33938,0.268425 -0.538872,0.353447 -0.138672,0.02186 -0.113127,-0.114176 -0.229903,-0.126318 -0.11191,-0.01336 -0.175163,0.10202 -0.289506,0.08259 -0.114342,-0.01943 -0.27491,-0.197979 -0.291939,-0.331583 -0.045,-0.346158 0.293155,-0.488265 0.436692,-0.746973 -0.09489,-0.313363 -0.52914,-0.06438 -0.790669,-0.187047 0.02555,-0.187046 0.218955,-0.315793 0.436693,-0.351015 0.178813,-0.03037 0.580229,-0.01457 0.686057,0.08016 0.06204,0.05222 0.0049,0.183404 0.104615,0.270854 0.10583,0.09595 0.235984,0.08623 0.373438,0.06438 0.04988,-0.236845 -0.307752,-0.178546 -0.268827,-0.334013 0.280992,-0.183402 0.737147,-0.03158 1.081393,-0.08259 0.198275,-0.02916 0.406282,-0.170041 0.582662,-0.268424 0.166649,-0.09473 0.38317,-0.259922 0.560767,-0.104449 0.04865,0.170043 -0.154485,0.225914 -0.249365,0.310935 -0.3187,0.282998 -0.645916,0.60608 -0.892848,0.935234 0.152052,0.148181 0.426961,0.07409 0.684841,0.104449 0.09975,0.01336 0.226253,0.04251 0.332081,0.06194 0.124075,0.02186 0.256664,0.01579 0.353977,0.04008 0.175163,0.04251 0.221387,0.229557 0.394118,0.229557 0.284641,0 0.287074,-0.308505 0.126508,-0.500409 0.0511,-0.19555 0.130156,-0.296361 0.06203,-0.43361 -0.127737,-0.256272 -0.598489,-0.01335 -0.622818,-0.331576 -0.01581,-0.206482 0.173948,-0.199195 0.249366,-0.353447 -0.03406,-0.3996 0.328432,-0.42875 0.289507,-0.787054 -0.01704,-0.149394 -0.144754,-0.151824 -0.249366,-0.291502 -0.05473,-0.07166 -0.07907,-0.214982 -0.144753,-0.270854 -0.217739,-0.183403 -0.659296,-0.148179 -0.686058,-0.497982 -0.0036,-0.119032 0.01338,-0.224698 0.02433,-0.336441 -0.200708,-0.0097 -0.398983,-0.02794 -0.600909,-0.03037 z m -8.101319,4.073733 c 0.09732,0.01336 0.215305,0.116604 0.332081,0.126318 0.110695,0.0036 0.203141,-0.06074 0.271261,-0.04251 0.173946,0.04615 0.246931,0.308505 0.08271,0.436037 -0.136237,0.01701 -0.18976,-0.05829 -0.291939,-0.04008 -0.282208,0.04858 -0.390468,0.600008 -0.600908,0.58179 -0.199492,-0.01701 -0.306537,-0.501626 -0.104615,-0.644947 0.01338,-0.126318 -0.09244,-0.145751 -0.08515,-0.270854 0.0596,-0.07652 0.231119,-0.159111 0.396552,-0.144536 m -0.93664,0.06438 c 0.05839,0.0024 0.100967,0.01579 0.124075,0.04008 -0.02797,0.221055 -0.201926,0.207693 -0.37344,0.310934 -0.295588,0.178545 -0.467102,0.449397 -0.560766,0.830779 -0.02676,0.110532 -0.317484,0.404458 -0.458588,0.375308 -0.329649,-0.06924 0.09123,-0.676526 0.166649,-0.768836 0.08271,-0.10202 0.194625,-0.193119 0.291939,-0.310934 0.09489,-0.114176 0.158134,-0.268425 0.249365,-0.331583 0.09975,-0.06924 0.386819,-0.151824 0.560766,-0.144536 m 2.460806,0.746973 c 0.105831,0.0024 0.199492,0.01943 0.242067,0.06194 -0.06811,0.274498 -0.65808,0.201623 -0.874602,0.102021 0.01459,-0.103235 0.175163,-0.131175 0.311402,-0.144537 0.0961,-0.0036 0.215305,-0.02186 0.321133,-0.01943 m -1.34657,0.505268 c 0.07055,-0.0024 0.142321,0.01336 0.216521,0.0328 -0.190976,0.160326 -0.398984,0.250205 -0.727415,0.353445 -0.158134,0.0498 -0.431826,0.111747 -0.458589,-0.06438 -0.03284,-0.216199 0.23112,-0.165184 0.375873,-0.184618 0.181246,-0.02551 0.380738,-0.131176 0.59361,-0.137249 M 36.6951,14.701276 c 0.01581,0.155468 0.01825,0.303648 -0.02433,0.472476 -0.05718,0.224698 -0.259096,0.428749 -0.249364,0.624298 0.01338,0.09959 0.122857,0.196764 0.147185,0.331583 0.01338,0.07166 -0.03406,0.225914 0,0.291502 0.10583,0.20405 0.394119,0.03158 0.582662,0.06194 0.183679,0.02914 0.396552,0.292716 0.394119,0.49798 -0.0024,0.143323 -0.137454,0.381383 -0.228686,0.519846 -0.181246,0.275712 -0.426962,0.287858 -0.686059,0.433609 -0.21652,0.122673 -0.310184,0.327939 -0.436692,0.540491 -0.137454,0.230772 -0.222603,0.37045 -0.166648,0.704463 -0.186111,0.36802 -0.46832,0.593934 -0.852707,0.768835 -0.114343,0.05101 -0.268827,0.06924 -0.373438,0.144536 -0.08271,0.05951 -0.131373,0.221055 -0.249365,0.353445 -0.14597,0.161541 -0.299239,0.229557 -0.375873,0.353446 -0.05961,0.09595 -0.07907,0.286644 -0.144754,0.41539 -0.08879,0.1749 -0.277342,0.259922 -0.394118,0.436038 -0.05352,0.08138 -0.08879,0.246562 -0.147186,0.353445 -0.131372,0.239275 -0.356409,0.411745 -0.332081,0.62187 0.02433,0.202836 0.255447,0.23806 0.27126,0.415389 0.0036,0.09959 -0.06569,0.161541 -0.06203,0.270854 0.0036,0.159111 0.110695,0.270854 0.124075,0.393527 0.03163,0.308506 -0.105831,0.432393 -0.164217,0.642518 -0.02797,0.100807 -0.01581,0.212554 -0.04257,0.291501 -0.0511,0.154253 -0.266395,0.293931 -0.271261,0.477333 -0.0024,0.129963 0.133805,0.233203 0.144753,0.415391 0.0036,0.125102 -0.06204,0.259923 -0.04014,0.375308 0.04379,0.225913 0.448857,0.488266 0.625237,0.664382 0.234769,0.234414 0.542521,0.416603 0.643484,0.664379 0.08515,0.210125 0.08515,0.484622 0.249365,0.642518 0.121641,0.116603 0.322349,0.189476 0.47805,0.310935 0.144753,0.112962 0.304104,0.211338 0.458589,0.331584 0.253013,0.197977 0.634968,0.592719 1.038818,0.562355 0.210439,-0.01579 0.426961,-0.188261 0.665378,-0.229558 0.245716,-0.04373 0.564416,-0.06559 0.812565,-0.04008 0.18976,0.01943 0.384386,0.132391 0.582662,0.123889 0.208007,-0.01336 0.447641,-0.167614 0.684841,-0.270856 0.374656,-0.162754 0.918393,-0.364375 1.46578,-0.334011 C 40.927018,27.568634 41,26.792511 41,25.996956 c 0,-3.217449 -0.901362,-6.210197 -2.444993,-8.770553 -0.07177,-0.0049 -0.137454,-0.01457 -0.216521,-0.01214 -0.21044,0.01336 -0.557119,0.01336 -0.560768,-0.248991 -0.0024,-0.214981 0.203142,-0.26235 0.448857,-0.278141 -0.459805,-0.702032 -0.974348,-1.361554 -1.530249,-1.985854 m -25.993561,7.790386 c -0.345461,0.01943 -0.570498,0.03521 -0.767557,0.123887 -0.450073,0.204051 -0.362492,0.812561 -0.812565,0.955881 -0.155701,0.0498 -0.368573,0.05101 -0.538872,0.08259 -0.147186,0.02671 -0.327214,0.108092 -0.480482,0.10445 -0.18003,-0.0036 -0.493865,-0.177331 -0.60091,-0.291503 -0.0742,-0.08016 -0.194626,-0.358304 -0.273693,-0.54292 C 7.120424,23.521621 7.045007,24.13013 7,24.748356 c 0.03649,0.0073 0.07542,0.01702 0.107046,0.01702 0.197059,0.0012 0.407499,-0.202837 0.625237,-0.208911 0.509678,-0.01457 0.731066,0.647377 1.142213,0.851429 0.103398,0.05101 0.239634,0.05344 0.37344,0.08259 0.107047,0.02429 0.188543,0.06924 0.291938,0.10445 0.220172,0.07409 0.488999,0.06679 0.66538,0.144536 0.265178,0.117817 0.458588,0.614583 0.686057,0.746973 0.01338,0.133604 -0.02433,0.314579 0.02189,0.415389 0.107047,0.145751 0.260314,0.114175 0.436693,0.20891 0.211657,0.114176 0.276126,0.408102 0.478052,0.497982 0.06934,0.03037 0.2445,0.02793 0.353977,0.06194 0.276126,0.08381 0.364923,0.40203 0.600908,0.331582 0.154485,-0.04615 0.143536,-0.205264 0.169081,-0.353444 0.102183,-0.110533 0.212873,-0.286644 0.373441,-0.289074 0.257878,-0.01336 0.280991,0.26721 0.375871,0.517416 0.05352,0.142108 0.192194,0.265996 0.228685,0.415391 0.06447,0.257493 0.03285,1.029971 -0.02189,1.184225 -0.06447,0.189475 -0.322351,0.269638 -0.480483,0.479761 -0.0742,0.09838 -0.109479,0.241704 -0.16665,0.310937 -0.102183,0.123887 -0.254232,0.156681 -0.329649,0.270853 -0.04257,0.06438 -0.08393,0.202836 -0.126507,0.289072 -0.12529,0.26478 -0.293156,0.451827 -0.187327,0.768836 0.0438,0.129959 0.249364,0.218625 0.249364,0.372877 0,0.180975 -0.385604,0.342515 -0.416013,0.540493 -0.02189,0.146966 0.119207,0.410532 0.166649,0.602437 0.03406,0.144536 0.308968,0.23563 0.394118,0.331583 0.14597,0.163971 0.263962,0.394742 0.396551,0.600008 0.263961,0.404458 0.470752,0.896367 0.727415,1.288679 0.136238,0.205266 0.324783,0.389884 0.416014,0.602435 0.04622,0.106891 0.04014,0.235632 0.08273,0.331583 0.148402,0.335228 0.80405,0.68503 1.142212,0.851429 0.158134,0.07652 0.334515,0.104449 0.480485,0.184618 0.220171,0.122673 0.655647,0.451826 0.767557,0.644945 0.09975,0.173687 0.160566,0.59515 0.209223,0.870862 0.06447,0.364377 0.0024,0.644947 0.02189,1.038474 0.01338,0.213768 0.08028,0.42875 0.08273,0.642518 0.0012,0.07531 -0.03893,0.129961 -0.04257,0.20648 -0.0036,0.258708 0.06447,0.55021 0.04257,0.811346 -0.0012,0.05588 -0.0073,0.09838 -0.01704,0.146965 C 19.362431,42.523882 21.607933,43 23.968992,43 c 0.246933,0 0.487783,-0.02793 0.732282,-0.03766 0.0061,-0.03886 0.01094,-0.07774 0.01947,-0.109318 0.07542,-0.210124 0.268826,-0.28057 0.394118,-0.436038 0.09487,-0.117819 0.13867,-0.255065 0.228685,-0.372879 0.09732,-0.127532 0.184895,-0.240489 0.249365,-0.353446 0.06081,-0.378951 -0.150835,-0.643732 -0.06204,-0.975314 0.09975,-0.372881 0.614291,-0.600009 0.976781,-0.768837 0.124074,-0.0571 0.253013,-0.151823 0.353976,-0.187046 0.250582,-0.08745 0.561983,-0.04008 0.79067,-0.123888 0.389253,-0.142107 0.430611,-0.558711 0.622803,-0.913371 0.09124,-0.167615 0.21044,-0.336442 0.228687,-0.455473 0.01581,-0.106877 -0.03892,-0.207693 -0.02189,-0.334011 0.01947,-0.125104 0.131373,-0.234416 0.16665,-0.37288 0.04622,-0.179758 0.06447,-0.442109 0.06447,-0.642518 0,-0.163969 -0.07663,-0.309719 -0.08273,-0.457899 -0.02676,-0.538063 0.194626,-0.598793 0.394118,-0.891509 0.09975,-0.145751 0.136239,-0.310935 0.206791,-0.415389 0.334513,-0.499197 0.91596,-0.739686 0.874601,-1.493946 -0.01459,-0.250205 -0.170297,-0.814989 -0.353975,-0.893937 -0.105831,-0.04615 -0.346679,-0.0036 -0.49873,-0.06195 -0.491431,-0.183403 -0.780939,-0.791911 -1.290615,-0.830777 -0.108263,-0.01336 -0.208008,0.04493 -0.329649,0.04251 -0.201925,-0.01336 -0.506029,-0.140893 -0.729849,-0.1664 -0.142321,-0.01579 -0.330864,0.04251 -0.416013,0 -0.130157,-0.06317 -0.143537,-0.301219 -0.249365,-0.372879 -0.08393,-0.0571 -0.245716,-0.07652 -0.37344,-0.126318 -0.204357,-0.07895 -0.367356,-0.171257 -0.603341,-0.187047 -0.07299,-0.0036 -0.164216,0.03523 -0.249364,0.02186 -0.130157,-0.02186 -0.233552,-0.176116 -0.353977,-0.248991 -0.150836,-0.0923 -0.29194,-0.137248 -0.353977,-0.268423 0.136238,-0.446969 -0.24085,-0.572072 -0.332081,-0.830779 -0.0438,-0.12146 -0.02311,-0.267211 -0.06203,-0.375308 -0.05352,-0.154254 -0.208006,-0.242919 -0.375871,-0.37288 -0.300455,-0.230771 -0.568065,-0.448185 -0.99746,-0.500411 -0.188544,-0.02429 -0.374657,0.0571 -0.603342,0.04251 -0.242066,-0.01579 -0.546169,-0.227128 -0.727415,-0.433608 -0.17638,-0.201622 -0.262746,-0.382596 -0.416015,-0.479764 -0.144753,-0.09352 -0.338162,-0.0911 -0.436692,-0.184617 -0.0438,-0.0413 -0.03649,-0.111746 -0.08273,-0.20891 -0.07299,-0.150609 -0.195843,-0.234414 -0.104614,-0.415389 -0.165433,-0.08503 -0.170298,0.156682 -0.351544,0.126318 -0.161782,-0.229558 -0.298022,-0.337657 -0.665378,-0.270854 -0.167865,0.03158 -0.262745,0.244133 -0.458588,0.24899 -0.160568,0.01336 -0.287074,-0.178543 -0.49873,-0.208909 -0.160566,-0.02186 -0.341812,0.04251 -0.456155,0.02186 -0.177597,-0.03523 -0.232335,-0.183403 -0.394119,-0.289072 -0.119206,-0.07774 -0.349111,-0.211338 -0.416013,-0.20891 -0.209223,0.01336 -0.357625,0.44454 -0.645916,0.291503 -0.139888,-0.177331 0.227469,-0.270854 0.06203,-0.436039 -0.126508,-0.126318 -0.232336,0.05588 -0.332081,0.126317 -0.115559,0.08016 -0.22382,0.159112 -0.351544,0.20648 -0.285856,0.106878 -0.463454,0.05101 -0.686058,0.1664 -0.20679,0.106879 -0.215305,0.285429 -0.33208,0.497981 -0.0961,0.173687 -0.315052,0.426321 -0.458589,0.436038 -0.173947,0.01336 -0.340596,-0.242918 -0.49873,-0.310935 -0.475618,-0.20648 -0.706737,0.182189 -1.102071,0.187047 -0.367356,0.01336 -0.890416,-0.590291 -0.87217,-0.935234 0.0036,-0.210124 0.120423,-0.529562 0.144754,-0.789484 0.02189,-0.20648 0.164215,-0.330369 0.166649,-0.519844 0.0036,-0.252634 -0.334515,-0.446969 -0.49873,-0.477334 -0.388037,-0.07166 -0.928125,0.156683 -1.373333,-0.02186 -0.08515,-0.140893 0.09975,-0.23806 0.147187,-0.375308 0.02676,-0.07774 0.01217,-0.182189 0.04014,-0.268425 0.04987,-0.13239 0.187327,-0.234417 0.249364,-0.375308 0.04622,-0.10689 0.05839,-0.261137 0.104615,-0.393528 0.05473,-0.150608 0.154485,-0.247776 0.166649,-0.353445 0.01581,-0.139678 -0.03771,-0.301218 -0.147187,-0.393527 m 5.559014,4.3956 c 0.141104,0.01336 0.158134,0.303647 0.01459,0.327939 -0.155701,0.0243 -0.233552,-0.242918 -0.08273,-0.313365 0.02555,-0.01336 0.04865,-0.01579 0.06934,-0.01457"
     id="path52"
     style="fill:url(#linearGradient915);fill-opacity:1;stroke-width:1.21550167"
     inkscape:connector-curvature="0" />
  <path
     inkscape:connector-curvature="0"
     style="opacity:0.3;fill:url(#linearGradient907);fill-opacity:1;stroke:none;stroke-width:1.49833524;stroke-linecap:round;stroke-linejoin:round;stroke-miterlimit:4;stroke-dasharray:none;stroke-dashoffset:0;stroke-opacity:1;paint-order:normal"
     d="m 26.121094,23.878906 -0.642578,0.642578 -2.957032,2.957032 -0.642578,0.642578 13.248047,13.25 A 19,19 0 0 0 39.375,37.130859 Z"
     id="rect893" />
  <g
     id="g869"
     transform="rotate(-45,24,26)">
    <path
       style="opacity:1;fill:#d72828;fill-opacity:1;stroke:none;stroke-width:1.96364236;stroke-linecap:round;stroke-linejoin:round;stroke-miterlimit:4;stroke-dasharray:none;stroke-dashoffset:0;stroke-opacity:1;paint-order:normal"
       d="M 24,12 V 26 H 21 Z"
       id="path852"
       inkscape:connector-curvature="0"
       sodipodi:nodetypes="cccc" />
    <path
       sodipodi:nodetypes="cccc"
       inkscape:connector-curvature="0"
       id="path854"
       d="m 24,12 v 14 h 3 z"
       style="opacity:1;fill:#ffffff;fill-opacity:1;stroke:none;stroke-width:1.96364236;stroke-linecap:round;stroke-linejoin:round;stroke-miterlimit:4;stroke-dasharray:none;stroke-dashoffset:0;stroke-opacity:1;paint-order:normal" />
    <g
       transform="rotate(-180,24,26)"
       id="g862">
      <path
         style="opacity:1;fill:#d72828;fill-opacity:1;stroke:none;stroke-width:1.96364236;stroke-linecap:round;stroke-linejoin:round;stroke-miterlimit:4;stroke-dasharray:none;stroke-dashoffset:0;stroke-opacity:1;paint-order:normal"
         d="M 24,12 V 26 H 21 Z"
         id="path856"
         inkscape:connector-curvature="0"
         sodipodi:nodetypes="cccc" />
      <path
         sodipodi:nodetypes="cccc"
         inkscape:connector-curvature="0"
         id="path858"
         d="m 24,12 v 14 h 3 z"
         style="opacity:1;fill:#ffffff;fill-opacity:1;stroke:none;stroke-width:1.96364236;stroke-linecap:round;stroke-linejoin:round;stroke-miterlimit:4;stroke-dasharray:none;stroke-dashoffset:0;stroke-opacity:1;paint-order:normal" />
    </g>
  </g>
</svg>
