<?xml version="1.0" encoding="UTF-8" standalone="no"?>
<svg
   xmlns:dc="http://purl.org/dc/elements/1.1/"
   xmlns:cc="http://creativecommons.org/ns#"
   xmlns:rdf="http://www.w3.org/1999/02/22-rdf-syntax-ns#"
   xmlns:svg="http://www.w3.org/2000/svg"
   xmlns="http://www.w3.org/2000/svg"
   xmlns:xlink="http://www.w3.org/1999/xlink"
   xmlns:sodipodi="http://sodipodi.sourceforge.net/DTD/sodipodi-0.dtd"
   xmlns:inkscape="http://www.inkscape.org/namespaces/inkscape"
   width="48"
   height="48"
   version="1.1"
   id="svg54"
   sodipodi:docname="nm-device-wireless.svg"
   inkscape:version="0.92.1 r15371">
  <metadata
     id="metadata58">
    <rdf:RDF>
      <cc:Work
         rdf:about="">
        <dc:format>image/svg+xml</dc:format>
        <dc:type
           rdf:resource="http://purl.org/dc/dcmitype/StillImage" />
        <dc:title></dc:title>
      </cc:Work>
    </rdf:RDF>
  </metadata>
  <sodipodi:namedview
     pagecolor="#ffffff"
     bordercolor="#666666"
     borderopacity="1"
     objecttolerance="10"
     gridtolerance="10"
     guidetolerance="10"
     inkscape:pageopacity="0"
     inkscape:pageshadow="2"
     inkscape:window-width="1600"
     inkscape:window-height="808"
     id="namedview56"
     showgrid="false"
     inkscape:zoom="5.65"
     inkscape:cx="24"
     inkscape:cy="24"
     inkscape:window-x="0"
     inkscape:window-y="0"
     inkscape:window-maximized="1"
     inkscape:current-layer="svg54" />
  <defs
     id="defs22">
    <linearGradient
       inkscape:collect="always"
       id="linearGradient4569">
      <stop
         style="stop-color:#6a19f1;stop-opacity:1;"
         offset="0"
         id="stop4565" />
      <stop
         style="stop-color:#a777f7;stop-opacity:1"
         offset="1"
         id="stop4567" />
    </linearGradient>
    <linearGradient
       id="b"
       y1="525.8"
       y2="503.8"
       x2="0"
       gradientUnits="userSpaceOnUse"
       gradientTransform="translate(-384.57,-499.8)">
      <stop
         stop-color="#c6cdd1"
         id="stop7" />
      <stop
         offset="1"
         stop-color="#e0e5e7"
         id="stop9" />
    </linearGradient>
    <linearGradient
       id="c"
       y1="14"
       x1="5"
       y2="36"
       x2="27"
       gradientUnits="userSpaceOnUse">
      <stop
         stop-color="#383e51"
         id="stop12" />
      <stop
         offset="1"
         stop-color="#655c6f"
         stop-opacity="0"
         id="stop14" />
    </linearGradient>
    <linearGradient
       inkscape:collect="always"
       xlink:href="#linearGradient4569"
       id="linearGradient4571"
       x1="24.271194"
       y1="43.966091"
       x2="24.271194"
       y2="24.033886"
       gradientUnits="userSpaceOnUse" />
  </defs>
  <path
     style="fill:url(#b);stroke-width:2.79999995;stroke-opacity:0.55"
     d="m 11.000008,3.9999878 h 26 V 35.8 h -26 z"
     id="rect28"
     inkscape:connector-curvature="0"
     sodipodi:nodetypes="ccccc" />
  <path
     style="fill:url(#linearGradient4571);stroke-width:2.95145917;stroke-opacity:0.55;fill-opacity:1"
     d="M 24 24 A 16 16 0 0 0 8 40 A 16 16 0 0 0 8.5214844 44 L 39.470703 44 A 16 16 0 0 0 40 40 A 16 16 0 0 0 24 24 z "
     id="rect46" />
  <path
     inkscape:connector-curvature="0"
     style="opacity:0.2;fill:url(#c);fill-rule:evenodd"
     id="path32"
     d="m 22,11 -7,7 24,24.25 V 26.002 h -2 v -11 l -4,-4 h -7 v 4 z" />
  <g
     id="g38"
     style="fill:#202224;stroke-width:2.79999995;stroke-opacity:0.55"
     transform="translate(-384.57,-499.8)">
    <rect
       width="7"
       x="399.57001"
       y="510.79999"
       height="7"
       id="rect34" />
    <rect
       width="7"
       x="410.57001"
       y="510.79999"
       height="7"
       id="rect36" />
  </g>
  <g
     id="g44"
     style="fill:#fdbc4a;stroke-width:2.79999995;stroke-opacity:0.55"
     transform="translate(-384.57,-499.8)">
    <rect
       width="3"
       x="401.57001"
       y="510.79999"
       height="7"
       id="rect40" />
    <rect
       width="3"
       x="412.57001"
       y="510.79999"
       height="7"
       id="rect42" />
  </g>
  <path
     inkscape:connector-curvature="0"
     style="fill:#ffffff;fill-opacity:1;stroke:none;opacity:1"
     d="m 24.000001,26 c -4.155,0 -7.905936,1.671513 -10.617188,4.382813 l 0.708984,0.708984 C 16.622298,28.561297 20.122007,27 24.000001,27 c 3.878,0 7.377701,1.561297 9.908202,4.091797 l 0.708984,-0.708984 C 31.905935,27.671513 28.155006,26 24.000001,26 Z m 0,4 c -3.046994,0 -5.79691,1.226544 -7.785157,3.214844 l 0.707031,0.707031 C 18.729379,32.114375 21.230004,31 24.000001,31 c 2.770004,0 5.270612,1.114375 7.078124,2.921875 l 0.707031,-0.707031 C 29.796909,31.226544 27.047003,30 24.000001,30 Z m 0,4 c -1.938998,0 -3.689828,0.779722 -4.955079,2.044922 l 0.708985,0.708984 C 20.838414,35.669406 22.338001,35 24.000001,35 c 1.661999,0 3.161594,0.669406 4.246093,1.753906 l 0.708984,-0.708984 C 27.689829,34.779722 25.939006,34 24.000001,34 Z m 0,4 C 22.892003,38 22,38.892 22,40 c 0,1.108 0.892003,2 2.000001,2 1.108005,0 2,-0.892 2,-2 0,-1.108 -0.891995,-2 -2,-2 z m 0,1 c 0.554002,0 1,0.446 1,1 0,0.554 -0.445998,1 -1,1 C 23.446007,41 23,40.554 23,40 c 0,-0.554 0.446007,-1 1.000001,-1 z"
     class="ColorScheme-Text"
     id="rect4152-67" />
  <rect
     width="32"
     x="8.0000076"
     y="42.999989"
     height="1"
     id="rect26"
     style="fill:#000000;stroke-width:2.79999995;stroke-opacity:0.55;opacity:0.2;fill-opacity:1" />
</svg>
