<?xml version="1.0" encoding="UTF-8" standalone="no"?>
<svg
   xmlns:dc="http://purl.org/dc/elements/1.1/"
   xmlns:cc="http://creativecommons.org/ns#"
   xmlns:rdf="http://www.w3.org/1999/02/22-rdf-syntax-ns#"
   xmlns:svg="http://www.w3.org/2000/svg"
   xmlns="http://www.w3.org/2000/svg"
   xmlns:xlink="http://www.w3.org/1999/xlink"
   xmlns:sodipodi="http://sodipodi.sourceforge.net/DTD/sodipodi-0.dtd"
   xmlns:inkscape="http://www.inkscape.org/namespaces/inkscape"
   width="48"
   height="48"
   version="1.1"
   id="svg18"
   sodipodi:docname="parley.svg"
   inkscape:version="0.92.3 (2405546, 2018-03-11)">
  <metadata
     id="metadata24">
    <rdf:RDF>
      <cc:Work
         rdf:about="">
        <dc:format>image/svg+xml</dc:format>
        <dc:type
           rdf:resource="http://purl.org/dc/dcmitype/StillImage" />
        <dc:title />
      </cc:Work>
    </rdf:RDF>
  </metadata>
  <defs
     id="defs22">
    <linearGradient
       inkscape:collect="always"
       id="linearGradient837">
      <stop
         style="stop-color:#cccccc;stop-opacity:1"
         offset="0"
         id="stop833" />
      <stop
         style="stop-color:#f2f2f2;stop-opacity:1"
         offset="1"
         id="stop835" />
    </linearGradient>
    <linearGradient
       inkscape:collect="always"
       id="linearGradient867">
      <stop
         style="stop-color:#000000;stop-opacity:1;"
         offset="0"
         id="stop863" />
      <stop
         style="stop-color:#000000;stop-opacity:0;"
         offset="1"
         id="stop865" />
    </linearGradient>
    <linearGradient
       inkscape:collect="always"
       id="linearGradient828">
      <stop
         style="stop-color:#366fb3;stop-opacity:1"
         offset="0"
         id="stop824" />
      <stop
         style="stop-color:#89aedc;stop-opacity:1"
         offset="1"
         id="stop826" />
    </linearGradient>
    <linearGradient
       inkscape:collect="always"
       xlink:href="#linearGradient828"
       id="linearGradient830"
       x1="32.326096"
       y1="38.130436"
       x2="27.413033"
       y2="10.630435"
       gradientUnits="userSpaceOnUse" />
    <linearGradient
       inkscape:collect="always"
       xlink:href="#linearGradient867"
       id="linearGradient869"
       x1="35.4114"
       y1="26.607584"
       x2="42.773991"
       y2="33.970177"
       gradientUnits="userSpaceOnUse" />
    <linearGradient
       inkscape:collect="always"
       xlink:href="#linearGradient867"
       id="linearGradient871"
       x1="23.176888"
       y1="27.412359"
       x2="27.271114"
       y2="31.506586"
       gradientUnits="userSpaceOnUse" />
    <linearGradient
       inkscape:collect="always"
       xlink:href="#linearGradient867"
       id="linearGradient873"
       x1="13.894715"
       y1="12.673155"
       x2="26.599598"
       y2="20.008322"
       gradientUnits="userSpaceOnUse" />
    <linearGradient
       inkscape:collect="always"
       xlink:href="#linearGradient837"
       id="linearGradient839"
       x1="34"
       y1="41"
       x2="23"
       y2="7"
       gradientUnits="userSpaceOnUse" />
  </defs>
  <sodipodi:namedview
     pagecolor="#ffffff"
     bordercolor="#666666"
     borderopacity="1"
     objecttolerance="10"
     gridtolerance="10"
     guidetolerance="10"
     inkscape:pageopacity="0"
     inkscape:pageshadow="2"
     inkscape:window-width="1920"
     inkscape:window-height="1020"
     id="namedview20"
     showgrid="true"
     inkscape:zoom="13.939513"
     inkscape:cx="8.9696147"
     inkscape:cy="23.389086"
     inkscape:window-x="0"
     inkscape:window-y="30"
     inkscape:window-maximized="1"
     inkscape:current-layer="svg18">
    <inkscape:grid
       type="xygrid"
       id="grid832" />
  </sodipodi:namedview>
  <rect
     style="opacity:1;fill:url(#linearGradient839);fill-opacity:1;stroke:none;stroke-width:4;stroke-linecap:round;stroke-linejoin:round;stroke-miterlimit:4;stroke-dasharray:none;stroke-dashoffset:0;stroke-opacity:1;paint-order:normal"
     id="rect831"
     width="48"
     height="34"
     x="0"
     y="7" />
  <rect
     x="2"
     y="9"
     width="44"
     height="30"
     style="fill:#e3ecf7;stroke-width:0.90829515;fill-opacity:1"
     id="rect4" />
  <path
     d="m 21.834631,9.0000477 c -1.444845,-0.00208 -3.053147,0.063943 -3.053147,0.1712034 0,0.07782 -0.03178,0.228389 -0.06496,0.329235 -0.04878,0.148282 -0.02832,0.166782 0.129924,0.118525 0.13224,-0.04033 0.194879,-0.0078 0.194879,0.09218 0,0.08139 0.06789,0.143979 0.129924,0.144865 0.08746,0.0013 0.06853,0.02545 -0.02165,0.09218 -0.139051,0.1028859 0.0058,0.5834329 0.19488,0.6716419 0.06523,0.03043 0.0097,0.06128 -0.129924,0.06584 -0.209786,0.0068 -0.261515,0.0545 -0.238189,0.250219 0.02453,0.205641 -0.0145,0.23705 -0.281493,0.23705 -0.169074,0 -0.3253,0.05935 -0.346454,0.131694 -0.02116,0.07235 0.0083,0.131695 0.06496,0.131695 0.05669,0 0.07366,0.04807 0.04331,0.105354 -0.03036,0.05729 0.134412,0.291527 0.346455,0.526778 0.311966,0.346105 0.34553,0.44854 0.238189,0.526777 -0.0915,0.06667 -0.132372,0.0487 -0.151576,-0.05268 -0.01531,-0.08085 -0.121059,-0.213392 -0.238189,-0.302897 -0.204972,-0.15663 -0.230699,-0.159669 -0.411416,0.197542 -0.10326,0.204123 -0.173227,0.412807 -0.173227,0.460928 0,0.119187 0.553444,0.239831 0.736219,0.158034 0.315717,-0.141294 0.146354,0.05258 -0.238189,0.263388 -0.223306,0.12242 -0.411416,0.293955 -0.411416,0.381914 0,0.09117 -0.115113,0.190124 -0.259841,0.22388 -0.171319,0.03995 -0.281373,0.154472 -0.346461,0.355575 -0.05949,0.183824 -0.24725,0.377277 -0.476378,0.513607 -0.268104,0.159521 -0.368106,0.290869 -0.368106,0.46093 0,0.129587 -0.07398,0.296458 -0.173227,0.368744 -0.113289,0.08251 -0.194885,0.242372 -0.194885,0.434591 0,0.5561 -0.04631,0.635555 -0.346455,0.46093 -0.316179,-0.183964 -0.627953,-0.620927 -0.627953,-0.882351 0,-0.104525 -0.04585,-0.220838 -0.08661,-0.250219 -0.131346,-0.09467 -0.09598,-1.450938 0.0433,-1.698857 0.146175,-0.260181 0.08827,-0.539946 -0.108266,-0.539946 -0.07231,0 -0.129923,0.04578 -0.129923,0.09218 0,0.04641 -0.05334,0.06061 -0.129917,0.02633 -0.125495,-0.05616 -0.125495,-0.0885 0,-0.250219 0.178142,-0.229574 0.1808,-0.393182 0,-0.474099 -0.113001,-0.05057 -0.134701,-0.142238 -0.08661,-0.4741 0.03352,-0.231369 0.02063,-0.421421 -0.02166,-0.421421 -0.08846,0 -0.389759,-0.775445 -0.389765,-1.000876 6e-6,-0.083 -0.0408,-0.177697 -0.08661,-0.210711 -0.04579,-0.033 -0.09735,-0.195789 -0.129917,-0.368744 -0.06783,-0.3601469 -0.179684,-0.3779729 -0.80118,-0.1580329 -0.235711,0.08342 -0.425513,0.1196539 -0.433074,0.07902 -0.0076,-0.04063 -0.01624,-0.140375 -0.02165,-0.210711 -0.0054,-0.07034 -0.0962,-0.191321 -0.194885,-0.276557 -0.179007,-0.154629 -0.180039,-0.155434 0,-0.316067 0.166524,-0.148572 0.123916,-0.168118 -0.562992,-0.171202 -0.437988,-0.00208 -0.757876,0.043433 -0.757871,0.105355 0,0.05787 0.05864,0.105355 0.108266,0.105355 0.125651,0 0.109454,0.34753 -0.02165,0.500439 -0.152374,0.177705 -0.433074,0.162475 -0.433074,-0.02633 0,-0.185788 -0.05413,-0.194587 -0.281494,-0.05267 -0.114524,0.07149 -0.177122,0.07438 -0.216537,0 -0.03199,-0.06039 -0.143107,-0.08788 -0.238188,-0.05268 -0.12013,0.04447 -0.173228,0.02242 -0.173228,-0.09218 0,-0.09071 0.05549,-0.171203 0.129924,-0.171203 0.07443,0 0.151575,-0.07217 0.151569,-0.158032 6e-6,-0.13577 -0.5561796,-0.1569172 -4.2440904,-0.1580342 H 2.0000116 V 24.013193 39 H 24.108257 45.999988 V 14.518037 c -0.136582,-0.222843 -0.307529,-0.150443 -0.36811,0.171202 -0.03179,0.168785 -0.124311,0.323993 -0.194879,0.355575 -0.07168,0.03208 -0.09471,0.133477 -0.06496,0.22388 0.03599,0.109308 -0.01675,0.16894 -0.12992,0.171203 -0.196914,0.0039 -0.476367,0.226312 -0.47638,0.381913 0,0.156267 -0.196396,0.233624 -0.476376,0.171203 -0.145981,-0.03253 -0.238194,-0.01808 -0.238194,0.05267 0,0.06462 -0.115888,0.118525 -0.238186,0.118525 -0.280087,0 -0.414231,0.302033 -0.36811,0.790166 0.01936,0.205021 0.0021,0.401771 -0.04331,0.434591 -0.04553,0.03283 -0.08264,0.109346 -0.06496,0.171202 0.01769,0.06186 -0.05892,0.238066 -0.173226,0.381914 -0.114303,0.143848 -0.194879,0.316724 -0.194879,0.395083 0,0.231036 -0.157472,0.164898 -0.216537,-0.09218 -0.146114,-0.635905 -0.06332,-0.9908 0.433074,-1.712026 0.290824,-0.422542 0.450271,-0.987706 0.281492,-0.987706 -0.04969,0 -0.12896,0.06992 -0.194879,0.171202 -0.0732,0.11246 -0.128184,0.133005 -0.129924,0.05268 -0.0017,-0.07235 -0.05375,-0.131694 -0.10827,-0.131694 -0.115499,0 -0.606296,0.611967 -0.606296,0.750656 0,0.127674 -0.168582,0.118201 -0.238186,-0.01315 -0.03359,-0.06334 -0.289487,-0.08509 -0.64961,-0.05268 -0.544905,0.04903 -0.640738,0.0928 -0.844486,0.395082 -0.124071,0.184047 -0.318261,0.482814 -0.454727,0.658471 -0.277568,0.357282 -0.318484,0.474099 -0.129919,0.474099 0.07031,0 0.152343,0.05936 0.173226,0.131695 0.02939,0.101858 0.07576,0.101533 0.194879,-0.01315 0.116518,-0.112191 0.159087,-0.118604 0.23819,-0.02633 0.07912,0.09226 0.08199,0.118525 0,0.118525 -0.05955,0 -0.108266,0.07122 -0.108266,0.158033 0,0.08681 0.05772,0.158034 0.108266,0.158034 0.13722,0 0.0105,0.479193 -0.346452,1.34328 -0.305832,0.740379 -0.373217,0.809463 -0.67126,0.776996 -0.07735,-0.0084 -0.257885,0.185232 -0.411424,0.434592 -0.266073,0.432109 -0.272191,0.468722 -0.151565,0.803334 0.149984,0.416028 0.165146,0.539947 0.0433,0.539947 -0.04962,0 -0.108266,-0.06892 -0.108266,-0.158033 0,-0.209848 -0.341405,-1.000877 -0.433074,-1.000877 -0.03869,0 -0.116445,0.05231 -0.173226,0.118526 -0.07747,0.09036 -0.08128,0.06398 -0.0433,-0.105356 0.06775,-0.302105 -0.08423,-0.283179 -0.324807,0.03949 -0.107877,0.144683 -0.229789,0.263389 -0.281497,0.263389 -0.06299,0 -0.06757,0.06346 0,0.210711 0.07906,0.172277 0.157687,0.213252 0.346457,0.158032 l 0.238186,-0.06586 -0.216532,0.263388 c -0.153394,0.190496 -0.182806,0.312194 -0.129924,0.447761 0.04066,0.104225 0.0771,0.245023 0.08661,0.302897 0.0095,0.05787 0.03389,0.129093 0.04331,0.158032 0.0933,0.286892 0.06138,0.635092 -0.06496,0.908691 -0.158976,0.344272 -0.602423,0.715403 -0.736228,0.618964 -0.04241,-0.03053 -0.16587,0.03997 -0.259839,0.144861 -0.132015,0.147334 -0.203384,0.153441 -0.324803,0.06585 -0.126185,-0.09102 -0.191603,-0.04674 -0.389765,0.184374 -0.13575,0.158311 -0.193733,0.276555 -0.129917,0.276555 0.06384,0 0.07591,0.057 0.0433,0.118524 -0.03259,0.06152 0.01077,0.191987 0.08661,0.28973 0.07585,0.09773 0.166176,0.306458 0.216538,0.460929 0.07899,0.24229 0.07609,0.306886 -0.108266,0.447762 -0.202021,0.154371 -0.226595,0.137689 -0.498036,-0.158039 -0.157913,-0.172049 -0.302844,-0.302896 -0.324803,-0.302896 -0.02196,0 -0.108307,0.136014 -0.173227,0.316068 L 35.4114,26.607584 35.34644,26.067636 c -0.05777,-0.507928 -0.08662,-0.544306 -0.2815,-0.487266 -0.174295,0.05101 -0.213932,0.0017 -0.259841,-0.237051 -0.03045,-0.158477 -0.143696,-0.417106 -0.25984,-0.579457 -0.190559,-0.266353 -0.24086,-0.28486 -0.454726,-0.171202 -0.130386,0.06927 -0.417382,0.340405 -0.649606,0.592627 -0.232253,0.252234 -0.45529,0.447758 -0.498036,0.447758 -0.04273,0 -0.08661,0.146212 -0.08661,0.316068 6e-6,0.356091 -0.135631,0.845779 -0.238189,0.842841 -0.111734,-0.0034 -0.671263,-1.521294 -0.671257,-1.830548 0,-0.233207 -0.02351,-0.266133 -0.173227,-0.21071 -0.118012,0.04367 -0.172826,0.01164 -0.173227,-0.07902 -3.37e-4,-0.07624 -0.139148,-0.238521 -0.303151,-0.368747 -0.235855,-0.187253 -0.432174,-0.237048 -0.909452,-0.237048 -0.489718,0 -0.606296,-0.03633 -0.606296,-0.171202 0,-0.127987 -0.06182,-0.156074 -0.259847,-0.105356 -0.202092,0.05178 -0.284553,0.01163 -0.454719,-0.197541 -0.530839,-0.652512 -0.707456,-0.01125 -0.194885,0.711147 0.141487,0.199416 0.516962,0.247611 0.606301,0.07902 0.03266,-0.06163 0.151305,-0.0124 0.30315,0.118529 l 0.259841,0.21071 -0.173227,0.342405 c -0.226499,0.447724 -1.671044,1.338708 -1.797246,1.10623 -0.04411,-0.08127 -0.08586,-0.216233 -0.08661,-0.289726 -7.71e-4,-0.0735 -0.101724,-0.334647 -0.238189,-0.579457 -0.136465,-0.244814 -0.277544,-0.505818 -0.303151,-0.592622 -0.07137,-0.242024 -0.584049,-1.155147 -0.649605,-1.15891 -0.229073,-0.01311 -0.08109,0.996325 0.173228,1.185246 0.0623,0.04628 0.108265,0.167819 0.108271,0.27656 0,0.108741 0.07713,0.268767 0.151569,0.355575 0.07444,0.08682 0.129924,0.229061 0.129924,0.316063 0,0.08702 0.110978,0.258286 0.259841,0.381917 0.148868,0.123628 0.281498,0.292065 0.281498,0.368743 0,0.207407 0.254296,0.287422 0.692915,0.21071 0.250912,-0.04388 0.389765,-0.03193 0.389765,0.03947 -6e-6,0.208789 -0.401359,0.908653 -0.779529,1.382791 -0.66291,0.831131 -0.782997,1.107966 -0.714567,1.580333 0.03334,0.230196 0.106309,0.421425 0.151576,0.421421 0.04526,0 0.06496,0.156608 0.06496,0.355575 5e-6,0.307221 -0.05115,0.414382 -0.389759,0.697976 -0.370093,0.309973 -0.394223,0.367903 -0.34646,0.711151 0.0387,0.278089 0.02542,0.387795 -0.08661,0.460928 -0.08193,0.05348 -0.151576,0.19259 -0.151576,0.302897 0,0.177856 -0.208652,0.579305 -0.584643,1.198418 -0.115359,0.189954 -0.998598,0.418015 -1.169293,0.302896 -0.03723,-0.02512 -0.06496,-0.180277 -0.06496,-0.342404 0,-0.162127 -0.09501,-0.462792 -0.216531,-0.671639 -0.121528,-0.208843 -0.247274,-0.558168 -0.281499,-0.776996 -0.03422,-0.218808 -0.145814,-0.518016 -0.238189,-0.671643 -0.202699,-0.337082 -0.199668,-0.638925 -0.02165,-1.040382 0.116457,-0.262639 0.111963,-0.356282 0,-0.790166 -0.07057,-0.27349 -0.237342,-0.630975 -0.368112,-0.790167 -0.21212,-0.258218 -0.230165,-0.326506 -0.151575,-0.658472 0.06775,-0.286181 0.05846,-0.423191 -0.0433,-0.592623 -0.07278,-0.121175 -0.165583,-0.194766 -0.216538,-0.158032 -0.05096,0.03676 -0.203101,0.01012 -0.324803,-0.06585 -0.176978,-0.11046 -0.305664,-0.113697 -0.627953,-0.01313 -0.221644,0.06914 -0.600318,0.118528 -0.84449,0.118528 -0.419758,0 -0.457811,-0.03376 -0.909446,-0.579457 l -0.476378,-0.566286 -0.02166,-0.816504 c -0.01031,-0.68567 0.03427,-0.888985 0.216537,-1.264266 0.119464,-0.245965 0.239624,-0.447759 0.281499,-0.447759 0.04188,0 0.150435,-0.178063 0.238189,-0.395082 0.250455,-0.619461 0.586744,-1.080947 0.736219,-1.014046 0.07292,0.03262 0.347907,-0.0118 0.606301,-0.105355 0.258401,-0.09357 0.642836,-0.182686 0.866142,-0.197542 0.392585,-0.02613 0.41141,-0.01657 0.411417,0.276557 -7e-6,0.16672 0.05548,0.336337 0.129917,0.381914 0.409502,0.250763 1.083622,0.632133 1.125989,0.632133 0.02695,0 0.08083,-0.125992 0.129917,-0.276558 0.06667,-0.204528 0.14282,-0.254514 0.259848,-0.197542 0.461675,0.224757 1.480106,0.272109 1.645664,0.07902 0.04374,-0.05101 0.09504,-0.296036 0.108272,-0.553116 l 0.02165,-0.474099 h -0.454726 c -0.459863,-0.0043 -0.773594,-0.178182 -0.736218,-0.408253 0.01082,-0.06661 0.210103,-0.234141 0.454726,-0.368743 0.363425,-0.199969 0.491326,-0.217319 0.649605,-0.118525 0.106549,0.0665 0.328151,0.111066 0.498029,0.09218 0.45361,-0.05043 0.463758,-0.396975 0.02165,-0.763827 -0.187696,-0.155761 -0.299628,-0.276558 -0.238188,-0.276558 0.06143,0 0.129923,-0.101381 0.129923,-0.22388 0,-0.179619 -0.05281,-0.209202 -0.216537,-0.158033 -0.111656,0.03489 -0.25699,0.06505 -0.324803,0.06585 -0.08109,8.47e-4 -0.09789,0.07701 -0.06496,0.22388 l 0.04331,0.223881 -0.173227,-0.223881 c -0.09812,-0.122831 -0.218236,-0.22388 -0.259847,-0.22388 -0.141685,0 -0.300264,0.321561 -0.411417,0.816504 -0.06365,0.283474 -0.154119,0.491281 -0.216531,0.474099 -0.21284,-0.05859 -0.454725,0.08951 -0.454725,0.289728 0,0.331157 -0.176985,0.241424 -0.324803,-0.171203 -0.150501,-0.420056 -0.326261,-0.671641 -0.476378,-0.671641 -0.05316,0 -0.108272,-0.06936 -0.108272,-0.158032 6e-6,-0.163053 -0.351609,-0.388577 -0.476377,-0.302897 -0.203779,0.139937 0.02876,0.655598 0.454726,1.000876 0.127835,0.103615 0.188589,0.207925 0.129923,0.250219 -0.05291,0.03814 -0.309248,-0.178168 -0.562992,-0.474099 -0.414633,-0.483573 -0.473011,-0.521403 -0.606301,-0.381913 -0.09077,0.095 -0.259547,0.126501 -0.411416,0.09218 -0.18817,-0.04252 -0.23819,-0.0105 -0.23819,0.118525 0,0.09356 -0.07841,0.258162 -0.173227,0.368743 -0.09482,0.110581 -0.241657,0.375099 -0.324808,0.579455 -0.170845,0.419892 -0.412629,0.50901 -0.779523,0.302897 -0.220539,-0.123894 -0.25297,-0.179859 -0.238188,-0.68481 l 0.02165,-0.553116 0.324803,-0.01315 c 0.646826,-0.02756 0.627953,-0.02465 0.627953,-0.408253 0,-0.238183 -0.05919,-0.407274 -0.173227,-0.500438 -0.166663,-0.13614 -0.168253,-0.142997 0.06496,-0.263389 0.133512,-0.06893 0.470928,-0.368006 0.736218,-0.658472 0.265272,-0.290464 0.537505,-0.526776 0.606295,-0.526776 0.0688,0 0.129168,-0.0831 0.129924,-0.184372 9e-4,-0.115128 0.02352,-0.13928 0.06496,-0.06584 0.03944,0.06988 0.251271,0.10214 0.519687,0.07902 0.248115,-0.02136 0.510753,-0.03687 0.606296,-0.03949 0.23037,-0.0063 0.407869,-0.298468 0.411416,-0.671641 0.0024,-0.255529 0.03806,-0.281072 0.151575,-0.171203 0.149079,0.144299 0.188398,0.06402 0.238189,-0.421421 0.02053,-0.200281 0.08812,-0.259343 0.259847,-0.263388 0.124061,-0.003 0.291599,-0.05388 0.389759,-0.118526 0.170767,-0.112455 0.170556,-0.125069 -0.06496,-0.250219 -0.186916,-0.09932 -0.305911,-0.103758 -0.476378,-0.01315 -0.31088,0.165197 -0.469273,0.06412 -0.519688,-0.329236 -0.03298,-0.257194 0.01752,-0.429862 0.216537,-0.724318 0.284421,-0.420836 0.332868,-0.627855 0.151576,-0.803335 -0.167851,-0.162454 -0.519688,0.139529 -0.519688,0.447761 0,0.13131 -0.09021,0.348873 -0.216537,0.487268 -0.191039,0.209311 -0.247101,0.336458 -0.238189,0.776996 0.01911,0.943711 -0.179997,1.625954 -0.476378,1.633009 -0.03721,8.47e-4 -0.06496,-0.0931 -0.06496,-0.210711 0,-0.301047 -0.232794,-0.948199 -0.346461,-0.948199 -0.05215,0 -0.108265,0.06425 -0.108265,0.144864 0,0.17618 -0.263556,0.319479 -0.368112,0.197541 -0.04086,-0.04764 -0.09913,-0.2911 -0.129918,-0.553116 -0.05106,-0.434384 -0.02133,-0.504057 0.216531,-0.737487 0.227369,-0.223118 0.415047,-0.525214 0.909453,-1.422298 0.06326,-0.114791 0.20169,-0.409551 0.30315,-0.658472 0.17537,-0.430266 0.509672,-0.709884 0.779523,-0.65847 0.06203,0.0118 0.108271,-0.0521 0.108271,-0.144865 0,-0.09276 0.03482,-0.142688 0.08661,-0.105355 0.0518,0.03734 0.148689,0.01298 0.216537,-0.05267 0.089,-0.08614 0.150747,-0.08329 0.194879,0 0.04323,0.08159 0.08898,0.07022 0.194886,-0.02634 0.134526,-0.122659 0.156082,-0.114905 0.0433,0.05268 -0.0691,0.10268 -0.127745,0.205245 -0.108266,0.223881 0.16773,0.16046 0.668857,0.356421 0.801181,0.316066 0.174877,-0.05333 0.822832,0.559099 0.822832,0.776996 6e-6,0.258942 -0.348021,0.352434 -0.692915,0.184372 -0.182433,-0.0889 -0.344414,-0.146154 -0.368106,-0.118525 -0.02368,0.02765 0.02733,0.222515 0.108265,0.421422 0.08093,0.198906 0.129924,0.399373 0.129924,0.46093 0,0.119025 0.294034,0.32923 0.454726,0.329235 0.05288,0 0.08661,-0.0648 0.08661,-0.144863 0,-0.08007 0.08919,-0.165307 0.194879,-0.197542 0.12373,-0.03772 0.184713,-0.109995 0.151575,-0.210711 -0.06663,-0.202518 0.135763,-0.413836 0.324803,-0.329235 0.108422,0.04852 0.151575,0.01484 0.151575,-0.158033 0,-0.176888 0.04547,-0.223333 0.173227,-0.184373 0.108314,0.03304 0.254591,-0.05644 0.411417,-0.250218 0.271045,-0.334909 0.411422,-0.384215 0.411422,-0.144865 -6e-6,0.202915 0.114717,0.203948 0.259841,0 0.06254,-0.08787 0.26622,-0.236897 0.433068,-0.329236 0.166842,-0.09233 0.30315,-0.212109 0.30315,-0.263388 0,-0.05128 0.07824,-0.09218 0.194886,-0.09218 0.283773,0 0.779523,0.197528 0.779523,0.316065 5e-6,0.05221 0.07714,0.105356 0.151575,0.105356 0.159611,0 0.176161,-0.282344 0.02166,-0.342405 -0.154828,-0.06019 -0.168439,-0.685927 -0.02166,-1.014046 0.06943,-0.155184 0.129623,-0.35965 0.129923,-0.46093 3.84e-4,-0.12308 0.07447,-0.184371 0.216537,-0.184371 0.205657,0 0.216297,0.02242 0.216531,0.842843 1.32e-4,0.47144 0.03193,0.897582 0.08661,0.961367 0.07102,0.08282 0.07438,0.204841 -0.02165,0.421422 -0.101022,0.227859 -0.207601,0.302897 -0.411416,0.302897 -0.332148,0 -0.340213,0.174814 -0.02165,0.316067 0.340303,0.150898 0.567318,0.02908 0.714567,-0.381914 0.166704,-0.465326 0.225959,-0.450487 0.173227,0.03949 -0.02874,0.266957 -0.01197,0.463416 0.08661,0.605793 0.104953,0.151581 0.163529,0.163752 0.194879,0.06585 0.03381,-0.105542 0.07328,-0.109924 0.173233,-0.01315 0.217059,0.210086 0.238693,0.04325 0.0433,-0.381914 -0.102217,-0.222376 -0.194879,-0.521981 -0.194879,-0.65847 0,-0.156196 -0.06424,-0.269655 -0.173228,-0.302897 -0.132114,-0.04029 -0.173707,-0.178864 -0.216537,-0.592624 -0.03089,-0.298308 -0.08116,-0.718002 -0.108271,-0.93503 -0.03114,-0.249389 -0.01873,-0.395083 0.04331,-0.395083 0.05399,0 0.108265,0.101386 0.108265,0.223881 7e-6,0.17105 0.03439,0.213546 0.173234,0.171202 0.100284,-0.03059 0.261881,0.01821 0.368106,0.118524 0.167784,0.158438 0.190985,0.213333 0.08661,0.408253 -0.143066,0.267173 -0.0069,0.763827 0.216537,0.763827 0.161273,0 0.165252,-0.05034 0.04331,-0.316066 -0.06047,-0.131784 -0.06047,-0.219801 0,-0.263389 0.14663,-0.10568 0.113546,-0.427545 -0.08662,-0.724319 -0.211934,-0.314229 -0.214262,-0.85291 0,-0.869181 0.312848,-0.02376 0.368112,-0.05154 0.368112,-0.197542 0,-0.08443 0.06474,-0.310095 0.151576,-0.513608 0.115677,-0.2710959 0.224506,-0.3772819 0.389764,-0.3819129 0.124055,-0.0034 0.316221,-0.06929 0.433069,-0.144863 0.267186,-0.172801 0.620295,-0.09888 0.757876,0.158032 0.213459,0.3986349 0.439573,0.148653 0.389764,-0.434591 l -0.02165,-0.263388 -2.230314,-0.02634 c -2.07158,-0.026138 -2.234929,-0.014462 -2.273618,0.158025 -0.02294,0.1023 -0.04763,0.217917 -0.04331,0.263389 0.01274,0.134248 -0.242095,0.395083 -0.389764,0.395083 -0.07506,0 -0.164202,0.04748 -0.194879,0.105354 -0.03066,0.05788 -0.110672,0.1053559 -0.194885,0.1053559 -0.08496,0 -0.211671,0.145277 -0.281493,0.329235 -0.06919,0.182329 -0.194963,0.412682 -0.281499,0.513609 -0.203862,0.237757 -0.313232,0.927549 -0.194879,1.290603 0.113847,0.349232 0.08001,0.360025 -0.216537,0.03949 -0.194303,-0.21002 -0.223979,-0.291523 -0.151575,-0.513608 0.04754,-0.145837 0.138817,-0.301991 0.194885,-0.342405 0.05607,-0.04042 0.09258,-0.13989 0.06496,-0.22388 -0.02764,-0.08399 0.0085,-0.269145 0.08661,-0.408252 0.07815,-0.139108 0.114224,-0.303461 0.08661,-0.355574 -0.08104,-0.152901 0.689272,-0.7974779 0.909446,-0.7638269 0.17987,0.02748 0.476378,-0.31516 0.476378,-0.539947 0,-0.045 -1.480083,-0.079018 -3.291336,-0.079018 -2.374802,0 -3.291341,0.033331 -3.291341,0.118526 0,0.086 -0.039,0.08801 -0.129918,0 -0.0855,-0.08275 -1.106546,-0.1301108 -2.23032,-0.1316953 z m 15.179139,0.013146 v 0.4872694 c 0,0.412791 -0.06061,0.5437139 -0.346462,0.8955219 -0.183903,0.226344 -0.408992,0.408251 -0.49803,0.408251 -0.165563,0 -0.205651,0.164936 -0.108265,0.46093 0.08604,0.261504 0.277616,0.195978 0.584643,-0.197541 l 0.281497,-0.355572 0.606296,0.25022 c 0.644867,0.283076 0.928056,0.325185 1.08268,0.144863 0.05743,-0.06698 0.193662,-0.09107 0.324803,-0.05268 0.194339,0.05689 0.23819,0.124893 0.23819,0.434591 0,0.394763 0.234595,0.92591 0.36811,0.829675 0.04419,-0.03186 0.06496,-0.151059 0.06496,-0.263389 0,-0.204571 0.132991,-0.27617 0.216532,-0.118525 0.02446,0.04615 0.167909,0.08176 0.30315,0.07902 0.185145,-0.0039 0.28169,-0.08671 0.389763,-0.342405 0.160609,-0.37995 0.530449,-0.473535 0.736219,-0.184373 0.06365,0.08945 0.170116,0.13582 0.238191,0.105356 0.07424,-0.0332 0.14509,0.05795 0.194883,0.210711 0.114989,0.352751 0.378679,0.478478 0.887792,0.44776 0.398285,-0.02402 0.426553,-0.0087 0.454723,0.223881 0.03813,0.314498 0.291038,0.654766 0.346461,0.460929 0.05994,-0.209771 0.620009,-0.154455 0.801179,0.07902 0.196229,0.252865 0.303154,0.175231 0.303154,-0.184372 4e-6,-0.201254 0.04446,-0.245486 0.151573,-0.197542 0.07851,0.0351 0.205753,0.06584 0.281492,0.06585 0.07576,0 0.337562,0.237104 0.584647,0.526776 0.204699,0.239996 0.409925,0.422935 0.498029,0.46093 v -0.342404 c -0.0156,-0.01652 -0.04511,-0.03793 -0.06496,-0.06585 -0.0931,-0.130835 -0.0737,-0.155297 0.06496,-0.158032 V 9.0131962 H 41.604321 Z M 6.2873936,9.3555991 c 0.08672,-0.0086 0.131633,0.0394 0.108265,0.171203 -0.01628,0.09179 -0.09181,0.160899 -0.173227,0.144864 -0.09512,-0.01871 -0.154498,0.05676 -0.173227,0.210711 -0.01849,0.1519599 -0.113907,0.2559159 -0.238189,0.2765569 -0.156796,0.02605 -0.189232,-0.01644 -0.151575,-0.1843709 0.06716,-0.299518 0.437161,-0.600003 0.627953,-0.618964 z m 34.1043284,0.06585 c 0.06273,0.0034 0.146011,0.09088 0.303149,0.250219 0.171106,0.173508 0.188265,0.226496 0.08661,0.263389 -0.07261,0.02633 -0.161097,0.09405 -0.216528,0.1448629 -0.138951,0.127349 -0.297109,-0.1099239 -0.281501,-0.4345909 0.0072,-0.15035 0.04551,-0.227315 0.108271,-0.22388 z M 9.1456616,9.5399761 c 0.01666,-0.008 0.053,0.01787 0.151569,0.05268 0.12406,0.04382 0.259997,0.09581 0.281499,0.118526 0.02151,0.02272 -0.01499,0.08659 -0.06496,0.144863 -0.06098,0.07112 -0.143174,0.0338 -0.259841,-0.118525 -0.09765,-0.127501 -0.129689,-0.187254 -0.108265,-0.197541 z m 31.8740084,0 c 0.01949,0 0.05805,0.07122 0.08661,0.158033 0.02858,0.08681 0.0048,0.158033 -0.0433,0.158033 -0.04805,0 -0.08661,-0.07123 -0.08661,-0.158033 0,-0.08682 0.02378,-0.158033 0.0433,-0.158033 z m 0.476381,0.316066 c 0.04313,0 0.106539,0.03877 0.194883,0.105355 0.116638,0.08791 0.131483,0.1039689 0,0.1053559 -0.08391,8.46e-4 -0.185873,-0.04749 -0.216537,-0.1053559 -0.0353,-0.06659 -0.02146,-0.105355 0.02164,-0.105355 z m -34.0393704,0.03949 c 0.01289,0.0017 0.02928,0.05161 0.06496,0.1448649 0.04894,0.127905 0.149691,0.237049 0.216537,0.237049 0.06686,0 0.129917,0.09496 0.129917,0.210711 0,0.149684 -0.06836,0.21071 -0.216531,0.21071 -0.114572,0 -0.293435,0.07306 -0.389764,0.158034 -0.287224,0.253363 -0.329111,0.180161 -0.06496,-0.105356 0.168127,-0.181717 0.23819,-0.375626 0.23819,-0.605794 0,-0.1731159 0.0051,-0.2526379 0.021651,-0.2502189 z m -0.80118,0.03949 0.238189,0.3028969 0.25984,0.302897 -0.194879,0.06585 c -0.457139,0.149697 -0.496476,0.111723 -0.368112,-0.421422 z m 1.580709,0.05268 c 0.0081,8.47e-4 0.05454,0.03713 0.108265,0.1053559 0.147231,0.186942 0.158399,0.195156 0.303151,0.02633 0.144752,-0.1688219 0.150033,-0.1701579 0.216537,0.03949 0.03882,0.122422 0.05019,0.295167 0.02165,0.381913 -0.05605,0.170364 -0.216537,0.219395 -0.216531,0.06584 -6e-6,-0.0516 -0.09045,-0.121128 -0.216537,-0.158032 -0.126088,-0.03692 -0.204349,-0.12566 -0.173227,-0.184373 0.0311,-0.05871 0.01983,-0.164518 -0.02166,-0.237049 -0.01556,-0.02718 -0.02651,-0.03991 -0.02165,-0.03949 z m 1.6240188,0.09218 c 0.04517,-0.0079 0.102456,0.04716 0.2381886,0.158033 0.146726,0.119857 0.324166,0.146098 0.584643,0.105356 0.407173,-0.0637 0.692909,0.064 0.692915,0.302896 0,0.153886 -0.08513,0.190411 -0.368113,0.158034 -0.08245,-0.0095 -0.184401,0.03152 -0.216537,0.09218 -0.07311,0.13797 -0.46959,0.148564 -0.541339,0.01315 -0.02933,-0.05535 -0.104185,-0.0704 -0.173227,-0.03949 -0.1498586,0.06707 -0.3236926,-0.261383 -0.3031506,-0.579455 0.0088,-0.136119 0.04145,-0.202821 0.08662,-0.21071 z m -0.5413398,0.434591 c 0.05166,-0.0043 0.120904,0.05072 0.151575,0.158033 0.01964,0.06873 -0.01631,0.131695 -0.08661,0.131695 -0.07031,0 -0.129924,-0.06962 -0.129924,-0.158034 0,-0.07958 0.02478,-0.128289 0.064959,-0.131694 z m 0.346454,0.816504 c 0.04012,0.0026 0.08221,0.01817 0.1299238,0.03949 0.106573,0.04769 0.119284,0.108411 0.0433,0.302897 -0.05285,0.135285 -0.1641178,0.299029 -0.2598408,0.368744 -0.159581,0.116228 -0.173227,0.104508 -0.173227,-0.237049 0,-0.313496 0.08597,-0.484226 0.25984,-0.474101 z m -3.98425,0.06585 c 0.02418,8.47e-4 0.05522,0.0099 0.08661,0.01315 0.640646,0.06539 0.832284,0.192792 0.584644,0.395083 -0.09605,0.07846 -0.219016,0.285003 -0.281493,0.46093 -0.08582,0.241647 -0.188884,0.329235 -0.368112,0.329235 -0.230514,0 -0.23193,-0.01795 -0.216537,-0.605793 0.01365,-0.521632 0.02565,-0.600016 0.194885,-0.592624 z m 5.0019674,0.03949 c 0.172393,0 0.177758,0.01311 0.0433,0.131693 -0.226325,0.199582 -0.329034,0.599131 -0.216531,0.882352 0.130751,0.329164 0.352377,0.329332 0.281492,0 -0.03262,-0.151632 0.0049,-0.312915 0.08661,-0.408252 0.07352,-0.08574 0.149175,-0.268648 0.173233,-0.408253 0.02405,-0.139604 0.0288,0.05134 0.02165,0.421422 -0.0088,0.455093 0.03199,0.679923 0.108265,0.711149 0.0691,0.02828 0.10742,-0.0471 0.108271,-0.197542 0.0011,-0.188164 0.0238,-0.207963 0.08661,-0.09218 0.06658,0.122726 0.105043,0.134256 0.216532,0.02633 0.178381,-0.172656 0.560392,-0.111036 0.562991,0.09218 0.0012,0.09071 0.062,0.136297 0.151575,0.118525 0.08726,-0.01732 0.151576,0.03447 0.151576,0.118525 0,0.140022 0.321063,0.324849 0.498035,0.289727 0.0853,-0.01694 0.03069,0.454289 -0.08662,0.776996 -0.06242,0.171704 -0.04568,0.185245 0.129923,0.131695 0.145839,-0.04448 0.277226,0.01581 0.433074,0.197541 0.120844,0.140936 0.257267,0.263389 0.324803,0.263389 0.195815,0 0.07246,0.352042 -0.173233,0.487268 -0.12151,0.06688 -0.23199,0.07876 -0.238189,0.02633 -0.02425,-0.204996 -0.03916,-0.268129 -0.108266,-0.395082 -0.109514,-0.201145 -0.435541,-0.165443 -0.368112,0.03949 0.03013,0.09154 0.04331,0.243896 0.04331,0.329234 0,0.08533 0.123028,0.292122 0.281498,0.460931 0.305588,0.325514 0.293405,0.558712 -0.02166,0.329235 -0.276182,-0.201152 -0.417405,0.0067 -0.151576,0.22388 0.227904,0.186164 0.154078,0.218917 -0.173226,0.06585 -0.152218,-0.07119 -0.191538,-0.156061 -0.151576,-0.302897 0.04345,-0.159664 -0.0088,-0.210184 -0.216531,-0.263388 -0.231264,-0.05924 -0.275222,-0.131193 -0.324809,-0.553116 -0.03097,-0.263502 -0.03092,-0.656891 0,-0.882352 0.04336,-0.316272 0.03483,-0.408252 -0.06496,-0.408252 -0.07115,0 -0.271068,-0.123999 -0.433073,-0.263388 -0.215308,-0.185262 -0.390179,-0.24239 -0.692915,-0.237051 -0.329142,0.0058 -0.449613,-0.04256 -0.584644,-0.237049 -0.09345,-0.134589 -0.158584,-0.321136 -0.129923,-0.408252 0.02867,-0.08711 0.0133,-0.196244 -0.0433,-0.237049 -0.2352116,-0.169539 0.14366,-0.829675 0.476378,-0.829675 z m -1.9921244,0.03949 c 0.02211,-0.0068 0.04763,0.0017 0.08661,0 0.02227,-0.0013 0.05829,0 0.08661,0 0.252394,0 0.250209,0.0013 0.108265,0.184372 -0.139717,0.180061 -0.133139,0.208764 0.02166,0.408252 0.143834,0.185363 0.155447,0.240248 0.0433,0.368744 -0.111326,0.127552 -0.176162,0.117375 -0.389764,-0.06585 -0.292841,-0.251184 -0.315909,-0.408253 -0.06496,-0.408253 0.203599,0 0.229505,-0.03869 0.108271,-0.302896 -0.04767,-0.103889 -0.06633,-0.163735 0,-0.184372 z m 2.8582664,0.06585 c 0.0975,0 0.228377,0.09496 0.281492,0.210711 0.08672,0.188965 0.07266,0.21071 -0.173227,0.21071 -0.213693,0 -0.281498,-0.04649 -0.281492,-0.21071 0,-0.139044 0.0561,-0.210711 0.173227,-0.210711 z m -4.7854294,0.302897 0.0433,0.263388 c 0.03187,0.14808 0.139711,0.276554 0.216537,0.276558 0.101646,0 0.106507,-0.06479 0.06496,-0.237049 -0.01578,-0.06541 -0.003,-0.109435 0,-0.131694 0.0046,0.0043 0.01555,0.0039 0.02165,0.01315 0.04047,0.06343 0.188338,0.14542 0.324802,0.184372 0.191513,0.05466 0.238189,0.02279 0.238189,-0.105355 0,-0.09132 0.05864,-0.127953 0.108266,-0.09218 0.04963,0.03577 0.08661,0.151223 0.08661,0.263388 0,0.112165 0.11851,0.388601 0.281499,0.605794 0.366426,0.488276 0.383541,0.929786 0.02165,0.737488 -0.176426,-0.09376 -0.290146,-0.08703 -0.541339,0.05267 -0.354028,0.196892 -0.580281,0.221007 -0.714567,0.06585 -0.04962,-0.05734 -0.160595,-0.180777 -0.259841,-0.263389 -0.167803,-0.13968 -0.161712,-0.141752 0.194885,-0.144863 0.279422,-0.0026 0.389764,-0.04302 0.389764,-0.158033 -6e-6,-0.158395 -0.08291,-0.192319 -0.584649,-0.184372 -0.14887,0.0026 -0.21676,-0.01011 -0.129918,-0.03949 0.211304,-0.07156 0.200916,-0.22185 -0.02166,-0.289728 -0.241033,-0.07351 -0.218541,-0.292564 0.04331,-0.579455 z m 2.663382,0.895521 c 0.03314,-8.47e-4 0.07844,0.03215 0.129923,0.09218 0.06728,0.07847 0.129287,0.246995 0.151575,0.381913 0.02228,0.134914 0.09725,0.323512 0.1732278,0.421422 0.07597,0.09791 0.1515746,0.235111 0.1515746,0.302896 0,0.06779 0.06127,0.131695 0.129917,0.131695 0.06865,0 0.125627,0.09496 0.151576,0.210711 0.02596,0.115747 0.09797,0.21071 0.151575,0.21071 0.139279,0 0.370692,-0.705708 0.30315,-0.92186 -0.05323,-0.17038 -0.0326,-0.17904 0.129924,-0.01315 0.120652,0.123143 0.173227,0.315429 0.173227,0.632132 0,0.435957 -0.02194,0.455646 -0.303151,0.487269 -0.185997,0.02091 -0.281493,0.0856 -0.281499,0.184372 6e-6,0.114643 -0.10437,0.154409 -0.346454,0.131694 -0.4107964,-0.03856 -0.4969784,0.17272 -0.108265,0.263389 0.241148,0.05624 0.268194,0.10359 0.173227,0.237049 -0.06179,0.08684 -0.169837,0.144865 -0.2381886,0.144865 -0.154726,0 -0.14807,0.128933 0,0.302896 0.09043,0.106245 0.08328,0.122056 -0.04331,0.06585 -0.109809,-0.04875 -0.173228,-0.01227 -0.173228,0.105356 0,0.09299 -0.02019,0.158032 -0.06496,0.158032 -0.06334,0 -0.281492,0.540625 -0.281492,0.69798 0,0.01732 0.09554,0.150642 0.216536,0.302897 0.120989,0.15226 0.200275,0.352367 0.173228,0.434591 -0.03505,0.106527 0.02047,0.144864 0.194879,0.144864 0.1346096,0 0.3505956,0.118701 0.4980286,0.263388 0.147435,0.144682 0.359291,0.263389 0.454726,0.263389 0.108866,0 0.164743,0.07868 0.173228,0.210711 0.0074,0.115747 0.0167,0.270063 0.02166,0.342405 0.01006,0.146742 0.384508,0.395082 0.584644,0.395082 0.09482,0 0.110264,-0.134708 0.108265,-0.500438 -0.0015,-0.274897 0.0011,-0.666626 0,-0.869182 -0.0011,-0.202556 0.0065,-0.500585 0,-0.671641 -0.0065,-0.171055 0.03039,-0.333715 0.08661,-0.355574 0.129239,-0.05024 0.128249,-0.342405 0,-0.342405 -0.05255,0 -0.05705,0.06488 -0.02165,0.131694 0.03687,0.06957 0.0094,0.09068 -0.0433,0.05267 -0.05064,-0.03649 -0.06549,-0.180713 -0.04331,-0.316065 0.03413,-0.208212 0.08291,-0.233628 0.324803,-0.197542 0.325019,0.04849 0.866143,0.657068 0.866143,0.974538 0,0.241251 0.442759,0.286461 0.519687,0.05268 0.09602,-0.291804 0.276044,-0.261273 0.238189,0.03949 -0.03951,0.313968 0.334716,0.9482 0.562992,0.9482 0.07002,0 0.129923,0.0648 0.129917,0.144863 6e-6,0.08006 0.07399,0.180444 0.173233,0.210711 0.19869,0.06059 0.254002,0.381913 0.06496,0.381913 -0.06508,0 -0.193901,0.105183 -0.303145,0.22388 -0.109244,0.118698 -0.237625,0.189665 -0.281499,0.158034 -0.143245,-0.103249 -0.62074,0.05399 -0.887794,0.302896 -0.286407,0.266929 -0.257002,0.450824 0.0433,0.263389 0.142418,-0.08889 0.194885,-0.08291 0.194885,0.01315 0,0.207023 0.274412,0.509073 0.411416,0.447759 0.07111,-0.03182 0.131514,-8.46e-4 0.129924,0.07902 -0.0033,0.166685 -0.454726,0.571903 -0.454726,0.408253 0,-0.06057 0.03699,-0.105356 0.08661,-0.105356 0.04962,-4e-6 0.108271,-0.08049 0.108265,-0.171203 0,-0.356952 -0.75361,0.2008 -0.909446,0.671641 -0.04551,0.137481 -0.153766,0.23705 -0.259841,0.23705 -0.100488,0 -0.194885,0.0648 -0.194885,0.144863 0,0.08007 -0.09118,0.165915 -0.194879,0.197543 -0.186304,0.05682 -0.169669,0.143999 0,0.67164 0.02113,0.06573 -0.163326,0.318759 -0.389765,0.566285 -0.226444,0.247522 -0.411422,0.499119 -0.411416,0.553116 0,0.05399 0.09474,0.231065 0.194879,0.395082 0.112394,0.184084 0.143312,0.31471 0.08661,0.355574 -0.05052,0.03642 -0.08503,0.0099 -0.08661,-0.06584 -0.0096,-0.460105 -0.919035,-0.886736 -1.147634,-0.539948 -0.06814,0.103367 -0.181821,0.137097 -0.303151,0.09218 -0.103962,-0.03847 -0.3056106,-0.01079 -0.4547256,0.06585 -0.527105,0.27092 -0.558352,1.450139 -0.0433,1.843719 0.264126,0.201843 0.6232666,0.108962 0.7578706,-0.184373 0.0528,-0.115067 0.165497,-0.19754 0.238188,-0.19754 0.150634,0 0.178407,0.152836 0.04331,0.250219 -0.04962,0.03578 -0.08661,0.187969 -0.08661,0.329234 0,0.230644 0.03527,0.250227 0.368106,0.250223 0.35524,0 0.360233,0.01131 0.303151,0.276555 -0.04428,0.205768 0.0023,0.341422 0.151575,0.526778 0.151798,0.188435 0.16761,0.250218 0.06496,0.250218 -0.0747,0 -0.194645,-0.108156 -0.259847,-0.250218 -0.121029,-0.26377 -0.57983,-0.592623 -0.844484,-0.592623 -0.08091,0 -0.187894,-0.071 -0.216537,-0.158036 -0.0365,-0.110952 -0.1615966,-0.143679 -0.4330676,-0.131695 -0.404749,0.01787 -1.25545,-0.40141 -1.277558,-0.632131 -0.0062,-0.06473 -0.01546,-0.176695 -0.02166,-0.237051 -0.0185,-0.180024 -0.841297,-1.145737 -0.974407,-1.145737 -0.153478,0 -0.147429,0.120636 0,0.302896 0.09083,0.112285 0.08238,0.129098 -0.02165,0.09218 -0.07104,-0.02519 -0.256162,-0.323422 -0.411417,-0.658462 -0.15526,-0.335038 -0.387904,-0.683743 -0.519688,-0.776996 -0.131783,-0.09325 -0.285243,-0.311396 -0.346454,-0.487268 -0.06122,-0.175881 -0.188734,-0.382507 -0.281499,-0.46093 -0.129659,-0.109621 -0.168252,-0.25638 -0.151575,-0.632132 0.01193,-0.268821 0.06905,-0.596157 0.108271,-0.724319 0.04059,-0.132617 0.02772,-0.25413 -0.02166,-0.289727 -0.04773,-0.03439 -0.08661,-0.170916 -0.08661,-0.302897 0,-0.153845 -0.09358,-0.291897 -0.238189,-0.368744 -0.207128,-0.110063 -0.25468,-0.275463 -0.216537,-0.618963 0.008,-0.0721 -0.07549,-0.233236 -0.173228,-0.355575 -0.09772,-0.122338 -0.1564,-0.288281 -0.129917,-0.368743 0.02798,-0.08506 -0.0075,-0.144864 -0.08662,-0.144864 -0.07484,0 -0.222322,-0.166188 -0.324802,-0.368744 -0.194754,-0.384973 -0.324034,-0.458945 -0.411416,-0.23705 -0.02849,0.07235 -0.0277,0.02486 0,-0.105355 0.06922,-0.325418 -0.06797,-0.296285 -0.389765,0.07902 -0.164375,0.191709 -0.327137,0.287937 -0.411416,0.250219 -0.168396,-0.07536 -0.449589,0.41395 -0.606301,1.066723 -0.125273,0.52186 -0.481551,0.835866 -0.49803,0.434593 -0.0051,-0.123591 -0.0022,-0.164528 0.02165,-0.09219 0.07875,0.23847 0.19809,0.137152 0.303151,-0.263389 0.05693,-0.217023 0.142664,-0.493817 0.194885,-0.618962 0.05223,-0.125146 0.08599,-0.549757 0.06496,-0.935029 -0.03446,-0.631054 -0.0768,-0.721837 -0.324809,-0.9482 -0.235879,-0.215295 -0.27587,-0.336324 -0.324803,-0.88235 -0.04434,-0.494818 -0.0211,-0.687833 0.08661,-0.829675 0.07631,-0.100479 0.195173,-0.285349 0.281499,-0.421421 0.126971,-0.200142 0.271213,-0.260401 0.692915,-0.289728 0.448419,-0.03119 0.560783,-0.08652 0.866142,-0.408252 0.195234,-0.205704 0.414495,-0.37445 0.476378,-0.381913 0.519772,-0.06268 0.647457,-0.03426 0.757871,0.144863 0.09605,0.155792 0.15715,0.165249 0.259847,0.06585 0.101436,-0.09818 0.208273,-0.08653 0.498029,0.06585 0.203095,0.106809 0.44258,0.193048 0.54134,0.184372 0.171577,-0.01508 0.171841,-0.0092 0.02165,0.184372 -0.144585,0.186328 -0.136819,0.20216 0,0.263388 0.08179,0.03662 0.280706,0.05242 0.433068,0.02633 0.217065,-0.03717 0.303067,0.0046 0.411422,0.197542 0.205339,0.365495 0.300036,0.297628 0.259841,-0.171203 -0.0359,-0.418602 0.155992,-0.684351 0.259841,-0.368744 0.02736,0.08316 0.118659,0.144864 0.216537,0.144864 0.09788,0 0.211634,0.04206 0.238189,0.09218 0.06041,0.114 0.498029,0.03422 0.498029,-0.09218 0,-0.162648 0.356345,-0.09885 0.368113,0.06585 0.02117,0.296216 0.04275,0.345008 0.108266,0.421421 0.03605,0.04206 0.07779,-0.009 0.108265,-0.118525 0.03049,-0.109565 0.101233,-0.298105 0.151575,-0.421422 0.116968,-0.286515 0.02081,-0.64448 -0.194879,-0.724318 -0.218919,-0.08103 -0.307663,-0.364197 -0.173227,-0.553116 0.04485,-0.06303 0.07512,-0.09116 0.108266,-0.09218 z m -0.389765,0.803335 c 0.0851,-0.01082 0.180501,0.04851 0.216537,0.158032 0.02856,0.08681 0.01401,0.151578 -0.02165,0.144865 -0.25483,-0.04798 -0.368899,-0.127514 -0.324803,-0.210711 0.03,-0.05663 0.07885,-0.0857 0.129917,-0.09218 z m 1.2125964,0.118524 c 0.0062,-0.0026 0.01417,0.0044 0.02166,0.01315 0.02998,0.03497 0.02606,0.12158 0,0.197542 -0.0288,0.08394 -0.06063,0.05673 -0.06496,-0.06585 -0.003,-0.08319 0.02484,-0.136937 0.0433,-0.144863 z m -6.9940924,0.302897 c 0.04962,0 0.08661,0.01399 0.08661,0.03949 0,0.02549 -0.03699,0.08275 -0.08661,0.118525 -0.04962,0.03577 -0.08661,0.0086 -0.08661,-0.05268 0,-0.06129 0.03699,-0.105355 0.08661,-0.105355 z m 16.7598454,0.671641 c 0.298002,-0.01884 0.185811,0.481769 -0.238189,0.737488 -0.144938,0.08741 -0.288286,0.158918 -0.303151,0.158033 -0.09812,-0.0058 -0.194183,-0.178792 -0.216537,-0.368743 -0.024,-0.203876 0.02435,-0.294634 0.281499,-0.368745 0.04962,-0.01428 0.204865,-0.06534 0.324802,-0.118525 0.05939,-0.02633 0.109004,-0.03683 0.151576,-0.03949 z m -9.289375,0.434591 c 0.04005,-0.0091 0.120664,0.06431 0.194885,0.171202 0.122608,0.176576 0.142669,0.278468 0.06496,0.4741 -0.05377,0.135348 -0.119673,0.236598 -0.151575,0.237049 -0.138835,0.0021 -0.229332,-0.727984 -0.108271,-0.869181 0.0039,-0.0045 -0.0057,-0.01188 0,-0.01315 z m 1.255906,0.03949 c 0.119889,0 0.113648,0.02878 0.02166,0.158033 -0.06178,0.08682 -0.111195,0.158033 -0.129924,0.158033 -0.01874,0 -0.04331,-0.07122 -0.04331,-0.158033 0,-0.08681 0.07107,-0.158033 0.151576,-0.158033 z m -9.5059054,1.81738 c 0.01589,-0.007 0.02812,0.0097 0.06496,0.05268 0.05521,0.06438 0.08399,0.170494 0.06496,0.237049 -0.04484,0.156878 -0.151575,0.01163 -0.151575,-0.197541 0,-0.05922 0.0058,-0.08518 0.02165,-0.09219 z m 19.0767734,0.250219 c 0.0078,0.0034 0.01949,0.02145 0.02165,0.06585 0.0049,0.101276 0.04388,0.184371 0.08662,0.184371 0.04275,0 0.04537,0.118707 0.02166,0.263389 -0.02371,0.144687 -0.0043,0.263388 0.0433,0.263388 0.0476,0 0.166314,0.166188 0.259841,0.368744 0.09354,0.202557 0.201408,0.368745 0.238189,0.368745 0.03679,0 0.04731,0.06691 0.02166,0.144863 -0.02565,0.07795 -0.175105,0.188886 -0.34646,0.250219 -0.22003,0.07876 -0.301735,0.07904 -0.259841,0 0.09468,-0.178683 0.129587,-1.027215 0.04331,-1.027215 -0.138253,0 -0.262697,-0.46584 -0.194885,-0.737487 0.02638,-0.105681 0.05202,-0.150641 0.06496,-0.144865 z m 1.732284,0.355576 c 0.02593,0.0013 0.06542,0.02903 0.108266,0.07902 0.06475,0.07553 0.07867,0.170887 0.02165,0.289728 -0.07674,0.15993 -0.102918,0.164283 -0.151575,-0.05268 -0.0445,-0.19846 -0.03539,-0.318691 0.02166,-0.316065 z m -2.078739,0.632131 c 0.111206,0 0.01915,0.559303 -0.108271,0.658472 -0.162581,0.126527 -0.202434,0.09161 -0.194879,-0.158033 0.0075,-0.248079 0.159773,-0.500439 0.30315,-0.500439 z m 19.812987,0.01315 c 0.02236,-0.0013 0.05277,0.02832 0.08661,0.09218 0.02853,0.05387 0.0072,0.121681 -0.0433,0.158033 -0.05042,0.03637 -0.08661,-0.0021 -0.08661,-0.09218 0,-0.103968 0.01457,-0.156575 0.0433,-0.158033 z M 3.2125886,18.29753 c 0.0062,-0.0026 0.01416,-0.0087 0.02165,0 0.02998,0.03497 0.02606,0.134749 0,0.210711 -0.0288,0.08394 -0.06063,0.05674 -0.06496,-0.06584 -0.003,-0.08319 0.02484,-0.136937 0.04331,-0.144864 z M 41.149594,18.8638 c 0.05257,-0.01294 0.08661,0.03802 0.08661,0.144865 0,0.04827 -0.03946,0.114066 -0.108262,0.144863 -0.08761,0.03919 -0.11824,-0.0039 -0.08662,-0.144863 0.01864,-0.08297 0.06738,-0.134805 0.108266,-0.144865 z m -26.568897,0.750658 c 0.04026,-0.0052 0.107137,0.01821 0.194885,0.06585 0.120195,0.06526 0.235698,0.177875 0.25984,0.25022 0.02997,0.08978 -0.06787,0.131694 -0.281498,0.131694 -0.312915,0 -0.35467,-0.0542 -0.259841,-0.342405 0.02028,-0.06166 0.04636,-0.100134 0.08661,-0.105355 z m 14.334647,0.210711 c -0.179444,-0.0017 -0.389765,0.05093 -0.389765,0.131694 -6e-6,0.04455 -0.09118,0.113235 -0.194884,0.144863 -0.218614,0.06667 -0.168325,0.33592 0.129923,0.829674 0.131592,0.217854 0.150651,0.39499 0.108265,0.658471 -0.04459,0.277191 -0.01692,0.375951 0.108272,0.46093 0.08846,0.06004 0.290297,0.116768 0.433068,0.118525 0.257861,0.0034 0.238489,-0.01067 0.194885,-0.539946 -0.02633,-0.319551 -0.117867,-0.653056 -0.238189,-0.842844 l -0.194884,-0.316066 0.194884,-0.06584 c 0.19896,-0.06068 0.241202,-0.333315 0.08661,-0.513608 -0.03816,-0.0445 -0.130523,-0.06489 -0.238188,-0.06584 z m 12.125984,0.421421 c 0.03273,0.0026 0.08154,0.01745 0.129919,0.05267 0.117628,0.08569 0.123133,0.151539 0.04331,0.210711 -0.06005,0.04451 -0.172583,0.07813 -0.259847,0.07902 -0.133283,0.0013 -0.154791,-0.02975 -0.06495,-0.197543 0.05358,-0.100049 0.09697,-0.148926 0.151572,-0.144863 z m -0.216533,0.776996 c 0.0054,-0.003 0.01542,-0.0073 0.02164,0 0.02498,0.02912 0.0102,0.282327 -0.02164,0.553116 -0.04917,0.418493 -0.08118,0.496447 -0.281501,0.553116 -0.129606,0.03666 -0.313531,0.132541 -0.411416,0.210711 -0.09788,0.07818 -0.267504,0.133742 -0.368114,0.131694 -0.164627,-0.0034 -0.158668,-0.0145 0.04331,-0.144863 0.123437,-0.07968 0.243306,-0.119718 0.281497,-0.09218 0.03822,0.02752 0.100147,-0.02802 0.129919,-0.118525 0.02978,-0.09048 0.105379,-0.158034 0.173231,-0.158034 0.138188,-4e-6 0.411412,-0.525521 0.41142,-0.803334 -8e-6,-0.0745 0.0054,-0.123173 0.02164,-0.131695 z m -15.612209,0.869183 c 0.03235,-0.0063 0.06496,0.0067 0.06496,0.05267 0,0.06129 -0.03699,0.118525 -0.08661,0.118525 -0.04962,0 -0.08662,-0.02714 -0.08661,-0.05268 -6e-6,-0.02553 0.03699,-0.06959 0.08661,-0.105354 0.0124,-0.0089 0.01086,-0.01104 0.02165,-0.01315 z M 7.4999906,24.697854 c 0.0047,-0.0054 0.03671,0.01355 0.108265,0.07902 0.08684,0.07942 0.173228,0.175696 0.173228,0.197544 0,0.08661 -0.07701,0.0304 -0.19488,-0.144864 -0.05611,-0.08345 -0.09127,-0.126266 -0.08661,-0.131696 z m 30.8129884,0.684811 c 0.01174,-0.0043 0.01015,0.01572 0.02164,0.07902 0.01954,0.107433 0.0048,0.246783 -0.04331,0.302897 -0.05649,0.0659 -0.07688,-0.0055 -0.04331,-0.19754 0.02168,-0.12388 0.04985,-0.179092 0.06496,-0.184372 z M 12.82676,25.527529 c 0.04962,0 0.08661,0.02714 0.08661,0.05267 0,0.02554 -0.03699,0.06959 -0.08661,0.105353 -0.04962,0.03578 -0.08661,0.02177 -0.08661,-0.03947 0,-0.06128 0.03699,-0.118523 0.08661,-0.118523 z m 25.659445,0.553116 c 0.0062,-0.0026 0.01418,0.0044 0.02168,0.01317 0.02999,0.03498 0.02605,0.121585 0,0.197544 -0.02879,0.08394 -0.03899,0.05673 -0.04331,-0.06585 -0.003,-0.08319 0.003,-0.136936 0.02164,-0.144864 z m 0.324803,0.711151 c 0.04806,0 0.08662,0.07122 0.08662,0.158031 0,0.08681 -0.02382,0.158032 -0.04331,0.158032 -0.01949,0 -0.05806,-0.07123 -0.08661,-0.158032 -0.02858,-0.08682 -0.0048,-0.158031 0.0433,-0.158031 z m -25.962596,0.05267 c 0.05681,-0.01127 0.05517,0.03489 0.02165,0.158036 -0.06631,0.243692 0.180794,0.306132 0.259847,0.06584 0.03347,-0.101724 0.188169,-0.126185 0.519682,-0.105353 0.381884,0.02397 0.503568,0.07941 0.736224,0.342405 0.157054,0.17752 0.433975,0.356858 0.606295,0.395083 0.6252,0.138653 0.920135,0.498472 0.714567,0.882349 -0.136968,0.255792 -0.05774,0.392348 0.129924,0.210711 0.08528,-0.08254 0.151575,-0.08235 0.151575,-0.01313 0,0.06137 0.06473,0.107932 0.151576,0.105357 0.08683,-0.0026 0.284199,0.04412 0.433067,0.105358 0.148869,0.06123 0.511941,0.193279 0.801181,0.289726 0.497496,0.165887 0.507344,0.185753 0.454726,0.447757 -0.03059,0.152332 -0.140863,0.376217 -0.259841,0.500441 -0.122152,0.127541 -0.248438,0.40313 -0.281499,0.632131 -0.122608,0.849045 -0.223804,1.096363 -0.541339,1.251095 -0.401622,0.195714 -0.64127,0.460315 -0.714567,0.816505 -0.03275,0.159149 -0.100686,0.289729 -0.173227,0.289729 -0.07254,0 -0.162456,0.130573 -0.19488,0.289727 -0.09401,0.461491 -0.318447,0.686105 -0.606301,0.618965 -0.26547,-0.06193 -0.297845,0.02363 -0.151575,0.342404 0.09826,0.214124 -0.0908,0.457955 -0.433068,0.579452 -0.109832,0.03901 -0.200803,0.173875 -0.216537,0.302897 -0.01555,0.127481 -0.09879,0.242421 -0.173228,0.250218 -0.07444,0.0078 -0.173245,0.01969 -0.216537,0.02634 -0.0433,0.0067 -0.01584,0.07492 0.04331,0.158032 0.116979,0.164409 0.02208,0.453415 -0.259846,0.829674 -0.133597,0.178291 -0.142094,0.208059 0,0.329234 0.143252,0.122162 0.142195,0.159811 -0.06496,0.48727 -0.122765,0.194055 -0.214953,0.423572 -0.216532,0.513607 -0.0015,0.09004 -0.064,0.24113 -0.129923,0.342406 -0.160517,0.246617 -0.324802,0.233247 -0.324802,-0.02634 0,-0.11575 -0.02774,-0.210723 -0.06496,-0.210711 -0.03722,1.8e-5 -0.05367,-0.249269 -0.0433,-0.553119 0.01036,-0.303837 0.02273,-1.062237 0.0433,-1.698853 0.02058,-0.636608 0.09568,-1.298891 0.151575,-1.461805 0.05589,-0.162924 0.08661,-0.479618 0.08661,-0.711152 0,-0.231525 0.04211,-0.508317 0.08661,-0.605793 0.04452,-0.09746 0.104762,-0.435921 0.129924,-0.750655 0.04242,-0.530513 0.03063,-0.586744 -0.216537,-0.856016 -0.146643,-0.159751 -0.35767,-0.319646 -0.454726,-0.355571 -0.09704,-0.03591 -0.263826,-0.295414 -0.368106,-0.566286 -0.104293,-0.270877 -0.267955,-0.583874 -0.368113,-0.711151 -0.12394,-0.157502 -0.156184,-0.292428 -0.108266,-0.42142 0.03871,-0.104219 0.0756,-0.28138 0.06496,-0.381913 -0.01064,-0.100538 0.06781,-0.332487 0.19488,-0.526779 0.238464,-0.36462 0.287355,-0.65873 0.151575,-0.90869 -0.09294,-0.171105 0.105156,-0.424508 0.476378,-0.618965 0.08845,-0.04633 0.139141,-0.07226 0.173227,-0.07902 z m 22.86614,0.263389 c 0.01889,0 0.09387,0.150244 0.173234,0.329238 0.149469,0.33709 0.136314,0.52494 -0.02166,0.289727 -0.09481,-0.141161 -0.210368,-0.618966 -0.151576,-0.618966 z m 2.100398,0.09218 c 0.0056,-0.0013 0.02091,0.0089 0.02164,0.01313 0.05564,0.32768 0.0056,0.853475 -0.08662,1.132572 -0.165759,0.501465 -0.548345,0.474869 -0.80118,-0.05268 -0.144113,-0.300702 -0.160522,-0.342405 0,-0.342405 0.07236,0 0.297439,-0.172548 0.49803,-0.395083 0.175509,-0.194714 0.32913,-0.346148 0.368114,-0.355571 z m -2.836617,0.21071 0.259842,0.184374 c 0.420339,0.287994 1.039375,1.092005 1.039375,1.356452 0,0.08616 -0.02593,0.158032 -0.06496,0.158032 -0.08803,0 -0.736225,-1.009605 -0.736225,-1.145738 6e-6,-0.05455 -0.123382,-0.202554 -0.259841,-0.329238 z m 3.291344,0.921862 c 0.02309,-0.003 0.04914,0.0017 0.08661,0.01313 0.165617,0.05051 0.165162,0.342404 0,0.342404 -0.04066,0 -0.08557,0.08309 -0.108271,0.184373 -0.02271,0.101279 -0.0592,0.01406 -0.06496,-0.197543 -0.0068,-0.248279 0.01735,-0.333152 0.08661,-0.342406 z m 1.64566,0.03947 c 0.07109,0 0.166333,0.07122 0.194888,0.158032 0.0657,0.199653 -0.04254,0.20144 -0.194888,0 -0.09567,-0.126498 -0.106283,-0.158032 0,-0.158032 z m 0.692917,0.158032 c 0.07354,-0.0056 0.205231,0.0385 0.411416,0.144865 0.455567,0.235028 0.601107,0.388875 0.692913,0.671639 0.05124,0.157863 0.04289,0.16278 -0.108262,0.05268 -0.137087,-0.09985 -0.194845,-0.101055 -0.281497,0 -0.06079,0.07089 -0.145938,0.136263 -0.17323,0.131694 -0.275426,-0.04611 -0.734043,-0.734812 -0.627953,-0.935028 0.02104,-0.0396 0.0425,-0.06243 0.08661,-0.06585 z m 1.342519,1.000878 c 0.05909,-8.48e-4 0.120918,0.04748 0.151577,0.105357 0.06924,0.130639 0.04341,0.130639 -0.129924,0 -0.08131,-0.06128 -0.08622,-0.104392 -0.02164,-0.105357 z m -1.948819,0.618964 c 0.0422,0.003 0.09606,0.01804 0.151573,0.05268 0.110349,0.06888 0.162207,0.159895 0.129924,0.19754 -0.07198,0.08394 0.120914,0.319117 0.41142,0.500437 0.187356,0.116948 0.242693,0.09965 0.346457,-0.06584 0.06596,-0.105196 0.125995,-0.29967 0.129919,-0.447761 0.0021,-0.08238 0.01122,-0.138458 0.02164,-0.158032 0.0054,0.0082 0.01551,0.0213 0.02164,0.03947 0.02888,0.08578 0.106771,0.212214 0.173231,0.289726 0.06646,0.07751 0.129919,0.208462 0.129919,0.289731 -4e-6,0.08127 0.149118,0.300813 0.324803,0.487265 0.518432,0.550194 0.663784,0.913295 0.627958,1.527655 -0.049,0.840056 -0.278699,1.544951 -0.563002,1.698858 -0.459783,0.248897 -0.891421,0.119591 -1.017708,-0.302897 -0.145506,-0.486804 -0.454727,-0.803049 -0.454727,-0.460933 -4e-6,0.118478 -0.09139,0.06786 -0.346456,-0.171202 -0.336589,-0.315445 -0.378623,-0.309321 -0.736224,-0.184373 -0.204806,0.07156 -0.399617,0.18594 -0.454718,0.263389 -0.05511,0.07744 -0.206151,0.144866 -0.324807,0.144866 -0.118648,0 -0.297769,0.05152 -0.389759,0.118522 -0.270002,0.196655 -0.451265,0.04255 -0.389767,-0.316062 0.02892,-0.168747 -0.0066,-0.412832 -0.06496,-0.539949 -0.160412,-0.349562 -0.200346,-1.217927 -0.06496,-1.343282 0.06256,-0.05793 0.259385,-0.157617 0.433069,-0.223881 0.173685,-0.06629 0.4771,-0.310058 0.671264,-0.539944 0.264505,-0.313159 0.368153,-0.386715 0.454723,-0.302897 0.08637,0.08357 0.206301,0.0089 0.433069,-0.263389 0.184785,-0.221916 0.253648,-0.296011 0.346457,-0.289726 z m -11.108268,0.408251 c 0.01596,-0.0039 0.01614,0.003 0.02166,0.01313 0.04138,0.07808 -0.245966,1.403871 -0.346461,1.593499 -0.09274,0.17501 -0.298661,0.120934 -0.346454,-0.09218 -0.02452,-0.109338 -1.44e-4,-0.263656 0.04331,-0.342405 0.04345,-0.07875 0.05032,-0.275433 0.02165,-0.434591 -0.03247,-0.180206 0.0017,-0.28973 0.06496,-0.28973 0.05582,0 0.182301,-0.122437 0.303145,-0.263389 0.09065,-0.105705 0.190324,-0.172478 0.238189,-0.18437 z m 16.413389,3.88498 c 0.09238,-0.0026 0.181212,0.120654 0.12992,0.27656 -0.03179,0.09665 -0.08852,0.184373 -0.12992,0.184373 -0.127661,0 -0.185938,-0.206891 -0.10827,-0.368746 0.03115,-0.06489 0.06628,-0.09097 0.10827,-0.09218 z m -0.303154,0.671643 c 0.07611,0 -0.06849,0.458383 -0.194875,0.605794 -0.06789,0.07918 -0.129924,0.207052 -0.129924,0.289726 0,0.08267 -0.07467,0.144865 -0.151577,0.144865 -0.09098,0 -0.112885,-0.04611 -0.06495,-0.131694 0.04053,-0.07235 0.165754,-0.309749 0.281492,-0.526778 0.115725,-0.217024 0.236583,-0.381913 0.259839,-0.381913 z m -3.291338,0.210711 c 0.02134,-0.0062 0.05418,0 0.08662,0 0.102808,0 0.171405,0.04914 0.151573,0.118524 -0.05568,0.194833 -0.222385,0.219104 -0.281497,0.03947 -0.02806,-0.0853 -0.02078,-0.139398 0.04331,-0.158032 z m -28.214566,3.147492 c 0.01874,0 0.06815,0.07122 0.129924,0.158032 0.09199,0.12928 0.09824,0.158035 -0.02165,0.158035 -0.08051,0 -0.151576,-0.07123 -0.151576,-0.158035 0,-0.08682 0.02457,-0.158032 0.0433,-0.158032 z"
     style="fill:url(#linearGradient830);fill-opacity:1;stroke:none;stroke-width:0.4212904"
     id="path4773"
     inkscape:connector-curvature="0" />
  <path
     style="opacity:0.2;fill:url(#linearGradient869);fill-opacity:1;stroke:none;stroke-width:3.18959904;stroke-linecap:round;stroke-linejoin:round;stroke-miterlimit:4;stroke-dasharray:none;stroke-dashoffset:0;stroke-opacity:1;paint-order:normal"
     d="M 31.642578 17.179688 L 35.234375 20.515625 L 36.587891 24.820312 L 34.978516 27.410156 L 32.484375 28.453125 L 29.980469 28.816406 L 28.076172 28.853516 L 25.169922 28.349609 L 24.724609 28.478516 L 35.246094 39 L 46 39 L 46 30.568359 L 34.443359 19.011719 L 31.642578 17.179688 z "
     id="rect834" />
  <path
     style="opacity:0.2;fill:url(#linearGradient873);fill-opacity:1;stroke:none;stroke-width:3.64847827;stroke-linecap:round;stroke-linejoin:round;stroke-miterlimit:4;stroke-dasharray:none;stroke-dashoffset:0;stroke-opacity:1;paint-order:normal"
     d="m 15.166016,12.341797 -2.253907,0.880859 -1.384765,1.394532 0.128906,4.171874 0.871094,2.082032 9.49414,9.49414 8.125,-14.070312 -2.945312,-1.742188 -7.333984,-2.197265 z"
     id="rect841"
     inkscape:connector-curvature="0"
     sodipodi:nodetypes="cccccccccc" />
  <path
     style="opacity:0.2;fill:url(#linearGradient871);fill-opacity:1;stroke:none;stroke-width:4;stroke-linecap:round;stroke-linejoin:round;stroke-miterlimit:4;stroke-dasharray:none;stroke-dashoffset:0;stroke-opacity:1;paint-order:normal"
     d="M 27.996094 18.550781 L 27.408203 20.761719 L 22.021484 30.365234 L 19.882812 33.244141 L 17.236328 35.40625 L 15.595703 35.794922 L 14.095703 35.060547 L 13.492188 34.652344 L 13.630859 35.15625 L 17.474609 39 L 46 39 L 46 36.554688 L 27.996094 18.550781 z "
     id="rect855" />
  <path
     d="m 25.273942,27.849662 c -0.405362,0.191574 -0.608033,0.357021 -0.60802,0.496336 -1.3e-5,0.104499 0.0965,0.20028 0.289534,0.287354 0.193005,0.08708 0.443932,0.165446 0.752783,0.235104 0.308818,0.05225 0.66591,0.09578 1.071271,0.130611 0.405328,0.03484 0.829974,0.05225 1.273942,0.05225 2.16182,4e-6 4.014826,-0.287349 5.559017,-0.862058 2.258324,-0.801095 3.3875,-2.159483 3.387529,-4.075169 -2.9e-5,-2.124652 -1.235365,-4.153527 -3.706015,-6.086636 -0.926525,-0.766255 -1.901281,-1.454158 -2.924274,-2.06371 -1.023033,-0.62693 -2.113603,-1.201633 -3.271714,-1.724112 -1.524887,-0.661758 -3.049755,-1.175508 -4.57461,-1.54125 -1.50558,-0.383113 -3.040099,-0.609512 -4.603564,-0.679196 -1.833711,-0.104473 -3.435788,0.217714 -4.806235,0.966547 -1.196736,0.661801 -1.872311,1.471611 -2.026724,2.42943 -0.0579,0.261248 -0.08686,0.5486 -0.08686,0.862055 0,0.905612 0.144768,1.785082 0.4343,2.638413 0.347438,1.0101 0.801037,1.74154 1.360801,2.194323 0.09651,0.139336 0.193019,0.208997 0.289534,0.208984 -4e-6,1.3e-5 0.01928,-0.0174 0.0579,-0.05225 -4e-6,-0.06964 -0.04825,-0.174139 -0.144763,-0.313476 -0.868599,-1.166807 -1.302897,-2.673226 -1.302897,-4.51926 0,-0.330871 0.02894,-0.670468 0.08686,-1.018793 0.386042,-1.985319 2.094281,-2.977987 5.124723,-2.978009 1.389747,2.2e-5 2.7795,0.14805 4.169263,0.444088 1.409046,0.296081 2.856706,0.748877 4.342987,1.358391 1.35113,0.557309 2.634725,1.219088 3.850777,1.98534 1.216014,0.748874 2.374144,1.584806 3.474389,2.507798 2.0267,1.758956 3.04006,3.613679 3.040089,5.564177 -2.9e-5,1.584795 -0.762461,2.725496 -2.287307,3.4221 -0.656294,0.313479 -1.40908,0.557294 -2.25835,0.73144 -0.830014,0.174162 -1.756517,0.261234 -2.779511,0.261231 -1.100239,3e-6 -1.959184,-0.139318 -2.576839,-0.417969 -0.328149,-0.08706 -0.530824,-0.235097 -0.608016,-0.444087 m -10.59688,8.019723 c 0.25092,0.08709 0.540454,0.130619 0.868597,0.130619 0.366733,0 0.71417,-0.03482 1.042316,-0.104487 0.34743,-0.06966 0.665915,-0.18286 0.955457,-0.339605 2.123225,-1.027492 4.381575,-3.657198 6.775053,-7.889103 1.447645,-2.542624 2.711937,-5.19845 3.792871,-7.967489 0.05789,-0.121886 0.06754,-0.348289 0.02896,-0.679196 -0.03862,-0.313458 -0.08687,-0.470196 -0.144766,-0.470211 0.01928,1.5e-5 -0.0097,0.03485 -0.08686,0.104486 -1.023031,2.769041 -2.73127,6.025694 -5.124724,9.769962 -2.6251,4.110001 -4.61322,6.391399 -5.964364,6.8442 -0.386047,0.08708 -0.733487,0.139318 -1.042317,0.156738 -0.289536,0.03481 -0.550115,0.0087 -0.781733,-0.07837 -0.559768,-0.208987 -1.00372,-0.49634 -1.33185,-0.862056 -0.173722,-0.156734 -0.299186,-0.235105 -0.376393,-0.235105 -0.09651,0 -0.144771,0.05225 -0.144767,0.156738 -4e-6,0.104486 0.0579,0.235104 0.173722,0.391843 0.328133,0.452795 0.78173,0.809811 1.360802,1.071034"
     style="font-style:normal;font-variant:normal;font-weight:normal;font-stretch:normal;font-size:56.39134598px;line-height:125%;font-family:Scriptina;text-align:start;writing-mode:lr-tb;text-anchor:start;fill:#353c54;fill-opacity:1;stroke:none;stroke-width:0.3540253px;stroke-linecap:butt;stroke-linejoin:miter;stroke-opacity:1"
     id="text6117"
     inkscape:connector-curvature="0" />
</svg>
