<?xml version="1.0" encoding="UTF-8" standalone="no"?>
<svg
   xmlns:dc="http://purl.org/dc/elements/1.1/"
   xmlns:cc="http://creativecommons.org/ns#"
   xmlns:rdf="http://www.w3.org/1999/02/22-rdf-syntax-ns#"
   xmlns:svg="http://www.w3.org/2000/svg"
   xmlns="http://www.w3.org/2000/svg"
   xmlns:xlink="http://www.w3.org/1999/xlink"
   xmlns:sodipodi="http://sodipodi.sourceforge.net/DTD/sodipodi-0.dtd"
   xmlns:inkscape="http://www.inkscape.org/namespaces/inkscape"
   version="1.1"
   viewBox="0 0 48 48"
   height="48"
   width="48"
   id="svg52"
   sodipodi:docname="xnview.svg"
   inkscape:version="0.92.1 r15371">
  <sodipodi:namedview
     pagecolor="#ffffff"
     bordercolor="#666666"
     borderopacity="1"
     objecttolerance="10"
     gridtolerance="10"
     guidetolerance="10"
     inkscape:pageopacity="0"
     inkscape:pageshadow="2"
     inkscape:window-width="1600"
     inkscape:window-height="808"
     id="namedview54"
     showgrid="false"
     inkscape:zoom="1"
     inkscape:cx="22.455254"
     inkscape:cy="23.733919"
     inkscape:window-x="0"
     inkscape:window-y="0"
     inkscape:window-maximized="1"
     inkscape:current-layer="svg52">
    <inkscape:grid
       type="xygrid"
       id="grid4534" />
  </sodipodi:namedview>
  <metadata
     id="metadata56">
    <rdf:RDF>
      <cc:Work
         rdf:about="">
        <dc:format>image/svg+xml</dc:format>
        <dc:type
           rdf:resource="http://purl.org/dc/dcmitype/StillImage" />
        <dc:title></dc:title>
      </cc:Work>
    </rdf:RDF>
  </metadata>
  <defs
     id="defs34">
    <linearGradient
       inkscape:collect="always"
       id="linearGradient4627">
      <stop
         style="stop-color:#000000;stop-opacity:1;"
         offset="0"
         id="stop4623" />
      <stop
         style="stop-color:#000000;stop-opacity:0;"
         offset="1"
         id="stop4625" />
    </linearGradient>
    <linearGradient
       inkscape:collect="always"
       id="linearGradient4608">
      <stop
         style="stop-color:#000000;stop-opacity:1;"
         offset="0"
         id="stop4604" />
      <stop
         style="stop-color:#ffffff;stop-opacity:1"
         offset="1"
         id="stop4606" />
    </linearGradient>
    <linearGradient
       inkscape:collect="always"
       id="linearGradient4598">
      <stop
         style="stop-color:#20b9fa;stop-opacity:1;"
         offset="0"
         id="stop4594" />
      <stop
         style="stop-color:#197ef1;stop-opacity:1"
         offset="1"
         id="stop4596" />
    </linearGradient>
    <linearGradient
       inkscape:collect="always"
       id="linearGradient4590">
      <stop
         style="stop-color:#f9fafb;stop-opacity:1;"
         offset="0"
         id="stop4586" />
      <stop
         style="stop-color:#d4dbde;stop-opacity:1"
         offset="1"
         id="stop4588" />
    </linearGradient>
    <linearGradient
       inkscape:collect="always"
       id="linearGradient4582">
      <stop
         style="stop-color:#eb5958;stop-opacity:1"
         offset="0"
         id="stop4578" />
      <stop
         style="stop-color:#f29860;stop-opacity:1"
         offset="1"
         id="stop4580" />
    </linearGradient>
    <linearGradient
       inkscape:collect="always"
       xlink:href="#linearGradient4582"
       id="linearGradient4584"
       x1="25.336206"
       y1="39.349194"
       x2="25.142233"
       y2="4.219883"
       gradientUnits="userSpaceOnUse" />
    <linearGradient
       inkscape:collect="always"
       xlink:href="#linearGradient4590"
       id="linearGradient4592"
       x1="24.206896"
       y1="14.00862"
       x2="24.439655"
       y2="35.883621"
       gradientUnits="userSpaceOnUse" />
    <linearGradient
       inkscape:collect="always"
       xlink:href="#linearGradient4598"
       id="linearGradient4600"
       x1="24.758621"
       y1="17.995689"
       x2="25.073277"
       y2="31.681034"
       gradientUnits="userSpaceOnUse" />
    <linearGradient
       inkscape:collect="always"
       xlink:href="#linearGradient4608"
       id="linearGradient4610"
       x1="24.5"
       y1="13.038794"
       x2="24.5"
       y2="36.637932"
       gradientUnits="userSpaceOnUse" />
    <linearGradient
       inkscape:collect="always"
       xlink:href="#linearGradient4627"
       id="linearGradient4629"
       x1="22.43996"
       y1="23.59984"
       x2="32.527317"
       y2="33.687199"
       gradientUnits="userSpaceOnUse" />
  </defs>
  <path
     style="opacity:1;vector-effect:none;fill:url(#linearGradient4584);fill-opacity:1;stroke:none;stroke-width:3.92278314;stroke-linecap:round;stroke-linejoin:round;stroke-miterlimit:4;stroke-dasharray:none;stroke-dashoffset:0;stroke-opacity:1"
     d="m 17.826471,4.0060353 c -0.199279,0.01217 -0.400873,0.043915 -0.601534,0.097719 -1.60529,0.4304355 -2.551128,2.0717515 -2.12099,3.6781584 l 1.165958,4.3582853 c -1.011478,0.602668 -1.949053,1.294704 -2.822128,2.042336 L 10.125672,10.85812 c -1.1751551,-1.1759718 -3.0687811,-1.1759718 -4.2439357,0 -1.1751546,1.175972 -1.1751546,3.068959 0,4.244931 l 3.3553063,3.357638 c -1.4831433,1.663519 -2.843738,3.220563 -4.1931563,4.241023 -1.3918483,1.02265 -1.3918484,3.579932 0,4.602583 C 11.000191,31.012919 14.999879,40.026056 23.998047,40 c 6.61e-4,-2e-6 0.0032,2e-6 0.0039,0 8.998168,0.02606 12.997856,-8.987081 18.954161,-12.695705 1.391848,-1.022651 1.391848,-3.579933 0,-4.602583 -1.348879,-1.020041 -2.708778,-2.576333 -4.191204,-4.239069 l 3.35726,-3.359592 c 1.175154,-1.175972 1.175154,-3.068959 0,-4.244931 -1.175155,-1.1759716 -3.066828,-1.1759716 -4.241983,0 l -3.32601,3.328323 c -0.867939,-0.743479 -1.797953,-1.434006 -2.802593,-2.034518 l 1.169865,-4.3700119 c 0.430136,-1.606407 -0.5157,-3.2477229 -2.120991,-3.6781584 -1.60529,-0.4304354 -3.243514,0.518013 -3.67365,2.1244198 L 26.083883,10.125224 C 25.416508,10.033508 24.723531,9.9806886 24,9.9805996 h -0.002 c -0.714394,8.6e-5 -1.39692,0.053184 -2.056541,0.1426704 L 20.898588,6.2281745 C 20.522218,4.8225685 19.221415,3.9208481 17.826471,4.0060353 Z"
     id="rect4528"
     inkscape:connector-curvature="0" />
  <g
     transform="matrix(1,0,0,-1,0,58.234376)"
     id="text4566"
     style="font-style:normal;font-weight:normal;font-size:6.85867405px;line-height:1.25;font-family:sans-serif;letter-spacing:0px;word-spacing:0px;fill:#ffffff;fill-opacity:1;stroke:none;stroke-width:0.17146686"
     aria-label="MILK" />
  <circle
     r="12"
     cy="25"
     cx="24"
     id="circle4602"
     style="opacity:0.2;vector-effect:none;fill:url(#linearGradient4610);fill-opacity:1;stroke:none;stroke-width:3.51323986;stroke-linecap:round;stroke-linejoin:round;stroke-miterlimit:4;stroke-dasharray:none;stroke-dashoffset:0;stroke-opacity:1" />
  <circle
     style="opacity:1;vector-effect:none;fill:url(#linearGradient4592);fill-opacity:1;stroke:none;stroke-width:3.22046995;stroke-linecap:round;stroke-linejoin:round;stroke-miterlimit:4;stroke-dasharray:none;stroke-dashoffset:0;stroke-opacity:1"
     id="path4574"
     cx="24"
     cy="25"
     r="11" />
  <path
     style="opacity:0.2;vector-effect:none;fill:#000000;fill-opacity:1;stroke:none;stroke-width:3.92278314;stroke-linecap:round;stroke-linejoin:round;stroke-miterlimit:4;stroke-dasharray:none;stroke-dashoffset:0;stroke-opacity:1"
     d="M 15.054688 6.4765625 C 14.979667 6.897834 14.985184 7.3393252 15.103516 7.78125 L 16.042969 11.291016 C 16.120515 11.243226 16.191101 11.187356 16.269531 11.140625 L 15.103516 6.78125 C 15.076292 6.6795791 15.071069 6.5781972 15.054688 6.4765625 z M 32.970703 6.4765625 C 32.954321 6.5781972 32.949099 6.6795791 32.921875 6.78125 L 31.751953 11.152344 C 31.830314 11.199183 31.901057 11.254818 31.978516 11.302734 L 32.921875 7.78125 C 33.040206 7.3393252 33.045724 6.897834 32.970703 6.4765625 z M 5.046875 12.480469 C 4.8905278 13.404851 5.1649596 14.387118 5.8808594 15.103516 L 8.7597656 17.984375 C 8.9214044 17.803073 9.0718262 17.645446 9.2363281 17.460938 L 5.8808594 14.103516 C 5.4216046 13.643941 5.1471728 13.073467 5.046875 12.480469 z M 42.957031 12.480469 C 42.856733 13.073467 42.582301 13.643941 42.123047 14.103516 L 38.765625 17.462891 C 38.93019 17.647472 39.08049 17.804959 39.242188 17.986328 L 42.123047 15.103516 C 42.838946 14.387118 43.113378 13.404851 42.957031 12.480469 z M 4.0488281 24.503906 C 3.8936856 25.550823 4.2164202 26.697387 5.0429688 27.304688 C 10.999273 31.013312 14.999879 40.026056 23.998047 40 C 23.998708 39.999998 24.001253 40.000002 24.001953 40 C 33.000121 40.02606 37.000726 31.013312 42.957031 27.304688 C 43.78358 26.697387 44.106314 25.550823 43.951172 24.503906 C 43.844828 25.219376 43.52195 25.889617 42.957031 26.304688 C 37.000726 30.013311 33.000121 39.02606 24.001953 39 C 24.001253 39.000002 23.998708 38.999998 23.998047 39 C 14.999879 39.026056 10.999273 30.013312 5.0429688 26.304688 C 4.4780496 25.889617 4.1551719 25.219376 4.0488281 24.503906 z "
     id="path4612" />
  <path
     style="opacity:0.3;vector-effect:none;fill:url(#linearGradient4629);fill-opacity:1;stroke:none;stroke-width:2.05125451;stroke-linecap:round;stroke-linejoin:round;stroke-miterlimit:4;stroke-dasharray:none;stroke-dashoffset:0;stroke-opacity:1"
     d="M 25.59375 19.109375 L 17.861328 27.367188 L 18.787109 29.695312 L 28.330078 39.238281 C 32.824472 37.599277 35.954016 33.607953 39.230469 30.380859 L 28.839844 19.992188 L 25.59375 19.109375 z "
     id="rect4617" />
  <circle
     r="7"
     cy="25"
     cx="24"
     id="circle4576"
     style="opacity:1;vector-effect:none;fill:url(#linearGradient4600);fill-opacity:1;stroke:none;stroke-width:2.04939008;stroke-linecap:round;stroke-linejoin:round;stroke-miterlimit:4;stroke-dasharray:none;stroke-dashoffset:0;stroke-opacity:1" />
</svg>
