<?xml version="1.0" encoding="UTF-8" standalone="no"?>
<svg
   xmlns:dc="http://purl.org/dc/elements/1.1/"
   xmlns:cc="http://creativecommons.org/ns#"
   xmlns:rdf="http://www.w3.org/1999/02/22-rdf-syntax-ns#"
   xmlns:svg="http://www.w3.org/2000/svg"
   xmlns="http://www.w3.org/2000/svg"
   xmlns:sodipodi="http://sodipodi.sourceforge.net/DTD/sodipodi-0.dtd"
   xmlns:inkscape="http://www.inkscape.org/namespaces/inkscape"
   viewBox="0 0 16 16"
   version="1.1"
   id="svg6"
   sodipodi:docname="display-brightness-symbolic.svg"
   inkscape:version="0.92.1 r15371"
   width="16"
   height="16">
  <metadata
     id="metadata10">
    <rdf:RDF>
      <cc:Work
         rdf:about="">
        <dc:format>image/svg+xml</dc:format>
        <dc:type
           rdf:resource="http://purl.org/dc/dcmitype/StillImage" />
        <dc:title></dc:title>
      </cc:Work>
    </rdf:RDF>
  </metadata>
  <sodipodi:namedview
     pagecolor="#ffffff"
     bordercolor="#666666"
     borderopacity="1"
     objecttolerance="10"
     gridtolerance="10"
     guidetolerance="10"
     inkscape:pageopacity="0"
     inkscape:pageshadow="2"
     inkscape:window-width="1600"
     inkscape:window-height="808"
     id="namedview8"
     showgrid="true"
     inkscape:zoom="18.68"
     inkscape:cx="0.90555183"
     inkscape:cy="11.932184"
     inkscape:window-x="0"
     inkscape:window-y="0"
     inkscape:window-maximized="1"
     inkscape:current-layer="svg6">
    <inkscape:grid
       type="xygrid"
       id="grid4512" />
  </sodipodi:namedview>
  <defs
     id="defs3051">
    <style
       type="text/css"
       id="current-color-scheme">
      .ColorScheme-Text {
        color:#232627;
      }
      </style>
  </defs>
  <path
     style="color:#7b7c7e;fill:#232627;fill-opacity:1;stroke:none;stroke-width:0.6000008"
     d="m 0,1 v 11 h 6 v 2 H 4 v 1 h 8 v -1 h -2 v -2 h 6 V 1 Z m 1,1 h 14 v 8 H 1 Z"
     id="path4510"
     inkscape:connector-curvature="0"
     sodipodi:nodetypes="cccccccccccccccccc" />
  <path
     style="color:#7b7c7e;fill:#232627;fill-opacity:1;stroke:none;stroke-width:0.64285803"
     d="M 8,3 C 6.3431427,3 5,4.3431429 5,6 5,7.656851 6.3431427,9 8,9 9.656857,9 11,7.656851 11,6 11,4.3431429 9.656857,3 8,3 Z M 8,4 V 8 C 6.8954285,8 6,7.104567 6,6 6,4.8954284 6.8954285,4 8,4 Z"
     id="path4517"
     inkscape:connector-curvature="0" />
</svg>
