<?xml version="1.0" encoding="UTF-8" standalone="no"?>
<svg
   width="22"
   height="22"
   version="1.1"
   id="svg33"
   sodipodi:docname="system-user.svg"
   inkscape:version="1.1 (c4e8f9ed74, 2021-05-24)"
   xmlns:inkscape="http://www.inkscape.org/namespaces/inkscape"
   xmlns:sodipodi="http://sodipodi.sourceforge.net/DTD/sodipodi-0.dtd"
   xmlns:xlink="http://www.w3.org/1999/xlink"
   xmlns="http://www.w3.org/2000/svg"
   xmlns:svg="http://www.w3.org/2000/svg"
   xmlns:rdf="http://www.w3.org/1999/02/22-rdf-syntax-ns#"
   xmlns:cc="http://creativecommons.org/ns#"
   xmlns:dc="http://purl.org/dc/elements/1.1/">
  <metadata
     id="metadata37">
    <rdf:RDF>
      <cc:Work
         rdf:about="">
        <dc:format>image/svg+xml</dc:format>
        <dc:type
           rdf:resource="http://purl.org/dc/dcmitype/StillImage" />
      </cc:Work>
    </rdf:RDF>
  </metadata>
  <sodipodi:namedview
     pagecolor="#ffffff"
     bordercolor="#666666"
     borderopacity="1"
     objecttolerance="10"
     gridtolerance="10"
     guidetolerance="10"
     inkscape:pageopacity="0"
     inkscape:pageshadow="2"
     inkscape:window-width="1920"
     inkscape:window-height="993"
     id="namedview35"
     showgrid="false"
     inkscape:zoom="8.6599296"
     inkscape:cx="24.076408"
     inkscape:cy="23.960934"
     inkscape:window-x="0"
     inkscape:window-y="29"
     inkscape:window-maximized="1"
     inkscape:current-layer="svg33"
     inkscape:pagecheckerboard="0" />
  <defs
     id="defs17">
    <linearGradient
       inkscape:collect="always"
       id="linearGradient4581">
      <stop
         style="stop-color:#000000;stop-opacity:1"
         offset="0"
         id="stop4577" />
      <stop
         style="stop-color:#000000;stop-opacity:0"
         offset="1"
         id="stop4579" />
    </linearGradient>
    <linearGradient
       id="b"
       y1="537.21997"
       y2="505.82999"
       x1="423.04001"
       gradientUnits="userSpaceOnUse"
       x2="398.97"
       gradientTransform="matrix(0.5499999,0,0,0.5499999,-213.71346,-277.08995)">
      <stop
         stop-color="#197cf1"
         id="stop7" />
      <stop
         offset="1"
         stop-color="#20bcfa"
         id="stop9" />
    </linearGradient>
    <linearGradient
       id="c"
       y1="506.87"
       y2="536.29999"
       x1="398.45999"
       x2="427.88"
       gradientUnits="userSpaceOnUse"
       gradientTransform="translate(-384.569,-499.799)">
      <stop
         stop-color="#abdaf9"
         id="stop12" />
      <stop
         offset="1"
         stop-color="#7cbcec"
         id="stop14" />
    </linearGradient>
    <linearGradient
       inkscape:collect="always"
       xlink:href="#linearGradient4581"
       id="linearGradient4583"
       x1="21.928898"
       y1="22.327032"
       x2="37.362404"
       y2="37.760536"
       gradientUnits="userSpaceOnUse"
       gradientTransform="matrix(0.5499999,0,0,0.5499999,-2.1999996,-2.1999929)" />
    <linearGradient
       inkscape:collect="always"
       id="linearGradient4290">
      <stop
         style="stop-color:#7cbaf8"
         id="stop4292" />
      <stop
         offset="1"
         style="stop-color:#f4fcff"
         id="stop4294" />
    </linearGradient>
    <linearGradient
       inkscape:collect="always"
       xlink:href="#linearGradient4290"
       id="linearGradient4515"
       x1="27.439453"
       y1="33.486328"
       x2="24.348507"
       y2="12.473684"
       gradientUnits="userSpaceOnUse"
       gradientTransform="matrix(0.5499999,0,0,0.5499999,-2.1999996,-2.1999929)" />
  </defs>
  <rect
     style="fill:url(#b);stroke-width:0.55"
     id="rect19"
     height="21.999996"
     rx="10.999998"
     y="0"
     x="3.8146973e-06"
     width="21.999996" />
  <path
     d="M 0.0066,10.725005 C 0.0044,10.816855 0,10.907605 0,11.000005 c 0,6.093998 4.9059991,10.999998 10.999998,10.999998 6.093999,0 10.999998,-4.906 10.999998,-10.999998 0,-0.0924 -0.0044,-0.18315 -0.0066,-0.275 -0.1452,5.965849 -4.993999,10.724998 -10.993398,10.724998 -6.0015989,0 -10.848198,-4.759149 -10.993398,-10.724998"
     id="path23"
     inkscape:connector-curvature="0"
     style="opacity:0.2;fill:#000000;fill-opacity:1;stroke-width:1.54;stroke-opacity:0.55" />
  <path
     style="opacity:0.15;vector-effect:none;fill:url(#linearGradient4583);fill-opacity:1;stroke:none;stroke-width:1.5414;stroke-linecap:round;stroke-linejoin:round;stroke-miterlimit:4;stroke-dasharray:none;stroke-dashoffset:0;stroke-opacity:1"
     d="m 14.201169,4.5751034 1.164453,0.8862308 0.758398,1.231054 -0.447949,2.012012 -1.926073,1.195605 0.276074,0.3727528 2.914355,0.844337 1.96582,3.037889 -0.239551,0.69502 -1.139746,0.302929 -3.338671,0.247071 -1.296582,0.81748 -8.4089828,-0.205176 -1.7413084,0.494141 5.0080072,5.008007 c 1.026595,0.315015 2.118065,0.485547 3.250585,0.485547 5.925558,0 10.726158,-4.6394 10.987107,-10.498339 L 15.674997,5.1895567 Z"
     id="rect4544" />
  <path
     style="color:#4d4d4d;color-interpolation:sRGB;color-interpolation-filters:linearRGB;fill:url(#linearGradient4515);fill-opacity:1;stroke-width:0.55;color-rendering:auto;image-rendering:auto;shape-rendering:auto;text-rendering:auto"
     d="m 13.749998,4.4000059 c -1.518783,0 -2.75,1.2312166 -2.75,2.7499993 0,1.518783 1.231217,2.75 2.75,2.75 1.518782,0 2.749999,-1.231217 2.749999,-2.75 0,-1.5187827 -1.231217,-2.7499993 -2.749999,-2.7499993 z m 0,5.4999993 c -0.166301,2.21e-4 -0.331738,0.0096 -0.49629,0.02471 -0.08034,0.0072 -0.159171,0.01946 -0.238476,0.03008 -0.07692,0.01048 -0.153606,0.02174 -0.229883,0.03545 -0.0987,0.0175 -0.196454,0.03747 -0.293261,0.06016 -0.05042,0.01192 -0.100348,0.02534 -0.150391,0.03867 -0.10954,0.02898 -0.218741,0.058 -0.325488,0.09346 -0.01409,0.0047 -0.02785,0.01023 -0.04189,0.01504 -0.408701,0.139485 -0.794719,0.325504 -1.15371,0.552148 -0.0019,0.0012 -0.0035,0.0031 -0.0054,0.0043 -0.08656,0.0548 -0.169411,0.114517 -0.252442,0.174024 0.200421,0.08222 0.394494,0.174929 0.583301,0.277148 0.394728,-0.245804 0.817412,-0.442017 1.263281,-0.568261 0.286815,-0.08121 0.581702,-0.135927 0.880859,-0.164356 0.152343,-0.01447 0.305627,-0.02227 0.459784,-0.02255 0.154976,7.3e-5 0.308172,0.0085 0.459765,0.02256 0.299157,0.02839 0.594044,0.08314 0.880859,0.164355 0.721398,0.204272 1.392821,0.571726 1.959375,1.080664 v -0.0054 c 0.87862,0.786772 1.476754,1.88611 1.616699,3.137809 H 17.049997 14.05615 c 0.05254,0.180002 0.0967,0.363324 0.132129,0.55 h 2.861718 2.2 c 0,-1.797886 -0.866028,-3.389973 -2.2,-4.393554 v -0.0011 c -0.0087,-0.0065 -0.01814,-0.01178 -0.02686,-0.01826 -0.109914,-0.08166 -0.222374,-0.159667 -0.338378,-0.233105 l -0.0011,-0.0011 c -0.0015,-9.35e-4 -0.0028,-0.0023 -0.0043,-0.0032 -0.358992,-0.226644 -0.74501,-0.412664 -1.153711,-0.552149 -0.01409,-0.0048 -0.02775,-0.01034 -0.04189,-0.01504 -0.106748,-0.03546 -0.215949,-0.06447 -0.325489,-0.09346 -0.05004,-0.01334 -0.09996,-0.02675 -0.15039,-0.03867 -0.09681,-0.02269 -0.19456,-0.04266 -0.293262,-0.06016 -0.07628,-0.01371 -0.152963,-0.02496 -0.229882,-0.03545 -0.07931,-0.01062 -0.158141,-0.02287 -0.238477,-0.03008 -0.164496,-0.01493 -0.32997,-0.02441 -0.49627,-0.02464 z m 0,-4.9499994 c 1.215027,3.3e-6 2.199999,0.9849756 2.199999,2.1999994 0,1.215024 -0.984972,2.199997 -2.199999,2.2 -1.215028,-3e-6 -2.2,-0.984976 -2.2,-2.2 0,-0.151878 0.01581,-0.300437 0.04512,-0.443652 0.205144,-1.002501 1.091735,-1.7563446 2.154884,-1.7563474 z M 8.249999,5.5000057 c -1.518783,0 -2.75,1.2312165 -2.75,2.7499995 0,1.518783 1.231217,2.7499998 2.75,2.7499998 1.518782,0 2.749999,-1.2312168 2.749999,-2.7499998 0,-1.518783 -1.231217,-2.7499995 -2.749999,-2.7499995 z m 0,5.4999993 c -0.166301,2.21e-4 -0.331738,0.0096 -0.49629,0.02471 -0.08034,0.0072 -0.159172,0.01946 -0.238476,0.03008 -0.07692,0.01048 -0.153606,0.02174 -0.229883,0.03545 -0.0987,0.0175 -0.196454,0.03747 -0.293261,0.06016 -0.05042,0.01192 -0.100348,0.02534 -0.150391,0.03867 -0.10954,0.02898 -0.218741,0.058 -0.325488,0.09346 -0.01409,0.0047 -0.02785,0.01022 -0.04189,0.01504 -0.408701,0.139485 -0.7947189,0.325504 -1.1537105,0.552148 -0.00192,0.0012 -0.00346,0.0031 -0.00539,0.0043 -0.1160032,0.07344 -0.2284639,0.151441 -0.3383786,0.233105 -0.00872,0.0065 -0.018172,0.01173 -0.026857,0.01826 v 0.0011 C 3.6160488,13.110044 2.750003,14.702145 2.750003,16.50003 h 2.1999996 6.5999994 2.199999 c 0,-1.797886 -0.866028,-3.389973 -2.199999,-4.393554 v -0.0011 c -0.0087,-0.0065 -0.01814,-0.01178 -0.02686,-0.01826 -0.109914,-0.08166 -0.222375,-0.159667 -0.338378,-0.233106 0,0 -0.0011,-0.0011 -0.0011,-0.0011 -0.0015,-9.35e-4 -0.0028,-0.0023 -0.0043,-0.0032 -0.358992,-0.226644 -0.74501,-0.412663 -1.153711,-0.552148 -0.01409,-0.0048 -0.02775,-0.01034 -0.04189,-0.01504 -0.106748,-0.03546 -0.215949,-0.06448 -0.325489,-0.09346 -0.05004,-0.01334 -0.09996,-0.02675 -0.15039,-0.03867 -0.09681,-0.02269 -0.19456,-0.04266 -0.293262,-0.06016 -0.07628,-0.01371 -0.152963,-0.02496 -0.229882,-0.03545 -0.0793,-0.01062 -0.158141,-0.02287 -0.238477,-0.03008 -0.164515,-0.015 -0.32997,-0.02441 -0.49627,-0.02464 z m 0,-4.9499998 c 1.215027,4e-6 2.199999,0.984976 2.199999,2.2 0,1.215024 -0.984972,2.1999958 -2.199999,2.1999998 -1.215028,-4e-6 -2.2,-0.9849758 -2.2,-2.1999998 0,-0.151879 0.01581,-0.300437 0.04512,-0.443652 0.205143,-1.002501 1.091735,-1.756345 2.154884,-1.756348 z m 0,5.4999988 c 0.154976,7.4e-5 0.308172,0.0085 0.459765,0.02256 0.299157,0.02839 0.594044,0.08314 0.880859,0.164356 0.721398,0.204271 1.392821,0.571726 1.959375,1.080664 v -0.0054 c 0.87862,0.786755 1.476754,1.88611 1.616699,3.137809 H 11.549998 4.9499991 3.3333003 C 3.4732444,14.698294 4.0713781,13.598922 4.9499991,12.8122 v 0.0054 C 5.516554,12.308661 6.187976,11.941194 6.909374,11.736936 c 0.286815,-0.08121 0.581702,-0.135927 0.880859,-0.164355 0.152308,-0.01451 0.305609,-0.0223 0.459766,-0.02258 z"
     id="path25-5"
     inkscape:connector-curvature="0" />
</svg>
