<?xml version="1.0" encoding="UTF-8" standalone="no"?>
<!-- Created with Inkscape (http://www.inkscape.org/) -->

<svg
   xmlns:dc="http://purl.org/dc/elements/1.1/"
   xmlns:cc="http://creativecommons.org/ns#"
   xmlns:rdf="http://www.w3.org/1999/02/22-rdf-syntax-ns#"
   xmlns:svg="http://www.w3.org/2000/svg"
   xmlns="http://www.w3.org/2000/svg"
   xmlns:sodipodi="http://sodipodi.sourceforge.net/DTD/sodipodi-0.dtd"
   xmlns:inkscape="http://www.inkscape.org/namespaces/inkscape"
   id="svg7384"
   height="16"
   width="16"
   version="1.1"
   sodipodi:docname="drive-harddisk-solidstate-symbolic.svg"
   inkscape:version="0.92.1 r15371">
  <defs
     id="defs16" />
  <sodipodi:namedview
     pagecolor="#ffffff"
     bordercolor="#666666"
     borderopacity="1"
     objecttolerance="10"
     gridtolerance="10"
     guidetolerance="10"
     inkscape:pageopacity="0"
     inkscape:pageshadow="2"
     inkscape:window-width="1600"
     inkscape:window-height="808"
     id="namedview14"
     showgrid="false"
     inkscape:zoom="18.16"
     inkscape:cx="0.86779002"
     inkscape:cy="8"
     inkscape:window-x="0"
     inkscape:window-y="0"
     inkscape:window-maximized="1"
     inkscape:current-layer="svg7384" />
  <metadata
     id="metadata90">
    <rdf:RDF>
      <cc:Work
         rdf:about="">
        <dc:format>image/svg+xml</dc:format>
        <dc:type
           rdf:resource="http://purl.org/dc/dcmitype/StillImage" />
        <dc:title>Gnome Symbolic Icon Theme</dc:title>
      </cc:Work>
    </rdf:RDF>
  </metadata>
  <title
     id="title9167">Gnome Symbolic Icon Theme</title>
  <path
     style="color:#000000;fill:#232627;fill-opacity:1;enable-background:new"
     d="M 0 0 L 0 16 L 16 16 L 16 0 L 0 0 z M 1 1 L 15 1 L 15 15 L 1 15 L 1 1 z M 6 3 L 6 3.5 L 6 4 L 5 4 L 5 5 L 4.5605469 5 L 4.0605469 5 L 4.0605469 6 L 4.5605469 6 L 5 6 L 5 7 L 4.5605469 7 L 4.0605469 7 L 4.0605469 8 L 4.5605469 8 L 5 8 L 5 9 L 4.5605469 9 L 4.0605469 9 L 4.0605469 10 L 4.5605469 10 L 5 10 L 5 11 L 6 11 L 6 11.5 L 6 12 L 7 12 L 7 11.5 L 7 11 L 8 11 L 8 11.5 L 8 12 L 9 12 L 9 11.5 L 9 11 L 10 11 L 10 11.5 L 10 12 L 11 12 L 11 11.5 L 11 10 L 11.498047 10 L 11.998047 10 L 11.998047 9 L 11.498047 9 L 11 9 L 11 8 L 11.498047 8 L 11.998047 8 L 11.998047 7 L 11.498047 7 L 11 7 L 11 6 L 11.498047 6 L 11.998047 6 L 11.998047 5 L 11.498047 5 L 11 5 L 11 4 L 11 3.5 L 11 3 L 10 3 L 10 3.5 L 10 4 L 9 4 L 9 3.5 L 9 3 L 8 3 L 8 3.5 L 8 4 L 7 4 L 7 3.5 L 7 3 L 6 3 z "
     id="rect27165" />
</svg>
