<?xml version="1.0" encoding="UTF-8" standalone="no"?>
<svg
   xmlns:dc="http://purl.org/dc/elements/1.1/"
   xmlns:cc="http://creativecommons.org/ns#"
   xmlns:rdf="http://www.w3.org/1999/02/22-rdf-syntax-ns#"
   xmlns:svg="http://www.w3.org/2000/svg"
   xmlns="http://www.w3.org/2000/svg"
   xmlns:sodipodi="http://sodipodi.sourceforge.net/DTD/sodipodi-0.dtd"
   xmlns:inkscape="http://www.inkscape.org/namespaces/inkscape"
   width="16"
   height="16"
   version="1.1"
   id="svg8"
   sodipodi:docname="preferences-system-time-symbolic.svg"
   inkscape:version="0.92.3 (2405546, 2018-03-11)">
  <metadata
     id="metadata14">
    <rdf:RDF>
      <cc:Work
         rdf:about="">
        <dc:format>image/svg+xml</dc:format>
        <dc:type
           rdf:resource="http://purl.org/dc/dcmitype/StillImage" />
      </cc:Work>
    </rdf:RDF>
  </metadata>
  <defs
     id="defs12" />
  <sodipodi:namedview
     pagecolor="#ffffff"
     bordercolor="#666666"
     borderopacity="1"
     objecttolerance="10"
     gridtolerance="10"
     guidetolerance="10"
     inkscape:pageopacity="0"
     inkscape:pageshadow="2"
     inkscape:window-width="1920"
     inkscape:window-height="1026"
     id="namedview10"
     showgrid="false"
     inkscape:zoom="14.75"
     inkscape:cx="0.74576271"
     inkscape:cy="7.7288136"
     inkscape:window-x="0"
     inkscape:window-y="30"
     inkscape:window-maximized="1"
     inkscape:current-layer="svg8" />
  <path
     inkscape:connector-curvature="0"
     style="fill:#eff0f1;fill-opacity:1;stroke:none"
     d="M 8,3.5000001e-8 C 3.568002,3.5000001e-8 5e-8,3.5680021 5e-8,8.0000001 5.0000001e-8,12.431998 3.568002,16 8,16 12.431998,16 16,12.431998 16,8.0000001 16,3.5680021 12.431998,3.5e-8 8,3.5000001e-8 Z M 8,1 c 3.877999,0 7,3.1220011 7,7.0000001 C 15,11.877999 11.877999,15 8,15 4.122001,15 1.0000001,11.877999 1.0000001,8.0000001 1.0000001,4.1220011 4.122001,1 8,1 Z M 7,2.0000001 v 7 h 1 5 v -1 H 8 v -6 z"
     class="ColorScheme-Text"
     id="path4-3" />
</svg>
