<?xml version="1.0" encoding="UTF-8" standalone="no"?>
<svg
   xmlns:dc="http://purl.org/dc/elements/1.1/"
   xmlns:cc="http://creativecommons.org/ns#"
   xmlns:rdf="http://www.w3.org/1999/02/22-rdf-syntax-ns#"
   xmlns:svg="http://www.w3.org/2000/svg"
   xmlns="http://www.w3.org/2000/svg"
   xmlns:sodipodi="http://sodipodi.sourceforge.net/DTD/sodipodi-0.dtd"
   xmlns:inkscape="http://www.inkscape.org/namespaces/inkscape"
   width="16"
   height="16"
   version="1.1"
   id="svg8"
   sodipodi:docname="preferences-desktop-screensaver-symbolic.svg"
   inkscape:version="0.92.3 (2405546, 2018-03-11)">
  <metadata
     id="metadata14">
    <rdf:RDF>
      <cc:Work
         rdf:about="">
        <dc:format>image/svg+xml</dc:format>
        <dc:type
           rdf:resource="http://purl.org/dc/dcmitype/StillImage" />
      </cc:Work>
    </rdf:RDF>
  </metadata>
  <defs
     id="defs12" />
  <sodipodi:namedview
     pagecolor="#ffffff"
     bordercolor="#666666"
     borderopacity="1"
     objecttolerance="10"
     gridtolerance="10"
     guidetolerance="10"
     inkscape:pageopacity="0"
     inkscape:pageshadow="2"
     inkscape:window-width="1920"
     inkscape:window-height="1026"
     id="namedview10"
     showgrid="true"
     inkscape:zoom="22.36"
     inkscape:cx="8.2711864"
     inkscape:cy="7.7288136"
     inkscape:window-x="0"
     inkscape:window-y="30"
     inkscape:window-maximized="1"
     inkscape:current-layer="svg8">
    <inkscape:grid
       type="xygrid"
       id="grid831" />
  </sodipodi:namedview>
  <path
     style="color:#bebebe;overflow:visible;fill:#eff0f1"
     d="M 7 1 C 6.4466022 1 6 1.4471683 6 2.0019531 A 0.99861256 0.99861256 0 0 0 7.0019531 3 A 0.99861256 0.99861256 0 0 0 8 2 C 8 1.4466022 7.5547848 1 7 1 z M 3.5058594 1.5058594 L 2.7597656 3.7597656 L 0.50585938 4.5058594 L 2.7597656 5.25 L 3.5058594 7.5058594 L 4.25 5.25 L 6.5058594 4.5058594 L 4.25 3.7597656 L 3.5058594 1.5058594 z M 11 2 C 10.445853 2.0010677 10 2.4450668 10 2.9980469 A 0.99713416 0.99713416 0 0 0 11 4 A 0.9999954 0.9999954 0 0 0 11.001953 2 L 11 2 z M 8 4 C 7.4466022 4 7 4.4471683 7 5.0019531 A 0.99861256 0.99861256 0 0 0 8.0019531 6 A 0.99861256 0.99861256 0 0 0 9 5 C 9 4.4466022 8.5547848 4 8 4 z M 12.109375 6 C 12.729375 6.75 13.103516 7.7097656 13.103516 8.7597656 A 4.344 4.344 0 0 1 8.7597656 13.103516 C 7.7097656 13.103516 6.75 12.728375 6 12.109375 A 5.055 5.055 0 0 0 10.931641 16 A 5.068 5.068 0 0 0 16 10.931641 C 16 8.5326399 14.347375 6.525 12.109375 6 z M 14.027344 8.328125 C 14.622341 9.0341293 15 9.9244061 15 10.931641 C 15 13.19018 13.19018 15 10.931641 15 A 1.0001 1.0001 0 0 0 10.929688 15 C 9.9425721 15.0025 9.0544765 14.626754 8.3417969 14.029297 C 8.485634 14.041087 8.613072 14.103516 8.7597656 14.103516 C 11.699331 14.103516 14.103516 11.699331 14.103516 8.7597656 C 14.103516 8.6083769 14.039874 8.4764933 14.027344 8.328125 z "
     id="path829" />
</svg>
