<?xml version="1.0" encoding="UTF-8" standalone="no"?>
<!-- Created with Inkscape (http://www.inkscape.org/) -->

<svg
   width="128"
   height="128"
   viewBox="0 0 33.866666 33.866668"
   version="1.1"
   id="svg5"
   inkscape:version="1.1.1 (3bf5ae0d25, 2021-09-20, custom)"
   sodipodi:docname="weather-showers-large.svg"
   xmlns:inkscape="http://www.inkscape.org/namespaces/inkscape"
   xmlns:sodipodi="http://sodipodi.sourceforge.net/DTD/sodipodi-0.dtd"
   xmlns:xlink="http://www.w3.org/1999/xlink"
   xmlns="http://www.w3.org/2000/svg"
   xmlns:svg="http://www.w3.org/2000/svg">
  <sodipodi:namedview
     id="namedview7"
     pagecolor="#ffffff"
     bordercolor="#666666"
     borderopacity="1.0"
     inkscape:pageshadow="2"
     inkscape:pageopacity="0.0"
     inkscape:pagecheckerboard="0"
     inkscape:document-units="px"
     showgrid="false"
     units="px"
     width="128px"
     showguides="false"
     inkscape:zoom="4.0000001"
     inkscape:cx="53.749999"
     inkscape:cy="51.749999"
     inkscape:window-width="1920"
     inkscape:window-height="1019"
     inkscape:window-x="0"
     inkscape:window-y="0"
     inkscape:window-maximized="1"
     inkscape:current-layer="svg5" />
  <defs
     id="defs2">
    <linearGradient
       inkscape:collect="always"
       id="linearGradient3293">
      <stop
         style="stop-color:#eff1f1;stop-opacity:1;"
         offset="0"
         id="stop3289" />
      <stop
         style="stop-color:#b0b8b8;stop-opacity:1"
         offset="1"
         id="stop3291" />
    </linearGradient>
    <linearGradient
       inkscape:collect="always"
       xlink:href="#linearGradient3293"
       id="linearGradient3295"
       x1="68"
       y1="14"
       x2="68.848633"
       y2="79.952148"
       gradientUnits="userSpaceOnUse"
       gradientTransform="matrix(0.26458334,0,0,0.26458334,0,-0.52916663)" />
  </defs>
  <path
     id="path950-3"
     style="fill:#3b85b5;fill-opacity:1;stroke-width:0.29446"
     d="m 15.652274,21.695834 -1.183907,1.112594 c -0.402855,0.381239 -0.710008,0.91303 -0.710034,1.491382 0,1.045951 0.84799,1.893941 1.893941,1.893941 1.04595,0 1.893941,-0.84799 1.893941,-1.893941 -2.6e-5,-0.578352 -0.424978,-1.186648 -0.710551,-1.491382 z m 12.616339,0 -1.183907,1.112594 c -0.402853,0.38124 -0.710009,0.91303 -0.710035,1.491382 0,1.04595 0.847991,1.893941 1.893942,1.893941 1.04595,0 1.893942,-0.847991 1.893942,-1.893941 -2.7e-5,-0.578352 -0.424979,-1.186647 -0.710552,-1.491382 z m -16.849673,5.291667 -1.183907,1.112594 c -0.4028537,0.381238 -0.7100077,0.91303 -0.7100337,1.491382 0,1.045951 0.8479907,1.893941 1.8939407,1.893941 1.04595,0 1.893941,-0.84799 1.893941,-1.893941 -2.6e-5,-0.578352 -0.424977,-1.186648 -0.710551,-1.491382 z m 12.616339,0 -1.183907,1.112594 c -0.402854,0.381241 -0.710009,0.91303 -0.710035,1.491382 0,1.045949 0.847991,1.893941 1.893942,1.893941 1.04595,0 1.893941,-0.847992 1.893941,-1.893941 -2.6e-5,-0.578352 -0.424977,-1.186648 -0.710551,-1.491382 z"
     sodipodi:nodetypes="cccsccccccsccccccsccccccsccc" />
  <path
     id="path950-3-6"
     style="fill:#3b85b5;fill-opacity:1;stroke-width:0.29446"
     d="m 9.3022743,21.695834 -1.183907,1.112594 c -0.402855,0.381239 -0.710008,0.91303 -0.710034,1.491382 0,1.045951 0.84799,1.893941 1.893941,1.893941 1.0459497,0 1.8939407,-0.84799 1.8939407,-1.893941 -2.6e-5,-0.578352 -0.424978,-1.186648 -0.710551,-1.491382 z m 12.6163387,0 -1.183907,1.112594 c -0.402853,0.38124 -0.710009,0.91303 -0.710035,1.491382 0,1.04595 0.847991,1.893941 1.893942,1.893941 1.04595,0 1.893942,-0.847991 1.893942,-1.893941 -2.7e-5,-0.578352 -0.424979,-1.186647 -0.710552,-1.491382 z M 5.0689403,26.987501 3.8850333,28.100095 C 3.48218,28.481333 3.175026,29.013125 3.175,29.591477 c 0,1.045951 0.8479903,1.893941 1.8939403,1.893941 1.04595,0 1.893941,-0.84799 1.893941,-1.893941 -2.6e-5,-0.578352 -0.424977,-1.186648 -0.710551,-1.491382 z m 12.6163387,0 -1.183907,1.112594 c -0.402854,0.381241 -0.710009,0.91303 -0.710035,1.491382 0,1.045949 0.847991,1.893941 1.893942,1.893941 1.04595,0 1.893941,-0.847992 1.893941,-1.893941 -2.6e-5,-0.578352 -0.424977,-1.186648 -0.710551,-1.491382 z"
     sodipodi:nodetypes="cccsccccccsccccccsccccccsccc" />
  <path
     id="path2382"
     style="fill:url(#linearGradient3295);fill-opacity:1;stroke-width:0.263571"
     d="M 17.991667,3.1750001 A 7.6729171,7.6729171 0 0 0 10.31875,10.847917 7.6729171,7.6729171 0 0 0 10.36526,11.642183 4.4979168,4.4979168 0 0 0 10.31875,11.641667 4.4979168,4.4979168 0 0 0 5.8208335,16.139583 4.4979168,4.4979168 0 0 0 10.31875,20.6375 H 24.341667 A 5.8208332,5.8208332 0 0 0 30.162501,14.816667 5.8208332,5.8208332 0 0 0 25.463563,9.1053874 7.6729171,7.6729171 0 0 0 17.991667,3.1750001 Z" />
  <path
     id="path2382-2"
     style="fill:#000000;fill-opacity:0.2;stroke-width:0.263571"
     d="m 10.328569,10.621057 a 7.6729171,7.6729171 0 0 0 -0.0098,0.22686 7.6729171,7.6729171 0 0 0 0.0088,0.264583 4.4979168,4.4979168 0 0 1 0.03772,5.29e-4 7.6729171,7.6729171 0 0 1 -0.03669,-0.49196 z m 19.821012,3.933093 a 5.8208332,5.8208332 0 0 1 -5.807914,5.554184 H 10.31875 A 4.4979168,4.4979168 0 0 1 5.8358197,15.875 4.4979168,4.4979168 0 0 0 5.8208337,16.139583 4.4979168,4.4979168 0 0 0 10.31875,20.6375 h 14.022917 a 5.8208332,5.8208332 0 0 0 5.820834,-5.820833 5.8208332,5.8208332 0 0 0 -0.01291,-0.262517 z" />
</svg>
