<?xml version="1.0" encoding="UTF-8" standalone="no"?>
<svg
   width="16"
   height="16"
   viewBox="0 0 16 16"
   version="1.1"
   id="svg974"
   inkscape:version="1.1.1 (3bf5ae0d25, 2021-09-20, custom)"
   sodipodi:docname="weather-showers-scattered-small.svg"
   xmlns:inkscape="http://www.inkscape.org/namespaces/inkscape"
   xmlns:sodipodi="http://sodipodi.sourceforge.net/DTD/sodipodi-0.dtd"
   xmlns:xlink="http://www.w3.org/1999/xlink"
   xmlns="http://www.w3.org/2000/svg"
   xmlns:svg="http://www.w3.org/2000/svg"
   xmlns:rdf="http://www.w3.org/1999/02/22-rdf-syntax-ns#"
   xmlns:cc="http://creativecommons.org/ns#"
   xmlns:dc="http://purl.org/dc/elements/1.1/">
  <defs
     id="defs968">
    <linearGradient
       inkscape:collect="always"
       id="linearGradient1581">
      <stop
         style="stop-color:#eff1f1;stop-opacity:1;"
         offset="0"
         id="stop1577" />
      <stop
         style="stop-color:#dfdfdf;stop-opacity:1"
         offset="1"
         id="stop1579" />
    </linearGradient>
    <linearGradient
       inkscape:collect="always"
       xlink:href="#linearGradient1581"
       id="linearGradient1583"
       x1="9.3291922"
       y1="5.4036694"
       x2="11.639751"
       y2="13.950253"
       gradientUnits="userSpaceOnUse"
       gradientTransform="translate(-0.99999994,-0.9998858)" />
    <linearGradient
       inkscape:collect="always"
       xlink:href="#linearGradient1581"
       id="linearGradient1673"
       gradientUnits="userSpaceOnUse"
       gradientTransform="translate(2.4799458e-8,-3.9998855)"
       x1="9.3291922"
       y1="5.4036694"
       x2="11.639751"
       y2="13.950253" />
  </defs>
  <sodipodi:namedview
     id="base"
     pagecolor="#ffffff"
     bordercolor="#666666"
     borderopacity="1.0"
     inkscape:pageopacity="0.0"
     inkscape:pageshadow="2"
     inkscape:zoom="32"
     inkscape:cx="3"
     inkscape:cy="9.5625"
     inkscape:document-units="px"
     inkscape:current-layer="svg974"
     inkscape:document-rotation="0"
     showgrid="false"
     units="px"
     inkscape:window-width="1920"
     inkscape:window-height="1019"
     inkscape:window-x="0"
     inkscape:window-y="0"
     inkscape:window-maximized="1"
     inkscape:pagecheckerboard="0" />
  <metadata
     id="metadata971">
    <rdf:RDF>
      <cc:Work
         rdf:about="">
        <dc:format>image/svg+xml</dc:format>
        <dc:type
           rdf:resource="http://purl.org/dc/dcmitype/StillImage" />
      </cc:Work>
    </rdf:RDF>
  </metadata>
  <path
     id="path1539"
     style="fill:url(#linearGradient1673);fill-opacity:1;stroke-width:1.13137"
     d="M 7.9394532,2.0001145 C 6.516039,2.0217678 5.2113946,2.7983064 4.513672,4.039177 3.0637229,4.277378 1.9996968,5.5307293 2.0000001,7.0001143 c 0,1.656854 1.3431458,2.9999997 3,2.9999997 H 11.5 c 1.380712,0 2.5,-1.1192877 2.5,-2.4999997 -2.05e-4,-1.234244 -0.901108,-2.283638 -2.121094,-2.470703 C 11.433672,3.2495677 9.8346871,2.0008135 8.0000001,2.0001145 c -0.020182,-1.527e-4 -0.040365,-1.527e-4 -0.060547,0 z"
     sodipodi:nodetypes="ccccccccc" />
  <path
     id="path1539-6"
     style="opacity:0.2;fill:#000000;fill-opacity:1;stroke-width:1.13137"
     d="m 2.0234376,6.7383953 c -0.00767,0.0874 -0.023456,0.172553 -0.023437,0.261719 0,1.656854 1.3431458,2.9999997 3,2.9999997 H 11.5 c 1.380712,0 2.5,-1.1192877 2.5,-2.4999997 -1.5e-5,-0.08976 -0.01412,-0.176126 -0.02344,-0.263672 -0.120745,1.268157 -1.176778,2.263672 -2.47656,2.263672 H 5.0000001 c -1.5753609,0 -2.8533024,-1.218068 -2.9765625,-2.761719 z" />
  <path
     id="rect1540-7"
     style="fill:#3b85b5;fill-opacity:1;stroke-width:0.933941"
     d="m 4,11 c 0,0 -0.8580764,1.489255 -0.8632812,1.5 0,0 -0.1358851,0.324214 -0.1367188,0.5 0,0.552285 0.4477153,1 1,1 0.5522847,0 1,-0.447715 1,-1 -2.404e-4,-0.175609 -0.1347656,-0.5 -0.1347656,-0.5 z"
     sodipodi:nodetypes="cccsccc" />
  <path
     id="rect1540-7-3"
     style="fill:#3b85b5;fill-opacity:1;stroke-width:0.933941"
     d="m 4,11 c 0,0 -0.8580764,1.489255 -0.8632812,1.5 0,0 -0.1358851,0.324214 -0.1367188,0.5 0,0.552285 0.4477153,1 1,1 0.5522847,0 1,-0.447715 1,-1 -2.404e-4,-0.175609 -0.1347656,-0.5 -0.1347656,-0.5 z"
     sodipodi:nodetypes="cccsccc" />
  <path
     id="rect1540-7-5"
     style="fill:#3b85b5;fill-opacity:1;stroke-width:0.933941"
     d="m 9,11 c 0,0 -0.8580764,1.489255 -0.8632812,1.5 0,0 -0.1358851,0.324214 -0.1367188,0.5 0,0.552285 0.4477153,1 1,1 0.5522847,0 1,-0.447715 1,-1 -2.409e-4,-0.175609 -0.1347656,-0.5 -0.1347656,-0.5 z"
     sodipodi:nodetypes="cccsccc" />
</svg>
