<?xml version="1.0" encoding="UTF-8" standalone="no"?>
<svg
   width="16"
   height="16"
   version="1.1"
   id="svg24"
   sodipodi:docname="weather-few-clouds-wind.svg"
   inkscape:version="1.1.1 (3bf5ae0d25, 2021-09-20, custom)"
   xmlns:inkscape="http://www.inkscape.org/namespaces/inkscape"
   xmlns:sodipodi="http://sodipodi.sourceforge.net/DTD/sodipodi-0.dtd"
   xmlns:xlink="http://www.w3.org/1999/xlink"
   xmlns="http://www.w3.org/2000/svg"
   xmlns:svg="http://www.w3.org/2000/svg">
  <sodipodi:namedview
     id="namedview26"
     pagecolor="#ffffff"
     bordercolor="#666666"
     borderopacity="1.0"
     inkscape:pageshadow="2"
     inkscape:pageopacity="0.0"
     inkscape:pagecheckerboard="0"
     showgrid="false"
     inkscape:zoom="12.625"
     inkscape:cx="5.029703"
     inkscape:cy="7.1683169"
     inkscape:window-width="1920"
     inkscape:window-height="999"
     inkscape:window-x="0"
     inkscape:window-y="0"
     inkscape:window-maximized="1"
     inkscape:current-layer="g22" />
  <defs
     id="defs14">
    <linearGradient
       inkscape:collect="always"
       id="linearGradient1690">
      <stop
         style="stop-color:#eff1f1;stop-opacity:1;"
         offset="0"
         id="stop1686" />
      <stop
         style="stop-color:#dfdfdf;stop-opacity:1"
         offset="1"
         id="stop1688" />
    </linearGradient>
    <linearGradient
       id="0">
      <stop
         stop-color="#faffa5"
         id="stop2" />
      <stop
         offset="1"
         stop-color="#edf573"
         id="stop4" />
    </linearGradient>
    <linearGradient
       id="1">
      <stop
         stop-color="#f0ff01"
         id="stop7" />
      <stop
         offset="1"
         stop-color="#ff9701"
         id="stop9" />
    </linearGradient>
    <linearGradient
       xlink:href="#1"
       id="2"
       y1="502.798"
       x2="0"
       y2="582.79797"
       gradientUnits="userSpaceOnUse"
       gradientTransform="matrix(0.85714336,0,0,0.85714336,58.367163,74.828044)" />
    <linearGradient
       xlink:href="#0"
       id="3"
       y1="507.798"
       x2="0"
       y2="547.79797"
       gradientUnits="userSpaceOnUse"
       gradientTransform="matrix(0.84033437,0,0,0.84033437,65.234851,83.632589)" />
    <linearGradient
       inkscape:collect="always"
       xlink:href="#linearGradient1690"
       id="linearGradient1692"
       x1="413.69913"
       y1="524.44379"
       x2="417.14285"
       y2="540.94086"
       gradientUnits="userSpaceOnUse"
       gradientTransform="translate(4.149796e-5)" />
    <linearGradient
       inkscape:collect="always"
       xlink:href="#linearGradient1690"
       id="linearGradient1264"
       x1="394.28571"
       y1="505.22656"
       x2="397.33627"
       y2="515.18152"
       gradientUnits="userSpaceOnUse" />
  </defs>
  <metadata
     id="metadata16" />
  <g
     transform="matrix(0.35000003,0,0,0.35000003,-135.00001,-175.32932)"
     id="g22">
    <rect
       width="34.285713"
       height="34.285732"
       x="391.42856"
       y="506.65515"
       ry="17.142857"
       fill="url(#2)"
       rx="17.142857"
       id="rect18"
       style="fill:url(#2);stroke-width:0.857143" />
    <rect
       width="28.571426"
       height="28.571445"
       x="394.28571"
       y="509.5123"
       fill="url(#3)"
       rx="14.285718"
       id="rect20"
       style="fill:url(#3);stroke-width:0.840333" />
    <path
       id="rect1405"
       style="fill:url(#linearGradient1692);stroke-width:2.85714"
       d="m 410.00004,526.65515 h 11.42857 c 3.95714,0 7.14286,3.18571 7.14286,7.14286 0,3.95714 -3.18572,7.14285 -7.14286,7.14285 h -11.42857 c -3.95714,0 -7.14285,-3.18571 -7.14285,-7.14285 0,-3.95715 3.18571,-7.14286 7.14285,-7.14286 z" />
    <path
       id="rect1405-6"
       style="opacity:0.2;fill:#000000;fill-opacity:1;stroke-width:2.85714"
       d="m 402.89624,533.10047 c -0.0229,0.22956 -0.0391,0.46241 -0.0391,0.69754 0,3.95715 3.18571,7.14286 7.14285,7.14286 h 11.42857 c 3.95715,0 7.14286,-3.18571 7.14286,-7.14286 0,-0.23514 -0.0163,-0.46798 -0.0391,-0.69754 -0.36449,3.61058 -3.39397,6.41183 -7.1038,6.41183 h -11.42857 c -3.70982,0 -6.73931,-2.80125 -7.10379,-6.41183 z" />
    <path
       id="rect2245"
       style="fill:#3daee9;fill-opacity:1;stroke-width:1.5746"
       d="m 414.14618,525.2266 c -3.1013,0.0757 -5.5757,2.61206 -5.57477,5.71428 h 2.85714 c 0,-1.57795 1.27918,-2.85714 2.85714,-2.85714 1.57796,0 2.85714,1.27919 2.85714,2.85714 0,1.57796 -1.28701,2.70013 -2.85714,2.85714 h -14.28571 v 2.85715 h 14.28571 c 3.15591,0 5.71429,-2.55838 5.71429,-5.71429 0,-3.15591 -2.55838,-5.71428 -5.71429,-5.71428 -0.0465,-5.7e-4 -0.093,-5.7e-4 -0.13951,0 z m 11.42857,7.14285 c -3.1013,0.0757 -5.5757,2.61206 -5.57477,5.71429 h 2.85714 c 0,-1.57796 1.27918,-2.85714 2.85714,-2.85714 1.57796,0 2.85714,1.27918 2.85714,2.85714 0,1.57795 -1.27918,2.85714 -2.85714,2.85714 h -28.57142 v 2.85714 h 28.57142 c 3.15591,0 5.71428,-2.55837 5.71428,-5.71428 0,-3.15591 -2.55837,-5.71429 -5.71428,-5.71429 -0.0465,-5.6e-4 -0.093,-5.6e-4 -0.13951,0 z"
       sodipodi:nodetypes="cccsssccsscccccsssccsscc" />
    <rect
       style="opacity:1;fill:url(#linearGradient1264);fill-opacity:1;stroke-width:1.42857;stroke-linejoin:round"
       id="rect1085"
       width="14.285713"
       height="8.5714283"
       x="388.57141"
       y="506.65515"
       ry="4.2857141" />
    <path
       id="rect1692"
       style="opacity:0.2;fill:#000000;stroke-width:0.5;stroke-linejoin:round"
       d="M 1.0234375,3.25 C 1.0098409,3.3314739 1,3.4145489 1,3.5 1,4.3309984 1.6690016,5 2.5,5 h 2 C 5.3309984,5 6,4.3309984 6,3.5 6,3.4145489 5.9901591,3.3314739 5.9765625,3.25 5.8579346,3.9608469 5.2455473,4.5 4.5,4.5 h -2 C 1.7544527,4.5 1.1420654,3.9608469 1.0234375,3.25 Z"
       transform="matrix(2.8571426,0,0,2.8571426,385.71428,500.94087)" />
  </g>
</svg>
