<?xml version="1.0" encoding="UTF-8" standalone="no"?>
<!-- Created with Inkscape (http://www.inkscape.org/) -->

<svg
   width="16"
   height="16"
   viewBox="0 0 4.2333332 4.2333335"
   version="1.1"
   id="svg5"
   inkscape:version="1.1.1 (3bf5ae0d25, 2021-09-20)"
   sodipodi:docname="eog-symbolic.svg"
   xmlns:inkscape="http://www.inkscape.org/namespaces/inkscape"
   xmlns:sodipodi="http://sodipodi.sourceforge.net/DTD/sodipodi-0.dtd"
   xmlns="http://www.w3.org/2000/svg"
   xmlns:svg="http://www.w3.org/2000/svg">
  <sodipodi:namedview
     id="namedview7"
     pagecolor="#ffffff"
     bordercolor="#666666"
     borderopacity="1.0"
     inkscape:pageshadow="2"
     inkscape:pageopacity="0.0"
     inkscape:pagecheckerboard="0"
     inkscape:document-units="px"
     showgrid="false"
     units="px"
     height="16px"
     inkscape:zoom="18.252191"
     inkscape:cx="14.272259"
     inkscape:cy="21.148146"
     inkscape:window-width="1852"
     inkscape:window-height="1053"
     inkscape:window-x="68"
     inkscape:window-y="27"
     inkscape:window-maximized="1"
     inkscape:current-layer="svg5" />
  <defs
     id="defs2">
    <style type="text/css" id="current-color-scheme">
      .ColorScheme-Text {
        color:#eff0f1;
      }
      </style>
  </defs>
  <path
     id="rect846"
     style="fill:currentColor;stroke-width:0.997829"
     class="ColorScheme-Text"
     d="M 2 2 L 2 8.359375 A 4.0000001 4.0000001 0 0 1 3 7.5351562 L 3 3 L 13 3 L 13 10 L 8.8710938 10 A 4.0000001 4.0000001 0 0 1 9 11 A 4.0000001 4.0000001 0 0 1 7.640625 14 L 14 14 L 14 2 L 2 2 z M 5 8 A 2.9999995 2.9999999 0 0 0 2 11 L 2 14 L 5 14 A 2.9999995 2.9999999 0 0 0 8 11 A 2.9999995 2.9999999 0 0 0 5 8 z M 5 9 A 2.0000001 2.0000003 0 0 1 7 11 A 2.0000001 2.0000003 0 0 1 5 13 A 2.0000001 2.0000003 0 0 1 3 11 A 2.0000001 2.0000003 0 0 1 5 9 z "
     transform="scale(0.26458333)" />
</svg>
