<?xml version="1.0" encoding="UTF-8" standalone="no"?>
<svg
   xmlns:dc="http://purl.org/dc/elements/1.1/"
   xmlns:cc="http://creativecommons.org/ns#"
   xmlns:rdf="http://www.w3.org/1999/02/22-rdf-syntax-ns#"
   xmlns:svg="http://www.w3.org/2000/svg"
   xmlns="http://www.w3.org/2000/svg"
   xmlns:sodipodi="http://sodipodi.sourceforge.net/DTD/sodipodi-0.dtd"
   xmlns:inkscape="http://www.inkscape.org/namespaces/inkscape"
   width="16.017"
   height="16.005"
   version="1.1"
   id="svg4"
   sodipodi:docname="preferences-desktop-accessibility-symbolic.svg"
   inkscape:version="0.92.3 (2405546, 2018-03-11)">
  <metadata
     id="metadata10">
    <rdf:RDF>
      <cc:Work
         rdf:about="">
        <dc:format>image/svg+xml</dc:format>
        <dc:type
           rdf:resource="http://purl.org/dc/dcmitype/StillImage" />
      </cc:Work>
    </rdf:RDF>
  </metadata>
  <defs
     id="defs8" />
  <sodipodi:namedview
     pagecolor="#ffffff"
     bordercolor="#666666"
     borderopacity="1"
     objecttolerance="10"
     gridtolerance="10"
     guidetolerance="10"
     inkscape:pageopacity="0"
     inkscape:pageshadow="2"
     inkscape:window-width="1920"
     inkscape:window-height="1026"
     id="namedview6"
     showgrid="false"
     inkscape:zoom="14.745393"
     inkscape:cx="8.2797713"
     inkscape:cy="7.7312284"
     inkscape:window-x="0"
     inkscape:window-y="30"
     inkscape:window-maximized="1"
     inkscape:current-layer="svg4" />
  <path
     inkscape:connector-curvature="0"
     style="fill:#eff0f1;fill-opacity:1"
     id="rect4137"
     d="m 9,1.0049687 c -0.831,0 -1.5,0.669 -1.5,1.5000001 0,0.831 0.669,1.5 1.5,1.5 0.831,0 1.5,-0.669 1.5,-1.5 C 10.5,1.6739687 9.831,1.0049687 9,1.0049687 Z M 7.83398,4.3194188 6.04492,10.299889 c -0.009,0.0207 -0.0111,0.0443 -0.0176,0.0664 l -0.0273,0.10351 0.006,0.002 c -8.7e-4,0.0114 -0.006,0.0215 -0.006,0.0332 0,0.277 0.223,0.5 0.5,0.5 h 1.5 2 1 l 2.30859,4 0.69141,-0.39844 -1,-4.60156 L 9.3008,9.3057787 9.3535,8.5460187 12.99999,10.004999 9.39647,7.1241387 9.5996,5.0089087 7.83397,4.3194488 Z M 7,5.0049687 c -2.77,0 -5,2.23 -5,5.0000003 0,2.77 2.23,5 5,5 1.12807,0 2.15745,-0.38215 2.9921899,-1.00781 L 9.27344,13.278409 C 8.629,13.729679 7.85147,14.004969 7,14.004969 c -2.216,0 -4,-1.784 -4,-4 C 3,7.7889687 4.784,6.0049687 7,6.0049687 Z" />
</svg>
