<?xml version="1.0" encoding="UTF-8" standalone="no"?>
<!-- Created with Inkscape (http://www.inkscape.org/) -->

<svg
   width="96"
   height="96"
   viewBox="0 0 25.399999 25.400001"
   version="1.1"
   id="svg5"
   inkscape:version="1.1.1 (3bf5ae0d25, 2021-09-20, custom)"
   sodipodi:docname="folder-encrypted.svg"
   xmlns:inkscape="http://www.inkscape.org/namespaces/inkscape"
   xmlns:sodipodi="http://sodipodi.sourceforge.net/DTD/sodipodi-0.dtd"
   xmlns:xlink="http://www.w3.org/1999/xlink"
   xmlns="http://www.w3.org/2000/svg"
   xmlns:svg="http://www.w3.org/2000/svg">
  <sodipodi:namedview
     id="namedview7"
     pagecolor="#ffffff"
     bordercolor="#666666"
     borderopacity="1.0"
     inkscape:pageshadow="2"
     inkscape:pageopacity="0.0"
     inkscape:pagecheckerboard="0"
     inkscape:document-units="px"
     showgrid="false"
     units="px"
     height="96px"
     inkscape:zoom="5.7747054"
     inkscape:cx="42.772745"
     inkscape:cy="69.613941"
     inkscape:window-width="1920"
     inkscape:window-height="1006"
     inkscape:window-x="0"
     inkscape:window-y="0"
     inkscape:window-maximized="1"
     inkscape:current-layer="svg5" />
  <defs
     id="defs2">
    <linearGradient
       inkscape:collect="always"
       id="linearGradient1885">
      <stop
         style="stop-color:#4d4d4d;stop-opacity:1;"
         offset="0"
         id="stop1881" />
      <stop
         style="stop-color:#666666;stop-opacity:1"
         offset="1"
         id="stop1883" />
    </linearGradient>
    <linearGradient
       inkscape:collect="always"
       id="linearGradient1481">
      <stop
         style="stop-color:#111111;stop-opacity:1"
         offset="0"
         id="stop1475" />
      <stop
         style="stop-color:#333333;stop-opacity:1"
         offset="0.52207935"
         id="stop1477" />
      <stop
         style="stop-color:#666666;stop-opacity:1"
         offset="1"
         id="stop1479" />
    </linearGradient>
    <linearGradient
       inkscape:collect="always"
       xlink:href="#linearGradient1481"
       id="linearGradient4654"
       x1="1.2052771"
       y1="5.4093776"
       x2="27.668879"
       y2="5.4552789"
       gradientUnits="userSpaceOnUse" />
    <linearGradient
       inkscape:collect="always"
       xlink:href="#linearGradient1885"
       id="linearGradient1887"
       x1="24.077084"
       y1="23.283333"
       x2="12.700001"
       y2="5.5562501"
       gradientUnits="userSpaceOnUse" />
  </defs>
  <path
     id="rect846-3"
     style="fill:url(#linearGradient4654);stroke-width:0.300092;fill-opacity:1"
     d="m 1.3229165,2.1166673 8.9958335,-7e-7 2.381251,3.1749999 11.377083,7e-7 V 18.785418 H 1.3229165 Z"
     sodipodi:nodetypes="ccccccc" />
  <path
     id="rect956"
     style="opacity:0.2;fill:#f9f9f9;stroke-width:0.458269"
     d="m 10.31875,2.1166666 2.381251,3.1749999 11.377083,7e-7 V 5.5562501 H 12.700001 Z"
     sodipodi:nodetypes="cccccc" />
  <path
     id="rect956-3"
     style="opacity:0.2;stroke-width:0.458269"
     d="M 10.054167,10.054166 12.7,7.1437503 10.31875,10.31875 H 1.3229166 v -0.264584 z"
     sodipodi:nodetypes="cccccc" />
  <path
     id="rect846"
     style="fill:url(#linearGradient1887);fill-opacity:1;stroke-width:0.309472"
     d="M 1.3229166,10.31875 H 10.31875 L 12.700001,7.1437501 H 24.077084 V 23.283333 H 1.3229166 Z"
     sodipodi:nodetypes="ccccccc" />
  <path
     id="rect4138"
     d="m 12.675195,11.906292 c -0.966488,0.01278 -1.760637,0.766643 -1.823661,1.731161 L 10.851017,15.875 h 0.2651 l 0.001,-2.237547 c 0.06321,-0.827424 0.753017,-1.466556 1.582851,-1.466577 0.829633,2.64e-4 1.519137,0.639352 1.582332,1.466577 l 0.0052,2.237589 H 9.525 v 3.96875 h 6.35 v -3.96875 h -1.322917 l -0.0036,-2.237589 C 14.484738,12.663471 13.676061,11.906115 12.7,11.906292 c -0.0083,-5.5e-5 -0.01655,-5.5e-5 -0.02481,0 z m -2.885612,4.233334 h 5.820833 v 3.439583 H 9.789583 Z"
     stroke-width="0.360796"
     style="fill:#999999;fill-opacity:1"
     sodipodi:nodetypes="cccccccccccccccccccccc" />
  <path
     id="rect956-3-6"
     style="opacity:0.2;fill:#f9f9f9;stroke-width:0.458269"
     d="M 10.31875,10.31875 12.700001,7.1437503 10.583333,10.583334 H 1.3229166 V 10.31875 Z"
     sodipodi:nodetypes="cccccc" />
  <path
     id="rect956-3-7"
     style="opacity:0.2;stroke-width:0.458269"
     d="m 24.077084,23.018749 v 0.264584 H 1.3229166 v -0.264584 z"
     sodipodi:nodetypes="ccccc" />
  <path
     id="rect857"
     style="opacity:0.6;fill:#808080;fill-opacity:1;stroke-width:0.999999"
     d="M 10 76 L 10 81 L 15 81 L 15 76 L 10 76 z M 15 81 L 15 86 L 20 86 L 20 81 L 15 81 z M 20 81 L 25 81 L 25 76 L 20 76 L 20 81 z M 25 81 L 25 86 L 30 86 L 30 81 L 25 81 z M 30 81 L 35 81 L 35 76 L 30 76 L 30 81 z M 35 81 L 35 86 L 40 86 L 40 81 L 35 81 z M 40 81 L 45 81 L 45 76 L 40 76 L 40 81 z M 45 81 L 45 86 L 50 86 L 50 81 L 45 81 z M 50 81 L 55 81 L 55 76 L 50 76 L 50 81 z M 55 81 L 55 86 L 60 86 L 60 81 L 55 81 z M 60 81 L 65 81 L 65 76 L 60 76 L 60 81 z M 65 81 L 65 86 L 70 86 L 70 81 L 65 81 z M 70 81 L 75 81 L 75 76 L 70 76 L 70 81 z M 75 81 L 75 86 L 80 86 L 80 81 L 75 81 z M 80 81 L 85 81 L 85 76 L 80 76 L 80 81 z M 85 81 L 85 86 L 90 86 L 90 81 L 85 81 z M 90 81 L 91 81 L 91 76 L 90 76 L 90 81 z M 90 86 L 90 88 L 91 88 L 91 86 L 90 86 z M 85 86 L 80 86 L 80 88 L 85 88 L 85 86 z M 75 86 L 70 86 L 70 88 L 75 88 L 75 86 z M 65 86 L 60 86 L 60 88 L 65 88 L 65 86 z M 55 86 L 50 86 L 50 88 L 55 88 L 55 86 z M 45 86 L 40 86 L 40 88 L 45 88 L 45 86 z M 35 86 L 30 86 L 30 88 L 35 88 L 35 86 z M 25 86 L 20 86 L 20 88 L 25 88 L 25 86 z M 15 86 L 10 86 L 10 88 L 15 88 L 15 86 z M 10 86 L 10 81 L 5 81 L 5 86 L 10 86 z "
     transform="scale(0.26458333)" />
</svg>
