<?xml version="1.0" encoding="UTF-8" standalone="no"?>
<!-- Created with Inkscape (http://www.inkscape.org/) -->

<svg
   width="96"
   height="96"
   viewBox="0 0 25.399999 25.399999"
   version="1.1"
   id="svg5"
   inkscape:version="1.1.1 (3bf5ae0d25, 2021-09-20, custom)"
   sodipodi:docname="desktop.svg"
   xmlns:inkscape="http://www.inkscape.org/namespaces/inkscape"
   xmlns:sodipodi="http://sodipodi.sourceforge.net/DTD/sodipodi-0.dtd"
   xmlns:xlink="http://www.w3.org/1999/xlink"
   xmlns="http://www.w3.org/2000/svg"
   xmlns:svg="http://www.w3.org/2000/svg">
  <sodipodi:namedview
     id="namedview7"
     pagecolor="#ffffff"
     bordercolor="#666666"
     borderopacity="1.0"
     inkscape:pageshadow="2"
     inkscape:pageopacity="0.0"
     inkscape:pagecheckerboard="0"
     inkscape:document-units="px"
     showgrid="false"
     units="px"
     inkscape:lockguides="true"
     inkscape:zoom="5.4970639"
     inkscape:cx="19.464937"
     inkscape:cy="76.586339"
     inkscape:window-width="1920"
     inkscape:window-height="1006"
     inkscape:window-x="0"
     inkscape:window-y="0"
     inkscape:window-maximized="1"
     inkscape:current-layer="svg5"
     showguides="false" />
  <defs
     id="defs2">
    <linearGradient
       inkscape:collect="always"
       id="linearGradient1164">
      <stop
         style="stop-color:#e95420;stop-opacity:1;"
         offset="0"
         id="stop1160" />
      <stop
         style="stop-color:#77216f;stop-opacity:1"
         offset="0.41438836"
         id="stop1488" />
      <stop
         style="stop-color:#411934;stop-opacity:1"
         offset="1"
         id="stop1162" />
    </linearGradient>
    <linearGradient
       inkscape:collect="always"
       xlink:href="#linearGradient1164"
       id="linearGradient1166"
       x1="25.423258"
       y1="25.384668"
       x2="0.051364314"
       y2="-0.018416356"
       gradientUnits="userSpaceOnUse" />
  </defs>
  <rect
     style="fill:url(#linearGradient1166);stroke-width:0.264583;fill-opacity:1"
     id="rect890"
     width="22.754166"
     height="20.637499"
     x="1.3229171"
     y="2.3812499" />
  <path
     id="rect5680"
     style="fill:#ffffff;fill-opacity:0.1;stroke-width:0.848671"
     d="m 15.610418,2.3812499 h 8.466666 v 8.4666781 z"
     sodipodi:nodetypes="cccc" />
  <path
     id="rect5820-1"
     style="fill:#ffffff;fill-opacity:0.05;stroke-width:0.999975"
     d="m 24.077084,14.552082 v 8.466667 h -8.466666 z"
     sodipodi:nodetypes="cccc" />
  <path
     id="rect5820"
     style="fill:#ffffff;fill-opacity:0.05;stroke-width:0.397717"
     d="m 24.077084,17.727085 v 5.291664 h -5.291667 z"
     sodipodi:nodetypes="cccc" />
  <path
     id="rect5680-2"
     style="fill:#ffffff;fill-opacity:0.1;stroke-width:0.848671"
     d="M 9.7895834,2.3812499 H 1.3229171 v 8.4666851 z"
     sodipodi:nodetypes="cccc" />
  <path
     id="rect5820-1-7"
     style="fill:#ffffff;fill-opacity:0.05;stroke-width:0.999975"
     d="m 1.3229171,14.552085 v 8.466664 h 8.4666663 z"
     sodipodi:nodetypes="cccc" />
  <path
     id="rect5820-0"
     style="fill:#ffffff;fill-opacity:0.05;stroke-width:0.397717"
     d="m 1.3229171,17.727085 v 5.291664 h 5.2916665 z"
     sodipodi:nodetypes="cccc" />
  <path
     id="path1712"
     style="fill:#ffffff;fill-opacity:0.101961;stroke-width:0.232331"
     d="M 6.462591,12.325656 A 1.0583333,1.0583333 0 0 0 7.5209242,13.383989 1.0583333,1.0583333 0 0 0 8.579258,12.325656 1.0583333,1.0583333 0 0 0 7.5209235,11.267322 1.0583333,1.0583333 0 0 0 6.462591,12.325656 Z m 1.8841228,1.645379 a 4.7624998,4.7624998 0 0 0 1.4298863,2.020548 L 10.72383,14.350338 a 2.9104165,2.9104165 0 0 1 -0.432016,-0.569473 2.9104165,2.9104165 0 0 1 -0.223759,-0.491443 2.9104165,2.9104165 0 0 1 -0.071829,-0.23513 2.9104165,2.9104165 0 0 1 -0.0078,-0.0341 2.9104165,2.9104165 0 0 1 -0.044441,-0.208254 2.9104165,2.9104165 0 0 1 -0.0083,-0.06149 2.9104165,2.9104165 0 0 1 -0.022222,-0.17983 2.9104165,2.9104165 0 0 1 -0.0057,-0.111612 2.9104165,2.9104165 0 0 1 -0.0052,-0.13591 2.9104165,2.9104165 0 0 1 0.0052,-0.134359 2.9104165,2.9104165 0 0 1 0.0057,-0.113171 2.9104165,2.9104165 0 0 1 0.022737,-0.182421 2.9104165,2.9104165 0 0 1 0.0077,-0.05736 2.9104165,2.9104165 0 0 1 0.04651,-0.218077 2.9104165,2.9104165 0 0 1 0.00409,-0.02069 2.9104165,2.9104165 0 0 1 0.00102,-0.0036 2.9104165,2.9104165 0 0 1 0.072351,-0.236677 2.9104165,2.9104165 0 0 1 0.223759,-0.491442 2.9104165,2.9104165 0 0 1 0.431503,-0.570505 L 9.7769804,8.6562006 A 4.7624998,4.7624998 0 0 0 8.3487658,10.67056 1.8520829,1.8520829 0 0 1 9.3729941,12.325756 1.8520829,1.8520829 0 0 1 8.3466977,13.971133 Z m 2.8039622,2.815331 a 4.7624998,4.7624998 0 0 0 1.661915,0.301789 4.7624998,4.7624998 0 0 0 0.804601,-0.07131 1.8520829,1.8520829 0 0 1 -0.0155,-0.116268 1.8520829,1.8520829 0 0 1 0.926041,-1.604037 1.8520829,1.8520829 0 0 1 1.951302,0.06304 4.7624998,4.7624998 0 0 0 1.026809,-2.240173 l -1.893939,-1e-6 A 2.9104165,2.9104165 0 0 1 14.2678,14.845914 2.9104165,2.9104165 0 0 1 12.097905,15.14564 Z m 0.0015,-8.9245212 0.945161,1.6376266 a 2.9104165,2.9104165 0 0 1 2.170412,0.300757 2.9104165,2.9104165 0 0 1 0.992703,0.9513646 2.9104165,2.9104165 0 0 1 0.0028,0.0042 2.9104165,2.9104165 0 0 1 0.0057,0.0093 2.9104165,2.9104165 0 0 1 0.337967,0.766877 l 1.89903,-6e-5 A 4.7624998,4.7624998 0 0 0 16.468286,9.2783004 1.8520829,1.8520829 0 0 1 14.52887,9.3454814 1.8520829,1.8520829 0 0 1 13.602828,7.741444 1.8520829,1.8520829 0 0 1 13.616778,7.6344668 4.7624998,4.7624998 0 0 0 12.81267,7.5631468 4.7624998,4.7624998 0 0 0 11.152309,7.8618359 Z m 3.243212,9.0387252 a 1.0583333,1.0583333 0 0 0 0.141594,0.529169 1.0583333,1.0583333 0 0 0 1.445906,0.387055 1.0583333,1.0583333 0 0 0 0.387058,-1.445391 1.0583333,1.0583333 0 0 0 -1.445391,-0.387573 1.0583333,1.0583333 0 0 0 -0.529167,0.91674 z m 10e-4,-9.159131 A 1.0583333,1.0583333 0 0 0 14.925555,8.6576636 1.0583333,1.0583333 0 0 0 16.371461,8.2706068 1.0583333,1.0583333 0 0 0 15.983889,6.8246989 1.0583333,1.0583333 0 0 0 14.537983,7.2122741 1.0583333,1.0583333 0 0 0 14.39639,7.741439 Z" />
  <rect
     style="fill:#333333;fill-opacity:0.78431374;stroke-width:0.264583"
     id="rect4162"
     width="22.754166"
     height="1.5874995"
     x="1.3229172"
     y="21.43125" />
  <g
     id="text4213"
     style="fill:#ffffff;fill-opacity:1"
     transform="matrix(0.25723749,0,0,0.25723749,-91.107273,-116.54693)">
    <path
       inkscape:connector-curvature="0"
       id="path4218"
       d="m 434.23853,537.83412 c -0.15893,0.11003 -0.36677,0.22414 -0.54201,0.30157 l 0.0734,0.28934 c 0.14264,-0.0448 0.27305,-0.12225 0.43198,-0.22414 v 2.60819 h 0.35455 v -2.97496 h -0.31787 z" />
    <path
       inkscape:connector-curvature="0"
       id="path4220"
       d="m 435.20119,538.03381 0.11819,0.29749 c 0.16708,-0.17116 0.41568,-0.24452 0.66427,-0.24452 0.33825,0 0.52571,0.18747 0.52571,0.51757 v 0.0204 c -0.004,0.2323 -0.15486,0.46051 -0.38715,0.71726 l -1.02697,1.14108 0.0448,0.32602 h 1.74016 l 0.0245,-0.30565 h -1.38153 l 0.83951,-0.89656 c 0.32603,-0.35048 0.52572,-0.63575 0.52979,-1.01067 v -0.0122 c 0,-0.48904 -0.34232,-0.81098 -0.88434,-0.81098 -0.38715,0 -0.63982,0.10595 -0.80691,0.26082 z" />
    <path
       inkscape:connector-curvature="0"
       id="path4222"
       d="m 437.42599,540.85799 h 0.4116 v -0.46459 h -0.4116 z m 0,-1.82574 h 0.4116 v -0.46051 h -0.4116 z" />
    <path
       inkscape:connector-curvature="0"
       id="path4224"
       d="m 439.75394,539.98995 c 0,0.3627 -0.2649,0.56239 -0.65613,0.56239 -0.30157,0 -0.50941,-0.0978 -0.6602,-0.21599 l -0.1141,0.28934 c 0.11003,0.10596 0.39122,0.22822 0.77838,0.22822 0.57869,0 1.00252,-0.3301 1.00252,-0.85989 0,-0.41975 -0.23229,-0.68872 -0.59499,-0.77023 0.32195,-0.0978 0.52164,-0.3301 0.52164,-0.71317 0,-0.47681 -0.41161,-0.73763 -0.85174,-0.73763 -0.41161,0 -0.6765,0.0897 -0.85581,0.22821 l 0.1141,0.28935 c 0.15894,-0.12634 0.39123,-0.21192 0.66428,-0.21192 0.35047,0 0.54609,0.14671 0.54609,0.47681 0,0.46866 -0.43198,0.52164 -0.88842,0.52164 v 0.29342 c 0.55424,0 0.99438,0.0856 0.99438,0.61945 z" />
    <path
       inkscape:connector-curvature="0"
       id="path4226"
       d="m 441.86538,538.2824 v 1.49971 h -0.99437 z m 0.67243,1.78905 0.0285,-0.28934 h -0.36678 v -1.94799 h -0.37085 l -1.30817,1.93169 v 0.30564 h 1.34484 v 0.73763 h 0.33418 v -0.73763 h 0.33825 z" />
  </g>
  <path
     inkscape:connector-curvature="0"
     style="fill:#ffffff;stroke-width:0.396788"
     id="path2994"
     d="m 2.5796446,21.788597 a 0.06613147,0.06613147 0 0 0 -0.066133,0.06614 0.06613147,0.06613147 0 0 0 0.066133,0.06614 0.06613147,0.06613147 0 0 0 0.06613,-0.06614 0.06613147,0.06613147 0 0 0 -0.06613,-0.06614 z m 0.330656,0 -0.1281307,0.103328 0.1715278,0.212861 -0.1611955,0.161195 0.1177995,0.117799 0.2645272,-0.264527 z m -0.4298531,0.264528 a 0.0991972,0.0991972 0 0 0 -0.099197,0.09919 0.0991972,0.0991972 0 0 0 0.099197,0.0992 0.0991972,0.0991972 0 0 0 0.099197,-0.0992 0.0991972,0.0991972 0 0 0 -0.099197,-0.09919 z m 0.1983943,0.330655 a 0.0991972,0.0991972 0 0 0 -0.099197,0.0992 0.0991972,0.0991972 0 0 0 0.099197,0.0992 0.0991972,0.0991972 0 0 0 0.099197,-0.0992 0.0991972,0.0991972 0 0 0 -0.099197,-0.0992 z" />
</svg>
