<?xml version="1.0" encoding="UTF-8" standalone="no"?>
<!-- Created with Inkscape (http://www.inkscape.org/) -->

<svg
   width="22"
   height="22"
   viewBox="0 0 5.8208334 5.8208334"
   version="1.1"
   id="svg5"
   inkscape:version="1.1.1 (3bf5ae0d25, 2021-09-20, custom)"
   sodipodi:docname="system-file-manager.svg"
   xmlns:inkscape="http://www.inkscape.org/namespaces/inkscape"
   xmlns:sodipodi="http://sodipodi.sourceforge.net/DTD/sodipodi-0.dtd"
   xmlns:xlink="http://www.w3.org/1999/xlink"
   xmlns="http://www.w3.org/2000/svg"
   xmlns:svg="http://www.w3.org/2000/svg">
  <sodipodi:namedview
     id="namedview7"
     pagecolor="#ffffff"
     bordercolor="#666666"
     borderopacity="1.0"
     inkscape:pageshadow="2"
     inkscape:pageopacity="0.0"
     inkscape:pagecheckerboard="0"
     inkscape:document-units="px"
     showgrid="false"
     units="px"
     height="48px"
     inkscape:zoom="23.805928"
     inkscape:cx="11.761776"
     inkscape:cy="15.290309"
     inkscape:window-width="1920"
     inkscape:window-height="1019"
     inkscape:window-x="0"
     inkscape:window-y="0"
     inkscape:window-maximized="1"
     inkscape:current-layer="svg5" />
  <defs
     id="defs2">
    <linearGradient
       inkscape:collect="always"
       xlink:href="#linearGradient2036"
       id="linearGradient2855"
       x1="14"
       y1="30.999901"
       x2="14.086205"
       y2="19.017721"
       gradientUnits="userSpaceOnUse"
       gradientTransform="matrix(0.26458333,0,0,0.26458333,-0.79374997,-2.9104166)" />
    <linearGradient
       inkscape:collect="always"
       id="linearGradient2036">
      <stop
         style="stop-color:#3daee9;stop-opacity:1;"
         offset="0"
         id="stop2032" />
      <stop
         style="stop-color:#6cc1ef;stop-opacity:1"
         offset="1"
         id="stop2034" />
    </linearGradient>
    <linearGradient
       inkscape:collect="always"
       xlink:href="#linearGradient5915"
       id="linearGradient5917"
       x1="17"
       y1="21"
       x2="26.916685"
       y2="39.087307"
       gradientUnits="userSpaceOnUse"
       gradientTransform="matrix(0.26458333,0,0,0.26458333,-1.8520834,-2.9104166)" />
    <linearGradient
       inkscape:collect="always"
       id="linearGradient5915">
      <stop
         style="stop-color:#000000;stop-opacity:1;"
         offset="0"
         id="stop5911" />
      <stop
         style="stop-color:#000000;stop-opacity:0;"
         offset="1"
         id="stop5913" />
    </linearGradient>
    <linearGradient
       inkscape:collect="always"
       xlink:href="#linearGradient6903"
       id="linearGradient6905"
       x1="14.328809"
       y1="13.060619"
       x2="22.310734"
       y2="20.994421"
       gradientUnits="userSpaceOnUse"
       gradientTransform="matrix(0.26458333,0,0,0.26458333,-1.0583332,-1.8520833)" />
    <linearGradient
       inkscape:collect="always"
       id="linearGradient6903">
      <stop
         style="stop-color:#f5f5f5;stop-opacity:1;"
         offset="0"
         id="stop6899" />
      <stop
         style="stop-color:#f9f9f9;stop-opacity:1"
         offset="1"
         id="stop6901" />
    </linearGradient>
    <linearGradient
       inkscape:collect="always"
       xlink:href="#linearGradient7842"
       id="linearGradient7844"
       x1="6.9980469"
       y1="13"
       x2="6.9052615"
       y2="23.69512"
       gradientUnits="userSpaceOnUse"
       gradientTransform="matrix(0.26458333,0,0,0.26458333,-1.0583332,-1.8520833)" />
    <linearGradient
       inkscape:collect="always"
       id="linearGradient7842">
      <stop
         style="stop-color:#ffffff;stop-opacity:1;"
         offset="0"
         id="stop7838" />
      <stop
         style="stop-color:#ffffff;stop-opacity:0;"
         offset="1"
         id="stop7840" />
    </linearGradient>
  </defs>
  <path
     id="rect893"
     style="fill:#147eb8;stroke-width:0.264583"
     d="M 0.26458333,0.52916667 H 2.38125 L 2.9104167,1.0583333 h 2.6458336 l 10e-8,2.6458333 H 0.26458333 Z"
     sodipodi:nodetypes="ccccccc" />
  <path
     id="rect6535"
     style="fill:url(#linearGradient6905);stroke-width:0.21027"
     d="M 0.79316416,1.5875 H 5.0276694 c 0.146255,0 0.263997,0.1177428 0.263997,0.2639976 v 2.1178381 c 0,0.1462548 -0.117742,0.2639976 -0.263997,0.2639976 H 0.79316416 c -0.14625463,0 -0.26399743,-0.1177428 -0.26399743,-0.2639976 V 1.8514976 c 0,-0.1462548 0.1177428,-0.2639976 0.26399743,-0.2639976 z"
     sodipodi:nodetypes="sssssssss" />
  <path
     id="rect7562"
     style="fill:url(#linearGradient7844);fill-opacity:1;stroke-width:0.264583"
     d="m 0.79323326,1.5875 c -0.14625463,0 -0.26406653,0.1178119 -0.26406653,0.2640666 V 2.11615 c 0,-0.1462548 0.1178119,-0.2640666 0.26406653,-0.2640666 H 5.0276004 c 0.146255,0 0.264066,0.1178118 0.264066,0.2640666 V 1.8515666 C 5.2916664,1.7053119 5.1738554,1.5875 5.0276004,1.5875 Z"
     sodipodi:nodetypes="sscsscsss" />
  <path
     id="rect2847"
     style="fill:url(#linearGradient2855);fill-opacity:1;stroke-width:0.264583"
     d="M 1.8520834,2.3812501 2.38125,2.1166667 l 3.1750004,2.65e-5 v 2.9103903 c 0,0.146579 -0.118004,0.2645833 -0.264584,0.2645833 H 0.52916673 c -0.1465792,0 -0.2645834,-0.1180043 -0.2645834,-0.2645833 V 2.3812501 Z"
     sodipodi:nodetypes="cccsssscc" />
  <path
     id="rect5230"
     style="opacity:0.1;fill:url(#linearGradient5917);fill-opacity:1;stroke-width:0.196438"
     d="M 2.38125,2.1166667 2.1166667,2.6458334 H 0.26458333 l 2.64583337,2.6458069 2.3812497,2.65e-5 c 0.14658,1.6e-6 0.264584,-0.1180043 0.264584,-0.2645833 V 2.1166932 Z"
     sodipodi:nodetypes="ccccsscc" />
  <path
     id="rect8656"
     style="opacity:0.2;fill:#ffffff;stroke-width:0.264583"
     d="M 0.26458333,2.3812501 H 1.8520834 L 2.38125,2.1166667 2.1166667,2.6458334 H 0.26458333 Z"
     sodipodi:nodetypes="cccccc" />
  <path
     id="rect2847-6"
     style="opacity:0.2;fill:#000000;fill-opacity:1;stroke-width:0.264583"
     d="m 0.26458333,4.7625 v 0.264584 c 0,0.146579 0.1180042,0.2645833 0.2645834,0.2645833 H 5.2916664 c 0.14658,0 0.264584,-0.1180043 0.264584,-0.2645833 V 4.7625 c 0,0.14658 -0.118004,0.264584 -0.264584,0.264584 H 0.52916673 c -0.1465792,0 -0.2645834,-0.118004 -0.2645834,-0.264584 z"
     sodipodi:nodetypes="csssscssc" />
  <path
     id="rect911"
     style="opacity:0.2;fill:#ffffff;stroke-width:0.305514"
     d="M 2.38125,0.52916667 2.9104167,1.0583333 H 5.5562503 V 1.3229166 H 2.6458336 Z"
     sodipodi:nodetypes="cccccc" />
</svg>
