<?xml version="1.0" encoding="UTF-8" standalone="no"?>
<!-- Created with Inkscape (http://www.inkscape.org/) -->

<svg
   width="96"
   height="96"
   viewBox="0 0 25.399999 25.399999"
   version="1.1"
   id="svg5"
   inkscape:version="1.1.1 (3bf5ae0d25, 2021-09-20)"
   sodipodi:docname="userdesktop.svg"
   xmlns:inkscape="http://www.inkscape.org/namespaces/inkscape"
   xmlns:sodipodi="http://sodipodi.sourceforge.net/DTD/sodipodi-0.dtd"
   xmlns:xlink="http://www.w3.org/1999/xlink"
   xmlns="http://www.w3.org/2000/svg"
   xmlns:svg="http://www.w3.org/2000/svg">
  <sodipodi:namedview
     id="namedview7"
     pagecolor="#ffffff"
     bordercolor="#666666"
     borderopacity="1.0"
     inkscape:pageshadow="2"
     inkscape:pageopacity="0.0"
     inkscape:pagecheckerboard="0"
     inkscape:document-units="px"
     showgrid="false"
     units="px"
     inkscape:lockguides="true"
     inkscape:zoom="5.7747055"
     inkscape:cx="45.456864"
     inkscape:cy="39.482533"
     inkscape:window-width="1920"
     inkscape:window-height="1011"
     inkscape:window-x="0"
     inkscape:window-y="0"
     inkscape:window-maximized="1"
     inkscape:current-layer="svg5"
     showguides="false" />
  <defs
     id="defs2">
    <linearGradient
       inkscape:collect="always"
       id="linearGradient98851">
      <stop
         style="stop-color:#fefefe;stop-opacity:0.50196081"
         offset="0"
         id="stop98847" />
      <stop
         style="stop-color:#fefefe;stop-opacity:0.04654237"
         offset="1"
         id="stop98849" />
    </linearGradient>
    <linearGradient
       inkscape:collect="always"
       id="linearGradient97113">
      <stop
         style="stop-color:#1876e9;stop-opacity:1;"
         offset="0"
         id="stop97109" />
      <stop
         style="stop-color:#1876e9;stop-opacity:0;"
         offset="1"
         id="stop97111" />
    </linearGradient>
    <linearGradient
       inkscape:collect="always"
       id="linearGradient94025">
      <stop
         style="stop-color:#fefefe;stop-opacity:0.50196081"
         offset="0"
         id="stop94021" />
      <stop
         style="stop-color:#fefefe;stop-opacity:0.22400384"
         offset="1"
         id="stop94023" />
    </linearGradient>
    <linearGradient
       inkscape:collect="always"
       id="linearGradient89856">
      <stop
         style="stop-color:#1f65e7;stop-opacity:1;"
         offset="0"
         id="stop89852" />
      <stop
         style="stop-color:#6ac5e7;stop-opacity:0.62352943"
         offset="1"
         id="stop89854" />
    </linearGradient>
    <linearGradient
       inkscape:collect="always"
       id="linearGradient66038">
      <stop
         style="stop-color:#52bdff;stop-opacity:1"
         offset="0"
         id="stop66042" />
      <stop
         style="stop-color:#55c5ff;stop-opacity:0;"
         offset="1"
         id="stop66044" />
    </linearGradient>
    <linearGradient
       inkscape:collect="always"
       id="linearGradient60139">
      <stop
         style="stop-color:#1a62e7;stop-opacity:0.56325054"
         offset="0"
         id="stop60135" />
      <stop
         style="stop-color:#39a4ff;stop-opacity:1"
         offset="1"
         id="stop60137" />
    </linearGradient>
    <linearGradient
       inkscape:collect="always"
       id="linearGradient51026">
      <stop
         style="stop-color:#1a62e7;stop-opacity:1;"
         offset="0"
         id="stop51022" />
      <stop
         style="stop-color:#39a4ff;stop-opacity:1"
         offset="1"
         id="stop51024" />
    </linearGradient>
    <linearGradient
       inkscape:collect="always"
       id="linearGradient18408">
      <stop
         style="stop-color:#1876e9;stop-opacity:1"
         offset="0"
         id="stop18404" />
      <stop
         style="stop-color:#0b43b0;stop-opacity:1"
         offset="1"
         id="stop18406" />
    </linearGradient>
    <radialGradient
       inkscape:collect="always"
       xlink:href="#linearGradient18408"
       id="radialGradient18410"
       cx="6.3499999"
       cy="6.3499999"
       fx="6.3499999"
       fy="6.3499999"
       r="5.2916665"
       gradientTransform="matrix(2.1499998,0,0,1.9500001,-0.95249926,0.31749994)"
       gradientUnits="userSpaceOnUse" />
    <linearGradient
       inkscape:collect="always"
       xlink:href="#linearGradient51026"
       id="linearGradient51028"
       x1="1.0583333"
       y1="-0.26458347"
       x2="3.96875"
       y2="2.645833"
       gradientUnits="userSpaceOnUse"
       gradientTransform="matrix(2.1499998,0,0,2.1499998,-0.95249886,-1.0318748)" />
    <linearGradient
       inkscape:collect="always"
       xlink:href="#linearGradient60139"
       id="linearGradient59938"
       x1="0.57145697"
       y1="8.7251749"
       x2="3.9666195"
       y2="5.312232"
       gradientUnits="userSpaceOnUse"
       gradientTransform="matrix(2.1750002,0,0,2.1749998,-0.97895716,-0.49609402)" />
    <linearGradient
       inkscape:collect="always"
       xlink:href="#linearGradient66038"
       id="linearGradient66040"
       x1="7.5948272"
       y1="3.0372896"
       x2="6.829505"
       y2="8.0956612"
       gradientUnits="userSpaceOnUse"
       gradientTransform="matrix(2.1749996,0,0,2.1341993,-2.4804673,-2.0153006)" />
    <linearGradient
       inkscape:collect="always"
       xlink:href="#linearGradient89856"
       id="linearGradient89858"
       x1="6.4491849"
       y1="11.753931"
       x2="6.4336104"
       y2="5.5521274"
       gradientUnits="userSpaceOnUse"
       gradientTransform="matrix(2.1499998,0,0,2.1499998,-0.75406186,-0.38520122)" />
    <linearGradient
       inkscape:collect="always"
       xlink:href="#linearGradient94025"
       id="linearGradient94027"
       x1="11.641666"
       y1="3.175"
       x2="7.7850866"
       y2="1.777204"
       gradientUnits="userSpaceOnUse"
       gradientTransform="matrix(2.1499998,0,0,2.1499998,-0.95249926,-1.0318748)" />
    <linearGradient
       inkscape:collect="always"
       xlink:href="#linearGradient97113"
       id="linearGradient97115"
       x1="5.6945176"
       y1="-0.15759967"
       x2="5.650609"
       y2="7.4565392"
       gradientUnits="userSpaceOnUse"
       gradientTransform="matrix(2.1749998,0,0,2.1447914,-0.97895766,-1.0236068)" />
    <linearGradient
       inkscape:collect="always"
       xlink:href="#linearGradient98851"
       id="linearGradient97646"
       gradientUnits="userSpaceOnUse"
       x1="10.226151"
       y1="-2.0517895"
       x2="11.172931"
       y2="3.2473421"
       gradientTransform="matrix(2.1499998,0,0,-2.1554055,-1.0113474,18.826534)" />
  </defs>
  <rect
     style="fill:url(#radialGradient18410);fill-opacity:1;fill-rule:evenodd;stroke-width:0.953637"
     id="rect31"
     width="22.754166"
     height="20.637499"
     x="1.3229172"
     y="2.3812499" />
  <path
     id="rect157"
     style="opacity:0.5;fill:url(#linearGradient51028);fill-opacity:1;stroke-width:0.12542"
     d="M 1.3229171,2.38125 H 2.9104165 L 7.6729163,7.1437499 7.6729175,13.49375 1.3229171,7.1437499 Z"
     sodipodi:nodetypes="cccccc" />
  <path
     id="rect157-6"
     style="opacity:0.6;fill:url(#linearGradient59938);fill-opacity:1;stroke-width:0.126878"
     d="M 1.3229176,19.843749 7.6729175,13.49375 7.6729163,7.1437499 1.3229166,13.493749 Z"
     sodipodi:nodetypes="ccccc" />
  <path
     id="rect157-6-7"
     style="opacity:0.8;fill:url(#linearGradient89858);fill-opacity:1;stroke-width:0.158062"
     d="M 10.054166,7.1437499 V 19.05 l 3.96875,3.96875 h 2.645833 l 1e-6,-9.260418 z"
     sodipodi:nodetypes="cccccc" />
  <path
     id="rect157-6-7-5"
     style="opacity:0.8;fill:url(#linearGradient66040);fill-opacity:1;stroke-width:0.158393"
     d="m 11.906249,14.37684 4.762497,-4.7625 V 4.2333333 l -4.762497,4.7624999 z"
     sodipodi:nodetypes="ccccc" />
  <path
     id="rect4887"
     style="opacity:0.4;fill:url(#linearGradient94027);fill-opacity:1;stroke-width:0.486551"
     d="m 16.668746,4.2333333 1.852086,-1.852083 5.556249,-3e-7 -2e-6,3.9231317 -7.40833,7.4539503 z"
     sodipodi:nodetypes="cccccc" />
  <path
     id="rect4887-9"
     style="opacity:0.4;fill:url(#linearGradient97646);fill-opacity:1;stroke-width:0.487162"
     d="m 16.66875,13.758332 7.408332,7.408333 V 14.022916 L 16.668749,6.6145832 Z"
     sodipodi:nodetypes="ccccc" />
  <path
     id="rect92409"
     style="opacity:0.8;fill:url(#linearGradient97115);fill-opacity:1;stroke-width:0.381283"
     d="m 7.6729163,9.491927 7.1437497,-7.1106761 3.704166,-6e-7 -6.614583,6.6145829 -1.852083,-1.8520833 2e-6,3.8010521 -2e-6,8.105198 -2.38125,2.348179 z"
     sodipodi:nodetypes="ccccccccc" />
  <rect
     style="fill:#ffffff;fill-opacity:0.784314;stroke-width:0.36109"
     id="rect99127"
     width="22.754166"
     height="1.5875"
     x="1.3229172"
     y="21.43125" />
  <g
     id="text4213"
     transform="matrix(0.25723749,0,0,0.25723749,-91.107273,-116.54693)">
    <path
       inkscape:connector-curvature="0"
       id="path4218"
       d="m 434.23853,537.83412 c -0.15893,0.11003 -0.36677,0.22414 -0.54201,0.30157 l 0.0734,0.28934 c 0.14264,-0.0448 0.27305,-0.12225 0.43198,-0.22414 v 2.60819 h 0.35455 v -2.97496 h -0.31787 z" />
    <path
       inkscape:connector-curvature="0"
       id="path4220"
       d="m 435.20119,538.03381 0.11819,0.29749 c 0.16708,-0.17116 0.41568,-0.24452 0.66427,-0.24452 0.33825,0 0.52571,0.18747 0.52571,0.51757 v 0.0204 c -0.004,0.2323 -0.15486,0.46051 -0.38715,0.71726 l -1.02697,1.14108 0.0448,0.32602 h 1.74016 l 0.0245,-0.30565 h -1.38153 l 0.83951,-0.89656 c 0.32603,-0.35048 0.52572,-0.63575 0.52979,-1.01067 v -0.0122 c 0,-0.48904 -0.34232,-0.81098 -0.88434,-0.81098 -0.38715,0 -0.63982,0.10595 -0.80691,0.26082 z" />
    <path
       inkscape:connector-curvature="0"
       id="path4222"
       d="m 437.42599,540.85799 h 0.4116 v -0.46459 h -0.4116 z m 0,-1.82574 h 0.4116 v -0.46051 h -0.4116 z" />
    <path
       inkscape:connector-curvature="0"
       id="path4224"
       d="m 439.75394,539.98995 c 0,0.3627 -0.2649,0.56239 -0.65613,0.56239 -0.30157,0 -0.50941,-0.0978 -0.6602,-0.21599 l -0.1141,0.28934 c 0.11003,0.10596 0.39122,0.22822 0.77838,0.22822 0.57869,0 1.00252,-0.3301 1.00252,-0.85989 0,-0.41975 -0.23229,-0.68872 -0.59499,-0.77023 0.32195,-0.0978 0.52164,-0.3301 0.52164,-0.71317 0,-0.47681 -0.41161,-0.73763 -0.85174,-0.73763 -0.41161,0 -0.6765,0.0897 -0.85581,0.22821 l 0.1141,0.28935 c 0.15894,-0.12634 0.39123,-0.21192 0.66428,-0.21192 0.35047,0 0.54609,0.14671 0.54609,0.47681 0,0.46866 -0.43198,0.52164 -0.88842,0.52164 v 0.29342 c 0.55424,0 0.99438,0.0856 0.99438,0.61945 z" />
    <path
       inkscape:connector-curvature="0"
       id="path4226"
       d="m 441.86538,538.2824 v 1.49971 h -0.99437 z m 0.67243,1.78905 0.0285,-0.28934 h -0.36678 v -1.94799 h -0.37085 l -1.30817,1.93169 v 0.30564 h 1.34484 v 0.73763 h 0.33418 v -0.73763 h 0.33825 z" />
  </g>
  <path
     inkscape:connector-curvature="0"
     style="color:#000000;stroke-width:0.396788"
     id="path2994"
     d="m 2.5796446,21.788597 a 0.06613147,0.06613147 0 0 0 -0.066133,0.06614 0.06613147,0.06613147 0 0 0 0.066133,0.06614 0.06613147,0.06613147 0 0 0 0.06613,-0.06614 0.06613147,0.06613147 0 0 0 -0.06613,-0.06614 z m 0.330656,0 -0.1281307,0.103328 0.1715278,0.212861 -0.1611955,0.161195 0.1177995,0.117799 0.2645272,-0.264527 z m -0.4298531,0.264528 a 0.0991972,0.0991972 0 0 0 -0.099197,0.09919 0.0991972,0.0991972 0 0 0 0.099197,0.0992 0.0991972,0.0991972 0 0 0 0.099197,-0.0992 0.0991972,0.0991972 0 0 0 -0.099197,-0.09919 z m 0.1983943,0.330655 a 0.0991972,0.0991972 0 0 0 -0.099197,0.0992 0.0991972,0.0991972 0 0 0 0.099197,0.0992 0.0991972,0.0991972 0 0 0 0.099197,-0.0992 0.0991972,0.0991972 0 0 0 -0.099197,-0.0992 z" />
</svg>
