<?xml version="1.0" encoding="UTF-8" standalone="no"?>
<!-- Created with Inkscape (http://www.inkscape.org/) -->

<svg
   width="16"
   height="16"
   viewBox="0 0 4.2333332 4.2333335"
   version="1.1"
   id="svg5"
   inkscape:version="1.1.1 (3bf5ae0d25, 2021-09-20, custom)"
   sodipodi:docname="lollypop-symbolic.svg"
   xmlns:inkscape="http://www.inkscape.org/namespaces/inkscape"
   xmlns:sodipodi="http://sodipodi.sourceforge.net/DTD/sodipodi-0.dtd"
   xmlns="http://www.w3.org/2000/svg"
   xmlns:svg="http://www.w3.org/2000/svg">
  <sodipodi:namedview
     id="namedview7"
     pagecolor="#ffffff"
     bordercolor="#666666"
     borderopacity="1.0"
     inkscape:pageshadow="2"
     inkscape:pageopacity="0.0"
     inkscape:pagecheckerboard="0"
     inkscape:document-units="px"
     showgrid="false"
     units="px"
     width="16px"
     inkscape:zoom="24.96875"
     inkscape:cx="10.653317"
     inkscape:cy="8.5106383"
     inkscape:window-width="1920"
     inkscape:window-height="1019"
     inkscape:window-x="0"
     inkscape:window-y="31"
     inkscape:window-maximized="1"
     inkscape:current-layer="svg5" />
  <defs
     id="defs2">
    <style type="text/css" id="current-color-scheme">
      .ColorScheme-Text {
        color:#232629;
      }
      </style>
  </defs>
  <path
     id="path868"
     style="fill:currentColor;stroke-width:0.467254"
     class="ColorScheme-Text"
     d="M 2.1166666,0 A 2.1166667,2.1166667 0 0 0 0,2.1166666 2.1166667,2.1166667 0 0 0 2.1166666,4.2333333 2.1166667,2.1166667 0 0 0 4.2333333,2.1166666 2.1166667,2.1166667 0 0 0 2.1166666,0 Z M 1.7332275,0.30954183 c -0.030261,0.0535588 -0.080721,0.15194486 -0.1260905,0.28060303 -0.00318,0.009024 -0.0067,0.0185922 -0.00982,0.0279053 -0.0573,0.17115937 -0.1014026,0.39037884 -0.077513,0.62476804 a 1.0583333,1.0583333 0 0 1 0.5968628,-0.1844849 1.0583333,1.0583333 0 0 1 0.024288,5.16e-4 C 2.233801,0.78388781 2.392057,0.51722649 2.661853,0.34674886 h 5.292e-4 A 1.8520832,1.8520832 0 0 1 3.3476117,0.73328857 C 3.1492007,0.74238045 2.716903,0.79796266 2.3874636,1.0939901 a 1.0583333,1.0583333 0 0 1 0.5606892,0.3679361 c 0.3058025,-0.06317 0.6418011,-0.057367 0.942049,0.12299 A 1.8520832,1.8520832 0 0 1 3.96875,2.1166666 1.8520832,1.8520832 0 0 1 3.876766,2.6938925 C 3.8073234,2.5746789 3.5721274,2.215496 3.1718993,2.0360514 A 1.0583333,1.0583333 0 0 1 3.175,2.1166666 1.0583333,1.0583333 0 0 1 3.0204875,2.6659871 c 0.1916192,0.2177897 0.3431059,0.488401 0.3560506,0.8071858 a 1.8520832,1.8520832 0 0 1 -0.677478,0.4015259 c 0.00183,-0.00355 0.00379,-0.00661 0.00568,-0.010335 0.092416,-0.1816333 0.2523813,-0.5773815 0.1622642,-1.002523 a 1.0583333,1.0583333 0 0 1 -0.59893,0.3017904 c -0.095674,0.2890083 -0.2624081,0.5701295 -0.5544881,0.741557 -0.00562,0.0033 -0.010829,0.0066 -0.016536,0.00982 a 1.8520832,1.8520832 0 0 1 -5.16e-4,0 A 1.8520832,1.8520832 0 0 1 0.74362362,3.3522509 C 0.88876308,3.3509016 1.309655,3.3237519 1.65933,3.0711312 A 1.0583333,1.0583333 0 0 1 1.1890747,2.624646 C 0.90638798,2.6814068 0.59834052,2.6781294 0.3172933,2.5326619 A 1.8520832,1.8520832 0 0 1 0.2645833,2.1166666 1.8520832,1.8520832 0 0 1 0.3064412,1.7471801 C 0.41556405,1.9162893 0.67892368,2.257086 1.0955404,2.3931356 A 1.0583333,1.0583333 0 0 1 1.0583333,2.1166666 1.0583333,1.0583333 0 0 1 1.1337809,1.7249593 C 0.92715312,1.4927813 0.76476412,1.1999952 0.76946206,0.85111084 A 1.8520832,1.8520832 0 0 1 1.7332275,0.30954183 Z M 1.5875,1.5875 V 2.6458333 L 2.6458333,2.1166666 Z" />
</svg>
