<?xml version="1.0" encoding="UTF-8" standalone="no"?>
<svg
   width="16.011"
   height="16"
   version="1.1"
   id="svg12"
   sodipodi:docname="speedometer-symbolic.svg"
   inkscape:version="1.1.1 (3bf5ae0d25, 2021-09-20, custom)"
   xmlns:inkscape="http://www.inkscape.org/namespaces/inkscape"
   xmlns:sodipodi="http://sodipodi.sourceforge.net/DTD/sodipodi-0.dtd"
   xmlns="http://www.w3.org/2000/svg"
   xmlns:svg="http://www.w3.org/2000/svg">
  <defs
     id="defs16" />
  <sodipodi:namedview
     id="namedview14"
     pagecolor="#ffffff"
     bordercolor="#666666"
     borderopacity="1.0"
     inkscape:pageshadow="2"
     inkscape:pageopacity="0.0"
     inkscape:pagecheckerboard="0"
     showgrid="false"
     inkscape:zoom="32"
     inkscape:cx="2.21875"
     inkscape:cy="12.1875"
     inkscape:window-width="1920"
     inkscape:window-height="1019"
     inkscape:window-x="0"
     inkscape:window-y="0"
     inkscape:window-maximized="1"
     inkscape:current-layer="g10" />
  <g
     fill="#232627"
     id="g10">
    <path
       d="m 10.017,8.995 a 2,2 0 0 1 -2,2 2,2 0 0 1 -2,-2 2,2 0 0 1 2,-2 2,2 0 0 1 2,2 z"
       id="path4" />
    <path
       d="m 3.486,5.527 3,3 C 7.1946664,9.236333 8.2586664,8.173333 7.55,7.464 l -3,-3 z M 7.517,1.995 v 2 h 1 v -2 z"
       style="line-height:normal;font-variant-ligatures:normal;font-variant-position:normal;font-variant-caps:normal;font-variant-numeric:normal;font-variant-alternates:normal;font-feature-settings:normal;text-indent:0;text-align:start;text-decoration-line:none;text-decoration-style:solid;text-decoration-color:#000000;text-transform:none;text-orientation:mixed;white-space:normal;shape-padding:0;isolation:auto;mix-blend-mode:normal;solid-color:#000000;solid-opacity:1"
       color="#232627"
       font-weight="400"
       font-family="sans-serif"
       overflow="visible"
       fill-rule="evenodd"
       id="path6"
       sodipodi:nodetypes="cccccccccc" />
    <path
       d="M 2.9225,3.1925 2.2155,3.8995 4.129,5.814 4.836,5.107 Z M 0.517,8.495 v 1 h 2.5 v -1 z m 12.5,0 v 1 h 2.4 v -1 z M 13.1125,3.1925 11.2,5.107 11.907,5.814 13.8195,3.8995 Z M 4.129,12.177 2.51,13.797 2.7167969,15.003906 4.836,12.884 Z m 7.777,0 -0.707,0.707 2.105688,2.104281 L 13.512,13.781 Z"
       style="line-height:normal;font-variant-ligatures:normal;font-variant-position:normal;font-variant-caps:normal;font-variant-numeric:normal;font-variant-alternates:normal;font-feature-settings:normal;text-indent:0;text-align:start;text-decoration-line:none;text-decoration-style:solid;text-decoration-color:#000000;text-transform:none;text-orientation:mixed;white-space:normal;shape-padding:0;isolation:auto;mix-blend-mode:normal;solid-color:#000000;solid-opacity:1"
       color="#232627"
       font-weight="400"
       font-family="sans-serif"
       overflow="visible"
       fill-rule="evenodd"
       id="path8"
       sodipodi:nodetypes="cccccccccccccccccccccccccccccc" />
    <path
       id="path1150"
       style="fill:#232627;stroke-width:1.09501"
       d="M 8 1 A 8 8 0 0 0 0 9 A 8 8 0 0 0 2.7167969 15.003906 L 3.4355469 14.285156 A 7 7 0 0 1 1 9 A 7 7 0 0 1 8 2 A 7 7 0 0 1 15 9 A 7 7 0 0 1 12.583984 14.269531 L 13.302734 14.988281 L 13.304688 14.988281 A 8 8 0 0 0 16 9 A 8 8 0 0 0 8 1 z " />
  </g>
</svg>
