<?xml version="1.0" encoding="UTF-8" standalone="no"?>
<svg
   width="128"
   height="128"
   version="1.1"
   id="svg68"
   sodipodi:docname="weather-storm-large.svg"
   inkscape:version="1.1.1 (3bf5ae0d25, 2021-09-20, custom)"
   xmlns:inkscape="http://www.inkscape.org/namespaces/inkscape"
   xmlns:sodipodi="http://sodipodi.sourceforge.net/DTD/sodipodi-0.dtd"
   xmlns:xlink="http://www.w3.org/1999/xlink"
   xmlns="http://www.w3.org/2000/svg"
   xmlns:svg="http://www.w3.org/2000/svg">
  <sodipodi:namedview
     id="namedview70"
     pagecolor="#ffffff"
     bordercolor="#666666"
     borderopacity="1.0"
     inkscape:pageshadow="2"
     inkscape:pageopacity="0.0"
     inkscape:pagecheckerboard="0"
     showgrid="false"
     inkscape:zoom="0.94661459"
     inkscape:cx="-174.30536"
     inkscape:cy="189.09491"
     inkscape:window-width="1920"
     inkscape:window-height="1019"
     inkscape:window-x="0"
     inkscape:window-y="0"
     inkscape:window-maximized="1"
     inkscape:current-layer="svg68" />
  <defs
     id="defs16">
    <linearGradient
       id="0">
      <stop
         stop-color="#f0ff01"
         id="stop2" />
      <stop
         offset="1"
         stop-color="#ff9701"
         id="stop4" />
    </linearGradient>
    <linearGradient
       xlink:href="#2"
       id="1"
       y1="511.798"
       x2="0"
       y2="535.79797"
       gradientUnits="userSpaceOnUse"
       gradientTransform="translate(-5,-4)" />
    <linearGradient
       id="2">
      <stop
         stop-color="#6f8181"
         id="stop8" />
      <stop
         offset="1"
         stop-color="#334545"
         id="stop10" />
    </linearGradient>
    <linearGradient
       xlink:href="#0"
       id="3"
       y1="529.79797"
       x2="0"
       y2="528.79797"
       gradientUnits="userSpaceOnUse"
       gradientTransform="translate(-4)" />
    <linearGradient
       xlink:href="#0"
       id="4"
       y1="530.79797"
       x2="0"
       y2="529.79797"
       gradientUnits="userSpaceOnUse"
       gradientTransform="translate(-4)" />
    <linearGradient
       gradientTransform="translate(384.57143,499.798)"
       xlink:href="#2"
       id="5"
       x1="34"
       y1="34"
       x2="8"
       y2="15"
       gradientUnits="userSpaceOnUse" />
    <linearGradient
       inkscape:collect="always"
       xlink:href="#0"
       id="linearGradient971"
       gradientUnits="userSpaceOnUse"
       gradientTransform="translate(-4)"
       y1="530.79797"
       x2="0"
       y2="529.79797" />
    <linearGradient
       inkscape:collect="always"
       xlink:href="#0"
       id="linearGradient973"
       gradientUnits="userSpaceOnUse"
       gradientTransform="translate(-4)"
       y1="530.79797"
       x2="0"
       y2="529.79797" />
  </defs>
  <metadata
     id="metadata18" />
  <g
     transform="matrix(2.5,0,0,2.5,-957.42858,-1247.4947)"
     id="g66">
    <g
       transform="translate(0,-4.0000002)"
       id="g24">
      <path
         d="m 411.07143,507.798 c -4.69442,-10e-6 -8.50001,3.80558 -8.5,8.5 -1e-5,4.69442 1.54505,8.5 1.54505,8.5 h 18.95495 c 3.047,0 5.5,-2.453 5.5,-5.5 0,-2.87832 -2.18919,-5.22539 -5,-5.47656 V 513.298 c 0,-2.5 -3,-5.5 -5.5,-5.5 0,0 -4.99511,-3.1e-4 -7,0 z"
         fill="#334545"
         id="path20" />
      <path
         d="m 402.07143,510.798 c -2.493,0 -4.5,2.007 -4.5,4.5 v 0.5 h -2 c -3.87801,0 -7,3.12199 -7,7 0,3.87801 3.12199,7 7,7 h 16 c 3.87801,0 7,-3.12199 7,-7 0,-3.53723 -2.60064,-6.43806 -6,-6.92188 V 515.298 c 0,-2.493 -2.007,-4.5 -4.5,-4.5 z"
         fill="url(#5)"
         id="path22"
         style="fill:url(#5)" />
    </g>
    <g
       fill="#3b85b5"
       id="g42">
      <path
         d="m 417.15722,540.38379 a 2,2 0 0 0 0,2.82842 2,2 0 0 0 2.82842,0 2,2 0 0 0 0,-2.82842 l -1.41421,-1.41422 z"
         id="path26" />
      <path
         d="m 411.15722,540.38379 a 2,2 0 0 0 0,2.82842 2,2 0 0 0 2.82842,0 2,2 0 0 0 0,-2.82842 l -1.41421,-1.41422 z"
         id="path28" />
      <path
         d="m 397.15722,540.38379 a 2,2 0 0 0 0,2.82842 2,2 0 0 0 2.82842,0 2,2 0 0 0 0,-2.82842 l -1.41421,-1.41422 z"
         id="path30" />
      <path
         d="m 391.15722,540.38379 a 2,2 0 0 0 0,2.82842 2,2 0 0 0 2.82842,0 2,2 0 0 0 0,-2.82842 l -1.41421,-1.41422 z"
         id="path32" />
      <path
         d="m 419.15722,534.38379 a 2,2 0 0 0 0,2.82842 2,2 0 0 0 2.82842,0 2,2 0 0 0 0,-2.82842 l -1.41421,-1.41422 z"
         id="path34" />
      <path
         d="m 413.15722,534.38379 a 2,2 0 0 0 0,2.82842 2,2 0 0 0 2.82842,0 2,2 0 0 0 0,-2.82842 l -1.41421,-1.41422 z"
         id="path36" />
      <path
         d="m 401.15722,534.38379 a 2,2 0 0 0 0,2.82842 2,2 0 0 0 2.82842,0 2,2 0 0 0 0,-2.82842 l -1.41421,-1.41422 z"
         id="path38" />
      <path
         d="m 395.15722,534.38379 a 2,2 0 0 0 0,2.82842 2,2 0 0 0 2.82842,0 2,2 0 0 0 0,-2.82842 l -1.41421,-1.41422 z"
         id="path40" />
    </g>
    <g
       color="#4d4d4d"
       id="g48">
      <path
         d="m 408.55537,507.77391 a 10.010037,10.010037 0 0 1 9.84972,8.23092 8.0080333,8.0080333 0 0 1 6.16634,7.78514 8.0080333,8.0080333 0 0 1 -8.00803,8.00803 h -18.01807 a 6.0060179,6.0060179 0 0 1 -6.00602,-6.00602 6.0060179,6.0060179 0 0 1 6.00602,-6.00603 6.0060179,6.0060179 0 0 1 0.21506,0.0121 10.010037,10.010037 0 0 1 -0.21506,-2.01373 10.010037,10.010037 0 0 1 10.01004,-10.01004 z"
         fill="url(#1)"
         id="path44"
         style="fill:url(#1)" />
      <path
         d="m 398.57139,517.26089 a 10.010037,10.010037 0 0 0 -0.0254,0.52344 10.010037,10.010037 0 0 0 0.0547,1.00586 6.0060179,6.0060179 0 0 1 0.16015,0.008 10.010037,10.010037 0 0 1 -0.18945,-1.53711 z m 25.97656,6.02148 a 8.0080333,8.0080333 0 0 1 -7.98437,7.51563 H 398.546 a 6.0060179,6.0060179 0 0 1 -5.98242,-5.49609 6.0060179,6.0060179 0 0 0 -0.0234,0.49023 6.0060179,6.0060179 0 0 0 6.00586,6.00586 h 18.01758 a 8.0080333,8.0080333 0 0 0 8.00781,-8.00781 8.0080333,8.0080333 0 0 0 -0.0234,-0.50782 z"
         opacity="0.4"
         fill="#172525"
         id="path46" />
    </g>
    <g
       fill="#f0ff01"
       id="g56">
      <path
         d="m 406.30581,529.16519 0.3164,0.94726 0.9082,2.72461 -1.51704,2.97048 1.05806,3.57444 -2.33835,3.57694 1.78562,2.43896 -0.84571,-2.4534 2.89844,-3.73242 -1,-3.29101 1.44336,-2.23828 0.55664,1.11523 v 2 l 1,-2 -2.05273,-5.31641 z"
         shape-rendering="auto"
         mix-blend-mode="normal"
         color-interpolation-filters="linearRGB"
         isolation="auto"
         white-space="normal"
         solid-opacity="1"
         image-rendering="auto"
         solid-color="#000000"
         color="#000000"
         color-rendering="auto"
         color-interpolation="sRGB"
         id="path50"
         sodipodi:nodetypes="cccccccccccccccc" />
      <path
         d="m 400.57143,529.798 -2,2 1,2 -1,2 1,3 v -3 l 1.5,-2 -0.5,-2 2,-2 z"
         id="path52" />
      <path
         d="m 413.57143,530.798 -1,1 1,1 v -1 l 1,-1 z"
         id="path54" />
    </g>
    <rect
       width="6.999989"
       height="2.00003"
       x="404.57144"
       y="528.79797"
       ry="1.00001"
       rx="0"
       fill="url(#3)"
       id="rect58"
       style="fill:url(#3)" />
    <g
       fill="url(#4)"
       id="g64"
       style="fill:url(#4)">
      <rect
         width="2.9999881"
         height="1.00003"
         x="412.57144"
         y="529.79797"
         ry="0.50001299"
         rx="0"
         id="rect60"
         style="fill:url(#linearGradient971)" />
      <rect
         width="4.999989"
         height="1.00003"
         x="398.57144"
         y="529.79797"
         rx="0.50001299"
         id="rect62"
         style="fill:url(#linearGradient973)" />
    </g>
  </g>
</svg>
