<?xml version="1.0" encoding="UTF-8" standalone="no"?>
<!-- Created with Inkscape (http://www.inkscape.org/) -->

<svg
   xmlns:dc="http://purl.org/dc/elements/1.1/"
   xmlns:cc="http://creativecommons.org/ns#"
   xmlns:rdf="http://www.w3.org/1999/02/22-rdf-syntax-ns#"
   xmlns:svg="http://www.w3.org/2000/svg"
   xmlns="http://www.w3.org/2000/svg"
   xmlns:sodipodi="http://sodipodi.sourceforge.net/DTD/sodipodi-0.dtd"
   xmlns:inkscape="http://www.inkscape.org/namespaces/inkscape"
   id="svg7384"
   height="16"
   width="16"
   version="1.1"
   sodipodi:docname="network-wireless-signal-none-symbolic.svg"
   inkscape:version="0.92.1 r15371">
  <defs
     id="defs14" />
  <sodipodi:namedview
     pagecolor="#ffffff"
     bordercolor="#666666"
     borderopacity="1"
     objecttolerance="10"
     gridtolerance="10"
     guidetolerance="10"
     inkscape:pageopacity="0"
     inkscape:pageshadow="2"
     inkscape:window-width="1600"
     inkscape:window-height="808"
     id="namedview12"
     showgrid="true"
     inkscape:zoom="18.16"
     inkscape:cx="3.6248367"
     inkscape:cy="6.8197108"
     inkscape:window-x="0"
     inkscape:window-y="0"
     inkscape:window-maximized="1"
     inkscape:current-layer="svg7384">
    <inkscape:grid
       type="xygrid"
       id="grid4508" />
  </sodipodi:namedview>
  <metadata
     id="metadata90">
    <rdf:RDF>
      <cc:Work
         rdf:about="">
        <dc:format>image/svg+xml</dc:format>
        <dc:type
           rdf:resource="http://purl.org/dc/dcmitype/StillImage" />
        <dc:title>Gnome Symbolic Icon Theme</dc:title>
      </cc:Work>
    </rdf:RDF>
  </metadata>
  <title
     id="title9167">Gnome Symbolic Icon Theme</title>
  <path
     style="color:#31363b;opacity:0.5;fill:#eff0f1;fill-opacity:1;stroke:none"
     d="m 8,0.02734375 c -3.047,0 -5.7969063,1.22659375 -7.78515625,3.21484375 L 0.921875,3.9492188 C 2.729375,2.1417088 5.23,1.0273438 8,1.0273438 c 2.77,0 5.270615,1.114365 7.078125,2.921875 L 15.785156,3.2421875 C 13.796906,1.2539375 11.047,0.02734375 8,0.02734375 Z"
     id="path4584" />
  <path
     style="color:#31363b;opacity:0.5;fill:#eff0f1;fill-opacity:1;stroke:none"
     d="M 8,4 C 6.061,4 4.3101719,4.7796719 3.0449219,6.0449219 L 3.7539062,6.7539062 C 4.8384063,5.6694063 6.338,5 8,5 9.662,5 11.161594,5.6694063 12.246094,6.7539062 L 12.955078,6.0449219 C 11.689828,4.7796719 9.939,4 8,4 Z"
     id="path4582" />
  <path
     style="color:#31363b;opacity:0.5;fill:#eff0f1;fill-opacity:1;stroke:none"
     d="M 8,8 C 7.1149245,8 6.2725178,8.169869 5.4941406,8.4667969 L 6.2792969,9.2519531 C 6.8244265,9.089856 7.4008116,9 8,9 8.6069881,9 9.1908335,9.0916263 9.7421875,9.2578125 L 10.525391,8.4746094 C 9.7416271,8.1729185 8.8924994,8 8,8 Z"
     id="path4580" />
  <path
     style="color:#31363b;opacity:0.5;fill:#eff0f1;fill-opacity:1;stroke:none"
     d="M 8 12 C 6.892004 12 6 12.892004 6 14 C 6 15.107996 6.892004 16 8 16 C 9.107996 16 10 15.107996 10 14 C 10 12.892004 9.107996 12 8 12 z M 8 13 C 8.554 13 9 13.446 9 14 C 9 14.554 8.554 15 8 15 C 7.446 15 7 14.554 7 14 C 7 13.446 7.446 13 8 13 z "
     id="path4578" />
</svg>
