<?xml version="1.0" encoding="UTF-8" standalone="no"?>
<svg
   version="1.1"
   viewBox="0 0 32 32"
   id="svg7"
   sodipodi:docname="system-reboot.svg"
   inkscape:version="1.1 (c4e8f9ed74, 2021-05-24)"
   xmlns:inkscape="http://www.inkscape.org/namespaces/inkscape"
   xmlns:sodipodi="http://sodipodi.sourceforge.net/DTD/sodipodi-0.dtd"
   xmlns:xlink="http://www.w3.org/1999/xlink"
   xmlns="http://www.w3.org/2000/svg"
   xmlns:svg="http://www.w3.org/2000/svg">
  <sodipodi:namedview
     id="namedview9"
     pagecolor="#ffffff"
     bordercolor="#666666"
     borderopacity="1.0"
     inkscape:pageshadow="2"
     inkscape:pageopacity="0.0"
     inkscape:pagecheckerboard="0"
     showgrid="false"
     inkscape:zoom="15.224893"
     inkscape:cx="16.092067"
     inkscape:cy="27.652083"
     inkscape:window-width="1920"
     inkscape:window-height="1018"
     inkscape:window-x="0"
     inkscape:window-y="0"
     inkscape:window-maximized="1"
     inkscape:current-layer="svg7" />
  <defs
     id="defs3">
    <linearGradient
       inkscape:collect="always"
       id="linearGradient4033">
      <stop
         style="stop-color:#87deaa;stop-opacity:1;"
         offset="0"
         id="stop4029" />
      <stop
         style="stop-color:#d7f4e3;stop-opacity:1"
         offset="1"
         id="stop4031" />
    </linearGradient>
    <linearGradient
       inkscape:collect="always"
       id="linearGradient2368">
      <stop
         style="stop-color:#000000;stop-opacity:1;"
         offset="0"
         id="stop2364" />
      <stop
         style="stop-color:#000000;stop-opacity:0;"
         offset="1"
         id="stop2366" />
    </linearGradient>
    <style
       type="text/css"
       id="current-color-scheme">
            .ColorScheme-Text {
                color:#232629;
            }
        </style>
    <linearGradient
       inkscape:collect="always"
       xlink:href="#linearGradient846"
       id="linearGradient848"
       x1="31.483906"
       y1="42.356411"
       x2="24.861862"
       y2="4.9475851"
       gradientUnits="userSpaceOnUse"
       gradientTransform="matrix(0.7,0,0,0.7,-0.79999916,-0.80000063)" />
    <linearGradient
       inkscape:collect="always"
       id="linearGradient846">
      <stop
         style="stop-color:#2ca05a;stop-opacity:1"
         offset="0"
         id="stop842" />
      <stop
         style="stop-color:#87deaa;stop-opacity:1"
         offset="1"
         id="stop844" />
    </linearGradient>
    <linearGradient
       inkscape:collect="always"
       xlink:href="#linearGradient2368"
       id="linearGradient2370"
       x1="-2.3305149"
       y1="6.693327"
       x2="16.060154"
       y2="26.298372"
       gradientUnits="userSpaceOnUse" />
    <linearGradient
       inkscape:collect="always"
       xlink:href="#linearGradient2368"
       id="linearGradient3019"
       gradientUnits="userSpaceOnUse"
       gradientTransform="matrix(0.7,0,0,0.7,-0.799723,-0.8001948)"
       x1="15.230469"
       y1="6.0157695"
       x2="35.899979"
       y2="25.599791" />
    <linearGradient
       inkscape:collect="always"
       xlink:href="#linearGradient4033"
       id="linearGradient4035"
       x1="15.890635"
       y1="40.564545"
       x2="16.000002"
       y2="4"
       gradientUnits="userSpaceOnUse" />
  </defs>
  <circle
     cx="16"
     cy="16"
     r="14"
     id="circle2"
     style="fill:url(#linearGradient848);fill-opacity:1;stroke-width:0.7" />
  <path
     id="circle2-7"
     style="opacity:0.3;fill:url(#linearGradient2370);fill-opacity:1;stroke-width:0.7"
     d="M 5.671875,9.916016 C 4.5818548,11.758595 4.0045998,13.8592 3.9999998,16 c 0,3.9765 1.9352332,7.502047 4.9140622,9.685547 l 3.916015,3.916016 A 14,14 0 0 0 15.999999,30 14,14 0 0 0 23.546874,27.791016 L 21.351562,25.595703 11.05078,15.292969 h -0.002 z" />
  <path
     id="circle2-9"
     style="opacity:0.3;fill:url(#linearGradient3019);fill-opacity:1;stroke-width:0.7"
     d="m 16.000001,4 c -2.1408,0.00462 -4.241485,0.581863 -6.083985,1.671875 L 10.648438,6.4042968 20.94922,16.705078 v 0.002 l 5.378906,5.376953 1.460937,1.460937 A 14,14 0 0 0 30.000001,16 14,14 0 0 0 29.582032,12.609375 L 24.486329,7.5136718 C 22.314829,5.3420979 19.313801,4 16.000001,4 Z" />
  <path
     d="M 29.985301,15.5926 A 14,14 0 0 1 16.000001,29.299999 14,14 0 0 1 2.0154008,15.7074 14,14 0 0 0 2.0000008,16 14,14 0 0 0 16.000001,29.999999 14,14 0 0 0 30.000001,16 a 14,14 0 0 0 -0.0147,-0.4074 z"
     id="path10"
     inkscape:connector-curvature="0"
     style="opacity:0.2;fill:#000000;fill-opacity:1;stroke-width:0.7" />
  <path
     style="fill:url(#linearGradient4035);fill-opacity:1;stroke:none"
     class="ColorScheme-Text"
     d="M 4,16 C 4.00462,13.859179 4.5818626,11.758571 5.671875,9.916016 L 11.050781,15.292969 10.339844,16 5.935547,11.595703 C 5.3233557,12.983592 5.0048351,14.483099 5,16 c 0,6.075132 4.9248678,11 11,11 1.874364,-0.0045 3.716487,-0.487898 5.351562,-1.404297 l 0.728516,0.732422 C 20.238665,27.417466 18.139495,27.994687 16,28 9.372583,28 4,22.627417 4,16 Z M 9.916016,5.671875 C 11.758571,4.5818626 13.859179,4.0046166 16,4 c 6.627417,0 12,5.372583 12,12 -0.0046,2.140821 -0.581863,4.241429 -1.671875,6.083984 L 20.949219,16.707031 21.65625,16 26.060547,20.40625 C 26.674345,19.018046 26.994203,17.517835 27,16 27,9.9248678 22.075132,5 16,5 14.125636,5.00451 12.283513,5.4878976 10.648438,6.404297 Z"
     id="path5"
     sodipodi:nodetypes="cccccccccccccccccccccc" />
</svg>
