<?xml version="1.0" encoding="UTF-8" standalone="no"?>
<!-- Created with Inkscape (http://www.inkscape.org/) -->

<svg
   width="48"
   height="48"
   viewBox="0 0 12.7 12.7"
   version="1.1"
   id="svg5"
   inkscape:version="1.1.1 (3bf5ae0d25, 2021-09-20)"
   sodipodi:docname="folder-decrypted.svg"
   xmlns:inkscape="http://www.inkscape.org/namespaces/inkscape"
   xmlns:sodipodi="http://sodipodi.sourceforge.net/DTD/sodipodi-0.dtd"
   xmlns:xlink="http://www.w3.org/1999/xlink"
   xmlns="http://www.w3.org/2000/svg"
   xmlns:svg="http://www.w3.org/2000/svg">
  <sodipodi:namedview
     id="namedview7"
     pagecolor="#ffffff"
     bordercolor="#666666"
     borderopacity="1.0"
     inkscape:pageshadow="2"
     inkscape:pageopacity="0.0"
     inkscape:pagecheckerboard="false"
     inkscape:document-units="px"
     showgrid="false"
     units="px"
     height="48px"
     borderlayer="false"
     inkscape:zoom="11.85877"
     inkscape:cx="30.778909"
     inkscape:cy="29.893488"
     inkscape:window-width="1920"
     inkscape:window-height="1007"
     inkscape:window-x="0"
     inkscape:window-y="0"
     inkscape:window-maximized="1"
     inkscape:current-layer="svg5" />
  <defs
     id="defs2">
    <linearGradient
       inkscape:collect="always"
       id="linearGradient6505">
      <stop
         style="stop-color:#2e3340;stop-opacity:1"
         offset="0"
         id="stop6501" />
      <stop
         style="stop-color:#434c5e;stop-opacity:1"
         offset="1"
         id="stop6503" />
    </linearGradient>
    <linearGradient
       inkscape:collect="always"
       id="linearGradient6033">
      <stop
         style="stop-color:#3b4252;stop-opacity:1"
         offset="0"
         id="stop6029" />
      <stop
         style="stop-color:#4c5664;stop-opacity:1"
         offset="1"
         id="stop6031" />
    </linearGradient>
    <linearGradient
       inkscape:collect="always"
       xlink:href="#linearGradient6033"
       id="linearGradient6035"
       x1="8.7787342"
       y1="11.09021"
       x2="8.772356"
       y2="3.172493"
       gradientUnits="userSpaceOnUse" />
    <linearGradient
       inkscape:collect="always"
       xlink:href="#linearGradient6505"
       id="linearGradient6507"
       x1="3.2972963"
       y1="5.1582618"
       x2="3.2804484"
       y2="1.5721661"
       gradientUnits="userSpaceOnUse" />
  </defs>
  <path
     id="rect846-3"
     style="fill:url(#linearGradient6507);fill-opacity:1;stroke-width:0.295665"
     d="M 1.0583333,1.5875 H 5.2916666 L 6.35,2.9104166 l 5.291666,10e-8 V 5.5562499 H 1.0583333 Z"
     sodipodi:nodetypes="ccccccc" />
  <path
     id="rect846"
     style="fill:url(#linearGradient6035);fill-opacity:1;stroke-width:0.480068"
     d="M 1.0583338,4.4979162 H 5.2916669 L 6.3500004,3.175 h 5.2916656 v 7.9375 H 1.0583333 Z"
     sodipodi:nodetypes="ccccccc" />
  <path
     id="rect870"
     style="fill:#ffffff;fill-opacity:0.235294;stroke-width:0.118237"
     d="M 5.2916666,1.5875 6.35,2.9104166 l 5.291666,10e-8 V 3.175 H 6.3500002 Z"
     sodipodi:nodetypes="cccccc" />
  <path
     id="rect3586"
     style="fill:#000000;fill-opacity:0.235294;stroke-width:0.264583"
     d="m 1.0583333,4.2333335 3.9687505,-4e-7 L 6.3500004,3.175 5.2916669,4.4979162 l -4.2333336,5e-7 z"
     sodipodi:nodetypes="cccccc" />
  <path
     id="rect914"
     style="opacity:0.6;fill:#666666;fill-opacity:1;stroke-width:0.999999"
     d="M 25 12 L 25 13 L 28 13 L 28 12 L 25 12 z M 28 13 L 28 16 L 31 16 L 31 13 L 28 13 z M 31 13 L 34 13 L 34 12 L 31 12 L 31 13 z M 34 13 L 34 16 L 37 16 L 37 13 L 34 13 z M 37 13 L 40 13 L 40 12 L 37 12 L 37 13 z M 40 13 L 40 16 L 43 16 L 43 13 L 40 13 z M 43 13 L 44 13 L 44 12 L 43 12 L 43 13 z M 43 16 L 43 19 L 44 19 L 44 16 L 43 16 z M 43 19 L 40 19 L 40 22 L 43 22 L 43 19 z M 40 19 L 40 16 L 37 16 L 37 19 L 40 19 z M 37 19 L 34 19 L 34 22 L 37 22 L 37 19 z M 34 19 L 34 16 L 31 16 L 31 19 L 34 19 z M 31 19 L 28 19 L 28 22 L 31 22 L 31 19 z M 28 19 L 28 16 L 25 16 L 25 19 L 28 19 z M 25 19 L 22 19 L 22 22 L 25 22 L 25 19 z M 22 19 L 22 16 L 20.800781 16 L 20 17 L 19 17 L 19 19 L 22 19 z M 19 19 L 16 19 L 16 22 L 19 22 L 19 19 z M 16 19 L 16 17 L 13 17 L 13 19 L 16 19 z M 13 19 L 10 19 L 10 22 L 13 22 L 13 19 z M 10 19 L 10 17 L 7 17 L 7 19 L 10 19 z M 7 19 L 4 19 L 4 22 L 7 22 L 7 19 z M 22 16 L 25 16 L 25 13 L 23.199219 13 L 22 14.5 L 22 16 z "
     transform="scale(0.26458333)" />
  <rect
     style="fill:#000000;fill-opacity:0.235294;stroke-width:0.147561"
     id="rect5839"
     width="10.583333"
     height="0.26458332"
     x="1.0583329"
     y="10.847917" />
  <path
     id="rect2728"
     style="fill:#ffffff;fill-opacity:0.235294;stroke-width:0.264583"
     d="m 1.0583333,4.4979167 4.2333336,-5e-7 L 6.3500004,3.175 5.5562502,4.7624995 1.0583333,4.7625 Z"
     sodipodi:nodetypes="cccccc" />
  <path
     d="m 6.3499993,5.8208332 c -0.438377,0 -0.793749,0.3553725 -0.793749,0.79375 v 0.2645834 h 0.264583 V 6.6145832 c 0,-0.2922508 0.236916,-0.5291666 0.529166,-0.5291666 0.292251,0 0.529167,0.2369158 0.529167,0.5291666 v 0.79375 h -1.852083 v 1.5875 h 2.645833 v -1.5875 h -0.529167 v -0.79375 c 0,-0.4383775 -0.355372,-0.79375 -0.79375,-0.79375 z m -1.058333,1.8520834 h 2.116667 v 1.0583333 h -2.116667 z"
     id="path63"
     style="stroke-width:0.264583;fill:#d8dee9;fill-opacity:0.6" />
</svg>
