<?xml version="1.0" encoding="UTF-8" standalone="no"?>
<!-- Created with Inkscape (http://www.inkscape.org/) -->

<svg
   width="48"
   height="48"
   viewBox="0 0 12.7 12.7"
   version="1.1"
   id="svg5"
   inkscape:version="1.1.1 (3bf5ae0d25, 2021-09-20)"
   sodipodi:docname="folder-publicshare.svg"
   xmlns:inkscape="http://www.inkscape.org/namespaces/inkscape"
   xmlns:sodipodi="http://sodipodi.sourceforge.net/DTD/sodipodi-0.dtd"
   xmlns:xlink="http://www.w3.org/1999/xlink"
   xmlns="http://www.w3.org/2000/svg"
   xmlns:svg="http://www.w3.org/2000/svg">
  <sodipodi:namedview
     id="namedview7"
     pagecolor="#ffffff"
     bordercolor="#666666"
     borderopacity="1.0"
     inkscape:pageshadow="2"
     inkscape:pageopacity="0.0"
     inkscape:pagecheckerboard="false"
     inkscape:document-units="px"
     showgrid="false"
     units="px"
     height="48px"
     borderlayer="false"
     inkscape:zoom="8.3854167"
     inkscape:cx="10.315528"
     inkscape:cy="35.895652"
     inkscape:window-width="1920"
     inkscape:window-height="1011"
     inkscape:window-x="0"
     inkscape:window-y="0"
     inkscape:window-maximized="1"
     inkscape:current-layer="svg5" />
  <defs
     id="defs2">
    <linearGradient
       inkscape:collect="always"
       id="linearGradient6505">
      <stop
         style="stop-color:#81a1ce;stop-opacity:1"
         offset="0"
         id="stop6501" />
      <stop
         style="stop-color:#5e81ac;stop-opacity:1"
         offset="1"
         id="stop6503" />
    </linearGradient>
    <linearGradient
       inkscape:collect="always"
       id="linearGradient6033">
      <stop
         style="stop-color:#8fbcbb;stop-opacity:1"
         offset="0"
         id="stop6029" />
      <stop
         style="stop-color:#88c0d0;stop-opacity:1"
         offset="1"
         id="stop6031" />
    </linearGradient>
    <linearGradient
       inkscape:collect="always"
       xlink:href="#linearGradient6033"
       id="linearGradient6035"
       x1="8.7787342"
       y1="11.09021"
       x2="8.772356"
       y2="3.172493"
       gradientUnits="userSpaceOnUse" />
    <linearGradient
       inkscape:collect="always"
       xlink:href="#linearGradient6505"
       id="linearGradient6507"
       x1="3.2957382"
       y1="5.5614467"
       x2="3.2804484"
       y2="1.5721661"
       gradientUnits="userSpaceOnUse" />
  </defs>
  <path
     id="rect846-3"
     style="fill:url(#linearGradient6507);fill-opacity:1;stroke-width:0.295665"
     d="M 1.0583333,1.5875 H 5.2916666 L 6.35,2.9104166 l 5.291666,10e-8 V 5.5562499 H 1.0583333 Z"
     sodipodi:nodetypes="ccccccc" />
  <path
     id="rect846"
     style="fill:url(#linearGradient6035);fill-opacity:1;stroke-width:0.480068"
     d="M 1.0583338,4.4979162 H 5.2916669 L 6.3500004,3.175 h 5.2916656 v 7.9375 H 1.0583333 Z"
     sodipodi:nodetypes="ccccccc" />
  <path
     id="rect870"
     style="fill:#ffffff;fill-opacity:0.235294;stroke-width:0.118237"
     d="M 5.2916666,1.5875 6.35,2.9104166 l 5.291666,10e-8 V 3.175 H 6.3500002 Z"
     sodipodi:nodetypes="cccccc" />
  <path
     id="rect2728"
     style="fill:#ffffff;fill-opacity:0.235294;stroke-width:0.264583"
     d="m 1.0583333,4.4979167 4.2333336,-5e-7 L 6.3500004,3.175 5.5562502,4.7624995 1.0583333,4.7625 Z"
     sodipodi:nodetypes="cccccc" />
  <path
     id="rect3586"
     style="fill:#000000;fill-opacity:0.235294;stroke-width:0.264583"
     d="m 1.0583333,4.2333335 3.9687505,-4e-7 L 6.3500004,3.175 5.2916669,4.4979162 l -4.2333336,5e-7 z"
     sodipodi:nodetypes="cccccc" />
  <rect
     style="fill:#000000;fill-opacity:0.235294;stroke-width:0.147561"
     id="rect5839"
     width="10.583333"
     height="0.26458332"
     x="1.0583329"
     y="10.847917" />
  <path
     d="m 5.953124,5.8208333 c -0.366447,0 -0.661458,0.2950105 -0.661458,0.6614584 0,0.3664479 0.295011,0.6614583 0.661458,0.6614583 0.366448,0 0.661459,-0.2950104 0.661459,-0.6614583 0,-0.3664479 -0.295011,-0.6614584 -0.661459,-0.6614584 z m 0,0.2645834 c 0.219869,0 0.396875,0.1770062 0.396875,0.396875 0,0.2198687 -0.177006,0.396875 -0.396875,0.396875 -0.219868,0 -0.396874,-0.1770063 -0.396874,-0.396875 0,-0.2198688 0.177006,-0.396875 0.396874,-0.396875 z M 7.408333,6.35 c -0.293159,0 -0.529167,0.2360083 -0.529167,0.5291667 0,0.2931583 0.236008,0.5291666 0.529167,0.5291666 0.293158,0 0.529166,-0.2360083 0.529166,-0.5291666 C 7.937499,6.5860083 7.701491,6.35 7.408333,6.35 Z m 0,0.2645833 c 0.146579,0 0.264583,0.1180042 0.264583,0.2645834 0,0.1465791 -0.118004,0.2645833 -0.264583,0.2645833 -0.146579,0 -0.264584,-0.1180042 -0.264584,-0.2645833 0,-0.1465792 0.118005,-0.2645834 0.264584,-0.2645834 z m -1.455209,0.79375 c -0.659603,0 -1.190624,0.5310214 -1.190624,1.190625 v 0.396875 h 2.381252 v -0.396875 c 0,-0.6596036 -0.531021,-1.190625 -1.190628,-1.190625 z m 0,0.2645834 c 0.513025,0 0.926042,0.4130172 0.926042,0.9260416 V 8.73125 H 5.027083 V 8.5989583 c 0,-0.5130244 0.413017,-0.9260416 0.926041,-0.9260416 z m 1.455209,0 c -0.146772,0 -0.282281,0.042204 -0.399976,0.1111038 0.06433,0.062674 0.12314,0.1309873 0.173633,0.2056738 0.06882,-0.032636 0.144846,-0.052194 0.226343,-0.052194 0.293158,0 0.529166,0.2360083 0.529166,0.5291666 H 7.381978 c 0.01722,0.085482 0.02635,0.1738763 0.02635,0.2645834 h 0.79375 V 8.4666666 c 0,-0.4397374 -0.354012,-0.7937499 -0.79375,-0.7937499 z"
     id="path23"
     style="fill:#2e3340;opacity:0.5;stroke-width:0.264583" />
</svg>
