<?xml version="1.0" encoding="UTF-8" standalone="no"?>
<!-- Created with Inkscape (http://www.inkscape.org/) -->

<svg
   width="64"
   version="1.1"
   height="64"
   id="svg15"
   sodipodi:docname="system-file-manager.svg"
   inkscape:version="1.1 (c4e8f9ed74, 2021-05-24)"
   xmlns:inkscape="http://www.inkscape.org/namespaces/inkscape"
   xmlns:sodipodi="http://sodipodi.sourceforge.net/DTD/sodipodi-0.dtd"
   xmlns:xlink="http://www.w3.org/1999/xlink"
   xmlns="http://www.w3.org/2000/svg"
   xmlns:svg="http://www.w3.org/2000/svg">
  <sodipodi:namedview
     id="namedview17"
     pagecolor="#ffffff"
     bordercolor="#666666"
     borderopacity="1.0"
     inkscape:pageshadow="2"
     inkscape:pageopacity="0.0"
     inkscape:pagecheckerboard="0"
     showgrid="false"
     inkscape:zoom="9.0045629"
     inkscape:cx="5.3306308"
     inkscape:cy="29.929271"
     inkscape:window-width="1920"
     inkscape:window-height="1006"
     inkscape:window-x="0"
     inkscape:window-y="0"
     inkscape:window-maximized="1"
     inkscape:current-layer="layer1" />
  <defs
     id="defs5455">
    <linearGradient
       inkscape:collect="always"
       id="linearGradient2068">
      <stop
         style="stop-color:#c3d2a6;stop-opacity:1"
         offset="0"
         id="stop2064" />
      <stop
         style="stop-color:#ffffff;stop-opacity:1"
         offset="1"
         id="stop2066" />
    </linearGradient>
    <linearGradient
       inkscape:collect="always"
       xlink:href="#linearGradient4172-5"
       id="linearGradient4178"
       y1="541.79797"
       y2="499.78421"
       x2="0"
       gradientUnits="userSpaceOnUse"
       gradientTransform="matrix(1 0 0 0.99967455 0 0.17645)" />
    <linearGradient
       inkscape:collect="always"
       id="linearGradient4172-5">
      <stop
         style="stop-color:#87a252"
         id="stop4174-6" />
      <stop
         offset="1"
         style="stop-color:#a9cd67"
         id="stop4176-6" />
    </linearGradient>
    <linearGradient
       inkscape:collect="always"
       xlink:href="#linearGradient2068"
       id="linearGradient2070"
       x1="413.09726"
       y1="544.966"
       x2="413.14859"
       y2="520.4151"
       gradientUnits="userSpaceOnUse"
       gradientTransform="translate(-2,-2)" />
  </defs>
  <metadata
     id="metadata5458" />
  <g
     inkscape:label="Capa 1"
     inkscape:groupmode="layer"
     id="layer1"
     transform="translate(-384.57143,-483.798)">
    <path
       id="rect4180-2"
       style="fill:#6d8342"
       d="m 387.57143,489.798 v 5 22 c 0,0.55373 0.446,1 1,1 h 56.00195 c 0.55399,0 0.42336,-4.22118 0.42336,-4.22118 l 0.5747,-16.77845 -6e-5,-1 -29.0001,-3.7e-4 -4.9999,-6 z"
       sodipodi:nodetypes="ccscccccccc" />
    <path
       inkscape:connector-curvature="0"
       style="fill:url(#linearGradient4178)"
       id="rect4113"
       d="m 416.57144,496.798 -6,6.00016 -23,-3e-5 -10e-6,1.99999 h 0.002 c -5e-5,0.004 -0.002,0.008 -0.002,0.0117 v 35.98828 1 h 1 56 1 v -1 -35.98828 -0.0117 l 10e-6,-7.99975 z"
       sodipodi:nodetypes="cccccscccccccccc" />
    <path
       inkscape:connector-curvature="0"
       style="fill:#ffffff;fill-opacity:0.235294;fill-rule:evenodd"
       id="path4224"
       d="m 387.57144,502.79813 -10e-6,0.99999 24.00001,-3.6e-4 5,-6.99976 -6,6.00016 z"
       sodipodi:nodetypes="cccccc" />
    <path
       inkscape:connector-curvature="0"
       style="fill-opacity:0.235294;fill-rule:evenodd"
       id="path4228"
       d="m 387.57144,501.79813 v 1 l 23,3e-5 6,-6.00016 -7,5 z"
       sodipodi:nodetypes="cccccc" />
    <path
       inkscape:connector-curvature="0"
       style="fill-opacity:0.235294"
       id="path4151-2"
       d="m 387.57143,540.7981 v 1 h 1 56 1 v -1 h -1 -56 z" />
    <path
       inkscape:connector-curvature="0"
       style="fill:#ffffff;fill-opacity:0.235294;fill-rule:evenodd"
       id="path4196"
       d="m 411.57144,489.798 5,7 29,3.7e-4 v -1 l -29,-3.7e-4 z"
       sodipodi:nodetypes="cccccc" />
    <path
       id="rect856-7"
       style="fill:url(#linearGradient2070);fill-opacity:1;stroke-width:1.1081"
       d="m 394.57144,515.79797 v 28 l 11.99999,3e-5 v -16 l 20.00001,-3e-5 v 16 h 12 v -28 z"
       sodipodi:nodetypes="ccccccccc" />
    <path
       id="rect856-7-5"
       style="opacity:0.2;fill:#000000;fill-opacity:1;stroke-width:1.1081"
       d="m 394.57144,542.79797 v 1 l 11.99999,3e-5 v -1 z m 32,0 v 1 h 12 v -1 z"
       sodipodi:nodetypes="cccccccccc" />
    <path
       id="rect3670"
       style="opacity:0.3;stroke-width:1.06882"
       d="m 390.57144,493.798 h 16 v 4 h -16 z" />
    <path
       id="rect3954"
       style="opacity:1;fill:#ffffff;stroke-width:1.03015"
       d="m 391.57144,494.798 h 14 v 2 h -14 z" />
    <path
       id="rect3954-1"
       style="fill:#62bdee;stroke-width:0.674392"
       d="m 391.57144,494.798 h 6 v 2 h -6 z" />
  </g>
</svg>
