<?xml version="1.0" encoding="UTF-8" standalone="no"?>
<!-- Created with Inkscape (http://www.inkscape.org/) -->

<svg
   width="16"
   height="16"
   viewBox="0 0 4.2333332 4.2333335"
   version="1.1"
   id="svg5"
   inkscape:version="1.1 (c4e8f9ed74, 2021-05-24)"
   sodipodi:docname="calculator-symbolic.svg"
   xmlns:inkscape="http://www.inkscape.org/namespaces/inkscape"
   xmlns:sodipodi="http://sodipodi.sourceforge.net/DTD/sodipodi-0.dtd"
   xmlns="http://www.w3.org/2000/svg"
   xmlns:svg="http://www.w3.org/2000/svg">
  <sodipodi:namedview
     id="namedview7"
     pagecolor="#ffffff"
     bordercolor="#666666"
     borderopacity="1.0"
     inkscape:pageshadow="2"
     inkscape:pageopacity="0.0"
     inkscape:pagecheckerboard="0"
     inkscape:document-units="px"
     showgrid="false"
     units="px"
     height="16px"
     inkscape:zoom="50.9375"
     inkscape:cx="7.990184"
     inkscape:cy="8"
     inkscape:window-width="1920"
     inkscape:window-height="1006"
     inkscape:window-x="0"
     inkscape:window-y="0"
     inkscape:window-maximized="1"
     inkscape:current-layer="layer1" />
  <defs
     id="defs2" />
  <g
     inkscape:label="레이어 1"
     inkscape:groupmode="layer"
     id="layer1">
    <rect
       style="opacity:0.5;fill:#eff0f1;fill-opacity:1;stroke-width:0.355519"
       id="rect1609"
       width="2.6458333"
       height="1.3229166"
       x="0.79374999"
       y="0.26458332" />
    <path
       id="rect846"
       style="fill:#eff0f1;fill-opacity:1;stroke-width:0.357092"
       d="M 0.79375,0.26458333 V 3.96875 H 3.4395833 V 0.26458333 Z M 1.0583334,0.52916666 H 3.175 V 1.3229167 H 1.0583334 Z m 0,1.05833334 H 1.5875 V 2.1166666 H 1.0583334 Z m 0.79375,0 H 2.38125 V 2.1166666 H 1.8520834 Z m 0.7937499,0 H 3.175 V 2.1166666 H 2.6458333 Z M 1.0583334,2.38125 H 1.5875 V 2.9104166 H 1.0583334 Z m 0.79375,0 H 2.38125 V 2.9104166 H 1.8520834 Z m 0.7937499,0 H 3.175 V 2.9104166 H 2.6458333 Z M 1.0583334,3.175 H 1.5875 V 3.7041666 H 1.0583334 Z m 0.79375,0 H 2.38125 V 3.7041666 H 1.8520834 Z m 0.7937499,0 H 3.175 V 3.7041666 H 2.6458333 Z" />
  </g>
</svg>
