<?xml version="1.0" encoding="UTF-8" standalone="no"?>
<svg
   xmlns:dc="http://purl.org/dc/elements/1.1/"
   xmlns:cc="http://creativecommons.org/ns#"
   xmlns:rdf="http://www.w3.org/1999/02/22-rdf-syntax-ns#"
   xmlns:svg="http://www.w3.org/2000/svg"
   xmlns="http://www.w3.org/2000/svg"
   xmlns:xlink="http://www.w3.org/1999/xlink"
   xmlns:sodipodi="http://sodipodi.sourceforge.net/DTD/sodipodi-0.dtd"
   xmlns:inkscape="http://www.inkscape.org/namespaces/inkscape"
   width="16"
   height="16"
   viewBox="0 0 4.2333332 4.2333335"
   version="1.1"
   id="svg8"
   inkscape:version="1.0.1 (3bc2e813f5, 2020-09-07)"
   sodipodi:docname="weather-few-clouds-night-small.svg">
  <defs
     id="defs2">
    <linearGradient
       inkscape:collect="always"
       id="linearGradient943">
      <stop
         style="stop-color:#eff1f1;stop-opacity:1;"
         offset="0"
         id="stop939" />
      <stop
         style="stop-color:#b0bdbd;stop-opacity:1"
         offset="1"
         id="stop941" />
    </linearGradient>
    <linearGradient
       inkscape:collect="always"
       id="linearGradient914">
      <stop
         style="stop-color:#6f8181;stop-opacity:1;"
         offset="0"
         id="stop910" />
      <stop
         style="stop-color:#334545;stop-opacity:1"
         offset="1"
         id="stop912" />
    </linearGradient>
    <linearGradient
       inkscape:collect="always"
       id="linearGradient839">
      <stop
         style="stop-color:#b0b8b8;stop-opacity:1;"
         offset="0"
         id="stop835" />
      <stop
         style="stop-color:#909c9c;stop-opacity:1"
         offset="1"
         id="stop837" />
    </linearGradient>
    <linearGradient
       inkscape:collect="always"
       xlink:href="#linearGradient839"
       id="linearGradient841"
       x1="2.1057785"
       y1="0.53134418"
       x2="2.1101334"
       y2="3.7194099"
       gradientUnits="userSpaceOnUse" />
    <linearGradient
       inkscape:collect="always"
       xlink:href="#linearGradient914"
       id="linearGradient916"
       x1="1.7056007"
       y1="1.9596193"
       x2="1.7403708"
       y2="14.009003"
       gradientUnits="userSpaceOnUse"
       gradientTransform="scale(0.26458333)" />
    <linearGradient
       inkscape:collect="always"
       xlink:href="#linearGradient943"
       id="linearGradient945"
       x1="2.9115055"
       y1="2.1629415"
       x2="3.3764317"
       y2="3.6960003"
       gradientUnits="userSpaceOnUse" />
  </defs>
  <sodipodi:namedview
     id="base"
     pagecolor="#ffffff"
     bordercolor="#666666"
     borderopacity="1.0"
     inkscape:pageopacity="0.0"
     inkscape:pageshadow="2"
     inkscape:zoom="30.375"
     inkscape:cx="9.7441983"
     inkscape:cy="11.531869"
     inkscape:document-units="px"
     inkscape:current-layer="svg8"
     inkscape:document-rotation="0"
     showgrid="false"
     units="px"
     inkscape:window-width="1177"
     inkscape:window-height="914"
     inkscape:window-x="208"
     inkscape:window-y="79"
     inkscape:window-maximized="0" />
  <metadata
     id="metadata5">
    <rdf:RDF>
      <cc:Work
         rdf:about="">
        <dc:format>image/svg+xml</dc:format>
        <dc:type
           rdf:resource="http://purl.org/dc/dcmitype/StillImage" />
        <dc:title></dc:title>
      </cc:Work>
    </rdf:RDF>
  </metadata>
  <circle
     style="fill:url(#linearGradient841);fill-opacity:1;stroke-width:0.375054"
     id="path833"
     cx="2.1166666"
     cy="2.1166666"
     r="1.5875" />
  <path
     id="rect843"
     style="opacity:0.6;fill:url(#linearGradient916);fill-opacity:1;stroke-width:0.563981"
     d="M 1.8588012,0.55035399 A 1.5874999,1.5874999 0 0 0 0.84542642,1.1663371 L 0.89968667,1.8360636 1.1539347,1.8970418 1.3787272,2.6804564 1.8350301,2.5181925 1.8887736,2.0613729 1.7874878,1.7420125 2.2107178,1.5875 2.6168945,1.3229166 2.4985555,0.95601397 1.8717204,1.1001912 1.8019572,0.85989582 2.3311238,0.72760416 Z M 1.53479,1.3229166 1.64021,1.5875 1.4552083,1.8520833 1.3229166,1.5875 Z m 1.4071494,0 L 2.5135416,1.7037719 2.7135293,2.065507 2.6189616,2.4964884 2.6458333,3.175 2.8577066,2.778125 2.9104166,2.38125 3.074231,2.7181804 3.0861161,3.1868856 3.5517208,2.7951782 Z M 3.5191649,1.5875 3.3600017,1.8520833 3.4395833,2.1166666 3.624585,1.8520833 Z M 0.92604165,2.2489583 0.95239664,2.5135416 1.190625,2.5398966 1.21698,2.3016683 Z" />
  <path
     id="rect937"
     style="opacity:1;fill:url(#linearGradient945);fill-opacity:1;stroke-width:0.354102"
     d="m 2.2489583,2.3812499 h 1.0583333 c 0.3664479,0 0.6614583,0.2950104 0.6614583,0.6614583 0,0.3664479 -0.2950104,0.6614583 -0.6614583,0.6614583 H 2.2489583 C 1.8825104,3.7041665 1.5875,3.4091561 1.5875,3.0427082 c 0,-0.3664479 0.2950104,-0.6614583 0.6614583,-0.6614583 z" />
  <path
     id="rect948"
     style="opacity:0.2;fill:#000000;fill-opacity:1;stroke-width:1.15591"
     d="M 6.0253906 11.25 C 6.0170776 11.333309 6 11.41443 6 11.5 C 6 12.885 7.1150001 14 8.5 14 L 12.5 14 C 13.885 14 15 12.885 15 11.5 C 15 11.41443 14.982922 11.333309 14.974609 11.25 C 14.848371 12.515102 13.79943 13.5 12.5 13.5 L 8.5 13.5 C 7.2005699 13.5 6.1516288 12.515102 6.0253906 11.25 z "
     transform="scale(0.26458333)" />
</svg>
