<?xml version="1.0" encoding="UTF-8" standalone="no"?>
<svg
   width="16"
   height="16"
   viewBox="0 0 4.2333332 4.2333335"
   version="1.1"
   id="svg8"
   inkscape:version="1.1.1 (3bf5ae0d25, 2021-09-20, custom)"
   sodipodi:docname="weather-few-clouds-wind-night.svg"
   xmlns:inkscape="http://www.inkscape.org/namespaces/inkscape"
   xmlns:sodipodi="http://sodipodi.sourceforge.net/DTD/sodipodi-0.dtd"
   xmlns:xlink="http://www.w3.org/1999/xlink"
   xmlns="http://www.w3.org/2000/svg"
   xmlns:svg="http://www.w3.org/2000/svg"
   xmlns:rdf="http://www.w3.org/1999/02/22-rdf-syntax-ns#"
   xmlns:cc="http://creativecommons.org/ns#"
   xmlns:dc="http://purl.org/dc/elements/1.1/">
  <defs
     id="defs2">
    <linearGradient
       inkscape:collect="always"
       id="linearGradient943">
      <stop
         style="stop-color:#eff1f1;stop-opacity:1;"
         offset="0"
         id="stop939" />
      <stop
         style="stop-color:#b0bdbd;stop-opacity:1"
         offset="1"
         id="stop941" />
    </linearGradient>
    <linearGradient
       inkscape:collect="always"
       id="linearGradient914">
      <stop
         style="stop-color:#6f8181;stop-opacity:1;"
         offset="0"
         id="stop910" />
      <stop
         style="stop-color:#334545;stop-opacity:1"
         offset="1"
         id="stop912" />
    </linearGradient>
    <linearGradient
       inkscape:collect="always"
       id="linearGradient839">
      <stop
         style="stop-color:#b0b8b8;stop-opacity:1;"
         offset="0"
         id="stop835" />
      <stop
         style="stop-color:#909c9c;stop-opacity:1"
         offset="1"
         id="stop837" />
    </linearGradient>
    <linearGradient
       inkscape:collect="always"
       xlink:href="#linearGradient839"
       id="linearGradient841"
       x1="2.1057785"
       y1="0.53134418"
       x2="2.1101334"
       y2="3.7194099"
       gradientUnits="userSpaceOnUse" />
    <linearGradient
       inkscape:collect="always"
       xlink:href="#linearGradient914"
       id="linearGradient916"
       x1="1.7056007"
       y1="1.9596193"
       x2="1.7403708"
       y2="14.009003"
       gradientUnits="userSpaceOnUse"
       gradientTransform="scale(0.26458333)" />
    <linearGradient
       inkscape:collect="always"
       xlink:href="#linearGradient943"
       id="linearGradient945"
       x1="2.9115055"
       y1="2.1629415"
       x2="3.3764317"
       y2="3.6960003"
       gradientUnits="userSpaceOnUse" />
    <linearGradient
       inkscape:collect="always"
       xlink:href="#linearGradient1690"
       id="linearGradient1264"
       x1="394.28571"
       y1="505.22656"
       x2="397.33627"
       y2="515.18152"
       gradientUnits="userSpaceOnUse"
       gradientTransform="matrix(0.09260417,0,0,0.09260417,-35.71875,-46.389213)" />
    <linearGradient
       inkscape:collect="always"
       id="linearGradient1690">
      <stop
         style="stop-color:#eff1f1;stop-opacity:1;"
         offset="0"
         id="stop1686" />
      <stop
         style="stop-color:#dfdfdf;stop-opacity:1"
         offset="1"
         id="stop1688" />
    </linearGradient>
  </defs>
  <sodipodi:namedview
     id="base"
     pagecolor="#ffffff"
     bordercolor="#666666"
     borderopacity="1.0"
     inkscape:pageopacity="0.0"
     inkscape:pageshadow="2"
     inkscape:zoom="30.375"
     inkscape:cx="9.7283951"
     inkscape:cy="11.539095"
     inkscape:document-units="px"
     inkscape:current-layer="svg8"
     inkscape:document-rotation="0"
     showgrid="false"
     units="px"
     inkscape:window-width="1920"
     inkscape:window-height="999"
     inkscape:window-x="0"
     inkscape:window-y="0"
     inkscape:window-maximized="1"
     inkscape:pagecheckerboard="0" />
  <metadata
     id="metadata5">
    <rdf:RDF>
      <cc:Work
         rdf:about="">
        <dc:format>image/svg+xml</dc:format>
        <dc:type
           rdf:resource="http://purl.org/dc/dcmitype/StillImage" />
      </cc:Work>
    </rdf:RDF>
  </metadata>
  <circle
     style="fill:url(#linearGradient841);fill-opacity:1;stroke-width:0.375054"
     id="path833"
     cx="2.1166666"
     cy="2.1166666"
     r="1.5875" />
  <path
     id="rect843"
     style="opacity:0.6;fill:url(#linearGradient916);fill-opacity:1;stroke-width:0.563981"
     d="M 1.8588012,0.55035399 A 1.5874999,1.5874999 0 0 0 0.84542642,1.1663371 L 0.89968667,1.8360636 1.1539347,1.8970418 1.3787272,2.6804564 1.8350301,2.5181925 1.8887736,2.0613729 1.7874878,1.7420125 2.2107178,1.5875 2.6168945,1.3229166 2.4985555,0.95601397 1.8717204,1.1001912 1.8019572,0.85989582 2.3311238,0.72760416 Z M 1.53479,1.3229166 1.64021,1.5875 1.4552083,1.8520833 1.3229166,1.5875 Z m 1.4071494,0 L 2.5135416,1.7037719 2.7135293,2.065507 2.6189616,2.4964884 2.6458333,3.175 2.8577066,2.778125 2.9104166,2.38125 3.074231,2.7181804 3.0861161,3.1868856 3.5517208,2.7951782 Z M 3.5191649,1.5875 3.3600017,1.8520833 3.4395833,2.1166666 3.624585,1.8520833 Z M 0.92604165,2.2489583 0.95239664,2.5135416 1.190625,2.5398966 1.21698,2.3016683 Z" />
  <path
     id="rect937"
     style="opacity:1;fill:url(#linearGradient945);fill-opacity:1;stroke-width:0.354102"
     d="m 2.2489583,2.3812499 h 1.0583333 c 0.3664479,0 0.6614583,0.2950104 0.6614583,0.6614583 0,0.3664479 -0.2950104,0.6614583 -0.6614583,0.6614583 H 2.2489583 C 1.8825104,3.7041665 1.5875,3.4091561 1.5875,3.0427082 c 0,-0.3664479 0.2950104,-0.6614583 0.6614583,-0.6614583 z" />
  <path
     id="rect948"
     style="opacity:0.2;fill:#000000;fill-opacity:1;stroke-width:1.15591"
     d="M 6.0253906 11.25 C 6.0170776 11.333309 6 11.41443 6 11.5 C 6 12.885 7.1150001 14 8.5 14 L 12.5 14 C 13.885 14 15 12.885 15 11.5 C 15 11.41443 14.982922 11.333309 14.974609 11.25 C 14.848371 12.515102 13.79943 13.5 12.5 13.5 L 8.5 13.5 C 7.2005699 13.5 6.1516288 12.515102 6.0253906 11.25 z "
     transform="scale(0.26458333)" />
  <path
     id="rect2245"
     style="fill:#3daee9;fill-opacity:1;stroke-width:0.145815"
     d="m 2.6329136,2.2489603 c -0.2871934,0.00701 -0.5163331,0.2418876 -0.516247,0.5291661 h 0.2645831 c 0,-0.1461247 0.1184574,-0.2645831 0.2645831,-0.2645831 0.1461256,0 0.264583,0.1184584 0.264583,0.2645831 0,0.1461257 -0.1191824,0.2500433 -0.264583,0.2645831 H 1.3229164 v 0.264584 h 1.3229164 c 0.2922504,0 0.529167,-0.2369167 0.529167,-0.5291671 0,-0.2922504 -0.2369166,-0.5291661 -0.529167,-0.5291661 -0.00431,-5.28e-5 -0.00861,-5.28e-5 -0.012919,0 z M 3.6912468,2.910418 C 3.4040535,2.917428 3.1749137,3.1523056 3.1749998,3.439585 h 0.2645831 c 0,-0.1461256 0.1184574,-0.264583 0.2645831,-0.264583 0.1461257,0 0.2645831,0.1184574 0.2645831,0.264583 0,0.1461248 -0.1184574,0.2645831 -0.2645831,0.2645831 H 1.0583334 V 3.9687512 H 3.704166 c 0.2922504,0 0.5291662,-0.2369157 0.5291662,-0.5291662 0,-0.2922504 -0.2369158,-0.529167 -0.5291662,-0.529167 -0.00431,-5.19e-5 -0.00861,-5.19e-5 -0.012919,0 z"
     sodipodi:nodetypes="cccsssccsscccccsssccsscc" />
  <rect
     style="fill:url(#linearGradient1264);fill-opacity:1;stroke-width:0.132292;stroke-linejoin:round"
     id="rect1085"
     width="1.3229166"
     height="0.79374999"
     x="0.26458335"
     y="0.5291667"
     ry="0.39687499" />
  <path
     id="rect1692"
     style="opacity:0.2;fill:#000000;stroke-width:0.132292;stroke-linejoin:round"
     d="m 0.27078559,0.8598962 c -0.003597,0.0215566 -0.006201,0.0435369 -0.006201,0.0661458 0,0.2198683 0.17700666,0.396875 0.39687498,0.396875 H 1.190626 c 0.2198683,0 0.396875,-0.1770067 0.396875,-0.396875 0,-0.0226089 -0.0026,-0.0445892 -0.0062,-0.0661458 C 1.5499128,1.0479744 1.3878854,1.1906253 1.190626,1.1906253 H 0.6614594 c -0.19725938,0 -0.35928684,-0.1426509 -0.39067381,-0.3307291 z" />
</svg>
