<?xml version="1.0" encoding="UTF-8" standalone="no"?>
<!-- Created with Inkscape (http://www.inkscape.org/) -->

<svg
   width="16"
   height="16"
   viewBox="0 0 4.2333332 4.2333335"
   version="1.1"
   id="svg5"
   inkscape:version="1.1.1 (3bf5ae0d25, 2021-09-20)"
   sodipodi:docname="applications-graphics-symbolic.svg"
   xmlns:inkscape="http://www.inkscape.org/namespaces/inkscape"
   xmlns:sodipodi="http://sodipodi.sourceforge.net/DTD/sodipodi-0.dtd"
   xmlns="http://www.w3.org/2000/svg"
   xmlns:svg="http://www.w3.org/2000/svg">
  <sodipodi:namedview
     id="namedview7"
     pagecolor="#ffffff"
     bordercolor="#666666"
     borderopacity="1.0"
     inkscape:pageshadow="2"
     inkscape:pageopacity="0.0"
     inkscape:pagecheckerboard="0"
     inkscape:document-units="px"
     showgrid="false"
     units="px"
     height="16px"
     inkscape:zoom="25.8125"
     inkscape:cx="7.535109"
     inkscape:cy="10.847458"
     inkscape:window-width="1852"
     inkscape:window-height="1053"
     inkscape:window-x="68"
     inkscape:window-y="27"
     inkscape:window-maximized="1"
     inkscape:current-layer="svg5" />
  <defs
     id="defs2" />
  <circle
     style="opacity:0.2;fill:#232627;stroke-width:0.286573"
     id="path1435"
     cx="2.1166666"
     cy="2.1166666"
     r="1.7197917" />
  <path
     id="path846"
     style="fill:#232627;stroke-width:0.296794"
     d="M 0.26458333,0.26458333 V 2.1166666 C 0.26458329,3.1395439 1.0937893,3.96875 2.1166666,3.96875 3.1395439,3.96875 3.96875,3.1395439 3.96875,2.1166666 3.96875,1.0937893 3.1395439,0.26458329 2.1166666,0.26458333 Z M 0.52916666,0.52916666 H 0.79374999 V 0.79374999 H 0.52916666 Z m 1.58749994,0 c 0.8767522,-3e-8 1.5875,0.71074794 1.5875,1.58749994 0,0.8767522 -0.7107478,1.5875 -1.5875,1.5875 -0.876752,0 -1.58749997,-0.7107478 -1.58749994,-1.5875 -3e-8,-0.876752 0.71074794,-1.58749997 1.58749994,-1.58749994 z" />
</svg>
