<?xml version="1.0" encoding="UTF-8" standalone="no"?>
<svg
   xmlns:dc="http://purl.org/dc/elements/1.1/"
   xmlns:cc="http://creativecommons.org/ns#"
   xmlns:rdf="http://www.w3.org/1999/02/22-rdf-syntax-ns#"
   xmlns:svg="http://www.w3.org/2000/svg"
   xmlns="http://www.w3.org/2000/svg"
   xmlns:sodipodi="http://sodipodi.sourceforge.net/DTD/sodipodi-0.dtd"
   xmlns:inkscape="http://www.inkscape.org/namespaces/inkscape"
   width="16"
   height="16"
   version="1.1"
   id="svg8"
   sodipodi:docname="preferences-desktop-wallpaper-symbolic.svg"
   inkscape:version="0.92.3 (2405546, 2018-03-11)">
  <metadata
     id="metadata14">
    <rdf:RDF>
      <cc:Work
         rdf:about="">
        <dc:format>image/svg+xml</dc:format>
        <dc:type
           rdf:resource="http://purl.org/dc/dcmitype/StillImage" />
        <dc:title></dc:title>
      </cc:Work>
    </rdf:RDF>
  </metadata>
  <defs
     id="defs12" />
  <sodipodi:namedview
     pagecolor="#ffffff"
     bordercolor="#666666"
     borderopacity="1"
     objecttolerance="10"
     gridtolerance="10"
     guidetolerance="10"
     inkscape:pageopacity="0"
     inkscape:pageshadow="2"
     inkscape:window-width="1920"
     inkscape:window-height="1026"
     id="namedview10"
     showgrid="true"
     inkscape:zoom="33.89"
     inkscape:cx="7.9084302"
     inkscape:cy="7.4576272"
     inkscape:window-x="0"
     inkscape:window-y="30"
     inkscape:window-maximized="1"
     inkscape:current-layer="svg8">
    <inkscape:grid
       type="xygrid"
       id="grid814" />
  </sodipodi:namedview>
  <g
     transform="translate(-8,-10)"
     id="g41"
     style="fill:#232627;fill-opacity:1">
    <path
       style="fill:#232627;fill-opacity:1"
       d="M 0 1 L 0 12 L 7 12 L 7 14 L 4 14 L 4 15 L 12 15 L 12 14 L 9 14 L 9 12 L 16 12 L 16 1 L 1 1 L 0 1 z M 1 2 L 15 2 L 15 11 L 1 11 L 1 2 z M 2 3 L 2 10 L 11 10 L 14 7 L 14 3 L 2 3 z M 3 4 L 13 4 L 13 7 L 11 7 L 11 9 L 3 9 L 3 4 z "
       transform="translate(8,10)"
       id="path39" />
  </g>
</svg>
