<?xml version="1.0" encoding="UTF-8" standalone="no"?>
<svg
   viewBox="0 0 16 16"
   version="1.1"
   id="svg6"
   sodipodi:docname="mail-outbox.svg"
   inkscape:version="1.1 (c4e8f9ed74, 2021-05-24)"
   xmlns:inkscape="http://www.inkscape.org/namespaces/inkscape"
   xmlns:sodipodi="http://sodipodi.sourceforge.net/DTD/sodipodi-0.dtd"
   xmlns="http://www.w3.org/2000/svg"
   xmlns:svg="http://www.w3.org/2000/svg">
  <sodipodi:namedview
     id="namedview8"
     pagecolor="#ffffff"
     bordercolor="#666666"
     borderopacity="1.0"
     inkscape:pageshadow="2"
     inkscape:pageopacity="0.0"
     inkscape:pagecheckerboard="0"
     showgrid="false"
     inkscape:zoom="43.0625"
     inkscape:cx="7.988389"
     inkscape:cy="7.988389"
     inkscape:window-width="1920"
     inkscape:window-height="1018"
     inkscape:window-x="0"
     inkscape:window-y="0"
     inkscape:window-maximized="1"
     inkscape:current-layer="svg6" />
  <defs
     id="defs3051">
    <style
       type="text/css"
       id="current-color-scheme">
      .ColorScheme-Text {
        color:#eff0f1;
      }
      </style>
  </defs>
  <path
     id="path4"
     style="fill:currentColor;fill-opacity:1;stroke:none"
     class="ColorScheme-Text"
     d="M 8.0078125 1 L 5.3105469 3.765625 L 6.0253906 4.5 L 8.0078125 2.4667969 L 9.9804688 4.4902344 L 10.697266 3.7558594 L 8.0078125 1 z M 7 4.5 L 7 9.5 L 9 9.5 L 9 4.5 L 7 4.5 z M 5 5 L 2.0332031 11 L 2 11 L 2 14 L 14 14 L 14 11 L 13.966797 11 L 11 5 L 10.021484 5 L 10.021484 6 L 10.423828 6 L 12.945312 11 L 11 11 L 10 12 L 9 12 L 7 12 L 6 12 L 5 11 L 3.0546875 11 L 5.5761719 6 L 5.9785156 6 L 5.9785156 5 L 5 5 z " />
</svg>
