<svg xmlns="http://www.w3.org/2000/svg" width="22" height="22" version="1.1">
 <defs>
  <style id="current-color-scheme" type="text/css">
   .ColorScheme-Text { color:#cecfce; } .ColorScheme-Highlight { color:#3daee9; }
  </style>
 </defs>
 <path style="fill:currentColor" class="ColorScheme-Text" d="M 13.070552,3.2725934 C 8.8030447,2.1291182 4.4160688,4.6619393 3.2725934,8.9294476 2.1291182,13.196955 4.66194,17.583931 8.9294476,18.727407 13.196956,19.870882 17.583931,17.33806 18.727407,13.070552 19.870882,8.8030441 17.338061,4.4160689 13.070552,3.2725934 Z m -0.258819,0.9659258 c 2.838789,0.7606511 4.789966,3.1416139 5.133385,5.8805558 l -1.277656,0.13485 C 16.304828,8.0758292 14.649023,6.2837338 12.423505,5.687408 10.144861,5.0768471 7.7167498,5.8714579 6.355972,7.6850841 L 7.8967027,8.809674 C 8.8077748,7.600251 10.426889,7.0612069 11.946307,7.4683337 c 1.463394,0.3921153 2.539775,1.5242655 2.800565,2.9503713 l -1.367002,0.151351 2.722432,2.638263 1.845677,-3.062192 c 0.10522,0.866513 0.05394,1.768269 -0.186498,2.665606 -1.00358,3.74541 -4.827804,5.953327 -8.5732143,4.949748 C 5.4428575,16.757901 3.2349398,12.933676 4.2385192,9.1882667 5.2420988,5.4428567 9.0663241,3.2349399 12.811733,4.2385192 Z M 5.8914969,8.8223712 4.0520568,11.823552 5.3425122,11.716395 c 0.3446095,2.168089 2.0219433,4.003483 4.2358695,4.596703 2.2844403,0.612114 4.6680153,-0.163114 6.0594443,-1.967491 l -1.542617,-1.125096 c -0.927234,1.204058 -2.517313,1.719564 -4.03963,1.311661 C 8.6018452,14.142645 7.5174595,12.97082 7.2631028,11.551616 l 1.3651154,-0.151857 z"/>
</svg>
