<?xml version="1.0" encoding="UTF-8" standalone="no"?>
<svg
   xmlns:dc="http://purl.org/dc/elements/1.1/"
   xmlns:cc="http://creativecommons.org/ns#"
   xmlns:rdf="http://www.w3.org/1999/02/22-rdf-syntax-ns#"
   xmlns:svg="http://www.w3.org/2000/svg"
   xmlns="http://www.w3.org/2000/svg"
   xmlns:sodipodi="http://sodipodi.sourceforge.net/DTD/sodipodi-0.dtd"
   xmlns:inkscape="http://www.inkscape.org/namespaces/inkscape"
   width="22"
   height="22"
   version="1.1"
   id="svg9"
   sodipodi:docname="fcitx-skk-panel.svg"
   inkscape:version="0.92.3 (2405546, 2018-03-11)">
  <metadata
     id="metadata13">
    <rdf:RDF>
      <cc:Work
         rdf:about="">
        <dc:format>image/svg+xml</dc:format>
        <dc:type
           rdf:resource="http://purl.org/dc/dcmitype/StillImage" />
      </cc:Work>
    </rdf:RDF>
  </metadata>
  <sodipodi:namedview
     pagecolor="#ffffff"
     bordercolor="#666666"
     borderopacity="1"
     objecttolerance="10"
     gridtolerance="10"
     guidetolerance="10"
     inkscape:pageopacity="0"
     inkscape:pageshadow="2"
     inkscape:window-width="1920"
     inkscape:window-height="1020"
     id="namedview11"
     showgrid="false"
     inkscape:zoom="23.000259"
     inkscape:cx="11"
     inkscape:cy="11"
     inkscape:window-x="0"
     inkscape:window-y="30"
     inkscape:window-maximized="1"
     inkscape:current-layer="svg9" />
  <defs
     id="defs3">
    <style
       id="current-color-scheme"
       type="text/css">
   .ColorScheme-Text { color:#cecfce; } .ColorScheme-Highlight { color:#3daee9; }
  </style>
  </defs>
  <path
     style="color:#cecfce;fill:currentColor"
     d="M 5 3 C 3.892 3 3 3.892 3 5 L 3 17 C 3 18.108 3.892 19 5 19 L 17 19 C 18.108 19 19 18.108 19 17 L 19 5 C 19 3.892 18.108 3 17 3 L 5 3 z M 5 4 L 17 4 C 17.571297 4 18 4.4287028 18 5 L 18 17 C 18 17.571297 17.571297 18 17 18 L 5 18 C 4.4287028 18 4 17.571297 4 17 L 4 5 C 4 4.4287028 4.4287028 4 5 4 z M 9 7 L 9 10 L 9 13 L 9 15 L 10 15 L 10 12.707031 L 12.292969 15 L 14 15 L 14 12.707031 L 16.292969 15 L 17.707031 15 L 14.707031 12 L 17.707031 9 L 16.292969 9 L 14 11.292969 L 14 7 L 13 7 L 13 9 L 12.292969 9 L 10 11.292969 L 10 7 L 9 7 z M 9 13 C 9 12.417 8.8455156 11.889484 8.4785156 11.521484 C 8.1105156 11.154484 7.583 11 7 11 C 6.583 11 6.3605156 10.904484 6.2285156 10.771484 C 6.0955156 10.639484 6 10.417 6 10 C 6 9.583 6.0955156 9.3605156 6.2285156 9.2285156 C 6.3605156 9.0955156 6.583 9 7 9 C 7.417 9 7.6394844 9.0955156 7.7714844 9.2285156 C 7.9044844 9.3605156 8 9.583 8 10 L 9 10 C 9 9.417 8.8455156 8.8894844 8.4785156 8.5214844 C 8.1105156 8.1544844 7.583 8 7 8 C 6.417 8 5.8894844 8.1544844 5.5214844 8.5214844 C 5.1544844 8.8894844 5 9.417 5 10 C 5 10.583 5.1544844 11.110516 5.5214844 11.478516 C 5.8894844 11.845516 6.417 12 7 12 C 7.417 12 7.6394844 12.095516 7.7714844 12.228516 C 7.9044844 12.360516 8 12.583 8 13 C 8 13.417 7.9044844 13.639484 7.7714844 13.771484 C 7.6394844 13.904484 7.417 14 7 14 C 6.583 14 6.3605156 13.904484 6.2285156 13.771484 C 6.0955156 13.639484 6 13.417 6 13 L 5 13 C 5 13.583 5.1544844 14.110516 5.5214844 14.478516 C 5.8894844 14.845516 6.417 15 7 15 C 7.583 15 8.1105156 14.845516 8.4785156 14.478516 C 8.8455156 14.110516 9 13.583 9 13 z M 13 9.7070312 L 13 14.292969 L 10.707031 12 L 13 9.7070312 z "
     id="path827" />
</svg>
