<svg xmlns="http://www.w3.org/2000/svg" id="svg9" width="22" height="22" version="1.1">
 <defs id="defs3">
  <style id="current-color-scheme" type="text/css">
   .ColorScheme-Text { color:#cecfce; } .ColorScheme-Highlight { color:#3daee9; }
  </style>
 </defs>
 <path id="path4492" style="opacity:1;fill:#cecfce;fill-opacity:1" d="M 11 3 C 6.5820815 2.9999999 2.9999999 6.5820815 3 11 C 2.9999999 15.417918 6.5820815 19 11 19 C 15.417918 19 19 15.417918 19 11 C 19 6.5820815 15.417918 2.9999999 11 3 z M 11 4 C 14.865678 3.9999999 18 7.1343213 18 11 C 18 14.865678 14.865678 18 11 18 C 7.1343213 18 3.9999999 14.865678 4 11 C 3.9999999 7.1343213 7.1343213 3.9999999 11 4 z M 9 8 L 6 11 L 9 14 L 9 12 L 13 12 L 13 14 L 16 11 L 13 8 L 13 10 L 9 10 L 9 8 z"/>
 <g id="layer1-2" transform="translate(6,-1025.3622)">
  <rect id="rect4153-8" style="opacity:1;fill:#da4453;fill-opacity:1;stroke:none" width="8" height="8" x="7" y="1037.36" ry="1"/>
  <path id="path4141" style="fill:#ffffff;fill-rule:evenodd;stroke:none;stroke-width:1px;stroke-linecap:butt;stroke-linejoin:miter;stroke-opacity:1" transform="translate(7,1037.3622)" d="M 2,1 1,2 3,4 1,6 2,7 4,5 6,7 7,6 5,4 7,2 6,1 4,3 Z"/>
 </g>
</svg>
