<?xml version="1.0" encoding="UTF-8" standalone="no"?>
<svg
   height="16"
   width="16"
   version="1.1"
   id="svg9"
   sodipodi:docname="folder-games-symbolic.svg"
   inkscape:version="1.1.1 (3bf5ae0d25, 2021-09-20, custom)"
   xmlns:inkscape="http://www.inkscape.org/namespaces/inkscape"
   xmlns:sodipodi="http://sodipodi.sourceforge.net/DTD/sodipodi-0.dtd"
   xmlns="http://www.w3.org/2000/svg"
   xmlns:svg="http://www.w3.org/2000/svg">
  <defs
     id="defs13" />
  <sodipodi:namedview
     id="namedview11"
     pagecolor="#ffffff"
     bordercolor="#666666"
     borderopacity="1.0"
     inkscape:pageshadow="2"
     inkscape:pageopacity="0.0"
     inkscape:pagecheckerboard="0"
     showgrid="false"
     inkscape:zoom="46.9375"
     inkscape:cx="7.9893475"
     inkscape:cy="8"
     inkscape:window-width="1920"
     inkscape:window-height="1019"
     inkscape:window-x="0"
     inkscape:window-y="31"
     inkscape:window-maximized="1"
     inkscape:current-layer="g7" />
  <style
     type="text/css"
     id="current-color-scheme">
    .ColorScheme-Text {
        color:#eff0f1;
    }
    </style>
  <g
     fill="currentColor"
     class="ColorScheme-Text"
     id="g7">
    <path
       d="M 3.7347161,5.1234568 V 6.3580247 H 2.5001482 V 7.5925926 H 3.7347161 V 8.8271605 H 4.969284 V 7.5925926 H 6.2038519 V 6.3580247 H 4.969284 V 5.1234568 Z M 11.525,5 c -0.4091,4e-7 -0.74074,0.3316412 -0.74074,0.7407407 -10e-7,0.4090995 0.33164,0.7407404 0.74074,0.7407408 0.409099,1e-7 0.740741,-0.3316409 0.740741,-0.7407408 C 12.26574,5.3316408 11.934099,4.9999999 11.525,5 Z m -1.234568,1.2345679 c -0.4091,4e-7 -0.7407405,0.3316412 -0.7407405,0.7407407 0,0.4090995 0.3316405,0.7407404 0.7407405,0.7407408 0.409099,10e-8 0.740741,-0.3316409 0.740741,-0.7407408 -1e-6,-0.4090999 -0.331642,-0.7407408 -0.740741,-0.7407407 z m 2.469136,0 c -0.4091,4e-7 -0.74074,0.3316412 -0.74074,0.7407407 -10e-7,0.4090995 0.33164,0.7407404 0.74074,0.7407408 0.409099,10e-8 0.740741,-0.3316409 0.740741,-0.7407408 -10e-7,-0.4090999 -0.331642,-0.7407408 -0.740741,-0.7407407 z M 11.525,7.4691358 c -0.4091,4e-7 -0.74074,0.3316412 -0.74074,0.7407407 -10e-7,0.4090995 0.33164,0.7407404 0.74074,0.7407408 0.409099,1e-7 0.740741,-0.3316409 0.740741,-0.7407408 C 12.26574,7.8007766 11.934099,7.4691357 11.525,7.4691358 Z"
       id="path3"
       style="stroke-width:1.23457"
       sodipodi:nodetypes="cccccccccccccssssssssssssssssssss" />
    <path
       d="M 2.6666667,3 A 2.6666667,5.3333333 0 0 0 0,8.3333331 V 11.666667 A 2,2 0 0 0 3.4133333,13.08 L 4.672,11.822667 A 2,2 0 0 0 6,12.333333 a 2,2 0 0 0 2,-2 2,2 0 0 0 3.330667,1.493334 L 12.585333,13.08 A 2,2 0 0 0 16,11.666667 V 8.3333331 A 2.6666667,5.3333333 0 0 0 13.333333,3 Z m 0,1.3333333 H 13.333333 a 1.3333333,4 0 0 1 1.333334,3.9999998 v 3.3333339 a 0.66666669,0.66666669 0 0 1 -1.138667,0.472 l -2.470667,-2.472 h -0.390666 v 0.666666 a 0.66666743,0.66666743 0 0 1 -1.333334,0 V 9.666667 H 6.6666669 v 0.666666 a 0.6666669,0.6666669 0 0 1 -1.3333338,0 V 9.666667 H 4.9426667 L 2.472,12.138667 a 0.66666669,0.66666669 0 0 1 -1.1386667,-0.472 V 8.3333331 A 1.3333333,4 0 0 1 2.6666667,4.3333333 Z"
       id="path5"
       style="stroke-width:1.33333" />
  </g>
</svg>
