<?xml version="1.0" encoding="UTF-8" standalone="no"?>
<!-- Created with Inkscape (http://www.inkscape.org/) -->

<svg
   width="48"
   height="48"
   viewBox="0 0 12.7 12.7"
   version="1.1"
   id="svg5"
   inkscape:version="1.1.1 (3bf5ae0d25, 2021-09-20)"
   sodipodi:docname="folder-sound.svg"
   xmlns:inkscape="http://www.inkscape.org/namespaces/inkscape"
   xmlns:sodipodi="http://sodipodi.sourceforge.net/DTD/sodipodi-0.dtd"
   xmlns:xlink="http://www.w3.org/1999/xlink"
   xmlns="http://www.w3.org/2000/svg"
   xmlns:svg="http://www.w3.org/2000/svg">
  <sodipodi:namedview
     id="namedview7"
     pagecolor="#ffffff"
     bordercolor="#666666"
     borderopacity="1.0"
     inkscape:pageshadow="2"
     inkscape:pageopacity="0.0"
     inkscape:pagecheckerboard="false"
     inkscape:document-units="px"
     showgrid="false"
     units="px"
     height="48px"
     borderlayer="false"
     inkscape:zoom="8.3854167"
     inkscape:cx="43.945341"
     inkscape:cy="34.106832"
     inkscape:window-width="1920"
     inkscape:window-height="1011"
     inkscape:window-x="0"
     inkscape:window-y="0"
     inkscape:window-maximized="1"
     inkscape:current-layer="svg5" />
  <defs
     id="defs2">
    <linearGradient
       inkscape:collect="always"
       id="linearGradient3574">
      <stop
         style="stop-color:#46a2d7;stop-opacity:0.5"
         offset="0"
         id="stop3570" />
      <stop
         style="stop-color:#46a2d7;stop-opacity:0"
         offset="0.15950118"
         id="stop3770" />
      <stop
         style="stop-color:#46a2d7;stop-opacity:0"
         offset="0.85096276"
         id="stop3836" />
      <stop
         style="stop-color:#46a2d7;stop-opacity:0.5"
         offset="1"
         id="stop3572" />
    </linearGradient>
    <linearGradient
       inkscape:collect="always"
       id="linearGradient6033">
      <stop
         style="stop-color:#83d4fb;stop-opacity:1"
         offset="0"
         id="stop6029" />
      <stop
         style="stop-color:#60c0f0;stop-opacity:1"
         offset="1"
         id="stop6031" />
    </linearGradient>
    <linearGradient
       inkscape:collect="always"
       xlink:href="#linearGradient6033"
       id="linearGradient6035"
       x1="8.7787342"
       y1="11.09021"
       x2="8.772356"
       y2="3.172493"
       gradientUnits="userSpaceOnUse" />
    <linearGradient
       inkscape:collect="always"
       xlink:href="#linearGradient3574"
       id="linearGradient3576"
       x1="1.0583332"
       y1="7.0114585"
       x2="11.641666"
       y2="7.0114585"
       gradientUnits="userSpaceOnUse" />
  </defs>
  <path
     id="rect846-3"
     style="fill:#46a2d7;fill-opacity:1;stroke-width:0.295665"
     d="M 1.0583333,1.5875 H 5.2916666 L 6.35,2.9104166 l 5.291666,10e-8 V 5.5562499 H 1.0583333 Z"
     sodipodi:nodetypes="ccccccc" />
  <path
     id="rect846"
     style="fill:url(#linearGradient6035);fill-opacity:1;stroke-width:0.480068"
     d="M 1.0583338,4.4979162 H 5.2916669 L 6.3500004,3.175 h 5.2916656 v 7.9375 H 1.0583333 Z"
     sodipodi:nodetypes="ccccccc" />
  <path
     id="rect846-7"
     style="fill:url(#linearGradient3576);fill-opacity:1;stroke-width:0.480068"
     d="m 1.0583333,4.7625 4.4979169,-5e-7 L 6.3499999,3.175 h 5.2916661 v 7.672917 H 1.0583332 Z"
     sodipodi:nodetypes="ccccccc" />
  <path
     id="rect870"
     style="fill:#ffffff;fill-opacity:0.235294;stroke-width:0.118237"
     d="M 5.2916666,1.5875 6.35,2.9104166 l 5.291666,10e-8 V 3.175 H 6.3500002 Z"
     sodipodi:nodetypes="cccccc" />
  <path
     id="rect2728"
     style="fill:#ffffff;fill-opacity:0.235294;stroke-width:0.264583"
     d="m 1.0583333,4.4979167 4.2333336,-5e-7 L 6.3500004,3.175 5.5562502,4.7624995 1.0583333,4.7625 Z"
     sodipodi:nodetypes="cccccc" />
  <path
     id="rect3586"
     style="fill:#000000;fill-opacity:0.235294;stroke-width:0.264583"
     d="m 1.0583333,4.2333335 3.9687505,-4e-7 L 6.3500004,3.175 5.2916669,4.4979162 l -4.2333336,5e-7 z"
     sodipodi:nodetypes="cccccc" />
  <rect
     style="fill:#000000;fill-opacity:0.235294;stroke-width:0.147561"
     id="rect5839"
     width="10.583333"
     height="0.26458332"
     x="1.0583329"
     y="10.847917" />
  <g
     transform="matrix(0.26458333,0,0,0.26458333,4.2333333,5.2916667)"
     fill="#46a2d7"
     id="g27">
    <path
       d="M 5,6 V 7 H 4 V 8 H 5 V 9 H 6 V 8 H 7 V 7 H 6 V 6 Z M 10.5,5.9 A 0.6,0.6 0 0 0 9.9,6.5 0.6,0.6 0 0 0 10.5,7.1 0.6,0.6 0 0 0 11.1,6.5 0.6,0.6 0 0 0 10.5,5.9 Z m -1,1 A 0.6,0.6 0 0 0 8.9,7.5 0.6,0.6 0 0 0 9.5,8.1 0.6,0.6 0 0 0 10.1,7.5 0.6,0.6 0 0 0 9.5,6.9 Z m 2,0 a 0.6,0.6 0 0 0 -0.6,0.6 0.6,0.6 0 0 0 0.6,0.6 0.6,0.6 0 0 0 0.6,-0.6 0.6,0.6 0 0 0 -0.6,-0.6 z m -1,1 A 0.6,0.6 0 0 0 9.9,8.5 0.6,0.6 0 0 0 10.5,9.1 0.6,0.6 0 0 0 11.1,8.5 0.6,0.6 0 0 0 10.5,7.9 Z"
       id="path23" />
    <path
       d="M 4,4 A 2,4 0 0 0 2,8 v 2.5 a 1.5,1.5 0 0 0 2.56,1.06 L 5.504,10.617 A 1.5,1.5 0 0 0 6.5,11 1.5,1.5 0 0 0 8,9.5 a 1.5,1.5 0 0 0 2.498,1.12 l 0.941,0.94 A 1.5,1.5 0 0 0 14,10.5 V 8 A 2,4 0 0 0 12,4 Z m 0,1 h 8 a 1,3 0 0 1 1,3 v 2.5 a 0.5,0.5 0 0 1 -0.854,0.354 L 10.293,9 H 10 v 0.5 a 0.5,0.5 0 0 1 -1,0 V 9 H 7 v 0.5 a 0.5,0.5 0 0 1 -1,0 V 9 H 5.707 L 3.854,10.854 A 0.5,0.5 0 0 1 3,10.5 V 8 A 1,3 0 0 1 4,5 Z"
       id="path25" />
  </g>
</svg>
