<?xml version="1.0" encoding="UTF-8" standalone="no"?>
<!-- Generator: Adobe Illustrator 16.0.0, SVG Export Plug-In . SVG Version: 6.00 Build 0)  -->

<svg
   xmlns:dc="http://purl.org/dc/elements/1.1/"
   xmlns:cc="http://creativecommons.org/ns#"
   xmlns:rdf="http://www.w3.org/1999/02/22-rdf-syntax-ns#"
   xmlns:svg="http://www.w3.org/2000/svg"
   xmlns="http://www.w3.org/2000/svg"
   xmlns:xlink="http://www.w3.org/1999/xlink"
   xmlns:sodipodi="http://sodipodi.sourceforge.net/DTD/sodipodi-0.dtd"
   xmlns:inkscape="http://www.inkscape.org/namespaces/inkscape"
   version="1.1"
   x="0px"
   y="0px"
   width="48"
   height="48"
   viewBox="0 0 48 48"
   enable-background="new 0 0 256 256"
   xml:space="preserve"
   id="svg158"
   sodipodi:docname="easytag.svg"
   inkscape:version="0.92.1 r15371"><metadata
     id="metadata164"><rdf:RDF><cc:Work
         rdf:about=""><dc:format>image/svg+xml</dc:format><dc:type
           rdf:resource="http://purl.org/dc/dcmitype/StillImage" /><dc:title></dc:title></cc:Work></rdf:RDF></metadata><defs
     id="defs162"><linearGradient
       inkscape:collect="always"
       id="linearGradient4867"><stop
         style="stop-color:#000000;stop-opacity:1;"
         offset="0"
         id="stop4863" /><stop
         style="stop-color:#000000;stop-opacity:0;"
         offset="1"
         id="stop4865" /></linearGradient><linearGradient
       inkscape:collect="always"
       id="linearGradient4840"><stop
         style="stop-color:#329e41;stop-opacity:1"
         offset="0"
         id="stop4836" /><stop
         style="stop-color:#8cc852;stop-opacity:1"
         offset="1"
         id="stop4838" /></linearGradient><defs
       id="defs21"><path
         d="M 245.46,129.523 147.569,32.625 c -5.556,-5.502 -16.222,-11.873 -23.7,-14.16 L 84.351,6.382 C 76.872,4.096 66.255,6.773 60.752,12.33 L 47.311,25.908 c -5.5,5.559 -14.502,14.653 -20.005,20.21 l -13.44,13.579 c -5.5,5.558 -8.07,16.206 -5.706,23.658 l 12.483,39.391 c 2.363,7.456 8.843,18.056 14.399,23.556 l 97.89,96.898 c 5.558,5.502 14.605,5.455 20.105,-0.101 l 36.26,-36.63 c 5.504,-5.559 14.503,-14.651 20.005,-20.209 l 36.259,-36.629 c 5.502,-5.56 5.455,-14.606 -0.101,-20.108 z M 67.375,78.783 c -7.198,0 -13.033,-5.835 -13.033,-13.033 0,-7.197 5.835,-13.033 13.033,-13.033 7.197,0 13.033,5.835 13.033,13.033 -0.001,7.198 -5.836,13.033 -13.033,13.033 z"
         id="SVGID_4_"
         inkscape:connector-curvature="0" /></defs><clipPath
       clip-path="url(#SVGID_5_)"
       id="SVGID_6_"><use
         id="use26"
         overflow="visible"
         xlink:href="#SVGID_4_"
         style="overflow:visible"
         x="0"
         y="0"
         width="100%"
         height="100%" /></clipPath><linearGradient
       y2="39.945801"
       x2="136.6797"
       y1="229.4668"
       x1="136.6797"
       gradientUnits="userSpaceOnUse"
       id="SVGID_9_"><stop
         id="stop59"
         style="stop-color:#E6E7E8"
         offset="0" /><stop
         id="stop61"
         style="stop-color:#FFFFFF"
         offset="1" /></linearGradient><linearGradient
       y2="49.163601"
       x2="67.374496"
       y1="82.337898"
       x1="67.374496"
       gradientUnits="userSpaceOnUse"
       id="SVGID_11_"
       gradientTransform="matrix(0.18086453,0,0,0.18086453,1.8142518,2.1079756)"><stop
         id="stop125"
         style="stop-color:#C8C8C8"
         offset="0" /><stop
         id="stop127"
         style="stop-color:#BFBFBF"
         offset="0.0632" /><stop
         id="stop129"
         style="stop-color:#A0A0A0"
         offset="0.3155" /><stop
         id="stop131"
         style="stop-color:#898989"
         offset="0.5606" /><stop
         id="stop133"
         style="stop-color:#7C7C7C"
         offset="0.7932" /><stop
         id="stop135"
         style="stop-color:#777777"
         offset="1" /></linearGradient><linearGradient
       y2="43.831501"
       x2="67.374496"
       y1="87.669403"
       x1="67.374496"
       gradientUnits="userSpaceOnUse"
       id="SVGID_10_"
       gradientTransform="matrix(0.18249007,0,0,0.18249007,1.7047319,2.0010966)"><stop
         id="stop104"
         style="stop-color:#777777"
         offset="0" /><stop
         id="stop106"
         style="stop-color:#7C7C7C"
         offset="0.2068" /><stop
         id="stop108"
         style="stop-color:#898989"
         offset="0.4394" /><stop
         id="stop110"
         style="stop-color:#A0A0A0"
         offset="0.6845" /><stop
         id="stop112"
         style="stop-color:#BFBFBF"
         offset="0.9368" /><stop
         id="stop114"
         style="stop-color:#C8C8C8"
         offset="1" /></linearGradient><linearGradient
       inkscape:collect="always"
       xlink:href="#linearGradient4840"
       id="linearGradient4842"
       x1="33.6861"
       y1="37.09417"
       x2="13.058296"
       y2="7.3183856"
       gradientUnits="userSpaceOnUse" /><linearGradient
       inkscape:collect="always"
       xlink:href="#linearGradient4867"
       id="linearGradient4869"
       x1="14.238078"
       y1="13.695826"
       x2="29.215443"
       y2="28.673189"
       gradientUnits="userSpaceOnUse" /></defs><sodipodi:namedview
     pagecolor="#ffffff"
     bordercolor="#666666"
     borderopacity="1"
     objecttolerance="10"
     gridtolerance="10"
     guidetolerance="10"
     inkscape:pageopacity="0"
     inkscape:pageshadow="2"
     inkscape:window-width="1600"
     inkscape:window-height="808"
     id="namedview160"
     showgrid="false"
     showguides="false"
     inkscape:zoom="1"
     inkscape:cx="19.8525"
     inkscape:cy="29.364275"
     inkscape:window-x="0"
     inkscape:window-y="0"
     inkscape:window-maximized="1"
     inkscape:current-layer="svg158" /><path
     d="M 43.307287,24.511705 27.152104,8.4777268 C 26.235184,7.5672957 24.474949,6.5130688 23.240837,6.1346326 L 16.719089,4.1352254 c -1.234277,-0.3782707 -2.986426,0.0647 -3.894599,0.9842319 l -2.2182,2.246789 C 9.6986121,8.2861093 8.2129908,9.7909185 7.3048177,10.710451 l -2.2180348,2.246954 c -0.907678,0.919698 -1.3318111,2.681651 -0.9416747,3.914754 l 2.060099,6.518137 c 0.3899714,1.233765 1.4593811,2.987776 2.3763008,3.897877 l 16.155017,16.033978 c 0.91725,0.910431 2.410298,0.902654 3.317976,-0.01671 l 5.984073,-6.061266 c 0.908339,-0.919863 2.393464,-2.424342 3.301472,-3.344039 l 5.983909,-6.061102 c 0.908008,-0.920028 0.900252,-2.416895 -0.01666,-3.327326 z M 13.917499,16.115618 c -1.187903,0 -2.150866,-0.965534 -2.150866,-2.156606 0,-1.190908 0.962963,-2.156607 2.150866,-2.156607 1.187738,0 2.150867,0.965534 2.150867,2.156607 -1.65e-4,1.191072 -0.963129,2.156606 -2.150867,2.156606 z"
     id="path29"
     inkscape:connector-curvature="0"
     style="fill:url(#linearGradient4842);stroke-width:0.1652524;fill-opacity:1" /><path
     inkscape:connector-curvature="0"
     style="clip-rule:evenodd;fill:url(#SVGID_9_);fill-rule:evenodd"
     id="path64"
     d="m 119.142,160.18 c 0.84,7.224 1.71,13.293 2.208,19.39 0.512,6.339 3.038,8.335 9.523,6.429 22.587,-6.635 45.307,-12.838 67.97,-19.206 2.67,-0.75 5.341,-1.501 9.025,-2.535 0.833,12.349 1.615,23.891 2.412,35.654 -1.142,0.599 -1.95,1.211 -2.854,1.465 -31.292,8.807 -62.574,17.621 -93.895,26.293 -3.664,1.014 -7.543,1.427 -11.355,1.697 C 90.384,230.227 82.548,225.62 79.808,214.074 76.516,200.198 74.52,185.987 72.551,171.832 69.208,147.797 65.861,123.745 63.399,99.604 61.398,80.011 68.687,68.89 87.52,63.106 c 25.428,-7.81 51.072,-15.024 76.851,-21.607 18.449,-4.705 27.947,1.101 31.71,19.9 3.24,16.215 5.159,32.819 6.165,49.337 1.003,16.504 -5.839,25.949 -21.635,31.218 -17.217,5.745 -34.78,10.464 -52.195,15.617 -2.9,0.856 -5.822,1.64 -9.274,2.609 z m -4.598,-31.437 c 13.178,-3.704 25.534,-6.922 37.661,-10.851 1.854,-0.599 3.891,-4.542 3.736,-6.795 -0.588,-8.65 -2.093,-17.234 -3.128,-25.862 -0.501,-4.16 -2.669,-5.014 -6.397,-3.938 -10.324,2.989 -20.794,5.54 -30.96,8.994 -2.189,0.75 -4.88,4.648 -4.722,6.915 0.702,10.166 2.353,20.269 3.81,31.537 z"
     clip-path="url(#SVGID_6_)"
     transform="matrix(0.16547275,0,0,0.16547275,2.7952378,3.0791783)" /><path
     style="fill:#231f20;stroke-width:0.16547275"
     inkscape:connector-curvature="0"
     id="path72"
     d="m 13.943964,10.92027 c -1.191073,0 -2.156606,0.965534 -2.156606,2.156606 0,0.151242 0.01589,0.298679 0.04551,0.441151 0.203531,-0.979268 1.071271,-1.715456 2.111101,-1.715456 1.039831,0 1.907405,0.736023 2.110936,1.715456 0.02962,-0.142472 0.0455,-0.289909 0.0455,-0.441151 0,-1.191072 -0.965533,-2.156606 -2.156441,-2.156606 z" /><path
     style="opacity:0.1;fill:#231f20;stroke-width:0.16547275"
     inkscape:connector-curvature="0"
     id="path74"
     d="m 13.943964,10.92027 c -1.191073,0 -2.156606,0.965534 -2.156606,2.156606 0,0.151242 0.01589,0.298679 0.04551,0.441151 0.203531,-0.979268 1.071271,-1.715456 2.111101,-1.715456 1.039831,0 1.907405,0.736023 2.110936,1.715456 0.02962,-0.142472 0.0455,-0.289909 0.0455,-0.441151 0,-1.191072 -0.965533,-2.156606 -2.156441,-2.156606 z" /><path
     style="opacity:0.25;vector-effect:none;fill:url(#linearGradient4869);fill-opacity:1;stroke:none;stroke-width:1.93139839;stroke-linecap:round;stroke-linejoin:round;stroke-miterlimit:4;stroke-dasharray:none;stroke-dashoffset:0;stroke-opacity:1"
     d="m 13.999999,10.000001 2.748879,1.116571 21.496139,21.496139 -5.634299,5.634299 -21.688354,-21.688355 2.027866,0.634304 4.269249,-2.313701 z"
     id="rect4849"
     inkscape:connector-curvature="0"
     sodipodi:nodetypes="cccccccc" /><path
     inkscape:connector-curvature="0"
     style="fill:url(#SVGID_10_);stroke-width:0.18249005"
     id="path117"
     d="m 13.999999,11.621608 c 1.313382,0 2.378394,1.064829 2.378394,2.378393 0,1.313563 -1.06483,2.378392 -2.378394,2.378392 -1.313563,0 -2.378392,-1.064829 -2.378392,-2.378392 0,-1.313564 1.064829,-2.378393 2.378392,-2.378393 m 0,-1.621607 c -2.205574,0 -3.999999,1.794424 -3.999999,4 C 10,16.205393 11.794425,18 13.999999,18 16.205575,18 18,16.205393 18,14.000001 c -1.83e-4,-2.205576 -1.794607,-4 -4.000001,-4 z" /><path
     style="fill:url(#SVGID_11_);stroke-width:0.18086453"
     d="M 14 11 C 12.345814 11 11 12.345813 11 14 C 11 15.654006 12.345814 17 14 17 C 15.654188 17 17 15.654006 17 14 C 16.999819 12.345813 15.654007 11 14 11 z M 14 12 C 15.104588 12 16 12.895614 16 14 C 16 15.104385 15.104588 16 14 16 C 12.895412 16 12 15.104385 12 14 C 12 12.895614 12.895211 12 14 12 z "
     id="path138" /><path
     style="fill:none;stroke:#231f20;stroke-width:5.33179998;stroke-linecap:round;stroke-opacity:0.3"
     inkscape:connector-curvature="0"
     id="path144"
     d="M 69.43,72.868 C 19.667,106.414 27.979,211.314 63.079,215.903"
     clip-path="url(#SVGID_6_)"
     transform="matrix(0.16547275,0,0,0.16547275,2.7952378,3.0791783)" /><path
     d="m 13.262217,31.909165 c -0.155214,1.684181 -0.664208,4.377085 -2.30818,5.85244 -0.773419,0.693827 -1.7080095,1.043802 -2.7855681,1.043802 -0.2286833,0 -0.4639856,-0.01589 -0.7054103,-0.04749 C 5.979099,38.564148 4.9601178,37.466401 4.5163199,35.583818 3.1895594,29.958241 7.129631,19.031248 13.449366,14.771152 c 0.202208,-0.136184 0.476231,-0.08257 0.612249,0.119306 0.13635,0.201876 0.0829,0.47623 -0.11914,0.612414 -6.3132818,4.255629 -9.7008399,15.073079 -8.567517,19.878407 0.3574211,1.515731 1.0984081,2.357325 2.2022768,2.501783 1.1262075,0.147105 2.0386243,-0.107061 2.7863952,-0.77706 1.673095,-1.500011 2.004372,-4.656734 2.068079,-6.018741"
     id="path153"
     inkscape:connector-curvature="0"
     style="fill:#231f20;stroke-width:0.16547275" /><path
     style="opacity:0.2;fill:#000000;fill-opacity:1;stroke-width:0.1652524"
     d="m 4.0332031,15.333984 c -0.065272,0.538849 -0.034973,1.076649 0.1113281,1.539063 l 2.0605469,6.517578 c 0.3899714,1.233765 1.4600334,2.988336 2.3769531,3.898437 L 24.736328,43.322266 c 0.91725,0.910431 2.410682,0.901785 3.31836,-0.01758 l 5.984374,-6.060547 c 0.908339,-0.919863 2.392774,-2.424053 3.300782,-3.34375 l 5.984375,-6.060547 c 0.578757,-0.586419 0.780811,-1.406268 0.617187,-2.160156 -0.09056,0.42411 -0.291943,0.830606 -0.617187,1.160156 l -5.984375,6.060547 c -0.908008,0.919697 -2.392443,2.423887 -3.300782,3.34375 l -5.984374,6.060547 c -0.907678,0.919364 -2.40111,0.928009 -3.31836,0.01758 L 8.5820312,26.289062 C 7.6651115,25.378961 6.5950495,23.62439 6.2050781,22.390625 L 4.1445312,15.873047 C 4.0907946,15.703202 4.0569077,15.520313 4.0332031,15.333984 Z"
     id="path4844"
     inkscape:connector-curvature="0"
     sodipodi:nodetypes="ccccccccccccccccccc" /></svg>