<?xml version="1.0" encoding="UTF-8" standalone="no"?>
<svg
   xmlns:dc="http://purl.org/dc/elements/1.1/"
   xmlns:cc="http://creativecommons.org/ns#"
   xmlns:rdf="http://www.w3.org/1999/02/22-rdf-syntax-ns#"
   xmlns:svg="http://www.w3.org/2000/svg"
   xmlns="http://www.w3.org/2000/svg"
   xmlns:xlink="http://www.w3.org/1999/xlink"
   xmlns:sodipodi="http://sodipodi.sourceforge.net/DTD/sodipodi-0.dtd"
   xmlns:inkscape="http://www.inkscape.org/namespaces/inkscape"
   height="48"
   width="48"
   version="1"
   id="svg34"
   sodipodi:docname="gnome-tetravex.svg"
   inkscape:version="0.92.1 r15371">
  <metadata
     id="metadata40">
    <rdf:RDF>
      <cc:Work
         rdf:about="">
        <dc:format>image/svg+xml</dc:format>
        <dc:type
           rdf:resource="http://purl.org/dc/dcmitype/StillImage" />
        <dc:title></dc:title>
      </cc:Work>
    </rdf:RDF>
  </metadata>
  <defs
     id="defs38">
    <linearGradient
       inkscape:collect="always"
       id="linearGradient4601">
      <stop
         style="stop-color:#cd2c1f;stop-opacity:1"
         offset="0"
         id="stop4597" />
      <stop
         style="stop-color:#f1847b;stop-opacity:1"
         offset="1"
         id="stop4599" />
    </linearGradient>
    <linearGradient
       inkscape:collect="always"
       id="linearGradient4593">
      <stop
         style="stop-color:#86e43c;stop-opacity:1"
         offset="0"
         id="stop4589" />
      <stop
         style="stop-color:#58aa18;stop-opacity:1"
         offset="1"
         id="stop4591" />
    </linearGradient>
    <linearGradient
       inkscape:collect="always"
       id="linearGradient4583">
      <stop
         style="stop-color:#a93b8e;stop-opacity:1;"
         offset="0"
         id="stop4579" />
      <stop
         style="stop-color:#c965b1;stop-opacity:1"
         offset="1"
         id="stop4581" />
    </linearGradient>
    <linearGradient
       inkscape:collect="always"
       id="linearGradient4575">
      <stop
         style="stop-color:#4987d7;stop-opacity:1;"
         offset="0"
         id="stop4571" />
      <stop
         style="stop-color:#8bb2e5;stop-opacity:1"
         offset="1"
         id="stop4573" />
    </linearGradient>
    <linearGradient
       inkscape:collect="always"
       xlink:href="#linearGradient4575"
       id="linearGradient4577"
       x1="24.000019"
       y1="24"
       x2="23.940346"
       y2="3.7627964"
       gradientUnits="userSpaceOnUse" />
    <linearGradient
       inkscape:collect="always"
       xlink:href="#linearGradient4583"
       id="linearGradient4585"
       x1="22.186996"
       y1="43.987514"
       x2="23"
       y2="25"
       gradientUnits="userSpaceOnUse" />
    <linearGradient
       inkscape:collect="always"
       xlink:href="#linearGradient4593"
       id="linearGradient4595"
       x1="24.00002"
       y1="24"
       x2="44.00002"
       y2="24"
       gradientUnits="userSpaceOnUse" />
    <linearGradient
       inkscape:collect="always"
       xlink:href="#linearGradient4601"
       id="linearGradient4603"
       x1="3.99998"
       y1="24"
       x2="23.99998"
       y2="24"
       gradientUnits="userSpaceOnUse" />
  </defs>
  <sodipodi:namedview
     pagecolor="#ffffff"
     bordercolor="#666666"
     borderopacity="1"
     objecttolerance="10"
     gridtolerance="10"
     guidetolerance="10"
     inkscape:pageopacity="0"
     inkscape:pageshadow="2"
     inkscape:window-width="1600"
     inkscape:window-height="808"
     id="namedview36"
     showgrid="false"
     inkscape:zoom="1"
     inkscape:cx="9.2787999"
     inkscape:cy="24"
     inkscape:window-x="0"
     inkscape:window-y="0"
     inkscape:window-maximized="1"
     inkscape:current-layer="svg34">
    <inkscape:grid
       type="xygrid"
       id="grid4587" />
  </sodipodi:namedview>
  <path
     fill="#4987d7"
     d="m6 4c-0.554 0-1.0545 0.2225-1.416 0.584l19.416 19.416 19.416-19.416c-0.361-0.3615-0.862-0.584-1.416-0.584h-36z"
     id="path2"
     style="fill-opacity:1;fill:url(#linearGradient4577)" />
  <path
     fill="#a45390"
     d="m6 44c-0.554 0-1.0545-0.222-1.416-0.584l19.416-19.416 19.416 19.416c-0.361 0.362-0.862 0.584-1.416 0.584h-36z"
     id="path4"
     style="fill:url(#linearGradient4585);fill-opacity:1" />
  <path
     fill="#6db832"
     d="m44 6c0-0.554-0.22248-1.0545-0.58398-1.416l-19.416 19.416 19.416 19.416c0.362-0.361 0.584-0.862 0.584-1.416v-36z"
     id="path6"
     style="fill:url(#linearGradient4595);fill-opacity:1" />
  <path
     fill="#c2352a"
     d="m4 6c0-0.554 0.22248-1.0545 0.58398-1.416l19.416 19.416-19.416 19.416c-0.3615-0.361-0.584-0.862-0.584-1.416v-36z"
     id="path8"
     style="fill:url(#linearGradient4603);fill-opacity:1" />
  <path
     style="opacity:1;vector-effect:none;fill:#fbfbfb;fill-opacity:1;stroke:none;stroke-width:2.02259946;stroke-linecap:round;stroke-linejoin:round;stroke-miterlimit:4;stroke-dasharray:none;stroke-dashoffset:0;stroke-opacity:1"
     d="m 8,20 v 1 h 4 v 3 H 8 v 1 3 1 h 5 V 28 H 8.9999997 V 25 H 13 v -1 -4 z"
     id="path4553"
     inkscape:connector-curvature="0" />
  <path
     style="opacity:1;vector-effect:none;fill:#fbfbfb;fill-opacity:1;stroke:none;stroke-width:2.02259946;stroke-linecap:round;stroke-linejoin:round;stroke-miterlimit:4;stroke-dasharray:none;stroke-dashoffset:0;stroke-opacity:1"
     d="m 34,20 v 1 4 h 1 3 v 3 h -4 v 1 h 5 v -1 -3 -1 h -4 v -3 h 4 v -1 h -4 z"
     id="path4547"
     inkscape:connector-curvature="0" />
  <path
     style="opacity:1;vector-effect:none;fill:#fbfbfb;fill-opacity:1;stroke:none;stroke-width:2.02259946;stroke-linecap:round;stroke-linejoin:round;stroke-miterlimit:4;stroke-dasharray:none;stroke-dashoffset:0;stroke-opacity:1"
     d="m 21,8.0000004 v 1 V 13 17 h 1 4 V 16 13 12 H 22 V 9.0000004 h 4 v -1 H 22 Z M 22,13 h 3 v 3 h -3 z"
     id="path4545"
     inkscape:connector-curvature="0" />
  <path
     style="opacity:1;vector-effect:none;fill:#fbfbfb;fill-opacity:1;stroke:none;stroke-width:2.02259946;stroke-linecap:round;stroke-linejoin:round;stroke-miterlimit:4;stroke-dasharray:none;stroke-dashoffset:0;stroke-opacity:1"
     d="m 21,32 v 1 h 4 v 3 h -2 v 1 4 h 1 v -4 h 2 v -1 -4 z"
     id="path4543"
     inkscape:connector-curvature="0" />
  <path
     d="M 6,44 C 4.892,44 4,43.108 4,42 v -1 c 0,1.108 0.892,2 2,2 h 36 c 1.108,0 2,-0.892 2,-2 v 1 c 0,1.108 -0.892,2 -2,2 z"
     id="path12"
     inkscape:connector-curvature="0"
     style="opacity:0.2" />
</svg>
