<?xml version="1.0" encoding="UTF-8" standalone="no"?>
<svg
   xmlns:dc="http://purl.org/dc/elements/1.1/"
   xmlns:cc="http://creativecommons.org/ns#"
   xmlns:rdf="http://www.w3.org/1999/02/22-rdf-syntax-ns#"
   xmlns:svg="http://www.w3.org/2000/svg"
   xmlns="http://www.w3.org/2000/svg"
   xmlns:xlink="http://www.w3.org/1999/xlink"
   xmlns:sodipodi="http://sodipodi.sourceforge.net/DTD/sodipodi-0.dtd"
   xmlns:inkscape="http://www.inkscape.org/namespaces/inkscape"
   width="48"
   height="48"
   version="1"
   id="svg32"
   sodipodi:docname="gnome-mastermind.svg"
   inkscape:version="0.92.3 (2405546, 2018-03-11)">
  <metadata
     id="metadata38">
    <rdf:RDF>
      <cc:Work
         rdf:about="">
        <dc:format>image/svg+xml</dc:format>
        <dc:type
           rdf:resource="http://purl.org/dc/dcmitype/StillImage" />
      </cc:Work>
    </rdf:RDF>
  </metadata>
  <defs
     id="defs36">
    <linearGradient
       inkscape:collect="always"
       id="linearGradient905">
      <stop
         style="stop-color:#6f4e42;stop-opacity:1"
         offset="0"
         id="stop901" />
      <stop
         style="stop-color:#bc9b8e;stop-opacity:1"
         offset="1"
         id="stop903" />
    </linearGradient>
    <linearGradient
       inkscape:collect="always"
       id="linearGradient897">
      <stop
         style="stop-color:#ffc107;stop-opacity:1;"
         offset="0"
         id="stop893" />
      <stop
         style="stop-color:#ffe18b;stop-opacity:1"
         offset="1"
         id="stop895" />
    </linearGradient>
    <linearGradient
       inkscape:collect="always"
       id="linearGradient889">
      <stop
         style="stop-color:#cf190b;stop-opacity:1;"
         offset="0"
         id="stop885" />
      <stop
         style="stop-color:#f8896e;stop-opacity:1"
         offset="1"
         id="stop887" />
    </linearGradient>
    <linearGradient
       inkscape:collect="always"
       id="linearGradient881">
      <stop
         style="stop-color:#853693;stop-opacity:1;"
         offset="0"
         id="stop877" />
      <stop
         style="stop-color:#cd78ad;stop-opacity:1"
         offset="1"
         id="stop879" />
    </linearGradient>
    <linearGradient
       inkscape:collect="always"
       id="linearGradient873">
      <stop
         style="stop-color:#3f51b5;stop-opacity:1;"
         offset="0"
         id="stop869" />
      <stop
         style="stop-color:#5a9bc6;stop-opacity:1"
         offset="1"
         id="stop871" />
    </linearGradient>
    <linearGradient
       id="linearGradient867"
       inkscape:collect="always">
      <stop
         id="stop863"
         offset="0"
         style="stop-color:#32715d;stop-opacity:1;" />
      <stop
         id="stop865"
         offset="1"
         style="stop-color:#58ac4c;stop-opacity:1" />
    </linearGradient>
    <linearGradient
       inkscape:collect="always"
       xlink:href="#linearGradient867"
       id="linearGradient861"
       gradientUnits="userSpaceOnUse"
       x1="9.6103001"
       y1="16.919292"
       x2="8"
       y2="7" />
    <linearGradient
       inkscape:collect="always"
       xlink:href="#linearGradient873"
       id="linearGradient875"
       x1="10.071484"
       y1="28.919291"
       x2="8"
       y2="18.999998"
       gradientUnits="userSpaceOnUse" />
    <linearGradient
       inkscape:collect="always"
       xlink:href="#linearGradient881"
       id="linearGradient883"
       x1="20.302074"
       y1="28.842426"
       x2="18.388163"
       y2="19.77248"
       gradientUnits="userSpaceOnUse" />
    <linearGradient
       inkscape:collect="always"
       xlink:href="#linearGradient889"
       id="linearGradient891"
       x1="30.148348"
       y1="28.611835"
       x2="28"
       y2="18.999998"
       gradientUnits="userSpaceOnUse" />
    <linearGradient
       inkscape:collect="always"
       xlink:href="#linearGradient897"
       id="linearGradient899"
       x1="40.225212"
       y1="30.302843"
       x2="38.772484"
       y2="19.849346"
       gradientUnits="userSpaceOnUse" />
    <linearGradient
       inkscape:collect="always"
       xlink:href="#linearGradient905"
       id="linearGradient907"
       x1="8.4573402"
       y1="40.073792"
       x2="7.5426593"
       y2="31.772482"
       gradientUnits="userSpaceOnUse" />
    <linearGradient
       inkscape:collect="always"
       xlink:href="#linearGradient905"
       id="linearGradient911"
       gradientUnits="userSpaceOnUse"
       x1="8.4573402"
       y1="40.073792"
       x2="7.5426593"
       y2="31.772482"
       gradientTransform="translate(20)" />
    <linearGradient
       inkscape:collect="always"
       xlink:href="#linearGradient873"
       id="linearGradient915"
       gradientUnits="userSpaceOnUse"
       x1="10.071484"
       y1="28.919291"
       x2="8"
       y2="18.999998"
       gradientTransform="translate(10,12.000001)" />
    <linearGradient
       inkscape:collect="always"
       xlink:href="#linearGradient867"
       id="linearGradient919"
       gradientUnits="userSpaceOnUse"
       x1="9.6103001"
       y1="16.919292"
       x2="8"
       y2="7"
       gradientTransform="translate(30,24.000001)" />
    <linearGradient
       inkscape:collect="always"
       xlink:href="#linearGradient881"
       id="linearGradient928"
       x1="43.120678"
       y1="15.486549"
       x2="37.663338"
       y2="6.9546499"
       gradientUnits="userSpaceOnUse" />
  </defs>
  <sodipodi:namedview
     pagecolor="#ffffff"
     bordercolor="#666666"
     borderopacity="1"
     objecttolerance="10"
     gridtolerance="10"
     guidetolerance="10"
     inkscape:pageopacity="0"
     inkscape:pageshadow="2"
     inkscape:window-width="1920"
     inkscape:window-height="1020"
     id="namedview34"
     showgrid="false"
     inkscape:zoom="13.01"
     inkscape:cx="24"
     inkscape:cy="24"
     inkscape:window-x="0"
     inkscape:window-y="30"
     inkscape:window-maximized="1"
     inkscape:current-layer="svg32" />
  <path
     id="path917"
     d="m 38,31.000001 c -2.75604,0 -5,2.24396 -5,5 0,2.75604 2.24396,5 5,5 2.75604,0 5,-2.24396 5,-5 0,-2.75604 -2.24396,-5 -5,-5 z"
     style="fill:url(#linearGradient919);fill-opacity:1"
     inkscape:connector-curvature="0" />
  <path
     id="path913"
     d="m 18,31 c -2.75604,0 -5,2.24396 -5,5 0,2.75604 2.24396,5 5,5 2.75604,0 5,-2.24396 5,-5 0,-2.75604 -2.24396,-5 -5,-5 z"
     style="fill:url(#linearGradient915);fill-opacity:1"
     inkscape:connector-curvature="0" />
  <path
     id="path909"
     d="m 28,31 c -2.75604,0 -5,2.243959 -5,5 0,2.75604 2.24396,5 5,5 2.75604,0 5,-2.24396 5,-5 0,-2.756041 -2.24396,-5 -5,-5 z"
     style="fill:url(#linearGradient911);fill-opacity:1"
     inkscape:connector-curvature="0" />
  <path
     style="fill:url(#linearGradient928);fill-opacity:1"
     d="M 40.888672 6.0039062 C 39.907667 6.042671 38.915183 6.3943956 37.96875 6.9511719 A 0.45562369 0.45562369 0 0 0 37.800781 7.5644531 L 39.316406 10.291016 L 32.380859 14.496094 C 32.024487 14.712122 31.89295 15.199283 32.09375 15.564453 L 32.673828 16.619141 C 32.874629 16.98431 33.342848 17.110557 33.699219 16.894531 L 40.646484 12.683594 L 42.357422 15.763672 A 0.45562369 0.45562369 0 0 0 42.933594 15.964844 C 44.397284 15.345246 45.392825 14.255578 45.794922 12.957031 C 46.197018 11.658483 46.006836 10.170515 45.214844 8.7617188 C 44.331434 7.1903049 43.151404 6.3140118 41.863281 6.0722656 C 41.541251 6.011829 41.215674 5.9909847 40.888672 6.0039062 z "
     id="path4" />
  <path
     style="fill:#6d6f69"
     d="m 18,9.979114 c -1.091233,0 -2,0.902407 -2,2.010443 C 16,13.097593 16.908767,14 18,14 c 1.091233,0 2,-0.902407 2,-2.010443 0,-1.108036 -0.908767,-2.010443 -2,-2.010443 z"
     id="path8" />
  <path
     style="fill:url(#linearGradient875);fill-opacity:1"
     d="m 8,18.999999 c -2.7560398,0 -5,2.24396 -5,5 0,2.75604 2.2439602,5 5,5 2.75604,0 5,-2.24396 5,-5 0,-2.75604 -2.24396,-5 -5,-5 z"
     id="path10" />
  <path
     style="fill:url(#linearGradient883);fill-opacity:1"
     d="m 18,18.999999 c -2.75604,0 -5,2.24396 -5,5 0,2.75604 2.24396,5 5,5 2.756041,0 5,-2.24396 5,-5 0,-2.75604 -2.243959,-5 -5,-5 z"
     id="path12" />
  <path
     style="fill:url(#linearGradient899);fill-opacity:1"
     d="m 38,19.000001 c -2.75604,0 -5,2.24396 -5,4.999999 0,2.75604 2.24396,5 5,5 2.75604,0 5,-2.24396 5,-5 0,-2.756039 -2.24396,-4.999999 -5,-4.999999 z"
     id="path16" />
  <path
     style="fill:url(#linearGradient907);fill-opacity:1"
     d="m 8,31 c -2.7560398,0 -5,2.243959 -5,5 0,2.75604 2.2439602,5 5,5 2.75604,0 5,-2.24396 5,-5 0,-2.756041 -2.24396,-5 -5,-5 z"
     id="path18" />
  <path
     style="fill:url(#linearGradient891);fill-opacity:1"
     d="m 28,18.999999 c -2.75604,0 -5,2.24396 -5,5 0,2.75604 2.24396,5 5,5 2.756041,0 5,-2.24396 5,-5 0,-2.75604 -2.243959,-5 -5,-5 z"
     id="path20" />
  <path
     style="fill:url(#linearGradient861);fill-opacity:1"
     d="M 8,6.9999999 C 5.2439602,6.9999999 3,9.24396 3,12 c 0,2.75604 2.2439602,5 5,5 2.75604,0 5,-2.24396 5,-5 C 13,9.24396 10.75604,6.9999999 8,6.9999999 Z"
     id="path26" />
  <path
     style="fill:#6d6f69"
     d="m 28,9.979113 c -1.091231,0 -1.999999,0.902407 -1.999999,2.010443 C 26.000001,13.097593 26.908769,14 28,14 c 1.091232,0 2.000001,-0.902407 2.000001,-2.010444 0,-1.108036 -0.908769,-2.010443 -2.000001,-2.010443 z"
     id="path28" />
  <path
     style="fill:#000000;fill-opacity:1;opacity:0.2"
     d="M 38.005859 6.9316406 C 37.993592 6.9387792 37.981002 6.9439644 37.96875 6.9511719 A 0.45562369 0.45562369 0 0 0 37.800781 7.5644531 L 38.900391 9.5429688 L 39.316406 9.2910156 L 38.005859 6.9316406 z M 45.966797 11.080078 C 45.935576 11.378905 45.882726 11.673472 45.794922 11.957031 C 45.392825 13.255578 44.397284 14.345246 42.933594 14.964844 A 0.45562369 0.45562369 0 0 1 42.357422 14.763672 L 40.646484 11.683594 L 33.699219 15.894531 C 33.342848 16.110557 32.874629 15.98431 32.673828 15.619141 L 32.166016 14.695312 C 31.982472 14.941143 31.941327 15.28726 32.09375 15.564453 L 32.673828 16.619141 C 32.874629 16.98431 33.342848 17.110557 33.699219 16.894531 L 40.646484 12.683594 L 42.357422 15.763672 A 0.45562369 0.45562369 0 0 0 42.933594 15.964844 C 44.397284 15.345246 45.392825 14.255578 45.794922 12.957031 C 45.978914 12.362839 46.031742 11.727859 45.966797 11.080078 z M 3.0253906 11.509766 C 3.0095503 11.671358 3 11.834331 3 12 C 3 14.75604 5.2439602 17 8 17 C 10.75604 17 13 14.75604 13 12 C 13 11.834331 12.99045 11.671358 12.974609 11.509766 C 12.717988 14.027201 10.583787 16 8 16 C 5.4162127 16 3.2820124 14.027201 3.0253906 11.509766 z M 3.0253906 23.509766 C 3.0095503 23.671358 3 23.834331 3 24 C 3 26.75604 5.2439602 29 8 29 C 10.75604 29 13 26.75604 13 24 C 13 23.834331 12.99045 23.671358 12.974609 23.509766 C 12.717988 26.027201 10.583787 28 8 28 C 5.4162127 28 3.2820124 26.027201 3.0253906 23.509766 z M 13 24 C 13 26.75604 15.24396 29 18 29 C 20.756041 29 23 26.75604 23 24 C 23 23.834331 22.99045 23.671358 22.974609 23.509766 C 22.717988 26.027201 20.583788 28 18 28 C 15.416212 28 13.282012 26.027201 13.025391 23.509766 C 13.00955 23.671358 13 23.834331 13 24 z M 23 24 C 23 26.75604 25.24396 29 28 29 C 30.756041 29 33 26.75604 33 24 C 33 23.834331 32.99045 23.671358 32.974609 23.509766 C 32.717988 26.027201 30.583788 28 28 28 C 25.416213 28 23.282012 26.027201 23.025391 23.509766 C 23.00955 23.671358 23 23.834331 23 24 z M 33 24 C 33 26.75604 35.24396 29 38 29 C 40.75604 29 43 26.75604 43 24 C 43 23.834331 42.99045 23.671358 42.974609 23.509766 C 42.717988 26.027201 40.583787 28 38 28 C 35.416213 28 33.282012 26.027201 33.025391 23.509766 C 33.00955 23.671358 33 23.834331 33 24 z M 3.0253906 35.509766 C 3.0095503 35.671358 3 35.834331 3 36 C 3 38.75604 5.2439602 41 8 41 C 10.75604 41 13 38.75604 13 36 C 13 35.834331 12.99045 35.671358 12.974609 35.509766 C 12.717988 38.027201 10.583787 40 8 40 C 5.4162127 40 3.2820124 38.027201 3.0253906 35.509766 z M 13 36 C 13 38.75604 15.24396 41 18 41 C 20.75604 41 23 38.75604 23 36 C 23 35.834331 22.99045 35.671358 22.974609 35.509766 C 22.717988 38.027201 20.583787 40 18 40 C 15.416212 40 13.282012 38.027201 13.025391 35.509766 C 13.00955 35.671358 13 35.834331 13 36 z M 23 36 C 23 38.75604 25.24396 41 28 41 C 30.75604 41 33 38.75604 33 36 C 33 35.834331 32.99045 35.671358 32.974609 35.509766 C 32.717988 38.027201 30.583787 40 28 40 C 25.416213 40 23.282012 38.027201 23.025391 35.509766 C 23.00955 35.671358 23 35.834331 23 36 z M 33 36 C 33 38.75604 35.24396 41 38 41 C 40.75604 41 43 38.75604 43 36 C 43 35.834331 42.99045 35.671358 42.974609 35.509766 C 42.717988 38.027201 40.583787 40 38 40 C 35.416213 40 33.282012 38.027201 33.025391 35.509766 C 33.00955 35.671358 33 35.834331 33 36 z "
     id="path930" />
</svg>
