<?xml version="1.0" encoding="UTF-8" standalone="no"?>
<!-- Created with Inkscape (http://www.inkscape.org/) -->

<svg
   xmlns:dc="http://purl.org/dc/elements/1.1/"
   xmlns:cc="http://creativecommons.org/ns#"
   xmlns:rdf="http://www.w3.org/1999/02/22-rdf-syntax-ns#"
   xmlns:svg="http://www.w3.org/2000/svg"
   xmlns="http://www.w3.org/2000/svg"
   xmlns:xlink="http://www.w3.org/1999/xlink"
   xmlns:sodipodi="http://sodipodi.sourceforge.net/DTD/sodipodi-0.dtd"
   xmlns:inkscape="http://www.inkscape.org/namespaces/inkscape"
   sodipodi:docname="kajongg.svg"
   version="1.0"
   inkscape:version="0.92.3 (2405546, 2018-03-11)"
   sodipodi:version="0.32"
   id="svg2020"
   height="48"
   width="48">
  <sodipodi:namedview
     id="base"
     pagecolor="#ffffff"
     bordercolor="#666666"
     borderopacity="1.0"
     inkscape:pageopacity="0.0"
     inkscape:pageshadow="2"
     inkscape:zoom="9.28"
     inkscape:cx="-7.1056031"
     inkscape:cy="29.161843"
     inkscape:document-units="px"
     inkscape:current-layer="layer1"
     inkscape:window-width="1920"
     inkscape:window-height="1020"
     inkscape:window-x="0"
     inkscape:window-y="30"
     showguides="false"
     inkscape:guide-bbox="true"
     width="768px"
     height="561px"
     showgrid="true"
     inkscape:window-maximized="1">
    <sodipodi:guide
       position="0,0"
       orientation="0,768"
       id="guide3879"
       inkscape:locked="false" />
    <sodipodi:guide
       position="768,0"
       orientation="-561,0"
       id="guide3881"
       inkscape:locked="false" />
    <sodipodi:guide
       position="768,561"
       orientation="0,-768"
       id="guide3883"
       inkscape:locked="false" />
    <sodipodi:guide
       position="0,561"
       orientation="561,0"
       id="guide3885"
       inkscape:locked="false" />
    <sodipodi:guide
       position="0,0"
       orientation="0,768"
       id="guide3887"
       inkscape:locked="false" />
    <sodipodi:guide
       position="768,0"
       orientation="-561,0"
       id="guide3889"
       inkscape:locked="false" />
    <sodipodi:guide
       position="768,561"
       orientation="0,-768"
       id="guide3891"
       inkscape:locked="false" />
    <sodipodi:guide
       position="0,561"
       orientation="561,0"
       id="guide3893"
       inkscape:locked="false" />
    <sodipodi:guide
       position="0,0"
       orientation="0,256"
       id="guide3895"
       inkscape:locked="false" />
    <sodipodi:guide
       position="256,0"
       orientation="-256,0"
       id="guide3897"
       inkscape:locked="false" />
    <sodipodi:guide
       position="256,256"
       orientation="0,-256"
       id="guide3899"
       inkscape:locked="false" />
    <sodipodi:guide
       position="0,256"
       orientation="256,0"
       id="guide3901"
       inkscape:locked="false" />
    <sodipodi:guide
       position="0,0"
       orientation="0,256"
       id="guide3098"
       inkscape:locked="false" />
    <sodipodi:guide
       position="256,0"
       orientation="-256,0"
       id="guide3100"
       inkscape:locked="false" />
    <sodipodi:guide
       position="256,256"
       orientation="0,-256"
       id="guide3102"
       inkscape:locked="false" />
    <sodipodi:guide
       position="0,256"
       orientation="256,0"
       id="guide3104"
       inkscape:locked="false" />
    <inkscape:grid
       type="xygrid"
       id="grid879" />
  </sodipodi:namedview>
  <defs
     id="defs2022">
    <linearGradient
       inkscape:collect="always"
       id="linearGradient859">
      <stop
         id="stop857"
         offset="0"
         style="stop-color:#63d490;stop-opacity:1" />
      <stop
         id="stop855"
         offset="1"
         style="stop-color:#134446;stop-opacity:1" />
    </linearGradient>
    <linearGradient
       inkscape:collect="always"
       id="linearGradient875">
      <stop
         id="stop873"
         offset="0"
         style="stop-color:#85db7a;stop-opacity:1" />
      <stop
         id="stop871"
         offset="1"
         style="stop-color:#258b4c;stop-opacity:1" />
    </linearGradient>
    <linearGradient
       id="a"
       y1="543.79999"
       y2="503.79999"
       gradientUnits="userSpaceOnUse"
       x2="0"
       gradientTransform="matrix(0.0892539,0,0,0.09998429,301.05168,181.24793)">
      <stop
         stop-color="#e3dfd6"
         id="stop2" />
      <stop
         offset="1"
         stop-color="#f4f1e8"
         id="stop4" />
    </linearGradient>
    <linearGradient
       inkscape:collect="always"
       xlink:href="#linearGradient875"
       id="linearGradient852"
       gradientUnits="userSpaceOnUse"
       x1="25.421875"
       y1="41.820312"
       x2="23.896938"
       y2="6.3277822"
       gradientTransform="translate(4.005986e-5,4.674568e-5)" />
    <linearGradient
       inkscape:collect="always"
       xlink:href="#linearGradient859"
       id="linearGradient861"
       x1="22.999958"
       y1="41.999954"
       x2="22.999958"
       y2="7.9999533"
       gradientUnits="userSpaceOnUse" />
  </defs>
  <metadata
     id="metadata2025">
    <rdf:RDF>
      <cc:Work
         rdf:about="">
        <dc:format>image/svg+xml</dc:format>
        <dc:type
           rdf:resource="http://purl.org/dc/dcmitype/StillImage" />
        <dc:title />
      </cc:Work>
    </rdf:RDF>
  </metadata>
  <g
     inkscape:groupmode="layer"
     id="layer1"
     inkscape:label="front"
     style="display:inline"
     transform="matrix(14.004991,0,0,10.001571,-4702.9384,-2312.564)">
    <rect
       style="fill:url(#a);stroke-width:0.09957681"
       id="rect33"
       height="3.9993718"
       rx="0"
       y="231.62001"
       x="336.09006"
       width="2.8561246" />
    <path
       style="fill:url(#linearGradient852);stroke-width:0.67856109;fill-opacity:1"
       d="M 19.736328 6.0039062 C 19.601897 5.9970363 19.464619 5.999876 19.324219 6.015625 C 18.533217 6.1757502 17.46436 6.3889407 17.15625 7.1640625 C 17.614213 7.3420905 18.069381 7.5182847 18.527344 7.6953125 C 18.978304 7.9063456 19.307889 8.2950334 19.707031 8.5800781 C 20.118778 9.3076924 19.575779 10.125798 19.099609 10.712891 C 18.327514 11.47511 17.475209 12.168228 16.669922 12.902344 C 15.651339 12.199633 14.587998 11.55506 13.548828 10.876953 C 12.951375 10.558903 12.363093 9.9718829 11.689453 9.921875 C 11.248296 10.626986 11.458264 11.488797 12.005859 12.087891 C 12.900778 12.885716 13.793429 13.699733 14.685547 14.505859 C 13.649738 15.246876 12.510373 15.880951 11.269531 16.291016 C 9.9202906 16.694079 8.5128568 16.901936 7.1347656 17.208984 C 6.490536 17.142874 5.4395044 18.033843 6.3652344 18.337891 C 7.6238629 18.560926 8.94581 18.497841 10.189453 18.216797 C 13.104032 17.492283 15.73582 16.069738 18.287109 14.632812 C 20.254531 13.510537 22.072384 12.130145 23.414062 10.388672 C 23.961659 9.7957784 24.164048 8.8754285 23.589844 8.2363281 C 23.191122 7.8107613 22.643805 7.5233077 22.181641 7.15625 C 21.476402 6.6157651 20.677343 6.0519786 19.736328 6.0039062 z M 26.464844 17.958984 C 26.095679 17.963784 25.725998 17.990469 25.357422 18.042969 C 24.666696 18.156987 23.935169 18.232203 23.310547 18.53125 L 23.314453 18.533203 C 22.926515 18.771241 22.47006 18.95984 22.275391 19.378906 C 21.753004 20.425571 22.132525 21.596846 22.0625 22.699219 C 22.00788 23.912609 22.058 25.208221 21.408203 26.308594 C 21.095892 26.880284 20.406425 27.198828 20.144531 27.794922 C 19.715979 28.345008 20.756744 28.279986 21.105469 28.167969 C 22.116489 28.075359 22.911049 27.330933 23.185547 26.466797 C 23.437637 25.666971 23.507721 24.8308 23.675781 24.013672 C 23.864849 23.244851 23.786836 22.391903 24.291016 21.716797 C 24.774188 21.304732 25.465479 21.119151 26.095703 20.953125 C 27.064849 20.708087 28.004472 21.112036 28.941406 21.289062 C 29.109466 21.800443 28.941448 22.342388 28.857422 22.855469 C 28.753785 23.479667 28.571599 24.106182 28.599609 24.738281 C 28.848898 25.579413 29.116619 26.444336 29.625 27.189453 C 30.558013 28.418646 32.240247 29.003736 33.826172 29.09375 C 34.983964 29.15436 36.254534 28.597959 36.597656 27.525391 C 36.80493 26.889691 37.029405 25.999182 36.351562 25.537109 L 35.384766 25.478516 C 35.094862 25.393506 34.882873 25.589824 34.650391 25.714844 C 34.028709 26.018892 33.47502 26.561727 32.71875 26.511719 C 31.585746 26.346293 30.504951 25.500797 30.378906 24.423828 C 30.285076 23.231641 30.821379 22.095238 31.195312 20.976562 C 31.346567 20.44588 31.733467 19.932229 31.607422 19.369141 C 31.313459 18.69499 30.453051 18.514022 29.75 18.375 C 28.677148 18.124986 27.572339 17.944709 26.464844 17.958984 z M 26.804688 29.712891 C 25.598577 29.797901 24.384927 29.863365 23.1875 30.025391 C 22.525064 29.981081 21.579607 30.604079 22.568359 30.994141 C 23.424064 31.337195 24.384597 31.2697 25.294922 31.386719 L 25.300781 31.382812 C 26.101307 31.464822 26.900086 31.548894 27.701172 31.628906 C 28.692165 31.694916 29.663667 31.882236 30.632812 32.072266 C 31.097779 32.088266 31.580124 32.336859 31.496094 32.835938 C 31.280417 33.646264 30.704352 34.329045 30.242188 35.035156 C 27.752239 34.108211 25.268007 33.152178 22.701172 32.414062 C 22.364072 32.374053 21.04449 31.842032 21.300781 32.453125 C 22.239396 33.281655 23.358419 33.921606 24.400391 34.636719 C 25.542077 35.402539 26.761148 36.063119 27.992188 36.699219 C 28.556589 36.914153 28.760266 37.551516 28.197266 37.851562 C 27.385536 38.681993 26.36535 39.319461 25.251953 39.769531 C 23.730451 40.312817 22.119927 40.620062 20.580078 41.119141 C 20.283172 41.208151 19.901549 41.278257 19.746094 41.529297 C 20.357832 41.820343 21.068585 41.849976 21.732422 42 C 22.96066 41.96199 24.192237 41.880322 25.421875 41.820312 C 26.780779 41.324336 28.21248 40.850076 29.330078 39.960938 C 29.898261 39.446357 30.576012 39.02278 31.050781 38.429688 C 32.469487 39.249315 33.889888 40.068543 35.308594 40.888672 C 35.850027 41.164715 36.330569 41.567349 36.925781 41.734375 C 37.760479 41.715875 38.034467 40.814749 38.285156 40.222656 C 38.49103 39.54675 38.875259 38.586677 38.158203 38.058594 C 36.630259 37.133949 34.85423 36.635015 33.152344 36.044922 C 33.36522 35.657961 33.576187 35.271826 33.789062 34.884766 C 34.357386 33.782593 35.065034 32.733854 35.492188 31.576172 C 35.824106 30.877962 35.385191 29.976521 34.480469 29.982422 C 31.923437 29.878406 29.362699 29.802905 26.804688 29.712891 z "
       transform="matrix(0.07140312,0,0,0.09998429,335.80446,231.22008)"
       id="path847" />
    <path
       style="fill:url(#linearGradient861);stroke-width:0.67856109;fill-opacity:1"
       d="M 29.146484 7.328125 C 28.838633 7.352152 28.54478 7.4672767 28.310547 7.6953125 C 27.895999 7.8593383 28.313047 8.1042786 28.453125 8.3203125 C 28.647794 8.5313456 29.078625 8.8755926 28.876953 9.1816406 C 28.720097 9.5876044 28.400535 9.8913594 28.074219 10.191406 C 27.509397 10.617773 26.94087 11.043315 26.429688 11.525391 C 26.128579 11.304356 25.825945 11.084316 25.523438 10.863281 C 25.275548 10.567235 24.858785 10.686491 24.505859 10.646484 C 23.812612 10.42865 23.494632 11.136744 23.728516 11.673828 C 24.005814 12.136401 24.471846 12.49109 24.826172 12.910156 C 24.607974 13.412635 23.780555 13.901699 23.382812 14.425781 C 23.168536 14.752032 22.022997 15.601703 22.714844 15.802734 C 23.959047 15.488185 25.035889 14.788123 26.146484 14.207031 C 26.661728 14.657502 27.176023 15.108523 27.691406 15.558594 C 29.480544 17.25586 31.768763 18.387645 33.917969 19.652344 C 34.728578 20.002399 35.593885 20.252404 36.425781 20.564453 C 37.858632 20.654463 39.305968 20.684131 40.744141 20.744141 C 41.234315 20.813151 41.898059 20.737541 41.996094 20.189453 C 42.054914 19.66257 41.496132 19.45373 41.125 19.179688 C 40.388057 18.842635 39.598619 18.590299 38.84375 18.28125 C 37.427705 17.760968 36.05494 17.153348 34.689453 16.53125 C 34.543801 16.411231 33.893766 16.305415 34.164062 16.150391 C 34.970751 15.528893 35.862099 14.989842 36.601562 14.302734 C 37.272403 13.633929 37.067308 12.63142 36.544922 11.945312 C 36.055027 11.219199 35.070488 10.406068 34.085938 10.869141 C 32.850136 11.238799 34.474072 11.790974 34.324219 12.455078 C 33.424398 13.317814 32.463581 14.122891 31.490234 14.916016 C 30.5512 14.287517 29.600186 13.674832 28.65625 13.052734 C 28.976964 12.837701 29.265889 12.589741 29.558594 12.345703 C 30.211927 11.75091 31.02243 11.279037 31.5 10.544922 C 32.080787 9.5858711 31.361042 8.4947107 30.568359 7.8496094 C 30.208781 7.4995544 29.65957 7.2880796 29.146484 7.328125 z M 17.802734 17.865234 C 16.081381 18.033261 14.335604 18.099079 12.652344 18.494141 C 11.71541 18.469541 10.466885 20.217079 11.744141 20.412109 C 12.783731 20.219079 13.854733 20.230403 14.912109 20.150391 C 15.713335 20.182301 16.901549 20.40313 16.746094 21.363281 C 16.732084 22.510261 16.496685 23.640203 16.126953 24.734375 C 16.055523 25.343771 15.61413 25.849137 14.888672 25.869141 C 13.145751 26.109178 11.381771 25.898672 9.6289062 25.888672 C 8.9859371 25.825662 8.1454402 25.826562 7.9101562 26.513672 C 7.3209663 28.948354 6.8793992 31.419314 6.390625 33.875 C 6.364015 34.340573 5.8818644 36.037442 6.8496094 35.609375 C 7.493839 34.961073 8.0420214 34.233793 8.6484375 33.554688 L 15.298828 33.554688 C 15.608338 33.604697 16.139133 33.445734 16.308594 33.634766 C 16.392624 34.317873 16.391675 34.999628 16.265625 35.677734 C 16.08216 36.663489 15.904896 37.670699 15.460938 38.589844 C 15.188679 39.254048 14.438637 39.434734 13.783203 39.634766 C 12.974835 39.98182 12.063766 39.909867 11.230469 39.673828 C 10.192279 39.361379 9.2209547 38.872625 8.2167969 38.476562 C 7.975911 38.362546 7.3384657 38.083805 7.4785156 38.546875 C 7.6488163 39.383206 8.1980287 40.181025 9.0117188 40.621094 C 9.8244284 41.245892 10.821272 41.625122 11.873047 41.744141 C 12.632257 41.949173 13.415235 41.889144 14.195312 41.869141 C 15.704491 41.945751 17.29003 41.22539 17.90625 39.929688 C 18.958025 38.28993 18.998205 36.363338 19.246094 34.53125 C 19.335724 33.303857 19.81696 31.968404 19.095703 30.828125 C 18.595865 30.216029 17.770668 30.646786 17.115234 30.716797 C 16.593689 31.097857 16.018896 31.387812 15.388672 31.589844 C 13.429794 31.768872 11.454949 31.527634 9.5019531 31.349609 C 9.7638465 30.46217 9.9100954 29.553297 10.142578 28.660156 C 10.240608 28.345107 10.220798 27.848815 10.701172 28.130859 C 12.617615 28.235976 14.565192 28.503006 16.46875 28.126953 C 17.604135 28.008334 18.547442 27.22648 18.761719 26.199219 C 19.023612 25.087544 19.027071 23.938824 19.169922 22.810547 C 19.155912 21.359119 19.30303 19.881102 18.9375 18.455078 L 18.935547 18.462891 C 18.791295 18.024822 18.262098 17.855233 17.802734 17.865234 z "
       transform="matrix(0.07140312,0,0,0.09998429,335.80446,231.22008)"
       id="path845" />
    <rect
       style="opacity:0.2;fill:#000000;fill-opacity:1;stroke:none;stroke-width:0.08449373;stroke-linecap:round;stroke-linejoin:round;stroke-miterlimit:4;stroke-dasharray:none;stroke-dashoffset:0;stroke-opacity:1;paint-order:normal"
       id="rect881"
       width="2.8561249"
       height="0.099984288"
       x="336.09006"
       y="235.51941" />
  </g>
</svg>
