<?xml version="1.0" encoding="UTF-8" standalone="no"?>
<svg
   xmlns:dc="http://purl.org/dc/elements/1.1/"
   xmlns:cc="http://creativecommons.org/ns#"
   xmlns:rdf="http://www.w3.org/1999/02/22-rdf-syntax-ns#"
   xmlns:svg="http://www.w3.org/2000/svg"
   xmlns="http://www.w3.org/2000/svg"
   xmlns:xlink="http://www.w3.org/1999/xlink"
   xmlns:sodipodi="http://sodipodi.sourceforge.net/DTD/sodipodi-0.dtd"
   xmlns:inkscape="http://www.inkscape.org/namespaces/inkscape"
   width="48"
   height="48"
   version="1.1"
   id="svg123"
   sodipodi:docname="livewallpaper.svg"
   inkscape:version="0.92.3 (2405546, 2018-03-11)">
  <metadata
     id="metadata127">
    <rdf:RDF>
      <cc:Work
         rdf:about="">
        <dc:format>image/svg+xml</dc:format>
        <dc:type
           rdf:resource="http://purl.org/dc/dcmitype/StillImage" />
        <dc:title />
      </cc:Work>
    </rdf:RDF>
  </metadata>
  <sodipodi:namedview
     pagecolor="#ffffff"
     bordercolor="#666666"
     borderopacity="1"
     objecttolerance="10"
     gridtolerance="10"
     guidetolerance="10"
     inkscape:pageopacity="0"
     inkscape:pageshadow="2"
     inkscape:window-width="1920"
     inkscape:window-height="1020"
     id="namedview125"
     showgrid="false"
     inkscape:zoom="11.31"
     inkscape:cx="-5.0160577"
     inkscape:cy="15.739264"
     inkscape:window-x="0"
     inkscape:window-y="30"
     inkscape:window-maximized="1"
     inkscape:current-layer="svg123" />
  <defs
     id="defs53">
    <linearGradient
       inkscape:collect="always"
       id="linearGradient891">
      <stop
         style="stop-color:#ffffff;stop-opacity:1;"
         offset="0"
         id="stop887" />
      <stop
         style="stop-color:#ffffff;stop-opacity:0;"
         offset="1"
         id="stop889" />
    </linearGradient>
    <linearGradient
       inkscape:collect="always"
       id="linearGradient947">
      <stop
         style="stop-color:#ffffff;stop-opacity:1;"
         offset="0"
         id="stop943" />
      <stop
         style="stop-color:#ffffff;stop-opacity:0;"
         offset="1"
         id="stop945" />
    </linearGradient>
    <linearGradient
       inkscape:collect="always"
       id="linearGradient1052">
      <stop
         style="stop-color:#000000;stop-opacity:1;"
         offset="0"
         id="stop1048" />
      <stop
         style="stop-color:#000000;stop-opacity:0;"
         offset="1"
         id="stop1050" />
    </linearGradient>
    <linearGradient
       inkscape:collect="always"
       id="linearGradient994">
      <stop
         style="stop-color:#ffffff;stop-opacity:1;"
         offset="0"
         id="stop990" />
      <stop
         style="stop-color:#ffffff;stop-opacity:0;"
         offset="1"
         id="stop992" />
    </linearGradient>
    <linearGradient
       id="e"
       y1="542.22"
       x1="398.09"
       y2="524.9"
       x2="394"
       gradientUnits="userSpaceOnUse"
       gradientTransform="translate(-384.57-499.8)">
      <stop
         stop-color="#334545"
         id="stop22" />
      <stop
         offset="1"
         stop-color="#536161"
         id="stop24" />
    </linearGradient>
    <linearGradient
       xlink:href="#e"
       id="f"
       y1="586.49"
       x1="431.31"
       y2="582.07"
       x2="439.57"
       gradientUnits="userSpaceOnUse"
       gradientTransform="matrix(-1,0,0,1,454.57,-539.8)" />
    <linearGradient
       xlink:href="#e"
       id="g"
       y1="577.36"
       x1="430.57"
       y2="591.33"
       x2="423.75"
       gradientUnits="userSpaceOnUse"
       gradientTransform="matrix(-1,0,0,1,454.57,-539.8)" />
    <linearGradient
       xlink:href="#e"
       id="h"
       y1="577.1"
       x1="431.31"
       y2="571.45"
       x2="440.63"
       gradientUnits="userSpaceOnUse"
       gradientTransform="matrix(-1,0,0,1,454.57,-539.8)" />
    <linearGradient
       xlink:href="#e"
       id="i"
       y1="572.33"
       x1="423.05"
       y2="566.77"
       x2="431.22"
       gradientUnits="userSpaceOnUse"
       gradientTransform="matrix(-1,0,0,1,454.57,-539.8)" />
    <linearGradient
       xlink:href="#e"
       id="j"
       y1="581.87"
       x1="406.54"
       y2="572.68"
       x2="423.32"
       gradientUnits="userSpaceOnUse"
       gradientTransform="matrix(-1,0,0,1,454.57,-539.8)" />
    <linearGradient
       xlink:href="#e"
       id="k"
       y1="568.8"
       x1="431.57"
       y2="562.8"
       x2="439.57"
       gradientUnits="userSpaceOnUse"
       gradientTransform="matrix(-1,0,0,1,454.57,-539.8)" />
    <linearGradient
       id="l"
       y1="521.63"
       x1="404.05"
       y2="528.35"
       x2="430.74"
       gradientUnits="userSpaceOnUse"
       gradientTransform="translate(-384.57,-499.8)">
      <stop
         style="stop-color:#cc4a5e;stop-opacity:1"
         id="stop33" />
      <stop
         offset="1"
         style="stop-color:#aa478a;stop-opacity:1"
         id="stop35" />
    </linearGradient>
    <linearGradient
       id="m"
       y1="503.08"
       x1="418.17"
       y2="531.46"
       x2="384.57"
       gradientUnits="userSpaceOnUse"
       gradientTransform="translate(-384.57,-499.8)">
      <stop
         stop-color="#1abc9c"
         id="stop38" />
      <stop
         offset="1"
         stop-color="#2980b9"
         id="stop40" />
    </linearGradient>
    <linearGradient
       inkscape:collect="always"
       xlink:href="#e"
       id="linearGradient934"
       gradientUnits="userSpaceOnUse"
       gradientTransform="translate(-384.57,-499.8)"
       x1="398.09"
       y1="542.22"
       x2="394"
       y2="524.9" />
    <linearGradient
       inkscape:collect="always"
       xlink:href="#linearGradient994"
       id="linearGradient996"
       x1="25.153212"
       y1="30.722404"
       x2="31.434925"
       y2="40.359966"
       gradientUnits="userSpaceOnUse" />
    <linearGradient
       inkscape:collect="always"
       xlink:href="#linearGradient994"
       id="linearGradient998"
       x1="39.164745"
       y1="27.210873"
       x2="43.682041"
       y2="36.024712"
       gradientUnits="userSpaceOnUse" />
    <linearGradient
       inkscape:collect="always"
       xlink:href="#linearGradient994"
       id="linearGradient1000"
       x1="31.235584"
       y1="8.751236"
       x2="41.281712"
       y2="26.543657"
       gradientUnits="userSpaceOnUse" />
    <linearGradient
       inkscape:collect="always"
       xlink:href="#linearGradient994"
       id="linearGradient1002"
       x1="5.5535421"
       y1="18.080725"
       x2="13.846787"
       y2="31.589787"
       gradientUnits="userSpaceOnUse" />
    <linearGradient
       inkscape:collect="always"
       xlink:href="#linearGradient994"
       id="linearGradient1004"
       x1="18.658979"
       y1="12.963757"
       x2="24.906096"
       y2="24.248764"
       gradientUnits="userSpaceOnUse" />
    <linearGradient
       inkscape:collect="always"
       xlink:href="#linearGradient1052"
       id="linearGradient1054"
       x1="32.74424"
       y1="10.332566"
       x2="47.471512"
       y2="25.059837"
       gradientUnits="userSpaceOnUse" />
    <linearGradient
       inkscape:collect="always"
       xlink:href="#linearGradient1052"
       id="linearGradient1056"
       x1="40.268959"
       y1="29.098806"
       x2="46.517845"
       y2="35.347694"
       gradientUnits="userSpaceOnUse" />
    <linearGradient
       inkscape:collect="always"
       xlink:href="#linearGradient1052"
       id="linearGradient1058"
       x1="18.802164"
       y1="14.672596"
       x2="31.271265"
       y2="27.141697"
       gradientUnits="userSpaceOnUse" />
    <linearGradient
       inkscape:collect="always"
       xlink:href="#linearGradient1052"
       id="linearGradient1060"
       x1="25.871477"
       y1="32.048309"
       x2="43.349609"
       y2="37.930664"
       gradientUnits="userSpaceOnUse" />
    <linearGradient
       inkscape:collect="always"
       xlink:href="#linearGradient1052"
       id="linearGradient1062"
       x1="5.2079859"
       y1="20.168625"
       x2="22.608334"
       y2="37.568974"
       gradientUnits="userSpaceOnUse" />
    <linearGradient
       inkscape:collect="always"
       xlink:href="#linearGradient947"
       id="linearGradient949"
       x1="39.618923"
       y1="27.286472"
       x2="45.265251"
       y2="35.686119"
       gradientUnits="userSpaceOnUse" />
    <linearGradient
       inkscape:collect="always"
       xlink:href="#linearGradient947"
       id="linearGradient951"
       x1="24.707338"
       y1="30.813881"
       x2="32.646332"
       y2="40.628204"
       gradientUnits="userSpaceOnUse" />
    <linearGradient
       inkscape:collect="always"
       xlink:href="#linearGradient947"
       id="linearGradient953"
       x1="32.740936"
       y1="9.457118"
       x2="43.115826"
       y2="25.018568"
       gradientUnits="userSpaceOnUse" />
    <linearGradient
       inkscape:collect="always"
       xlink:href="#linearGradient947"
       id="linearGradient955"
       x1="18.530504"
       y1="13.640141"
       x2="25.67993"
       y2="23.100796"
       gradientUnits="userSpaceOnUse" />
    <linearGradient
       inkscape:collect="always"
       xlink:href="#linearGradient947"
       id="linearGradient957"
       x1="4.5030947"
       y1="18.810787"
       x2="13.231653"
       y2="33.399647"
       gradientUnits="userSpaceOnUse" />
    <linearGradient
       inkscape:collect="always"
       xlink:href="#linearGradient891"
       id="linearGradient893"
       x1="25.414677"
       y1="30.990717"
       x2="32.204243"
       y2="40.362953"
       gradientUnits="userSpaceOnUse" />
    <linearGradient
       inkscape:collect="always"
       xlink:href="#linearGradient891"
       id="linearGradient895"
       x1="39.442085"
       y1="27.640141"
       x2="44.469498"
       y2="35.686119"
       gradientUnits="userSpaceOnUse" />
    <linearGradient
       inkscape:collect="always"
       xlink:href="#linearGradient891"
       id="linearGradient897"
       x1="31.237843"
       y1="8.8381968"
       x2="42.320072"
       y2="23.073387"
       gradientUnits="userSpaceOnUse" />
    <linearGradient
       inkscape:collect="always"
       xlink:href="#linearGradient891"
       id="linearGradient899"
       x1="18.707338"
       y1="13.551724"
       x2="24.618921"
       y2="22.128204"
       gradientUnits="userSpaceOnUse" />
    <linearGradient
       inkscape:collect="always"
       xlink:href="#linearGradient891"
       id="linearGradient901"
       x1="3.7957559"
       y1="19.252874"
       x2="13.762157"
       y2="32.515472"
       gradientUnits="userSpaceOnUse" />
  </defs>
  <ellipse
     style="fill:url(#linearGradient1000);stroke-width:1.39999998;fill-opacity:1"
     cx="37"
     cy="16"
     id="circle18"
     r="7" />
  <ellipse
     style="fill:url(#linearGradient1002);stroke-width:1.5;fill-opacity:1"
     cx="9"
     cy="25"
     id="circle20"
     r="6" />
  <ellipse
     style="fill:url(#linearGradient996);stroke-width:1.5;fill-opacity:1"
     cx="28.5"
     cy="35.5"
     id="circle22"
     r="4.5" />
  <ellipse
     style="fill:url(#linearGradient1004);stroke-width:1.5;fill-opacity:1"
     cx="21"
     cy="17"
     id="circle24"
     r="3" />
  <ellipse
     style="fill:url(#linearGradient998);stroke-width:1.5;fill-opacity:1"
     cx="42"
     cy="31"
     id="circle26"
     r="3" />
  <path
     inkscape:connector-curvature="0"
     style="fill:url(#m)"
     id="path55"
     d="M 0,4 V 44 H 48 V 4 Z" />
  <path
     d="M 14.97,23.07 48,4 v 38.14 z"
     id="path57"
     style="fill:url(#l);stroke-width:2"
     inkscape:connector-curvature="0" />
  <path
     d="M 15,23 0,31.66 V 44 h 48 v -2 z"
     id="path59"
     style="fill:url(#linearGradient934);stroke-width:2"
     inkscape:connector-curvature="0" />
  <path
     d="m 23.26,27.77 -8.259,-4.768 v 9.536 z"
     id="path61"
     style="fill:url(#k);stroke-width:2"
     inkscape:connector-curvature="0" />
  <path
     d="M 31.518,32.535 V 44 h 13.176 l 3.307,-1.908 v -0.039 z"
     id="path63"
     style="fill:url(#j);stroke-width:2"
     inkscape:connector-curvature="0" />
  <path
     d="m 31.52,32.53 -8.259,-4.768 v 9.536 z"
     id="path65"
     style="fill:url(#i);stroke-width:2"
     inkscape:connector-curvature="0" />
  <path
     d="m 15,32.53 v 9.536 l 8.259,-4.768 z"
     id="path67"
     style="fill:url(#h);stroke-width:2"
     inkscape:connector-curvature="0" />
  <path
     d="M 31.518,32.535 15,42.072 18.34,44 h 13.178 z"
     id="path69"
     style="fill:url(#g);stroke-width:2"
     inkscape:connector-curvature="0" />
  <path
     d="M 15,41.928 V 44 h 3.59 z"
     id="path71"
     style="fill:url(#f);stroke-width:2"
     inkscape:connector-curvature="0" />
  <path
     d="m 48,42 -3.465,2 H 48 Z"
     id="path73"
     inkscape:connector-curvature="0"
     style="fill:#334545;stroke-width:2" />
  <path
     style="fill:#aa478a;stroke-width:2"
     inkscape:connector-curvature="0"
     id="path79"
     d="M 14.97,23.07 48,4 v 9.317 z" />
  <path
     style="opacity:0.3;fill:url(#linearGradient1054);fill-opacity:1;stroke:none;stroke-width:2.14408064;stroke-linecap:round;stroke-linejoin:round;stroke-miterlimit:4;stroke-dasharray:none;stroke-dashoffset:0;stroke-opacity:1;paint-order:normal"
     d="M 42.105469 11.21875 A 7 7 0 0 1 44 16 A 7 7 0 0 1 37 23 A 7 7 0 0 1 32.404297 21.273438 L 48 36.869141 L 48 17.113281 L 42.105469 11.21875 z "
     id="rect1006" />
  <path
     style="opacity:0.3;fill:url(#linearGradient1060);fill-opacity:1;stroke:none;stroke-width:2.14408064;stroke-linecap:round;stroke-linejoin:round;stroke-miterlimit:4;stroke-dasharray:none;stroke-dashoffset:0;stroke-opacity:1;paint-order:normal"
     d="M 31.828125 32.478516 A 4.5 4.5 0 0 1 33 35.5 A 4.5 4.5 0 0 1 28.5 40 A 4.5 4.5 0 0 1 25.601562 38.941406 L 30.660156 44 L 43.349609 44 L 31.828125 32.478516 z "
     id="rect1010" />
  <path
     style="opacity:0.3;fill:url(#linearGradient1062);fill-opacity:1;stroke:none;stroke-width:2.14408064;stroke-linecap:round;stroke-linejoin:round;stroke-miterlimit:4;stroke-dasharray:none;stroke-dashoffset:0;stroke-opacity:1;paint-order:normal"
     d="M 13.488281 21.029297 A 6 6 0 0 1 15 25 A 6 6 0 0 1 9 31 A 6 6 0 0 1 4.9003906 29.371094 L 19.529297 44 L 36.458984 44 L 13.488281 21.029297 z M 4.4980469 28.955078 L 4.4980469 28.96875 L 4.5976562 29.066406 A 6 6 0 0 1 4.4980469 28.955078 z "
     id="rect1017" />
  <path
     style="opacity:0.3;fill:url(#linearGradient1058);fill-opacity:1;stroke:none;stroke-width:1.7413826;stroke-linecap:round;stroke-linejoin:round;stroke-miterlimit:4;stroke-dasharray:none;stroke-dashoffset:0;stroke-opacity:1;paint-order:normal"
     d="M 23.349609 15.134766 A 3 3 0 0 1 24 17 A 3 3 0 0 1 21 20 A 3 3 0 0 1 18.900391 19.138672 L 18.90625 19.15625 L 43.748047 44 L 48 44 L 48 39.787109 L 23.349609 15.134766 z "
     id="rect1022" />
  <path
     style="opacity:0.3;fill:url(#linearGradient1056);fill-opacity:1;stroke:none;stroke-width:1.7413826;stroke-linecap:round;stroke-linejoin:round;stroke-miterlimit:4;stroke-dasharray:none;stroke-dashoffset:0;stroke-opacity:1;paint-order:normal"
     d="M 44.195312 28.958984 A 3 3 0 0 1 45 31 A 3 3 0 0 1 42 34 A 3 3 0 0 1 40.066406 33.294922 L 48 41.228516 L 48 32.763672 L 44.195312 28.958984 z "
     id="rect1027" />
  <ellipse
     style="opacity:1;fill:url(#linearGradient955);fill-opacity:1;stroke:none;stroke-width:1.88499999;stroke-linecap:round;stroke-linejoin:round;stroke-miterlimit:4;stroke-dasharray:none;stroke-dashoffset:0;stroke-opacity:1;paint-order:normal"
     id="path886"
     cx="21"
     cy="17"
     r="3" />
  <path
     id="circle888"
     style="opacity:1;fill:url(#linearGradient953);fill-opacity:1;stroke:none;stroke-width:4.39833307;stroke-linecap:round;stroke-linejoin:round;stroke-miterlimit:4;stroke-dasharray:none;stroke-dashoffset:0;stroke-opacity:1;paint-order:normal"
     r="7"
     cy="16"
     cx="37" />
  <ellipse
     cy="31"
     cx="42"
     id="circle890"
     style="opacity:1;fill:url(#linearGradient949);fill-opacity:1;stroke:none;stroke-width:1.88499999;stroke-linecap:round;stroke-linejoin:round;stroke-miterlimit:4;stroke-dasharray:none;stroke-dashoffset:0;stroke-opacity:1;paint-order:normal"
     r="3" />
  <ellipse
     cy="25"
     cx="9"
     id="circle892"
     style="opacity:1;fill:url(#linearGradient957);fill-opacity:1;stroke:none;stroke-width:3.76999998;stroke-linecap:round;stroke-linejoin:round;stroke-miterlimit:4;stroke-dasharray:none;stroke-dashoffset:0;stroke-opacity:1;paint-order:normal"
     r="6" />
  <ellipse
     style="opacity:1;fill:url(#linearGradient951);fill-opacity:1;stroke:none;stroke-width:2.8275001;stroke-linecap:round;stroke-linejoin:round;stroke-miterlimit:4;stroke-dasharray:none;stroke-dashoffset:0;stroke-opacity:1;paint-order:normal"
     id="circle894"
     cx="28.5"
     cy="35.5"
     r="4.5" />
  <path
     style="opacity:1;fill:url(#linearGradient901);fill-opacity:1;stroke:none;stroke-width:1.99588251;stroke-linecap:round;stroke-linejoin:round;stroke-miterlimit:4;stroke-dasharray:none;stroke-dashoffset:0;stroke-opacity:1;paint-order:normal"
     d="m 15,25 a 6,6 0 0 1 -6,6 6,6 0 0 1 -6,-6 6,6 0 0 1 6,-6 6,6 0 0 1 6,6 z"
     id="path880" />
  <path
     style="opacity:1;fill:url(#linearGradient897);fill-opacity:1;stroke:none;stroke-width:2.3285296;stroke-linecap:round;stroke-linejoin:round;stroke-miterlimit:4;stroke-dasharray:none;stroke-dashoffset:0;stroke-opacity:1;paint-order:normal"
     d="m 44,16 a 7,7 0 0 1 -7,7 7,7 0 0 1 -7,-7 7,7 0 0 1 7,-7 7,7 0 0 1 7,7 z"
     id="circle882" />
  <path
     style="opacity:1;fill:url(#linearGradient893);fill-opacity:1;stroke:none;stroke-width:1.49691188;stroke-linecap:round;stroke-linejoin:round;stroke-miterlimit:4;stroke-dasharray:none;stroke-dashoffset:0;stroke-opacity:1;paint-order:normal"
     d="M 33,35.5 A 4.5,4.5 0 0 1 28.5,40 4.5,4.5 0 0 1 24,35.5 4.5,4.5 0 0 1 28.5,31 4.5,4.5 0 0 1 33,35.5 Z"
     id="circle884" />
  <path
     style="opacity:1;fill:url(#linearGradient899);fill-opacity:1;stroke:none;stroke-width:0.99794126;stroke-linecap:round;stroke-linejoin:round;stroke-miterlimit:4;stroke-dasharray:none;stroke-dashoffset:0;stroke-opacity:1;paint-order:normal"
     d="m 24,17 a 3,3 0 0 1 -3,3 3,3 0 0 1 -3,-3 3,3 0 0 1 3,-3 3,3 0 0 1 3,3 z"
     id="circle886" />
  <path
     style="opacity:1;fill:url(#linearGradient895);fill-opacity:1;stroke:none;stroke-width:0.99794126;stroke-linecap:round;stroke-linejoin:round;stroke-miterlimit:4;stroke-dasharray:none;stroke-dashoffset:0;stroke-opacity:1;paint-order:normal"
     d="m 45,31 a 3,3 0 0 1 -3,3 3,3 0 0 1 -3,-3 3,3 0 0 1 3,-3 3,3 0 0 1 3,3 z"
     id="circle889" />
</svg>
