<?xml version="1.0" encoding="UTF-8" standalone="no"?>
<svg
   xmlns:dc="http://purl.org/dc/elements/1.1/"
   xmlns:cc="http://creativecommons.org/ns#"
   xmlns:rdf="http://www.w3.org/1999/02/22-rdf-syntax-ns#"
   xmlns:svg="http://www.w3.org/2000/svg"
   xmlns="http://www.w3.org/2000/svg"
   xmlns:xlink="http://www.w3.org/1999/xlink"
   xmlns:sodipodi="http://sodipodi.sourceforge.net/DTD/sodipodi-0.dtd"
   xmlns:inkscape="http://www.inkscape.org/namespaces/inkscape"
   width="48"
   height="48"
   version="1.1"
   id="svg50"
   sodipodi:docname="org.gnome.font-viewer.svg"
   inkscape:version="0.92.3 (2405546, 2018-03-11)">
  <metadata
     id="metadata56">
    <rdf:RDF>
      <cc:Work
         rdf:about="">
        <dc:format>image/svg+xml</dc:format>
        <dc:type
           rdf:resource="http://purl.org/dc/dcmitype/StillImage" />
        <dc:title></dc:title>
      </cc:Work>
    </rdf:RDF>
  </metadata>
  <defs
     id="defs54">
    <linearGradient
       inkscape:collect="always"
       id="linearGradient1017">
      <stop
         style="stop-color:#ffffff;stop-opacity:1;"
         offset="0"
         id="stop1013" />
      <stop
         style="stop-color:#ffffff;stop-opacity:0;"
         offset="1"
         id="stop1015" />
    </linearGradient>
    <linearGradient
       inkscape:collect="always"
       id="linearGradient992">
      <stop
         style="stop-color:#000000;stop-opacity:1;"
         offset="0"
         id="stop988" />
      <stop
         style="stop-color:#000000;stop-opacity:0;"
         offset="1"
         id="stop990" />
    </linearGradient>
    <linearGradient
       inkscape:collect="always"
       id="linearGradient850">
      <stop
         style="stop-color:#893b9d;stop-opacity:1;"
         offset="0"
         id="stop846" />
      <stop
         style="stop-color:#ac5bc1;stop-opacity:1"
         offset="1"
         id="stop848" />
    </linearGradient>
    <linearGradient
       inkscape:collect="always"
       xlink:href="#linearGradient850"
       id="linearGradient852"
       x1="38.838284"
       y1="42.811874"
       x2="31.108912"
       y2="6.5082431"
       gradientUnits="userSpaceOnUse" />
    <linearGradient
       inkscape:collect="always"
       xlink:href="#linearGradient992"
       id="linearGradient994"
       x1="28.921041"
       y1="12.228263"
       x2="40.413902"
       y2="23.721123"
       gradientUnits="userSpaceOnUse" />
    <linearGradient
       inkscape:collect="always"
       xlink:href="#linearGradient992"
       id="linearGradient996"
       x1="29.268623"
       y1="27.866806"
       x2="41.864494"
       y2="40.462677"
       gradientUnits="userSpaceOnUse" />
    <linearGradient
       inkscape:collect="always"
       xlink:href="#linearGradient992"
       id="linearGradient998"
       x1="14.348538"
       y1="27.309477"
       x2="30.712297"
       y2="43.673237"
       gradientUnits="userSpaceOnUse" />
    <linearGradient
       inkscape:collect="always"
       xlink:href="#linearGradient992"
       id="linearGradient1000"
       x1="13.775432"
       y1="12.458014"
       x2="28.447819"
       y2="27.130402"
       gradientUnits="userSpaceOnUse" />
    <linearGradient
       inkscape:collect="always"
       xlink:href="#linearGradient1017"
       id="linearGradient1019"
       x1="21.6343"
       y1="7.0322094"
       x2="31.026642"
       y2="42.084904"
       gradientUnits="userSpaceOnUse" />
  </defs>
  <sodipodi:namedview
     pagecolor="#ffffff"
     bordercolor="#666666"
     borderopacity="1"
     objecttolerance="10"
     gridtolerance="10"
     guidetolerance="10"
     inkscape:pageopacity="0"
     inkscape:pageshadow="2"
     inkscape:window-width="1920"
     inkscape:window-height="1020"
     id="namedview52"
     showgrid="false"
     inkscape:zoom="11.33"
     inkscape:cx="30.387761"
     inkscape:cy="15.653853"
     inkscape:window-x="0"
     inkscape:window-y="30"
     inkscape:window-maximized="1"
     inkscape:current-layer="svg50" />
  <rect
     style="fill:url(#linearGradient852);fill-opacity:1"
     id="rect29"
     height="40"
     rx="0"
     y="3.9999928"
     x="6"
     width="36" />
  <rect
     style="fill:#080809"
     id="rect33"
     height="1"
     y="42.999992"
     x="6"
     width="36" />
  <rect
     style="opacity:0.6;fill:#080809"
     id="rect37"
     height="40"
     y="3.9999928"
     x="6"
     width="2" />
  <rect
     style="fill:#8b8f8f"
     id="rect41"
     height="1"
     y="41.999992"
     x="8"
     width="34" />
  <rect
     style="fill:#212323;fill-opacity:0.45199998"
     id="rect43"
     height="1"
     y="40.999992"
     x="8"
     width="34" />
  <path
     style="opacity:0.3;fill:url(#linearGradient994);fill-opacity:1;stroke:none;stroke-width:0.22623761;stroke-linecap:round;stroke-linejoin:round;stroke-miterlimit:4;stroke-dasharray:none;stroke-dashoffset:0;stroke-opacity:1;paint-order:normal"
     d="M 34.882812 12.050781 L 34.863281 12.066406 C 35.579147 12.702845 35.999928 13.617712 36 14.832031 L 36 19.904297 L 33.298828 19.904297 L 33.298828 18.863281 C 32.825855 19.63283 31.460316 20 30.171875 20 C 29.062242 20 28.235617 19.683949 27.701172 19.169922 L 27.697266 19.1875 L 42 33.490234 L 42 19.167969 L 34.882812 12.050781 z M 31.164062 12.947266 C 30.234427 12.947266 29.270832 13.245563 28.634766 13.732422 L 29.931641 15.029297 C 30.192998 15.005593 30.466947 14.988872 30.767578 14.990234 L 33.298828 15.001953 C 33.298828 13.949715 32.534053 12.947266 31.164062 12.947266 z M 31.044922 16.550781 C 29.85436 16.543428 29.478516 16.805714 29.478516 17.371094 C 29.478516 17.983593 30.017045 18.392578 30.914062 18.392578 C 31.762152 18.392578 33.29898 17.87061 33.298828 17.050781 L 33.298828 16.5625 L 31.044922 16.550781 z "
     id="rect953" />
  <path
     style="opacity:0.3;fill:url(#linearGradient1000);fill-opacity:1;stroke:none;stroke-width:0.21500044;stroke-linecap:round;stroke-linejoin:round;stroke-miterlimit:4;stroke-dasharray:none;stroke-dashoffset:0;stroke-opacity:1;paint-order:normal"
     d="M 16.396484 11.458984 C 15.638678 11.458984 15.033203 11.881413 15.033203 12.398438 C 15.033203 12.532481 15.051954 12.685082 15.089844 12.857422 C 15.108774 12.991463 15.126953 13.087473 15.126953 13.164062 C 15.126953 13.585344 14.730073 13.96875 14.275391 13.96875 C 14.103902 13.96875 13.954841 13.902185 13.824219 13.810547 L 13.810547 13.84375 L 15.365234 15.396484 C 15.976035 15.171438 16.772325 14.935026 17.988281 14.572266 L 17.988281 13.048828 C 17.988281 12.014783 17.324791 11.458984 16.396484 11.458984 z M 19.115234 11.798828 C 19.193689 11.878319 19.263391 11.961817 19.318359 12.052734 C 19.602532 12.512308 19.697266 13.068707 19.697266 14.064453 L 19.697266 17.798828 C 19.697266 18.641381 19.829887 18.908203 20.265625 18.908203 C 20.549803 18.908203 20.777544 18.813004 21.099609 18.544922 L 21.099609 19.042969 C 20.436532 19.770629 20.038664 20 19.394531 20 C 18.617781 20 18.102538 19.616454 18.007812 18.601562 C 16.852162 19.597309 15.923429 20 15.089844 20 C 14.552761 20 14.090984 19.811978 13.744141 19.496094 L 27.017578 32.769531 C 27.018516 32.388476 27.058698 31.972716 27.173828 31.492188 C 27.362578 30.653122 27.659987 29.890884 28.064453 29.203125 C 28.482401 28.515369 28.934564 27.93065 29.419922 27.449219 C 29.90528 26.954033 30.383593 26.581578 30.855469 26.333984 C 31.327346 26.086391 31.719207 25.976386 32.029297 26.003906 C 32.393315 26.07268 32.688772 26.182681 32.917969 26.333984 C 33.106721 26.471535 33.22732 26.678022 33.28125 26.953125 C 33.321937 27.110865 33.278038 27.312142 33.191406 27.535156 L 34.029297 26.697266 L 19.142578 11.808594 L 19.115234 11.798828 z M 17.988281 15.03125 C 15.771704 15.816355 14.786538 16.188954 14.767578 17.337891 L 14.767578 17.414062 C 14.767578 18.23747 15.297855 18.888672 15.960938 18.888672 C 16.358784 18.888672 17.022464 18.736839 17.496094 18.46875 C 17.893936 18.238966 17.988281 18.027595 17.988281 17.453125 L 17.988281 15.03125 z M 13.4375 19.144531 L 13.425781 19.177734 L 13.607422 19.359375 C 13.547158 19.291562 13.487884 19.221462 13.4375 19.144531 z M 31.552734 27.294922 C 31.398532 27.287189 31.179611 27.406707 30.896484 27.654297 C 30.532467 27.970667 30.106451 28.563108 29.621094 29.429688 C 29.41886 29.787318 29.258059 30.17133 29.136719 30.583984 C 29.01538 30.982881 28.926977 31.361114 28.873047 31.71875 C 28.832587 32.076379 28.826556 32.392866 28.853516 32.667969 C 28.880482 32.929319 28.934735 33.101054 29.015625 33.183594 C 29.163928 33.334893 29.332734 33.412109 29.521484 33.412109 C 29.710234 33.39834 29.899141 33.342374 30.087891 33.246094 C 30.290123 33.136056 30.485078 32.999047 30.673828 32.833984 C 30.876062 32.668924 31.050916 32.497176 31.199219 32.318359 C 31.361006 32.139543 31.489604 31.973573 31.583984 31.822266 C 31.691833 31.670956 31.752135 31.560958 31.765625 31.492188 C 31.823251 31.257016 31.895429 30.969382 31.972656 30.664062 L 31.017578 29.708984 L 32.404297 28.322266 C 32.396984 28.298231 32.391417 28.268754 32.373047 28.273438 C 32.305636 28.287207 32.231281 28.308457 32.150391 28.335938 C 32.08298 28.363467 31.994576 28.384667 31.886719 28.398438 C 31.778861 28.412196 31.670358 28.431504 31.5625 28.458984 C 31.67035 28.238899 31.732614 28.061375 31.746094 27.923828 C 31.773124 27.772517 31.779115 27.654796 31.765625 27.572266 C 31.752135 27.475983 31.725997 27.400733 31.685547 27.345703 C 31.648475 27.314783 31.604134 27.297722 31.552734 27.294922 z M 33.177734 31.869141 C 33.166129 31.939148 33.157643 32.003086 33.140625 32.089844 C 33.11367 32.227399 33.079502 32.401097 33.039062 32.607422 C 33.025633 32.73122 33.019531 32.86822 33.019531 33.019531 C 33.027315 33.098958 33.04986 33.171095 33.066406 33.246094 L 33.810547 32.501953 L 33.177734 31.869141 z M 31.845703 32.8125 C 31.522131 33.362709 31.166375 33.789182 30.775391 34.091797 C 30.384408 34.380655 30.012645 34.594874 29.662109 34.732422 C 29.487113 34.797888 29.311608 34.846521 29.136719 34.888672 L 30.279297 36.03125 L 32.074219 34.236328 C 32.018272 34.097599 31.961985 33.9469 31.90625 33.742188 C 31.85238 33.494597 31.832213 33.183889 31.845703 32.8125 z "
     id="path964" />
  <path
     style="opacity:0.2;fill:url(#linearGradient998);fill-opacity:1;stroke:none;stroke-width:0.29794157;stroke-linecap:round;stroke-linejoin:round;stroke-miterlimit:4;stroke-dasharray:none;stroke-dashoffset:0;stroke-opacity:1;paint-order:normal"
     d="M 19.951172 26.476562 L 19.939453 26.480469 C 20.273638 26.771108 20.574368 27.231428 20.615234 27.820312 L 20.615234 27.824219 L 20.996094 34.1875 C 21.084072 35.207911 19.510722 35.298905 19.476562 34.275391 L 19.46875 34.15625 L 18.175781 34.980469 L 15.285156 34.980469 C 15.285156 34.980469 14.693532 34.985515 14.119141 34.632812 C 14.014231 34.568393 13.914246 34.473552 13.814453 34.380859 L 13.814453 34.386719 L 23.429688 44 L 37.474609 44 L 28.470703 34.996094 C 28.46349 34.996624 28.456432 34.999509 28.449219 35 C 28.260468 35 28.057511 34.930525 27.841797 34.792969 C 27.626081 34.669175 27.445179 34.470419 27.296875 34.195312 C 27.213113 34.032169 27.15094 33.838426 27.101562 33.626953 L 19.951172 26.476562 z M 14.365234 27.294922 L 14.347656 27.308594 L 17.080078 30.041016 L 18.806641 30.041016 L 18.896484 30.064453 C 18.896484 30.064453 19.014003 30.092183 19.189453 30.158203 L 19.095703 27.921875 C 19.076198 27.640821 19.007282 27.633132 18.890625 27.570312 C 18.776253 27.508743 18.672169 27.496469 18.667969 27.496094 L 14.904297 27.496094 C 14.668714 27.499367 14.493059 27.415827 14.365234 27.294922 z M 15.59375 30.035156 L 15.587891 30.041016 L 15.599609 30.041016 L 15.59375 30.035156 z M 15.285156 31.539062 C 14.727113 31.539063 14.562608 31.962058 14.523438 32.076172 L 14.523438 32.361328 C 14.523435 33.097217 14.740416 33.248258 14.927734 33.363281 C 15.115051 33.478335 15.285156 33.484375 15.285156 33.484375 L 17.726562 33.484375 L 19.365234 32.435547 L 19.3125 32.226562 C 19.306139 31.977341 19.185368 31.858025 18.972656 31.71875 C 18.777717 31.591118 18.618845 31.550732 18.578125 31.539062 L 15.285156 31.539062 z "
     id="path972" />
  <path
     style="opacity:0.2;fill:url(#linearGradient996);fill-opacity:1;stroke:none;stroke-width:0.29794157;stroke-linecap:round;stroke-linejoin:round;stroke-miterlimit:4;stroke-dasharray:none;stroke-dashoffset:0;stroke-opacity:1;paint-order:normal"
     d="M 33.0625 26.449219 L 33.025391 26.453125 C 33.146369 26.583375 33.239782 26.741591 33.28125 26.953125 C 33.348661 27.214474 33.242114 27.565693 32.958984 28.005859 C 33.147735 27.964589 33.30249 27.937598 33.423828 27.923828 C 33.558653 27.909998 33.659152 27.902344 33.726562 27.902344 C 33.807457 27.902344 33.861692 27.910058 33.888672 27.923828 C 33.902092 27.95133 33.908203 28.013075 33.908203 28.109375 C 33.908203 28.191905 33.888106 28.35015 33.847656 28.583984 C 33.80721 28.817821 33.746906 29.134306 33.666016 29.533203 C 33.585124 29.932104 33.47857 30.447339 33.34375 31.080078 C 33.31679 31.203872 33.288659 31.319648 33.261719 31.429688 C 33.248239 31.525973 33.228152 31.630188 33.201172 31.740234 C 33.187702 31.836517 33.167605 31.952297 33.140625 32.089844 C 33.11367 32.227399 33.079502 32.401097 33.039062 32.607422 C 33.025633 32.73122 33.019531 32.86822 33.019531 33.019531 C 33.033011 33.157079 33.059159 33.288314 33.099609 33.412109 C 33.140055 33.535908 33.20036 33.638173 33.28125 33.720703 C 33.375624 33.789494 33.504228 33.824219 33.666016 33.824219 C 33.800838 33.824219 33.975695 33.741236 34.191406 33.576172 C 34.407123 33.39736 34.636226 33.177365 34.878906 32.916016 C 35.121582 32.640917 35.372745 32.345661 35.628906 32.029297 C 35.898551 31.699173 36.147755 31.382688 36.376953 31.080078 C 36.590947 30.797535 36.774564 30.550714 36.941406 30.328125 L 33.0625 26.449219 z M 31.552734 27.294922 C 31.398532 27.287189 31.179611 27.406707 30.896484 27.654297 C 30.532467 27.970667 30.106451 28.563108 29.621094 29.429688 C 29.41886 29.787318 29.258059 30.17133 29.136719 30.583984 C 29.01538 30.982881 28.926977 31.361114 28.873047 31.71875 C 28.832587 32.076379 28.826556 32.392866 28.853516 32.667969 C 28.880482 32.929319 28.934735 33.101054 29.015625 33.183594 C 29.163928 33.334893 29.332734 33.412109 29.521484 33.412109 C 29.710234 33.39834 29.899141 33.342374 30.087891 33.246094 C 30.290123 33.136056 30.485078 32.999047 30.673828 32.833984 C 30.876062 32.668924 31.050916 32.497176 31.199219 32.318359 C 31.361006 32.139543 31.489604 31.973573 31.583984 31.822266 C 31.691833 31.670956 31.752135 31.560958 31.765625 31.492188 C 31.833036 31.217082 31.913432 30.894827 32.007812 30.523438 C 32.102188 30.152053 32.18259 29.793103 32.25 29.449219 C 32.317403 29.10534 32.365618 28.823601 32.392578 28.603516 C 32.433018 28.369683 32.426977 28.259687 32.373047 28.273438 C 32.305636 28.287207 32.231281 28.308457 32.150391 28.335938 C 32.08298 28.363467 31.994576 28.384667 31.886719 28.398438 C 31.778861 28.412196 31.670358 28.431504 31.5625 28.458984 C 31.67035 28.238899 31.732614 28.061375 31.746094 27.923828 C 31.773124 27.772517 31.779115 27.654796 31.765625 27.572266 C 31.752135 27.475983 31.725997 27.400733 31.685547 27.345703 C 31.648475 27.314783 31.604134 27.297722 31.552734 27.294922 z M 37.929688 29.568359 L 37.908203 29.597656 C 37.922884 29.610553 37.941091 29.616352 37.953125 29.634766 C 38.007035 29.717296 38.015039 29.842755 37.974609 30.007812 C 37.94765 30.172879 37.853201 30.363903 37.691406 30.583984 C 37.502655 30.859086 37.259497 31.204535 36.962891 31.617188 C 36.666284 32.016086 36.356775 32.42133 36.033203 32.833984 C 35.723109 33.232888 35.411653 33.60339 35.101562 33.947266 C 34.804955 34.277389 34.555751 34.510889 34.353516 34.648438 C 34.218696 34.730967 34.063942 34.800449 33.888672 34.855469 C 33.713406 34.910487 33.532498 34.945214 33.34375 34.958984 C 33.16848 34.972754 32.999677 34.959229 32.837891 34.917969 C 32.676105 34.890467 32.53345 34.834493 32.412109 34.751953 C 32.290771 34.655663 32.190265 34.518661 32.109375 34.339844 C 32.041966 34.188527 31.97366 33.989781 31.90625 33.742188 C 31.85238 33.494597 31.832213 33.183889 31.845703 32.8125 C 31.522131 33.362709 31.166375 33.789182 30.775391 34.091797 C 30.384408 34.380655 30.012645 34.594874 29.662109 34.732422 C 29.257644 34.883732 28.853684 34.97248 28.449219 35 C 28.260468 35 28.057511 34.930525 27.841797 34.792969 C 27.748369 34.739353 27.664532 34.665837 27.583984 34.583984 L 27.587891 34.607422 L 36.980469 44 L 42 44 L 42 33.638672 L 37.929688 29.568359 z "
     id="path980" />
  <path
     style="font-size:medium;line-height:1000%;letter-spacing:0px;word-spacing:0px;fill:url(#linearGradient1019);stroke-width:0.34347585;fill-opacity:1"
     d="M 16.642578 11 C 14.861739 11 13.458984 11.938147 13.458984 13.144531 C 13.458984 13.584956 13.82071 13.96875 14.275391 13.96875 C 14.730073 13.96875 15.126953 13.585343 15.126953 13.164062 C 15.126953 13.087473 15.108774 12.991463 15.089844 12.857422 C 15.051954 12.685082 15.033203 12.532482 15.033203 12.398438 C 15.033203 11.881414 15.638678 11.458984 16.396484 11.458984 C 17.324791 11.458984 17.988281 12.014783 17.988281 13.048828 L 17.988281 14.572266 C 15.379052 15.350686 14.595888 15.557496 13.78125 16.285156 C 13.36445 16.668131 13.099609 17.319258 13.099609 17.951172 C 13.099609 19.157556 13.934195 20 15.089844 20 C 15.923429 20 16.852162 19.597309 18.007812 18.601562 C 18.102538 19.616454 18.617781 20 19.394531 20 C 20.038664 20 20.436532 19.770629 21.099609 19.042969 L 21.099609 18.544922 C 20.777544 18.813004 20.549803 18.908203 20.265625 18.908203 C 19.829887 18.908203 19.697266 18.641381 19.697266 17.798828 L 19.697266 14.064453 C 19.697266 13.068707 19.602532 12.512308 19.318359 12.052734 C 18.901568 11.363372 17.760337 11 16.642578 11 z M 31.505859 11 C 30.103251 11 28.68491 11.36187 27.722656 12.021484 L 28.634766 13.732422 C 29.270832 13.245563 30.234427 12.947266 31.164062 12.947266 C 32.534053 12.947266 33.298828 13.949715 33.298828 15.001953 L 30.767578 14.990234 C 28.092867 14.978112 27 15.988481 27 17.480469 C 27 18.941043 28.116891 20 30.171875 20 C 31.460316 20 32.825855 19.63283 33.298828 18.863281 L 33.298828 19.904297 L 36 19.904297 L 36 14.832031 C 35.999848 12.272104 34.1806 11 31.505859 11 z M 17.988281 15.03125 L 17.988281 17.453125 C 17.988281 18.027595 17.893936 18.238966 17.496094 18.46875 C 17.022464 18.736839 16.358784 18.888672 15.960938 18.888672 C 15.297856 18.888672 14.767578 18.23747 14.767578 17.414062 L 14.767578 17.337891 C 14.786538 16.188954 15.771704 15.816355 17.988281 15.03125 z M 31.044922 16.550781 L 33.298828 16.5625 L 33.298828 17.050781 C 33.29898 17.87061 31.762152 18.392578 30.914062 18.392578 C 30.017045 18.392578 29.478516 17.983593 29.478516 17.371094 C 29.478516 16.805714 29.85436 16.543428 31.044922 16.550781 z M 14.904297 26 C 13.874222 25.98569 13.874222 27.510407 14.904297 27.496094 L 18.667969 27.496094 C 18.672169 27.496469 18.776253 27.508743 18.890625 27.570312 C 19.007282 27.633132 19.076198 27.640821 19.095703 27.921875 L 19.189453 30.158203 C 19.014003 30.092183 18.896484 30.064453 18.896484 30.064453 L 18.806641 30.041016 L 15.285156 30.041016 C 13.634789 30.041016 13.039062 31.675781 13.039062 31.675781 L 13 31.791016 L 13 32.361328 C 13 33.496341 13.544751 34.28011 14.119141 34.632812 C 14.693532 34.985515 15.285156 34.980469 15.285156 34.980469 L 18.175781 34.980469 L 19.46875 34.15625 L 19.476562 34.275391 C 19.510722 35.298905 21.084072 35.207911 20.996094 34.1875 L 20.615234 27.824219 L 20.615234 27.820312 C 20.561604 27.047507 20.059387 26.492798 19.623047 26.257812 C 19.186707 26.022831 18.761719 26.001953 18.761719 26.001953 L 18.738281 26 L 14.904297 26 z M 32.029297 26.003906 C 31.719207 25.976386 31.327346 26.086391 30.855469 26.333984 C 30.383593 26.581578 29.90528 26.954033 29.419922 27.449219 C 28.934564 27.93065 28.482401 28.515369 28.064453 29.203125 C 27.659987 29.890884 27.362578 30.653123 27.173828 31.492188 C 27.025525 32.11117 26.973227 32.647641 27.013672 33.101562 C 27.054112 33.541725 27.148571 33.906458 27.296875 34.195312 C 27.445179 34.470419 27.626081 34.669175 27.841797 34.792969 C 28.057511 34.930525 28.260468 35 28.449219 35 C 28.853684 34.97248 29.257644 34.883732 29.662109 34.732422 C 30.012645 34.594874 30.384408 34.380655 30.775391 34.091797 C 31.166375 33.789182 31.522131 33.362709 31.845703 32.8125 C 31.832213 33.183889 31.85238 33.494597 31.90625 33.742188 C 31.97366 33.989781 32.041966 34.188527 32.109375 34.339844 C 32.190265 34.518661 32.290771 34.655663 32.412109 34.751953 C 32.53345 34.834493 32.676105 34.890467 32.837891 34.917969 C 32.999677 34.959229 33.16848 34.972754 33.34375 34.958984 C 33.532498 34.945214 33.713406 34.910487 33.888672 34.855469 C 34.063942 34.800449 34.218696 34.730967 34.353516 34.648438 C 34.555751 34.510889 34.804955 34.277389 35.101562 33.947266 C 35.411653 33.60339 35.723109 33.232888 36.033203 32.833984 C 36.356775 32.42133 36.666284 32.016086 36.962891 31.617188 C 37.259497 31.204535 37.502655 30.859086 37.691406 30.583984 C 37.853201 30.363903 37.94765 30.172879 37.974609 30.007812 C 38.015039 29.842755 38.007035 29.717296 37.953125 29.634766 C 37.899195 29.552246 37.818798 29.525232 37.710938 29.552734 C 37.603082 29.566504 37.494581 29.635974 37.386719 29.759766 C 37.305829 29.869805 37.171173 30.041557 36.982422 30.275391 C 36.807151 30.509232 36.60615 30.777462 36.376953 31.080078 C 36.147755 31.382688 35.898551 31.699173 35.628906 32.029297 C 35.372745 32.345661 35.121582 32.640917 34.878906 32.916016 C 34.636226 33.177365 34.407123 33.39736 34.191406 33.576172 C 33.975695 33.741236 33.800838 33.824219 33.666016 33.824219 C 33.504228 33.824219 33.375624 33.789494 33.28125 33.720703 C 33.20036 33.638173 33.140055 33.535908 33.099609 33.412109 C 33.059159 33.288314 33.033011 33.157079 33.019531 33.019531 C 33.019531 32.86822 33.025633 32.73122 33.039062 32.607422 C 33.079502 32.401097 33.11367 32.227399 33.140625 32.089844 C 33.167605 31.952297 33.187702 31.836517 33.201172 31.740234 C 33.228152 31.630188 33.248239 31.525974 33.261719 31.429688 C 33.288659 31.319648 33.31679 31.203872 33.34375 31.080078 C 33.47857 30.447339 33.585124 29.932104 33.666016 29.533203 C 33.746906 29.134306 33.80721 28.817821 33.847656 28.583984 C 33.888106 28.35015 33.908203 28.191905 33.908203 28.109375 C 33.908203 28.013075 33.902092 27.95133 33.888672 27.923828 C 33.861692 27.910058 33.807457 27.902344 33.726562 27.902344 C 33.659152 27.902344 33.558653 27.909998 33.423828 27.923828 C 33.30249 27.937598 33.147735 27.964589 32.958984 28.005859 C 33.242114 27.565693 33.348661 27.214474 33.28125 26.953125 C 33.22732 26.678022 33.106721 26.471535 32.917969 26.333984 C 32.688772 26.182681 32.393315 26.07268 32.029297 26.003906 z M 31.552734 27.294922 C 31.604134 27.297722 31.648475 27.314783 31.685547 27.345703 C 31.725997 27.400733 31.752135 27.475983 31.765625 27.572266 C 31.779115 27.654796 31.773124 27.772517 31.746094 27.923828 C 31.732614 28.061375 31.67035 28.238899 31.5625 28.458984 C 31.670358 28.431504 31.778861 28.412197 31.886719 28.398438 C 31.994576 28.384667 32.08298 28.363467 32.150391 28.335938 C 32.231281 28.308457 32.305636 28.287207 32.373047 28.273438 C 32.426977 28.259687 32.433018 28.369683 32.392578 28.603516 C 32.365618 28.823601 32.317403 29.10534 32.25 29.449219 C 32.18259 29.793103 32.102188 30.152053 32.007812 30.523438 C 31.913432 30.894827 31.833036 31.217082 31.765625 31.492188 C 31.752135 31.560958 31.691833 31.670956 31.583984 31.822266 C 31.489604 31.973573 31.361006 32.139543 31.199219 32.318359 C 31.050916 32.497176 30.876062 32.668924 30.673828 32.833984 C 30.485078 32.999047 30.290123 33.136056 30.087891 33.246094 C 29.899141 33.342374 29.710234 33.39834 29.521484 33.412109 C 29.332734 33.412109 29.163928 33.334893 29.015625 33.183594 C 28.934735 33.101054 28.880482 32.929319 28.853516 32.667969 C 28.826556 32.392866 28.832587 32.076379 28.873047 31.71875 C 28.926977 31.361114 29.01538 30.982881 29.136719 30.583984 C 29.258059 30.17133 29.41886 29.787318 29.621094 29.429688 C 30.106451 28.563108 30.532467 27.970667 30.896484 27.654297 C 31.179611 27.406707 31.398532 27.287189 31.552734 27.294922 z M 15.285156 31.539062 L 18.578125 31.539062 C 18.618845 31.550732 18.777717 31.591118 18.972656 31.71875 C 19.185368 31.858025 19.306139 31.977341 19.3125 32.226562 L 19.365234 32.435547 L 17.726562 33.484375 L 15.285156 33.484375 C 15.285156 33.484375 15.115051 33.478335 14.927734 33.363281 C 14.740416 33.248258 14.523436 33.097217 14.523438 32.361328 L 14.523438 32.076172 C 14.562608 31.962058 14.727113 31.539063 15.285156 31.539062 z "
     id="path878" />
</svg>
