<?xml version="1.0" encoding="UTF-8" standalone="no"?>
<svg
   xmlns:dc="http://purl.org/dc/elements/1.1/"
   xmlns:cc="http://creativecommons.org/ns#"
   xmlns:rdf="http://www.w3.org/1999/02/22-rdf-syntax-ns#"
   xmlns:svg="http://www.w3.org/2000/svg"
   xmlns="http://www.w3.org/2000/svg"
   xmlns:xlink="http://www.w3.org/1999/xlink"
   xmlns:sodipodi="http://sodipodi.sourceforge.net/DTD/sodipodi-0.dtd"
   xmlns:inkscape="http://www.inkscape.org/namespaces/inkscape"
   width="48"
   height="48"
   version="1.0"
   id="svg85"
   sodipodi:docname="pitivi.svg"
   inkscape:version="0.92.3 (2405546, 2018-03-11)">
  <metadata
     id="metadata89">
    <rdf:RDF>
      <cc:Work
         rdf:about="">
        <dc:format>image/svg+xml</dc:format>
        <dc:type
           rdf:resource="http://purl.org/dc/dcmitype/StillImage" />
        <dc:title></dc:title>
      </cc:Work>
    </rdf:RDF>
  </metadata>
  <sodipodi:namedview
     pagecolor="#8b8b8b"
     bordercolor="#666666"
     borderopacity="1"
     objecttolerance="10"
     gridtolerance="10"
     guidetolerance="10"
     inkscape:pageopacity="0"
     inkscape:pageshadow="2"
     inkscape:window-width="1920"
     inkscape:window-height="1026"
     id="namedview87"
     showgrid="false"
     inkscape:zoom="4.85"
     inkscape:cx="31.977978"
     inkscape:cy="27.890159"
     inkscape:window-x="0"
     inkscape:window-y="30"
     inkscape:window-maximized="1"
     inkscape:current-layer="svg85">
    <inkscape:grid
       type="xygrid"
       id="grid983" />
  </sodipodi:namedview>
  <defs
     id="defs23">
    <linearGradient
       inkscape:collect="always"
       id="linearGradient1157">
      <stop
         style="stop-color:#f6f5f4;stop-opacity:1;"
         offset="0"
         id="stop1153" />
      <stop
         style="stop-color:#f6f5f4;stop-opacity:0;"
         offset="1"
         id="stop1155" />
    </linearGradient>
    <linearGradient
       inkscape:collect="always"
       id="linearGradient1133">
      <stop
         style="stop-color:#000000;stop-opacity:1;"
         offset="0"
         id="stop1129" />
      <stop
         style="stop-color:#000000;stop-opacity:0;"
         offset="1"
         id="stop1131" />
    </linearGradient>
    <linearGradient
       inkscape:collect="always"
       id="linearGradient1097">
      <stop
         style="stop-color:#3d2153;stop-opacity:1"
         offset="0"
         id="stop1093" />
      <stop
         style="stop-color:#8b4fb9;stop-opacity:1"
         offset="1"
         id="stop1095" />
    </linearGradient>
    <linearGradient
       inkscape:collect="always"
       xlink:href="#linearGradient1097"
       id="linearGradient1099"
       x1="35"
       y1="40"
       x2="29.51754"
       y2="13"
       gradientUnits="userSpaceOnUse" />
    <linearGradient
       inkscape:collect="always"
       xlink:href="#linearGradient1133"
       id="linearGradient1135"
       x1="8"
       y1="31"
       x2="16.866375"
       y2="39.866375"
       gradientUnits="userSpaceOnUse" />
    <linearGradient
       inkscape:collect="always"
       xlink:href="#linearGradient1133"
       id="linearGradient1137"
       x1="8"
       y1="25"
       x2="14.185022"
       y2="31.185022"
       gradientUnits="userSpaceOnUse" />
    <linearGradient
       inkscape:collect="always"
       xlink:href="#linearGradient1133"
       id="linearGradient1139"
       x1="35.425488"
       y1="-8.5554304"
       x2="42.202877"
       y2="-8.5554304"
       gradientUnits="userSpaceOnUse"
       gradientTransform="rotate(45)" />
    <linearGradient
       inkscape:collect="always"
       xlink:href="#linearGradient1133"
       id="linearGradient1143"
       gradientUnits="userSpaceOnUse"
       x1="35.425488"
       y1="-8.5554304"
       x2="42.202877"
       y2="-8.5554304"
       gradientTransform="rotate(45,-6.5496029,-15.81214)" />
    <linearGradient
       inkscape:collect="always"
       xlink:href="#linearGradient1157"
       id="linearGradient1159"
       x1="20.491514"
       y1="17.285471"
       x2="25.81127"
       y2="40.299728"
       gradientUnits="userSpaceOnUse" />
  </defs>
  <rect
     style="fill:url(#linearGradient1099);stroke-width:0.39147672;fill-opacity:1"
     id="rect27"
     width="44"
     height="32"
     x="2.0000002"
     y="7.9999995"
     rx="3.1428571"
     ry="3.1208096" />
  <path
     style="opacity:1;fill:#dedede;stroke-width:0.39147672;fill-opacity:1"
     d="M 5.1425781,7 C 3.4014353,7 2,8.3921653 2,10.121094 V 13 H 46 V 10.121094 C 46,8.3921653 44.598565,7 42.857422,7 Z"
     id="rect1022"
     inkscape:connector-curvature="0"
     sodipodi:nodetypes="ssccsss" />
  <path
     style="fill:#241f31;stroke-width:0.09771699;marker:none"
     d="M 5.1425781 7 C 4.551657 7 4.0063151 7.1697674 3.5351562 7.4492188 L 6.3867188 12.339844 L 10.25 10.132812 L 8.421875 7 L 5.1425781 7 z "
     id="rect31" />
  <path
     style="fill:#241f31;stroke-width:0.09771699;marker:none"
     d="M 13.09375 7 L 16.208984 12.339844 L 20.072266 10.132812 L 18.244141 7 L 13.09375 7 z "
     id="rect33" />
  <path
     style="fill:#241f31;stroke-width:0.09771699;marker:none"
     d="M 22.914062 7 L 26.029297 12.339844 L 29.892578 10.132812 L 28.066406 7 L 22.914062 7 z "
     id="rect35" />
  <path
     style="fill:#241f31;stroke-width:0.09771699;marker:none"
     d="M 32.736328 7 L 35.851562 12.339844 L 39.714844 10.132812 L 37.886719 7 L 32.736328 7 z "
     id="rect37" />
  <path
     style="fill:#241f31;stroke-width:0.09771699;marker:none"
     d="M 42.558594 7 L 45.673828 12.339844 L 46 12.154297 L 46 10.121094 C 46 8.3921651 44.598565 7 42.857422 7 L 42.558594 7 z "
     id="rect39" />
  <path
     style="stroke-width:0.09771699;marker:none"
     d="M 5.1640625 10 L 3.4140625 13 L 8.5644531 13 L 10.25 10.111328 L 10.054688 10 L 5.1640625 10 z "
     id="rect45" />
  <path
     style="stroke-width:0.09771699;marker:none"
     d="M 14.986328 10 L 13.236328 13 L 18.386719 13 L 20.072266 10.111328 L 19.876953 10 L 14.986328 10 z "
     id="rect47" />
  <path
     style="stroke-width:0.09771699;marker:none"
     d="M 24.806641 10 L 23.056641 13 L 28.207031 13 L 29.892578 10.111328 L 29.697266 10 L 24.806641 10 z "
     id="rect49" />
  <path
     style="stroke-width:0.09771699;marker:none"
     d="M 34.628906 10 L 32.878906 13 L 38.029297 13 L 39.714844 10.111328 L 39.519531 10 L 34.628906 10 z "
     id="rect51" />
  <path
     style="stroke-width:0.09771699;marker:none"
     d="M 44.451172 10 L 42.701172 13 L 46 13 L 46 10.121094 C 46 10.079918 45.991836 10.040762 45.990234 10 L 44.451172 10 z "
     id="rect53" />
  <path
     style="fill:#c0bfbc;stroke-width:0.375"
     d="M 4.1679688 7.1679688 C 2.9105632 7.5756301 2 8.7328823 2 10.121094 L 2 13 L 8 13 L 8 11 C 8 10.972338 4.4762659 7.4741179 4.1679688 7.1679688 z "
     id="path57" />
  <circle
     style="fill:#f6f5f4;stroke-width:0.39999998;marker:none"
     cx="3.5"
     cy="11.5"
     id="circle67"
     r="0.5" />
  <circle
     cy="9.5"
     cx="3.5"
     style="fill:#f6f5f4;stroke-width:0.39999998;marker:none"
     id="circle69"
     r="0.5" />
  <circle
     cy="11.5"
     cx="6.5"
     style="fill:#f6f5f4;stroke-width:0.39999998;marker:none"
     id="circle73"
     r="0.5" />
  <path
     style="opacity:0.3;fill:url(#linearGradient1137);fill-opacity:1;stroke:none;stroke-width:4;stroke-linecap:round;stroke-linejoin:round;stroke-miterlimit:4;stroke-dasharray:none;stroke-dashoffset:0;stroke-opacity:1;paint-order:normal"
     d="M 39.636719 24.164062 L 39.601562 24.166016 C 39.831866 24.346134 40 24.65189 40 25 L 18 25 L 17 25 L 8 25 L 14 31 L 40 31 C 40 31.527 39.634019 32 39.199219 32 L 15 32 L 23 40 L 42.857422 40 C 44.598565 40 46 38.607835 46 36.878906 L 46 30.527344 L 39.636719 24.164062 z "
     id="rect1101" />
  <path
     style="opacity:0.3;fill:url(#linearGradient1139);fill-opacity:1;stroke:none;stroke-width:0.69316334;stroke-linecap:round;stroke-linejoin:round;stroke-miterlimit:4;stroke-dasharray:none;stroke-dashoffset:0;stroke-opacity:1;paint-order:normal"
     d="M 31.099609 19 L 31 19.078125 L 31 24 L 36.099609 24 L 31.099609 19 z "
     id="rect1109" />
  <path
     style="opacity:0.3;fill:url(#linearGradient1135);fill-opacity:1;stroke:none;stroke-width:4;stroke-linecap:round;stroke-linejoin:round;stroke-miterlimit:4;stroke-dasharray:none;stroke-dashoffset:0;stroke-opacity:1;paint-order:normal"
     d="M 40 31 C 40 31.527 39.634019 32 39.199219 32 L 8.8007812 32 C 8.6313631 32 8.4650063 31.893207 8.3242188 31.746094 L 8.2910156 31.753906 L 16.537109 40 L 42.857422 40 C 44.560812 40 45.929302 38.664937 45.988281 36.988281 L 40 31 z "
     id="rect1112" />
  <path
     style="opacity:0.3;fill:url(#linearGradient1143);fill-opacity:1;stroke:none;stroke-width:0.69316334;stroke-linecap:round;stroke-linejoin:round;stroke-miterlimit:4;stroke-dasharray:none;stroke-dashoffset:0;stroke-opacity:1;paint-order:normal"
     d="M 18 19 L 18 24 L 23 24 L 18 19 z "
     id="path1141" />
  <path
     style="fill:url(#linearGradient1159);stroke-width:0.44721368;marker:none;fill-opacity:1"
     d="M 17 19 L 17 24 L 8.8007812 24 C 8.3939813 24 8 24.446001 8 25 L 17 25 L 18 25 L 40 25 C 40 24.468 39.62402 24 39.199219 24 L 31 24 L 31 19 L 30 19 L 30 24 L 18 24 L 18 19 L 17 19 z M 8 31 C 8 31.485 8.4067814 32 8.8007812 32 L 39.199219 32 C 39.634019 32 40 31.527 40 31 L 8 31 z "
     id="path77" />
  <path
     style="fill:#000000;stroke-width:0.39147672;fill-opacity:1;opacity:0.2"
     d="M 2 35.878906 L 2 36.878906 C 2 38.607835 3.4014353 40 5.1425781 40 L 42.857422 40 C 44.598565 40 46 38.607835 46 36.878906 L 46 35.878906 C 46 37.607835 44.598565 39 42.857422 39 L 5.1425781 39 C 3.4014353 39 2 37.607835 2 35.878906 z "
     id="rect1145" />
</svg>
