<?xml version="1.0" encoding="UTF-8" standalone="no"?>
<svg
   xmlns:dc="http://purl.org/dc/elements/1.1/"
   xmlns:cc="http://creativecommons.org/ns#"
   xmlns:rdf="http://www.w3.org/1999/02/22-rdf-syntax-ns#"
   xmlns:svg="http://www.w3.org/2000/svg"
   xmlns="http://www.w3.org/2000/svg"
   xmlns:xlink="http://www.w3.org/1999/xlink"
   xmlns:sodipodi="http://sodipodi.sourceforge.net/DTD/sodipodi-0.dtd"
   xmlns:inkscape="http://www.inkscape.org/namespaces/inkscape"
   width="48"
   height="48"
   version="1"
   id="svg12"
   sodipodi:docname="solaar.svg"
   inkscape:version="0.92.3 (2405546, 2018-03-11)">
  <metadata
     id="metadata18">
    <rdf:RDF>
      <cc:Work
         rdf:about="">
        <dc:format>image/svg+xml</dc:format>
        <dc:type
           rdf:resource="http://purl.org/dc/dcmitype/StillImage" />
      </cc:Work>
    </rdf:RDF>
  </metadata>
  <defs
     id="defs16">
    <linearGradient
       inkscape:collect="always"
       id="linearGradient870">
      <stop
         style="stop-color:#ffffff;stop-opacity:1;"
         offset="0"
         id="stop866" />
      <stop
         style="stop-color:#ffffff;stop-opacity:0;"
         offset="1"
         id="stop868" />
    </linearGradient>
    <linearGradient
       inkscape:collect="always"
       id="linearGradient859">
      <stop
         style="stop-color:#000000;stop-opacity:1;"
         offset="0"
         id="stop855" />
      <stop
         style="stop-color:#000000;stop-opacity:0;"
         offset="1"
         id="stop857" />
    </linearGradient>
    <linearGradient
       inkscape:collect="always"
       id="linearGradient832">
      <stop
         style="stop-color:#018891;stop-opacity:1"
         offset="0"
         id="stop828" />
      <stop
         style="stop-color:#14ab8b;stop-opacity:1"
         offset="1"
         id="stop830" />
    </linearGradient>
    <linearGradient
       inkscape:collect="always"
       xlink:href="#linearGradient832"
       id="linearGradient834"
       x1="30.847458"
       y1="44.338982"
       x2="22.847458"
       y2="2.2372882"
       gradientUnits="userSpaceOnUse" />
    <linearGradient
       inkscape:collect="always"
       xlink:href="#linearGradient859"
       id="linearGradient861"
       x1="16.707855"
       y1="15.698753"
       x2="36.355694"
       y2="35.346592"
       gradientUnits="userSpaceOnUse" />
    <linearGradient
       inkscape:collect="always"
       xlink:href="#linearGradient870"
       id="linearGradient872"
       x1="21.473963"
       y1="8.4660196"
       x2="34.028244"
       y2="50.037071"
       gradientUnits="userSpaceOnUse" />
  </defs>
  <sodipodi:namedview
     pagecolor="#ffffff"
     bordercolor="#666666"
     borderopacity="1"
     objecttolerance="10"
     gridtolerance="10"
     guidetolerance="10"
     inkscape:pageopacity="0"
     inkscape:pageshadow="2"
     inkscape:window-width="1920"
     inkscape:window-height="1026"
     id="namedview14"
     showgrid="false"
     inkscape:zoom="11.33"
     inkscape:cx="10.760812"
     inkscape:cy="23.646955"
     inkscape:window-x="0"
     inkscape:window-y="30"
     inkscape:window-maximized="1"
     inkscape:current-layer="svg12" />
  <rect
     style="fill:url(#linearGradient834);fill-opacity:1"
     width="40"
     height="40"
     x="4"
     y="4"
     rx="8"
     ry="8"
     id="rect4" />
  <path
     style="fill:url(#linearGradient872);fill-opacity:1"
     d="M 18.732422 10.875 L 15.267578 12.875 L 18.396484 18.292969 A 8 8 0 0 0 16.265625 22 L 10 22 L 10 26 L 16.259766 26 A 8 8 0 0 0 18.398438 29.701172 L 15.267578 35.125 L 18.732422 37.125 L 21.863281 31.701172 A 8 8 0 0 0 24 32 A 8 8 0 0 0 26.140625 31.708984 L 29.267578 37.125 L 32.732422 35.125 L 29.603516 29.707031 A 8 8 0 0 0 31.734375 26 L 38 26 L 38 22 L 31.740234 22 A 8 8 0 0 0 29.601562 18.298828 L 32.732422 12.875 L 29.267578 10.875 L 26.136719 16.298828 A 8 8 0 0 0 24 16 A 8 8 0 0 0 21.859375 16.291016 L 18.732422 10.875 z M 24 19 A 5 5 0 0 1 29 24 A 5 5 0 0 1 24 29 A 5 5 0 0 1 19 24 A 5 5 0 0 1 24 19 z"
     id="path8" />
  <path
     style="opacity:0.3;fill:url(#linearGradient861);fill-opacity:1;stroke:none;stroke-width:5.00415659;stroke-linecap:round;stroke-linejoin:round;stroke-miterlimit:4;stroke-dasharray:none;stroke-dashoffset:0;stroke-opacity:1;paint-order:normal"
     d="M 18.732422 10.875 L 21.859375 16.291016 A 8 8 0 0 1 23.863281 16.005859 L 18.732422 10.875 z M 32.732422 12.875 L 29.601562 18.298828 A 8 8 0 0 1 31.740234 22 L 38 22 L 38 26 L 31.734375 26 A 8 8 0 0 1 29.603516 29.707031 L 32.732422 35.125 L 29.267578 37.125 L 26.140625 31.708984 A 8 8 0 0 1 24 32 A 8 8 0 0 1 21.863281 31.701172 L 18.732422 37.125 L 25.607422 44 L 36 44 C 40.432 44 44 40.432 44 36 L 44 24.142578 L 32.732422 12.875 z M 10 26 L 16.679688 32.679688 L 18.398438 29.701172 A 8 8 0 0 1 16.259766 26 L 10 26 z "
     id="rect842" />
  <path
     style="fill:#000000;fill-opacity:1;opacity:0.2"
     d="M 4 35 L 4 36 C 4 40.432 7.568 44 12 44 L 36 44 C 40.432 44 44 40.432 44 36 L 44 35 C 44 39.432 40.432 43 36 43 L 12 43 C 7.568 43 4 39.432 4 35 z "
     id="rect826" />
</svg>
