<?xml version="1.0" encoding="UTF-8" standalone="no"?>
<svg
   xmlns:dc="http://purl.org/dc/elements/1.1/"
   xmlns:cc="http://creativecommons.org/ns#"
   xmlns:rdf="http://www.w3.org/1999/02/22-rdf-syntax-ns#"
   xmlns:svg="http://www.w3.org/2000/svg"
   xmlns="http://www.w3.org/2000/svg"
   xmlns:xlink="http://www.w3.org/1999/xlink"
   xmlns:sodipodi="http://sodipodi.sourceforge.net/DTD/sodipodi-0.dtd"
   xmlns:inkscape="http://www.inkscape.org/namespaces/inkscape"
   width="48"
   height="48"
   version="1"
   id="svg22"
   sodipodi:docname="swell-foop.svg"
   inkscape:version="0.92.3 (2405546, 2018-03-11)">
  <metadata
     id="metadata28">
    <rdf:RDF>
      <cc:Work
         rdf:about="">
        <dc:format>image/svg+xml</dc:format>
        <dc:type
           rdf:resource="http://purl.org/dc/dcmitype/StillImage" />
      </cc:Work>
    </rdf:RDF>
  </metadata>
  <defs
     id="defs26">
    <linearGradient
       id="linearGradient850"
       inkscape:collect="always">
      <stop
         id="stop846"
         offset="0"
         style="stop-color:#1f7179;stop-opacity:1" />
      <stop
         id="stop848"
         offset="1"
         style="stop-color:#67b4d7;stop-opacity:1" />
    </linearGradient>
    <linearGradient
       inkscape:collect="always"
       id="linearGradient933">
      <stop
         style="stop-color:#ffffff;stop-opacity:1;"
         offset="0"
         id="stop929" />
      <stop
         style="stop-color:#ffffff;stop-opacity:0;"
         offset="1"
         id="stop931" />
    </linearGradient>
    <linearGradient
       inkscape:collect="always"
       id="linearGradient925">
      <stop
         style="stop-color:#ffffff;stop-opacity:1;"
         offset="0"
         id="stop921" />
      <stop
         style="stop-color:#ffffff;stop-opacity:0;"
         offset="1"
         id="stop923" />
    </linearGradient>
    <linearGradient
       inkscape:collect="always"
       id="linearGradient917">
      <stop
         style="stop-color:#000000;stop-opacity:1;"
         offset="0"
         id="stop913" />
      <stop
         style="stop-color:#000000;stop-opacity:0;"
         offset="1"
         id="stop915" />
    </linearGradient>
    <linearGradient
       inkscape:collect="always"
       id="linearGradient865">
      <stop
         style="stop-color:#428008;stop-opacity:1"
         offset="0"
         id="stop861" />
      <stop
         style="stop-color:#8aca4f;stop-opacity:1"
         offset="1"
         id="stop863" />
    </linearGradient>
    <linearGradient
       inkscape:collect="always"
       id="linearGradient857">
      <stop
         style="stop-color:#1f4a79;stop-opacity:1"
         offset="0"
         id="stop853" />
      <stop
         style="stop-color:#5491d2;stop-opacity:1"
         offset="1"
         id="stop855" />
    </linearGradient>
    <linearGradient
       inkscape:collect="always"
       xlink:href="#linearGradient850"
       id="linearGradient859"
       x1="20.745506"
       y1="23.74456"
       x2="14.728477"
       y2="5.6745505"
       gradientUnits="userSpaceOnUse" />
    <linearGradient
       inkscape:collect="always"
       xlink:href="#linearGradient865"
       id="linearGradient867"
       x1="20.367077"
       y1="43.366131"
       x2="16.715231"
       y2="25.201513"
       gradientUnits="userSpaceOnUse" />
    <linearGradient
       inkscape:collect="always"
       xlink:href="#linearGradient857"
       id="linearGradient871"
       gradientUnits="userSpaceOnUse"
       x1="20.745506"
       y1="23.74456"
       x2="14.728477"
       y2="5.6745505"
       gradientTransform="translate(20)" />
    <linearGradient
       inkscape:collect="always"
       xlink:href="#linearGradient857"
       id="linearGradient875"
       gradientUnits="userSpaceOnUse"
       gradientTransform="translate(20,20)"
       x1="20.745506"
       y1="23.74456"
       x2="14.728477"
       y2="5.6745505" />
    <linearGradient
       inkscape:collect="always"
       xlink:href="#linearGradient917"
       id="linearGradient919"
       x1="14.684089"
       y1="13.623366"
       x2="33.800152"
       y2="32.739429"
       gradientUnits="userSpaceOnUse" />
    <linearGradient
       inkscape:collect="always"
       xlink:href="#linearGradient925"
       id="linearGradient927"
       x1="10.262579"
       y1="3.0555346"
       x2="15.559473"
       y2="22.823812"
       gradientUnits="userSpaceOnUse" />
    <linearGradient
       inkscape:collect="always"
       xlink:href="#linearGradient933"
       id="linearGradient935"
       x1="11.611837"
       y1="24.46887"
       x2="17.670843"
       y2="47.081383"
       gradientUnits="userSpaceOnUse" />
    <linearGradient
       inkscape:collect="always"
       xlink:href="#linearGradient925"
       id="linearGradient939"
       gradientUnits="userSpaceOnUse"
       x1="10.262579"
       y1="3.0555346"
       x2="15.559473"
       y2="22.823812"
       gradientTransform="translate(20)" />
    <linearGradient
       inkscape:collect="always"
       xlink:href="#linearGradient925"
       id="linearGradient943"
       gradientUnits="userSpaceOnUse"
       gradientTransform="translate(20,20)"
       x1="10.262579"
       y1="3.0555346"
       x2="15.559473"
       y2="22.823812" />
  </defs>
  <sodipodi:namedview
     pagecolor="#ffffff"
     bordercolor="#666666"
     borderopacity="1"
     objecttolerance="10"
     gridtolerance="10"
     guidetolerance="10"
     inkscape:pageopacity="0"
     inkscape:pageshadow="2"
     inkscape:window-width="1920"
     inkscape:window-height="1020"
     id="namedview24"
     showgrid="true"
     inkscape:zoom="13.01"
     inkscape:cx="9.8570331"
     inkscape:cy="20.070274"
     inkscape:window-x="0"
     inkscape:window-y="30"
     inkscape:window-maximized="1"
     inkscape:current-layer="svg22">
    <inkscape:grid
       type="xygrid"
       id="grid877" />
  </sodipodi:namedview>
  <rect
     y="24"
     x="4"
     height="20"
     width="20"
     id="rect839"
     style="opacity:1;fill:url(#linearGradient867);fill-opacity:1;stroke:none;stroke-width:5.16224289;stroke-linecap:round;stroke-linejoin:round;stroke-miterlimit:4;stroke-dasharray:none;stroke-dashoffset:0;stroke-opacity:1;paint-order:normal" />
  <rect
     y="4"
     x="24"
     height="20"
     width="20"
     id="rect869"
     style="opacity:1;fill:url(#linearGradient871);fill-opacity:1;stroke:none;stroke-width:5.16224289;stroke-linecap:round;stroke-linejoin:round;stroke-miterlimit:4;stroke-dasharray:none;stroke-dashoffset:0;stroke-opacity:1;paint-order:normal" />
  <path
     id="path937"
     d="m 34,7 a 7,7 0 0 0 -7,7 7,7 0 0 0 7,7 7,7 0 0 0 7,-7 7,7 0 0 0 -7,-7 z m 0,2 a 5,5 0 0 1 5,5 5,5 0 0 1 -5,5 5,5 0 0 1 -5,-5 5,5 0 0 1 5,-5 z"
     style="fill:url(#linearGradient939);fill-opacity:1"
     inkscape:connector-curvature="0" />
  <rect
     style="opacity:1;fill:url(#linearGradient875);fill-opacity:1;stroke:none;stroke-width:5.16224289;stroke-linecap:round;stroke-linejoin:round;stroke-miterlimit:4;stroke-dasharray:none;stroke-dashoffset:0;stroke-opacity:1;paint-order:normal"
     id="rect873"
     width="20"
     height="20"
     x="24"
     y="24" />
  <path
     inkscape:connector-curvature="0"
     style="fill:url(#linearGradient943);fill-opacity:1"
     d="m 34,27 a 7,7 0 0 0 -7,7 7,7 0 0 0 7,7 7,7 0 0 0 7,-7 7,7 0 0 0 -7,-7 z m 0,2 a 5,5 0 0 1 5,5 5,5 0 0 1 -5,5 5,5 0 0 1 -5,-5 5,5 0 0 1 5,-5 z"
     id="path941" />
  <path
     style="fill:url(#linearGradient935);fill-opacity:1"
     d="M 7 27 L 7 41 L 21 41 L 21 27 L 7 27 z M 9 29 L 19 29 L 19 39 L 9 39 L 9 29 z "
     id="rect20" />
  <path
     style="opacity:0.3;fill:url(#linearGradient919);fill-opacity:1;stroke:none;stroke-width:4;stroke-linecap:round;stroke-linejoin:round;stroke-miterlimit:4;stroke-dasharray:none;stroke-dashoffset:0;stroke-opacity:1;paint-order:normal"
     d="M 24 4 L 15.955078 12.044922 L 19.068359 15.158203 L 15.158203 19.068359 L 12.044922 15.955078 L 4 24 L 24 44 L 44 44 L 44 24 L 24 4 z "
     id="rect903" />
  <rect
     style="opacity:1;fill:url(#linearGradient859);fill-opacity:1;stroke:none;stroke-width:5.16224289;stroke-linecap:round;stroke-linejoin:round;stroke-miterlimit:4;stroke-dasharray:none;stroke-dashoffset:0;stroke-opacity:1;paint-order:normal"
     id="rect835"
     width="20"
     height="20"
     x="4"
     y="4" />
  <path
     style="fill:url(#linearGradient927);fill-opacity:1"
     d="M 14 7 A 7 7 0 0 0 7 14 A 7 7 0 0 0 14 21 A 7 7 0 0 0 21 14 A 7 7 0 0 0 14 7 z M 14 9 A 5 5 0 0 1 19 14 A 5 5 0 0 1 14 19 A 5 5 0 0 1 9 14 A 5 5 0 0 1 14 9 z "
     id="circle16" />
  <rect
     style="opacity:0.2;fill:#000000;fill-opacity:1;stroke:none;stroke-width:4;stroke-linecap:round;stroke-linejoin:round;stroke-miterlimit:4;stroke-dasharray:none;stroke-dashoffset:0;stroke-opacity:1;paint-order:normal"
     id="rect945"
     width="40"
     height="1"
     x="4"
     y="43" />
</svg>
