<?xml version="1.0" encoding="UTF-8" standalone="no"?>
<!-- Created with Inkscape (http://www.inkscape.org/) -->

<svg
   sodipodi:docname="systemsettings.svg"
   inkscape:version="1.1 (c4e8f9ed74, 2021-05-24)"
   id="svg5"
   version="1.1"
   viewBox="0 0 12.7 12.7"
   height="48"
   width="48"
   xmlns:inkscape="http://www.inkscape.org/namespaces/inkscape"
   xmlns:sodipodi="http://sodipodi.sourceforge.net/DTD/sodipodi-0.dtd"
   xmlns:xlink="http://www.w3.org/1999/xlink"
   xmlns="http://www.w3.org/2000/svg"
   xmlns:svg="http://www.w3.org/2000/svg">
  <sodipodi:namedview
     id="namedview7"
     pagecolor="#ffffff"
     bordercolor="#666666"
     borderopacity="1.0"
     inkscape:pageshadow="2"
     inkscape:pageopacity="0.0"
     inkscape:pagecheckerboard="0"
     inkscape:document-units="px"
     showgrid="false"
     units="px"
     height="48px"
     inkscape:zoom="20.051528"
     inkscape:cx="23.514417"
     inkscape:cy="25.185113"
     inkscape:window-width="1920"
     inkscape:window-height="1006"
     inkscape:window-x="0"
     inkscape:window-y="0"
     inkscape:window-maximized="1"
     inkscape:current-layer="svg5" />
  <defs
     id="defs2">
    <linearGradient
       inkscape:collect="always"
       id="linearGradient1851">
      <stop
         style="stop-color:#000000;stop-opacity:1;"
         offset="0"
         id="stop1847" />
      <stop
         style="stop-color:#000000;stop-opacity:0;"
         offset="1"
         id="stop1849" />
    </linearGradient>
    <linearGradient
       inkscape:collect="always"
       id="linearGradient5518">
      <stop
         style="stop-color:#006ec8;stop-opacity:1;"
         offset="0"
         id="stop5514" />
      <stop
         style="stop-color:#0a327d;stop-opacity:1"
         offset="1"
         id="stop5516" />
    </linearGradient>
    <linearGradient
       inkscape:collect="always"
       id="linearGradient5050">
      <stop
         style="stop-color:#d2d7dc;stop-opacity:1;"
         offset="0"
         id="stop5046" />
      <stop
         style="stop-color:#ffffff;stop-opacity:1"
         offset="1"
         id="stop5048" />
    </linearGradient>
    <linearGradient
       inkscape:collect="always"
       id="linearGradient4500">
      <stop
         style="stop-color:#869099;stop-opacity:1;"
         offset="0"
         id="stop4496" />
      <stop
         style="stop-color:#4c6068;stop-opacity:1"
         offset="1"
         id="stop4498" />
    </linearGradient>
    <linearGradient
       inkscape:collect="always"
       xlink:href="#linearGradient4500"
       id="linearGradient4502"
       x1="10.412109"
       y1="11.535156"
       x2="39.051804"
       y2="42.09425"
       gradientUnits="userSpaceOnUse"
       gradientTransform="scale(0.26458333)" />
    <linearGradient
       inkscape:collect="always"
       xlink:href="#linearGradient5050"
       id="linearGradient5052"
       x1="4.2251558"
       y1="4.2523398"
       x2="7.500351"
       y2="7.4695668"
       gradientUnits="userSpaceOnUse" />
    <linearGradient
       inkscape:collect="always"
       xlink:href="#linearGradient5518"
       id="linearGradient5520"
       x1="4.8453598"
       y1="4.8562818"
       x2="7.1390219"
       y2="7.1733704"
       gradientUnits="userSpaceOnUse" />
    <linearGradient
       inkscape:collect="always"
       xlink:href="#linearGradient1851"
       id="linearGradient1853"
       x1="17.957199"
       y1="18.389811"
       x2="33.206657"
       y2="31.841217"
       gradientUnits="userSpaceOnUse" />
  </defs>
  <path
     id="path952"
     style="fill:url(#linearGradient4502);fill-opacity:1;stroke-width:6.31018"
     d="M 5.2916666,1.5875 5.0265665,3.1770669 A 3.4395833,3.4395833 0 0 0 4.2643393,3.6173502 L 2.7548705,3.05201 1.6965373,4.8854899 2.9403889,5.9097169 a 3.4395833,3.4395833 0 0 0 -0.029972,0.440283 3.4395833,3.4395833 0 0 0 0.029972,0.4402831 L 1.6965373,7.8145099 2.7548705,9.6479899 4.2643393,9.0826496 A 3.4395833,3.4395833 0 0 0 5.0265665,9.522933 L 5.2916666,11.1125 H 7.4083332 L 7.6734333,9.522933 A 3.4395833,3.4395833 0 0 0 8.4356606,9.0826496 L 9.9451294,9.6479899 11.003463,7.8145099 9.7596109,6.790283 A 3.4395833,3.4395833 0 0 0 9.7895832,6.3499999 3.4395833,3.4395833 0 0 0 9.7611611,5.9081664 L 11.003463,4.8854899 9.9451294,3.05201 8.4377278,3.6168335 A 3.4395833,3.4395833 0 0 0 7.6729166,3.175 L 7.4083332,1.5875 Z" />
  <path
     id="path1161"
     style="stroke-width:14.6766;fill-opacity:1;fill:url(#linearGradient1853);opacity:0.3"
     d="M 29.65625 18.34375 L 21.539062 20.798828 L 18.34375 29.65625 L 28.384766 39.697266 L 29.001953 35.992188 A 13 13 0 0 0 31.882812 34.328125 L 37.587891 36.464844 L 41.316406 30.003906 L 37.396484 26.083984 L 36.886719 25.664062 A 13 13 0 0 0 36.894531 25.582031 L 29.65625 18.34375 z "
     transform="scale(0.26458333)" />
  <circle
     style="fill:url(#linearGradient5052);fill-opacity:1;stroke-width:3.88319"
     id="path952-1"
     cx="6.3499999"
     cy="6.3499999"
     r="2.1166666" />
  <circle
     style="fill:url(#linearGradient5520);fill-opacity:1;stroke-width:8.67266"
     id="path4305"
     cx="6.3499999"
     cy="6.3499999"
     r="1.5875" />
</svg>
