<?xml version="1.0" encoding="UTF-8" standalone="no"?>
<!-- Created with Inkscape (http://www.inkscape.org/) -->

<svg
   width="48"
   height="48"
   viewBox="0 0 48 48.000001"
   id="svg4403"
   version="1.1"
   sodipodi:docname="system-file-manager.svg"
   inkscape:version="1.1.1 (3bf5ae0d25, 2021-09-20, custom)"
   xmlns:inkscape="http://www.inkscape.org/namespaces/inkscape"
   xmlns:sodipodi="http://sodipodi.sourceforge.net/DTD/sodipodi-0.dtd"
   xmlns:xlink="http://www.w3.org/1999/xlink"
   xmlns="http://www.w3.org/2000/svg"
   xmlns:svg="http://www.w3.org/2000/svg">
  <sodipodi:namedview
     id="namedview45"
     pagecolor="#ffffff"
     bordercolor="#666666"
     borderopacity="1.0"
     inkscape:pageshadow="2"
     inkscape:pageopacity="0.0"
     inkscape:pagecheckerboard="0"
     showgrid="false"
     inkscape:zoom="5.6568543"
     inkscape:cx="10.429825"
     inkscape:cy="1.8561553"
     inkscape:window-width="1920"
     inkscape:window-height="1019"
     inkscape:window-x="0"
     inkscape:window-y="31"
     inkscape:window-maximized="1"
     inkscape:current-layer="svg4403" />
  <defs
     id="defs4405">
    <linearGradient
       inkscape:collect="always"
       id="linearGradient1884">
      <stop
         style="stop-color:#1394dc;stop-opacity:1;"
         offset="0"
         id="stop1880" />
      <stop
         style="stop-color:#156ed0;stop-opacity:1"
         offset="1"
         id="stop1882" />
    </linearGradient>
    <linearGradient
       inkscape:collect="always"
       id="linearGradient1028">
      <stop
         style="stop-color:#fcbc19;stop-opacity:1;"
         offset="0"
         id="stop1024" />
      <stop
         style="stop-color:#f4b61f;stop-opacity:1"
         offset="1"
         id="stop1026" />
    </linearGradient>
    <linearGradient
       id="linearGradient4274">
      <stop
         id="stop4276"
         offset="0"
         style="stop-color:#ffffff;stop-opacity:1;" />
      <stop
         id="stop4278"
         offset="1"
         style="stop-color:#ffffff;stop-opacity:0.48760331" />
    </linearGradient>
    <linearGradient
       xlink:href="#linearGradient4274"
       id="linearGradient4217-2"
       gradientUnits="userSpaceOnUse"
       gradientTransform="matrix(0.69224711,0,0,0.69224711,-270.37194,-343.21469)"
       x1="390.57144"
       y1="498.298"
       x2="442.57144"
       y2="498.298" />
    <linearGradient
       xlink:href="#linearGradient4274"
       id="linearGradient4272-7"
       x1="390.57144"
       y1="498.298"
       x2="442.57144"
       y2="498.298"
       gradientUnits="userSpaceOnUse"
       gradientTransform="matrix(0.69224711,0,0,0.69224711,-271.06419,-343.21469)" />
    <linearGradient
       xlink:href="#linearGradient4274"
       id="linearGradient4217-8"
       gradientUnits="userSpaceOnUse"
       gradientTransform="matrix(0.69224711,0,0,0.69224711,-270.37116,654.1474)"
       x1="390.57144"
       y1="498.298"
       x2="442.57144"
       y2="498.298" />
    <linearGradient
       xlink:href="#linearGradient4274"
       id="linearGradient4217-6"
       gradientUnits="userSpaceOnUse"
       gradientTransform="matrix(0.69224711,0,0,0.69224711,-270.27155,1654.4354)"
       x1="390.57144"
       y1="498.298"
       x2="442.57144"
       y2="498.298" />
    <linearGradient
       xlink:href="#linearGradient4176-6"
       id="linearGradient4208"
       gradientUnits="userSpaceOnUse"
       x1="410.77142"
       y1="504.298"
       x2="441.12817"
       y2="529.38727"
       gradientTransform="matrix(0.68965512,0,0,0.66666667,-263.29061,-320.19867)" />
    <linearGradient
       xlink:href="#a"
       id="linearGradient4210"
       gradientUnits="userSpaceOnUse"
       x1="431.57144"
       y1="518.79797"
       x2="431.57144"
       y2="543.79797"
       gradientTransform="matrix(0.66666667,0,0,0.66666667,-260.77824,666.38453)" />
    <linearGradient
       id="a"
       y1="20"
       y2="44"
       x2="0"
       gradientUnits="userSpaceOnUse"
       gradientTransform="translate(447.21231,514.4414)">
      <stop
         style="stop-color:#ffffff;stop-opacity:1"
         offset="0"
         id="stop7" />
      <stop
         style="stop-color:#b5e1f6;stop-opacity:1"
         offset="1"
         id="stop9" />
    </linearGradient>
    <linearGradient
       id="linearGradient4501">
      <stop
         style="stop-color:#179577;stop-opacity:1;"
         offset="0"
         id="stop4497" />
      <stop
         style="stop-color:#1ec29a;stop-opacity:1"
         offset="1"
         id="stop4499" />
    </linearGradient>
    <linearGradient
       id="linearGradient4176-6">
      <stop
         style="stop-color:#fce798;stop-opacity:1"
         id="stop4174-6" />
      <stop
         offset="1"
         style="stop-color:#ffc937;stop-opacity:1"
         id="stop4176-6" />
    </linearGradient>
    <linearGradient
       inkscape:collect="always"
       xlink:href="#linearGradient1028"
       id="linearGradient1030"
       x1="20"
       y1="1009.3622"
       x2="20"
       y2="1020.3622"
       gradientUnits="userSpaceOnUse"
       gradientTransform="translate(0,-1004.3622)" />
    <linearGradient
       inkscape:collect="always"
       xlink:href="#linearGradient1884"
       id="linearGradient988"
       x1="8.9999905"
       y1="1029.3622"
       x2="39"
       y2="1046.3622"
       gradientUnits="userSpaceOnUse"
       gradientTransform="translate(0,1)" />
  </defs>
  <metadata
     id="metadata4408" />
  <g
     id="layer1"
     transform="translate(0,-1004.3622)">
    <path
       id="path4182"
       style="fill:url(#linearGradient1030);fill-opacity:1;fill-rule:evenodd;stroke:none;stroke-width:1px;stroke-linecap:butt;stroke-linejoin:miter;stroke-opacity:1"
       d="M 5,5 C 4.447712,5 3.999995,5.4477 4,6 v 34 c -5e-6,0.5523 0.447712,1 1,1 h 38 c 0.552288,0 1.000005,-0.4477 1,-1 V 11 c 5e-6,-0.5523 -0.447712,-1 -1,-1 H 24 L 20,5 Z"
       transform="translate(0,1004.3622)" />
    <path
       id="path4186"
       style="fill:url(#linearGradient4208);fill-opacity:1;fill-rule:evenodd;stroke:none;stroke-width:1px;stroke-linecap:butt;stroke-linejoin:miter;stroke-opacity:1"
       d="m 24,11 -4,4 H 4 v 25 c -5e-6,0.5523 0.447712,1 1,1 h 38 c 0.552288,0 1.000005,-0.4477 1,-1 V 12 c 5e-6,-0.5523 -0.447712,-1 -1,-1 z"
       transform="translate(0,1004.3622)" />
    <path
       id="path4192"
       style="fill-opacity:0.235294"
       d="m 4,39 v 1 c -5e-6,0.5523 0.447712,1 1,1 h 38 c 0.552288,0 1.000005,-0.4477 1,-1 v -1 c 5e-6,0.5523 -0.447712,1 -1,1 H 5 C 4.447712,40 3.999995,39.5523 4,39 Z"
       transform="translate(0,1004.3622)" />
    <rect
       y="1012.3622"
       x="6.0000114"
       height="2.9999995"
       width="11.999999"
       id="rect4194"
       style="fill:#000000;fill-opacity:0.235294;stroke:none" />
    <rect
       style="fill:#ffffff;fill-opacity:1;stroke:none"
       id="rect4196"
       width="10"
       height="1"
       x="7.0000114"
       y="1013.3622" />
    <path
       id="path4198"
       d="M 6.99999,1013.3622 H 11 v 1 H 6.99999 Z"
       style="fill:#62bdee;fill-opacity:1;stroke:none" />
    <path
       id="path4282"
       style="opacity:1;fill:#ffffff;fill-opacity:0.235294;fill-rule:evenodd"
       d="m 20,5 4,6 h 1 18 c 0.552288,0 1.000005,0.4477 1,1 v -1 c 5e-6,-0.5523 -0.447712,-1 -1,-1 H 25 24 Z"
       transform="translate(0,1004.3622)" />
    <path
       id="path4224-3-6"
       style="opacity:1;fill:#ffffff;fill-opacity:0.235294;fill-rule:evenodd"
       d="m 24,11 -4,4 H 4 v 1 1 c -5e-6,-0.5523 0.447712,-1 1,-1 h 15 z"
       transform="translate(0,1004.3622)" />
    <path
       d="m 4,1018.3622 v 1 h 16 l 4,-4 -5,3 z"
       id="path4310"
       style="fill:#000000;fill-opacity:0.235294;fill-rule:evenodd" />
    <path
       id="rect882"
       style="opacity:1;fill:url(#linearGradient988);stroke-width:0.811679"
       d="m 12,1034.3622 h 24 c 1.108,0 2,0.892 2,2 v 9 H 10 v -9 c 0,-1.108 0.892,-2 2,-2 z"
       sodipodi:nodetypes="sssccss" />
    <rect
       style="opacity:0.2;fill:#000000;stroke-width:0.881338"
       id="rect4701"
       width="20"
       height="2"
       x="14"
       y="1039.3622"
       ry="1" />
  </g>
</svg>
