<?xml version="1.0" encoding="UTF-8" standalone="no"?>
<svg
   xmlns:dc="http://purl.org/dc/elements/1.1/"
   xmlns:cc="http://creativecommons.org/ns#"
   xmlns:rdf="http://www.w3.org/1999/02/22-rdf-syntax-ns#"
   xmlns:svg="http://www.w3.org/2000/svg"
   xmlns="http://www.w3.org/2000/svg"
   xmlns:xlink="http://www.w3.org/1999/xlink"
   xmlns:sodipodi="http://sodipodi.sourceforge.net/DTD/sodipodi-0.dtd"
   xmlns:inkscape="http://www.inkscape.org/namespaces/inkscape"
   width="48"
   height="48"
   version="1"
   id="svg16"
   sodipodi:docname="veracrypt.svg"
   inkscape:version="0.92.3 (2405546, 2018-03-11)">
  <metadata
     id="metadata22">
    <rdf:RDF>
      <cc:Work
         rdf:about="">
        <dc:format>image/svg+xml</dc:format>
        <dc:type
           rdf:resource="http://purl.org/dc/dcmitype/StillImage" />
      </cc:Work>
    </rdf:RDF>
  </metadata>
  <defs
     id="defs20">
    <linearGradient
       inkscape:collect="always"
       id="linearGradient1040">
      <stop
         style="stop-color:#d0d0d0;stop-opacity:1"
         offset="0"
         id="stop1036" />
      <stop
         style="stop-color:#f1f1f1;stop-opacity:1"
         offset="1"
         id="stop1038" />
    </linearGradient>
    <linearGradient
       inkscape:collect="always"
       id="linearGradient1032">
      <stop
         style="stop-color:#000000;stop-opacity:1;"
         offset="0"
         id="stop1028" />
      <stop
         style="stop-color:#000000;stop-opacity:0;"
         offset="1"
         id="stop1030" />
    </linearGradient>
    <linearGradient
       inkscape:collect="always"
       xlink:href="#linearGradient1032"
       id="linearGradient1034"
       x1="19"
       y1="16"
       x2="37.532936"
       y2="34.532936"
       gradientUnits="userSpaceOnUse" />
    <linearGradient
       inkscape:collect="always"
       xlink:href="#linearGradient1040"
       id="linearGradient1042"
       x1="32.388218"
       y1="43.544846"
       x2="24.380188"
       y2="3.9196787"
       gradientUnits="userSpaceOnUse" />
  </defs>
  <sodipodi:namedview
     pagecolor="#ffffff"
     bordercolor="#666666"
     borderopacity="1"
     objecttolerance="10"
     gridtolerance="10"
     guidetolerance="10"
     inkscape:pageopacity="0"
     inkscape:pageshadow="2"
     inkscape:window-width="1920"
     inkscape:window-height="1026"
     id="namedview18"
     showgrid="false"
     inkscape:zoom="14.94"
     inkscape:cx="13.959839"
     inkscape:cy="23.732262"
     inkscape:window-x="0"
     inkscape:window-y="30"
     inkscape:window-maximized="1"
     inkscape:current-layer="svg16">
    <inkscape:grid
       type="xygrid"
       id="grid962" />
  </sodipodi:namedview>
  <path
     style="opacity:1;fill:url(#linearGradient1042);fill-opacity:1;stroke:none;stroke-width:3.49879646;stroke-linecap:round;stroke-linejoin:round;stroke-miterlimit:4;stroke-dasharray:none;stroke-dashoffset:0;stroke-opacity:1;paint-order:normal"
     d="M 13,5.0000001 H 35 L 46,24 35,43 H 13 L 1.9999999,24 Z"
     id="path939"
     inkscape:connector-curvature="0" />
  <path
     style="opacity:0.3;fill:url(#linearGradient1034);fill-opacity:1;stroke:none;stroke-width:5.39359903;stroke-linecap:round;stroke-linejoin:round;stroke-miterlimit:4;stroke-dasharray:none;stroke-dashoffset:0;stroke-opacity:1;paint-order:normal"
     d="M 37.822266 16 L 34.410156 19.410156 L 33 18 L 30 19 L 27.34375 23.65625 L 27.84375 24.15625 L 25.390625 26.609375 L 14.787109 16.003906 L 15 21 L 19.408203 31.939453 L 30.46875 43 L 35 43 L 45.935547 24.113281 L 37.822266 16 z "
     id="rect1016" />
  <g
     id="g4146"
     transform="matrix(0.09386072,0,0,-0.0940349,12.483759,20.003526)">
    <path
       d="m 0,0 -24.56,42.513 49.098,0.013 z"
       style="fill:#20acd9;fill-opacity:1;fill-rule:nonzero;stroke:none"
       id="path4148"
       inkscape:connector-curvature="0" />
  </g>
  <g
     id="g4150"
     transform="matrix(0.09386072,0,0,-0.0940349,12.482708,20.003244)">
    <path
       d="M 0,0 24.549,42.52 49.098,0 Z"
       style="fill:#27a7d4;fill-opacity:1;fill-rule:nonzero;stroke:none"
       id="path4152"
       inkscape:connector-curvature="0" />
  </g>
  <g
     id="g4154"
     transform="matrix(0.09386072,0,0,-0.0940349,14.787974,24.002163)">
    <path
       d="m 0,0 -24.56,42.513 49.098,0.013 z"
       style="fill:#259ed2;fill-opacity:1;fill-rule:nonzero;stroke:none"
       id="path4156"
       inkscape:connector-curvature="0" />
  </g>
  <g
     id="g4158"
     transform="matrix(0.09386072,0,0,-0.0940349,14.786923,24.00189)">
    <path
       d="M 0,0 24.549,42.52 49.098,0 Z"
       style="fill:#2a8ece;fill-opacity:1;fill-rule:nonzero;stroke:none"
       id="path4160"
       inkscape:connector-curvature="0" />
  </g>
  <g
     id="g4162"
     transform="matrix(0.09386072,0,0,-0.0940349,17.092142,28.001081)">
    <path
       d="m 0,0 -24.56,42.513 49.098,0.013 z"
       style="fill:#3088c8;fill-opacity:1;fill-rule:nonzero;stroke:none"
       id="path4164"
       inkscape:connector-curvature="0" />
  </g>
  <g
     id="g4166"
     transform="matrix(0.09386072,0,0,-0.0940349,17.091091,28.000809)">
    <path
       d="M 0,0 24.549,42.52 49.098,0 Z"
       style="fill:#357abe;fill-opacity:1;fill-rule:nonzero;stroke:none"
       id="path4168"
       inkscape:connector-curvature="0" />
  </g>
  <g
     id="g4170"
     transform="matrix(0.09386072,0,0,-0.0940349,19.396319,32)">
    <path
       d="m 0,0 -24.56,42.513 49.098,0.013 z"
       style="fill:#3a6db3;fill-opacity:1;fill-rule:nonzero;stroke:none"
       id="path4172"
       inkscape:connector-curvature="0" />
  </g>
  <g
     id="g4174"
     transform="matrix(0.09386072,0,0,-0.0940349,19.395259,31.999718)">
    <path
       d="M 0,0 24.549,42.52 49.098,0 Z"
       style="fill:#22697d;fill-opacity:1;fill-rule:nonzero;stroke:none"
       id="path4176"
       inkscape:connector-curvature="0" />
  </g>
  <g
     id="g4178"
     transform="matrix(0.09386072,0,0,-0.0940349,24.004702,32)">
    <path
       d="m 0,0 -24.56,42.513 49.098,0.013 z"
       style="fill:#3a9ab1;fill-opacity:1;fill-rule:nonzero;stroke:none"
       id="path4180"
       inkscape:connector-curvature="0" />
  </g>
  <g
     id="g4182"
     transform="matrix(0.09386072,0,0,-0.0940349,21.699389,28.000809)">
    <path
       d="M 0,0 24.549,42.52 49.098,0 Z"
       style="fill:#3aa6ae;fill-opacity:1;fill-rule:nonzero;stroke:none"
       id="path4184"
       inkscape:connector-curvature="0" />
  </g>
  <g
     id="g4186"
     transform="matrix(0.09386072,0,0,-0.0940349,26.308964,28.000668)">
    <path
       d="m 0,0 -24.56,42.513 49.098,0.013 z"
       style="fill:#3bacac;fill-opacity:1;fill-rule:nonzero;stroke:none"
       id="path4188"
       inkscape:connector-curvature="0" />
  </g>
  <g
     id="g4190"
     transform="matrix(0.09386072,0,0,-0.0940349,24.003651,24.001476)">
    <path
       d="M 0,0 24.549,42.52 49.099,0 Z"
       style="fill:#3daaa0;fill-opacity:1;fill-rule:nonzero;stroke:none"
       id="path4192"
       inkscape:connector-curvature="0" />
  </g>
  <g
     id="g4194"
     transform="matrix(0.09386072,0,0,-0.0940349,28.613179,24.002304)">
    <path
       d="m 0,0 -24.56,42.513 49.099,0.013 z"
       style="fill:#3faa8d;fill-opacity:1;fill-rule:nonzero;stroke:none"
       id="path4196"
       inkscape:connector-curvature="0" />
  </g>
  <g
     id="g4198"
     transform="matrix(0.09386072,0,0,-0.0940349,26.307913,20.003112)">
    <path
       d="M 0,0 24.549,42.52 49.098,0 Z"
       style="fill:#40ab86;fill-opacity:1;fill-rule:nonzero;stroke:none"
       id="path4200"
       inkscape:connector-curvature="0" />
  </g>
  <g
     id="g4202"
     transform="matrix(0.09386072,0,0,-0.0940349,26.318134,27.996493)">
    <path
       d="m 0,0 -24.561,42.513 49.099,0.013 z"
       style="fill:#2f6b54;fill-opacity:1;fill-rule:nonzero;stroke:none"
       id="path4204"
       inkscape:connector-curvature="0" />
  </g>
  <g
     id="g4206"
     transform="matrix(0.09386072,0,0,-0.0940349,24.012859,23.997292)">
    <path
       d="M 0,0 24.549,42.52 49.098,0 Z"
       style="fill:#44b496;fill-opacity:1;fill-rule:nonzero;stroke:none"
       id="path4208"
       inkscape:connector-curvature="0" />
  </g>
  <g
     id="g4210"
     transform="matrix(0.09386072,0,0,-0.0940349,28.622349,23.997705)">
    <path
       d="m 0,0 -24.559,42.513 49.098,0.013 z"
       style="fill:#52b89b;fill-opacity:1;fill-rule:nonzero;stroke:none"
       id="path4212"
       inkscape:connector-curvature="0" />
  </g>
  <g
     id="g4214"
     transform="matrix(0.09386072,0,0,-0.0940349,26.317036,19.998514)">
    <path
       d="M 0,0 24.549,42.52 49.098,0 Z"
       style="fill:#5cba9d;fill-opacity:1;fill-rule:nonzero;stroke:none"
       id="path4216"
       inkscape:connector-curvature="0" />
  </g>
  <g
     id="g4218"
     transform="matrix(0.09386072,0,0,-0.0940349,30.926705,19.998928)">
    <path
       d="m 0,0 -24.561,42.513 49.098,0.013 z"
       style="fill:#6fc0a6;fill-opacity:1;fill-rule:nonzero;stroke:none"
       id="path4220"
       inkscape:connector-curvature="0" />
  </g>
  <g
     id="g4222"
     transform="matrix(0.09386072,0,0,-0.0940349,30.90874,20.003244)">
    <path
       d="M 0,0 24.549,42.52 49.1,0 Z"
       style="fill:#88c9b2;fill-opacity:1;fill-rule:nonzero;stroke:none"
       id="path4224"
       inkscape:connector-curvature="0" />
  </g>
  <g
     id="g4226"
     transform="matrix(0.09386072,0,0,-0.0940349,35.51671,19.998749)">
    <path
       d="M 0,0 -24.543,42.522 24.555,42.516 Z"
       style="fill:#99d0bb;fill-opacity:1;fill-rule:nonzero;stroke:none"
       id="path4228"
       inkscape:connector-curvature="0" />
  </g>
  <g
     id="g4230"
     transform="matrix(0.09386072,0,0,-0.0940349,26.306214,27.983215)">
    <path
       d="M 0,0 24.786,42.383 49.098,-0.273 Z"
       style="fill:#37a084;fill-opacity:1;fill-rule:nonzero;stroke:none"
       id="path4232"
       inkscape:connector-curvature="0" />
  </g>
  <g
     id="g4234"
     transform="matrix(0.09386072,0,0,-0.0940349,28.604751,31.994574)">
    <path
       d="M 0,0 24.549,42.52 49.1,0 Z"
       style="fill:#35896c;fill-opacity:1;fill-rule:nonzero;stroke:none"
       id="path4236"
       inkscape:connector-curvature="0" />
  </g>
  <g
     id="g4238"
     transform="matrix(0.09386072,0,0,-0.0940349,33.214194,31.994988)">
    <path
       d="m 0,0 -24.559,42.513 49.098,0.013 z"
       style="fill:#379b7f;fill-opacity:1;fill-rule:nonzero;stroke:none"
       id="path4240"
       inkscape:connector-curvature="0" />
  </g>
  <g
     id="g4242"
     transform="matrix(0.09386072,0,0,-0.0940349,33.213087,31.99417)">
    <path
       d="M 0,0 24.549,42.52 49.098,0 Z"
       style="fill:#3bad91;fill-opacity:1;fill-rule:nonzero;stroke:none"
       id="path4244"
       inkscape:connector-curvature="0" />
  </g>
  <g
     id="g4246"
     transform="matrix(0.09386072,0,0,-0.0940349,28.605849,31.994988)">
    <path
       d="m 0,0 -24.56,42.513 49.097,0.013 z"
       style="fill:#368f74;fill-opacity:1;fill-rule:nonzero;stroke:none"
       id="path4248"
       inkscape:connector-curvature="0" />
  </g>
  <path
     style="opacity:0.2;fill:#000000;fill-opacity:1;stroke:none;stroke-width:3.49879646;stroke-linecap:round;stroke-linejoin:round;stroke-miterlimit:4;stroke-dasharray:none;stroke-dashoffset:0;stroke-opacity:1;paint-order:normal"
     d="M 2.2890625 23.5 L 2 24 L 13 43 L 35 43 L 46 24 L 45.710938 23.5 L 35 42 L 13 42 L 2.2890625 23.5 z "
     id="path877" />
</svg>
