<?xml version="1.0" encoding="UTF-8" standalone="no"?>
<svg
   xmlns:dc="http://purl.org/dc/elements/1.1/"
   xmlns:cc="http://creativecommons.org/ns#"
   xmlns:rdf="http://www.w3.org/1999/02/22-rdf-syntax-ns#"
   xmlns:svg="http://www.w3.org/2000/svg"
   xmlns="http://www.w3.org/2000/svg"
   xmlns:sodipodi="http://sodipodi.sourceforge.net/DTD/sodipodi-0.dtd"
   xmlns:inkscape="http://www.inkscape.org/namespaces/inkscape"
   width="16"
   height="16"
   version="1.1"
   id="svg4"
   sodipodi:docname="auth-sim-locked-symbolic.svg"
   inkscape:version="0.92.3 (2405546, 2018-03-11)">
  <metadata
     id="metadata10">
    <rdf:RDF>
      <cc:Work
         rdf:about="">
        <dc:format>image/svg+xml</dc:format>
        <dc:type
           rdf:resource="http://purl.org/dc/dcmitype/StillImage" />
        <dc:title />
      </cc:Work>
    </rdf:RDF>
  </metadata>
  <defs
     id="defs8" />
  <sodipodi:namedview
     pagecolor="#ffffff"
     bordercolor="#666666"
     borderopacity="1"
     objecttolerance="10"
     gridtolerance="10"
     guidetolerance="10"
     inkscape:pageopacity="0"
     inkscape:pageshadow="2"
     inkscape:window-width="1920"
     inkscape:window-height="1026"
     id="namedview6"
     showgrid="true"
     inkscape:zoom="41.72"
     inkscape:cx="5.8268973"
     inkscape:cy="5.6151592"
     inkscape:window-x="0"
     inkscape:window-y="30"
     inkscape:window-maximized="1"
     inkscape:current-layer="svg4">
    <inkscape:grid
       type="xygrid"
       id="grid838" />
  </sodipodi:namedview>
  <path
     style="fill:#eff0f1;fill-opacity:1"
     d="M 4 0 C 2 0 2 2 2 2 L 2 14 C 2 16 4 16 4 16 L 9 16 L 9 15 L 4 15 C 4 15 3.7087456 14.986209 3.4472656 14.855469 C 3.1857756 14.724729 3 14.66667 3 14 L 3 2 C 3 2 3.0137913 1.7087456 3.1445312 1.4472656 C 3.2752714 1.1857756 3.33333 1 4 1 L 10.585938 1 L 13 3.4140625 L 13 8 L 14 8 L 14 3 L 11 0 L 4 0 z M 5 6 C 4 6 4 7 4 7 L 3.9980469 8.0058594 L 5.9980469 8.0058594 L 5.9980469 6.0058594 L 5 6 z M 11 6 L 9.9980469 6.0019531 L 9.9980469 8 L 11.998047 8 L 12 7 C 12 7 12 6 11 6 z M 6.9980469 6.0058594 L 6.9980469 8.0058594 L 8.9980469 8.0058594 L 8.9980469 6.0058594 L 6.9980469 6.0058594 z M 3.9980469 9.0019531 L 3.9980469 11.001953 L 9 11.001953 L 9 9.0019531 L 3.9980469 9.0019531 z M 3.9980469 12.001953 L 4 13 C 4 13 4 14 5 14 L 5.9980469 14.001953 L 5.9980469 12.001953 L 3.9980469 12.001953 z M 6.9980469 12.001953 L 6.9980469 14.001953 L 8.9980469 14.001953 L 8.9980469 12.001953 L 6.9980469 12.001953 z "
     id="path831" />
  <path
     inkscape:connector-curvature="0"
     id="path2"
     style="font-weight:400;font-family:Sans;text-indent:0;text-decoration:none;text-decoration-line:none;text-transform:none;overflow:visible;fill:#eff0f1;fill-opacity:1;stroke-width:0.99367654"
     overflow="visible"
     font-weight="400"
     d="M 12.984925,9 C 11.889447,9 11,9.8635789 11,10.934456 v 1.066035 H 10 V 16 h 6 V 11.999509 H 15 V 10.934456 C 15,9.8635789 14.078392,9 12.984925,9 Z m 0,1 C 13.533668,10 14,10.39214 14,10.934456 v 1.066035 H 12 V 10.934456 C 12,10.39214 12.435176,10 12.984925,10 Z"
     sodipodi:nodetypes="ssccccccssssccss" />
</svg>
