<?xml version="1.0" encoding="UTF-8" standalone="no"?>
<svg
   xmlns:dc="http://purl.org/dc/elements/1.1/"
   xmlns:cc="http://creativecommons.org/ns#"
   xmlns:rdf="http://www.w3.org/1999/02/22-rdf-syntax-ns#"
   xmlns:svg="http://www.w3.org/2000/svg"
   xmlns="http://www.w3.org/2000/svg"
   xmlns:xlink="http://www.w3.org/1999/xlink"
   xmlns:sodipodi="http://sodipodi.sourceforge.net/DTD/sodipodi-0.dtd"
   xmlns:inkscape="http://www.inkscape.org/namespaces/inkscape"
   width="16"
   height="16"
   viewBox="0 0 16 16"
   version="1.1"
   id="svg974"
   inkscape:version="1.0.1 (3bc2e813f5, 2020-09-07)"
   sodipodi:docname="weather-overcast-small.svg">
  <defs
     id="defs968">
    <linearGradient
       inkscape:collect="always"
       id="linearGradient1581">
      <stop
         style="stop-color:#eff1f1;stop-opacity:1;"
         offset="0"
         id="stop1577" />
      <stop
         style="stop-color:#dfdfdf;stop-opacity:1"
         offset="1"
         id="stop1579" />
    </linearGradient>
    <linearGradient
       inkscape:collect="always"
       xlink:href="#linearGradient1581"
       id="linearGradient1583"
       x1="9.3291922"
       y1="5.4036694"
       x2="11.639751"
       y2="13.950253"
       gradientUnits="userSpaceOnUse"
       gradientTransform="translate(-0.99999994,-0.9998858)" />
    <linearGradient
       inkscape:collect="always"
       xlink:href="#linearGradient1581"
       id="linearGradient1673"
       gradientUnits="userSpaceOnUse"
       gradientTransform="translate(-0.99999994,-0.9998858)"
       x1="9.3291922"
       y1="5.4036694"
       x2="11.639751"
       y2="13.950253" />
  </defs>
  <sodipodi:namedview
     id="base"
     pagecolor="#ffffff"
     bordercolor="#666666"
     borderopacity="1.0"
     inkscape:pageopacity="0.0"
     inkscape:pageshadow="2"
     inkscape:zoom="10.0625"
     inkscape:cx="-4.3828903"
     inkscape:cy="10.62582"
     inkscape:document-units="px"
     inkscape:current-layer="svg974"
     inkscape:document-rotation="0"
     showgrid="false"
     units="px"
     inkscape:window-width="1177"
     inkscape:window-height="914"
     inkscape:window-x="52"
     inkscape:window-y="52"
     inkscape:window-maximized="0" />
  <metadata
     id="metadata971">
    <rdf:RDF>
      <cc:Work
         rdf:about="">
        <dc:format>image/svg+xml</dc:format>
        <dc:type
           rdf:resource="http://purl.org/dc/dcmitype/StillImage" />
        <dc:title></dc:title>
      </cc:Work>
    </rdf:RDF>
  </metadata>
  <path
     id="path1539-2"
     style="fill:#bcbebe;fill-opacity:1;stroke-width:1.13137"
     d="M 8.939453,3.0001147 C 7.516039,3.0217647 6.211395,3.7983067 5.513672,5.0391767 4.510928,5.1779989 4,8.0001147 4,8.0001147 4,9.6569692 4.343146,11.000115 6,11.000115 h 6.5 c 1.380712,0 2.5,-1.1192878 2.5,-2.5000003 -2.05e-4,-1.234244 -0.901108,-2.283638 -2.121094,-2.470703 C 12.433672,4.2495677 10.834687,3.0008137 9,3.0001147 c -0.02018,-1.53e-4 -0.04036,-1.53e-4 -0.06055,0 z"
     sodipodi:nodetypes="cccccccccc" />
  <path
     id="path1539"
     style="fill:url(#linearGradient1673);fill-opacity:1;stroke-width:1.13137"
     d="M 6.9394532,5.0001142 C 5.516039,5.0217675 4.2113946,5.7983061 3.513672,7.0391767 2.0637229,7.2773777 0.99969686,8.5307293 1.0000001,10.000114 c 0,1.656854 1.3431458,3 3,3 H 10.5 c 1.380712,0 2.5,-1.119288 2.5,-2.5 C 12.999795,9.2658702 12.098892,8.2164761 10.878906,8.0294111 10.433672,6.2495674 8.8346871,5.0008132 7.0000001,5.0001142 c -0.020182,-1.527e-4 -0.040365,-1.527e-4 -0.060547,0 z"
     sodipodi:nodetypes="ccccccccc" />
  <path
     id="path1539-6"
     style="opacity:0.2;fill:#000000;fill-opacity:1;stroke-width:1.13137"
     d="m 1.0234376,9.7383952 c -0.00767,0.087397 -0.0234559,0.172553 -0.023437,0.2617188 0,1.656854 1.3431458,3 3,3 H 10.5 c 1.380712,0 2.5,-1.119288 2.5,-2.5 -1.5e-5,-0.08976 -0.01412,-0.176126 -0.02344,-0.263672 -0.120745,1.268157 -1.176778,2.263672 -2.47656,2.263672 H 4.0000001 c -1.5753609,0 -2.8533024,-1.218068 -2.9765625,-2.7617188 z" />
</svg>
