<?xml version="1.0" encoding="UTF-8" standalone="no"?>
<svg xmlns="http://www.w3.org/2000/svg" xmlns:xlink="http://www.w3.org/1999/xlink" width="48" height="48" version="1.1">
 <defs>
  <linearGradient id="linearGradient4226">
   <stop offset="0" style="stop-color:#0275ea;stop-opacity:1"/>
   <stop offset="1" style="stop-color:#19b5fe;stop-opacity:1"/>
  </linearGradient>
  <linearGradient xlink:href="#linearGradient4226" id="linearGradient4224" x1="512" y1="986.736" x2="512" y2="37.264" gradientUnits="userSpaceOnUse" gradientTransform="matrix(0.04243831,0,0,0.04212864,386.84302,502.22814)"/>
 </defs>
 <g transform="translate(-384.57143,-499.798)">
  <rect ry="0" rx="0" y="503.8" x="388.57" height="40" width="40" style="opacity:1;fill:url(#linearGradient4224);fill-opacity:1;fill-rule:nonzero;stroke:none;stroke-width:1.82196355;stroke-linecap:butt;stroke-linejoin:bevel;stroke-miterlimit:1;stroke-dasharray:none;stroke-dashoffset:0;stroke-opacity:1"/>
  <path d="m 389.57143,504.798 0,38 38,0 0,-38 -38,0 z m 1,1 8,0 0,9 -8,0 0,-9 z m 9,0 8,0 0,9 -8,0 0,-9 z m 9,0 8,0 0,9 -8,0 0,-9 z m 9,0 9,0 0,9 -9,0 0,-9 z m -27,10 8,0 0,8 -8,0 0,-8 z m 9,0 8,0 0,8 -8,0 0,-8 z m 9,0 8,0 0,8 -8,0 0,-8 z m 9,0 9,0 0,8 -9,0 0,-8 z m -27,9 8,0 0,8 -8,0 0,-8 z m 9,0 8,0 0,8 -8,0 0,-8 z m 9,0 8,0 0,8 -8,0 0,-8 z m 9,0 9,0 0,8 -9,0 0,-8 z m -27,9 8,0 0,8 -8,0 0,-8 z m 9,0 8,0 0,8 -8,0 0,-8 z m 9,0 8,0 0,8 -8,0 0,-8 z m 9,0 9,0 0,8 -9,0 0,-8 z" style="opacity:1;fill:#fcfcfc;fill-opacity:0.31372549;stroke:none;stroke-width:2;stroke-linecap:square;stroke-linejoin:miter;stroke-miterlimit:4;stroke-dasharray:none;stroke-opacity:1"/>
  <path d="m 403.57143,516.798 a 2.0000001,1.9999999 0 0 0 -2,2 2.0000001,1.9999999 0 0 0 2,2 2.0000001,1.9999999 0 0 0 2,-2 2.0000001,1.9999999 0 0 0 -2,-2 z m 0,1 a 1,0.99999994 0 0 1 1,1 1,0.99999994 0 0 1 -1,1 1,0.99999994 0 0 1 -1,-1 1,0.99999994 0 0 1 1,-1 z" style="opacity:1;fill:#eff0f1;fill-opacity:1;stroke:none;stroke-width:2;stroke-linecap:square;stroke-linejoin:miter;stroke-miterlimit:4;stroke-dasharray:none;stroke-opacity:1"/>
  <path d="m 413.57143,516.798 a 2.0000001,1.9999999 0 0 0 -2,2 2.0000001,1.9999999 0 0 0 2,2 2.0000001,1.9999999 0 0 0 2,-2 2.0000001,1.9999999 0 0 0 -2,-2 z m 0,1 a 1,0.99999994 0 0 1 1,1 1,0.99999994 0 0 1 -1,1 1,0.99999994 0 0 1 -1,-1 1,0.99999994 0 0 1 1,-1 z" style="opacity:1;fill:#eff0f1;fill-opacity:1;stroke:none;stroke-width:2;stroke-linecap:square;stroke-linejoin:miter;stroke-miterlimit:4;stroke-dasharray:none;stroke-opacity:1"/>
  <path d="m 399.84361,507.24175 a 2,2 0 0 0 -1.3935,-0.56486 2,2 0 0 0 -1.99979,1.99979 2,2 0 0 0 0.58696,1.41283 l -0.001,0.001 0.0207,0.0207 4.22193,4.22192 0.001,-0.001 a 2,2 0 0 0 1.41283,0.58696 2,2 0 0 0 1.99979,-1.99979 2,2 0 0 0 -0.58696,-1.41283 l 0.001,-0.001 -0.0207,-0.0207 -4.22192,-4.22192 -0.001,0.001 a 2,2 0 0 0 -0.0193,-0.0221 z m -0.68639,0.72782 1.22362,1.22363 1.79539,1.79539 1.22363,1.22362 a 0.99999996,0.99999994 0 0 1 0.01,0.01 0.99999996,0.99999994 0 0 1 0.28312,0.69744 0.99999996,0.99999994 0 0 1 -0.99989,0.99989 0.99999996,0.99999994 0 0 1 -0.70711,-0.29278 l -1.22362,-1.22363 -1.79539,-1.79539 -1.22363,-1.22362 a 0.99999996,0.99999994 0 0 1 -0.29278,-0.70711 0.99999996,0.99999994 0 0 1 0.99989,-0.99989 0.99999996,0.99999994 0 0 1 0.70711,0.29278 z" style="opacity:1;fill:#eff0f1;fill-opacity:1;stroke:none;stroke-width:2;stroke-linecap:square;stroke-linejoin:miter;stroke-miterlimit:4;stroke-dasharray:none;stroke-opacity:1"/>
  <path d="m 417.29925,507.24175 a 2,2 0 0 1 1.3935,-0.56486 2,2 0 0 1 1.99978,1.99979 2,2 0 0 1 -0.58695,1.41283 l 0.001,0.001 -0.0207,0.0207 -4.22192,4.22192 -0.001,-0.001 a 2,2 0 0 1 -1.41283,0.58696 2,2 0 0 1 -1.99979,-1.99979 2,2 0 0 1 0.58696,-1.41283 l -0.001,-0.001 0.0207,-0.0207 4.22192,-4.22192 0.001,0.001 a 2,2 0 0 1 0.0193,-0.0221 z m 0.6864,0.72782 -1.22363,1.22363 -1.79539,1.79539 -1.22363,1.22362 a 0.99999996,0.99999994 0 0 0 -0.01,0.01 0.99999996,0.99999994 0 0 0 -0.28311,0.69744 0.99999996,0.99999994 0 0 0 0.99989,0.99989 0.99999996,0.99999994 0 0 0 0.70711,-0.29278 l 1.22362,-1.22363 1.79539,-1.79539 1.22363,-1.22362 a 0.99999996,0.99999994 0 0 0 0.29278,-0.70711 0.99999996,0.99999994 0 0 0 -0.99989,-0.99989 0.99999996,0.99999994 0 0 0 -0.7071,0.29278 z" style="opacity:1;fill:#eff0f1;fill-opacity:1;stroke:none;stroke-width:2;stroke-linecap:square;stroke-linejoin:miter;stroke-miterlimit:4;stroke-dasharray:none;stroke-opacity:1"/>
  <path style="opacity:0.2;fill:#383e51;fill-opacity:1;fill-rule:evenodd;stroke:none;stroke-width:1px;stroke-linecap:butt;stroke-linejoin:miter;stroke-opacity:1" d="m 428.57144,525.798 -12,-12 3.99999,5 1,6 -26,0 1,1 25,0 0,15 -26,0 3,2.99997 30,0 z"/>
  <path style="opacity:1;fill:#eff0f1;fill-opacity:1;stroke:none;stroke-width:2;stroke-linecap:square;stroke-linejoin:miter;stroke-miterlimit:4;stroke-dasharray:none;stroke-opacity:1" d="M 24 11 A 13 13 0 0 0 11 24 L 11 25 L 37 25 L 37 24 A 13 13 0 0 0 24 11 z M 24 12 A 11.999999 12 0 0 1 36 24 L 12 24 A 11.999999 12 0 0 1 24 12 z M 11 26 L 11 41 L 37 41 L 37 26 L 11 26 z M 12 27 L 36 27 L 36 40 L 12 40 L 12 27 z" transform="translate(384.57143,499.798)"/>
 </g>
</svg>
