<?xml version="1.0" encoding="UTF-8" standalone="no"?>
<svg
   xmlns:dc="http://purl.org/dc/elements/1.1/"
   xmlns:cc="http://creativecommons.org/ns#"
   xmlns:rdf="http://www.w3.org/1999/02/22-rdf-syntax-ns#"
   xmlns:svg="http://www.w3.org/2000/svg"
   xmlns="http://www.w3.org/2000/svg"
   xmlns:xlink="http://www.w3.org/1999/xlink"
   xmlns:sodipodi="http://sodipodi.sourceforge.net/DTD/sodipodi-0.dtd"
   xmlns:inkscape="http://www.inkscape.org/namespaces/inkscape"
   width="48"
   height="48"
   version="1.1"
   id="svg33"
   sodipodi:docname="gnome-boxes.svg"
   inkscape:version="0.92.1 r15371">
  <metadata
     id="metadata37">
    <rdf:RDF>
      <cc:Work
         rdf:about="">
        <dc:format>image/svg+xml</dc:format>
        <dc:type
           rdf:resource="http://purl.org/dc/dcmitype/StillImage" />
        <dc:title></dc:title>
      </cc:Work>
    </rdf:RDF>
  </metadata>
  <sodipodi:namedview
     pagecolor="#ffffff"
     bordercolor="#666666"
     borderopacity="1"
     objecttolerance="10"
     gridtolerance="10"
     guidetolerance="10"
     inkscape:pageopacity="0"
     inkscape:pageshadow="2"
     inkscape:window-width="1600"
     inkscape:window-height="808"
     id="namedview35"
     showgrid="false"
     showguides="false"
     inkscape:zoom="1"
     inkscape:cx="22.275664"
     inkscape:cy="21.689431"
     inkscape:window-x="0"
     inkscape:window-y="0"
     inkscape:window-maximized="1"
     inkscape:current-layer="svg33">
    <inkscape:grid
       type="xygrid"
       id="grid4543" />
  </sodipodi:namedview>
  <defs
     id="defs17">
    <linearGradient
       inkscape:collect="always"
       id="linearGradient4703">
      <stop
         style="stop-color:#888888;stop-opacity:1"
         offset="0"
         id="stop4699" />
      <stop
         style="stop-color:#ffffff;stop-opacity:1"
         offset="1"
         id="stop4701" />
    </linearGradient>
    <linearGradient
       id="c"
       y1="34"
       y2="14"
       gradientUnits="userSpaceOnUse"
       x2="0">
      <stop
         stop-color="#2a2c2f"
         id="stop12" />
      <stop
         offset="1"
         stop-color="#424649"
         id="stop14" />
    </linearGradient>
    <linearGradient
       inkscape:collect="always"
       xlink:href="#c"
       id="linearGradient4624"
       x1="24"
       y1="44"
       x2="24"
       y2="4.2725854"
       gradientUnits="userSpaceOnUse" />
    <linearGradient
       inkscape:collect="always"
       xlink:href="#linearGradient4703"
       id="linearGradient4697"
       x1="19"
       y1="10"
       x2="13"
       y2="15"
       gradientUnits="userSpaceOnUse"
       gradientTransform="translate(-1)" />
    <linearGradient
       inkscape:collect="always"
       xlink:href="#linearGradient4703"
       id="linearGradient4711"
       x1="39"
       y1="10"
       x2="33.757217"
       y2="13.987868"
       gradientUnits="userSpaceOnUse"
       gradientTransform="translate(-1)" />
    <linearGradient
       inkscape:collect="always"
       xlink:href="#linearGradient4703"
       id="linearGradient4719"
       x1="18"
       y1="31"
       x2="12.734781"
       y2="35.003895"
       gradientUnits="userSpaceOnUse"
       gradientTransform="translate(-1)" />
    <linearGradient
       inkscape:collect="always"
       xlink:href="#linearGradient4703"
       id="linearGradient4727"
       x1="39"
       y1="32"
       x2="35"
       y2="35"
       gradientUnits="userSpaceOnUse"
       gradientTransform="translate(-1)" />
  </defs>
  <rect
     style="fill:url(#linearGradient4624);fill-opacity:1"
     id="rect19"
     height="40"
     rx="0"
     y="3.9999878"
     x="4.0000072"
     width="40" />
  <rect
     style="fill:#000000;fill-opacity:1;opacity:0.2"
     id="rect21"
     height="1"
     y="42.999989"
     x="4.0000072"
     width="40" />
  <path
     inkscape:connector-curvature="0"
     id="path37"
     d="m -3.6130541,43.649681 a 2.3689674,2.3689674 0 0 0 -2.368967,2.368968 2.3689674,2.3689674 0 0 0 2.368967,2.368967 2.3689674,2.3689674 0 0 0 2.368968,-2.368967 2.3689674,2.3689674 0 0 0 -2.368968,-2.368968 z m -0.05553,1.579312 a 0.7896558,0.7896558 0 0 1 0.05553,0 0.7896558,0.7896558 0 0 1 0.789656,0.789656 0.7896558,0.7896558 0 0 1 -0.789656,0.789656 0.7896558,0.7896558 0 0 1 -0.789655,-0.789656 0.7896558,0.7896558 0 0 1 0.734133,-0.789656 z"
     style="color:#000000;clip-rule:nonzero;display:inline;overflow:visible;visibility:visible;opacity:1;isolation:auto;mix-blend-mode:normal;color-interpolation:sRGB;color-interpolation-filters:linearRGB;solid-color:#000000;solid-opacity:1;fill:#ffffff;fill-opacity:1;fill-rule:nonzero;stroke:none;stroke-width:0.63318729;stroke-linecap:butt;stroke-linejoin:miter;stroke-miterlimit:4;stroke-dasharray:none;stroke-dashoffset:0;stroke-opacity:1;marker:none;color-rendering:auto;image-rendering:auto;shape-rendering:auto;text-rendering:auto;enable-background:accumulate" />
  <rect
     transform="rotate(90)"
     style="opacity:1;vector-effect:none;fill:#888888;fill-opacity:1;stroke:none;stroke-width:2.57528257;stroke-linecap:round;stroke-linejoin:round;stroke-miterlimit:4;stroke-dasharray:none;stroke-dashoffset:0;stroke-opacity:1"
     id="rect4577"
     width="1"
     height="18.000002"
     x="10"
     y="-36.999973" />
  <rect
     y="-36.999992"
     x="31.000008"
     height="18.000008"
     width="1"
     id="rect4588"
     style="opacity:1;vector-effect:none;fill:#888888;fill-opacity:1;stroke:none;stroke-width:2.57528329;stroke-linecap:round;stroke-linejoin:round;stroke-miterlimit:4;stroke-dasharray:none;stroke-dashoffset:0;stroke-opacity:1"
     transform="rotate(90)" />
  <rect
     transform="scale(-1)"
     style="opacity:1;vector-effect:none;fill:#888888;fill-opacity:1;stroke:none;stroke-width:2.57528281;stroke-linecap:round;stroke-linejoin:round;stroke-miterlimit:4;stroke-dasharray:none;stroke-dashoffset:0;stroke-opacity:1"
     id="rect4598"
     width="1"
     height="18"
     x="-18"
     y="-30" />
  <rect
     y="-30"
     x="-39"
     height="18"
     width="1"
     id="rect4605"
     style="opacity:1;vector-effect:none;fill:#888888;fill-opacity:1;stroke:none;stroke-width:2.57528281;stroke-linecap:round;stroke-linejoin:round;stroke-miterlimit:4;stroke-dasharray:none;stroke-dashoffset:0;stroke-opacity:1"
     transform="scale(-1)" />
  <rect
     style="opacity:1;vector-effect:none;fill:#d1d1d1;fill-opacity:1;stroke:none;stroke-width:2.42799997;stroke-linecap:round;stroke-linejoin:round;stroke-miterlimit:4;stroke-dasharray:none;stroke-dashoffset:0;stroke-opacity:1"
     id="rect4539"
     width="1"
     height="16"
     x="10"
     y="18" />
  <rect
     y="18"
     x="31"
     height="16"
     width="1"
     id="rect4552"
     style="opacity:1;vector-effect:none;fill:#d1d1d1;fill-opacity:1;stroke:none;stroke-width:2.42799997;stroke-linecap:round;stroke-linejoin:round;stroke-miterlimit:4;stroke-dasharray:none;stroke-dashoffset:0;stroke-opacity:1" />
  <rect
     y="-29"
     x="15"
     height="16"
     width="1"
     id="rect4564"
     style="opacity:1;vector-effect:none;fill:#d1d1d1;fill-opacity:1;stroke:none;stroke-width:2.42799997;stroke-linecap:round;stroke-linejoin:round;stroke-miterlimit:4;stroke-dasharray:none;stroke-dashoffset:0;stroke-opacity:1"
     transform="rotate(90)" />
  <rect
     transform="rotate(90)"
     style="opacity:1;vector-effect:none;fill:#d1d1d1;fill-opacity:1;stroke:none;stroke-width:2.42799997;stroke-linecap:round;stroke-linejoin:round;stroke-miterlimit:4;stroke-dasharray:none;stroke-dashoffset:0;stroke-opacity:1"
     id="rect4566"
     width="1"
     height="16"
     x="36"
     y="-29" />
  <path
     style="color:#000000;font-style:normal;font-variant:normal;font-weight:normal;font-stretch:normal;font-size:medium;line-height:normal;font-family:sans-serif;font-variant-ligatures:normal;font-variant-position:normal;font-variant-caps:normal;font-variant-numeric:normal;font-variant-alternates:normal;font-feature-settings:normal;text-indent:0;text-align:start;text-decoration:none;text-decoration-line:none;text-decoration-style:solid;text-decoration-color:#000000;letter-spacing:normal;word-spacing:normal;text-transform:none;writing-mode:lr-tb;direction:ltr;text-orientation:mixed;dominant-baseline:auto;baseline-shift:baseline;text-anchor:start;white-space:normal;shape-padding:0;clip-rule:nonzero;display:inline;overflow:visible;visibility:visible;opacity:1;isolation:auto;mix-blend-mode:normal;color-interpolation:sRGB;color-interpolation-filters:linearRGB;solid-color:#000000;solid-opacity:1;vector-effect:none;fill:url(#linearGradient4697);fill-opacity:1;fill-rule:nonzero;stroke:none;stroke-width:1px;stroke-linecap:butt;stroke-linejoin:miter;stroke-miterlimit:4;stroke-dasharray:none;stroke-dashoffset:0;stroke-opacity:1;color-rendering:auto;image-rendering:auto;shape-rendering:auto;text-rendering:auto;enable-background:accumulate"
     d="m 16.381645,10.684707 v 0 l -4.584396,3.274568 v 0 l 0.565625,0.82422 v 0 l 4.533401,-3.238144 v 0 z"
     id="path4672"
     inkscape:connector-curvature="0"
     sodipodi:nodetypes="ccccccccc" />
  <path
     style="color:#000000;font-style:normal;font-variant:normal;font-weight:normal;font-stretch:normal;font-size:medium;line-height:normal;font-family:sans-serif;font-variant-ligatures:normal;font-variant-position:normal;font-variant-caps:normal;font-variant-numeric:normal;font-variant-alternates:normal;font-feature-settings:normal;text-indent:0;text-align:start;text-decoration:none;text-decoration-line:none;text-decoration-style:solid;text-decoration-color:#000000;letter-spacing:normal;word-spacing:normal;text-transform:none;writing-mode:lr-tb;direction:ltr;text-orientation:mixed;dominant-baseline:auto;baseline-shift:baseline;text-anchor:start;white-space:normal;shape-padding:0;clip-rule:nonzero;display:inline;overflow:visible;visibility:visible;opacity:1;isolation:auto;mix-blend-mode:normal;color-interpolation:sRGB;color-interpolation-filters:linearRGB;solid-color:#000000;solid-opacity:1;vector-effect:none;fill:url(#linearGradient4719);fill-opacity:1;fill-rule:nonzero;stroke:none;stroke-width:1px;stroke-linecap:butt;stroke-linejoin:miter;stroke-miterlimit:4;stroke-dasharray:none;stroke-dashoffset:0;stroke-opacity:1;color-rendering:auto;image-rendering:auto;shape-rendering:auto;text-rendering:auto;enable-background:accumulate"
     d="m 16.385469,31.681975 v 0 l -4.650688,3.32192 v 0 l 0.580923,0.813292 v 0 l 4.676185,-3.340132 v 0 z"
     id="path4676"
     inkscape:connector-curvature="0"
     sodipodi:nodetypes="ccccccccc" />
  <path
     style="color:#000000;font-style:normal;font-variant:normal;font-weight:normal;font-stretch:normal;font-size:medium;line-height:normal;font-family:sans-serif;font-variant-ligatures:normal;font-variant-position:normal;font-variant-caps:normal;font-variant-numeric:normal;font-variant-alternates:normal;font-feature-settings:normal;text-indent:0;text-align:start;text-decoration:none;text-decoration-line:none;text-decoration-style:solid;text-decoration-color:#000000;letter-spacing:normal;word-spacing:normal;text-transform:none;writing-mode:lr-tb;direction:ltr;text-orientation:mixed;dominant-baseline:auto;baseline-shift:baseline;text-anchor:start;white-space:normal;shape-padding:0;clip-rule:nonzero;display:inline;overflow:visible;visibility:visible;opacity:1;isolation:auto;mix-blend-mode:normal;color-interpolation:sRGB;color-interpolation-filters:linearRGB;solid-color:#000000;solid-opacity:1;vector-effect:none;fill:url(#linearGradient4727);fill-opacity:1;fill-rule:nonzero;stroke:none;stroke-width:1px;stroke-linecap:butt;stroke-linejoin:miter;stroke-miterlimit:4;stroke-dasharray:none;stroke-dashoffset:0;stroke-opacity:1;color-rendering:auto;image-rendering:auto;shape-rendering:auto;text-rendering:auto;enable-background:accumulate"
     d="m 37.350538,31.706926 v 0 l -4.563998,3.259998 v 0 l 0.499332,0.871572 v 0 l 4.584396,-3.274569 v 0 z"
     id="path4678"
     inkscape:connector-curvature="0"
     sodipodi:nodetypes="ccccccccc" />
  <path
     style="color:#000000;font-style:normal;font-variant:normal;font-weight:normal;font-stretch:normal;font-size:medium;line-height:normal;font-family:sans-serif;font-variant-ligatures:normal;font-variant-position:normal;font-variant-caps:normal;font-variant-numeric:normal;font-variant-alternates:normal;font-feature-settings:normal;text-indent:0;text-align:start;text-decoration:none;text-decoration-line:none;text-decoration-style:solid;text-decoration-color:#000000;letter-spacing:normal;word-spacing:normal;text-transform:none;writing-mode:lr-tb;direction:ltr;text-orientation:mixed;dominant-baseline:auto;baseline-shift:baseline;text-anchor:start;white-space:normal;shape-padding:0;clip-rule:nonzero;display:inline;overflow:visible;visibility:visible;opacity:1;isolation:auto;mix-blend-mode:normal;color-interpolation:sRGB;color-interpolation-filters:linearRGB;solid-color:#000000;solid-opacity:1;vector-effect:none;fill:url(#linearGradient4711);fill-opacity:1;fill-rule:nonzero;stroke:none;stroke-width:1px;stroke-linecap:butt;stroke-linejoin:miter;stroke-miterlimit:4;stroke-dasharray:none;stroke-dashoffset:0;stroke-opacity:1;color-rendering:auto;image-rendering:auto;shape-rendering:auto;text-rendering:auto;enable-background:accumulate"
     d="m 37.331415,10.720585 v 0 l -4.574197,3.267283 v 0 l 0.570724,0.820577 v 0 l 4.507904,-3.219931 v 0 z"
     id="path4680"
     inkscape:connector-curvature="0"
     sodipodi:nodetypes="ccccccccc" />
  <path
     inkscape:connector-curvature="0"
     style="color:#000000;clip-rule:nonzero;display:inline;overflow:visible;visibility:visible;opacity:1;isolation:auto;mix-blend-mode:normal;color-interpolation:sRGB;color-interpolation-filters:linearRGB;solid-color:#000000;solid-opacity:1;fill:#ffffff;fill-opacity:1;fill-rule:nonzero;stroke:none;stroke-width:0.40092608;stroke-linecap:butt;stroke-linejoin:miter;stroke-miterlimit:4;stroke-dasharray:none;stroke-dashoffset:0;stroke-opacity:1;marker:none;color-rendering:auto;image-rendering:auto;shape-rendering:auto;text-rendering:auto;enable-background:accumulate"
     d="M 17.5,9 A 1.4999999,1.4999999 0 0 0 16,10.5 1.4999999,1.4999999 0 0 0 17.5,12 1.4999999,1.4999999 0 0 0 19,10.5 1.4999999,1.4999999 0 0 0 17.5,9 Z m 21,0 A 1.4999999,1.4999999 0 0 0 37,10.5 1.4999999,1.4999999 0 0 0 38.5,12 1.4999999,1.4999999 0 0 0 40,10.5 1.4999999,1.4999999 0 0 0 38.5,9 Z m -21.037109,1 a 0.49999865,0.49984462 0 0 1 0.002,0 A 0.49999865,0.49984462 0 0 1 17.5,10 0.49999865,0.49984462 0 0 1 18,10.5 0.49999865,0.49984462 0 0 1 17.5,11 0.49999865,0.49984462 0 0 1 17,10.5 0.49999865,0.49984462 0 0 1 17.462891,10 Z m 21,0 a 0.49999865,0.49984462 0 0 1 0.002,0 A 0.49999865,0.49984462 0 0 1 38.5,10 0.49999865,0.49984462 0 0 1 39,10.5 0.49999865,0.49984462 0 0 1 38.5,11 0.49999865,0.49984462 0 0 1 38,10.5 0.49999865,0.49984462 0 0 1 38.462891,10 Z M 10.5,13 A 2.4999999,2.4999999 0 0 0 8,15.5 2.4999999,2.4999999 0 0 0 10.5,18 2.4999999,2.4999999 0 0 0 13,15.5 2.4999999,2.4999999 0 0 0 10.5,13 Z m 21,0 A 2.4999999,2.4999999 0 0 0 29,15.5 2.4999999,2.4999999 0 0 0 31.5,18 2.4999999,2.4999999 0 0 0 34,15.5 2.4999999,2.4999999 0 0 0 31.5,13 Z m -21.109375,1 a 1.4999989,1.4995368 0 0 1 0.0039,0 A 1.4999989,1.4995368 0 0 1 10.5,14 1.4999989,1.4995368 0 0 1 12,15.5 1.4999989,1.4995368 0 0 1 10.5,17 1.4999989,1.4995368 0 0 1 9,15.5 1.4999989,1.4995368 0 0 1 10.390625,14 Z m 21,0 a 1.4999989,1.4995368 0 0 1 0.0039,0 A 1.4999989,1.4995368 0 0 1 31.5,14 1.4999989,1.4995368 0 0 1 33,15.5 1.4999989,1.4995368 0 0 1 31.5,17 1.4999989,1.4995368 0 0 1 30,15.5 1.4999989,1.4995368 0 0 1 31.390625,14 Z M 17.5,30 A 1.4999999,1.4999999 0 0 0 16,31.5 1.4999999,1.4999999 0 0 0 17.5,33 1.4999999,1.4999999 0 0 0 19,31.5 1.4999999,1.4999999 0 0 0 17.5,30 Z m 21,0 A 1.4999999,1.4999999 0 0 0 37,31.5 1.4999999,1.4999999 0 0 0 38.5,33 1.4999999,1.4999999 0 0 0 40,31.5 1.4999999,1.4999999 0 0 0 38.5,30 Z m -21.037109,1 a 0.49999865,0.49984462 0 0 1 0.002,0 A 0.49999865,0.49984462 0 0 1 17.5,31 0.49999865,0.49984462 0 0 1 18,31.5 0.49999865,0.49984462 0 0 1 17.5,32 0.49999865,0.49984462 0 0 1 17,31.5 0.49999865,0.49984462 0 0 1 17.462891,31 Z m 21,0 a 0.49999865,0.49984462 0 0 1 0.002,0 A 0.49999865,0.49984462 0 0 1 38.5,31 0.49999865,0.49984462 0 0 1 39,31.5 0.49999865,0.49984462 0 0 1 38.5,32 0.49999865,0.49984462 0 0 1 38,31.5 0.49999865,0.49984462 0 0 1 38.462891,31 Z M 10.5,34 A 2.4999999,2.4999999 0 0 0 8,36.5 2.4999999,2.4999999 0 0 0 10.5,39 2.4999999,2.4999999 0 0 0 13,36.5 2.4999999,2.4999999 0 0 0 10.5,34 Z m 21,0 A 2.4999999,2.4999999 0 0 0 29,36.5 2.4999999,2.4999999 0 0 0 31.5,39 2.4999999,2.4999999 0 0 0 34,36.5 2.4999999,2.4999999 0 0 0 31.5,34 Z m -21.109375,1 a 1.4999989,1.4995368 0 0 1 0.0039,0 A 1.4999989,1.4995368 0 0 1 10.5,35 1.4999989,1.4995368 0 0 1 12,36.5 1.4999989,1.4995368 0 0 1 10.5,38 1.4999989,1.4995368 0 0 1 9,36.5 1.4999989,1.4995368 0 0 1 10.390625,35 Z m 21,0 a 1.4999989,1.4995368 0 0 1 0.0039,0 A 1.4999989,1.4995368 0 0 1 31.5,35 1.4999989,1.4995368 0 0 1 33,36.5 1.4999989,1.4995368 0 0 1 31.5,38 1.4999989,1.4995368 0 0 1 30,36.5 1.4999989,1.4995368 0 0 1 31.390625,35 Z"
     id="path4572" />
</svg>
