<?xml version="1.0" encoding="UTF-8" standalone="no"?>
<svg
   xmlns:dc="http://purl.org/dc/elements/1.1/"
   xmlns:cc="http://creativecommons.org/ns#"
   xmlns:rdf="http://www.w3.org/1999/02/22-rdf-syntax-ns#"
   xmlns:svg="http://www.w3.org/2000/svg"
   xmlns="http://www.w3.org/2000/svg"
   xmlns:xlink="http://www.w3.org/1999/xlink"
   xmlns:sodipodi="http://sodipodi.sourceforge.net/DTD/sodipodi-0.dtd"
   xmlns:inkscape="http://www.inkscape.org/namespaces/inkscape"
   width="48"
   height="48"
   version="1.1"
   id="svg58"
   sodipodi:docname="klickety.svg"
   inkscape:version="0.92.3 (2405546, 2018-03-11)">
  <metadata
     id="metadata62">
    <rdf:RDF>
      <cc:Work
         rdf:about="">
        <dc:format>image/svg+xml</dc:format>
        <dc:type
           rdf:resource="http://purl.org/dc/dcmitype/StillImage" />
        <dc:title></dc:title>
      </cc:Work>
    </rdf:RDF>
  </metadata>
  <sodipodi:namedview
     pagecolor="#ffffff"
     bordercolor="#666666"
     borderopacity="1"
     objecttolerance="10"
     gridtolerance="10"
     guidetolerance="10"
     inkscape:pageopacity="0"
     inkscape:pageshadow="2"
     inkscape:window-width="1920"
     inkscape:window-height="1021"
     id="namedview60"
     showgrid="false"
     inkscape:zoom="4.59"
     inkscape:cx="24"
     inkscape:cy="27.742271"
     inkscape:window-x="0"
     inkscape:window-y="30"
     inkscape:window-maximized="1"
     inkscape:current-layer="svg58" />
  <defs
     id="defs32">
    <linearGradient
       inkscape:collect="always"
       id="linearGradient939">
      <stop
         style="stop-color:#000000;stop-opacity:1;"
         offset="0"
         id="stop935" />
      <stop
         style="stop-color:#000000;stop-opacity:0;"
         offset="1"
         id="stop937" />
    </linearGradient>
    <linearGradient
       inkscape:collect="always"
       id="linearGradient900">
      <stop
         style="stop-color:#f05e00;stop-opacity:1"
         offset="0"
         id="stop896" />
      <stop
         style="stop-color:#ff9c6b;stop-opacity:1"
         offset="1"
         id="stop898" />
    </linearGradient>
    <linearGradient
       inkscape:collect="always"
       id="linearGradient892">
      <stop
         style="stop-color:#377d3e;stop-opacity:1;"
         offset="0"
         id="stop888" />
      <stop
         style="stop-color:#6fc078;stop-opacity:1"
         offset="1"
         id="stop890" />
    </linearGradient>
    <linearGradient
       id="linearGradient4393">
      <stop
         offset="0"
         style="stop-color:#cb2525;stop-opacity:1"
         id="stop7" />
      <stop
         offset="1"
         style="stop-color:#e05e4c;stop-opacity:1"
         id="stop9" />
    </linearGradient>
    <linearGradient
       id="linearGradient4329">
      <stop
         style="stop-color:#375a7d;stop-opacity:1;"
         offset="0"
         id="stop17" />
      <stop
         style="stop-color:#54a3d8;stop-opacity:1"
         offset="1"
         id="stop19" />
    </linearGradient>
    <linearGradient
       xlink:href="#linearGradient4329"
       id="linearGradient4375"
       x1="-16"
       y1="10"
       x2="-4"
       y2="10"
       gradientUnits="userSpaceOnUse"
       gradientTransform="matrix(1.6666667,0,0,1.6666667,2.6666677,17.333332)" />
    <linearGradient
       xlink:href="#linearGradient4393"
       id="linearGradient4383"
       x1="-16"
       y1="24"
       x2="-4"
       y2="24"
       gradientUnits="userSpaceOnUse"
       gradientTransform="matrix(1.6666667,0,0,1.6666667,2.6666678,-25.999998)" />
    <linearGradient
       inkscape:collect="always"
       xlink:href="#linearGradient892"
       id="linearGradient894"
       x1="-44"
       y1="33.999997"
       x2="-24.000001"
       y2="33.999997"
       gradientUnits="userSpaceOnUse" />
    <linearGradient
       inkscape:collect="always"
       xlink:href="#linearGradient900"
       id="linearGradient902"
       x1="-44"
       y1="14"
       x2="-24.000001"
       y2="14"
       gradientUnits="userSpaceOnUse" />
    <linearGradient
       inkscape:collect="always"
       xlink:href="#linearGradient900"
       id="linearGradient908"
       gradientUnits="userSpaceOnUse"
       x1="-44"
       y1="14"
       x2="-24.000001"
       y2="14"
       gradientTransform="rotate(-90,7.5000085,7.5000085)" />
    <linearGradient
       inkscape:collect="always"
       xlink:href="#linearGradient892"
       id="linearGradient910"
       gradientUnits="userSpaceOnUse"
       x1="-44"
       y1="33.999997"
       x2="-24.000001"
       y2="33.999997"
       gradientTransform="rotate(-90,7.5000085,7.5000085)" />
    <linearGradient
       inkscape:collect="always"
       xlink:href="#linearGradient939"
       id="linearGradient941"
       x1="14.326172"
       y1="12.601562"
       x2="37.350586"
       y2="35.625977"
       gradientUnits="userSpaceOnUse" />
  </defs>
  <rect
     id="rect40"
     transform="rotate(-90)"
     style="fill:url(#linearGradient4375);fill-opacity:1;stroke:#808080;stroke-width:0;stroke-linecap:round;stroke-linejoin:round;stroke-miterlimit:4;stroke-dasharray:none;stroke-opacity:1"
     width="19.999998"
     height="19.999998"
     x="-24"
     y="23.999998"
     rx="1.6666666"
     ry="1.6666666" />
  <rect
     ry="1.6666666"
     rx="1.6666666"
     y="4.0000005"
     x="-44"
     height="19.999998"
     width="19.999998"
     style="fill:url(#linearGradient902);fill-opacity:1;stroke:#808080;stroke-width:0;stroke-linecap:round;stroke-linejoin:round;stroke-miterlimit:4;stroke-dasharray:none;stroke-opacity:1"
     transform="rotate(-90)"
     id="rect880" />
  <rect
     ry="1.6666666"
     rx="1.6666666"
     y="23.999998"
     x="-44"
     height="19.999998"
     width="19.999998"
     style="fill:url(#linearGradient894);fill-opacity:1;stroke:#808080;stroke-width:0;stroke-linecap:round;stroke-linejoin:round;stroke-miterlimit:4;stroke-dasharray:none;stroke-opacity:1"
     transform="rotate(-90)"
     id="rect882" />
  <path
     style="opacity:0.2;fill:url(#linearGradient941);fill-opacity:1;stroke:none;stroke-width:1;stroke-linecap:round;stroke-linejoin:round;stroke-miterlimit:4;stroke-dasharray:none;stroke-dashoffset:0;stroke-opacity:1;paint-order:normal"
     d="M 23.472656 4.453125 L 20.980469 5.0527344 L 13.478516 10.123047 L 10.716797 7.3613281 L 8.1621094 18.40625 L 4.4511719 23.433594 L 4.7324219 23.716797 C 4.7336246 23.717608 4.7351231 23.717942 4.7363281 23.71875 C 5.0014242 23.896505 5.3213324 24 5.6660156 24 C 5.4724295 24 5.289712 24.039496 5.1171875 24.099609 L 23.900391 42.882812 C 23.960504 42.710288 24 42.527571 24 42.333984 C 24 42.678668 24.103495 42.998576 24.28125 43.263672 C 24.282058 43.264877 24.282392 43.266375 24.283203 43.267578 L 24.732422 43.716797 C 24.733625 43.717608 24.735123 43.717942 24.736328 43.71875 C 25.001424 43.896505 25.321332 44 25.666016 44 L 42.333984 44 C 43.257318 44 44 43.257318 44 42.333984 L 44 25.666016 C 44 25.223435 43.826251 24.825017 43.546875 24.527344 L 43.472656 24.453125 C 43.174983 24.173749 42.776565 24 42.333984 24 C 42.53819 24 42.731656 23.959151 42.912109 23.892578 L 24.107422 5.0878906 C 24.040849 5.2683443 24 5.46181 24 5.6660156 C 24 5.2254242 23.827927 4.8285094 23.550781 4.53125 L 23.472656 4.453125 z "
     id="rect918" />
  <rect
     id="rect36"
     transform="rotate(-90)"
     style="fill:url(#linearGradient4383);fill-opacity:1;stroke:#808080;stroke-width:0;stroke-linecap:round;stroke-linejoin:round;stroke-miterlimit:4;stroke-dasharray:none;stroke-opacity:1"
     width="19.999998"
     height="19.999998"
     x="-24"
     y="4.0000005"
     rx="1.6666666"
     ry="1.6666666" />
  <path
     style="opacity:1;fill:url(#linearGradient908);fill-opacity:1;stroke:#808080;stroke-width:0;stroke-linecap:round;stroke-linejoin:round;stroke-miterlimit:4;stroke-dasharray:none;stroke-opacity:1"
     d="M 5.6660156 39 C 4.7426823 39 4 39.742682 4 40.666016 L 4 42.333984 C 4 43.257318 4.7426823 44 5.6660156 44 L 22.333984 44 C 23.257318 44 24 43.257318 24 42.333984 L 24 40.666016 C 24 39.742682 23.257318 39 22.333984 39 L 5.6660156 39 z "
     id="rect904" />
  <path
     style="opacity:1;fill:url(#linearGradient910);fill-opacity:1;stroke:#808080;stroke-width:0;stroke-linecap:round;stroke-linejoin:round;stroke-miterlimit:4;stroke-dasharray:none;stroke-opacity:1"
     d="M 25.666016 39 C 24.742682 39 24 39.742682 24 40.666016 L 24 42.333984 C 24 43.257318 24.742682 44 25.666016 44 L 42.333984 44 C 43.257318 44 44 43.257318 44 42.333984 L 44 40.666016 C 44 39.742682 43.257318 39 42.333984 39 L 25.666016 39 z "
     id="rect906" />
</svg>
