<?xml version="1.0" encoding="UTF-8" standalone="no"?>
<svg
   xmlns:dc="http://purl.org/dc/elements/1.1/"
   xmlns:cc="http://creativecommons.org/ns#"
   xmlns:rdf="http://www.w3.org/1999/02/22-rdf-syntax-ns#"
   xmlns:svg="http://www.w3.org/2000/svg"
   xmlns="http://www.w3.org/2000/svg"
   xmlns:xlink="http://www.w3.org/1999/xlink"
   xmlns:sodipodi="http://sodipodi.sourceforge.net/DTD/sodipodi-0.dtd"
   xmlns:inkscape="http://www.inkscape.org/namespaces/inkscape"
   width="48"
   height="48"
   version="1.1"
   id="svg31"
   sodipodi:docname="libreoffice-chart.svg"
   inkscape:version="0.92.3 (2405546, 2018-03-11)">
  <metadata
     id="metadata35">
    <rdf:RDF>
      <cc:Work
         rdf:about="">
        <dc:format>image/svg+xml</dc:format>
        <dc:type
           rdf:resource="http://purl.org/dc/dcmitype/StillImage" />
        <dc:title></dc:title>
      </cc:Work>
    </rdf:RDF>
  </metadata>
  <sodipodi:namedview
     pagecolor="#ffffff"
     bordercolor="#666666"
     borderopacity="1"
     objecttolerance="10"
     gridtolerance="10"
     guidetolerance="10"
     inkscape:pageopacity="0"
     inkscape:pageshadow="2"
     inkscape:window-width="1920"
     inkscape:window-height="1026"
     id="namedview33"
     showgrid="true"
     showguides="false"
     inkscape:zoom="5.65"
     inkscape:cx="24.40678"
     inkscape:cy="24"
     inkscape:window-x="0"
     inkscape:window-y="30"
     inkscape:window-maximized="1"
     inkscape:current-layer="svg31">
    <inkscape:grid
       type="xygrid"
       id="grid923" />
  </sodipodi:namedview>
  <defs
     id="defs17">
    <linearGradient
       inkscape:collect="always"
       id="linearGradient959">
      <stop
         style="stop-color:#ffffff;stop-opacity:1;"
         offset="0"
         id="stop955" />
      <stop
         style="stop-color:#ffffff;stop-opacity:0;"
         offset="1"
         id="stop957" />
    </linearGradient>
    <linearGradient
       inkscape:collect="always"
       id="linearGradient951">
      <stop
         style="stop-color:#000000;stop-opacity:1;"
         offset="0"
         id="stop947" />
      <stop
         style="stop-color:#000000;stop-opacity:0;"
         offset="1"
         id="stop949" />
    </linearGradient>
    <linearGradient
       inkscape:collect="always"
       id="linearGradient901">
      <stop
         style="stop-color:#6b5733;stop-opacity:1;"
         offset="0"
         id="stop897" />
      <stop
         style="stop-color:#c39f5e;stop-opacity:1"
         offset="1"
         id="stop899" />
    </linearGradient>
    <linearGradient
       inkscape:collect="always"
       xlink:href="#linearGradient901"
       id="linearGradient903"
       x1="36.287605"
       y1="55.125828"
       x2="28"
       y2="4"
       gradientUnits="userSpaceOnUse" />
    <linearGradient
       inkscape:collect="always"
       xlink:href="#linearGradient951"
       id="linearGradient953"
       x1="23"
       y1="16"
       x2="38.762238"
       y2="31.762238"
       gradientUnits="userSpaceOnUse" />
    <linearGradient
       inkscape:collect="always"
       xlink:href="#linearGradient959"
       id="linearGradient961"
       x1="24"
       y1="14"
       x2="26"
       y2="36"
       gradientUnits="userSpaceOnUse" />
  </defs>
  <path
     inkscape:connector-curvature="0"
     style="fill:url(#linearGradient903);fill-opacity:1"
     id="path19"
     d="M 8.01,4 C 8.004,4 8,7.568 8,12 v 24 c 0,4.432 0.004,8 0.01,8 H 39.99 C 39.996,44 40,40.432 40,36 V 16 L 28,4 Z" />
  <path
     inkscape:connector-curvature="0"
     style="opacity:0.1;fill:url(#linearGradient953);fill-opacity:1;stroke:none;stroke-width:4;stroke-linecap:round;stroke-linejoin:round;stroke-miterlimit:4;stroke-dasharray:none;stroke-dashoffset:0;stroke-opacity:1;paint-order:normal"
     d="M 23,16 22.142578,21.142578 20,19 19,21 v 2 l -2,-2 -1,2 1,3 v 2 2 l -1,2 12,12 H 39.990234 C 39.996234,44 40,40.432 40,36 V 28 L 29,17 28,20 v 1 z"
     id="rect926" />
  <rect
     style="fill:#2e3132;fill-opacity:0.294"
     id="rect21"
     height="1"
     y="42.999989"
     x="8.0000076"
     width="32" />
  <path
     style="fill:#977028;fill-opacity:1"
     inkscape:connector-curvature="0"
     id="path27"
     d="M 39.99,13.99 C 39.996,13.981 40,11.764 40,9 40,6.23 39.996,4 39.99,4 h -9.98 c 0,0 0,0.01 0,0.01 z" />
  <path
     inkscape:connector-curvature="0"
     style="opacity:1;fill:url(#linearGradient961);fill-opacity:1;stroke:none;stroke-width:1.83798063;stroke-linecap:round;stroke-linejoin:round;stroke-miterlimit:4;stroke-dasharray:none;stroke-dashoffset:0;stroke-opacity:1;paint-order:normal"
     d="m 22,16 v 16 h 1 V 16 Z m 6,1 v 15 h 1 V 17 Z m -9,2 v 13 h 1 V 19 Z m -3,2 v 11 h 1 V 21 Z m 9,2 v 9 h 1 v -9 z m 6,2 v 7 h 1 v -7 z"
     id="rect905" />
</svg>
