<?xml version="1.0" encoding="UTF-8" standalone="no"?>
<!-- Created with Inkscape (http://www.inkscape.org/) -->

<svg
   xmlns:dc="http://purl.org/dc/elements/1.1/"
   xmlns:cc="http://creativecommons.org/ns#"
   xmlns:rdf="http://www.w3.org/1999/02/22-rdf-syntax-ns#"
   xmlns:svg="http://www.w3.org/2000/svg"
   xmlns="http://www.w3.org/2000/svg"
   xmlns:xlink="http://www.w3.org/1999/xlink"
   xmlns:sodipodi="http://sodipodi.sourceforge.net/DTD/sodipodi-0.dtd"
   xmlns:inkscape="http://www.inkscape.org/namespaces/inkscape"
   width="48"
   height="48"
   viewBox="0 0 12.7 12.7"
   version="1.1"
   id="svg8"
   inkscape:version="0.92.1 r15371"
   sodipodi:docname="preferences-system-privacy.svg">
  <defs
     id="defs2">
    <linearGradient
       id="linearGradient4814"
       inkscape:collect="always">
      <stop
         id="stop4810"
         offset="0"
         style="stop-color:#c7cfd2;stop-opacity:1" />
      <stop
         id="stop4812"
         offset="1"
         style="stop-color:#5d6d75;stop-opacity:1" />
    </linearGradient>
    <linearGradient
       inkscape:collect="always"
       id="linearGradient4729">
      <stop
         style="stop-color:#000000;stop-opacity:1;"
         offset="0"
         id="stop4725" />
      <stop
         style="stop-color:#000000;stop-opacity:0;"
         offset="1"
         id="stop4727" />
    </linearGradient>
    <linearGradient
       inkscape:collect="always"
       id="linearGradient4714">
      <stop
         style="stop-color:#4f5d63;stop-opacity:1"
         offset="0"
         id="stop4710" />
      <stop
         style="stop-color:#242b2d;stop-opacity:1"
         offset="1"
         id="stop4712" />
    </linearGradient>
    <linearGradient
       inkscape:collect="always"
       id="linearGradient4706">
      <stop
         style="stop-color:#424649;stop-opacity:1;"
         offset="0"
         id="stop4702" />
      <stop
         style="stop-color:#2a2c2f;stop-opacity:1"
         offset="1"
         id="stop4704" />
    </linearGradient>
    <linearGradient
       inkscape:collect="always"
       id="linearGradient4497">
      <stop
         style="stop-color:#c7cfd2;stop-opacity:1"
         offset="0"
         id="stop4493" />
      <stop
         style="stop-color:#5d6d75;stop-opacity:1"
         offset="1"
         id="stop4495" />
    </linearGradient>
    <linearGradient
       inkscape:collect="always"
       xlink:href="#linearGradient4814"
       id="linearGradient4499"
       x1="3.0798144"
       y1="285.6084"
       x2="3.0798144"
       y2="295.77228"
       gradientUnits="userSpaceOnUse"
       gradientTransform="matrix(1,0,0,1.025,1.6919067e-7,-7.3991029)" />
    <linearGradient
       inkscape:collect="always"
       xlink:href="#linearGradient4497"
       id="linearGradient4507"
       x1="6.4532518"
       y1="285.54547"
       x2="6.4532518"
       y2="295.79001"
       gradientUnits="userSpaceOnUse"
       gradientTransform="matrix(3.7795276,0,0,3.8740157,0,-1102.4847)" />
    <linearGradient
       inkscape:collect="always"
       xlink:href="#linearGradient4706"
       id="linearGradient4708"
       x1="23"
       y1="5"
       x2="24"
       y2="42"
       gradientUnits="userSpaceOnUse" />
    <linearGradient
       inkscape:collect="always"
       xlink:href="#linearGradient4714"
       id="linearGradient4716"
       x1="6.8791666"
       y1="285.88748"
       x2="6.8791666"
       y2="295.05096"
       gradientUnits="userSpaceOnUse" />
    <linearGradient
       inkscape:collect="always"
       xlink:href="#linearGradient4729"
       id="linearGradient4731"
       x1="12"
       y1="18"
       x2="30.951006"
       y2="36.951004"
       gradientUnits="userSpaceOnUse" />
    <linearGradient
       inkscape:collect="always"
       xlink:href="#linearGradient4706"
       id="linearGradient4766"
       gradientUnits="userSpaceOnUse"
       x1="23"
       y1="5"
       x2="24"
       y2="42" />
    <linearGradient
       inkscape:collect="always"
       xlink:href="#linearGradient4706"
       id="linearGradient4769"
       gradientUnits="userSpaceOnUse"
       x1="23"
       y1="5"
       x2="24"
       y2="42" />
  </defs>
  <sodipodi:namedview
     id="base"
     pagecolor="#ffffff"
     bordercolor="#666666"
     borderopacity="1.0"
     inkscape:pageopacity="0.0"
     inkscape:pageshadow="2"
     inkscape:zoom="9.95"
     inkscape:cx="26.030488"
     inkscape:cy="21.201463"
     inkscape:document-units="px"
     inkscape:current-layer="layer1"
     showgrid="false"
     units="px"
     inkscape:window-width="1600"
     inkscape:window-height="808"
     inkscape:window-x="0"
     inkscape:window-y="0"
     inkscape:window-maximized="1">
    <inkscape:grid
       type="xygrid"
       id="grid4517" />
  </sodipodi:namedview>
  <metadata
     id="metadata5">
    <rdf:RDF>
      <cc:Work
         rdf:about="">
        <dc:format>image/svg+xml</dc:format>
        <dc:type
           rdf:resource="http://purl.org/dc/dcmitype/StillImage" />
        <dc:title></dc:title>
      </cc:Work>
    </rdf:RDF>
  </metadata>
  <g
     inkscape:label="Layer 1"
     inkscape:groupmode="layer"
     id="layer1"
     transform="translate(0,-284.29999)">
    <rect
       style="opacity:1;vector-effect:none;fill:url(#linearGradient4716);fill-opacity:1;stroke:none;stroke-width:0.4889687;stroke-linecap:round;stroke-linejoin:round;stroke-miterlimit:4;stroke-dasharray:none;stroke-dashoffset:0;stroke-opacity:1"
       id="rect4485"
       width="10.583333"
       height="9.260416"
       x="1.0583335"
       y="285.88748"
       ry="0.79374999"
       rx="0.79374999" />
    <path
       style="opacity:1;vector-effect:none;fill:url(#linearGradient4507);fill-opacity:1;stroke:none;stroke-width:1.00010717;stroke-linecap:round;stroke-linejoin:round;stroke-miterlimit:4;stroke-dasharray:none;stroke-dashoffset:0;stroke-opacity:1"
       d="M 19 3 L 19 44 L 29 44 L 29 3 L 19 3 z M 32 3 L 32 44 L 42 44 L 42 3 L 32 3 z "
       transform="matrix(0.26458333,0,0,0.26458333,0,284.29999)"
       id="rect4491" />
    <path
       style="opacity:1;vector-effect:none;fill:url(#linearGradient4769);fill-opacity:1;stroke:none;stroke-width:1.41421342;stroke-linecap:round;stroke-linejoin:round;stroke-miterlimit:4;stroke-dasharray:none;stroke-dashoffset:0;stroke-opacity:1"
       d="M 21 5 L 21 6 L 26 6 L 26 10 L 21 10 L 21 11 L 26 11 L 26 15 L 21 15 L 21 16 L 27 16 L 27 15 L 27 11 L 27 10 L 27 6 L 27 5 L 26 5 L 21 5 z M 34 5 L 34 10 L 34 11 L 35 11 L 39 11 L 39 16 L 40 16 L 40 10 L 40 5 L 39 5 L 39 10 L 35 10 L 35 5 L 34 5 z M 21 18 L 21 19 L 26 19 L 26 23 L 22 23 L 21 23 L 21 29 L 27 29 L 27 28 L 22 28 L 22 24 L 26 24 L 27 24 L 27 23 L 27 19 L 27 18 L 26 18 L 21 18 z M 34 18 L 34 19 L 39 19 L 39 23 L 34 23 L 34 24 L 39 24 L 39 28 L 34 28 L 34 29 L 40 29 L 40 28 L 40 24 L 40 23 L 40 19 L 40 18 L 39 18 L 34 18 z M 24 31 L 24 32 L 22 32 L 22 33 L 24 33 L 24 36 L 24 37 L 24 42 L 25 42 L 25 37 L 25 36 L 25 31 L 24 31 z M 34 31 L 34 32 L 39 32 L 39 36 L 35 36 L 34 36 L 34 37 L 34 41 L 34 42 L 40 42 L 40 41 L 35 41 L 35 37 L 39 37 L 40 37 L 40 36 L 40 32 L 40 31 L 39 31 L 34 31 z "
       transform="matrix(0.26458333,0,0,0.26458333,0,284.29999)"
       id="path4762" />
    <path
       style="opacity:0.2;vector-effect:none;fill:url(#linearGradient4731);fill-opacity:1;stroke:none;stroke-width:2.52134752;stroke-linecap:round;stroke-linejoin:round;stroke-miterlimit:4;stroke-dasharray:none;stroke-dashoffset:0;stroke-opacity:1"
       d="M 16 3 L 8.8359375 26.546875 L 5.9980469 43.910156 L 6.0878906 44 L 44 44 L 44 31 L 16 3 z "
       transform="matrix(0.26458333,0,0,0.26458333,0,284.29999)"
       id="rect4718" />
    <rect
       y="285.09375"
       x="1.5875001"
       height="10.847917"
       width="2.6458333"
       id="rect4487"
       style="opacity:1;vector-effect:none;fill:url(#linearGradient4499);fill-opacity:1;stroke:none;stroke-width:0.26461169;stroke-linecap:round;stroke-linejoin:round;stroke-miterlimit:4;stroke-dasharray:none;stroke-dashoffset:0;stroke-opacity:1" />
    <path
       style="opacity:1;vector-effect:none;fill:url(#linearGradient4708);fill-opacity:1;stroke:none;stroke-width:1.41421342;stroke-linecap:round;stroke-linejoin:round;stroke-miterlimit:4;stroke-dasharray:none;stroke-dashoffset:0;stroke-opacity:1"
       d="m 8,5 v 1 h 5 v 4 H 9 8 v 1 4 1 h 6 V 15 H 9 v -4 h 4 1 V 10 6 5 h -1 z"
       transform="matrix(0.26458333,0,0,0.26458333,0,284.29999)"
       id="path4764" />
    <path
       style="opacity:1;vector-effect:none;fill:url(#linearGradient4708);fill-opacity:1;stroke:none;stroke-width:1.41421342;stroke-linecap:round;stroke-linejoin:round;stroke-miterlimit:4;stroke-dasharray:none;stroke-dashoffset:0;stroke-opacity:1"
       d="m 11,18 v 1 H 9 v 1 h 2 v 3 1 5 h 1 v -5 -1 -5 z"
       transform="matrix(0.26458333,0,0,0.26458333,0,284.29999)"
       id="path4758" />
    <path
       style="opacity:1;vector-effect:none;fill:url(#linearGradient4766);fill-opacity:1;stroke:none;stroke-width:1.41421342;stroke-linecap:round;stroke-linejoin:round;stroke-miterlimit:4;stroke-dasharray:none;stroke-dashoffset:0;stroke-opacity:1"
       d="M 8 31 L 8 32 L 8 37 L 8 42 L 9 42 L 14 42 L 14 41 L 14 37 L 14 36 L 14 32 L 14 31 L 13 31 L 9 31 L 8 31 z M 9 32 L 13 32 L 13 36 L 13 37 L 13 41 L 9 41 L 9 36 L 9 32 z "
       transform="matrix(0.26458333,0,0,0.26458333,0,284.29999)"
       id="path4752" />
    <path
       style="opacity:0.2;vector-effect:none;fill:#08090a;fill-opacity:1;stroke:none;stroke-width:1.00010717;stroke-linecap:round;stroke-linejoin:round;stroke-miterlimit:4;stroke-dasharray:none;stroke-dashoffset:0;stroke-opacity:1"
       d="M 6 43 L 6 44 L 16 44 L 16 43 L 6 43 z M 19 43 L 19 44 L 29 44 L 29 43 L 19 43 z M 32 43 L 32 44 L 42 44 L 42 43 L 32 43 z "
       transform="matrix(0.26458333,0,0,0.26458333,0,284.29999)"
       id="path4781" />
  </g>
</svg>
