<?xml version="1.0" encoding="UTF-8" standalone="no"?>
<svg
   xmlns:dc="http://purl.org/dc/elements/1.1/"
   xmlns:cc="http://creativecommons.org/ns#"
   xmlns:rdf="http://www.w3.org/1999/02/22-rdf-syntax-ns#"
   xmlns:svg="http://www.w3.org/2000/svg"
   xmlns="http://www.w3.org/2000/svg"
   xmlns:xlink="http://www.w3.org/1999/xlink"
   xmlns:sodipodi="http://sodipodi.sourceforge.net/DTD/sodipodi-0.dtd"
   xmlns:inkscape="http://www.inkscape.org/namespaces/inkscape"
   width="48"
   height="48"
   viewBox="0 0 48 48"
   version="1.1"
   id="svg74"
   sodipodi:docname="qomp.svg"
   inkscape:version="0.92.3 (2405546, 2018-03-11)">
  <metadata
     id="metadata78">
    <rdf:RDF>
      <cc:Work
         rdf:about="">
        <dc:format>image/svg+xml</dc:format>
        <dc:type
           rdf:resource="http://purl.org/dc/dcmitype/StillImage" />
        <dc:title />
      </cc:Work>
    </rdf:RDF>
  </metadata>
  <sodipodi:namedview
     pagecolor="#ffffff"
     bordercolor="#666666"
     borderopacity="1"
     objecttolerance="10"
     gridtolerance="10"
     guidetolerance="10"
     inkscape:pageopacity="0"
     inkscape:pageshadow="2"
     inkscape:window-width="1920"
     inkscape:window-height="1020"
     id="namedview76"
     showgrid="false"
     inkscape:zoom="11.42"
     inkscape:cx="3.6789029"
     inkscape:cy="22.290357"
     inkscape:window-x="0"
     inkscape:window-y="30"
     inkscape:window-maximized="1"
     inkscape:current-layer="svg74">
    <inkscape:grid
       type="xygrid"
       id="grid845" />
  </sodipodi:namedview>
  <defs
     id="defs44">
    <linearGradient
       inkscape:collect="always"
       id="linearGradient906">
      <stop
         style="stop-color:#ffffff;stop-opacity:1;"
         offset="0"
         id="stop902" />
      <stop
         style="stop-color:#ffffff;stop-opacity:0;"
         offset="1"
         id="stop904" />
    </linearGradient>
    <linearGradient
       inkscape:collect="always"
       id="linearGradient892">
      <stop
         style="stop-color:#000000;stop-opacity:1;"
         offset="0"
         id="stop888" />
      <stop
         style="stop-color:#000000;stop-opacity:0;"
         offset="1"
         id="stop890" />
    </linearGradient>
    <linearGradient
       inkscape:collect="always"
       id="linearGradient824">
      <stop
         style="stop-color:#2fa32a;stop-opacity:1"
         offset="0"
         id="stop820" />
      <stop
         style="stop-color:#34b82f;stop-opacity:0;"
         offset="1"
         id="stop822" />
    </linearGradient>
    <linearGradient
       id="b"
       y1="544.72498"
       x1="401.90601"
       y2="515.20557"
       x2="400.92087"
       gradientUnits="userSpaceOnUse"
       gradientTransform="matrix(1.4284698,0,0,1.4284178,-548.20357,-735.6347)">
      <stop
         stop-color="#197cf1"
         id="stop7" />
      <stop
         offset="1"
         stop-color="#86dbfc"
         id="stop9" />
    </linearGradient>
    <linearGradient
       inkscape:collect="always"
       xlink:href="#linearGradient824"
       id="linearGradient826"
       x1="27.007944"
       y1="44.999115"
       x2="17.65225"
       y2="-5.5745807"
       gradientUnits="userSpaceOnUse" />
    <linearGradient
       inkscape:collect="always"
       xlink:href="#linearGradient892"
       id="linearGradient894"
       x1="8.4211149"
       y1="19.881186"
       x2="22.391741"
       y2="33.85181"
       gradientUnits="userSpaceOnUse" />
    <linearGradient
       inkscape:collect="always"
       xlink:href="#linearGradient892"
       id="linearGradient896"
       x1="16.516993"
       y1="19.550894"
       x2="29.237814"
       y2="32.271713"
       gradientUnits="userSpaceOnUse" />
    <linearGradient
       inkscape:collect="always"
       xlink:href="#linearGradient892"
       id="linearGradient898"
       x1="26.333984"
       y1="19"
       x2="36.834431"
       y2="29.500448"
       gradientUnits="userSpaceOnUse" />
    <linearGradient
       inkscape:collect="always"
       xlink:href="#linearGradient892"
       id="linearGradient900"
       x1="36.107422"
       y1="20.251953"
       x2="43.438496"
       y2="27.583027"
       gradientUnits="userSpaceOnUse" />
    <linearGradient
       inkscape:collect="always"
       xlink:href="#linearGradient906"
       id="linearGradient908"
       x1="21.866699"
       y1="17.661222"
       x2="24.808891"
       y2="37.628578"
       gradientUnits="userSpaceOnUse" />
  </defs>
  <rect
     width="39.997154"
     x="4.000011"
     y="4.0000196"
     rx="19.998577"
     height="39.995697"
     id="rect48"
     style="fill:url(#b);stroke-width:1.42844379" />
  <path
     d="m 23.722883,4.014321 c -1.531319,0.021426 -3.0155,0.2199763 -4.443969,0.564225 -0.375688,0.3371066 -0.931363,0.5085167 -1.554176,0.4913757 -0.222841,0.2128343 -0.171416,0.6113629 -0.292836,0.9041885 -0.10285,0.2456879 -0.462824,0.5085167 -0.708521,0.4885189 -0.181416,-0.015713 -0.389972,-0.2713994 -0.389972,-0.4413811 0,-0.2042638 0.284265,-0.3185372 0.128562,-0.547084 -1.591315,0.6456448 -3.072638,1.4955534 -4.428256,2.5083016 0.362831,-0.1342712 0.764231,-0.3585328 1.094208,-0.3656749 0.05428,0 0.104278,0.00429 0.152846,0.017141 0.221413,0.058565 0.804228,0.6970679 0.318549,0.9041885 -0.04571,0.019998 -0.712807,0.092847 -0.828513,0.072849 C 12.600817,8.5824011 12.500824,8.3481406 12.329408,8.3181438 12.042286,8.2681492 11.678026,8.5666885 11.4309,8.4324172 8.7053801,10.632181 6.5912448,13.539011 5.3241921,16.874366 c 0.1157061,-0.06713 0.2356975,-0.137128 0.3399758,-0.192836 0.3571175,-0.185694 0.6585246,-0.485662 1.0742093,-0.512802 0.2071281,-0.0043 0.5071068,0.05571 0.7056641,0.09713 0.1842726,0.03714 0.331405,0.161412 0.4913936,0.172839 0.4513965,0.03428 0.5585317,-0.317109 0.9256484,-0.512802 0.379973,0.05428 0.6328122,-0.06428 0.9770734,-0.02571 0.2342693,0.02571 0.4028283,0.275685 0.5856723,0.289969 0.152847,0.01571 0.28998,-0.142841 0.438541,-0.119987 0.144275,0.02285 0.392829,0.337107 0.415684,0.512802 0.03,0.219977 -0.159988,0.417098 -0.09714,0.658501 0.229984,0.23426 0.648526,0.281398 0.977074,0.415669 0.21427,-0.175695 0.02857,-0.504231 0,-0.758489 -0.0043,-0.112845 0.01571,-0.211406 0,-0.315681 -0.02,-0.175695 -0.09714,-0.337106 -0.09714,-0.488519 -0.0043,-0.694211 0.55996,-1.01989 1.027069,-1.294146 0.201415,-0.119987 0.359975,-0.328536 0.535677,-0.41567 0.247125,-0.124272 0.431398,-0.15284 0.635669,-0.268542 0.369973,-0.207121 0.687094,-0.375674 0.977073,-0.611363 0.134276,-0.31568 0.01428,-0.737064 0.02571,-1.048459 0.134276,-0.08142 0.248553,0.03714 0.389972,0.02571 0.222841,-0.04714 0.241411,-0.362818 0.368545,-0.488519 0.07428,-0.07285 0.274266,-0.124273 0.365688,-0.195693 0.222842,-0.174267 0.294265,-0.438525 0.488537,-0.512802 0.07,-0.02857 0.229984,-0.02 0.339976,-0.04999 0.144275,-0.03857 0.349975,-0.209977 0.585672,-0.289969 0.152847,-0.05285 0.505679,-0.06428 0.564246,-0.122844 0.07142,-0.07285 0,-0.27997 0.02571,-0.389958 0.118563,-0.5513691 0.948504,-0.6684994 1.442755,-0.8541937 0.344261,-0.129986 0.695665,-0.3685318 1.074209,-0.2956825 -0.07428,0.2614005 -0.425684,0.1699817 -0.365688,0.4885189 0.08285,0.4413813 0.672809,-0.1271292 0.828512,-0.1928364 C 21.668744,9.4523075 22.178707,9.3766014 22.570108,9.235188 22.912941,9.1094873 23.527183,8.9180793 23.20292,8.5266928 22.932939,8.5109802 22.804377,8.8423731 22.570108,8.9423624 22.407262,8.9680739 22.43726,8.8080911 22.300127,8.7938069 22.168708,8.7780943 22.094428,8.913794 21.960151,8.8909393 21.825875,8.8680847 21.637317,8.6581072 21.617319,8.5009813 c -0.05285,-0.4070991 0.344261,-0.574224 0.51282,-0.878477 -0.11142,-0.3685318 -0.621384,-0.075706 -0.928505,-0.2199763 0.03,-0.2199763 0.257124,-0.3713886 0.512821,-0.4128127 0.209985,-0.035711 0.68138,-0.017141 0.805657,0.094275 0.07285,0.061422 0.0057,0.2156911 0.122848,0.3185372 0.124277,0.112845 0.277123,0.1014177 0.43854,0.075706 0.05857,-0.2785414 -0.361403,-0.2099774 -0.315692,-0.3928149 0.329977,-0.215691 0.865653,-0.037139 1.26991,-0.097132 0.232841,-0.034282 0.477109,-0.1999785 0.684237,-0.3156803 0.1957,-0.1114166 0.449968,-0.3056814 0.658525,-0.1228439 0.05714,0.1999785 -0.181416,0.2656857 -0.292837,0.3656749 -0.374259,0.3328214 -0.758517,0.7127805 -1.048497,1.0998817 0.178559,0.174267 0.501393,0.087134 0.804229,0.122844 0.117135,0.015713 0.265695,0.049995 0.389972,0.072849 0.145704,0.025711 0.301407,0.018569 0.415685,0.047138 0.2057,0.049995 0.259981,0.2699709 0.462824,0.2699709 0.334262,0 0.337119,-0.3628181 0.148561,-0.5885081 0.06,-0.2299753 0.152846,-0.348534 0.07285,-0.5099452 C 26.181278,7.1282715 25.62846,7.4139546 25.59989,7.0397096 25.58132,6.7968786 25.804162,6.8054491 25.892727,6.62404 c -0.04,-0.4699495 0.385687,-0.5042315 0.339976,-0.9256147 -0.02,-0.1756954 -0.169988,-0.1785523 -0.292837,-0.3428203 -0.06428,-0.084277 -0.09285,-0.25283 -0.169988,-0.3185372 -0.255696,-0.2156911 -0.77423,-0.1742669 -0.805657,-0.5856513 -0.0043,-0.1399849 0.01571,-0.2642573 0.02857,-0.3956717 -0.235698,-0.011427 -0.468538,-0.032854 -0.705664,-0.035711 z m -9.513609,4.7909133 c 0.114278,0.015713 0.252839,0.1371281 0.389973,0.1485554 0.12999,0.00429 0.238554,-0.071421 0.318548,-0.049995 0.204271,0.05428 0.28998,0.3628181 0.09714,0.512802 -0.159988,0.019998 -0.222841,-0.068564 -0.342833,-0.047138 -0.331405,0.057137 -0.458538,0.7056383 -0.705664,0.6842113 -0.234269,-0.02 -0.359974,-0.5899357 -0.122848,-0.758489 0.01571,-0.1485555 -0.108564,-0.1714102 -0.09999,-0.3185372 0.06999,-0.08999 0.271409,-0.1871227 0.465681,-0.1699817 m -1.099921,0.075706 c 0.06857,0.00286 0.118563,0.018569 0.145703,0.047138 -0.03285,0.2599721 -0.237126,0.2442595 -0.43854,0.365675 -0.347118,0.2099774 -0.548532,0.5285146 -0.658524,0.9770379 -0.03143,0.129986 -0.372831,0.475663 -0.538533,0.441381 -0.387116,-0.08142 0.107135,-0.7956288 0.1957,-0.9041885 0.09714,-0.1199871 0.228555,-0.2271184 0.342833,-0.365675 0.11142,-0.1342712 0.185701,-0.3156803 0.292836,-0.389958 0.117134,-0.08142 0.454253,-0.1785522 0.658525,-0.1699817 m 2.889794,0.8784769 c 0.124277,0.00286 0.234269,0.022855 0.284265,0.072849 -0.07999,0.3228223 -0.772802,0.2371173 -1.027069,0.1199871 0.01714,-0.1214155 0.205699,-0.1542691 0.365688,-0.1699817 0.112849,-0.00429 0.252839,-0.025711 0.377116,-0.022855 m -1.581316,0.5942219 c 0.08285,-0.0029 0.167131,0.01571 0.254267,0.03857 -0.224269,0.188551 -0.468538,0.294254 -0.854224,0.41567 -0.185702,0.05856 -0.507107,0.131414 -0.538534,-0.07571 -0.03857,-0.254259 0.27141,-0.194265 0.441398,-0.21712 0.212842,-0.03 0.447111,-0.154269 0.697093,-0.161411 m 24.526826,0.362818 c 0.01857,0.182838 0.02143,0.357105 -0.02857,0.555655 -0.06714,0.264257 -0.304264,0.504231 -0.292836,0.734206 0.01571,0.117131 0.144275,0.231404 0.172844,0.389958 0.01571,0.08428 -0.04,0.265686 0,0.342821 0.124277,0.239974 0.462825,0.03714 0.684237,0.07285 0.215699,0.03428 0.465682,0.344249 0.462825,0.585651 -0.0029,0.168554 -0.161417,0.448524 -0.268553,0.611363 -0.212842,0.324251 -0.501393,0.338535 -0.805657,0.509945 -0.254267,0.144271 -0.364259,0.385673 -0.51282,0.635646 -0.161417,0.2714 -0.26141,0.435668 -0.195701,0.828483 -0.218555,0.43281 -0.54996,0.698496 -1.001357,0.904188 -0.134276,0.05999 -0.315692,0.08142 -0.43854,0.169982 -0.09714,0.06999 -0.154275,0.259972 -0.292836,0.415669 -0.171417,0.18998 -0.351404,0.269971 -0.441398,0.41567 -0.07,0.112845 -0.09285,0.337107 -0.169988,0.488519 -0.104278,0.205692 -0.325691,0.305681 -0.462824,0.512802 -0.06285,0.0957 -0.104278,0.289969 -0.172845,0.415669 -0.154274,0.281399 -0.418541,0.484234 -0.389972,0.73135 0.02857,0.238546 0.299979,0.27997 0.318549,0.488519 0.0043,0.11713 -0.07714,0.18998 -0.07285,0.318537 0.0043,0.187123 0.129991,0.318538 0.145704,0.462808 0.03714,0.362818 -0.124277,0.508516 -0.192844,0.755633 -0.03285,0.118558 -0.01857,0.249973 -0.05,0.34282 -0.06,0.181409 -0.312835,0.345677 -0.318549,0.561368 -0.0029,0.152841 0.157132,0.274256 0.169988,0.488519 0.0043,0.147127 -0.07285,0.305681 -0.04714,0.441381 0.05143,0.265686 0.527105,0.574224 0.734233,0.781345 0.275695,0.275684 0.637098,0.489947 0.755661,0.781344 0.09999,0.247117 0.09999,0.569939 0.292836,0.755633 0.142847,0.137128 0.378544,0.222833 0.561389,0.365675 0.169987,0.132843 0.357117,0.248545 0.538533,0.389958 0.297121,0.232832 0.745661,0.697068 1.219913,0.661358 0.247125,-0.01857 0.501393,-0.221405 0.781373,-0.269971 0.288551,-0.05142 0.66281,-0.07714 0.954218,-0.04714 0.222841,0.02285 0.451396,0.155698 0.684237,0.145699 0.244268,-0.01571 0.525677,-0.197122 0.804228,-0.318538 0.439969,-0.191408 1.078495,-0.428525 1.721306,-0.392814 0.122849,-0.899904 0.208557,-1.812663 0.208557,-2.748276 0,-3.783879 -1.058496,-7.303501 -2.871224,-10.314605 -0.08428,-0.0057 -0.161417,-0.01714 -0.254268,-0.01428 -0.247125,0.01571 -0.654239,0.01571 -0.658525,-0.292826 -0.0029,-0.25283 0.238555,-0.308538 0.527106,-0.327108 -0.539962,-0.825625 -1.144205,-1.601256 -1.797015,-2.335463 M 8.4211146,19.881186 c -0.4056854,0.02285 -0.6699523,0.04142 -0.9013644,0.145699 -0.5285338,0.239974 -0.425684,0.955611 -0.9542178,1.124164 -0.1828442,0.05856 -0.4328264,0.05999 -0.6328122,0.09713 -0.1728448,0.03142 -0.3842583,0.127129 -0.5642455,0.122844 -0.2114136,-0.0043 -0.5799588,-0.208549 -0.7056641,-0.342821 -0.087137,-0.09427 -0.2285552,-0.421383 -0.3214057,-0.638502 -0.1271338,0.702781 -0.215699,1.418419 -0.2685523,2.145483 0.042854,0.0086 0.088565,0.02 0.1257053,0.02 0.2314121,0.0014 0.4785374,-0.238546 0.7342335,-0.245688 0.5985288,-0.01714 0.8585103,0.761347 1.3413331,1.001321 0.12142,0.05999 0.2814086,0.06285 0.4385403,0.09713 0.1257053,0.02857 0.2214128,0.08142 0.3428327,0.122844 0.258553,0.08713 0.5742449,0.07856 0.781373,0.169982 0.3114064,0.138557 0.5385331,0.72278 0.8056569,0.878477 0.015713,0.157126 -0.028569,0.36996 0.025712,0.488519 0.1257053,0.17141 0.3056925,0.134271 0.5128207,0.245688 0.2485537,0.134271 0.3242626,0.479948 0.5613886,0.585651 0.081423,0.03571 0.2871233,0.03285 0.4156853,0.07285 0.324263,0.09856 0.42854,0.472807 0.705664,0.389958 0.181416,-0.05428 0.168559,-0.241402 0.198557,-0.415669 0.119992,-0.129986 0.249983,-0.337107 0.438541,-0.339964 0.302835,-0.01571 0.329976,0.314252 0.441397,0.608506 0.06285,0.167125 0.225698,0.312824 0.268552,0.488519 0.07571,0.302825 0.03857,1.211299 -0.02571,1.392708 -0.07571,0.222833 -0.378546,0.317108 -0.564246,0.564225 -0.08714,0.115702 -0.128563,0.284255 -0.195701,0.365675 -0.119992,0.145698 -0.298551,0.184266 -0.387116,0.318537 -0.05,0.07571 -0.09856,0.238546 -0.148561,0.339963 -0.147132,0.311395 -0.344261,0.531372 -0.219984,0.904189 0.05143,0.15284 0.292836,0.257115 0.292836,0.438524 0,0.212834 -0.452825,0.402814 -0.488536,0.635646 -0.02571,0.172838 0.13999,0.482805 0.1957,0.708495 0.04,0.169982 0.362831,0.277113 0.462824,0.389958 0.171417,0.192837 0.309978,0.464236 0.465681,0.705639 0.309978,0.475663 0.552818,1.054172 0.854225,1.515551 0.159989,0.241402 0.381402,0.458522 0.488537,0.708495 0.05428,0.125701 0.04714,0.277113 0.09714,0.389958 0.174273,0.394243 0.944219,0.805628 1.341333,1.001321 0.185701,0.08999 0.392829,0.122844 0.564246,0.21712 0.258553,0.14427 0.769945,0.531371 0.901364,0.758489 0.117135,0.204264 0.188558,0.699925 0.245697,1.024176 0.07571,0.428525 0.0029,0.75849 0.02571,1.221297 0.01571,0.251402 0.09428,0.504232 0.09714,0.755633 0.0014,0.08856 -0.04571,0.152841 -0.05,0.242831 -0.0043,0.304253 0.07571,0.647073 0.05,0.954183 -0.0014,0.06571 -0.0086,0.115702 -0.02,0.172839 2.396972,1.01132 5.033927,1.571259 7.806587,1.571259 0.28998,0 0.572817,-0.03285 0.859939,-0.04428 0.0071,-0.04571 0.01286,-0.09142 0.02286,-0.128558 0.08856,-0.247116 0.315691,-0.329965 0.462824,-0.512802 0.11142,-0.138557 0.162845,-0.299968 0.268552,-0.438524 0.114278,-0.149984 0.217128,-0.282827 0.292836,-0.41567 0.07142,-0.445666 -0.17713,-0.757061 -0.07285,-1.147019 0.117136,-0.438525 0.721379,-0.705639 1.147062,-0.904189 0.145704,-0.06714 0.297121,-0.178552 0.415684,-0.219976 0.294265,-0.102846 0.659954,-0.04714 0.928506,-0.145699 0.45711,-0.167125 0.505678,-0.657072 0.731376,-1.07417 0.107136,-0.197122 0.247126,-0.395672 0.268553,-0.535657 0.01857,-0.1257 -0.04571,-0.244259 -0.02571,-0.392815 0.02286,-0.147127 0.154275,-0.275684 0.195701,-0.438524 0.05428,-0.211406 0.07571,-0.519944 0.07571,-0.755633 0,-0.192836 -0.08999,-0.364246 -0.09714,-0.538513 -0.03143,-0.632789 0.228555,-0.70421 0.462824,-1.048459 0.117134,-0.17141 0.159988,-0.365675 0.242841,-0.488519 0.392828,-0.58708 1.075637,-0.869906 1.027069,-1.756954 -0.01714,-0.294254 -0.199986,-0.958468 -0.415684,-1.051315 -0.124277,-0.05428 -0.407114,-0.0043 -0.585673,-0.07285 -0.577102,-0.215691 -0.917078,-0.931328 -1.515606,-0.977037 -0.127134,-0.01571 -0.244269,0.05285 -0.387116,0.04999 -0.237126,-0.01571 -0.594243,-0.165696 -0.857082,-0.195693 -0.167131,-0.01857 -0.388543,0.05 -0.488536,0 -0.152847,-0.07428 -0.16856,-0.354248 -0.292837,-0.438524 -0.09856,-0.06714 -0.28855,-0.08999 -0.43854,-0.148556 -0.239983,-0.09285 -0.431398,-0.201407 -0.708521,-0.219976 -0.08571,-0.0043 -0.192843,0.04142 -0.292836,0.02571 -0.152846,-0.02571 -0.274266,-0.20712 -0.415685,-0.292825 -0.17713,-0.10856 -0.342833,-0.161411 -0.415685,-0.315681 0.159989,-0.525657 -0.282837,-0.672784 -0.389972,-0.977037 -0.05143,-0.142842 -0.02714,-0.314252 -0.07285,-0.441381 -0.06285,-0.18141 -0.244268,-0.285684 -0.441397,-0.438525 -0.352832,-0.271399 -0.667095,-0.527086 -1.171345,-0.588508 -0.221413,-0.02857 -0.439969,0.06714 -0.708521,0.04999 -0.284266,-0.01857 -0.641383,-0.267114 -0.854225,-0.509945 -0.207128,-0.237118 -0.30855,-0.449952 -0.488537,-0.564225 -0.169988,-0.109989 -0.397114,-0.107132 -0.51282,-0.21712 -0.05143,-0.04857 -0.04285,-0.131414 -0.09714,-0.245688 -0.08571,-0.177124 -0.229984,-0.275684 -0.122849,-0.488519 -0.194272,-0.09999 -0.199986,0.184266 -0.412828,0.148556 -0.189986,-0.269971 -0.349975,-0.3971 -0.781373,-0.318537 -0.197128,0.03714 -0.308549,0.287112 -0.538533,0.292825 -0.188558,0.01571 -0.337119,-0.209977 -0.585672,-0.245688 -0.188558,-0.02571 -0.4014,0.04999 -0.535676,0.02571 -0.208557,-0.04142 -0.272838,-0.215691 -0.462825,-0.339964 -0.13999,-0.09142 -0.409971,-0.248544 -0.488536,-0.245687 -0.245697,0.01571 -0.41997,0.522801 -0.758518,0.34282 -0.164274,-0.208549 0.267124,-0.318537 0.07285,-0.512802 -0.148561,-0.148556 -0.272838,0.06571 -0.389972,0.148555 -0.135705,0.09428 -0.262839,0.187123 -0.412828,0.242831 -0.33569,0.125701 -0.544247,0.05999 -0.805657,0.195694 -0.24284,0.1257 -0.252839,0.335678 -0.389972,0.585651 -0.112849,0.204264 -0.369974,0.501375 -0.538533,0.512802 -0.204271,0.01571 -0.399972,-0.285684 -0.585673,-0.365675 -0.558532,-0.242831 -0.829941,0.214263 -1.294193,0.219976 -0.431398,0.01571 -1.0456409,-0.694211 -1.0242138,-1.099881 0.00429,-0.247117 0.1414185,-0.622791 0.1699879,-0.928472 0.025712,-0.242831 0.1928434,-0.38853 0.1957004,-0.611363 0.00429,-0.297111 -0.3928292,-0.525658 -0.5856727,-0.561368 -0.4556818,-0.08428 -1.0899224,0.184266 -1.6127424,-0.02571 -0.099993,-0.165696 0.1171346,-0.279969 0.1728449,-0.441381 0.031426,-0.09142 0.014285,-0.214262 0.04714,-0.31568 0.058567,-0.155697 0.2199843,-0.275685 0.2928363,-0.441381 0.054282,-0.125701 0.068566,-0.30711 0.1228484,-0.462807 0.064281,-0.177124 0.1814157,-0.291398 0.1957004,-0.41567 0.01857,-0.164268 -0.044283,-0.354248 -0.1728449,-0.462807 m 6.5281065,5.169444 c 0.165703,0.01571 0.185702,0.357104 0.01714,0.385672 -0.182844,0.02857 -0.274266,-0.285683 -0.09714,-0.368531 0.03,-0.01571 0.05714,-0.01857 0.08142,-0.01714"
     id="path52"
     style="fill:url(#linearGradient826);stroke-width:1.42844379;fill-opacity:1"
     inkscape:connector-curvature="0" />
  <path
     style="fill:#000000;stroke-width:1.42844379;fill-opacity:1;opacity:0.2"
     d="M 4.0117188 23.5 C 4.0076941 23.665881 4 23.831162 4 23.998047 C 4 35.076855 12.918835 43.996094 23.998047 43.996094 C 35.077259 43.996094 43.998047 35.076855 43.998047 23.998047 C 43.998047 23.831154 43.9884 23.66589 43.984375 23.5 C 43.721208 34.346314 34.910359 43 23.998047 43 C 13.085726 43 4.2748725 34.346326 4.0117188 23.5 z "
     id="rect4573" />
  <path
     style="opacity:0.3;fill:url(#linearGradient900);fill-opacity:1;stroke:none;stroke-width:2.55811119;stroke-linecap:round;stroke-linejoin:round;stroke-miterlimit:4;stroke-dasharray:none;stroke-dashoffset:0;stroke-opacity:1;paint-order:normal"
     d="M 40.140625 19.925781 C 40.170733 19.962916 40.205282 19.989897 40.234375 20.029297 C 40.745352 20.715883 41 21.6194 41 22.738281 C 41 23.857162 40.745352 24.758727 40.234375 25.445312 C 39.727388 26.131899 39.066324 26.476562 38.251953 26.476562 C 37.760935 26.476562 37.337711 26.375308 36.982422 26.171875 C 36.631125 25.964204 36.338959 25.648428 36.107422 25.224609 L 36.107422 29 L 35 29 L 40.818359 34.818359 C 42.822705 31.701084 43.998047 27.99489 43.998047 23.998047 C 43.998047 23.924092 43.99298 23.851104 43.992188 23.777344 L 40.140625 19.925781 z M 37.982422 19.978516 C 37.399587 19.978516 36.940798 20.225167 36.605469 20.716797 C 36.274132 21.204188 36.107422 21.877929 36.107422 22.738281 C 36.107422 23.598633 36.274132 24.273996 36.605469 24.765625 C 36.940798 25.253016 37.399587 25.498047 37.982422 25.498047 C 38.565256 25.498047 39.022178 25.253016 39.353516 24.765625 C 39.688845 24.273996 39.855469 23.598633 39.855469 22.738281 C 39.855469 21.877929 39.688845 21.204188 39.353516 20.716797 C 39.022178 20.225167 38.565256 19.978516 37.982422 19.978516 z "
     id="rect856" />
  <path
     style="opacity:0.3;fill:url(#linearGradient894);fill-opacity:1;stroke:none;stroke-width:2.55811119;stroke-linecap:round;stroke-linejoin:round;stroke-miterlimit:4;stroke-dasharray:none;stroke-dashoffset:0;stroke-opacity:1;paint-order:normal"
     d="M 13 19.171875 L 13 29 L 11.896484 29 L 11.896484 25.224609 C 11.664716 25.648428 11.37127 25.964204 11.015625 26.171875 C 10.663976 26.375308 10.241598 26.476563 9.7460938 26.476562 C 9.0170518 26.476562 8.4147609 26.183701 7.9277344 25.628906 L 7.9355469 25.677734 L 26.138672 43.880859 C 29.27604 43.549892 32.182358 42.485881 34.710938 40.882812 L 19.470703 25.642578 C 19.051035 25.87086 18.567391 26 18 26 C 17.062257 26 16.326042 25.691313 15.792969 25.072266 C 15.263785 24.44925 15 23.59127 15 22.5 C 15 22.061989 15.05419 21.672557 15.138672 21.310547 L 13 19.171875 z M 10.015625 19.978516 C 9.4322085 19.978516 8.972383 20.225167 8.6367188 20.716797 C 8.3050503 21.204188 8.1386719 21.877929 8.1386719 22.738281 C 8.1386719 23.598633 8.3050502 24.273996 8.6367188 24.765625 C 8.9723831 25.253016 9.4322085 25.498047 10.015625 25.498047 C 10.599042 25.498047 11.058867 25.253016 11.394531 24.765625 C 11.730196 24.273996 11.896484 23.598633 11.896484 22.738281 C 11.896484 21.877929 11.730196 21.204188 11.394531 20.716797 C 11.058867 20.225167 10.599042 19.978516 10.015625 19.978516 z M 16.142578 22.314453 C 16.140334 22.377477 16.132812 22.434687 16.132812 22.5 C 16.132812 23.297619 16.298166 23.926401 16.628906 24.386719 C 16.963536 24.843068 17.420233 25.072266 18 25.072266 C 18.273634 25.072266 18.519099 25.015727 18.738281 24.910156 L 16.142578 22.314453 z "
     id="rect860" />
  <path
     style="opacity:0.3;fill:url(#linearGradient898);fill-opacity:1;stroke:none;stroke-width:2.55811119;stroke-linecap:round;stroke-linejoin:round;stroke-miterlimit:4;stroke-dasharray:none;stroke-dashoffset:0;stroke-opacity:1;paint-order:normal"
     d="M 32.439453 19.78125 C 32.812173 20.276114 33 20.972999 33 21.875 L 33 26 L 31.869141 26 L 31.869141 21.910156 C 31.869141 21.255114 31.751947 20.770474 31.519531 20.453125 C 31.287116 20.135776 30.932142 19.976562 30.455078 19.976562 C 29.871999 19.976562 29.412649 20.170125 29.074219 20.556641 C 28.735789 20.943156 28.566406 21.469471 28.566406 22.136719 L 28.566406 26 L 27.433594 26 L 27.433594 21.910156 C 27.433594 21.251045 27.318352 20.766406 27.085938 20.453125 C 26.853521 20.135776 26.494985 19.976562 26.009766 19.976562 C 25.434842 19.976562 24.977101 20.171916 24.638672 20.5625 C 24.300241 20.949015 24.130859 21.473539 24.130859 22.136719 L 24.130859 26 L 23 26 L 36.566406 39.566406 C 39.511203 37.189801 41.753642 33.991896 42.970703 30.314453 L 39.005859 26.349609 C 38.769515 26.425338 38.522054 26.476562 38.251953 26.476562 C 37.760935 26.476562 37.337711 26.375308 36.982422 26.171875 C 36.631125 25.964204 36.338959 25.648428 36.107422 25.224609 L 36.107422 29 L 35 29 L 35 22.341797 L 32.439453 19.78125 z M 24.255859 20.066406 L 24.130859 20.119141 L 24.130859 20.226562 C 24.168574 20.165037 24.215937 20.1232 24.255859 20.066406 z M 36.166016 23.507812 C 36.238789 24.009358 36.381186 24.432841 36.605469 24.765625 C 36.940798 25.253016 37.399587 25.498047 37.982422 25.498047 C 38.036723 25.498047 38.084603 25.48472 38.136719 25.480469 L 36.166016 23.507812 z "
     id="rect863" />
  <path
     style="opacity:0.3;fill:url(#linearGradient896);fill-opacity:1;stroke:none;stroke-width:2.55811119;stroke-linecap:round;stroke-linejoin:round;stroke-miterlimit:4;stroke-dasharray:none;stroke-dashoffset:0;stroke-opacity:1;paint-order:normal"
     d="M 19.882812 19.632812 C 19.917193 19.661531 19.949334 19.693896 19.982422 19.724609 L 19.890625 19.632812 L 19.882812 19.632812 z M 18 19.927734 C 17.424125 19.927734 16.969397 20.158823 16.634766 20.619141 C 16.383793 20.961402 16.226808 21.399394 16.164062 21.933594 C 16.143147 22.11166 16.132812 22.300595 16.132812 22.5 C 16.132812 23.297619 16.298166 23.926401 16.628906 24.386719 C 16.879879 24.72898 17.19917 24.943444 17.587891 25.029297 C 17.717464 25.057915 17.855058 25.072266 18 25.072266 C 18.571985 25.072266 19.024745 24.841177 19.359375 24.380859 C 19.694006 23.920542 19.861328 23.293651 19.861328 22.5 C 19.861328 21.710318 19.694006 21.085318 19.359375 20.625 C 19.024745 20.160714 18.571985 19.927734 18 19.927734 z M 20.234375 19.976562 C 20.361347 20.130416 20.473199 20.298187 20.568359 20.480469 C 20.663001 20.661757 20.74342 20.855093 20.806641 21.064453 C 20.807081 21.065893 20.808155 21.066918 20.808594 21.068359 C 20.822595 21.114908 20.827392 21.168864 20.839844 21.216797 C 20.883485 21.384786 20.924594 21.553307 20.949219 21.738281 C 20.949417 21.739744 20.950975 21.740723 20.951172 21.742188 C 20.982762 21.980895 21 22.233086 21 22.5 C 21 23.59127 20.734245 24.44925 20.201172 25.072266 C 19.668097 25.691313 18.933852 26 18 26 C 17.778222 26 17.569529 25.981045 17.371094 25.945312 C 17.204399 25.916461 17.051265 25.865564 16.900391 25.8125 C 16.874937 25.803275 16.84531 25.800939 16.820312 25.791016 C 16.648529 25.724715 16.490323 25.637948 16.339844 25.539062 C 16.187359 25.438859 16.046583 25.321204 15.916016 25.1875 L 15.925781 25.248047 L 32.681641 42.005859 C 34.773852 40.999324 36.666449 39.651923 38.273438 38.015625 L 24.130859 23.873047 L 24.130859 26 L 23 26 L 23 22.742188 L 20.234375 19.976562 z "
     id="rect868" />
  <path
     style="font-style:normal;font-variant:normal;font-weight:normal;font-stretch:normal;font-size:medium;line-height:1.25;font-family:'DejaVu Sans';-inkscape-font-specification:'DejaVu Sans';letter-spacing:0px;word-spacing:0px;fill:url(#linearGradient908);fill-opacity:1;stroke:none;stroke-width:0.31605613"
     d="M 9.7460938 19 C 8.9349049 19 8.2732073 19.34271 7.7617188 20.029297 C 7.2542262 20.715883 7 21.6194 7 22.738281 C 7 23.857162 7.2542262 24.758727 7.7617188 25.445312 C 8.2732073 26.131899 8.9349049 26.476562 9.7460938 26.476562 C 10.241598 26.476563 10.663976 26.375308 11.015625 26.171875 C 11.37127 25.964204 11.664716 25.648428 11.896484 25.224609 L 11.896484 29 L 13 29 L 13 19.171875 L 11.896484 19.171875 L 11.896484 20.251953 C 11.664716 19.828135 11.37127 19.51398 11.015625 19.310547 C 10.663976 19.102876 10.241598 19 9.7460938 19 z M 18 19 C 17.062257 19 16.326042 19.308687 15.792969 19.927734 C 15.263785 20.546782 15 21.404762 15 22.5 C 15 23.59127 15.263785 24.44925 15.792969 25.072266 C 16.326042 25.691313 17.062257 26 18 26 C 18.933852 26 19.668097 25.691313 20.201172 25.072266 C 20.734245 24.44925 21 23.59127 21 22.5 C 21 21.404762 20.734245 20.546782 20.201172 19.927734 C 19.668097 19.308687 18.933852 19 18 19 z M 26.333984 19 C 25.84061 19 25.413504 19.099467 25.054688 19.298828 C 24.69587 19.498189 24.387741 19.807499 24.130859 20.226562 L 24.130859 19.164062 L 23 19.164062 L 23 26 L 24.130859 26 L 24.130859 22.136719 C 24.130859 21.473539 24.300241 20.949015 24.638672 20.5625 C 24.977101 20.171916 25.434842 19.976562 26.009766 19.976562 C 26.494985 19.976562 26.853521 20.135776 27.085938 20.453125 C 27.318353 20.766406 27.433594 21.251045 27.433594 21.910156 L 27.433594 26 L 28.566406 26 L 28.566406 22.136719 C 28.566406 21.469471 28.735789 20.943156 29.074219 20.556641 C 29.412649 20.170125 29.871999 19.976562 30.455078 19.976562 C 30.932142 19.976562 31.287116 20.135776 31.519531 20.453125 C 31.751947 20.770474 31.869141 21.255114 31.869141 21.910156 L 31.869141 26 L 33 26 L 33 21.875 C 33 20.955499 32.807282 20.246367 32.419922 19.75 C 32.032562 19.249563 31.481135 19 30.767578 19 C 30.237507 19 29.776202 19.119328 29.384766 19.359375 C 28.993328 19.599422 28.658299 19.972058 28.376953 20.476562 C 28.209778 19.996469 27.950273 19.631158 27.599609 19.378906 C 27.253025 19.126654 26.831436 19 26.333984 19 z M 38.251953 19 C 37.760935 19 37.337711 19.102876 36.982422 19.310547 C 36.631125 19.51398 36.338959 19.828135 36.107422 20.251953 L 36.107422 19.171875 L 35 19.171875 L 35 29 L 36.107422 29 L 36.107422 25.224609 C 36.338959 25.648428 36.631125 25.964204 36.982422 26.171875 C 37.337711 26.375308 37.760935 26.476562 38.251953 26.476562 C 39.066324 26.476562 39.727388 26.131899 40.234375 25.445312 C 40.745352 24.758727 41 23.857162 41 22.738281 C 41 21.6194 40.745352 20.715883 40.234375 20.029297 C 39.727388 19.34271 39.066324 19 38.251953 19 z M 18 19.927734 C 18.571985 19.927734 19.024745 20.160714 19.359375 20.625 C 19.694006 21.085318 19.861328 21.710318 19.861328 22.5 C 19.861328 23.293651 19.694006 23.920542 19.359375 24.380859 C 19.024745 24.841177 18.571985 25.072266 18 25.072266 C 17.420233 25.072266 16.963536 24.843068 16.628906 24.386719 C 16.298166 23.926401 16.132812 23.297619 16.132812 22.5 C 16.132812 21.702381 16.300136 21.07549 16.634766 20.619141 C 16.969397 20.158823 17.424125 19.927734 18 19.927734 z M 10.015625 19.978516 C 10.599042 19.978516 11.058867 20.225167 11.394531 20.716797 C 11.730196 21.204188 11.896484 21.877929 11.896484 22.738281 C 11.896484 23.598633 11.730196 24.273996 11.394531 24.765625 C 11.058867 25.253016 10.599042 25.498047 10.015625 25.498047 C 9.4322085 25.498047 8.9723831 25.253016 8.6367188 24.765625 C 8.3050503 24.273996 8.1386719 23.598633 8.1386719 22.738281 C 8.1386719 21.877929 8.3050504 21.204188 8.6367188 20.716797 C 8.9723831 20.225167 9.4322085 19.978516 10.015625 19.978516 z M 37.982422 19.978516 C 38.565256 19.978516 39.022178 20.225167 39.353516 20.716797 C 39.688845 21.204188 39.855469 21.877929 39.855469 22.738281 C 39.855469 23.598633 39.688845 24.273996 39.353516 24.765625 C 39.022178 25.253016 38.565256 25.498047 37.982422 25.498047 C 37.399587 25.498047 36.940798 25.253016 36.605469 24.765625 C 36.274132 24.273996 36.107422 23.598633 36.107422 22.738281 C 36.107422 21.877929 36.274132 21.204188 36.605469 20.716797 C 36.940798 20.225167 37.399587 19.978516 37.982422 19.978516 z "
     id="path832" />
</svg>
