<?xml version="1.0" encoding="UTF-8" standalone="no"?>
<svg
   xmlns:dc="http://purl.org/dc/elements/1.1/"
   xmlns:cc="http://creativecommons.org/ns#"
   xmlns:rdf="http://www.w3.org/1999/02/22-rdf-syntax-ns#"
   xmlns:svg="http://www.w3.org/2000/svg"
   xmlns="http://www.w3.org/2000/svg"
   xmlns:xlink="http://www.w3.org/1999/xlink"
   xmlns:sodipodi="http://sodipodi.sourceforge.net/DTD/sodipodi-0.dtd"
   xmlns:inkscape="http://www.inkscape.org/namespaces/inkscape"
   height="48"
   viewBox="0 0 48 48"
   width="48"
   version="1.1"
   id="svg57"
   sodipodi:docname="utilities-tweak-tool.svg"
   inkscape:version="0.92.3 (2405546, 2018-03-11)">
  <metadata
     id="metadata63">
    <rdf:RDF>
      <cc:Work
         rdf:about="">
        <dc:format>image/svg+xml</dc:format>
        <dc:type
           rdf:resource="http://purl.org/dc/dcmitype/StillImage" />
        <dc:title></dc:title>
      </cc:Work>
    </rdf:RDF>
  </metadata>
  <defs
     id="defs61">
    <linearGradient
       inkscape:collect="always"
       id="linearGradient974">
      <stop
         style="stop-color:#000000;stop-opacity:1;"
         offset="0"
         id="stop970" />
      <stop
         style="stop-color:#000000;stop-opacity:0;"
         offset="1"
         id="stop972" />
    </linearGradient>
    <linearGradient
       inkscape:collect="always"
       id="linearGradient899">
      <stop
         style="stop-color:#000000;stop-opacity:1;"
         offset="0"
         id="stop895" />
      <stop
         style="stop-color:#000000;stop-opacity:0;"
         offset="1"
         id="stop897" />
    </linearGradient>
    <linearGradient
       inkscape:collect="always"
       xlink:href="#linearGradient899"
       id="linearGradient901"
       x1="14.676001"
       y1="18.815027"
       x2="34.773479"
       y2="38.912506"
       gradientUnits="userSpaceOnUse" />
    <linearGradient
       inkscape:collect="always"
       xlink:href="#linearGradient899"
       id="linearGradient903"
       x1="25.588791"
       y1="18.96347"
       x2="40.203087"
       y2="33.577766"
       gradientUnits="userSpaceOnUse" />
    <linearGradient
       inkscape:collect="always"
       xlink:href="#linearGradient974"
       id="linearGradient976"
       x1="25.888916"
       y1="35.384377"
       x2="13.179088"
       y2="13.370306"
       gradientUnits="userSpaceOnUse" />
  </defs>
  <sodipodi:namedview
     pagecolor="#ffffff"
     bordercolor="#666666"
     borderopacity="1"
     objecttolerance="10"
     gridtolerance="10"
     guidetolerance="10"
     inkscape:pageopacity="0"
     inkscape:pageshadow="2"
     inkscape:window-width="1920"
     inkscape:window-height="1020"
     id="namedview59"
     showgrid="false"
     inkscape:zoom="17.31"
     inkscape:cx="24"
     inkscape:cy="24"
     inkscape:window-x="0"
     inkscape:window-y="30"
     inkscape:window-maximized="1"
     inkscape:current-layer="svg57" />
  <linearGradient
     id="a">
    <stop
       offset="0"
       stop-color="#292c2f"
       id="stop2" />
    <stop
       offset="1"
       stop-opacity="0"
       id="stop4" />
  </linearGradient>
  <linearGradient
     id="b"
     gradientTransform="matrix(2.8571429 0 0 2.7999946 -1209.9184 -1455.2316)"
     gradientUnits="userSpaceOnUse"
     x1="428.37143"
     x2="428.37143"
     y1="530.79797"
     y2="525.79797">
    <stop
       offset="0"
       stop-color="#da4453"
       id="stop7" />
    <stop
       offset="1"
       stop-color="#fa4e5f"
       id="stop9" />
  </linearGradient>
  <linearGradient
     id="c"
     gradientUnits="userSpaceOnUse"
     x1="33.999967"
     x2="33.999967"
     y1="31.000038"
     y2="17.000038">
    <stop
       offset="0"
       stop-color="#4d4d4d"
       id="stop12" />
    <stop
       offset="1"
       stop-color="#585858"
       id="stop14" />
  </linearGradient>
  <linearGradient
     id="d"
     gradientUnits="userSpaceOnUse"
     x1="31.999967"
     x2="31.999967"
     y1="31.000038"
     y2="17.000038">
    <stop
       offset="0"
       stop-color="#afb0b3"
       id="stop17" />
    <stop
       offset="1"
       stop-color="#bdc3c7"
       id="stop19" />
  </linearGradient>
  <linearGradient
     id="e"
     gradientUnits="userSpaceOnUse"
     x1="28.999967"
     x2="28.999967"
     y1="17.000038"
     y2="31.000038">
    <stop
       offset="0"
       stop-color="#31363b"
       id="stop22" />
    <stop
       offset="1"
       stop-color="#4d4d4d"
       id="stop24" />
  </linearGradient>
  <linearGradient
     id="f"
     gradientUnits="userSpaceOnUse"
     x1="25.999967"
     x2="25.999967"
     y1="17.000038"
     y2="31.000038">
    <stop
       offset="0"
       stop-color="#7f8c8d"
       id="stop27" />
    <stop
       offset="1"
       stop-color="#afb0b3"
       id="stop29" />
  </linearGradient>
  <linearGradient
     id="g"
     gradientUnits="userSpaceOnUse"
     x1="24"
     x2="24"
     y1="44"
     y2="4">
    <stop
       offset="0"
       stop-color="#bdc3c7"
       id="stop32" />
    <stop
       offset="1"
       stop-color="#eff0f1"
       id="stop34" />
  </linearGradient>
  <linearGradient
     id="h"
     gradientUnits="userSpaceOnUse"
     x1="17"
     x2="38.140625"
     xlink:href="#a"
     y1="17"
     y2="38.140625" />
  <linearGradient
     id="i"
     gradientUnits="userSpaceOnUse"
     x1="25"
     x2="41.563583"
     xlink:href="#a"
     y1="17"
     y2="33.563583"
     gradientTransform="translate(34.576271,-7.1186441)" />
  <circle
     cx="24"
     cy="24"
     fill="url(#g)"
     r="20"
     id="circle39" />
  <path
     d="m43.978516 23.417969a20 20 0 0 1 -19.978516 19.582031 20 20 0 0 1 -19.978516-19.417969 20 20 0 0 0 -.021484.417969 20 20 0 0 0 20 20 20 20 0 0 0 20-20 20 20 0 0 0 -.021484-.582031z"
     fill="#232629"
     opacity=".2"
     id="path55" />
  <path
     style="opacity:0.2;fill:url(#linearGradient903);fill-opacity:1;stroke:none;stroke-width:2.58583975;stroke-linecap:round;stroke-linejoin:round;stroke-miterlimit:4;stroke-dasharray:none;stroke-dashoffset:0;stroke-opacity:1;paint-order:normal"
     d="M 35.107422 19.628906 C 36.270572 20.721889 37 22.270569 37 24 C 37 27.324 34.324 30 31 30 L 17 30 C 15.452362 30 14.050286 29.414496 12.988281 28.458984 L 28.083984 43.554688 A 20 20 0 0 0 43.582031 28.044922 L 35.171875 19.634766 L 35.107422 19.628906 z "
     id="rect882" />
  <path
     style="opacity:1;fill:#da4040;fill-opacity:1;stroke:none;stroke-width:4.21653986;stroke-linecap:round;stroke-linejoin:round;stroke-miterlimit:4;stroke-dasharray:none;stroke-dashoffset:0;stroke-opacity:1;paint-order:normal"
     d="m 17,18 h 14 c 3.324,0 6,2.676 6,6 0,3.324 -2.676,6 -6,6 H 17 c -1.937518,-2.021953 -1.3,-2.676 -1.3,-6 0,-3.324 0.286803,-4.497978 1.3,-6 z"
     id="rect870"
     inkscape:connector-curvature="0"
     sodipodi:nodetypes="cssscsc" />
  <path
     style="opacity:0.2;fill:url(#linearGradient901);fill-opacity:1;stroke:none;stroke-width:2.58583975;stroke-linecap:round;stroke-linejoin:round;stroke-miterlimit:4;stroke-dasharray:none;stroke-dashoffset:0;stroke-opacity:1;paint-order:normal"
     d="M 21.488281 20.029297 A 6 6 0 0 1 23 24 A 6 6 0 0 1 17 30 A 6 6 0 0 1 12.900391 28.371094 L 28.083984 43.554688 A 20 20 0 0 0 38.837891 37.376953 L 21.488281 20.029297 z "
     id="rect888" />
  <circle
     style="opacity:1;fill:#4e5859;fill-opacity:1;stroke:none;stroke-width:4.53072023;stroke-linecap:round;stroke-linejoin:round;stroke-miterlimit:4;stroke-dasharray:none;stroke-dashoffset:0;stroke-opacity:1;paint-order:normal"
     id="path872"
     cx="17"
     cy="24"
     r="6" />
  <path
     style="opacity:0.6;fill:url(#linearGradient976);fill-opacity:1;stroke:none;stroke-width:4.53072023;stroke-linecap:round;stroke-linejoin:round;stroke-miterlimit:4;stroke-dasharray:none;stroke-dashoffset:0;stroke-opacity:1;paint-order:normal"
     d="M 17 18 A 6 6 0 0 0 11 24 A 6 6 0 0 0 17 30 A 6 6 0 0 0 23 24 A 6 6 0 0 0 17 18 z M 17 19 A 5 5 0 0 1 22 24 A 5 5 0 0 1 17 29 A 5 5 0 0 1 12 24 A 5 5 0 0 1 17 19 z "
     id="circle965" />
</svg>
