<?xml version="1.0" encoding="UTF-8" standalone="no"?>
<!-- Created with Inkscape (http://www.inkscape.org/) -->

<svg
   width="64"
   version="1.1"
   height="64"
   id="svg2"
   inkscape:version="1.1 (c4e8f9ed74, 2021-05-24)"
   sodipodi:docname="folder-cloud.svg"
   xmlns:inkscape="http://www.inkscape.org/namespaces/inkscape"
   xmlns:sodipodi="http://sodipodi.sourceforge.net/DTD/sodipodi-0.dtd"
   xmlns:xlink="http://www.w3.org/1999/xlink"
   xmlns="http://www.w3.org/2000/svg"
   xmlns:svg="http://www.w3.org/2000/svg"
   xmlns:rdf="http://www.w3.org/1999/02/22-rdf-syntax-ns#"
   xmlns:cc="http://creativecommons.org/ns#"
   xmlns:dc="http://purl.org/dc/elements/1.1/">
  <sodipodi:namedview
     pagecolor="#ffffff"
     bordercolor="#666666"
     borderopacity="1"
     objecttolerance="10"
     gridtolerance="10"
     guidetolerance="10"
     inkscape:pageopacity="0"
     inkscape:pageshadow="2"
     inkscape:window-width="1920"
     inkscape:window-height="1006"
     id="namedview17"
     showgrid="true"
     inkscape:object-nodes="true"
     inkscape:zoom="3.6875"
     inkscape:cx="-21.288136"
     inkscape:cy="30.644068"
     inkscape:window-x="0"
     inkscape:window-y="0"
     inkscape:window-maximized="1"
     inkscape:current-layer="layer1"
     inkscape:pagecheckerboard="0">
    <inkscape:grid
       type="xygrid"
       id="grid4177" />
  </sodipodi:namedview>
  <defs
     id="defs5455">
    <linearGradient
       inkscape:collect="always"
       id="linearGradient4501">
      <stop
         style="stop-color:#9b4519;stop-opacity:1"
         offset="0"
         id="stop4497" />
      <stop
         style="stop-color:#ab4d1c;stop-opacity:1"
         offset="1"
         id="stop4499" />
    </linearGradient>
    <linearGradient
       gradientTransform="translate(-9e-6,-9.94e-5)"
       inkscape:collect="always"
       xlink:href="#linearGradient4176"
       id="linearGradient4182"
       x1="406.57144"
       y1="503.7981"
       x2="440.57144"
       y2="532.7981"
       gradientUnits="userSpaceOnUse" />
    <linearGradient
       inkscape:collect="always"
       id="linearGradient4176">
      <stop
         style="stop-color:#e38452;stop-opacity:1"
         offset="0"
         id="stop4178" />
      <stop
         style="stop-color:#dd682a;stop-opacity:1"
         offset="1"
         id="stop4180" />
    </linearGradient>
    <linearGradient
       inkscape:collect="always"
       xlink:href="#linearGradient4501"
       id="linearGradient4503"
       x1="414.57144"
       y1="489.798"
       x2="414.57144"
       y2="503.798"
       gradientUnits="userSpaceOnUse" />
  </defs>
  <metadata
     id="metadata5458">
    <rdf:RDF>
      <cc:Work
         rdf:about="">
        <dc:format>image/svg+xml</dc:format>
        <dc:type
           rdf:resource="http://purl.org/dc/dcmitype/StillImage" />
      </cc:Work>
    </rdf:RDF>
  </metadata>
  <g
     inkscape:label="Capa 1"
     inkscape:groupmode="layer"
     id="layer1"
     transform="translate(-384.57143,-483.798)">
    <path
       inkscape:connector-curvature="0"
       style="fill:#ffffff;fill-opacity:0.235294;fill-rule:evenodd"
       id="path4224-3"
       d="m 387.57144,503.79802 v 1 h 19.99999 l 3,-5 -4,4 z" />
    <path
       style="fill:url(#linearGradient4503);fill-opacity:1;fill-rule:evenodd;stroke:none;stroke-width:1px;stroke-linecap:butt;stroke-linejoin:miter;stroke-opacity:1"
       d="m 387.57144,489.7979 h 23.99999 l 5,6 h 29 l 10e-6,38 h -58 z"
       id="rect4160"
       inkscape:connector-curvature="0"
       sodipodi:nodetypes="ccccccc" />
    <path
       d="m 411.57143,489.7979 5,7 h 2 27 v -1 h -27 -2 z"
       id="path4166"
       style="fill:#ffffff;fill-opacity:0.235294;fill-rule:evenodd"
       inkscape:connector-curvature="0"
       sodipodi:nodetypes="cccccccc" />
    <path
       style="fill:url(#linearGradient4182);fill-opacity:1;fill-rule:evenodd;stroke:none;stroke-width:1px;stroke-linecap:butt;stroke-linejoin:miter;stroke-opacity:1"
       d="m 387.57143,502.7979 h 24 l 5,-6 h 29 l 10e-6,45 h -58 z"
       id="rect3347"
       inkscape:connector-curvature="0"
       sodipodi:nodetypes="ccccccc" />
    <path
       sodipodi:nodetypes="cccccccc"
       inkscape:connector-curvature="0"
       style="fill:#ffffff;fill-opacity:0.235294;fill-rule:evenodd"
       id="path4168"
       d="m 416.57143,496.7979 -4,7 h -4 -21 v -1 h 21 3 z" />
    <path
       inkscape:connector-curvature="0"
       style="fill:#000000;fill-opacity:0.235294;fill-rule:evenodd"
       id="path4228-6"
       d="m 387.57143,501.7979 v 1 h 24 l 5,-6 -6,5 z"
       sodipodi:nodetypes="cccccc" />
    <path
       inkscape:connector-curvature="0"
       style="fill-opacity:0.235294"
       id="path4151-2-7"
       d="m 387.57143,540.798 v 1 h 1 56 1 v -1 h -1 -56 z" />
    <path
       style="fill:#eff0f1;stroke-linejoin:round"
       id="path4225"
       d="m 416.57143,511.79805 a 7,7 0 0 0 -7,7 7,7 0 0 0 0.0801,1.00195 5,5 0 0 0 -0.0801,-0.002 5,5 0 0 0 -5,5 5,5 0 0 0 5,5 h 13 a 6,6 0 0 0 6,-6 6,6 0 0 0 -5.06836,-5.92188 7,7 0 0 0 -6.93164,-6.07812 z m 0,1 a 6,6 0 0 1 0.59961,0.0293 6,6 0 0 1 2.78711,1.01953 6,6 0 0 1 0.002,0 6,6 0 0 1 1.31055,1.2207 6,6 0 0 1 0,0.002 6,6 0 0 1 1.21484,2.73243 6,6 0 0 1 0.0859,0.99604 5,5 0 0 1 0.99609,0.0996 5,5 0 0 1 0.48243,0.12305 5,5 0 0 1 0.002,0 5,5 0 0 1 0.46679,0.17187 5,5 0 0 1 0.002,0 5,5 0 0 1 0.44727,0.2168 5,5 0 0 1 0.004,0.002 5,5 0 0 1 0.42187,0.25976 5,5 0 0 1 0.004,0.002 5,5 0 0 1 0.39453,0.30079 5,5 0 0 1 0.002,0.002 5,5 0 0 1 0.36329,0.33789 5,5 0 0 1 0.002,0.002 5,5 0 0 1 0.61914,0.78125 5,5 0 0 1 0.002,0.002 5,5 0 0 1 0.24609,0.43164 5,5 0 0 1 0.002,0.002 5,5 0 0 1 0.20313,0.45312 5,5 0 0 1 0.002,0.002 5,5 0 0 1 0.15625,0.47266 5,5 0 0 1 0,0.002 5,5 0 0 1 0.10937,0.48633 5,5 0 0 1 0,0.002 5,5 0 0 1 0.0605,0.49414 5,5 0 0 1 0.0114,0.35309 5,5 0 0 1 -5,5 h -13 a 4,4 0 0 1 -4,-4 4,4 0 0 1 0.0195,-0.39844 4,4 0 0 1 3.98047,-3.60156 4,4 0 0 1 0.29883,0.0137 4,4 0 0 1 0,0.002 4,4 0 0 1 1.15625,0.26172 6,6 0 0 1 -0.3418,-1.14649 6,6 0 0 1 -0.0742,-0.50781 6,6 0 0 1 -0.0137,-0.11523 6,6 0 0 1 -0.0254,-0.50786 6,6 0 0 1 0.0293,-0.59961 6,6 0 0 1 5.9707,-5.40039 z" />
  </g>
</svg>
