<svg xmlns="http://www.w3.org/2000/svg" id="svg2" width="22" height="22" x="0" y="0" version="1.1" xml:space="preserve">
 <defs id="defs8">
  <style id="current-color-scheme" type="text/css">
   .ColorScheme-Text { color:#cecfce; } .ColorScheme-Highlight { color:#3daee9; }
  </style>
 </defs>
 <path id="path4" style="fill:currentColor" class="ColorScheme-Text" d="m19.635 2.0254l-5.617 6.8164 1.982 1.1582 4-7.6484-0.365-0.3262zm-14.635 4.4746l-4 3.5 4.375-0.625 1.625 9.625 3.393-2.301 9.607 2.801-3-7.5-2-1.4-5.252 4.492-3.248-8.092-1.5-0.5zm7 2.5293l-3 0.9707 1 3 4-3-2-0.9707z"/>
 <g id="g4503" transform="rotate(-90,17,16)">
  <rect id="rect4153-8" style="opacity:1;fill:#27ae60;fill-opacity:1;stroke:none;stroke-width:0.875" width="7" height="7" x="13" y="12" ry=".875"/>
  <path id="rect3373-3" style="opacity:1;fill:#ffffff;fill-opacity:1;stroke:none;stroke-width:1;stroke-linecap:butt;stroke-linejoin:round;stroke-miterlimit:4;stroke-dasharray:none" d="m 14,16 h 3 v 2 L 19.5,15.5 17,13 v 2 h -3 z"/>
 </g>
</svg>
