<svg xmlns="http://www.w3.org/2000/svg" id="svg2" width="22" height="22" version="1">
 <defs id="defs14">
  <style id="current-color-scheme" type="text/css">
   .ColorScheme-Text { color:#cecfce; } .ColorScheme-Highlight { color:#3daee9; }
  </style>
 </defs>
 <path id="path4500" style="color:#cecfce;fill:#cecfce;fill-opacity:1;stroke:none" d="M 3 3 L 3 5 A 13.999998 13.999998 0 0 1 17 19 L 19 19 A 15.999998 15.999998 0 0 0 3 3 z M 3 7 L 3 9 A 10 10 0 0 1 13 19 L 15 19 A 12 12 0 0 0 3 7 z M 3 11 L 3 13 A 6 5.9999871 0 0 1 9 19 L 11 19 A 8 7.9999828 0 0 0 3 11 z"/>
 <path id="path7" style="color:#cecfce;fill:#3daee9;fill-opacity:1;stroke:none" d="m 4.4999997,16 a 1.5,1.5 0 0 0 -1.4999995,1.5 1.5,1.5 0 0 0 1.4999995,1.5 1.5,1.5 0 0 0 1.5,-1.5 1.5,1.5 0 0 0 -1.5,-1.5 z"/>
</svg>
