<svg xmlns="http://www.w3.org/2000/svg" id="svg2" width="22" height="22" version="1.1">
 <defs id="defs12">
  <style id="current-color-scheme" type="text/css">
   .ColorScheme-Text { color:#cecfce; } .ColorScheme-Highlight { color:#3daee9; }
  </style>
 </defs>
 <g id="g4">
  <path id="path6" fill-opacity="0" style="fill:currentColor" class="ColorScheme-Text" d="m0 0.5v-0.5h0.5 0.5 0.5 0.5 0.5 0.5 0.5 0.5 0.5 0.5 0.5 0.5 0.5 0.5 0.5 0.5 0.5 0.5 0.5 0.5 0.5 0.5 0.5 0.5 0.5 0.5 0.5 0.5 0.5 0.5 0.5 0.5 0.5 0.5 0.5 0.5 0.5 0.5 0.5 0.5 0.5 0.5 0.5 0.5 0.5 0.5 0.5 0.5 0.5 0.5 0.5 0.5 0.5 0.5 0.5 0.5 0.5 0.5 0.5 0.5 0.5 0.5 0.5 0.5 0.5 0.5 0.5 0.5 0.5 0.5 0.5 0.5 0.5 0.5 0.5 0.5 0.5 0.5 0.5 0.5 0.5 0.5 0.5 0.5 0.5 0.5 0.5 0.5 0.5 0.5 0.5 0.5 0.5 0.5 0.5 0.5 0.5 0.5 0.5 0.5 0.5 0.5 0.5 0.5 0.5 0.5 0.5 0.5 0.5 0.5 0.5 0.5 0.5 0.5 0.5 0.5 0.5 0.5 0.5 0.5 0.5 0.5 0.5 0.5 0.5 0.5 0.5 0.5 0.5 0.5 0.5 0.5 0.5 0.5 0.5 0.5 0.5 0.5 0.5 0.5 0.5 0.5 0.5 0.5 0.5 0.5 0.5 0.5 0.5 0.5 0.5 0.5 0.5 0.5 0.5 0.5 0.5 0.5 0.5 0.5 0.5 0.5 0.5 0.5 0.5 0.5 0.5 0.5 0.5 0.5 0.5 0.5 0.5 0.5 0.5 0.5 0.5 0.5 0.5 0.5 0.5 0.5 0.5 0.5 0.5 0.5 0.5 0.5 0.5 0.5 0.5 0.5 0.5 0.5 0.5 0.5 0.5 0.5l0.125 0.375q0.125 0.375 0.5 0.5t0.875 0.125 1 0 1 0 0.875-0.125 0.5-0.5l0.12-0.375h0.5 0.5 0.5 0.5 0.5 0.5 0.5 0.5 0.5 0.5 0.5 0.5v0.5q0 0.5-0.5 0.5h-0.5-0.5-0.5-0.5-0.5-0.5-0.5-0.5q-0.5 0-0.875 0.125t-0.5 0.5q-0.12 0.375-0.62 0.375h-0.5-0.5-0.5-0.5-0.5-0.5q-0.5 0-0.875-0.125t-0.625-0.375-0.625-0.375-0.875-0.125-0.875 0.125-0.375 0.375 0.375 0.375 0.875 0.125 0.875 0.125 0.5 0.5-0.375 0.375h-0.5-0.5-0.5-0.5q-0.5 0-0.875 0.125t-0.5 0.5-0.625 0.375h-0.5-0.5-0.5-0.5q-0.5 0-0.625-0.375t-0.5-0.5-0.875-0.125-0.875 0.125-0.375 0.375 0.375 0.375 0.875 0.125 0.5 0.5-0.5 0.5h-0.5-0.5-0.5l-0.125-0.375q-0.125-0.375-0.5-0.5t-0.875-0.125-0.875 0.125-0.375 0.375 0.375 0.375 0.75 0.25 0.5 0.5-0.375 0.375h-0.5-0.5-0.5l-0.125-0.375q-0.125-0.375-0.5-0.5t-0.875-0.125-0.875 0.125-0.625 0.375-0.625 0.375-0.875 0.125-0.875 0.125-0.375 0.375 0.375 0.375 0.875 0.125 0.875-0.125 0.625-0.375 0.625-0.375 0.875-0.125h0.5v0.5q0 0.5-0.5 0.5h-0.5l-0.375 0.125q-0.375 0.125-0.625 0.375t-0.625 0.375l-0.375 0.125h-0.5-0.5l-0.375 0.125q-0.375 0.125-0.625 0.375t-0.625 0.375l-0.375 0.125-0.375 0.125q-0.375 0.125-0.625 0.375t-0.625 0.375l-0.375 0.125h-0.5-0.5l-0.125-0.375q-0.125-0.375-0.5-0.5t-0.875-0.125-0.875 0.125-0.5 0.5-0.625 0.375-0.875 0.125-0.5 0.5-0.625 0.375-0.875 0.125-0.5 0.5-0.625 0.375-0.875 0.125-0.5 0.5l-0.125 0.375-0.375 0.125q-0.375 0.125-0.375 0.375t0.375 0.375l0.375 0.125-0.125 0.375q-0.125 0.375-0.5 0.5l-0.375 0.125-0.125-0.375q-0.125-0.375-0.5-0.5t-0.75 0-0.625 0.375-0.625 0.375-0.75 0.25-0.5 0.5l-0.125 0.375h-0.5q-0.5 0-0.875 0.125t-0.5 0.5l-0.125 0.375-0.375 0.125q-0.375 0.125-0.625 0.375t-0.625 0.375-0.75 0.25-0.5 0.5l-0.125 0.375-0.375 0.125q-0.375 0.125-0.625 0.375t-0.625 0.375-0.75 0.25-0.484 0.516l-0.11 0.39 0.11-0.015 0.109-0.016-0.219 0.031q-0.219 0.031-0.406 0.094l-0.187 0.063 0.281-0.094 0.281-0.094-0.375 0.125q-0.375 0.125-0.375 0.375t0.375 0.375l0.375 0.125-0.281-0.094-0.281-0.094 0.187 0.063q0.1875 0.0625 0.40625 0.09375l0.219 0.031-0.109-0.016-0.11-0.015-0.14 0.39q-0.141 0.391-0.391 0.641t-0.5 0.5-0.5 0.5-0.5 0.5-0.625 0.375-0.375-0.375v-0.5l0.375-0.125q0.375-0.125 0.5-0.5l0.125-0.375 0.375-0.125q0.375-0.125 0.375-0.375t-0.375-0.375-0.75 0-0.5 0.5l-0.125 0.375-0.375 0.125q-0.375 0.125-0.625 0.375t-0.5 0.5-0.25 0.5 0.375 0.375l0.375 0.125-0.125 0.375q-0.125 0.375-0.375 0.625t-0.5 0.5-0.5 0.5-0.5 0.5-0.625 0.375l-0.375 0.125v-0.5-0.5l0.375-0.125q0.375-0.125 0.625-0.375t0.5-0.5 0.25-0.5-0.25-0.25-0.5 0.25-0.625 0.375-0.75 0.25-0.5 0.5l-0.125 0.375-0.375 0.125q-0.375 0.125-0.375 0.375t0.375 0.375l0.375 0.125v0.5q0 0.5-0.375 0.625t-0.625 0.375-0.5 0.5-0.5 0.5-0.5 0.5-0.5 0.5-0.5 0.5-0.5 0.5-0.5 0.5-0.5 0.5-0.5 0.5-0.5 0.5-0.5 0.5-0.5 0.5-0.5 0.5-0.5 0.5-0.5 0.5-0.5 0.5-0.5 0.5-0.5 0.5-0.5 0.5-0.5 0.5-0.5 0.5-0.5 0.5-0.5 0.5-0.5 0.5-0.5 0.5-0.5 0.5-0.5 0.5-0.5 0.5-0.5 0.5-0.5 0.5-0.5 0.5-0.5 0.5-0.5 0.5-0.375 0.625l-0.125 0.375-0.125 0.375q-0.125 0.375-0.375 0.625t-0.5 0.5-0.5 0.5-0.5 0.5-0.5 0.5-0.375 0.625l-0.125 0.375-0.125 0.375q-0.125 0.375-0.375 0.625t-0.5 0.5-0.5 0.5-0.5 0.5-0.5 0.5-0.375 0.625l-0.125 0.375-0.125 0.375q-0.125 0.375-0.375 0.625t-0.5 0.5-0.5 0.5-0.375 0.625l-0.125 0.375-0.125 0.375q-0.125 0.375-0.375 0.625t-0.5 0.5-0.5 0.5l-0.25 0.25 0.188-0.188 0.187-0.187-0.125 0.125q-0.125 0.125-0.21875 0.28125l-0.09375 0.15625 0.04687-0.07813 0.04687-0.07813-0.265-0.297-0.266-0.296-0.062 0.031-0.063 0.031 0.125-0.062q0.125-0.063 0.25-0.188l0.125-0.125-0.187 0.187-0.188 0.188 0.25-0.25q0.25-0.25 0.5-0.5t0.375-0.625 0-0.75-0.375-0.375-0.375 0.375-0.25 0.75-0.375 0.625-0.25 0.5v0.25-0.1875-0.1875 0.125q0 0.125 0.0625 0.1875l0.063 0.062-0.031-0.031-0.032-0.031-0.281 0.281q-0.281 0.281-0.031 0.531t0.625 0.375l0.375 0.125-0.125 0.375q-0.125 0.375-0.375 0.625t-0.375 0.625l-0.125 0.375-0.125 0.375q-0.125 0.375-0.375 0.625t-0.375 0.625l-0.125 0.375-0.125 0.375q-0.125 0.375-0.375 0.625t-0.375 0.625l-0.125 0.375-0.375 0.125q-0.375 0.125-0.5 0.5t-0.25 0.75-0.375 0.625-0.375 0.625l-0.125 0.375-0.125 0.375q-0.125 0.375-0.375 0.625t-0.375 0.625l-0.125 0.375-0.125 0.375q-0.125 0.375-0.375 0.625t-0.375 0.625l-0.125 0.375v0.5 0.5-0.375-0.375 0.25q0 0.25-0.03125 0.46875l-0.03125 0.21875 0.01563-0.10938 0.01563-0.10938-0.35938 0.14062q-0.36 0.14-0.485 0.515t-0.125 0.875v0.5l-0.125 0.375q-0.125 0.375-0.375 0.625t-0.375 0.625l-0.125 0.375-0.125 0.375q-0.125 0.375-0.375 0.625t-0.375 0.625l-0.125 0.375v0.5 0.5l-0.125 0.375q-0.125 0.375-0.375 0.625t-0.375 0.625l-0.125 0.375v0.5 0.5-0.375-0.375 0.25q0 0.25-0.03125 0.46875l-0.0313 0.219 0.0156-0.11 0.0157-0.109-0.3594 0.14q-0.3594 0.141-0.4844 0.516t-0.125 0.875v0.5 0.5 0.5-0.375-0.375 0.25q0 0.25-0.03125 0.46875l-0.0313 0.219 0.0156-0.11 0.0157-0.109-0.3594-0.11q-0.3594-0.109-0.4844-0.484t-0.25-0.75-0.375-0.375-0.375 0.375 0 0.75 0.375 0.625 0.375 0.625l0.125 0.375v0.5 0.5 0.5 0.5l-0.125 0.375q-0.125 0.375-0.375 0.625t-0.375 0.625l-0.125 0.375v0.5 0.5 0.5 0.5-0.375-0.375 0.25q0 0.25-0.03125 0.46875l-0.0313 0.219 0.0156-0.11 0.0157-0.109-0.3594 0.14q-0.3594 0.141-0.4844 0.516t-0.125 0.875v0.5 0.5 0.5l-0.125 0.375q-0.125 0.375-0.375 0.625t-0.375 0.625-0.125 0.875v0.5 0.5 0.5 0.5 0.5l-0.125 0.375q-0.125 0.37-0.375 0.62t-0.375 0.62l-0.125 0.38v0.5 0.5 0.5 0.5 0.5 0.5 0.5 0.5 0.5 0.5-0.375-0.375 0.25q0 0.25-0.03125 0.46875l-0.03125 0.22 0.01562-0.11 0.01563-0.11-0.48437 0.01-0.48438 0.02v-0.5-0.5-0.5-0.5-0.5-0.5-0.5-0.5-0.5-0.5-0.5-0.5l0.375-0.12q0.375-0.125 0.5-0.5 0.125-0.38 0.125-0.88t0-1-0.125-0.88l-0.125-0.37 0.09375 0.28 0.09375 0.28-0.0625-0.19q-0.0625-0.1875-0.1875-0.3125l-0.125-0.125 0.0625 0.0625 0.0625 0.0625 0.28125-0.28125q0.28125-0.28 0.03125-0.53t-0.625-0.375l-0.375-0.125v-0.5-0.5-0.5-0.5-0.5-0.5-0.5-0.5-0.5-0.5-0.5-0.5-0.5-0.5-0.5-0.5-0.5-0.5-0.5-0.5-0.5-0.5-0.5-0.5-0.5-0.5-0.5-0.5-0.5-0.5-0.5-0.5-0.5-0.5-0.5-0.5-0.5-0.5-0.5-0.5-0.5-0.5-0.5-0.5-0.5-0.5-0.5-0.5-0.5-0.5-0.5-0.5-0.5-0.5-0.5-0.5-0.5-0.5-0.5-0.5-0.5-0.5-0.5-0.5-0.5-0.5-0.5-0.5-0.5-0.5-0.5-0.5-0.5-0.5-0.5-0.5-0.5-0.5-0.5-0.5-0.5-0.5-0.5-0.5-0.5-0.5-0.5-0.5-0.5-0.5-0.5-0.5-0.5-0.5-0.5-0.5-0.5-0.5-0.5-0.5-0.5-0.5-0.5-0.5-0.5-0.5-0.5-0.5-0.5-0.5-0.5-0.5-0.5-0.5-0.5-0.5-0.5-0.5-0.5-0.5-0.5-0.5-0.5-0.5-0.5-0.5-0.5-0.5-0.5-0.5-0.5-0.5-0.5-0.5-0.5-0.5-0.5-0.5-0.5-0.5-0.5-0.5-0.5-0.5-0.5-0.5-0.5-0.5-0.5-0.5-0.5-0.5-0.5-0.5-0.5-0.5-0.5-0.5-0.5-0.5-0.5-0.5-0.5-0.5-0.5-0.5-0.5-0.5-0.5-0.5-0.5-0.5-0.5-0.5-0.5-0.5-0.5-0.5-0.5-0.5-0.5-0.5-0.5-0.5-0.5-0.5-0.5-0.5-0.5-0.5-0.5-0.5-0.5-0.5-0.5-0.5-0.5m1.125 97.875q0.125 0.375 0.375 0.375t0.375-0.375 0.125-0.875-0.125-0.875l-0.125-0.375 0.0938 0.281 0.0937 0.281-0.0625-0.187q-0.0625-0.187-0.1562-0.281l-0.0938-0.094 0.0469 0.047 0.0469 0.047 0.2656-0.297q0.2656-0.297 0.0156-0.547t-0.625-0.375-0.5 0.25 0.1406 0.672l0.2656 0.297 0.0469-0.047 0.0469-0.047-0.0938 0.094q-0.0937 0.094-0.1562 0.281l-0.0625 0.187 0.0937-0.281 0.0938-0.281-0.125 0.375q-0.125 0.375-0.125 0.875t0.125 0.875m1-4q0.125 0.375 0.375 0.375t0.375-0.375 0-0.75l-0.125-0.375 0.0938 0.281 0.0937 0.281-0.0625-0.187q-0.0625-0.187-0.1562-0.281l-0.0938-0.094 0.0469 0.047 0.0469 0.047 0.2656-0.297q0.2656-0.297 0.1406-0.672l-0.125-0.375h-0.5q-0.5 0-0.625 0.375t0.1406 0.672l0.2656 0.297 0.0469-0.047 0.0469-0.047-0.0938 0.094q-0.0937 0.094-0.1562 0.281l-0.0625 0.187 0.0937-0.281 0.0938-0.281-0.125 0.375q-0.125 0.375 0 0.75m0.75-2.75 0.125 0.375 0.375-0.125q0.375-0.125 0.625-0.375t-0.0156-0.547l-0.2656-0.297-0.0469 0.047-0.0469 0.047 0.0938-0.094q0.0937-0.094 0.1562-0.281l0.0625-0.187-0.0937 0.281-0.0938 0.281 0.125-0.375q0.125-0.375 0-0.75l-0.125-0.375 0.0938 0.281 0.0937 0.281-0.0625-0.187q-0.0625-0.187-0.1562-0.281l-0.0938-0.094 0.0469 0.047 0.0469 0.047 0.2656-0.297q0.2656-0.297 0.0156-0.547t-0.625-0.375-0.5 0.25 0.1406 0.672l0.2656 0.297 0.0469-0.047 0.0469-0.047-0.0938 0.094q-0.0937 0.094-0.1562 0.281l-0.0625 0.187 0.0937-0.281 0.0938-0.281-0.125 0.375q-0.125 0.375 0 0.75l0.125 0.375-0.0938-0.281-0.0937-0.281 0.0625 0.187q0.0625 0.1875 0.15625 0.28125l0.0938 0.094-0.0469-0.047-0.0469-0.047-0.2656 0.297q-0.2656 0.297-0.1406 0.672m2.25-7.25q0.125 0.375 0.375 0.375t0.375-0.375 0-0.75-0.375-0.375-0.375 0.375 0 0.75m0.875-1.875q0.25 0.25 0.5 0.25t0.5-0.25-0.03125-0.53125l-0.2813-0.281-0.0313 0.031-0.0312 0.031 0.0625-0.062q0.0625-0.063 0.0625-0.188v-0.125 0.1875 0.1875-0.25-0.25 0.1875 0.1875-0.125q0-0.125-0.0625-0.1875l-0.0625-0.062 0.0312 0.031 0.0313 0.031 0.2813-0.281q0.2812-0.281 0.0312-0.531t-0.625-0.375-0.5 0.25 0.1562 0.656l0.2813 0.281 0.0313-0.031 0.0312-0.031-0.0625 0.062q-0.0625 0.063-0.0625 0.188v0.125-0.1875-0.1875 0.25 0.25-0.1875-0.1875 0.125q0 0.125 0.0625 0.1875l0.0625 0.062-0.0312-0.031-0.0313-0.031-0.2813 0.281q-0.2812 0.281-0.0312 0.531m1.125-3.125q0.125 0.375 0.375 0.375t0.375-0.375 0.25-0.75 0.375-0.625 0.375-0.625 0-0.75-0.375-0.375-0.375 0.375-0.25 0.75-0.375 0.625-0.375 0.625 0 0.75m2.125-4.875q0 0.25 0.25 0.25t0.25-0.25v-0.25 0.1875 0.1875-0.125q0-0.125-0.0625-0.1875l-0.0625-0.062 0.0312 0.031 0.0313 0.031 0.2813-0.281q0.2812-0.281 0.0312-0.531t-0.625-0.375-0.5 0.25 0.1562 0.656l0.2813 0.281 0.0313-0.031 0.0312-0.031-0.0625 0.062q-0.0625 0.063-0.0625 0.188v0.125-0.1875-0.1875 0.25m1-2q0 0.25 0.25 0.25t0.25-0.25v-0.25 0.1875 0.1875-0.125q0-0.125-0.0625-0.1875l-0.063-0.062 0.03125 0.03125 0.03125 0.03125 0.28125-0.28125q0.281-0.281 0.031-0.531t-0.625-0.375-0.5 0.25 0.156 0.656l0.281 0.281 0.032-0.031 0.031-0.031-0.063 0.062q-0.062 0.063-0.062 0.188v0.125-0.1875-0.1875 0.25m1-2q0 0.25 0.25 0.25t0.25-0.25v-0.25 0.1875 0.1875-0.125q0-0.125-0.0625-0.1875l-0.063-0.062 0.03125 0.03125 0.03125 0.03125 0.28125-0.28125q0.281-0.281 0.031-0.531t-0.625-0.375-0.5 0.25 0.156 0.656l0.281 0.281 0.032-0.031 0.031-0.031-0.063 0.062q-0.062 0.063-0.062 0.188v0.125-0.1875-0.1875 0.25m1-2q0 0.25 0.25 0.25t0.25-0.25v-0.25 0.1875 0.1875-0.125q0-0.125-0.0625-0.1875l-0.063-0.062 0.03125 0.03125 0.03125 0.03125 0.28125-0.28125q0.281-0.281 0.031-0.531t-0.625-0.375-0.5 0.25 0.156 0.656l0.281 0.281 0.032-0.031 0.031-0.031-0.063 0.062q-0.062 0.063-0.062 0.188v0.125-0.1875-0.1875 0.25m1-2q0 0.25 0.25 0.25t0.25-0.25-0.25-0.25-0.25 0.25m0.875-1.125q0.125 0.375 0.375 0.375t0.375-0.375l0.125-0.375v0.375 0.375-0.25q0-0.25-0.125-0.375l-0.125-0.125 0.062 0.062 0.063 0.063-0.063-0.437q-0.062-0.438-0.312-0.438t-0.3125 0.4375l-0.063 0.437 0.063-0.063 0.062-0.062-0.125 0.125q-0.125 0.125-0.125 0.375v0.25-0.375-0.375l0.125 0.375m1.0625-2.0625q0.062 0.438 0.312 0.438t0.3125-0.4375l0.063-0.437-0.063 0.063-0.062 0.062 0.125-0.125q0.125-0.125 0.125-0.375v-0.25 0.375 0.375l-0.125-0.375q-0.125-0.375-0.375-0.375t-0.375 0.375l-0.125 0.375v-0.375-0.375 0.25q0 0.25 0.125 0.375l0.125 0.125-0.062-0.062-0.063-0.063 0.063 0.437m1.062-1.812q0 0.25 0.25 0.25t0.25-0.25-0.25-0.25-0.25 0.25m-1.281 5.594 0.031-0.094 0.094-0.281 0.094-0.281-0.063 0.187q-0.063 0.187-0.125 0.375l-0.0625 0.1875 0.03125-0.09375m4.281-10.594q0 0.25 0.25 0.25t0.5-0.25 0.5-0.5 0.375-0.625 0-0.75-0.375-0.375-0.375 0.375-0.25 0.75-0.375 0.625-0.25 0.5m2-3q0 0.25 0.25 0.25t0.5-0.25 0.5-0.5 0.5-0.5 0.5-0.5 0.375-0.625 0-0.75-0.375-0.375-0.375 0.375-0.25 0.75-0.375 0.625-0.5 0.5-0.5 0.5-0.25 0.5m3-4q0 0.25 0.25 0.25t0.25-0.25-0.25-0.25-0.25 0.25m1-1q0 0.25 0.25 0.25t0.25-0.25-0.25-0.25-0.25 0.25m0.875-1.125q0.125 0.375 0.375 0.375t0.375-0.375 0-0.75-0.375-0.375-0.375 0.375 0 0.75m1.125-1.875q0 0.25 0.25 0.25t0.25-0.25-0.25-0.25-0.25 0.25m1-1q0 0.25 0.25 0.25t0.5-0.25 0.5-0.5 0.5-0.5 0.5-0.5 0.25-0.5-0.25-0.25-0.5 0.25-0.5 0.5-0.5 0.5-0.5 0.5-0.25 0.5m3-3q0 0.25 0.25 0.25t0.25-0.25-0.25-0.25-0.25 0.25m1-1q0 0.25 0.25 0.25t0.5-0.25 0.5-0.5 0.375-0.625l0.125-0.375 0.375-0.125q0.375-0.125 0.625-0.375t0.5-0.5 0.5-0.5 0.5-0.5 0.375-0.625l0.125-0.375 0.375-0.125q0.375-0.125 0.625-0.375t0.5-0.5 0.5-0.5 0.5-0.5 0.25-0.5-0.375-0.375-0.75 0-0.625 0.375-0.5 0.5-0.5 0.5-0.5 0.5-0.5 0.5-0.5 0.5-0.5 0.5-0.5 0.5-0.5 0.5-0.5 0.5-0.375 0.625-0.25 0.75-0.375 0.625-0.25 0.5m8-8q0 0.25 0.25 0.25t0.5-0.25 0.5-0.5 0.5-0.5 0.5-0.5 0.25-0.5-0.25-0.25-0.5 0.25-0.5 0.5-0.5 0.5-0.5 0.5-0.25 0.5m3-3q0 0.25 0.25 0.25t0.5-0.25 0.5-0.5 0.25-0.5-0.25-0.25-0.5 0.25-0.5 0.5-0.25 0.5m33.375-20.625q0.375 0.125 0.75 0t0.625-0.375 0.625-0.375 0.75-0.25 0.375-0.375-0.375-0.375-0.75 0-0.625 0.375-0.625 0.375-0.75 0.25-0.375 0.375 0.375 0.375m16.875-5.875q0.5 0 0.875-0.125t0.375-0.375-0.375-0.375-0.875-0.125-0.875 0.125-0.375 0.375 0.375 0.375 0.875 0.125"/>
 </g>
 <path id="path8" style="fill:#cecfce;fill-opacity:1" d="M 11.228516 3 C 10.589516 3.0783 8.770275 3.8525719 8.484375 6.2636719 C 7.837505 5.6547719 7.984375 4.1621094 7.984375 4.1621094 C 7.251575 4.8735094 4.7842262 11.005694 4.0664062 13.746094 C 3.2562063 16.852794 10.163925 18.539521 11.703125 18.869141 C 13.694125 19.295421 14.653881 18.539455 15.025391 18.578125 C 16.137191 18.714425 17.251551 18.177281 17.644531 16.613281 C 18.192461 16.375481 17.992552 15.63344 17.789062 15.21875 C 17.525863 14.68325 17.279183 14.595678 16.283203 13.455078 C 16.286013 12.921458 16.284743 12.498846 16.064453 12.291016 C 15.843253 12.083186 15.401542 12.090196 14.982422 12.410156 C 14.834002 12.405326 14.651756 12.111187 14.660156 11.716797 C 14.674156 11.039177 15.094627 11.330076 15.367188 10.759766 C 15.639728 10.189436 15.255888 9.3442803 14.580078 9.3007812 C 14.035188 9.264995 13.791826 7.8211134 11.929688 7.7929688 C 11.926934 7.787452 10.625199 5.1760496 15.367188 4.3359375 C 14.266187 3.7569375 11.88875 3.5775906 10.46875 5.3378906 C 10.28575 4.5983906 10.602516 3.7443 11.228516 3 z M 9.6230469 6.0820312 L 9.9824219 7.5351562 L 10.904297 6.3945312 C 10.710049 7.3934635 11.035156 8.2421875 11.035156 8.2421875 L 11.808594 7.421875 L 11.533203 8.7128906 L 13.193359 9.4257812 C 13.274969 9.5211842 13.347062 9.6058729 13.458984 9.7285156 C 13.628902 9.9147095 13.92222 10.220217 14.439453 10.283203 C 14.439453 10.283203 14.4375 10.285156 14.4375 10.285156 C 14.44438 10.298702 14.444097 10.311625 14.445312 10.324219 C 14.426953 10.332398 14.447907 10.313147 14.40625 10.337891 C 14.286811 10.408821 14.040512 10.580097 13.878906 10.853516 C 13.717652 11.126341 13.667946 11.421913 13.662109 11.695312 C 13.654509 12.051514 13.723009 12.370876 13.873047 12.664062 C 14.023081 12.957251 14.233492 13.384848 14.951172 13.408203 L 15.283203 13.419922 C 15.283167 13.433432 15.283276 13.435389 15.283203 13.449219 L 15.28125 13.826172 L 15.529297 14.111328 C 16.045893 14.702936 16.38533 15.042179 16.583984 15.251953 C 16.782639 15.461727 16.80622 15.484454 16.892578 15.660156 C 16.919068 15.714136 16.923709 15.761046 16.943359 15.828125 L 16.794922 15.892578 L 16.675781 16.369141 C 16.527185 16.96053 16.292503 17.239092 16.048828 17.402344 C 15.805153 17.565595 15.50471 17.629853 15.146484 17.585938 L 15.136719 17.583984 L 15.128906 17.583984 C 14.658259 17.534994 14.494854 17.657544 14.308594 17.720703 C 14.122333 17.783863 13.946067 17.846679 13.734375 17.898438 C 13.310992 18.001953 12.757123 18.071532 11.912109 17.890625 C 11.184769 17.734844 9.1139724 17.233034 7.4277344 16.443359 C 6.5846154 16.048522 5.8455454 15.572233 5.4335938 15.128906 C 5.0216421 14.68558 4.9238026 14.417542 5.0332031 13.998047 C 5.367253 12.722755 6.1584994 10.504365 6.9453125 8.5683594 C 7.2109056 7.9148501 7.4544307 7.3886014 7.7011719 6.8398438 C 7.7453629 6.8889977 7.7481751 6.9445075 7.7988281 6.9921875 L 9.2421875 8.3535156 L 9.4765625 6.3828125 C 9.4950383 6.2269992 9.5916551 6.2168169 9.6230469 6.0820312 z"/>
</svg>
