<svg xmlns="http://www.w3.org/2000/svg" id="svg9" width="22" height="22" version="1.1">
 <defs id="defs3">
  <style id="current-color-scheme" type="text/css">
   .ColorScheme-Text { color:#cecfce; } .ColorScheme-Highlight { color:#3daee9; }
  </style>
 </defs>
 <path id="path4496" style="fill:#cecfce;fill-opacity:1" d="M 11 3 C 8.92893 3 7.16529 4.26792 6.40625 6.0625 C 4.47842 6.3491 3 7.99242 3 10 C 3 12.20914 4.79086 14 7 14 L 8.1855469 14 C 8.6024017 12.841743 9.7061742 12 11 12 C 12.293826 12 13.397598 12.841743 13.814453 14 L 15.5 14 C 17.433 14 19 12.433 19 10.5 C 19 8.70346 17.64921 7.2313 15.90625 7.03125 C 15.45168 4.73786 13.42687 3 11 3 z M 11 4 C 12.949476 4 14.562591 5.394201 14.925781 7.2265625 L 15.066406 7.9414062 L 15.792969 8.0253906 C 17.041935 8.1687424 18 9.2047161 18 10.5 C 18 11.892562 16.892562 13 15.5 13 L 14.257812 13 C 13.552505 11.863322 12.428339 11 11 11 C 9.571661 11 8.4474971 11.863322 7.7421875 13 L 7 13 C 5.3312996 13 4 11.6687 4 10 C 4 8.483366 5.1012983 7.2665584 6.5527344 7.0507812 L 7.109375 6.96875 L 7.328125 6.4511719 C 7.9365026 5.0127994 9.3370669 4 11 4 z M 11 13 A 2 2 0 0 0 9 15 A 2 2 0 0 0 11 17 A 2 2 0 0 0 13 15 A 2 2 0 0 0 11 13 z M 6 15 A 2 2 0 0 0 4 17 A 2 2 0 0 0 6 19 A 2 2 0 0 0 8 17 A 2 2 0 0 0 6 15 z M 16 15 A 2 2 0 0 0 14 17 A 2 2 0 0 0 16 19 A 2 2 0 0 0 18 17 A 2 2 0 0 0 16 15 z"/>
</svg>
