<?xml version="1.0" encoding="UTF-8" standalone="no"?>
<svg
   xmlns:dc="http://purl.org/dc/elements/1.1/"
   xmlns:cc="http://creativecommons.org/ns#"
   xmlns:rdf="http://www.w3.org/1999/02/22-rdf-syntax-ns#"
   xmlns:svg="http://www.w3.org/2000/svg"
   xmlns="http://www.w3.org/2000/svg"
   xmlns:sodipodi="http://sodipodi.sourceforge.net/DTD/sodipodi-0.dtd"
   xmlns:inkscape="http://www.inkscape.org/namespaces/inkscape"
   height="16"
   version="1.1"
   width="16"
   id="svg9"
   sodipodi:docname="weather-clear-symbolic.svg"
   inkscape:version="0.92.1 r15371">
  <metadata
     id="metadata13">
    <rdf:RDF>
      <cc:Work
         rdf:about="">
        <dc:format>image/svg+xml</dc:format>
        <dc:type
           rdf:resource="http://purl.org/dc/dcmitype/StillImage" />
        <dc:title></dc:title>
      </cc:Work>
    </rdf:RDF>
  </metadata>
  <sodipodi:namedview
     pagecolor="#ffffff"
     bordercolor="#666666"
     borderopacity="1"
     objecttolerance="10"
     gridtolerance="10"
     guidetolerance="10"
     inkscape:pageopacity="0"
     inkscape:pageshadow="2"
     inkscape:window-width="1600"
     inkscape:window-height="808"
     id="namedview11"
     showgrid="false"
     inkscape:zoom="10.727273"
     inkscape:cx="-8.6111247"
     inkscape:cy="11"
     inkscape:window-x="0"
     inkscape:window-y="0"
     inkscape:window-maximized="1"
     inkscape:current-layer="svg9" />
  <defs
     id="defs3">
    <style
       type="text/css"
       id="current-color-scheme">
   .ColorScheme-Text { color:#232627; } .ColorScheme-Highlight { color:#3daee9; }
  </style>
  </defs>
  <path
     style="fill:#eff0f1;fill-opacity:1"
     d="M 8,0 7.5,1.03125 C 7.66526,1.01955 7.83177,1 8,1 8.16823,1 8.33474,1.01965 8.5,1.03125 Z M 8,2 C 4.68629,2 2,4.68629 2,8 c 0,3.31371 2.68629,6 6,6 3.31371,0 6,-2.68629 6,-6 C 14,4.68629 11.31371,2 8,2 Z M 2.34375,2.34375 2.71875,3.4375 C 2.93668,3.18629 3.18629,2.93668 3.4375,2.71875 Z m 11.3125,0 -1.09375,0.375 c 0.25121,0.21793 0.50082,0.46754 0.71875,0.71875 z M 8,3 c 2.761425,0 5,2.238575 5,5 0,2.761425 -2.238575,5 -5,5 C 5.238575,13 3,10.761425 3,8 3,5.238575 5.238575,3 8,3 Z M 1.03125,7.5 0,8 1.03125,8.5 C 1.01958,8.33474 1,8.16823 1,8 1,7.83177 1.01965,7.66526 1.03125,7.5 Z m 13.9375,0 C 14.98045,7.66526 15,7.83177 15,8 15,8.16823 14.98035,8.33474 14.96875,8.5 L 16,8 Z m -12.25,5.0625 -0.375,1.09375 1.09375,-0.375 C 3.18629,13.06332 2.93668,12.81371 2.71875,12.5625 Z m 10.5625,0 c -0.21793,0.25121 -0.46754,0.50082 -0.71875,0.71875 l 1.09375,0.375 z M 7.5,14.96875 8,16 8.5,14.96875 C 8.33474,14.98045 8.16823,15 8,15 7.83177,15 7.66526,14.98035 7.5,14.96875 Z"
     id="path4506"
     inkscape:connector-curvature="0" />
</svg>
