<?xml version="1.0" encoding="UTF-8" standalone="no"?>
<svg
   xmlns:dc="http://purl.org/dc/elements/1.1/"
   xmlns:cc="http://creativecommons.org/ns#"
   xmlns:rdf="http://www.w3.org/1999/02/22-rdf-syntax-ns#"
   xmlns:svg="http://www.w3.org/2000/svg"
   xmlns="http://www.w3.org/2000/svg"
   xmlns:sodipodi="http://sodipodi.sourceforge.net/DTD/sodipodi-0.dtd"
   xmlns:inkscape="http://www.inkscape.org/namespaces/inkscape"
   width="16"
   height="16"
   version="1.1"
   id="svg16"
   sodipodi:docname="weather-windy-symbolic.svg"
   inkscape:version="0.92.3 (2405546, 2018-03-11)">
  <metadata
     id="metadata22">
    <rdf:RDF>
      <cc:Work
         rdf:about="">
        <dc:format>image/svg+xml</dc:format>
        <dc:type
           rdf:resource="http://purl.org/dc/dcmitype/StillImage" />
      </cc:Work>
    </rdf:RDF>
  </metadata>
  <defs
     id="defs20" />
  <sodipodi:namedview
     pagecolor="#ffffff"
     bordercolor="#666666"
     borderopacity="1"
     objecttolerance="10"
     gridtolerance="10"
     guidetolerance="10"
     inkscape:pageopacity="0"
     inkscape:pageshadow="2"
     inkscape:window-width="1920"
     inkscape:window-height="1026"
     id="namedview18"
     showgrid="true"
     inkscape:zoom="29.5"
     inkscape:cx="8.1355932"
     inkscape:cy="8"
     inkscape:window-x="0"
     inkscape:window-y="30"
     inkscape:window-maximized="1"
     inkscape:current-layer="svg16">
    <inkscape:grid
       type="xygrid"
       id="grid837" />
  </sodipodi:namedview>
  <ellipse
     style="opacity:0.5;fill:none;fill-opacity:1;stroke:none;stroke-width:2;stroke-linecap:round;stroke-linejoin:round;stroke-miterlimit:4;stroke-dasharray:none;stroke-dashoffset:0;stroke-opacity:1;paint-order:normal"
     id="path829"
     cx="4.7420058"
     cy="3.3364825"
     rx="2.5254362"
     ry="2.3800871" />
  <path
     style="opacity:1;fill:#eff0f1;fill-opacity:1;stroke:none;stroke-width:2.37261558;stroke-linecap:round;stroke-linejoin:round;stroke-miterlimit:4;stroke-dasharray:none;stroke-dashoffset:0;stroke-opacity:1;paint-order:normal"
     d="M 7.5,2 C 6.3135898,2.0019827 5.2919682,2.8375582 5.0546875,4 H 6.0878906 C 6.2995242,3.4014078 6.8650979,3.0008908 7.5,3 8.3284271,3 9,3.6715729 9,4.5 8.9993586,5.2930658 8.381486,5.9485927 7.5898438,5.9960938 V 6 H 7.5 5.5039062 4 2 v 1 h 5.5 0.035156 v -0.00195 C 8.9013591,6.9788331 9.9990677,5.8663377 10,4.5 10,3.1192881 8.8807119,2 7.5,2 Z m 6,2 c -1.18641,0.00198 -2.208031,0.8375583 -2.445312,2 h 1.033203 C 12.299525,5.4014079 12.865098,5.000891 13.5,5 14.328427,5 15,5.6715729 15,6.5 14.999359,7.2930657 14.381486,7.9485926 13.589844,7.9960938 V 8 H 13.5 11.503906 10 0 v 1 h 13.5 0.03516 v -0.00195 C 14.901359,8.9788332 15.999068,7.8663377 16,6.5 16,5.1192881 14.880712,4 13.5,4 Z M 2,10 v 1 H 4 5.5039062 7.5 7.5898438 v 0.0039 C 8.3814861,11.051407 8.9993587,11.706934 9,12.5 9,13.328427 8.3284271,14 7.5,14 6.8650979,13.999109 6.2995242,13.598592 6.0878906,13 H 5.0546875 C 5.2919682,14.162442 6.3135898,14.998017 7.5,15 8.8807119,15 10,13.880712 10,12.5 9.9990677,11.133662 8.9013591,10.021167 7.5351562,10.001953 V 10 H 7.5 Z"
     id="path845"
     inkscape:connector-curvature="0"
     sodipodi:nodetypes="ccccccccccccccccccccccccccccccccccccccccccccccccccc" />
</svg>
