<?xml version="1.0" encoding="UTF-8" standalone="no"?>
<svg
   xmlns:dc="http://purl.org/dc/elements/1.1/"
   xmlns:cc="http://creativecommons.org/ns#"
   xmlns:rdf="http://www.w3.org/1999/02/22-rdf-syntax-ns#"
   xmlns:svg="http://www.w3.org/2000/svg"
   xmlns="http://www.w3.org/2000/svg"
   xmlns:sodipodi="http://sodipodi.sourceforge.net/DTD/sodipodi-0.dtd"
   xmlns:inkscape="http://www.inkscape.org/namespaces/inkscape"
   width="16"
   height="16"
   version="1.1"
   id="svg4"
   sodipodi:docname="weather-tornado-symbolic.svg"
   inkscape:version="0.92.3 (2405546, 2018-03-11)">
  <metadata
     id="metadata10">
    <rdf:RDF>
      <cc:Work
         rdf:about="">
        <dc:format>image/svg+xml</dc:format>
        <dc:type
           rdf:resource="http://purl.org/dc/dcmitype/StillImage" />
      </cc:Work>
    </rdf:RDF>
  </metadata>
  <defs
     id="defs8" />
  <sodipodi:namedview
     pagecolor="#ffffff"
     bordercolor="#666666"
     borderopacity="1"
     objecttolerance="10"
     gridtolerance="10"
     guidetolerance="10"
     inkscape:pageopacity="0"
     inkscape:pageshadow="2"
     inkscape:window-width="1920"
     inkscape:window-height="1026"
     id="namedview6"
     showgrid="true"
     inkscape:zoom="31.62"
     inkscape:cx="8.1355932"
     inkscape:cy="8"
     inkscape:window-x="0"
     inkscape:window-y="30"
     inkscape:window-maximized="1"
     inkscape:current-layer="svg4">
    <inkscape:grid
       type="xygrid"
       id="grid817" />
  </sodipodi:namedview>
  <path
     style="opacity:1;fill:#eff0f1;fill-opacity:1;stroke:none;stroke-width:1.85811532;stroke-linecap:round;stroke-linejoin:round;stroke-miterlimit:4;stroke-dasharray:none;stroke-dashoffset:0;stroke-opacity:1;paint-order:normal"
     d="M 0 2 L 0 3 L 1 3 L 1 4 L 3 4 L 3 5 L 2 5 L 2 6 L 4 6 L 4 7 L 3 7 L 3 8 L 4 8 L 4 9 L 5 9 L 5 10 L 6 10 L 6 11 L 6 12 L 7 12 L 7 13 L 6 13 L 6 14 L 5 14 L 5 15 L 8 15 L 8 14 L 9 14 L 9 13 L 10 13 L 10 12 L 9 12 L 9 11 L 8 11 L 8 10 L 10 10 L 10 9 L 11 9 L 11 8 L 10 8 L 10 7 L 12 7 L 12 6 L 13 6 L 13 5 L 14 5 L 14 4 L 15 4 L 15 3 L 14 3 L 14 2 L 0 2 z "
     id="rect819" />
</svg>
