<?xml version="1.0" encoding="UTF-8" standalone="no"?>
<svg
   width="16"
   height="16"
   version="1.1"
   id="svg45"
   sodipodi:docname="inkscape.svg"
   inkscape:version="1.1 (c4e8f9ed74, 2021-05-24)"
   xmlns:inkscape="http://www.inkscape.org/namespaces/inkscape"
   xmlns:sodipodi="http://sodipodi.sourceforge.net/DTD/sodipodi-0.dtd"
   xmlns:xlink="http://www.w3.org/1999/xlink"
   xmlns="http://www.w3.org/2000/svg"
   xmlns:svg="http://www.w3.org/2000/svg">
  <sodipodi:namedview
     id="namedview47"
     pagecolor="#ffffff"
     bordercolor="#666666"
     borderopacity="1.0"
     inkscape:pageshadow="2"
     inkscape:pageopacity="0.0"
     inkscape:pagecheckerboard="0"
     showgrid="false"
     inkscape:zoom="13.125"
     inkscape:cx="24.038095"
     inkscape:cy="24.038095"
     inkscape:window-width="1920"
     inkscape:window-height="1026"
     inkscape:window-x="0"
     inkscape:window-y="30"
     inkscape:window-maximized="1"
     inkscape:current-layer="svg45" />
  <defs
     id="defs19">
    <linearGradient
       id="a"
       y1="543.79999"
       y2="503.79999"
       x2="0"
       gradientUnits="userSpaceOnUse">
      <stop
         stop-color="#2a2c2f"
         id="stop2" />
      <stop
         offset="1"
         stop-color="#424649"
         id="stop4" />
    </linearGradient>
    <linearGradient
       id="b"
       y1="532.79999"
       y2="506.79999"
       x2="0"
       gradientUnits="userSpaceOnUse">
      <stop
         stop-color="#989a9b"
         id="stop7" />
      <stop
         offset="1"
         stop-color="#f6f6f7"
         id="stop9" />
    </linearGradient>
    <linearGradient
       id="c"
       y1="522.79999"
       x1="403.57001"
       y2="534.79999"
       x2="413.26001"
       gradientUnits="userSpaceOnUse">
      <stop
         stop-color="#020303"
         id="stop12" />
      <stop
         offset="1"
         stop-color="#424649"
         stop-opacity="0"
         id="stop14" />
    </linearGradient>
    <linearGradient
       xlink:href="#c"
       id="d"
       y1="521.79999"
       x1="400.76999"
       y2="533.59998"
       gradientUnits="userSpaceOnUse"
       x2="412.57001" />
    <path
       fill-rule="evenodd"
       id="e"
       d="m 426.57,529.8 -16,11 -8,-8 -2,-9 17,-5 z" />
  </defs>
  <g
     transform="matrix(0.4,0,0,0.4,-155.428,-201.52)"
     id="g43">
    <g
       fill-rule="evenodd"
       id="g25">
      <path
         fill="url(#a)"
         d="m 408.57,543.8 -20,-14 20,-26 20,26 z"
         id="path21"
         style="fill:url(#a)" />
      <path
         fill="url(#b)"
         d="m 402.57,532.8 -8,-7 14,-19 9,12 -17,5 z"
         id="path23"
         style="fill:url(#b)" />
    </g>
    <use
       opacity="0.3"
       fill="url(#c)"
       xlink:href="#e"
       id="use27"
       x="0"
       y="0"
       width="100%"
       height="100%"
       style="fill:url(#c)" />
    <g
       fill-rule="evenodd"
       id="g33">
      <path
         fill="#ffffff"
         fill-opacity="0.235"
         d="m 394.57,525.8 14,-17 9,10 -9,-12 z"
         id="path29" />
      <path
         fill="#212325"
         d="M 4.5,29.35 4,30 24,44 44,30 43.5,29.35 24,43 Z"
         transform="translate(384.57,499.8)"
         id="path31" />
    </g>
    <use
       opacity="0.2"
       fill="url(#d)"
       xlink:href="#e"
       id="use35"
       x="0"
       y="0"
       width="100%"
       height="100%"
       style="fill:url(#d)" />
    <g
       fill-rule="evenodd"
       id="g41">
      <path
         fill="#25272b"
         d="m 402.57,532.8 -1,-8 16,-6 -17,5 z"
         id="path37" />
      <path
         fill="#bbbec1"
         fill-opacity="0.998"
         d="m 402.57,532.8 -3,-9 15,-5 -6,-10 9,10 -17,5 z"
         id="path39" />
    </g>
  </g>
</svg>
