<?xml version="1.0" encoding="UTF-8" standalone="no"?>
<!-- Created with Inkscape (http://www.inkscape.org/) -->

<svg
   version="1.1"
   id="svg18513"
   width="48"
   height="48"
   viewBox="0 0 48.000002 48.000002"
   sodipodi:docname="gnome-extensions.svg"
   inkscape:version="1.1.1 (3bf5ae0d25, 2021-09-20)"
   xmlns:inkscape="http://www.inkscape.org/namespaces/inkscape"
   xmlns:sodipodi="http://sodipodi.sourceforge.net/DTD/sodipodi-0.dtd"
   xmlns:xlink="http://www.w3.org/1999/xlink"
   xmlns="http://www.w3.org/2000/svg"
   xmlns:svg="http://www.w3.org/2000/svg"
   xmlns:rdf="http://www.w3.org/1999/02/22-rdf-syntax-ns#"
   xmlns:cc="http://creativecommons.org/ns#"
   xmlns:dc="http://purl.org/dc/elements/1.1/">
  <metadata
     id="metadata18519">
    <rdf:RDF>
      <cc:Work
         rdf:about="">
        <dc:format>image/svg+xml</dc:format>
        <dc:type
           rdf:resource="http://purl.org/dc/dcmitype/StillImage" />
      </cc:Work>
    </rdf:RDF>
  </metadata>
  <defs
     id="defs18517">
    <linearGradient
       inkscape:collect="always"
       id="linearGradient2749">
      <stop
         style="stop-color:#46b964;stop-opacity:1;"
         offset="0"
         id="stop2745" />
      <stop
         style="stop-color:#9bd33f;stop-opacity:1"
         offset="1"
         id="stop2747" />
    </linearGradient>
    <linearGradient
       inkscape:collect="always"
       xlink:href="#linearGradient2749"
       id="linearGradient2751"
       x1="26"
       y1="40"
       x2="12"
       y2="5"
       gradientUnits="userSpaceOnUse" />
  </defs>
  <sodipodi:namedview
     pagecolor="#ffffff"
     bordercolor="#666666"
     borderopacity="1"
     objecttolerance="10"
     gridtolerance="10"
     guidetolerance="10"
     inkscape:pageopacity="0"
     inkscape:pageshadow="2"
     inkscape:window-width="1920"
     inkscape:window-height="1011"
     id="namedview18515"
     showgrid="true"
     inkscape:zoom="11.313709"
     inkscape:cx="10.650796"
     inkscape:cy="27.135223"
     inkscape:window-x="0"
     inkscape:window-y="0"
     inkscape:window-maximized="1"
     inkscape:current-layer="svg18513"
     inkscape:pagecheckerboard="0">
    <inkscape:grid
       type="xygrid"
       id="grid844" />
  </sodipodi:namedview>
  <path
     id="path46"
     style="opacity:1;fill:url(#linearGradient2751);fill-opacity:1;stroke:none;stroke-width:0.0151584"
     d="m 31.103773,9.0027125 c -2.920016,-0.03053 -4.649293,0.223608 -5.055686,1.2158935 -0.27093,0.641169 0.207976,1.457613 0.960556,2.755216 0.737532,1.282336 0.856736,2.090816 0.43529,3.037302 -0.91815,2.106696 -4.611497,2.533752 -6.252126,0.778172 -0.526806,-0.549571 -0.72224,-1.113508 -0.722242,-1.99893 0,-0.564838 0.136022,-0.945306 0.617675,-1.784932 1.023511,-1.770844 1.198213,-2.751176 -0.05107,-3.3923425 -1.068666,-0.564839 -2.772688,-0.7188611 -6.490442,-0.520403 -0.496704,0.03053 -2.113746,0.07822 -2.354572,0.124022 l -0.452312,0.07539 0.121594,1.4760945 c 0.165568,2.274621 1.043336,8.969207 0.742296,9.946225 -0.541859,1.770847 -1.877963,2.418933 -3.6841569,1.335052 -2.031971,-1.236538 -3.687068,-0.870273 -4.545012,0.99217 -1.053615,2.289886 0.240494,4.465168 2.392879,4.510966 0.842892,0.01526 1.098311,-0.07702 2.317494,-0.809786 1.5202139,-0.885424 2.6609329,-0.638319 3.2780499,0.59822 0.496704,0.992285 -0.352415,6.053953 -0.457777,9.122401 -0.06021,1.541858 -0.121121,2.9961 -0.13618,3.102962 l 4.013051,0.01459 c 4.139198,0.03053 5.012137,-0.104985 5.719564,-0.975148 0.55691,-0.656434 0.123674,-1.317111 -0.659014,-2.767374 -0.556911,-1.038081 -0.678469,-1.40329 -0.678469,-2.059724 0,-3.785945 6.977895,-3.970762 7.339135,-0.184815 0.06021,0.686965 3.66e-4,0.886007 -0.646856,2.076747 -1.083717,2.030368 -1.320221,2.932884 0.260201,3.589318 0.842893,0.335849 1.023976,0.353285 4.591215,0.338019 l 4.922458,-0.04378 -0.08268,-1.731433 c -0.04516,-1.038084 -0.120673,-2.122282 -0.150771,-2.412333 -0.09031,-0.763296 -0.849294,-6.802086 -0.608467,-7.580648 0.27093,-0.946488 1.368732,-1.682797 2.015953,-1.682797 0.496704,0 0.345299,0.153219 1.775205,0.977579 1.309491,0.778561 3.011364,0.42851 3.778997,-0.792763 1.00846,-1.557123 0.812485,-3.075695 -0.466903,-4.296969 -1.008454,-0.977021 -2.046543,-0.977418 -3.747379,-0.04621 -1.505163,0.839624 -2.137636,0.529304 -2.769806,-0.111864 -0.797737,-0.824359 -0.0988,-6.605972 0.126972,-10.37665 0.06021,-1.297605 0.587898,-2.1476755 0.527698,-2.1934735 -0.120411,-0.122129 -3.997743,-0.288708 -5.924354,-0.303973 z"
     sodipodi:nodetypes="cccccscccccccccccccccccsccccccccsccccccccc" />
  <path
     id="path46-2"
     style="opacity:0.2;fill:#000000;fill-opacity:1;stroke:none;stroke-width:0.0151584"
     d="m 43.953125,23.884766 c -0.083,0.473008 -0.279269,0.958672 -0.595703,1.447265 -0.767633,1.221273 -2.469806,1.57153 -3.779297,0.792969 -1.429906,-0.82436 -1.278687,-0.978516 -1.775391,-0.978516 -0.647221,0 -1.744695,0.737106 -2.015625,1.683594 -0.224086,0.724443 0.555156,6.093681 0.597821,7.31859 0.0418,-1.777748 -0.777809,-5.73671 -0.597821,-6.31859 0.27093,-0.946488 1.368404,-1.683594 2.015625,-1.683594 0.496704,0 0.345485,0.154156 1.775391,0.978516 1.309491,0.778561 3.011664,0.428304 3.779297,-0.792969 0.544447,-0.840659 0.734325,-1.669796 0.595703,-2.447265 z m -39.9121094,0.28125 c -0.2606515,1.83 0.9307821,3.34855 2.7246094,3.386718 0.842892,0.01526 1.0991764,-0.07778 2.3183594,-0.810546 1.5202136,-0.885425 2.6602266,-0.63693 3.2773436,0.599609 0.36869,0.736546 -0.454199,4.164052 -0.42993,6.621324 0.01938,-2.76662 0.848926,-6.78428 0.42993,-7.621324 C 11.744211,25.105258 10.604198,24.856763 9.0839844,25.742188 7.8648015,26.474954 7.608517,26.567994 6.765625,26.552734 5.312163,26.521808 4.2530804,25.518602 4.0410156,24.166016 Z m 19.6562504,5.679983 c -1.789629,0.0462 -3.533204,1.040555 -3.533204,2.933528 0,0.190537 -0.0353,1.055661 -0.0071,1.220703 0.371812,-4 6.843078,-4.254455 7.381226,0 0.06257,-0.24387 -0.0093,-1.09954 -0.03619,-1.406248 -0.18062,-1.892974 -2.016228,-2.668494 -3.804687,-2.747981 z m -2.066407,7.562434 c -0.03644,0.06617 -0.07545,0.131951 -0.130859,0.197266 -0.707427,0.870164 -1.579552,1.005139 -5.71875,0.974609 l -3.968993,-0.01367 c -0.01282,0.272085 -0.04007,0.965566 -0.04492,1 l 4.013915,0.01367 c 4.139198,0.03053 5.011323,-0.104445 5.71875,-0.974609 0.301109,-0.35492 0.307388,-0.715735 0.130859,-1.197266 z m 4.447266,0.01563 c -0.239809,0.874368 0.01141,1.409911 1.037109,1.835938 0.842893,0.335849 1.024558,0.353156 4.591797,0.33789 l 4.922039,-0.04297 -0.04687,-1 -4.875164,0.04297 c -3.567239,0.01527 -3.748904,-0.002 -4.591797,-0.33789 -0.562712,-0.233725 -0.67091,-0.835938 -1.037109,-0.835938 z"
     sodipodi:nodetypes="cccscccscccccccccccccscccscccccccccccccccccsc" />
</svg>
