<?xml version="1.0" encoding="UTF-8" standalone="no"?>
<svg
   xmlns:dc="http://purl.org/dc/elements/1.1/"
   xmlns:cc="http://creativecommons.org/ns#"
   xmlns:rdf="http://www.w3.org/1999/02/22-rdf-syntax-ns#"
   xmlns:svg="http://www.w3.org/2000/svg"
   xmlns="http://www.w3.org/2000/svg"
   xmlns:xlink="http://www.w3.org/1999/xlink"
   xmlns:sodipodi="http://sodipodi.sourceforge.net/DTD/sodipodi-0.dtd"
   xmlns:inkscape="http://www.inkscape.org/namespaces/inkscape"
   id="svg11300"
   width="48"
   height="48"
   style="enable-background:new"
   version="1.0"
   viewBox="0 0 48 48"
   sodipodi:docname="goa-account-foursquare.svg"
   inkscape:version="0.92.3 (2405546, 2018-03-11)">
  <defs
     id="defs13">
    <linearGradient
       inkscape:collect="always"
       id="linearGradient874">
      <stop
         style="stop-color:#ffffff;stop-opacity:1;"
         offset="0"
         id="stop870" />
      <stop
         style="stop-color:#ffffff;stop-opacity:0;"
         offset="1"
         id="stop872" />
    </linearGradient>
    <linearGradient
       inkscape:collect="always"
       id="linearGradient863">
      <stop
         style="stop-color:#000000;stop-opacity:1;"
         offset="0"
         id="stop859" />
      <stop
         style="stop-color:#000000;stop-opacity:0;"
         offset="1"
         id="stop861" />
    </linearGradient>
    <linearGradient
       inkscape:collect="always"
       id="linearGradient843">
      <stop
         style="stop-color:#e21161;stop-opacity:1;"
         offset="0"
         id="stop839" />
      <stop
         style="stop-color:#f25693;stop-opacity:1"
         offset="1"
         id="stop841" />
    </linearGradient>
    <linearGradient
       inkscape:collect="always"
       xlink:href="#linearGradient843"
       id="linearGradient845"
       x1="28"
       y1="37"
       x2="23"
       y2="3"
       gradientUnits="userSpaceOnUse" />
    <linearGradient
       inkscape:collect="always"
       xlink:href="#linearGradient863"
       id="linearGradient865"
       x1="16.541319"
       y1="9.8133698"
       x2="33.7948"
       y2="27.066853"
       gradientUnits="userSpaceOnUse" />
    <linearGradient
       inkscape:collect="always"
       xlink:href="#linearGradient874"
       id="linearGradient876"
       x1="25.270195"
       y1="6.0891361"
       x2="28.364902"
       y2="48.628597"
       gradientUnits="userSpaceOnUse" />
  </defs>
  <sodipodi:namedview
     pagecolor="#ffffff"
     bordercolor="#666666"
     borderopacity="1"
     objecttolerance="10"
     gridtolerance="10"
     guidetolerance="10"
     inkscape:pageopacity="0"
     inkscape:pageshadow="2"
     inkscape:window-width="1920"
     inkscape:window-height="1026"
     id="namedview11"
     showgrid="false"
     inkscape:zoom="9.05042"
     inkscape:cx="3.0401855"
     inkscape:cy="11.395506"
     inkscape:window-x="0"
     inkscape:window-y="30"
     inkscape:window-maximized="1"
     inkscape:current-layer="svg11300">
    <inkscape:grid
       type="xygrid"
       id="grid837" />
  </sodipodi:namedview>
  <title
     id="title4162">Adwaita Icon Template</title>
  <metadata
     id="metadata4">
    <rdf:RDF>
      <cc:Work
         rdf:about="">
        <dc:format>image/svg+xml</dc:format>
        <dc:type
           rdf:resource="http://purl.org/dc/dcmitype/StillImage" />
        <dc:creator>
          <cc:Agent>
            <dc:title>GNOME Design Team</dc:title>
          </cc:Agent>
        </dc:creator>
        <dc:source />
        <cc:license
           rdf:resource="http://creativecommons.org/licenses/by-sa/4.0/" />
        <dc:title>Adwaita Icon Template</dc:title>
        <dc:subject>
          <rdf:Bag />
        </dc:subject>
        <dc:date />
        <dc:rights>
          <cc:Agent>
            <dc:title />
          </cc:Agent>
        </dc:rights>
        <dc:publisher>
          <cc:Agent>
            <dc:title />
          </cc:Agent>
        </dc:publisher>
        <dc:identifier />
        <dc:relation />
        <dc:language />
        <dc:coverage />
        <dc:description />
        <dc:contributor>
          <cc:Agent>
            <dc:title />
          </cc:Agent>
        </dc:contributor>
      </cc:Work>
      <cc:License
         rdf:about="http://creativecommons.org/licenses/by-sa/4.0/">
        <cc:permits
           rdf:resource="http://creativecommons.org/ns#Reproduction" />
        <cc:permits
           rdf:resource="http://creativecommons.org/ns#Distribution" />
        <cc:requires
           rdf:resource="http://creativecommons.org/ns#Notice" />
        <cc:requires
           rdf:resource="http://creativecommons.org/ns#Attribution" />
        <cc:permits
           rdf:resource="http://creativecommons.org/ns#DerivativeWorks" />
        <cc:requires
           rdf:resource="http://creativecommons.org/ns#ShareAlike" />
      </cc:License>
    </rdf:RDF>
  </metadata>
  <path
     style="fill:url(#linearGradient845);fill-opacity:1;stroke-width:0.55082858;enable-background:new"
     d="M 35.437003,4.0000057 H 13.851576 C 10.886692,4.0000057 10,6.2173577 10,7.6134687 V 41.503376 c 0,1.66986 0.858987,2.1626 1.330043,2.35422 0.471055,0.19163 1.717965,0.3285 2.604656,-0.54749 0,0 10.25239,-11.898376 10.418647,-12.089996 C 24.519593,31.02848 24.602726,31 24.713564,31 h 6.483937 c 2.770917,0 3.29739,-1.86037 3.602191,-3.01011 0.249383,-0.95812 3.103426,-14.545611 3.990118,-18.8708173 0.66502,-3.339716 -0.193964,-5.119073 -3.352807,-5.119073"
     id="path22"
     inkscape:connector-curvature="0"
     sodipodi:nodetypes="cssscccssccc" />
  <path
     style="opacity:0.3;fill:url(#linearGradient865);fill-opacity:1;stroke:none;stroke-width:1;stroke-linecap:round;stroke-linejoin:round;stroke-miterlimit:4;stroke-dasharray:none;stroke-dashoffset:0;stroke-opacity:1;paint-order:normal"
     d="M 33.742188 8.4121094 C 33.945226 8.6571314 34.055339 8.9915149 33.972656 9.3671875 L 32.988281 14.089844 C 32.875923 14.582128 32.39848 15 31.808594 15 L 23.769531 15 C 22.814478 15 22 15.486156 22 16.416016 L 22 17.427734 C 22 18.357594 22.814478 19 23.769531 19 L 30.488281 19 C 31.162434 19 31.724429 19.652218 31.583984 20.335938 C 31.443529 21.047006 30.685828 24.755795 30.601562 25.138672 C 30.545433 25.548913 30.096038 26 29.421875 26 L 23.521484 26 C 22.28553 26.02737 22.033066 26.122838 21.302734 26.998047 C 20.572391 27.873208 14.113281 35.951172 14.113281 35.951172 C 14.088724 35.987057 14.0648 35.993596 14.044922 35.992188 L 17.373047 39.320312 C 20.422696 35.78115 24.242125 31.349087 24.353516 31.220703 C 24.519763 31.029073 24.602053 31 24.712891 31 L 31.197266 31 C 33.968183 31 34.494027 29.139974 34.798828 27.990234 C 35.006505 27.192349 36.863068 18.36916 38.042969 12.697266 L 33.757812 8.4121094 L 33.742188 8.4121094 z "
     id="rect847" />
  <path
     style="fill:url(#linearGradient876);stroke-width:0.55433625;enable-background:new;fill-opacity:1"
     d="M 33.971859,9.3674405 32.988714,14.08907 C 32.876356,14.581354 32.398829,15 31.808943,15 h -8.03916 C 22.81473,15 22,15.485187 22,16.415047 v 1.011905 C 22,18.356812 22.81473,19 23.769783,19 h 6.718937 c 0.674153,0 1.235953,0.651651 1.095508,1.335371 -0.140455,0.711069 -0.898881,4.420893 -0.983147,4.80377 C 30.544951,25.549382 30.09547,26 29.421307,26 h -5.898861 c -1.235954,0.02737 -1.488759,0.12365 -2.219091,0.998859 -0.730343,0.875161 -7.190996,8.951629 -7.190996,8.951629 C 14.056229,36.03251 14,36.005136 14,35.923114 V 9.1486498 c 0,-0.629023 0.533707,-1.1486497 1.179774,-1.1486497 h 17.724671 c 0.617976,0 1.235953,0.6016729 1.067414,1.3674404"
     id="path835"
     inkscape:connector-curvature="0"
     sodipodi:nodetypes="ccssssssccscccssssc" />
  <path
     style="fill:#000000;fill-opacity:1;stroke-width:0.55082858;enable-background:new;opacity:0.2"
     d="M 38.970703 6.7832031 C 38.940454 7.1986996 38.88481 7.6383007 38.789062 8.1191406 C 37.902371 12.444347 35.048211 26.032114 34.798828 26.990234 C 34.494027 28.139974 33.968183 30 31.197266 30 L 24.712891 30 C 24.602053 30 24.519763 30.029073 24.353516 30.220703 C 24.187259 30.412323 13.935547 42.310547 13.935547 42.310547 C 13.048856 43.186537 11.801133 43.049052 11.330078 42.857422 C 10.859022 42.665802 10 42.173766 10 40.503906 L 10 41.503906 C 10 43.173766 10.859022 43.665802 11.330078 43.857422 C 11.801133 44.049052 13.048856 44.186537 13.935547 43.310547 C 13.935547 43.310547 24.187259 31.412323 24.353516 31.220703 C 24.519763 31.029073 24.602053 31 24.712891 31 L 31.197266 31 C 33.968183 31 34.494027 29.139974 34.798828 27.990234 C 35.048211 27.032114 37.902371 13.444347 38.789062 9.1191406 C 38.967322 8.2239269 39.02639 7.4499715 38.970703 6.7832031 z "
     id="path831" />
</svg>
