<?xml version="1.0" encoding="UTF-8" standalone="no"?>
<svg
   xmlns:dc="http://purl.org/dc/elements/1.1/"
   xmlns:cc="http://creativecommons.org/ns#"
   xmlns:rdf="http://www.w3.org/1999/02/22-rdf-syntax-ns#"
   xmlns:svg="http://www.w3.org/2000/svg"
   xmlns="http://www.w3.org/2000/svg"
   xmlns:xlink="http://www.w3.org/1999/xlink"
   xmlns:sodipodi="http://sodipodi.sourceforge.net/DTD/sodipodi-0.dtd"
   xmlns:inkscape="http://www.inkscape.org/namespaces/inkscape"
   width="48"
   height="48"
   version="1.1"
   id="svg14"
   sodipodi:docname="mstdn.svg"
   inkscape:version="0.92.3 (2405546, 2018-03-11)">
  <metadata
     id="metadata20">
    <rdf:RDF>
      <cc:Work
         rdf:about="">
        <dc:format>image/svg+xml</dc:format>
        <dc:type
           rdf:resource="http://purl.org/dc/dcmitype/StillImage" />
        <dc:title />
      </cc:Work>
    </rdf:RDF>
  </metadata>
  <defs
     id="defs18">
    <linearGradient
       inkscape:collect="always"
       id="linearGradient888">
      <stop
         style="stop-color:#ffffff;stop-opacity:1;"
         offset="0"
         id="stop884" />
      <stop
         style="stop-color:#ffffff;stop-opacity:0;"
         offset="1"
         id="stop886" />
    </linearGradient>
    <linearGradient
       inkscape:collect="always"
       id="linearGradient878">
      <stop
         style="stop-color:#000000;stop-opacity:1;"
         offset="0"
         id="stop874" />
      <stop
         style="stop-color:#000000;stop-opacity:0;"
         offset="1"
         id="stop876" />
    </linearGradient>
    <linearGradient
       inkscape:collect="always"
       id="linearGradient851">
      <stop
         style="stop-color:#1b77c3;stop-opacity:1;"
         offset="0"
         id="stop847" />
      <stop
         style="stop-color:#4ea3e7;stop-opacity:1"
         offset="1"
         id="stop849" />
    </linearGradient>
    <linearGradient
       inkscape:collect="always"
       xlink:href="#linearGradient851"
       id="linearGradient853"
       x1="37.559151"
       y1="42.811729"
       x2="27.272396"
       y2="4.0744195"
       gradientUnits="userSpaceOnUse" />
    <linearGradient
       inkscape:collect="always"
       xlink:href="#linearGradient878"
       id="linearGradient880"
       x1="14.919085"
       y1="14.855912"
       x2="22.752422"
       y2="22.689251"
       gradientUnits="userSpaceOnUse" />
    <linearGradient
       inkscape:collect="always"
       xlink:href="#linearGradient888"
       id="linearGradient890"
       x1="14.562852"
       y1="12.498124"
       x2="18.812384"
       y2="19.909006"
       gradientUnits="userSpaceOnUse" />
  </defs>
  <sodipodi:namedview
     pagecolor="#9a9a9a"
     bordercolor="#666666"
     borderopacity="1"
     objecttolerance="10"
     gridtolerance="10"
     guidetolerance="10"
     inkscape:pageopacity="0"
     inkscape:pageshadow="2"
     inkscape:window-width="1920"
     inkscape:window-height="1020"
     id="namedview16"
     showgrid="false"
     inkscape:zoom="10.66"
     inkscape:cx="-5.645403"
     inkscape:cy="23.093465"
     inkscape:window-x="0"
     inkscape:window-y="30"
     inkscape:window-maximized="1"
     inkscape:current-layer="svg14">
    <inkscape:grid
       type="xygrid"
       id="grid839" />
  </sodipodi:namedview>
  <path
     style="fill:url(#linearGradient853);fill-opacity:1"
     d="M 18 4 C 11.352 4 6 8.46 6 14 L 6 25 C 6 25.543474 6.0648804 26.0723 6.1640625 26.591797 C 6.4630565 31.276947 7.3261133 37.188551 9.8066406 40.013672 C 12.865595 43.497574 20.000733 44 22.882812 44 C 28.004687 44 31 41.994141 31 41.994141 L 31 38.986328 C 31 38.986328 27.197253 40.064802 23.548828 40 C 20.664867 39.921203 17.031735 38.428425 16 35 C 15.989859 34.951312 15.984302 34.896954 15.974609 34.847656 C 16.634199 34.940565 17.307723 35 18 35 L 30 35 C 36.648 35 42 30.54 42 25 L 42 14 C 42 8.46 36.648 4 30 4 L 18 4 z "
     id="rect4" />
  <path
     style="fill:#000000;fill-opacity:1;opacity:0.2"
     d="M 6 24 L 6 25 C 6 25.543474 6.0648804 26.0723 6.1640625 26.591797 C 6.4630565 31.276947 7.3261133 37.188551 9.8066406 40.013672 C 12.865595 43.497574 20.000733 44 22.882812 44 C 28.004687 44 31 41.994141 31 41.994141 L 31 40.994141 C 31 40.994141 28.004687 43 22.882812 43 C 20.000733 43 12.865595 42.497574 9.8066406 39.013672 C 7.3261133 36.188551 6.4630565 30.276947 6.1640625 25.591797 C 6.06488 25.0723 6 24.543474 6 24 z M 42 24 C 42 29.54 36.648 34 30 34 L 18 34 C 17.307723 34 16.634198 33.940565 15.974609 33.847656 C 15.984299 33.896954 15.98986 33.95131 16 34 C 16.094741 34.31482 16.217499 34.608044 16.353516 34.890625 C 16.892536 34.95489 17.438907 35 18 35 L 30 35 C 36.648 35 42 30.54 42 25 L 42 24 z "
     id="path895" />
  <path
     style="opacity:0.2;fill:url(#linearGradient880);fill-opacity:1;stroke:none;stroke-width:2.80724001;stroke-linecap:butt;stroke-linejoin:round;stroke-miterlimit:4;stroke-dasharray:none;stroke-dashoffset:0;stroke-opacity:1;paint-order:normal"
     d="M 18.146484 13.621094 A 2.5 2.5 0 0 1 18.261719 13.728516 L 18.154297 13.621094 L 18.146484 13.621094 z M 18.308594 13.775391 A 2.5 2.5 0 0 1 19 15.5 A 2.5 2.5 0 0 1 16.5 18 A 2.5 2.5 0 0 1 14.888672 17.412109 L 32.316406 34.839844 L 35.412109 31.742188 L 34.882812 31.210938 L 35.3125 30.78125 L 18.308594 13.775391 z "
     id="rect855" />
  <circle
     style="fill:url(#linearGradient890);stroke-width:1.25;fill-opacity:1"
     cx="16.5"
     cy="15.5"
     r="2.5"
     id="circle10" />
</svg>
