<?xml version="1.0" encoding="UTF-8" standalone="no"?>
<svg
   xmlns:dc="http://purl.org/dc/elements/1.1/"
   xmlns:cc="http://creativecommons.org/ns#"
   xmlns:rdf="http://www.w3.org/1999/02/22-rdf-syntax-ns#"
   xmlns:svg="http://www.w3.org/2000/svg"
   xmlns="http://www.w3.org/2000/svg"
   xmlns:xlink="http://www.w3.org/1999/xlink"
   xmlns:sodipodi="http://sodipodi.sourceforge.net/DTD/sodipodi-0.dtd"
   xmlns:inkscape="http://www.inkscape.org/namespaces/inkscape"
   width="48"
   height="48"
   version="1.1"
   id="svg40"
   sodipodi:docname="openbazaar2.svg"
   inkscape:version="0.92.3 (2405546, 2018-03-11)">
  <metadata
     id="metadata46">
    <rdf:RDF>
      <cc:Work
         rdf:about="">
        <dc:format>image/svg+xml</dc:format>
        <dc:type
           rdf:resource="http://purl.org/dc/dcmitype/StillImage" />
      </cc:Work>
    </rdf:RDF>
  </metadata>
  <defs
     id="defs44">
    <linearGradient
       inkscape:collect="always"
       id="linearGradient942">
      <stop
         style="stop-color:#000000;stop-opacity:1;"
         offset="0"
         id="stop938" />
      <stop
         style="stop-color:#000000;stop-opacity:0;"
         offset="1"
         id="stop940" />
    </linearGradient>
    <linearGradient
       inkscape:collect="always"
       id="linearGradient894">
      <stop
         style="stop-color:#047ed0;stop-opacity:1"
         offset="0"
         id="stop890" />
      <stop
         style="stop-color:#2ba8fb;stop-opacity:1"
         offset="1"
         id="stop892" />
    </linearGradient>
    <linearGradient
       inkscape:collect="always"
       id="linearGradient886">
      <stop
         style="stop-color:#000000;stop-opacity:1;"
         offset="0"
         id="stop882" />
      <stop
         style="stop-color:#000000;stop-opacity:0;"
         offset="1"
         id="stop884" />
    </linearGradient>
    <linearGradient
       inkscape:collect="always"
       xlink:href="#linearGradient886"
       id="linearGradient888"
       x1="6"
       y1="14.360352"
       x2="42"
       y2="14.360352"
       gradientUnits="userSpaceOnUse" />
    <linearGradient
       inkscape:collect="always"
       xlink:href="#linearGradient894"
       id="linearGradient896"
       x1="24.977705"
       y1="24.146482"
       x2="23.964844"
       y2="4"
       gradientUnits="userSpaceOnUse" />
    <linearGradient
       inkscape:collect="always"
       xlink:href="#linearGradient894"
       id="linearGradient904"
       x1="31.646484"
       y1="44"
       x2="32.224033"
       y2="30.507885"
       gradientUnits="userSpaceOnUse" />
    <linearGradient
       inkscape:collect="always"
       xlink:href="#linearGradient942"
       id="linearGradient944"
       x1="15"
       y1="26"
       x2="28.341038"
       y2="39.341038"
       gradientUnits="userSpaceOnUse" />
  </defs>
  <sodipodi:namedview
     pagecolor="#ffffff"
     bordercolor="#666666"
     borderopacity="1"
     objecttolerance="10"
     gridtolerance="10"
     guidetolerance="10"
     inkscape:pageopacity="0"
     inkscape:pageshadow="2"
     inkscape:window-width="1920"
     inkscape:window-height="1020"
     id="namedview42"
     showgrid="true"
     inkscape:zoom="8.58"
     inkscape:cx="24"
     inkscape:cy="16.828028"
     inkscape:window-x="0"
     inkscape:window-y="30"
     inkscape:window-maximized="1"
     inkscape:current-layer="svg40">
    <inkscape:grid
       type="xygrid"
       id="grid906" />
  </sodipodi:namedview>
  <path
     inkscape:connector-curvature="0"
     id="path6"
     d="m 23.964844,4 c -0.05772,0.1191 -0.126052,0.2480875 -0.195313,0.3671875 -0.04938,0.095565 -0.11698,0.2076097 -0.167969,0.3046875 -0.353246,0.5945657 -1.426706,2.3369098 -3.574218,3.6914062 -2.559917,1.5018001 -6.158423,2.5487658 -9.033203,2.5097658 0,0 -4.7203698,13.145112 -4.9082035,13.566406 C 6.0576811,24.458215 6.0281587,24.481481 6,24.5 H 6.064453 C 6.0625301,24.504006 6.0002981,24.678292 6,24.677734 l 0.011719,0.04297 H 6.023438 C 6.124901,24.653328 6.2312294,24.57093 6.3339844,24.5 H 41.837891 c 0.0532,0.0344 0.109257,0.07593 0.162109,0.109375 v -0.01953 L 41.966797,24.5 H 42 C 41.98595,24.4911 41.97111,24.47971 41.95703,24.4707 L 37.017578,10.871094 c -2.730264,0.053 -5.862796,-0.79246 -7.890625,-1.8808596 C 26.784076,7.7058636 25.241213,5.9532648 24.615234,4.9355469 24.60062,4.9067691 24.580873,4.8723832 24.566406,4.84375 24.439402,4.58385 24.312553,4.3252719 24.185547,4.0761719 24.104727,4.0541719 24.034118,4.021 23.964844,4 Z"
     style="fill:#048eea;fill-rule:evenodd" />
  <path
     inkscape:connector-curvature="0"
     id="path8"
     d="m 23.964844,4 c -0.05772,0.1191 -0.126052,0.2480875 -0.195313,0.3671875 -0.04938,0.095565 -0.11698,0.2076097 -0.167969,0.3046875 -0.353246,0.5945657 -1.426706,2.3369098 -3.574218,3.6914062 -2.559917,1.5018001 -6.158423,2.5487658 -9.033203,2.5097658 0,0 -4.7203698,13.145112 -4.9082035,13.566406 C 6.0576811,24.458215 6.0281587,24.481481 6,24.5 H 6.064453 C 6.0625301,24.504006 6.0002981,24.678292 6,24.677734 l 0.011719,0.04297 H 6.023438 C 6.124901,24.653328 6.2312294,24.57093 6.3339844,24.5 H 41.837891 c 0.0532,0.0344 0.109257,0.07593 0.162109,0.109375 v -0.01953 L 41.966797,24.5 H 42 C 41.98595,24.4911 41.97111,24.47971 41.95703,24.4707 L 37.017578,10.871094 c -2.730264,0.053 -5.862796,-0.79246 -7.890625,-1.8808596 C 26.784076,7.7058636 25.241213,5.9532648 24.615234,4.9355469 24.60062,4.9067691 24.580873,4.8723832 24.566406,4.84375 24.439402,4.58385 24.312553,4.3252719 24.185547,4.0761719 24.104727,4.0541719 24.034118,4.021 23.964844,4 Z"
     style="opacity:0.3;fill-rule:evenodd;fill-opacity:1;fill:url(#linearGradient888)" />
  <polygon
     id="polygon12"
     points="4.66,6.75 8.08,0 11.5,6.75 "
     transform="matrix(2.0453091,0,0,2.0727643,7.4772392,28)"
     style="fill:#243c4a;fill-rule:evenodd;fill-opacity:1" />
  <g
     id="g18"
     transform="matrix(-1.9832395,0,0,1.9484438,52.491622,28.6053)"
     style="fill:none">
    <use
       id="use14"
       xlink:href="#path-2"
       y="0"
       x="0"
       height="100%"
       width="100%" />
    <use
       id="use16"
       xlink:href="#path-2"
       y="0"
       x="0"
       height="100%"
       width="100%"
       style="fill:#ffffff" />
  </g>
  <path
     inkscape:connector-curvature="0"
     id="path20"
     d="M 16.349,43.999999 24,28 31.646001,44 h 3.338756 c 4.015244,0 4.015244,-13 5.015242,-16 H 8.0000001 C 9,31 8.9547128,43.994684 12.995427,43.999999 Z"
     style="fill:url(#linearGradient904);fill-rule:evenodd;stroke-width:2.00209308;fill-opacity:1" />
  <path
     inkscape:connector-curvature="0"
     id="path28"
     d="m 42.000002,24.5 v 0 C 39.159719,22.6915 35.811418,19.6036 32.347659,15.922 28.572162,11.9154 26.135985,7.9522 24.565747,4.8444 24.438743,4.5845 24.311739,4.3247 24.184733,4.0756 24.103913,4.0536 24.034636,4.0206 23.965362,3.9996 23.907642,4.1187 23.838352,4.2487 23.769091,4.3678 22.12958,7.5405 19.61258,11.5578 15.7909,15.662 12.315595,19.3977 8.8980117,22.5941 6,24.5"
     style="fill:url(#linearGradient896);fill-rule:evenodd;fill-opacity:1" />
  <path
     style="opacity:0.2;fill-rule:evenodd"
     d="m 8,28 c 0.9999999,3 0.9553795,15.9947 4.996094,16 h 3.353515 L 24,28 H 23.521484 L 16.349609,43 H 12.996094 C 9.3021079,42.995155 9.0210634,32.15594 8.2363281,28 Z m 16,0 7.646484,16 h 3.337891 C 38.999619,44 39.000002,31 40,28 h -0.238281 c -0.791058,4.156665 -1.106643,15 -4.777344,15 H 31.646484 L 24.478516,28 Z"
     id="path2"
     inkscape:connector-curvature="0" />
  <path
     inkscape:connector-curvature="0"
     id="path26"
     d="M 16.384649,44 12.03945,37.3126 c -0.06927,-0.1066 -0.04504,-0.2537 0.05482,-0.329 0,0 4.06331,-3.066 6.094963,-4.5991 C 18.450255,32.1876 24.000002,28 24.000002,28 l -7.615347,16 v 0 z"
     style="fill:#ffffff;fill-rule:evenodd" />
  <path
     inkscape:connector-curvature="0"
     id="path36"
     d="m 31.615353,44 4.345199,-6.6874 c 0.06927,-0.1066 0.04504,-0.2537 -0.05482,-0.329 0,0 -4.06331,-3.066 -6.094963,-4.5991 C 29.549747,32.1876 24,28 24,28 l 7.615347,16 v 0 z"
     style="fill:#ffffff;fill-rule:evenodd" />
  <path
     style="opacity:0.3;fill:url(#linearGradient944);fill-opacity:1;stroke:none;stroke-width:2;stroke-linecap:butt;stroke-linejoin:round;stroke-miterlimit:4;stroke-dasharray:none;stroke-dashoffset:0;stroke-opacity:1;paint-order:normal"
     d="M 6.4199219,26.361328 7,27 6.7698606,27.676111 23.09375,44 H 27 34.984375 C 38.999619,44 39.000002,31 40,28 H 27 24 13 8 c 0.058034,0.174101 -0.7045702,-0.669842 -1.5800781,-1.638672 z"
     id="rect908"
     inkscape:connector-curvature="0"
     sodipodi:nodetypes="cccccscccccc" />
  <path
     inkscape:connector-curvature="0"
     id="path32"
     d="m 6.78125,24 a 0.78170349,0.77087026 0 0 0 -0.7578125,0.955078 l 0.4570313,1.841797 0.1542968,0.615234 A 0.78170349,0.77087026 0 0 0 7.3925781,28 H 8.046875 a 0.78170349,0.77087026 0 0 0 0.00195,0 l 9.890625,-0.01367 a 0.78170349,0.77087026 0 0 0 0.03516,0 l 1.179688,0.002 a 0.78170349,0.77087026 0 0 0 0.109375,0.0078 h 0.697266 L 24,27.992188 l 4.039062,0.0039 h 0.697266 a 0.78170349,0.77087026 0 0 0 0.109375,-0.0078 l 1.179688,-0.002 a 0.78170349,0.77087026 0 0 0 0.03516,0 L 39.951172,28 a 0.78170349,0.77087026 0 0 1 0.002,0 h 0.654297 a 0.78170349,0.77087026 0 0 0 0.757812,-0.587891 l 0.154297,-0.615234 0.457031,-1.841797 A 0.78170349,0.77087026 0 0 0 41.21875,24 h -12 -10.4375 z"
     style="fill:#0364a4;fill-rule:evenodd" />
</svg>
