<?xml version="1.0" encoding="UTF-8" standalone="no"?>
<!-- Created with Inkscape (http://www.inkscape.org/) -->

<svg
   xmlns:dc="http://purl.org/dc/elements/1.1/"
   xmlns:cc="http://creativecommons.org/ns#"
   xmlns:rdf="http://www.w3.org/1999/02/22-rdf-syntax-ns#"
   xmlns:svg="http://www.w3.org/2000/svg"
   xmlns="http://www.w3.org/2000/svg"
   xmlns:xlink="http://www.w3.org/1999/xlink"
   xmlns:sodipodi="http://sodipodi.sourceforge.net/DTD/sodipodi-0.dtd"
   xmlns:inkscape="http://www.inkscape.org/namespaces/inkscape"
   width="48"
   version="1.1"
   height="48"
   id="svg44"
   sodipodi:docname="org.gnome.Games.svg"
   inkscape:version="0.92.1 r15371">
  <sodipodi:namedview
     pagecolor="#ffffff"
     bordercolor="#666666"
     borderopacity="1"
     objecttolerance="10"
     gridtolerance="10"
     guidetolerance="10"
     inkscape:pageopacity="0"
     inkscape:pageshadow="2"
     inkscape:window-width="1600"
     inkscape:window-height="808"
     id="namedview46"
     showgrid="false"
     inkscape:zoom="1"
     inkscape:cx="26.734197"
     inkscape:cy="22.812977"
     inkscape:window-x="0"
     inkscape:window-y="0"
     inkscape:window-maximized="1"
     inkscape:current-layer="layer1-3">
    <inkscape:grid
       type="xygrid"
       id="grid4589" />
  </sodipodi:namedview>
  <defs
     id="defs5455">
    <linearGradient
       inkscape:collect="always"
       id="linearGradient4417"
       xlink:href="#linearGradient4159"
       y1="24"
       y2="7.9999738"
       gradientUnits="userSpaceOnUse"
       x2="0"
       gradientTransform="matrix(0.76923077,0,0,0.76923077,384.26374,523.83646)" />
    <linearGradient
       inkscape:collect="always"
       id="linearGradient4449"
       xlink:href="#linearGradient4219"
       y1="532.79797"
       y2="526.79797"
       gradientUnits="userSpaceOnUse"
       x2="0"
       gradientTransform="matrix(0.83333239,0,0,0.83333239,63.595626,92.800194)" />
    <linearGradient
       inkscape:collect="always"
       id="linearGradient4467"
       xlink:href="#linearGradient4159"
       y1="533.79797"
       y2="523.79797"
       gradientUnits="userSpaceOnUse"
       x2="0"
       gradientTransform="matrix(0.74999994,0,0,0.79166662,96.142885,115.12462)" />
    <linearGradient
       inkscape:collect="always"
       id="linearGradient4219">
      <stop
         style="stop-color:#999a9c"
         id="stop4221" />
      <stop
         offset="1"
         style="stop-color:#f4f5f5"
         id="stop4223" />
    </linearGradient>
    <linearGradient
       inkscape:collect="always"
       id="linearGradient4159">
      <stop
         style="stop-color:#2a2c2f"
         id="stop4161" />
      <stop
         offset="1"
         style="stop-color:#424649"
         id="stop4163" />
    </linearGradient>
    <linearGradient
       inkscape:collect="always"
       id="linearGradient4620"
       xlink:href="#linearGradient4159"
       y1="8"
       y2="24"
       gradientUnits="userSpaceOnUse"
       x2="0"
       gradientTransform="matrix(0.76923077,0,0,-0.76923077,384.26374,542.298)" />
    <linearGradient
       inkscape:collect="always"
       id="linearGradient4347">
      <stop
         style="stop-color:#f33777"
         id="stop4349" />
      <stop
         offset="1"
         style="stop-color:#fd2d65"
         id="stop4351" />
    </linearGradient>
    <linearGradient
       inkscape:collect="always"
       id="linearGradient4280">
      <stop
         style="stop-color:#c0392b"
         id="stop4282" />
      <stop
         offset="1"
         style="stop-color:#e74c3c"
         id="stop4284" />
    </linearGradient>
    <linearGradient
       inkscape:collect="always"
       id="linearGradient4264">
      <stop
         style="stop-color:#2980b9"
         id="stop4266" />
      <stop
         offset="1"
         style="stop-color:#3498db"
         id="stop4268" />
    </linearGradient>
    <linearGradient
       inkscape:collect="always"
       id="linearGradient4255">
      <stop
         style="stop-color:#27ae60"
         id="stop4257" />
      <stop
         offset="1"
         style="stop-color:#2ecc71"
         id="stop4259" />
    </linearGradient>
    <linearGradient
       inkscape:collect="always"
       id="linearGradient4725"
       xlink:href="#linearGradient4264"
       y1="532.79797"
       y2="530.79797"
       gradientUnits="userSpaceOnUse"
       x2="0"
       gradientTransform="matrix(0.74999588,0,0,0.74999588,96.144539,137.20169)" />
    <linearGradient
       inkscape:collect="always"
       id="linearGradient4733"
       xlink:href="#linearGradient4255"
       y1="528.79797"
       y2="526.79797"
       gradientUnits="userSpaceOnUse"
       x2="0"
       gradientTransform="matrix(0.74999588,0,0,0.74999588,96.144539,137.20168)" />
    <linearGradient
       inkscape:collect="always"
       id="linearGradient4741"
       xlink:href="#linearGradient4280"
       y1="530.79797"
       y2="528.79797"
       gradientUnits="userSpaceOnUse"
       x2="0"
       gradientTransform="matrix(0.75000075,0,0,0.75000075,96.142547,137.19911)" />
    <linearGradient
       inkscape:collect="always"
       id="linearGradient4749"
       xlink:href="#linearGradient4347"
       y1="530.79797"
       y2="528.79797"
       gradientUnits="userSpaceOnUse"
       x2="0"
       gradientTransform="matrix(0.75000075,0,0,0.75000075,96.142557,137.19911)" />
    <linearGradient
       inkscape:collect="always"
       xlink:href="#linearGradient4159"
       id="linearGradient4577"
       gradientUnits="userSpaceOnUse"
       gradientTransform="matrix(0.75000075,0,0,0.75000075,96.642582,137.1991)"
       y1="536.79797"
       x2="0"
       y2="532.79797" />
    <linearGradient
       inkscape:collect="always"
       xlink:href="#linearGradient4219"
       id="linearGradient4579"
       gradientUnits="userSpaceOnUse"
       gradientTransform="translate(381.0714,519.29796)"
       y1="20"
       x2="0"
       y2="18" />
    <linearGradient
       inkscape:collect="always"
       xlink:href="#linearGradient4159"
       id="linearGradient4585"
       gradientUnits="userSpaceOnUse"
       gradientTransform="matrix(0.75000075,0,0,0.75000075,101.64258,137.1991)"
       y1="536.79797"
       x2="0"
       y2="532.79797" />
    <linearGradient
       inkscape:collect="always"
       xlink:href="#linearGradient4219"
       id="linearGradient4587"
       gradientUnits="userSpaceOnUse"
       gradientTransform="translate(386.0714,519.29796)"
       y1="20"
       x2="0"
       y2="18" />
  </defs>
  <metadata
     id="metadata5458">
    <rdf:RDF>
      <cc:Work
         rdf:about="">
        <dc:format>image/svg+xml</dc:format>
        <dc:type
           rdf:resource="http://purl.org/dc/dcmitype/StillImage" />
        <dc:title></dc:title>
      </cc:Work>
    </rdf:RDF>
  </metadata>
  <g
     inkscape:label="Capa 1"
     inkscape:groupmode="layer"
     id="layer1-3"
     transform="matrix(2,0,0,2,-769.14286,-1047.596)">
    <circle
       cx="393.57144"
       cy="529.79797"
       style="fill:#e3dbdb;stroke-width:0.1;stroke-linecap:square"
       id="ellipse4246"
       r="0" />
    <path
       style="fill:url(#linearGradient4417);stroke-width:0.07692308;stroke-linecap:square"
       d="m 387.59043,534.60569 -0.97393,5.78876 c -0.0296,0.11946 -0.0447,0.24203 -0.0451,0.36509 0,0.84967 0.6888,1.53846 1.53846,1.53846 0.45715,-4.2e-4 0.89043,-0.20413 1.1824,-0.55589 l 0.002,0.003 4.20072,-4.83173 z"
       id="path4575"
       inkscape:connector-curvature="0"
       sodipodi:nodetypes="cccccccc" />
    <path
       style="fill:url(#linearGradient4417);stroke-width:0.07692308;stroke-linecap:square"
       d="m 405.55243,534.60569 -5.90407,2.30769 4.20072,4.83173 0.002,-0.003 c 0.29193,0.35176 0.72521,0.55547 1.18235,0.55589 0.84967,0 1.53846,-0.68879 1.53846,-1.53846 -3.7e-4,-0.12306 -0.0155,-0.24563 -0.0451,-0.36509 z"
       id="path4220"
       inkscape:connector-curvature="0"
       sodipodi:nodetypes="cccccccc" />
    <path
       style="fill:url(#linearGradient4467);stroke-width:0.07705517;stroke-linecap:square"
       d="m 392.07143,529.798 c -2.48528,0 -4.5,2.12664 -4.5,4.74999 0,2.62336 2.01472,4.75001 4.5,4.75001 0.88331,-9.6e-4 1.74682,-0.4846 2.48291,-1 h 4.03418 c 0.7361,0.5154 1.5996,0.99905 2.48291,1 2.48528,0 4.5,-2.12665 4.5,-4.75001 0,-2.62335 -2.01472,-4.74999 -4.5,-4.74999 h -3.75 -1.5 z"
       id="rect4234"
       inkscape:connector-curvature="0"
       sodipodi:nodetypes="ssccccssccs" />
    <path
       style="fill:url(#linearGradient4733);stroke-width:0.07499959;stroke-linecap:square"
       d="m 401.82143,532.29801 a 0.74999588,0.74999588 0 0 0 -0.75,0.74999 0.74999588,0.74999588 0 0 0 0.75,0.75 0.74999588,0.74999588 0 0 0 0.75,-0.75 0.74999588,0.74999588 0 0 0 -0.75,-0.74999 z"
       id="path4717"
       inkscape:connector-curvature="0" />
    <path
       style="fill:url(#linearGradient4749);stroke-width:0.07500008;stroke-linecap:square"
       d="m 400.32143,533.798 a 0.75000075,0.75000075 0 0 0 -0.75,0.75 0.75000075,0.75000075 0 0 0 0.75,0.75 0.75000075,0.75000075 0 0 0 0.75,-0.75 0.75000075,0.75000075 0 0 0 -0.75,-0.75 z"
       id="path4715"
       inkscape:connector-curvature="0" />
    <path
       style="fill:url(#linearGradient4741);stroke-width:0.07500008;stroke-linecap:square"
       d="m 403.32143,533.798 a 0.75000075,0.75000075 0 0 0 -0.75,0.75 0.75000075,0.75000075 0 0 0 0.75,0.75 0.75000075,0.75000075 0 0 0 0.75,-0.75 0.75000075,0.75000075 0 0 0 -0.75,-0.75 z"
       id="path4713"
       inkscape:connector-curvature="0" />
    <path
       style="fill:url(#linearGradient4725);stroke-width:0.07499959;stroke-linecap:square"
       d="m 401.82143,535.298 a 0.74999588,0.74999588 0 0 0 -0.75,0.75 0.74999588,0.74999588 0 0 0 0.75,0.75 0.74999588,0.74999588 0 0 0 0.75,-0.75 0.74999588,0.74999588 0 0 0 -0.75,-0.75 z"
       id="path4268"
       inkscape:connector-curvature="0" />
    <path
       style="fill:url(#linearGradient4449);stroke-width:0.08333324;stroke-linecap:square"
       d="m 390.57143,531.79801 v 1.49999 h -1.5 v 2 h 1.5 v 1.5 h 2 v -1.5 h 1.5 v -2 h -1.5 v -1.49999 z"
       id="rect4297"
       inkscape:connector-curvature="0"
       sodipodi:nodetypes="ccccccccccccc" />
    <path
       style="fill:url(#linearGradient4577);stroke-width:0.02499978;stroke-linecap:square"
       d="m 394.07143,536.79799 a 1.5000015,1.5000015 0 0 0 -1.5,1.5 1.5000015,1.5000015 0 0 0 1.5,1.50001 1.5000015,1.5000015 0 0 0 1.5,-1.50001 1.5000015,1.5000015 0 0 0 -1.5,-1.5 z"
       id="path4559"
       inkscape:connector-curvature="0" />
    <path
       style="fill:url(#linearGradient4579);stroke-width:0.10000011;stroke-linecap:square"
       d="m 394.07143,537.29799 a 0.99999499,0.99999499 0 0 0 -1,1 0.99999499,0.99999499 0 0 0 1,1.00001 0.99999499,0.99999499 0 0 0 1,-1.00001 0.99999499,0.99999499 0 0 0 -1,-1 z"
       id="path4555"
       inkscape:connector-curvature="0" />
    <path
       style="fill:url(#linearGradient4620);stroke-width:0.07692308;stroke-linecap:square"
       d="m 396.18681,535.37492 c -0.21241,0 -0.38461,-0.1722 -0.38461,-0.38461 0,-0.21242 0.1722,-0.38462 0.38461,-0.38462 0.21242,0 0.38462,0.1722 0.38462,0.38462 0,0.21241 -0.1722,0.38461 -0.38462,0.38461 z"
       id="path4551" />
    <path
       style="fill:url(#linearGradient4620);stroke-width:0.07692308;stroke-linecap:square"
       d="m 397.34066,534.60569 -0.54387,-0.54387 0.99459,-0.99459 -0.99459,-0.99459 0.54387,-0.54387 0.99459,0.99459 0.54387,0.54387 -0.54387,0.54387 z"
       id="path4549" />
    <path
       style="fill:url(#linearGradient4620);stroke-width:0.07692308;stroke-linecap:square"
       d="m 395.41758,533.83646 c -0.21241,0 -0.3846,-0.1722 -0.38461,-0.38461 1e-5,-0.21242 0.1722,-0.38462 0.38461,-0.38462 0.21242,0 0.38461,0.1722 0.38462,0.38462 -1e-5,0.21241 -0.1722,0.38461 -0.38462,0.38461 z"
       id="path4547" />
    <path
       style="fill:url(#linearGradient4620);stroke-width:0.07692308;stroke-linecap:square"
       d="m 396.18681,532.298 c -0.21241,0 -0.38461,-0.1722 -0.38461,-0.38461 0,-0.21242 0.1722,-0.38462 0.38461,-0.38462 0.21242,0 0.38462,0.1722 0.38462,0.38462 0,0.21241 -0.1722,0.38461 -0.38462,0.38461 z"
       id="path4601" />
    <path
       inkscape:connector-curvature="0"
       id="path4581"
       d="m 399.07143,536.79799 a 1.5000015,1.5000015 0 0 0 -1.5,1.5 1.5000015,1.5000015 0 0 0 1.5,1.50001 1.5000015,1.5000015 0 0 0 1.5,-1.50001 1.5000015,1.5000015 0 0 0 -1.5,-1.5 z"
       style="fill:url(#linearGradient4585);stroke-width:0.02499978;stroke-linecap:square" />
    <path
       inkscape:connector-curvature="0"
       id="path4583"
       d="m 399.07143,537.29799 a 0.99999499,0.99999499 0 0 0 -1,1 0.99999499,0.99999499 0 0 0 1,1.00001 0.99999499,0.99999499 0 0 0 1,-1.00001 0.99999499,0.99999499 0 0 0 -1,-1 z"
       style="fill:url(#linearGradient4587);stroke-width:0.10000011;stroke-linecap:square" />
  </g>
</svg>
