<?xml version="1.0" encoding="UTF-8" standalone="no"?>
<svg
   xmlns:dc="http://purl.org/dc/elements/1.1/"
   xmlns:cc="http://creativecommons.org/ns#"
   xmlns:rdf="http://www.w3.org/1999/02/22-rdf-syntax-ns#"
   xmlns:svg="http://www.w3.org/2000/svg"
   xmlns="http://www.w3.org/2000/svg"
   xmlns:xlink="http://www.w3.org/1999/xlink"
   xmlns:sodipodi="http://sodipodi.sourceforge.net/DTD/sodipodi-0.dtd"
   xmlns:inkscape="http://www.inkscape.org/namespaces/inkscape"
   height="48"
   width="48"
   version="1.1"
   viewBox="0 0 48 48"
   id="svg20"
   sodipodi:docname="password-manager.svg"
   inkscape:version="0.92.3 (2405546, 2018-03-11)">
  <metadata
     id="metadata26">
    <rdf:RDF>
      <cc:Work
         rdf:about="">
        <dc:format>image/svg+xml</dc:format>
        <dc:type
           rdf:resource="http://purl.org/dc/dcmitype/StillImage" />
        <dc:title />
      </cc:Work>
    </rdf:RDF>
  </metadata>
  <defs
     id="defs24">
    <linearGradient
       inkscape:collect="always"
       id="linearGradient834">
      <stop
         style="stop-color:#ffffff;stop-opacity:1;"
         offset="0"
         id="stop830" />
      <stop
         style="stop-color:#ffffff;stop-opacity:0;"
         offset="1"
         id="stop832" />
    </linearGradient>
    <linearGradient
       inkscape:collect="always"
       id="linearGradient890">
      <stop
         style="stop-color:#000000;stop-opacity:1;"
         offset="0"
         id="stop886" />
      <stop
         style="stop-color:#000000;stop-opacity:0;"
         offset="1"
         id="stop888" />
    </linearGradient>
    <linearGradient
       inkscape:collect="always"
       id="linearGradient857">
      <stop
         style="stop-color:#931212;stop-opacity:1;"
         offset="0"
         id="stop853" />
      <stop
         style="stop-color:#ed5959;stop-opacity:1"
         offset="1"
         id="stop855" />
    </linearGradient>
    <linearGradient
       inkscape:collect="always"
       xlink:href="#linearGradient857"
       id="linearGradient859"
       x1="31"
       y1="46"
       x2="27"
       y2="20"
       gradientUnits="userSpaceOnUse" />
    <linearGradient
       inkscape:collect="always"
       xlink:href="#linearGradient890"
       id="linearGradient892"
       x1="25.166029"
       y1="29.820158"
       x2="36.76815"
       y2="41.422279"
       gradientUnits="userSpaceOnUse" />
    <linearGradient
       inkscape:collect="always"
       xlink:href="#linearGradient834"
       id="linearGradient836"
       x1="19"
       y1="23"
       x2="25"
       y2="46"
       gradientUnits="userSpaceOnUse" />
  </defs>
  <sodipodi:namedview
     pagecolor="#ffffff"
     bordercolor="#666666"
     borderopacity="1"
     objecttolerance="10"
     gridtolerance="10"
     guidetolerance="10"
     inkscape:pageopacity="0"
     inkscape:pageshadow="2"
     inkscape:window-width="1920"
     inkscape:window-height="1020"
     id="namedview22"
     showgrid="true"
     inkscape:zoom="15.07"
     inkscape:cx="4.3631139"
     inkscape:cy="20.24134"
     inkscape:window-x="0"
     inkscape:window-y="30"
     inkscape:window-maximized="1"
     inkscape:current-layer="svg20">
    <inkscape:grid
       type="xygrid"
       id="grid4623" />
  </sodipodi:namedview>
  <path
     style="fill:none;stroke:#8696a3;stroke-width:4;stroke-linecap:round;stroke-linejoin:round;stroke-miterlimit:4;stroke-dasharray:none;stroke-opacity:1"
     d="m 11,25 c 0,0 0,-7 0,-14 0,-3 4,-7 13,-7 9,0 13,4 13,7 0,7 0,14 0,14"
     id="path851"
     inkscape:connector-curvature="0"
     sodipodi:nodetypes="cszsc" />
  <rect
     y="20"
     x="6"
     height="26"
     width="36"
     id="rect849"
     style="opacity:1;fill:url(#linearGradient859);fill-opacity:1;stroke:none;stroke-width:0.72925866;stroke-linecap:round;stroke-linejoin:round;stroke-miterlimit:4;stroke-dasharray:none;stroke-dashoffset:0;stroke-opacity:1;paint-order:normal" />
  <path
     style="fill:url(#linearGradient836);fill-opacity:1;stroke-width:2.06472468;stroke-linecap:round;stroke-linejoin:round"
     d="M 26.664062,26 C 25,26 24.632848,29.278111 24.037109,31 H 14 L 12.027344,33 14,35 h 1.208984 L 16.164062,36.318719 17.117188,35 h 0.955078 L 19.345703,36.318719 20.617188,35 21.572266,35.682 22.845703,35 h 0.636719 0.554687 C 24.636841,36.889417 25,40 26.664062,40 h 5.089844 C 32.458995,40 33,39.431653 33,38.726562 V 36.595703 35.826172 C 34.19786,35.402665 34.999045,34.270521 35,33 34.998219,31.730196 34.197185,30.599048 33,30.175781 V 29.40625 27.273438 C 33,26.568348 32.458996,26 31.753906,26 Z M 32,31 c 1.10457,0 2,0.89543 2,2 0,1.10457 -0.89543,2 -2,2 -1.10457,0 -2,-0.89543 -2,-2 0,-1.10457 0.89543,-2 2,-2 z"
     id="path867"
     inkscape:connector-curvature="0"
     sodipodi:nodetypes="ccccccccccccccccsscccccsscsssss" />
  <path
     style="opacity:0.2;fill:#000000;fill-opacity:1;stroke:none;stroke-width:4;stroke-linecap:round;stroke-linejoin:round;stroke-miterlimit:4;stroke-dasharray:none;stroke-dashoffset:0;stroke-opacity:1;paint-order:normal"
     d="m 13.001,32 -0.973656,1 H 24 v -1 z"
     id="rect873"
     inkscape:connector-curvature="0"
     sodipodi:nodetypes="ccccc" />
  <path
     style="opacity:0.2;fill:url(#linearGradient892);fill-opacity:1;stroke:none;stroke-width:4;stroke-linecap:round;stroke-linejoin:round;stroke-miterlimit:4;stroke-dasharray:none;stroke-dashoffset:0;stroke-opacity:1;paint-order:normal"
     d="M 32.671875 26.380859 L 32.646484 26.382812 C 32.865178 26.612368 33 26.925049 33 27.273438 L 33 29.40625 L 33 30.175781 C 34.197185 30.599048 34.998219 31.730196 35 33 C 34.999045 34.270521 34.19786 35.402665 33 35.826172 L 33 36.595703 L 33 38.726562 C 33 39.431653 32.458995 40 31.753906 40 L 26.664062 40 C 25 40 24.636841 36.889417 24.037109 35 L 23.482422 35 L 22.845703 35 L 21.572266 35.681641 L 20.617188 35 L 19.345703 36.318359 L 18.072266 35 L 17.117188 35 L 16.164062 36.318359 L 15.208984 35 L 14.027344 35 L 25.027344 46 L 42 46 L 42 35.708984 L 32.671875 26.380859 z M 32 31 C 30.89543 31 30 31.89543 30 33 C 30 34.10457 30.89543 35 32 35 C 33.10457 35 34 34.10457 34 33 C 34 31.89543 33.10457 31 32 31 z "
     id="rect878" />
  <rect
     style="opacity:0.2;fill:#000000;fill-opacity:1;stroke:none;stroke-width:4;stroke-linecap:round;stroke-linejoin:round;stroke-miterlimit:4;stroke-dasharray:none;stroke-dashoffset:0;stroke-opacity:1;paint-order:normal"
     id="rect894"
     width="36"
     height="1"
     x="6"
     y="45" />
</svg>
