<?xml version="1.0" encoding="UTF-8" standalone="no"?>
<!-- Created with Inkscape (http://www.inkscape.org/) -->

<svg
   width="48"
   height="48"
   viewBox="0 0 12.7 12.7"
   version="1.1"
   id="svg5"
   inkscape:version="1.1.1 (3bf5ae0d25, 2021-09-20, custom)"
   sodipodi:docname="system-file-manager.svg"
   xmlns:inkscape="http://www.inkscape.org/namespaces/inkscape"
   xmlns:sodipodi="http://sodipodi.sourceforge.net/DTD/sodipodi-0.dtd"
   xmlns:xlink="http://www.w3.org/1999/xlink"
   xmlns="http://www.w3.org/2000/svg"
   xmlns:svg="http://www.w3.org/2000/svg">
  <sodipodi:namedview
     id="namedview7"
     pagecolor="#ffffff"
     bordercolor="#666666"
     borderopacity="1.0"
     inkscape:pageshadow="2"
     inkscape:pageopacity="0.0"
     inkscape:pagecheckerboard="0"
     inkscape:document-units="px"
     showgrid="false"
     units="px"
     height="48px"
     inkscape:zoom="8.4166665"
     inkscape:cx="20.79208"
     inkscape:cy="38.138615"
     inkscape:window-width="1920"
     inkscape:window-height="1019"
     inkscape:window-x="0"
     inkscape:window-y="0"
     inkscape:window-maximized="1"
     inkscape:current-layer="svg5" />
  <defs
     id="defs2">
    <linearGradient
       inkscape:collect="always"
       xlink:href="#linearGradient2036"
       id="linearGradient2855"
       x1="25.383762"
       y1="41.992973"
       x2="25.375473"
       y2="18.985806"
       gradientUnits="userSpaceOnUse"
       gradientTransform="scale(0.26458333)" />
    <linearGradient
       inkscape:collect="always"
       id="linearGradient2036">
      <stop
         style="stop-color:#3daee9;stop-opacity:1;"
         offset="0"
         id="stop2032" />
      <stop
         style="stop-color:#6cc1ef;stop-opacity:1"
         offset="1"
         id="stop2034" />
    </linearGradient>
    <linearGradient
       inkscape:collect="always"
       xlink:href="#linearGradient5915"
       id="linearGradient5917"
       x1="17"
       y1="21"
       x2="26.916685"
       y2="39.087307"
       gradientUnits="userSpaceOnUse"
       gradientTransform="scale(0.26458333)" />
    <linearGradient
       inkscape:collect="always"
       id="linearGradient5915">
      <stop
         style="stop-color:#000000;stop-opacity:1;"
         offset="0"
         id="stop5911" />
      <stop
         style="stop-color:#000000;stop-opacity:0;"
         offset="1"
         id="stop5913" />
    </linearGradient>
    <linearGradient
       inkscape:collect="always"
       xlink:href="#linearGradient6903"
       id="linearGradient6905"
       x1="14.328809"
       y1="13.060619"
       x2="27.229906"
       y2="26.985249"
       gradientUnits="userSpaceOnUse"
       gradientTransform="matrix(0.26458333,0,0,0.26458333,-0.26458327,5e-8)" />
    <linearGradient
       inkscape:collect="always"
       id="linearGradient6903">
      <stop
         style="stop-color:#f5f5f5;stop-opacity:1;"
         offset="0"
         id="stop6899" />
      <stop
         style="stop-color:#f9f9f9;stop-opacity:1"
         offset="1"
         id="stop6901" />
    </linearGradient>
    <linearGradient
       inkscape:collect="always"
       xlink:href="#linearGradient7842"
       id="linearGradient7844"
       x1="6.9980469"
       y1="13"
       x2="6.9052615"
       y2="23.69512"
       gradientUnits="userSpaceOnUse"
       gradientTransform="matrix(0.26458333,0,0,0.26458333,-0.26458327,5e-8)" />
    <linearGradient
       inkscape:collect="always"
       id="linearGradient7842">
      <stop
         style="stop-color:#ffffff;stop-opacity:1;"
         offset="0"
         id="stop7838" />
      <stop
         style="stop-color:#ffffff;stop-opacity:0;"
         offset="1"
         id="stop7840" />
    </linearGradient>
  </defs>
  <path
     id="rect893"
     style="fill:#147eb8;stroke-width:0.264583"
     d="m 1.0583333,1.5875 h 4.4979166 l 0.79375,0.79375 H 11.641667 V 6.8791666 H 1.0583333 Z"
     sodipodi:nodetypes="ccccccc" />
  <path
     id="rect6535"
     style="fill:url(#linearGradient6905);stroke-width:0.21027"
     d="m 1.5869141,3.4395833 h 9.5261719 c 0.146255,0 0.263997,0.1177428 0.263997,0.2639976 v 4.2345048 c 0,0.1462548 -0.117742,0.2639976 -0.263997,0.2639976 H 1.5869141 c -0.1462546,0 -0.2639974,-0.1177428 -0.2639974,-0.2639976 V 3.7035809 c 0,-0.1462548 0.1177428,-0.2639976 0.2639974,-0.2639976 z"
     sodipodi:nodetypes="sssssssss" />
  <path
     id="rect7562"
     style="fill:url(#linearGradient7844);fill-opacity:1;stroke-width:0.264583"
     d="m 1.5869832,3.4395833 c -0.1462546,0 -0.2640665,0.1178119 -0.2640665,0.2640666 v 0.2645834 c 0,-0.1462548 0.1178119,-0.2640666 0.2640665,-0.2640666 h 9.5260338 c 0.146255,0 0.264066,0.1178118 0.264066,0.2640666 V 3.7036499 c 0,-0.1462547 -0.117811,-0.2640666 -0.264066,-0.2640666 z"
     sodipodi:nodetypes="sscsscsss" />
  <path
     id="rect2847"
     style="fill:url(#linearGradient2855);fill-opacity:1;stroke-width:0.264583"
     d="m 4.4979166,5.55625 0.79375,-0.5291667 6.3500004,2.65e-5 v 5.8208332 c 0,0.146579 -0.118004,0.264583 -0.264584,0.264583 H 1.3229167 c -0.1465792,0 -0.2645834,-0.118004 -0.2645834,-0.264583 V 5.55625 Z"
     sodipodi:nodetypes="cccsssscc" />
  <path
     id="rect5230"
     style="opacity:0.1;fill:url(#linearGradient5917);fill-opacity:1;stroke-width:0.196438"
     d="m 5.2916666,5.0270833 -0.5291667,0.79375 H 1.0583333 L 6.35,11.1125 h 5.027083 c 0.14658,0 0.264584,-0.118004 0.264584,-0.264583 V 5.0270833 Z"
     sodipodi:nodetypes="ccccsscc" />
  <path
     id="rect8656"
     style="opacity:0.2;fill:#ffffff;stroke-width:0.264583"
     d="m 1.0583333,5.55625 h 3.4395833 l 0.79375,-0.5291667 -0.5291667,0.79375 H 1.0583333 Z"
     sodipodi:nodetypes="cccccc" />
  <path
     id="rect2847-6"
     style="opacity:0.2;fill:#000000;fill-opacity:1;stroke-width:0.264583"
     d="m 1.0583333,10.583333 v 0.264584 c 0,0.146579 0.1180042,0.264583 0.2645834,0.264583 H 11.377083 c 0.14658,0 0.264584,-0.118004 0.264584,-0.264583 v -0.264584 c 0,0.14658 -0.118004,0.264584 -0.264584,0.264584 H 1.3229167 c -0.1465792,0 -0.2645834,-0.118004 -0.2645834,-0.264584 z" />
  <path
     id="rect911"
     style="opacity:0.2;fill:#ffffff;stroke-width:0.305514"
     d="M 5.5562501,1.5875 6.3499999,2.38125 H 11.641667 V 2.6458333 H 6.0854168 Z"
     sodipodi:nodetypes="cccccc" />
</svg>
