<?xml version="1.0" encoding="UTF-8" standalone="no"?>
<svg
   sodipodi:docname="muondiscover.svg"
   id="svg58"
   version="1.1"
   height="48"
   width="48"
   inkscape:version="1.1 (c4e8f9ed74, 2021-05-24)"
   xmlns:inkscape="http://www.inkscape.org/namespaces/inkscape"
   xmlns:sodipodi="http://sodipodi.sourceforge.net/DTD/sodipodi-0.dtd"
   xmlns:xlink="http://www.w3.org/1999/xlink"
   xmlns="http://www.w3.org/2000/svg"
   xmlns:svg="http://www.w3.org/2000/svg">
  <sodipodi:namedview
     id="namedview60"
     pagecolor="#ffffff"
     bordercolor="#666666"
     borderopacity="1.0"
     inkscape:pageshadow="2"
     inkscape:pageopacity="0.0"
     inkscape:pagecheckerboard="0"
     showgrid="false"
     inkscape:zoom="11.976621"
     inkscape:cx="28.973113"
     inkscape:cy="39.034382"
     inkscape:window-width="1920"
     inkscape:window-height="1004"
     inkscape:window-x="0"
     inkscape:window-y="0"
     inkscape:window-maximized="1"
     inkscape:current-layer="svg58" />
  <defs
     id="defs32">
    <linearGradient
       id="a"
       y1="543.8"
       y2="513.8"
       x2="0"
       gradientUnits="userSpaceOnUse"
       gradientTransform="matrix(1.125 0 0 1-51.07 0)">
      <stop
         stop-color="#f45c13"
         id="stop2" />
      <stop
         offset="1"
         stop-color="#f9905e"
         id="stop4" />
    </linearGradient>
    <linearGradient
       xlink:href="#a"
       id="b"
       y1="44"
       y2="11"
       x2="0"
       gradientUnits="userSpaceOnUse" />
    <linearGradient
       id="c"
       y1="10"
       y2="14"
       x2="0"
       gradientUnits="userSpaceOnUse">
      <stop
         stop-color="#1d1e1e"
         id="stop8" />
      <stop
         offset="1"
         stop-color="#44484c"
         id="stop10" />
    </linearGradient>
    <linearGradient
       xlink:href="#a"
       id="d"
       y1="14"
       y2="10"
       gradientUnits="userSpaceOnUse"
       x2="0" />
    <linearGradient
       xlink:href="#a"
       id="e"
       y1="516.8"
       y2="503.8"
       x2="0"
       gradientUnits="userSpaceOnUse" />
    <linearGradient
       id="f"
       y1="18"
       y2="15"
       x2="0"
       gradientUnits="userSpaceOnUse">
      <stop
         stop-color="#c6cdd1"
         id="stop15" />
      <stop
         offset="1"
         stop-color="#e0e5e7"
         id="stop17" />
    </linearGradient>
    <linearGradient
       xlink:href="#f"
       id="g"
       y1="517.8"
       y2="514.8"
       x2="0"
       gradientUnits="userSpaceOnUse" />
    <linearGradient
       id="h"
       y1="19"
       y2="3"
       x2="0"
       gradientUnits="userSpaceOnUse"
       gradientTransform="translate(0-2)">
      <stop
         stop-color="#fbae8a"
         id="stop21" />
      <stop
         offset="1"
         stop-color="#f4fcff"
         id="stop23" />
    </linearGradient>
    <linearGradient
       id="i"
       y1="23"
       x1="16"
       y2="39"
       x2="32"
       gradientUnits="userSpaceOnUse">
      <stop
         stop-color="#292c2f"
         id="stop26" />
      <stop
         offset="1"
         stop-opacity="0"
         id="stop28" />
    </linearGradient>
    <path
       fill-rule="evenodd"
       id="j"
       d="m10 10l-1 1 1 1-4 2h36l-4-2 1-1-1-1h-14z" />
    <linearGradient
       inkscape:collect="always"
       xlink:href="#h"
       id="linearGradient24361"
       x1="11.650472"
       y1="39.940498"
       x2="11.939453"
       y2="19.060547"
       gradientUnits="userSpaceOnUse"
       gradientTransform="translate(11.060546,1.939453)" />
    <linearGradient
       inkscape:collect="always"
       xlink:href="#i"
       id="linearGradient38693"
       x1="26.693357"
       y1="30.498047"
       x2="36.015408"
       y2="41.018436"
       gradientUnits="userSpaceOnUse" />
    <linearGradient
       inkscape:collect="always"
       xlink:href="#i"
       id="linearGradient39115"
       x1="17.342442"
       y1="17.764086"
       x2="34.492302"
       y2="36.388138"
       gradientUnits="userSpaceOnUse" />
    <linearGradient
       inkscape:collect="always"
       xlink:href="#i"
       id="linearGradient42263"
       x1="12.942075"
       y1="29.647291"
       x2="22.756342"
       y2="41.501221"
       gradientUnits="userSpaceOnUse" />
    <linearGradient
       inkscape:collect="always"
       xlink:href="#i"
       id="linearGradient43765"
       x1="15.931166"
       y1="25.445667"
       x2="31.386734"
       y2="42.736965"
       gradientUnits="userSpaceOnUse" />
  </defs>
  <g
     transform="translate(-384.57,-499.8)"
     id="g56">
    <path
       fill="url(#b)"
       fill-rule="evenodd"
       d="m 9,11 v 2 l 1,-1 z m 30,0 -1,1 1,1 z"
       transform="translate(384.57,499.8)"
       id="path34" />
    <rect
       width="36"
       x="390.57001"
       y="513.79999"
       fill="url(#a)"
       rx="0"
       height="30"
       id="rect36" />
    <rect
       width="36"
       x="390.57001"
       y="542.79999"
       fill="#c34a1a"
       height="1"
       id="rect40" />
    <use
       fill="url(#d)"
       xlink:href="#j"
       transform="translate(384.57,499.8)"
       id="use42"
       x="0"
       y="0"
       width="100%"
       height="100%" />
    <use
       opacity="0.6"
       fill="url(#c)"
       xlink:href="#j"
       transform="translate(384.57,499.8)"
       id="use44"
       x="0"
       y="0"
       width="100%"
       height="100%" />
    <path
       opacity="0.2"
       d="M 10,10 9,11 H 39 L 38,10 H 24 Z"
       transform="translate(384.57,499.8)"
       id="path46" />
    <path
       fill="url(#e)"
       d="m 400.57,516.8 v -5 c 0,-4.432 3.568,-8 8,-8 4.432,0 8,3.568 8,8 v 5 h -1 v -5 c 0,-3.878 -3.122,-7 -7,-7 -3.878,0 -7,3.122 -7,7 v 5 z"
       id="path48" />
    <path
       fill="url(#g)"
       d="m 401.07143,514.798 a 1.5,1.5 0 0 1 1.5,1.5 1.5,1.5 0 0 1 -1.5,1.5 1.5,1.5 0 0 1 -1.5,-1.5 1.5,1.5 0 0 1 1.5,-1.5 m 0,1 a 0.5,0.5 0 0 0 -0.5,0.5 0.5,0.5 0 0 0 0.5,0.5 0.5,0.5 0 0 0 0.5,-0.5 0.5,0.5 0 0 0 -0.5,-0.5"
       id="path50" />
    <path
       fill="url(#f)"
       d="M 31.5,15 A 1.5,1.5 0 0 0 30,16.5 1.5,1.5 0 0 0 31.5,18 1.5,1.5 0 0 0 33,16.5 1.5,1.5 0 0 0 31.5,15 m 0,1 A 0.5,0.5 0 0 1 32,16.5 0.5,0.5 0 0 1 31.5,17 0.5,0.5 0 0 1 31,16.5 0.5,0.5 0 0 1 31.5,16"
       transform="translate(384.57,499.8)"
       id="path52" />
  </g>
  <path
     id="path41622"
     style="fill:url(#linearGradient43765);fill-opacity:1;stroke-width:0.583201;opacity:0.3"
     d="m 15,32.498047 c 0,0.4214 0.171319,0.800266 0.449219,1.072265 L 17.365234,35.486328 17.75,34.498047 h 3 L 30.251953,44 H 35 l -5,-5 -1.75,-4.501953 h 3 L 40.751953,44 H 42 v -3.125 l -9.449219,-9.449219 z"
     sodipodi:nodetypes="ccccccccccccccc" />
  <path
     id="rect37432"
     style="opacity:0.3;fill:url(#linearGradient39115);fill-opacity:1"
     d="m 19.306641,30.498047 0.5,0.5 h 2.304687 4.777344 3 H 31.5 c 0.4098,0 0.780581,0.163134 1.050781,0.427734 L 42,40.875 V 37 L 26,21 Z"
     sodipodi:nodetypes="cccccsccccc" />
  <path
     id="rect37432-6-8"
     style="opacity:0.3;fill:url(#linearGradient38693);fill-opacity:1"
     d="m 30,39 5,5 h 5.751953 L 31.25,34.498047 Z"
     sodipodi:nodetypes="ccccc" />
  <path
     id="rect39429"
     style="opacity:0.3;fill:url(#linearGradient42263);fill-opacity:1;stroke-width:1.5647"
     d="m 16,39 5,5 h 9.251953 L 20.75,34.498047 Z"
     sodipodi:nodetypes="ccccc" />
  <path
     id="rect925"
     style="opacity:1;fill:url(#linearGradient24361);fill-opacity:1;stroke-width:0.583201"
     d="m 22.999999,21 -3.693359,9.498047 h 3 l 2.193359,-5.640625 2.193359,5.640625 h 3 L 25.999999,21 Z M 16.5,30.998047 c -0.831,0 -1.5,0.669 -1.5,1.5 0,0.831 0.669,1.5 1.5,1.5 h 1.445312 3 7.109375 3 0.445312 c 0.831,0 1.5,-0.669 1.5,-1.5 0,-0.831 -0.669,-1.5 -1.5,-1.5 h -1.611328 -3 -4.777344 -2.999999 z m 1.25,3.5 L 16,39 h 3 l 1.75,-4.501953 z m 10.499999,0 1.75,4.501953 h 3 l -1.75,-4.501953 z"
     sodipodi:nodetypes="ccccccccsssccccsssccccscccccccccc" />
  <rect
     style="fill:#f88954;fill-opacity:1;stroke-width:0.533535"
     id="rect1576-5"
     width="16"
     height="1"
     x="16.000547"
     y="31.999016"
     ry="0.5" />
</svg>
