<?xml version="1.0" encoding="UTF-8" standalone="no"?>
<svg
   xmlns:dc="http://purl.org/dc/elements/1.1/"
   xmlns:cc="http://creativecommons.org/ns#"
   xmlns:rdf="http://www.w3.org/1999/02/22-rdf-syntax-ns#"
   xmlns:svg="http://www.w3.org/2000/svg"
   xmlns="http://www.w3.org/2000/svg"
   xmlns:xlink="http://www.w3.org/1999/xlink"
   xmlns:sodipodi="http://sodipodi.sourceforge.net/DTD/sodipodi-0.dtd"
   xmlns:inkscape="http://www.inkscape.org/namespaces/inkscape"
   version="1.1"
   id="svg2"
   height="48"
   width="48"
   sodipodi:docname="x-office-address-book.svg"
   inkscape:version="0.92.1 r15371">
  <metadata
     id="metadata38">
    <rdf:RDF>
      <cc:Work
         rdf:about="">
        <dc:format>image/svg+xml</dc:format>
        <dc:type
           rdf:resource="http://purl.org/dc/dcmitype/StillImage" />
        <dc:title></dc:title>
      </cc:Work>
    </rdf:RDF>
  </metadata>
  <sodipodi:namedview
     pagecolor="#ffffff"
     bordercolor="#666666"
     borderopacity="1"
     objecttolerance="10"
     gridtolerance="10"
     guidetolerance="10"
     inkscape:pageopacity="0"
     inkscape:pageshadow="2"
     inkscape:window-width="1600"
     inkscape:window-height="808"
     id="namedview36"
     showgrid="false"
     inkscape:zoom="7.54"
     inkscape:cx="26.52473"
     inkscape:cy="19.989966"
     inkscape:window-x="0"
     inkscape:window-y="0"
     inkscape:window-maximized="1"
     inkscape:current-layer="svg2" />
  <defs
     id="defs4">
    <linearGradient
       inkscape:collect="always"
       id="linearGradient4549">
      <stop
         style="stop-color:#050000;stop-opacity:1;"
         offset="0"
         id="stop4545" />
      <stop
         style="stop-color:#050000;stop-opacity:0;"
         offset="1"
         id="stop4547" />
    </linearGradient>
    <linearGradient
       inkscape:collect="always"
       id="linearGradient4519">
      <stop
         style="stop-color:#6fc1ff;stop-opacity:1"
         offset="0"
         id="stop4515" />
      <stop
         style="stop-color:#0090fb;stop-opacity:1"
         offset="1"
         id="stop4517" />
    </linearGradient>
    <linearGradient
       x1="32"
       gradientTransform="matrix(0,-1,1,0,12,36)"
       x2="-8"
       gradientUnits="userSpaceOnUse"
       y2="32"
       y1="-6"
       id="b">
      <stop
         id="stop12"
         stop-color="#d8dcde" />
      <stop
         id="stop14"
         stop-color="#f9fafb"
         offset="1" />
    </linearGradient>
    <linearGradient
       gradientTransform="translate(1)"
       gradientUnits="userSpaceOnUse"
       x2="0"
       y2="4"
       y1="8"
       id="c">
      <stop
         id="stop17"
         stop-color="#2f3943" />
      <stop
         id="stop19"
         stop-color="#4d5662"
         offset="1" />
    </linearGradient>
    <linearGradient
       gradientTransform="translate(-22,0)"
       gradientUnits="userSpaceOnUse"
       x2="-.559"
       y2="7.915"
       y1="8"
       id="d"
       xlink:href="#c" />
    <linearGradient
       gradientUnits="userSpaceOnUse"
       x2="19"
       y2="19"
       x1="8"
       y1="8"
       id="e">
      <stop
         id="stop23" />
      <stop
         id="stop25"
         stop-opacity="0"
         offset="1" />
    </linearGradient>
    <linearGradient
       gradientTransform="matrix(0,1,1,0,0,0)"
       gradientUnits="userSpaceOnUse"
       x2="19"
       y2="19"
       x1="8"
       y1="8"
       id="f"
       xlink:href="#e" />
    <linearGradient
       y2="4"
       x2="0"
       y1="8"
       gradientTransform="translate(-47,0)"
       gradientUnits="userSpaceOnUse"
       id="linearGradient4620"
       xlink:href="#c" />
    <linearGradient
       gradientTransform="matrix(0,1,1,0,0,25)"
       y2="19"
       x2="19"
       y1="8"
       x1="8"
       gradientUnits="userSpaceOnUse"
       id="linearGradient4622"
       xlink:href="#e" />
    <style
       type="text/css"
       id="current-color-scheme">
   .ColorScheme-Text { color:#4d4d4d; }
  </style>
    <style
       type="text/css"
       id="current-color-scheme-2">
   .ColorScheme-Text { color:#4d4d4d; }
  </style>
    <style
       type="text/css"
       id="current-color-scheme-6">
   .ColorScheme-Text { color:#4d4d4d; }
  </style>
    <linearGradient
       inkscape:collect="always"
       xlink:href="#linearGradient4519"
       id="linearGradient4521"
       x1="6"
       y1="24"
       x2="14"
       y2="24"
       gradientUnits="userSpaceOnUse" />
    <linearGradient
       inkscape:collect="always"
       xlink:href="#linearGradient4549"
       id="linearGradient4551"
       x1="20.680298"
       y1="16.558445"
       x2="39.998001"
       y2="35.876148"
       gradientUnits="userSpaceOnUse" />
  </defs>
  <path
     style="fill:url(#b);stroke-width:2;stroke-linejoin:bevel"
     d="M 13,44 44,44 44,4 13,4 Z"
     id="path30" />
  <path
     style="fill:url(#linearGradient4521);stroke-width:2;stroke-linejoin:bevel;fill-opacity:1"
     d="M 6,44 6,4 14,4 14,44 Z"
     id="path32" />
  <rect
     transform="matrix(0,-1,1,0,0,0)"
     id="rect36"
     height="1"
     y="13"
     x="-44"
     width="40"
     style="fill:#077ddd;stroke-width:2;stroke-linecap:round;stroke-linejoin:bevel;fill-opacity:1" />
  <path
     id="rect44"
     d="M 7 7 L 7 16 L 8 16 L 8 7 L 7 7 z M 7 32 L 7 41 L 8 41 L 8 32 L 7 32 z"
     style="fill:#0c81f7;stroke-width:2;stroke-linecap:round;stroke-linejoin:bevel;fill-opacity:1" />
  <rect
     transform="matrix(0,-1,1,0,0,0)"
     id="rect46"
     height="4"
     y="4"
     x="-40"
     width="7"
     style="fill:url(#linearGradient4620);stroke-width:2;stroke-linecap:round;stroke-linejoin:bevel" />
  <rect
     transform="matrix(0,-1,1,0,0,0)"
     id="rect50"
     height="4"
     y="4"
     x="-15"
     width="7"
     style="fill:url(#d);stroke-width:2;stroke-linecap:round;stroke-linejoin:bevel" />
  <path
     style="opacity:0.2;fill:url(#linearGradient4622);fill-rule:evenodd"
     d="m 8,33 6,6 0,5 -2,0 -4,-4 z"
     id="path56" />
  <path
     style="opacity:0.2;fill:url(#f);fill-rule:evenodd"
     d="m 8,8 6,6 0,7 -6,-6 z"
     id="path58" />
  <path
     style="fill:#060707;stroke-width:2;stroke-linejoin:bevel;fill-opacity:1;opacity:0.2"
     d="M 6 43 L 6 44 L 13 44 L 14 44 L 44 44 L 44 43 L 14 43 L 13 43 L 6 43 z "
     id="path4529" />
  <path
     style="opacity:0.3;vector-effect:none;fill:url(#linearGradient4551);fill-opacity:1;stroke:none;stroke-width:2.73804736;stroke-linecap:round;stroke-linejoin:round;stroke-miterlimit:4;stroke-dasharray:none;stroke-dashoffset:0;stroke-opacity:1"
     d="M 31.447391,12.9884 20.680298,16.558445 18.285367,27.61666 20.014071,31.955478 32.058594,44 H 44 V 22.115234 l -6.882522,-6.882522 z"
     id="rect4539"
     inkscape:connector-curvature="0"
     sodipodi:nodetypes="ccccccccc" />
  <path
     inkscape:connector-curvature="0"
     d="m 29,12 c -6.627,0 -12,5.373 -12,12 0,6.627 5.373,12 12,12 h 7.5 c 0,0 1.4063,0 1.5,-1.5 C 38,33 36.5,33 36.5,33 H 29 c -4.9706,0 -9,-4.0294 -9,-9 0,-4.9706 4.0294,-9 9,-9 4.971,0 9,4.029 9,9 v 1.5 C 38,26.328 37.328,27 36.5,27 35.672,27 35,26.328 35,25.5 V 24 c 0,-3.314 -2.686,-6 -6,-6 -3.314,0 -6,2.686 -6,6 0,3.314 2.686,6 6,6 1.569,0 2.986,-0.616 4.055,-1.603 0.855,1.017 2.116,1.604 3.445,1.603 2.485,0 4.5,-2.015 4.5,-4.5 V 24 C 41,17.373 35.627,12 29,12 Z m 0,9 c 1.6568,0 3,1.3432 3,3 0,1.657 -1.343,3 -3,3 -1.657,0 -3,-1.343 -3,-3 0,-1.6568 1.3432,-3 3,-3 z"
     style="fill:#4d4d4d;enable-background:new;fill-opacity:1"
     id="path6" />
</svg>
