<?xml version="1.0" encoding="UTF-8" standalone="no"?>
<!-- Created with Inkscape (http://www.inkscape.org/) -->

<svg
   width="16"
   height="16"
   viewBox="0 0 4.2333332 4.2333335"
   version="1.1"
   id="svg5"
   inkscape:version="1.1 (c4e8f9ed74, 2021-05-24)"
   sodipodi:docname="libreoffice-calc-symbolic.svg"
   xmlns:inkscape="http://www.inkscape.org/namespaces/inkscape"
   xmlns:sodipodi="http://sodipodi.sourceforge.net/DTD/sodipodi-0.dtd"
   xmlns="http://www.w3.org/2000/svg"
   xmlns:svg="http://www.w3.org/2000/svg">
  <sodipodi:namedview
     id="namedview7"
     pagecolor="#ffffff"
     bordercolor="#666666"
     borderopacity="1.0"
     inkscape:pageshadow="2"
     inkscape:pageopacity="0.0"
     inkscape:pagecheckerboard="0"
     inkscape:document-units="px"
     showgrid="false"
     units="px"
     height="16px"
     inkscape:zoom="49.3125"
     inkscape:cx="8.0101394"
     inkscape:cy="8"
     inkscape:window-width="1920"
     inkscape:window-height="1006"
     inkscape:window-x="0"
     inkscape:window-y="0"
     inkscape:window-maximized="1"
     inkscape:current-layer="layer1"
     showguides="false" />
  <defs
     id="defs2" />
  <g
     inkscape:label="레이어 1"
     inkscape:groupmode="layer"
     id="layer1">
    <path
       id="rect866"
       style="fill:#232627;fill-opacity:1;stroke-width:0.752149"
       d="M 2 1 L 2 15 L 14 15 L 14 6 L 9 1 L 2 1 z M 10 1 L 14 5 L 14 1 L 10 1 z M 3 2 L 8.6660156 2 L 13 6.3339844 L 13 14 L 3 14 L 3 2 z M 4 8 L 4 13 L 12 13 L 12 8 L 4 8 z M 5 9 L 7.5 9 L 7.5 10 L 5 10 L 5 9 z M 8.5 9 L 11 9 L 11 10 L 8.5 10 L 8.5 9 z M 5 11 L 7.5 11 L 7.5 12 L 5 12 L 5 11 z M 8.5 11 L 11 11 L 11 12 L 8.5 12 L 8.5 11 z "
       transform="scale(0.26458333)" />
  </g>
</svg>
