<?xml version="1.0" encoding="UTF-8" standalone="no"?>
<svg
   width="22"
   height="22"
   version="1"
   id="svg12"
   sodipodi:docname="system-shutdown.svg"
   inkscape:version="1.1 (c4e8f9ed74, 2021-05-24)"
   xmlns:inkscape="http://www.inkscape.org/namespaces/inkscape"
   xmlns:sodipodi="http://sodipodi.sourceforge.net/DTD/sodipodi-0.dtd"
   xmlns:xlink="http://www.w3.org/1999/xlink"
   xmlns="http://www.w3.org/2000/svg"
   xmlns:svg="http://www.w3.org/2000/svg"
   xmlns:rdf="http://www.w3.org/1999/02/22-rdf-syntax-ns#"
   xmlns:cc="http://creativecommons.org/ns#"
   xmlns:dc="http://purl.org/dc/elements/1.1/">
  <metadata
     id="metadata18">
    <rdf:RDF>
      <cc:Work
         rdf:about="">
        <dc:format>image/svg+xml</dc:format>
        <dc:type
           rdf:resource="http://purl.org/dc/dcmitype/StillImage" />
      </cc:Work>
    </rdf:RDF>
  </metadata>
  <defs
     id="defs16">
    <linearGradient
       inkscape:collect="always"
       id="linearGradient845">
      <stop
         style="stop-color:#ffffff;stop-opacity:1;"
         offset="0"
         id="stop840" />
      <stop
         style="stop-color:#ffffff;stop-opacity:0;"
         offset="1"
         id="stop843" />
    </linearGradient>
    <linearGradient
       inkscape:collect="always"
       id="linearGradient865">
      <stop
         style="stop-color:#000000;stop-opacity:1;"
         offset="0"
         id="stop861" />
      <stop
         style="stop-color:#000000;stop-opacity:0;"
         offset="1"
         id="stop863" />
    </linearGradient>
    <linearGradient
       inkscape:collect="always"
       id="linearGradient846">
      <stop
         style="stop-color:#a62419;stop-opacity:1"
         offset="0"
         id="stop842" />
      <stop
         style="stop-color:#d8584c;stop-opacity:1"
         offset="1"
         id="stop844" />
    </linearGradient>
    <linearGradient
       inkscape:collect="always"
       xlink:href="#linearGradient846"
       id="linearGradient848"
       x1="31.483906"
       y1="42.356411"
       x2="24.861862"
       y2="4.9475851"
       gradientUnits="userSpaceOnUse"
       gradientTransform="matrix(0.55,0,0,0.55,-2.2,-2.2)" />
    <linearGradient
       inkscape:collect="always"
       xlink:href="#linearGradient865"
       id="linearGradient867"
       x1="27.650057"
       y1="21.911186"
       x2="37.311806"
       y2="38.645824"
       gradientUnits="userSpaceOnUse"
       gradientTransform="matrix(0.55,0,0,0.55,-2.2,-2.2)" />
    <linearGradient
       inkscape:collect="always"
       xlink:href="#linearGradient865"
       id="linearGradient884"
       x1="22"
       y1="8"
       x2="37.002464"
       y2="23.002464"
       gradientUnits="userSpaceOnUse"
       gradientTransform="matrix(0.55,0,0,0.55,-2.2,-2.2)" />
    <linearGradient
       inkscape:collect="always"
       xlink:href="#linearGradient845"
       id="linearGradient847"
       x1="21.146551"
       y1="5.465517"
       x2="26.278736"
       y2="45.120689"
       gradientUnits="userSpaceOnUse"
       gradientTransform="matrix(0.55,0,0,0.55,-2.2,-2.2)" />
  </defs>
  <sodipodi:namedview
     pagecolor="#ffffff"
     bordercolor="#666666"
     borderopacity="1"
     objecttolerance="10"
     gridtolerance="10"
     guidetolerance="10"
     inkscape:pageopacity="0"
     inkscape:pageshadow="2"
     inkscape:window-width="1491"
     inkscape:window-height="915"
     id="namedview14"
     showgrid="false"
     inkscape:zoom="10.625"
     inkscape:cx="-8.8470588"
     inkscape:cy="15.011765"
     inkscape:window-x="10"
     inkscape:window-y="39"
     inkscape:window-maximized="0"
     inkscape:current-layer="svg12"
     inkscape:pagecheckerboard="0" />
  <circle
     cx="11"
     cy="11"
     r="11"
     id="circle2"
     style="fill:url(#linearGradient848);fill-opacity:1;stroke-width:0.55" />
  <path
     d="M 21.98845,10.6799 A 11,11 0 0 1 11,21.45 11,11 0 0 1 0.0121,10.7701 11,11 0 0 0 0,11 11,11 0 0 0 11,22 11,11 0 0 0 22,11 11,11 0 0 0 21.98845,10.6799 Z"
     id="path10"
     inkscape:connector-curvature="0"
     style="opacity:0.2;stroke-width:0.55" />
  <path
     style="opacity:0.2;fill:url(#linearGradient867);fill-opacity:1;stroke:none;stroke-width:2.2;stroke-linecap:round;stroke-linejoin:round;stroke-miterlimit:4;stroke-dasharray:none;stroke-dashoffset:0;stroke-opacity:1;paint-order:normal"
     d="m 17.045703,4.5955079 0.01078,0.029004 C 18.745322,6.221417 19.8,8.4794278 19.8,11 c 0,4.8752 -3.9248,8.8 -8.8,8.8 -2.4087517,0 -4.5832608,-0.960499 -6.1692385,-2.517969 L 9.420898,21.872168 A 11,11 0 0 0 11,22 11,11 0 0 0 22,11 11,11 0 0 0 21.875391,9.425195 Z M 4.6094724,17.060743 4.7179688,17.169236 c -0.032512,-0.03311 -0.061469,-0.06951 -0.093457,-0.103125 z"
     id="rect850" />
  <path
     style="opacity:0.3;fill:url(#linearGradient884);fill-opacity:1;stroke:none;stroke-width:1.34842;stroke-linecap:round;stroke-linejoin:round;stroke-miterlimit:4;stroke-dasharray:none;stroke-dashoffset:0;stroke-opacity:1;paint-order:normal"
     d="M 12.1,2.2 V 9.9 H 9.9 l 6.549511,6.549511 C 17.841286,15.057736 18.7,13.1329 18.7,11 18.7,10.052632 18.525327,9.149821 18.214453,8.3144537 L 13.704882,3.8048829 C 13.538821,3.7429007 13.371317,3.6837328 13.2,3.6330079 V 3.3 Z m 7.612989,7.612989 c 0.0045,0.03326 0.0088,0.06652 0.01289,0.0999 -0.0038,-0.03219 -0.0056,-0.06452 -0.0097,-0.09668 z m 0.06123,0.570409 C 19.788278,10.587456 19.8,10.792187 19.8,11 c 0,-0.205894 -0.0099,-0.411445 -0.02578,-0.616602 z"
     id="path853" />
  <path
     inkscape:connector-curvature="0"
     style="fill:url(#linearGradient847);fill-opacity:1;stroke:none;stroke-width:1.1"
     d="M 9.9,2.2000001 V 9.9 h 2.2 V 2.2000001 Z M 8.8,2.4921876 C 4.9988973,3.4652403 2.2,6.8871118 2.2,11 c 0,4.8752 3.9248,8.8 8.8,8.8 4.8752,0 8.8,-3.9248 8.8,-8.8 0,-4.1128882 -2.798897,-7.5347597 -6.6,-8.5078124 V 3.6330074 C 16.384545,4.575912 18.7,7.5015875 18.7,11 18.7,15.2658 15.2658,18.7 11,18.7 6.7342,18.7 3.3,15.2658 3.3,11 3.3,7.5015875 5.6154552,4.575912 8.8,3.6330074 Z"
     class="ColorScheme-Text"
     id="path4-3" />
</svg>
