<?xml version="1.0" encoding="UTF-8" standalone="no"?>
<svg
   viewBox="0 0 22 22"
   version="1.1"
   id="svg62"
   sodipodi:docname="preferences-desktop-mouse.svg"
   inkscape:version="1.1.1 (3bf5ae0d25, 2021-09-20)"
   width="22"
   height="22"
   xmlns:inkscape="http://www.inkscape.org/namespaces/inkscape"
   xmlns:sodipodi="http://sodipodi.sourceforge.net/DTD/sodipodi-0.dtd"
   xmlns:xlink="http://www.w3.org/1999/xlink"
   xmlns="http://www.w3.org/2000/svg"
   xmlns:svg="http://www.w3.org/2000/svg">
  <defs
     id="defs66">
    <linearGradient
       inkscape:collect="always"
       xlink:href="#d"
       id="linearGradient5965"
       x1="11.526114"
       y1="13.212889"
       x2="11.510739"
       y2="3.0333247"
       gradientUnits="userSpaceOnUse"
       gradientTransform="translate(-0.499846,-1)" />
  </defs>
  <sodipodi:namedview
     id="namedview64"
     pagecolor="#ffffff"
     bordercolor="#666666"
     borderopacity="1.0"
     inkscape:pageshadow="2"
     inkscape:pageopacity="0.0"
     inkscape:pagecheckerboard="0"
     showgrid="false"
     inkscape:zoom="12.212323"
     inkscape:cx="-3.3982069"
     inkscape:cy="9.5395446"
     inkscape:window-width="1853"
     inkscape:window-height="1049"
     inkscape:window-x="67"
     inkscape:window-y="31"
     inkscape:window-maximized="1"
     inkscape:current-layer="svg62"
     width="1e-05px" />
  <linearGradient
     id="a"
     gradientUnits="userSpaceOnUse"
     x1="41"
     x2="23"
     y1="58"
     y2="6"
     gradientTransform="matrix(0.34615385,0,0,0.34615385,-0.0383076,-0.07692308)">
    <stop
       offset="0"
       stop-color="#848f9a"
       id="stop2" />
    <stop
       offset=".33333299"
       stop-color="#bdc2c7"
       id="stop4" />
    <stop
       offset="1"
       stop-color="#f6f6f6"
       id="stop6" />
  </linearGradient>
  <linearGradient
     id="b"
     gradientTransform="matrix(-1.4444445,0,0,1.4444445,-50.444447,-5.3333339)"
     gradientUnits="userSpaceOnUse"
     x1="-55"
     x2="-55"
     y1="12"
     y2="22">
    <stop
       offset="0"
       stop-color="#54b5e8"
       id="stop9" />
    <stop
       offset=".333"
       stop-color="#8fd9ff"
       id="stop11" />
    <stop
       offset="1"
       stop-color="#369acf"
       id="stop13" />
  </linearGradient>
  <linearGradient
     id="c"
     gradientTransform="matrix(-0.50000002,0,0,0.50000002,-17.499847,-2.0000002)"
     gradientUnits="userSpaceOnUse"
     x1="-60"
     x2="-54"
     y1="22"
     y2="12">
    <stop
       offset="0"
       stop-color="#8e98a2"
       id="stop16" />
    <stop
       offset="1"
       stop-color="#6c7884"
       id="stop18" />
  </linearGradient>
  <linearGradient
     id="d"
     gradientUnits="userSpaceOnUse"
     x1="32"
     x2="32"
     y1="6"
     y2="28"
     gradientTransform="matrix(0.34615385,0,0,0.34615385,6.352727,2.3199652)">
    <stop
       offset="0"
       stop-color="#68737e"
       id="stop21" />
    <stop
       offset="1"
       stop-color="#7a8692"
       id="stop23" />
  </linearGradient>
  <linearGradient
     id="e"
     gradientTransform="matrix(-1.4444445,0,0,1.4444445,-50.444447,-5.3333339)"
     gradientUnits="userSpaceOnUse"
     x1="-55"
     x2="-55"
     y1="22"
     y2="12">
    <stop
       offset="0"
       stop-color="#232629"
       id="stop26" />
    <stop
       offset=".333"
       stop-color="#373d43"
       id="stop28" />
    <stop
       offset=".667"
       stop-color="#565f68"
       id="stop30" />
    <stop
       offset="1"
       stop-color="#474e55"
       id="stop32" />
  </linearGradient>
  <linearGradient
     id="f"
     gradientUnits="userSpaceOnUse"
     x1="21.005859"
     x2="21"
     y1="21.005859"
     y2="58"
     gradientTransform="translate(-1.4444436,-0.11914594)">
    <stop
       offset="0"
       stop-color="#565f68"
       id="stop35" />
    <stop
       offset=".5945304"
       stop-color="#68737e"
       id="stop37" />
    <stop
       offset="1"
       stop-color="#424950"
       id="stop39" />
  </linearGradient>
  <path
     d="m 10.500154,2.1729417 c 0,0 -0.588106,0.013258 -0.654,0.017578 C 7.1331059,2.3683496 5,4.4327312 5,7.1923077 c 0,0 0.6923077,2.8840003 0.6923077,4.1532313 0,1.269231 -0.3461539,2.533227 -0.3461539,3.807691 0,2.876539 1.9696154,5.019231 4.8461542,5.019231 h 1.601845 c 2.876539,0 4.859848,-2.141294 4.859848,-5.017833 0,-1.274464 -0.346154,-2.53846 -0.346154,-3.807691 0,-1.269231 0.692308,-2.8787667 0.692308,-4.1532318 0,-2.7595765 -2.149553,-4.7874181 -4.859848,-5.0031854 -0.0764,-0.00608 -0.640153,-0.017578 -0.640153,-0.017578 v 1.9039813 h -1 z"
     fill="url(#a)"
     fill-rule="evenodd"
     id="path42"
     style="fill:url(#a);stroke-width:0.346154"
     sodipodi:nodetypes="cccsssssssscccc" />
  <path
     d="m 10.193234,2 c 0,0 -0.280261,0.013258 -0.346155,0.017578 -2.7130476,0.1778306 -4.846925,2.4151532 -4.846925,5.1747297 0,0.069728 0.00478,0.1392411 0.00678,0.2089094 C 5.076882,4.7056184 7.179562,2.5385774 9.847075,2.363732 9.912965,2.359412 10.193229,2.346154 10.193229,2.346154 h 1.614752 c 0,0 0.269756,0.011496 0.346153,0.017578 2.66497,0.2121591 4.76958,2.3435485 4.839393,5.038162 0.002,-0.069893 0.0068,-0.139633 0.0068,-0.2095865 0,-2.7595765 -2.135859,-4.9589621 -4.846154,-5.1747296 C 12.077742,2.0114962 11.807985,2 11.807985,2 Z"
     fill="#c9cdd1"
     id="path44"
     style="stroke-width:0.346154"
     sodipodi:nodetypes="ccscsccscsccc" />
  <path
     d="m 5.0074778,14.443018 c -0.00223,0.07741 -0.00732,0.154668 -0.00732,0.23216 0,3.11625 2.50875,5.625 5.6250002,5.625 h 0.75 c 3.11625,0 5.625,-2.50875 5.625,-5.625 0,-0.07749 -0.0051,-0.154753 -0.0074,-0.232178 -0.07603,3.049018 -2.549658,5.482178 -5.61765,5.482178 h -0.74995 c -3.0679906,0 -5.5416257,-2.43316 -5.6176764,-5.482178 z"
     fill="#7a8692"
     fill-rule="evenodd"
     id="path48"
     style="stroke-width:0.375" />
  <path
     id="rect2496"
     style="fill:url(#linearGradient5965);fill-opacity:1;stroke-width:1.44445;stroke-opacity:0.266667"
     d="m 10.500154,2 v 1 l -1,1 v 5 l 0.5,0.5 v 1.693359 c 0,0.554 0.446,1 1,1 0.554,0 1,-0.446 1,-1 V 9.5 l 0.5,-0.5 V 4 l -1,-1 V 2 Z" />
  <path
     d="M 12.500154,4 V 8.9999999 L 11.500154,8 V 5 Z m -3,0 1,1 v 3 l -1,0.9999999 z"
     fill="url(#c)"
     id="path50"
     style="fill:url(#c);stroke-width:0.5" />
  <g
     fill-rule="evenodd"
     id="g60"
     transform="matrix(0.34615385,0,0,0.34615385,-0.0383079,-0.23001614)">
    <rect
       fill="#2a2e32"
       height="4.3333335"
       rx="1.4444445"
       width="2.8888891"
       x="30.444445"
       y="29.111111"
       id="rect52"
       style="stroke-width:1.44444" />
    <path
       d="m 14.555556,20.886713 c 0.001,3.679786 1,7.314308 1,10.994141 0,3.679833 -0.99894,7.314355 -1,10.994141 v 0.0059 c 0,7.894237 6.041343,15.355727 13.769531,15.979602 C 22.259316,58.248122 17.555556,52.113354 17.555556,45.880854 v -12 c 0,-3.384459 -1.12312,-10.48962 -3,-12.994141 z m 34.66721,1.041881 c -1.876875,2.504521 -3,9.609682 -3,12.994141 v 12 c 0,6.2325 -4.70376,11.325166 -10.769531,11.9375 7.728188,-0.623875 13.769531,-7.043263 13.769531,-14.9375 v -0.0059 c 0,-3.679745 -1,-7.314267 -1,-10.9941 0,-3.679833 0.99894,-7.314355 1,-10.994141 z"
       fill="url(#f)"
       stroke-width="0.999995"
       id="path58"
       style="fill:url(#f)"
       sodipodi:nodetypes="cssscssccsscsssc" />
    <path
       d="m 31.88889,12 c 0.538751,0 1.013649,0.09268 1.444444,0.220052 v 14.004341 c -0.430795,0.127379 -0.905693,0.220052 -1.444444,0.220052 -0.538752,0 -1.013649,-0.09268 -1.444445,-0.220052 V 12.220052 C 30.875241,12.092673 31.350138,12 31.88889,12 Z"
       fill="url(#e)"
       id="path54"
       style="fill:url(#e);stroke-width:1.44444" />
    <path
       d="m 33.333334,12.220052 c 0.848946,0.25102 1.444445,2.137991 1.444445,2.668837 v 8.666667 c 0,0.530846 -0.595499,2.417817 -1.444445,2.668837 z m -2.888889,0 v 14.004341 c -0.848946,-0.25102 -1.444444,-2.137991 -1.444444,-2.668837 v -8.666667 c 0,-0.530846 0.595498,-2.417817 1.444444,-2.668837 z"
       fill="url(#b)"
       id="path56"
       style="fill:url(#b);stroke-width:1.44444" />
  </g>
</svg>
