<svg xmlns="http://www.w3.org/2000/svg" id="svg9" width="22" height="22" version="1.1">
 <defs id="defs3">
  <style id="current-color-scheme" type="text/css">
   .ColorScheme-Text { color:#eff0f1; } .ColorScheme-Highlight { color:#3daee9; }
  </style>
 </defs>
 <path id="path4500" style="fill:#eff0f1;fill-opacity:1" d="M 6 3 C 4.9806772 2.9998 4.1139707 3.9871 4 5 L 3.0117188 13.779297 C 2.8801089 14.964297 3.8077628 16.0002 5 16 L 17 16 C 18.192117 16 19.119878 14.964097 18.988281 13.779297 L 18 5 C 17.885957 3.9872 17.019208 3 16 3 L 6 3 z M 6 4 L 16 4 C 16.373478 4 16.946771 4.5865763 17.005859 5.1113281 L 17.994141 13.888672 C 18.061734 14.497236 17.612644 15 17 15 L 5 15 C 4.3879605 15.000103 3.9394324 14.499024 4.0058594 13.890625 L 4.0058594 13.888672 L 4.9941406 5.1113281 C 5.0531984 4.5864594 5.6265112 3.9999267 6 4 z M 11 5 C 10.783098 5 10.609322 5.1505094 10.544922 5.3496094 L 9.6640625 8 L 6.8125 8 C 6.3280598 7.9994 6.1279 8.6660719 6.5195312 8.9511719 L 8.8222656 10.626953 L 7.9316406 13.337891 C 7.7756954 13.800591 8.3073669 14.189091 8.7011719 13.900391 L 11 12.220703 L 13.306641 13.900391 C 13.696973 14.181191 14.220461 13.796591 14.076172 13.337891 L 13.195312 10.636719 L 15.509766 8.9707031 C 15.905113 8.6870031 15.703422 8 15.216797 8 L 12.365234 8 L 11.496094 5.3496094 C 11.427753 5.1354094 11.216901 5 11 5 z M 3 16.203125 L 3 16.75 C 3 17.962 4.0381 19 5.25 19 L 16.75 19 C 17.962 19 19 17.962 19 16.75 L 19 16.203125 C 18.468 16.688125 17.775 17 17 17 L 5 17 C 4.2254 17 3.5316 16.688125 3 16.203125 z"/>
</svg>
