<?xml version="1.0" encoding="UTF-8" standalone="no"?>
<svg
   xmlns:dc="http://purl.org/dc/elements/1.1/"
   xmlns:cc="http://creativecommons.org/ns#"
   xmlns:rdf="http://www.w3.org/1999/02/22-rdf-syntax-ns#"
   xmlns:svg="http://www.w3.org/2000/svg"
   xmlns="http://www.w3.org/2000/svg"
   xmlns:sodipodi="http://sodipodi.sourceforge.net/DTD/sodipodi-0.dtd"
   xmlns:inkscape="http://www.inkscape.org/namespaces/inkscape"
   width="22"
   height="22"
   version="1.1"
   id="svg9"
   sodipodi:docname="goldendict-tray.svg"
   inkscape:version="0.92.3 (2405546, 2018-03-11)">
  <metadata
     id="metadata13">
    <rdf:RDF>
      <cc:Work
         rdf:about="">
        <dc:format>image/svg+xml</dc:format>
        <dc:type
           rdf:resource="http://purl.org/dc/dcmitype/StillImage" />
        <dc:title></dc:title>
      </cc:Work>
    </rdf:RDF>
  </metadata>
  <sodipodi:namedview
     pagecolor="#ffffff"
     bordercolor="#666666"
     borderopacity="1"
     objecttolerance="10"
     gridtolerance="10"
     guidetolerance="10"
     inkscape:pageopacity="0"
     inkscape:pageshadow="2"
     inkscape:window-width="1920"
     inkscape:window-height="1020"
     id="namedview11"
     showgrid="true"
     inkscape:zoom="26.42"
     inkscape:cx="11"
     inkscape:cy="11"
     inkscape:window-x="0"
     inkscape:window-y="30"
     inkscape:window-maximized="1"
     inkscape:current-layer="svg9">
    <inkscape:grid
       type="xygrid"
       id="grid820" />
  </sodipodi:namedview>
  <defs
     id="defs3">
    <style
       id="current-color-scheme"
       type="text/css">
   .ColorScheme-Text { color:#eff0f1; } .ColorScheme-Highlight { color:#3daee9; }
  </style>
  </defs>
  <path
     style="fill:#eff0f1;fill-opacity:1"
     d="M 10 2 C 9.081326 2 9 2.5 9 2.5 L 9 8 L 10 8 L 11 8 L 11 2.5 C 11 2.5 10.91867 2 10 2 z M 3.8007812 4 C 3.3575812 4 3 4.3114187 3 4.6992188 L 3 18.300781 C 3 18.68858 3.3575813 19 3.8007812 19 L 18.199219 19 C 18.642419 19 19 18.68858 19 18.300781 L 19 4.6992188 C 19 4.3114188 18.642419 4 18.199219 4 L 18 4 L 12 4 L 12 5 L 18 5 L 18 18 L 4 18 L 4 5 L 8 5 L 8 4 L 3.8007812 4 z M 5 6 L 5 7 L 7 7 L 8 7 L 8 6 L 5 6 z M 13 6 L 13 7 L 14 7 L 15 7 L 17 7 L 17 6 L 13 6 z M 5 8 L 5 9 L 7 9 L 7 8 L 5 8 z M 12 8 L 12 9 L 14 9 L 14 8 L 13 8 L 12 8 z M 15 8 L 15 9 L 16 9 L 17 9 L 17 8 L 15 8 z M 5 10 L 5 11 L 8 11 L 9 11 L 9 10 L 8 10 L 7 10 L 5 10 z M 12 10 L 12 11 L 14 11 L 14 10 L 12 10 z M 16 10 L 16 11 L 17 11 L 17 10 L 16 10 z M 5 12 L 5 13 L 8 13 L 8 12 L 5 12 z M 12 12 L 12 13 L 13 13 L 15 13 L 15 12 L 14 12 L 12 12 z M 16 12 L 16 13 L 17 13 L 17 12 L 16 12 z M 5 14 L 5 15 L 6 15 L 7 15 L 8 15 L 8 14 L 5 14 z M 9 14 L 9 15 L 10 15 L 10 14 L 9 14 z M 12 14 L 12 15 L 13 15 L 13 14 L 12 14 z M 15 14 L 15 15 L 16 15 L 17 15 L 17 14 L 16 14 L 15 14 z M 5 16 L 5 17 L 6 17 L 6 16 L 5 16 z M 7 16 L 7 17 L 10 17 L 10 16 L 9 16 L 8 16 L 7 16 z M 12 16 L 12 17 L 16 17 L 16 16 L 15 16 L 13 16 L 12 16 z "
     id="path872" />
</svg>
