<?xml version="1.0" encoding="UTF-8" standalone="no"?>
<svg
   xmlns:dc="http://purl.org/dc/elements/1.1/"
   xmlns:cc="http://creativecommons.org/ns#"
   xmlns:rdf="http://www.w3.org/1999/02/22-rdf-syntax-ns#"
   xmlns:svg="http://www.w3.org/2000/svg"
   xmlns="http://www.w3.org/2000/svg"
   xmlns:sodipodi="http://sodipodi.sourceforge.net/DTD/sodipodi-0.dtd"
   xmlns:inkscape="http://www.inkscape.org/namespaces/inkscape"
   width="22"
   height="22"
   version="1.1"
   id="svg7"
   sodipodi:docname="teams-for-linux-tray.svg"
   inkscape:version="0.92.3 (2405546, 2018-03-11)">
  <metadata
     id="metadata11">
    <rdf:RDF>
      <cc:Work
         rdf:about="">
        <dc:format>image/svg+xml</dc:format>
        <dc:type
           rdf:resource="http://purl.org/dc/dcmitype/StillImage" />
        <dc:title></dc:title>
      </cc:Work>
    </rdf:RDF>
  </metadata>
  <sodipodi:namedview
     pagecolor="#ffffff"
     bordercolor="#666666"
     borderopacity="1"
     objecttolerance="10"
     gridtolerance="10"
     guidetolerance="10"
     inkscape:pageopacity="0"
     inkscape:pageshadow="2"
     inkscape:window-width="1920"
     inkscape:window-height="1020"
     id="namedview9"
     showgrid="false"
     inkscape:zoom="10.727273"
     inkscape:cx="11"
     inkscape:cy="11"
     inkscape:window-x="0"
     inkscape:window-y="30"
     inkscape:window-maximized="1"
     inkscape:current-layer="svg7" />
  <defs
     id="defs3">
    <style
       id="current-color-scheme"
       type="text/css">
   .ColorScheme-Text { color:#eff0f1; } .ColorScheme-Highlight { color:#3daee9; }
  </style>
  </defs>
  <path
     style="fill:#eff0f1;fill-opacity:1"
     d="M 5.0234375 3 C 4.4566955 3 4 3.4566955 4 4.0234375 L 4 16.976562 C 4 17.543305 4.4566955 18 5.0234375 18 L 17.976562 18 C 18.543305 18 19 17.543305 19 16.976562 L 19 4.0234375 C 19 3.4566955 18.543305 3 17.976562 3 L 5.0234375 3 z M 5.0234375 4 L 17.976562 4 C 18.006089 4 18 3.9939123 18 4.0234375 L 18 16.976562 C 18 17.00609 18.00609 17 17.976562 17 L 5.0234375 17 C 4.9939123 17 5 17.006089 5 16.976562 L 5 4.0234375 C 5 3.9939129 4.9939129 4 5.0234375 4 z M 7 6 L 7 9 L 10 9 L 10 15 L 13 15 L 13 9 L 16 9 L 16 6 L 7 6 z "
     id="path820" />
</svg>
