<?xml version="1.0" encoding="UTF-8" standalone="no"?>
<svg
   height="22"
   width="22"
   version="1.1"
   id="svg49"
   sodipodi:docname="panel.svg"
   inkscape:version="1.1.1 (3bf5ae0d25, 2021-09-20)"
   xmlns:inkscape="http://www.inkscape.org/namespaces/inkscape"
   xmlns:sodipodi="http://sodipodi.sourceforge.net/DTD/sodipodi-0.dtd"
   xmlns:xlink="http://www.w3.org/1999/xlink"
   xmlns="http://www.w3.org/2000/svg"
   xmlns:svg="http://www.w3.org/2000/svg">
  <defs
     id="defs53" />
  <sodipodi:namedview
     id="namedview51"
     pagecolor="#ffffff"
     bordercolor="#666666"
     borderopacity="1.0"
     inkscape:pageshadow="2"
     inkscape:pageopacity="0.0"
     inkscape:pagecheckerboard="0"
     showgrid="false"
     inkscape:zoom="33.045455"
     inkscape:cx="11"
     inkscape:cy="11"
     inkscape:window-width="1853"
     inkscape:window-height="1049"
     inkscape:window-x="67"
     inkscape:window-y="31"
     inkscape:window-maximized="1"
     inkscape:current-layer="svg49" />
  <linearGradient
     id="a"
     gradientTransform="matrix(1 0 0 1.0285724 -.00001 -14.394733)"
     gradientUnits="userSpaceOnUse"
     x1="418.16971"
     x2="384.57144"
     y1="503.07938"
     y2="531.45813">
    <stop
       offset="0"
       stop-color="#88c0d0"
       id="stop2" />
    <stop
       offset="1"
       stop-color="#8fbcbb"
       id="stop4" />
  </linearGradient>
  <linearGradient
     id="b"
     gradientUnits="userSpaceOnUse"
     x1="29.85095"
     x2="54.317608"
     y1="22.348567"
     y2="28.506301">
    <stop
       offset="0"
       stop-color="#81a1c1"
       id="stop7" />
    <stop
       offset="1"
       stop-color="#5e81ac"
       id="stop9" />
  </linearGradient>
  <linearGradient
     id="c"
     gradientUnits="userSpaceOnUse"
     x1="24.393862"
     x2="20.645595"
     xlink:href="#d"
     y1="41.223652"
     y2="25.343179" />
  <linearGradient
     id="d">
    <stop
       offset="0"
       stop-color="#3b4252"
       id="stop13" />
    <stop
       offset="1"
       stop-color="#4c566a"
       id="stop15" />
  </linearGradient>
  <linearGradient
     id="e"
     gradientTransform="matrix(-1 0 0 1 839.14285 -40.00001)"
     gradientUnits="userSpaceOnUse"
     x1="430.57141"
     x2="440.17142"
     xlink:href="#d"
     y1="569.97992"
     y2="562.49939" />
  <linearGradient
     id="f"
     gradientTransform="matrix(-.41666647 0 0 .53472146 190.40467 -283.78051)"
     gradientUnits="userSpaceOnUse"
     x1="430.57141"
     x2="440.17142"
     xlink:href="#d"
     y1="569.97992"
     y2="562.49939" />
  <linearGradient
     id="g"
     gradientTransform="matrix(-.41666647 0 0 .53472146 194.40467 -286.3305)"
     gradientUnits="userSpaceOnUse"
     x1="430.57141"
     x2="440.17142"
     xlink:href="#d"
     y1="569.97992"
     y2="562.49939" />
  <g
     transform="matrix(0.41666647,0,0,0.53472146,-159.23802,-267.39164)"
     id="g39">
    <path
       d="m 384.57144,503.79801 v 33.66238 h 48.00002 v -33.66238 z"
       fill="url(#a)"
       stroke-width="1.10638"
       id="path21" />
    <g
       stroke-linecap="round"
       id="g37">
      <g
         stroke-width="2"
         id="g29">
        <path
           d="m 56,6 -29.700005,17.142932 24.2,13.714298 h 5.5 z"
           fill="url(#b)"
           transform="matrix(1.0909096,0,0,1.0909096,371.48052,497.25255)"
           id="path23" />
        <path
           d="M 26.299995,23.142932 12,31.525797 v 5.331433 h 38.499995 z"
           fill="url(#c)"
           transform="matrix(1.0909096,0,0,1.0909096,371.48052,497.25255)"
           id="path25" />
        <path
           d="m 408.57144,527.26823 -8.4,-4.76883 -1.2,0.71065 v 8.64001 h 1.2 z"
           fill="url(#e)"
           id="path27" />
      </g>
      <path
         d="m 11,14.549998 v 5.45 h 0.499999 L 15,17.449998 Z"
         fill="url(#g)"
         stroke-width="0.944035"
         transform="matrix(2.4000011,0,0,1.8701325,382.17143,500.05781)"
         id="path31" />
      <path
         d="m 7,17 v 3 h 4 V 19.550781 L 7.5,17 Z"
         fill="url(#f)"
         stroke-width="0.944035"
         transform="matrix(2.4000011,0,0,1.8701325,382.17143,500.05781)"
         id="path33" />
      <path
         d="m 400.17144,522.4994 32.40001,-18.70139 -2e-5,10.94034 z"
         fill="#5e81ac"
         stroke-width="2"
         id="path35" />
    </g>
  </g>
  <g
     transform="matrix(.62499999 0 0 .62499999 -239.35714 -321.62379)"
     id="g45">
    <path
       d="m384.57144 541.7981h31.999952v4.8h-31.999952z"
       fill="#fff"
       fill-opacity=".784314"
       stroke-width="1.09545"
       id="path41" />
    <path
       d="m19.5 17.75a.75000002.75000002 0 0 0 -.75.75.75000002.75000002 0 0 0 .75.75.75000002.75000002 0 0 0 .75-.75.75000002.75000002 0 0 0 -.75-.75zm-17.5.25v1h1v-1z"
       fill="#4d4d4d"
       stroke-width=".75"
       transform="matrix(1.6 0 0 1.6 382.97143 514.59807)"
       id="path43" />
  </g>
</svg>
