<?xml version="1.0" encoding="UTF-8" standalone="no"?>
<!-- Created with Inkscape (http://www.inkscape.org/) -->

<svg
   width="22"
   height="22"
   viewBox="0 0 5.8208332 5.8208335"
   version="1.1"
   id="svg2123"
   inkscape:version="1.1.1 (3bf5ae0d25, 2021-09-20, custom)"
   sodipodi:docname="weather-many-clouds.svg"
   xmlns:inkscape="http://www.inkscape.org/namespaces/inkscape"
   xmlns:sodipodi="http://sodipodi.sourceforge.net/DTD/sodipodi-0.dtd"
   xmlns:xlink="http://www.w3.org/1999/xlink"
   xmlns="http://www.w3.org/2000/svg"
   xmlns:svg="http://www.w3.org/2000/svg">
  <sodipodi:namedview
     id="namedview2125"
     pagecolor="#ffffff"
     bordercolor="#666666"
     borderopacity="1.0"
     inkscape:pageshadow="2"
     inkscape:pageopacity="0.0"
     inkscape:pagecheckerboard="0"
     inkscape:document-units="px"
     showgrid="false"
     units="px"
     inkscape:zoom="17.302019"
     inkscape:cx="13.033161"
     inkscape:cy="15.922997"
     inkscape:window-width="1920"
     inkscape:window-height="999"
     inkscape:window-x="0"
     inkscape:window-y="0"
     inkscape:window-maximized="1"
     inkscape:current-layer="svg2123" />
  <defs
     id="defs2120">
    <linearGradient
       inkscape:collect="always"
       id="linearGradient2887">
      <stop
         style="stop-color:#6f8181;stop-opacity:1;"
         offset="0"
         id="stop2883" />
      <stop
         style="stop-color:#334545;stop-opacity:1"
         offset="1"
         id="stop2885" />
    </linearGradient>
    <linearGradient
       inkscape:collect="always"
       xlink:href="#linearGradient2887"
       id="linearGradient2889"
       x1="2.778125"
       y1="1.0583333"
       x2="2.793014"
       y2="4.4970551"
       gradientUnits="userSpaceOnUse"
       gradientTransform="translate(0.26458474,0.52916667)" />
    <linearGradient
       inkscape:collect="always"
       xlink:href="#linearGradient2887"
       id="linearGradient2866"
       x1="15"
       y1="14.5"
       x2="0.99999964"
       y2="6.5"
       gradientUnits="userSpaceOnUse"
       gradientTransform="matrix(0.26458333,0,0,0.26458333,0,0.26458335)" />
  </defs>
  <path
     id="rect1381"
     style="fill:#334545;fill-opacity:1;stroke-width:0.49626;stroke-linejoin:round"
     d="M 12.5,3 C 11.395431,3 9.5000002,5.2385762 9.5000002,8 9.5000002,9.6372184 10.838,11 12.5,11 H 18 c 1.662,0 3,-1.3178597 3,-2.9550781 0,-1.637218 -1.338,-2.9550781 -3,-2.9550781 V 4.9707031 C 18,3.8792243 17.108,3 16,3 Z"
     transform="scale(0.26458333)"
     sodipodi:nodetypes="ssssscsss" />
  <path
     id="rect929"
     style="fill:url(#linearGradient2866);fill-opacity:1;stroke-width:0.132292;stroke-linejoin:round"
     d="m 1.8520833,1.3229167 c -0.2931583,0 -0.5291666,0.2360083 -0.5291666,0.5291666 V 2.1166667 H 1.0583333 c -0.43973747,0 -0.79374997,0.3540126 -0.79374997,0.79375 0,0.4397374 0.3540125,0.7937499 0.79374997,0.7937499 H 3.175 c 0.4397375,0 0.79375,-0.3540125 0.79375,-0.7937499 0,-0.4397374 -0.3540125,-0.79375 -0.79375,-0.79375 V 1.8520833 C 3.175,1.558925 2.9389916,1.3229167 2.6458333,1.3229167 Z" />
  <path
     id="path2228"
     style="fill:url(#linearGradient2889);fill-opacity:1;stroke-width:0.121268;stroke-linejoin:round"
     d="m 3.0427097,1.5875 c -0.8036894,0 -1.4552084,0.6515191 -1.4552083,1.4552085 2.98e-4,0.047123 0.00288,0.094204 0.00775,0.1410766 -0.4589597,0.06229 -0.80131519,0.4540893 -0.8015014,0.9172567 0,0.5114388 0.414603,0.9260416 0.9260416,0.9260416 h 2.778125 c 0.5845013,0 1.0583333,-0.4738319 1.0583333,-1.0583333 0,-0.5845013 -0.473832,-1.0583333 -1.0583333,-1.0583333 -0.00206,-6.1e-6 -0.00414,-6.1e-6 -0.0062,0 C 4.42332,2.1611703 3.7950714,1.5875908 3.0427097,1.5875 Z"
     sodipodi:nodetypes="ccccccsccc" />
  <path
     id="path3407"
     style="opacity:0.4;fill:#172525;fill-opacity:1;stroke-width:0.154341;stroke-linejoin:round"
     d="m 1.5942193,2.9052491 c -4.531e-4,0.00484 -0.00114,0.00962 -0.00155,0.014469 8.763e-4,-1.215e-4 0.00171,-3.977e-4 0.00258,-5.168e-4 -4.822e-4,-0.00465 -5.96e-4,-0.0093 -0.00103,-0.013952 z m 3.953247,0.9291424 C 5.4831202,4.3572767 5.0382019,4.7625 4.497918,4.7625 H 1.719793 c -0.4674463,0 -0.85318154,-0.346779 -0.91622307,-0.7968506 -0.006524,0.044262 -0.0098,0.089476 -0.009819,0.1353923 0,0.5114388 0.41460297,0.9260417 0.92604157,0.9260417 h 2.778125 c 0.5845013,0 1.0583333,-0.473832 1.0583333,-1.0583333 0,-0.045566 -0.0032,-0.09031 -0.00879,-0.1343586 z" />
</svg>
