<?xml version="1.0" encoding="UTF-8" standalone="no"?>
<svg
   height="16"
   width="16"
   enable-background="new"
   version="1.1"
   id="svg9"
   sodipodi:docname="pane-show-symbolic.svg"
   inkscape:version="1.1 (c4e8f9ed74, 2021-05-24)"
   xmlns:inkscape="http://www.inkscape.org/namespaces/inkscape"
   xmlns:sodipodi="http://sodipodi.sourceforge.net/DTD/sodipodi-0.dtd"
   xmlns="http://www.w3.org/2000/svg"
   xmlns:svg="http://www.w3.org/2000/svg">
  <sodipodi:namedview
     id="namedview11"
     pagecolor="#ffffff"
     bordercolor="#666666"
     borderopacity="1.0"
     inkscape:pageshadow="2"
     inkscape:pageopacity="0.0"
     inkscape:pagecheckerboard="0"
     showgrid="false"
     inkscape:zoom="30.449786"
     inkscape:cx="12.824392"
     inkscape:cy="10.821094"
     inkscape:window-width="1491"
     inkscape:window-height="915"
     inkscape:window-x="86"
     inkscape:window-y="374"
     inkscape:window-maximized="0"
     inkscape:current-layer="svg9" />
  <defs
     id="defs5">
    <filter
       id="a"
       color-interpolation-filters="sRGB">
      <feBlend
         in2="BackgroundImage"
         mode="darken"
         id="feBlend2" />
    </filter>
  </defs>
  <path
     id="path7"
     style="marker:none;fill:#eff0f1;fill-opacity:1"
     d="M 2 1 L 2 15 L 14 15 L 14 1 L 2 1 z M 3 2 L 13 2 L 13 14 L 3 14 L 3 2 z M 6 4 L 6 12 L 10 8 L 6 4 z " />
  <g
     id="layer9"
     inkscape:label="status"
     style="display:inline"
     transform="matrix(0.8,0,0,0.8,-222.80016,-644)" />
  <g
     id="layer10"
     inkscape:label="devices"
     style="display:inline"
     transform="matrix(0.8,0,0,0.8,-222.80016,-644)" />
  <g
     id="layer11"
     inkscape:label="apps"
     transform="matrix(0.8,0,0,0.8,-222.80016,-644)" />
  <g
     id="layer13"
     inkscape:label="places"
     style="display:inline"
     transform="matrix(0.8,0,0,0.8,-222.80016,-644)" />
  <g
     id="layer14"
     inkscape:label="mimetypes"
     transform="matrix(0.8,0,0,0.8,-222.80016,-644)" />
  <g
     id="layer15"
     inkscape:label="emblems"
     style="display:inline"
     transform="matrix(0.8,0,0,0.8,-222.80016,-644)" />
  <g
     id="g71291"
     inkscape:label="emotes"
     style="display:inline"
     transform="matrix(0.8,0,0,0.8,-222.80016,-644)" />
  <g
     id="g4953"
     inkscape:label="categories"
     style="display:inline"
     transform="matrix(0.8,0,0,0.8,-222.80016,-644)" />
</svg>
