<?xml version="1.0" encoding="UTF-8" standalone="no"?>
<!-- Created with Inkscape (http://www.inkscape.org/) -->

<svg
   width="64"
   height="64"
   viewBox="0 0 16.933333 16.933334"
   version="1.1"
   id="svg5"
   inkscape:version="1.1 (c4e8f9ed74, 2021-05-24)"
   sodipodi:docname="system-file-manager.svg"
   xmlns:inkscape="http://www.inkscape.org/namespaces/inkscape"
   xmlns:sodipodi="http://sodipodi.sourceforge.net/DTD/sodipodi-0.dtd"
   xmlns:xlink="http://www.w3.org/1999/xlink"
   xmlns="http://www.w3.org/2000/svg"
   xmlns:svg="http://www.w3.org/2000/svg">
  <sodipodi:namedview
     id="namedview7"
     pagecolor="#ffffff"
     bordercolor="#666666"
     borderopacity="1.0"
     inkscape:pageshadow="2"
     inkscape:pageopacity="0.0"
     inkscape:pagecheckerboard="0"
     inkscape:document-units="px"
     showgrid="false"
     units="px"
     height="64px"
     inkscape:zoom="9.0819027"
     inkscape:cx="20.590399"
     inkscape:cy="29.949671"
     inkscape:window-width="1920"
     inkscape:window-height="1018"
     inkscape:window-x="0"
     inkscape:window-y="32"
     inkscape:window-maximized="1"
     inkscape:current-layer="svg5" />
  <defs
     id="defs2">
    <linearGradient
       inkscape:collect="always"
       id="linearGradient3870">
      <stop
         style="stop-color:#000000;stop-opacity:1;"
         offset="0"
         id="stop3866" />
      <stop
         style="stop-color:#000000;stop-opacity:0;"
         offset="1"
         id="stop3868" />
    </linearGradient>
    <linearGradient
       inkscape:collect="always"
       id="linearGradient1316">
      <stop
         style="stop-color:#05abff;stop-opacity:1"
         offset="0"
         id="stop1312" />
      <stop
         style="stop-color:#2ad1ff;stop-opacity:1"
         offset="1"
         id="stop1314" />
    </linearGradient>
    <linearGradient
       inkscape:collect="always"
       xlink:href="#linearGradient5330"
       id="linearGradient5332"
       x1="42.523613"
       y1="4.0251441"
       x2="42.15744"
       y2="36.803661"
       gradientUnits="userSpaceOnUse"
       gradientTransform="matrix(0.34395723,0,0,0.34395723,0.15607396,0.21167116)" />
    <linearGradient
       inkscape:collect="always"
       id="linearGradient5330">
      <stop
         style="stop-color:#95d0ff;stop-opacity:1"
         offset="0"
         id="stop5326" />
      <stop
         style="stop-color:#eff8ff;stop-opacity:1"
         offset="1"
         id="stop5328" />
    </linearGradient>
    <linearGradient
       inkscape:collect="always"
       xlink:href="#linearGradient1316"
       id="linearGradient1318"
       x1="2.8321891"
       y1="1.6060061"
       x2="2.8273697"
       y2="13.533024"
       gradientUnits="userSpaceOnUse" />
    <linearGradient
       inkscape:collect="always"
       xlink:href="#linearGradient3870"
       id="linearGradient3872"
       x1="5.0270834"
       y1="5.2916665"
       x2="9.4398203"
       y2="10.076747"
       gradientUnits="userSpaceOnUse" />
  </defs>
  <path
     id="rect866"
     style="fill:url(#linearGradient1318);stroke-width:11.2481"
     d="M 1.8961369,1.5875 H 15.037196 c 0.170985,0 0.308637,0.137652 0.308637,0.3086369 V 15.037196 c 0,0.170985 -0.137652,0.308637 -0.308637,0.308637 H 1.8961369 C 1.725152,15.345833 1.5875,15.208181 1.5875,15.037196 V 1.8961369 C 1.5875,1.725152 1.725152,1.5875 1.8961369,1.5875 Z" />
  <path
     id="rect866-5"
     style="fill:#d9e2e3;fill-opacity:0.5;stroke-width:11.2481"
     d="m 1.5875,14.772742 v 0.264583 c 0,0.170985 0.1375235,0.308509 0.3085083,0.308509 H 15.037325 c 0.170985,0 0.308509,-0.137524 0.308509,-0.308509 v -0.264583 c 0,0.170985 -0.137524,0.308508 -0.308509,0.308508 H 1.8960083 C 1.7250235,15.08125 1.5875,14.943727 1.5875,14.772742 Z" />
  <path
     id="rect866-5-2"
     style="fill:#f9f9f9;fill-opacity:0.5;stroke-width:11.2481"
     d="M 1.8960083,1.5875 C 1.7250235,1.5875 1.5875,1.7250235 1.5875,1.8960083 v 0.2645834 c 0,-0.1709848 0.1375235,-0.3085083 0.3085083,-0.3085083 H 15.037325 c 0.170985,0 0.308509,0.1375235 0.308509,0.3085083 V 1.8960083 C 15.345834,1.7250235 15.20831,1.5875 15.037325,1.5875 Z" />
  <path
     id="rect2370"
     style="stroke-width:3.31765;fill:url(#linearGradient3872);fill-opacity:1;opacity:0.3"
     d="m 6.4648222,8.3168059 h 4.1600438 v 4.1600981 c 0,0 -4.1600441,-4.1600991 -4.1600438,-4.1600981 z"
     sodipodi:nodetypes="cccc" />
  <rect
     style="opacity:1;fill:#232629;fill-opacity:1;stroke-width:5.68855"
     id="rect3633"
     width="0.5291667"
     height="1.8520833"
     x="5.0270834"
     y="5.2916665" />
  <path
     id="rect1129-3"
     style="fill:url(#linearGradient5332);fill-opacity:1;stroke-width:25.7341"
     d="m 7.723043,1.5875 c 0,0 -0.73195,1.1902443 -1.3730428,6.4140791 0.00481,0.4910344 0.5338175,0.4676717 0.5338175,0.4676717 l 1.1875244,-0.00206 c 0,0 0.3231382,-0.010446 0.3395141,0.3302124 0.01989,4.2915888 0.6883302,6.5484348 0.6883302,6.5484348 h 5.9381386 c 0.170985,0 0.308509,-0.137524 0.308509,-0.308509 V 1.8960083 C 15.345834,1.7250235 15.20831,1.5875 15.037325,1.5875 Z" />
  <path
     d="m 4.7625,11.185735 c 0.7749404,1.01392 2.1940593,1.496829 3.6269006,1.50983 1.4329353,0.013 2.9018754,-0.448319 3.7814334,-1.48243 l -0.363415,-0.355477 c -0.740564,0.870788 -2.0849298,1.320627 -3.4143157,1.308626 -1.3293859,-0.012 -2.6193245,-0.490169 -3.2507579,-1.316426 z"
     color="#000000"
     color-rendering="auto"
     dominant-baseline="auto"
     image-rendering="auto"
     opacity="0.75"
     shape-rendering="auto"
     solid-color="#000000"
     style="font-variant-ligatures:normal;font-variant-position:normal;font-variant-caps:normal;font-variant-numeric:normal;font-variant-alternates:normal;font-feature-settings:normal;text-indent:0;text-decoration-line:none;text-decoration-style:solid;text-decoration-color:#000000;text-transform:none;text-orientation:mixed;white-space:normal;shape-padding:0;isolation:auto;mix-blend-mode:normal;stroke-width:0.96456;fill:#232629;fill-opacity:1;opacity:1"
     id="path24"
     sodipodi:nodetypes="csccscc" />
  <rect
     style="fill:#232629;fill-opacity:1;stroke-width:5.68855"
     id="rect3633-7"
     width="0.5291667"
     height="1.8520833"
     x="11.377081"
     y="5.2916665" />
</svg>
