<?xml version="1.0" encoding="UTF-8" standalone="no"?>
<svg
   version="1.1"
   viewBox="0 0 22 22"
   id="svg5"
   sodipodi:docname="user-trash.svg"
   inkscape:version="1.1.1 (3bf5ae0d25, 2021-09-20, custom)"
   xmlns:inkscape="http://www.inkscape.org/namespaces/inkscape"
   xmlns:sodipodi="http://sodipodi.sourceforge.net/DTD/sodipodi-0.dtd"
   xmlns:xlink="http://www.w3.org/1999/xlink"
   xmlns="http://www.w3.org/2000/svg"
   xmlns:svg="http://www.w3.org/2000/svg">
  <defs
     id="defs9">
    <linearGradient
       inkscape:collect="always"
       id="linearGradient6624">
      <stop
         style="stop-color:#a7afb4;stop-opacity:1;"
         offset="0"
         id="stop6620" />
      <stop
         style="stop-color:#c2ced4;stop-opacity:1"
         offset="1"
         id="stop6622" />
    </linearGradient>
    <linearGradient
       inkscape:collect="always"
       xlink:href="#linearGradient6624"
       id="linearGradient6626"
       x1="16"
       y1="23"
       x2="6"
       y2="-1"
       gradientUnits="userSpaceOnUse" />
  </defs>
  <sodipodi:namedview
     id="namedview7"
     pagecolor="#ffffff"
     bordercolor="#666666"
     borderopacity="1.0"
     inkscape:pageshadow="2"
     inkscape:pageopacity="0.0"
     inkscape:pagecheckerboard="0"
     showgrid="false"
     inkscape:zoom="25.777256"
     inkscape:cx="5.2565719"
     inkscape:cy="4.4419003"
     inkscape:window-width="1920"
     inkscape:window-height="999"
     inkscape:window-x="0"
     inkscape:window-y="0"
     inkscape:window-maximized="1"
     inkscape:current-layer="svg5" />
  <style
     type="text/css"
     id="current-color-scheme">
        .ColorScheme-Text {
            color:#232629;
        }
    </style>
  <path
     id="rect954"
     style="opacity:1;fill:url(#linearGradient6626);stroke-width:1.00885;fill-opacity:1"
     d="M 8 0 A 1 1 0 0 0 7 1 L 7 3 L 3 3 A 1 1 0 0 0 2 4 L 2 5 L 4 5 L 4 21 A 1 1 0 0 0 5 22 L 17 22 A 1 1 0 0 0 18 21 L 18 5 L 20 5 L 20 3.9648438 A 1 1 0 0 0 19.035156 3 L 15 3 L 15 1 A 1 1 0 0 0 14 0 L 8 0 z M 9 2 L 13 2 L 13 3 L 9 3 L 9 2 z " />
  <rect
     style="opacity:1;fill:#3daee9;fill-opacity:1;stroke-width:0.552702"
     id="rect1810"
     width="1"
     height="12"
     x="6"
     y="7" />
  <rect
     style="opacity:1;fill:#3daee9;fill-opacity:1"
     id="rect1936"
     width="1"
     height="12"
     x="9"
     y="7" />
  <rect
     style="opacity:1;fill:#3daee9;fill-opacity:1"
     id="rect2040"
     width="1"
     height="12"
     x="12"
     y="7" />
  <rect
     style="opacity:1;fill:#3daee9;fill-opacity:1"
     id="rect2044"
     width="1"
     height="12"
     x="15"
     y="7" />
  <rect
     style="opacity:0.2;fill:#000000;fill-opacity:1"
     id="rect3297"
     width="18"
     height="1"
     x="2"
     y="4" />
  <path
     id="rect5186"
     style="opacity:0.2;stroke-width:0.887914"
     d="m 8,1 h 6 V 3 H 13 V 2 H 9 V 3 H 8 Z"
     sodipodi:nodetypes="ccccccccc" />
  <path
     id="rect6279"
     style="opacity:0.2;fill:#000000;fill-opacity:1;stroke-width:1.73205"
     d="M 4 20 L 4 21 C 4 21.554 4.446 22 5 22 L 17 22 C 17.554 22 18 21.554 18 21 L 18 20 C 18 20.554 17.554 21 17 21 L 5 21 C 4.446 21 4 20.554 4 20 z " />
</svg>
