<?xml version="1.0" encoding="UTF-8" standalone="no"?>
<svg
   version="1.1"
   viewBox="0 0 48 48"
   id="svg71"
   sodipodi:docname="user-trash-full.svg"
   inkscape:version="1.1.1 (3bf5ae0d25, 2021-09-20, custom)"
   width="48"
   height="48"
   xmlns:inkscape="http://www.inkscape.org/namespaces/inkscape"
   xmlns:sodipodi="http://sodipodi.sourceforge.net/DTD/sodipodi-0.dtd"
   xmlns:xlink="http://www.w3.org/1999/xlink"
   xmlns="http://www.w3.org/2000/svg"
   xmlns:svg="http://www.w3.org/2000/svg"
   xmlns:rdf="http://www.w3.org/1999/02/22-rdf-syntax-ns#"
   xmlns:cc="http://creativecommons.org/ns#"
   xmlns:dc="http://purl.org/dc/elements/1.1/">
  <metadata
     id="metadata75">
    <rdf:RDF>
      <cc:Work
         rdf:about="">
        <dc:format>image/svg+xml</dc:format>
        <dc:type
           rdf:resource="http://purl.org/dc/dcmitype/StillImage" />
      </cc:Work>
    </rdf:RDF>
  </metadata>
  <sodipodi:namedview
     pagecolor="#ffffff"
     bordercolor="#666666"
     borderopacity="1"
     objecttolerance="10"
     gridtolerance="10"
     guidetolerance="10"
     inkscape:pageopacity="0"
     inkscape:pageshadow="2"
     inkscape:window-width="1920"
     inkscape:window-height="1019"
     id="namedview73"
     showgrid="true"
     inkscape:zoom="14.75"
     inkscape:cx="17.016949"
     inkscape:cy="32.474576"
     inkscape:window-x="0"
     inkscape:window-y="0"
     inkscape:window-maximized="1"
     inkscape:current-layer="svg71"
     inkscape:pagecheckerboard="0">
    <inkscape:grid
       type="xygrid"
       id="grid882" />
  </sodipodi:namedview>
  <defs
     id="defs12">
    <linearGradient
       inkscape:collect="always"
       id="linearGradient7369">
      <stop
         style="stop-color:#d4ba94;stop-opacity:1;"
         offset="0"
         id="stop7365" />
      <stop
         style="stop-color:#bb9d71;stop-opacity:1"
         offset="1"
         id="stop7367" />
    </linearGradient>
    <linearGradient
       inkscape:collect="always"
       id="linearGradient5340">
      <stop
         style="stop-color:#000000;stop-opacity:1;"
         offset="0"
         id="stop5336" />
      <stop
         style="stop-color:#000000;stop-opacity:0;"
         offset="1"
         id="stop5338" />
    </linearGradient>
    <linearGradient
       inkscape:collect="always"
       id="linearGradient4318">
      <stop
         style="stop-color:#fcfcfc;stop-opacity:1;"
         offset="0"
         id="stop4314" />
      <stop
         style="stop-color:#eff0f1;stop-opacity:1"
         offset="1"
         id="stop4316" />
    </linearGradient>
    <radialGradient
       id="l"
       cx="19.76264"
       cy="8.5"
       r="4"
       gradientTransform="matrix(7.4835576,-6.814988e-8,5.4400368e-8,1.5,-122.89485,1.2500015)"
       gradientUnits="userSpaceOnUse"
       fx="19.76264"
       fy="8.5">
      <stop
         stop-color="#4f575f"
         stop-opacity=".25098041"
         offset="0"
         id="stop2" />
      <stop
         stop-color="#8a939a"
         offset="1"
         id="stop4" />
    </radialGradient>
    <linearGradient
       id="k"
       x1="390.57101"
       x2="410.57101"
       y1="521.79797"
       y2="545.79797"
       gradientTransform="matrix(2,0,0,1.8333333,-771.142,-944.62968)"
       gradientUnits="userSpaceOnUse">
      <stop
         stop-color="#bdc3c7"
         offset="0"
         id="stop7" />
      <stop
         stop-color="#8a9696"
         offset="1"
         id="stop9" />
    </linearGradient>
    <radialGradient
       inkscape:collect="always"
       xlink:href="#b"
       id="radialGradient913"
       gradientUnits="userSpaceOnUse"
       gradientTransform="matrix(3.5,0,0,3,-32,-15.5)"
       cx="16"
       cy="8.5"
       r="4" />
    <linearGradient
       inkscape:collect="always"
       xlink:href="#e"
       id="linearGradient916"
       gradientUnits="userSpaceOnUse"
       gradientTransform="matrix(2,0,0,2,-776.142,-1031.596)"
       x1="395.57101"
       y1="520.79797"
       x2="395.57101"
       y2="516.79797" />
    <linearGradient
       inkscape:collect="always"
       xlink:href="#linearGradient4318"
       id="linearGradient4320"
       x1="21"
       y1="14"
       x2="27"
       y2="20"
       gradientUnits="userSpaceOnUse" />
    <linearGradient
       inkscape:collect="always"
       xlink:href="#linearGradient4318"
       id="linearGradient4678"
       x1="14"
       y1="14"
       x2="19"
       y2="16"
       gradientUnits="userSpaceOnUse" />
    <linearGradient
       inkscape:collect="always"
       xlink:href="#linearGradient5340"
       id="linearGradient5342"
       x1="33"
       y1="14"
       x2="34.5"
       y2="16"
       gradientUnits="userSpaceOnUse" />
    <linearGradient
       inkscape:collect="always"
       xlink:href="#linearGradient5340"
       id="linearGradient6071"
       x1="17"
       y1="14"
       x2="19"
       y2="16"
       gradientUnits="userSpaceOnUse" />
    <linearGradient
       inkscape:collect="always"
       xlink:href="#linearGradient7369"
       id="linearGradient7371"
       x1="17"
       y1="9"
       x2="25"
       y2="17"
       gradientUnits="userSpaceOnUse"
       gradientTransform="translate(1)" />
    <linearGradient
       inkscape:collect="always"
       xlink:href="#linearGradient1077"
       id="linearGradient1079"
       x1="12"
       y1="29"
       x2="20"
       y2="37"
       gradientUnits="userSpaceOnUse"
       gradientTransform="matrix(0.75,0,0,0.66666667,1.5,4)" />
    <linearGradient
       inkscape:collect="always"
       id="linearGradient1077">
      <stop
         style="stop-color:#9b4519;stop-opacity:1;"
         offset="0"
         id="stop1073" />
      <stop
         style="stop-color:#e38442;stop-opacity:1"
         offset="1"
         id="stop1075" />
    </linearGradient>
    <linearGradient
       inkscape:collect="always"
       xlink:href="#linearGradient1077"
       id="linearGradient1592"
       gradientUnits="userSpaceOnUse"
       x1="12"
       y1="29"
       x2="20"
       y2="37"
       gradientTransform="matrix(0.75,0,0,0.66666667,8.5,4)" />
    <linearGradient
       inkscape:collect="always"
       xlink:href="#linearGradient1077"
       id="linearGradient1615"
       gradientUnits="userSpaceOnUse"
       x1="12"
       y1="29"
       x2="20"
       y2="37"
       gradientTransform="matrix(0.75,0,0,0.66666667,15.5,4)" />
    <linearGradient
       inkscape:collect="always"
       xlink:href="#linearGradient1077"
       id="linearGradient1638"
       gradientUnits="userSpaceOnUse"
       x1="12"
       y1="29"
       x2="20"
       y2="37"
       gradientTransform="matrix(0.75,0,0,0.66666667,22.5,4)" />
  </defs>
  <linearGradient
     id="a">
    <stop
       stop-color="#4f575f"
       stop-opacity=".4"
       offset="0"
       id="stop14" />
    <stop
       stop-color="#4f575f"
       stop-opacity=".6"
       offset=".5"
       id="stop16" />
    <stop
       stop-color="#4f575f"
       stop-opacity=".4"
       offset="1"
       id="stop18" />
  </linearGradient>
  <radialGradient
     id="b"
     cx="16"
     cy="8.5"
     r="4"
     gradientTransform="matrix(3.5,0,0,3,-24,-13.5)"
     gradientUnits="userSpaceOnUse">
    <stop
       stop-color="#4f575f"
       stop-opacity=".25"
       offset="0"
       id="stop21" />
    <stop
       stop-color="#9da5ab"
       offset="1"
       id="stop23" />
  </radialGradient>
  <linearGradient
     id="c"
     x1="412.57101"
     x2="412.57101"
     y1="522.79797"
     y2="520.79797"
     gradientTransform="matrix(2,0,0,2,-770.142,-1031.596)"
     gradientUnits="userSpaceOnUse">
    <stop
       stop-color="#9da5ab"
       offset="0"
       id="stop26" />
    <stop
       stop-color="#bdc3c7"
       offset="1"
       id="stop28" />
  </linearGradient>
  <linearGradient
     id="e"
     x1="395.57101"
     x2="395.57101"
     y1="520.79797"
     y2="516.79797"
     gradientTransform="matrix(2,0,0,2,-769.142,-1029.596)"
     gradientUnits="userSpaceOnUse">
    <stop
       stop-color="#afb0b3"
       offset="0"
       id="stop31" />
    <stop
       stop-color="#bdc3c7"
       offset="1"
       id="stop33" />
  </linearGradient>
  <linearGradient
     id="f"
     x1="390.57101"
     x2="406.57101"
     y1="521.79797"
     y2="537.79797"
     gradientTransform="matrix(2,0,0,1.9090909,-782.142,-964.97798)"
     gradientUnits="userSpaceOnUse">
    <stop
       stop-color="#292c2f"
       offset="0"
       id="stop36" />
    <stop
       stop-opacity="0"
       offset="1"
       id="stop38" />
  </linearGradient>
  <linearGradient
     id="g"
     x1="391.57101"
     x2="394.57101"
     y1="534.79797"
     y2="534.79797"
     gradientTransform="matrix(1.000005,0,0,1.2,-372.57051,-613.75756)"
     gradientUnits="userSpaceOnUse"
     xlink:href="#a" />
  <linearGradient
     id="h"
     x1="391.57101"
     x2="394.57101"
     y1="534.79797"
     y2="534.79797"
     gradientTransform="matrix(1.000005,0,0,1.1999999,-379.572,-613.7575)"
     gradientUnits="userSpaceOnUse"
     xlink:href="#a" />
  <linearGradient
     id="i"
     x1="391.57101"
     x2="394.57101"
     y1="534.79797"
     y2="534.79797"
     gradientTransform="matrix(1.000005,0,0,1.2,-365.57202,-613.75756)"
     gradientUnits="userSpaceOnUse"
     xlink:href="#a" />
  <linearGradient
     id="j"
     x1="391.57101"
     x2="394.57101"
     y1="534.79797"
     y2="534.79797"
     gradientTransform="matrix(1.000005,0,0,1.2,-358.57051,-613.75756)"
     gradientUnits="userSpaceOnUse"
     xlink:href="#a" />
  <path
     id="rect1200"
     d="m 12,14 4,-4 4,4 11,-4 4,4 -17,8 -6,-7 z"
     sodipodi:nodetypes="cccccccc"
     style="fill:url(#linearGradient7371);fill-opacity:1;stroke-width:0.5" />
  <path
     d="M 10,14 V 42.166668 C 10,43.182332 10.892,44 12,44 h 24 c 1.108,0 1.932811,-0.819893 2,-1.833332 V 14 Z"
     fill="url(#k)"
     stroke-width="1.91485"
     id="path45"
     style="fill:url(#k)"
     sodipodi:nodetypes="csssscc" />
  <path
     d="m 10,41.166016 v 1 C 10,43.18168 10.892,44 12,44 h 24 c 1.108,0 2,-0.81832 2,-1.833984 v -1 C 38,42.18168 37.108,43 36,43 H 12 c -1.108,0 -2,-0.81832 -2,-1.833984 z"
     opacity="0.2"
     stroke-width="1.91485"
     id="path69"
     sodipodi:nodetypes="csssscssc" />
  <path
     id="rect883"
     style="opacity:0.99;fill:url(#linearGradient1079);stroke-width:0.707107"
     d="m 13.5,16 c 0.831,0 1.5,0.761334 1.5,1.5 v 21 C 15,39.238666 14.331,40 13.5,40 12.669,40 12,39.238666 12,38.5 v -21 C 12,16.761334 12.669,16 13.5,16 Z"
     sodipodi:nodetypes="sssssss" />
  <path
     id="rect883-7"
     style="opacity:0.99;fill:url(#linearGradient1592);stroke-width:0.707107"
     d="m 20.5,16 c 0.831,0 1.5,0.761334 1.5,1.5 v 21 C 22,39.238666 21.331,40 20.5,40 19.669,40 19,39.238666 19,38.5 v -21 C 19,16.761334 19.669,16 20.5,16 Z"
     sodipodi:nodetypes="sssssss" />
  <path
     id="rect883-5"
     style="opacity:0.99;fill:url(#linearGradient1615);stroke-width:0.707107"
     d="m 27.5,16 c 0.831,0 1.5,0.761334 1.5,1.5 v 21 C 29,39.238666 28.331,40 27.5,40 26.669,40 26,39.238666 26,38.5 v -21 C 26,16.761334 26.669,16 27.5,16 Z"
     sodipodi:nodetypes="sssssss" />
  <path
     id="rect883-9"
     style="opacity:0.99;fill:url(#linearGradient1638);stroke-width:0.707107"
     d="m 34.5,16 c 0.831,0 1.5,0.761334 1.5,1.5 v 21 C 36,39.238666 35.331,40 34.5,40 33.669,40 33,39.238666 33,38.5 v -21 C 33,16.761334 33.669,16 34.5,16 Z"
     sodipodi:nodetypes="sssssss" />
  <g
     id="g4986"
     transform="rotate(80,23.10308,28.458768)">
    <path
       inkscape:connector-curvature="0"
       style="fill:url(#c);stroke-width:2"
       id="path51"
       d="m 9,10 c -1.108,0 -2,0.892 -2,2 v 2 h 34 v -2 c 0,-1.108 -0.892,-2 -2,-2 z"
       sodipodi:nodetypes="ssccsss" />
    <path
       sodipodi:nodetypes="ssccccccccsss"
       style="fill:url(#linearGradient916);stroke-width:2"
       inkscape:connector-curvature="0"
       id="path47"
       d="m 17,5 c -1.108,0 -2,0.892 -2,2 v 3 h 3 V 8.5 C 17.99939,8.236608 18.203217,8.01791 18.466,8 h 11.07 C 29.797993,8.01891 30.000682,8.237327 30,8.5 V 10 h 3 V 7 C 33,5.892 32.108,5 31,5 Z" />
    <path
       sodipodi:nodetypes="ssccccccccsss"
       style="fill:url(#radialGradient913);stroke-width:2"
       inkscape:connector-curvature="0"
       id="path49"
       d="m 18,7 c -0.554,0 -1,0.446 -1,1 v 2 h 1 V 8.5 C 17.99939,8.236608 18.203217,8.01791 18.466,8 h 11.07 C 29.797993,8.01891 30.000682,8.237327 30,8.5 V 10 h 1 V 8 C 31,7.446 30.554,7 30,7 Z" />
    <path
       d="M 7,14 H 41 V 13 H 7.105236 Z"
       id="path67"
       style="fill:url(#l);stroke-width:1.41266"
       inkscape:connector-curvature="0"
       sodipodi:nodetypes="ccccc" />
  </g>
  <path
     id="rect5010"
     style="fill:url(#linearGradient5342);fill-opacity:1;opacity:0.2"
     d="m 27,20 6,-6 h 5 v 18 z"
     sodipodi:nodetypes="ccccc" />
  <path
     id="rect5830"
     style="opacity:0.2;fill-opacity:1;fill:url(#linearGradient6071)"
     d="m 14,14 h 7 l 6,6 -9,2 z"
     sodipodi:nodetypes="ccccc" />
  <path
     id="rect3722-6"
     style="stroke-width:1.49999;fill:url(#linearGradient4678);fill-opacity:1"
     d="m 14,14 h 12 v 3 l -9,3 z"
     sodipodi:nodetypes="ccccc" />
  <path
     id="rect3722"
     style="fill:url(#linearGradient4320);fill-opacity:1;stroke-width:1.49999"
     d="m 21,14 h 12 l -6,6 z"
     sodipodi:nodetypes="cccc" />
</svg>
