<?xml version="1.0" encoding="UTF-8" standalone="no"?>
<svg
   width="22"
   height="22"
   version="1"
   id="svg23"
   sodipodi:docname="firefox.svg"
   inkscape:version="1.1 (c4e8f9ed74, 2021-05-24)"
   xmlns:inkscape="http://www.inkscape.org/namespaces/inkscape"
   xmlns:sodipodi="http://sodipodi.sourceforge.net/DTD/sodipodi-0.dtd"
   xmlns:xlink="http://www.w3.org/1999/xlink"
   xmlns="http://www.w3.org/2000/svg"
   xmlns:svg="http://www.w3.org/2000/svg"
   xmlns:rdf="http://www.w3.org/1999/02/22-rdf-syntax-ns#"
   xmlns:cc="http://creativecommons.org/ns#"
   xmlns:dc="http://purl.org/dc/elements/1.1/">
  <metadata
     id="metadata29">
    <rdf:RDF>
      <cc:Work
         rdf:about="">
        <dc:format>image/svg+xml</dc:format>
        <dc:type
           rdf:resource="http://purl.org/dc/dcmitype/StillImage" />
      </cc:Work>
    </rdf:RDF>
  </metadata>
  <defs
     id="defs27">
    <linearGradient
       id="linearGradient855"
       inkscape:collect="always">
      <stop
         id="stop851"
         offset="0"
         style="stop-color:#f55c3f;stop-opacity:1" />
      <stop
         id="stop853"
         offset="1"
         style="stop-color:#fff14a;stop-opacity:1" />
    </linearGradient>
    <linearGradient
       inkscape:collect="always"
       id="linearGradient847">
      <stop
         style="stop-color:#ff8539;stop-opacity:1"
         offset="0"
         id="stop843" />
      <stop
         style="stop-color:#ffbe38;stop-opacity:1"
         offset="1"
         id="stop845" />
    </linearGradient>
    <linearGradient
       inkscape:collect="always"
       id="linearGradient906">
      <stop
         style="stop-color:#e70a67;stop-opacity:1;"
         offset="0"
         id="stop902" />
      <stop
         style="stop-color:#fff14a;stop-opacity:1"
         offset="1"
         id="stop904" />
    </linearGradient>
    <linearGradient
       inkscape:collect="always"
       id="linearGradient890">
      <stop
         style="stop-color:#f58140;stop-opacity:1"
         offset="0"
         id="stop886" />
      <stop
         style="stop-color:#fff14a;stop-opacity:1"
         offset="1"
         id="stop888" />
    </linearGradient>
    <linearGradient
       inkscape:collect="always"
       id="linearGradient882">
      <stop
         style="stop-color:#ff3941;stop-opacity:1"
         offset="0"
         id="stop878" />
      <stop
         style="stop-color:#ffaf16;stop-opacity:1"
         offset="1"
         id="stop880" />
    </linearGradient>
    <linearGradient
       inkscape:collect="always"
       id="linearGradient874">
      <stop
         style="stop-color:#583db7;stop-opacity:1"
         offset="0"
         id="stop870" />
      <stop
         style="stop-color:#b435e2;stop-opacity:1"
         offset="1"
         id="stop872" />
    </linearGradient>
    <linearGradient
       inkscape:collect="always"
       xlink:href="#linearGradient874"
       id="linearGradient876"
       x1="24.228001"
       y1="33.066002"
       x2="24.228001"
       y2="14.315143"
       gradientUnits="userSpaceOnUse"
       gradientTransform="matrix(0.49999999,0,0,0.49999999,-1,-0.5000001)" />
    <linearGradient
       inkscape:collect="always"
       xlink:href="#linearGradient882"
       id="linearGradient884"
       x1="21.855875"
       y1="39.163845"
       x2="28.850494"
       y2="18.103121"
       gradientUnits="userSpaceOnUse"
       gradientTransform="matrix(0.49999999,0,0,0.49999999,-1,-0.5000001)" />
    <linearGradient
       inkscape:collect="always"
       xlink:href="#linearGradient890"
       id="linearGradient892"
       x1="35.634674"
       y1="23.344957"
       x2="30.353409"
       y2="3.6350102"
       gradientUnits="userSpaceOnUse"
       gradientTransform="matrix(0.49999999,0,0,0.49999999,-1,-0.5000001)" />
    <linearGradient
       inkscape:collect="always"
       xlink:href="#linearGradient855"
       id="linearGradient900"
       x1="31.222618"
       y1="30.57012"
       x2="29.698462"
       y2="18.11816"
       gradientUnits="userSpaceOnUse"
       gradientTransform="matrix(0.49999999,0,0,0.49999999,-1,-0.5000001)" />
    <linearGradient
       inkscape:collect="always"
       xlink:href="#linearGradient906"
       id="linearGradient908"
       x1="24.522755"
       y1="42.843544"
       x2="36.621059"
       y2="17.017258"
       gradientUnits="userSpaceOnUse"
       gradientTransform="matrix(0.49999999,0,0,0.49999999,-1,-0.5000001)" />
    <linearGradient
       inkscape:collect="always"
       xlink:href="#linearGradient847"
       id="linearGradient849"
       x1="14.953329"
       y1="15.010217"
       x2="17.321199"
       y2="10.235444"
       gradientUnits="userSpaceOnUse"
       gradientTransform="matrix(0.49999999,0,0,0.49999999,-1,-0.5000001)" />
  </defs>
  <sodipodi:namedview
     pagecolor="#ffffff"
     bordercolor="#666666"
     borderopacity="1"
     objecttolerance="10"
     gridtolerance="10"
     guidetolerance="10"
     inkscape:pageopacity="0"
     inkscape:pageshadow="2"
     inkscape:window-width="1920"
     inkscape:window-height="1018"
     id="namedview25"
     showgrid="false"
     inkscape:zoom="13.01"
     inkscape:cx="26.441199"
     inkscape:cy="10.991545"
     inkscape:window-x="0"
     inkscape:window-y="0"
     inkscape:window-maximized="1"
     inkscape:current-layer="svg23"
     inkscape:pagecheckerboard="0" />
  <path
     style="fill:url(#linearGradient892);fill-opacity:1;stroke-width:0.5"
     d="m 14.144638,0.5 c 0.421835,1.1229767 1.947301,2.8569853 3.95937,5.4339594 1.704028,2.1824495 1.89932,4.6174316 2.529269,6.8067626 l -4.734891,4.075302 -5.348387,-5.49052 C 10.525983,7.675416 9.6498844,3.5548758 14.144638,0.5 Z"
     id="path4" />
  <circle
     style="fill:url(#linearGradient876);fill-opacity:1;stroke-width:0.5"
     cx="10.999999"
     cy="11.500001"
     r="5"
     id="circle10" />
  <path
     style="fill:url(#linearGradient849);fill-opacity:1;stroke-width:0.5"
     d="M 4.478202,7.3570015 C 5.172869,6.667706 6.307184,5.0626564 7.6606,4.6177219 7.2969884,6.5558059 7.7683795,7.171803 8.00301,8.1626714 L 5.8276999,7.598702 Z"
     id="path8" />
  <path
     style="fill:url(#linearGradient900);fill-opacity:1;stroke-width:0.5"
     d="m 12.869436,8.1173779 c -0.07112,7e-4 -0.14221,0.0032 -0.213201,0.00757 1.448101,0.6797775 2.373584,2.1344881 2.37569,3.7342041 -0.0011,2.197923 -1.722932,4.060385 -3.917925,4.173844 0.548864,0.259707 1.148232,0.345028 1.755436,0.346718 2.281581,2.3e-5 4.131186,-1.849543 4.131215,-4.131124 2.2e-5,-2.281617 -1.8496,-4.1312375 -4.131215,-4.131217 z"
     id="path12" />
  <path
     id="ellipse841"
     style="fill:url(#linearGradient908);fill-opacity:1;stroke-width:0.5"
     d="M 4.6918539,7.9534739 C 2.3526224,9.762459 1.0000398,8.4537564 1.0000398,11.616841 1.0000398,17.075159 5.4771834,21.5 11.00002,21.5 16.522856,21.5 21,17.075159 21,11.616841 21,9.0756244 20.029524,6.7584064 18.434931,5.0074435 c 0.03556,-0.00135 -0.149121,-0.1433065 -0.244323,-0.107877 0.666618,1.1049349 1.050305,2.3997695 1.050305,3.7843088 0,4.0517997 -2.253445,8.0658097 -6.305247,8.0658097 C 10.33322,16.876006 6.8664745,15.212281 6.3328905,13.655433 5.988637,12.650997 6.0755339,11.52289 7.012141,10.898423 7.520875,10.575484 8.2625665,10.256628 9.4359797,10.219184 10.507892,9.514233 9.9863372,9.594419 9.934777,9.3809879 9.6017944,9.2899348 9.0107205,9.1641039 8.194618,8.5217993 7.471786,7.9529025 7.1360604,7.7371855 5.0295824,7.717509 4.6316294,6.9512265 4.7308599,8.8633349 4.6918539,7.9534739 Z" />
  <path
     style="fill:url(#linearGradient884);fill-opacity:1;stroke-width:0.5"
     d="M 4.8427734,3.8291016 C 2.6036745,5.5606515 1.1337537,8.2157764 1.0117188,11.213867 1.1397623,15.8085 5.3339789,19.5 10.5,19.5 15.746706,19.5 20,15.69442 20,11 20,9.734829 19.688812,8.5350119 19.134766,7.4560545 c 0.06742,0.399631 0.106456,0.8087183 0.106456,1.2275393 0,4.0518002 -3.285112,7.3369142 -7.336914,7.3369142 C 9.3018566,16.146823 7.3441375,14.709192 6.8105535,13.152344 6.4662935,12.147907 6.579018,11.724076 7.515625,11.099608 8.024359,10.776671 8.7406488,10.557951 9.9140631,10.520508 10.985973,9.815557 11.068163,9.544486 11.016601,9.3310544 10.683619,9.2400014 9.7653214,8.8874214 8.9492194,8.2451168 8.2263865,7.67622 7.3125325,6.5296764 5.2060545,6.5099999 4.8081015,5.7437174 4.8817794,4.7389624 4.8427734,3.8291016 Z"
     id="path17" />
  <path
     style="fill:#ffba36;stroke-width:0.5"
     d="M 5.46785,9.0028764 C 4.7873319,8.9881124 4.07139,9.2214874 3.6163093,9.532045 c -0.081513,0.08151 0.7923437,1.557088 2.3132621,1.573084 -0.1408169,2.453404 1.82061,3.979076 3.053622,4.33408 l 3.741e-4,-0.0011 c -3.255e-4,-1.67e-4 -6.497e-4,-3.77e-4 -10e-4,-5.5e-4 -0.099356,-0.04926 -0.1960048,-0.101063 -0.2899561,-0.155245 -0.00875,-0.0051 -0.017463,-0.01024 -0.0262,-0.01533 -0.052513,-0.0307 -0.1041377,-0.06213 -0.15488,-0.09428 -0.00987,-0.0063 -0.019884,-0.0126 -0.029754,-0.01889 -0.050796,-0.03267 -0.1006346,-0.06606 -0.149587,-0.100118 -0.00768,-0.0054 -0.015455,-0.01063 -0.02309,-0.01597 -0.028101,-0.01979 -0.055948,-0.03974 -0.083419,-0.05996 -0.053874,-0.03966 -0.106386,-0.08022 -0.1578011,-0.121472 -0.012206,-0.0097 -0.024266,-0.01961 -0.036325,-0.02948 -0.036415,-0.02982 -0.072208,-0.05996 -0.1073296,-0.09054 -0.017101,-0.01487 -0.03405,-0.02985 -0.050836,-0.0449 -0.024374,-0.02188 -0.048475,-0.04385 -0.072193,-0.06607 -0.02292,-0.02145 -0.045609,-0.04302 -0.067902,-0.0648 -0.018395,-0.01798 -0.03661,-0.03603 -0.054578,-0.05421 -0.026115,-0.02641 -0.051831,-0.05302 -0.077029,-0.07986 -4.861e-4,-5.01e-4 -9.5e-4,-0.0011 -0.00144,-0.0014 -0.015579,-0.01663 -0.030776,-0.03343 -0.046001,-0.0502 -0.021455,-0.02362 -0.042594,-0.04735 -0.063339,-0.07127 -0.016335,-0.01885 -0.03248,-0.03775 -0.04837,-0.05678 -0.02115,-0.0253 -0.0418,-0.05081 -0.062152,-0.07639 -0.011471,-0.01445 -0.023095,-0.02882 -0.034315,-0.04335 -0.025525,-0.03302 -0.050193,-0.06637 -0.074382,-0.09985 -0.00963,-0.01334 -0.019235,-0.02666 -0.02866,-0.04006 -0.025145,-0.03575 -0.049595,-0.07169 -0.073197,-0.107874 -0.00644,-0.0098 -0.012653,-0.01983 -0.018985,-0.02975 -0.02346,-0.03675 -0.046325,-0.07357 -0.068176,-0.11071 -0.00465,-0.0079 -0.00913,-0.01576 -0.013689,-0.02364 -0.02202,-0.0381 -0.043036,-0.07645 -0.06334,-0.114896 -0.00375,-0.0071 -0.0077,-0.01422 -0.011419,-0.02135 -0.02121,-0.04088 -0.041265,-0.08199 -0.06051,-0.123217 -0.00406,-0.0087 -0.00801,-0.01727 -0.011944,-0.02592 -0.01884,-0.04132 -0.036835,-0.08273 -0.053666,-0.124307 -0.00265,-0.0066 -0.00513,-0.01322 -0.00776,-0.0198 -0.017555,-0.04425 -0.034315,-0.08858 -0.04956,-0.133068 -0.3442642,-1.004628 -0.2322162,-1.42851 0.7043908,-2.052978 0.508734,-0.322938 1.2252741,-0.541191 2.3986875,-0.578635 1.071911,-0.70495 1.15398,-0.976877 1.102417,-1.1903087 C 9.2084342,10.763735 7.5197114,9.542148 5.929677,9.0548024 5.7800509,9.0228623 5.624907,9.0062773 5.4678644,9.0028714 Z"
     id="path19" />
  <path
     style="opacity:0.2;fill:#000000;stroke-width:0.5"
     d="M 1.006836,11.384765 C 1.0049067,11.463135 1,11.532561 1,11.617188 1,17.075505 5.4771635,21.5 11.000001,21.5 16.522837,21.5 21,17.075505 21,11.617188 21,11.559268 20.9933,11.503 20.9921,11.445313 c -0.175719,5.305858 -4.580805,9.554688 -9.992124,9.554688 -5.4318956,0 -9.8490618,-4.281178 -9.993165,-9.615236 z"
     id="path865"
     inkscape:connector-curvature="0"
     sodipodi:nodetypes="cssscsc" />
</svg>
