<?xml version="1.0" encoding="UTF-8" standalone="no"?>
<!-- Created with Inkscape (http://www.inkscape.org/) -->

<svg
   width="64"
   version="1.1"
   height="64"
   viewBox="0 0 64 64"
   id="svg2"
   inkscape:version="1.1 (c4e8f9ed74, 2021-05-24)"
   sodipodi:docname="folder.svg"
   xmlns:inkscape="http://www.inkscape.org/namespaces/inkscape"
   xmlns:sodipodi="http://sodipodi.sourceforge.net/DTD/sodipodi-0.dtd"
   xmlns:xlink="http://www.w3.org/1999/xlink"
   xmlns="http://www.w3.org/2000/svg"
   xmlns:svg="http://www.w3.org/2000/svg"
   xmlns:rdf="http://www.w3.org/1999/02/22-rdf-syntax-ns#"
   xmlns:cc="http://creativecommons.org/ns#"
   xmlns:dc="http://purl.org/dc/elements/1.1/">
  <sodipodi:namedview
     pagecolor="#ffffff"
     bordercolor="#666666"
     borderopacity="1"
     objecttolerance="10"
     gridtolerance="10"
     guidetolerance="10"
     inkscape:pageopacity="0"
     inkscape:pageshadow="2"
     inkscape:window-width="1920"
     inkscape:window-height="1018"
     id="namedview17"
     showgrid="true"
     inkscape:zoom="3.2109375"
     inkscape:cx="124.26277"
     inkscape:cy="98.725061"
     inkscape:window-x="0"
     inkscape:window-y="32"
     inkscape:window-maximized="1"
     inkscape:current-layer="layer1"
     inkscape:pagecheckerboard="0">
    <inkscape:grid
       type="xygrid"
       id="grid830" />
  </sodipodi:namedview>
  <defs
     id="defs5455">
    <linearGradient
       inkscape:collect="always"
       id="linearGradient1288">
      <stop
         style="stop-color:#46a2d7;stop-opacity:0.5"
         offset="0"
         id="stop1284" />
      <stop
         style="stop-color:#46a2d7;stop-opacity:0"
         offset="0.2586205"
         id="stop1676" />
      <stop
         style="stop-color:#46a2d7;stop-opacity:0;"
         offset="0.74220163"
         id="stop2382" />
      <stop
         style="stop-color:#46a2d7;stop-opacity:0.5"
         offset="1"
         id="stop1286" />
    </linearGradient>
    <linearGradient
       id="linearGradient4172-7">
      <stop
         style="stop-color:#4183d7"
         id="stop4174-9" />
      <stop
         offset="1"
         style="stop-color:#5b94df"
         id="stop4176-4" />
    </linearGradient>
    <linearGradient
       inkscape:collect="always"
       id="linearGradient4172-5">
      <stop
         style="stop-color:#83d4fb"
         id="stop4174-6" />
      <stop
         offset="1"
         style="stop-color:#60c0f0"
         id="stop4176-6" />
    </linearGradient>
    <linearGradient
       inkscape:collect="always"
       xlink:href="#linearGradient4172-5"
       id="linearGradient840"
       gradientUnits="userSpaceOnUse"
       x1="429.57144"
       y1="541.79797"
       x2="429.57144"
       y2="496.798"
       gradientTransform="translate(-5e-6,-5e-5)" />
    <linearGradient
       inkscape:collect="always"
       xlink:href="#linearGradient1288"
       id="linearGradient1290"
       x1="387.57144"
       y1="518.798"
       x2="445.57144"
       y2="518.798"
       gradientUnits="userSpaceOnUse" />
  </defs>
  <metadata
     id="metadata5458">
    <rdf:RDF>
      <cc:Work
         rdf:about="">
        <dc:format>image/svg+xml</dc:format>
        <dc:type
           rdf:resource="http://purl.org/dc/dcmitype/StillImage" />
      </cc:Work>
    </rdf:RDF>
  </metadata>
  <g
     inkscape:label="Capa 1"
     inkscape:groupmode="layer"
     id="layer1"
     transform="translate(-384.57143,-483.798)">
    <path
       d="m 387.57143,503.79807 v 1 h 20 l 3,-5 -4,4 z"
       id="path4224"
       style="fill:#ffffff;fill-opacity:0.235294;fill-rule:evenodd"
       inkscape:connector-curvature="0" />
    <path
       sodipodi:nodetypes="ccccccc"
       inkscape:connector-curvature="0"
       id="rect4160"
       d="m 387.57143,489.79795 h 24 l 5,6 h 29 v 38 h -58 z"
       style="fill:#46a2d7;fill-opacity:1;fill-rule:evenodd;stroke:none;stroke-width:1px;stroke-linecap:butt;stroke-linejoin:miter;stroke-opacity:1" />
    <path
       sodipodi:nodetypes="cccccccc"
       inkscape:connector-curvature="0"
       style="fill:#ffffff;fill-opacity:0.235294;fill-rule:evenodd"
       id="path4166"
       d="m 411.57143,489.79795 5,7 h 2 27 v -1 h -27 -2 z" />
    <path
       sodipodi:nodetypes="ccccccc"
       inkscape:connector-curvature="0"
       id="rect3347"
       d="m 387.57143,502.79795 h 24 l 5,-6 h 29 v 45 h -58 z"
       style="fill:url(#linearGradient840);fill-opacity:1;fill-rule:evenodd;stroke:none;stroke-width:1px;stroke-linecap:butt;stroke-linejoin:miter;stroke-opacity:1" />
    <path
       d="m 416.57143,496.79795 -4,7 h -4 -21 v -1 h 21 3 z"
       id="path4168"
       style="fill:#ffffff;fill-opacity:0.235294;fill-rule:evenodd"
       inkscape:connector-curvature="0"
       sodipodi:nodetypes="cccccccc" />
    <path
       sodipodi:nodetypes="cccccc"
       d="m 387.57143,501.79795 v 1 h 24 l 5,-6 -6,5 z"
       id="path4228"
       style="fill:#000000;fill-opacity:0.235294;fill-rule:evenodd"
       inkscape:connector-curvature="0" />
    <path
       d="m 387.57143,540.79805 v 1 h 1 56 1 v -1 h -1 -56 z"
       id="path4151-2"
       style="fill-opacity:0.235294"
       inkscape:connector-curvature="0" />
    <path
       id="rect867"
       style="fill:url(#linearGradient1290);stroke-width:20;fill-opacity:1"
       d="m 387.57144,503.798 h 24.99999 l 4,-7 h 29 l 10e-6,44 h -58 z"
       sodipodi:nodetypes="ccccccc" />
    <path
       style="fill:#46a2d7;color:#000000;stroke-linejoin:round"
       id="path3023"
       d="M 32 28 A 7 7 0 0 0 25 35 A 7 7 0 0 0 25.080078 36.001953 A 5 5 0 0 0 25 36 A 5 5 0 0 0 20 41 A 5 5 0 0 0 25 46 L 38 46 A 6 6 0 0 0 44 40 A 6 6 0 0 0 38.931641 34.078125 A 7 7 0 0 0 32 28 z M 32 29 A 6 6 0 0 1 32.599609 29.029297 A 6 6 0 0 1 35.386719 30.048828 A 6 6 0 0 1 35.388672 30.048828 A 6 6 0 0 1 36.699219 31.269531 A 6 6 0 0 1 36.699219 31.271484 A 6 6 0 0 1 37.914062 34.003906 A 6 6 0 0 1 38 35 A 5 5 0 0 1 38.996094 35.099609 A 5 5 0 0 1 39.478516 35.222656 A 5 5 0 0 1 39.480469 35.222656 A 5 5 0 0 1 39.947266 35.394531 A 5 5 0 0 1 39.949219 35.394531 A 5 5 0 0 1 40.396484 35.611328 A 5 5 0 0 1 40.400391 35.613281 A 5 5 0 0 1 40.822266 35.873047 A 5 5 0 0 1 40.826172 35.875 A 5 5 0 0 1 41.220703 36.175781 A 5 5 0 0 1 41.222656 36.177734 A 5 5 0 0 1 41.585938 36.515625 A 5 5 0 0 1 41.587891 36.517578 A 5 5 0 0 1 42.207031 37.298828 A 5 5 0 0 1 42.208984 37.300781 A 5 5 0 0 1 42.455078 37.732422 A 5 5 0 0 1 42.457031 37.734375 A 5 5 0 0 1 42.660156 38.1875 A 5 5 0 0 1 42.662109 38.189453 A 5 5 0 0 1 42.818359 38.662109 A 5 5 0 0 1 42.818359 38.664062 A 5 5 0 0 1 42.927734 39.150391 A 5 5 0 0 1 42.927734 39.152344 A 5 5 0 0 1 42.988281 39.646484 A 5 5 0 0 1 43 40 A 5 5 0 0 1 38 45 L 25 45 A 4 4 0 0 1 21 41 A 4 4 0 0 1 21.019531 40.601562 A 4 4 0 0 1 25 37 A 4 4 0 0 1 25.298828 37.013672 A 4 4 0 0 1 25.298828 37.015625 A 4 4 0 0 1 26.455078 37.277344 A 6 6 0 0 1 26.113281 36.130859 A 6 6 0 0 1 26.039062 35.623047 A 6 6 0 0 1 26.025391 35.507812 A 6 6 0 0 1 26 35 A 6 6 0 0 1 26.029297 34.400391 A 6 6 0 0 1 32 29 z "
       transform="matrix(1 0 0 1 384.57143 483.798)"/>
  </g>
</svg>
