<?xml version="1.0" encoding="UTF-8" standalone="no"?>
<svg
   version="1.1"
   viewBox="0 0 64 64"
   id="svg71"
   sodipodi:docname="user-trash-full.svg"
   inkscape:version="1.1.1 (3bf5ae0d25, 2021-09-20)"
   xmlns:inkscape="http://www.inkscape.org/namespaces/inkscape"
   xmlns:sodipodi="http://sodipodi.sourceforge.net/DTD/sodipodi-0.dtd"
   xmlns:xlink="http://www.w3.org/1999/xlink"
   xmlns="http://www.w3.org/2000/svg"
   xmlns:svg="http://www.w3.org/2000/svg"
   xmlns:rdf="http://www.w3.org/1999/02/22-rdf-syntax-ns#"
   xmlns:cc="http://creativecommons.org/ns#"
   xmlns:dc="http://purl.org/dc/elements/1.1/">
  <metadata
     id="metadata75">
    <rdf:RDF>
      <cc:Work
         rdf:about="">
        <dc:format>image/svg+xml</dc:format>
        <dc:type
           rdf:resource="http://purl.org/dc/dcmitype/StillImage" />
      </cc:Work>
    </rdf:RDF>
  </metadata>
  <sodipodi:namedview
     pagecolor="#ffffff"
     bordercolor="#666666"
     borderopacity="1"
     objecttolerance="10"
     gridtolerance="10"
     guidetolerance="10"
     inkscape:pageopacity="0"
     inkscape:pageshadow="2"
     inkscape:window-width="1920"
     inkscape:window-height="1007"
     id="namedview73"
     showgrid="true"
     inkscape:zoom="6.5525229"
     inkscape:cx="-3.8153243"
     inkscape:cy="23.273478"
     inkscape:window-x="0"
     inkscape:window-y="0"
     inkscape:window-maximized="1"
     inkscape:current-layer="svg71"
     inkscape:pagecheckerboard="0">
    <inkscape:grid
       type="xygrid"
       id="grid882" />
  </sodipodi:namedview>
  <defs
     id="defs12">
    <linearGradient
       inkscape:collect="always"
       id="linearGradient1699">
      <stop
         style="stop-color:#d4ba94;stop-opacity:1;"
         offset="0"
         id="stop1695" />
      <stop
         style="stop-color:#bb9d71;stop-opacity:1"
         offset="1"
         id="stop1697" />
    </linearGradient>
    <linearGradient
       inkscape:collect="always"
       id="linearGradient959">
      <stop
         style="stop-color:#fcfcfc;stop-opacity:1;"
         offset="0"
         id="stop955" />
      <stop
         style="stop-color:#eff0f1;stop-opacity:1"
         offset="1"
         id="stop957" />
    </linearGradient>
    <radialGradient
       id="l"
       cx="20.571428"
       cy="8.5"
       r="4"
       gradientTransform="matrix(7.4835576,-6.814988e-8,5.4400368e-8,1.5,-135.89485,-10.749999)"
       gradientUnits="userSpaceOnUse">
      <stop
         stop-opacity=".25098041"
         offset="0"
         id="stop2"
         style="stop-color:#aeb4bc;stop-opacity:0.25098041" />
      <stop
         offset="1"
         id="stop4"
         style="stop-color:#b2b8bc;stop-opacity:1" />
    </radialGradient>
    <linearGradient
       id="k"
       x1="390.57101"
       x2="410.57101"
       y1="521.79797"
       y2="545.79797"
       gradientTransform="matrix(2,0,0,1.8333333,-769.142,-942.62968)"
       gradientUnits="userSpaceOnUse">
      <stop
         offset="0"
         id="stop7"
         style="stop-color:#cbd0d0;stop-opacity:1" />
      <stop
         offset="1"
         id="stop9"
         style="stop-color:#e5e7e7;stop-opacity:1" />
    </linearGradient>
    <linearGradient
       inkscape:collect="always"
       xlink:href="#linearGradient959"
       id="linearGradient961"
       x1="30"
       y1="14"
       x2="38"
       y2="22"
       gradientUnits="userSpaceOnUse" />
    <linearGradient
       inkscape:collect="always"
       xlink:href="#linearGradient959"
       id="linearGradient1319"
       x1="18"
       y1="14"
       x2="25"
       y2="17"
       gradientUnits="userSpaceOnUse" />
    <linearGradient
       inkscape:collect="always"
       xlink:href="#linearGradient1699"
       id="linearGradient1701"
       x1="20"
       y1="4"
       x2="30"
       y2="14"
       gradientUnits="userSpaceOnUse" />
    <linearGradient
       id="linearGradient2854"
       x1="390.57101"
       x2="406.57101"
       y1="521.79797"
       y2="537.79797"
       gradientTransform="matrix(2,0,0,1.9090909,-769.142,-980.1598)"
       gradientUnits="userSpaceOnUse">
      <stop
         stop-color="#292c2f"
         offset="0"
         id="stop36-3" />
      <stop
         stop-opacity="0"
         offset="1"
         id="stop38-6" />
    </linearGradient>
    <linearGradient
       inkscape:collect="always"
       xlink:href="#f"
       id="linearGradient2858"
       gradientUnits="userSpaceOnUse"
       gradientTransform="matrix(2,0,0,1.9090909,-769.142,-982.1598)"
       x1="407.57101"
       y1="521.79797"
       x2="408.57101"
       y2="523.89325" />
    <linearGradient
       inkscape:collect="always"
       xlink:href="#f"
       id="linearGradient4275"
       gradientUnits="userSpaceOnUse"
       gradientTransform="matrix(2,0,0,1.9090909,-769.142,-980.1598)"
       x1="398.57101"
       y1="520.75037"
       x2="399.57101"
       y2="522.84564" />
    <linearGradient
       id="c-5"
       x1="412.57101"
       x2="412.57101"
       y1="522.79797"
       y2="520.79797"
       gradientTransform="matrix(-0.17431149,-1.9923893,-1.9923893,0.17431149,1162.8571,741.32853)"
       gradientUnits="userSpaceOnUse">
      <stop
         offset="0"
         id="stop26-3"
         style="stop-color:#e3e5e7;stop-opacity:1" />
      <stop
         offset="1"
         id="stop28-5"
         style="stop-color:#c3c9cc;stop-opacity:1" />
    </linearGradient>
    <linearGradient
       inkscape:collect="always"
       xlink:href="#e"
       id="linearGradient916"
       gradientUnits="userSpaceOnUse"
       gradientTransform="matrix(-0.17431149,-1.9923893,-1.9923893,0.17431149,1162.8571,741.32853)"
       x1="395.57101"
       y1="520.79797"
       x2="395.57101"
       y2="516.79797" />
    <linearGradient
       id="linearGradient4386"
       x1="395.57101"
       x2="395.57101"
       y1="520.79797"
       y2="516.79797"
       gradientTransform="matrix(2,0,0,2,-769.142,-1029.596)"
       gradientUnits="userSpaceOnUse">
      <stop
         offset="0"
         id="stop31-6"
         style="stop-color:#dbdde0;stop-opacity:1" />
      <stop
         offset="1"
         id="stop33-2"
         style="stop-color:#f7f8f9;stop-opacity:1" />
    </linearGradient>
    <radialGradient
       inkscape:collect="always"
       xlink:href="#b-9"
       id="radialGradient913"
       gradientUnits="userSpaceOnUse"
       gradientTransform="matrix(-0.30504509,-3.4866814,-2.9885841,0.26146722,85.684204,87.580596)"
       cx="16"
       cy="8.5"
       r="4" />
    <radialGradient
       id="b-9"
       cx="16"
       cy="8.5"
       r="4"
       gradientTransform="matrix(3.5,0,0,3,-24,-13.5)"
       gradientUnits="userSpaceOnUse">
      <stop
         stop-opacity=".25"
         offset="0"
         id="stop21-1"
         style="stop-color:#b1b8be;stop-opacity:0.25098041" />
      <stop
         offset="1"
         id="stop23-2"
         style="stop-color:#c5cace;stop-opacity:1" />
    </radialGradient>
    <radialGradient
       id="l-7"
       cx="20.571428"
       cy="8.5"
       r="4"
       gradientTransform="matrix(-0.65223488,-7.4550804,-1.494292,0.1307336,77.530045,186.56278)"
       gradientUnits="userSpaceOnUse">
      <stop
         stop-opacity=".25098041"
         offset="0"
         id="stop2-0"
         style="stop-color:#aeb4bc;stop-opacity:0.25098041" />
      <stop
         offset="1"
         id="stop4-9"
         style="stop-color:#b2b8bc;stop-opacity:1" />
    </radialGradient>
  </defs>
  <linearGradient
     id="a">
    <stop
       stop-color="#4f575f"
       stop-opacity=".4"
       offset="0"
       id="stop14" />
    <stop
       stop-color="#4f575f"
       stop-opacity=".6"
       offset=".5"
       id="stop16" />
    <stop
       stop-color="#4f575f"
       stop-opacity=".4"
       offset="1"
       id="stop18" />
  </linearGradient>
  <radialGradient
     id="b"
     cx="16"
     cy="8.5"
     r="4"
     gradientTransform="matrix(3.5,0,0,3,-24,-13.5)"
     gradientUnits="userSpaceOnUse">
    <stop
       stop-opacity=".25"
       offset="0"
       id="stop21"
       style="stop-color:#b1b8be;stop-opacity:0.25098041" />
    <stop
       offset="1"
       id="stop23"
       style="stop-color:#c5cace;stop-opacity:1" />
  </radialGradient>
  <linearGradient
     id="c"
     x1="412.57101"
     x2="412.57101"
     y1="522.79797"
     y2="520.79797"
     gradientTransform="matrix(2,0,0,2,-783.142,-1043.596)"
     gradientUnits="userSpaceOnUse">
    <stop
       offset="0"
       id="stop26"
       style="stop-color:#e3e5e7;stop-opacity:1" />
    <stop
       offset="1"
       id="stop28"
       style="stop-color:#c3c9cc;stop-opacity:1" />
  </linearGradient>
  <linearGradient
     id="e"
     x1="395.57101"
     x2="395.57101"
     y1="520.79797"
     y2="516.79797"
     gradientTransform="matrix(2,0,0,2,-769.142,-1029.596)"
     gradientUnits="userSpaceOnUse">
    <stop
       offset="0"
       id="stop31"
       style="stop-color:#dbdde0;stop-opacity:1" />
    <stop
       offset="1"
       id="stop33"
       style="stop-color:#f7f8f9;stop-opacity:1" />
  </linearGradient>
  <linearGradient
     id="f"
     x1="390.57101"
     x2="406.57101"
     y1="521.79797"
     y2="537.79797"
     gradientTransform="matrix(2,0,0,1.9090909,-769.142,-980.1598)"
     gradientUnits="userSpaceOnUse">
    <stop
       stop-color="#292c2f"
       offset="0"
       id="stop36" />
    <stop
       stop-opacity="0"
       offset="1"
       id="stop38" />
  </linearGradient>
  <linearGradient
     id="g"
     x1="391.57101"
     x2="394.57101"
     y1="534.79797"
     y2="534.79797"
     gradientTransform="matrix(1.33334,0,0,1.8,-498.094,-926.63634)"
     gradientUnits="userSpaceOnUse"
     xlink:href="#a" />
  <linearGradient
     id="h"
     x1="391.57101"
     x2="394.57101"
     y1="534.79797"
     y2="534.79797"
     gradientTransform="matrix(1.33334,0,0,1.7999999,-508.096,-926.63626)"
     gradientUnits="userSpaceOnUse"
     xlink:href="#a" />
  <linearGradient
     id="i"
     x1="391.57101"
     x2="394.57101"
     y1="534.79797"
     y2="534.79797"
     gradientTransform="matrix(1.33334,0,0,1.8,-486.096,-926.63634)"
     gradientUnits="userSpaceOnUse"
     xlink:href="#a" />
  <linearGradient
     id="j"
     x1="391.57101"
     x2="394.57101"
     y1="534.79797"
     y2="534.79797"
     gradientTransform="matrix(1.33334,0,0,1.8,-476.094,-926.63634)"
     gradientUnits="userSpaceOnUse"
     xlink:href="#a" />
  <path
     d="m 42,8 -14,6 -6,-6 -8,6 v 2 l 6,16 28,-18 z"
     stroke-width="2"
     id="path59-9"
     style="fill:url(#linearGradient1701);fill-opacity:1" />
  <path
     d="M 12,14 V 56.166668 C 12,57.182332 12.892,58 14,58 h 36 c 1.108,0 2,-0.817668 2,-1.833332 V 14 Z"
     fill="url(#k)"
     stroke-width="1.9148542"
     id="path45" />
  <path
     d="m12 55.166016v1c0 1.015664 0.892 1.833984 2 1.833984h36c1.108 0 2-0.81832 2-1.833984v-1c0 1.015664-0.892 1.833984-2 1.833984h-36c-1.108 0-2-0.81832-2-1.833984z"
     opacity=".2"
     stroke-width="1.9148542"
     id="path69" />
  <g
     id="g15416"
     transform="matrix(0.84596598,0,0,0.84596598,33.483483,15.261477)">
    <path
       id="rect1062"
       style="fill:#006ed1;fill-opacity:1;fill-rule:evenodd;stroke-width:0.64551"
       d="m -12.147488,36.162011 c 0.799534,1.072931 1.680828,1.369307 3.0189,1.370081 l 3.3398863,0.0014 2.95e-5,-6.038177 -9.0530208,2.29e-4 z"
       sodipodi:nodetypes="cccccc" />
    <path
       id="rect1062-3"
       style="fill:#00a8ff;fill-opacity:1;fill-rule:evenodd;stroke-width:0.627574"
       d="m -13.279646,34.201056 4.5712686,-7.917802 2.0346741,1.174341 -2.3732815,-6.793622 -6.9238262,1.425421 2.033397,1.175079 -1.622332,2.812498 c -0.649794,1.12698 -1.059843,2.035896 -0.545135,3.230633 z" />
    <path
       id="rect1062-5"
       style="fill:#006ed1;fill-opacity:1;fill-rule:evenodd;stroke-width:0.64551"
       d="m -5.569084,11.511719 c -1.328953,0.155951 -2.026269,0.770986 -2.695975,1.929403 l -1.67112,2.891747 5.2292,3.019114 4.526312,-7.840261 z"
       sodipodi:nodetypes="cccccc" />
    <path
       id="rect1062-3-6"
       style="fill:#00a8ff;fill-opacity:1;fill-rule:evenodd;stroke-width:0.627574"
       d="m -3.304768,11.511719 4.571383,7.917735 -2.034346,1.174909 7.07009,1.341489 2.227462,-6.70892 -2.034346,1.173434 -1.624529,-2.81123 C 4.21985,12.472908 3.63773,11.663337 2.345703,11.511719 Z" />
    <path
       id="rect1062-7"
       style="fill:#006ed1;fill-opacity:1;fill-rule:evenodd;stroke-width:0.64551"
       d="m 12.486136,29.53425 c 0.529419,-1.228882 0.345441,-2.140293 -0.322925,-3.299484 l -1.668766,-2.893106 -5.2292298,3.019063 4.5267092,7.840032 z"
       sodipodi:nodetypes="cccccc" />
    <path
       id="rect1062-3-5"
       style="fill:#00a8ff;fill-opacity:1;fill-rule:evenodd;stroke-width:0.627574"
       d="m 11.353978,31.495205 -9.1426516,6.7e-5 -3.281e-4,-2.34925 -4.6968085,5.452133 4.6963641,5.283499 9.494e-4,-2.348513 3.2468611,-0.0013 c 1.30089,-7.52e-4 2.2930591,-0.100097 3.0703776,-1.143216 z" />
  </g>
  <path
     d="M 31,14 H 18 l 8,16 12,-8 z"
     opacity="0.2"
     stroke-width="1.95402"
     id="path65"
     sodipodi:nodetypes="ccccc"
     style="fill:url(#linearGradient4275)" />
  <path
     inkscape:connector-curvature="0"
     style="fill:url(#linearGradient1319);fill-opacity:1;stroke-width:2"
     id="path75-7"
     d="m 18,14 4,8 12,-4 -4,-4 z" />
  <path
     inkscape:connector-curvature="0"
     style="fill:url(#linearGradient961);fill-opacity:1;stroke-width:2"
     id="path77-5"
     d="m 46,14 -8,8 -8,-8 z" />
  <path
     id="path65-7"
     style="fill:url(#linearGradient2858);opacity:0.2"
     d="M 46 14 L 38 22 L 52 36 L 52 14 L 46 14 z " />
  <path
     inkscape:connector-curvature="0"
     style="fill:url(#c-5);stroke-width:2"
     id="path51"
     d="m 57.317944,55.932447 c 0.09657,1.103784 -0.714295,2.070133 -1.818078,2.166701 l -1.992389,0.174312 -4.183476,-47.817346 1.99239,-0.174312 c 1.103783,-0.09657 2.070132,0.714296 2.166701,1.81808 z" />
  <path
     sodipodi:nodetypes="ssccccccccsss"
     style="fill:url(#linearGradient916);stroke-width:2"
     inkscape:connector-curvature="0"
     id="path47"
     d="m 62.074932,41.462786 c 0.09657,1.103784 -0.714294,2.070133 -1.818078,2.166701 l -3.984778,0.348623 -0.348624,-3.984778 1.494292,-0.130733 c 0.262443,-0.02235 0.462544,-0.244461 0.457482,-0.507805 L 56.910412,28.326918 c -0.04167,-0.259346 -0.276922,-0.44223 -0.538537,-0.418655 l -1.494292,0.130733 -0.348623,-3.984778 3.984778,-0.348624 c 1.103785,-0.09657 2.070133,0.714295 2.166701,1.818079 z" />
  <path
     sodipodi:nodetypes="ssccccccccsss"
     style="fill:url(#radialGradient913);stroke-width:2"
     inkscape:connector-curvature="0"
     id="path49"
     d="m 58.912036,39.731864 c 0.04828,0.551892 -0.357147,1.035067 -0.909039,1.083351 l -1.992389,0.174312 -0.08716,-0.996195 1.494292,-0.130733 c 0.262443,-0.02235 0.462544,-0.244461 0.457482,-0.507805 L 56.910412,28.326918 c -0.04167,-0.259346 -0.276922,-0.44223 -0.538537,-0.418655 l -1.494292,0.130733 -0.08716,-0.996194 1.992389,-0.174313 c 0.551892,-0.04828 1.035067,0.357149 1.083351,0.909039 z" />
  <path
     d="m 53.507477,58.27346 -4.183476,-47.817346 0.996194,-0.08716 4.174305,47.71251 z"
     id="path67"
     style="fill:url(#l-7);stroke-width:1.41266"
     inkscape:connector-curvature="0" />
</svg>
