<?xml version="1.0" encoding="UTF-8" standalone="no"?>
<svg
   version="1.1"
   viewBox="0 0 64 64"
   id="svg71"
   sodipodi:docname="user-trash.svg"
   inkscape:version="1.1.1 (3bf5ae0d25, 2021-09-20)"
   xmlns:inkscape="http://www.inkscape.org/namespaces/inkscape"
   xmlns:sodipodi="http://sodipodi.sourceforge.net/DTD/sodipodi-0.dtd"
   xmlns:xlink="http://www.w3.org/1999/xlink"
   xmlns="http://www.w3.org/2000/svg"
   xmlns:svg="http://www.w3.org/2000/svg"
   xmlns:rdf="http://www.w3.org/1999/02/22-rdf-syntax-ns#"
   xmlns:cc="http://creativecommons.org/ns#"
   xmlns:dc="http://purl.org/dc/elements/1.1/">
  <metadata
     id="metadata75">
    <rdf:RDF>
      <cc:Work
         rdf:about="">
        <dc:format>image/svg+xml</dc:format>
        <dc:type
           rdf:resource="http://purl.org/dc/dcmitype/StillImage" />
      </cc:Work>
    </rdf:RDF>
  </metadata>
  <sodipodi:namedview
     pagecolor="#ffffff"
     bordercolor="#666666"
     borderopacity="1"
     objecttolerance="10"
     gridtolerance="10"
     guidetolerance="10"
     inkscape:pageopacity="0"
     inkscape:pageshadow="2"
     inkscape:window-width="1920"
     inkscape:window-height="1007"
     id="namedview73"
     showgrid="true"
     inkscape:zoom="9.2666667"
     inkscape:cx="7.7697842"
     inkscape:cy="19.154676"
     inkscape:window-x="0"
     inkscape:window-y="0"
     inkscape:window-maximized="1"
     inkscape:current-layer="svg71"
     inkscape:pagecheckerboard="0">
    <inkscape:grid
       type="xygrid"
       id="grid882" />
  </sodipodi:namedview>
  <defs
     id="defs12">
    <radialGradient
       id="l"
       cx="20.571428"
       cy="8.5"
       r="4"
       gradientTransform="matrix(7.4835576,-6.814988e-8,5.4400368e-8,1.5,-121.89485,3.2500015)"
       gradientUnits="userSpaceOnUse">
      <stop
         stop-opacity=".25098041"
         offset="0"
         id="stop2"
         style="stop-color:#aeb4bc;stop-opacity:0.25098041" />
      <stop
         offset="1"
         id="stop4"
         style="stop-color:#b2b8bc;stop-opacity:1" />
    </radialGradient>
    <linearGradient
       id="k"
       x1="390.57101"
       x2="410.57101"
       y1="521.79797"
       y2="545.79797"
       gradientTransform="matrix(2,0,0,1.8333333,-769.142,-942.62968)"
       gradientUnits="userSpaceOnUse">
      <stop
         offset="0"
         id="stop7"
         style="stop-color:#cbd0d0;stop-opacity:1" />
      <stop
         offset="1"
         id="stop9"
         style="stop-color:#e5e7e7;stop-opacity:1" />
    </linearGradient>
    <radialGradient
       inkscape:collect="always"
       xlink:href="#b"
       id="radialGradient913"
       gradientUnits="userSpaceOnUse"
       gradientTransform="matrix(3.5,0,0,3,-24,-13.5)"
       cx="16"
       cy="8.5"
       r="4" />
    <linearGradient
       inkscape:collect="always"
       xlink:href="#e"
       id="linearGradient916"
       gradientUnits="userSpaceOnUse"
       gradientTransform="matrix(2,0,0,2,-769.142,-1029.596)"
       x1="395.57101"
       y1="520.79797"
       x2="395.57101"
       y2="516.79797" />
  </defs>
  <linearGradient
     id="a">
    <stop
       stop-color="#4f575f"
       stop-opacity=".4"
       offset="0"
       id="stop14" />
    <stop
       stop-color="#4f575f"
       stop-opacity=".6"
       offset=".5"
       id="stop16" />
    <stop
       stop-color="#4f575f"
       stop-opacity=".4"
       offset="1"
       id="stop18" />
  </linearGradient>
  <radialGradient
     id="b"
     cx="16"
     cy="8.5"
     r="4"
     gradientTransform="matrix(3.5,0,0,3,-24,-13.5)"
     gradientUnits="userSpaceOnUse">
    <stop
       stop-opacity=".25"
       offset="0"
       id="stop21"
       style="stop-color:#b1b8be;stop-opacity:0.25098041" />
    <stop
       offset="1"
       id="stop23"
       style="stop-color:#c5cace;stop-opacity:1" />
  </radialGradient>
  <linearGradient
     id="c"
     x1="412.57101"
     x2="412.57101"
     y1="522.79797"
     y2="520.79797"
     gradientTransform="matrix(2,0,0,2,-769.142,-1029.596)"
     gradientUnits="userSpaceOnUse">
    <stop
       offset="0"
       id="stop26"
       style="stop-color:#e3e5e7;stop-opacity:1" />
    <stop
       offset="1"
       id="stop28"
       style="stop-color:#c3c9cc;stop-opacity:1" />
  </linearGradient>
  <linearGradient
     id="e"
     x1="395.57101"
     x2="395.57101"
     y1="520.79797"
     y2="516.79797"
     gradientTransform="matrix(2,0,0,2,-769.142,-1029.596)"
     gradientUnits="userSpaceOnUse">
    <stop
       offset="0"
       id="stop31"
       style="stop-color:#dbdde0;stop-opacity:1" />
    <stop
       offset="1"
       id="stop33"
       style="stop-color:#f7f8f9;stop-opacity:1" />
  </linearGradient>
  <linearGradient
     id="f"
     x1="390.57101"
     x2="406.57101"
     y1="521.79797"
     y2="537.79797"
     gradientTransform="matrix(2,0,0,1.9090909,-769.142,-980.1598)"
     gradientUnits="userSpaceOnUse">
    <stop
       stop-color="#292c2f"
       offset="0"
       id="stop36" />
    <stop
       stop-opacity="0"
       offset="1"
       id="stop38" />
  </linearGradient>
  <linearGradient
     id="g"
     x1="391.57101"
     x2="394.57101"
     y1="534.79797"
     y2="534.79797"
     gradientTransform="matrix(1.33334,0,0,1.8,-498.094,-926.63634)"
     gradientUnits="userSpaceOnUse"
     xlink:href="#a" />
  <linearGradient
     id="h"
     x1="391.57101"
     x2="394.57101"
     y1="534.79797"
     y2="534.79797"
     gradientTransform="matrix(1.33334,0,0,1.7999999,-508.096,-926.63626)"
     gradientUnits="userSpaceOnUse"
     xlink:href="#a" />
  <linearGradient
     id="i"
     x1="391.57101"
     x2="394.57101"
     y1="534.79797"
     y2="534.79797"
     gradientTransform="matrix(1.33334,0,0,1.8,-486.096,-926.63634)"
     gradientUnits="userSpaceOnUse"
     xlink:href="#a" />
  <linearGradient
     id="j"
     x1="391.57101"
     x2="394.57101"
     y1="534.79797"
     y2="534.79797"
     gradientTransform="matrix(1.33334,0,0,1.8,-476.094,-926.63634)"
     gradientUnits="userSpaceOnUse"
     xlink:href="#a" />
  <path
     d="M 12,14 V 56.166668 C 12,57.182332 12.892,58 14,58 h 36 c 1.108,0 2,-0.817668 2,-1.833332 V 14 Z"
     fill="url(#k)"
     stroke-width="1.9148542"
     id="path45" />
  <path
     inkscape:connector-curvature="0"
     style="fill:url(#c);stroke-width:2"
     id="path51"
     d="m 10,12 c -1.108,0 -2,0.892 -2,2 v 2 h 48 v -2 c 0,-1.108 -0.892,-2 -2,-2 z" />
  <path
     sodipodi:nodetypes="ssccccccccsss"
     style="fill:url(#linearGradient916);stroke-width:2"
     inkscape:connector-curvature="0"
     id="path47"
     d="m 24,6 c -1.108,0 -2,0.892 -2,2 v 4 h 4 v -1.5 c -6.1e-4,-0.263392 0.203217,-0.48209 0.466,-0.5 h 11.07 c 0.261993,0.01891 0.464682,0.237327 0.464,0.5 V 12 h 4 V 8 C 42,6.892 41.108,6 40,6 Z" />
  <path
     sodipodi:nodetypes="ssccccccccsss"
     style="fill:url(#radialGradient913);stroke-width:2"
     inkscape:connector-curvature="0"
     id="path49"
     d="m 26,9 c -0.554,0 -1,0.446 -1,1 v 2 h 1 v -1.5 c -6.1e-4,-0.263392 0.203217,-0.48209 0.466,-0.5 h 11.07 c 0.261993,0.01891 0.464682,0.237327 0.464,0.5 V 12 h 1 V 10 C 39,9.446 38.554,9 38,9 Z" />
  <path
     d="M 8,16 H 56 V 15 H 8.105236 Z"
     id="path67"
     style="fill:url(#l);stroke-width:1.41266239"
     inkscape:connector-curvature="0" />
  <path
     d="m12 55.166016v1c0 1.015664 0.892 1.833984 2 1.833984h36c1.108 0 2-0.81832 2-1.833984v-1c0 1.015664-0.892 1.833984-2 1.833984h-36c-1.108 0-2-0.81832-2-1.833984z"
     opacity=".2"
     stroke-width="1.9148542"
     id="path69" />
  <g
     id="g15416"
     transform="matrix(0.84596598,0,0,0.84596598,33.483483,15.261477)">
    <path
       id="rect1062"
       style="fill:#006ed1;fill-opacity:1;fill-rule:evenodd;stroke-width:0.64551"
       d="m -12.147488,36.162011 c 0.799534,1.072931 1.680828,1.369307 3.0189,1.370081 l 3.3398863,0.0014 2.95e-5,-6.038177 -9.0530208,2.29e-4 z"
       sodipodi:nodetypes="cccccc" />
    <path
       id="rect1062-3"
       style="fill:#00a8ff;fill-opacity:1;fill-rule:evenodd;stroke-width:0.627574"
       d="m -13.279646,34.201056 4.5712686,-7.917802 2.0346741,1.174341 -2.3732815,-6.793622 -6.9238262,1.425421 2.033397,1.175079 -1.622332,2.812498 c -0.649794,1.12698 -1.059843,2.035896 -0.545135,3.230633 z" />
    <path
       id="rect1062-5"
       style="fill:#006ed1;fill-opacity:1;fill-rule:evenodd;stroke-width:0.64551"
       d="m -5.569084,11.511719 c -1.328953,0.155951 -2.026269,0.770986 -2.695975,1.929403 l -1.67112,2.891747 5.2292,3.019114 4.526312,-7.840261 z"
       sodipodi:nodetypes="cccccc" />
    <path
       id="rect1062-3-6"
       style="fill:#00a8ff;fill-opacity:1;fill-rule:evenodd;stroke-width:0.627574"
       d="m -3.304768,11.511719 4.571383,7.917735 -2.034346,1.174909 7.07009,1.341489 2.227462,-6.70892 -2.034346,1.173434 -1.624529,-2.81123 C 4.21985,12.472908 3.63773,11.663337 2.345703,11.511719 Z" />
    <path
       id="rect1062-7"
       style="fill:#006ed1;fill-opacity:1;fill-rule:evenodd;stroke-width:0.64551"
       d="m 12.486136,29.53425 c 0.529419,-1.228882 0.345441,-2.140293 -0.322925,-3.299484 l -1.668766,-2.893106 -5.2292298,3.019063 4.5267092,7.840032 z"
       sodipodi:nodetypes="cccccc" />
    <path
       id="rect1062-3-5"
       style="fill:#00a8ff;fill-opacity:1;fill-rule:evenodd;stroke-width:0.627574"
       d="m 11.353978,31.495205 -9.1426516,6.7e-5 -3.281e-4,-2.34925 -4.6968085,5.452133 4.6963641,5.283499 9.494e-4,-2.348513 3.2468611,-0.0013 c 1.30089,-7.52e-4 2.2930591,-0.100097 3.0703776,-1.143216 z" />
  </g>
  <path
     d="m12 16v3.818182l40 38.181818v-42z"
     fill="url(#f)"
     opacity=".2"
     stroke-width="1.9540168"
     id="path65" />
</svg>
