<?xml version="1.0" encoding="UTF-8" standalone="no"?>
<svg
   id="svg15"
   version="1.1"
   viewBox="0 0 96 96"
   sodipodi:docname="folder-library.svg"
   inkscape:version="1.1.1 (3bf5ae0d25, 2021-09-20, custom)"
   xmlns:inkscape="http://www.inkscape.org/namespaces/inkscape"
   xmlns:sodipodi="http://sodipodi.sourceforge.net/DTD/sodipodi-0.dtd"
   xmlns="http://www.w3.org/2000/svg"
   xmlns:svg="http://www.w3.org/2000/svg">
  <sodipodi:namedview
     id="namedview16"
     pagecolor="#ffffff"
     bordercolor="#666666"
     borderopacity="1.0"
     inkscape:pageshadow="2"
     inkscape:pageopacity="0.0"
     inkscape:pagecheckerboard="0"
     showgrid="false"
     inkscape:zoom="6.5625"
     inkscape:cx="48.07619"
     inkscape:cy="48.07619"
     inkscape:window-width="1920"
     inkscape:window-height="999"
     inkscape:window-x="0"
     inkscape:window-y="0"
     inkscape:window-maximized="1"
     inkscape:current-layer="layer1" />
  <defs
     id="defs5455">
    <linearGradient
       id="linearGradient4178"
       x2="0"
       y1="541.79797"
       y2="499.78421"
       gradientTransform="matrix(1.4999996,0,0,1.4995115,-576.85701,-725.43213)"
       gradientUnits="userSpaceOnUse">
      <stop
         id="stop4174-6-7"
         stop-color="#3daee9"
         offset="0" />
      <stop
         id="stop4176-6-5"
         stop-color="#6cc1ef"
         offset="1" />
    </linearGradient>
  </defs>
  <g
     id="layer1"
     transform="translate(-384.57144,-483.798)"
     stroke-width="1.5">
    <path
       id="rect4180"
       d="m6 9-1.17e-5 20.999996h84l1.2e-5 -14.999996h-42l-6-6z"
       fill="#147eb8"
       transform="translate(384.57144,483.798)" />
    <path
       id="rect4113"
       d="M 38.999988,23.999996 33,30 H 5 V 87 H 91 V 24 Z"
       fill="url(#linearGradient4178)"
       transform="translate(384.57144,483.798)" />
    <g
       fill-opacity=".235294"
       id="g12">
      <path
         id="path4224-1"
         d="m389.57143 513.798v1h29l4.99999-6.99983-6.00001 6z"
         fill="#fff"
         fill-rule="evenodd" />
      <path
         id="path4228-0"
         d="m390.57143 512.798v1.00017h26.99998l6.00002-6.00017-7 5z"
         fill-rule="evenodd" />
      <path
         id="path4151-2"
         transform="translate(384.57144,483.798)"
         d="m4.9999883 85.999996v1l86-0.01628v-0.983722z" />
      <path
         id="path4196"
         transform="translate(384.57144,483.798)"
         d="M 42,9 46.999988,15.999996 90,16 V 15 H 48 Z"
         fill="#fff"
         fill-rule="evenodd" />
    </g>
    <path
       id="rect855"
       style="fill:#1272a5;opacity:1;stroke-width:0.999999"
       d="m 432.57144,524.798 -16,8.59961 v 1.40039 h 1 v 19 h -1 v 1 h 32 v -1 h -1 v -19 h 1 v -1.40039 z m 0,1.09961 14.69922,7.90039 h -29.39844 z m -14,8.90039 h 3 v 19 h -3 z m 4,0 h 3 v 19 h -3 z m 4,0 h 12 v 19 h -3 v -10 h -6 v 10 h -3 z m 13,0 h 3 v 19 h -3 z m 4,0 h 3 v 19 h -3 z" />
  </g>
</svg>
