<?xml version="1.0" encoding="UTF-8" standalone="no"?>
<svg
   version="1.1"
   viewBox="0 0 32 32"
   id="svg91"
   sodipodi:docname="user-trash-full.svg"
   inkscape:version="1.1.1 (3bf5ae0d25, 2021-09-20, custom)"
   xmlns:inkscape="http://www.inkscape.org/namespaces/inkscape"
   xmlns:sodipodi="http://sodipodi.sourceforge.net/DTD/sodipodi-0.dtd"
   xmlns:xlink="http://www.w3.org/1999/xlink"
   xmlns="http://www.w3.org/2000/svg"
   xmlns:svg="http://www.w3.org/2000/svg">
  <sodipodi:namedview
     id="namedview93"
     pagecolor="#ffffff"
     bordercolor="#666666"
     borderopacity="1.0"
     inkscape:pageshadow="2"
     inkscape:pageopacity="0.0"
     inkscape:pagecheckerboard="0"
     showgrid="false"
     inkscape:zoom="23.46875"
     inkscape:cx="15.978695"
     inkscape:cy="16"
     inkscape:window-width="1920"
     inkscape:window-height="1019"
     inkscape:window-x="0"
     inkscape:window-y="31"
     inkscape:window-maximized="1"
     inkscape:current-layer="svg91" />
  <defs
     id="defs36">
    <linearGradient
       id="u"
       x1="394.57101"
       x2="399.57101"
       y1="517.79797"
       y2="522.79797"
       gradientTransform="translate(-384.571,-515.798)"
       gradientUnits="userSpaceOnUse">
      <stop
         stop-color="#d4ba94"
         offset="0"
         id="stop2" />
      <stop
         stop-color="#bb9d71"
         offset="1"
         id="stop4" />
    </linearGradient>
    <linearGradient
       id="t"
       x1="390.57101"
       x2="410.57101"
       y1="521.79797"
       y2="545.79797"
       gradientTransform="matrix(1 0 0 .91666666 -384.571 -471.31484)"
       gradientUnits="userSpaceOnUse">
      <stop
         stop-color="#bdc3c7"
         offset="0"
         id="stop7" />
      <stop
         stop-color="#8a9696"
         offset="1"
         id="stop9" />
    </linearGradient>
    <linearGradient
       id="ab"
       x1="395.57101"
       x2="395.57101"
       y1="520.79797"
       y2="516.79797"
       gradientTransform="rotate(85.177693,488.15482,66.06004)"
       gradientUnits="userSpaceOnUse">
      <stop
         stop-color="#afb0b3"
         offset="0"
         id="stop12" />
      <stop
         stop-color="#bdc3c7"
         offset="1"
         id="stop14" />
    </linearGradient>
    <radialGradient
       id="n"
       cx="16"
       cy="8.5"
       r="4"
       gradientTransform="matrix(.14711513 1.7438054 -1.4946903 .12609869 38.014756 -11.958567)"
       gradientUnits="userSpaceOnUse">
      <stop
         stop-color="#4f575f"
         stop-opacity=".25"
         offset="0"
         id="stop17" />
      <stop
         stop-color="#9da5ab"
         offset="1"
         id="stop19" />
    </radialGradient>
    <linearGradient
       id="ad"
       x1="412.57101"
       x2="412.57101"
       y1="522.79797"
       y2="520.79797"
       gradientTransform="rotate(85.177693,488.15482,66.06004)"
       gradientUnits="userSpaceOnUse">
      <stop
         stop-color="#9da5ab"
         offset="0"
         id="stop22" />
      <stop
         stop-color="#bdc3c7"
         offset="1"
         id="stop24" />
    </linearGradient>
    <linearGradient
       id="z"
       x1="391.57101"
       x2="394.57101"
       y1="534.79797"
       y2="534.79797"
       gradientTransform="matrix(.66667 0 0 .9 -249.047 -463.31817)"
       gradientUnits="userSpaceOnUse"
       xlink:href="#a" />
    <linearGradient
       id="x"
       x1="391.57101"
       x2="394.57101"
       y1="534.79797"
       y2="534.79797"
       gradientTransform="matrix(.66667 0 0 .89999994 -254.048 -463.31813)"
       gradientUnits="userSpaceOnUse"
       xlink:href="#a" />
    <linearGradient
       id="w"
       x1="391.57101"
       x2="394.57101"
       y1="534.79797"
       y2="534.79797"
       gradientTransform="matrix(.66667 0 0 .9 -243.048 -463.31817)"
       gradientUnits="userSpaceOnUse"
       xlink:href="#a" />
    <linearGradient
       id="v"
       x1="391.57101"
       x2="394.57101"
       y1="534.79797"
       y2="534.79797"
       gradientTransform="matrix(.66667 0 0 .9 -238.047 -463.31817)"
       gradientUnits="userSpaceOnUse"
       xlink:href="#a" />
    <radialGradient
       id="p"
       cx="20.571428"
       cy="8.5"
       r="4"
       gradientTransform="matrix(.31455566 3.7285336 -1.4946903 .12609872 31.90703 -60.564598)"
       gradientUnits="userSpaceOnUse">
      <stop
         stop-color="#4f575f"
         stop-opacity=".25098041"
         offset="0"
         id="stop31" />
      <stop
         stop-color="#8a939a"
         offset="1"
         id="stop33" />
    </radialGradient>
    <linearGradient
       inkscape:collect="always"
       xlink:href="#linearGradient1314"
       id="linearGradient1610"
       x1="12"
       y1="18"
       x2="15"
       y2="27"
       gradientUnits="userSpaceOnUse"
       gradientTransform="translate(1.007e-5)" />
    <linearGradient
       inkscape:collect="always"
       id="linearGradient1314">
      <stop
         style="stop-color:#8fbcbb;stop-opacity:1"
         offset="0"
         id="stop1310" />
      <stop
         style="stop-color:#5e81ac;stop-opacity:1"
         offset="1"
         id="stop1312" />
    </linearGradient>
    <linearGradient
       inkscape:collect="always"
       xlink:href="#linearGradient1314"
       id="linearGradient1316"
       x1="7"
       y1="18"
       x2="10"
       y2="27"
       gradientUnits="userSpaceOnUse"
       gradientTransform="translate(1.007e-5)" />
    <linearGradient
       inkscape:collect="always"
       xlink:href="#linearGradient1314"
       id="linearGradient1810"
       x1="18"
       y1="18"
       x2="21"
       y2="27"
       gradientUnits="userSpaceOnUse"
       gradientTransform="translate(1.007e-5)" />
    <linearGradient
       inkscape:collect="always"
       xlink:href="#linearGradient1314"
       id="linearGradient2010"
       x1="23"
       y1="18"
       x2="26"
       y2="27"
       gradientUnits="userSpaceOnUse"
       gradientTransform="translate(1.007e-5)" />
  </defs>
  <linearGradient
     id="o"
     x1="393.571"
     x2="396.071"
     y1="521.798"
     y2="524.298"
     gradientTransform="translate(-384.571,-514.798)"
     gradientUnits="userSpaceOnUse"
     xlink:href="#m" />
  <linearGradient
     id="m">
    <stop
       stop-color="#fcfcfc"
       offset="0"
       id="stop39" />
    <stop
       stop-color="#eff0f1"
       offset="1"
       id="stop41" />
  </linearGradient>
  <linearGradient
     id="ac"
     x1="399.571"
     x2="400.571"
     y1="521.798"
     y2="523.798"
     gradientTransform="translate(-384.571,-514.798)"
     gradientUnits="userSpaceOnUse"
     xlink:href="#l" />
  <linearGradient
     id="l">
    <stop
       stop-color="#292c2f"
       offset="0"
       id="stop45" />
    <stop
       stop-color="#292c2f"
       stop-opacity="0"
       offset="1"
       id="stop47" />
  </linearGradient>
  <linearGradient
     id="aa"
     x1="409.571"
     x2="405.571"
     y1="521.798"
     y2="525.798"
     gradientTransform="matrix(-1,0,0,1,424.572,-514.798)"
     gradientUnits="userSpaceOnUse"
     xlink:href="#m" />
  <linearGradient
     id="y"
     x1="407.571"
     x2="408.571"
     y1="521.798"
     y2="523.798"
     gradientTransform="translate(-384.571,-514.798)"
     gradientUnits="userSpaceOnUse"
     xlink:href="#l" />
  <linearGradient
     id="a">
    <stop
       stop-color="#4f575f"
       stop-opacity=".4"
       offset="0"
       id="stop52" />
    <stop
       stop-color="#4f575f"
       stop-opacity=".6"
       offset=".5"
       id="stop54" />
    <stop
       stop-color="#4f575f"
       stop-opacity=".4"
       offset="1"
       id="stop56" />
  </linearGradient>
  <path
     d="m21 4-7 3-3-3-4 3v1l3 8 14-9z"
     fill="url(#u)"
     id="path59" />
  <path
     d="M 6,7 V 28.083334 C 6,28.591166 6.446,29 7,29 h 18 c 0.554,0 1,-0.408834 1,-0.916666 V 7 Z"
     fill="url(#t)"
     stroke-width=".95742708"
     id="path61" />
  <g
     stroke-width="0.948683"
     id="g71">
    <path
       id="rect912"
       style="fill:url(#linearGradient2010);fill-opacity:1"
       d="m 24.00001,9 c 0.554,0 1,0.446 1,1 v 16 c 0,0.554 -0.446,1 -1,1 -0.554,0 -1,-0.446 -1,-1 V 10 c 0,-0.554 0.446,-1 1,-1 z" />
    <path
       id="rect975"
       style="fill:url(#linearGradient1810);fill-opacity:1"
       d="m 19.00001,9 c 0.554,0 1,0.446 1,1 v 16 c 0,0.554 -0.446,1 -1,1 -0.554,0 -1,-0.446 -1,-1 V 10 c 0,-0.554 0.446,-1 1,-1 z" />
    <path
       id="rect1038"
       style="fill:url(#linearGradient1316);fill-opacity:1"
       d="m 8.0000101,9 c 0.554,0 1,0.446 1,1 v 16 c 0,0.554 -0.446,1 -1,1 -0.554,0 -1,-0.446 -1,-1 V 10 c 0,-0.554 0.446,-1 1,-1 z" />
    <path
       id="rect1101"
       style="fill:url(#linearGradient1610);fill-opacity:1"
       d="m 13.00001,9 c 0.554,0 1,0.446 1,1 v 16 c 0,0.554 -0.446,1 -1,1 -0.554,0 -1,-0.446 -1,-1 V 10 c 0,-0.554 0.446,-1 1,-1 z" />
  </g>
  <path
     d="m6 27v1c0 0.554 0.446 1 1 1h18c0.554 0 1-0.446 1-1v-1c0 0.554-0.446 1-1 1h-18c-0.554 0-1-0.446-1-1z"
     opacity=".2"
     id="path73" />
  <path
     d="m13 15 6-4-4-4h-6z"
     fill="url(#ac)"
     opacity=".2"
     id="path75" />
  <path
     d="m9 7 2 4 6-2-2-2z"
     fill="url(#o)"
     id="path77" />
  <path
     d="m23 7-4 4-4-4z"
     fill="url(#aa)"
     id="path79" />
  <path
     d="m19 11 7 7v-11h-3z"
     fill="url(#y)"
     opacity=".2"
     id="path81" />
  <path
     d="m30.316847 12.77612c-0.04657-0.552039-0.528486-0.958967-1.080525-0.912394l-1.99292 0.168133 0.168133 1.99292 0.747346-0.06305a0.25 0.25 0 0 1 0.268702 0.211159l0.465303 5.515407a0.25 0.25 0 0 1-0.229614 0.252195l-0.747345 0.06305 0.168134 1.992921 1.992921-0.168135c0.55204-0.04657 0.958967-0.528487 0.912395-1.080526z"
     fill="url(#ab)"
     id="path83" />
  <path
     d="m29.36242 13.358416c-0.02328-0.276019-0.264243-0.479484-0.540264-0.456197l-1.49469 0.126101 0.08407 0.99646 0.747345-0.06305a0.25 0.25 0 0 1 0.268703 0.211158l0.465303 5.515407a0.25 0.25 0 0 1-0.229612 0.252195l-0.747345 0.06305 0.08407 0.99646 1.49469-0.1261c0.27602-0.02329 0.479484-0.264244 0.456197-0.540263z"
     fill="url(#n)"
     id="path85" />
  <path
     d="m26.739006 6.053096c-0.046568-0.5520391-0.528487-0.9589669-1.080526-0.9123944l-0.99646 0.084066 2.017579 23.915043 0.99646-0.08407c0.552039-0.04657 0.958967-0.528488 0.912394-1.080526z"
     fill="url(#ad)"
     id="path87" />
  <path
     d="m24.66202 5.2247674 2.017579 23.915044 0.99646-0.08406-2.013155-23.862613z"
     fill="url(#p)"
     stroke-width=".99890316"
     id="path89" />
</svg>
