<?xml version="1.0" encoding="UTF-8" standalone="no"?>
<!-- Created with Inkscape (http://www.inkscape.org/) -->

<svg
   width="96"
   height="96"
   viewBox="0 0 25.399999 25.400001"
   version="1.1"
   id="svg5"
   inkscape:version="1.1.1 (3bf5ae0d25, 2021-09-20)"
   sodipodi:docname="folder.svg"
   xmlns:inkscape="http://www.inkscape.org/namespaces/inkscape"
   xmlns:sodipodi="http://sodipodi.sourceforge.net/DTD/sodipodi-0.dtd"
   xmlns:xlink="http://www.w3.org/1999/xlink"
   xmlns="http://www.w3.org/2000/svg"
   xmlns:svg="http://www.w3.org/2000/svg">
  <sodipodi:namedview
     id="namedview7"
     pagecolor="#ffffff"
     bordercolor="#666666"
     borderopacity="1.0"
     inkscape:pageshadow="2"
     inkscape:pageopacity="0.0"
     inkscape:pagecheckerboard="0"
     inkscape:document-units="px"
     showgrid="false"
     units="px"
     height="96px"
     inkscape:zoom="2.8873527"
     inkscape:cx="-43.119083"
     inkscape:cy="23.897323"
     inkscape:window-width="1920"
     inkscape:window-height="1011"
     inkscape:window-x="0"
     inkscape:window-y="0"
     inkscape:window-maximized="1"
     inkscape:current-layer="svg5" />
  <defs
     id="defs2">
    <linearGradient
       inkscape:collect="always"
       id="linearGradient1504">
      <stop
         style="stop-color:#46a2d7;stop-opacity:0.5"
         offset="0"
         id="stop1500" />
      <stop
         style="stop-color:#46a2d7;stop-opacity:0"
         offset="0.19972858"
         id="stop1572" />
      <stop
         style="stop-color:#46a2d7;stop-opacity:0"
         offset="0.81784678"
         id="stop1638" />
      <stop
         style="stop-color:#46a2d7;stop-opacity:0.5"
         offset="1"
         id="stop1502" />
    </linearGradient>
    <linearGradient
       inkscape:collect="always"
       id="linearGradient3734">
      <stop
         style="stop-color:#83d4fb;stop-opacity:1"
         offset="0"
         id="stop3730" />
      <stop
         style="stop-color:#60c0f0;stop-opacity:1"
         offset="1"
         id="stop3732" />
    </linearGradient>
    <linearGradient
       inkscape:collect="always"
       xlink:href="#linearGradient3734"
       id="linearGradient3736"
       x1="15.081244"
       y1="23.283333"
       x2="15.081244"
       y2="5.5562501"
       gradientUnits="userSpaceOnUse" />
    <linearGradient
       inkscape:collect="always"
       xlink:href="#linearGradient1504"
       id="linearGradient1506"
       x1="1.3229166"
       y1="14.2875"
       x2="24.077084"
       y2="14.2875"
       gradientUnits="userSpaceOnUse" />
  </defs>
  <path
     id="rect846-3"
     style="fill:#46a2d7;stroke-width:0.300092;fill-opacity:1"
     d="m 1.3229165,2.1166673 8.9958335,-7e-7 2.381251,3.1749999 11.377083,7e-7 V 18.785418 H 1.3229165 Z"
     sodipodi:nodetypes="ccccccc" />
  <path
     id="rect956"
     style="opacity:0.2;fill:#f9f9f9;stroke-width:0.458269"
     d="m 10.31875,2.1166666 2.381251,3.1749999 11.377083,7e-7 V 5.5562501 H 12.700001 Z"
     sodipodi:nodetypes="cccccc" />
  <path
     id="rect956-3"
     style="opacity:0.2;stroke-width:0.458269"
     d="M 10.054167,8.4666662 12.7,5.5562501 10.31875,8.7312498 H 1.3229166 V 8.4666662 Z"
     sodipodi:nodetypes="cccccc" />
  <path
     id="rect846"
     style="fill:url(#linearGradient3736);stroke-width:0.309472;fill-opacity:1"
     d="M 1.3229166,8.7312498 H 10.31875 L 12.700001,5.5562501 H 24.077084 V 23.283333 H 1.3229166 Z"
     sodipodi:nodetypes="ccccccc" />
  <path
     id="rect846-7"
     style="fill:url(#linearGradient1506);fill-opacity:1;stroke-width:0.309472"
     d="m 1.3229159,8.9958338 h 9.2604171 l 2.116668,-3.439584 H 24.077084 V 23.018749 H 1.3229159 Z"
     sodipodi:nodetypes="ccccccc" />
  <path
     id="rect956-3-6"
     style="opacity:0.2;fill:#f9f9f9;stroke-width:0.458269"
     d="M 10.31875,8.7312498 12.700001,5.5562501 10.583333,8.9958338 H 1.3229166 v -0.264584 z"
     sodipodi:nodetypes="cccccc" />
  <path
     id="rect956-3-7"
     style="opacity:0.2;stroke-width:0.458269"
     d="m 24.077084,23.018749 v 0.264584 H 1.3229166 v -0.264584 z"
     sodipodi:nodetypes="ccccc" />
  <path
     id="path848"
     d="m 12.675195,10.847958 c -0.966488,0.01278 -1.760637,0.766643 -1.823661,1.731161 l -5.17e-4,0.385506 h 0.2651 l 0.001,-0.385506 c 0.06321,-0.827424 0.753017,-1.466556 1.582851,-1.466577 0.829633,2.64e-4 1.519137,0.639352 1.582332,1.466577 l 0.0052,2.237589 H 9.525 v 3.96875 h 6.35 v -3.96875 h -1.322917 l -0.0036,-2.237589 C 14.484738,11.605137 13.676061,10.847781 12.7,10.847958 c -0.0083,-5.5e-5 -0.01655,-5.5e-5 -0.02481,0 z m -2.885612,4.233334 h 5.820833 v 3.439583 H 9.789583 Z"
     style="fill:#46a2d7;stroke-linejoin:round"
     stroke-width="0.29459" />
</svg>
