<?xml version="1.0" encoding="UTF-8" standalone="no"?>
<!-- Created with Inkscape (http://www.inkscape.org/) -->

<svg
   xmlns:dc="http://purl.org/dc/elements/1.1/"
   xmlns:cc="http://creativecommons.org/ns#"
   xmlns:rdf="http://www.w3.org/1999/02/22-rdf-syntax-ns#"
   xmlns:svg="http://www.w3.org/2000/svg"
   xmlns="http://www.w3.org/2000/svg"
   xmlns:xlink="http://www.w3.org/1999/xlink"
   xmlns:sodipodi="http://sodipodi.sourceforge.net/DTD/sodipodi-0.dtd"
   xmlns:inkscape="http://www.inkscape.org/namespaces/inkscape"
   width="48"
   version="1.1"
   height="48"
   id="svg21"
   sodipodi:docname="gnome-help.svg"
   inkscape:version="0.92.1 r15371">
  <sodipodi:namedview
     pagecolor="#ffffff"
     bordercolor="#666666"
     borderopacity="1"
     objecttolerance="10"
     gridtolerance="10"
     guidetolerance="10"
     inkscape:pageopacity="0"
     inkscape:pageshadow="2"
     inkscape:window-width="1600"
     inkscape:window-height="808"
     id="namedview23"
     showgrid="true"
     inkscape:zoom="7.54"
     inkscape:cx="-5.1038689"
     inkscape:cy="29.810109"
     inkscape:window-x="0"
     inkscape:window-y="0"
     inkscape:window-maximized="1"
     inkscape:current-layer="layer1">
    <inkscape:grid
       type="xygrid"
       id="grid4506" />
  </sodipodi:namedview>
  <defs
     id="defs3811">
    <linearGradient
       inkscape:collect="always"
       id="linearGradient4227">
      <stop
         style="stop-color:#292c2f"
         id="stop4229" />
      <stop
         offset="1"
         style="stop-opacity:0"
         id="stop4231" />
    </linearGradient>
    <linearGradient
       inkscape:collect="always"
       id="linearGradient4191"
       xlink:href="#linearGradient4227"
       y1="9"
       y2="23"
       x1="9.0000095"
       gradientUnits="userSpaceOnUse"
       x2="23.00004"
       gradientTransform="matrix(1.5384615,0,0,1.5384615,-0.15384,0.76883)" />
    <linearGradient
       inkscape:collect="always"
       id="linearGradient4298">
      <stop
         style="stop-color:#b985ce"
         id="stop4300" />
      <stop
         offset="1"
         style="stop-color:#e2cdeb"
         id="stop4302" />
    </linearGradient>
    <linearGradient
       inkscape:collect="always"
       id="linearGradient4300-1">
      <stop
         style="stop-color:#8e44ad"
         id="stop4302-0" />
      <stop
         offset="1"
         style="stop-color:#9b59b6"
         id="stop4304-6" />
    </linearGradient>
    <linearGradient
       inkscape:collect="always"
       xlink:href="#linearGradient4298"
       id="linearGradient4537"
       x1="760.85718"
       y1="200.93361"
       x2="760.85718"
       y2="182.93361"
       gradientUnits="userSpaceOnUse"
       gradientTransform="translate(0,4.9996)" />
    <linearGradient
       inkscape:collect="always"
       xlink:href="#linearGradient4300-1"
       id="linearGradient4507"
       x1="761.85718"
       y1="218.75589"
       x2="761.85718"
       y2="178.83546"
       gradientUnits="userSpaceOnUse" />
  </defs>
  <metadata
     id="metadata3814">
    <rdf:RDF>
      <cc:Work
         rdf:about="">
        <dc:format>image/svg+xml</dc:format>
        <dc:type
           rdf:resource="http://purl.org/dc/dcmitype/StillImage" />
        <dc:title></dc:title>
      </cc:Work>
    </rdf:RDF>
  </metadata>
  <g
     inkscape:label="Layer 1"
     inkscape:groupmode="layer"
     id="layer1"
     transform="translate(-736.85718,-173.93361)">
    <circle
       style="opacity:1;vector-effect:none;fill:url(#linearGradient4507);fill-opacity:1;stroke:none;stroke-width:1.91578078;stroke-linecap:round;stroke-linejoin:round;stroke-miterlimit:4;stroke-dasharray:none;stroke-dashoffset:0;stroke-opacity:1"
       id="path4499"
       cx="760.85718"
       cy="197.93361"
       r="20" />
    <path
       style="opacity:0.2;fill:url(#linearGradient4191);fill-rule:evenodd;stroke-width:0.76923078"
       d="M 22 16 L 17 20 L 23 26 L 23 28 L 26.076172 31.076172 L 23 33 L 28.341797 38.341797 L 37.890625 38.386719 A 20 20 0 0 0 42.84375 30.634766 L 28.308594 16.099609 L 22 16 z "
       transform="translate(736.85718,173.93361)"
       id="path4184" />
    <path
       style="color:#000000;font-style:normal;font-variant:normal;font-weight:normal;font-stretch:normal;font-size:medium;line-height:normal;font-family:sans-serif;font-variant-ligatures:normal;font-variant-position:normal;font-variant-caps:normal;font-variant-numeric:normal;font-variant-alternates:normal;font-feature-settings:normal;text-indent:0;text-align:start;text-decoration:none;text-decoration-line:none;text-decoration-style:solid;text-decoration-color:#000000;letter-spacing:normal;word-spacing:normal;text-transform:none;writing-mode:lr-tb;direction:ltr;text-orientation:mixed;dominant-baseline:auto;baseline-shift:baseline;text-anchor:start;white-space:normal;shape-padding:0;clip-rule:nonzero;display:inline;overflow:visible;visibility:visible;opacity:1;isolation:auto;mix-blend-mode:normal;color-interpolation:sRGB;color-interpolation-filters:linearRGB;solid-color:#000000;solid-opacity:1;vector-effect:none;fill:url(#linearGradient4537);fill-opacity:1;fill-rule:nonzero;stroke:none;stroke-width:3;stroke-linecap:butt;stroke-linejoin:miter;stroke-miterlimit:4;stroke-dasharray:none;stroke-dashoffset:0;stroke-opacity:1;color-rendering:auto;image-rendering:auto;shape-rendering:auto;text-rendering:auto;enable-background:accumulate"
       d="m 760.35913,187.93321 c -3.40734,0.001 -6.23985,2.615 -6.50195,6 h 3.03125 c 0.24913,-1.71978 1.72681,-2.99706 3.4707,-3 1.74464,0.002 3.22343,1.27949 3.47266,3 0.0254,2 -1.5309,2.41966 -2.53516,3.43945 -0.97856,0.97855 -1.40956,1.95496 -1.45312,2.74219 -0.0436,0.78724 0.0137,1.81836 0.0137,1.81836 h 3 c 2.9e-4,0 -0.045,-1.3058 0,-1.62109 0.1745,-1.21562 1.49762,-1.69103 2.52734,-2.91797 0.34398,-0.41278 0.66699,-0.83653 0.93555,-1.29102 0.45028,-0.81946 0.5084,-1.4011 0.53711,-2.16992 -0.26199,-3.38351 -3.0922,-5.9968 -6.49805,-6 z m -0.50195,16 v 3 h 3 v -3 z"
       id="path4508"
       inkscape:connector-curvature="0" />
    <path
       style="opacity:0.2;vector-effect:none;fill:#000000;fill-opacity:1;stroke:none;stroke-width:1.91578078;stroke-linecap:round;stroke-linejoin:round;stroke-miterlimit:4;stroke-dasharray:none;stroke-dashoffset:0;stroke-opacity:1"
       d="M 43.978516 23.417969 A 20 20 0 0 1 24 43 A 20 20 0 0 1 4.0214844 23.582031 A 20 20 0 0 0 4 24 A 20 20 0 0 0 24 44 A 20 20 0 0 0 44 24 A 20 20 0 0 0 43.978516 23.417969 z "
       transform="translate(736.85718,173.93361)"
       id="circle4512" />
  </g>
</svg>
