<?xml version="1.0" encoding="UTF-8" standalone="no"?>
<svg
   xmlns:dc="http://purl.org/dc/elements/1.1/"
   xmlns:cc="http://creativecommons.org/ns#"
   xmlns:rdf="http://www.w3.org/1999/02/22-rdf-syntax-ns#"
   xmlns:svg="http://www.w3.org/2000/svg"
   xmlns="http://www.w3.org/2000/svg"
   xmlns:xlink="http://www.w3.org/1999/xlink"
   xmlns:sodipodi="http://sodipodi.sourceforge.net/DTD/sodipodi-0.dtd"
   xmlns:inkscape="http://www.inkscape.org/namespaces/inkscape"
   width="48"
   height="48"
   version="1.1"
   id="svg29"
   sodipodi:docname="org.gnome.Polari.svg"
   inkscape:version="0.92.1 r15371">
  <metadata
     id="metadata33">
    <rdf:RDF>
      <cc:Work
         rdf:about="">
        <dc:format>image/svg+xml</dc:format>
        <dc:type
           rdf:resource="http://purl.org/dc/dcmitype/StillImage" />
        <dc:title></dc:title>
      </cc:Work>
    </rdf:RDF>
  </metadata>
  <sodipodi:namedview
     pagecolor="#ffffff"
     bordercolor="#666666"
     borderopacity="1"
     objecttolerance="10"
     gridtolerance="10"
     guidetolerance="10"
     inkscape:pageopacity="0"
     inkscape:pageshadow="2"
     inkscape:window-width="1600"
     inkscape:window-height="808"
     id="namedview31"
     showgrid="false"
     inkscape:zoom="5.71"
     inkscape:cx="30.931442"
     inkscape:cy="17.267687"
     inkscape:window-x="0"
     inkscape:window-y="0"
     inkscape:window-maximized="1"
     inkscape:current-layer="svg29" />
  <defs
     id="defs17">
    <linearGradient
       inkscape:collect="always"
       id="linearGradient4580">
      <stop
         style="stop-color:#ffffff;stop-opacity:1;"
         offset="0"
         id="stop4576" />
      <stop
         style="stop-color:#77c154;stop-opacity:1"
         offset="1"
         id="stop4578" />
    </linearGradient>
    <linearGradient
       inkscape:collect="always"
       id="linearGradient4572">
      <stop
         style="stop-color:#57a12b;stop-opacity:1"
         offset="0"
         id="stop4568" />
      <stop
         style="stop-color:#a0e07b;stop-opacity:1"
         offset="1"
         id="stop4570" />
    </linearGradient>
    <linearGradient
       inkscape:collect="always"
       id="linearGradient4559">
      <stop
         style="stop-color:#000000;stop-opacity:1;"
         offset="0"
         id="stop4555" />
      <stop
         style="stop-color:#000000;stop-opacity:0;"
         offset="1"
         id="stop4557" />
    </linearGradient>
    <linearGradient
       inkscape:collect="always"
       xlink:href="#linearGradient4559"
       id="linearGradient4561"
       x1="17.074766"
       y1="11.643701"
       x2="35.911217"
       y2="30.48015"
       gradientUnits="userSpaceOnUse" />
    <linearGradient
       inkscape:collect="always"
       xlink:href="#linearGradient4572"
       id="linearGradient4574"
       x1="16.959721"
       y1="40.287216"
       x2="16.959721"
       y2="4.3852892"
       gradientUnits="userSpaceOnUse" />
    <linearGradient
       inkscape:collect="always"
       xlink:href="#linearGradient4580"
       id="linearGradient4582"
       x1="25.535902"
       y1="6.0402803"
       x2="26"
       y2="31"
       gradientUnits="userSpaceOnUse" />
  </defs>
  <path
     inkscape:connector-curvature="0"
     style="fill:url(#linearGradient4574);fill-rule:evenodd;fill-opacity:1"
     id="path19"
     d="M 44,4 V 34 H 24 L 13,44 V 34 H 4 V 4 Z" />
  <path
     style="opacity:0.2;vector-effect:none;fill:url(#linearGradient4561);fill-opacity:1;stroke:none;stroke-width:2.21739864;stroke-linecap:round;stroke-linejoin:round;stroke-miterlimit:4;stroke-dasharray:none;stroke-dashoffset:0;stroke-opacity:1"
     d="M 23 7 L 21.082031 8.9179688 L 20.515625 15.0625 L 19.15625 14.675781 L 12 16 L 18.275391 22.275391 L 17.9375 23.285156 L 16.082031 23.609375 L 11 24 L 17 30 L 16 31 L 21.380859 36.380859 L 24 34 L 44 34 L 44 19.955078 L 31.333984 7.2890625 L 31.042969 7 L 29.623047 8.0917969 L 28.505859 12.505859 L 24.810547 8.8105469 L 23 7 z "
     id="rect4542" />
  <path
     style="opacity:1;vector-effect:none;fill:url(#linearGradient4582);fill-opacity:1;stroke:none;stroke-width:1.93330097;stroke-linecap:round;stroke-linejoin:round;stroke-miterlimit:4;stroke-dasharray:none;stroke-dashoffset:0;stroke-opacity:1"
     d="m 21,7 -1.458984,7 H 12.5 L 12,16 h 7.125 l -1.25,6 H 11.5 L 11,24 h 6.458984 L 16,31 h 2 l 1.458984,-7 h 6 L 24,31 h 2 l 1.458984,-7 H 35 l 0.5,-2 h -7.625 l 1.25,-6 H 36 l 0.5,-2 H 29.541016 L 31,7 h -2 l -1.458984,7 h -6 L 23,7 Z m 0.125,9 h 6 l -1.25,6 h -6 z"
     id="rect4514"
     inkscape:connector-curvature="0" />
  <path
     style="fill:#000000;fill-rule:evenodd;fill-opacity:1;opacity:0.2"
     d="M 4 33 L 4 34 L 13 34 L 13 33 L 4 33 z M 24 33 L 13 43 L 13 44 L 24 34 L 44 34 L 44 33 L 24 33 z "
     id="path4563" />
</svg>
