<?xml version="1.0" encoding="UTF-8" standalone="no"?>
<!-- Created with Inkscape (http://www.inkscape.org/) -->

<svg
   xmlns:dc="http://purl.org/dc/elements/1.1/"
   xmlns:cc="http://creativecommons.org/ns#"
   xmlns:rdf="http://www.w3.org/1999/02/22-rdf-syntax-ns#"
   xmlns:svg="http://www.w3.org/2000/svg"
   xmlns="http://www.w3.org/2000/svg"
   xmlns:sodipodi="http://sodipodi.sourceforge.net/DTD/sodipodi-0.dtd"
   xmlns:inkscape="http://www.inkscape.org/namespaces/inkscape"
   id="svg7384"
   height="16"
   width="16"
   version="1.1"
   sodipodi:docname="display-projector-symbolic.svg"
   inkscape:version="0.92.1 r15371">
  <defs
     id="defs10" />
  <sodipodi:namedview
     pagecolor="#ffffff"
     bordercolor="#666666"
     borderopacity="1"
     objecttolerance="10"
     gridtolerance="10"
     guidetolerance="10"
     inkscape:pageopacity="0"
     inkscape:pageshadow="2"
     inkscape:window-width="1600"
     inkscape:window-height="808"
     id="namedview8"
     showgrid="true"
     inkscape:zoom="19.46"
     inkscape:cx="5.5800919"
     inkscape:cy="8"
     inkscape:window-x="0"
     inkscape:window-y="0"
     inkscape:window-maximized="1"
     inkscape:current-layer="svg7384">
    <inkscape:grid
       type="xygrid"
       id="grid4491" />
  </sodipodi:namedview>
  <metadata
     id="metadata90">
    <rdf:RDF>
      <cc:Work
         rdf:about="">
        <dc:format>image/svg+xml</dc:format>
        <dc:type
           rdf:resource="http://purl.org/dc/dcmitype/StillImage" />
        <dc:title>Gnome Symbolic Icon Theme</dc:title>
      </cc:Work>
    </rdf:RDF>
  </metadata>
  <title
     id="title9167">Gnome Symbolic Icon Theme</title>
  <path
     style="opacity:1;vector-effect:none;fill:#232627;fill-opacity:1;stroke:none;stroke-width:2.02220201;stroke-linecap:round;stroke-linejoin:round;stroke-miterlimit:4;stroke-dasharray:none;stroke-dashoffset:0;stroke-opacity:1"
     d="M 0 4 L 0 12 L 1 12 L 1 13 L 3 13 L 3 12 L 13 12 L 13 13 L 15 13 L 15 12 L 16 12 L 16 4 L 0 4 z M 1 5 L 15 5 L 15 11 L 1 11 L 1 5 z M 2 6 L 2 10 L 3 10 L 3 6 L 2 6 z M 4 6 L 4 10 L 5 10 L 5 6 L 4 6 z M 6 6 L 6 10 L 7 10 L 7 6 L 6 6 z M 12 6 A 2 2 0 0 0 10 8 A 2 2 0 0 0 12 10 A 2 2 0 0 0 14 8 A 2 2 0 0 0 12 6 z M 12 7 A 1 1 0 0 1 13 8 A 1 1 0 0 1 12 9 A 1 1 0 0 1 11 8 A 1 1 0 0 1 12 7 z "
     id="rect4487" />
</svg>
