<?xml version="1.0" encoding="UTF-8" standalone="no"?>
<svg
   width="16"
   height="16"
   viewBox="0 0 4.2333332 4.2333335"
   version="1.1"
   id="svg1682"
   inkscape:version="1.1.1 (3bf5ae0d25, 2021-09-20, custom)"
   sodipodi:docname="weather-windy-small.svg"
   xmlns:inkscape="http://www.inkscape.org/namespaces/inkscape"
   xmlns:sodipodi="http://sodipodi.sourceforge.net/DTD/sodipodi-0.dtd"
   xmlns="http://www.w3.org/2000/svg"
   xmlns:svg="http://www.w3.org/2000/svg"
   xmlns:rdf="http://www.w3.org/1999/02/22-rdf-syntax-ns#"
   xmlns:cc="http://creativecommons.org/ns#"
   xmlns:dc="http://purl.org/dc/elements/1.1/">
  <defs
     id="defs1676" />
  <sodipodi:namedview
     id="base"
     pagecolor="#ffffff"
     bordercolor="#666666"
     borderopacity="1.0"
     inkscape:pageopacity="0.0"
     inkscape:pageshadow="2"
     inkscape:zoom="12.649355"
     inkscape:cx="-10.198148"
     inkscape:cy="24.823399"
     inkscape:document-units="px"
     inkscape:current-layer="svg1682"
     inkscape:document-rotation="0"
     showgrid="false"
     units="px"
     showguides="true"
     inkscape:window-width="1920"
     inkscape:window-height="1019"
     inkscape:window-x="0"
     inkscape:window-y="0"
     inkscape:window-maximized="1"
     inkscape:pagecheckerboard="0" />
  <metadata
     id="metadata1679">
    <rdf:RDF>
      <cc:Work
         rdf:about="">
        <dc:format>image/svg+xml</dc:format>
        <dc:type
           rdf:resource="http://purl.org/dc/dcmitype/StillImage" />
      </cc:Work>
    </rdf:RDF>
  </metadata>
  <path
     id="rect2245"
     style="fill:#3daee9;fill-opacity:1;stroke-width:0.145815"
     d="M 2.1037476,0.66145835 C 1.8165543,0.66847197 1.5874144,0.90334605 1.5875,1.190625 h 0.2645833 c 10e-8,-0.1461253 0.1184581,-0.26458335 0.2645834,-0.26458335 0.1461253,10e-8 0.2645833,0.11845805 0.2645833,0.26458335 0,0.1461253 -0.1191832,0.2500432 -0.2645833,0.2645833 H 0.79375003 V 1.7197917 H 2.1166667 c 0.2922507,0 0.5291666,-0.236916 0.5291666,-0.5291667 0,-0.29225065 -0.2369159,-0.5291666 -0.5291666,-0.52916665 -0.00431,-5.257e-5 -0.00861,-5.257e-5 -0.012919,0 z M 3.1620809,1.3229167 C 2.8748876,1.3299303 2.6457477,1.5648045 2.6458333,1.8520834 H 2.9104166 C 2.9104166,1.705958 3.0288746,1.5875 3.175,1.5875 c 0.1461253,0 0.2645833,0.1184581 0.2645833,0.2645834 0,0.1461253 -0.118458,0.2645833 -0.2645833,0.2645833 H 0.52916666 V 2.38125 H 3.175 c 0.2922506,0 0.5291666,-0.236916 0.5291666,-0.5291666 0,-0.2922507 -0.2369159,-0.5291667 -0.5291666,-0.5291667 -0.00431,-5.26e-5 -0.00861,-5.26e-5 -0.012919,0 z M 2.5006225,2.5135417 C 2.2134292,2.5205553 1.9842893,2.7554295 1.9843749,3.0427084 h 0.2645834 c 0,-0.1461253 0.118458,-0.2645834 0.2645833,-0.2645834 0.1461254,0 0.2645834,0.1184581 0.2645833,0.2645834 0,0.1461253 -0.1188292,0.2749943 -0.2645833,0.2645833 H 0.66145834 V 3.571875 H 2.5135416 c 0.2922507,0 0.5291667,-0.2369159 0.5291667,-0.5291666 10e-8,-0.2922507 -0.236916,-0.5291667 -0.5291667,-0.5291667 -0.00431,-5.26e-5 -0.00861,-5.26e-5 -0.012919,0 z"
     sodipodi:nodetypes="cccsssccsscccccsssccsscccccsssccsscc" />
</svg>
