<?xml version="1.0" encoding="UTF-8" standalone="no"?>
<svg
   xmlns:dc="http://purl.org/dc/elements/1.1/"
   xmlns:cc="http://creativecommons.org/ns#"
   xmlns:rdf="http://www.w3.org/1999/02/22-rdf-syntax-ns#"
   xmlns:svg="http://www.w3.org/2000/svg"
   xmlns="http://www.w3.org/2000/svg"
   xmlns:sodipodi="http://sodipodi.sourceforge.net/DTD/sodipodi-0.dtd"
   xmlns:inkscape="http://www.inkscape.org/namespaces/inkscape"
   viewBox="0 0 16 16"
   version="1.1"
   id="svg8"
   sodipodi:docname="microphone-sensitivity-medium-symbolic.svg"
   width="16"
   height="16"
   inkscape:version="0.92.1 r15371">
  <metadata
     id="metadata12">
    <rdf:RDF>
      <cc:Work
         rdf:about="">
        <dc:format>image/svg+xml</dc:format>
        <dc:type
           rdf:resource="http://purl.org/dc/dcmitype/StillImage" />
        <dc:title></dc:title>
      </cc:Work>
    </rdf:RDF>
  </metadata>
  <sodipodi:namedview
     pagecolor="#ffffff"
     bordercolor="#666666"
     borderopacity="1"
     objecttolerance="10"
     gridtolerance="10"
     guidetolerance="10"
     inkscape:pageopacity="0"
     inkscape:pageshadow="2"
     inkscape:window-width="1600"
     inkscape:window-height="808"
     id="namedview10"
     showgrid="false"
     inkscape:zoom="10.727273"
     inkscape:cx="-8.0635593"
     inkscape:cy="11"
     inkscape:window-x="0"
     inkscape:window-y="0"
     inkscape:window-maximized="1"
     inkscape:current-layer="svg8" />
  <defs
     id="defs3051">
    <style
       type="text/css"
       id="current-color-scheme">
      .ColorScheme-Text {
        color:#232627;
      }
      </style>
  </defs>
  <path
     style="color:#eff0f1;fill:#eff0f1;fill-opacity:1;stroke:none"
     d="M 5.5,0 C 4.115,0 3,1.115 3,2.5 v 6 C 3,9.885 4.115,11 5.5,11 6.885,11 8,9.885 8,8.5 v -6 C 8,1.115 6.885,0 5.5,0 Z M 11.767578,4.4609375 11,4.9472656 c 0.698954,0.9271285 1.06889,1.9810079 1.072266,3.0546874 -0.0023,1.0742041 -0.371613,2.128792 -1.070313,3.056641 l 0.767578,0.486328 c 0.83771,-1.067993 1.282151,-2.2932451 1.285157,-3.542969 -0.0041,-1.2492036 -0.449158,-2.4737436 -1.28711,-3.5410155 z M 0,7 v 1 c 9.163e-4,2.235554 1.6341118,4.198898 4,4.808594 V 15 H 2 v 1 H 9 V 15 H 7 V 12.806641 C 9.365122,12.197142 10.998124,10.23483 11,8 V 7 H 10 V 8 C 10,10.209139 7.9852814,12 5.5,12 3.0147186,12 1,10.209139 1,8 V 7 Z"
     id="path4"
     inkscape:connector-curvature="0"
     sodipodi:nodetypes="sssssssccccccccccccccccccccssscc" />
</svg>
