<?xml version="1.0" encoding="UTF-8" standalone="no"?>
<!-- Created with Inkscape (http://www.inkscape.org/) -->

<svg
   xmlns:dc="http://purl.org/dc/elements/1.1/"
   xmlns:cc="http://creativecommons.org/ns#"
   xmlns:rdf="http://www.w3.org/1999/02/22-rdf-syntax-ns#"
   xmlns:svg="http://www.w3.org/2000/svg"
   xmlns="http://www.w3.org/2000/svg"
   xmlns:sodipodi="http://sodipodi.sourceforge.net/DTD/sodipodi-0.dtd"
   xmlns:inkscape="http://www.inkscape.org/namespaces/inkscape"
   id="svg7384"
   height="16"
   width="16"
   version="1.1"
   sodipodi:docname="network-wireless-hotspot-symbolic.svg"
   inkscape:version="0.92.1 r15371">
  <defs
     id="defs9" />
  <sodipodi:namedview
     pagecolor="#ffffff"
     bordercolor="#666666"
     borderopacity="1"
     objecttolerance="10"
     gridtolerance="10"
     guidetolerance="10"
     inkscape:pageopacity="0"
     inkscape:pageshadow="2"
     inkscape:window-width="1600"
     inkscape:window-height="808"
     id="namedview7"
     showgrid="false"
     inkscape:zoom="14.75"
     inkscape:cx="-5.8644068"
     inkscape:cy="8"
     inkscape:window-x="0"
     inkscape:window-y="0"
     inkscape:window-maximized="1"
     inkscape:current-layer="svg7384" />
  <metadata
     id="metadata90">
    <rdf:RDF>
      <cc:Work
         rdf:about="">
        <dc:format>image/svg+xml</dc:format>
        <dc:type
           rdf:resource="http://purl.org/dc/dcmitype/StillImage" />
        <dc:title>Gnome Symbolic Icon Theme</dc:title>
      </cc:Work>
    </rdf:RDF>
  </metadata>
  <title
     id="title9167">Gnome Symbolic Icon Theme</title>
  <path
     inkscape:connector-curvature="0"
     style="opacity:1;fill:#eff0f1;fill-opacity:1;fill-rule:nonzero;stroke:none;stroke-width:0.05321797;stroke-linecap:round;stroke-linejoin:round;stroke-miterlimit:4;stroke-dasharray:none;stroke-dashoffset:0;stroke-opacity:1"
     d="M 8.2377253,-4.6889738e-4 C 8.0278763,0.13117836 7.8318763,0.27008566 7.6498346,0.4135936 L 6.9428033,1.0815623 6.1849908,2.2280467 5.7260064,3.4878123 5.5541314,4.872578 c -0.022671,0.6953132 0.056306,1.3855134 0.2207032,2.0292969 v 0.00781 h 0.00195 c 0.042535,0.1656949 0.076535,0.3078042 0.109375,0.4375 C 8.8258163,6.3472054 12.260557,8.6084112 11.155693,12.749531 10.754809,14.116983 9.5210203,14.775956 8.3373343,15.022969 6.6691297,15.288092 5.2618967,14.465158 4.923272,13.310078 4.860137,12.946316 4.955466,12.473201 5.1713189,12.31789 c 0.00267,-0.0053 0.00551,-0.01707 0.00781,-0.02148 -0.1341702,0.04263 -0.2942559,0.09426 -0.4863281,0.259766 -0.3379437,0.291202 -0.3472896,0.392802 -0.7890601,0.505855 0.2162022,-0.556892 -0.9702437,-1.008555 -0.7558594,-2.203125 0.00496,-0.02765 -0.053467,0.22762 -0.048828,0.199219 -0.5228869,2.639609 2.4347244,5.612391 5.716797,4.808594 C 11.039578,15.359403 12.365832,13.865724 12.804132,12.181172 13.057236,11.208397 12.979355,10.2047 12.749442,9.3628123 12.562179,8.6770889 12.178373,7.9548751 11.602959,7.2905467 11.418604,7.0777055 11.226726,6.8819196 11.030693,6.700703 l -0.0039,-0.00586 -0.01758,-0.013672 C 10.567928,6.2760264 10.111604,5.9412521 9.6732713,5.6245311 L 8.3744443,4.5991405 c -0.02419,-0.023493 -0.04878,-0.046474 -0.07227,-0.070312 L 7.8978813,4.0405467 c -0.03215,-0.047414 -0.06257,-0.095197 -0.091797,-0.1445312 L 7.4974908,3.0854686 7.3861627,1.9702342 7.5385064,1.0268749 c 0.00658,-0.020266 0.012486,-0.0404874 0.019531,-0.0605469 z M 8.8080373,0.03664047 c -0.111661,0.17851897 -0.20674,0.37066191 -0.292968,0.57031251 l -0.261719,0.50585932 -0.375,1.1875 c -0.01752,0.045319 -0.03311,0.090292 -0.04492,0.140625 l 0.58789,0.9667969 0.300782,0.3144531 c 0.03588,0.039633 0.07411,0.078952 0.113281,0.1171876 L 8.7299123,3.1577342 c -0.0026,-0.020116 -0.0053,-0.040297 -0.0078,-0.060547 l -0.02735,-2.4257811 z m -5.3867185,6.35351563 0.039063,1.3203125 -0.28125,0.5585937 0.03125,0.9863282 0.2695313,0.4921875 c 0.019158,0.040321 -0.023865,0.07913 -0.00391,0.1171875 0.1075722,-0.4819679 0.3091235,-0.940991 0.5976564,-1.3417969 l 0.089844,-0.5625 -0.2578097,-0.9804687 z m 3.810547,1.8691406 c -0.11179,0.00258 -0.2249539,0.011206 -0.3359375,0.025391 -1.6664166,0.2133203 -2.8827626,1.6667256 -2.9296876,3.3613273 0.00294,0.0046 0.00485,0.0091 0.00781,0.01367 0.095274,0.148238 0.2018289,0.300612 0.294922,0.476563 0.051779,-0.05601 0.071972,-0.07957 0.1640625,-0.169922 0.2432359,-0.238645 0.5028461,-0.337878 0.6269556,-0.382811 a 0.41699897,0.43397136 0 0 1 0.3476562,0.785157 c 0.073718,-0.04551 -0.011224,0.02105 -0.042969,0.167968 -0.030241,0.139963 -0.031441,0.324817 -0.013672,0.462891 0.2659177,0.981427 1.3423962,1.737822 2.7109373,1.496094 1.013371,-0.242865 1.9990897,-0.841185 2.3281247,-2.119141 0.216239,-0.83986 0.141209,-1.639268 -0.152344,-2.320312 C 9.6493043,8.9533545 8.5108683,8.2294892 7.2318658,8.2592967 Z M 5.1986627,12.288593 c -0.00468,0.0015 -0.010875,0.0044 -0.015625,0.0059 -0.00141,0.0051 -0.00375,0.01318 -0.00391,0.01367 0.00714,-0.0047 0.012133,-0.01552 0.019531,-0.01953 z"
     id="path1795-8" />
</svg>
