<?xml version="1.0" encoding="UTF-8" standalone="no"?>
<!-- Created with Inkscape (http://www.inkscape.org/) -->

<svg
   width="16"
   height="16"
   viewBox="0 0 4.2333332 4.2333335"
   version="1.1"
   id="svg871"
   inkscape:version="1.1 (c4e8f9ed74, 2021-05-24)"
   sodipodi:docname="application-x-show.svg"
   xmlns:inkscape="http://www.inkscape.org/namespaces/inkscape"
   xmlns:sodipodi="http://sodipodi.sourceforge.net/DTD/sodipodi-0.dtd"
   xmlns="http://www.w3.org/2000/svg"
   xmlns:svg="http://www.w3.org/2000/svg">
  <sodipodi:namedview
     id="namedview873"
     pagecolor="#ffffff"
     bordercolor="#666666"
     borderopacity="1.0"
     inkscape:pageshadow="2"
     inkscape:pageopacity="0.0"
     inkscape:pagecheckerboard="0"
     inkscape:document-units="px"
     showgrid="false"
     units="px"
     inkscape:zoom="49.5"
     inkscape:cx="8"
     inkscape:cy="9.6161616"
     inkscape:window-width="1920"
     inkscape:window-height="1018"
     inkscape:window-x="0"
     inkscape:window-y="0"
     inkscape:window-maximized="1"
     inkscape:current-layer="layer1" />
  <defs
     id="defs868" />
  <g
     inkscape:label="레이어 1"
     inkscape:groupmode="layer"
     id="layer1">
    <path
       style="fill:#ea5a47;fill-opacity:1;fill-rule:evenodd;stroke:none;stroke-width:0.0315918"
       inkscape:connector-curvature="0"
       id="타원_5"
       d="M 0.06321908,3.9410795 V 3.467203 H 4.2333333 V 3.9410795 Z M 2.7801116,2.4878584 H 4.2333333 V 2.9617335 H 2.7801116 Z m 0,-0.9793445 H 4.2333333 V 1.982389 H 2.7801116 Z m 0,-0.97934593 H 4.2333333 V 1.0030443 H 2.7801116 Z M 1.2286712,0.93689108 C 0.89939363,0.93488554 0.60142012,1.1316876 0.47401683,1.4353263 0.34661335,1.738965 0.41494176,2.0894656 0.64706706,2.3230161 0.87919235,2.5565666 1.2292699,2.6270392 1.5336819,2.5014968 1.8380939,2.375953 2.0367197,2.0791883 2.0367257,1.7499063 c 0,-0.00686 -8.667e-4,-0.013465 -0.00102,-0.020251 h 0.3962871 c 0,0.00256 2.293e-4,0.00508 2.293e-4,0.00764 0.00221,0.4359397 -0.2290898,0.8397183 -0.6062584,1.0583313 -0.3771687,0.2186146 -0.84250208,0.2186146 -1.21967077,0 C 0.22910546,2.5770189 -0.00219046,2.1732403 1.5641481e-5,1.7373006 1.6351481e-5,1.0612987 0.55895382,0.52916667 1.2289522,0.52916667 h 0.00316 v 0.40791397 c -0.00117,0 -0.00227,-2.8222e-4 -0.00344,-2.8222e-4 z m 0.00344,2.8223e-4 c 0.4381841,0.003254 0.794282,0.35447629 0.8036032,0.79256989 H 1.2321143 Z" />
  </g>
</svg>
