<?xml version="1.0" encoding="UTF-8" standalone="no"?>
<svg
   height="16"
   width="16"
   version="1.1"
   id="svg9"
   sodipodi:docname="folder-games-symbolic.svg"
   inkscape:version="1.1.1 (3bf5ae0d25, 2021-09-20, custom)"
   xmlns:inkscape="http://www.inkscape.org/namespaces/inkscape"
   xmlns:sodipodi="http://sodipodi.sourceforge.net/DTD/sodipodi-0.dtd"
   xmlns="http://www.w3.org/2000/svg"
   xmlns:svg="http://www.w3.org/2000/svg">
  <defs
     id="defs13" />
  <sodipodi:namedview
     id="namedview11"
     pagecolor="#ffffff"
     bordercolor="#666666"
     borderopacity="1.0"
     inkscape:pageshadow="2"
     inkscape:pageopacity="0.0"
     inkscape:pagecheckerboard="0"
     showgrid="false"
     inkscape:zoom="15.221547"
     inkscape:cx="-1.2482306"
     inkscape:cy="14.157562"
     inkscape:window-width="1920"
     inkscape:window-height="1019"
     inkscape:window-x="0"
     inkscape:window-y="31"
     inkscape:window-maximized="1"
     inkscape:current-layer="svg9" />
  <style
     type="text/css"
     id="current-color-scheme">
    .ColorScheme-Text {
        color:#232629;
    }
    </style>
  <path
     id="path1689"
     style="opacity:1;fill:currentColor;stroke-width:1.40264"
     class="ColorScheme-Text"
     d="M 3,3 C 1.3431458,3 0,5.2385763 0,8 v 2.683594 H 0.02539063 C 0.00855768,10.788223 6.7408514e-5,10.894025 0,11 c 0,1.104569 0.89543509,1.996815 2,2 0.8991923,0.0026 1.4140625,-0.585935 1.4140625,-0.585938 l 1.1269531,-1.052734 c 0.014668,0.01784 0.029645,0.03542 0.044922,0.05273 0.7810138,0.780848 2.0471112,0.780848 2.828125,0 C 7.7891536,11.039051 7.9999199,10.530402 8,10 h 0.00586 c -0.00148,0.529563 0.2071348,1.038094 0.5800781,1.414062 0.7810137,0.780847 2.0471109,0.780847 2.8281249,0 0.01928,-0.01914 0.03816,-0.03868 0.05664,-0.05859 l 1.115235,1.058593 c 0,0 0.510068,0.590505 1.414062,0.585938 1.104555,-0.0056 2,-0.895431 2,-2 V 8 c 3e-6,-2.7614237 -1.343146,-5 -3,-5 z m 0,1 h 10 c 1.104569,0 2,1.790861 2,4 v 3 c 0,0.552285 -0.447716,1.00099 -1,1 -0.464241,-8.32e-4 -0.707031,-0.292969 -0.707031,-0.292969 L 11,9.521484 V 10 c 0,0.552285 -0.447795,0.990635 -1,1 C 8.8688043,11.019184 9,9.4477153 9,10 V 9 H 7 v 1 C 7,10.552285 6.5522847,11 6,11 5.4477153,11 5,10.552285 5,10 V 9.550781 l -2.2929688,2.15625 C 2.7070314,11.707031 2.4632925,11.9958 2,12 1.4477382,12.00503 1,11.552285 1,11 V 8 C 1,5.790861 1.8954305,4 3,4 Z M 3.3339844,5 V 6.3339844 H 2 V 7.6660156 H 3.3339844 V 9 H 4.6660156 V 7.6660156 H 6 V 6.3339844 H 4.6660156 V 5 Z M 11.916016,4.916992 c -0.414214,0 -0.75,0.3357864 -0.75,0.75 0,0.4142136 0.335786,0.75 0.75,0.75 0.414214,0 0.75,-0.3357864 0.75,-0.75 0,-0.4142136 -0.335786,-0.75 -0.75,-0.75 z m -1.333985,1.3007812 c -0.414213,1e-7 -0.7499998,0.3357865 -0.7499998,0.75 0,0.4142135 0.3357868,0.7499999 0.7499998,0.75 0.414214,0 0.75,-0.3357864 0.75,-0.75 0,-0.4142136 -0.335786,-0.75 -0.75,-0.75 z m 2.667969,0 c -0.414214,0 -0.75,0.3357864 -0.75,0.75 0,0.4142136 0.335786,0.75 0.75,0.75 0.414214,0 0.75,-0.3357864 0.75,-0.75 0,-0.4142136 -0.335786,-0.75 -0.75,-0.75 z m -1.333984,1.3652344 c -0.414214,0 -0.75,0.3357864 -0.75,0.75 0,0.4142136 0.335786,0.75 0.75,0.75 0.414214,0 0.75,-0.3357864 0.75,-0.75 0,-0.4142136 -0.335786,-0.75 -0.75,-0.75 z"
     sodipodi:nodetypes="sscccccccscccccccscsssssssccsssccssscccssscccccccccccccssssssssssssssssssss" />
</svg>
