<?xml version="1.0" encoding="UTF-8" standalone="no"?>
<svg
   width="22"
   height="22"
   viewBox="0 0 5.8208331 5.8208336"
   version="1.1"
   id="svg8"
   inkscape:version="1.1.1 (3bf5ae0d25, 2021-09-20, custom)"
   sodipodi:docname="weather-clouds-night.svg"
   xmlns:inkscape="http://www.inkscape.org/namespaces/inkscape"
   xmlns:sodipodi="http://sodipodi.sourceforge.net/DTD/sodipodi-0.dtd"
   xmlns:xlink="http://www.w3.org/1999/xlink"
   xmlns="http://www.w3.org/2000/svg"
   xmlns:svg="http://www.w3.org/2000/svg"
   xmlns:rdf="http://www.w3.org/1999/02/22-rdf-syntax-ns#"
   xmlns:cc="http://creativecommons.org/ns#"
   xmlns:dc="http://purl.org/dc/elements/1.1/">
  <defs
     id="defs2">
    <linearGradient
       inkscape:collect="always"
       id="linearGradient914">
      <stop
         style="stop-color:#6f8181;stop-opacity:1;"
         offset="0"
         id="stop910" />
      <stop
         style="stop-color:#334545;stop-opacity:1"
         offset="1"
         id="stop912" />
    </linearGradient>
    <linearGradient
       inkscape:collect="always"
       id="linearGradient839">
      <stop
         style="stop-color:#b0b8b8;stop-opacity:1;"
         offset="0"
         id="stop835" />
      <stop
         style="stop-color:#909c9c;stop-opacity:1"
         offset="1"
         id="stop837" />
    </linearGradient>
    <linearGradient
       inkscape:collect="always"
       xlink:href="#linearGradient839"
       id="linearGradient841"
       x1="2.1057785"
       y1="0.53134418"
       x2="2.1101334"
       y2="3.7194099"
       gradientUnits="userSpaceOnUse"
       gradientTransform="matrix(1.1666667,0,0,1.1666667,-0.08819444,0.17638874)" />
    <linearGradient
       inkscape:collect="always"
       xlink:href="#linearGradient914"
       id="linearGradient916"
       x1="1.7056007"
       y1="1.9596193"
       x2="1.7403708"
       y2="14.009003"
       gradientUnits="userSpaceOnUse"
       gradientTransform="matrix(0.30868057,0,0,0.30868057,-0.08819444,0.17638874)" />
    <linearGradient
       inkscape:collect="always"
       xlink:href="#linearGradient1670"
       id="linearGradient3388"
       x1="12"
       y1="8"
       x2="12.008127"
       y2="19.016552"
       gradientUnits="userSpaceOnUse"
       gradientTransform="matrix(0.26458332,0,0,0.26458332,4.3304545e-6,6.2727269e-8)" />
    <linearGradient
       inkscape:collect="always"
       id="linearGradient1670">
      <stop
         style="stop-color:#eff1f1;stop-opacity:1;"
         offset="0"
         id="stop1666" />
      <stop
         style="stop-color:#b0b8b8;stop-opacity:1"
         offset="1"
         id="stop1668" />
    </linearGradient>
  </defs>
  <sodipodi:namedview
     id="base"
     pagecolor="#ffffff"
     bordercolor="#666666"
     borderopacity="1.0"
     inkscape:pageopacity="0.0"
     inkscape:pageshadow="2"
     inkscape:zoom="4"
     inkscape:cx="-28.625"
     inkscape:cy="26.375"
     inkscape:document-units="px"
     inkscape:current-layer="svg8"
     inkscape:document-rotation="0"
     showgrid="false"
     units="px"
     inkscape:window-width="1920"
     inkscape:window-height="999"
     inkscape:window-x="0"
     inkscape:window-y="0"
     inkscape:window-maximized="1"
     inkscape:pagecheckerboard="0" />
  <metadata
     id="metadata5">
    <rdf:RDF>
      <cc:Work
         rdf:about="">
        <dc:format>image/svg+xml</dc:format>
        <dc:type
           rdf:resource="http://purl.org/dc/dcmitype/StillImage" />
      </cc:Work>
    </rdf:RDF>
  </metadata>
  <circle
     style="fill:url(#linearGradient841);fill-opacity:1;stroke-width:0.437563"
     id="path833"
     cx="2.3812501"
     cy="2.6458333"
     r="1.8520833" />
  <path
     id="rect843"
     style="opacity:0.6;fill:url(#linearGradient916);fill-opacity:1;stroke-width:0.657978"
     d="M 2.0804071,0.81846844 A 1.8520833,1.8520833 0 0 0 0.8981364,1.5371155 L 0.96143974,2.3184631 1.2580625,2.3896041 1.5203204,3.3035879 2.0526741,3.1142802 2.1153749,2.581324 1.9972081,2.2087368 2.4909765,2.0284722 2.9648493,1.7197915 2.8267871,1.2917385 2.0954795,1.4599452 2.0140891,1.1796006 2.6314502,1.0252603 Z M 1.702394,1.7197915 1.825384,2.0284722 1.6095487,2.3371527 1.4552083,2.0284722 Z m 1.6416744,0 L 2.844271,2.1641228 3.0775899,2.5861471 2.967261,3.0889588 2.9986109,3.8805557 3.2457964,3.4175348 3.3072914,2.954514 3.4984082,3.3475994 3.5122745,3.8944222 4.05548,3.4374302 Z M 4.0174982,2.0284722 3.8318078,2.3371527 3.924653,2.6458333 4.1404883,2.3371527 Z m -3.02531065,0.7717014 0.0307478,0.3086806 0.2779331,0.030747 0.030747,-0.2779331 z" />
  <path
     id="path2660"
     style="fill:url(#linearGradient3388);fill-opacity:1;stroke-width:0.15434;stroke-linejoin:round"
     d="m 3.1750042,2.1166667 c -0.7306267,0 -1.3229166,0.5922898 -1.3229166,1.3229166 0.00159,0.016399 0.00348,0.032765 0.00568,0.049093 -0.3181067,0.1097505 -0.5324387,0.4081587 -0.5348509,0.7446573 0,0.4383759 0.3553739,0.79375 0.7937499,0.79375 h 2.2489582 c 0.5114388,0 0.9260417,-0.4146029 0.9260417,-0.9260417 C 5.2913464,3.6308331 4.9386878,3.2355085 4.4715659,3.181718 4.3486003,2.5629716 3.8058507,2.1171339 3.1750042,2.1166667 Z"
     sodipodi:nodetypes="ccccccccc" />
  <path
     id="path2660-5"
     style="opacity:0.2;fill:#000000;fill-opacity:1;stroke-width:0.15434;stroke-linejoin:round"
     d="M 5.2813356,3.9687499 C 5.2169495,4.4173022 4.8319959,4.7624998 4.3656291,4.7624998 H 2.1166709 c -0.3923441,0 -0.7172397,-0.2848191 -0.7813476,-0.6588743 -0.00735,0.042441 -0.012086,0.08562 -0.012402,0.1297077 0,0.4383762 0.3553738,0.79375 0.7937499,0.79375 h 2.2489582 c 0.5114391,0 0.9260417,-0.4146026 0.9260417,-0.9260417 -3.55e-5,-0.044973 -0.00406,-0.088922 -0.010336,-0.1322916 z" />
</svg>
