<svg xmlns="http://www.w3.org/2000/svg" id="svg2" width="22" height="22" version="1.1">
 <defs id="defs12">
  <style id="current-color-scheme" type="text/css">
   .ColorScheme-Text { color:#cecfce; } .ColorScheme-Highlight { color:#3daee9; }
  </style>
 </defs>
 <path id="path4501" style="fill:#cecfce;fill-opacity:1" d="M 7 3 L 5 5 L 17 5 L 15 3 L 7 3 z M 5 6 L 5 18 C 5 18.554 5.446 19 6 19 L 16 19 C 16.554 19 17 18.554 17 18 L 17 6 L 5 6 z M 6.625 7 L 15.375 7 C 15.720164 7.0000276 15.999965 7.2238691 16 7.5 L 16 9.5 L 16 11.5 C 15.999965 11.776131 15.720164 11.999972 15.375 12 L 6.625 12 C 6.2798363 11.999972 6.0000345 11.776131 6 11.5 L 6 9.5 L 6 7.5 C 6.0000345 7.2238691 6.2798363 7.0000276 6.625 7 z M 7 8 L 7 9 L 15 9 L 15 8 L 7 8 z M 7 10 L 7 11 L 15 11 L 15 10 L 7 10 z M 6 14 L 7 14 L 7 15 L 8 15 L 8 14 L 9 14 L 9 15 L 10 15 L 10 14 L 11 14 L 11 15 L 12 15 L 12 14 L 13 14 L 13 15 L 14 15 L 14 14 L 15 14 L 15 15 L 16 15 L 16 16 L 15 16 L 15 17 L 14 17 L 14 16 L 13 16 L 13 17 L 12 17 L 12 16 L 11 16 L 11 17 L 10 17 L 10 16 L 9 16 L 9 17 L 8 17 L 8 16 L 7 16 L 7 17 L 6 17 L 6 16 L 7 16 L 7 15 L 6 15 L 6 14 z"/>
</svg>
