<?xml version="1.0" encoding="UTF-8" standalone="no"?>
<svg
   xmlns:dc="http://purl.org/dc/elements/1.1/"
   xmlns:cc="http://creativecommons.org/ns#"
   xmlns:rdf="http://www.w3.org/1999/02/22-rdf-syntax-ns#"
   xmlns:svg="http://www.w3.org/2000/svg"
   xmlns="http://www.w3.org/2000/svg"
   xmlns:sodipodi="http://sodipodi.sourceforge.net/DTD/sodipodi-0.dtd"
   xmlns:inkscape="http://www.inkscape.org/namespaces/inkscape"
   width="22"
   height="22"
   version="1.1"
   id="svg7"
   sodipodi:docname="antimicro-panel.svg"
   inkscape:version="0.92.3 (2405546, 2018-03-11)">
  <metadata
     id="metadata11">
    <rdf:RDF>
      <cc:Work
         rdf:about="">
        <dc:format>image/svg+xml</dc:format>
        <dc:type
           rdf:resource="http://purl.org/dc/dcmitype/StillImage" />
        <dc:title />
      </cc:Work>
    </rdf:RDF>
  </metadata>
  <sodipodi:namedview
     pagecolor="#ffffff"
     bordercolor="#666666"
     borderopacity="1"
     objecttolerance="10"
     gridtolerance="10"
     guidetolerance="10"
     inkscape:pageopacity="0"
     inkscape:pageshadow="2"
     inkscape:window-width="1920"
     inkscape:window-height="1020"
     id="namedview9"
     showgrid="false"
     inkscape:zoom="20.02"
     inkscape:cx="1.8091908"
     inkscape:cy="11"
     inkscape:window-x="0"
     inkscape:window-y="30"
     inkscape:window-maximized="1"
     inkscape:current-layer="svg7">
    <inkscape:grid
       type="xygrid"
       id="grid835" />
  </sodipodi:namedview>
  <defs
     id="defs3">
    <style
       id="current-color-scheme"
       type="text/css">
   .ColorScheme-Text { color:#cecfce; } .ColorScheme-Highlight { color:#3daee9; }
  </style>
  </defs>
  <path
     style="fill:#cecfce;fill-opacity:1"
     d="m 6.0253906,3 v 0.00195 c -2.4887083,0 -4.3594234,2.0010688 -4.4902344,4.4804688 L 1.0371094,16.943359 C 0.72208294,18.793359 2.5196244,19.9605 4.03125,17.9375 4.9738288,16.6585 7,14 7,14 l 8,0.04102 2.988281,4.021484 c 1.499025,2.012 3.18661,0.357874 2.996094,-1.003906 L 20.488281,7.5839844 c 7.84e-4,-0.034624 0.0098,-0.066745 0.0098,-0.1015625 C 20.498017,5.0000219 18.496121,3 16.007812,3 Z m 0.033203,1 h 9.9492184 c 1.952466,0 3.490211,1.5377482 3.490235,3.4824219 0,-0.137816 -0.0034,-0.1159704 -0.0078,0.078125 -9.67e-4,0.025381 -9.67e-4,0.05079 0,0.076172 l 0.496094,9.4746091 c 0.0014,0.02875 0.004,0.05742 0.0078,0.08594 0.03142,0.224562 -0.187331,0.657706 -0.367188,0.759765 -0.08993,0.05103 -0.124436,0.06017 -0.230469,0.0293 -0.106033,-0.03087 -0.323649,-0.143224 -0.605468,-0.521484 L 15.802734,13.445312 C 15.615429,13.192777 15.320268,13.043026 15.005859,13.041016 L 7.0039062,13 c -0.3133828,-9.11e-4 -0.6090727,0.145127 -0.7988281,0.394531 0,0 -2.0224709,2.651947 -2.9785156,3.949219 -0.5812547,0.773556 -0.8632106,0.683436 -0.9667969,0.636719 -0.1040705,-0.04694 -0.3371079,-0.288779 -0.2382812,-0.869141 0.00678,-0.03811 0.011349,-0.07659 0.013672,-0.115234 L 2.5332031,7.5351562 C 2.6390727,5.528497 4.0727218,4.0019531 6.0253906,4.0019531 6.0364684,4.0014862 6.0475377,4.000835 6.0585936,4 Z M 6,6 V 8 H 4 v 2 h 2 v 2 h 2 v -2 h 2 V 8 H 8 V 6 Z m 9,0 c -0.552298,4.62e-5 -1,0.4477479 -1,1 0,0.5522521 0.447702,0.9999538 1,1 0.552298,-4.62e-5 1,-0.4477479 1,-1 0,-0.5522521 -0.447702,-0.9999538 -1,-1 z m -2,2 c -0.552298,4.62e-5 -1,0.4477479 -1,1 0,0.5522521 0.447702,0.9999538 1,1 0.552298,-4.62e-5 1,-0.4477479 1,-1 0,-0.5522521 -0.447702,-0.9999538 -1,-1 z m 4,0 c -0.552298,4.62e-5 -1,0.4477479 -1,1 0,0.5522521 0.447702,0.9999538 1,1 0.552298,-4.62e-5 1,-0.4477479 1,-1 0,-0.5522521 -0.447702,-0.9999538 -1,-1 z m -2,2 c -0.552298,4.6e-5 -1,0.447748 -1,1 0,0.552252 0.447702,0.999954 1,1 0.552298,-4.6e-5 1,-0.447748 1,-1 0,-0.552252 -0.447702,-0.999954 -1,-1 z"
     id="path828"
     inkscape:connector-curvature="0"
     sodipodi:nodetypes="cccccccccccsccsccccccsccccccccccccccccccccccccccscsccscsccscsccscsc" />
</svg>
