<svg xmlns="http://www.w3.org/2000/svg" id="svg9" width="22" height="22" version="1.1">
 <defs id="defs3">
  <style id="current-color-scheme" type="text/css">
   .ColorScheme-Text { color:#cecfce; } .ColorScheme-Highlight { color:#3daee9; }
  </style>
 </defs>
 <path id="path4498" style="fill:#cecfce;fill-opacity:1" d="M 5 3 C 3.8920284 3 3 3.8920193 3 5 L 3 17 C 3 18.107971 3.8920193 19 5 19 L 17 19 C 18.107971 19 19 18.107981 19 17 L 19 5 C 19 3.8920284 18.107981 3 17 3 L 5 3 z M 5 4 L 17 4 C 17.571266 4 18 4.4287425 18 5 L 18 17 C 18 17.571265 17.571257 18 17 18 L 5 18 C 4.428735 18 4 17.571256 4 17 L 4 5 C 4 4.4287347 4.4287428 4 5 4 z M 8 5 L 8 6 L 7 6 C 6.2499856 6 5.5601501 6.3172882 5.1269531 6.8046875 C 4.6936553 7.2920777 4.5 7.9028032 4.5 8.5 C 4.5 9.097024 4.6936553 9.7102692 5.1269531 10.197266 C 5.5601684 10.685261 6.250004 11 7 11 L 8 11 L 8 12 L 5 12 L 5 14 L 8 14 L 8 15 L 9 15 L 9 14 L 10 14 C 10.750014 14 11.440052 13.685261 11.873047 13.197266 C 12.306042 12.710242 12.5 12.096996 12.5 11.5 C 12.5 10.902977 12.306042 10.291683 11.873047 9.8046875 C 11.440015 9.3166925 10.749996 9 10 9 L 9 9 L 9 8 L 12 8 L 12 6 L 9 6 L 9 5 L 8 5 z M 7 8 L 8 8 L 8 9 L 7 9 C 6.7499982 9 6.6898439 8.9419875 6.6230469 8.8671875 C 6.556351 8.7920945 6.5 8.652799 6.5 8.5 C 6.5 8.347302 6.5563509 8.2098656 6.6230469 8.1347656 C 6.6898442 8.0596702 6.7499982 8 7 8 z M 9 11 L 10 11 C 10.250249 11 10.310033 11.059596 10.376953 11.134766 C 10.443951 11.209768 10.5 11.347 10.5 11.5 C 10.5 11.652991 10.443953 11.792186 10.376953 11.867188 C 10.309954 11.942185 10.250002 12 10 12 L 9 12 L 9 11 z M 12 15 L 12 17 L 17 17 L 17 15 L 12 15 z"/>
</svg>
