<?xml version="1.0" encoding="UTF-8" standalone="no"?>
<svg
   xmlns:dc="http://purl.org/dc/elements/1.1/"
   xmlns:cc="http://creativecommons.org/ns#"
   xmlns:rdf="http://www.w3.org/1999/02/22-rdf-syntax-ns#"
   xmlns:svg="http://www.w3.org/2000/svg"
   xmlns="http://www.w3.org/2000/svg"
   xmlns:sodipodi="http://sodipodi.sourceforge.net/DTD/sodipodi-0.dtd"
   xmlns:inkscape="http://www.inkscape.org/namespaces/inkscape"
   id="svg2"
   width="22"
   height="22"
   version="1.1"
   sodipodi:docname="odrive-tray-sync.svg"
   inkscape:version="0.92.3 (2405546, 2018-03-11)">
  <metadata
     id="metadata14">
    <rdf:RDF>
      <cc:Work
         rdf:about="">
        <dc:format>image/svg+xml</dc:format>
        <dc:type
           rdf:resource="http://purl.org/dc/dcmitype/StillImage" />
        <dc:title></dc:title>
      </cc:Work>
    </rdf:RDF>
  </metadata>
  <sodipodi:namedview
     pagecolor="#ffffff"
     bordercolor="#666666"
     borderopacity="1"
     objecttolerance="10"
     gridtolerance="10"
     guidetolerance="10"
     inkscape:pageopacity="0"
     inkscape:pageshadow="2"
     inkscape:window-width="1920"
     inkscape:window-height="1020"
     id="namedview12"
     showgrid="false"
     inkscape:zoom="10.727273"
     inkscape:cx="11"
     inkscape:cy="11"
     inkscape:window-x="0"
     inkscape:window-y="30"
     inkscape:window-maximized="1"
     inkscape:current-layer="svg2" />
  <defs
     id="defs14">
    <style
       id="current-color-scheme"
       type="text/css">
   .ColorScheme-Text { color:#cecfce; } .ColorScheme-Highlight { color:#3daee9; }
  </style>
  </defs>
  <g
     id="g4"
     transform="translate(.011128 -42.004)">
    <path
       id="path4495"
       style="fill:#cecfce;fill-opacity:1"
       transform="translate(-0.011128,42.004)"
       d="m 8,3 5.5,10 H 20 L 14,3 Z" />
    <path
       id="path4493"
       style="fill:#cecfce;fill-opacity:1"
       transform="translate(-0.011128,42.004)"
       d="M 7.5,4 2,14 5,19 10.5,9.5 Z" />
    <path
       id="path4491"
       style="fill:#cecfce;fill-opacity:1"
       transform="translate(-0.011128,42.004)"
       d="m 9.6914062,4 h 3.7421878 l 4.800781,8 h -4.142578 z" />
    <path
       id="path4489"
       style="fill:#cecfce;fill-opacity:1"
       transform="translate(-0.011128,42.004)"
       d="M 7.4980469,6.0820312 9.3535156,9.4863281 4.984375,17.03125 3.1523438,13.978516 Z" />
    <path
       id="path4487"
       style="fill:#cecfce;fill-opacity:1"
       transform="translate(-0.011128,42.004)"
       d="M 20,14 9,14.009766 6,19 h 11 z" />
    <path
       id="path6"
       style="fill:#cecfce;fill-opacity:1"
       transform="translate(-0.011128,42.004)"
       d="M 18.232422,15.001953 16.433594,18 H 7.7695312 l 1.796875,-2.990234 z" />
  </g>
  <g
     id="g855"
     transform="translate(-420.70999,-524.78998)">
    <rect
       id="rect4153"
       style="opacity:1;fill:#1d99f3;fill-opacity:1;stroke:none"
       width="8"
       height="8"
       x="433.70999"
       y="536.78998"
       ry="4" />
    <path
       inkscape:connector-curvature="0"
       id="path4198"
       style="fill:#ffffff;fill-opacity:1;stroke:none;stroke-linecap:butt;stroke-linejoin:round"
       d="m 435.59297,538.66942 a 3,3 0 0 0 -0.32455,3.86008 l 0.72506,-0.72506 a 2,2 0 0 1 0.3066,-2.42791 2,2 0 0 1 2.4293,-0.30798 l 0.71953,-0.71954 a 3,3 0 0 0 -3.85594,0.32041 z m 0.3867,4.56305 a 3,3 0 0 0 3.85594,-0.32041 3,3 0 0 0 0.32455,-3.86008 l -0.72506,0.72506 a 2,2 0 0 1 -0.3066,2.42791 2,2 0 0 1 -2.4293,0.30798 z" />
  </g>
</svg>
