<?xml version="1.0" encoding="UTF-8" standalone="no"?>
<svg
   xmlns:dc="http://purl.org/dc/elements/1.1/"
   xmlns:cc="http://creativecommons.org/ns#"
   xmlns:rdf="http://www.w3.org/1999/02/22-rdf-syntax-ns#"
   xmlns:svg="http://www.w3.org/2000/svg"
   xmlns="http://www.w3.org/2000/svg"
   xmlns:sodipodi="http://sodipodi.sourceforge.net/DTD/sodipodi-0.dtd"
   xmlns:inkscape="http://www.inkscape.org/namespaces/inkscape"
   width="22"
   height="22"
   version="1.1"
   id="svg7"
   sodipodi:docname="persepolis-tray.svg"
   inkscape:version="0.92.3 (2405546, 2018-03-11)">
  <metadata
     id="metadata11">
    <rdf:RDF>
      <cc:Work
         rdf:about="">
        <dc:format>image/svg+xml</dc:format>
        <dc:type
           rdf:resource="http://purl.org/dc/dcmitype/StillImage" />
        <dc:title></dc:title>
      </cc:Work>
    </rdf:RDF>
  </metadata>
  <sodipodi:namedview
     pagecolor="#ffffff"
     bordercolor="#666666"
     borderopacity="1"
     objecttolerance="10"
     gridtolerance="10"
     guidetolerance="10"
     inkscape:pageopacity="0"
     inkscape:pageshadow="2"
     inkscape:window-width="1920"
     inkscape:window-height="1020"
     id="namedview9"
     showgrid="false"
     inkscape:zoom="24.65"
     inkscape:cx="11"
     inkscape:cy="11"
     inkscape:window-x="0"
     inkscape:window-y="30"
     inkscape:window-maximized="1"
     inkscape:current-layer="svg7" />
  <defs
     id="defs3">
    <style
       id="current-color-scheme"
       type="text/css">
   .ColorScheme-Text { color:#cecfce; } .ColorScheme-Highlight { color:#3daee9; }
  </style>
  </defs>
  <path
     style="fill:#cecfce;fill-opacity:1"
     d="M 11 3 C 6.568 3 3 6.5679998 3 11 C 3 15.432 6.568 19 11 19 C 15.432 19 19 15.432 19 11 C 19 6.5679999 15.432 3 11 3 z M 11 4 C 14.895297 4 18 7.1047027 18 11 C 18 14.895297 14.895297 18 11 18 C 7.1047028 18 4 14.895297 4 11 C 4 7.1047025 7.1047027 4 11 4 z M 8 6 L 8.1992188 7.5 L 8 9 C 8.5105258 8.617106 9.2334254 8.3758397 10.027344 8.1992188 L 10.199219 9.5 L 10.023438 10.818359 C 9.2285947 10.631302 8.5052454 10.378934 8 10 L 8.1992188 11.5 L 8 13 C 9.5999998 11.8 13.196179 11.900357 15 11.5 C 13.878459 11.303519 11.895289 11.228667 10.210938 10.861328 C 11.639306 9.8421862 12.287227 9.880149 14 9.5 C 12.391454 9.218201 11.656144 9.1680857 10.230469 8.1523438 C 11.882823 7.8157431 13.821221 7.7616296 15 7.5 C 13.298967 7.201999 9.6 7.2 8 6 z M 8 13 C 9.1999998 14.6 9.0996432 15.196179 9.5 17 C 9.7980008 15.298967 9.8 14.6 11 13 L 9.5 13.199219 L 8 13 z M 12 13 C 13.2 14.6 13.099643 15.196179 13.5 17 C 13.798001 15.298967 13.8 14.6 15 13 L 13.5 13.199219 L 12 13 z "
     id="path822" />
</svg>
