<svg xmlns="http://www.w3.org/2000/svg" width="22" height="22" version="1">
 <defs>
  <style id="current-color-scheme" type="text/css">
   .ColorScheme-Text { color:#cecfce; } .ColorScheme-Highlight { color:#3daee9; }
  </style>
 </defs>
 <path style="fill:currentColor" class="ColorScheme-Text" d="m 6.7148447,3.0000001 c -0.39572,0 -0.714844,0.24999 -0.714844,1 0,0.7501604 0.319124,0.9999998 0.714844,0.9999998 H 10 V 8.3710937 9.9999999 L 9.0000005,11 v 2 H 7.0000007 L 11,16 15,13 H 13 V 11 L 12,9.9999999 V 8.3710937 4.9999999 h 3.285156 C 15.680874,4.9999999 16,4.7499716 16,4.0000001 c 0,-0.750199 -0.319126,-1 -0.714844,-1 z m -0.50586,5.9999998 c -0.663954,0 -1.100726,0.5221331 -1.199219,1.1542971 l -1,7.691406 C 3.9112757,18.477829 4.5450307,19 5.2089847,19 H 16.791016 c 0.663954,0 1.297709,-0.522171 1.199218,-1.154297 l -1,-7.691406 C 16.89174,9.522133 16.456925,8.9999999 15.792969,8.9999999 H 13 l 1.199219,1 h 1.59375 c 0.139691,0 0.166514,0.03798 0.208984,0.3085941 L 16.871094,17 H 5.1289067 l 0.869141,-6.691406 c 0.04216,-0.270613 0.07125,-0.3085941 0.210937,-0.3085941 h 1.591797 l 1.1992188,-1 z"/>
</svg>
