<?xml version="1.0" encoding="UTF-8" standalone="no"?>
<svg
   xmlns:dc="http://purl.org/dc/elements/1.1/"
   xmlns:cc="http://creativecommons.org/ns#"
   xmlns:rdf="http://www.w3.org/1999/02/22-rdf-syntax-ns#"
   xmlns:svg="http://www.w3.org/2000/svg"
   xmlns="http://www.w3.org/2000/svg"
   xmlns:sodipodi="http://sodipodi.sourceforge.net/DTD/sodipodi-0.dtd"
   xmlns:inkscape="http://www.inkscape.org/namespaces/inkscape"
   width="16"
   height="16"
   version="1.1"
   id="svg10"
   sodipodi:docname="dialog-warning-symbolic.svg"
   inkscape:version="0.92.5 (2060ec1f9f, 2020-04-08)">
  <metadata
     id="metadata16">
    <rdf:RDF>
      <cc:Work
         rdf:about="">
        <dc:format>image/svg+xml</dc:format>
        <dc:type
           rdf:resource="http://purl.org/dc/dcmitype/StillImage" />
      </cc:Work>
    </rdf:RDF>
  </metadata>
  <defs
     id="defs14" />
  <sodipodi:namedview
     pagecolor="#ffffff"
     bordercolor="#666666"
     borderopacity="1"
     objecttolerance="10"
     gridtolerance="10"
     guidetolerance="10"
     inkscape:pageopacity="0"
     inkscape:pageshadow="2"
     inkscape:window-width="1374"
     inkscape:window-height="789"
     id="namedview12"
     showgrid="false"
     inkscape:zoom="14.75"
     inkscape:cx="-5.7627119"
     inkscape:cy="10.791358"
     inkscape:window-x="0"
     inkscape:window-y="28"
     inkscape:window-maximized="0"
     inkscape:current-layer="g834" />
  <g
     id="g834">
    <path
       style="fill:#ff9601"
       d="m 8.0117188,0 c -0.74516,0 -1.3801969,0.39794063 -1.7167969,0.99414062 -0.00391,-2.274e-5 -0.00781,-2.274e-5 -0.011719,0 L 0.25195312,12.123047 c -0.004929,0.03294 -0.0429687,0.09961 -0.0429687,0.09961 -0.30974001,0.59619 -0.28770501,1.290419 0.109375,1.886719 0.35292999,0.49683 1.04009682,0.894531 1.65429682,0.894531 H 14.080078 c 0.66341,0 1.319469,-0.39794 1.667969,-0.99414 0.26446,-0.39746 0.277921,-0.893815 0.181641,-1.390625 -0.0014,-0.13709 -0.03131,-0.271445 -0.08789,-0.396485 -0.0093,-0.03368 -0.02038,-0.06709 -0.0332,-0.09961 L 9.7324219,0.99414062 c -0.00195,-5.68e-6 -0.00391,-5.69e-6 -0.00586,0 C 9.3774125,0.39794063 8.6908187,0 8.0117188,0 Z m 0,0.99414062 h 0.00195 C 8.3648362,0.99488338 8.6795621,1.1927027 8.8535156,1.4902344 L 14.929688,12.619141 c 0.139519,0.29809 0.138107,0.596441 -0.03906,0.894531 -0.14191,0.29809 -0.459097,0.496094 -0.810547,0.496094 H 1.9746094 c -0.3524,0 -0.6338438,-0.197765 -0.8085938,-0.396485 -0.17475998,-0.29809 -0.17317997,-0.69603 -0.03125,-0.99414 L 7.1660156,1.4902344 C 7.3428762,1.1926986 7.660082,0.99487797 8.0117188,0.99414062 Z M 7.1953125,3.3339844 V 6.2285156 L 7.34375,9.7753906 H 8.5429688 L 8.6894531,6.2285156 V 3.3339844 Z m 0.7480469,7.5878906 c -0.2844445,0 -0.5299306,0.09741 -0.734375,0.292969 -0.1955556,0.195555 -0.2929688,0.436258 -0.2929688,0.720703 0,0.284444 0.097413,0.527977 0.2929688,0.732422 0.2044444,0.195555 0.4499305,0.292969 0.734375,0.292969 0.2844444,-1e-6 0.5231944,-0.09741 0.71875,-0.292969 0.2044444,-0.204445 0.3066406,-0.447978 0.3066406,-0.732422 0,-0.284445 -0.1021962,-0.525148 -0.3066406,-0.720703 -0.1955556,-0.195556 -0.4343056,-0.292969 -0.71875,-0.292969 z"
       id="path2"
       inkscape:connector-curvature="0" />
  </g>
</svg>
