<?xml version="1.0" encoding="UTF-8" standalone="no"?>
<svg
   xmlns:dc="http://purl.org/dc/elements/1.1/"
   xmlns:cc="http://creativecommons.org/ns#"
   xmlns:rdf="http://www.w3.org/1999/02/22-rdf-syntax-ns#"
   xmlns:svg="http://www.w3.org/2000/svg"
   xmlns="http://www.w3.org/2000/svg"
   xmlns:sodipodi="http://sodipodi.sourceforge.net/DTD/sodipodi-0.dtd"
   xmlns:inkscape="http://www.inkscape.org/namespaces/inkscape"
   width="16"
   height="16.015"
   version="1.1"
   id="svg10"
   sodipodi:docname="touch-disabled-symbolic.svg"
   inkscape:version="0.92.3 (2405546, 2018-03-11)">
  <metadata
     id="metadata16">
    <rdf:RDF>
      <cc:Work
         rdf:about="">
        <dc:format>image/svg+xml</dc:format>
        <dc:type
           rdf:resource="http://purl.org/dc/dcmitype/StillImage" />
      </cc:Work>
    </rdf:RDF>
  </metadata>
  <defs
     id="defs14" />
  <sodipodi:namedview
     pagecolor="#ffffff"
     bordercolor="#666666"
     borderopacity="1"
     objecttolerance="10"
     gridtolerance="10"
     guidetolerance="10"
     inkscape:pageopacity="0"
     inkscape:pageshadow="2"
     inkscape:window-width="1920"
     inkscape:window-height="1026"
     id="namedview12"
     showgrid="true"
     inkscape:zoom="25.63"
     inkscape:cx="8.1357203"
     inkscape:cy="8.0074997"
     inkscape:window-x="0"
     inkscape:window-y="30"
     inkscape:window-maximized="1"
     inkscape:current-layer="svg10">
    <inkscape:grid
       type="xygrid"
       id="grid836" />
  </sodipodi:namedview>
  <path
     style="color:#000000;font-style:normal;font-variant:normal;font-weight:normal;font-stretch:normal;font-size:medium;line-height:normal;font-family:sans-serif;font-variant-ligatures:normal;font-variant-position:normal;font-variant-caps:normal;font-variant-numeric:normal;font-variant-alternates:normal;font-feature-settings:normal;text-indent:0;text-align:start;text-decoration:none;text-decoration-line:none;text-decoration-style:solid;text-decoration-color:#000000;letter-spacing:normal;word-spacing:normal;text-transform:none;writing-mode:lr-tb;direction:ltr;text-orientation:mixed;dominant-baseline:auto;baseline-shift:baseline;text-anchor:start;white-space:normal;shape-padding:0;clip-rule:nonzero;display:inline;overflow:visible;visibility:visible;opacity:0.5;isolation:auto;mix-blend-mode:normal;color-interpolation:sRGB;color-interpolation-filters:linearRGB;solid-color:#000000;solid-opacity:1;vector-effect:none;fill:#eff0f1;fill-opacity:1;fill-rule:nonzero;stroke:none;stroke-width:1;stroke-linecap:round;stroke-linejoin:round;stroke-miterlimit:4;stroke-dasharray:none;stroke-dashoffset:0;stroke-opacity:1;paint-order:normal;color-rendering:auto;image-rendering:auto;shape-rendering:auto;text-rendering:auto;enable-background:accumulate"
     d="M 7.5 0.0078125 C 6.0096397 0.0078125 4.6603024 0.60234148 3.6699219 1.5644531 L 4.375 2.2695312 C 5.1824857 1.4905918 6.278405 1.0078125 7.5 1.0078125 L 8.5 1.0078125 C 11.001649 1.0078125 13 3.0061639 13 5.5078125 L 13 10.507812 C 13 10.628359 12.973957 10.741333 12.964844 10.859375 L 13.855469 11.75 C 13.947689 11.350574 14 10.935325 14 10.507812 L 14 5.5078125 C 14 2.4694611 11.538351 0.0078125 8.5 0.0078125 L 7.5 0.0078125 z M 7.5 2.0117188 C 6.564684 2.0117188 5.7182726 2.384882 5.0898438 2.984375 L 5.7910156 3.6855469 C 6.2364959 3.2691296 6.8335639 3.0117188 7.5 3.0117188 L 8.5 3.0117188 C 9.8936486 3.0117188 11 4.1180701 11 5.5117188 L 11 8.8945312 L 12 9.8945312 L 12 5.5117188 C 12 3.5813673 10.430351 2.0117186 8.5 2.0117188 L 7.5 2.0117188 z M 7.6992188 4.0078125 C 7.2613368 4.0078125 6.8649081 4.1815523 6.5625 4.4570312 L 7.2695312 5.1640625 C 7.3878949 5.0714915 7.5314736 5.0078125 7.6992188 5.0078125 L 8.3007812 5.0078125 C 8.69723 5.0078125 9 5.3105827 9 5.7070312 L 9 6.8945312 L 10 7.8945312 L 10 5.7070312 C 10 4.7738798 9.2339328 4.0078125 8.3007812 4.0078125 L 7.6992188 4.0078125 z M 2.1425781 4.2792969 C 2.0523526 4.6746216 2 5.0850843 2 5.5078125 L 2 10.507812 C 2 13.546164 4.4616486 16.007812 7.5 16.007812 L 8.5 16.007812 C 9.9863453 16.007812 11.330661 15.414562 12.320312 14.457031 L 11.617188 13.753906 C 10.810427 14.528328 9.7176029 15.007812 8.5 15.007812 L 7.5 15.007812 C 4.9983514 15.007812 3 13.009462 3 10.507812 L 3 5.5078125 C 3 5.3919733 3.024782 5.2834543 3.0332031 5.1699219 L 2.1425781 4.2792969 z M 4 6.1367188 L 4 10.511719 C 4 12.44207 5.5696486 14.011719 7.5 14.011719 L 8.5 14.011719 C 9.4333443 14.011719 10.278212 13.640226 10.90625 13.042969 L 10.205078 12.341797 C 9.7600077 12.755979 9.16443 13.011719 8.5 13.011719 L 7.5 13.011719 C 6.1063514 13.011719 5 11.905367 5 10.511719 L 5 7.1367188 L 4 6.1367188 z M 6 8.1367188 L 6 10.306641 C 6 11.239792 6.7660672 12.007814 7.6992188 12.007812 L 8.3007812 12.007812 C 8.7346196 12.007812 9.1282715 11.837833 9.4296875 11.566406 L 8.7207031 10.857422 C 8.6037831 10.946001 8.4641434 11.007813 8.3007812 11.007812 L 7.6992188 11.007812 C 7.3027701 11.007812 7 10.703089 7 10.306641 L 7 9.1367188 L 6 8.1367188 z "
     id="rect839" />
  <path
     style="color:#000000;font-style:normal;font-variant:normal;font-weight:normal;font-stretch:normal;font-size:medium;line-height:normal;font-family:sans-serif;font-variant-ligatures:normal;font-variant-position:normal;font-variant-caps:normal;font-variant-numeric:normal;font-variant-alternates:normal;font-feature-settings:normal;text-indent:0;text-align:start;text-decoration:none;text-decoration-line:none;text-decoration-style:solid;text-decoration-color:#000000;letter-spacing:normal;word-spacing:normal;text-transform:none;writing-mode:lr-tb;direction:ltr;text-orientation:mixed;dominant-baseline:auto;baseline-shift:baseline;text-anchor:start;white-space:normal;shape-padding:0;clip-rule:nonzero;display:inline;overflow:visible;visibility:visible;opacity:1;isolation:auto;mix-blend-mode:normal;color-interpolation:sRGB;color-interpolation-filters:linearRGB;solid-color:#000000;solid-opacity:1;vector-effect:none;fill:#eff0f1;fill-opacity:1;fill-rule:nonzero;stroke:none;stroke-width:1px;stroke-linecap:butt;stroke-linejoin:miter;stroke-miterlimit:4;stroke-dasharray:none;stroke-dashoffset:0;stroke-opacity:1;color-rendering:auto;image-rendering:auto;shape-rendering:auto;text-rendering:auto;enable-background:accumulate"
     d="M 0 0.015625 L 0 0.72265625 L 15.292969 16.015625 L 16 16.015625 L 16 15.308594 L 0.70703125 0.015625 L 0 0.015625 z "
     id="path848" />
</svg>
