<?xml version="1.0" encoding="UTF-8" standalone="no"?>
<svg
   xmlns:dc="http://purl.org/dc/elements/1.1/"
   xmlns:cc="http://creativecommons.org/ns#"
   xmlns:rdf="http://www.w3.org/1999/02/22-rdf-syntax-ns#"
   xmlns:svg="http://www.w3.org/2000/svg"
   xmlns="http://www.w3.org/2000/svg"
   xmlns:sodipodi="http://sodipodi.sourceforge.net/DTD/sodipodi-0.dtd"
   xmlns:inkscape="http://www.inkscape.org/namespaces/inkscape"
   width="22"
   height="22"
   version="1.1"
   id="svg9"
   sodipodi:docname="fcitx-sayura-panel.svg"
   inkscape:version="0.92.3 (2405546, 2018-03-11)">
  <metadata
     id="metadata13">
    <rdf:RDF>
      <cc:Work
         rdf:about="">
        <dc:format>image/svg+xml</dc:format>
        <dc:type
           rdf:resource="http://purl.org/dc/dcmitype/StillImage" />
      </cc:Work>
    </rdf:RDF>
  </metadata>
  <sodipodi:namedview
     pagecolor="#ffffff"
     bordercolor="#666666"
     borderopacity="1"
     objecttolerance="10"
     gridtolerance="10"
     guidetolerance="10"
     inkscape:pageopacity="0"
     inkscape:pageshadow="2"
     inkscape:window-width="1920"
     inkscape:window-height="1020"
     id="namedview11"
     showgrid="false"
     inkscape:zoom="24.65"
     inkscape:cx="11"
     inkscape:cy="11"
     inkscape:window-x="0"
     inkscape:window-y="30"
     inkscape:window-maximized="1"
     inkscape:current-layer="svg9" />
  <defs
     id="defs3">
    <style
       id="current-color-scheme"
       type="text/css">
   .ColorScheme-Text { color:#eff0f1; } .ColorScheme-Highlight { color:#3daee9; }
  </style>
  </defs>
  <path
     style="color:#eff0f1;fill:currentColor"
     d="M 5 3 C 3.892 3 3 3.892 3 5 L 3 17 C 3 18.108 3.892 19 5 19 L 17 19 C 18.108 19 19 18.108 19 17 L 19 5 C 19 3.892 18.108 3 17 3 L 5 3 z M 5 4 L 17 4 C 17.571297 4 18 4.4287028 18 5 L 18 17 C 18 17.571297 17.571297 18 17 18 L 13 18 L 13 14.75 C 13.264 14.687 13.610281 14.612344 13.863281 14.527344 C 14.128281 14.432344 14.384672 14.326935 14.638672 14.210938 L 14.226562 13.148438 C 14.025564 13.254435 13.830625 13.348594 13.640625 13.433594 C 13.460625 13.517594 13.19 13.585672 13 13.638672 L 13 9.9355469 C 13.222 9.9884469 13.51775 10.015625 13.71875 10.015625 C 14.46875 10.015625 15.293844 9.8632406 15.589844 9.5566406 C 15.885844 9.2501406 16.068203 8.8672625 16.033203 8.4140625 C 16.018203 8.2174625 15.919031 8.0338562 15.832031 7.8476562 C 15.504031 7.3432563 15.1995 6.8752219 14.6875 6.4824219 C 14.6135 6.3344219 14.576172 6.2041906 14.576172 6.0878906 C 14.576172 6.0032906 14.580797 5.9387844 14.591797 5.8964844 C 14.612797 5.8541844 14.639875 5.8068063 14.671875 5.7539062 L 13.798828 5.0566406 C 13.312828 5.4689406 12.926025 5.9179969 12.640625 6.4042969 C 12.217825 5.5163969 11.456822 5.0722656 10.357422 5.0722656 C 9.6386217 5.0722656 9.0744094 5.22475 8.6621094 5.53125 C 8.2499094 5.83785 8.0429688 6.2818813 8.0429688 6.8632812 C 8.0429688 6.8632812 8.0531186 7.2602687 8.0742188 7.3554688 L 9.2011719 7.2128906 C 9.2011719 7.1811906 9.1855469 6.9746094 9.1855469 6.9746094 C 9.1855469 6.7103094 9.2904531 6.5054219 9.5019531 6.3574219 C 9.7133531 6.1989219 10.0252 6.1191406 10.4375 6.1191406 C 10.8709 6.1191406 11.2252 6.2341969 11.5 6.4667969 C 11.7854 6.6992969 11.9683 7.5032 12 8 L 10.613281 8 C 9.9472818 8 9.3760906 8.0203 8.9003906 8.0625 C 8.4352906 8.0942 8.0284875 8.1197437 7.6796875 8.2148438 C 6.8619875 8.5204438 6.1454687 8.8881435 5.5429688 9.6523438 C 5.2457687 10.033544 5.0285 10.485831 5 11.082031 C 5 11.938231 5.2154875 12.752666 5.6171875 13.322266 C 6.0293875 13.893266 6.6006781 14.327047 7.3300781 14.623047 C 8.0593781 14.908047 8.9154375 15.050781 9.8984375 15.050781 C 10.173338 15.050781 11.6935 14.982453 12 14.939453 L 12 18 L 5 18 C 4.4287028 18 4 17.571297 4 17 L 4 5 C 4 4.4287028 4.4287028 4 5 4 z M 13.703125 6.6738281 C 13.976125 6.9478281 14.321064 7.2165686 14.539062 7.6054688 C 14.682063 7.8181687 14.79375 8.0426594 14.84375 8.3183594 C 14.85475 8.4583594 14.817547 8.6104219 14.685547 8.7949219 C 14.547547 8.9112219 14.00525 8.96875 13.65625 8.96875 C 13.44025 8.96875 13.17 8.94025 13 8.90625 L 13 8.2089844 C 13 7.8495844 13.037328 7.915875 13.111328 7.609375 C 13.185328 7.302775 13.439125 6.9909281 13.703125 6.6738281 z M 10.724609 9 L 12 9 L 12 13.845703 C 11.7357 13.876703 10.310791 13.923828 10.025391 13.923828 C 9.0845898 13.923828 8.3355906 13.798922 7.7753906 13.544922 C 7.0091906 13.077922 6.4319687 12.73215 6.2304688 11.71875 C 6.1857686 11.49425 6.2476313 11.235141 6.2695312 10.931641 C 6.3244312 10.480241 6.584475 10.06525 7.171875 9.59375 C 7.383275 9.46675 7.6204656 9.3541313 7.8847656 9.2695312 C 8.1595656 9.1744314 8.5138656 9.1048 8.9472656 9.0625 C 9.3911656 9.0202 9.9847102 8.9998 10.724609 9 z "
     id="path827" />
</svg>
