<?xml version="1.0" encoding="UTF-8" standalone="no"?>
<svg
   xmlns:dc="http://purl.org/dc/elements/1.1/"
   xmlns:cc="http://creativecommons.org/ns#"
   xmlns:rdf="http://www.w3.org/1999/02/22-rdf-syntax-ns#"
   xmlns:svg="http://www.w3.org/2000/svg"
   xmlns="http://www.w3.org/2000/svg"
   xmlns:sodipodi="http://sodipodi.sourceforge.net/DTD/sodipodi-0.dtd"
   xmlns:inkscape="http://www.inkscape.org/namespaces/inkscape"
   width="22"
   height="22"
   version="1.1"
   id="svg9"
   sodipodi:docname="fcitx-cangjie-panel.svg"
   inkscape:version="0.92.3 (2405546, 2018-03-11)">
  <metadata
     id="metadata13">
    <rdf:RDF>
      <cc:Work
         rdf:about="">
        <dc:format>image/svg+xml</dc:format>
        <dc:type
           rdf:resource="http://purl.org/dc/dcmitype/StillImage" />
      </cc:Work>
    </rdf:RDF>
  </metadata>
  <sodipodi:namedview
     pagecolor="#ffffff"
     bordercolor="#666666"
     borderopacity="1"
     objecttolerance="10"
     gridtolerance="10"
     guidetolerance="10"
     inkscape:pageopacity="0"
     inkscape:pageshadow="2"
     inkscape:window-width="1920"
     inkscape:window-height="1020"
     id="namedview11"
     showgrid="false"
     inkscape:zoom="30.35"
     inkscape:cx="11"
     inkscape:cy="11"
     inkscape:window-x="0"
     inkscape:window-y="30"
     inkscape:window-maximized="1"
     inkscape:current-layer="svg9" />
  <defs
     id="defs3">
    <style
       id="current-color-scheme"
       type="text/css">
   .ColorScheme-Text { color:#eff0f1; } .ColorScheme-Highlight { color:#3daee9; }
  </style>
  </defs>
  <g
     transform="matrix(1,0,0,1,3,3)"
     id="g7">
    <path
       style="fill:#eff0f1;fill-opacity:1"
       d="M 5 3 C 3.892 3 3 3.892 3 5 L 3 17 C 3 18.108 3.892 19 5 19 L 17 19 C 18.108 19 19 18.108 19 17 L 19 5 C 19 3.892 18.108 3 17 3 L 5 3 z M 5 4 L 17 4 C 17.571297 4 18 4.4287028 18 5 L 18 17 C 18 17.571297 17.571297 18 17 18 L 5 18 C 4.4287028 18 4 17.571297 4 17 L 4 5 C 4 4.4287028 4.4287028 4 5 4 z M 10.583984 4.7226562 C 8.7403856 7.4879562 4.9375 8.0039062 4.9375 8.0039062 L 5.0625 8.9960938 C 5.0625 8.9960935 5.8964 8.8723375 7 8.4609375 L 7 12.5 C 7 13.333 6.5461063 14.412953 6.0664062 15.251953 C 5.5868063 16.090953 5.109275 16.6875 5.109375 16.6875 L 5.890625 17.3125 C 5.890625 17.3125 6.4132938 16.659047 6.9335938 15.748047 L 7 15.623047 L 7 17 L 15 17 L 15 14 L 7.7246094 14 C 7.8316094 13.673 7.9030125 13.339 7.9453125 13 L 15 13 L 15 8.4609375 C 16.104 8.8723375 16.9375 8.9960938 16.9375 8.9960938 L 17.0625 8.0039062 C 17.0625 8.0039065 13.260016 7.4879563 11.416016 4.7226562 L 10.583984 4.7226562 z M 11 5.703125 C 11.8588 6.772725 12.933094 7.5017 13.933594 8 L 11.5 8 L 11.777344 7.5839844 L 10.277344 6.5839844 L 9.7226562 7.4160156 L 10.597656 8 L 8.0664062 8 C 9.0665065 7.5017 10.1412 6.772725 11 5.703125 z M 8 9 L 14 9 L 14 12 L 8 12 L 8 11 L 13 11 L 13 10 L 8 10 L 8 9 z M 8 15 L 14 15 L 14 16 L 8 16 L 8 15 z "
       transform="translate(-3,-3)"
       id="path828" />
  </g>
</svg>
