<svg xmlns="http://www.w3.org/2000/svg" id="svg10" width="22" height="22" version="1.1">
 <defs id="defs4">
  <style id="style2" type="text/css">
   .ColorScheme-Text { color:#eff0f1; } .ColorScheme-Highlight { color:#3daee9; }
  </style>
 </defs>
 <path id="path8" style="fill:currentColor" class="ColorScheme-Text" d="m16 12c-1.108 0-2 0.91085-2 2.0312v0.96875h-1v4h6v-4h-1v-0.96875c0-1.1199-0.892-2.0312-2-2.0312zm0 1c0.554 0 1 0.4424 1 1v1h-2v-1c0-0.5576 0.446-1 1-1z"/>
 <path id="path6-3" style="color:#eff0f1;fill:currentColor" d="M 11 3 C 8.2385763 3 6 5.2385763 6 8 C 6.00254 9.985786 7.1799949 11.781859 9 12.576172 L 9 18 L 11 20 L 12 19 L 12 14 L 13 14 L 13 13.050781 L 13 12.580078 C 14.821303 11.785196 15.999007 9.9872041 16 8 C 16 5.2385763 13.761424 3 11 3 z M 10.615234 4.0390625 C 10.601344 4.0417825 10.587999 4.0458181 10.574219 4.0488281 C 10.464906 4.0723691 10.357759 4.1050354 10.253906 4.1464844 C 10.228056 4.1568964 10.203034 4.1682405 10.177734 4.1796875 C 10.080004 4.2235045 9.9859541 4.2751054 9.8964844 4.3339844 C 9.8838944 4.3423344 9.871765 4.350753 9.859375 4.359375 C 9.76396 4.425055 9.6744296 4.4989006 9.5917969 4.5800781 C 9.5855969 4.5862581 9.5803687 4.5933494 9.5742188 4.5996094 C 9.4915078 4.6833204 9.4163464 4.7741671 9.3496094 4.8710938 L 9.3496094 4.8730469 C 9.3424494 4.8835159 9.335087 4.8936859 9.328125 4.9042969 C 9.268295 4.9955759 9.2160373 5.0916002 9.171875 5.1914062 C 9.162755 5.2119903 9.1549204 5.2329643 9.1464844 5.2539062 C 9.1010794 5.3650917 9.0657785 5.4801376 9.0410156 5.5976562 C 9.0137836 5.7300404 9.000042 5.864844 9 6 C 9.0005608 6.129216 9.0136425 6.2580734 9.0390625 6.3847656 C 9.0417825 6.3986596 9.0458181 6.4119922 9.0488281 6.4257812 C 9.0723681 6.5350943 9.1050354 6.6422405 9.1464844 6.7460938 C 9.1568964 6.7719428 9.1682405 6.7969646 9.1796875 6.8222656 C 9.2235065 6.9199956 9.2751045 7.0140483 9.3339844 7.1035156 C 9.3423344 7.1161046 9.350753 7.128239 9.359375 7.140625 C 9.425055 7.236041 9.4989002 7.3255701 9.5800781 7.4082031 C 9.5862781 7.4144331 9.5933494 7.4196322 9.5996094 7.4257812 C 9.6833194 7.5084922 9.7741674 7.5836537 9.8710938 7.6503906 C 9.8710938 7.6503906 9.8730469 7.6503906 9.8730469 7.6503906 C 9.8835169 7.6575506 9.8936869 7.664913 9.9042969 7.671875 C 9.9955759 7.731705 10.0916 7.7839627 10.191406 7.828125 C 10.211986 7.837245 10.232966 7.8450796 10.253906 7.8535156 C 10.36509 7.8989216 10.480139 7.9342207 10.597656 7.9589844 C 10.73004 7.9862164 10.864844 7.999958 11 8 C 11.129216 7.9994392 11.258074 7.9863575 11.384766 7.9609375 C 11.398656 7.9582175 11.412001 7.9541819 11.425781 7.9511719 C 11.535094 7.9276309 11.642241 7.8949646 11.746094 7.8535156 C 11.771944 7.8431036 11.796966 7.8317595 11.822266 7.8203125 C 11.919996 7.7764935 12.014049 7.7248955 12.103516 7.6660156 C 12.116106 7.6576656 12.128235 7.649247 12.140625 7.640625 C 12.236045 7.574945 12.32557 7.5010996 12.408203 7.4199219 C 12.414103 7.4134519 12.419961 7.4069396 12.425781 7.4003906 C 12.508491 7.3166806 12.583654 7.2258328 12.650391 7.1289062 L 12.650391 7.1269531 C 12.657591 7.1164841 12.664915 7.1063141 12.671875 7.0957031 C 12.731705 7.0044241 12.783963 6.9083999 12.828125 6.8085938 C 12.837225 6.7880097 12.845076 6.7670357 12.853516 6.7460938 C 12.898926 6.6349101 12.934217 6.5198612 12.958984 6.4023438 C 12.986217 6.2699596 12.999957 6.1351561 13 6 C 12.99944 5.8707841 12.986357 5.7419266 12.960938 5.6152344 C 12.958237 5.6013404 12.954172 5.5880077 12.951172 5.5742188 C 12.927612 5.4649041 12.894986 5.3577578 12.853516 5.2539062 C 12.843106 5.2280572 12.831753 5.2030354 12.820312 5.1777344 C 12.776492 5.0800044 12.724892 4.9859517 12.666016 4.8964844 C 12.657716 4.8838954 12.649245 4.871761 12.640625 4.859375 C 12.574945 4.763959 12.5011 4.67443 12.419922 4.5917969 C 12.413422 4.5858969 12.406941 4.5800348 12.400391 4.5742188 C 12.316681 4.4915078 12.225833 4.4163463 12.128906 4.3496094 L 12.126953 4.3496094 C 12.116483 4.3424494 12.106313 4.335087 12.095703 4.328125 C 12.004423 4.268295 11.9084 4.2160373 11.808594 4.171875 C 11.788014 4.162755 11.767034 4.1549204 11.746094 4.1464844 C 11.634934 4.1010824 11.519836 4.0657843 11.402344 4.0410156 C 13.429413 4.2470141 14.997527 5.9401227 15 8 C 15 10.209139 13.209139 12 11 12 C 8.7908611 12 7.0000001 10.209139 7 8 C 7.001752 5.9308156 8.582571 4.2364723 10.615234 4.0390625 z M 10 13 L 11 13 L 11 17 L 10 17 L 10 13 z"/>
</svg>
