<svg xmlns="http://www.w3.org/2000/svg" id="svg2" width="22" height="22" version="1.1">
 <defs id="defs8">
  <style id="current-color-scheme" type="text/css">
   .ColorScheme-Text { color:#eff0f1; } .ColorScheme-Highlight { color:#3daee9; }
  </style>
 </defs>
 <path id="path4493" style="fill:#eff0f1;fill-opacity:1" d="M 3 3 L 3 4 L 3 19 L 4 19 L 19 19 L 19 18 L 19 5 L 12.007812 5 L 10.007812 3 L 10 3.0078125 L 10 3 L 4 3 L 3 3 z M 9.0078125 8 L 18 8 L 18 18 L 4 18 L 4 10 L 7 10 L 7 9.9921875 L 7.0078125 10 L 9.0078125 8 z M 12 9 L 12 13 L 12 15 L 14 15 L 14 13 L 15 13 L 16 13 L 12 9 z M 9 11 L 9 13 L 8 13 L 7 13 L 11 17 L 11 13 L 11 11 L 9 11 z"/>
</svg>
