<?xml version="1.0" encoding="UTF-8" standalone="no"?>
<svg
   xmlns:dc="http://purl.org/dc/elements/1.1/"
   xmlns:cc="http://creativecommons.org/ns#"
   xmlns:rdf="http://www.w3.org/1999/02/22-rdf-syntax-ns#"
   xmlns:svg="http://www.w3.org/2000/svg"
   xmlns="http://www.w3.org/2000/svg"
   xmlns:sodipodi="http://sodipodi.sourceforge.net/DTD/sodipodi-0.dtd"
   xmlns:inkscape="http://www.inkscape.org/namespaces/inkscape"
   viewBox="0 0 16 16"
   version="1.1"
   id="svg5"
   sodipodi:docname="folder-publicshare-symbolic.svg"
   width="16"
   height="16"
   inkscape:version="0.92.1 r15371">
  <metadata
     id="metadata9">
    <rdf:RDF>
      <cc:Work
         rdf:about="">
        <dc:format>image/svg+xml</dc:format>
        <dc:type
           rdf:resource="http://purl.org/dc/dcmitype/StillImage" />
        <dc:title></dc:title>
      </cc:Work>
    </rdf:RDF>
  </metadata>
  <sodipodi:namedview
     pagecolor="#ffffff"
     bordercolor="#666666"
     borderopacity="1"
     objecttolerance="10"
     gridtolerance="10"
     guidetolerance="10"
     inkscape:pageopacity="0"
     inkscape:pageshadow="2"
     inkscape:window-width="1600"
     inkscape:window-height="808"
     id="namedview7"
     showgrid="false"
     inkscape:zoom="10.727273"
     inkscape:cx="-8.0635593"
     inkscape:cy="11"
     inkscape:window-x="0"
     inkscape:window-y="0"
     inkscape:window-maximized="1"
     inkscape:current-layer="svg5" />
  <defs
     id="defs3051">
    <style
       type="text/css"
       id="current-color-scheme">
      .ColorScheme-Text {
        color:#eff0f1;
      }
      </style>
  </defs>
  <path
     style="color:#eff0f1;opacity:1;fill:currentColor;fill-opacity:1;stroke:none"
     d="M 11,0 C 9.338,0 8,1.338 8,3 8,4.662 9.338,6 11,6 12.662,6 14,4.662 14,3 14,1.338 12.662,0 11,0 Z m 0,1 A 2,2 0 0 1 13,3 2,2 0 0 1 11,5 2,2 0 0 1 9,3 2,2 0 0 1 11,1 Z M 5,3 C 3.338,3 2,4.338 2,6 2,7.662 3.338,9 5,9 6.662,9 8,7.662 8,6 8,4.338 6.662,3 5,3 Z M 5,4 A 2,2 0 0 1 7,6 2,2 0 0 1 5,8 2,2 0 0 1 3,6 2,2 0 0 1 5,4 Z m 6,3 C 10.35365,7 9.744011,7.134158 9.181641,7.361328 L 9.636719,8.275391 C 10.064529,8.114881 10.51448,8 11,8 c 2.21602,0 4,1.78398 4,4 h -3.5 l 0.5,1 h 4 V 12 C 16,9.22998 13.77002,7 11,7 Z m -6,3 c -2.77002,0 -5,2.22998 -5,5 v 1 H 10 V 15 C 10,12.22998 7.77002,10 5,10 Z m 0,1 c 2.21602,0 4,1.78398 4,4 H 1 c 0,-2.21602 1.78398,-4 4,-4 z"
     class="ColorScheme-Text"
     id="path4867"
     inkscape:connector-curvature="0" />
</svg>
