<?xml version="1.0" encoding="UTF-8" standalone="no"?>
<!-- Created with Inkscape (http://www.inkscape.org/) -->

<svg
   xmlns:dc="http://purl.org/dc/elements/1.1/"
   xmlns:cc="http://creativecommons.org/ns#"
   xmlns:rdf="http://www.w3.org/1999/02/22-rdf-syntax-ns#"
   xmlns:svg="http://www.w3.org/2000/svg"
   xmlns="http://www.w3.org/2000/svg"
   xmlns:sodipodi="http://sodipodi.sourceforge.net/DTD/sodipodi-0.dtd"
   xmlns:inkscape="http://www.inkscape.org/namespaces/inkscape"
   id="svg7384"
   height="16"
   width="16"
   version="1.1"
   sodipodi:docname="call-missed-symbolic.svg"
   inkscape:version="0.92.1 r15371">
  <defs
     id="defs10" />
  <sodipodi:namedview
     pagecolor="#ffffff"
     bordercolor="#666666"
     borderopacity="1"
     objecttolerance="10"
     gridtolerance="10"
     guidetolerance="10"
     inkscape:pageopacity="0"
     inkscape:pageshadow="2"
     inkscape:window-width="1600"
     inkscape:window-height="808"
     id="namedview8"
     showgrid="false"
     inkscape:zoom="14.75"
     inkscape:cx="-5.8644068"
     inkscape:cy="8"
     inkscape:window-x="0"
     inkscape:window-y="0"
     inkscape:window-maximized="1"
     inkscape:current-layer="svg7384" />
  <metadata
     id="metadata90">
    <rdf:RDF>
      <cc:Work
         rdf:about="">
        <dc:format>image/svg+xml</dc:format>
        <dc:type
           rdf:resource="http://purl.org/dc/dcmitype/StillImage" />
        <dc:title>Gnome Symbolic Icon Theme</dc:title>
      </cc:Work>
    </rdf:RDF>
  </metadata>
  <title
     id="title9167">Gnome Symbolic Icon Theme</title>
  <path
     inkscape:connector-curvature="0"
     style="fill:#232627;fill-opacity:1;stroke:none"
     d="m 7.9073439,13.964191 c 1.81605,1.81605 4.3594201,2.40526 6.6705701,1.81471 l 0.40051,-0.40052 0.7071,-0.70709 c 0,0 0.7071,-0.70711 -10e-6,-1.41423 l -3.04035,-3.04035 c -0.70711,-0.7071105 -1.41422,0 -1.41422,0 l -0.35355,0.35355 c -0.58761,0.58761 -1.5337201,0.5876 -2.1213201,0 L 5.429834,7.2440405 c -0.58759,-0.58759 -0.58761,-1.53372 0,-2.12134 l 0.35356,-0.35355 c 0,0 0.70709,-0.7071 -1e-5,-1.41421 L 2.742834,0.31439052 c -0.70711,-0.7071 -1.41421,0 -1.41421,0 l -0.7071,0.70710008 -0.40051,0.40051 c -0.59055,2.3111499 -10e-5,4.8547599 1.81472,6.6705599 z"
     class="ColorScheme-Text"
     id="path4" />
</svg>
