<?xml version="1.0" encoding="UTF-8" standalone="no"?>
<!-- Created with Inkscape (http://www.inkscape.org/) -->

<svg
   xmlns:dc="http://purl.org/dc/elements/1.1/"
   xmlns:cc="http://creativecommons.org/ns#"
   xmlns:rdf="http://www.w3.org/1999/02/22-rdf-syntax-ns#"
   xmlns:svg="http://www.w3.org/2000/svg"
   xmlns="http://www.w3.org/2000/svg"
   xmlns:sodipodi="http://sodipodi.sourceforge.net/DTD/sodipodi-0.dtd"
   xmlns:inkscape="http://www.inkscape.org/namespaces/inkscape"
   id="svg7384"
   height="16"
   width="16"
   version="1.1"
   sodipodi:docname="computer-fail-symbolic.svg"
   inkscape:version="0.92.1 r15371">
  <defs
     id="defs10" />
  <sodipodi:namedview
     pagecolor="#ffffff"
     bordercolor="#666666"
     borderopacity="1"
     objecttolerance="10"
     gridtolerance="10"
     guidetolerance="10"
     inkscape:pageopacity="0"
     inkscape:pageshadow="2"
     inkscape:window-width="1600"
     inkscape:window-height="808"
     id="namedview8"
     showgrid="false"
     inkscape:zoom="14.75"
     inkscape:cx="0.47457627"
     inkscape:cy="8"
     inkscape:window-x="0"
     inkscape:window-y="0"
     inkscape:window-maximized="1"
     inkscape:current-layer="svg7384" />
  <metadata
     id="metadata90">
    <rdf:RDF>
      <cc:Work
         rdf:about="">
        <dc:format>image/svg+xml</dc:format>
        <dc:type
           rdf:resource="http://purl.org/dc/dcmitype/StillImage" />
        <dc:title>Gnome Symbolic Icon Theme</dc:title>
      </cc:Work>
    </rdf:RDF>
  </metadata>
  <title
     id="title9167">Gnome Symbolic Icon Theme</title>
  <path
     inkscape:connector-curvature="0"
     style="color:#31363b;fill:#232627;fill-opacity:1;stroke:none"
     d="M 4.9999999e-8,2e-7 V 16 H 1 16 V 15 2e-7 H 15 1 Z M 1,1.0000002 H 15 V 15 H 1 Z m 0.9999999,1 v 1 h 1 v -1 z m 1,1 v 2 h 2 v -2 z m 2,0 h 1 v -1 h -1 z m 0,2 v 1 h 1 v -1 z m -2,0 h -1 v 1 h 1 z m 7.0000001,-3 v 1 h 1 v -1 z m 1,1 v 2 h 2 v -2 z m 2,0 h 1 v -1 h -1 z m 0,2 v 1 h 1 v -1 z m -2,0 h -1 v 1 h 1 z m -5.0000001,3 V 10 H 10 V 8.0000002 Z M 10,10 v 2 h 2 v -2 z m 2,2 v 2 h 2 V 12 Z M 5.9999999,10 h -2 v 2 h 2 z m -2,2 h -2 v 2 h 2 z"
     class="ColorScheme-Text"
     id="path7" />
</svg>
