<?xml version="1.0" encoding="UTF-8" standalone="no"?>
<svg
   xmlns:dc="http://purl.org/dc/elements/1.1/"
   xmlns:cc="http://creativecommons.org/ns#"
   xmlns:rdf="http://www.w3.org/1999/02/22-rdf-syntax-ns#"
   xmlns:svg="http://www.w3.org/2000/svg"
   xmlns="http://www.w3.org/2000/svg"
   xmlns:sodipodi="http://sodipodi.sourceforge.net/DTD/sodipodi-0.dtd"
   xmlns:inkscape="http://www.inkscape.org/namespaces/inkscape"
   id="svg2"
   width="16"
   height="16"
   version="1.1"
   sodipodi:docname="my-caffeine-on-symbolic.svg"
   inkscape:version="0.92.3 (2405546, 2018-03-11)">
  <metadata
     id="metadata8">
    <rdf:RDF>
      <cc:Work
         rdf:about="">
        <dc:format>image/svg+xml</dc:format>
        <dc:type
           rdf:resource="http://purl.org/dc/dcmitype/StillImage" />
        <dc:title></dc:title>
      </cc:Work>
    </rdf:RDF>
  </metadata>
  <sodipodi:namedview
     pagecolor="#ffffff"
     bordercolor="#666666"
     borderopacity="1"
     objecttolerance="10"
     gridtolerance="10"
     guidetolerance="10"
     inkscape:pageopacity="0"
     inkscape:pageshadow="2"
     inkscape:window-width="1920"
     inkscape:window-height="1021"
     id="namedview6"
     showgrid="false"
     inkscape:zoom="20.02"
     inkscape:cx="11"
     inkscape:cy="11"
     inkscape:window-x="0"
     inkscape:window-y="30"
     inkscape:window-maximized="1"
     inkscape:current-layer="svg2" />
  <defs
     id="defs10">
    <style
       id="current-color-scheme"
       type="text/css">
   .ColorScheme-Text { color:#232627; } .ColorScheme-Highlight { color:#3daee9; }
  </style>
  </defs>
  <path
     id="rect4137"
     style="opacity:1;fill:#232627;fill-opacity:1"
     d="M 7.193359,4.219e-4 C 6.0951599,1.3846419 5.7660095,1.5669847 6.1621094,2.4480547 6.5212094,3.2467247 7.449022,3.15297 6.9824219,5 7.748822,4.10008 8.357659,3.4578953 7.755859,2.5359453 7.143659,1.5982454 6.8083602,1.5284219 7.193359,4.219e-4 Z m 3,0 c -1.0982,1.38422 -1.42735,1.5665628 -1.03125,2.4476328 C 9.521209,3.2467247 10.449022,3.15297 9.982422,5 c 0.7664,-0.89992 1.375237,-1.5421045 0.773437,-2.4640547 -0.6122,-0.9376999 -0.9475,-1.0075234 -0.5625,-2.5355234 z m 3,0 c -1.0982,1.38422 -1.42735,1.5665628 -1.03125,2.4476328 0.3591,0.79867 1.286913,0.7049153 0.820313,2.5519453 0.7664,-0.89992 1.375237,-1.5421045 0.773437,-2.4640547 -0.6122,-0.9376999 -0.9475,-1.0075234 -0.5625,-2.5355234 z M 4,6 C 1.790861,6 0,7.790861 0,10 0,12.209139 1.790861,14 4,14 4.2424594,13.999162 4.4843405,13.97628 4.7226562,13.93164 5.4620206,15.481093 6.9580363,16 10,16 16,16 16,14 16,6 Z M 4,8 H 4.00781 C 4.019423,9.596219 4.059976,10.938455 4.2031225,11.986328 4.1356985,11.994331 4.0678957,11.998894 4,12 2.8954305,12 2,11.104569 2,10 2,8.895431 2.8954305,8 4,8 Z"
     inkscape:connector-curvature="0"
     sodipodi:nodetypes="cccccccccccccccssccscsscccss" />
</svg>
