<?xml version="1.0" encoding="UTF-8" standalone="no"?>
<!-- Created with Inkscape (http://www.inkscape.org/) -->

<svg
   width="48"
   height="48"
   viewBox="0 0 12.7 12.7"
   version="1.1"
   id="svg1415"
   inkscape:version="1.1.1 (3bf5ae0d25, 2021-09-20, custom)"
   sodipodi:docname="user-home.svg"
   xmlns:inkscape="http://www.inkscape.org/namespaces/inkscape"
   xmlns:sodipodi="http://sodipodi.sourceforge.net/DTD/sodipodi-0.dtd"
   xmlns:xlink="http://www.w3.org/1999/xlink"
   xmlns="http://www.w3.org/2000/svg"
   xmlns:svg="http://www.w3.org/2000/svg">
  <sodipodi:namedview
     id="namedview1417"
     pagecolor="#ffffff"
     bordercolor="#666666"
     borderopacity="1.0"
     inkscape:pageshadow="2"
     inkscape:pageopacity="0.0"
     inkscape:pagecheckerboard="0"
     inkscape:document-units="px"
     showgrid="false"
     units="px"
     inkscape:zoom="16.895833"
     inkscape:cx="23.1418"
     inkscape:cy="36.073983"
     inkscape:window-width="1920"
     inkscape:window-height="1007"
     inkscape:window-x="0"
     inkscape:window-y="0"
     inkscape:window-maximized="1"
     inkscape:current-layer="svg1415" />
  <defs
     id="defs1412">
    <linearGradient
       inkscape:collect="always"
       id="linearGradient8759">
      <stop
         style="stop-color:#4d4d4d;stop-opacity:1;"
         offset="0"
         id="stop8755" />
      <stop
         style="stop-color:#666666;stop-opacity:1"
         offset="1"
         id="stop8757" />
    </linearGradient>
    <linearGradient
       inkscape:collect="always"
       id="linearGradient1817">
      <stop
         style="stop-color:#5e2750;stop-opacity:1"
         offset="0"
         id="stop1813" />
      <stop
         style="stop-color:#772953;stop-opacity:1"
         offset="0.43304467"
         id="stop5839" />
      <stop
         style="stop-color:#e95420;stop-opacity:1"
         offset="1"
         id="stop1815" />
    </linearGradient>
    <linearGradient
       inkscape:collect="always"
       xlink:href="#linearGradient1817"
       id="linearGradient1819"
       x1="0.52916586"
       y1="5.5562501"
       x2="14.287504"
       y2="5.5562501"
       gradientUnits="userSpaceOnUse" />
    <linearGradient
       inkscape:collect="always"
       xlink:href="#linearGradient8759"
       id="linearGradient8761"
       x1="11.641665"
       y1="11.1125"
       x2="6.3499999"
       y2="3.7041667"
       gradientUnits="userSpaceOnUse" />
  </defs>
  <path
     id="rect955"
     style="fill:url(#linearGradient1819);fill-opacity:1;stroke-width:0.374177"
     d="M 1.0583333,1.5875 H 5.2916666 L 6.35,2.9104167 l 5.291667,1e-7 0,5.0270832 H 1.0583333 Z"
     sodipodi:nodetypes="ccccccc" />
  <path
     id="rect6613"
     style="fill:#ffffff;fill-opacity:0.24;stroke-width:0.0529166"
     d="M 6.3499999,2.9104166 H 11.641665 V 3.1749999 H 6.3499999 L 5.2916666,1.5875 Z"
     sodipodi:nodetypes="cccccc" />
  <path
     id="rect8137"
     style="fill:url(#linearGradient8761);fill-opacity:1;stroke-width:0.393837"
     d="m 1.0583332,5.0270833 h 4.2333332 l 1.0583335,-1.3229167 5.2916671,10e-8 V 11.1125 H 1.0583315 Z"
     sodipodi:nodetypes="ccccccc" />
  <path
     id="rect7008"
     style="fill:#000000;fill-opacity:0.24;stroke-width:0.22776"
     d="M 1.0583332,4.7625 H 5.0270833 L 6.3499997,3.7041667 5.2916664,5.0270833 H 1.0583332 Z"
     sodipodi:nodetypes="cccccc" />
  <path
     id="rect7008-3"
     style="fill:#ffffff;fill-opacity:0.24;stroke-width:0.22776"
     d="M 1.0583332,5.0270833 H 5.2916664 L 6.3499997,3.7041667 5.5562495,5.2916663 H 1.0583332 Z"
     sodipodi:nodetypes="cccccc" />
  <rect
     style="fill:#000000;fill-opacity:0.24;stroke-width:0.159658"
     id="rect9471"
     width="10.583333"
     height="0.26458332"
     x="1.058332"
     y="10.847917" />
  <g
     transform="matrix(0.26458333,0,0,0.26458333,4.2333333,5.2916667)"
     fill="#999999"
     id="g27">
    <path
       d="M 5,6 V 7 H 4 V 8 H 5 V 9 H 6 V 8 H 7 V 7 H 6 V 6 Z M 10.5,5.9 A 0.6,0.6 0 0 0 9.9,6.5 0.6,0.6 0 0 0 10.5,7.1 0.6,0.6 0 0 0 11.1,6.5 0.6,0.6 0 0 0 10.5,5.9 Z m -1,1 A 0.6,0.6 0 0 0 8.9,7.5 0.6,0.6 0 0 0 9.5,8.1 0.6,0.6 0 0 0 10.1,7.5 0.6,0.6 0 0 0 9.5,6.9 Z m 2,0 a 0.6,0.6 0 0 0 -0.6,0.6 0.6,0.6 0 0 0 0.6,0.6 0.6,0.6 0 0 0 0.6,-0.6 0.6,0.6 0 0 0 -0.6,-0.6 z m -1,1 A 0.6,0.6 0 0 0 9.9,8.5 0.6,0.6 0 0 0 10.5,9.1 0.6,0.6 0 0 0 11.1,8.5 0.6,0.6 0 0 0 10.5,7.9 Z"
       id="path23" />
    <path
       d="M 4,4 A 2,4 0 0 0 2,8 v 2.5 a 1.5,1.5 0 0 0 2.56,1.06 L 5.504,10.617 A 1.5,1.5 0 0 0 6.5,11 1.5,1.5 0 0 0 8,9.5 a 1.5,1.5 0 0 0 2.498,1.12 l 0.941,0.94 A 1.5,1.5 0 0 0 14,10.5 V 8 A 2,4 0 0 0 12,4 Z m 0,1 h 8 a 1,3 0 0 1 1,3 v 2.5 a 0.5,0.5 0 0 1 -0.854,0.354 L 10.293,9 H 10 v 0.5 a 0.5,0.5 0 0 1 -1,0 V 9 H 7 v 0.5 a 0.5,0.5 0 0 1 -1,0 V 9 H 5.707 L 3.854,10.854 A 0.5,0.5 0 0 1 3,10.5 V 8 A 1,3 0 0 1 4,5 Z"
       id="path25" />
  </g>
</svg>
