<?xml version="1.0" encoding="UTF-8" standalone="no"?>
<!-- Created with Inkscape (http://www.inkscape.org/) -->

<svg
   width="48"
   height="48"
   viewBox="0 0 12.7 12.7"
   version="1.1"
   id="svg1415"
   inkscape:version="1.1.1 (3bf5ae0d25, 2021-09-20, custom)"
   sodipodi:docname="folder-decrypted.svg"
   xmlns:inkscape="http://www.inkscape.org/namespaces/inkscape"
   xmlns:sodipodi="http://sodipodi.sourceforge.net/DTD/sodipodi-0.dtd"
   xmlns:xlink="http://www.w3.org/1999/xlink"
   xmlns="http://www.w3.org/2000/svg"
   xmlns:svg="http://www.w3.org/2000/svg">
  <sodipodi:namedview
     id="namedview1417"
     pagecolor="#ffffff"
     bordercolor="#666666"
     borderopacity="1.0"
     inkscape:pageshadow="2"
     inkscape:pageopacity="0.0"
     inkscape:pagecheckerboard="0"
     inkscape:document-units="px"
     showgrid="false"
     units="px"
     inkscape:zoom="16.895833"
     inkscape:cx="30.59926"
     inkscape:cy="19.265105"
     inkscape:window-width="1920"
     inkscape:window-height="1007"
     inkscape:window-x="0"
     inkscape:window-y="0"
     inkscape:window-maximized="1"
     inkscape:current-layer="svg1415" />
  <defs
     id="defs1412">
    <linearGradient
       inkscape:collect="always"
       id="linearGradient8759">
      <stop
         style="stop-color:#4d4d4d;stop-opacity:1;"
         offset="0"
         id="stop8755" />
      <stop
         style="stop-color:#666666;stop-opacity:1"
         offset="1"
         id="stop8757" />
    </linearGradient>
    <linearGradient
       inkscape:collect="always"
       id="linearGradient1817">
      <stop
         style="stop-color:#111111;stop-opacity:1"
         offset="0"
         id="stop1813" />
      <stop
         style="stop-color:#333333;stop-opacity:1"
         offset="0.43304467"
         id="stop5839" />
      <stop
         style="stop-color:#666666;stop-opacity:1"
         offset="1"
         id="stop1815" />
    </linearGradient>
    <linearGradient
       inkscape:collect="always"
       xlink:href="#linearGradient1817"
       id="linearGradient1819"
       x1="0.52916586"
       y1="5.5562501"
       x2="14.287504"
       y2="5.5562501"
       gradientUnits="userSpaceOnUse" />
    <linearGradient
       inkscape:collect="always"
       xlink:href="#linearGradient8759"
       id="linearGradient8761"
       x1="11.641665"
       y1="11.1125"
       x2="6.3499999"
       y2="3.7041667"
       gradientUnits="userSpaceOnUse" />
  </defs>
  <path
     id="rect955"
     style="fill:url(#linearGradient1819);fill-opacity:1;stroke-width:0.374177"
     d="M 1.0583333,1.5875 H 5.2916666 L 6.35,2.9104167 l 5.291666,1e-7 -1e-6,6.6145832 H 1.0583333 Z"
     sodipodi:nodetypes="ccccccc" />
  <path
     id="rect6613"
     style="fill:#ffffff;fill-opacity:0.24;stroke-width:0.0529166"
     d="M 6.3499999,2.9104166 H 11.641665 V 3.1749999 H 6.3499999 L 5.2916666,1.5875 Z"
     sodipodi:nodetypes="cccccc" />
  <path
     id="rect8137"
     style="fill:url(#linearGradient8761);fill-opacity:1;stroke-width:0.393837"
     d="m 1.0583332,5.0270833 h 4.2333332 l 1.0583335,-1.3229167 5.2916651,10e-8 V 11.1125 H 1.0583315 Z"
     sodipodi:nodetypes="ccccccc" />
  <path
     id="rect7008"
     style="fill:#000000;fill-opacity:0.24;stroke-width:0.22776"
     d="M 1.0583332,4.7625 H 5.0270833 L 6.3499997,3.7041667 5.2916664,5.0270833 H 1.0583332 Z"
     sodipodi:nodetypes="cccccc" />
  <rect
     style="fill:#000000;fill-opacity:0.24;stroke-width:0.159658"
     id="rect9471"
     width="10.583333"
     height="0.26458332"
     x="1.058332"
     y="10.847917" />
  <path
     id="rect858"
     style="fill:#808080;stroke-width:0.999999;fill-opacity:1;opacity:0.6"
     d="M 24 14 L 22 16.5 L 22 17 L 25 17 L 25 14 L 24 14 z M 25 17 L 25 20 L 28 20 L 28 17 L 25 17 z M 28 17 L 31 17 L 31 14 L 28 14 L 28 17 z M 31 17 L 31 20 L 34 20 L 34 17 L 31 17 z M 34 17 L 37 17 L 37 14 L 34 14 L 34 17 z M 37 17 L 37 20 L 40 20 L 40 17 L 37 17 z M 40 17 L 43 17 L 43 14 L 40 14 L 40 17 z M 43 17 L 43 20 L 44 20 L 44 17 L 43 17 z M 43 20 L 40 20 L 40 23 L 43 23 L 43 20 z M 37 20 L 34 20 L 34 23 L 37 23 L 37 20 z M 31 20 L 28 20 L 28 23 L 31 23 L 31 20 z M 25 20 L 22 20 L 22 23 L 25 23 L 25 20 z M 22 20 L 22 17 L 21.599609 17 L 20 19 L 19 19 L 19 20 L 22 20 z M 19 20 L 16 20 L 16 23 L 19 23 L 19 20 z M 16 20 L 16 19 L 13 19 L 13 20 L 16 20 z M 13 20 L 10 20 L 10 23 L 13 23 L 13 20 z M 10 20 L 10 19 L 7 19 L 7 20 L 10 20 z M 7 20 L 4 20 L 4 23 L 7 23 L 7 20 z "
     transform="scale(0.26458333)" />
  <path
     id="rect7008-3"
     style="fill:#ffffff;fill-opacity:0.24;stroke-width:0.22776"
     d="M 1.0583332,5.0270833 H 5.2916664 L 6.3499997,3.7041667 5.5562495,5.2916663 H 1.0583332 Z"
     sodipodi:nodetypes="cccccc" />
  <path
     d="m 6.3499993,5.8208333 c -0.438377,0 -0.79375,0.355372 -0.79375,0.79375 v 0.264583 h 0.264584 v -0.264583 c 0,-0.292251 0.236915,-0.529167 0.529166,-0.529167 0.292251,0 0.529167,0.236916 0.529167,0.529167 v 0.79375 h -1.852083 v 1.587499 h 2.645833 v -1.587499 h -0.529167 v -0.793751 c 0,-0.438377 -0.355372,-0.79375 -0.79375,-0.793749 z m -1.058333,1.852083 h 2.116667 v 1.058333 h -2.116667 z"
     id="path23"
     style="fill:#999999;fill-opacity:1;stroke-width:0.264583" />
</svg>
