<svg xmlns="http://www.w3.org/2000/svg" width="22" height="22" version="1.1">
 <defs>
  <style id="current-color-scheme" type="text/css">
   .ColorScheme-Text { color:#cecfce; } .ColorScheme-Highlight { color:#3daee9; }
  </style>
 </defs>
 <path style="fill:currentColor" class="ColorScheme-Text" d="M 15,4.0717966 C 11.173857,1.8627723 6.2808217,3.1738567 4.0717968,6.9999999 1.8627724,10.826142 3.1738575,15.719178 6.9999999,17.928204 10.826143,20.137228 15.719178,18.826143 17.928204,15 20.137228,11.173857 18.826144,6.2808218 15,4.0717966 Z M 14.5,4.937822 c 2.545188,1.4694652 3.813642,4.2743005 3.436469,7.008799 L 16.667446,11.746194 C 16.880902,9.5484584 15.745345,7.3888733 13.75,6.2368603 11.707024,5.0573473 9.1559882,5.196441 7.3721768,6.5960742 L 8.5693431,8.0811151 C 9.7623929,7.148705 11.465852,7.0470859 12.828125,7.8335945 c 1.312043,0.7575086 2.058725,2.1296696 1.941526,3.5746795 l -1.359595,-0.207612 1.946834,3.252983 2.575341,-2.480154 C 17.809596,12.837711 17.526671,13.695469 17.062178,14.5 15.123411,17.858042 10.858043,19.000944 7.5,17.062178 4.1419581,15.123411 2.9990557,10.858042 4.9378222,7.5 6.8765891,4.1419572 11.141958,2.9990557 14.5,4.937822 Z M 6.6291768,7.5743942 4.0756513,9.9972301 5.3498698,10.227719 c -0.2282755,2.183404 0.9168696,4.390385 2.9018215,5.536398 2.0481727,1.182513 4.5511737,1.050615 6.3621977,-0.332151 L 13.415032,13.945948 C 12.207759,14.868993 10.538438,14.955391 9.173566,14.167382 7.870184,13.414874 7.1260385,12.002318 7.2476658,10.56564 l 1.3579037,0.206635 z"/>
</svg>
