<svg xmlns="http://www.w3.org/2000/svg" id="svg2" width="22" height="22" version="1">
 <defs id="defs8">
  <style id="current-color-scheme" type="text/css">
   .ColorScheme-Text { color:#cecfce; } .ColorScheme-Highlight { color:#3daee9; }
  </style>
 </defs>
 <path id="path4485" style="opacity:1;vector-effect:none;fill:#cecfce;fill-opacity:1;stroke:none;stroke-width:1.37402546;stroke-linecap:round;stroke-linejoin:round;stroke-miterlimit:4;stroke-dasharray:none;stroke-dashoffset:0;stroke-opacity:1" d="M 11 3 C 10.83974 3 10.683261 3.0142355 10.525391 3.0234375 A 8 8 0 0 0 7.2910156 3.9160156 C 7.2871361 3.9180417 7.2831715 3.9198418 7.2792969 3.921875 A 8 8 0 0 0 6.1523438 4.6484375 A 8 8 0 0 0 6.1425781 4.6542969 A 8 8 0 0 0 5.6523438 5.0605469 A 8 8 0 0 0 5.46875 5.2246094 C 5.4971127 5.1974742 5.5297847 5.1751015 5.5585938 5.1484375 A 8 8 0 0 0 4.4472656 6.4257812 A 8 8 0 0 0 4.4355469 6.4414062 A 8 8 0 0 0 4.140625 6.9003906 A 8 8 0 0 0 3.9570312 7.2070312 C 3.9833261 7.158183 4.0174562 7.1145367 4.0449219 7.0664062 A 8 8 0 0 0 3 11 A 8 8 0 0 0 7.2597656 18.064453 A 8 8 0 0 0 7.9023438 18.367188 A 8 8 0 0 0 8.3886719 18.552734 C 8.3976124 18.555805 8.407072 18.557481 8.4160156 18.560547 A 8 8 0 0 0 9.8691406 18.910156 A 8 8 0 0 0 10.142578 18.951172 A 8 8 0 0 0 10.201172 18.960938 C 10.201172 18.960938 10.203125 18.960938 10.203125 18.960938 A 8 8 0 0 0 10.208984 18.960938 C 10.209945 18.958369 10.211928 18.955695 10.212891 18.953125 A 8 8 0 0 0 11 19 A 8 8 0 0 0 12.443359 18.863281 A 8 8 0 0 0 19 11 A 8 8 0 0 0 18.863281 9.5566406 A 8 8 0 0 0 11 3 z M 8.1660156 3.5214844 A 8 8 0 0 0 8.0820312 3.5527344 C 8.1098088 3.5419026 8.1380864 3.5320148 8.1660156 3.5214844 z M 11 4 A 7 7 0 0 1 18 11 A 7 7 0 0 1 11 18 A 7 7 0 0 1 10.597656 17.980469 C 11.120133 16.658788 11.698415 15.268952 12.132812 14.058594 C 12.784612 14.045714 13.432696 14.053846 14.085938 14.041016 C 14.499987 14.026716 15.126132 13.776837 15.263672 13.373047 C 15.813872 11.824247 16.363574 10.290275 16.896484 8.734375 C 16.983774 8.499285 17.037217 8.2423069 16.966797 7.9980469 C 16.873637 7.6855769 16.589843 7.4465313 16.283203 7.3632812 C 16.016553 7.2800313 15.748239 7.3164469 15.474609 7.3105469 C 14.638009 7.3090869 13.780009 7.3017686 12.943359 7.2929688 L 12.943359 7.2949219 C 12.930639 7.3223919 12.920963 7.3890356 12.908203 7.4160156 C 11.745833 10.676462 10.395191 14.360758 9.171875 17.75 A 7 7 0 0 1 4 11 A 7 7 0 0 1 8.1503906 4.6152344 C 7.0998249 7.677487 6.047451 10.893175 5 13.794922 C 5.0873 13.820922 5.1732719 13.8115 5.2636719 13.8125 C 5.7606119 13.8095 6.2593425 13.814 6.7578125 13.8125 C 6.8253025 13.8125 6.8170951 13.714785 6.8457031 13.671875 C 7.4447031 11.981575 8.0523969 10.300428 8.6542969 8.6113281 C 8.6902439 8.5068081 8.7300267 8.3950519 8.7773438 8.2949219 C 9.0898336 8.3008219 9.3979644 8.2905219 9.7089844 8.2949219 C 9.0556844 10.127222 8.4048244 11.970575 7.7402344 13.796875 C 7.8102944 13.824025 7.880134 13.811 7.953125 13.8125 C 8.474725 13.8081 8.994075 13.8198 9.515625 13.8125 C 10.105825 12.1479 10.715134 10.487066 11.308594 8.8222656 C 11.434764 8.4826456 11.453471 8.0464781 11.238281 7.7675781 C 10.781481 7.1755981 9.7672281 7.0771444 9.1113281 7.0527344 C 9.4559151 6.0769793 9.8100976 5.0637823 10.162109 4.0585938 A 7 7 0 0 1 11 4 z M 18.4375 8.0566406 C 18.459265 8.1118556 18.47748 8.1687937 18.498047 8.2246094 A 8 8 0 0 0 18.4375 8.0566406 z M 14.515625 8.2753906 C 14.542125 8.2782906 14.569853 8.2829969 14.595703 8.2792969 C 14.837773 8.2836969 15.075796 8.2733969 15.316406 8.2792969 C 14.754906 9.8823969 14.182026 11.48595 13.628906 13.09375 C 13.315306 13.11539 12.993656 13.09525 12.679688 13.09375 C 13.251487 11.50065 13.814756 9.9086 14.384766 8.3125 C 14.397596 8.29819 14.42026 8.2817438 14.4375 8.2773438 L 14.4375 8.2792969 C 14.46336 8.2713969 14.489125 8.2724906 14.515625 8.2753906 z M 18.681641 8.7773438 C 18.706224 8.8629413 18.726257 8.9503429 18.748047 9.0371094 A 8 8 0 0 0 18.681641 8.7773438 z M 3.1777344 9.34375 A 8 8 0 0 0 3.1503906 9.4765625 C 3.1589165 9.4320877 3.1684795 9.3879545 3.1777344 9.34375 z M 3.0644531 10.039062 A 8 8 0 0 0 3.0351562 10.267578 C 3.0420917 10.190683 3.0553739 10.115299 3.0644531 10.039062 z M 3.2851562 13.111328 A 8 8 0 0 0 3.3125 13.207031 C 3.3033882 13.17509 3.2938806 13.143434 3.2851562 13.111328 z M 3.5273438 13.853516 A 8 8 0 0 0 3.5644531 13.947266 C 3.5520604 13.915939 3.5393509 13.885038 3.5273438 13.853516 z M 5.2265625 16.533203 A 8 8 0 0 0 5.3125 16.621094 C 5.2836198 16.591958 5.2549917 16.56278 5.2265625 16.533203 z M 5.7597656 17.039062 A 8 8 0 0 0 5.8945312 17.15625 C 5.8486598 17.118318 5.804761 17.077992 5.7597656 17.039062 z M 6.40625 17.544922 A 8 8 0 0 0 6.4960938 17.611328 C 6.4652729 17.590393 6.4367582 17.566274 6.40625 17.544922 z M 13.935547 18.441406 C 13.894956 18.457354 13.853416 18.471027 13.8125 18.486328 A 8 8 0 0 0 13.935547 18.441406 z M 13.197266 18.689453 C 13.131653 18.708052 13.064344 18.723272 12.998047 18.740234 A 8 8 0 0 0 13.197266 18.689453 z"/>
</svg>
