<?xml version="1.0" encoding="UTF-8" standalone="no"?>
<!-- Created with Inkscape (http://www.inkscape.org/) -->

<svg
   width="16"
   height="16"
   viewBox="0 0 4.2333333 4.2333335"
   version="1.1"
   id="svg5"
   inkscape:version="1.1.1 (3bf5ae0d25, 2021-09-20, custom)"
   sodipodi:docname="weather-snow-small.svg"
   xmlns:inkscape="http://www.inkscape.org/namespaces/inkscape"
   xmlns:sodipodi="http://sodipodi.sourceforge.net/DTD/sodipodi-0.dtd"
   xmlns:xlink="http://www.w3.org/1999/xlink"
   xmlns="http://www.w3.org/2000/svg"
   xmlns:svg="http://www.w3.org/2000/svg">
  <sodipodi:namedview
     id="namedview7"
     pagecolor="#ffffff"
     bordercolor="#666666"
     borderopacity="1.0"
     inkscape:pageshadow="2"
     inkscape:pageopacity="0.0"
     inkscape:pagecheckerboard="0"
     inkscape:document-units="px"
     showgrid="false"
     units="px"
     width="128px"
     showguides="false"
     inkscape:zoom="32"
     inkscape:cx="4.21875"
     inkscape:cy="12.8125"
     inkscape:window-width="1920"
     inkscape:window-height="1019"
     inkscape:window-x="0"
     inkscape:window-y="0"
     inkscape:window-maximized="1"
     inkscape:current-layer="layer1" />
  <defs
     id="defs2">
    <linearGradient
       inkscape:collect="always"
       id="linearGradient8933">
      <stop
         style="stop-color:#abdaf9;stop-opacity:1;"
         offset="0"
         id="stop8929" />
      <stop
         style="stop-color:#e1f2ff;stop-opacity:1"
         offset="1"
         id="stop8931" />
    </linearGradient>
    <linearGradient
       inkscape:collect="always"
       xlink:href="#linearGradient8933"
       id="linearGradient3034"
       x1="7.3283691"
       y1="1.0189209"
       x2="12.980103"
       y2="16.140503"
       gradientUnits="userSpaceOnUse" />
  </defs>
  <g
     inkscape:label="Layer 1"
     inkscape:groupmode="layer"
     id="layer1">
    <path
       id="rect1050"
       style="fill:url(#linearGradient3034);fill-opacity:1;stroke-width:1.19947"
       d="M 7.7460938,2 V 3.7109375 L 6.5136719,3 l -0.5,0.8652344 1.7324219,1 V 7.1347656 L 5.78125,6 V 4 H 4.7832031 L 4.78125,5.421875 3.3007812,4.5664062 l -0.5,0.8671876 L 4.28125,6.2890625 3.0507812,7 l 0.4980469,0.8652344 1.7324219,-1 L 7.2460938,8 5.28125,9.1347656 l -1.7324219,-1 L 3.0507812,9 4.28125,9.7109375 2.8007812,10.566406 l 0.5,0.867188 L 4.78125,10.578125 4.7832031,12 H 5.78125 V 10 L 7.7460938,8.8652344 v 2.2695316 l -1.7324219,1 0.5,0.865234 1.2324219,-0.710938 V 14 h 1 V 12.289062 L 9.9785156,13 l 0.5000004,-0.865234 -1.7324222,-1 V 8.8652344 L 10.710938,10 v 2 h 1 v -1.421875 l 1.480468,0.855469 0.5,-0.867188 L 12.210938,9.7109375 13.443359,9 l -0.5,-0.8652344 -1.732421,1 L 9.2460938,8 11.210938,6.8652344 l 1.732421,1 0.5,-0.8652344 -1.232421,-0.7109375 1.480468,-0.8554687 -0.5,-0.8671876 -1.480468,0.8554688 V 4 h -1 V 6 L 8.7460938,7.1347656 V 4.8652344 l 1.7324222,-1 L 9.9785156,3 8.7460938,3.7109375 V 2 Z"
       transform="scale(0.26458334)" />
  </g>
</svg>
