<?xml version="1.0" encoding="UTF-8" standalone="no"?>
<svg
   xmlns:dc="http://purl.org/dc/elements/1.1/"
   xmlns:cc="http://creativecommons.org/ns#"
   xmlns:rdf="http://www.w3.org/1999/02/22-rdf-syntax-ns#"
   xmlns:svg="http://www.w3.org/2000/svg"
   xmlns="http://www.w3.org/2000/svg"
   xmlns:sodipodi="http://sodipodi.sourceforge.net/DTD/sodipodi-0.dtd"
   xmlns:inkscape="http://www.inkscape.org/namespaces/inkscape"
   width="22"
   height="22"
   version="1.1"
   id="svg9"
   sodipodi:docname="fcitx-sunpinyin-panel.svg"
   inkscape:version="0.92.3 (2405546, 2018-03-11)">
  <metadata
     id="metadata13">
    <rdf:RDF>
      <cc:Work
         rdf:about="">
        <dc:format>image/svg+xml</dc:format>
        <dc:type
           rdf:resource="http://purl.org/dc/dcmitype/StillImage" />
      </cc:Work>
    </rdf:RDF>
  </metadata>
  <sodipodi:namedview
     pagecolor="#ffffff"
     bordercolor="#666666"
     borderopacity="1"
     objecttolerance="10"
     gridtolerance="10"
     guidetolerance="10"
     inkscape:pageopacity="0"
     inkscape:pageshadow="2"
     inkscape:window-width="1920"
     inkscape:window-height="1020"
     id="namedview11"
     showgrid="false"
     inkscape:zoom="28.32"
     inkscape:cx="4.5028249"
     inkscape:cy="11"
     inkscape:window-x="0"
     inkscape:window-y="30"
     inkscape:window-maximized="1"
     inkscape:current-layer="svg9" />
  <defs
     id="defs3">
    <style
       id="current-color-scheme"
       type="text/css">
   .ColorScheme-Text { color:#eff0f1; } .ColorScheme-Highlight { color:#3daee9; }
  </style>
  </defs>
  <path
     style="opacity:1;fill:#eff0f1;fill-opacity:1;stroke:none;stroke-width:3.63512015;stroke-linecap:round;stroke-linejoin:round;stroke-miterlimit:4;stroke-dasharray:none;stroke-dashoffset:0;stroke-opacity:1;paint-order:normal"
     d="M 11 3 A 8 8 0 0 0 10.324219 3.0332031 A 8 8 0 0 0 9.8964844 3.0859375 A 8 8 0 0 0 9.5292969 3.1425781 A 8 8 0 0 0 9.1757812 3.2207031 A 8 8 0 0 0 9.1542969 3.2246094 A 8 8 0 0 0 8.734375 3.3320312 A 8 8 0 0 0 8.7285156 3.3339844 A 8 8 0 0 0 8.3925781 3.4472656 A 8 8 0 0 0 7.9960938 3.5898438 A 8 8 0 0 0 7.9902344 3.5917969 A 8 8 0 0 0 7.5996094 3.7695312 A 8 8 0 0 0 7.2871094 3.9199219 A 8 8 0 0 0 6.9160156 4.1308594 A 8 8 0 0 0 6.8984375 4.140625 A 8 8 0 0 0 6.5878906 4.3320312 A 8 8 0 0 0 6.2714844 4.5566406 A 8 8 0 0 0 6.25 4.5722656 A 8 8 0 0 0 5.9414062 4.8085938 A 8 8 0 0 0 5.6328125 5.0800781 A 8 8 0 0 0 5.3457031 5.3457031 A 8 8 0 0 0 5.3339844 5.3574219 A 8 8 0 0 0 5.0800781 5.6328125 A 8 8 0 0 0 4.8085938 5.9414062 A 8 8 0 0 0 4.5878906 6.2304688 A 8 8 0 0 0 4.5722656 6.25 A 8 8 0 0 0 4.3320312 6.5878906 A 8 8 0 0 0 4.1503906 6.8808594 A 8 8 0 0 0 4.140625 6.8984375 A 8 8 0 0 0 3.9199219 7.2871094 A 8 8 0 0 0 3.7695312 7.5996094 A 8 8 0 0 0 3.5898438 7.9960938 A 8 8 0 0 0 3.5878906 8.0019531 A 8 8 0 0 0 3.4472656 8.3925781 A 8 8 0 0 0 3.3320312 8.734375 A 8 8 0 0 0 3.3300781 8.7421875 A 8 8 0 0 0 3.2304688 9.1308594 A 8 8 0 0 0 3.2246094 9.1542969 A 8 8 0 0 0 3.1425781 9.5292969 A 8 8 0 0 0 3.0859375 9.8964844 A 8 8 0 0 0 3.0332031 10.324219 A 8 8 0 0 0 3 11 A 8 8 0 0 0 3.0214844 11.421875 A 8 8 0 0 0 3.0566406 11.912109 A 8 8 0 0 0 3.0566406 11.916016 A 8 8 0 0 0 3.09375 12.160156 A 8 8 0 0 0 3.0996094 12.189453 A 8 8 0 0 0 3.1875 12.695312 A 8 8 0 0 0 3.2519531 12.949219 A 8 8 0 0 0 3.4003906 13.480469 A 8 8 0 0 0 5.703125 16.982422 A 8 8 0 0 0 5.7226562 17 A 8 8 0 0 0 5.8515625 17.111328 A 8 8 0 0 0 6.4160156 17.544922 A 8 8 0 0 0 6.4179688 17.546875 A 8 8 0 0 0 6.5175781 17.619141 A 8 8 0 0 0 6.5292969 17.626953 A 8 8 0 0 0 7.0664062 17.955078 A 8 8 0 0 0 7.0703125 17.957031 A 8 8 0 0 0 7.2128906 18.039062 A 8 8 0 0 0 7.2207031 18.042969 A 8 8 0 0 0 7.7109375 18.28125 A 8 8 0 0 0 7.734375 18.292969 A 8 8 0 0 0 7.9511719 18.390625 A 8 8 0 0 0 7.9648438 18.396484 A 8 8 0 0 0 8.4394531 18.570312 A 8 8 0 0 0 8.46875 18.580078 A 8 8 0 0 0 8.7089844 18.660156 A 8 8 0 0 0 8.7226562 18.664062 A 8 8 0 0 0 9.2148438 18.787109 A 8 8 0 0 0 9.5019531 18.851562 A 8 8 0 0 0 9.9628906 18.921875 A 8 8 0 0 0 10.300781 18.964844 A 8 8 0 0 0 10.310547 18.964844 A 8 8 0 0 0 11 19 A 8 8 0 0 0 16.058594 17.191406 A 8 8 0 0 0 16.367188 16.919922 A 8 8 0 0 0 16.654297 16.654297 A 8 8 0 0 0 16.666016 16.642578 A 8 8 0 0 0 16.919922 16.367188 A 8 8 0 0 0 17.191406 16.058594 A 8 8 0 0 0 17.412109 15.769531 A 8 8 0 0 0 17.667969 15.412109 A 8 8 0 0 0 17.849609 15.119141 A 8 8 0 0 0 18.080078 14.712891 A 8 8 0 0 0 18.230469 14.400391 A 8 8 0 0 0 18.410156 14.003906 A 8 8 0 0 0 18.412109 13.998047 A 8 8 0 0 0 18.552734 13.607422 A 8 8 0 0 0 18.667969 13.265625 A 8 8 0 0 0 18.669922 13.257812 A 8 8 0 0 0 18.769531 12.869141 A 8 8 0 0 0 18.857422 12.470703 A 8 8 0 0 0 18.914062 12.103516 A 8 8 0 0 0 18.966797 11.675781 A 8 8 0 0 0 19 11 A 8 8 0 0 0 18.966797 10.324219 A 8 8 0 0 0 18.914062 9.8964844 A 8 8 0 0 0 18.857422 9.5292969 A 8 8 0 0 0 18.779297 9.1757812 A 8 8 0 0 0 18.667969 8.734375 A 8 8 0 0 0 18.666016 8.7285156 A 8 8 0 0 0 18.552734 8.3925781 A 8 8 0 0 0 18.410156 7.9960938 A 8 8 0 0 0 18.408203 7.9902344 A 8 8 0 0 0 18.230469 7.5996094 A 8 8 0 0 0 18.080078 7.2871094 A 8 8 0 0 0 17.869141 6.9160156 A 8 8 0 0 0 17.667969 6.5878906 A 8 8 0 0 0 17.443359 6.2714844 A 8 8 0 0 0 17.191406 5.9414062 A 8 8 0 0 0 16.919922 5.6328125 A 8 8 0 0 0 16.654297 5.3457031 A 8 8 0 0 0 16.642578 5.3339844 A 8 8 0 0 0 16.367188 5.0800781 A 8 8 0 0 0 16.058594 4.8085938 A 8 8 0 0 0 15.769531 4.5878906 A 8 8 0 0 0 15.412109 4.3320312 A 8 8 0 0 0 15.119141 4.1503906 A 8 8 0 0 0 14.712891 3.9199219 A 8 8 0 0 0 14.400391 3.7695312 A 8 8 0 0 0 13.998047 3.5878906 A 8 8 0 0 0 13.607422 3.4472656 A 8 8 0 0 0 13.257812 3.3300781 A 8 8 0 0 0 12.869141 3.2304688 A 8 8 0 0 0 12.470703 3.1425781 A 8 8 0 0 0 12.103516 3.0859375 A 8 8 0 0 0 11.675781 3.0332031 A 8 8 0 0 0 11 3 z M 11 4 A 7 7 0 0 1 14.785156 5.1191406 L 13.599609 6.6992188 L 13.998047 7 L 12.001953 7 L 12.400391 6.6992188 L 10.900391 4.6992188 L 10.099609 5.3007812 L 11.375 7 L 10 7 L 10 8 L 11 8 L 11 11 L 9.1171875 11 L 9.2226562 10.949219 L 8.7773438 10.050781 L 8 10.439453 L 8 8 L 9 8 L 9 7 L 8 7 L 8 5 L 7.4101562 5 A 7 7 0 0 1 11 4 z M 7 5.265625 L 7 7 L 5.2578125 7 A 7 7 0 0 1 7 5.265625 z M 15.587891 5.71875 A 7 7 0 0 1 16.734375 7 L 14.625 7 L 15.587891 5.71875 z M 17 7.4101562 A 7 7 0 0 1 18 11 A 7 7 0 0 1 15 16.734375 L 15 12 L 17 12 L 17 11 L 15 11 L 15 8 L 17 8 L 17 7.4101562 z M 5 7.4121094 L 5 8 L 7 8 L 7 10.939453 L 4.7773438 12.050781 L 5.2226562 12.949219 L 7 12.060547 L 7 16 L 6.1113281 16 A 7 7 0 0 1 4 11 A 7 7 0 0 1 5 7.4121094 z M 12 8 L 14 8 L 14 11 L 12 11 L 12 8 z M 9 11.060547 L 9 12 L 10.960938 12 C 10.871937 12.9 10.568969 13.610547 10.167969 14.310547 C 9.670668 15.170547 8.6582031 16.136719 8.6582031 16.136719 L 9.3417969 16.865234 C 9.3417969 16.865234 10.412203 15.880547 11.033203 14.810547 C 11.482203 14.030547 11.862984 13.12 11.958984 12 L 14 12 L 14 17 L 14.589844 17 A 7 7 0 0 1 11 18 A 7 7 0 0 1 7.4121094 17 L 8 17 L 8 11.560547 L 9 11.060547 z "
     id="path826" />
</svg>
