<svg xmlns="http://www.w3.org/2000/svg" id="svg2" width="22" height="22" version="1">
 <defs id="defs8">
  <style id="current-color-scheme" type="text/css">
   .ColorScheme-Text { color:#eff0f1; } .ColorScheme-Highlight { color:#3daee9; }
  </style>
 </defs>
 <path id="path4487" style="fill:#eff0f1;fill-opacity:1" d="M 5 4 C 3.892 4 3 4.892 3 6 L 3 16 C 3 17.108 3.892 18 5 18 L 17 18 C 18.108 18 19 17.108 19 16 L 19 6 C 19 4.892 18.108 4 17 4 L 5 4 z M 5 5 L 17 5 C 17.571297 5 18 5.4287028 18 6 L 18 16 C 18 16.571297 17.571297 17 17 17 L 5 17 C 4.4287028 17 4 16.571297 4 16 L 4 6 C 4 5.4287028 4.4287028 5 5 5 z M 14.03125 6 C 13.866981 5.985092 13.711614 6.0732334 13.626953 6.21875 L 10.001953 12.439453 L 7.6894531 10.689453 C 7.4819531 10.582453 7.2091031 10.64875 7.0957031 10.84375 L 6.0644531 12.09375 C 5.9510531 12.28875 6.0132031 12.55025 6.2207031 12.65625 C 6.2207031 12.65625 10.465503 15.96635 10.470703 15.96875 C 10.519333 15.9937 10.575253 15.9939 10.626953 16 C 10.795953 16.02 10.9775 15.93025 11.0625 15.78125 L 15.9375 7.40625 C 16.05088 7.21146 15.98875 6.95019 15.78125 6.84375 L 14.21875 6.0625 C 14.167366 6.0361395 14.088321 6.0056794 14.033203 6 L 14.03125 6 z"/>
</svg>
