<svg xmlns="http://www.w3.org/2000/svg" id="svg2" width="22" height="22" version="1.1">
 <defs id="defs10">
  <style id="current-color-scheme" type="text/css">
   .ColorScheme-Text { color:#eff0f1; } .ColorScheme-Highlight { color:#3daee9; }
  </style>
 </defs>
 <g id="g4" transform="translate(0 -1030.4)">
  <path id="path6" opacity="1000000" style="fill:currentColor" class="ColorScheme-Text" transform="translate(0 1030.4)" d="m11 3a7 8 0 0 0 -7 8 7 8 0 0 0 7 8 7 8 0 0 0 3.795 -1.285l-1.281-1.537a5 6 0 0 1 -2.514 0.822 5 6 0 0 1 -5 -6 5 6 0 0 1 5 -6 5 6 0 0 1 4.238 2.8242l2.742 2.7418a7 8 0 0 0 -6.98 -7.566zm3 5l2 4.5-3 1.5 5 6-2-5 3-2-5-5z"/>
 </g>
</svg>
