<?xml version="1.0" encoding="UTF-8" standalone="no"?>
<svg
   xmlns:dc="http://purl.org/dc/elements/1.1/"
   xmlns:cc="http://creativecommons.org/ns#"
   xmlns:rdf="http://www.w3.org/1999/02/22-rdf-syntax-ns#"
   xmlns:svg="http://www.w3.org/2000/svg"
   xmlns="http://www.w3.org/2000/svg"
   xmlns:sodipodi="http://sodipodi.sourceforge.net/DTD/sodipodi-0.dtd"
   xmlns:inkscape="http://www.inkscape.org/namespaces/inkscape"
   width="16"
   height="16"
   version="1.1"
   id="svg6"
   sodipodi:docname="help-faq-symbolic.svg"
   inkscape:version="0.92.3 (2405546, 2018-03-11)">
  <metadata
     id="metadata12">
    <rdf:RDF>
      <cc:Work
         rdf:about="">
        <dc:format>image/svg+xml</dc:format>
        <dc:type
           rdf:resource="http://purl.org/dc/dcmitype/StillImage" />
      </cc:Work>
    </rdf:RDF>
  </metadata>
  <defs
     id="defs10" />
  <sodipodi:namedview
     pagecolor="#ffffff"
     bordercolor="#666666"
     borderopacity="1"
     objecttolerance="10"
     gridtolerance="10"
     guidetolerance="10"
     inkscape:pageopacity="0"
     inkscape:pageshadow="2"
     inkscape:window-width="1920"
     inkscape:window-height="1026"
     id="namedview8"
     showgrid="true"
     inkscape:zoom="63.24"
     inkscape:cx="6.4523516"
     inkscape:cy="7.7288136"
     inkscape:window-x="0"
     inkscape:window-y="30"
     inkscape:window-maximized="1"
     inkscape:current-layer="svg6">
    <inkscape:grid
       type="xygrid"
       id="grid834" />
  </sodipodi:namedview>
  <path
     style="fill:#232627;fill-opacity:1;stroke:none"
     d="m 0,1 v 10 l 3,4 V 12 11 H 16 V 1 Z m 1,1 h 14 v 8 H 1 Z m 7.0878906,0.9003906 c -0.6565988,0 -1.27758,0.15688 -1.8632812,0.4726563 L 6.515625,4.0449219 C 6.80847,3.901102 7.0723706,3.7969025 7.3066406,3.734375 c 0.2373638,-0.062524 0.479955,-0.09375 0.7265625,-0.09375 0.3699154,0 0.6523182,0.08235 0.8496094,0.2480469 0.197288,0.1657013 0.296875,0.4033693 0.296875,0.7128906 0,0.1657012 -0.0213,0.3124375 -0.064453,0.4375 -0.043159,0.1250549 -0.1178475,0.2499412 -0.2226563,0.375 C 8.7877733,5.5391213 8.5684223,5.745563 8.2324219,6.0332031 7.8198923,6.4094518 7.4030947,6.6415298 7.3496094,6.9757109 h 0.75 l -0.00195,-0.011719 c 0,0 1.0846687,-0.6729757 1.5039063,-1.2589141 0.12639,-0.15945 0.2196,-0.3276481 0.28125,-0.5058593 0.0617,-0.1782114 0.091797,-0.3838744 0.091797,-0.6152344 0,-0.5315026 -0.1678993,-0.9443975 -0.5039063,-1.2382813 C 9.1346973,3.0486886 8.6735878,2.9003906 8.0878906,2.9003906 Z M 7.3496094,8 7.3654222,9 8,9 V 8 Z"
     id="path4"
     inkscape:connector-curvature="0"
     sodipodi:nodetypes="cccccccccccccscccscsccccccccscsccccc" />
</svg>
