<?xml version="1.0" encoding="UTF-8" standalone="no"?>
<svg
   viewBox="0 0 16 16"
   version="1.1"
   id="svg5"
   sodipodi:docname="folder-cloud.svg"
   inkscape:version="1.1.1 (3bf5ae0d25, 2021-09-20, custom)"
   xmlns:inkscape="http://www.inkscape.org/namespaces/inkscape"
   xmlns:sodipodi="http://sodipodi.sourceforge.net/DTD/sodipodi-0.dtd"
   xmlns:xlink="http://www.w3.org/1999/xlink"
   xmlns="http://www.w3.org/2000/svg"
   xmlns:svg="http://www.w3.org/2000/svg">
  <sodipodi:namedview
     id="namedview7"
     pagecolor="#ffffff"
     bordercolor="#666666"
     borderopacity="1.0"
     inkscape:pageshadow="2"
     inkscape:pageopacity="0.0"
     inkscape:pagecheckerboard="0"
     showgrid="false"
     inkscape:zoom="5.8671875"
     inkscape:cx="-19.770972"
     inkscape:cy="-31.95739"
     inkscape:window-width="1920"
     inkscape:window-height="1019"
     inkscape:window-x="0"
     inkscape:window-y="31"
     inkscape:window-maximized="1"
     inkscape:current-layer="svg5" />
  <defs
     id="defs3051">
    <linearGradient
       inkscape:collect="always"
       id="linearGradient3536">
      <stop
         style="stop-color:#000000;stop-opacity:1"
         offset="0"
         id="stop3532" />
      <stop
         style="stop-color:#cccccc;stop-opacity:0;"
         offset="1"
         id="stop3534" />
    </linearGradient>
    <linearGradient
       inkscape:collect="always"
       id="linearGradient1296">
      <stop
         style="stop-color:#cccccc;stop-opacity:1;"
         offset="0"
         id="stop1292" />
      <stop
         style="stop-color:#f9f9f9;stop-opacity:1"
         offset="1"
         id="stop1294" />
    </linearGradient>
    <style
       type="text/css"
       id="current-color-scheme">
      .ColorScheme-Text {
        color:#232629;
      }
      </style>
    <linearGradient
       inkscape:collect="always"
       xlink:href="#linearGradient1296"
       id="linearGradient1298"
       x1="15"
       y1="13.5"
       x2="1"
       y2="1.5"
       gradientUnits="userSpaceOnUse" />
    <linearGradient
       inkscape:collect="always"
       xlink:href="#linearGradient3536"
       id="linearGradient3538"
       x1="4.0329638"
       y1="9.9489717"
       x2="6.8820963"
       y2="7.6090674"
       gradientUnits="userSpaceOnUse" />
  </defs>
  <path
     id="path846"
     style="opacity:1;fill:url(#linearGradient1298);stroke-width:1.02668;fill-opacity:1"
     d="M 7.5,2 C 5.0147186,2 3,4.0147186 3,6.5 3.000047,6.7209524 3.0163671,6.9416013 3.0488281,7.1601562 1.826949,7.5686346 1.0023091,8.7116531 1,10 c 0,1.656854 1.3431458,3 3,3 h 7.5 C 13.432997,13 15,11.432997 15,9.5 14.999563,7.7507424 13.707709,6.2704069 11.974609,6.0332031 11.735595,3.7414982 9.8041351,2.0005707 7.5,2 Z"
     sodipodi:nodetypes="ccccccccc" />
  <path
     id="path846-6"
     style="opacity:0.2;fill:url(#linearGradient3538);fill-opacity:1;stroke-width:1.02668"
     d="M 7.5,2 C 5.0147191,2 3,4.0147189 3,6.5 3.0000466,6.7190164 3.0169321,6.9376222 3.0488281,7.1542969 3.3477452,7.0544279 3.6674935,7 4,7 c 1.6568542,0 3,1.3431458 3,3 -5.995e-4,1.579102 -0.5196541,3.004958 -1,3 h 5.5 C 13.432997,13 15,11.432997 15,9.5 14.999563,7.750743 13.707709,6.2704071 11.974609,6.0332031 11.735595,3.7414986 9.804136,2.0005707 7.5,2 Z"
     sodipodi:nodetypes="cccsccsccc" />
  <path
     id="path846-7"
     style="fill:#000000;fill-opacity:1;stroke-width:1.02668;opacity:0.2"
     d="M 3.0273438 5.9746094 C 3.0195731 6.0412346 3.014593 6.1083 3.0097656 6.1757812 C 3.0230285 6.1711407 3.0354697 6.164622 3.0488281 6.1601562 C 3.0397011 6.0987051 3.0339158 6.0363518 3.0273438 5.9746094 z M 14.958984 9.0253906 C 14.705501 10.709125 13.254416 12 11.5 12 L 4 12 C 2.5096454 12 1.2764392 10.912571 1.0429688 9.4882812 C 1.0134804 9.6561513 0.99640683 9.8272711 0.99609375 10.001953 C 0.99609375 11.658807 2.3392396 13.001953 3.9960938 13.001953 L 11.496094 13.001953 C 13.429091 13.001953 14.996094 11.43495 14.996094 9.5019531 C 14.996053 9.3399481 14.980503 9.1820085 14.958984 9.0253906 z " />
</svg>
