<?xml version="1.0" encoding="UTF-8" standalone="no"?>
<!-- Created with Inkscape (http://www.inkscape.org/) -->

<svg
   xmlns:dc="http://purl.org/dc/elements/1.1/"
   xmlns:cc="http://creativecommons.org/ns#"
   xmlns:rdf="http://www.w3.org/1999/02/22-rdf-syntax-ns#"
   xmlns:svg="http://www.w3.org/2000/svg"
   xmlns="http://www.w3.org/2000/svg"
   xmlns:sodipodi="http://sodipodi.sourceforge.net/DTD/sodipodi-0.dtd"
   xmlns:inkscape="http://www.inkscape.org/namespaces/inkscape"
   id="svg7384"
   height="16"
   width="16"
   version="1.1"
   sodipodi:docname="audio-headphones-symbolic.svg"
   inkscape:version="0.92.1 r15371">
  <defs
     id="defs11" />
  <sodipodi:namedview
     pagecolor="#ffffff"
     bordercolor="#666666"
     borderopacity="1"
     objecttolerance="10"
     gridtolerance="10"
     guidetolerance="10"
     inkscape:pageopacity="0"
     inkscape:pageshadow="2"
     inkscape:window-width="1600"
     inkscape:window-height="808"
     id="namedview9"
     showgrid="false"
     inkscape:zoom="14.75"
     inkscape:cx="-5.8644068"
     inkscape:cy="8"
     inkscape:window-x="0"
     inkscape:window-y="0"
     inkscape:window-maximized="1"
     inkscape:current-layer="svg7384" />
  <metadata
     id="metadata90">
    <rdf:RDF>
      <cc:Work
         rdf:about="">
        <dc:format>image/svg+xml</dc:format>
        <dc:type
           rdf:resource="http://purl.org/dc/dcmitype/StillImage" />
        <dc:title>Gnome Symbolic Icon Theme</dc:title>
      </cc:Work>
    </rdf:RDF>
  </metadata>
  <title
     id="title9167">Gnome Symbolic Icon Theme</title>
  <path
     inkscape:connector-curvature="0"
     style="opacity:1;vector-effect:none;fill:#232627;fill-opacity:1;stroke:none;stroke-width:1.28455579;stroke-linecap:round;stroke-linejoin:round;stroke-miterlimit:4;stroke-dasharray:none;stroke-dashoffset:0;stroke-opacity:1"
     d="m 7.9999978,-5e-8 c -3.865993,0 -6.99999995,3.13400685 -6.99999995,6.99999995 0,0.423331 0.0451001,0.8355 0.11718795,1.2382811 C 0.42879685,8.9567639 -2.15e-6,9.926393 -2.15e-6,11 c 0,2.209139 1.79086095,4 3.99999995,4 V 6.9999999 c -0.721409,0 -1.388255,0.206862 -1.972656,0.541016 -0.01599,-0.178535 -0.02734,-0.358372 -0.02734,-0.541016 0,-3.3137084 2.686292,-6 6,-6 3.3137082,0 6.0000002,2.6862916 6.0000002,6 0,0.180506 -0.0312,0.352771 -0.04687,0.529297 -0.579876,-0.327196 -1.239845,-0.529297 -1.95313,-0.529297 V 15 c 2.209139,0 4,-1.790861 4,-4 0,-1.069648 -0.425477,-2.0361911 -1.109375,-2.7539061 0.07252,-0.404371 0.109375,-0.821041 0.109375,-1.246094 C 15.000002,3.1340068 11.865995,-5.0000001e-8 8.0000018,-5.0000001e-8 Z"
     id="path4485" />
</svg>
