<?xml version="1.0" encoding="UTF-8" standalone="no"?>
<!-- Created with Inkscape (http://www.inkscape.org/) -->

<svg
   width="64"
   version="1.1"
   height="64"
   viewBox="0 0 64 64"
   id="svg2"
   inkscape:version="1.1 (c4e8f9ed74, 2021-05-24)"
   sodipodi:docname="folder.svg"
   xmlns:inkscape="http://www.inkscape.org/namespaces/inkscape"
   xmlns:sodipodi="http://sodipodi.sourceforge.net/DTD/sodipodi-0.dtd"
   xmlns:xlink="http://www.w3.org/1999/xlink"
   xmlns="http://www.w3.org/2000/svg"
   xmlns:svg="http://www.w3.org/2000/svg"
   xmlns:rdf="http://www.w3.org/1999/02/22-rdf-syntax-ns#"
   xmlns:cc="http://creativecommons.org/ns#"
   xmlns:dc="http://purl.org/dc/elements/1.1/">
  <sodipodi:namedview
     pagecolor="#ffffff"
     bordercolor="#666666"
     borderopacity="1"
     objecttolerance="10"
     gridtolerance="10"
     guidetolerance="10"
     inkscape:pageopacity="0"
     inkscape:pageshadow="2"
     inkscape:window-width="1920"
     inkscape:window-height="1018"
     id="namedview17"
     showgrid="true"
     inkscape:zoom="3.2109375"
     inkscape:cx="124.26277"
     inkscape:cy="98.725061"
     inkscape:window-x="0"
     inkscape:window-y="32"
     inkscape:window-maximized="1"
     inkscape:current-layer="layer1"
     inkscape:pagecheckerboard="0">
    <inkscape:grid
       type="xygrid"
       id="grid830" />
  </sodipodi:namedview>
  <defs
     id="defs5455">
    <linearGradient
       inkscape:collect="always"
       id="linearGradient1288">
      <stop
         style="stop-color:#46a2d7;stop-opacity:0.5"
         offset="0"
         id="stop1284" />
      <stop
         style="stop-color:#46a2d7;stop-opacity:0"
         offset="0.2586205"
         id="stop1676" />
      <stop
         style="stop-color:#46a2d7;stop-opacity:0;"
         offset="0.74220163"
         id="stop2382" />
      <stop
         style="stop-color:#46a2d7;stop-opacity:0.5"
         offset="1"
         id="stop1286" />
    </linearGradient>
    <linearGradient
       id="linearGradient4172-7">
      <stop
         style="stop-color:#4183d7"
         id="stop4174-9" />
      <stop
         offset="1"
         style="stop-color:#5b94df"
         id="stop4176-4" />
    </linearGradient>
    <linearGradient
       inkscape:collect="always"
       id="linearGradient4172-5">
      <stop
         style="stop-color:#83d4fb"
         id="stop4174-6" />
      <stop
         offset="1"
         style="stop-color:#60c0f0"
         id="stop4176-6" />
    </linearGradient>
    <linearGradient
       inkscape:collect="always"
       xlink:href="#linearGradient4172-5"
       id="linearGradient840"
       gradientUnits="userSpaceOnUse"
       x1="429.57144"
       y1="541.79797"
       x2="429.57144"
       y2="496.798"
       gradientTransform="translate(-5e-6,-5e-5)" />
    <linearGradient
       inkscape:collect="always"
       xlink:href="#linearGradient1288"
       id="linearGradient1290"
       x1="387.57144"
       y1="518.798"
       x2="445.57144"
       y2="518.798"
       gradientUnits="userSpaceOnUse" />
  </defs>
  <metadata
     id="metadata5458">
    <rdf:RDF>
      <cc:Work
         rdf:about="">
        <dc:format>image/svg+xml</dc:format>
        <dc:type
           rdf:resource="http://purl.org/dc/dcmitype/StillImage" />
      </cc:Work>
    </rdf:RDF>
  </metadata>
  <g
     inkscape:label="Capa 1"
     inkscape:groupmode="layer"
     id="layer1"
     transform="translate(-384.57143,-483.798)">
    <path
       d="m 387.57143,503.79807 v 1 h 20 l 3,-5 -4,4 z"
       id="path4224"
       style="fill:#ffffff;fill-opacity:0.235294;fill-rule:evenodd"
       inkscape:connector-curvature="0" />
    <path
       sodipodi:nodetypes="ccccccc"
       inkscape:connector-curvature="0"
       id="rect4160"
       d="m 387.57143,489.79795 h 24 l 5,6 h 29 v 38 h -58 z"
       style="fill:#46a2d7;fill-opacity:1;fill-rule:evenodd;stroke:none;stroke-width:1px;stroke-linecap:butt;stroke-linejoin:miter;stroke-opacity:1" />
    <path
       sodipodi:nodetypes="cccccccc"
       inkscape:connector-curvature="0"
       style="fill:#ffffff;fill-opacity:0.235294;fill-rule:evenodd"
       id="path4166"
       d="m 411.57143,489.79795 5,7 h 2 27 v -1 h -27 -2 z" />
    <path
       sodipodi:nodetypes="ccccccc"
       inkscape:connector-curvature="0"
       id="rect3347"
       d="m 387.57143,502.79795 h 24 l 5,-6 h 29 v 45 h -58 z"
       style="fill:url(#linearGradient840);fill-opacity:1;fill-rule:evenodd;stroke:none;stroke-width:1px;stroke-linecap:butt;stroke-linejoin:miter;stroke-opacity:1" />
    <path
       d="m 416.57143,496.79795 -4,7 h -4 -21 v -1 h 21 3 z"
       id="path4168"
       style="fill:#ffffff;fill-opacity:0.235294;fill-rule:evenodd"
       inkscape:connector-curvature="0"
       sodipodi:nodetypes="cccccccc" />
    <path
       sodipodi:nodetypes="cccccc"
       d="m 387.57143,501.79795 v 1 h 24 l 5,-6 -6,5 z"
       id="path4228"
       style="fill:#000000;fill-opacity:0.235294;fill-rule:evenodd"
       inkscape:connector-curvature="0" />
    <path
       d="m 387.57143,540.79805 v 1 h 1 56 1 v -1 h -1 -56 z"
       id="path4151-2"
       style="fill-opacity:0.235294"
       inkscape:connector-curvature="0" />
    <path
       id="rect867"
       style="fill:url(#linearGradient1290);stroke-width:20;fill-opacity:1"
       d="m 387.57144,503.798 h 24.99999 l 4,-7 h 29 l 10e-6,44 h -58 z"
       sodipodi:nodetypes="ccccccc" />
    <path
       style="fill:#46a2d7;stroke-width:2"
       id="path3023"
       d="m 416.57143,510.798 c -2.77,0 -5,2.23 -5,5 l 0,5 -3,0 0,1 0,8.99997 1.75,3e-5 12.50001,0 1.74999,-3e-5 0,-9.99997 -1.74999,0 -1.25001,0 0,-5 c 0,-2.77 -2.23,-5 -5,-5 z m 0,1 c 2.0775,0 4,1.57625 4,4 l 0,5 -8,0 0,-5 c 0,-2.42375 1.92251,-4 4,-4 z m -7,10 14,0 0,8 -14,0 z"/>
  </g>
</svg>
