<svg xmlns="http://www.w3.org/2000/svg" id="svg2" width="22" height="22" version="1.1">
 <defs id="defs10">
  <style id="current-color-scheme" type="text/css">
   .ColorScheme-Text { color:#eff0f1; } .ColorScheme-Highlight { color:#3daee9; }
  </style>
 </defs>
 <path id="rect4491" style="opacity:1;vector-effect:none;fill:#eff0f1;fill-opacity:1;stroke:none;stroke-width:2.13129282;stroke-linecap:round;stroke-linejoin:round;stroke-miterlimit:4;stroke-dasharray:none;stroke-dashoffset:0;stroke-opacity:1" d="M 11 3 A 8 8 0 0 0 3 11 A 8 8 0 0 0 11 19 A 8 8 0 0 0 19 11 A 8 8 0 0 0 11 3 z M 10.876953 4 C 11.325393 3.99116 11.773784 4.0257156 12.214844 4.1035156 C 13.748644 4.3740156 15.181013 5.1629969 16.257812 6.4042969 L 10.234375 13.296875 L 7.984375 11.046875 C 7.608075 10.670495 6.923235 10.670525 6.546875 11.046875 C 6.170515 11.423275 6.170485 12.108045 6.546875 12.484375 L 9.546875 15.484375 L 10.328125 16.234375 L 11.015625 15.421875 L 17.367188 8.1640625 C 17.609527 8.7052625 17.796331 9.2644344 17.894531 9.8652344 C 18.315931 12.436534 17.281306 15.12415 15.003906 16.71875 C 11.837106 18.93625 7.4966969 18.170706 5.2792969 15.003906 C 3.0617969 11.837006 3.8273406 7.4947436 6.9941406 5.2773438 C 8.1817406 4.4457737 9.5316532 4.0265 10.876953 4 z"/>
 <g id="g4" transform="translate(-81 -887.36)">
  <path id="path4486" style="fill:none" class="ColorScheme-Text" d="m91.877 891.36c-1.3453 0.0265-2.6952 0.44583-3.8828 1.2774-3.1668 2.2174-3.9323 6.5597-1.7148 9.7266 2.2174 3.1668 6.5578 3.9323 9.7246 1.7148 2.2774-1.5946 3.312-4.2822 2.8906-6.8535-0.0982-0.6008-0.285-1.16-0.52734-1.7012l-6.3516 7.2578-0.6875 0.8125-0.78124-0.75-3-3c-0.37639-0.37633-0.37636-1.0611 0-1.4375 0.37636-0.37635 1.0612-0.37638 1.4375 0l2.25 2.25 6.0234-6.8926c-1.0768-1.2413-2.5092-2.0303-4.043-2.3008-0.44106-0.0778-0.88946-0.11236-1.3379-0.10352z"/>
 </g>
</svg>
