<svg xmlns="http://www.w3.org/2000/svg" width="22" height="22" version="1.1">
 <defs>
  <style id="current-color-scheme" type="text/css">
   .ColorScheme-Text { color:#eff0f1; } .ColorScheme-Highlight { color:#3daee9; }
  </style>
 </defs>
 <path style="fill:currentColor" class="ColorScheme-Text" d="M 17.928203,6.9999996 C 15.719179,3.1738571 10.826143,1.8627718 7.0000002,4.0717965 3.1738579,6.2808206 1.8627729,11.173856 4.0717964,15.000001 c 2.2090251,3.826142 7.1020596,5.137227 10.9282046,2.928202 3.826142,-2.209024 5.137228,-7.102059 2.928202,-10.9282034 z m -0.866025,0.5000002 c 1.469465,2.5451882 1.16556,5.6084742 -0.52833,7.7880322 l -0.998793,-0.808086 c 1.283727,-1.796567 1.380098,-4.234601 0.228084,-6.2299463 -1.179512,-2.0429762 -3.45832,-3.1980353 -5.702963,-2.8778231 l 0.294256,1.8846663 c 1.499417,-0.2109659 3.025465,0.5527589 3.811973,1.9150317 0.757509,1.3120434 0.718074,2.8737104 -0.105929,4.0665264 l -1.073637,-0.859595 0.05952,3.790583 3.470388,-0.860206 c -0.538315,0.68712 -1.212215,1.288497 -2.016742,1.752994 C 11.141957,19.000944 6.8765897,17.858042 4.937822,14.5 2.9990562,11.141957 4.141958,6.8765884 7.5000001,4.9378219 10.858043,2.9990551 15.123412,4.1419579 17.062178,7.4999998 Z M 8.9275591,5.8479266 5.5047232,6.6694012 6.4929843,7.5061197 C 5.2035899,9.2828656 5.0918242,11.766739 6.2378364,13.751692 7.4203495,15.799865 9.6539613,16.937139 11.913737,16.64514 L 11.618505,14.758781 C 10.111454,14.954525 8.6225802,14.194688 7.8345709,12.829816 7.082063,11.526434 7.1438919,9.9310522 7.9675634,8.7476659 l 1.0726617,0.8579028 z"/>
</svg>
