<?xml version="1.0" encoding="UTF-8" standalone="no"?>
<svg
   xmlns:dc="http://purl.org/dc/elements/1.1/"
   xmlns:cc="http://creativecommons.org/ns#"
   xmlns:rdf="http://www.w3.org/1999/02/22-rdf-syntax-ns#"
   xmlns:svg="http://www.w3.org/2000/svg"
   xmlns="http://www.w3.org/2000/svg"
   xmlns:sodipodi="http://sodipodi.sourceforge.net/DTD/sodipodi-0.dtd"
   xmlns:inkscape="http://www.inkscape.org/namespaces/inkscape"
   width="22"
   height="22"
   version="1.1"
   id="svg9"
   sodipodi:docname="fcitx-kkc-panel.svg"
   inkscape:version="0.92.3 (2405546, 2018-03-11)">
  <metadata
     id="metadata13">
    <rdf:RDF>
      <cc:Work
         rdf:about="">
        <dc:format>image/svg+xml</dc:format>
        <dc:type
           rdf:resource="http://purl.org/dc/dcmitype/StillImage" />
      </cc:Work>
    </rdf:RDF>
  </metadata>
  <sodipodi:namedview
     pagecolor="#ffffff"
     bordercolor="#666666"
     borderopacity="1"
     objecttolerance="10"
     gridtolerance="10"
     guidetolerance="10"
     inkscape:pageopacity="0"
     inkscape:pageshadow="2"
     inkscape:window-width="1920"
     inkscape:window-height="1020"
     id="namedview11"
     showgrid="false"
     inkscape:zoom="20.02"
     inkscape:cx="11"
     inkscape:cy="11"
     inkscape:window-x="0"
     inkscape:window-y="30"
     inkscape:window-maximized="1"
     inkscape:current-layer="svg9" />
  <defs
     id="defs3">
    <style
       id="current-color-scheme"
       type="text/css">
   .ColorScheme-Text { color:#eff0f1; } .ColorScheme-Highlight { color:#3daee9; }
  </style>
  </defs>
  <path
     style="color:#eff0f1;fill:currentColor"
     d="M 5 3 C 3.892 3 3 3.892 3 5 L 3 17 C 3 18.108 3.892 19 5 19 L 17 19 C 18.108 19 19 18.108 19 17 L 19 5 C 19 3.892 18.108 3 17 3 L 5 3 z M 5 4 L 17 4 C 17.571297 4 18 4.4287028 18 5 L 18 17 C 18 17.571297 17.571297 18 17 18 L 5 18 C 4.4287028 18 4 17.571297 4 17 L 4 5 C 4 4.4287028 4.4287028 4 5 4 z M 5 7 L 5 15 L 6 15 L 6 12.707031 L 8.2929688 15 L 10 15 L 10 12.707031 L 12.292969 15 L 13.707031 15 L 10.707031 12 L 13.707031 9 L 12.292969 9 L 10 11.292969 L 10 7 L 9 7 L 9 9 L 8.2929688 9 L 6 11.292969 L 6 7 L 5 7 z M 15 9 C 14.417 9 13.889484 9.1535844 13.521484 9.5214844 C 13.154484 9.8892844 13 10.4167 13 11 L 13 13 C 13 13.583 13.154484 14.110516 13.521484 14.478516 C 13.889484 14.845516 14.417 15 15 15 C 15.583 15 16.110516 14.845516 16.478516 14.478516 C 16.845516 14.110516 17 13.583 17 13 L 16 13 C 16 13.417 15.904484 13.639484 15.771484 13.771484 C 15.639484 13.904484 15.417 14 15 14 C 14.583 14 14.360516 13.904484 14.228516 13.771484 C 14.095516 13.639484 14 13.417 14 13 L 14 11 C 14 10.5833 14.095516 10.360716 14.228516 10.228516 C 14.360516 10.096416 14.583 10 15 10 C 15.417 10 15.639484 10.096416 15.771484 10.228516 C 15.904484 10.360716 16 10.5833 16 11 L 17 11 C 17 10.4167 16.845516 9.8892844 16.478516 9.5214844 C 16.110516 9.1535844 15.583 9 15 9 z M 9 9.7070312 L 9 14.292969 L 6.7070312 12 L 9 9.7070312 z "
     id="path827" />
</svg>
