<svg xmlns="http://www.w3.org/2000/svg" id="svg6391" width="22" height="22" version="1.1">
 <defs id="defs6393">
  <marker id="marker7225" style="overflow:visible" orient="auto" refX="0" refY="0">
   <path id="path7227" style="fill:#eff0f1;fill-opacity:1;fill-rule:evenodd;stroke:#eff0f1;stroke-width:1pt;stroke-opacity:1" transform="scale(-0.2,-0.2)" d="m 5.77,0 -8.65,5 0,-10 8.65,5 z"/>
  </marker>
  <marker id="TriangleInM" style="overflow:visible" orient="auto" refX="0" refY="0">
   <path id="path5391" style="fill:#eff0f1;fill-opacity:1;fill-rule:evenodd;stroke:#eff0f1;stroke-width:1pt;stroke-opacity:1" transform="scale(-0.4,-0.4)" d="m 5.77,0 -8.65,5 0,-10 8.65,5 z"/>
  </marker>
 </defs>
 <g id="layer1" transform="translate(0,-1030.3622)">
  <g id="g7305">
   <path id="path6941" style="color:#000000;font-style:normal;font-variant:normal;font-weight:normal;font-stretch:normal;font-size:medium;line-height:normal;font-family:sans-serif;text-indent:0;text-align:start;text-decoration:none;text-decoration-line:none;text-decoration-style:solid;text-decoration-color:#000000;letter-spacing:normal;word-spacing:normal;text-transform:none;direction:ltr;block-progression:tb;writing-mode:lr-tb;baseline-shift:baseline;text-anchor:start;white-space:normal;clip-rule:nonzero;display:inline;overflow:visible;visibility:visible;opacity:1;isolation:auto;mix-blend-mode:normal;color-interpolation:sRGB;color-interpolation-filters:linearRGB;solid-color:#000000;solid-opacity:1;fill:#eff0f1;fill-opacity:1;fill-rule:nonzero;stroke:none;stroke-width:1.00000012;stroke-linecap:butt;stroke-linejoin:bevel;stroke-miterlimit:4;stroke-dasharray:none;stroke-dashoffset:0;stroke-opacity:1;color-rendering:auto;image-rendering:auto;shape-rendering:auto;text-rendering:auto;enable-background:accumulate" transform="translate(0,1030.3622)" d="M 16.494141 5.5195312 L 16.195312 8 L 17.0625 7.5 C 17.959107 9.052969 18.193685 10.823632 17.839844 12.470703 C 18.160446 12.639467 18.458135 12.8441 18.720703 13.089844 C 19.259064 11.093388 19.024658 8.8999501 17.927734 7 L 18.792969 6.5 L 16.494141 5.5195312 z M 6.3847656 16.265625 L 5.7265625 17.017578 C 7.7928747 18.828768 10.571366 19.397714 13.089844 18.71875 C 12.844491 18.456567 12.641272 18.159893 12.472656 17.839844 C 10.366502 18.293393 8.0999851 17.769043 6.3847656 16.265625 z"/>
   <path id="path7314" style="color:#000000;font-style:normal;font-variant:normal;font-weight:normal;font-stretch:normal;font-size:medium;line-height:normal;font-family:sans-serif;text-indent:0;text-align:start;text-decoration:none;text-decoration-line:none;text-decoration-style:solid;text-decoration-color:#000000;letter-spacing:normal;word-spacing:normal;text-transform:none;direction:ltr;block-progression:tb;writing-mode:lr-tb;baseline-shift:baseline;text-anchor:start;white-space:normal;clip-rule:nonzero;display:inline;overflow:visible;visibility:visible;opacity:1;isolation:auto;mix-blend-mode:normal;color-interpolation:sRGB;color-interpolation-filters:linearRGB;solid-color:#000000;solid-opacity:1;fill:#eff0f1;fill-opacity:1;fill-rule:nonzero;stroke:none;stroke-width:1.00000012;stroke-linecap:butt;stroke-linejoin:bevel;stroke-miterlimit:4;stroke-dasharray:none;stroke-dashoffset:0;stroke-opacity:1;color-rendering:auto;image-rendering:auto;shape-rendering:auto;text-rendering:auto;enable-background:accumulate" d="m 5.5041795,1046.8452 0.2990381,-2.4821 -0.8660254,0.5 c -1.7145,-2.9696 -1.0291263,-6.7349 1.6212672,-8.9106 2.6503938,-2.1757 6.4770946,-2.1143 9.0557116,0.1459 l 0.657565,-0.7517 c -2.941476,-2.5783 -7.3261727,-2.6499 -10.3495093,-0.1681 -3.0232846,2.4819 -3.8068099,6.797 -1.8510599,10.1845 l -0.8660254,0.5 2.2990381,0.9821 z"/>
   <circle id="path7376" style="opacity:1;fill:#1d99f3;fill-opacity:1;stroke:none;stroke-width:1;stroke-linecap:butt;stroke-linejoin:bevel;stroke-miterlimit:4;stroke-dasharray:none;stroke-dashoffset:0;stroke-opacity:1" cx="16" cy="1046.362" r="3"/>
   <path id="path4154" style="fill:#eff0f1;fill-rule:evenodd;stroke:none;stroke-width:1px;stroke-linecap:butt;stroke-linejoin:miter;stroke-opacity:1" d="m 11,1036.3622 -4,4 2.0000001,0 0,5 3.1445309,0 c 0.158764,-0.6055 0.454532,-1.1517 0.855469,-1.6113 l 0,-3.3887 2.000001,0 -4.000001,-4 z"/>
  </g>
 </g>
</svg>
