<svg xmlns="http://www.w3.org/2000/svg" id="svg2" width="22" height="22" version="1.1">
 <defs id="defs4">
  <style id="current-color-scheme" type="text/css">
   .ColorScheme-Text { color:#eff0f1; } .ColorScheme-Highlight { color:#3daee9; }
  </style>
 </defs>
 <path id="path4487" style="fill:#eff0f1;fill-opacity:1" d="M 11 3 C 10.8074 3 10.616934 3.0101785 10.427734 3.0234375 C 10.404034 3.0251875 10.381222 3.0253737 10.357422 3.0273438 C 7.499622 3.2528636 5.0782689 4.9701438 3.8554688 7.4023438 C 3.7763528 7.5597936 3.6957832 7.7176094 3.6269531 7.8808594 C 3.2524431 8.7265594 3.0486587 9.6229003 3.0117188 10.5625 C 3.0100988 10.59285 3.0091025 10.623847 3.0078125 10.654297 C 3.0053425 10.744057 3.0013531 10.833308 3.0019531 10.923828 C 3.001721 10.949218 3 10.97456 3 11 C 3 11.93022 3.1657181 12.819335 3.4550781 13.648438 C 3.5715281 14.020117 3.7053075 14.395121 3.8671875 14.775391 C 4.2704175 15.722701 4.3212625 15.980184 4.2578125 16.771484 C 4.2136035 17.322834 4.0637731 17.886225 3.8769531 18.203125 C 3.7075731 18.490505 3.5722656 18.787791 3.5722656 18.863281 C 3.5722656 19.096701 4.9195819 19.014594 6.1132812 18.708984 C 7.5116813 18.350964 7.63465 18.35112 8.78125 18.710938 C 9.30578 18.875538 9.9028248 18.963811 10.578125 18.988281 C 10.606375 18.989681 10.635733 18.991087 10.664062 18.992188 C 10.756463 18.995188 10.845906 19 10.941406 19 C 10.949206 19 10.955141 19.000057 10.962891 19 C 10.975201 19.000055 10.98767 19 11 19 C 11.22339 19 11.443449 18.988483 11.662109 18.970703 C 13.639909 18.830053 15.228503 18.099235 16.658203 16.671875 C 17.836203 15.495875 18.566969 14.044592 18.855469 12.525391 C 18.882049 12.386561 18.902525 12.244846 18.921875 12.103516 C 18.933575 12.016756 18.946258 11.93079 18.955078 11.84375 C 18.974468 11.65708 18.985748 11.467694 18.992188 11.277344 C 18.993588 11.229374 18.995594 11.182754 18.996094 11.134766 C 18.996788 11.090076 19 11.044849 19 11 C 19 6.6419995 15.549603 3.1221594 11.220703 3.0058594 C 11.187103 3.0043594 11.152843 3.0044362 11.119141 3.0039062 C 11.079141 3.0033235 11.040101 3 11 3 z M 11 4 C 10.98507 4 11.02104 4.0026262 11.103516 4.0039062 C 11.149456 4.0046288 11.174021 4.0038276 11.175781 4.0039062 L 11.185547 4.0058594 L 11.193359 4.0058594 C 14.995021 4.1079945 18 7.1698252 18 11 C 18 10.9972 17.997394 11.03712 17.996094 11.119141 L 17.996094 11.121094 L 17.996094 11.125 C 17.995813 11.15195 17.993887 11.1912 17.992188 11.248047 C 17.986287 11.419894 17.977138 11.58429 17.960938 11.740234 L 17.960938 11.742188 C 17.955137 11.799288 17.944441 11.875812 17.931641 11.970703 C 17.913071 12.106265 17.893717 12.229886 17.873047 12.337891 C 17.620515 13.667691 16.984389 14.933381 15.951172 15.964844 C 14.662804 17.251103 13.362906 17.846705 11.591797 17.972656 L 11.585938 17.972656 L 11.582031 17.974609 C 11.382634 17.990691 11.189011 18 11 18 C 10.9847 18 10.973107 18.000028 10.966797 18 L 10.960938 18 L 10.955078 18 C 10.955982 17.999993 10.954076 18 10.941406 18 C 10.880896 18 10.805281 17.995587 10.703125 17.992188 L 10.697266 17.992188 C 10.676216 17.991339 10.651833 17.991514 10.626953 17.990234 L 10.621094 17.988281 L 10.615234 17.988281 C 10.005591 17.966191 9.4952248 17.888087 9.0800781 17.757812 C 7.9140923 17.391913 7.2773679 17.3787 5.8652344 17.740234 C 5.5542041 17.819864 5.2710879 17.842675 4.9667969 17.886719 C 5.0657959 17.545121 5.2236988 17.228295 5.2539062 16.851562 C 5.3221393 16.000608 5.2040492 15.362333 4.7871094 14.382812 C 4.6402619 14.037856 4.5186525 13.695902 4.4101562 13.349609 L 4.4042969 13.333984 L 4.3984375 13.318359 C 4.1434236 12.587201 4 11.811454 4 11 C 4 11.01958 4.0013631 10.998004 4.0019531 10.933594 L 4.0019531 10.925781 L 4.0019531 10.917969 C 4.0016016 10.864939 4.0051925 10.788815 4.0078125 10.697266 L 4.0078125 10.681641 C 4.0089125 10.654511 4.0090756 10.628214 4.0097656 10.615234 L 4.0097656 10.609375 L 4.0117188 10.601562 C 4.0439768 9.7812885 4.2180501 9.0144611 4.5410156 8.2851562 L 4.5449219 8.2773438 L 4.5488281 8.2695312 C 4.5987496 8.1511056 4.6670028 8.0128495 4.7480469 7.8515625 C 5.8177293 5.7239198 7.9304787 4.2211221 10.435547 4.0234375 L 10.4375 4.0234375 L 10.439453 4.0234375 C 10.417623 4.0252475 10.442157 4.0254844 10.498047 4.0214844 C 10.67607 4.0089992 10.84263 4 11 4 z M 8.5 7 C 7.6715729 7 7 7.6715729 7 8.5 L 7 9.0175781 C 7.0036 9.7807252 7.2356082 10.394379 7.9082031 11.414062 C 9.0628432 13.164533 10.189553 14.114971 11.8125 14.707031 C 12.297744 14.884051 12.643139 14.993508 12.939453 15 L 13.5 15 C 14.328427 15 15 14.328427 15 13.5 C 15 12.671573 14.328427 12 13.5 12 C 13 12 12 12 12 13 C 11.031563 12.945724 9 11 9 10 C 9.9999998 10 10 9 10 8.5 C 10 7.6715729 9.3284269 7 8.5 7 z"/>
</svg>
