<?xml version="1.0" encoding="UTF-8" standalone="no"?>
<!-- Created with Inkscape (http://www.inkscape.org/) -->

<svg
   width="22"
   height="22"
   viewBox="0 0 5.8208332 5.8208335"
   version="1.1"
   id="svg2123"
   inkscape:version="1.1.1 (3bf5ae0d25, 2021-09-20, custom)"
   sodipodi:docname="weather-freezing-rain.svg"
   xmlns:inkscape="http://www.inkscape.org/namespaces/inkscape"
   xmlns:sodipodi="http://sodipodi.sourceforge.net/DTD/sodipodi-0.dtd"
   xmlns:xlink="http://www.w3.org/1999/xlink"
   xmlns="http://www.w3.org/2000/svg"
   xmlns:svg="http://www.w3.org/2000/svg">
  <sodipodi:namedview
     id="namedview2125"
     pagecolor="#ffffff"
     bordercolor="#666666"
     borderopacity="1.0"
     inkscape:pageshadow="2"
     inkscape:pageopacity="0.0"
     inkscape:pagecheckerboard="0"
     inkscape:document-units="px"
     showgrid="false"
     units="px"
     inkscape:zoom="19.74415"
     inkscape:cx="9.6484277"
     inkscape:cy="18.309221"
     inkscape:window-width="1920"
     inkscape:window-height="999"
     inkscape:window-x="0"
     inkscape:window-y="0"
     inkscape:window-maximized="1"
     inkscape:current-layer="svg2123" />
  <defs
     id="defs2120">
    <linearGradient
       inkscape:collect="always"
       id="linearGradient2887">
      <stop
         style="stop-color:#eff1f1;stop-opacity:1;"
         offset="0"
         id="stop2883" />
      <stop
         style="stop-color:#b0b8b8;stop-opacity:1"
         offset="1"
         id="stop2885" />
    </linearGradient>
    <linearGradient
       inkscape:collect="always"
       xlink:href="#linearGradient2887"
       id="linearGradient2889"
       x1="2.778125"
       y1="1.0583333"
       x2="2.793014"
       y2="4.4970551"
       gradientUnits="userSpaceOnUse"
       gradientTransform="translate(0,-0.52916663)" />
  </defs>
  <path
     id="path2228"
     style="fill:url(#linearGradient2889);fill-opacity:1;stroke-width:0.121268;stroke-linejoin:round"
     d="m 2.778125,0.52916667 c -0.8036894,0 -1.4552084,0.65151903 -1.4552083,1.45520843 2.98e-4,0.047123 0.00288,0.094204 0.00775,0.1410766 -0.45895972,0.06229 -0.80131523,0.4540893 -0.80150144,0.9172567 0,0.5114388 0.41460298,0.9260416 0.92604164,0.9260416 h 2.778125 c 0.5845013,0 1.0583333,-0.4738319 1.0583333,-1.0583333 0,-0.5845013 -0.473832,-1.0583333 -1.0583333,-1.0583333 -0.00206,-6.1e-6 -0.00414,-6.1e-6 -0.0062,0 C 4.1587353,1.1028369 3.5304867,0.52925747 2.778125,0.52916667 Z"
     sodipodi:nodetypes="ccccccsccc" />
  <path
     id="path3407"
     style="opacity:0.2;fill:#000000;fill-opacity:1;stroke-width:0.154341;stroke-linejoin:round"
     d="m 1.3296346,1.8469157 c -4.531e-4,0.00484 -0.00114,0.00962 -0.00155,0.014469 8.763e-4,-1.215e-4 0.00171,-3.977e-4 0.00258,-5.168e-4 -4.822e-4,-0.00465 -5.96e-4,-0.0093 -0.00103,-0.013952 z m 3.953247,0.9291424 C 5.2185355,3.2989433 4.7736172,3.7041666 4.2333333,3.7041666 h -2.778125 c -0.46744631,0 -0.85318158,-0.346779 -0.91622311,-0.7968506 -0.006524,0.044262 -0.0098,0.089476 -0.009819,0.1353923 0,0.5114388 0.41460298,0.9260417 0.92604161,0.9260417 h 2.778125 c 0.5845013,0 1.0583333,-0.473832 1.0583333,-1.0583333 0,-0.045566 -0.0032,-0.09031 -0.00879,-0.1343586 z" />
  <path
     d="m 2.8328829,5.214173 a 0.26458344,0.26458344 0 0 0 0,0.3741766 0.26458344,0.26458344 0 0 0 0.3741766,0 0.26458344,0.26458344 0 0 0 0,-0.3741766 L 3.0199712,5.0270834 Z"
     id="path16"
     style="fill:#3b85b5;stroke-width:0.132292" />
  <path
     d="m 0.71621542,5.214173 a 0.26458344,0.26458344 0 0 0 0,0.3741766 0.26458344,0.26458344 0 0 0 0.37417658,0 0.26458344,0.26458344 0 0 0 0,-0.3741766 L 0.9033037,5.0270834 Z"
     id="path20"
     style="fill:#3b85b5;stroke-width:0.132292" />
  <path
     d="m 4.4203836,4.4204227 a 0.26458344,0.26458344 0 0 0 0,0.3741766 0.26458344,0.26458344 0 0 0 0.3741765,0 0.26458344,0.26458344 0 0 0 0,-0.3741766 L 4.6074719,4.2333331 Z"
     id="path22"
     style="fill:#3b85b5;stroke-width:0.132292" />
  <path
     d="m 2.3037161,4.4204227 a 0.26458344,0.26458344 0 0 0 0,0.3741766 0.26458344,0.26458344 0 0 0 0.3741765,0 0.26458344,0.26458344 0 0 0 0,-0.3741766 L 2.4908043,4.2333331 Z"
     id="path26"
     style="fill:#3b85b5;stroke-width:0.132292" />
  <path
     id="rect848"
     style="fill:#4ce0c6;fill-opacity:1;stroke-width:0.132292;stroke-linejoin:round"
     d="M 1.432471,4.2333331 1.0583336,4.6074703 1.432471,4.9816078 1.8066084,4.6074703 Z m 2.1166665,0 L 3.1750003,4.6074703 3.5491375,4.9816078 3.923275,4.6074703 Z M 1.9616377,5.0270831 1.5875003,5.4012203 1.9616377,5.7753578 2.335775,5.4012203 Z m 2.1166665,0 L 3.704167,5.4012203 4.0783042,5.7753578 4.4524417,5.4012203 Z"
     sodipodi:nodetypes="cccccccccccccccccccc" />
</svg>
