<?xml version="1.0" encoding="UTF-8" standalone="no"?>
<svg
   width="22"
   height="22"
   version="1.1"
   id="svg24"
   sodipodi:docname="weather-clouds-wind.svg"
   inkscape:version="1.1.1 (3bf5ae0d25, 2021-09-20, custom)"
   xmlns:inkscape="http://www.inkscape.org/namespaces/inkscape"
   xmlns:sodipodi="http://sodipodi.sourceforge.net/DTD/sodipodi-0.dtd"
   xmlns:xlink="http://www.w3.org/1999/xlink"
   xmlns="http://www.w3.org/2000/svg"
   xmlns:svg="http://www.w3.org/2000/svg">
  <sodipodi:namedview
     id="namedview26"
     pagecolor="#ffffff"
     bordercolor="#666666"
     borderopacity="1.0"
     inkscape:pageshadow="2"
     inkscape:pageopacity="0.0"
     inkscape:pagecheckerboard="0"
     showgrid="false"
     inkscape:zoom="22.627417"
     inkscape:cx="8.4189901"
     inkscape:cy="10.496116"
     inkscape:window-width="1920"
     inkscape:window-height="999"
     inkscape:window-x="0"
     inkscape:window-y="0"
     inkscape:window-maximized="1"
     inkscape:current-layer="g22"
     showguides="false" />
  <defs
     id="defs14">
    <linearGradient
       inkscape:collect="always"
       id="linearGradient1670">
      <stop
         style="stop-color:#eff1f1;stop-opacity:1;"
         offset="0"
         id="stop1666" />
      <stop
         style="stop-color:#b0b8b8;stop-opacity:1"
         offset="1"
         id="stop1668" />
    </linearGradient>
    <linearGradient
       id="0">
      <stop
         stop-color="#faffa5"
         id="stop2" />
      <stop
         offset="1"
         stop-color="#edf573"
         id="stop4" />
    </linearGradient>
    <linearGradient
       id="1">
      <stop
         stop-color="#f0ff01"
         id="stop7" />
      <stop
         offset="1"
         stop-color="#ff9701"
         id="stop9" />
    </linearGradient>
    <linearGradient
       xlink:href="#1"
       id="2"
       y1="502.798"
       x2="0"
       y2="582.79797"
       gradientUnits="userSpaceOnUse"
       gradientTransform="translate(2.8569513,5.7140399)" />
    <linearGradient
       xlink:href="#0"
       id="3"
       y1="507.798"
       x2="0"
       y2="547.79797"
       gradientUnits="userSpaceOnUse"
       gradientTransform="matrix(1.0084012,0,0,1.0084012,-0.57529342,1.3138271)" />
    <linearGradient
       inkscape:collect="always"
       xlink:href="#linearGradient1670"
       id="linearGradient3388"
       x1="12"
       y1="8"
       x2="12.008127"
       y2="19.016552"
       gradientUnits="userSpaceOnUse" />
  </defs>
  <metadata
     id="metadata16" />
  <g
     transform="matrix(0.35000003,0,0,0.35000003,-135.00001,-175.32932)"
     id="g22">
    <rect
       width="39.999996"
       height="40.000019"
       x="391.42856"
       y="509.5123"
       ry="19.999998"
       fill="url(#2)"
       rx="19.999998"
       id="rect18"
       style="fill:url(#2);stroke-width:0.999994" />
    <rect
       width="34.285713"
       height="34.285736"
       x="394.28571"
       y="512.36945"
       fill="url(#3)"
       rx="17.142862"
       id="rect20"
       style="fill:url(#3);stroke-width:1.00839" />
    <path
       id="path2660"
       style="fill:url(#linearGradient3388);fill-opacity:1;stroke-width:0.583331;stroke-linejoin:round"
       d="M 12,8 C 9.2385763,8 7,10.238576 7,13 7.00601,13.06198 7.013168,13.123837 7.021484,13.185547 5.8191909,13.600352 5.009117,14.728194 5,16 c 1e-7,1.656854 1.3431458,3 3,3 h 8.5 C 18.432997,19 20,17.432997 20,15.5 19.998774,13.722834 18.665891,12.228694 16.900391,12.025391 16.435639,9.686822 14.384302,8.0017659 12,8 Z"
       transform="matrix(2.8571426,0,0,2.8571426,385.71428,500.94087)"
       sodipodi:nodetypes="ccccccccc" />
    <path
       id="path2660-5"
       style="opacity:0.2;fill:#000000;fill-opacity:1;stroke-width:0.583331;stroke-linejoin:round"
       d="M 19.960938,15 C 19.717589,16.695316 18.262646,18 16.5,18 H 8 C 6.5171244,18 5.2891724,16.923518 5.046875,15.509766 5.0191015,15.670173 5.0011946,15.83337 5,16 c 0,1.656855 1.3431454,3 3,3 h 8.5 C 18.432998,19 20,17.432998 20,15.5 19.999866,15.330023 19.98464,15.163917 19.96094,15 Z"
       transform="matrix(2.8571426,0,0,2.8571426,385.71428,500.94087)" />
    <path
       id="rect854"
       style="fill:#3daee9;fill-opacity:1;stroke-width:1.42857;stroke-linejoin:round"
       d="m 422.85713,532.36944 c -3.1559,0 -5.71428,2.55837 -5.71428,5.71428 h 2.85714 c 0,-1.57796 1.27918,-2.85714 2.85714,-2.85714 1.57796,0 2.85715,1.27918 2.85715,2.85714 0,1.57795 -1.27919,2.85714 -2.85715,2.85714 h -11.42857 v 2.85715 h 11.42857 c 3.15591,0 5.71429,-2.55838 5.71429,-5.71429 0,-3.15592 -2.55837,-5.71428 -5.71429,-5.71428 z m 14.28572,5.71428 c -3.15591,0 -5.71429,2.55838 -5.71429,5.71429 h 2.85714 c 0,-1.57796 1.27919,-2.85715 2.85715,-2.85715 1.57795,0 2.85714,1.27919 2.85714,2.85715 0,1.57795 -1.27919,2.85714 -2.85714,2.85714 h -28.57143 v 2.85714 h 28.57143 c 3.15591,0 5.71428,-2.55837 5.71428,-5.71428 0,-3.15591 -2.55837,-5.71429 -5.71428,-5.71429 z m -22.85714,14.28571 v 2.85715 h 17.14285 c 1.57796,0 2.85714,1.27918 2.85714,2.85714 0,1.57796 -1.27918,2.85714 -2.85714,2.85714 -1.57795,0 -2.85714,-1.27919 -2.85714,-2.85714 h -2.85714 c 0,3.15591 2.55837,5.71428 5.71428,5.71428 3.15592,0 5.71429,-2.55836 5.71429,-5.71428 0,-3.15591 -2.55838,-5.71429 -5.71429,-5.71429 z" />
  </g>
</svg>
