<?xml version="1.0" encoding="UTF-8" standalone="no"?>
<!-- Created with Inkscape (http://www.inkscape.org/) -->

<svg
   width="48"
   height="48"
   viewBox="0 0 12.7 12.7"
   version="1.1"
   id="svg1415"
   inkscape:version="1.1.1 (3bf5ae0d25, 2021-09-20, custom)"
   sodipodi:docname="user-home.svg"
   xmlns:inkscape="http://www.inkscape.org/namespaces/inkscape"
   xmlns:sodipodi="http://sodipodi.sourceforge.net/DTD/sodipodi-0.dtd"
   xmlns:xlink="http://www.w3.org/1999/xlink"
   xmlns="http://www.w3.org/2000/svg"
   xmlns:svg="http://www.w3.org/2000/svg">
  <sodipodi:namedview
     id="namedview1417"
     pagecolor="#ffffff"
     bordercolor="#666666"
     borderopacity="1.0"
     inkscape:pageshadow="2"
     inkscape:pageopacity="0.0"
     inkscape:pagecheckerboard="0"
     inkscape:document-units="px"
     showgrid="false"
     units="px"
     inkscape:zoom="16.895833"
     inkscape:cx="23.1418"
     inkscape:cy="36.073983"
     inkscape:window-width="1920"
     inkscape:window-height="1007"
     inkscape:window-x="0"
     inkscape:window-y="0"
     inkscape:window-maximized="1"
     inkscape:current-layer="svg1415" />
  <defs
     id="defs1412">
    <linearGradient
       inkscape:collect="always"
       id="linearGradient8759">
      <stop
         style="stop-color:#4d4d4d;stop-opacity:1;"
         offset="0"
         id="stop8755" />
      <stop
         style="stop-color:#666666;stop-opacity:1"
         offset="1"
         id="stop8757" />
    </linearGradient>
    <linearGradient
       inkscape:collect="always"
       id="linearGradient1817">
      <stop
         style="stop-color:#5e2750;stop-opacity:1"
         offset="0"
         id="stop1813" />
      <stop
         style="stop-color:#772953;stop-opacity:1"
         offset="0.43304467"
         id="stop5839" />
      <stop
         style="stop-color:#e95420;stop-opacity:1"
         offset="1"
         id="stop1815" />
    </linearGradient>
    <linearGradient
       inkscape:collect="always"
       xlink:href="#linearGradient1817"
       id="linearGradient1819"
       x1="0.52916586"
       y1="5.5562501"
       x2="14.287504"
       y2="5.5562501"
       gradientUnits="userSpaceOnUse" />
    <linearGradient
       inkscape:collect="always"
       xlink:href="#linearGradient8759"
       id="linearGradient8761"
       x1="11.641665"
       y1="11.1125"
       x2="6.3499999"
       y2="3.7041667"
       gradientUnits="userSpaceOnUse" />
  </defs>
  <path
     id="rect955"
     style="fill:url(#linearGradient1819);fill-opacity:1;stroke-width:0.374177"
     d="M 1.0583333,1.5875 H 5.2916666 L 6.35,2.9104167 l 5.291667,1e-7 0,5.0270832 H 1.0583333 Z"
     sodipodi:nodetypes="ccccccc" />
  <path
     id="rect6613"
     style="fill:#ffffff;fill-opacity:0.24;stroke-width:0.0529166"
     d="M 6.3499999,2.9104166 H 11.641665 V 3.1749999 H 6.3499999 L 5.2916666,1.5875 Z"
     sodipodi:nodetypes="cccccc" />
  <path
     id="rect8137"
     style="fill:url(#linearGradient8761);fill-opacity:1;stroke-width:0.393837"
     d="m 1.0583332,5.0270833 h 4.2333332 l 1.0583335,-1.3229167 5.2916671,10e-8 V 11.1125 H 1.0583315 Z"
     sodipodi:nodetypes="ccccccc" />
  <path
     id="rect7008"
     style="fill:#000000;fill-opacity:0.24;stroke-width:0.22776"
     d="M 1.0583332,4.7625 H 5.0270833 L 6.3499997,3.7041667 5.2916664,5.0270833 H 1.0583332 Z"
     sodipodi:nodetypes="cccccc" />
  <path
     id="rect7008-3"
     style="fill:#ffffff;fill-opacity:0.24;stroke-width:0.22776"
     d="M 1.0583332,5.0270833 H 5.2916664 L 6.3499997,3.7041667 5.5562495,5.2916663 H 1.0583332 Z"
     sodipodi:nodetypes="cccccc" />
  <rect
     style="fill:#000000;fill-opacity:0.24;stroke-width:0.159658"
     id="rect9471"
     width="10.583333"
     height="0.26458332"
     x="1.058332"
     y="10.847917" />
  <path
     d="m 5.953124,5.8208333 c -0.366447,0 -0.661458,0.2950105 -0.661458,0.6614584 0,0.3664479 0.295011,0.6614583 0.661458,0.6614583 0.366448,0 0.661459,-0.2950104 0.661459,-0.6614583 0,-0.3664479 -0.295011,-0.6614584 -0.661459,-0.6614584 z m 0,0.2645834 c 0.219869,0 0.396875,0.1770062 0.396875,0.396875 0,0.2198687 -0.177006,0.396875 -0.396875,0.396875 -0.219868,0 -0.396874,-0.1770063 -0.396874,-0.396875 0,-0.2198688 0.177006,-0.396875 0.396874,-0.396875 z M 7.408333,6.35 c -0.293159,0 -0.529167,0.2360083 -0.529167,0.5291667 0,0.2931583 0.236008,0.5291666 0.529167,0.5291666 0.293158,0 0.529166,-0.2360083 0.529166,-0.5291666 C 7.937499,6.5860083 7.701491,6.35 7.408333,6.35 Z m 0,0.2645833 c 0.146579,0 0.264583,0.1180042 0.264583,0.2645834 0,0.1465791 -0.118004,0.2645833 -0.264583,0.2645833 -0.146579,0 -0.264584,-0.1180042 -0.264584,-0.2645833 0,-0.1465792 0.118005,-0.2645834 0.264584,-0.2645834 z m -1.455209,0.79375 c -0.659603,0 -1.190624,0.5310214 -1.190624,1.190625 v 0.396875 h 2.381252 v -0.396875 c 0,-0.6596036 -0.531021,-1.190625 -1.190628,-1.190625 z m 0,0.2645834 c 0.513025,0 0.926042,0.4130172 0.926042,0.9260416 V 8.73125 H 5.027083 V 8.5989583 c 0,-0.5130244 0.413017,-0.9260416 0.926041,-0.9260416 z m 1.455209,0 c -0.146772,0 -0.282281,0.042204 -0.399976,0.1111038 0.06433,0.062674 0.12314,0.1309873 0.173633,0.2056738 0.06882,-0.032636 0.144846,-0.052194 0.226343,-0.052194 0.293158,0 0.529166,0.2360083 0.529166,0.5291666 H 7.381978 c 0.01722,0.085482 0.02635,0.1738763 0.02635,0.2645834 h 0.79375 V 8.4666666 c 0,-0.4397374 -0.354012,-0.7937499 -0.79375,-0.7937499 z"
     id="path23"
     style="fill:#999999;fill-opacity:1;stroke-width:0.264583" />
</svg>
